<?xml version="1.0" encoding="UTF-8" standalone="no"?>
<!DOCTYPE svg PUBLIC "-//W3C//DTD SVG 1.1//EN"
 "http://www.w3.org/Graphics/SVG/1.1/DTD/svg11.dtd">
<!-- Generated by graphviz version 2.38.0 (20140413.2041)
 -->
<!-- Title: Graphical Class Hierarchy Pages: 1 -->
<svg width="264pt" height="116pt"
 viewBox="0.00 0.00 264.00 115.50" xmlns="http://www.w3.org/2000/svg" xmlns:xlink="http://www.w3.org/1999/xlink">
<g id="graph0" class="graph" transform="scale(1 1) rotate(0) translate(4 111.5)">
<title>Graphical Class Hierarchy</title>
<polygon fill="white" stroke="none" points="-4,4 -4,-111.5 260,-111.5 260,4 -4,4"/>
<!-- Node1 -->
<g id="node1" class="node"><title>Node1</title>
<g id="a_node1"><a xlink:href="structsll__m__advection__2d__base_1_1sll__c__advector__2d.html" target="_top" xlink:title="sll_c_advector_2d">
<polygon fill="white" stroke="black" points="0,-50 0,-69 95,-69 95,-50 0,-50"/>
<text text-anchor="middle" x="47.5" y="-57" font-family="Helvetica,sans-Serif" font-size="10.00">sll_c_advector_2d</text>
</a>
</g>
</g>
<!-- Node2 -->
<g id="node2" class="node"><title>Node2</title>
<g id="a_node2"><a xlink:href="structsll__m__advection__2d__bsl_1_1sll__t__advector__2d__bsl.html" target="_top" xlink:title="sll_t_advector_2d_bsl">
<polygon fill="white" stroke="black" points="138,-88 138,-107 249,-107 249,-88 138,-88"/>
<text text-anchor="middle" x="193.5" y="-95" font-family="Helvetica,sans-Serif" font-size="10.00">sll_t_advector_2d_bsl</text>
</a>
</g>
</g>
<!-- Node1&#45;&gt;Node2 -->
<g id="edge1" class="edge"><title>Node1&#45;&gt;Node2</title>
<path fill="none" stroke="midnightblue" d="M94.6722,-71.6843C114.664,-76.96 137.719,-83.0438 156.424,-87.9799"/>
<polygon fill="midnightblue" stroke="midnightblue" points="95.3994,-68.2565 84.8373,-69.089 93.6132,-75.0248 95.3994,-68.2565"/>
</g>
<!-- Node3 -->
<g id="node3" class="node"><title>Node3</title>
<g id="a_node3"><a xlink:href="structsll__m__advection__2d__csl_1_1sll__t__csl__2d__advector.html" target="_top" xlink:title="sll_t_csl_2d_advector">
<polygon fill="white" stroke="black" points="138,-50 138,-69 249,-69 249,-50 138,-50"/>
<text text-anchor="middle" x="193.5" y="-57" font-family="Helvetica,sans-Serif" font-size="10.00">sll_t_csl_2d_advector</text>
</a>
</g>
</g>
<!-- Node1&#45;&gt;Node3 -->
<g id="edge2" class="edge"><title>Node1&#45;&gt;Node3</title>
<path fill="none" stroke="midnightblue" d="M105.368,-59.5C116.103,-59.5 127.307,-59.5 137.968,-59.5"/>
<polygon fill="midnightblue" stroke="midnightblue" points="105.253,-56.0001 95.2527,-59.5 105.253,-63.0001 105.253,-56.0001"/>
</g>
<!-- Node4 -->
<g id="node4" class="node"><title>Node4</title>
<g id="a_node4"><a xlink:href="structsll__m__advection__2d__tensor__product_1_1sll__t__advector__2d__tensor__product.html" target="_top" xlink:title="sll_t_advector_2d_tensor\l_product">
<polygon fill="white" stroke="black" points="131,-0.5 131,-30.5 256,-30.5 256,-0.5 131,-0.5"/>
<text text-anchor="start" x="139" y="-18.5" font-family="Helvetica,sans-Serif" font-size="10.00">sll_t_advector_2d_tensor</text>
<text text-anchor="middle" x="193.5" y="-7.5" font-family="Helvetica,sans-Serif" font-size="10.00">_product</text>
</a>
</g>
</g>
<!-- Node1&#45;&gt;Node4 -->
<g id="edge3" class="edge"><title>Node1&#45;&gt;Node4</title>
<path fill="none" stroke="midnightblue" d="M89.7337,-46.9008C106.405,-41.8069 125.786,-35.8849 143.195,-30.5654"/>
<polygon fill="midnightblue" stroke="midnightblue" points="88.2866,-43.6832 79.7459,-49.9527 90.3322,-50.3776 88.2866,-43.6832"/>
</g>
</g>
</svg>
