<?xml version="1.0" encoding="UTF-8" standalone="no"?>
<!DOCTYPE svg PUBLIC "-//W3C//DTD SVG 1.1//EN"
 "http://www.w3.org/Graphics/SVG/1.1/DTD/svg11.dtd">
<!-- Generated by graphviz version 2.38.0 (20140413.2041)
 -->
<!-- Title: Graphical Class Hierarchy Pages: 1 -->
<svg width="206pt" height="104pt"
 viewBox="0.00 0.00 206.00 104.00" xmlns="http://www.w3.org/2000/svg" xmlns:xlink="http://www.w3.org/1999/xlink">
<g id="graph0" class="graph" transform="scale(1 1) rotate(0) translate(4 100)">
<title>Graphical Class Hierarchy</title>
<polygon fill="white" stroke="none" points="-4,4 -4,-100 202,-100 202,4 -4,4"/>
<!-- Node1 -->
<g id="node1" class="node"><title>Node1</title>
<g id="a_node1"><a xlink:href="structsll__m__xml_1_1c__xml__item.html" target="_top" xlink:title="Base class for all the XML entities which can appear in content. ">
<polygon fill="white" stroke="black" points="0,-38.5 0,-57.5 67,-57.5 67,-38.5 0,-38.5"/>
<text text-anchor="middle" x="33.5" y="-45.5" font-family="Helvetica,sans-Serif" font-size="10.00">c_xml_item</text>
</a>
</g>
</g>
<!-- Node2 -->
<g id="node2" class="node"><title>Node2</title>
<g id="a_node2"><a xlink:href="structsll__m__xml_1_1sll__t__xml__element.html" target="_top" xlink:title="XML element type. ">
<polygon fill="white" stroke="black" points="103,-76.5 103,-95.5 198,-95.5 198,-76.5 103,-76.5"/>
<text text-anchor="middle" x="150.5" y="-83.5" font-family="Helvetica,sans-Serif" font-size="10.00">sll_t_xml_element</text>
</a>
</g>
</g>
<!-- Node1&#45;&gt;Node2 -->
<g id="edge1" class="edge"><title>Node1&#45;&gt;Node2</title>
<path fill="none" stroke="midnightblue" d="M73.3153,-60.8259C88.7459,-65.9247 106.191,-71.6891 120.49,-76.4141"/>
<polygon fill="midnightblue" stroke="midnightblue" points="74.1126,-57.4033 63.5194,-57.589 71.9163,-64.0498 74.1126,-57.4033"/>
</g>
<!-- Node3 -->
<g id="node3" class="node"><title>Node3</title>
<g id="a_node3"><a xlink:href="structsll__m__xml_1_1t__xml__chardata.html" target="_top" xlink:title="XML type: chardata. ">
<polygon fill="white" stroke="black" points="109,-38.5 109,-57.5 192,-57.5 192,-38.5 109,-38.5"/>
<text text-anchor="middle" x="150.5" y="-45.5" font-family="Helvetica,sans-Serif" font-size="10.00">t_xml_chardata</text>
</a>
</g>
</g>
<!-- Node1&#45;&gt;Node3 -->
<g id="edge2" class="edge"><title>Node1&#45;&gt;Node3</title>
<path fill="none" stroke="midnightblue" d="M77.2477,-48C87.6331,-48 98.7071,-48 108.986,-48"/>
<polygon fill="midnightblue" stroke="midnightblue" points="77.1468,-44.5001 67.1468,-48 77.1467,-51.5001 77.1468,-44.5001"/>
</g>
<!-- Node4 -->
<g id="node4" class="node"><title>Node4</title>
<g id="a_node4"><a xlink:href="structsll__m__xml_1_1t__xml__content.html" target="_top" xlink:title="XML type: linked list of XML entities, used in element content. ">
<polygon fill="white" stroke="black" points="111.5,-0.5 111.5,-19.5 189.5,-19.5 189.5,-0.5 111.5,-0.5"/>
<text text-anchor="middle" x="150.5" y="-7.5" font-family="Helvetica,sans-Serif" font-size="10.00">t_xml_content</text>
</a>
</g>
</g>
<!-- Node1&#45;&gt;Node4 -->
<g id="edge3" class="edge"><title>Node1&#45;&gt;Node4</title>
<path fill="none" stroke="midnightblue" d="M73.3153,-35.1741C88.7459,-30.0753 106.191,-24.3109 120.49,-19.5859"/>
<polygon fill="midnightblue" stroke="midnightblue" points="71.9163,-31.9502 63.5194,-38.411 74.1126,-38.5967 71.9163,-31.9502"/>
</g>
</g>
</svg>
