<?xml version="1.0" encoding="UTF-8" standalone="no"?>
<!DOCTYPE svg PUBLIC "-//W3C//DTD SVG 1.1//EN"
 "http://www.w3.org/Graphics/SVG/1.1/DTD/svg11.dtd">
<!-- Generated by graphviz version 2.43.0 (0)
 -->
<!-- Title: Graphical Class Hierarchy Pages: 1 -->
<svg width="254pt" height="78pt"
 viewBox="0.00 0.00 254.00 77.50" xmlns="http://www.w3.org/2000/svg" xmlns:xlink="http://www.w3.org/1999/xlink">
<g id="graph0" class="graph" transform="scale(1 1) rotate(0) translate(4 73.5)">
<title>Graphical Class Hierarchy</title>
<polygon fill="white" stroke="transparent" points="-4,4 -4,-73.5 250,-73.5 250,4 -4,4"/>
<!-- Node0 -->
<g id="node1" class="node">
<title>Node0</title>
<g id="a_node1"><a xlink:href="structsll__m__bsplines__base_1_1sll__c__bsplines.html" target="_top" xlink:title="Abstract type, B&#45;splines.">
<polygon fill="white" stroke="black" points="0,-22.5 0,-41.5 84,-41.5 84,-22.5 0,-22.5"/>
<text text-anchor="middle" x="42" y="-29.5" font-family="Helvetica,sans-Serif" font-size="10.00">sll_c_bsplines</text>
</a>
</g>
</g>
<!-- Node1 -->
<g id="node2" class="node">
<title>Node1</title>
<g id="a_node2"><a xlink:href="structsll__m__bsplines__non__uniform_1_1sll__t__bsplines__non__uniform.html" target="_top" xlink:title="Abstract type, B&#45;splines.">
<polygon fill="white" stroke="black" points="130,-39 130,-69 236,-69 236,-39 130,-39"/>
<text text-anchor="start" x="138" y="-57" font-family="Helvetica,sans-Serif" font-size="10.00">sll_t_bsplines_non</text>
<text text-anchor="middle" x="183" y="-46" font-family="Helvetica,sans-Serif" font-size="10.00">_uniform</text>
</a>
</g>
</g>
<!-- Node0&#45;&gt;Node1 -->
<g id="edge1" class="edge">
<title>Node0&#45;&gt;Node1</title>
<path fill="none" stroke="midnightblue" d="M94.32,-40.12C105.95,-41.96 118.31,-43.92 129.97,-45.77"/>
<polygon fill="midnightblue" stroke="midnightblue" points="94.75,-36.65 84.33,-38.54 93.66,-43.56 94.75,-36.65"/>
</g>
<!-- Node2 -->
<g id="node3" class="node">
<title>Node2</title>
<g id="a_node3"><a xlink:href="structsll__m__bsplines__uniform_1_1sll__t__bsplines__uniform.html" target="_top" xlink:title="Abstract type, B&#45;splines.">
<polygon fill="white" stroke="black" points="120,-0.5 120,-19.5 246,-19.5 246,-0.5 120,-0.5"/>
<text text-anchor="middle" x="183" y="-7.5" font-family="Helvetica,sans-Serif" font-size="10.00">sll_t_bsplines_uniform</text>
</a>
</g>
</g>
<!-- Node0&#45;&gt;Node2 -->
<g id="edge2" class="edge">
<title>Node0&#45;&gt;Node2</title>
<path fill="none" stroke="midnightblue" d="M94.23,-23.89C103.2,-22.47 112.61,-20.98 121.79,-19.53"/>
<polygon fill="midnightblue" stroke="midnightblue" points="93.66,-20.44 84.33,-25.46 94.75,-27.35 93.66,-20.44"/>
</g>
</g>
</svg>
