<?xml version="1.0" encoding="UTF-8" standalone="no"?>
<!DOCTYPE svg PUBLIC "-//W3C//DTD SVG 1.1//EN"
 "http://www.w3.org/Graphics/SVG/1.1/DTD/svg11.dtd">
<!-- Generated by graphviz version 2.43.0 (0)
 -->
<!-- Title: Graphical Class Hierarchy Pages: 1 -->
<svg width="477pt" height="83pt"
 viewBox="0.00 0.00 477.00 83.00" xmlns="http://www.w3.org/2000/svg" xmlns:xlink="http://www.w3.org/1999/xlink">
<g id="graph0" class="graph" transform="scale(1 1) rotate(0) translate(4 79)">
<title>Graphical Class Hierarchy</title>
<polygon fill="white" stroke="transparent" points="-4,4 -4,-79 473,-79 473,4 -4,4"/>
<!-- Node0 -->
<g id="node1" class="node">
<title>Node0</title>
<g id="a_node1"><a xlink:href="structsll__m__initial__distribution_1_1sll__c__distribution__params.html" target="_top" xlink:title="Abstract data type for parameters of initial distribution.">
<polygon fill="white" stroke="black" points="0,-22.5 0,-52.5 99,-52.5 99,-22.5 0,-22.5"/>
<text text-anchor="start" x="8" y="-40.5" font-family="Helvetica,sans-Serif" font-size="10.00">sll_c_distribution</text>
<text text-anchor="middle" x="49.5" y="-29.5" font-family="Helvetica,sans-Serif" font-size="10.00">_params</text>
</a>
</g>
</g>
<!-- Node1 -->
<g id="node2" class="node">
<title>Node1</title>
<g id="a_node2"><a xlink:href="structsll__m__initial__distribution_1_1sll__t__params__cos__gaussian.html" target="_top" xlink:title="Data type for distribution function with (multiple) Gaussians in v and one plus cosine perturbations ...">
<polygon fill="white" stroke="black" points="135,-50 135,-69 284,-69 284,-50 135,-50"/>
<text text-anchor="middle" x="209.5" y="-57" font-family="Helvetica,sans-Serif" font-size="10.00">sll_t_params_cos_gaussian</text>
</a>
</g>
</g>
<!-- Node0&#45;&gt;Node1 -->
<g id="edge1" class="edge">
<title>Node0&#45;&gt;Node1</title>
<path fill="none" stroke="midnightblue" d="M109.13,-45.66C119.26,-47.07 129.86,-48.55 140.22,-49.99"/>
<polygon fill="midnightblue" stroke="midnightblue" points="109.58,-42.19 99.19,-44.28 108.62,-49.13 109.58,-42.19"/>
</g>
<!-- Node3 -->
<g id="node4" class="node">
<title>Node3</title>
<g id="a_node4"><a xlink:href="structsll__m__initial__distribution_1_1sll__t__params__noise__gaussian.html" target="_top" xlink:title=" ">
<polygon fill="white" stroke="black" points="154.5,-0.5 154.5,-30.5 264.5,-30.5 264.5,-0.5 154.5,-0.5"/>
<text text-anchor="start" x="162.5" y="-18.5" font-family="Helvetica,sans-Serif" font-size="10.00">sll_t_params_noise</text>
<text text-anchor="middle" x="209.5" y="-7.5" font-family="Helvetica,sans-Serif" font-size="10.00">_gaussian</text>
</a>
</g>
</g>
<!-- Node0&#45;&gt;Node3 -->
<g id="edge3" class="edge">
<title>Node0&#45;&gt;Node3</title>
<path fill="none" stroke="midnightblue" d="M109.26,-29.32C124.07,-27.26 139.89,-25.05 154.46,-23.02"/>
<polygon fill="midnightblue" stroke="midnightblue" points="108.62,-25.87 99.19,-30.72 109.58,-32.81 108.62,-25.87"/>
</g>
<!-- Node2 -->
<g id="node3" class="node">
<title>Node2</title>
<g id="a_node3"><a xlink:href="structsll__m__initial__distribution_1_1sll__t__params__cos__gaussian__screwpinch.html" target="_top" xlink:title=" ">
<polygon fill="white" stroke="black" points="320,-44.5 320,-74.5 469,-74.5 469,-44.5 320,-44.5"/>
<text text-anchor="start" x="328" y="-62.5" font-family="Helvetica,sans-Serif" font-size="10.00">sll_t_params_cos_gaussian</text>
<text text-anchor="middle" x="394.5" y="-51.5" font-family="Helvetica,sans-Serif" font-size="10.00">_screwpinch</text>
</a>
</g>
</g>
<!-- Node1&#45;&gt;Node2 -->
<g id="edge2" class="edge">
<title>Node1&#45;&gt;Node2</title>
<path fill="none" stroke="midnightblue" d="M294.39,-59.5C302.84,-59.5 311.38,-59.5 319.71,-59.5"/>
<polygon fill="midnightblue" stroke="midnightblue" points="294.14,-56 284.14,-59.5 294.14,-63 294.14,-56"/>
</g>
</g>
</svg>
