<?xml version="1.0" encoding="UTF-8" standalone="no"?>
<!DOCTYPE svg PUBLIC "-//W3C//DTD SVG 1.1//EN"
 "http://www.w3.org/Graphics/SVG/1.1/DTD/svg11.dtd">
<!-- Generated by graphviz version 2.43.0 (0)
 -->
<!-- Title: gauss_lobatto_integral_1d Pages: 1 -->
<svg width="457pt" height="100pt"
 viewBox="0.00 0.00 457.00 99.50" xmlns="http://www.w3.org/2000/svg" xmlns:xlink="http://www.w3.org/1999/xlink">
<g id="graph0" class="graph" transform="scale(1 1) rotate(0) translate(4 95.5)">
<title>gauss_lobatto_integral_1d</title>
<polygon fill="white" stroke="transparent" points="-4,4 -4,-95.5 453,-95.5 453,4 -4,4"/>
<!-- Node1 -->
<g id="node1" class="node">
<title>Node1</title>
<g id="a_node1"><a xlink:title="Gauss&#45;Lobatto Quadrature.">
<polygon fill="#bfbfbf" stroke="black" points="0,-38.5 0,-57.5 145,-57.5 145,-38.5 0,-38.5"/>
<text text-anchor="middle" x="72.5" y="-45.5" font-family="Helvetica,sans-Serif" font-size="10.00">gauss_lobatto_integral_1d</text>
</a>
</g>
</g>
<!-- Node2 -->
<g id="node2" class="node">
<title>Node2</title>
<g id="a_node2"><a xlink:href="namespacesll__m__gauss__lobatto__integration.html#aef28cd44b846400f5133a0ee289babbc" target="_top" xlink:title="This comes from http://dl.acm.org, Algorithme 726 : ORTHPOL, appendices and supplements To use those ...">
<polygon fill="white" stroke="black" points="181,-61 181,-91 297,-91 297,-61 181,-61"/>
<text text-anchor="start" x="189" y="-79" font-family="Helvetica,sans-Serif" font-size="10.00">sll_m_gauss_lobatto</text>
<text text-anchor="middle" x="239" y="-68" font-family="Helvetica,sans-Serif" font-size="10.00">_integration::dlob</text>
</a>
</g>
</g>
<!-- Node1&#45;&gt;Node2 -->
<g id="edge1" class="edge">
<title>Node1&#45;&gt;Node2</title>
<path fill="none" stroke="midnightblue" d="M129.65,-57.56C142.98,-59.83 157.34,-62.27 171.09,-64.61"/>
<polygon fill="midnightblue" stroke="midnightblue" points="170.54,-68.07 180.98,-66.3 171.71,-61.17 170.54,-68.07"/>
</g>
<!-- Node4 -->
<g id="node4" class="node">
<title>Node4</title>
<g id="a_node4"><a xlink:href="namespacesll__m__gauss__lobatto__integration.html#aff7a4b25544863e1049ea290d0c11db1" target="_top" xlink:title="Gauss&#45;Lobatto Quadrature.">
<polygon fill="white" stroke="black" points="181,-0.5 181,-41.5 297,-41.5 297,-0.5 181,-0.5"/>
<text text-anchor="start" x="189" y="-29.5" font-family="Helvetica,sans-Serif" font-size="10.00">sll_m_gauss_lobatto</text>
<text text-anchor="start" x="189" y="-18.5" font-family="Helvetica,sans-Serif" font-size="10.00">_integration::gauss</text>
<text text-anchor="middle" x="239" y="-7.5" font-family="Helvetica,sans-Serif" font-size="10.00">_lobatto_integral_1d</text>
</a>
</g>
</g>
<!-- Node1&#45;&gt;Node4 -->
<g id="edge3" class="edge">
<title>Node1&#45;&gt;Node4</title>
<path fill="none" stroke="midnightblue" d="M131.5,-38.48C144.25,-36.39 157.86,-34.15 170.93,-32.01"/>
<polygon fill="midnightblue" stroke="midnightblue" points="171.5,-35.46 180.8,-30.39 170.37,-28.55 171.5,-35.46"/>
</g>
<!-- Node3 -->
<g id="node3" class="node">
<title>Node3</title>
<g id="a_node3"><a xlink:href="namespacesll__m__gauss__lobatto__integration.html#a20a90d157ba32cd27c5d6f89eccf3735" target="_top" xlink:title="Given n and a measure dlambda, this routine generates the n&#45;point Gaussian quadrature formula.">
<polygon fill="white" stroke="black" points="333,-61 333,-91 449,-91 449,-61 333,-61"/>
<text text-anchor="start" x="341" y="-79" font-family="Helvetica,sans-Serif" font-size="10.00">sll_m_gauss_lobatto</text>
<text text-anchor="middle" x="391" y="-68" font-family="Helvetica,sans-Serif" font-size="10.00">_integration::dgauss</text>
</a>
</g>
</g>
<!-- Node2&#45;&gt;Node3 -->
<g id="edge2" class="edge">
<title>Node2&#45;&gt;Node3</title>
<path fill="none" stroke="midnightblue" d="M297.14,-76C305.38,-76 313.92,-76 322.34,-76"/>
<polygon fill="midnightblue" stroke="midnightblue" points="322.53,-79.5 332.53,-76 322.53,-72.5 322.53,-79.5"/>
</g>
</g>
</svg>
