<?xml version="1.0" encoding="UTF-8" standalone="no"?>
<!DOCTYPE svg PUBLIC "-//W3C//DTD SVG 1.1//EN"
 "http://www.w3.org/Graphics/SVG/1.1/DTD/svg11.dtd">
<!-- Generated by graphviz version 2.43.0 (0)
 -->
<!-- Title: sll_f_eval_landau1d Pages: 1 -->
<svg width="295pt" height="88pt"
 viewBox="0.00 0.00 295.00 88.00" xmlns="http://www.w3.org/2000/svg" xmlns:xlink="http://www.w3.org/1999/xlink">
<g id="graph0" class="graph" transform="scale(1 1) rotate(0) translate(4 84)">
<title>sll_f_eval_landau1d</title>
<polygon fill="white" stroke="transparent" points="-4,4 -4,-84 291,-84 291,4 -4,4"/>
<!-- Node1 -->
<g id="node1" class="node">
<title>Node1</title>
<g id="a_node1"><a xlink:title=" ">
<polygon fill="#bfbfbf" stroke="black" points="174,-30 174,-49 287,-49 287,-30 174,-30"/>
<text text-anchor="middle" x="230.5" y="-37" font-family="Helvetica,sans-Serif" font-size="10.00">sll_f_eval_landau1d</text>
</a>
</g>
</g>
<!-- Node2 -->
<g id="node2" class="node">
<title>Node2</title>
<g id="a_node2"><a xlink:href="namespacesll__m__particle__initializers__4d.html#a1a13920751651fba155b40e2077ae4be" target="_top" xlink:title="Initialize particles in a 2d+2v phase space using pseudo&#45;random generators. The Landau damping case w...">
<polygon fill="white" stroke="black" points="0,-49.5 0,-79.5 138,-79.5 138,-49.5 0,-49.5"/>
<text text-anchor="start" x="8" y="-67.5" font-family="Helvetica,sans-Serif" font-size="10.00">sll_s_initial_hammersley</text>
<text text-anchor="middle" x="69" y="-56.5" font-family="Helvetica,sans-Serif" font-size="10.00">_particles_4d</text>
</a>
</g>
</g>
<!-- Node1&#45;&gt;Node2 -->
<g id="edge1" class="edge">
<title>Node1&#45;&gt;Node2</title>
<path fill="none" stroke="midnightblue" d="M163.59,-49.83C155.17,-51.15 146.55,-52.5 138.11,-53.83"/>
<polygon fill="midnightblue" stroke="midnightblue" points="164.38,-53.25 173.71,-48.24 163.29,-46.33 164.38,-53.25"/>
</g>
<!-- Node3 -->
<g id="node3" class="node">
<title>Node3</title>
<g id="a_node3"><a xlink:href="namespacesll__m__particle__initializers__4d.html#a4101468539fceb8c77239540286ee76b" target="_top" xlink:title="Initialize particles in a 2d+2v phase space using random generators. The Landau damping case with a p...">
<polygon fill="white" stroke="black" points="12,-0.5 12,-30.5 126,-30.5 126,-0.5 12,-0.5"/>
<text text-anchor="start" x="20" y="-18.5" font-family="Helvetica,sans-Serif" font-size="10.00">sll_s_initial_random</text>
<text text-anchor="middle" x="69" y="-7.5" font-family="Helvetica,sans-Serif" font-size="10.00">_particles_4d</text>
</a>
</g>
</g>
<!-- Node1&#45;&gt;Node3 -->
<g id="edge2" class="edge">
<title>Node1&#45;&gt;Node3</title>
<path fill="none" stroke="midnightblue" d="M163.78,-29.61C151.24,-27.72 138.23,-25.77 126.02,-23.93"/>
<polygon fill="midnightblue" stroke="midnightblue" points="163.31,-33.08 173.71,-31.11 164.35,-26.16 163.31,-33.08"/>
</g>
</g>
</svg>
