<?xml version="1.0" encoding="UTF-8" standalone="no"?>
<!DOCTYPE svg PUBLIC "-//W3C//DTD SVG 1.1//EN"
 "http://www.w3.org/Graphics/SVG/1.1/DTD/svg11.dtd">
<!-- Generated by graphviz version 2.40.1 (20161225.0304)
 -->
<!-- Title: insert_recursive_fourier Pages: 1 -->
<svg width="422pt" height="180pt"
 viewBox="0.00 0.00 422.00 180.00" xmlns="http://www.w3.org/2000/svg" xmlns:xlink="http://www.w3.org/1999/xlink">
<g id="graph0" class="graph" transform="scale(1 1) rotate(0) translate(4 176)">
<title>insert_recursive_fourier</title>
<polygon fill="#ffffff" stroke="transparent" points="-4,4 -4,-176 418,-176 418,4 -4,4"/>
<!-- Node259 -->
<g id="node1" class="node">
<title>Node259</title>
<polygon fill="#bfbfbf" stroke="#000000" points="0,-76.5 0,-95.5 132,-95.5 132,-76.5 0,-76.5"/>
<text text-anchor="middle" x="66" y="-83.5" font-family="Helvetica,sans-Serif" font-size="10.00" fill="#000000">insert_recursive_fourier</text>
</g>
<!-- Node260 -->
<g id="node2" class="node">
<title>Node260</title>
<g id="a_node2"><a xlink:href="namespacesll__m__sparse__grid__interpolator.html#aad904cb37ec386510d3f63b8818ba2a1" target="_top" xlink:title="insert_fourier">
<polygon fill="#ffffff" stroke="#000000" points="168,-76.5 168,-95.5 250,-95.5 250,-76.5 168,-76.5"/>
<text text-anchor="middle" x="209" y="-83.5" font-family="Helvetica,sans-Serif" font-size="10.00" fill="#000000">insert_fourier</text>
</a>
</g>
</g>
<!-- Node259&#45;&gt;Node260 -->
<g id="edge1" class="edge">
<title>Node259&#45;&gt;Node260</title>
<path fill="none" stroke="#191970" d="M142.3268,-86C151.063,-86 159.7027,-86 167.7209,-86"/>
<polygon fill="#191970" stroke="#191970" points="142.0584,-82.5001 132.0584,-86 142.0584,-89.5001 142.0584,-82.5001"/>
</g>
<!-- Node261 -->
<g id="node3" class="node">
<title>Node261</title>
<g id="a_node3"><a xlink:href="namespacesll__m__sparse__grid__interpolator.html#aed35bcf2b06e817253fd75cdeeb0f63e" target="_top" xlink:title="Compute Fourier coefficients on sparse grid along dimension dim. ">
<polygon fill="#ffffff" stroke="#000000" points="302.5,-152.5 302.5,-171.5 397.5,-171.5 397.5,-152.5 302.5,-152.5"/>
<text text-anchor="middle" x="350" y="-159.5" font-family="Helvetica,sans-Serif" font-size="10.00" fill="#000000">tohierarchical1d</text>
</a>
</g>
</g>
<!-- Node260&#45;&gt;Node261 -->
<g id="edge2" class="edge">
<title>Node260&#45;&gt;Node261</title>
<path fill="none" stroke="#191970" d="M227.5653,-102.6636C242.448,-115.2689 264.3539,-132.1968 286,-143 293.4668,-146.7266 301.7961,-149.8599 309.912,-152.4388"/>
<polygon fill="#191970" stroke="#191970" points="229.5184,-99.7248 219.6693,-95.8203 224.9338,-105.0146 229.5184,-99.7248"/>
</g>
<!-- Node262 -->
<g id="node4" class="node">
<title>Node262</title>
<g id="a_node4"><a xlink:href="namespacesll__m__sparse__grid__interpolator.html#a756b07ef8bb7237d4ba19d1532a8fa26" target="_top" xlink:title="Complex version of ToHierarchical1d_comp. ">
<polygon fill="#ffffff" stroke="#000000" points="286,-114.5 286,-133.5 414,-133.5 414,-114.5 286,-114.5"/>
<text text-anchor="middle" x="350" y="-121.5" font-family="Helvetica,sans-Serif" font-size="10.00" fill="#000000">tohierarchical1d_comp</text>
</a>
</g>
</g>
<!-- Node260&#45;&gt;Node262 -->
<g id="edge3" class="edge">
<title>Node260&#45;&gt;Node262</title>
<path fill="none" stroke="#191970" d="M254.4398,-98.2462C273.875,-103.484 296.2311,-109.5091 314.4311,-114.4141"/>
<polygon fill="#191970" stroke="#191970" points="255.1465,-94.8118 244.5803,-95.589 253.325,-101.5707 255.1465,-94.8118"/>
</g>
<!-- Node263 -->
<g id="node5" class="node">
<title>Node263</title>
<g id="a_node5"><a xlink:href="namespacesll__m__sparse__grid__interpolator.html#a939b2cd02adba4b67a52b65dbb4a79ab" target="_top" xlink:title="tohira1d">
<polygon fill="#ffffff" stroke="#000000" points="321.5,-76.5 321.5,-95.5 378.5,-95.5 378.5,-76.5 321.5,-76.5"/>
<text text-anchor="middle" x="350" y="-83.5" font-family="Helvetica,sans-Serif" font-size="10.00" fill="#000000">tohira1d</text>
</a>
</g>
</g>
<!-- Node260&#45;&gt;Node263 -->
<g id="edge4" class="edge">
<title>Node260&#45;&gt;Node263</title>
<path fill="none" stroke="#191970" d="M260.3048,-86C280.7843,-86 303.603,-86 321.0997,-86"/>
<polygon fill="#191970" stroke="#191970" points="260.1621,-82.5001 250.1621,-86 260.162,-89.5001 260.1621,-82.5001"/>
</g>
<!-- Node264 -->
<g id="node6" class="node">
<title>Node264</title>
<g id="a_node6"><a xlink:href="namespacesll__m__sparse__grid__interpolator.html#af0b2f6f3a60fd454f62ea1d2158da770" target="_top" xlink:title="todehi1d">
<polygon fill="#ffffff" stroke="#000000" points="320.5,-38.5 320.5,-57.5 379.5,-57.5 379.5,-38.5 320.5,-38.5"/>
<text text-anchor="middle" x="350" y="-45.5" font-family="Helvetica,sans-Serif" font-size="10.00" fill="#000000">todehi1d</text>
</a>
</g>
</g>
<!-- Node260&#45;&gt;Node264 -->
<g id="edge5" class="edge">
<title>Node260&#45;&gt;Node264</title>
<path fill="none" stroke="#191970" d="M254.495,-73.7389C276.0085,-67.941 301.0909,-61.1812 320.1514,-56.0443"/>
<polygon fill="#191970" stroke="#191970" points="253.325,-70.4293 244.5803,-76.411 255.1465,-77.1882 253.325,-70.4293"/>
</g>
<!-- Node265 -->
<g id="node7" class="node">
<title>Node265</title>
<g id="a_node7"><a xlink:href="namespacesll__m__sparse__grid__interpolator.html#a906d1565abb9f4fc4d7f82d622d9f9b2" target="_top" xlink:title="displace1d">
<polygon fill="#ffffff" stroke="#000000" points="315.5,-.5 315.5,-19.5 384.5,-19.5 384.5,-.5 315.5,-.5"/>
<text text-anchor="middle" x="350" y="-7.5" font-family="Helvetica,sans-Serif" font-size="10.00" fill="#000000">displace1d</text>
</a>
</g>
</g>
<!-- Node260&#45;&gt;Node265 -->
<g id="edge6" class="edge">
<title>Node260&#45;&gt;Node265</title>
<path fill="none" stroke="#191970" d="M227.5653,-69.3364C242.448,-56.7311 264.3539,-39.8032 286,-29 295.1261,-24.4453 305.5405,-20.7769 315.2792,-17.9236"/>
<polygon fill="#191970" stroke="#191970" points="224.9338,-66.9854 219.6693,-76.1797 229.5184,-72.2752 224.9338,-66.9854"/>
</g>
</g>
</svg>
