<?xml version="1.0" encoding="UTF-8" standalone="no"?>
<!DOCTYPE svg PUBLIC "-//W3C//DTD SVG 1.1//EN"
 "http://www.w3.org/Graphics/SVG/1.1/DTD/svg11.dtd">
<!-- Generated by graphviz version 2.40.1 (20161225.0304)
 -->
<!-- Title: compute_spline_2d_prdc_prdc Pages: 1 -->
<svg width="542pt" height="290pt"
 viewBox="0.00 0.00 542.00 290.00" xmlns="http://www.w3.org/2000/svg" xmlns:xlink="http://www.w3.org/1999/xlink">
<g id="graph0" class="graph" transform="scale(1 1) rotate(0) translate(4 286)">
<title>compute_spline_2d_prdc_prdc</title>
<polygon fill="#ffffff" stroke="transparent" points="-4,4 -4,-286 538,-286 538,4 -4,4"/>
<!-- Node103 -->
<g id="node1" class="node">
<title>Node103</title>
<polygon fill="#bfbfbf" stroke="#000000" points="0,-131.5 0,-150.5 164,-150.5 164,-131.5 0,-131.5"/>
<text text-anchor="middle" x="82" y="-138.5" font-family="Helvetica,sans-Serif" font-size="10.00" fill="#000000">compute_spline_2d_prdc_prdc</text>
</g>
<!-- Node104 -->
<g id="node2" class="node">
<title>Node104</title>
<g id="a_node2"><a xlink:href="namespacesll__m__cubic__splines.html#a0d1f3cee9f161c208e409c998ab66713" target="_top" xlink:title="Computes the spline coefficients for the given data. The coeffcients are first computed in the second...">
<polygon fill="#ffffff" stroke="#000000" points="200,-126 200,-156 340,-156 340,-126 200,-126"/>
<text text-anchor="start" x="208" y="-144" font-family="Helvetica,sans-Serif" font-size="10.00" fill="#000000">sll_s_cubic_spline</text>
<text text-anchor="middle" x="270" y="-133" font-family="Helvetica,sans-Serif" font-size="10.00" fill="#000000">_2d_compute_interpolant</text>
</a>
</g>
</g>
<!-- Node103&#45;&gt;Node104 -->
<g id="edge1" class="edge">
<title>Node103&#45;&gt;Node104</title>
<path fill="none" stroke="#191970" d="M174.2333,-141C182.8144,-141 191.4151,-141 199.7493,-141"/>
<polygon fill="#191970" stroke="#191970" points="174.1861,-137.5001 164.186,-141 174.186,-144.5001 174.1861,-137.5001"/>
</g>
<!-- Node105 -->
<g id="node3" class="node">
<title>Node105</title>
<g id="a_node3"><a xlink:href="namespacesll__m__fdistribu4d__dk.html#adf8cc4ba8aba42290c788f697de79f42" target="_top" xlink:title="sll_m_fdistribu4d_dk\l::sll_s_function_xy_from\l_rtheta">
<polygon fill="#ffffff" stroke="#000000" points="387.5,-240.5 387.5,-281.5 522.5,-281.5 522.5,-240.5 387.5,-240.5"/>
<text text-anchor="start" x="395.5" y="-269.5" font-family="Helvetica,sans-Serif" font-size="10.00" fill="#000000">sll_m_fdistribu4d_dk</text>
<text text-anchor="start" x="395.5" y="-258.5" font-family="Helvetica,sans-Serif" font-size="10.00" fill="#000000">::sll_s_function_xy_from</text>
<text text-anchor="middle" x="455" y="-247.5" font-family="Helvetica,sans-Serif" font-size="10.00" fill="#000000">_rtheta</text>
</a>
</g>
</g>
<!-- Node104&#45;&gt;Node105 -->
<g id="edge2" class="edge">
<title>Node104&#45;&gt;Node105</title>
<path fill="none" stroke="#191970" d="M291.7133,-163.3622C312.0116,-183.2585 343.9276,-212.0599 376,-231 381.811,-234.4316 388.0844,-237.5987 394.4664,-240.4854"/>
<polygon fill="#191970" stroke="#191970" points="294.0842,-160.7839 284.5266,-156.2119 289.147,-165.7462 294.0842,-160.7839"/>
</g>
<!-- Node106 -->
<g id="node4" class="node">
<title>Node106</title>
<g id="a_node4"><a xlink:href="namespacesll__m__general__coordinate__elliptic__solver.html#a2c7a0e952c10e71709680a8ea4bd548d" target="_top" xlink:title="sll_m_general_coordinate\l_elliptic_solver::sll_s\l_factorize_mat_es_prototype">
<polygon fill="#ffffff" stroke="#000000" points="376,-180.5 376,-221.5 534,-221.5 534,-180.5 376,-180.5"/>
<text text-anchor="start" x="384" y="-209.5" font-family="Helvetica,sans-Serif" font-size="10.00" fill="#000000">sll_m_general_coordinate</text>
<text text-anchor="start" x="384" y="-198.5" font-family="Helvetica,sans-Serif" font-size="10.00" fill="#000000">_elliptic_solver::sll_s</text>
<text text-anchor="middle" x="455" y="-187.5" font-family="Helvetica,sans-Serif" font-size="10.00" fill="#000000">_factorize_mat_es_prototype</text>
</a>
</g>
</g>
<!-- Node104&#45;&gt;Node106 -->
<g id="edge3" class="edge">
<title>Node104&#45;&gt;Node106</title>
<path fill="none" stroke="#191970" d="M326.2465,-159.2421C346.8698,-165.9307 370.3494,-173.5458 391.56,-180.4249"/>
<polygon fill="#191970" stroke="#191970" points="327.2753,-155.8964 316.6833,-156.1405 325.1158,-162.5549 327.2753,-155.8964"/>
</g>
<!-- Node107 -->
<g id="node5" class="node">
<title>Node107</title>
<g id="a_node5"><a xlink:href="namespacesll__m__cubic__spline__interpolator__2d.html#a10af8789e490412a3580fcd15040a9b6" target="_top" xlink:title="sll_m_cubic_spline\l_interpolator_2d::compute\l_interpolants_cs2d">
<polygon fill="#ffffff" stroke="#000000" points="382.5,-120.5 382.5,-161.5 527.5,-161.5 527.5,-120.5 382.5,-120.5"/>
<text text-anchor="start" x="390.5" y="-149.5" font-family="Helvetica,sans-Serif" font-size="10.00" fill="#000000">sll_m_cubic_spline</text>
<text text-anchor="start" x="390.5" y="-138.5" font-family="Helvetica,sans-Serif" font-size="10.00" fill="#000000">_interpolator_2d::compute</text>
<text text-anchor="middle" x="455" y="-127.5" font-family="Helvetica,sans-Serif" font-size="10.00" fill="#000000">_interpolants_cs2d</text>
</a>
</g>
</g>
<!-- Node104&#45;&gt;Node107 -->
<g id="edge4" class="edge">
<title>Node104&#45;&gt;Node107</title>
<path fill="none" stroke="#191970" d="M350.3354,-141C360.9919,-141 371.8676,-141 382.3835,-141"/>
<polygon fill="#191970" stroke="#191970" points="350.2044,-137.5001 340.2044,-141 350.2043,-144.5001 350.2044,-137.5001"/>
</g>
<!-- Node108 -->
<g id="node6" class="node">
<title>Node108</title>
<g id="a_node6"><a xlink:href="namespacesll__m__cubic__spline__interpolator__2d.html#a44c6e00989e48621fd373f2a8d0526fa" target="_top" xlink:title="sll_m_cubic_spline\l_interpolator_2d::spline\l_interpolate2d">
<polygon fill="#ffffff" stroke="#000000" points="389.5,-60.5 389.5,-101.5 520.5,-101.5 520.5,-60.5 389.5,-60.5"/>
<text text-anchor="start" x="397.5" y="-89.5" font-family="Helvetica,sans-Serif" font-size="10.00" fill="#000000">sll_m_cubic_spline</text>
<text text-anchor="start" x="397.5" y="-78.5" font-family="Helvetica,sans-Serif" font-size="10.00" fill="#000000">_interpolator_2d::spline</text>
<text text-anchor="middle" x="455" y="-67.5" font-family="Helvetica,sans-Serif" font-size="10.00" fill="#000000">_interpolate2d</text>
</a>
</g>
</g>
<!-- Node104&#45;&gt;Node108 -->
<g id="edge5" class="edge">
<title>Node104&#45;&gt;Node108</title>
<path fill="none" stroke="#191970" d="M326.2465,-122.7579C346.8698,-116.0693 370.3494,-108.4542 391.56,-101.5751"/>
<polygon fill="#191970" stroke="#191970" points="325.1158,-119.4451 316.6833,-125.8595 327.2753,-126.1036 325.1158,-119.4451"/>
</g>
<!-- Node109 -->
<g id="node7" class="node">
<title>Node109</title>
<g id="a_node7"><a xlink:href="namespacesll__m__cubic__spline__interpolator__2d.html#af3b769e5f47945e7de14ba1272defea0" target="_top" xlink:title="sll_m_cubic_spline\l_interpolator_2d::spline\l_interpolate2d_disp">
<polygon fill="#ffffff" stroke="#000000" points="389.5,-.5 389.5,-41.5 520.5,-41.5 520.5,-.5 389.5,-.5"/>
<text text-anchor="start" x="397.5" y="-29.5" font-family="Helvetica,sans-Serif" font-size="10.00" fill="#000000">sll_m_cubic_spline</text>
<text text-anchor="start" x="397.5" y="-18.5" font-family="Helvetica,sans-Serif" font-size="10.00" fill="#000000">_interpolator_2d::spline</text>
<text text-anchor="middle" x="455" y="-7.5" font-family="Helvetica,sans-Serif" font-size="10.00" fill="#000000">_interpolate2d_disp</text>
</a>
</g>
</g>
<!-- Node104&#45;&gt;Node109 -->
<g id="edge6" class="edge">
<title>Node104&#45;&gt;Node109</title>
<path fill="none" stroke="#191970" d="M291.7133,-118.6378C312.0116,-98.7415 343.9276,-69.9401 376,-51 381.811,-47.5684 388.0844,-44.4013 394.4664,-41.5146"/>
<polygon fill="#191970" stroke="#191970" points="289.147,-116.2538 284.5266,-125.7881 294.0842,-121.2161 289.147,-116.2538"/>
</g>
</g>
</svg>
