<?xml version="1.0" encoding="UTF-8" standalone="no"?>
<!DOCTYPE svg PUBLIC "-//W3C//DTD SVG 1.1//EN"
 "http://www.w3.org/Graphics/SVG/1.1/DTD/svg11.dtd">
<!-- Generated by graphviz version 2.43.0 (0)
 -->
<!-- Title: sll_collective_globalsum_comp32 Pages: 1 -->
<svg width="654pt" height="88pt"
 viewBox="0.00 0.00 654.00 88.00" xmlns="http://www.w3.org/2000/svg" xmlns:xlink="http://www.w3.org/1999/xlink">
<g id="graph0" class="graph" transform="scale(1 1) rotate(0) translate(4 84)">
<title>sll_collective_globalsum_comp32</title>
<polygon fill="white" stroke="transparent" points="-4,4 -4,-84 650,-84 650,4 -4,4"/>
<!-- Node1 -->
<g id="node1" class="node">
<title>Node1</title>
<g id="a_node1"><a xlink:title="Performs a global sum and writes the result in the given node.">
<polygon fill="#bfbfbf" stroke="black" points="0,-24.5 0,-54.5 137,-54.5 137,-24.5 0,-24.5"/>
<text text-anchor="start" x="8" y="-42.5" font-family="Helvetica,sans-Serif" font-size="10.00">sll_collective_globalsum</text>
<text text-anchor="middle" x="68.5" y="-31.5" font-family="Helvetica,sans-Serif" font-size="10.00">_comp32</text>
</a>
</g>
</g>
<!-- Node2 -->
<g id="node2" class="node">
<title>Node2</title>
<g id="a_node2"><a xlink:href="namespacesll__m__collective.html#ad1d8018497a41286301bf1d7f9a88b12" target="_top" xlink:title="Performs a global sum over an array and writes the result in the given node If no node in root_rank i...">
<polygon fill="white" stroke="black" points="173,-24.5 173,-54.5 310,-54.5 310,-24.5 173,-24.5"/>
<text text-anchor="start" x="181" y="-42.5" font-family="Helvetica,sans-Serif" font-size="10.00">sll_collective_globalsum</text>
<text text-anchor="middle" x="241.5" y="-31.5" font-family="Helvetica,sans-Serif" font-size="10.00">_array_comp32</text>
</a>
</g>
</g>
<!-- Node1&#45;&gt;Node2 -->
<g id="edge1" class="edge">
<title>Node1&#45;&gt;Node2</title>
<path fill="none" stroke="midnightblue" d="M137.08,-39.5C145.54,-39.5 154.24,-39.5 162.83,-39.5"/>
<polygon fill="midnightblue" stroke="midnightblue" points="162.85,-43 172.85,-39.5 162.85,-36 162.85,-43"/>
</g>
<!-- Node3 -->
<g id="node3" class="node">
<title>Node3</title>
<g id="a_node3"><a xlink:href="namespacesll__m__collective.html#a53667aea76e2fe9f17e7a9cac24e352f" target="_top" xlink:title=" ">
<polygon fill="white" stroke="black" points="346,-49.5 346,-79.5 477,-79.5 477,-49.5 346,-49.5"/>
<text text-anchor="start" x="354" y="-67.5" font-family="Helvetica,sans-Serif" font-size="10.00">sll_collective_allreduce</text>
<text text-anchor="middle" x="411.5" y="-56.5" font-family="Helvetica,sans-Serif" font-size="10.00">_comp32</text>
</a>
</g>
</g>
<!-- Node2&#45;&gt;Node3 -->
<g id="edge2" class="edge">
<title>Node2&#45;&gt;Node3</title>
<path fill="none" stroke="midnightblue" d="M310.35,-49.6C318.79,-50.85 327.46,-52.14 336,-53.41"/>
<polygon fill="midnightblue" stroke="midnightblue" points="335.53,-56.88 345.94,-54.89 336.56,-49.96 335.53,-56.88"/>
</g>
<!-- Node6 -->
<g id="node6" class="node">
<title>Node6</title>
<g id="a_node6"><a xlink:href="namespacesll__m__collective.html#a5eb76797f4689a2e466569436b821115" target="_top" xlink:title=" ">
<polygon fill="white" stroke="black" points="352,-0.5 352,-30.5 471,-30.5 471,-0.5 352,-0.5"/>
<text text-anchor="start" x="360" y="-18.5" font-family="Helvetica,sans-Serif" font-size="10.00">sll_collective_reduce</text>
<text text-anchor="middle" x="411.5" y="-7.5" font-family="Helvetica,sans-Serif" font-size="10.00">_comp32</text>
</a>
</g>
</g>
<!-- Node2&#45;&gt;Node6 -->
<g id="edge5" class="edge">
<title>Node2&#45;&gt;Node6</title>
<path fill="none" stroke="midnightblue" d="M310.35,-29.81C320.66,-28.33 331.31,-26.81 341.65,-25.34"/>
<polygon fill="midnightblue" stroke="midnightblue" points="342.45,-28.76 351.85,-23.88 341.46,-21.83 342.45,-28.76"/>
</g>
<!-- Node4 -->
<g id="node4" class="node">
<title>Node4</title>
<g id="a_node4"><a xlink:href="namespacesll__m__collective.html#a37ea25f42a791be5a710a6cf0d1e1197" target="_top" xlink:title="Checks if the pointer ptr is associated to an object.">
<polygon fill="white" stroke="black" points="513,-55 513,-74 646,-74 646,-55 513,-55"/>
<text text-anchor="middle" x="579.5" y="-62" font-family="Helvetica,sans-Serif" font-size="10.00">sll_check_collective_ptr</text>
</a>
</g>
</g>
<!-- Node3&#45;&gt;Node4 -->
<g id="edge3" class="edge">
<title>Node3&#45;&gt;Node4</title>
<path fill="none" stroke="midnightblue" d="M477.16,-64.5C485.6,-64.5 494.3,-64.5 502.9,-64.5"/>
<polygon fill="midnightblue" stroke="midnightblue" points="502.93,-68 512.93,-64.5 502.93,-61 502.93,-68"/>
</g>
<!-- Node5 -->
<g id="node5" class="node">
<title>Node5</title>
<g id="a_node5"><a xlink:href="namespacesll__m__collective.html#a9a5729d7ca2e55890195f76c8a5cbd62" target="_top" xlink:title="Checks the good execution of collective instruction.">
<polygon fill="white" stroke="black" points="522,-12 522,-31 637,-31 637,-12 522,-12"/>
<text text-anchor="middle" x="579.5" y="-19" font-family="Helvetica,sans-Serif" font-size="10.00">sll_s_test_mpi_error</text>
</a>
</g>
</g>
<!-- Node3&#45;&gt;Node5 -->
<g id="edge4" class="edge">
<title>Node3&#45;&gt;Node5</title>
<path fill="none" stroke="midnightblue" d="M470.56,-49.46C490.53,-44.29 512.63,-38.56 531.6,-33.65"/>
<polygon fill="midnightblue" stroke="midnightblue" points="532.69,-36.98 541.49,-31.09 530.93,-30.21 532.69,-36.98"/>
</g>
<!-- Node6&#45;&gt;Node5 -->
<g id="edge6" class="edge">
<title>Node6&#45;&gt;Node5</title>
<path fill="none" stroke="midnightblue" d="M471.03,-17.62C484.19,-18.09 498.26,-18.6 511.73,-19.09"/>
<polygon fill="midnightblue" stroke="midnightblue" points="511.78,-22.59 521.9,-19.45 512.03,-15.6 511.78,-22.59"/>
</g>
</g>
</svg>
