<?xml version="1.0" encoding="UTF-8" standalone="no"?>
<!DOCTYPE svg PUBLIC "-//W3C//DTD SVG 1.1//EN"
 "http://www.w3.org/Graphics/SVG/1.1/DTD/svg11.dtd">
<!-- Generated by graphviz version 2.40.1 (20161225.0304)
 -->
<!-- Title: sll_f_process_outside_point_periodic Pages: 1 -->
<!--zoomable 182 -->
<svg id="main" version="1.1" xmlns="http://www.w3.org/2000/svg" xmlns:xlink="http://www.w3.org/1999/xlink" xml:space="preserve" onload="init(evt)">
<style type="text/css"><![CDATA[
.edge:hover path { stroke: red; }
.edge:hover polygon { stroke: red; fill: red; }
]]></style>
<script type="text/javascript"><![CDATA[
var edges = document.getElementsByTagName('g');
if (edges && edges.length) {
  for (var i=0;i<edges.length;i++) {
    if (edges[i].id.substr(0,4)=='edge') {
      edges[i].setAttribute('class','edge');
    }
  }
}
]]></script>
        <defs>
                <circle id="rim" cx="0" cy="0" r="7"/>
                <circle id="rim2" cx="0" cy="0" r="3.5"/>
                <g id="zoomPlus">
                        <use xlink:href="#rim" fill="#404040">
                                <set attributeName="fill" to="#808080" begin="zoomplus.mouseover" end="zoomplus.mouseout"/>
                        </use>
                        <path d="M-4,0h8M0,-4v8" fill="none" stroke="white" stroke-width="1.5" pointer-events="none"/>
                </g>
                <g id="zoomMin">
                        <use xlink:href="#rim" fill="#404040">
                                <set attributeName="fill" to="#808080" begin="zoomminus.mouseover" end="zoomminus.mouseout"/>
                        </use>
                        <path d="M-4,0h8" fill="none" stroke="white" stroke-width="1.5" pointer-events="none"/>
                </g>
                <g id="dirArrow">
                        <path fill="none" stroke="white" stroke-width="1.5" d="M0,-3.0v7 M-2.5,-0.5L0,-3.0L2.5,-0.5"/>
                </g>
               <g id="resetDef">
                       <use xlink:href="#rim2" fill="#404040">
                               <set attributeName="fill" to="#808080" begin="reset.mouseover" end="reset.mouseout"/>
                       </use>
               </g>
        </defs>

<script type="text/javascript">
var viewWidth = 551;
var viewHeight = 182;
var sectionId = 'dynsection-0';
</script>
<script xlink:href="svgpan.js"/>
<svg id="graph" class="graph">
<g id="viewport">
<title>sll_f_process_outside_point_periodic</title>
<polygon fill="#ffffff" stroke="transparent" points="-4,4 -4,-178 547,-178 547,4 -4,4"/>
<!-- Node1 -->
<g id="node1" class="node">
<title>Node1</title>
<polygon fill="#bfbfbf" stroke="#000000" points="0,-72 0,-102 121,-102 121,-72 0,-72"/>
<text text-anchor="start" x="8" y="-90" font-family="Helvetica,sans-Serif" font-size="10.00" fill="#000000">sll_f_process_outside</text>
<text text-anchor="middle" x="60.5" y="-79" font-family="Helvetica,sans-Serif" font-size="10.00" fill="#000000">_point_periodic</text>
</g>
<!-- Node2 -->
<g id="node2" class="node">
<title>Node2</title>
<g id="a_node2"><a xlink:href="namespacesll__m__characteristics__2d__explicit__euler.html#a9dbbd8a528e6e4f1d6f6701d05b087a8" target="_top" xlink:title="sll_m_characteristics\l_2d_explicit_euler::initialize\l_explicit_euler_2d_charac">
<polygon fill="#ffffff" stroke="#000000" points="167,-132.5 167,-173.5 320,-173.5 320,-132.5 167,-132.5"/>
<text text-anchor="start" x="175" y="-161.5" font-family="Helvetica,sans-Serif" font-size="10.00" fill="#000000">sll_m_characteristics</text>
<text text-anchor="start" x="175" y="-150.5" font-family="Helvetica,sans-Serif" font-size="10.00" fill="#000000">_2d_explicit_euler::initialize</text>
<text text-anchor="middle" x="243.5" y="-139.5" font-family="Helvetica,sans-Serif" font-size="10.00" fill="#000000">_explicit_euler_2d_charac</text>
</a>
</g>
</g>
<!-- Node1&#45;&gt;Node2 -->
<g id="edge1" class="edge">
<title>Node1&#45;&gt;Node2</title>
<path fill="none" stroke="#191970" d="M109.9799,-105.7102C125.0501,-111.3409 141.6801,-117.4866 157,-123 165.5248,-126.068 174.5418,-129.257 183.409,-132.3611"/>
<polygon fill="#191970" stroke="#191970" points="110.9238,-102.3263 100.3314,-102.0962 108.4684,-108.8815 110.9238,-102.3263"/>
</g>
<!-- Node4 -->
<g id="node4" class="node">
<title>Node4</title>
<g id="a_node4"><a xlink:href="namespacesll__m__characteristics__2d__explicit__euler__conservative.html#aafb0ccb9ebc5e212acf2e66c2373c55f" target="_top" xlink:title="sll_m_characteristics\l_2d_explicit_euler_conservative\l::initialize_explicit_euler\l_conservative_2d_charac">
<polygon fill="#ffffff" stroke="#000000" points="157,-61 157,-113 330,-113 330,-61 157,-61"/>
<text text-anchor="start" x="165" y="-101" font-family="Helvetica,sans-Serif" font-size="10.00" fill="#000000">sll_m_characteristics</text>
<text text-anchor="start" x="165" y="-90" font-family="Helvetica,sans-Serif" font-size="10.00" fill="#000000">_2d_explicit_euler_conservative</text>
<text text-anchor="start" x="165" y="-79" font-family="Helvetica,sans-Serif" font-size="10.00" fill="#000000">::initialize_explicit_euler</text>
<text text-anchor="middle" x="243.5" y="-68" font-family="Helvetica,sans-Serif" font-size="10.00" fill="#000000">_conservative_2d_charac</text>
</a>
</g>
</g>
<!-- Node1&#45;&gt;Node4 -->
<g id="edge3" class="edge">
<title>Node1&#45;&gt;Node4</title>
<path fill="none" stroke="#191970" d="M131.2691,-87C139.6549,-87 148.2859,-87 156.8598,-87"/>
<polygon fill="#191970" stroke="#191970" points="131.1822,-83.5001 121.1822,-87 131.1821,-90.5001 131.1822,-83.5001"/>
</g>
<!-- Node6 -->
<g id="node6" class="node">
<title>Node6</title>
<g id="a_node6"><a xlink:href="namespacesll__m__characteristics__2d__verlet.html#a58f06c8cd954525fee1209859b88c66a" target="_top" xlink:title="sll_m_characteristics\l_2d_verlet::initialize\l_verlet_2d_charac">
<polygon fill="#ffffff" stroke="#000000" points="184,-.5 184,-41.5 303,-41.5 303,-.5 184,-.5"/>
<text text-anchor="start" x="192" y="-29.5" font-family="Helvetica,sans-Serif" font-size="10.00" fill="#000000">sll_m_characteristics</text>
<text text-anchor="start" x="192" y="-18.5" font-family="Helvetica,sans-Serif" font-size="10.00" fill="#000000">_2d_verlet::initialize</text>
<text text-anchor="middle" x="243.5" y="-7.5" font-family="Helvetica,sans-Serif" font-size="10.00" fill="#000000">_verlet_2d_charac</text>
</a>
</g>
</g>
<!-- Node1&#45;&gt;Node6 -->
<g id="edge5" class="edge">
<title>Node1&#45;&gt;Node6</title>
<path fill="none" stroke="#191970" d="M109.9799,-68.2898C125.0501,-62.6591 141.6801,-56.5134 157,-51 165.6744,-47.8782 174.8583,-44.6311 183.8756,-41.4756"/>
<polygon fill="#191970" stroke="#191970" points="108.4684,-65.1185 100.3314,-71.9038 110.9238,-71.6737 108.4684,-65.1185"/>
</g>
<!-- Node3 -->
<g id="node3" class="node">
<title>Node3</title>
<g id="a_node3"><a xlink:href="namespacesll__m__characteristics__2d__explicit__euler.html#a908498088ccbb0b7a94880ae97da8bdb" target="_top" xlink:title="sll_m_characteristics\l_2d_explicit_euler::sll\l_f_new_explicit_euler_2d_charac">
<polygon fill="#ffffff" stroke="#000000" points="366,-132.5 366,-173.5 543,-173.5 543,-132.5 366,-132.5"/>
<text text-anchor="start" x="374" y="-161.5" font-family="Helvetica,sans-Serif" font-size="10.00" fill="#000000">sll_m_characteristics</text>
<text text-anchor="start" x="374" y="-150.5" font-family="Helvetica,sans-Serif" font-size="10.00" fill="#000000">_2d_explicit_euler::sll</text>
<text text-anchor="middle" x="454.5" y="-139.5" font-family="Helvetica,sans-Serif" font-size="10.00" fill="#000000">_f_new_explicit_euler_2d_charac</text>
</a>
</g>
</g>
<!-- Node2&#45;&gt;Node3 -->
<g id="edge2" class="edge">
<title>Node2&#45;&gt;Node3</title>
<path fill="none" stroke="#191970" d="M330.4753,-153C342.1946,-153 354.2288,-153 365.9747,-153"/>
<polygon fill="#191970" stroke="#191970" points="330.2728,-149.5001 320.2727,-153 330.2727,-156.5001 330.2728,-149.5001"/>
</g>
<!-- Node5 -->
<g id="node5" class="node">
<title>Node5</title>
<g id="a_node5"><a xlink:href="namespacesll__m__characteristics__2d__explicit__euler__conservative.html#ad7f54455547fe1c48a5e4ff8b77acc07" target="_top" xlink:title="sll_m_characteristics\l_2d_explicit_euler_conservative\l::sll_f_new_explicit_euler\l_conservative_2d_charac">
<polygon fill="#ffffff" stroke="#000000" points="368,-61 368,-113 541,-113 541,-61 368,-61"/>
<text text-anchor="start" x="376" y="-101" font-family="Helvetica,sans-Serif" font-size="10.00" fill="#000000">sll_m_characteristics</text>
<text text-anchor="start" x="376" y="-90" font-family="Helvetica,sans-Serif" font-size="10.00" fill="#000000">_2d_explicit_euler_conservative</text>
<text text-anchor="start" x="376" y="-79" font-family="Helvetica,sans-Serif" font-size="10.00" fill="#000000">::sll_f_new_explicit_euler</text>
<text text-anchor="middle" x="454.5" y="-68" font-family="Helvetica,sans-Serif" font-size="10.00" fill="#000000">_conservative_2d_charac</text>
</a>
</g>
</g>
<!-- Node4&#45;&gt;Node5 -->
<g id="edge4" class="edge">
<title>Node4&#45;&gt;Node5</title>
<path fill="none" stroke="#191970" d="M340.4639,-87C349.5687,-87 358.7588,-87 367.7606,-87"/>
<polygon fill="#191970" stroke="#191970" points="340.2352,-83.5001 330.2352,-87 340.2352,-90.5001 340.2352,-83.5001"/>
</g>
<!-- Node7 -->
<g id="node7" class="node">
<title>Node7</title>
<g id="a_node7"><a xlink:href="namespacesll__m__characteristics__2d__verlet.html#ab611209a94c98098fa65f8b2b671c3f3" target="_top" xlink:title="sll_m_characteristics\l_2d_verlet::sll_f_new\l_verlet_2d_charac">
<polygon fill="#ffffff" stroke="#000000" points="395,-.5 395,-41.5 514,-41.5 514,-.5 395,-.5"/>
<text text-anchor="start" x="403" y="-29.5" font-family="Helvetica,sans-Serif" font-size="10.00" fill="#000000">sll_m_characteristics</text>
<text text-anchor="start" x="403" y="-18.5" font-family="Helvetica,sans-Serif" font-size="10.00" fill="#000000">_2d_verlet::sll_f_new</text>
<text text-anchor="middle" x="454.5" y="-7.5" font-family="Helvetica,sans-Serif" font-size="10.00" fill="#000000">_verlet_2d_charac</text>
</a>
</g>
</g>
<!-- Node6&#45;&gt;Node7 -->
<g id="edge6" class="edge">
<title>Node6&#45;&gt;Node7</title>
<path fill="none" stroke="#191970" d="M313.3991,-21C339.705,-21 369.3562,-21 394.6636,-21"/>
<polygon fill="#191970" stroke="#191970" points="313.1181,-17.5001 303.1181,-21 313.118,-24.5001 313.1181,-17.5001"/>
</g>
</g>
</svg>
        <g id="navigator" transform="translate(0 0)" fill="#404254">
                <rect fill="#f2f5e9" fill-opacity="0.5" stroke="#606060" stroke-width=".5" x="0" y="0" width="60" height="60"/>
                <use id="zoomplus" xlink:href="#zoomPlus" x="17" y="9" onmousedown="handleZoom(evt,'in')"/>
                <use id="zoomminus" xlink:href="#zoomMin" x="42" y="9" onmousedown="handleZoom(evt,'out')"/>
                <use id="reset" xlink:href="#resetDef" x="30" y="36" onmousedown="handleReset()"/>
                <g id="arrowUp" xlink:href="#dirArrow" transform="translate(30 24)" onmousedown="handlePan(0,-1)">
                  <use xlink:href="#rim" fill="#404040">
                        <set attributeName="fill" to="#808080" begin="arrowUp.mouseover" end="arrowUp.mouseout"/>
                  </use>
                  <path fill="none" stroke="white" stroke-width="1.5" d="M0,-3.0v7 M-2.5,-0.5L0,-3.0L2.5,-0.5"/>
                </g>
                <g id="arrowRight" xlink:href="#dirArrow" transform="rotate(90) translate(36 -43)" onmousedown="handlePan(1,0)">
                  <use xlink:href="#rim" fill="#404040">
                        <set attributeName="fill" to="#808080" begin="arrowRight.mouseover" end="arrowRight.mouseout"/>
                  </use>
                  <path fill="none" stroke="white" stroke-width="1.5" d="M0,-3.0v7 M-2.5,-0.5L0,-3.0L2.5,-0.5"/>
                </g>
                <g id="arrowDown" xlink:href="#dirArrow" transform="rotate(180) translate(-30 -48)" onmousedown="handlePan(0,1)">
                  <use xlink:href="#rim" fill="#404040">
                        <set attributeName="fill" to="#808080" begin="arrowDown.mouseover" end="arrowDown.mouseout"/>
                  </use>
                  <path fill="none" stroke="white" stroke-width="1.5" d="M0,-3.0v7 M-2.5,-0.5L0,-3.0L2.5,-0.5"/>
                </g>
                <g id="arrowLeft" xlink:href="#dirArrow" transform="rotate(270) translate(-36 17)" onmousedown="handlePan(-1,0)">
                  <use xlink:href="#rim" fill="#404040">
                        <set attributeName="fill" to="#808080" begin="arrowLeft.mouseover" end="arrowLeft.mouseout"/>
                  </use>
                  <path fill="none" stroke="white" stroke-width="1.5" d="M0,-3.0v7 M-2.5,-0.5L0,-3.0L2.5,-0.5"/>
                </g>
        </g>
        <svg viewBox="0 0 15 15" width="100%" height="30px" preserveAspectRatio="xMaxYMin meet">
         <g id="arrow_out" transform="scale(0.3 0.3)">
          <a xlink:href="namespacesll__m__characteristics__2d__base_a2c5e6a5c73925dd52b2b5d0c4bbabf78_icgraph_org.svg" target="_base">
           <rect id="button" ry="5" rx="5" y="6" x="6" height="38" width="38"
                fill="#f2f5e9" fill-opacity="0.5" stroke="#606060" stroke-width="1.0"/>
           <path id="arrow"
             d="M 11.500037,31.436501 C 11.940474,20.09759 22.043105,11.32322 32.158766,21.979434 L 37.068811,17.246167 C 37.068811,17.246167 37.088388,32 37.088388,32 L 22.160133,31.978069 C 22.160133,31.978069 26.997745,27.140456 26.997745,27.140456 C 18.528582,18.264221 13.291696,25.230495 11.500037,31.436501 z"
             style="fill:#404040;"/>
          </a>
         </g>
        </svg>
</svg>
