<?xml version="1.0" encoding="UTF-8" standalone="no"?>
<!DOCTYPE svg PUBLIC "-//W3C//DTD SVG 1.1//EN"
 "http://www.w3.org/Graphics/SVG/1.1/DTD/svg11.dtd">
<!-- Generated by graphviz version 2.40.1 (20161225.0304)
 -->
<!-- Title: sll_s_compute_w_hermite_1d Pages: 1 -->
<svg width="731pt" height="148pt"
 viewBox="0.00 0.00 731.00 148.00" xmlns="http://www.w3.org/2000/svg" xmlns:xlink="http://www.w3.org/1999/xlink">
<g id="graph0" class="graph" transform="scale(1 1) rotate(0) translate(4 144)">
<title>sll_s_compute_w_hermite_1d</title>
<polygon fill="#ffffff" stroke="transparent" points="-4,4 -4,-144 727,-144 727,4 -4,4"/>
<!-- Node55 -->
<g id="node1" class="node">
<title>Node55</title>
<polygon fill="#bfbfbf" stroke="#000000" points="0,-60.5 0,-79.5 161,-79.5 161,-60.5 0,-60.5"/>
<text text-anchor="middle" x="80.5" y="-67.5" font-family="Helvetica,sans-Serif" font-size="10.00" fill="#000000">sll_s_compute_w_hermite_1d</text>
</g>
<!-- Node56 -->
<g id="node2" class="node">
<title>Node56</title>
<g id="a_node2"><a xlink:href="namespacesll__m__hermite__interpolation__1d.html#a6800c5380b85db2be3c9f8bdefc3c0f7" target="_top" xlink:title="hermite_coef_per_1d">
<polygon fill="#ffffff" stroke="#000000" points="201.5,-98.5 201.5,-117.5 320.5,-117.5 320.5,-98.5 201.5,-98.5"/>
<text text-anchor="middle" x="261" y="-105.5" font-family="Helvetica,sans-Serif" font-size="10.00" fill="#000000">hermite_coef_per_1d</text>
</a>
</g>
</g>
<!-- Node55&#45;&gt;Node56 -->
<g id="edge1" class="edge">
<title>Node55&#45;&gt;Node56</title>
<path fill="none" stroke="#191970" d="M135.9847,-81.681C161.582,-87.0699 191.5838,-93.3861 215.7798,-98.4799"/>
<polygon fill="#191970" stroke="#191970" points="136.5543,-78.2243 126.0478,-79.589 135.1122,-85.0741 136.5543,-78.2243"/>
</g>
<!-- Node60 -->
<g id="node6" class="node">
<title>Node60</title>
<g id="a_node6"><a xlink:href="namespacesll__m__hermite__interpolation__1d.html#a9e55ec90d8f8f803dcd2e2f7cc473079" target="_top" xlink:title="hermite_coef_nat_1d">
<polygon fill="#ffffff" stroke="#000000" points="201.5,-60.5 201.5,-79.5 320.5,-79.5 320.5,-60.5 201.5,-60.5"/>
<text text-anchor="middle" x="261" y="-67.5" font-family="Helvetica,sans-Serif" font-size="10.00" fill="#000000">hermite_coef_nat_1d</text>
</a>
</g>
</g>
<!-- Node55&#45;&gt;Node60 -->
<g id="edge5" class="edge">
<title>Node55&#45;&gt;Node60</title>
<path fill="none" stroke="#191970" d="M171.4193,-70C181.6068,-70 191.7831,-70 201.4286,-70"/>
<polygon fill="#191970" stroke="#191970" points="171.2472,-66.5001 161.2471,-70 171.2471,-73.5001 171.2472,-66.5001"/>
</g>
<!-- Node61 -->
<g id="node7" class="node">
<title>Node61</title>
<g id="a_node7"><a xlink:href="namespacesll__m__advection__1d__csl__periodic.html#a14b30a9dd8f4398d657ede489c08da70" target="_top" xlink:title="sll_m_advection_1d\l_csl_periodic::compute\l_csl_hermite_mat">
<polygon fill="#ffffff" stroke="#000000" points="197,-.5 197,-41.5 325,-41.5 325,-.5 197,-.5"/>
<text text-anchor="start" x="205" y="-29.5" font-family="Helvetica,sans-Serif" font-size="10.00" fill="#000000">sll_m_advection_1d</text>
<text text-anchor="start" x="205" y="-18.5" font-family="Helvetica,sans-Serif" font-size="10.00" fill="#000000">_csl_periodic::compute</text>
<text text-anchor="middle" x="261" y="-7.5" font-family="Helvetica,sans-Serif" font-size="10.00" fill="#000000">_csl_hermite_mat</text>
</a>
</g>
</g>
<!-- Node55&#45;&gt;Node61 -->
<g id="edge7" class="edge">
<title>Node55&#45;&gt;Node61</title>
<path fill="none" stroke="#191970" d="M125.6054,-57.7553C147.1843,-51.8973 173.401,-44.7803 196.9963,-38.375"/>
<polygon fill="#191970" stroke="#191970" points="124.4645,-54.4383 115.7307,-60.436 126.2984,-61.1938 124.4645,-54.4383"/>
</g>
<!-- Node57 -->
<g id="node3" class="node">
<title>Node57</title>
<g id="a_node3"><a xlink:href="namespacesll__m__hermite__interpolation__1d.html#abc1f727a842ed19034c42d0c6ed6cc86" target="_top" xlink:title="sll_s_compute_interpolants\l_hermite_1d">
<polygon fill="#ffffff" stroke="#000000" points="361,-74 361,-104 511,-104 511,-74 361,-74"/>
<text text-anchor="start" x="369" y="-92" font-family="Helvetica,sans-Serif" font-size="10.00" fill="#000000">sll_s_compute_interpolants</text>
<text text-anchor="middle" x="436" y="-81" font-family="Helvetica,sans-Serif" font-size="10.00" fill="#000000">_hermite_1d</text>
</a>
</g>
</g>
<!-- Node56&#45;&gt;Node57 -->
<g id="edge2" class="edge">
<title>Node56&#45;&gt;Node57</title>
<path fill="none" stroke="#191970" d="M330.8477,-100.4165C340.6801,-99.349 350.8227,-98.2478 360.7508,-97.1699"/>
<polygon fill="#191970" stroke="#191970" points="330.2994,-96.9554 320.7356,-101.5144 331.055,-103.9145 330.2994,-96.9554"/>
</g>
<!-- Node58 -->
<g id="node4" class="node">
<title>Node58</title>
<g id="a_node4"><a xlink:href="namespacesll__m__hermite__interpolator__1d.html#a5fbe999982b18a8cc1e98cc0d6338810" target="_top" xlink:title="sll_m_hermite_interpolator\l_1d::wrap_compute_interpolants\l_hermite_1d">
<polygon fill="#ffffff" stroke="#000000" points="547,-98.5 547,-139.5 723,-139.5 723,-98.5 547,-98.5"/>
<text text-anchor="start" x="555" y="-127.5" font-family="Helvetica,sans-Serif" font-size="10.00" fill="#000000">sll_m_hermite_interpolator</text>
<text text-anchor="start" x="555" y="-116.5" font-family="Helvetica,sans-Serif" font-size="10.00" fill="#000000">_1d::wrap_compute_interpolants</text>
<text text-anchor="middle" x="635" y="-105.5" font-family="Helvetica,sans-Serif" font-size="10.00" fill="#000000">_hermite_1d</text>
</a>
</g>
</g>
<!-- Node57&#45;&gt;Node58 -->
<g id="edge3" class="edge">
<title>Node57&#45;&gt;Node58</title>
<path fill="none" stroke="#191970" d="M521.1743,-101.8403C529.712,-103.1274 538.3933,-104.4362 546.9599,-105.7276"/>
<polygon fill="#191970" stroke="#191970" points="521.6434,-98.3716 511.2334,-100.3417 520.5999,-105.2934 521.6434,-98.3716"/>
</g>
<!-- Node59 -->
<g id="node5" class="node">
<title>Node59</title>
<g id="a_node5"><a xlink:href="namespacesll__m__hermite__interpolator__1d.html#ae3465f0eb3a733de300d999d687311b3" target="_top" xlink:title="sll_m_hermite_interpolator\l_1d::wrap_interpolate_array\l_hermite_1d">
<polygon fill="#ffffff" stroke="#000000" points="558.5,-38.5 558.5,-79.5 711.5,-79.5 711.5,-38.5 558.5,-38.5"/>
<text text-anchor="start" x="566.5" y="-67.5" font-family="Helvetica,sans-Serif" font-size="10.00" fill="#000000">sll_m_hermite_interpolator</text>
<text text-anchor="start" x="566.5" y="-56.5" font-family="Helvetica,sans-Serif" font-size="10.00" fill="#000000">_1d::wrap_interpolate_array</text>
<text text-anchor="middle" x="635" y="-45.5" font-family="Helvetica,sans-Serif" font-size="10.00" fill="#000000">_hermite_1d</text>
</a>
</g>
</g>
<!-- Node57&#45;&gt;Node59 -->
<g id="edge4" class="edge">
<title>Node57&#45;&gt;Node59</title>
<path fill="none" stroke="#191970" d="M521.4475,-76.1185C533.7085,-74.2701 546.2601,-72.3779 558.3372,-70.5572"/>
<polygon fill="#191970" stroke="#191970" points="520.5999,-72.7066 511.2334,-77.6583 521.6434,-79.6284 520.5999,-72.7066"/>
</g>
<!-- Node60&#45;&gt;Node57 -->
<g id="edge6" class="edge">
<title>Node60&#45;&gt;Node57</title>
<path fill="none" stroke="#191970" d="M330.8477,-77.5835C340.6801,-78.651 350.8227,-79.7522 360.7508,-80.8301"/>
<polygon fill="#191970" stroke="#191970" points="331.055,-74.0855 320.7356,-76.4856 330.2994,-81.0446 331.055,-74.0855"/>
</g>
</g>
</svg>
