<?xml version="1.0" encoding="UTF-8" standalone="no"?>
<!DOCTYPE svg PUBLIC "-//W3C//DTD SVG 1.1//EN"
 "http://www.w3.org/Graphics/SVG/1.1/DTD/svg11.dtd">
<!-- Generated by graphviz version 2.43.0 (0)
 -->
<!-- Title: sll_collective_globalsum_array_comp32 Pages: 1 -->
<svg width="481pt" height="88pt"
 viewBox="0.00 0.00 481.00 88.00" xmlns="http://www.w3.org/2000/svg" xmlns:xlink="http://www.w3.org/1999/xlink">
<g id="graph0" class="graph" transform="scale(1 1) rotate(0) translate(4 84)">
<title>sll_collective_globalsum_array_comp32</title>
<polygon fill="white" stroke="transparent" points="-4,4 -4,-84 477,-84 477,4 -4,4"/>
<!-- Node1 -->
<g id="node1" class="node">
<title>Node1</title>
<g id="a_node1"><a xlink:title="Performs a global sum over an array and writes the result in the given node If no node in root_rank i...">
<polygon fill="#bfbfbf" stroke="black" points="0,-24.5 0,-54.5 137,-54.5 137,-24.5 0,-24.5"/>
<text text-anchor="start" x="8" y="-42.5" font-family="Helvetica,sans-Serif" font-size="10.00">sll_collective_globalsum</text>
<text text-anchor="middle" x="68.5" y="-31.5" font-family="Helvetica,sans-Serif" font-size="10.00">_array_comp32</text>
</a>
</g>
</g>
<!-- Node2 -->
<g id="node2" class="node">
<title>Node2</title>
<g id="a_node2"><a xlink:href="namespacesll__m__collective.html#a53667aea76e2fe9f17e7a9cac24e352f" target="_top" xlink:title=" ">
<polygon fill="white" stroke="black" points="173,-49.5 173,-79.5 304,-79.5 304,-49.5 173,-49.5"/>
<text text-anchor="start" x="181" y="-67.5" font-family="Helvetica,sans-Serif" font-size="10.00">sll_collective_allreduce</text>
<text text-anchor="middle" x="238.5" y="-56.5" font-family="Helvetica,sans-Serif" font-size="10.00">_comp32</text>
</a>
</g>
</g>
<!-- Node1&#45;&gt;Node2 -->
<g id="edge1" class="edge">
<title>Node1&#45;&gt;Node2</title>
<path fill="none" stroke="midnightblue" d="M137.35,-49.6C145.79,-50.85 154.46,-52.14 163,-53.41"/>
<polygon fill="midnightblue" stroke="midnightblue" points="162.53,-56.88 172.94,-54.89 163.56,-49.96 162.53,-56.88"/>
</g>
<!-- Node5 -->
<g id="node5" class="node">
<title>Node5</title>
<g id="a_node5"><a xlink:href="namespacesll__m__collective.html#a5eb76797f4689a2e466569436b821115" target="_top" xlink:title=" ">
<polygon fill="white" stroke="black" points="179,-0.5 179,-30.5 298,-30.5 298,-0.5 179,-0.5"/>
<text text-anchor="start" x="187" y="-18.5" font-family="Helvetica,sans-Serif" font-size="10.00">sll_collective_reduce</text>
<text text-anchor="middle" x="238.5" y="-7.5" font-family="Helvetica,sans-Serif" font-size="10.00">_comp32</text>
</a>
</g>
</g>
<!-- Node1&#45;&gt;Node5 -->
<g id="edge4" class="edge">
<title>Node1&#45;&gt;Node5</title>
<path fill="none" stroke="midnightblue" d="M137.35,-29.81C147.66,-28.33 158.31,-26.81 168.65,-25.34"/>
<polygon fill="midnightblue" stroke="midnightblue" points="169.45,-28.76 178.85,-23.88 168.46,-21.83 169.45,-28.76"/>
</g>
<!-- Node3 -->
<g id="node3" class="node">
<title>Node3</title>
<g id="a_node3"><a xlink:href="namespacesll__m__collective.html#a37ea25f42a791be5a710a6cf0d1e1197" target="_top" xlink:title="Checks if the pointer ptr is associated to an object.">
<polygon fill="white" stroke="black" points="340,-55 340,-74 473,-74 473,-55 340,-55"/>
<text text-anchor="middle" x="406.5" y="-62" font-family="Helvetica,sans-Serif" font-size="10.00">sll_check_collective_ptr</text>
</a>
</g>
</g>
<!-- Node2&#45;&gt;Node3 -->
<g id="edge2" class="edge">
<title>Node2&#45;&gt;Node3</title>
<path fill="none" stroke="midnightblue" d="M304.16,-64.5C312.6,-64.5 321.3,-64.5 329.9,-64.5"/>
<polygon fill="midnightblue" stroke="midnightblue" points="329.93,-68 339.93,-64.5 329.93,-61 329.93,-68"/>
</g>
<!-- Node4 -->
<g id="node4" class="node">
<title>Node4</title>
<g id="a_node4"><a xlink:href="namespacesll__m__collective.html#a9a5729d7ca2e55890195f76c8a5cbd62" target="_top" xlink:title="Checks the good execution of collective instruction.">
<polygon fill="white" stroke="black" points="349,-12 349,-31 464,-31 464,-12 349,-12"/>
<text text-anchor="middle" x="406.5" y="-19" font-family="Helvetica,sans-Serif" font-size="10.00">sll_s_test_mpi_error</text>
</a>
</g>
</g>
<!-- Node2&#45;&gt;Node4 -->
<g id="edge3" class="edge">
<title>Node2&#45;&gt;Node4</title>
<path fill="none" stroke="midnightblue" d="M297.56,-49.46C317.53,-44.29 339.63,-38.56 358.6,-33.65"/>
<polygon fill="midnightblue" stroke="midnightblue" points="359.69,-36.98 368.49,-31.09 357.93,-30.21 359.69,-36.98"/>
</g>
<!-- Node5&#45;&gt;Node4 -->
<g id="edge5" class="edge">
<title>Node5&#45;&gt;Node4</title>
<path fill="none" stroke="midnightblue" d="M298.03,-17.62C311.19,-18.09 325.26,-18.6 338.73,-19.09"/>
<polygon fill="midnightblue" stroke="midnightblue" points="338.78,-22.59 348.9,-19.45 339.03,-15.6 338.78,-22.59"/>
</g>
</g>
</svg>
