<?xml version="1.0" encoding="UTF-8" standalone="no"?>
<!DOCTYPE svg PUBLIC "-//W3C//DTD SVG 1.1//EN"
 "http://www.w3.org/Graphics/SVG/1.1/DTD/svg11.dtd">
<!-- Generated by graphviz version 2.40.1 (20161225.0304)
 -->
<!-- Title: add_current_update_v_spline_strong_1d_quadrature Pages: 1 -->
<svg width="312pt" height="66pt"
 viewBox="0.00 0.00 312.00 66.00" xmlns="http://www.w3.org/2000/svg" xmlns:xlink="http://www.w3.org/1999/xlink">
<g id="graph0" class="graph" transform="scale(1 1) rotate(0) translate(4 62)">
<title>add_current_update_v_spline_strong_1d_quadrature</title>
<polygon fill="#ffffff" stroke="transparent" points="-4,4 -4,-62 308,-62 308,4 -4,4"/>
<!-- Node20 -->
<g id="node1" class="node">
<title>Node20</title>
<polygon fill="#bfbfbf" stroke="#000000" points="0,-8.5 0,-49.5 116,-49.5 116,-8.5 0,-8.5"/>
<text text-anchor="start" x="8" y="-37.5" font-family="Helvetica,sans-Serif" font-size="10.00" fill="#000000">add_current_update</text>
<text text-anchor="start" x="8" y="-26.5" font-family="Helvetica,sans-Serif" font-size="10.00" fill="#000000">_v_spline_strong_1d</text>
<text text-anchor="middle" x="58" y="-15.5" font-family="Helvetica,sans-Serif" font-size="10.00" fill="#000000">_quadrature</text>
</g>
<!-- Node21 -->
<g id="node2" class="node">
<title>Node21</title>
<g id="a_node2"><a xlink:href="namespacesll__m__particle__mesh__coupling__spline__strong__1d.html#a9f30e84e3a4a46997c24e38e912cfd02" target="_top" xlink:title="helper_normalized_position">
<polygon fill="#ffffff" stroke="#000000" points="152,-38.5 152,-57.5 304,-57.5 304,-38.5 152,-38.5"/>
<text text-anchor="middle" x="228" y="-45.5" font-family="Helvetica,sans-Serif" font-size="10.00" fill="#000000">helper_normalized_position</text>
</a>
</g>
</g>
<!-- Node20&#45;&gt;Node21 -->
<g id="edge1" class="edge">
<title>Node20&#45;&gt;Node21</title>
<path fill="none" stroke="#191970" d="M116.0289,-35.4856C124.325,-36.4128 133.0035,-37.3827 141.7002,-38.3547"/>
<polygon fill="#191970" stroke="#191970" points="141.569,-41.8618 151.8959,-39.4942 142.3465,-34.9051 141.569,-41.8618"/>
</g>
<!-- Node22 -->
<g id="node3" class="node">
<title>Node22</title>
<g id="a_node3"><a xlink:href="namespacesll__m__particle__mesh__coupling__spline__strong__1d.html#abda5efc06ad7f96f7a21a8fef21c99d8" target="_top" xlink:title="current_v_local">
<polygon fill="#ffffff" stroke="#000000" points="182.5,-.5 182.5,-19.5 273.5,-19.5 273.5,-.5 182.5,-.5"/>
<text text-anchor="middle" x="228" y="-7.5" font-family="Helvetica,sans-Serif" font-size="10.00" fill="#000000">current_v_local</text>
</a>
</g>
</g>
<!-- Node20&#45;&gt;Node22 -->
<g id="edge2" class="edge">
<title>Node20&#45;&gt;Node22</title>
<path fill="none" stroke="#191970" d="M116.0289,-22.5144C134.2048,-20.483 154.2164,-18.2464 172.2327,-16.2328"/>
<polygon fill="#191970" stroke="#191970" points="172.7462,-19.6973 182.2955,-15.1081 171.9686,-12.7406 172.7462,-19.6973"/>
</g>
</g>
</svg>
