<?xml version="1.0" encoding="UTF-8" standalone="no"?>
<!DOCTYPE svg PUBLIC "-//W3C//DTD SVG 1.1//EN"
 "http://www.w3.org/Graphics/SVG/1.1/DTD/svg11.dtd">
<!-- Generated by graphviz version 2.40.1 (20161225.0304)
 -->
<!-- Title: partition Pages: 1 -->
<!--zoomable 179 -->
<svg id="main" version="1.1" xmlns="http://www.w3.org/2000/svg" xmlns:xlink="http://www.w3.org/1999/xlink" xml:space="preserve" onload="init(evt)">
<style type="text/css"><![CDATA[
.edge:hover path { stroke: red; }
.edge:hover polygon { stroke: red; fill: red; }
]]></style>
<script type="text/javascript"><![CDATA[
var edges = document.getElementsByTagName('g');
if (edges && edges.length) {
  for (var i=0;i<edges.length;i++) {
    if (edges[i].id.substr(0,4)=='edge') {
      edges[i].setAttribute('class','edge');
    }
  }
}
]]></script>
        <defs>
                <circle id="rim" cx="0" cy="0" r="7"/>
                <circle id="rim2" cx="0" cy="0" r="3.5"/>
                <g id="zoomPlus">
                        <use xlink:href="#rim" fill="#404040">
                                <set attributeName="fill" to="#808080" begin="zoomplus.mouseover" end="zoomplus.mouseout"/>
                        </use>
                        <path d="M-4,0h8M0,-4v8" fill="none" stroke="white" stroke-width="1.5" pointer-events="none"/>
                </g>
                <g id="zoomMin">
                        <use xlink:href="#rim" fill="#404040">
                                <set attributeName="fill" to="#808080" begin="zoomminus.mouseover" end="zoomminus.mouseout"/>
                        </use>
                        <path d="M-4,0h8" fill="none" stroke="white" stroke-width="1.5" pointer-events="none"/>
                </g>
                <g id="dirArrow">
                        <path fill="none" stroke="white" stroke-width="1.5" d="M0,-3.0v7 M-2.5,-0.5L0,-3.0L2.5,-0.5"/>
                </g>
               <g id="resetDef">
                       <use xlink:href="#rim2" fill="#404040">
                               <set attributeName="fill" to="#808080" begin="reset.mouseover" end="reset.mouseout"/>
                       </use>
               </g>
        </defs>

<script type="text/javascript">
var viewWidth = 1003;
var viewHeight = 179;
var sectionId = 'dynsection-0';
</script>
<script xlink:href="svgpan.js"/>
<svg id="graph" class="graph">
<g id="viewport">
<title>partition</title>
<polygon fill="#ffffff" stroke="transparent" points="-4,4 -4,-174.5 999,-174.5 999,4 -4,4"/>
<!-- Node1 -->
<g id="node1" class="node">
<title>Node1</title>
<polygon fill="#bfbfbf" stroke="#000000" points="0,-94.5 0,-113.5 58,-113.5 58,-94.5 0,-94.5"/>
<text text-anchor="middle" x="29" y="-101.5" font-family="Helvetica,sans-Serif" font-size="10.00" fill="#000000">partition</text>
</g>
<!-- Node2 -->
<g id="node2" class="node">
<title>Node2</title>
<g id="a_node2"><a xlink:href="namespacesll__m__qsort__partition.html#a2ce333a69b25b96185626ef494f55971" target="_top" xlink:title="sll_s_qsortc">
<polygon fill="#ffffff" stroke="#000000" points="94,-94.5 94,-113.5 168,-113.5 168,-94.5 94,-94.5"/>
<text text-anchor="middle" x="131" y="-101.5" font-family="Helvetica,sans-Serif" font-size="10.00" fill="#000000">sll_s_qsortc</text>
</a>
</g>
</g>
<!-- Node1&#45;&gt;Node2 -->
<g id="edge1" class="edge">
<title>Node1&#45;&gt;Node2</title>
<path fill="none" stroke="#191970" d="M68.4598,-104C76.7754,-104 85.523,-104 93.754,-104"/>
<polygon fill="#191970" stroke="#191970" points="68.2291,-100.5001 58.2291,-104 68.2291,-107.5001 68.2291,-100.5001"/>
</g>
<!-- Node3 -->
<g id="node3" class="node">
<title>Node3</title>
<g id="a_node3"><a xlink:href="namespacesll__m__sparse__matrix.html#a4d0df569f33bdd62f3a9a6ba079074ca" target="_top" xlink:title="initialization of CSR matrix type thanks to the global index of each local dof of each element ...">
<polygon fill="#ffffff" stroke="#000000" points="226.5,-138 226.5,-168 348.5,-168 348.5,-138 226.5,-138"/>
<text text-anchor="start" x="234.5" y="-156" font-family="Helvetica,sans-Serif" font-size="10.00" fill="#000000">sll_m_sparse_matrix</text>
<text text-anchor="middle" x="287.5" y="-145" font-family="Helvetica,sans-Serif" font-size="10.00" fill="#000000">::sll_s_csr_matrix_init</text>
</a>
</g>
</g>
<!-- Node2&#45;&gt;Node3 -->
<g id="edge2" class="edge">
<title>Node2&#45;&gt;Node3</title>
<path fill="none" stroke="#191970" d="M167.7142,-116.9744C179.2846,-120.9552 192.1402,-125.2674 204,-129 213.4959,-131.9886 223.6455,-135.0315 233.4805,-137.9019"/>
<polygon fill="#191970" stroke="#191970" points="168.5293,-113.5526 157.9345,-113.5842 166.2365,-120.1665 168.5293,-113.5526"/>
</g>
<!-- Node6 -->
<g id="node6" class="node">
<title>Node6</title>
<g id="a_node6"><a xlink:href="namespacesll__m__sparse__matrix__mp.html#abc1c3727deb98451291669211b354eb0" target="_top" xlink:title="sll_m_sparse_matrix\l_mp::sll_init_sparsematrix_mp">
<polygon fill="#ffffff" stroke="#000000" points="204,-39 204,-69 371,-69 371,-39 204,-39"/>
<text text-anchor="start" x="212" y="-57" font-family="Helvetica,sans-Serif" font-size="10.00" fill="#000000">sll_m_sparse_matrix</text>
<text text-anchor="middle" x="287.5" y="-46" font-family="Helvetica,sans-Serif" font-size="10.00" fill="#000000">_mp::sll_init_sparsematrix_mp</text>
</a>
</g>
</g>
<!-- Node2&#45;&gt;Node6 -->
<g id="edge5" class="edge">
<title>Node2&#45;&gt;Node6</title>
<path fill="none" stroke="#191970" d="M169.2491,-91.2991C180.438,-87.6178 192.6985,-83.617 204,-80 215.1346,-76.4364 227.1252,-72.6643 238.4496,-69.1316"/>
<polygon fill="#191970" stroke="#191970" points="168.1439,-87.9781 159.7433,-94.4342 170.3365,-94.6259 168.1439,-87.9781"/>
</g>
<!-- Node11 -->
<g id="node11" class="node">
<title>Node11</title>
<g id="a_node11"><a xlink:href="namespacesll__m__sparse__matrix.html#ac5355751dadd75cc69b33fed0798de2c" target="_top" xlink:title="sll_m_sparse_matrix\l::init_sparsematrix">
<polygon fill="#ffffff" stroke="#000000" points="228.5,-89 228.5,-119 346.5,-119 346.5,-89 228.5,-89"/>
<text text-anchor="start" x="236.5" y="-107" font-family="Helvetica,sans-Serif" font-size="10.00" fill="#000000">sll_m_sparse_matrix</text>
<text text-anchor="middle" x="287.5" y="-96" font-family="Helvetica,sans-Serif" font-size="10.00" fill="#000000">::init_sparsematrix</text>
</a>
</g>
</g>
<!-- Node2&#45;&gt;Node11 -->
<g id="edge10" class="edge">
<title>Node2&#45;&gt;Node11</title>
<path fill="none" stroke="#191970" d="M178.1435,-104C193.9392,-104 211.7548,-104 228.3497,-104"/>
<polygon fill="#191970" stroke="#191970" points="178.0884,-100.5001 168.0883,-104 178.0883,-107.5001 178.0884,-100.5001"/>
</g>
<!-- Node4 -->
<g id="node4" class="node">
<title>Node4</title>
<g id="a_node4"><a xlink:href="namespacesll__m__sparse__matrix.html#a482d60f2c137395c531bad0b281e24c7" target="_top" xlink:title="allocates the memory space for a new CSR matrix, ">
<polygon fill="#ffffff" stroke="#000000" points="407,-140 407,-170 554,-170 554,-140 407,-140"/>
<text text-anchor="start" x="415" y="-158" font-family="Helvetica,sans-Serif" font-size="10.00" fill="#000000">sll_m_sparse_matrix</text>
<text text-anchor="middle" x="480.5" y="-147" font-family="Helvetica,sans-Serif" font-size="10.00" fill="#000000">::new_csr_matrix_with_dof</text>
</a>
</g>
</g>
<!-- Node3&#45;&gt;Node4 -->
<g id="edge3" class="edge">
<title>Node3&#45;&gt;Node4</title>
<path fill="none" stroke="#191970" d="M358.745,-153.7383C374.4744,-153.9013 391.1668,-154.0743 406.9844,-154.2382"/>
<polygon fill="#191970" stroke="#191970" points="358.6022,-150.2367 348.5664,-153.6328 358.5296,-157.2363 358.6022,-150.2367"/>
</g>
<!-- Node5 -->
<g id="node5" class="node">
<title>Node5</title>
<g id="a_node5"><a xlink:href="namespacesll__m__sparse__matrix.html#aa80d24ea9a4248045fb6c11142206ca6" target="_top" xlink:title="allocates the memory space for a new CSR type on the heap, initializes it with the given arguments an...">
<polygon fill="#ffffff" stroke="#000000" points="418,-91 418,-121 543,-121 543,-91 418,-91"/>
<text text-anchor="start" x="426" y="-109" font-family="Helvetica,sans-Serif" font-size="10.00" fill="#000000">sll_m_sparse_matrix</text>
<text text-anchor="middle" x="480.5" y="-98" font-family="Helvetica,sans-Serif" font-size="10.00" fill="#000000">::sll_f_new_csr_matrix</text>
</a>
</g>
</g>
<!-- Node3&#45;&gt;Node5 -->
<g id="edge4" class="edge">
<title>Node3&#45;&gt;Node5</title>
<path fill="none" stroke="#191970" d="M358.4548,-135.7208C378.2608,-130.8976 399.6137,-125.6977 418.8365,-121.0165"/>
<polygon fill="#191970" stroke="#191970" points="357.4543,-132.3621 348.5664,-138.1289 359.1106,-139.1634 357.4543,-132.3621"/>
</g>
<!-- Node7 -->
<g id="node7" class="node">
<title>Node7</title>
<g id="a_node7"><a xlink:href="namespacesll__m__sparse__matrix__mp.html#ad32ebfd00f8ef3065b6859eca129d87a" target="_top" xlink:title="initialization of CSR matrix type ">
<polygon fill="#ffffff" stroke="#000000" points="419.5,-30.5 419.5,-71.5 541.5,-71.5 541.5,-30.5 419.5,-30.5"/>
<text text-anchor="start" x="427.5" y="-59.5" font-family="Helvetica,sans-Serif" font-size="10.00" fill="#000000">sll_m_sparse_matrix</text>
<text text-anchor="start" x="427.5" y="-48.5" font-family="Helvetica,sans-Serif" font-size="10.00" fill="#000000">_mp::sll_s_csr_matrix</text>
<text text-anchor="middle" x="480.5" y="-37.5" font-family="Helvetica,sans-Serif" font-size="10.00" fill="#000000">_mp_init</text>
</a>
</g>
</g>
<!-- Node6&#45;&gt;Node7 -->
<g id="edge6" class="edge">
<title>Node6&#45;&gt;Node7</title>
<path fill="none" stroke="#191970" d="M381.3293,-52.5415C394.2104,-52.3413 407.155,-52.1401 419.2441,-51.9522"/>
<polygon fill="#191970" stroke="#191970" points="380.9745,-49.0465 371.0301,-52.7016 381.0833,-56.0457 380.9745,-49.0465"/>
</g>
<!-- Node8 -->
<g id="node8" class="node">
<title>Node8</title>
<g id="a_node8"><a xlink:href="namespacesll__m__sparse__matrix__mp.html#ab8ac37685dad402f808e43fd26578034" target="_top" xlink:title="allocates the memory space for a new CSR type on the heap, ">
<polygon fill="#ffffff" stroke="#000000" points="590,-36 590,-66 757,-66 757,-36 590,-36"/>
<text text-anchor="start" x="598" y="-54" font-family="Helvetica,sans-Serif" font-size="10.00" fill="#000000">sll_m_sparse_matrix</text>
<text text-anchor="middle" x="673.5" y="-43" font-family="Helvetica,sans-Serif" font-size="10.00" fill="#000000">_mp::sll_f_new_csr_matrix_mp</text>
</a>
</g>
</g>
<!-- Node7&#45;&gt;Node8 -->
<g id="edge7" class="edge">
<title>Node7&#45;&gt;Node8</title>
<path fill="none" stroke="#191970" d="M551.8199,-51C564.2168,-51 577.2098,-51 589.8998,-51"/>
<polygon fill="#191970" stroke="#191970" points="551.5664,-47.5001 541.5664,-51 551.5664,-54.5001 551.5664,-47.5001"/>
</g>
<!-- Node9 -->
<g id="node9" class="node">
<title>Node9</title>
<g id="a_node9"><a xlink:href="namespacesll__m__general__coordinate__elliptic__solver__multipatch.html#ae9b2728b7fc567b24d783dc03390c489" target="_top" xlink:title="Initialization for elleptic solver multipatch. ">
<polygon fill="#ffffff" stroke="#000000" points="793,-60.5 793,-101.5 995,-101.5 995,-60.5 793,-60.5"/>
<text text-anchor="start" x="801" y="-89.5" font-family="Helvetica,sans-Serif" font-size="10.00" fill="#000000">sll_m_general_coordinate</text>
<text text-anchor="start" x="801" y="-78.5" font-family="Helvetica,sans-Serif" font-size="10.00" fill="#000000">_elliptic_solver_multipatch</text>
<text text-anchor="middle" x="894" y="-67.5" font-family="Helvetica,sans-Serif" font-size="10.00" fill="#000000">::sll_s_general_elliptic_solver_mp_init</text>
</a>
</g>
</g>
<!-- Node8&#45;&gt;Node9 -->
<g id="edge8" class="edge">
<title>Node8&#45;&gt;Node9</title>
<path fill="none" stroke="#191970" d="M767.1324,-63.7391C775.6779,-64.9017 784.3597,-66.0829 792.9661,-67.2539"/>
<polygon fill="#191970" stroke="#191970" points="767.5566,-60.2647 757.176,-62.3845 766.6128,-67.2007 767.5566,-60.2647"/>
</g>
<!-- Node10 -->
<g id="node10" class="node">
<title>Node10</title>
<g id="a_node10"><a xlink:href="namespacesll__m__general__coordinate__elliptic__solver__multipatch.html#ad5dcba50d55d23e36b6b7d9fbaae1da9" target="_top" xlink:title="Assemble the matrix for elliptic solver. ">
<polygon fill="#ffffff" stroke="#000000" points="816.5,-.5 816.5,-41.5 971.5,-41.5 971.5,-.5 816.5,-.5"/>
<text text-anchor="start" x="824.5" y="-29.5" font-family="Helvetica,sans-Serif" font-size="10.00" fill="#000000">sll_m_general_coordinate</text>
<text text-anchor="start" x="824.5" y="-18.5" font-family="Helvetica,sans-Serif" font-size="10.00" fill="#000000">_elliptic_solver_multipatch</text>
<text text-anchor="middle" x="894" y="-7.5" font-family="Helvetica,sans-Serif" font-size="10.00" fill="#000000">::sll_s_factorize_mat_es_mp</text>
</a>
</g>
</g>
<!-- Node8&#45;&gt;Node10 -->
<g id="edge9" class="edge">
<title>Node8&#45;&gt;Node10</title>
<path fill="none" stroke="#191970" d="M767.2543,-38.2443C783.564,-36.0253 800.3665,-33.7393 816.1903,-31.5864"/>
<polygon fill="#191970" stroke="#191970" points="766.6128,-34.7993 757.176,-39.6155 767.5566,-41.7354 766.6128,-34.7993"/>
</g>
<!-- Node11&#45;&gt;Node5 -->
<g id="edge11" class="edge">
<title>Node11&#45;&gt;Node5</title>
<path fill="none" stroke="#191970" d="M356.926,-104.7194C376.7744,-104.9251 398.2855,-105.148 417.7118,-105.3493"/>
<polygon fill="#191970" stroke="#191970" points="356.7537,-101.2176 346.718,-104.6137 356.6811,-108.2172 356.7537,-101.2176"/>
</g>
</g>
</svg>
        <g id="navigator" transform="translate(0 0)" fill="#404254">
                <rect fill="#f2f5e9" fill-opacity="0.5" stroke="#606060" stroke-width=".5" x="0" y="0" width="60" height="60"/>
                <use id="zoomplus" xlink:href="#zoomPlus" x="17" y="9" onmousedown="handleZoom(evt,'in')"/>
                <use id="zoomminus" xlink:href="#zoomMin" x="42" y="9" onmousedown="handleZoom(evt,'out')"/>
                <use id="reset" xlink:href="#resetDef" x="30" y="36" onmousedown="handleReset()"/>
                <g id="arrowUp" xlink:href="#dirArrow" transform="translate(30 24)" onmousedown="handlePan(0,-1)">
                  <use xlink:href="#rim" fill="#404040">
                        <set attributeName="fill" to="#808080" begin="arrowUp.mouseover" end="arrowUp.mouseout"/>
                  </use>
                  <path fill="none" stroke="white" stroke-width="1.5" d="M0,-3.0v7 M-2.5,-0.5L0,-3.0L2.5,-0.5"/>
                </g>
                <g id="arrowRight" xlink:href="#dirArrow" transform="rotate(90) translate(36 -43)" onmousedown="handlePan(1,0)">
                  <use xlink:href="#rim" fill="#404040">
                        <set attributeName="fill" to="#808080" begin="arrowRight.mouseover" end="arrowRight.mouseout"/>
                  </use>
                  <path fill="none" stroke="white" stroke-width="1.5" d="M0,-3.0v7 M-2.5,-0.5L0,-3.0L2.5,-0.5"/>
                </g>
                <g id="arrowDown" xlink:href="#dirArrow" transform="rotate(180) translate(-30 -48)" onmousedown="handlePan(0,1)">
                  <use xlink:href="#rim" fill="#404040">
                        <set attributeName="fill" to="#808080" begin="arrowDown.mouseover" end="arrowDown.mouseout"/>
                  </use>
                  <path fill="none" stroke="white" stroke-width="1.5" d="M0,-3.0v7 M-2.5,-0.5L0,-3.0L2.5,-0.5"/>
                </g>
                <g id="arrowLeft" xlink:href="#dirArrow" transform="rotate(270) translate(-36 17)" onmousedown="handlePan(-1,0)">
                  <use xlink:href="#rim" fill="#404040">
                        <set attributeName="fill" to="#808080" begin="arrowLeft.mouseover" end="arrowLeft.mouseout"/>
                  </use>
                  <path fill="none" stroke="white" stroke-width="1.5" d="M0,-3.0v7 M-2.5,-0.5L0,-3.0L2.5,-0.5"/>
                </g>
        </g>
        <svg viewBox="0 0 15 15" width="100%" height="30px" preserveAspectRatio="xMaxYMin meet">
         <g id="arrow_out" transform="scale(0.3 0.3)">
          <a xlink:href="namespacesll__m__qsort__partition_aa1ad128585a5c9195e5903a7bc8f478e_icgraph_org.svg" target="_base">
           <rect id="button" ry="5" rx="5" y="6" x="6" height="38" width="38"
                fill="#f2f5e9" fill-opacity="0.5" stroke="#606060" stroke-width="1.0"/>
           <path id="arrow"
             d="M 11.500037,31.436501 C 11.940474,20.09759 22.043105,11.32322 32.158766,21.979434 L 37.068811,17.246167 C 37.068811,17.246167 37.088388,32 37.088388,32 L 22.160133,31.978069 C 22.160133,31.978069 26.997745,27.140456 26.997745,27.140456 C 18.528582,18.264221 13.291696,25.230495 11.500037,31.436501 z"
             style="fill:#404040;"/>
          </a>
         </g>
        </svg>
</svg>
