<?xml version="1.0" encoding="UTF-8" standalone="no"?>
<!DOCTYPE svg PUBLIC "-//W3C//DTD SVG 1.1//EN"
 "http://www.w3.org/Graphics/SVG/1.1/DTD/svg11.dtd">
<!-- Generated by graphviz version 2.43.0 (0)
 -->
<!-- Title: assemble_mixedmass3d Pages: 1 -->
<svg width="377pt" height="28pt"
 viewBox="0.00 0.00 377.00 28.00" xmlns="http://www.w3.org/2000/svg" xmlns:xlink="http://www.w3.org/1999/xlink">
<g id="graph0" class="graph" transform="scale(1 1) rotate(0) translate(4 24)">
<title>assemble_mixedmass3d</title>
<polygon fill="white" stroke="transparent" points="-4,4 -4,-24 373,-24 373,4 -4,4"/>
<!-- Node1 -->
<g id="node1" class="node">
<title>Node1</title>
<g id="a_node1"><a xlink:title="Assemble the given row of the mixed mass matrix.">
<polygon fill="#bfbfbf" stroke="black" points="0,-0.5 0,-19.5 137,-19.5 137,-0.5 0,-0.5"/>
<text text-anchor="middle" x="68.5" y="-7.5" font-family="Helvetica,sans-Serif" font-size="10.00">assemble_mixedmass3d</text>
</a>
</g>
</g>
<!-- Node2 -->
<g id="node2" class="node">
<title>Node2</title>
<g id="a_node2"><a xlink:href="namespacesll__m__spline__fem__utilities__3d__helper.html#ac85b5e0f37a8c44e9b7c6fb266f6620f" target="_top" xlink:title=" ">
<polygon fill="white" stroke="black" points="173,-0.5 173,-19.5 253,-19.5 253,-0.5 173,-0.5"/>
<text text-anchor="middle" x="213" y="-7.5" font-family="Helvetica,sans-Serif" font-size="10.00">massemble2</text>
</a>
</g>
</g>
<!-- Node1&#45;&gt;Node2 -->
<g id="edge1" class="edge">
<title>Node1&#45;&gt;Node2</title>
<path fill="none" stroke="midnightblue" d="M137.41,-10C145.98,-10 154.61,-10 162.81,-10"/>
<polygon fill="midnightblue" stroke="midnightblue" points="162.93,-13.5 172.93,-10 162.93,-6.5 162.93,-13.5"/>
</g>
<!-- Node3 -->
<g id="node3" class="node">
<title>Node3</title>
<g id="a_node3"><a xlink:href="namespacesll__m__spline__fem__utilities__3d__helper.html#ae851b296a1b0780753f40ed1a845ea81" target="_top" xlink:title=" ">
<polygon fill="white" stroke="black" points="289,-0.5 289,-19.5 369,-19.5 369,-0.5 289,-0.5"/>
<text text-anchor="middle" x="329" y="-7.5" font-family="Helvetica,sans-Serif" font-size="10.00">massemble1</text>
</a>
</g>
</g>
<!-- Node2&#45;&gt;Node3 -->
<g id="edge2" class="edge">
<title>Node2&#45;&gt;Node3</title>
<path fill="none" stroke="midnightblue" d="M253.23,-10C261.38,-10 270.07,-10 278.54,-10"/>
<polygon fill="midnightblue" stroke="midnightblue" points="278.7,-13.5 288.7,-10 278.7,-6.5 278.7,-13.5"/>
</g>
</g>
</svg>
