<?xml version="1.0" encoding="UTF-8" standalone="no"?>
<!DOCTYPE svg PUBLIC "-//W3C//DTD SVG 1.1//EN"
 "http://www.w3.org/Graphics/SVG/1.1/DTD/svg11.dtd">
<!-- Generated by graphviz version 2.40.1 (20161225.0304)
 -->
<!-- Title: hex_to_global Pages: 1 -->
<svg width="246pt" height="66pt"
 viewBox="0.00 0.00 246.00 66.00" xmlns="http://www.w3.org/2000/svg" xmlns:xlink="http://www.w3.org/1999/xlink">
<g id="graph0" class="graph" transform="scale(1 1) rotate(0) translate(4 62)">
<title>hex_to_global</title>
<polygon fill="#ffffff" stroke="transparent" points="-4,4 -4,-62 242,-62 242,4 -4,4"/>
<!-- Node49 -->
<g id="node1" class="node">
<title>Node49</title>
<polygon fill="#bfbfbf" stroke="#000000" points="0,-19.5 0,-38.5 85,-38.5 85,-19.5 0,-19.5"/>
<text text-anchor="middle" x="42.5" y="-26.5" font-family="Helvetica,sans-Serif" font-size="10.00" fill="#000000">hex_to_global</text>
</g>
<!-- Node50 -->
<g id="node2" class="node">
<title>Node50</title>
<g id="a_node2"><a xlink:href="namespacesll__m__hexagonal__meshes.html#a8bed234b81efa9e2e353c3f594c104e3" target="_top" xlink:title="Computes the number of cell from point to origin. ">
<polygon fill="#ffffff" stroke="#000000" points="123,-38.5 123,-57.5 236,-57.5 236,-38.5 123,-38.5"/>
<text text-anchor="middle" x="179.5" y="-45.5" font-family="Helvetica,sans-Serif" font-size="10.00" fill="#000000">sll_f_cells_to_origin</text>
</a>
</g>
</g>
<!-- Node49&#45;&gt;Node50 -->
<g id="edge1" class="edge">
<title>Node49&#45;&gt;Node50</title>
<path fill="none" stroke="#191970" d="M85.0967,-34.9076C93.8646,-36.1236 103.2966,-37.4316 112.6863,-38.7339"/>
<polygon fill="#191970" stroke="#191970" points="112.439,-42.233 122.825,-40.14 113.4007,-35.2994 112.439,-42.233"/>
</g>
<!-- Node51 -->
<g id="node3" class="node">
<title>Node51</title>
<g id="a_node3"><a xlink:href="namespacesll__m__hexagonal__meshes.html#a47f7a419f8f8904d408ad3a630612ee4" target="_top" xlink:title="Finds the index in the global array of the point which coordinates where passed as parameter...">
<polygon fill="#ffffff" stroke="#000000" points="121,-.5 121,-19.5 238,-19.5 238,-.5 121,-.5"/>
<text text-anchor="middle" x="179.5" y="-7.5" font-family="Helvetica,sans-Serif" font-size="10.00" fill="#000000">index_hex_to_global</text>
</a>
</g>
</g>
<!-- Node49&#45;&gt;Node51 -->
<g id="edge2" class="edge">
<title>Node49&#45;&gt;Node51</title>
<path fill="none" stroke="#191970" d="M85.0967,-23.0924C93.3148,-21.9527 102.1162,-20.7321 110.9195,-19.5112"/>
<polygon fill="#191970" stroke="#191970" points="111.404,-22.9776 120.8283,-18.1369 110.4423,-16.0439 111.404,-22.9776"/>
</g>
</g>
</svg>
