<?xml version="1.0" encoding="UTF-8" standalone="no"?>
<!DOCTYPE svg PUBLIC "-//W3C//DTD SVG 1.1//EN"
 "http://www.w3.org/Graphics/SVG/1.1/DTD/svg11.dtd">
<!-- Generated by graphviz version 2.40.1 (20161225.0304)
 -->
<!-- Title: insert_recursive Pages: 1 -->
<svg width="690pt" height="88pt"
 viewBox="0.00 0.00 690.00 88.00" xmlns="http://www.w3.org/2000/svg" xmlns:xlink="http://www.w3.org/1999/xlink">
<g id="graph0" class="graph" transform="scale(1 1) rotate(0) translate(4 84)">
<title>insert_recursive</title>
<polygon fill="#ffffff" stroke="transparent" points="-4,4 -4,-84 686,-84 686,4 -4,4"/>
<!-- Node244 -->
<g id="node1" class="node">
<title>Node244</title>
<polygon fill="#bfbfbf" stroke="#000000" points="0,-30 0,-49 95,-49 95,-30 0,-30"/>
<text text-anchor="middle" x="47.5" y="-37" font-family="Helvetica,sans-Serif" font-size="10.00" fill="#000000">insert_recursive</text>
</g>
<!-- Node245 -->
<g id="node2" class="node">
<title>Node245</title>
<g id="a_node2"><a xlink:href="namespacesll__m__sparse__grid__interpolator.html#a480541723892aac41a1d4802a693b61d" target="_top" xlink:title="insert_periodic">
<polygon fill="#ffffff" stroke="#000000" points="131,-30 131,-49 220,-49 220,-30 131,-30"/>
<text text-anchor="middle" x="175.5" y="-37" font-family="Helvetica,sans-Serif" font-size="10.00" fill="#000000">insert_periodic</text>
</a>
</g>
</g>
<!-- Node244&#45;&gt;Node245 -->
<g id="edge1" class="edge">
<title>Node244&#45;&gt;Node245</title>
<path fill="none" stroke="#191970" d="M105.4246,-39.5C113.9298,-39.5 122.5795,-39.5 130.7655,-39.5"/>
<polygon fill="#191970" stroke="#191970" points="105.1625,-36.0001 95.1625,-39.5 105.1624,-43.0001 105.1625,-36.0001"/>
</g>
<!-- Node246 -->
<g id="node3" class="node">
<title>Node246</title>
<g id="a_node3"><a xlink:href="namespacesll__m__sparse__grid__interpolator.html#abde63630cfb91242fb29f6d8919a9ef8" target="_top" xlink:title="interpolate_disp_1d\l_periodic">
<polygon fill="#ffffff" stroke="#000000" points="256,-49.5 256,-79.5 369,-79.5 369,-49.5 256,-49.5"/>
<text text-anchor="start" x="264" y="-67.5" font-family="Helvetica,sans-Serif" font-size="10.00" fill="#000000">interpolate_disp_1d</text>
<text text-anchor="middle" x="312.5" y="-56.5" font-family="Helvetica,sans-Serif" font-size="10.00" fill="#000000">_periodic</text>
</a>
</g>
</g>
<!-- Node245&#45;&gt;Node246 -->
<g id="edge2" class="edge">
<title>Node245&#45;&gt;Node246</title>
<path fill="none" stroke="#191970" d="M230.3117,-49.5021C238.6133,-51.017 247.1945,-52.5829 255.5403,-54.1059"/>
<polygon fill="#191970" stroke="#191970" points="230.8248,-46.038 220.3589,-47.6859 229.5681,-52.9243 230.8248,-46.038"/>
</g>
<!-- Node249 -->
<g id="node6" class="node">
<title>Node249</title>
<g id="a_node6"><a xlink:href="namespacesll__m__sparse__grid__interpolator.html#a8b0c0e3ebd2c137d714e8d845b4595ca" target="_top" xlink:title="interpolate_disp_1d\l_periodic_self">
<polygon fill="#ffffff" stroke="#000000" points="256,-.5 256,-30.5 369,-30.5 369,-.5 256,-.5"/>
<text text-anchor="start" x="264" y="-18.5" font-family="Helvetica,sans-Serif" font-size="10.00" fill="#000000">interpolate_disp_1d</text>
<text text-anchor="middle" x="312.5" y="-7.5" font-family="Helvetica,sans-Serif" font-size="10.00" fill="#000000">_periodic_self</text>
</a>
</g>
</g>
<!-- Node245&#45;&gt;Node249 -->
<g id="edge5" class="edge">
<title>Node245&#45;&gt;Node249</title>
<path fill="none" stroke="#191970" d="M230.3117,-29.8979C238.6133,-28.4437 247.1945,-26.9404 255.5403,-25.4783"/>
<polygon fill="#191970" stroke="#191970" points="229.605,-26.4684 220.3589,-31.6415 230.8129,-33.3634 229.605,-26.4684"/>
</g>
<!-- Node247 -->
<g id="node4" class="node">
<title>Node247</title>
<g id="a_node4"><a xlink:href="namespacesll__m__sparse__grid__interpolator.html#a27497afcda9d0024745a848b26449a4d" target="_top" xlink:title="interpolate_disp_recursive">
<polygon fill="#ffffff" stroke="#000000" points="405,-55 405,-74 551,-74 551,-55 405,-55"/>
<text text-anchor="middle" x="478" y="-62" font-family="Helvetica,sans-Serif" font-size="10.00" fill="#000000">interpolate_disp_recursive</text>
</a>
</g>
</g>
<!-- Node246&#45;&gt;Node247 -->
<g id="edge3" class="edge">
<title>Node246&#45;&gt;Node247</title>
<path fill="none" stroke="#191970" d="M379.5061,-64.5C387.8556,-64.5 396.4271,-64.5 404.8635,-64.5"/>
<polygon fill="#191970" stroke="#191970" points="379.4557,-61.0001 369.4557,-64.5 379.4557,-68.0001 379.4557,-61.0001"/>
</g>
<!-- Node248 -->
<g id="node5" class="node">
<title>Node248</title>
<g id="a_node5"><a xlink:href="namespacesll__m__sparse__grid__interpolator.html#ada6560fddb123d6ef7b00b5397918de2" target="_top" xlink:title="interpolate_disp">
<polygon fill="#ffffff" stroke="#000000" points="587,-55 587,-74 682,-74 682,-55 587,-55"/>
<text text-anchor="middle" x="634.5" y="-62" font-family="Helvetica,sans-Serif" font-size="10.00" fill="#000000">interpolate_disp</text>
</a>
</g>
</g>
<!-- Node247&#45;&gt;Node248 -->
<g id="edge4" class="edge">
<title>Node247&#45;&gt;Node248</title>
<path fill="none" stroke="#191970" d="M561.4246,-64.5C570.1149,-64.5 578.7196,-64.5 586.8076,-64.5"/>
<polygon fill="#191970" stroke="#191970" points="561.2097,-61.0001 551.2096,-64.5 561.2096,-68.0001 561.2097,-61.0001"/>
</g>
</g>
</svg>
