<?xml version="1.0" encoding="UTF-8" standalone="no"?>
<!DOCTYPE svg PUBLIC "-//W3C//DTD SVG 1.1//EN"
 "http://www.w3.org/Graphics/SVG/1.1/DTD/svg11.dtd">
<!-- Generated by graphviz version 2.43.0 (0)
 -->
<!-- Title: sll_f_new_csr_matrix Pages: 1 -->
<svg width="606pt" height="104pt"
 viewBox="0.00 0.00 606.00 104.00" xmlns="http://www.w3.org/2000/svg" xmlns:xlink="http://www.w3.org/1999/xlink">
<g id="graph0" class="graph" transform="scale(1 1) rotate(0) translate(4 100)">
<title>sll_f_new_csr_matrix</title>
<polygon fill="white" stroke="transparent" points="-4,4 -4,-100 602,-100 602,4 -4,4"/>
<!-- Node1 -->
<g id="node1" class="node">
<title>Node1</title>
<g id="a_node1"><a xlink:title="allocates the memory space for a new CSR type on the heap, initializes it with the given arguments an...">
<polygon fill="#bfbfbf" stroke="black" points="0,-38.5 0,-57.5 119,-57.5 119,-38.5 0,-38.5"/>
<text text-anchor="middle" x="59.5" y="-45.5" font-family="Helvetica,sans-Serif" font-size="10.00">sll_f_new_csr_matrix</text>
</a>
</g>
</g>
<!-- Node2 -->
<g id="node2" class="node">
<title>Node2</title>
<g id="a_node2"><a xlink:href="namespacesll__m__sparse__matrix.html#ac5355751dadd75cc69b33fed0798de2c" target="_top" xlink:title=" ">
<polygon fill="white" stroke="black" points="170.5,-76.5 170.5,-95.5 272.5,-95.5 272.5,-76.5 170.5,-76.5"/>
<text text-anchor="middle" x="221.5" y="-83.5" font-family="Helvetica,sans-Serif" font-size="10.00">init_sparsematrix</text>
</a>
</g>
</g>
<!-- Node1&#45;&gt;Node2 -->
<g id="edge1" class="edge">
<title>Node1&#45;&gt;Node2</title>
<path fill="none" stroke="midnightblue" d="M100.87,-57.59C121.99,-62.6 148.03,-68.79 170.42,-74.11"/>
<polygon fill="midnightblue" stroke="midnightblue" points="169.88,-77.57 180.42,-76.48 171.49,-70.76 169.88,-77.57"/>
</g>
<!-- Node5 -->
<g id="node5" class="node">
<title>Node5</title>
<g id="a_node5"><a xlink:href="namespacesll__m__sparse__matrix.html#a8dc760a51bf16f1179981ac85563a195" target="_top" xlink:title=" ">
<polygon fill="white" stroke="black" points="155,-38.5 155,-57.5 288,-57.5 288,-38.5 155,-38.5"/>
<text text-anchor="middle" x="221.5" y="-45.5" font-family="Helvetica,sans-Serif" font-size="10.00">sll_count_non_zero_elts</text>
</a>
</g>
</g>
<!-- Node1&#45;&gt;Node5 -->
<g id="edge4" class="edge">
<title>Node1&#45;&gt;Node5</title>
<path fill="none" stroke="midnightblue" d="M119.17,-48C127.5,-48 136.17,-48 144.77,-48"/>
<polygon fill="midnightblue" stroke="midnightblue" points="144.81,-51.5 154.81,-48 144.81,-44.5 144.81,-51.5"/>
</g>
<!-- Node6 -->
<g id="node6" class="node">
<title>Node6</title>
<g id="a_node6"><a xlink:href="namespacesll__m__sparse__matrix.html#a4d0df569f33bdd62f3a9a6ba079074ca" target="_top" xlink:title="initialization of CSR matrix type thanks to the global index of each local dof of each element">
<polygon fill="white" stroke="black" points="163.5,-0.5 163.5,-19.5 279.5,-19.5 279.5,-0.5 163.5,-0.5"/>
<text text-anchor="middle" x="221.5" y="-7.5" font-family="Helvetica,sans-Serif" font-size="10.00">sll_s_csr_matrix_init</text>
</a>
</g>
</g>
<!-- Node1&#45;&gt;Node6 -->
<g id="edge5" class="edge">
<title>Node1&#45;&gt;Node6</title>
<path fill="none" stroke="midnightblue" d="M100.87,-38.41C121.99,-33.4 148.03,-27.21 170.42,-21.89"/>
<polygon fill="midnightblue" stroke="midnightblue" points="171.49,-25.24 180.42,-19.52 169.88,-18.43 171.49,-25.24"/>
</g>
<!-- Node3 -->
<g id="node3" class="node">
<title>Node3</title>
<g id="a_node3"><a xlink:href="namespacesll__m__qsort__partition.html#a2ce333a69b25b96185626ef494f55971" target="_top" xlink:title=" ">
<polygon fill="white" stroke="black" points="324,-33 324,-63 443,-63 443,-33 324,-33"/>
<text text-anchor="start" x="332" y="-51" font-family="Helvetica,sans-Serif" font-size="10.00">sll_m_qsort_partition</text>
<text text-anchor="middle" x="383.5" y="-40" font-family="Helvetica,sans-Serif" font-size="10.00">::sll_s_qsortc</text>
</a>
</g>
</g>
<!-- Node2&#45;&gt;Node3 -->
<g id="edge2" class="edge">
<title>Node2&#45;&gt;Node3</title>
<path fill="none" stroke="midnightblue" d="M262.87,-76.41C278.27,-72.75 296.3,-68.47 313.61,-64.36"/>
<polygon fill="midnightblue" stroke="midnightblue" points="314.78,-67.68 323.7,-61.97 313.16,-60.87 314.78,-67.68"/>
</g>
<!-- Node4 -->
<g id="node4" class="node">
<title>Node4</title>
<g id="a_node4"><a xlink:href="namespacesll__m__qsort__partition.html#aa1ad128585a5c9195e5903a7bc8f478e" target="_top" xlink:title=" ">
<polygon fill="white" stroke="black" points="479,-33 479,-63 598,-63 598,-33 479,-33"/>
<text text-anchor="start" x="487" y="-51" font-family="Helvetica,sans-Serif" font-size="10.00">sll_m_qsort_partition</text>
<text text-anchor="middle" x="538.5" y="-40" font-family="Helvetica,sans-Serif" font-size="10.00">::partition</text>
</a>
</g>
</g>
<!-- Node3&#45;&gt;Node4 -->
<g id="edge3" class="edge">
<title>Node3&#45;&gt;Node4</title>
<path fill="none" stroke="midnightblue" d="M443.22,-48C451.54,-48 460.17,-48 468.67,-48"/>
<polygon fill="midnightblue" stroke="midnightblue" points="468.94,-51.5 478.94,-48 468.94,-44.5 468.94,-51.5"/>
</g>
<!-- Node6&#45;&gt;Node3 -->
<g id="edge6" class="edge">
<title>Node6&#45;&gt;Node3</title>
<path fill="none" stroke="midnightblue" d="M262.87,-19.59C278.27,-23.25 296.3,-27.53 313.61,-31.64"/>
<polygon fill="midnightblue" stroke="midnightblue" points="313.16,-35.13 323.7,-34.03 314.78,-28.32 313.16,-35.13"/>
</g>
</g>
</svg>
