<?xml version="1.0" encoding="UTF-8" standalone="no"?>
<!DOCTYPE svg PUBLIC "-//W3C//DTD SVG 1.1//EN"
 "http://www.w3.org/Graphics/SVG/1.1/DTD/svg11.dtd">
<!-- Generated by graphviz version 2.43.0 (0)
 -->
<!-- Title: sll_s_inspl5 Pages: 1 -->
<svg width="308pt" height="160pt"
 viewBox="0.00 0.00 308.00 160.00" xmlns="http://www.w3.org/2000/svg" xmlns:xlink="http://www.w3.org/1999/xlink">
<g id="graph0" class="graph" transform="scale(1 1) rotate(0) translate(4 156)">
<title>sll_s_inspl5</title>
<polygon fill="white" stroke="transparent" points="-4,4 -4,-156 304,-156 304,4 -4,4"/>
<!-- Node1 -->
<g id="node1" class="node">
<title>Node1</title>
<g id="a_node1"><a xlink:title="Calculation of the parameters of an interpolating quintic splines.">
<polygon fill="#bfbfbf" stroke="black" points="227,-66.5 227,-85.5 300,-85.5 300,-66.5 227,-66.5"/>
<text text-anchor="middle" x="263.5" y="-73.5" font-family="Helvetica,sans-Serif" font-size="10.00">sll_s_inspl5</text>
</a>
</g>
</g>
<!-- Node2 -->
<g id="node2" class="node">
<title>Node2</title>
<g id="a_node2"><a xlink:href="namespacesll__m__quintic__spline__interpolator__1d.html#a8dba224d31f47d311a5b545d51587ccd" target="_top" xlink:title=" ">
<polygon fill="white" stroke="black" points="23,-110.5 23,-151.5 168,-151.5 168,-110.5 23,-110.5"/>
<text text-anchor="start" x="31" y="-139.5" font-family="Helvetica,sans-Serif" font-size="10.00">sll_m_quintic_spline</text>
<text text-anchor="start" x="31" y="-128.5" font-family="Helvetica,sans-Serif" font-size="10.00">_interpolator_1d::compute</text>
<text text-anchor="middle" x="95.5" y="-117.5" font-family="Helvetica,sans-Serif" font-size="10.00">_interpolants</text>
</a>
</g>
</g>
<!-- Node1&#45;&gt;Node2 -->
<g id="edge1" class="edge">
<title>Node1&#45;&gt;Node2</title>
<path fill="none" stroke="midnightblue" d="M226.21,-88.92C214.95,-92.86 202.48,-97.17 191,-101 181.69,-104.1 171.84,-107.31 162.16,-110.43"/>
<polygon fill="midnightblue" stroke="midnightblue" points="227.47,-92.18 235.74,-85.56 225.15,-85.58 227.47,-92.18"/>
</g>
<!-- Node3 -->
<g id="node3" class="node">
<title>Node3</title>
<g id="a_node3"><a xlink:href="namespacesll__m__quintic__spline__interpolator__1d.html#a8b2cfaf621e1f4f232ce3788b0401551" target="_top" xlink:title=" ">
<polygon fill="white" stroke="black" points="2.5,-61 2.5,-91 188.5,-91 188.5,-61 2.5,-61"/>
<text text-anchor="start" x="10.5" y="-79" font-family="Helvetica,sans-Serif" font-size="10.00">sll_m_quintic_spline</text>
<text text-anchor="middle" x="95.5" y="-68" font-family="Helvetica,sans-Serif" font-size="10.00">_interpolator_1d::interpolate_array</text>
</a>
</g>
</g>
<!-- Node1&#45;&gt;Node3 -->
<g id="edge2" class="edge">
<title>Node1&#45;&gt;Node3</title>
<path fill="none" stroke="midnightblue" d="M216.85,-76C207.99,-76 198.41,-76 188.66,-76"/>
<polygon fill="midnightblue" stroke="midnightblue" points="216.89,-79.5 226.89,-76 216.89,-72.5 216.89,-79.5"/>
</g>
<!-- Node4 -->
<g id="node4" class="node">
<title>Node4</title>
<g id="a_node4"><a xlink:href="namespacesll__m__quintic__spline__interpolator__1d.html#ae000bdc186787b400dccd5c871941114" target="_top" xlink:title=" ">
<polygon fill="white" stroke="black" points="0,-0.5 0,-41.5 191,-41.5 191,-0.5 0,-0.5"/>
<text text-anchor="start" x="8" y="-29.5" font-family="Helvetica,sans-Serif" font-size="10.00">sll_m_quintic_spline</text>
<text text-anchor="start" x="8" y="-18.5" font-family="Helvetica,sans-Serif" font-size="10.00">_interpolator_1d::interpolate</text>
<text text-anchor="middle" x="95.5" y="-7.5" font-family="Helvetica,sans-Serif" font-size="10.00">_from_interpolant_derivatives_eta1</text>
</a>
</g>
</g>
<!-- Node1&#45;&gt;Node4 -->
<g id="edge3" class="edge">
<title>Node1&#45;&gt;Node4</title>
<path fill="none" stroke="midnightblue" d="M224.68,-63.25C213.82,-59.6 201.94,-55.63 191,-52 180.76,-48.6 169.88,-45.01 159.3,-41.53"/>
<polygon fill="midnightblue" stroke="midnightblue" points="223.73,-66.63 234.33,-66.49 225.97,-59.99 223.73,-66.63"/>
</g>
</g>
</svg>
