<?xml version="1.0" encoding="UTF-8" standalone="no"?>
<!DOCTYPE svg PUBLIC "-//W3C//DTD SVG 1.1//EN"
 "http://www.w3.org/Graphics/SVG/1.1/DTD/svg11.dtd">
<!-- Generated by graphviz version 2.40.1 (20161225.0304)
 -->
<!-- Title: initialize_gyroaverage_2d_polar_pade_solver Pages: 1 -->
<svg width="301pt" height="39pt"
 viewBox="0.00 0.00 301.00 39.00" xmlns="http://www.w3.org/2000/svg" xmlns:xlink="http://www.w3.org/1999/xlink">
<g id="graph0" class="graph" transform="scale(1 1) rotate(0) translate(4 35)">
<title>initialize_gyroaverage_2d_polar_pade_solver</title>
<polygon fill="#ffffff" stroke="transparent" points="-4,4 -4,-35 297,-35 297,4 -4,4"/>
<!-- Node8 -->
<g id="node1" class="node">
<title>Node8</title>
<polygon fill="#bfbfbf" stroke="#000000" points="0,-.5 0,-30.5 128,-30.5 128,-.5 0,-.5"/>
<text text-anchor="start" x="8" y="-18.5" font-family="Helvetica,sans-Serif" font-size="10.00" fill="#000000">initialize_gyroaverage</text>
<text text-anchor="middle" x="64" y="-7.5" font-family="Helvetica,sans-Serif" font-size="10.00" fill="#000000">_2d_polar_pade_solver</text>
</g>
<!-- Node9 -->
<g id="node2" class="node">
<title>Node9</title>
<g id="a_node2"><a xlink:href="namespacesll__m__gyroaverage__2d__polar__pade__solver.html#a13aedcd8f586efeba070c3fa12fb837d" target="_top" xlink:title="sll_f_new_gyroaverage\l_2d_polar_pade_solver">
<polygon fill="#ffffff" stroke="#000000" points="164,-.5 164,-30.5 293,-30.5 293,-.5 164,-.5"/>
<text text-anchor="start" x="172" y="-18.5" font-family="Helvetica,sans-Serif" font-size="10.00" fill="#000000">sll_f_new_gyroaverage</text>
<text text-anchor="middle" x="228.5" y="-7.5" font-family="Helvetica,sans-Serif" font-size="10.00" fill="#000000">_2d_polar_pade_solver</text>
</a>
</g>
</g>
<!-- Node8&#45;&gt;Node9 -->
<g id="edge1" class="edge">
<title>Node8&#45;&gt;Node9</title>
<path fill="none" stroke="#191970" d="M138.3466,-15.5C146.837,-15.5 155.4407,-15.5 163.7915,-15.5"/>
<polygon fill="#191970" stroke="#191970" points="138.0711,-12.0001 128.071,-15.5 138.071,-19.0001 138.0711,-12.0001"/>
</g>
</g>
</svg>
