<?xml version="1.0" encoding="UTF-8" standalone="no"?>
<!DOCTYPE svg PUBLIC "-//W3C//DTD SVG 1.1//EN"
 "http://www.w3.org/Graphics/SVG/1.1/DTD/svg11.dtd">
<!-- Generated by graphviz version 2.43.0 (0)
 -->
<!-- Title: assemble_mass3d_clamped Pages: 1 -->
<svg width="469pt" height="28pt"
 viewBox="0.00 0.00 469.00 28.00" xmlns="http://www.w3.org/2000/svg" xmlns:xlink="http://www.w3.org/1999/xlink">
<g id="graph0" class="graph" transform="scale(1 1) rotate(0) translate(4 24)">
<title>assemble_mass3d_clamped</title>
<polygon fill="white" stroke="transparent" points="-4,4 -4,-24 465,-24 465,4 -4,4"/>
<!-- Node1 -->
<g id="node1" class="node">
<title>Node1</title>
<g id="a_node1"><a xlink:title="Assemble the given row of the clamped mass matrix.">
<polygon fill="#bfbfbf" stroke="black" points="0,-0.5 0,-19.5 155,-19.5 155,-0.5 0,-0.5"/>
<text text-anchor="middle" x="77.5" y="-7.5" font-family="Helvetica,sans-Serif" font-size="10.00">assemble_mass3d_clamped</text>
</a>
</g>
</g>
<!-- Node2 -->
<g id="node2" class="node">
<title>Node2</title>
<g id="a_node2"><a xlink:href="namespacesll__m__spline__fem__utilities__3d__helper.html#a445b40fce92c2f35c7baf10c2ccf0af2" target="_top" xlink:title=" ">
<polygon fill="white" stroke="black" points="191,-0.5 191,-19.5 308,-19.5 308,-0.5 191,-0.5"/>
<text text-anchor="middle" x="249.5" y="-7.5" font-family="Helvetica,sans-Serif" font-size="10.00">assemble2_clamped</text>
</a>
</g>
</g>
<!-- Node1&#45;&gt;Node2 -->
<g id="edge1" class="edge">
<title>Node1&#45;&gt;Node2</title>
<path fill="none" stroke="midnightblue" d="M155.05,-10C163.63,-10 172.33,-10 180.79,-10"/>
<polygon fill="midnightblue" stroke="midnightblue" points="180.97,-13.5 190.97,-10 180.97,-6.5 180.97,-13.5"/>
</g>
<!-- Node3 -->
<g id="node3" class="node">
<title>Node3</title>
<g id="a_node3"><a xlink:href="namespacesll__m__spline__fem__utilities__3d__helper.html#a02b03c0ca84df695664f47020d17c41c" target="_top" xlink:title=" ">
<polygon fill="white" stroke="black" points="344,-0.5 344,-19.5 461,-19.5 461,-0.5 344,-0.5"/>
<text text-anchor="middle" x="402.5" y="-7.5" font-family="Helvetica,sans-Serif" font-size="10.00">assemble1_clamped</text>
</a>
</g>
</g>
<!-- Node2&#45;&gt;Node3 -->
<g id="edge2" class="edge">
<title>Node2&#45;&gt;Node3</title>
<path fill="none" stroke="midnightblue" d="M308.02,-10C316.46,-10 325.23,-10 333.86,-10"/>
<polygon fill="midnightblue" stroke="midnightblue" points="333.89,-13.5 343.89,-10 333.89,-6.5 333.89,-13.5"/>
</g>
</g>
</svg>
