<?xml version="1.0" encoding="UTF-8" standalone="no"?>
<!DOCTYPE svg PUBLIC "-//W3C//DTD SVG 1.1//EN"
 "http://www.w3.org/Graphics/SVG/1.1/DTD/svg11.dtd">
<!-- Generated by graphviz version 2.43.0 (0)
 -->
<!-- Title: sll_s_bsplines_new Pages: 1 -->
<svg width="443pt" height="99pt"
 viewBox="0.00 0.00 443.00 99.00" xmlns="http://www.w3.org/2000/svg" xmlns:xlink="http://www.w3.org/1999/xlink">
<g id="graph0" class="graph" transform="scale(1 1) rotate(0) translate(4 95)">
<title>sll_s_bsplines_new</title>
<polygon fill="white" stroke="transparent" points="-4,4 -4,-95 439,-95 439,4 -4,4"/>
<!-- Node1 -->
<g id="node1" class="node">
<title>Node1</title>
<g id="a_node1"><a xlink:title="Allocate and initialize uniform or non&#45;uniform B&#45;splines.">
<polygon fill="#bfbfbf" stroke="black" points="325,-41 325,-60 435,-60 435,-41 325,-41"/>
<text text-anchor="middle" x="380" y="-48" font-family="Helvetica,sans-Serif" font-size="10.00">sll_s_bsplines_new</text>
</a>
</g>
</g>
<!-- Node2 -->
<g id="node2" class="node">
<title>Node2</title>
<g id="a_node2"><a xlink:href="namespacesll__m__bsplines.html#aee553d9108861524a15bc0999ff814fc" target="_top" xlink:title="Allocate and initialize two B&#45;splines for use on polar grid.">
<polygon fill="white" stroke="black" points="179,-60.5 179,-90.5 289,-90.5 289,-60.5 179,-60.5"/>
<text text-anchor="start" x="187" y="-78.5" font-family="Helvetica,sans-Serif" font-size="10.00">sll_s_bsplines_new</text>
<text text-anchor="middle" x="234" y="-67.5" font-family="Helvetica,sans-Serif" font-size="10.00">_2d_polar</text>
</a>
</g>
</g>
<!-- Node1&#45;&gt;Node2 -->
<g id="edge1" class="edge">
<title>Node1&#45;&gt;Node2</title>
<path fill="none" stroke="midnightblue" d="M315.01,-61.61C306.44,-63.1 297.72,-64.61 289.33,-66.07"/>
<polygon fill="midnightblue" stroke="midnightblue" points="315.72,-65.04 324.97,-59.88 314.52,-58.14 315.72,-65.04"/>
</g>
<!-- Node3 -->
<g id="node3" class="node">
<title>Node3</title>
<g id="a_node3"><a xlink:href="namespacesll__m__bsplines.html#a048cd33489051f460fc3cab83de58295" target="_top" xlink:title="Create B&#45;splines by mirroring radial basis onto extended domain [&#45;R,R].">
<polygon fill="white" stroke="black" points="179,-11.5 179,-41.5 289,-41.5 289,-11.5 179,-11.5"/>
<text text-anchor="start" x="187" y="-29.5" font-family="Helvetica,sans-Serif" font-size="10.00">sll_s_bsplines_new</text>
<text text-anchor="middle" x="234" y="-18.5" font-family="Helvetica,sans-Serif" font-size="10.00">_mirror_copy</text>
</a>
</g>
</g>
<!-- Node1&#45;&gt;Node3 -->
<g id="edge2" class="edge">
<title>Node1&#45;&gt;Node3</title>
<path fill="none" stroke="midnightblue" d="M315.01,-39.83C306.44,-38.41 297.72,-36.95 289.33,-35.56"/>
<polygon fill="midnightblue" stroke="midnightblue" points="314.53,-43.3 324.97,-41.5 315.68,-36.4 314.53,-43.3"/>
</g>
<!-- Node4 -->
<g id="node4" class="node">
<title>Node4</title>
<g id="a_node4"><a xlink:href="namespacesll__m__polar__spline__interpolator__2d.html#a5c440d9eda2bf561171b5dc3b23d2652" target="_top" xlink:title="Initialize a 2D tensor&#45;product spline interpolator object.">
<polygon fill="white" stroke="black" points="0,-0.5 0,-52.5 143,-52.5 143,-0.5 0,-0.5"/>
<text text-anchor="start" x="8" y="-40.5" font-family="Helvetica,sans-Serif" font-size="10.00">sll_m_polar_spline</text>
<text text-anchor="start" x="8" y="-29.5" font-family="Helvetica,sans-Serif" font-size="10.00">_interpolator_2d::s</text>
<text text-anchor="start" x="8" y="-18.5" font-family="Helvetica,sans-Serif" font-size="10.00">_polar_spline_interpolator</text>
<text text-anchor="middle" x="71.5" y="-7.5" font-family="Helvetica,sans-Serif" font-size="10.00">_2d__init</text>
</a>
</g>
</g>
<!-- Node3&#45;&gt;Node4 -->
<g id="edge3" class="edge">
<title>Node3&#45;&gt;Node4</title>
<path fill="none" stroke="midnightblue" d="M168.63,-26.5C160.3,-26.5 151.72,-26.5 143.28,-26.5"/>
<polygon fill="midnightblue" stroke="midnightblue" points="168.66,-30 178.66,-26.5 168.66,-23 168.66,-30"/>
</g>
</g>
</svg>
