<?xml version="1.0" encoding="UTF-8" standalone="no"?>
<!DOCTYPE svg PUBLIC "-//W3C//DTD SVG 1.1//EN"
 "http://www.w3.org/Graphics/SVG/1.1/DTD/svg11.dtd">
<!-- Generated by graphviz version 2.43.0 (0)
 -->
<!-- Title: box_index Pages: 1 -->
<svg width="412pt" height="444pt"
 viewBox="0.00 0.00 412.00 443.50" xmlns="http://www.w3.org/2000/svg" xmlns:xlink="http://www.w3.org/1999/xlink">
<g id="graph0" class="graph" transform="scale(1 1) rotate(0) translate(4 439.5)">
<title>box_index</title>
<polygon fill="white" stroke="transparent" points="-4,4 -4,-439.5 408,-439.5 408,4 -4,4"/>
<!-- Node1 -->
<g id="node1" class="node">
<title>Node1</title>
<g id="a_node1"><a xlink:title=" ">
<polygon fill="#bfbfbf" stroke="black" points="337,-180.5 337,-199.5 404,-199.5 404,-180.5 337,-180.5"/>
<text text-anchor="middle" x="370.5" y="-187.5" font-family="Helvetica,sans-Serif" font-size="10.00">box_index</text>
</a>
</g>
</g>
<!-- Node2 -->
<g id="node2" class="node">
<title>Node2</title>
<g id="a_node2"><a xlink:href="namespacesll__m__particle__mesh__coupling__spline__cl__3d__feec.html#ad6b240f8b4ec48d3336dd6cdd1ed9ca6" target="_top" xlink:title="Add charge of one particle.">
<polygon fill="white" stroke="black" points="158.5,-405 158.5,-435 300.5,-435 300.5,-405 158.5,-405"/>
<text text-anchor="start" x="166.5" y="-423" font-family="Helvetica,sans-Serif" font-size="10.00">add_charge_single_spline</text>
<text text-anchor="middle" x="229.5" y="-412" font-family="Helvetica,sans-Serif" font-size="10.00">_cl_3d_feec</text>
</a>
</g>
</g>
<!-- Node1&#45;&gt;Node2 -->
<g id="edge1" class="edge">
<title>Node1&#45;&gt;Node2</title>
<path fill="none" stroke="midnightblue" d="M368.47,-209.79C365.32,-250.14 352.56,-342.49 301,-395 297.18,-398.89 292.71,-402.18 287.92,-404.96"/>
<polygon fill="midnightblue" stroke="midnightblue" points="371.97,-209.87 369.14,-199.66 364.99,-209.41 371.97,-209.87"/>
</g>
<!-- Node3 -->
<g id="node3" class="node">
<title>Node3</title>
<g id="a_node3"><a xlink:href="namespacesll__m__particle__mesh__coupling__spline__cl__3d__feec.html#a536563b4882cbfed512dd5f81ffbfcdc" target="_top" xlink:title="Add current for one particle and update v (according to H_p1 part in Hamiltonian splitting)">
<polygon fill="white" stroke="black" points="165.5,-344.5 165.5,-385.5 293.5,-385.5 293.5,-344.5 165.5,-344.5"/>
<text text-anchor="start" x="173.5" y="-373.5" font-family="Helvetica,sans-Serif" font-size="10.00">add_current_update</text>
<text text-anchor="start" x="173.5" y="-362.5" font-family="Helvetica,sans-Serif" font-size="10.00">_v_component1_spline</text>
<text text-anchor="middle" x="229.5" y="-351.5" font-family="Helvetica,sans-Serif" font-size="10.00">_3d_feec</text>
</a>
</g>
</g>
<!-- Node1&#45;&gt;Node3 -->
<g id="edge2" class="edge">
<title>Node1&#45;&gt;Node3</title>
<path fill="none" stroke="midnightblue" d="M365.1,-209.35C357.23,-239.89 338,-299.42 301,-335 297.36,-338.5 293.24,-341.63 288.88,-344.41"/>
<polygon fill="midnightblue" stroke="midnightblue" points="368.53,-210.06 367.5,-199.51 361.73,-208.4 368.53,-210.06"/>
</g>
<!-- Node4 -->
<g id="node4" class="node">
<title>Node4</title>
<g id="a_node4"><a xlink:href="namespacesll__m__particle__mesh__coupling__spline__cl__3d__feec.html#a21aa41ea14ca5a4093045fa5114ecd00" target="_top" xlink:title="Add current for one particle and update v (according to H_p1 part in Hamiltonian splitting)">
<polygon fill="white" stroke="black" points="165.5,-284.5 165.5,-325.5 293.5,-325.5 293.5,-284.5 165.5,-284.5"/>
<text text-anchor="start" x="173.5" y="-313.5" font-family="Helvetica,sans-Serif" font-size="10.00">add_current_update</text>
<text text-anchor="start" x="173.5" y="-302.5" font-family="Helvetica,sans-Serif" font-size="10.00">_v_component2_spline</text>
<text text-anchor="middle" x="229.5" y="-291.5" font-family="Helvetica,sans-Serif" font-size="10.00">_3d_feec</text>
</a>
</g>
</g>
<!-- Node1&#45;&gt;Node4 -->
<g id="edge3" class="edge">
<title>Node1&#45;&gt;Node4</title>
<path fill="none" stroke="midnightblue" d="M358.6,-208.29C346.56,-227.17 325.57,-256.42 301,-275 296.44,-278.45 291.42,-281.59 286.23,-284.42"/>
<polygon fill="midnightblue" stroke="midnightblue" points="361.63,-210.05 363.92,-199.71 355.68,-206.36 361.63,-210.05"/>
</g>
<!-- Node5 -->
<g id="node5" class="node">
<title>Node5</title>
<g id="a_node5"><a xlink:href="namespacesll__m__particle__mesh__coupling__spline__cl__3d__feec.html#ad22243ca464ca4758024da8aa083a688" target="_top" xlink:title="Add current for one particle and update v (according to H_p1 part in Hamiltonian splitting)">
<polygon fill="white" stroke="black" points="165.5,-224.5 165.5,-265.5 293.5,-265.5 293.5,-224.5 165.5,-224.5"/>
<text text-anchor="start" x="173.5" y="-253.5" font-family="Helvetica,sans-Serif" font-size="10.00">add_current_update</text>
<text text-anchor="start" x="173.5" y="-242.5" font-family="Helvetica,sans-Serif" font-size="10.00">_v_component3_spline</text>
<text text-anchor="middle" x="229.5" y="-231.5" font-family="Helvetica,sans-Serif" font-size="10.00">_3d_feec</text>
</a>
</g>
</g>
<!-- Node1&#45;&gt;Node5 -->
<g id="edge4" class="edge">
<title>Node1&#45;&gt;Node5</title>
<path fill="none" stroke="midnightblue" d="M335.8,-203.33C319.76,-209.68 300.22,-217.41 282.35,-224.48"/>
<polygon fill="midnightblue" stroke="midnightblue" points="337.28,-206.51 345.29,-199.58 334.7,-200.01 337.28,-206.51"/>
</g>
<!-- Node6 -->
<g id="node6" class="node">
<title>Node6</title>
<g id="a_node6"><a xlink:href="namespacesll__m__particle__mesh__coupling__spline__cl__3d__feec.html#a2826fcf5a51826bde093d85c46f63d7b" target="_top" xlink:title="Add the contribution of one particle to the off&#45;diagonal parts of the approximate mass matrix.">
<polygon fill="white" stroke="black" points="167,-175 167,-205 292,-205 292,-175 167,-175"/>
<text text-anchor="start" x="175" y="-193" font-family="Helvetica,sans-Serif" font-size="10.00">add_particle_mass_od</text>
<text text-anchor="middle" x="229.5" y="-182" font-family="Helvetica,sans-Serif" font-size="10.00">_spline_cl_3d_feec</text>
</a>
</g>
</g>
<!-- Node1&#45;&gt;Node6 -->
<g id="edge5" class="edge">
<title>Node1&#45;&gt;Node6</title>
<path fill="none" stroke="midnightblue" d="M326.76,-190C315.8,-190 303.79,-190 292.08,-190"/>
<polygon fill="midnightblue" stroke="midnightblue" points="326.91,-193.5 336.91,-190 326.91,-186.5 326.91,-193.5"/>
</g>
<!-- Node7 -->
<g id="node7" class="node">
<title>Node7</title>
<g id="a_node7"><a xlink:href="namespacesll__m__particle__mesh__coupling__spline__cl__3d__feec.html#af6bc4e591409f657101f5d03ec248568" target="_top" xlink:title="Add the contribution of one particle to the diagonal parts fo the approximate mass matrix.">
<polygon fill="white" stroke="black" points="158,-126 158,-156 301,-156 301,-126 158,-126"/>
<text text-anchor="start" x="166" y="-144" font-family="Helvetica,sans-Serif" font-size="10.00">add_particle_mass_spline</text>
<text text-anchor="middle" x="229.5" y="-133" font-family="Helvetica,sans-Serif" font-size="10.00">_cl_3d_feec</text>
</a>
</g>
</g>
<!-- Node1&#45;&gt;Node7 -->
<g id="edge6" class="edge">
<title>Node1&#45;&gt;Node7</title>
<path fill="none" stroke="midnightblue" d="M332.91,-177.1C314.57,-170.64 292.27,-162.77 273.16,-156.04"/>
<polygon fill="midnightblue" stroke="midnightblue" points="331.77,-180.41 342.37,-180.44 334.1,-173.81 331.77,-180.41"/>
</g>
<!-- Node8 -->
<g id="node8" class="node">
<title>Node8</title>
<g id="a_node8"><a xlink:href="namespacesll__m__particle__mesh__coupling__spline__cl__3d__feec.html#af01af1de739a7ce621180ecdb254237b" target="_top" xlink:title="Evaluate field at at position position.">
<polygon fill="white" stroke="black" points="169.5,-77 169.5,-107 289.5,-107 289.5,-77 169.5,-77"/>
<text text-anchor="start" x="177.5" y="-95" font-family="Helvetica,sans-Serif" font-size="10.00">evaluate_field_single</text>
<text text-anchor="middle" x="229.5" y="-84" font-family="Helvetica,sans-Serif" font-size="10.00">_spline_cl_3d_feec</text>
</a>
</g>
</g>
<!-- Node1&#45;&gt;Node8 -->
<g id="edge7" class="edge">
<title>Node1&#45;&gt;Node8</title>
<path fill="none" stroke="midnightblue" d="M356.52,-171.84C343.97,-155.47 323.58,-131.76 301,-117 295.24,-113.23 288.84,-109.96 282.32,-107.12"/>
<polygon fill="midnightblue" stroke="midnightblue" points="353.87,-174.14 362.64,-180.08 359.48,-169.96 353.87,-174.14"/>
</g>
<!-- Node9 -->
<g id="node9" class="node">
<title>Node9</title>
<g id="a_node9"><a xlink:href="namespacesll__m__particle__mesh__coupling__spline__cl__3d__feec.html#add4465bdda1c90ae966f7f4537fdddaf" target="_top" xlink:title="Helper function for add_current.">
<polygon fill="white" stroke="black" points="166.5,-38.5 166.5,-57.5 292.5,-57.5 292.5,-38.5 166.5,-38.5"/>
<text text-anchor="middle" x="229.5" y="-45.5" font-family="Helvetica,sans-Serif" font-size="10.00">integrate_spline_cl_3d</text>
</a>
</g>
</g>
<!-- Node1&#45;&gt;Node9 -->
<g id="edge8" class="edge">
<title>Node1&#45;&gt;Node9</title>
<path fill="none" stroke="midnightblue" d="M363.82,-170.57C354.9,-143.53 335.03,-94.84 301,-68 295.51,-63.67 289.12,-60.27 282.47,-57.61"/>
<polygon fill="midnightblue" stroke="midnightblue" points="360.56,-171.9 366.89,-180.4 367.25,-169.82 360.56,-171.9"/>
</g>
<!-- Node11 -->
<g id="node11" class="node">
<title>Node11</title>
<g id="a_node11"><a xlink:href="namespacesll__m__particle__mesh__coupling__spline__cl__3d__feec.html#a3cf554b459625a1bcd9356eed42e4971" target="_top" xlink:title="Helper function for add_current_evaluate.">
<polygon fill="white" stroke="black" points="184,-0.5 184,-19.5 275,-19.5 275,-0.5 184,-0.5"/>
<text text-anchor="middle" x="229.5" y="-7.5" font-family="Helvetica,sans-Serif" font-size="10.00">point_add_eval</text>
</a>
</g>
</g>
<!-- Node1&#45;&gt;Node11 -->
<g id="edge10" class="edge">
<title>Node1&#45;&gt;Node11</title>
<path fill="none" stroke="midnightblue" d="M366.75,-170.25C360.95,-136.23 344.24,-66.61 301,-29 293.73,-22.68 284.56,-18.43 275.27,-15.59"/>
<polygon fill="midnightblue" stroke="midnightblue" points="363.32,-170.99 368.32,-180.33 370.24,-169.91 363.32,-170.99"/>
</g>
<!-- Node10 -->
<g id="node10" class="node">
<title>Node10</title>
<g id="a_node10"><a xlink:href="namespacesll__m__particle__mesh__coupling__spline__cl__3d__feec.html#aef517b0d273cd95396b2c83e284b03b6" target="_top" xlink:title="Add current with integration over x.">
<polygon fill="white" stroke="black" points="8.5,-38.5 8.5,-57.5 113.5,-57.5 113.5,-38.5 8.5,-38.5"/>
<text text-anchor="middle" x="61" y="-45.5" font-family="Helvetica,sans-Serif" font-size="10.00">add_current_cl_3d</text>
</a>
</g>
</g>
<!-- Node9&#45;&gt;Node10 -->
<g id="edge9" class="edge">
<title>Node9&#45;&gt;Node10</title>
<path fill="none" stroke="midnightblue" d="M155.8,-48C141.61,-48 127.01,-48 113.68,-48"/>
<polygon fill="midnightblue" stroke="midnightblue" points="156.03,-51.5 166.03,-48 156.03,-44.5 156.03,-51.5"/>
</g>
<!-- Node12 -->
<g id="node12" class="node">
<title>Node12</title>
<g id="a_node12"><a xlink:href="namespacesll__m__particle__mesh__coupling__spline__cl__3d__feec.html#a0e0303a9e5cf4cfafbf3ce8ecf87357c" target="_top" xlink:title="Add current with integration over x and evaluate the electric field.">
<polygon fill="white" stroke="black" points="0,-0.5 0,-19.5 122,-19.5 122,-0.5 0,-0.5"/>
<text text-anchor="middle" x="61" y="-7.5" font-family="Helvetica,sans-Serif" font-size="10.00">add_current_evaluate</text>
</a>
</g>
</g>
<!-- Node11&#45;&gt;Node12 -->
<g id="edge11" class="edge">
<title>Node11&#45;&gt;Node12</title>
<path fill="none" stroke="midnightblue" d="M173.82,-10C157.26,-10 138.98,-10 122.09,-10"/>
<polygon fill="midnightblue" stroke="midnightblue" points="173.88,-13.5 183.88,-10 173.88,-6.5 173.88,-13.5"/>
</g>
</g>
</svg>
