<?xml version="1.0" encoding="UTF-8" standalone="no"?>
<!DOCTYPE svg PUBLIC "-//W3C//DTD SVG 1.1//EN"
 "http://www.w3.org/Graphics/SVG/1.1/DTD/svg11.dtd">
<!-- Generated by graphviz version 2.40.1 (20161225.0304)
 -->
<!-- Title: compute_spline_2d_prdc_hrmt Pages: 1 -->
<svg width="544pt" height="290pt"
 viewBox="0.00 0.00 544.00 290.00" xmlns="http://www.w3.org/2000/svg" xmlns:xlink="http://www.w3.org/1999/xlink">
<g id="graph0" class="graph" transform="scale(1 1) rotate(0) translate(4 286)">
<title>compute_spline_2d_prdc_hrmt</title>
<polygon fill="#ffffff" stroke="transparent" points="-4,4 -4,-286 540,-286 540,4 -4,4"/>
<!-- Node94 -->
<g id="node1" class="node">
<title>Node94</title>
<polygon fill="#bfbfbf" stroke="#000000" points="0,-131.5 0,-150.5 166,-150.5 166,-131.5 0,-131.5"/>
<text text-anchor="middle" x="83" y="-138.5" font-family="Helvetica,sans-Serif" font-size="10.00" fill="#000000">compute_spline_2d_prdc_hrmt</text>
</g>
<!-- Node95 -->
<g id="node2" class="node">
<title>Node95</title>
<g id="a_node2"><a xlink:href="namespacesll__m__cubic__splines.html#a0d1f3cee9f161c208e409c998ab66713" target="_top" xlink:title="Computes the spline coefficients for the given data. The coeffcients are first computed in the second...">
<polygon fill="#ffffff" stroke="#000000" points="202,-126 202,-156 342,-156 342,-126 202,-126"/>
<text text-anchor="start" x="210" y="-144" font-family="Helvetica,sans-Serif" font-size="10.00" fill="#000000">sll_s_cubic_spline</text>
<text text-anchor="middle" x="272" y="-133" font-family="Helvetica,sans-Serif" font-size="10.00" fill="#000000">_2d_compute_interpolant</text>
</a>
</g>
</g>
<!-- Node94&#45;&gt;Node95 -->
<g id="edge1" class="edge">
<title>Node94&#45;&gt;Node95</title>
<path fill="none" stroke="#191970" d="M176.2411,-141C184.8374,-141 193.4476,-141 201.7871,-141"/>
<polygon fill="#191970" stroke="#191970" points="176.1732,-137.5001 166.1732,-141 176.1732,-144.5001 176.1732,-137.5001"/>
</g>
<!-- Node96 -->
<g id="node3" class="node">
<title>Node96</title>
<g id="a_node3"><a xlink:href="namespacesll__m__fdistribu4d__dk.html#adf8cc4ba8aba42290c788f697de79f42" target="_top" xlink:title="sll_m_fdistribu4d_dk\l::sll_s_function_xy_from\l_rtheta">
<polygon fill="#ffffff" stroke="#000000" points="389.5,-240.5 389.5,-281.5 524.5,-281.5 524.5,-240.5 389.5,-240.5"/>
<text text-anchor="start" x="397.5" y="-269.5" font-family="Helvetica,sans-Serif" font-size="10.00" fill="#000000">sll_m_fdistribu4d_dk</text>
<text text-anchor="start" x="397.5" y="-258.5" font-family="Helvetica,sans-Serif" font-size="10.00" fill="#000000">::sll_s_function_xy_from</text>
<text text-anchor="middle" x="457" y="-247.5" font-family="Helvetica,sans-Serif" font-size="10.00" fill="#000000">_rtheta</text>
</a>
</g>
</g>
<!-- Node95&#45;&gt;Node96 -->
<g id="edge2" class="edge">
<title>Node95&#45;&gt;Node96</title>
<path fill="none" stroke="#191970" d="M293.7133,-163.3622C314.0116,-183.2585 345.9276,-212.0599 378,-231 383.811,-234.4316 390.0844,-237.5987 396.4664,-240.4854"/>
<polygon fill="#191970" stroke="#191970" points="296.0842,-160.7839 286.5266,-156.2119 291.147,-165.7462 296.0842,-160.7839"/>
</g>
<!-- Node97 -->
<g id="node4" class="node">
<title>Node97</title>
<g id="a_node4"><a xlink:href="namespacesll__m__general__coordinate__elliptic__solver.html#a2c7a0e952c10e71709680a8ea4bd548d" target="_top" xlink:title="sll_m_general_coordinate\l_elliptic_solver::sll_s\l_factorize_mat_es_prototype">
<polygon fill="#ffffff" stroke="#000000" points="378,-180.5 378,-221.5 536,-221.5 536,-180.5 378,-180.5"/>
<text text-anchor="start" x="386" y="-209.5" font-family="Helvetica,sans-Serif" font-size="10.00" fill="#000000">sll_m_general_coordinate</text>
<text text-anchor="start" x="386" y="-198.5" font-family="Helvetica,sans-Serif" font-size="10.00" fill="#000000">_elliptic_solver::sll_s</text>
<text text-anchor="middle" x="457" y="-187.5" font-family="Helvetica,sans-Serif" font-size="10.00" fill="#000000">_factorize_mat_es_prototype</text>
</a>
</g>
</g>
<!-- Node95&#45;&gt;Node97 -->
<g id="edge3" class="edge">
<title>Node95&#45;&gt;Node97</title>
<path fill="none" stroke="#191970" d="M328.2465,-159.2421C348.8698,-165.9307 372.3494,-173.5458 393.56,-180.4249"/>
<polygon fill="#191970" stroke="#191970" points="329.2753,-155.8964 318.6833,-156.1405 327.1158,-162.5549 329.2753,-155.8964"/>
</g>
<!-- Node98 -->
<g id="node5" class="node">
<title>Node98</title>
<g id="a_node5"><a xlink:href="namespacesll__m__cubic__spline__interpolator__2d.html#a10af8789e490412a3580fcd15040a9b6" target="_top" xlink:title="sll_m_cubic_spline\l_interpolator_2d::compute\l_interpolants_cs2d">
<polygon fill="#ffffff" stroke="#000000" points="384.5,-120.5 384.5,-161.5 529.5,-161.5 529.5,-120.5 384.5,-120.5"/>
<text text-anchor="start" x="392.5" y="-149.5" font-family="Helvetica,sans-Serif" font-size="10.00" fill="#000000">sll_m_cubic_spline</text>
<text text-anchor="start" x="392.5" y="-138.5" font-family="Helvetica,sans-Serif" font-size="10.00" fill="#000000">_interpolator_2d::compute</text>
<text text-anchor="middle" x="457" y="-127.5" font-family="Helvetica,sans-Serif" font-size="10.00" fill="#000000">_interpolants_cs2d</text>
</a>
</g>
</g>
<!-- Node95&#45;&gt;Node98 -->
<g id="edge4" class="edge">
<title>Node95&#45;&gt;Node98</title>
<path fill="none" stroke="#191970" d="M352.3354,-141C362.9919,-141 373.8676,-141 384.3835,-141"/>
<polygon fill="#191970" stroke="#191970" points="352.2044,-137.5001 342.2044,-141 352.2043,-144.5001 352.2044,-137.5001"/>
</g>
<!-- Node99 -->
<g id="node6" class="node">
<title>Node99</title>
<g id="a_node6"><a xlink:href="namespacesll__m__cubic__spline__interpolator__2d.html#a44c6e00989e48621fd373f2a8d0526fa" target="_top" xlink:title="sll_m_cubic_spline\l_interpolator_2d::spline\l_interpolate2d">
<polygon fill="#ffffff" stroke="#000000" points="391.5,-60.5 391.5,-101.5 522.5,-101.5 522.5,-60.5 391.5,-60.5"/>
<text text-anchor="start" x="399.5" y="-89.5" font-family="Helvetica,sans-Serif" font-size="10.00" fill="#000000">sll_m_cubic_spline</text>
<text text-anchor="start" x="399.5" y="-78.5" font-family="Helvetica,sans-Serif" font-size="10.00" fill="#000000">_interpolator_2d::spline</text>
<text text-anchor="middle" x="457" y="-67.5" font-family="Helvetica,sans-Serif" font-size="10.00" fill="#000000">_interpolate2d</text>
</a>
</g>
</g>
<!-- Node95&#45;&gt;Node99 -->
<g id="edge5" class="edge">
<title>Node95&#45;&gt;Node99</title>
<path fill="none" stroke="#191970" d="M328.2465,-122.7579C348.8698,-116.0693 372.3494,-108.4542 393.56,-101.5751"/>
<polygon fill="#191970" stroke="#191970" points="327.1158,-119.4451 318.6833,-125.8595 329.2753,-126.1036 327.1158,-119.4451"/>
</g>
<!-- Node100 -->
<g id="node7" class="node">
<title>Node100</title>
<g id="a_node7"><a xlink:href="namespacesll__m__cubic__spline__interpolator__2d.html#af3b769e5f47945e7de14ba1272defea0" target="_top" xlink:title="sll_m_cubic_spline\l_interpolator_2d::spline\l_interpolate2d_disp">
<polygon fill="#ffffff" stroke="#000000" points="391.5,-.5 391.5,-41.5 522.5,-41.5 522.5,-.5 391.5,-.5"/>
<text text-anchor="start" x="399.5" y="-29.5" font-family="Helvetica,sans-Serif" font-size="10.00" fill="#000000">sll_m_cubic_spline</text>
<text text-anchor="start" x="399.5" y="-18.5" font-family="Helvetica,sans-Serif" font-size="10.00" fill="#000000">_interpolator_2d::spline</text>
<text text-anchor="middle" x="457" y="-7.5" font-family="Helvetica,sans-Serif" font-size="10.00" fill="#000000">_interpolate2d_disp</text>
</a>
</g>
</g>
<!-- Node95&#45;&gt;Node100 -->
<g id="edge6" class="edge">
<title>Node95&#45;&gt;Node100</title>
<path fill="none" stroke="#191970" d="M293.7133,-118.6378C314.0116,-98.7415 345.9276,-69.9401 378,-51 383.811,-47.5684 390.0844,-44.4013 396.4664,-41.5146"/>
<polygon fill="#191970" stroke="#191970" points="291.147,-116.2538 286.5266,-125.7881 296.0842,-121.2161 291.147,-116.2538"/>
</g>
</g>
</svg>
