<?xml version="1.0" encoding="UTF-8" standalone="no"?>
<!DOCTYPE svg PUBLIC "-//W3C//DTD SVG 1.1//EN"
 "http://www.w3.org/Graphics/SVG/1.1/DTD/svg11.dtd">
<!-- Generated by graphviz version 2.38.0 (20140413.2041)
 -->
<!-- Title: sll_s_poisson_1d_hmf_init Pages: 1 -->
<svg width="270pt" height="88pt"
 viewBox="0.00 0.00 270.00 88.00" xmlns="http://www.w3.org/2000/svg" xmlns:xlink="http://www.w3.org/1999/xlink">
<g id="graph0" class="graph" transform="scale(1 1) rotate(0) translate(4 84)">
<title>sll_s_poisson_1d_hmf_init</title>
<polygon fill="white" stroke="none" points="-4,4 -4,-84 266,-84 266,4 -4,4"/>
<!-- Node1 -->
<g id="node1" class="node"><title>Node1</title>
<polygon fill="#bfbfbf" stroke="black" points="0,-30 0,-49 131,-49 131,-30 0,-30"/>
<text text-anchor="middle" x="65.5" y="-37" font-family="Helvetica,sans-Serif" font-size="10.00">sll_s_poisson_1d_hmf_init</text>
</g>
<!-- Node2 -->
<g id="node2" class="node"><title>Node2</title>
<g id="a_node2"><a xlink:href="namespacesll__m__fft.html#a11789fe259803b9a52c5de9f4b2fa521" target="_top" xlink:title="Create new 1d real to complex plan for forward FFT. ">
<polygon fill="white" stroke="black" points="167,-49.5 167,-79.5 262,-79.5 262,-49.5 167,-49.5"/>
<text text-anchor="start" x="175" y="-67.5" font-family="Helvetica,sans-Serif" font-size="10.00">sll_m_fft::sll_s_fft</text>
<text text-anchor="middle" x="214.5" y="-56.5" font-family="Helvetica,sans-Serif" font-size="10.00">_init_r2c_1d</text>
</a>
</g>
</g>
<!-- Node1&#45;&gt;Node2 -->
<g id="edge1" class="edge"><title>Node1&#45;&gt;Node2</title>
<path fill="none" stroke="midnightblue" d="M122.494,-49.0227C133.675,-50.9244 145.431,-52.9237 156.642,-54.8302"/>
<polygon fill="midnightblue" stroke="midnightblue" points="156.306,-58.3234 166.752,-56.5496 157.48,-51.4224 156.306,-58.3234"/>
</g>
<!-- Node3 -->
<g id="node3" class="node"><title>Node3</title>
<g id="a_node3"><a xlink:href="namespacesll__m__fft.html#a47960b64c3303440c96bd80c055868c1" target="_top" xlink:title="Create new 1d complex to real plan for backward FFT. ">
<polygon fill="white" stroke="black" points="167,-0.5 167,-30.5 262,-30.5 262,-0.5 167,-0.5"/>
<text text-anchor="start" x="175" y="-18.5" font-family="Helvetica,sans-Serif" font-size="10.00">sll_m_fft::sll_s_fft</text>
<text text-anchor="middle" x="214.5" y="-7.5" font-family="Helvetica,sans-Serif" font-size="10.00">_init_c2r_1d</text>
</a>
</g>
</g>
<!-- Node1&#45;&gt;Node3 -->
<g id="edge2" class="edge"><title>Node1&#45;&gt;Node3</title>
<path fill="none" stroke="midnightblue" d="M125.021,-29.9456C135.578,-28.2219 146.566,-26.428 157.063,-24.7143"/>
<polygon fill="midnightblue" stroke="midnightblue" points="157.64,-28.1664 166.946,-23.1007 156.512,-21.2578 157.64,-28.1664"/>
</g>
</g>
</svg>
