<?xml version="1.0" encoding="UTF-8" standalone="no"?>
<!DOCTYPE svg PUBLIC "-//W3C//DTD SVG 1.1//EN"
 "http://www.w3.org/Graphics/SVG/1.1/DTD/svg11.dtd">
<!-- Generated by graphviz version 2.40.1 (20161225.0304)
 -->
<!-- Title: l2projection Pages: 1 -->
<svg width="364pt" height="186pt"
 viewBox="0.00 0.00 364.00 186.00" xmlns="http://www.w3.org/2000/svg" xmlns:xlink="http://www.w3.org/1999/xlink">
<g id="graph0" class="graph" transform="scale(1 1) rotate(0) translate(4 182)">
<title>l2projection</title>
<polygon fill="#ffffff" stroke="transparent" points="-4,4 -4,-182 360,-182 360,4 -4,4"/>
<!-- Node74 -->
<g id="node1" class="node">
<title>Node74</title>
<polygon fill="#bfbfbf" stroke="#000000" points="0,-79 0,-98 74,-98 74,-79 0,-79"/>
<text text-anchor="middle" x="37" y="-86" font-family="Helvetica,sans-Serif" font-size="10.00" fill="#000000">l2projection</text>
</g>
<!-- Node75 -->
<g id="node2" class="node">
<title>Node75</title>
<g id="a_node2"><a xlink:href="namespacesll__m__fft.html#ac3f0bdd60b0eb75e936d13bf15f06ea2" target="_top" xlink:title="Compute fast Fourier transform in real to real mode. ">
<polygon fill="#ffffff" stroke="#000000" points="110,-73.5 110,-103.5 212,-103.5 212,-73.5 110,-73.5"/>
<text text-anchor="start" x="118" y="-91.5" font-family="Helvetica,sans-Serif" font-size="10.00" fill="#000000">sll_m_fft::sll_s_fft</text>
<text text-anchor="middle" x="161" y="-80.5" font-family="Helvetica,sans-Serif" font-size="10.00" fill="#000000">_exec_r2r_1d</text>
</a>
</g>
</g>
<!-- Node74&#45;&gt;Node75 -->
<g id="edge1" class="edge">
<title>Node74&#45;&gt;Node75</title>
<path fill="none" stroke="#191970" d="M74.2041,-88.5C82.2028,-88.5 90.8608,-88.5 99.5057,-88.5"/>
<polygon fill="#191970" stroke="#191970" points="99.6078,-92.0001 109.6077,-88.5 99.6077,-85.0001 99.6078,-92.0001"/>
</g>
<!-- Node76 -->
<g id="node3" class="node">
<title>Node76</title>
<g id="a_node3"><a xlink:href="namespacesll__m__fft.html#a07ee4cd52316d2769eee6c35861d1482" target="_top" xlink:title="Compute fast Fourier transform in real to complex mode. ">
<polygon fill="#ffffff" stroke="#000000" points="251,-147.5 251,-177.5 353,-177.5 353,-147.5 251,-147.5"/>
<text text-anchor="start" x="259" y="-165.5" font-family="Helvetica,sans-Serif" font-size="10.00" fill="#000000">sll_m_fft::sll_s_fft</text>
<text text-anchor="middle" x="302" y="-154.5" font-family="Helvetica,sans-Serif" font-size="10.00" fill="#000000">_exec_r2c_1d</text>
</a>
</g>
</g>
<!-- Node75&#45;&gt;Node76 -->
<g id="edge2" class="edge">
<title>Node75&#45;&gt;Node76</title>
<path fill="none" stroke="#191970" d="M185.7503,-103.6376C202.9585,-113.935 226.5651,-127.6139 248,-138.5 251.0657,-140.057 254.2543,-141.6176 257.481,-143.1543"/>
<polygon fill="#191970" stroke="#191970" points="256.0618,-146.3543 266.6051,-147.3987 259.0143,-140.0074 256.0618,-146.3543"/>
</g>
<!-- Node77 -->
<g id="node4" class="node">
<title>Node77</title>
<g id="a_node4"><a xlink:href="namespacesll__m__fft.html#a4b923cd83abdc837029b1eae8fe0d4ed" target="_top" xlink:title="Subroutine to set a complex mode to the real representation of r2r. ">
<polygon fill="#ffffff" stroke="#000000" points="248.5,-98.5 248.5,-128.5 355.5,-128.5 355.5,-98.5 248.5,-98.5"/>
<text text-anchor="start" x="256.5" y="-116.5" font-family="Helvetica,sans-Serif" font-size="10.00" fill="#000000">sll_m_fft::sll_s_fft</text>
<text text-anchor="middle" x="302" y="-105.5" font-family="Helvetica,sans-Serif" font-size="10.00" fill="#000000">_set_mode_c2r_1d</text>
</a>
</g>
</g>
<!-- Node75&#45;&gt;Node77 -->
<g id="edge3" class="edge">
<title>Node75&#45;&gt;Node77</title>
<path fill="none" stroke="#191970" d="M212.3031,-97.5963C220.6792,-99.0814 229.4466,-100.6359 238.0812,-102.1669"/>
<polygon fill="#191970" stroke="#191970" points="237.6675,-105.648 248.125,-103.9477 238.8897,-98.7555 237.6675,-105.648"/>
</g>
<!-- Node78 -->
<g id="node5" class="node">
<title>Node78</title>
<g id="a_node5"><a xlink:href="namespacesll__m__fft.html#af3511e8ad158957634b1fd7ee1d2e73b" target="_top" xlink:title="Function to reconstruct a complex FFT mode from the data of a r2r transform. ">
<polygon fill="#ffffff" stroke="#000000" points="248,-49.5 248,-79.5 356,-79.5 356,-49.5 248,-49.5"/>
<text text-anchor="start" x="256" y="-67.5" font-family="Helvetica,sans-Serif" font-size="10.00" fill="#000000">sll_m_fft::sll_f_fft</text>
<text text-anchor="middle" x="302" y="-56.5" font-family="Helvetica,sans-Serif" font-size="10.00" fill="#000000">_get_mode_r2c_1d</text>
</a>
</g>
</g>
<!-- Node75&#45;&gt;Node78 -->
<g id="edge4" class="edge">
<title>Node75&#45;&gt;Node78</title>
<path fill="none" stroke="#191970" d="M212.3031,-79.7676C220.566,-78.3611 229.2097,-76.8898 237.7311,-75.4394"/>
<polygon fill="#191970" stroke="#191970" points="238.3771,-78.8799 247.648,-73.7514 237.2025,-71.9791 238.3771,-78.8799"/>
</g>
<!-- Node79 -->
<g id="node6" class="node">
<title>Node79</title>
<g id="a_node6"><a xlink:href="namespacesll__m__fft.html#a293ae19515b20fa6d456ef2c52f99b23" target="_top" xlink:title="Compute fast Fourier transform in complex to real mode. ">
<polygon fill="#ffffff" stroke="#000000" points="251,-.5 251,-30.5 353,-30.5 353,-.5 251,-.5"/>
<text text-anchor="start" x="259" y="-18.5" font-family="Helvetica,sans-Serif" font-size="10.00" fill="#000000">sll_m_fft::sll_s_fft</text>
<text text-anchor="middle" x="302" y="-7.5" font-family="Helvetica,sans-Serif" font-size="10.00" fill="#000000">_exec_c2r_1d</text>
</a>
</g>
</g>
<!-- Node75&#45;&gt;Node79 -->
<g id="edge5" class="edge">
<title>Node75&#45;&gt;Node79</title>
<path fill="none" stroke="#191970" d="M187.3938,-73.3032C204.5088,-63.6073 227.379,-50.9456 248,-40.5 251.5784,-38.6874 255.3136,-36.8495 259.0756,-35.0357"/>
<polygon fill="#191970" stroke="#191970" points="260.8759,-38.0554 268.4085,-30.6048 257.8737,-31.7319 260.8759,-38.0554"/>
</g>
</g>
</svg>
