<?xml version="1.0" encoding="UTF-8" standalone="no"?>
<!DOCTYPE svg PUBLIC "-//W3C//DTD SVG 1.1//EN"
 "http://www.w3.org/Graphics/SVG/1.1/DTD/svg11.dtd">
<!-- Generated by graphviz version 2.40.1 (20161225.0304)
 -->
<!-- Title: compute_e_from_rho_fft Pages: 1 -->
<svg width="360pt" height="66pt"
 viewBox="0.00 0.00 360.00 66.00" xmlns="http://www.w3.org/2000/svg" xmlns:xlink="http://www.w3.org/1999/xlink">
<g id="graph0" class="graph" transform="scale(1 1) rotate(0) translate(4 62)">
<title>compute_e_from_rho_fft</title>
<polygon fill="#ffffff" stroke="transparent" points="-4,4 -4,-62 356,-62 356,4 -4,4"/>
<!-- Node0 -->
<g id="node1" class="node">
<title>Node0</title>
<polygon fill="#bfbfbf" stroke="#000000" points="0,-19.5 0,-38.5 136,-38.5 136,-19.5 0,-19.5"/>
<text text-anchor="middle" x="68" y="-26.5" font-family="Helvetica,sans-Serif" font-size="10.00" fill="#000000">compute_e_from_rho_fft</text>
</g>
<!-- Node1 -->
<g id="node2" class="node">
<title>Node1</title>
<g id="a_node2"><a xlink:href="namespacesll__m__poisson__2d__fem__fft.html#aa4910be1ce75a6a69aa714258f81a256" target="_top" xlink:title="fft2d">
<polygon fill="#ffffff" stroke="#000000" points="173.5,-38.5 173.5,-57.5 212.5,-57.5 212.5,-38.5 173.5,-38.5"/>
<text text-anchor="middle" x="193" y="-45.5" font-family="Helvetica,sans-Serif" font-size="10.00" fill="#000000">fft2d</text>
</a>
</g>
</g>
<!-- Node0&#45;&gt;Node1 -->
<g id="edge1" class="edge">
<title>Node0&#45;&gt;Node1</title>
<path fill="none" stroke="#191970" d="M130.8662,-38.5557C142.2065,-40.2794 153.5308,-42.0007 163.3455,-43.4925"/>
<polygon fill="#191970" stroke="#191970" points="162.9199,-46.9679 173.3323,-45.0105 163.9719,-40.0474 162.9199,-46.9679"/>
</g>
<!-- Node3 -->
<g id="node4" class="node">
<title>Node3</title>
<g id="a_node4"><a xlink:href="namespacesll__m__poisson__2d__fem__fft.html#a731d887011b633a14af792426bb2e619" target="_top" xlink:title="Helper function for 3d fft. ">
<polygon fill="#ffffff" stroke="#000000" points="172,-.5 172,-19.5 214,-19.5 214,-.5 172,-.5"/>
<text text-anchor="middle" x="193" y="-7.5" font-family="Helvetica,sans-Serif" font-size="10.00" fill="#000000">ifft2d</text>
</a>
</g>
</g>
<!-- Node0&#45;&gt;Node3 -->
<g id="edge3" class="edge">
<title>Node0&#45;&gt;Node3</title>
<path fill="none" stroke="#191970" d="M130.8662,-19.4443C141.6442,-17.8061 152.4076,-16.17 161.8744,-14.7311"/>
<polygon fill="#191970" stroke="#191970" points="162.583,-18.1637 171.9434,-13.2006 161.531,-11.2432 162.583,-18.1637"/>
</g>
<!-- Node2 -->
<g id="node3" class="node">
<title>Node2</title>
<g id="a_node3"><a xlink:href="namespacesll__m__fft.html#a98e3ba2b5431c58a3f5100ac171616a5" target="_top" xlink:title="Compute fast Fourier transform in complex to complex mode. ">
<polygon fill="#ffffff" stroke="#000000" points="250,-14 250,-44 352,-44 352,-14 250,-14"/>
<text text-anchor="start" x="258" y="-32" font-family="Helvetica,sans-Serif" font-size="10.00" fill="#000000">sll_m_fft::sll_s_fft</text>
<text text-anchor="middle" x="301" y="-21" font-family="Helvetica,sans-Serif" font-size="10.00" fill="#000000">_exec_c2c_1d</text>
</a>
</g>
</g>
<!-- Node1&#45;&gt;Node2 -->
<g id="edge2" class="edge">
<title>Node1&#45;&gt;Node2</title>
<path fill="none" stroke="#191970" d="M212.558,-44.5592C220.3994,-43.1797 229.9039,-41.5077 239.7355,-39.778"/>
<polygon fill="#191970" stroke="#191970" points="240.3844,-43.2177 249.6267,-38.0379 239.1715,-36.3236 240.3844,-43.2177"/>
</g>
<!-- Node3&#45;&gt;Node2 -->
<g id="edge4" class="edge">
<title>Node3&#45;&gt;Node2</title>
<path fill="none" stroke="#191970" d="M214.0799,-13.7085C221.6534,-15.0409 230.6241,-16.6191 239.8787,-18.2472"/>
<polygon fill="#191970" stroke="#191970" points="239.5246,-21.7386 249.9798,-20.0242 240.7375,-14.8444 239.5246,-21.7386"/>
</g>
</g>
</svg>
