<?xml version="1.0" encoding="UTF-8" standalone="no"?>
<!DOCTYPE svg PUBLIC "-//W3C//DTD SVG 1.1//EN"
 "http://www.w3.org/Graphics/SVG/1.1/DTD/svg11.dtd">
<!-- Generated by graphviz version 2.40.1 (20161225.0304)
 -->
<!-- Title: write_scalar_field_1d Pages: 1 -->
<svg width="403pt" height="39pt"
 viewBox="0.00 0.00 403.00 39.00" xmlns="http://www.w3.org/2000/svg" xmlns:xlink="http://www.w3.org/1999/xlink">
<g id="graph0" class="graph" transform="scale(1 1) rotate(0) translate(4 35)">
<title>write_scalar_field_1d</title>
<polygon fill="#ffffff" stroke="transparent" points="-4,4 -4,-35 399,-35 399,4 -4,4"/>
<!-- Node4 -->
<g id="node1" class="node">
<title>Node4</title>
<polygon fill="#bfbfbf" stroke="#000000" points="0,-6 0,-25 119,-25 119,-6 0,-6"/>
<text text-anchor="middle" x="59.5" y="-13" font-family="Helvetica,sans-Serif" font-size="10.00" fill="#000000">write_scalar_field_1d</text>
</g>
<!-- Node5 -->
<g id="node2" class="node">
<title>Node5</title>
<g id="a_node2"><a xlink:href="namespacesll__m__gnuplot.html#a5e6ee9522c047d0a039b28b2dfeaf604" target="_top" xlink:title="Write an array to display with gnuplot. ">
<polygon fill="#ffffff" stroke="#000000" points="155,-.5 155,-30.5 257,-30.5 257,-.5 155,-.5"/>
<text text-anchor="start" x="163" y="-18.5" font-family="Helvetica,sans-Serif" font-size="10.00" fill="#000000">sll_m_gnuplot::sll</text>
<text text-anchor="middle" x="206" y="-7.5" font-family="Helvetica,sans-Serif" font-size="10.00" fill="#000000">_s_gnuplot_write</text>
</a>
</g>
</g>
<!-- Node4&#45;&gt;Node5 -->
<g id="edge1" class="edge">
<title>Node4&#45;&gt;Node5</title>
<path fill="none" stroke="#191970" d="M119.0872,-15.5C127.535,-15.5 136.2341,-15.5 144.7134,-15.5"/>
<polygon fill="#191970" stroke="#191970" points="144.9157,-19.0001 154.9157,-15.5 144.9156,-12.0001 144.9157,-19.0001"/>
</g>
<!-- Node6 -->
<g id="node3" class="node">
<title>Node6</title>
<g id="a_node3"><a xlink:href="namespacesll__m__utilities.html#a4d45f033e67c39369da8b297302793cb" target="_top" xlink:title="Convert an integer &lt; 9999 to a 4 characters string. ">
<polygon fill="#ffffff" stroke="#000000" points="293,-.5 293,-30.5 395,-30.5 395,-.5 293,-.5"/>
<text text-anchor="start" x="301" y="-18.5" font-family="Helvetica,sans-Serif" font-size="10.00" fill="#000000">sll_m_utilities::sll</text>
<text text-anchor="middle" x="344" y="-7.5" font-family="Helvetica,sans-Serif" font-size="10.00" fill="#000000">_s_int2string</text>
</a>
</g>
</g>
<!-- Node5&#45;&gt;Node6 -->
<g id="edge2" class="edge">
<title>Node5&#45;&gt;Node6</title>
<path fill="none" stroke="#191970" d="M257.3861,-15.5C265.5581,-15.5 274.0834,-15.5 282.4603,-15.5"/>
<polygon fill="#191970" stroke="#191970" points="282.571,-19.0001 292.571,-15.5 282.5709,-12.0001 282.571,-19.0001"/>
</g>
</g>
</svg>
