<?xml version="1.0" encoding="UTF-8" standalone="no"?>
<!DOCTYPE svg PUBLIC "-//W3C//DTD SVG 1.1//EN"
 "http://www.w3.org/Graphics/SVG/1.1/DTD/svg11.dtd">
<!-- Generated by graphviz version 2.43.0 (0)
 -->
<!-- Title: sll_f_new_dg_field_2d Pages: 1 -->
<svg width="605pt" height="148pt"
 viewBox="0.00 0.00 605.00 148.00" xmlns="http://www.w3.org/2000/svg" xmlns:xlink="http://www.w3.org/1999/xlink">
<g id="graph0" class="graph" transform="scale(1 1) rotate(0) translate(4 144)">
<title>sll_f_new_dg_field_2d</title>
<polygon fill="white" stroke="transparent" points="-4,4 -4,-144 601,-144 601,4 -4,4"/>
<!-- Node1 -->
<g id="node1" class="node">
<title>Node1</title>
<g id="a_node1"><a xlink:title=" ">
<polygon fill="#bfbfbf" stroke="black" points="0,-71.5 0,-90.5 123,-90.5 123,-71.5 0,-71.5"/>
<text text-anchor="middle" x="61.5" y="-78.5" font-family="Helvetica,sans-Serif" font-size="10.00">sll_f_new_dg_field_2d</text>
</a>
</g>
</g>
<!-- Node2 -->
<g id="node2" class="node">
<title>Node2</title>
<g id="a_node2"><a xlink:href="namespacesll__m__dg__fields.html#ac58a04f8b3973e610bedff7f58924085" target="_top" xlink:title=" ">
<polygon fill="white" stroke="black" points="163.5,-120.5 163.5,-139.5 288.5,-139.5 288.5,-120.5 163.5,-120.5"/>
<text text-anchor="middle" x="226" y="-127.5" font-family="Helvetica,sans-Serif" font-size="10.00">set_value_dg_field_2d</text>
</a>
</g>
</g>
<!-- Node1&#45;&gt;Node2 -->
<g id="edge1" class="edge">
<title>Node1&#45;&gt;Node2</title>
<path fill="none" stroke="midnightblue" d="M92.87,-90.62C111.85,-96.59 136.81,-104.36 159,-111 166.31,-113.19 174.08,-115.47 181.64,-117.66"/>
<polygon fill="midnightblue" stroke="midnightblue" points="180.81,-121.06 191.38,-120.47 182.75,-114.34 180.81,-121.06"/>
</g>
<!-- Node3 -->
<g id="node3" class="node">
<title>Node3</title>
<g id="a_node3"><a xlink:href="namespacesll__m__gauss__lobatto__integration.html#a43443dd7dd80f1289d964b572cd6ee2c" target="_top" xlink:title="Returns a 1d array of size (n) containing gauss&#45;lobatto points in the interval [a,...">
<polygon fill="white" stroke="black" points="163.5,-60.5 163.5,-101.5 288.5,-101.5 288.5,-60.5 163.5,-60.5"/>
<text text-anchor="start" x="171.5" y="-89.5" font-family="Helvetica,sans-Serif" font-size="10.00">sll_m_gauss_lobatto</text>
<text text-anchor="start" x="171.5" y="-78.5" font-family="Helvetica,sans-Serif" font-size="10.00">_integration::sll_f</text>
<text text-anchor="middle" x="226" y="-67.5" font-family="Helvetica,sans-Serif" font-size="10.00">_gauss_lobatto_points</text>
</a>
</g>
</g>
<!-- Node1&#45;&gt;Node3 -->
<g id="edge2" class="edge">
<title>Node1&#45;&gt;Node3</title>
<path fill="none" stroke="midnightblue" d="M123.01,-81C132.89,-81 143.21,-81 153.33,-81"/>
<polygon fill="midnightblue" stroke="midnightblue" points="153.36,-84.5 163.36,-81 153.36,-77.5 153.36,-84.5"/>
</g>
<!-- Node6 -->
<g id="node6" class="node">
<title>Node6</title>
<g id="a_node6"><a xlink:href="namespacesll__m__gauss__lobatto__integration.html#ab2dd3e9cafb094226c63f629745b0654" target="_top" xlink:title="Returns a 1d array of size (n) containing gauss&#45;lobatto weights in the interval [a,...">
<polygon fill="white" stroke="black" points="159,-0.5 159,-41.5 293,-41.5 293,-0.5 159,-0.5"/>
<text text-anchor="start" x="167" y="-29.5" font-family="Helvetica,sans-Serif" font-size="10.00">sll_m_gauss_lobatto</text>
<text text-anchor="start" x="167" y="-18.5" font-family="Helvetica,sans-Serif" font-size="10.00">_integration::sll_f</text>
<text text-anchor="middle" x="226" y="-7.5" font-family="Helvetica,sans-Serif" font-size="10.00">_gauss_lobatto_weights</text>
</a>
</g>
</g>
<!-- Node1&#45;&gt;Node6 -->
<g id="edge5" class="edge">
<title>Node1&#45;&gt;Node6</title>
<path fill="none" stroke="midnightblue" d="M88.25,-71.49C107.53,-64.37 134.8,-54.3 159.93,-45.03"/>
<polygon fill="midnightblue" stroke="midnightblue" points="161.26,-48.27 169.43,-41.52 158.84,-41.7 161.26,-48.27"/>
</g>
<!-- Node4 -->
<g id="node4" class="node">
<title>Node4</title>
<g id="a_node4"><a xlink:href="namespacesll__m__gauss__lobatto__integration.html#aef28cd44b846400f5133a0ee289babbc" target="_top" xlink:title="This comes from http://dl.acm.org, Algorithme 726 : ORTHPOL, appendices and supplements To use those ...">
<polygon fill="white" stroke="black" points="329,-36 329,-66 445,-66 445,-36 329,-36"/>
<text text-anchor="start" x="337" y="-54" font-family="Helvetica,sans-Serif" font-size="10.00">sll_m_gauss_lobatto</text>
<text text-anchor="middle" x="387" y="-43" font-family="Helvetica,sans-Serif" font-size="10.00">_integration::dlob</text>
</a>
</g>
</g>
<!-- Node3&#45;&gt;Node4 -->
<g id="edge3" class="edge">
<title>Node3&#45;&gt;Node4</title>
<path fill="none" stroke="midnightblue" d="M288.93,-69.32C298.8,-67.45 309.06,-65.52 319.04,-63.63"/>
<polygon fill="midnightblue" stroke="midnightblue" points="319.74,-67.06 328.91,-61.77 318.44,-60.19 319.74,-67.06"/>
</g>
<!-- Node5 -->
<g id="node5" class="node">
<title>Node5</title>
<g id="a_node5"><a xlink:href="namespacesll__m__gauss__lobatto__integration.html#a20a90d157ba32cd27c5d6f89eccf3735" target="_top" xlink:title="Given n and a measure dlambda, this routine generates the n&#45;point Gaussian quadrature formula.">
<polygon fill="white" stroke="black" points="481,-36 481,-66 597,-66 597,-36 481,-36"/>
<text text-anchor="start" x="489" y="-54" font-family="Helvetica,sans-Serif" font-size="10.00">sll_m_gauss_lobatto</text>
<text text-anchor="middle" x="539" y="-43" font-family="Helvetica,sans-Serif" font-size="10.00">_integration::dgauss</text>
</a>
</g>
</g>
<!-- Node4&#45;&gt;Node5 -->
<g id="edge4" class="edge">
<title>Node4&#45;&gt;Node5</title>
<path fill="none" stroke="midnightblue" d="M445.14,-51C453.38,-51 461.92,-51 470.34,-51"/>
<polygon fill="midnightblue" stroke="midnightblue" points="470.53,-54.5 480.53,-51 470.53,-47.5 470.53,-54.5"/>
</g>
<!-- Node6&#45;&gt;Node4 -->
<g id="edge6" class="edge">
<title>Node6&#45;&gt;Node4</title>
<path fill="none" stroke="midnightblue" d="M293.05,-33.46C301.57,-35.07 310.31,-36.72 318.85,-38.33"/>
<polygon fill="midnightblue" stroke="midnightblue" points="318.29,-41.79 328.76,-40.2 319.59,-34.91 318.29,-41.79"/>
</g>
</g>
</svg>
