<?xml version="1.0" encoding="UTF-8" standalone="no"?>
<!DOCTYPE svg PUBLIC "-//W3C//DTD SVG 1.1//EN"
 "http://www.w3.org/Graphics/SVG/1.1/DTD/svg11.dtd">
<!-- Generated by graphviz version 2.43.0 (0)
 -->
<!-- Title: interpolate_array Pages: 1 -->
<svg width="266pt" height="88pt"
 viewBox="0.00 0.00 266.00 88.00" xmlns="http://www.w3.org/2000/svg" xmlns:xlink="http://www.w3.org/1999/xlink">
<g id="graph0" class="graph" transform="scale(1 1) rotate(0) translate(4 84)">
<title>interpolate_array</title>
<polygon fill="white" stroke="transparent" points="-4,4 -4,-84 262,-84 262,4 -4,4"/>
<!-- Node1 -->
<g id="node1" class="node">
<title>Node1</title>
<g id="a_node1"><a xlink:title=" ">
<polygon fill="#bfbfbf" stroke="black" points="0,-30 0,-49 101,-49 101,-30 0,-30"/>
<text text-anchor="middle" x="50.5" y="-37" font-family="Helvetica,sans-Serif" font-size="10.00">interpolate_array</text>
</a>
</g>
</g>
<!-- Node2 -->
<g id="node2" class="node">
<title>Node2</title>
<g id="a_node2"><a xlink:href="namespacesll__m__quintic__splines.html#a08737a908192cfd5c28a4bc84bdbde0d" target="_top" xlink:title="Calculation of the parameters of an interpolating quintic splines.">
<polygon fill="white" stroke="black" points="137,-49.5 137,-79.5 258,-79.5 258,-49.5 137,-49.5"/>
<text text-anchor="start" x="145" y="-67.5" font-family="Helvetica,sans-Serif" font-size="10.00">sll_m_quintic_splines</text>
<text text-anchor="middle" x="197.5" y="-56.5" font-family="Helvetica,sans-Serif" font-size="10.00">::sll_s_inspl5</text>
</a>
</g>
</g>
<!-- Node1&#45;&gt;Node2 -->
<g id="edge1" class="edge">
<title>Node1&#45;&gt;Node2</title>
<path fill="none" stroke="midnightblue" d="M101.4,-48.1C109.59,-49.51 118.2,-51 126.76,-52.48"/>
<polygon fill="midnightblue" stroke="midnightblue" points="126.3,-55.95 136.75,-54.2 127.49,-49.05 126.3,-55.95"/>
</g>
<!-- Node3 -->
<g id="node3" class="node">
<title>Node3</title>
<g id="a_node3"><a xlink:href="namespacesll__m__quintic__splines.html#a8d8d24e20f35303910d640147f661bb5" target="_top" xlink:title="Calculation of the values of an interpolating quintic pline and of its first and second derivatives a...">
<polygon fill="white" stroke="black" points="137,-0.5 137,-30.5 258,-30.5 258,-0.5 137,-0.5"/>
<text text-anchor="start" x="145" y="-18.5" font-family="Helvetica,sans-Serif" font-size="10.00">sll_m_quintic_splines</text>
<text text-anchor="middle" x="197.5" y="-7.5" font-family="Helvetica,sans-Serif" font-size="10.00">::sll_s_splin5</text>
</a>
</g>
</g>
<!-- Node1&#45;&gt;Node3 -->
<g id="edge2" class="edge">
<title>Node1&#45;&gt;Node3</title>
<path fill="none" stroke="midnightblue" d="M101.4,-31.24C109.59,-29.89 118.2,-28.46 126.76,-27.04"/>
<polygon fill="midnightblue" stroke="midnightblue" points="127.46,-30.48 136.75,-25.39 126.32,-23.57 127.46,-30.48"/>
</g>
</g>
</svg>
