<?xml version="1.0" encoding="UTF-8" standalone="no"?>
<!DOCTYPE svg PUBLIC "-//W3C//DTD SVG 1.1//EN"
 "http://www.w3.org/Graphics/SVG/1.1/DTD/svg11.dtd">
<!-- Generated by graphviz version 2.38.0 (20140413.2041)
 -->
<!-- Title: initialize_particle_group_2d2v_lbf Pages: 1 -->
<svg width="258pt" height="50pt"
 viewBox="0.00 0.00 258.00 50.00" xmlns="http://www.w3.org/2000/svg" xmlns:xlink="http://www.w3.org/1999/xlink">
<g id="graph0" class="graph" transform="scale(1 1) rotate(0) translate(4 46)">
<title>initialize_particle_group_2d2v_lbf</title>
<polygon fill="white" stroke="none" points="-4,4 -4,-46 254,-46 254,4 -4,4"/>
<!-- Node1 -->
<g id="node1" class="node"><title>Node1</title>
<polygon fill="#bfbfbf" stroke="black" points="0,-6 0,-36 89,-36 89,-6 0,-6"/>
<text text-anchor="start" x="8" y="-24" font-family="Helvetica,sans-Serif" font-size="10.00">initialize_particle</text>
<text text-anchor="middle" x="44.5" y="-13" font-family="Helvetica,sans-Serif" font-size="10.00">_group_2d2v_lbf</text>
</g>
<!-- Node2 -->
<g id="node2" class="node"><title>Node2</title>
<g id="a_node2"><a xlink:href="namespacesll__m__cartesian__meshes.html#a6d8c6fe551144a10c586542ac8736426" target="_top" xlink:title="allocates the memory space for a new 4D cartesian mesh on the heap, ">
<polygon fill="white" stroke="black" points="125,-0.5 125,-41.5 250,-41.5 250,-0.5 125,-0.5"/>
<text text-anchor="start" x="133" y="-29.5" font-family="Helvetica,sans-Serif" font-size="10.00">sll_m_cartesian_meshes</text>
<text text-anchor="start" x="133" y="-18.5" font-family="Helvetica,sans-Serif" font-size="10.00">::sll_f_new_cartesian</text>
<text text-anchor="middle" x="187.5" y="-7.5" font-family="Helvetica,sans-Serif" font-size="10.00">_mesh_4d</text>
</a>
</g>
</g>
<!-- Node1&#45;&gt;Node2 -->
<g id="edge1" class="edge"><title>Node1&#45;&gt;Node2</title>
<path fill="none" stroke="midnightblue" d="M89.3404,-21C97.417,-21 106.041,-21 114.691,-21"/>
<polygon fill="midnightblue" stroke="midnightblue" points="114.827,-24.5001 124.827,-21 114.827,-17.5001 114.827,-24.5001"/>
</g>
</g>
</svg>
