<?xml version="1.0" encoding="UTF-8" standalone="no"?>
<!DOCTYPE svg PUBLIC "-//W3C//DTD SVG 1.1//EN"
 "http://www.w3.org/Graphics/SVG/1.1/DTD/svg11.dtd">
<!-- Generated by graphviz version 2.38.0 (20140413.2041)
 -->
<!-- Title: sll_f_cell_volume Pages: 1 -->
<svg width="286pt" height="50pt"
 viewBox="0.00 0.00 286.00 50.00" xmlns="http://www.w3.org/2000/svg" xmlns:xlink="http://www.w3.org/1999/xlink">
<g id="graph0" class="graph" transform="scale(1 1) rotate(0) translate(4 46)">
<title>sll_f_cell_volume</title>
<polygon fill="white" stroke="none" points="-4,4 -4,-46 282,-46 282,4 -4,4"/>
<!-- Node1 -->
<g id="node1" class="node"><title>Node1</title>
<polygon fill="#bfbfbf" stroke="black" points="0,-11.5 0,-30.5 92,-30.5 92,-11.5 0,-11.5"/>
<text text-anchor="middle" x="46" y="-18.5" font-family="Helvetica,sans-Serif" font-size="10.00">sll_f_cell_volume</text>
</g>
<!-- Node2 -->
<g id="node2" class="node"><title>Node2</title>
<g id="a_node2"><a xlink:href="namespacesll__m__gauss__legendre__integration.html#a0df63a9e8ee884c2d4a0d1f53602a949" target="_top" xlink:title="Returns a 2d array of size (2,npoints) containing gauss&#45;legendre points and weights in the interval [...">
<polygon fill="white" stroke="black" points="128,-0.5 128,-41.5 278,-41.5 278,-0.5 128,-0.5"/>
<text text-anchor="start" x="136" y="-29.5" font-family="Helvetica,sans-Serif" font-size="10.00">sll_m_gauss_legendre</text>
<text text-anchor="start" x="136" y="-18.5" font-family="Helvetica,sans-Serif" font-size="10.00">_integration::sll_f_gauss</text>
<text text-anchor="middle" x="203" y="-7.5" font-family="Helvetica,sans-Serif" font-size="10.00">_legendre_points_and_weights</text>
</a>
</g>
</g>
<!-- Node1&#45;&gt;Node2 -->
<g id="edge1" class="edge"><title>Node1&#45;&gt;Node2</title>
<path fill="none" stroke="midnightblue" d="M92.2491,-21C100.277,-21 108.867,-21 117.575,-21"/>
<polygon fill="midnightblue" stroke="midnightblue" points="117.824,-24.5001 127.824,-21 117.824,-17.5001 117.824,-24.5001"/>
</g>
</g>
</svg>
