<?xml version="1.0" encoding="UTF-8" standalone="no"?>
<!DOCTYPE svg PUBLIC "-//W3C//DTD SVG 1.1//EN"
 "http://www.w3.org/Graphics/SVG/1.1/DTD/svg11.dtd">
<!-- Generated by graphviz version 2.38.0 (20140413.2041)
 -->
<!-- Title: sll_s_matrix_product_compf Pages: 1 -->
<svg width="526pt" height="50pt"
 viewBox="0.00 0.00 526.00 50.00" xmlns="http://www.w3.org/2000/svg" xmlns:xlink="http://www.w3.org/1999/xlink">
<g id="graph0" class="graph" transform="scale(1 1) rotate(0) translate(4 46)">
<title>sll_s_matrix_product_compf</title>
<polygon fill="white" stroke="none" points="-4,4 -4,-46 522,-46 522,4 -4,4"/>
<!-- Node1 -->
<g id="node1" class="node"><title>Node1</title>
<polygon fill="#bfbfbf" stroke="black" points="0,-6 0,-36 107,-36 107,-6 0,-6"/>
<text text-anchor="start" x="8" y="-24" font-family="Helvetica,sans-Serif" font-size="10.00">sll_s_matrix_product</text>
<text text-anchor="middle" x="53.5" y="-13" font-family="Helvetica,sans-Serif" font-size="10.00">_compf</text>
</g>
<!-- Node2 -->
<g id="node2" class="node"><title>Node2</title>
<g id="a_node2"><a xlink:href="namespacesll__m__qn__2d__polar__precompute.html#ab0cbc4348ba57772dc87a85395ebed2c" target="_top" xlink:title="sll_m_qn_2d_polar_precompute\l::compute_double_gyroaverage_matrix">
<polygon fill="white" stroke="black" points="143,-6 143,-36 328,-36 328,-6 143,-6"/>
<text text-anchor="start" x="151" y="-24" font-family="Helvetica,sans-Serif" font-size="10.00">sll_m_qn_2d_polar_precompute</text>
<text text-anchor="middle" x="235.5" y="-13" font-family="Helvetica,sans-Serif" font-size="10.00">::compute_double_gyroaverage_matrix</text>
</a>
</g>
</g>
<!-- Node1&#45;&gt;Node2 -->
<g id="edge1" class="edge"><title>Node1&#45;&gt;Node2</title>
<path fill="none" stroke="midnightblue" d="M117.074,-21C125.456,-21 134.188,-21 142.94,-21"/>
<polygon fill="midnightblue" stroke="midnightblue" points="117.047,-17.5001 107.047,-21 117.047,-24.5001 117.047,-17.5001"/>
</g>
<!-- Node3 -->
<g id="node3" class="node"><title>Node3</title>
<g id="a_node3"><a xlink:href="namespacesll__m__qn__2d__polar__precompute.html#a41d1928c191efdcfecf8bbb3688e7cee" target="_top" xlink:title="sll_m_qn_2d_polar_precompute\l::sll_s_compute_qns_matrix\l_polar_splines">
<polygon fill="white" stroke="black" points="364,-0.5 364,-41.5 518,-41.5 518,-0.5 364,-0.5"/>
<text text-anchor="start" x="372" y="-29.5" font-family="Helvetica,sans-Serif" font-size="10.00">sll_m_qn_2d_polar_precompute</text>
<text text-anchor="start" x="372" y="-18.5" font-family="Helvetica,sans-Serif" font-size="10.00">::sll_s_compute_qns_matrix</text>
<text text-anchor="middle" x="441" y="-7.5" font-family="Helvetica,sans-Serif" font-size="10.00">_polar_splines</text>
</a>
</g>
</g>
<!-- Node2&#45;&gt;Node3 -->
<g id="edge2" class="edge"><title>Node2&#45;&gt;Node3</title>
<path fill="none" stroke="midnightblue" d="M338.218,-21C346.824,-21 355.431,-21 363.791,-21"/>
<polygon fill="midnightblue" stroke="midnightblue" points="338.13,-17.5001 328.13,-21 338.13,-24.5001 338.13,-17.5001"/>
</g>
</g>
</svg>
