<?xml version="1.0" encoding="UTF-8" standalone="no"?>
<!DOCTYPE svg PUBLIC "-//W3C//DTD SVG 1.1//EN"
 "http://www.w3.org/Graphics/SVG/1.1/DTD/svg11.dtd">
<!-- Generated by graphviz version 2.43.0 (0)
 -->
<!-- Title: write_particles_2d_xml Pages: 1 -->
<svg width="329pt" height="110pt"
 viewBox="0.00 0.00 329.00 110.00" xmlns="http://www.w3.org/2000/svg" xmlns:xlink="http://www.w3.org/1999/xlink">
<g id="graph0" class="graph" transform="scale(1 1) rotate(0) translate(4 106)">
<title>write_particles_2d_xml</title>
<polygon fill="white" stroke="transparent" points="-4,4 -4,-106 325,-106 325,4 -4,4"/>
<!-- Node1 -->
<g id="node1" class="node">
<title>Node1</title>
<g id="a_node1"><a xlink:title=" ">
<polygon fill="#bfbfbf" stroke="black" points="191,-41.5 191,-60.5 321,-60.5 321,-41.5 191,-41.5"/>
<text text-anchor="middle" x="256" y="-48.5" font-family="Helvetica,sans-Serif" font-size="10.00">write_particles_2d_xml</text>
</a>
</g>
</g>
<!-- Node2 -->
<g id="node2" class="node">
<title>Node2</title>
<g id="a_node2"><a xlink:href="interfacesll__m__pic__viewer_1_1sll__o__pic__viewer__write.html#a7045a90cf9401774f6c09e32c3a6bd5b" target="_top" xlink:title=" ">
<polygon fill="white" stroke="black" points="0,-60.5 0,-101.5 155,-101.5 155,-60.5 0,-60.5"/>
<text text-anchor="start" x="8" y="-89.5" font-family="Helvetica,sans-Serif" font-size="10.00">sll_m_pic_viewer::sll</text>
<text text-anchor="start" x="8" y="-78.5" font-family="Helvetica,sans-Serif" font-size="10.00">_o_pic_viewer_write::</text>
<text text-anchor="middle" x="77.5" y="-67.5" font-family="Helvetica,sans-Serif" font-size="10.00">write_2d_field_and_particles</text>
</a>
</g>
</g>
<!-- Node1&#45;&gt;Node2 -->
<g id="edge1" class="edge">
<title>Node1&#45;&gt;Node2</title>
<path fill="none" stroke="midnightblue" d="M188.77,-62.26C177.83,-64.12 166.4,-66.06 155.22,-67.96"/>
<polygon fill="midnightblue" stroke="midnightblue" points="189.4,-65.7 198.67,-60.57 188.22,-58.8 189.4,-65.7"/>
</g>
<!-- Node3 -->
<g id="node3" class="node">
<title>Node3</title>
<g id="a_node3"><a xlink:href="interfacesll__m__pic__viewer_1_1sll__o__pic__viewer__write.html#aa5af431c255d2811ed74052f44c3dddf" target="_top" xlink:title=" ">
<polygon fill="white" stroke="black" points="16.5,-0.5 16.5,-41.5 138.5,-41.5 138.5,-0.5 16.5,-0.5"/>
<text text-anchor="start" x="24.5" y="-29.5" font-family="Helvetica,sans-Serif" font-size="10.00">sll_m_pic_viewer::sll</text>
<text text-anchor="start" x="24.5" y="-18.5" font-family="Helvetica,sans-Serif" font-size="10.00">_o_pic_viewer_write::</text>
<text text-anchor="middle" x="77.5" y="-7.5" font-family="Helvetica,sans-Serif" font-size="10.00">write_2d_particles</text>
</a>
</g>
</g>
<!-- Node1&#45;&gt;Node3 -->
<g id="edge2" class="edge">
<title>Node1&#45;&gt;Node3</title>
<path fill="none" stroke="midnightblue" d="M188.6,-39.71C172.17,-36.92 154.67,-33.95 138.56,-31.21"/>
<polygon fill="midnightblue" stroke="midnightblue" points="188.22,-43.2 198.67,-41.43 189.4,-36.3 188.22,-43.2"/>
</g>
</g>
</svg>
