<?xml version="1.0" encoding="UTF-8" standalone="no"?>
<!DOCTYPE svg PUBLIC "-//W3C//DTD SVG 1.1//EN"
 "http://www.w3.org/Graphics/SVG/1.1/DTD/svg11.dtd">
<!-- Generated by graphviz version 2.38.0 (20140413.2041)
 -->
<!-- Title: initialize_poisson_1d_periodic_wrapper Pages: 1 -->
<svg width="246pt" height="39pt"
 viewBox="0.00 0.00 246.00 39.00" xmlns="http://www.w3.org/2000/svg" xmlns:xlink="http://www.w3.org/1999/xlink">
<g id="graph0" class="graph" transform="scale(1 1) rotate(0) translate(4 35)">
<title>initialize_poisson_1d_periodic_wrapper</title>
<polygon fill="white" stroke="none" points="-4,4 -4,-35 242,-35 242,4 -4,4"/>
<!-- Node1 -->
<g id="node1" class="node"><title>Node1</title>
<polygon fill="#bfbfbf" stroke="black" points="0,-0.5 0,-30.5 111,-30.5 111,-0.5 0,-0.5"/>
<text text-anchor="start" x="8" y="-18.5" font-family="Helvetica,sans-Serif" font-size="10.00">initialize_poisson</text>
<text text-anchor="middle" x="55.5" y="-7.5" font-family="Helvetica,sans-Serif" font-size="10.00">_1d_periodic_wrapper</text>
</g>
<!-- Node2 -->
<g id="node2" class="node"><title>Node2</title>
<g id="a_node2"><a xlink:href="namespacesll__m__poisson__1d__periodic.html#ab23c73d4907f7ab6e88e5085381c9e46" target="_top" xlink:title="sll_o_initialize the solver ">
<polygon fill="white" stroke="black" points="147,-0.5 147,-30.5 238,-30.5 238,-0.5 147,-0.5"/>
<text text-anchor="start" x="155" y="-18.5" font-family="Helvetica,sans-Serif" font-size="10.00">initialize_poisson</text>
<text text-anchor="middle" x="192.5" y="-7.5" font-family="Helvetica,sans-Serif" font-size="10.00">_1d_periodic</text>
</a>
</g>
</g>
<!-- Node1&#45;&gt;Node2 -->
<g id="edge1" class="edge"><title>Node1&#45;&gt;Node2</title>
<path fill="none" stroke="midnightblue" d="M111.021,-15.5C119.449,-15.5 128.157,-15.5 136.594,-15.5"/>
<polygon fill="midnightblue" stroke="midnightblue" points="136.713,-19.0001 146.713,-15.5 136.712,-12.0001 136.713,-19.0001"/>
</g>
</g>
</svg>
