<?xml version="1.0" encoding="UTF-8" standalone="no"?>
<!DOCTYPE svg PUBLIC "-//W3C//DTD SVG 1.1//EN"
 "http://www.w3.org/Graphics/SVG/1.1/DTD/svg11.dtd">
<!-- Generated by graphviz version 2.40.1 (20161225.0304)
 -->
<!-- Title: sll_f_new_cubic_spline_interpolator_1d Pages: 1 -->
<svg width="646pt" height="50pt"
 viewBox="0.00 0.00 646.00 50.00" xmlns="http://www.w3.org/2000/svg" xmlns:xlink="http://www.w3.org/1999/xlink">
<g id="graph0" class="graph" transform="scale(1 1) rotate(0) translate(4 46)">
<title>sll_f_new_cubic_spline_interpolator_1d</title>
<polygon fill="#ffffff" stroke="transparent" points="-4,4 -4,-46 642,-46 642,4 -4,4"/>
<!-- Node37 -->
<g id="node1" class="node">
<title>Node37</title>
<polygon fill="#bfbfbf" stroke="#000000" points="0,-6 0,-36 128,-36 128,-6 0,-6"/>
<text text-anchor="start" x="8" y="-24" font-family="Helvetica,sans-Serif" font-size="10.00" fill="#000000">sll_f_new_cubic_spline</text>
<text text-anchor="middle" x="64" y="-13" font-family="Helvetica,sans-Serif" font-size="10.00" fill="#000000">_interpolator_1d</text>
</g>
<!-- Node38 -->
<g id="node2" class="node">
<title>Node38</title>
<g id="a_node2"><a xlink:href="namespacesll__m__cubic__spline__interpolator__1d.html#ab4aeb5dca8bc5be6fb404ac5e1ae7365" target="_top" xlink:title="initialize cubic spline interpolator ">
<polygon fill="#ffffff" stroke="#000000" points="164,-11.5 164,-30.5 313,-30.5 313,-11.5 164,-11.5"/>
<text text-anchor="middle" x="238.5" y="-18.5" font-family="Helvetica,sans-Serif" font-size="10.00" fill="#000000">initialize_cs1d_interpolator</text>
</a>
</g>
</g>
<!-- Node37&#45;&gt;Node38 -->
<g id="edge1" class="edge">
<title>Node37&#45;&gt;Node38</title>
<path fill="none" stroke="#191970" d="M128.4816,-21C136.7855,-21 145.3854,-21 153.9505,-21"/>
<polygon fill="#191970" stroke="#191970" points="153.9694,-24.5001 163.9694,-21 153.9693,-17.5001 153.9694,-24.5001"/>
</g>
<!-- Node39 -->
<g id="node3" class="node">
<title>Node39</title>
<g id="a_node3"><a xlink:href="namespacesll__m__cubic__splines.html#a35f9f53695f916944ed2f72a49531560" target="_top" xlink:title="Returns a pointer to a heap&#45;allocated cubic spline object. ">
<polygon fill="#ffffff" stroke="#000000" points="349,-.5 349,-41.5 462,-41.5 462,-.5 349,-.5"/>
<text text-anchor="start" x="357" y="-29.5" font-family="Helvetica,sans-Serif" font-size="10.00" fill="#000000">sll_m_cubic_splines</text>
<text text-anchor="start" x="357" y="-18.5" font-family="Helvetica,sans-Serif" font-size="10.00" fill="#000000">::sll_s_cubic_spline</text>
<text text-anchor="middle" x="405.5" y="-7.5" font-family="Helvetica,sans-Serif" font-size="10.00" fill="#000000">_1d_init</text>
</a>
</g>
</g>
<!-- Node38&#45;&gt;Node39 -->
<g id="edge2" class="edge">
<title>Node38&#45;&gt;Node39</title>
<path fill="none" stroke="#191970" d="M313.2079,-21C321.7282,-21 330.372,-21 338.7791,-21"/>
<polygon fill="#191970" stroke="#191970" points="338.8923,-24.5001 348.8923,-21 338.8922,-17.5001 338.8923,-24.5001"/>
</g>
<!-- Node40 -->
<g id="node4" class="node">
<title>Node40</title>
<g id="a_node4"><a xlink:href="namespacesll__m__tridiagonal.html#a0eb4ec59f49ba01edaba9eca267d2a28" target="_top" xlink:title="Give the factorization of the matrix in argument. ">
<polygon fill="#ffffff" stroke="#000000" points="498,-6 498,-36 638,-36 638,-6 498,-6"/>
<text text-anchor="start" x="506" y="-24" font-family="Helvetica,sans-Serif" font-size="10.00" fill="#000000">sll_m_tridiagonal::</text>
<text text-anchor="middle" x="568" y="-13" font-family="Helvetica,sans-Serif" font-size="10.00" fill="#000000">sll_s_setup_cyclic_tridiag</text>
</a>
</g>
</g>
<!-- Node39&#45;&gt;Node40 -->
<g id="edge3" class="edge">
<title>Node39&#45;&gt;Node40</title>
<path fill="none" stroke="#191970" d="M462.3346,-21C470.5575,-21 479.1481,-21 487.7243,-21"/>
<polygon fill="#191970" stroke="#191970" points="487.7625,-24.5001 497.7625,-21 487.7624,-17.5001 487.7625,-24.5001"/>
</g>
</g>
</svg>
