<?xml version="1.0" encoding="UTF-8" standalone="no"?>
<!DOCTYPE svg PUBLIC "-//W3C//DTD SVG 1.1//EN"
 "http://www.w3.org/Graphics/SVG/1.1/DTD/svg11.dtd">
<!-- Generated by graphviz version 2.40.1 (20161225.0304)
 -->
<!-- Title: evaluate_int_prime_smoothened_single_spline_1d Pages: 1 -->
<svg width="356pt" height="39pt"
 viewBox="0.00 0.00 356.00 39.00" xmlns="http://www.w3.org/2000/svg" xmlns:xlink="http://www.w3.org/1999/xlink">
<g id="graph0" class="graph" transform="scale(1 1) rotate(0) translate(4 35)">
<title>evaluate_int_prime_smoothened_single_spline_1d</title>
<polygon fill="#ffffff" stroke="transparent" points="-4,4 -4,-35 352,-35 352,4 -4,4"/>
<!-- Node23 -->
<g id="node1" class="node">
<title>Node23</title>
<polygon fill="#bfbfbf" stroke="#000000" points="0,-.5 0,-30.5 169,-30.5 169,-.5 0,-.5"/>
<text text-anchor="start" x="8" y="-18.5" font-family="Helvetica,sans-Serif" font-size="10.00" fill="#000000">evaluate_int_prime</text>
<text text-anchor="middle" x="84.5" y="-7.5" font-family="Helvetica,sans-Serif" font-size="10.00" fill="#000000">_smoothened_single_spline_1d</text>
</g>
<!-- Node24 -->
<g id="node2" class="node">
<title>Node24</title>
<g id="a_node2"><a xlink:href="namespacesll__m__particle__mesh__coupling__spline__smooth__1d.html#a27dd0ac3664f7c64e7d270cefc54f3ef" target="_top" xlink:title="Add current for one particle and evaluate the field (according to iterative part in discrete gradient...">
<polygon fill="#ffffff" stroke="#000000" points="205,-.5 205,-30.5 348,-30.5 348,-.5 205,-.5"/>
<text text-anchor="start" x="213" y="-18.5" font-family="Helvetica,sans-Serif" font-size="10.00" fill="#000000">evaluate_int_smoothened</text>
<text text-anchor="middle" x="276.5" y="-7.5" font-family="Helvetica,sans-Serif" font-size="10.00" fill="#000000">_spline_1d</text>
</a>
</g>
</g>
<!-- Node23&#45;&gt;Node24 -->
<g id="edge1" class="edge">
<title>Node23&#45;&gt;Node24</title>
<path fill="none" stroke="#191970" d="M179.3132,-15.5C187.885,-15.5 196.4694,-15.5 204.793,-15.5"/>
<polygon fill="#191970" stroke="#191970" points="179.2729,-12.0001 169.2729,-15.5 179.2729,-19.0001 179.2729,-12.0001"/>
</g>
</g>
</svg>
