<?xml version="1.0" encoding="UTF-8" standalone="no"?>
<!DOCTYPE svg PUBLIC "-//W3C//DTD SVG 1.1//EN"
 "http://www.w3.org/Graphics/SVG/1.1/DTD/svg11.dtd">
<!-- Generated by graphviz version 2.40.1 (20161225.0304)
 -->
<!-- Title: sll_s_spline_fem_sparsity_mass3d_clamped Pages: 1 -->
<svg width="503pt" height="149pt"
 viewBox="0.00 0.00 503.00 148.50" xmlns="http://www.w3.org/2000/svg" xmlns:xlink="http://www.w3.org/1999/xlink">
<g id="graph0" class="graph" transform="scale(1 1) rotate(0) translate(4 144.5)">
<title>sll_s_spline_fem_sparsity_mass3d_clamped</title>
<polygon fill="#ffffff" stroke="transparent" points="-4,4 -4,-144.5 499,-144.5 499,4 -4,4"/>
<!-- Node228 -->
<g id="node1" class="node">
<title>Node228</title>
<polygon fill="#bfbfbf" stroke="#000000" points="0,-33 0,-63 142,-63 142,-33 0,-33"/>
<text text-anchor="start" x="8" y="-51" font-family="Helvetica,sans-Serif" font-size="10.00" fill="#000000">sll_s_spline_fem_sparsity</text>
<text text-anchor="middle" x="71" y="-40" font-family="Helvetica,sans-Serif" font-size="10.00" fill="#000000">_mass3d_clamped</text>
</g>
<!-- Node229 -->
<g id="node2" class="node">
<title>Node229</title>
<g id="a_node2"><a xlink:href="namespacesll__m__spline__fem__utilities__3d__clamped.html#a4fceedb527087eaedb3605232a9f1398" target="_top" xlink:title="Set up 3d clamped mass matrix for specific spline degrees and profile function. ">
<polygon fill="#ffffff" stroke="#000000" points="178,-53.5 178,-94.5 322,-94.5 322,-53.5 178,-53.5"/>
<text text-anchor="start" x="186" y="-82.5" font-family="Helvetica,sans-Serif" font-size="10.00" fill="#000000">sll_m_spline_fem_utilities</text>
<text text-anchor="start" x="186" y="-71.5" font-family="Helvetica,sans-Serif" font-size="10.00" fill="#000000">_3d_clamped::sll_s_spline</text>
<text text-anchor="middle" x="250" y="-60.5" font-family="Helvetica,sans-Serif" font-size="10.00" fill="#000000">_fem_mass3d_clamped</text>
</a>
</g>
</g>
<!-- Node228&#45;&gt;Node229 -->
<g id="edge1" class="edge">
<title>Node228&#45;&gt;Node229</title>
<path fill="none" stroke="#191970" d="M152.0551,-59.7734C160.6761,-61.0256 169.4026,-62.2931 177.9107,-63.5289"/>
<polygon fill="#191970" stroke="#191970" points="152.4019,-56.2871 142.0026,-58.3132 151.3957,-63.2144 152.4019,-56.2871"/>
</g>
<!-- Node232 -->
<g id="node5" class="node">
<title>Node232</title>
<g id="a_node5"><a xlink:href="namespacesll__m__maxwell__clamped__3d__trafo__parallel.html#ae0872c3bfa3cc2f7b7f3aaca4fd8838e" target="_top" xlink:title="sll_m_maxwell_clamped\l_3d_trafo_parallel::init\l_3d_trafo_parallel">
<polygon fill="#ffffff" stroke="#000000" points="358,-.5 358,-41.5 495,-41.5 495,-.5 358,-.5"/>
<text text-anchor="start" x="366" y="-29.5" font-family="Helvetica,sans-Serif" font-size="10.00" fill="#000000">sll_m_maxwell_clamped</text>
<text text-anchor="start" x="366" y="-18.5" font-family="Helvetica,sans-Serif" font-size="10.00" fill="#000000">_3d_trafo_parallel::init</text>
<text text-anchor="middle" x="426.5" y="-7.5" font-family="Helvetica,sans-Serif" font-size="10.00" fill="#000000">_3d_trafo_parallel</text>
</a>
</g>
</g>
<!-- Node228&#45;&gt;Node232 -->
<g id="edge5" class="edge">
<title>Node228&#45;&gt;Node232</title>
<path fill="none" stroke="#191970" d="M152.2505,-41.8291C214.4186,-37.1074 299.1857,-30.6694 357.9527,-26.2061"/>
<polygon fill="#191970" stroke="#191970" points="151.7925,-38.3537 142.0863,-42.601 152.3227,-45.3336 151.7925,-38.3537"/>
</g>
<!-- Node230 -->
<g id="node3" class="node">
<title>Node230</title>
<g id="a_node3"><a xlink:href="namespacesll__m__maxwell__clamped__3d__fem.html#afadba212d3f01a688b12c751068d1707" target="_top" xlink:title="Initialization. ">
<polygon fill="#ffffff" stroke="#000000" points="358,-110 358,-140 495,-140 495,-110 358,-110"/>
<text text-anchor="start" x="366" y="-128" font-family="Helvetica,sans-Serif" font-size="10.00" fill="#000000">sll_m_maxwell_clamped</text>
<text text-anchor="middle" x="426.5" y="-117" font-family="Helvetica,sans-Serif" font-size="10.00" fill="#000000">_3d_fem::init_3d_fem</text>
</a>
</g>
</g>
<!-- Node229&#45;&gt;Node230 -->
<g id="edge2" class="edge">
<title>Node229&#45;&gt;Node230</title>
<path fill="none" stroke="#191970" d="M330.7075,-97.3206C345.5293,-101.6034 360.6369,-105.9687 374.3416,-109.9287"/>
<polygon fill="#191970" stroke="#191970" points="331.605,-93.9368 321.0264,-94.5232 329.6617,-100.6617 331.605,-93.9368"/>
</g>
<!-- Node231 -->
<g id="node4" class="node">
<title>Node231</title>
<g id="a_node4"><a xlink:href="namespacesll__m__maxwell__clamped__3d__trafo.html#ab614fb88d34d5e55292639d8db6b0353" target="_top" xlink:title="Initialization. ">
<polygon fill="#ffffff" stroke="#000000" points="358,-61 358,-91 495,-91 495,-61 358,-61"/>
<text text-anchor="start" x="366" y="-79" font-family="Helvetica,sans-Serif" font-size="10.00" fill="#000000">sll_m_maxwell_clamped</text>
<text text-anchor="middle" x="426.5" y="-68" font-family="Helvetica,sans-Serif" font-size="10.00" fill="#000000">_3d_trafo::init_3d_trafo</text>
</a>
</g>
</g>
<!-- Node229&#45;&gt;Node231 -->
<g id="edge3" class="edge">
<title>Node229&#45;&gt;Node231</title>
<path fill="none" stroke="#191970" d="M332.0924,-74.9302C340.6997,-75.0278 349.3856,-75.1262 357.8203,-75.2218"/>
<polygon fill="#191970" stroke="#191970" points="332.0829,-71.43 322.0439,-74.8164 332.0035,-78.4295 332.0829,-71.43"/>
</g>
<!-- Node229&#45;&gt;Node232 -->
<g id="edge4" class="edge">
<title>Node229&#45;&gt;Node232</title>
<path fill="none" stroke="#191970" d="M328.3246,-50.4804C338.2322,-47.5054 348.3088,-44.4795 358.0464,-41.5555"/>
<polygon fill="#191970" stroke="#191970" points="327.063,-47.2048 318.4921,-53.433 329.0763,-53.9091 327.063,-47.2048"/>
</g>
</g>
</svg>
