<?xml version="1.0" encoding="UTF-8" standalone="no"?>
<!DOCTYPE svg PUBLIC "-//W3C//DTD SVG 1.1//EN"
 "http://www.w3.org/Graphics/SVG/1.1/DTD/svg11.dtd">
<!-- Generated by graphviz version 2.40.1 (20161225.0304)
 -->
<!-- Title: inner_product_2d_fem Pages: 1 -->
<svg width="514pt" height="39pt"
 viewBox="0.00 0.00 514.00 39.00" xmlns="http://www.w3.org/2000/svg" xmlns:xlink="http://www.w3.org/1999/xlink">
<g id="graph0" class="graph" transform="scale(1 1) rotate(0) translate(4 35)">
<title>inner_product_2d_fem</title>
<polygon fill="#ffffff" stroke="transparent" points="-4,4 -4,-35 510,-35 510,4 -4,4"/>
<!-- Node16 -->
<g id="node1" class="node">
<title>Node16</title>
<polygon fill="#bfbfbf" stroke="#000000" points="0,-6 0,-25 125,-25 125,-6 0,-6"/>
<text text-anchor="middle" x="62.5" y="-13" font-family="Helvetica,sans-Serif" font-size="10.00" fill="#000000">inner_product_2d_fem</text>
</g>
<!-- Node17 -->
<g id="node2" class="node">
<title>Node17</title>
<g id="a_node2"><a xlink:href="namespacesll__m__maxwell__2d__fem__fft.html#aa50fa038089df0d0bd86994241630dcb" target="_top" xlink:title="Multiply by the mass matrix. ">
<polygon fill="#ffffff" stroke="#000000" points="161,-6 161,-25 289,-25 289,-6 161,-6"/>
<text text-anchor="middle" x="225" y="-13" font-family="Helvetica,sans-Serif" font-size="10.00" fill="#000000">multiply_mass_2dkron</text>
</a>
</g>
</g>
<!-- Node16&#45;&gt;Node17 -->
<g id="edge1" class="edge">
<title>Node16&#45;&gt;Node17</title>
<path fill="none" stroke="#191970" d="M125.3267,-15.5C133.6446,-15.5 142.2343,-15.5 150.7219,-15.5"/>
<polygon fill="#191970" stroke="#191970" points="150.999,-19.0001 160.9989,-15.5 150.9989,-12.0001 150.999,-19.0001"/>
</g>
<!-- Node18 -->
<g id="node3" class="node">
<title>Node18</title>
<g id="a_node3"><a xlink:href="namespacesll__m__spline__fem__utilities.html#a528fc7241e39fd979bd521f0c2d7b350" target="_top" xlink:title="Multiply the vector invec with the spline FEM mass matrix with mass line mass. ">
<polygon fill="#ffffff" stroke="#000000" points="325,-.5 325,-30.5 506,-30.5 506,-.5 325,-.5"/>
<text text-anchor="start" x="333" y="-18.5" font-family="Helvetica,sans-Serif" font-size="10.00" fill="#000000">sll_m_spline_fem_utilities</text>
<text text-anchor="middle" x="415.5" y="-7.5" font-family="Helvetica,sans-Serif" font-size="10.00" fill="#000000">::sll_s_spline_fem_multiply_mass</text>
</a>
</g>
</g>
<!-- Node17&#45;&gt;Node18 -->
<g id="edge2" class="edge">
<title>Node17&#45;&gt;Node18</title>
<path fill="none" stroke="#191970" d="M289.229,-15.5C297.4585,-15.5 306.0348,-15.5 314.6724,-15.5"/>
<polygon fill="#191970" stroke="#191970" points="314.8234,-19.0001 324.8234,-15.5 314.8233,-12.0001 314.8234,-19.0001"/>
</g>
</g>
</svg>
