<?xml version="1.0" encoding="UTF-8" standalone="no"?>
<!DOCTYPE svg PUBLIC "-//W3C//DTD SVG 1.1//EN"
 "http://www.w3.org/Graphics/SVG/1.1/DTD/svg11.dtd">
<!-- Generated by graphviz version 2.40.1 (20161225.0304)
 -->
<!-- Title: lagr_11pt_coeff Pages: 1 -->
<svg width="638pt" height="88pt"
 viewBox="0.00 0.00 638.00 88.00" xmlns="http://www.w3.org/2000/svg" xmlns:xlink="http://www.w3.org/1999/xlink">
<g id="graph0" class="graph" transform="scale(1 1) rotate(0) translate(4 84)">
<title>lagr_11pt_coeff</title>
<polygon fill="#ffffff" stroke="transparent" points="-4,4 -4,-84 634,-84 634,4 -4,4"/>
<!-- Node5 -->
<g id="node1" class="node">
<title>Node5</title>
<polygon fill="#bfbfbf" stroke="#000000" points="0,-30 0,-49 92,-49 92,-30 0,-30"/>
<text text-anchor="middle" x="46" y="-37" font-family="Helvetica,sans-Serif" font-size="10.00" fill="#000000">lagr_11pt_coeff</text>
</g>
<!-- Node6 -->
<g id="node2" class="node">
<title>Node6</title>
<g id="a_node2"><a xlink:href="namespacesll__m__lagrange__interpolation__1d__fast.html#a090f74d0d135a66d590982ebf17bc758" target="_top" xlink:title="single point 11&#45;pt&#45;lagrange interpolation ">
<polygon fill="#ffffff" stroke="#000000" points="139.5,-52 139.5,-71 201.5,-71 201.5,-52 139.5,-52"/>
<text text-anchor="middle" x="170.5" y="-59" font-family="Helvetica,sans-Serif" font-size="10.00" fill="#000000">lagr_11pt</text>
</a>
</g>
</g>
<!-- Node5&#45;&gt;Node6 -->
<g id="edge1" class="edge">
<title>Node5&#45;&gt;Node6</title>
<path fill="none" stroke="#191970" d="M102.1579,-49.4235C114.9621,-51.6861 128.1135,-54.01 139.4171,-56.0074"/>
<polygon fill="#191970" stroke="#191970" points="102.462,-45.9231 92.0055,-47.6295 101.2439,-52.8163 102.462,-45.9231"/>
</g>
<!-- Node8 -->
<g id="node4" class="node">
<title>Node8</title>
<g id="a_node4"><a xlink:href="namespacesll__m__lagrange__interpolation__1d__fast.html#a495ded99eb18bfd5291e6d54937dcd5c" target="_top" xlink:title="vectorizable 11&#45;pt&#45;lagrange interpolation ">
<polygon fill="#ffffff" stroke="#000000" points="128,-11 128,-30 213,-30 213,-11 128,-11"/>
<text text-anchor="middle" x="170.5" y="-18" font-family="Helvetica,sans-Serif" font-size="10.00" fill="#000000">lagr_11pt_vec</text>
</a>
</g>
</g>
<!-- Node5&#45;&gt;Node8 -->
<g id="edge3" class="edge">
<title>Node5&#45;&gt;Node8</title>
<path fill="none" stroke="#191970" d="M102.0978,-30.9389C110.7934,-29.6118 119.6507,-28.2601 127.982,-26.9887"/>
<polygon fill="#191970" stroke="#191970" points="101.363,-27.5104 92.0055,-32.4791 102.4191,-34.4303 101.363,-27.5104"/>
</g>
<!-- Node7 -->
<g id="node3" class="node">
<title>Node7</title>
<g id="a_node3"><a xlink:href="namespacesll__m__lagrange__interpolation__1d__fast.html#ada2aaee72cea60e0d2beb19bb9e038c1" target="_top" xlink:title="Lagrange interpolation with halo cell boundaries, where the input array already contains halo cells...">
<polygon fill="#ffffff" stroke="#000000" points="258,-49.5 258,-79.5 412,-79.5 412,-49.5 258,-49.5"/>
<text text-anchor="start" x="266" y="-67.5" font-family="Helvetica,sans-Serif" font-size="10.00" fill="#000000">sll_s_lagrange_interpolation</text>
<text text-anchor="middle" x="335" y="-56.5" font-family="Helvetica,sans-Serif" font-size="10.00" fill="#000000">_1d_fast_haloc_cells</text>
</a>
</g>
</g>
<!-- Node6&#45;&gt;Node7 -->
<g id="edge2" class="edge">
<title>Node6&#45;&gt;Node7</title>
<path fill="none" stroke="#191970" d="M212.0244,-62.2573C225.938,-62.511 241.9313,-62.8027 257.6825,-63.09"/>
<polygon fill="#191970" stroke="#191970" points="211.8906,-58.7544 201.8284,-62.0713 211.7629,-65.7532 211.8906,-58.7544"/>
</g>
<!-- Node9 -->
<g id="node5" class="node">
<title>Node9</title>
<g id="a_node5"><a xlink:href="namespacesll__m__lagrange__interpolation__1d__fast.html#ac26fc43ee907fcd29791154948c16dd3" target="_top" xlink:title="Lagrange interpolation with halo cell boundaries, where the input array already contains halo cells...">
<polygon fill="#ffffff" stroke="#000000" points="249,-.5 249,-30.5 421,-30.5 421,-.5 249,-.5"/>
<text text-anchor="start" x="257" y="-18.5" font-family="Helvetica,sans-Serif" font-size="10.00" fill="#000000">sll_s_lagrange_interpolation</text>
<text text-anchor="middle" x="335" y="-7.5" font-family="Helvetica,sans-Serif" font-size="10.00" fill="#000000">_1d_fast_disp_fixed_haloc_cells</text>
</a>
</g>
</g>
<!-- Node8&#45;&gt;Node9 -->
<g id="edge4" class="edge">
<title>Node8&#45;&gt;Node9</title>
<path fill="none" stroke="#191970" d="M223.3356,-18.8941C231.4751,-18.6467 240.0573,-18.3858 248.6993,-18.1231"/>
<polygon fill="#191970" stroke="#191970" points="223.18,-15.3971 213.291,-19.1994 223.3928,-22.3938 223.18,-15.3971"/>
</g>
<!-- Node10 -->
<g id="node6" class="node">
<title>Node10</title>
<g id="a_node6"><a xlink:href="namespacesll__m__lagrange__interpolator__1d.html#a666c93a77c57376c29a70b853ab02e44" target="_top" xlink:title="sll_m_lagrange_interpolator\l_1d::interpolate_array_disp_li1d">
<polygon fill="#ffffff" stroke="#000000" points="457,-.5 457,-30.5 630,-30.5 630,-.5 457,-.5"/>
<text text-anchor="start" x="465" y="-18.5" font-family="Helvetica,sans-Serif" font-size="10.00" fill="#000000">sll_m_lagrange_interpolator</text>
<text text-anchor="middle" x="543.5" y="-7.5" font-family="Helvetica,sans-Serif" font-size="10.00" fill="#000000">_1d::interpolate_array_disp_li1d</text>
</a>
</g>
</g>
<!-- Node9&#45;&gt;Node10 -->
<g id="edge5" class="edge">
<title>Node9&#45;&gt;Node10</title>
<path fill="none" stroke="#191970" d="M431.0089,-15.5C439.5686,-15.5 448.2028,-15.5 456.6789,-15.5"/>
<polygon fill="#191970" stroke="#191970" points="431.0087,-12.0001 421.0087,-15.5 431.0087,-19.0001 431.0087,-12.0001"/>
</g>
</g>
</svg>
