<?xml version="1.0" encoding="UTF-8" standalone="no"?>
<!DOCTYPE svg PUBLIC "-//W3C//DTD SVG 1.1//EN"
 "http://www.w3.org/Graphics/SVG/1.1/DTD/svg11.dtd">
<!-- Generated by graphviz version 2.40.1 (20161225.0304)
 -->
<!-- Title: convert_index_2d_to_1d Pages: 1 -->
<svg width="322pt" height="307pt"
 viewBox="0.00 0.00 322.00 307.00" xmlns="http://www.w3.org/2000/svg" xmlns:xlink="http://www.w3.org/1999/xlink">
<g id="graph0" class="graph" transform="scale(1 1) rotate(0) translate(4 303)">
<title>convert_index_2d_to_1d</title>
<polygon fill="#ffffff" stroke="transparent" points="-4,4 -4,-303 318,-303 318,4 -4,4"/>
<!-- Node26 -->
<g id="node1" class="node">
<title>Node26</title>
<polygon fill="#bfbfbf" stroke="#000000" points="0,-148 0,-167 135,-167 135,-148 0,-148"/>
<text text-anchor="middle" x="67.5" y="-155" font-family="Helvetica,sans-Serif" font-size="10.00" fill="#000000">convert_index_2d_to_1d</text>
</g>
<!-- Node27 -->
<g id="node2" class="node">
<title>Node27</title>
<g id="a_node2"><a xlink:href="namespacesll__m__particle__mesh__coupling__spline__2d__feec.html#a0794179127e7ac51d740578a7e254342" target="_top" xlink:title="Destructor. ">
<polygon fill="#ffffff" stroke="#000000" points="171.5,-268.5 171.5,-298.5 313.5,-298.5 313.5,-268.5 171.5,-268.5"/>
<text text-anchor="start" x="179.5" y="-286.5" font-family="Helvetica,sans-Serif" font-size="10.00" fill="#000000">add_charge_single_spline</text>
<text text-anchor="middle" x="242.5" y="-275.5" font-family="Helvetica,sans-Serif" font-size="10.00" fill="#000000">_2d_feec</text>
</a>
</g>
</g>
<!-- Node26&#45;&gt;Node27 -->
<g id="edge1" class="edge">
<title>Node26&#45;&gt;Node27</title>
<path fill="none" stroke="#191970" d="M81.0694,-175.1513C99.2595,-197.6948 133.6175,-236.5305 171,-259.5 176.4665,-262.8589 182.4599,-265.8112 188.5781,-268.3896"/>
<polygon fill="#191970" stroke="#191970" points="83.659,-172.7833 74.7109,-167.1102 78.1682,-177.1251 83.659,-172.7833"/>
</g>
<!-- Node28 -->
<g id="node3" class="node">
<title>Node28</title>
<g id="a_node3"><a xlink:href="namespacesll__m__particle__mesh__coupling__spline__2d__feec.html#add69346cb9569aa5806a247b254b4f91" target="_top" xlink:title="Add charge of one particle. ">
<polygon fill="#ffffff" stroke="#000000" points="171,-219.5 171,-249.5 314,-249.5 314,-219.5 171,-219.5"/>
<text text-anchor="start" x="179" y="-237.5" font-family="Helvetica,sans-Serif" font-size="10.00" fill="#000000">add_particle_mass_spline</text>
<text text-anchor="middle" x="242.5" y="-226.5" font-family="Helvetica,sans-Serif" font-size="10.00" fill="#000000">_2d_feec</text>
</a>
</g>
</g>
<!-- Node26&#45;&gt;Node28 -->
<g id="edge2" class="edge">
<title>Node26&#45;&gt;Node28</title>
<path fill="none" stroke="#191970" d="M93.1253,-171.9825C113.7652,-183.3127 143.7329,-199.0181 171,-210.5 178.4819,-213.6506 186.5336,-216.6828 194.4402,-219.4692"/>
<polygon fill="#191970" stroke="#191970" points="94.785,-168.9008 84.3416,-167.1155 91.3923,-175.0237 94.785,-168.9008"/>
</g>
<!-- Node29 -->
<g id="node4" class="node">
<title>Node29</title>
<g id="a_node4"><a xlink:href="namespacesll__m__particle__mesh__coupling__spline__2d__feec.html#a16dfc602f3b18581ee980f5947096ce8" target="_top" xlink:title="Add current for one particle. ">
<polygon fill="#ffffff" stroke="#000000" points="188,-170.5 188,-200.5 297,-200.5 297,-170.5 188,-170.5"/>
<text text-anchor="start" x="196" y="-188.5" font-family="Helvetica,sans-Serif" font-size="10.00" fill="#000000">add_current_spline</text>
<text text-anchor="middle" x="242.5" y="-177.5" font-family="Helvetica,sans-Serif" font-size="10.00" fill="#000000">_2d_feec</text>
</a>
</g>
</g>
<!-- Node26&#45;&gt;Node29 -->
<g id="edge3" class="edge">
<title>Node26&#45;&gt;Node29</title>
<path fill="none" stroke="#191970" d="M137.5053,-168.7009C154.2204,-171.3753 171.8236,-174.1918 187.7383,-176.7381"/>
<polygon fill="#191970" stroke="#191970" points="137.663,-165.1816 127.2356,-167.0577 136.557,-172.0937 137.663,-165.1816"/>
</g>
<!-- Node30 -->
<g id="node5" class="node">
<title>Node30</title>
<g id="a_node5"><a xlink:href="namespacesll__m__particle__mesh__coupling__spline__2d__feec.html#a68f1753a024244e80779dea373d4e03e" target="_top" xlink:title="Add current for one particle and update v (according to H_p1 part in Hamiltonian splitting) ...">
<polygon fill="#ffffff" stroke="#000000" points="171,-110 171,-151 314,-151 314,-110 171,-110"/>
<text text-anchor="start" x="179" y="-139" font-family="Helvetica,sans-Serif" font-size="10.00" fill="#000000">add_current_update</text>
<text text-anchor="start" x="179" y="-128" font-family="Helvetica,sans-Serif" font-size="10.00" fill="#000000">_v_primitive_component1</text>
<text text-anchor="middle" x="242.5" y="-117" font-family="Helvetica,sans-Serif" font-size="10.00" fill="#000000">_spline_2d_feec</text>
</a>
</g>
</g>
<!-- Node26&#45;&gt;Node30 -->
<g id="edge4" class="edge">
<title>Node26&#45;&gt;Node30</title>
<path fill="none" stroke="#191970" d="M139.131,-146.4484C149.6127,-144.8312 160.4086,-143.1655 170.8899,-141.5484"/>
<polygon fill="#191970" stroke="#191970" points="138.5478,-142.9968 129.1985,-147.9808 139.6152,-149.915 138.5478,-142.9968"/>
</g>
<!-- Node31 -->
<g id="node6" class="node">
<title>Node31</title>
<g id="a_node6"><a xlink:href="namespacesll__m__particle__mesh__coupling__spline__2d__feec.html#a5406f8d57e7c4b51adcf7601f4fd4b59" target="_top" xlink:title="add_current_update\l_v_primitive_component2\l_spline_2d_feec">
<polygon fill="#ffffff" stroke="#000000" points="171,-50 171,-91 314,-91 314,-50 171,-50"/>
<text text-anchor="start" x="179" y="-79" font-family="Helvetica,sans-Serif" font-size="10.00" fill="#000000">add_current_update</text>
<text text-anchor="start" x="179" y="-68" font-family="Helvetica,sans-Serif" font-size="10.00" fill="#000000">_v_primitive_component2</text>
<text text-anchor="middle" x="242.5" y="-57" font-family="Helvetica,sans-Serif" font-size="10.00" fill="#000000">_spline_2d_feec</text>
</a>
</g>
</g>
<!-- Node26&#45;&gt;Node31 -->
<g id="edge5" class="edge">
<title>Node26&#45;&gt;Node31</title>
<path fill="none" stroke="#191970" d="M92.5044,-142.7513C113.2266,-130.7673 143.6135,-113.7405 171,-100.5 177.5445,-97.3359 184.5094,-94.1719 191.4262,-91.1486"/>
<polygon fill="#191970" stroke="#191970" points="90.5908,-139.8153 83.709,-147.8708 94.1122,-145.8651 90.5908,-139.8153"/>
</g>
<!-- Node32 -->
<g id="node7" class="node">
<title>Node32</title>
<g id="a_node7"><a xlink:href="namespacesll__m__particle__mesh__coupling__spline__2d__feec.html#afbd2a9064b7e3530a3571f8c347e9314" target="_top" xlink:title="Evaluate field at at position position. ">
<polygon fill="#ffffff" stroke="#000000" points="182.5,-.5 182.5,-30.5 302.5,-30.5 302.5,-.5 182.5,-.5"/>
<text text-anchor="start" x="190.5" y="-18.5" font-family="Helvetica,sans-Serif" font-size="10.00" fill="#000000">evaluate_field_single</text>
<text text-anchor="middle" x="242.5" y="-7.5" font-family="Helvetica,sans-Serif" font-size="10.00" fill="#000000">_spline_2d_feec</text>
</a>
</g>
</g>
<!-- Node26&#45;&gt;Node32 -->
<g id="edge6" class="edge">
<title>Node26&#45;&gt;Node32</title>
<path fill="none" stroke="#191970" d="M79.0163,-139.4655C96.1504,-113.9925 130.6985,-67.5691 171,-40.5 176.6765,-36.6873 182.997,-33.392 189.4656,-30.5613"/>
<polygon fill="#191970" stroke="#191970" points="76.0868,-137.5503 73.5132,-147.8278 81.9342,-141.3984 76.0868,-137.5503"/>
</g>
</g>
</svg>
