<?xml version="1.0" encoding="UTF-8" standalone="no"?>
<!DOCTYPE svg PUBLIC "-//W3C//DTD SVG 1.1//EN"
 "http://www.w3.org/Graphics/SVG/1.1/DTD/svg11.dtd">
<!-- Generated by graphviz version 2.43.0 (0)
 -->
<!-- Title: lagr_11pt_coeff Pages: 1 -->
<svg width="637pt" height="88pt"
 viewBox="0.00 0.00 637.00 88.00" xmlns="http://www.w3.org/2000/svg" xmlns:xlink="http://www.w3.org/1999/xlink">
<g id="graph0" class="graph" transform="scale(1 1) rotate(0) translate(4 84)">
<title>lagr_11pt_coeff</title>
<polygon fill="white" stroke="transparent" points="-4,4 -4,-84 633,-84 633,4 -4,4"/>
<!-- Node1 -->
<g id="node1" class="node">
<title>Node1</title>
<g id="a_node1"><a xlink:title="Compute coefficients for Lagrange interpolation for normalized displacement p.">
<polygon fill="#bfbfbf" stroke="black" points="537,-30 537,-49 629,-49 629,-30 537,-30"/>
<text text-anchor="middle" x="583" y="-37" font-family="Helvetica,sans-Serif" font-size="10.00">lagr_11pt_coeff</text>
</a>
</g>
</g>
<!-- Node2 -->
<g id="node2" class="node">
<title>Node2</title>
<g id="a_node2"><a xlink:href="namespacesll__m__lagrange__interpolation__1d__fast.html#a090f74d0d135a66d590982ebf17bc758" target="_top" xlink:title="single point 11&#45;pt&#45;lagrange interpolation">
<polygon fill="white" stroke="black" points="427.5,-52 427.5,-71 489.5,-71 489.5,-52 427.5,-52"/>
<text text-anchor="middle" x="458.5" y="-59" font-family="Helvetica,sans-Serif" font-size="10.00">lagr_11pt</text>
</a>
</g>
</g>
<!-- Node1&#45;&gt;Node2 -->
<g id="edge1" class="edge">
<title>Node1&#45;&gt;Node2</title>
<path fill="none" stroke="midnightblue" d="M526.66,-49.44C513.94,-51.72 500.89,-54.07 489.71,-56.07"/>
<polygon fill="midnightblue" stroke="midnightblue" points="527.51,-52.84 536.73,-47.63 526.27,-45.95 527.51,-52.84"/>
</g>
<!-- Node4 -->
<g id="node4" class="node">
<title>Node4</title>
<g id="a_node4"><a xlink:href="namespacesll__m__lagrange__interpolation__1d__fast.html#a495ded99eb18bfd5291e6d54937dcd5c" target="_top" xlink:title="vectorizable 11&#45;pt&#45;lagrange interpolation">
<polygon fill="white" stroke="black" points="416,-11 416,-30 501,-30 501,-11 416,-11"/>
<text text-anchor="middle" x="458.5" y="-18" font-family="Helvetica,sans-Serif" font-size="10.00">lagr_11pt_vec</text>
</a>
</g>
</g>
<!-- Node1&#45;&gt;Node4 -->
<g id="edge3" class="edge">
<title>Node1&#45;&gt;Node4</title>
<path fill="none" stroke="midnightblue" d="M526.8,-30.94C518.25,-29.61 509.53,-28.26 501.33,-26.99"/>
<polygon fill="midnightblue" stroke="midnightblue" points="526.32,-34.4 536.73,-32.48 527.39,-27.49 526.32,-34.4"/>
</g>
<!-- Node3 -->
<g id="node3" class="node">
<title>Node3</title>
<g id="a_node3"><a xlink:href="namespacesll__m__lagrange__interpolation__1d__fast.html#ada2aaee72cea60e0d2beb19bb9e038c1" target="_top" xlink:title="Lagrange interpolation with halo cell boundaries, where the input array already contains halo cells....">
<polygon fill="white" stroke="black" points="217.5,-49.5 217.5,-79.5 371.5,-79.5 371.5,-49.5 217.5,-49.5"/>
<text text-anchor="start" x="225.5" y="-67.5" font-family="Helvetica,sans-Serif" font-size="10.00">sll_s_lagrange_interpolation</text>
<text text-anchor="middle" x="294.5" y="-56.5" font-family="Helvetica,sans-Serif" font-size="10.00">_1d_fast_haloc_cells</text>
</a>
</g>
</g>
<!-- Node2&#45;&gt;Node3 -->
<g id="edge2" class="edge">
<title>Node2&#45;&gt;Node3</title>
<path fill="none" stroke="midnightblue" d="M417.26,-62.25C403.39,-62.5 387.36,-62.8 371.59,-63.09"/>
<polygon fill="midnightblue" stroke="midnightblue" points="417.48,-65.74 427.41,-62.06 417.35,-58.74 417.48,-65.74"/>
</g>
<!-- Node5 -->
<g id="node5" class="node">
<title>Node5</title>
<g id="a_node5"><a xlink:href="namespacesll__m__lagrange__interpolation__1d__fast.html#ac26fc43ee907fcd29791154948c16dd3" target="_top" xlink:title="Lagrange interpolation with halo cell boundaries, where the input array already contains halo cells....">
<polygon fill="white" stroke="black" points="209,-0.5 209,-30.5 380,-30.5 380,-0.5 209,-0.5"/>
<text text-anchor="start" x="217" y="-18.5" font-family="Helvetica,sans-Serif" font-size="10.00">sll_s_lagrange_interpolation</text>
<text text-anchor="middle" x="294.5" y="-7.5" font-family="Helvetica,sans-Serif" font-size="10.00">_1d_fast_disp_fixed_haloc_cells</text>
</a>
</g>
</g>
<!-- Node4&#45;&gt;Node5 -->
<g id="edge4" class="edge">
<title>Node4&#45;&gt;Node5</title>
<path fill="none" stroke="midnightblue" d="M405.71,-18.9C397.54,-18.65 388.91,-18.38 380.22,-18.11"/>
<polygon fill="midnightblue" stroke="midnightblue" points="405.68,-22.4 415.78,-19.21 405.89,-15.41 405.68,-22.4"/>
</g>
<!-- Node6 -->
<g id="node6" class="node">
<title>Node6</title>
<g id="a_node6"><a xlink:href="namespacesll__m__lagrange__interpolator__1d.html#a666c93a77c57376c29a70b853ab02e44" target="_top" xlink:title=" ">
<polygon fill="white" stroke="black" points="0,-0.5 0,-30.5 173,-30.5 173,-0.5 0,-0.5"/>
<text text-anchor="start" x="8" y="-18.5" font-family="Helvetica,sans-Serif" font-size="10.00">sll_m_lagrange_interpolator</text>
<text text-anchor="middle" x="86.5" y="-7.5" font-family="Helvetica,sans-Serif" font-size="10.00">_1d::interpolate_array_disp_li1d</text>
</a>
</g>
</g>
<!-- Node5&#45;&gt;Node6 -->
<g id="edge5" class="edge">
<title>Node5&#45;&gt;Node6</title>
<path fill="none" stroke="midnightblue" d="M198.55,-15.5C190.09,-15.5 181.56,-15.5 173.18,-15.5"/>
<polygon fill="midnightblue" stroke="midnightblue" points="198.82,-19 208.82,-15.5 198.82,-12 198.82,-19"/>
</g>
</g>
</svg>
