<?xml version="1.0" encoding="UTF-8" standalone="no"?>
<!DOCTYPE svg PUBLIC "-//W3C//DTD SVG 1.1//EN"
 "http://www.w3.org/Graphics/SVG/1.1/DTD/svg11.dtd">
<!-- Generated by graphviz version 2.38.0 (20140413.2041)
 -->
<!-- Title: compute_global_splines_indices Pages: 1 -->
<!--zoomable 195 -->
<svg id="main" version="1.1" xmlns="http://www.w3.org/2000/svg" xmlns:xlink="http://www.w3.org/1999/xlink" xml:space="preserve" onload="init(evt)">
<style type="text/css"><![CDATA[
.edge:hover path { stroke: red; }
.edge:hover polygon { stroke: red; fill: red; }
]]></style>
<script type="text/javascript"><![CDATA[
var edges = document.getElementsByTagName('g');
if (edges && edges.length) {
  for (var i=0;i<edges.length;i++) {
    if (edges[i].id.substr(0,4)=='edge') {
      edges[i].setAttribute('class','edge');
    }
  }
}
]]></script>
        <defs>
                <circle id="rim" cx="0" cy="0" r="7"/>
                <circle id="rim2" cx="0" cy="0" r="3.5"/>
                <g id="zoomPlus">
                        <use xlink:href="#rim" fill="#404040">
                                <set attributeName="fill" to="#808080" begin="zoomplus.mouseover" end="zoomplus.mouseout"/>
                        </use>
                        <path d="M-4,0h8M0,-4v8" fill="none" stroke="white" stroke-width="1.5" pointer-events="none"/>
                </g>
                <g id="zoomMin">
                        <use xlink:href="#rim" fill="#404040">
                                <set attributeName="fill" to="#808080" begin="zoomminus.mouseover" end="zoomminus.mouseout"/>
                        </use>
                        <path d="M-4,0h8" fill="none" stroke="white" stroke-width="1.5" pointer-events="none"/>
                </g>
                <g id="dirArrow">
                        <path fill="none" stroke="white" stroke-width="1.5" d="M0,-3.0v7 M-2.5,-0.5L0,-3.0L2.5,-0.5"/>
                </g>
               <g id="resetDef">
                       <use xlink:href="#rim2" fill="#404040">
                               <set attributeName="fill" to="#808080" begin="reset.mouseover" end="reset.mouseout"/>
                       </use>
               </g>
        </defs>

<script type="text/javascript">
var viewWidth = 909;
var viewHeight = 195;
var sectionId = 'dynsection-7';
</script>
<script xlink:href="svgpan.js"/>
<svg id="graph" class="graph">
<g id="viewport">
<title>compute_global_splines_indices</title>
<polygon fill="white" stroke="none" points="-4,4 -4,-190.5 905,-190.5 905,4 -4,4"/>
<!-- Node1 -->
<g id="node1" class="node"><title>Node1</title>
<polygon fill="#bfbfbf" stroke="black" points="0,-102 0,-132 121,-132 121,-102 0,-102"/>
<text text-anchor="start" x="8" y="-120" font-family="Helvetica,sans-Serif" font-size="10.00">compute_global_splines</text>
<text text-anchor="middle" x="60.5" y="-109" font-family="Helvetica,sans-Serif" font-size="10.00">_indices</text>
</g>
<!-- Node2 -->
<g id="node2" class="node"><title>Node2</title>
<g id="a_node2"><a xlink:href="namespacesll__m__general__coordinate__elliptic__solver.html#aa97e7df003acbee3a05797610354c09d" target="_top" xlink:title="compute_b_spline_and\l_deriv_at_x">
<polygon fill="white" stroke="black" points="157,-102 157,-132 273,-132 273,-102 157,-102"/>
<text text-anchor="start" x="165" y="-120" font-family="Helvetica,sans-Serif" font-size="10.00">compute_b_spline_and</text>
<text text-anchor="middle" x="215" y="-109" font-family="Helvetica,sans-Serif" font-size="10.00">_deriv_at_x</text>
</a>
</g>
</g>
<!-- Node1&#45;&gt;Node2 -->
<g id="edge1" class="edge"><title>Node1&#45;&gt;Node2</title>
<path fill="none" stroke="midnightblue" d="M121.334,-117C129.64,-117 138.218,-117 146.649,-117"/>
<polygon fill="midnightblue" stroke="midnightblue" points="146.832,-120.5 156.832,-117 146.832,-113.5 146.832,-120.5"/>
</g>
<!-- Node3 -->
<g id="node3" class="node"><title>Node3</title>
<g id="a_node3"><a xlink:href="namespacesll__m__general__coordinate__elliptic__solver.html#a28d7b2c5dc102d89fd10040982029e00" target="_top" xlink:title="compute_local_to_global\l_splines_indices">
<polygon fill="white" stroke="black" points="322,-156 322,-186 446,-186 446,-156 322,-156"/>
<text text-anchor="start" x="330" y="-174" font-family="Helvetica,sans-Serif" font-size="10.00">compute_local_to_global</text>
<text text-anchor="middle" x="384" y="-163" font-family="Helvetica,sans-Serif" font-size="10.00">_splines_indices</text>
</a>
</g>
</g>
<!-- Node2&#45;&gt;Node3 -->
<g id="edge2" class="edge"><title>Node2&#45;&gt;Node3</title>
<path fill="none" stroke="midnightblue" d="M262.519,-132.042C282.431,-138.481 305.86,-146.057 326.738,-152.808"/>
<polygon fill="midnightblue" stroke="midnightblue" points="325.85,-156.199 336.441,-155.945 328.003,-149.538 325.85,-156.199"/>
</g>
<!-- Node4 -->
<g id="node4" class="node"><title>Node4</title>
<g id="a_node4"><a xlink:href="namespacesll__m__gauss__legendre__integration.html#a0df63a9e8ee884c2d4a0d1f53602a949" target="_top" xlink:title="Returns a 2d array of size (2,npoints) containing gauss&#45;legendre points and weights in the interval [...">
<polygon fill="white" stroke="black" points="309,-96.5 309,-137.5 459,-137.5 459,-96.5 309,-96.5"/>
<text text-anchor="start" x="317" y="-125.5" font-family="Helvetica,sans-Serif" font-size="10.00">sll_m_gauss_legendre</text>
<text text-anchor="start" x="317" y="-114.5" font-family="Helvetica,sans-Serif" font-size="10.00">_integration::sll_f_gauss</text>
<text text-anchor="middle" x="384" y="-103.5" font-family="Helvetica,sans-Serif" font-size="10.00">_legendre_points_and_weights</text>
</a>
</g>
</g>
<!-- Node2&#45;&gt;Node4 -->
<g id="edge3" class="edge"><title>Node2&#45;&gt;Node4</title>
<path fill="none" stroke="midnightblue" d="M273.005,-117C281.29,-117 289.964,-117 298.65,-117"/>
<polygon fill="midnightblue" stroke="midnightblue" points="298.83,-120.5 308.83,-117 298.83,-113.5 298.83,-120.5"/>
</g>
<!-- Node5 -->
<g id="node5" class="node"><title>Node5</title>
<g id="a_node5"><a xlink:href="namespacesll__m__gauss__lobatto__integration.html#abde325bec9e6c51c78f56ecc3bb075d5" target="_top" xlink:title="Returns a 2d array of size (2,n) containing gauss&#45;lobatto points and weights in the interval [a...">
<polygon fill="white" stroke="black" points="327,-25 327,-77 441,-77 441,-25 327,-25"/>
<text text-anchor="start" x="335" y="-65" font-family="Helvetica,sans-Serif" font-size="10.00">sll_m_gauss_lobatto</text>
<text text-anchor="start" x="335" y="-54" font-family="Helvetica,sans-Serif" font-size="10.00">_integration::sll_f</text>
<text text-anchor="start" x="335" y="-43" font-family="Helvetica,sans-Serif" font-size="10.00">_gauss_lobatto_points</text>
<text text-anchor="middle" x="384" y="-32" font-family="Helvetica,sans-Serif" font-size="10.00">_and_weights</text>
</a>
</g>
</g>
<!-- Node2&#45;&gt;Node5 -->
<g id="edge4" class="edge"><title>Node2&#45;&gt;Node5</title>
<path fill="none" stroke="midnightblue" d="M254.313,-101.858C273.019,-94.4654 296.055,-85.3615 317.442,-76.909"/>
<polygon fill="midnightblue" stroke="midnightblue" points="318.796,-80.1375 326.81,-73.207 316.223,-73.6275 318.796,-80.1375"/>
</g>
<!-- Node6 -->
<g id="node6" class="node"><title>Node6</title>
<g id="a_node6"><a xlink:href="namespacesll__m__gauss__lobatto__integration.html#a43443dd7dd80f1289d964b572cd6ee2c" target="_top" xlink:title="Returns a 1d array of size (n) containing gauss&#45;lobatto points in the interval [a,b]. ">
<polygon fill="white" stroke="black" points="499,-60.5 499,-101.5 613,-101.5 613,-60.5 499,-60.5"/>
<text text-anchor="start" x="507" y="-89.5" font-family="Helvetica,sans-Serif" font-size="10.00">sll_m_gauss_lobatto</text>
<text text-anchor="start" x="507" y="-78.5" font-family="Helvetica,sans-Serif" font-size="10.00">_integration::sll_f</text>
<text text-anchor="middle" x="556" y="-67.5" font-family="Helvetica,sans-Serif" font-size="10.00">_gauss_lobatto_points</text>
</a>
</g>
</g>
<!-- Node5&#45;&gt;Node6 -->
<g id="edge5" class="edge"><title>Node5&#45;&gt;Node6</title>
<path fill="none" stroke="midnightblue" d="M441.135,-60.9063C456.368,-63.5943 473.004,-66.53 488.738,-69.3067"/>
<polygon fill="midnightblue" stroke="midnightblue" points="488.467,-72.8129 498.923,-71.1041 489.684,-65.9195 488.467,-72.8129"/>
</g>
<!-- Node9 -->
<g id="node9" class="node"><title>Node9</title>
<g id="a_node9"><a xlink:href="namespacesll__m__gauss__lobatto__integration.html#ab2dd3e9cafb094226c63f629745b0654" target="_top" xlink:title="Returns a 1d array of size (n) containing gauss&#45;lobatto weights in the interval [a,b]. ">
<polygon fill="white" stroke="black" points="495,-0.5 495,-41.5 617,-41.5 617,-0.5 495,-0.5"/>
<text text-anchor="start" x="503" y="-29.5" font-family="Helvetica,sans-Serif" font-size="10.00">sll_m_gauss_lobatto</text>
<text text-anchor="start" x="503" y="-18.5" font-family="Helvetica,sans-Serif" font-size="10.00">_integration::sll_f</text>
<text text-anchor="middle" x="556" y="-7.5" font-family="Helvetica,sans-Serif" font-size="10.00">_gauss_lobatto_weights</text>
</a>
</g>
</g>
<!-- Node5&#45;&gt;Node9 -->
<g id="edge8" class="edge"><title>Node5&#45;&gt;Node9</title>
<path fill="none" stroke="midnightblue" d="M441.135,-41.0937C455.123,-38.6254 470.293,-35.9483 484.862,-33.3772"/>
<polygon fill="midnightblue" stroke="midnightblue" points="485.591,-36.8028 494.831,-31.6181 484.375,-29.9093 485.591,-36.8028"/>
</g>
<!-- Node7 -->
<g id="node7" class="node"><title>Node7</title>
<g id="a_node7"><a xlink:href="namespacesll__m__gauss__lobatto__integration.html#aef28cd44b846400f5133a0ee289babbc" target="_top" xlink:title="This comes from http://dl.acm.org, Algorithme 726 : ORTHPOL, appendices and supplements To use those ...">
<polygon fill="white" stroke="black" points="653,-36 653,-66 759,-66 759,-36 653,-36"/>
<text text-anchor="start" x="661" y="-54" font-family="Helvetica,sans-Serif" font-size="10.00">sll_m_gauss_lobatto</text>
<text text-anchor="middle" x="706" y="-43" font-family="Helvetica,sans-Serif" font-size="10.00">_integration::dlob</text>
</a>
</g>
</g>
<!-- Node6&#45;&gt;Node7 -->
<g id="edge6" class="edge"><title>Node6&#45;&gt;Node7</title>
<path fill="none" stroke="midnightblue" d="M613.375,-69.5727C622.954,-67.631 632.952,-65.6044 642.674,-63.6337"/>
<polygon fill="midnightblue" stroke="midnightblue" points="643.571,-67.0232 652.676,-61.6062 642.18,-60.1627 643.571,-67.0232"/>
</g>
<!-- Node8 -->
<g id="node8" class="node"><title>Node8</title>
<g id="a_node8"><a xlink:href="namespacesll__m__gauss__lobatto__integration.html#a20a90d157ba32cd27c5d6f89eccf3735" target="_top" xlink:title="Given n and a measure dlambda, this routine generates the n&#45;point Gaussian quadrature formula...">
<polygon fill="white" stroke="black" points="795,-36 795,-66 901,-66 901,-36 795,-36"/>
<text text-anchor="start" x="803" y="-54" font-family="Helvetica,sans-Serif" font-size="10.00">sll_m_gauss_lobatto</text>
<text text-anchor="middle" x="848" y="-43" font-family="Helvetica,sans-Serif" font-size="10.00">_integration::dgauss</text>
</a>
</g>
</g>
<!-- Node7&#45;&gt;Node8 -->
<g id="edge7" class="edge"><title>Node7&#45;&gt;Node8</title>
<path fill="none" stroke="midnightblue" d="M759.131,-51C767.421,-51 776.07,-51 784.568,-51"/>
<polygon fill="midnightblue" stroke="midnightblue" points="784.826,-54.5001 794.826,-51 784.826,-47.5001 784.826,-54.5001"/>
</g>
<!-- Node9&#45;&gt;Node7 -->
<g id="edge9" class="edge"><title>Node9&#45;&gt;Node7</title>
<path fill="none" stroke="midnightblue" d="M617.197,-33.2021C625.71,-34.9278 634.476,-36.7046 643.022,-38.4369"/>
<polygon fill="midnightblue" stroke="midnightblue" points="642.429,-41.8878 652.925,-40.4442 643.819,-35.0273 642.429,-41.8878"/>
</g>
</g>
</svg>
        <g id="navigator" transform="translate(0 0)" fill="#404254">
                <rect fill="#f2f5e9" fill-opacity="0.5" stroke="#606060" stroke-width=".5" x="0" y="0" width="60" height="60"/>
                <use id="zoomplus" xlink:href="#zoomPlus" x="17" y="9" onmousedown="handleZoom(evt,'in')"/>
                <use id="zoomminus" xlink:href="#zoomMin" x="42" y="9" onmousedown="handleZoom(evt,'out')"/>
                <use id="reset" xlink:href="#resetDef" x="30" y="36" onmousedown="handleReset()"/>
                <g id="arrowUp" xlink:href="#dirArrow" transform="translate(30 24)" onmousedown="handlePan(0,-1)">
                  <use xlink:href="#rim" fill="#404040">
                        <set attributeName="fill" to="#808080" begin="arrowUp.mouseover" end="arrowUp.mouseout"/>
                  </use>
                  <path fill="none" stroke="white" stroke-width="1.5" d="M0,-3.0v7 M-2.5,-0.5L0,-3.0L2.5,-0.5"/>
                </g>
                <g id="arrowRight" xlink:href="#dirArrow" transform="rotate(90) translate(36 -43)" onmousedown="handlePan(1,0)">
                  <use xlink:href="#rim" fill="#404040">
                        <set attributeName="fill" to="#808080" begin="arrowRight.mouseover" end="arrowRight.mouseout"/>
                  </use>
                  <path fill="none" stroke="white" stroke-width="1.5" d="M0,-3.0v7 M-2.5,-0.5L0,-3.0L2.5,-0.5"/>
                </g>
                <g id="arrowDown" xlink:href="#dirArrow" transform="rotate(180) translate(-30 -48)" onmousedown="handlePan(0,1)">
                  <use xlink:href="#rim" fill="#404040">
                        <set attributeName="fill" to="#808080" begin="arrowDown.mouseover" end="arrowDown.mouseout"/>
                  </use>
                  <path fill="none" stroke="white" stroke-width="1.5" d="M0,-3.0v7 M-2.5,-0.5L0,-3.0L2.5,-0.5"/>
                </g>
                <g id="arrowLeft" xlink:href="#dirArrow" transform="rotate(270) translate(-36 17)" onmousedown="handlePan(-1,0)">
                  <use xlink:href="#rim" fill="#404040">
                        <set attributeName="fill" to="#808080" begin="arrowLeft.mouseover" end="arrowLeft.mouseout"/>
                  </use>
                  <path fill="none" stroke="white" stroke-width="1.5" d="M0,-3.0v7 M-2.5,-0.5L0,-3.0L2.5,-0.5"/>
                </g>
        </g>
        <svg viewBox="0 0 15 15" width="100%" height="30px" preserveAspectRatio="xMaxYMin meet">
         <g id="arrow_out" transform="scale(0.3 0.3)">
          <a xlink:href="namespacesll__m__general__coordinate__elliptic__solver_a27d90b4a6ca26e6014ca4db59a27eda1_cgraph_org.svg" target="_base">
           <rect id="button" ry="5" rx="5" y="6" x="6" height="38" width="38"
                fill="#f2f5e9" fill-opacity="0.5" stroke="#606060" stroke-width="1.0"/>
           <path id="arrow"
             d="M 11.500037,31.436501 C 11.940474,20.09759 22.043105,11.32322 32.158766,21.979434 L 37.068811,17.246167 C 37.068811,17.246167 37.088388,32 37.088388,32 L 22.160133,31.978069 C 22.160133,31.978069 26.997745,27.140456 26.997745,27.140456 C 18.528582,18.264221 13.291696,25.230495 11.500037,31.436501 z"
             style="fill:#404040;"/>
          </a>
         </g>
        </svg>
</svg>
