<?xml version="1.0" encoding="UTF-8" standalone="no"?>
<!DOCTYPE svg PUBLIC "-//W3C//DTD SVG 1.1//EN"
 "http://www.w3.org/Graphics/SVG/1.1/DTD/svg11.dtd">
<!-- Generated by graphviz version 2.40.1 (20161225.0304)
 -->
<!-- Title: sll_s_spline_evaluate_basis_pp_form_1d Pages: 1 -->
<svg width="317pt" height="88pt"
 viewBox="0.00 0.00 317.00 88.00" xmlns="http://www.w3.org/2000/svg" xmlns:xlink="http://www.w3.org/1999/xlink">
<g id="graph0" class="graph" transform="scale(1 1) rotate(0) translate(4 84)">
<title>sll_s_spline_evaluate_basis_pp_form_1d</title>
<polygon fill="#ffffff" stroke="transparent" points="-4,4 -4,-84 313,-84 313,4 -4,4"/>
<!-- Node191 -->
<g id="node1" class="node">
<title>Node191</title>
<polygon fill="#bfbfbf" stroke="#000000" points="0,-24.5 0,-54.5 121,-54.5 121,-24.5 0,-24.5"/>
<text text-anchor="start" x="8" y="-42.5" font-family="Helvetica,sans-Serif" font-size="10.00" fill="#000000">sll_s_spline_evaluate</text>
<text text-anchor="middle" x="60.5" y="-31.5" font-family="Helvetica,sans-Serif" font-size="10.00" fill="#000000">_basis_pp_form_1d</text>
</g>
<!-- Node192 -->
<g id="node2" class="node">
<title>Node192</title>
<g id="a_node2"><a xlink:href="namespacesll__m__splines__pp.html#ae856e97f9b335607629a52dc2d54adc9" target="_top" xlink:title="sll_s_spline_evaluate\l_basis_b_form_1d_clamped">
<polygon fill="#ffffff" stroke="#000000" points="157,-49.5 157,-79.5 309,-79.5 309,-49.5 157,-49.5"/>
<text text-anchor="start" x="165" y="-67.5" font-family="Helvetica,sans-Serif" font-size="10.00" fill="#000000">sll_s_spline_evaluate</text>
<text text-anchor="middle" x="233" y="-56.5" font-family="Helvetica,sans-Serif" font-size="10.00" fill="#000000">_basis_b_form_1d_clamped</text>
</a>
</g>
</g>
<!-- Node191&#45;&gt;Node192 -->
<g id="edge1" class="edge">
<title>Node191&#45;&gt;Node192</title>
<path fill="none" stroke="#191970" d="M131.3853,-49.7732C139.7384,-50.9838 148.29,-52.2232 156.7132,-53.4439"/>
<polygon fill="#191970" stroke="#191970" points="131.7157,-46.2846 121.317,-48.3141 130.7116,-53.2123 131.7157,-46.2846"/>
</g>
<!-- Node193 -->
<g id="node3" class="node">
<title>Node193</title>
<g id="a_node3"><a xlink:href="namespacesll__m__splines__pp.html#ada27fc420cd644f1c8a46c2595781c91" target="_top" xlink:title="sll_s_spline_evaluate\l_basis_b_form_1d_periodic">
<polygon fill="#ffffff" stroke="#000000" points="158.5,-.5 158.5,-30.5 307.5,-30.5 307.5,-.5 158.5,-.5"/>
<text text-anchor="start" x="166.5" y="-18.5" font-family="Helvetica,sans-Serif" font-size="10.00" fill="#000000">sll_s_spline_evaluate</text>
<text text-anchor="middle" x="233" y="-7.5" font-family="Helvetica,sans-Serif" font-size="10.00" fill="#000000">_basis_b_form_1d_periodic</text>
</a>
</g>
</g>
<!-- Node191&#45;&gt;Node193 -->
<g id="edge2" class="edge">
<title>Node191&#45;&gt;Node193</title>
<path fill="none" stroke="#191970" d="M131.243,-29.6575C140.1389,-28.4198 149.2624,-27.1505 158.2179,-25.9045"/>
<polygon fill="#191970" stroke="#191970" points="130.7393,-26.1938 121.317,-31.0385 131.704,-33.127 130.7393,-26.1938"/>
</g>
</g>
</svg>
