<?xml version="1.0" encoding="UTF-8" standalone="no"?>
<!DOCTYPE svg PUBLIC "-//W3C//DTD SVG 1.1//EN"
 "http://www.w3.org/Graphics/SVG/1.1/DTD/svg11.dtd">
<!-- Generated by graphviz version 2.38.0 (20140413.2041)
 -->
<!-- Title: sll_f_gauss_lobatto_points Pages: 1 -->
<svg width="888pt" height="439pt"
 viewBox="0.00 0.00 888.00 439.00" xmlns="http://www.w3.org/2000/svg" xmlns:xlink="http://www.w3.org/1999/xlink">
<g id="graph0" class="graph" transform="scale(1 1) rotate(0) translate(4 435)">
<title>sll_f_gauss_lobatto_points</title>
<polygon fill="white" stroke="none" points="-4,4 -4,-435 884,-435 884,4 -4,4"/>
<!-- Node1 -->
<g id="node1" class="node"><title>Node1</title>
<polygon fill="#bfbfbf" stroke="black" points="0,-238.5 0,-268.5 101,-268.5 101,-238.5 0,-238.5"/>
<text text-anchor="start" x="8" y="-256.5" font-family="Helvetica,sans-Serif" font-size="10.00">sll_f_gauss_lobatto</text>
<text text-anchor="middle" x="50.5" y="-245.5" font-family="Helvetica,sans-Serif" font-size="10.00">_points</text>
</g>
<!-- Node2 -->
<g id="node2" class="node"><title>Node2</title>
<g id="a_node2"><a xlink:href="namespacesll__m__dg__fields.html#a66ffd9f6cf3e20a707f967e4cb457d30" target="_top" xlink:title="sll_m_dg_fields::sll\l_s_dg_field_2d_init">
<polygon fill="white" stroke="black" points="154,-400.5 154,-430.5 254,-430.5 254,-400.5 154,-400.5"/>
<text text-anchor="start" x="162" y="-418.5" font-family="Helvetica,sans-Serif" font-size="10.00">sll_m_dg_fields::sll</text>
<text text-anchor="middle" x="204" y="-407.5" font-family="Helvetica,sans-Serif" font-size="10.00">_s_dg_field_2d_init</text>
</a>
</g>
</g>
<!-- Node1&#45;&gt;Node2 -->
<g id="edge1" class="edge"><title>Node1&#45;&gt;Node2</title>
<path fill="none" stroke="midnightblue" d="M62.0694,-277.942C75.6847,-306.953 101.847,-355.204 137,-385.5 143.865,-391.416 152.089,-396.378 160.364,-400.453"/>
<polygon fill="midnightblue" stroke="midnightblue" points="65.117,-276.19 57.7826,-268.544 58.7482,-279.095 65.117,-276.19"/>
</g>
<!-- Node3 -->
<g id="node3" class="node"><title>Node3</title>
<g id="a_node3"><a xlink:href="namespacesll__m__maxwell__2d__diga.html#aea7962198b6305c1256087d5a9e5c8fe" target="_top" xlink:title="Initialize Maxwell solver object using DG method. ">
<polygon fill="white" stroke="black" points="327,-285.5 327,-315.5 468,-315.5 468,-285.5 327,-285.5"/>
<text text-anchor="start" x="335" y="-303.5" font-family="Helvetica,sans-Serif" font-size="10.00">sll_m_maxwell_2d_diga</text>
<text text-anchor="middle" x="397.5" y="-292.5" font-family="Helvetica,sans-Serif" font-size="10.00">::sll_s_maxwell_2d_diga_init</text>
</a>
</g>
</g>
<!-- Node1&#45;&gt;Node3 -->
<g id="edge6" class="edge"><title>Node1&#45;&gt;Node3</title>
<path fill="none" stroke="midnightblue" d="M64.2029,-277.747C78.3337,-301.807 103.639,-337.231 137,-352.5 217.217,-389.214 323.077,-341.607 370.994,-315.509"/>
<polygon fill="midnightblue" stroke="midnightblue" points="67.1382,-275.827 59.1736,-268.84 61.0428,-279.269 67.1382,-275.827"/>
</g>
<!-- Node5 -->
<g id="node5" class="node"><title>Node5</title>
<g id="a_node5"><a xlink:href="namespacesll__m__dg__fields.html#afd907112b47b1a216f2bc3af0bdc9e44" target="_top" xlink:title="sll_m_dg_fields::sll\l_f_new_dg_field_2d">
<polygon fill="white" stroke="black" points="152.5,-312.5 152.5,-342.5 255.5,-342.5 255.5,-312.5 152.5,-312.5"/>
<text text-anchor="start" x="160.5" y="-330.5" font-family="Helvetica,sans-Serif" font-size="10.00">sll_m_dg_fields::sll</text>
<text text-anchor="middle" x="204" y="-319.5" font-family="Helvetica,sans-Serif" font-size="10.00">_f_new_dg_field_2d</text>
</a>
</g>
</g>
<!-- Node1&#45;&gt;Node5 -->
<g id="edge4" class="edge"><title>Node1&#45;&gt;Node5</title>
<path fill="none" stroke="midnightblue" d="M83.6276,-274.144C99.3541,-283.765 118.784,-294.947 137,-303.5 143.732,-306.661 151.003,-309.678 158.175,-312.441"/>
<polygon fill="midnightblue" stroke="midnightblue" points="85.1765,-270.987 74.8331,-268.692 81.4882,-276.936 85.1765,-270.987"/>
</g>
<!-- Node6 -->
<g id="node6" class="node"><title>Node6</title>
<g id="a_node6"><a xlink:href="namespacesll__m__gyroaverage__utilities.html#ace9ca74c71712dea32a595db9b2585fa" target="_top" xlink:title="sll_m_gyroaverage_utilities\l::sll_s_compute_mu">
<polygon fill="white" stroke="black" points="137,-263.5 137,-293.5 271,-293.5 271,-263.5 137,-263.5"/>
<text text-anchor="start" x="145" y="-281.5" font-family="Helvetica,sans-Serif" font-size="10.00">sll_m_gyroaverage_utilities</text>
<text text-anchor="middle" x="204" y="-270.5" font-family="Helvetica,sans-Serif" font-size="10.00">::sll_s_compute_mu</text>
</a>
</g>
</g>
<!-- Node1&#45;&gt;Node6 -->
<g id="edge5" class="edge"><title>Node1&#45;&gt;Node6</title>
<path fill="none" stroke="midnightblue" d="M111.181,-263.348C119.576,-264.734 128.248,-266.165 136.757,-267.569"/>
<polygon fill="midnightblue" stroke="midnightblue" points="111.543,-259.861 101.107,-261.686 110.403,-266.767 111.543,-259.861"/>
</g>
<!-- Node7 -->
<g id="node7" class="node"><title>Node7</title>
<g id="a_node7"><a xlink:href="namespacesll__m__maxwell__2d__diga.html#aaf2e3de1e3a109d93be64114e8abeb03" target="_top" xlink:title="Compute cell normals. ">
<polygon fill="white" stroke="black" points="144,-214.5 144,-244.5 264,-244.5 264,-214.5 144,-214.5"/>
<text text-anchor="start" x="152" y="-232.5" font-family="Helvetica,sans-Serif" font-size="10.00">sll_m_maxwell_2d_diga</text>
<text text-anchor="middle" x="204" y="-221.5" font-family="Helvetica,sans-Serif" font-size="10.00">::compute_normals</text>
</a>
</g>
</g>
<!-- Node1&#45;&gt;Node7 -->
<g id="edge7" class="edge"><title>Node1&#45;&gt;Node7</title>
<path fill="none" stroke="midnightblue" d="M111.21,-244.041C121.923,-242.344 133.084,-240.576 143.782,-238.881"/>
<polygon fill="midnightblue" stroke="midnightblue" points="110.436,-240.62 101.107,-245.642 111.531,-247.534 110.436,-240.62"/>
</g>
<!-- Node8 -->
<g id="node8" class="node"><title>Node8</title>
<g id="a_node8"><a xlink:href="namespacesll__m__dg__interpolator__1d.html#aab53d5893320fe81960e78fc061d7239" target="_top" xlink:title="sll_m_dg_interpolator\l_1d::sll_s_dg_interpolator\l_1d_init">
<polygon fill="white" stroke="black" points="140,-155 140,-196 268,-196 268,-155 140,-155"/>
<text text-anchor="start" x="148" y="-184" font-family="Helvetica,sans-Serif" font-size="10.00">sll_m_dg_interpolator</text>
<text text-anchor="start" x="148" y="-173" font-family="Helvetica,sans-Serif" font-size="10.00">_1d::sll_s_dg_interpolator</text>
<text text-anchor="middle" x="204" y="-162" font-family="Helvetica,sans-Serif" font-size="10.00">_1d_init</text>
</a>
</g>
</g>
<!-- Node1&#45;&gt;Node8 -->
<g id="edge9" class="edge"><title>Node1&#45;&gt;Node8</title>
<path fill="none" stroke="midnightblue" d="M85.73,-233.406C101.221,-224.54 119.864,-214.185 137,-205.5 143.175,-202.37 149.743,-199.201 156.25,-196.153"/>
<polygon fill="midnightblue" stroke="midnightblue" points="83.9266,-230.406 77.0083,-238.43 87.4205,-236.471 83.9266,-230.406"/>
</g>
<!-- Node9 -->
<g id="node9" class="node"><title>Node9</title>
<g id="a_node9"><a xlink:href="namespacesll__m__gauss__lobatto__integration.html#abde325bec9e6c51c78f56ecc3bb075d5" target="_top" xlink:title="Returns a 2d array of size (2,n) containing gauss&#45;lobatto points and weights in the interval [a...">
<polygon fill="white" stroke="black" points="150,-57.5 150,-87.5 258,-87.5 258,-57.5 150,-57.5"/>
<text text-anchor="start" x="158" y="-75.5" font-family="Helvetica,sans-Serif" font-size="10.00">sll_f_gauss_lobatto</text>
<text text-anchor="middle" x="204" y="-64.5" font-family="Helvetica,sans-Serif" font-size="10.00">_points_and_weights</text>
</a>
</g>
</g>
<!-- Node1&#45;&gt;Node9 -->
<g id="edge10" class="edge"><title>Node1&#45;&gt;Node9</title>
<path fill="none" stroke="midnightblue" d="M58.8833,-228.474C70.2489,-194.098 95.2083,-132.454 137,-96.5 140.974,-93.0808 145.476,-90.1332 150.215,-87.5951"/>
<polygon fill="midnightblue" stroke="midnightblue" points="55.483,-227.617 55.7889,-238.208 62.154,-229.738 55.483,-227.617"/>
</g>
<!-- Node15 -->
<g id="node15" class="node"><title>Node15</title>
<g id="a_node15"><a xlink:href="namespacesll__m__gauss__lobatto__integration.html#a40c64cf688951538c0093a24e463688c" target="_top" xlink:title="Construction of the derivative matrix for Gauss&#45;Lobatto, The matrix must be already allocated of size...">
<polygon fill="white" stroke="black" points="153.5,-106.5 153.5,-136.5 254.5,-136.5 254.5,-106.5 153.5,-106.5"/>
<text text-anchor="start" x="161.5" y="-124.5" font-family="Helvetica,sans-Serif" font-size="10.00">sll_f_gauss_lobatto</text>
<text text-anchor="middle" x="204" y="-113.5" font-family="Helvetica,sans-Serif" font-size="10.00">_derivative_matrix</text>
</a>
</g>
</g>
<!-- Node1&#45;&gt;Node15 -->
<g id="edge16" class="edge"><title>Node1&#45;&gt;Node15</title>
<path fill="none" stroke="midnightblue" d="M64.8355,-229.799C79.6022,-205.518 105.529,-168.204 137,-145.5 141.944,-141.933 147.474,-138.844 153.174,-136.183"/>
<polygon fill="midnightblue" stroke="midnightblue" points="61.8205,-228.021 59.7342,-238.409 67.8428,-231.59 61.8205,-228.021"/>
</g>
<!-- Node2&#45;&gt;Node3 -->
<g id="edge2" class="edge"><title>Node2&#45;&gt;Node3</title>
<path fill="none" stroke="midnightblue" d="M250.547,-396.019C257.495,-392.698 264.509,-389.139 271,-385.5 309.792,-363.752 352.06,-333.674 376.309,-315.743"/>
<polygon fill="midnightblue" stroke="midnightblue" points="248.757,-392.991 241.168,-400.385 251.711,-399.337 248.757,-392.991"/>
</g>
<!-- Node4 -->
<g id="node4" class="node"><title>Node4</title>
<g id="a_node4"><a xlink:href="namespacesll__m__maxwell__2d__diga.html#a757b8a57dde51f462e899778a250a81d" target="_top" xlink:title="sll_m_maxwell_2d_diga\l::sll_f_new_maxwell_2d_diga">
<polygon fill="white" stroke="black" points="524,-285.5 524,-315.5 668,-315.5 668,-285.5 524,-285.5"/>
<text text-anchor="start" x="532" y="-303.5" font-family="Helvetica,sans-Serif" font-size="10.00">sll_m_maxwell_2d_diga</text>
<text text-anchor="middle" x="596" y="-292.5" font-family="Helvetica,sans-Serif" font-size="10.00">::sll_f_new_maxwell_2d_diga</text>
</a>
</g>
</g>
<!-- Node3&#45;&gt;Node4 -->
<g id="edge3" class="edge"><title>Node3&#45;&gt;Node4</title>
<path fill="none" stroke="midnightblue" d="M478.372,-300.5C493.438,-300.5 509.103,-300.5 523.879,-300.5"/>
<polygon fill="midnightblue" stroke="midnightblue" points="478.055,-297 468.055,-300.5 478.055,-304 478.055,-297"/>
</g>
<!-- Node7&#45;&gt;Node3 -->
<g id="edge8" class="edge"><title>Node7&#45;&gt;Node3</title>
<path fill="none" stroke="midnightblue" d="M255.07,-248.064C286.501,-259.717 326.509,-274.55 355.946,-285.464"/>
<polygon fill="midnightblue" stroke="midnightblue" points="256.205,-244.752 245.612,-244.557 253.772,-251.315 256.205,-244.752"/>
</g>
<!-- Node10 -->
<g id="node10" class="node"><title>Node10</title>
<g id="a_node10"><a xlink:href="namespacesll__m__general__coordinate__elliptic__solver__multipatch.html#ae9b2728b7fc567b24d783dc03390c489" target="_top" xlink:title="Initialization for elleptic solver multipatch. ">
<polygon fill="white" stroke="black" points="307,-82 307,-123 488,-123 488,-82 307,-82"/>
<text text-anchor="start" x="315" y="-111" font-family="Helvetica,sans-Serif" font-size="10.00">sll_m_general_coordinate</text>
<text text-anchor="start" x="315" y="-100" font-family="Helvetica,sans-Serif" font-size="10.00">_elliptic_solver_multipatch</text>
<text text-anchor="middle" x="397.5" y="-89" font-family="Helvetica,sans-Serif" font-size="10.00">::sll_s_general_elliptic_solver_mp_init</text>
</a>
</g>
</g>
<!-- Node9&#45;&gt;Node10 -->
<g id="edge11" class="edge"><title>Node9&#45;&gt;Node10</title>
<path fill="none" stroke="midnightblue" d="M268.277,-82.4129C280.661,-84.3529 293.868,-86.4218 306.92,-88.4666"/>
<polygon fill="midnightblue" stroke="midnightblue" points="268.51,-78.9068 258.089,-80.8168 267.427,-85.8224 268.51,-78.9068"/>
</g>
<!-- Node11 -->
<g id="node11" class="node"><title>Node11</title>
<g id="a_node11"><a xlink:href="namespacesll__m__general__coordinate__elliptic__solver.html#aa97e7df003acbee3a05797610354c09d" target="_top" xlink:title="sll_m_general_coordinate\l_elliptic_solver::compute\l_b_spline_and_deriv_at_x">
<polygon fill="white" stroke="black" points="333,-22 333,-63 462,-63 462,-22 333,-22"/>
<text text-anchor="start" x="341" y="-51" font-family="Helvetica,sans-Serif" font-size="10.00">sll_m_general_coordinate</text>
<text text-anchor="start" x="341" y="-40" font-family="Helvetica,sans-Serif" font-size="10.00">_elliptic_solver::compute</text>
<text text-anchor="middle" x="397.5" y="-29" font-family="Helvetica,sans-Serif" font-size="10.00">_b_spline_and_deriv_at_x</text>
</a>
</g>
</g>
<!-- Node9&#45;&gt;Node11 -->
<g id="edge12" class="edge"><title>Node9&#45;&gt;Node11</title>
<path fill="none" stroke="midnightblue" d="M268.076,-62.6186C288.843,-59.3653 311.94,-55.7469 332.757,-52.4859"/>
<polygon fill="midnightblue" stroke="midnightblue" points="267.427,-59.1776 258.089,-64.1832 268.51,-66.0932 267.427,-59.1776"/>
</g>
<!-- Node12 -->
<g id="node12" class="node"><title>Node12</title>
<g id="a_node12"><a xlink:href="namespacesll__m__general__coordinate__elliptic__solver.html#a27d90b4a6ca26e6014ca4db59a27eda1" target="_top" xlink:title="sll_m_general_coordinate\l_elliptic_solver::compute\l_global_splines_indices">
<polygon fill="white" stroke="black" points="532.5,-22 532.5,-63 659.5,-63 659.5,-22 532.5,-22"/>
<text text-anchor="start" x="540.5" y="-51" font-family="Helvetica,sans-Serif" font-size="10.00">sll_m_general_coordinate</text>
<text text-anchor="start" x="540.5" y="-40" font-family="Helvetica,sans-Serif" font-size="10.00">_elliptic_solver::compute</text>
<text text-anchor="middle" x="596" y="-29" font-family="Helvetica,sans-Serif" font-size="10.00">_global_splines_indices</text>
</a>
</g>
</g>
<!-- Node11&#45;&gt;Node12 -->
<g id="edge13" class="edge"><title>Node11&#45;&gt;Node12</title>
<path fill="none" stroke="midnightblue" d="M472.229,-42.5C492.023,-42.5 513.235,-42.5 532.364,-42.5"/>
<polygon fill="midnightblue" stroke="midnightblue" points="472.027,-39.0001 462.027,-42.5 472.027,-46.0001 472.027,-39.0001"/>
</g>
<!-- Node13 -->
<g id="node13" class="node"><title>Node13</title>
<g id="a_node13"><a xlink:href="namespacesll__m__general__coordinate__elliptic__solver.html#a13e1428f9465e72bbf96682e92f305f8" target="_top" xlink:title="Assemble the matrix for elliptic solver. ">
<polygon fill="white" stroke="black" points="713,-49 713,-90 871,-90 871,-49 713,-49"/>
<text text-anchor="start" x="721" y="-78" font-family="Helvetica,sans-Serif" font-size="10.00">sll_m_general_coordinate</text>
<text text-anchor="start" x="721" y="-67" font-family="Helvetica,sans-Serif" font-size="10.00">_elliptic_solver::solve</text>
<text text-anchor="middle" x="792" y="-56" font-family="Helvetica,sans-Serif" font-size="10.00">_general_coordinates_elliptic_eq</text>
</a>
</g>
</g>
<!-- Node12&#45;&gt;Node13 -->
<g id="edge14" class="edge"><title>Node12&#45;&gt;Node13</title>
<path fill="none" stroke="midnightblue" d="M669.807,-52.633C683.864,-54.5893 698.645,-56.6464 712.863,-58.6253"/>
<polygon fill="midnightblue" stroke="midnightblue" points="670.105,-49.1408 659.718,-51.2288 669.14,-56.074 670.105,-49.1408"/>
</g>
<!-- Node14 -->
<g id="node14" class="node"><title>Node14</title>
<g id="a_node14"><a xlink:href="namespacesll__m__general__coordinate__elliptic__solver.html#a17eb78399c10cd0dcdd31c4bf2cb72e6" target="_top" xlink:title="sll_m_general_coordinate\l_elliptic_solver::initconnectivity_new">
<polygon fill="white" stroke="black" points="704,-0.5 704,-30.5 880,-30.5 880,-0.5 704,-0.5"/>
<text text-anchor="start" x="712" y="-18.5" font-family="Helvetica,sans-Serif" font-size="10.00">sll_m_general_coordinate</text>
<text text-anchor="middle" x="792" y="-7.5" font-family="Helvetica,sans-Serif" font-size="10.00">_elliptic_solver::initconnectivity_new</text>
</a>
</g>
</g>
<!-- Node12&#45;&gt;Node14 -->
<g id="edge15" class="edge"><title>Node12&#45;&gt;Node14</title>
<path fill="none" stroke="midnightblue" d="M669.767,-32.3726C680.868,-30.8277 692.421,-29.2198 703.792,-27.6372"/>
<polygon fill="midnightblue" stroke="midnightblue" points="669.14,-28.926 659.718,-33.7712 670.105,-35.8592 669.14,-28.926"/>
</g>
<!-- Node15&#45;&gt;Node3 -->
<g id="edge17" class="edge"><title>Node15&#45;&gt;Node3</title>
<path fill="none" stroke="midnightblue" d="M263.681,-140.826C266.22,-142.284 268.673,-143.841 271,-145.5 326.254,-184.903 370.466,-254.828 388.155,-285.441"/>
<polygon fill="midnightblue" stroke="midnightblue" points="265.28,-137.712 254.789,-136.235 262.069,-143.932 265.28,-137.712"/>
</g>
</g>
</svg>
