<?xml version="1.0" encoding="UTF-8" standalone="no"?>
<!DOCTYPE svg PUBLIC "-//W3C//DTD SVG 1.1//EN"
 "http://www.w3.org/Graphics/SVG/1.1/DTD/svg11.dtd">
<!-- Generated by graphviz version 2.40.1 (20161225.0304)
 -->
<!-- Title: initialize_explicit_euler_2d_charac Pages: 1 -->
<svg width="296pt" height="110pt"
 viewBox="0.00 0.00 296.00 110.00" xmlns="http://www.w3.org/2000/svg" xmlns:xlink="http://www.w3.org/1999/xlink">
<g id="graph0" class="graph" transform="scale(1 1) rotate(0) translate(4 106)">
<title>initialize_explicit_euler_2d_charac</title>
<polygon fill="#ffffff" stroke="transparent" points="-4,4 -4,-106 292,-106 292,4 -4,4"/>
<!-- Node2 -->
<g id="node1" class="node">
<title>Node2</title>
<polygon fill="#bfbfbf" stroke="#000000" points="0,-36 0,-66 101,-66 101,-36 0,-36"/>
<text text-anchor="start" x="8" y="-54" font-family="Helvetica,sans-Serif" font-size="10.00" fill="#000000">initialize_explicit</text>
<text text-anchor="middle" x="50.5" y="-43" font-family="Helvetica,sans-Serif" font-size="10.00" fill="#000000">_euler_2d_charac</text>
</g>
<!-- Node3 -->
<g id="node2" class="node">
<title>Node3</title>
<g id="a_node2"><a xlink:href="namespacesll__m__characteristics__2d__base.html#a2c5e6a5c73925dd52b2b5d0c4bbabf78" target="_top" xlink:title="sll_m_characteristics\l_2d_base::sll_f_process\l_outside_point_periodic">
<polygon fill="#ffffff" stroke="#000000" points="146.5,-60.5 146.5,-101.5 278.5,-101.5 278.5,-60.5 146.5,-60.5"/>
<text text-anchor="start" x="154.5" y="-89.5" font-family="Helvetica,sans-Serif" font-size="10.00" fill="#000000">sll_m_characteristics</text>
<text text-anchor="start" x="154.5" y="-78.5" font-family="Helvetica,sans-Serif" font-size="10.00" fill="#000000">_2d_base::sll_f_process</text>
<text text-anchor="middle" x="212.5" y="-67.5" font-family="Helvetica,sans-Serif" font-size="10.00" fill="#000000">_outside_point_periodic</text>
</a>
</g>
</g>
<!-- Node2&#45;&gt;Node3 -->
<g id="edge1" class="edge">
<title>Node2&#45;&gt;Node3</title>
<path fill="none" stroke="#191970" d="M101.3133,-60.4099C112.4773,-62.4773 124.5341,-64.71 136.4476,-66.9162"/>
<polygon fill="#191970" stroke="#191970" points="135.9283,-70.3795 146.3985,-68.759 137.203,-63.4965 135.9283,-70.3795"/>
</g>
<!-- Node4 -->
<g id="node3" class="node">
<title>Node4</title>
<g id="a_node3"><a xlink:href="namespacesll__m__characteristics__2d__base.html#acbf7214cdc138a1134771deab9353804" target="_top" xlink:title="sll_m_characteristics\l_2d_base::sll_f_process\l_outside_point_set_to_limit">
<polygon fill="#ffffff" stroke="#000000" points="137,-.5 137,-41.5 288,-41.5 288,-.5 137,-.5"/>
<text text-anchor="start" x="145" y="-29.5" font-family="Helvetica,sans-Serif" font-size="10.00" fill="#000000">sll_m_characteristics</text>
<text text-anchor="start" x="145" y="-18.5" font-family="Helvetica,sans-Serif" font-size="10.00" fill="#000000">_2d_base::sll_f_process</text>
<text text-anchor="middle" x="212.5" y="-7.5" font-family="Helvetica,sans-Serif" font-size="10.00" fill="#000000">_outside_point_set_to_limit</text>
</a>
</g>
</g>
<!-- Node2&#45;&gt;Node4 -->
<g id="edge2" class="edge">
<title>Node2&#45;&gt;Node4</title>
<path fill="none" stroke="#191970" d="M101.3133,-41.5901C109.5384,-40.067 118.2481,-38.454 127.0281,-36.8281"/>
<polygon fill="#191970" stroke="#191970" points="127.7533,-40.2534 136.9488,-34.991 126.4786,-33.3705 127.7533,-40.2534"/>
</g>
</g>
</svg>
