<?xml version="1.0" encoding="UTF-8" standalone="no"?>
<!DOCTYPE svg PUBLIC "-//W3C//DTD SVG 1.1//EN"
 "http://www.w3.org/Graphics/SVG/1.1/DTD/svg11.dtd">
<!-- Generated by graphviz version 2.43.0 (0)
 -->
<!-- Title: sll_s_multiply_c Pages: 1 -->
<svg width="481pt" height="252pt"
 viewBox="0.00 0.00 481.00 251.50" xmlns="http://www.w3.org/2000/svg" xmlns:xlink="http://www.w3.org/1999/xlink">
<g id="graph0" class="graph" transform="scale(1 1) rotate(0) translate(4 247.5)">
<title>sll_s_multiply_c</title>
<polygon fill="white" stroke="transparent" points="-4,4 -4,-247.5 477,-247.5 477,4 -4,4"/>
<!-- Node1 -->
<g id="node1" class="node">
<title>Node1</title>
<g id="a_node1"><a xlink:title="Multiply by discrete curl matrix.">
<polygon fill="#bfbfbf" stroke="black" points="378,-120.5 378,-139.5 473,-139.5 473,-120.5 378,-120.5"/>
<text text-anchor="middle" x="425.5" y="-127.5" font-family="Helvetica,sans-Serif" font-size="10.00">sll_s_multiply_c</text>
</a>
</g>
</g>
<!-- Node2 -->
<g id="node2" class="node">
<title>Node2</title>
<g id="a_node2"><a xlink:href="namespacesll__m__linear__operator__curl__3d.html#a1b8233b5900d9706d37b2d5f2a1326a4" target="_top" xlink:title=" ">
<polygon fill="white" stroke="black" points="196,-213 196,-243 318,-243 318,-213 196,-213"/>
<text text-anchor="start" x="204" y="-231" font-family="Helvetica,sans-Serif" font-size="10.00">sll_m_linear_operator</text>
<text text-anchor="middle" x="257" y="-220" font-family="Helvetica,sans-Serif" font-size="10.00">_curl_3d::dot_curl_3d</text>
</a>
</g>
</g>
<!-- Node1&#45;&gt;Node2 -->
<g id="edge1" class="edge">
<title>Node1&#45;&gt;Node2</title>
<path fill="none" stroke="midnightblue" d="M409.72,-147.18C394.39,-163.98 368.92,-189.13 342,-204 334.57,-208.11 326.36,-211.57 318.09,-214.46"/>
<polygon fill="midnightblue" stroke="midnightblue" points="412.36,-149.49 416.39,-139.69 407.13,-144.83 412.36,-149.49"/>
</g>
<!-- Node3 -->
<g id="node3" class="node">
<title>Node3</title>
<g id="a_node3"><a xlink:href="namespacesll__m__linear__operator__schur__eb__3d.html#a1bb2f57edb4800c7f63a4e3d29ccf2aa" target="_top" xlink:title=" ">
<polygon fill="white" stroke="black" points="172,-164 172,-194 342,-194 342,-164 172,-164"/>
<text text-anchor="start" x="180" y="-182" font-family="Helvetica,sans-Serif" font-size="10.00">sll_m_linear_operator</text>
<text text-anchor="middle" x="257" y="-171" font-family="Helvetica,sans-Serif" font-size="10.00">_schur_eb_3d::dot_schur_eb_3d</text>
</a>
</g>
</g>
<!-- Node1&#45;&gt;Node3 -->
<g id="edge2" class="edge">
<title>Node1&#45;&gt;Node3</title>
<path fill="none" stroke="midnightblue" d="M383.43,-142.59C370.21,-146.6 355.5,-151.03 342,-155 332.11,-157.91 321.54,-160.97 311.36,-163.89"/>
<polygon fill="midnightblue" stroke="midnightblue" points="384.65,-145.87 393.19,-139.61 382.61,-139.18 384.65,-145.87"/>
</g>
<!-- Node4 -->
<g id="node4" class="node">
<title>Node4</title>
<g id="a_node4"><a xlink:href="namespacesll__m__maxwell__3d__fem.html#adda47047712bfe544a796da917969acb" target="_top" xlink:title="Multiply by discrete curl matrix.">
<polygon fill="white" stroke="black" points="191,-115 191,-145 323,-145 323,-115 191,-115"/>
<text text-anchor="start" x="199" y="-133" font-family="Helvetica,sans-Serif" font-size="10.00">sll_m_maxwell_3d_fem</text>
<text text-anchor="middle" x="257" y="-122" font-family="Helvetica,sans-Serif" font-size="10.00">::multiply_c</text>
</a>
</g>
</g>
<!-- Node1&#45;&gt;Node4 -->
<g id="edge3" class="edge">
<title>Node1&#45;&gt;Node4</title>
<path fill="none" stroke="midnightblue" d="M367.5,-130C353.2,-130 337.76,-130 323.1,-130"/>
<polygon fill="midnightblue" stroke="midnightblue" points="367.68,-133.5 377.68,-130 367.68,-126.5 367.68,-133.5"/>
</g>
<!-- Node6 -->
<g id="node6" class="node">
<title>Node6</title>
<g id="a_node6"><a xlink:href="namespacesll__m__maxwell__3d__fem__fft.html#a693f776a7a223ebcddd2f3417bc04089" target="_top" xlink:title="Multiply by discrete curl matrix.">
<polygon fill="white" stroke="black" points="191,-66 191,-96 323,-96 323,-66 191,-66"/>
<text text-anchor="start" x="199" y="-84" font-family="Helvetica,sans-Serif" font-size="10.00">sll_m_maxwell_3d_fem</text>
<text text-anchor="middle" x="257" y="-73" font-family="Helvetica,sans-Serif" font-size="10.00">_fft::multiply_c</text>
</a>
</g>
</g>
<!-- Node1&#45;&gt;Node6 -->
<g id="edge5" class="edge">
<title>Node1&#45;&gt;Node6</title>
<path fill="none" stroke="midnightblue" d="M382.18,-117.55C359.94,-111 332.51,-102.93 309.09,-96.04"/>
<polygon fill="midnightblue" stroke="midnightblue" points="381.42,-120.97 392,-120.44 383.4,-114.26 381.42,-120.97"/>
</g>
<!-- Node8 -->
<g id="node8" class="node">
<title>Node8</title>
<g id="a_node8"><a xlink:href="namespacesll__m__maxwell__3d__trafo.html#a114a0ed3dfdb25cc4a5fb5fe2adef387" target="_top" xlink:title="Multiply by discrete curl matrix.">
<polygon fill="white" stroke="black" points="189,-12 189,-42 325,-42 325,-12 189,-12"/>
<text text-anchor="start" x="197" y="-30" font-family="Helvetica,sans-Serif" font-size="10.00">sll_m_maxwell_3d_trafo</text>
<text text-anchor="middle" x="257" y="-19" font-family="Helvetica,sans-Serif" font-size="10.00">::multiply_c</text>
</a>
</g>
</g>
<!-- Node1&#45;&gt;Node8 -->
<g id="edge7" class="edge">
<title>Node1&#45;&gt;Node8</title>
<path fill="none" stroke="midnightblue" d="M408.53,-112.45C392.92,-96.18 367.8,-72.24 342,-57 332.13,-51.17 320.95,-46.2 310.04,-42.09"/>
<polygon fill="midnightblue" stroke="midnightblue" points="406.39,-115.28 415.78,-120.17 411.49,-110.49 406.39,-115.28"/>
</g>
<!-- Node5 -->
<g id="node5" class="node">
<title>Node5</title>
<g id="a_node5"><a xlink:href="namespacesll__m__maxwell__3d__fem.html#a729f6c0c73fc2c94a91b092290637eee" target="_top" xlink:title="Compute Bz from Ey using strong 1D Faraday equation for spline coefficients $B_z^{new}(x_j) = B_z^{ol...">
<polygon fill="white" stroke="black" points="2,-120.5 2,-161.5 134,-161.5 134,-120.5 2,-120.5"/>
<text text-anchor="start" x="10" y="-149.5" font-family="Helvetica,sans-Serif" font-size="10.00">sll_m_maxwell_3d_fem</text>
<text text-anchor="start" x="10" y="-138.5" font-family="Helvetica,sans-Serif" font-size="10.00">::sll_s_compute_b_from</text>
<text text-anchor="middle" x="68" y="-127.5" font-family="Helvetica,sans-Serif" font-size="10.00">_e_3d_fem</text>
</a>
</g>
</g>
<!-- Node4&#45;&gt;Node5 -->
<g id="edge4" class="edge">
<title>Node4&#45;&gt;Node5</title>
<path fill="none" stroke="midnightblue" d="M180.84,-134.42C165.4,-135.33 149.27,-136.28 134.22,-137.16"/>
<polygon fill="midnightblue" stroke="midnightblue" points="181.08,-137.91 190.86,-133.83 180.67,-130.93 181.08,-137.91"/>
</g>
<!-- Node7 -->
<g id="node7" class="node">
<title>Node7</title>
<g id="a_node7"><a xlink:href="namespacesll__m__maxwell__3d__fem__fft.html#a015e46e1fe1fbc9f78ba3195402bcdb3" target="_top" xlink:title="Compute Bz from Ey using strong 1D Faraday equation for spline coefficients $B_z^{new}(x_j) = B_z^{ol...">
<polygon fill="white" stroke="black" points="2,-60.5 2,-101.5 134,-101.5 134,-60.5 2,-60.5"/>
<text text-anchor="start" x="10" y="-89.5" font-family="Helvetica,sans-Serif" font-size="10.00">sll_m_maxwell_3d_fem</text>
<text text-anchor="start" x="10" y="-78.5" font-family="Helvetica,sans-Serif" font-size="10.00">_fft::sll_s_compute_b</text>
<text text-anchor="middle" x="68" y="-67.5" font-family="Helvetica,sans-Serif" font-size="10.00">_from_e_3d_fem_fft</text>
</a>
</g>
</g>
<!-- Node6&#45;&gt;Node7 -->
<g id="edge6" class="edge">
<title>Node6&#45;&gt;Node7</title>
<path fill="none" stroke="midnightblue" d="M180.84,-81C165.4,-81 149.27,-81 134.22,-81"/>
<polygon fill="midnightblue" stroke="midnightblue" points="180.86,-84.5 190.86,-81 180.86,-77.5 180.86,-84.5"/>
</g>
<!-- Node9 -->
<g id="node9" class="node">
<title>Node9</title>
<g id="a_node9"><a xlink:href="namespacesll__m__maxwell__3d__trafo.html#ac367f83184eafa6e3b6a8314ae5caa17" target="_top" xlink:title="Compute B from E using strong 3D Faraday equation for spline coefficients.">
<polygon fill="white" stroke="black" points="0,-0.5 0,-41.5 136,-41.5 136,-0.5 0,-0.5"/>
<text text-anchor="start" x="8" y="-29.5" font-family="Helvetica,sans-Serif" font-size="10.00">sll_m_maxwell_3d_trafo</text>
<text text-anchor="start" x="8" y="-18.5" font-family="Helvetica,sans-Serif" font-size="10.00">::sll_s_compute_b_from</text>
<text text-anchor="middle" x="68" y="-7.5" font-family="Helvetica,sans-Serif" font-size="10.00">_e_3d_trafo</text>
</a>
</g>
</g>
<!-- Node8&#45;&gt;Node9 -->
<g id="edge8" class="edge">
<title>Node8&#45;&gt;Node9</title>
<path fill="none" stroke="midnightblue" d="M178.63,-24.52C164.57,-24.07 150.01,-23.6 136.28,-23.16"/>
<polygon fill="midnightblue" stroke="midnightblue" points="178.65,-28.02 188.75,-24.84 178.87,-21.02 178.65,-28.02"/>
</g>
</g>
</svg>
