<?xml version="1.0" encoding="UTF-8" standalone="no"?>
<!DOCTYPE svg PUBLIC "-//W3C//DTD SVG 1.1//EN"
 "http://www.w3.org/Graphics/SVG/1.1/DTD/svg11.dtd">
<!-- Generated by graphviz version 2.38.0 (20140413.2041)
 -->
<!-- Title: localize_per Pages: 1 -->
<svg width="624pt" height="164pt"
 viewBox="0.00 0.00 624.00 164.00" xmlns="http://www.w3.org/2000/svg" xmlns:xlink="http://www.w3.org/1999/xlink">
<g id="graph0" class="graph" transform="scale(1 1) rotate(0) translate(4 160)">
<title>localize_per</title>
<polygon fill="white" stroke="none" points="-4,4 -4,-160 620,-160 620,4 -4,4"/>
<!-- Node1 -->
<g id="node1" class="node"><title>Node1</title>
<polygon fill="#bfbfbf" stroke="black" points="0,-71.5 0,-90.5 68,-90.5 68,-71.5 0,-71.5"/>
<text text-anchor="middle" x="34" y="-78.5" font-family="Helvetica,sans-Serif" font-size="10.00">localize_per</text>
</g>
<!-- Node2 -->
<g id="node2" class="node"><title>Node2</title>
<g id="a_node2"><a xlink:href="namespacesll__m__qn__2d__polar.html#a883ba9879c02de46738128b2c58f4b30" target="_top" xlink:title="sll_s_localize_polar">
<polygon fill="white" stroke="black" points="104,-71.5 104,-90.5 205,-90.5 205,-71.5 104,-71.5"/>
<text text-anchor="middle" x="154.5" y="-78.5" font-family="Helvetica,sans-Serif" font-size="10.00">sll_s_localize_polar</text>
</a>
</g>
</g>
<!-- Node1&#45;&gt;Node2 -->
<g id="edge1" class="edge"><title>Node1&#45;&gt;Node2</title>
<path fill="none" stroke="midnightblue" d="M78.2418,-81C86.5555,-81 95.3237,-81 103.822,-81"/>
<polygon fill="midnightblue" stroke="midnightblue" points="78.0089,-77.5001 68.0089,-81 78.0088,-84.5001 78.0089,-77.5001"/>
</g>
<!-- Node3 -->
<g id="node3" class="node"><title>Node3</title>
<g id="a_node3"><a xlink:href="namespacesll__m__qn__2d__polar.html#ab7df0b913d3a672e52e0856979998724" target="_top" xlink:title="sll_s_precompute_gyroaverage\l_index">
<polygon fill="white" stroke="black" points="257.5,-120 257.5,-150 409.5,-150 409.5,-120 257.5,-120"/>
<text text-anchor="start" x="265.5" y="-138" font-family="Helvetica,sans-Serif" font-size="10.00">sll_s_precompute_gyroaverage</text>
<text text-anchor="middle" x="333.5" y="-127" font-family="Helvetica,sans-Serif" font-size="10.00">_index</text>
</a>
</g>
</g>
<!-- Node2&#45;&gt;Node3 -->
<g id="edge2" class="edge"><title>Node2&#45;&gt;Node3</title>
<path fill="none" stroke="midnightblue" d="M190.754,-94.0912C206.096,-99.6007 224.342,-105.902 241,-111 251.05,-114.076 261.794,-117.114 272.257,-119.94"/>
<polygon fill="midnightblue" stroke="midnightblue" points="191.731,-90.7226 181.137,-90.6056 189.345,-97.3037 191.731,-90.7226"/>
</g>
<!-- Node5 -->
<g id="node5" class="node"><title>Node5</title>
<g id="a_node5"><a xlink:href="namespacesll__m__qn__2d__polar__precompute.html#af5241a268657b5cb855bfc84e92f8643" target="_top" xlink:title="sll_m_qn_2d_polar_precompute\l::pre_precompute_double_gyroaverage\l_coeff_polar_splines">
<polygon fill="white" stroke="black" points="241,-60.5 241,-101.5 426,-101.5 426,-60.5 241,-60.5"/>
<text text-anchor="start" x="249" y="-89.5" font-family="Helvetica,sans-Serif" font-size="10.00">sll_m_qn_2d_polar_precompute</text>
<text text-anchor="start" x="249" y="-78.5" font-family="Helvetica,sans-Serif" font-size="10.00">::pre_precompute_double_gyroaverage</text>
<text text-anchor="middle" x="333.5" y="-67.5" font-family="Helvetica,sans-Serif" font-size="10.00">_coeff_polar_splines</text>
</a>
</g>
</g>
<!-- Node2&#45;&gt;Node5 -->
<g id="edge4" class="edge"><title>Node2&#45;&gt;Node5</title>
<path fill="none" stroke="midnightblue" d="M215.447,-81C223.651,-81 232.222,-81 240.834,-81"/>
<polygon fill="midnightblue" stroke="midnightblue" points="215.275,-77.5001 205.275,-81 215.275,-84.5001 215.275,-77.5001"/>
</g>
<!-- Node7 -->
<g id="node7" class="node"><title>Node7</title>
<g id="a_node7"><a xlink:href="namespacesll__m__qn__2d__polar__precompute.html#a7ad60672f52b58e23fc83914c6fab721" target="_top" xlink:title="sll_m_qn_2d_polar_precompute\l::precompute_double_gyroaverage\l_coeff_polar_splines">
<polygon fill="white" stroke="black" points="250.5,-0.5 250.5,-41.5 416.5,-41.5 416.5,-0.5 250.5,-0.5"/>
<text text-anchor="start" x="258.5" y="-29.5" font-family="Helvetica,sans-Serif" font-size="10.00">sll_m_qn_2d_polar_precompute</text>
<text text-anchor="start" x="258.5" y="-18.5" font-family="Helvetica,sans-Serif" font-size="10.00">::precompute_double_gyroaverage</text>
<text text-anchor="middle" x="333.5" y="-7.5" font-family="Helvetica,sans-Serif" font-size="10.00">_coeff_polar_splines</text>
</a>
</g>
</g>
<!-- Node2&#45;&gt;Node7 -->
<g id="edge6" class="edge"><title>Node2&#45;&gt;Node7</title>
<path fill="none" stroke="midnightblue" d="M191.938,-68.0286C207.088,-62.684 224.87,-56.4735 241,-51 250.024,-47.938 259.565,-44.7523 268.946,-41.6497"/>
<polygon fill="midnightblue" stroke="midnightblue" points="190.667,-64.7656 182.406,-71.3994 193.001,-71.3651 190.667,-64.7656"/>
</g>
<!-- Node4 -->
<g id="node4" class="node"><title>Node4</title>
<g id="a_node4"><a xlink:href="namespacesll__m__qn__2d__polar__splines__solver.html#ad8c21089183e4a8bcdb6bd79c1e37a4b" target="_top" xlink:title="sll_m_qn_2d_polar_splines\l_solver::precompute_qn\l_2d_polar_splines">
<polygon fill="white" stroke="black" points="472,-114.5 472,-155.5 606,-155.5 606,-114.5 472,-114.5"/>
<text text-anchor="start" x="480" y="-143.5" font-family="Helvetica,sans-Serif" font-size="10.00">sll_m_qn_2d_polar_splines</text>
<text text-anchor="start" x="480" y="-132.5" font-family="Helvetica,sans-Serif" font-size="10.00">_solver::precompute_qn</text>
<text text-anchor="middle" x="539" y="-121.5" font-family="Helvetica,sans-Serif" font-size="10.00">_2d_polar_splines</text>
</a>
</g>
</g>
<!-- Node3&#45;&gt;Node4 -->
<g id="edge3" class="edge"><title>Node3&#45;&gt;Node4</title>
<path fill="none" stroke="midnightblue" d="M419.836,-135C437.211,-135 455.241,-135 471.828,-135"/>
<polygon fill="midnightblue" stroke="midnightblue" points="419.698,-131.5 409.698,-135 419.698,-138.5 419.698,-131.5"/>
</g>
<!-- Node6 -->
<g id="node6" class="node"><title>Node6</title>
<g id="a_node6"><a xlink:href="namespacesll__m__qn__2d__polar__precompute.html#a41d1928c191efdcfecf8bbb3688e7cee" target="_top" xlink:title="sll_m_qn_2d_polar_precompute\l::sll_s_compute_qns_matrix\l_polar_splines">
<polygon fill="white" stroke="black" points="462,-27.5 462,-68.5 616,-68.5 616,-27.5 462,-27.5"/>
<text text-anchor="start" x="470" y="-56.5" font-family="Helvetica,sans-Serif" font-size="10.00">sll_m_qn_2d_polar_precompute</text>
<text text-anchor="start" x="470" y="-45.5" font-family="Helvetica,sans-Serif" font-size="10.00">::sll_s_compute_qns_matrix</text>
<text text-anchor="middle" x="539" y="-34.5" font-family="Helvetica,sans-Serif" font-size="10.00">_polar_splines</text>
</a>
</g>
</g>
<!-- Node5&#45;&gt;Node6 -->
<g id="edge5" class="edge"><title>Node5&#45;&gt;Node6</title>
<path fill="none" stroke="midnightblue" d="M436.218,-64.5052C444.824,-63.1096 453.431,-61.714 461.791,-60.3582"/>
<polygon fill="midnightblue" stroke="midnightblue" points="435.44,-61.0855 426.13,-66.1411 436.561,-67.9952 435.44,-61.0855"/>
</g>
<!-- Node7&#45;&gt;Node6 -->
<g id="edge7" class="edge"><title>Node7&#45;&gt;Node6</title>
<path fill="none" stroke="midnightblue" d="M426.88,-33.2569C438.549,-34.805 450.383,-36.3751 461.762,-37.8848"/>
<polygon fill="midnightblue" stroke="midnightblue" points="427.058,-29.7499 416.685,-31.9041 426.137,-36.689 427.058,-29.7499"/>
</g>
</g>
</svg>
