<?xml version="1.0" encoding="UTF-8" standalone="no"?>
<!DOCTYPE svg PUBLIC "-//W3C//DTD SVG 1.1//EN"
 "http://www.w3.org/Graphics/SVG/1.1/DTD/svg11.dtd">
<!-- Generated by graphviz version 2.40.1 (20161225.0304)
 -->
<!-- Title: sll_s_create_comm_real64_ring Pages: 1 -->
<svg width="604pt" height="230pt"
 viewBox="0.00 0.00 604.00 229.50" xmlns="http://www.w3.org/2000/svg" xmlns:xlink="http://www.w3.org/1999/xlink">
<g id="graph0" class="graph" transform="scale(1 1) rotate(0) translate(4 225.5)">
<title>sll_s_create_comm_real64_ring</title>
<polygon fill="#ffffff" stroke="transparent" points="-4,4 -4,-225.5 600,-225.5 600,4 -4,4"/>
<!-- Node127 -->
<g id="node1" class="node">
<title>Node127</title>
<polygon fill="#bfbfbf" stroke="#000000" points="0,-147.5 0,-166.5 170,-166.5 170,-147.5 0,-147.5"/>
<text text-anchor="middle" x="85" y="-154.5" font-family="Helvetica,sans-Serif" font-size="10.00" fill="#000000">sll_s_create_comm_real64_ring</text>
</g>
<!-- Node128 -->
<g id="node2" class="node">
<title>Node128</title>
<g id="a_node2"><a xlink:href="namespacesll__m__collective.html#a396122f49340f0778eb448430d865b4e" target="_top" xlink:title="Determines the rank of the calling process in the communicator. ">
<polygon fill="#ffffff" stroke="#000000" points="206,-191 206,-221 332,-221 332,-191 206,-191"/>
<text text-anchor="start" x="214" y="-209" font-family="Helvetica,sans-Serif" font-size="10.00" fill="#000000">sll_m_collective::sll</text>
<text text-anchor="middle" x="269" y="-198" font-family="Helvetica,sans-Serif" font-size="10.00" fill="#000000">_f_get_collective_rank</text>
</a>
</g>
</g>
<!-- Node127&#45;&gt;Node128 -->
<g id="edge1" class="edge">
<title>Node127&#45;&gt;Node128</title>
<path fill="none" stroke="#191970" d="M120.9139,-166.564C144.1071,-172.7405 174.9907,-180.9649 202.5514,-188.3045"/>
<polygon fill="#191970" stroke="#191970" points="201.9707,-191.7717 212.5347,-190.963 203.7721,-185.0075 201.9707,-191.7717"/>
</g>
<!-- Node130 -->
<g id="node4" class="node">
<title>Node130</title>
<g id="a_node4"><a xlink:href="namespacesll__m__collective.html#af2d3c240d9dfe7e9c7d7f7c9e0529f17" target="_top" xlink:title="Determines the size of the group associated with a communicator. ">
<polygon fill="#ffffff" stroke="#000000" points="207,-142 207,-172 331,-172 331,-142 207,-142"/>
<text text-anchor="start" x="215" y="-160" font-family="Helvetica,sans-Serif" font-size="10.00" fill="#000000">sll_m_collective::sll</text>
<text text-anchor="middle" x="269" y="-149" font-family="Helvetica,sans-Serif" font-size="10.00" fill="#000000">_f_get_collective_size</text>
</a>
</g>
</g>
<!-- Node127&#45;&gt;Node130 -->
<g id="edge3" class="edge">
<title>Node127&#45;&gt;Node130</title>
<path fill="none" stroke="#191970" d="M170.2671,-157C179.1183,-157 188.0531,-157 196.7414,-157"/>
<polygon fill="#191970" stroke="#191970" points="196.8078,-160.5001 206.8077,-157 196.8077,-153.5001 196.8078,-160.5001"/>
</g>
<!-- Node131 -->
<g id="node5" class="node">
<title>Node131</title>
<g id="a_node5"><a xlink:href="namespacesll__m__point__to__point__comms.html#a6848a4501521376f77d25cbcc09eb298" target="_top" xlink:title="connect_ports">
<polygon fill="#ffffff" stroke="#000000" points="226.5,-90.5 226.5,-109.5 311.5,-109.5 311.5,-90.5 226.5,-90.5"/>
<text text-anchor="middle" x="269" y="-97.5" font-family="Helvetica,sans-Serif" font-size="10.00" fill="#000000">connect_ports</text>
</a>
</g>
</g>
<!-- Node127&#45;&gt;Node131 -->
<g id="edge5" class="edge">
<title>Node127&#45;&gt;Node131</title>
<path fill="none" stroke="#191970" d="M115.7975,-147.4595C146.7112,-137.8829 194.4979,-123.0795 228.4738,-112.5543"/>
<polygon fill="#191970" stroke="#191970" points="229.5856,-115.8741 238.1021,-109.5716 227.5142,-109.1875 229.5856,-115.8741"/>
</g>
<!-- Node129 -->
<g id="node3" class="node">
<title>Node129</title>
<g id="a_node3"><a xlink:href="namespacesll__m__collective.html#a37ea25f42a791be5a710a6cf0d1e1197" target="_top" xlink:title="Checks if the pointer ptr is associated to an object. ">
<polygon fill="#ffffff" stroke="#000000" points="368,-191 368,-221 490,-221 490,-191 368,-191"/>
<text text-anchor="start" x="376" y="-209" font-family="Helvetica,sans-Serif" font-size="10.00" fill="#000000">sll_m_collective::sll</text>
<text text-anchor="middle" x="429" y="-198" font-family="Helvetica,sans-Serif" font-size="10.00" fill="#000000">_check_collective_ptr</text>
</a>
</g>
</g>
<!-- Node128&#45;&gt;Node129 -->
<g id="edge2" class="edge">
<title>Node128&#45;&gt;Node129</title>
<path fill="none" stroke="#191970" d="M332.2362,-206C340.5576,-206 349.1323,-206 357.5781,-206"/>
<polygon fill="#191970" stroke="#191970" points="357.7903,-209.5001 367.7903,-206 357.7903,-202.5001 357.7903,-209.5001"/>
</g>
<!-- Node130&#45;&gt;Node129 -->
<g id="edge4" class="edge">
<title>Node130&#45;&gt;Node129</title>
<path fill="none" stroke="#191970" d="M318.3108,-172.1014C334.6598,-177.1083 353.0243,-182.7324 370.0252,-187.939"/>
<polygon fill="#191970" stroke="#191970" points="369.2654,-191.3667 379.852,-190.9484 371.3152,-184.6735 369.2654,-191.3667"/>
</g>
<!-- Node132 -->
<g id="node6" class="node">
<title>Node132</title>
<g id="a_node6"><a xlink:href="namespacesll__m__point__to__point__comms.html#a8b121863ece95e8dd94458f440835b18" target="_top" xlink:title="check_port">
<polygon fill="#ffffff" stroke="#000000" points="526,-76.5 526,-95.5 596,-95.5 596,-76.5 526,-76.5"/>
<text text-anchor="middle" x="561" y="-83.5" font-family="Helvetica,sans-Serif" font-size="10.00" fill="#000000">check_port</text>
</a>
</g>
</g>
<!-- Node131&#45;&gt;Node132 -->
<g id="edge6" class="edge">
<title>Node131&#45;&gt;Node132</title>
<path fill="none" stroke="#191970" d="M285.4674,-109.6694C304.5665,-120.2744 337.3608,-136.6333 368,-143 421.0882,-154.0314 438.8498,-160.9918 490,-143 512.4373,-135.1078 533.0273,-116.8013 546.19,-103.0494"/>
<polygon fill="#191970" stroke="#191970" points="548.8527,-105.3244 553.0396,-95.592 543.6973,-100.5892 548.8527,-105.3244"/>
</g>
<!-- Node133 -->
<g id="node7" class="node">
<title>Node133</title>
<g id="a_node7"><a xlink:href="namespacesll__m__point__to__point__comms.html#aec6d99aac06fc524a627fb7e72df31c6" target="_top" xlink:title="check_other_rank">
<polygon fill="#ffffff" stroke="#000000" points="377.5,-114.5 377.5,-133.5 480.5,-133.5 480.5,-114.5 377.5,-114.5"/>
<text text-anchor="middle" x="429" y="-121.5" font-family="Helvetica,sans-Serif" font-size="10.00" fill="#000000">check_other_rank</text>
</a>
</g>
</g>
<!-- Node131&#45;&gt;Node133 -->
<g id="edge7" class="edge">
<title>Node131&#45;&gt;Node133</title>
<path fill="none" stroke="#191970" d="M311.8771,-106.4316C328.9035,-108.9855 348.8125,-111.9719 367.3355,-114.7503"/>
<polygon fill="#191970" stroke="#191970" points="367.0478,-118.2462 377.4564,-116.2685 368.0862,-111.3237 367.0478,-118.2462"/>
</g>
<!-- Node134 -->
<g id="node8" class="node">
<title>Node134</title>
<g id="a_node8"><a xlink:href="namespacesll__m__point__to__point__comms.html#ace7366fed79af3987767fde1b8184410" target="_top" xlink:title="port_is_busy">
<polygon fill="#ffffff" stroke="#000000" points="390,-76.5 390,-95.5 468,-95.5 468,-76.5 390,-76.5"/>
<text text-anchor="middle" x="429" y="-83.5" font-family="Helvetica,sans-Serif" font-size="10.00" fill="#000000">port_is_busy</text>
</a>
</g>
</g>
<!-- Node131&#45;&gt;Node134 -->
<g id="edge8" class="edge">
<title>Node131&#45;&gt;Node134</title>
<path fill="none" stroke="#191970" d="M311.8771,-96.2483C332.8137,-94.4163 358.109,-92.203 379.8262,-90.3027"/>
<polygon fill="#191970" stroke="#191970" points="380.1868,-93.7846 389.8436,-89.4262 379.5765,-86.8113 380.1868,-93.7846"/>
</g>
<!-- Node135 -->
<g id="node9" class="node">
<title>Node135</title>
<g id="a_node9"><a xlink:href="namespacesll__m__point__to__point__comms.html#a419cb5e1f63300697382a581bc8c7862" target="_top" xlink:title="receive_tag">
<polygon fill="#ffffff" stroke="#000000" points="392,-.5 392,-19.5 466,-19.5 466,-.5 392,-.5"/>
<text text-anchor="middle" x="429" y="-7.5" font-family="Helvetica,sans-Serif" font-size="10.00" fill="#000000">receive_tag</text>
</a>
</g>
</g>
<!-- Node131&#45;&gt;Node135 -->
<g id="edge10" class="edge">
<title>Node131&#45;&gt;Node135</title>
<path fill="none" stroke="#191970" d="M279.8214,-90.4274C297.261,-75.4374 333.1637,-46.3488 368,-29 372.5379,-26.7401 377.3996,-24.6815 382.3251,-22.8245"/>
<polygon fill="#191970" stroke="#191970" points="383.5272,-26.1119 391.8069,-19.5016 381.2121,-19.5059 383.5272,-26.1119"/>
</g>
<!-- Node137 -->
<g id="node11" class="node">
<title>Node137</title>
<g id="a_node11"><a xlink:href="namespacesll__m__point__to__point__comms.html#a649d95ce15846973ed2e19fcf54b02fe" target="_top" xlink:title="flip_buffer">
<polygon fill="#ffffff" stroke="#000000" points="396.5,-38.5 396.5,-57.5 461.5,-57.5 461.5,-38.5 396.5,-38.5"/>
<text text-anchor="middle" x="429" y="-45.5" font-family="Helvetica,sans-Serif" font-size="10.00" fill="#000000">flip_buffer</text>
</a>
</g>
</g>
<!-- Node131&#45;&gt;Node137 -->
<g id="edge12" class="edge">
<title>Node131&#45;&gt;Node137</title>
<path fill="none" stroke="#191970" d="M297.1155,-90.4635C316.9048,-83.7915 344.0317,-74.7266 368,-67 374.5256,-64.8963 381.4563,-62.7009 388.2159,-60.5805"/>
<polygon fill="#191970" stroke="#191970" points="389.4279,-63.8688 397.9302,-57.5472 387.3415,-57.187 389.4279,-63.8688"/>
</g>
<!-- Node134&#45;&gt;Node132 -->
<g id="edge9" class="edge">
<title>Node134&#45;&gt;Node132</title>
<path fill="none" stroke="#191970" d="M468.247,-86C483.0662,-86 500.0515,-86 515.4034,-86"/>
<polygon fill="#191970" stroke="#191970" points="515.724,-89.5001 525.724,-86 515.724,-82.5001 515.724,-89.5001"/>
</g>
<!-- Node136 -->
<g id="node10" class="node">
<title>Node136</title>
<g id="a_node10"><a xlink:href="namespacesll__m__point__to__point__comms.html#a2ec99c657fccfca4a2631c9408e2a9c1" target="_top" xlink:title="flip_bit">
<polygon fill="#ffffff" stroke="#000000" points="536,-19.5 536,-38.5 586,-38.5 586,-19.5 536,-19.5"/>
<text text-anchor="middle" x="561" y="-26.5" font-family="Helvetica,sans-Serif" font-size="10.00" fill="#000000">flip_bit</text>
</a>
</g>
</g>
<!-- Node135&#45;&gt;Node136 -->
<g id="edge11" class="edge">
<title>Node135&#45;&gt;Node136</title>
<path fill="none" stroke="#191970" d="M466.1206,-15.3431C484.8209,-18.0348 507.3741,-21.2811 525.7992,-23.9332"/>
<polygon fill="#191970" stroke="#191970" points="525.4377,-27.4172 535.8343,-25.3777 526.435,-20.4886 525.4377,-27.4172"/>
</g>
<!-- Node137&#45;&gt;Node132 -->
<g id="edge13" class="edge">
<title>Node137&#45;&gt;Node132</title>
<path fill="none" stroke="#191970" d="M461.6292,-57.3933C478.6352,-62.2889 499.6525,-68.3394 517.972,-73.6131"/>
<polygon fill="#191970" stroke="#191970" points="517.2513,-77.0478 527.8293,-76.4509 519.1878,-70.3209 517.2513,-77.0478"/>
</g>
<!-- Node137&#45;&gt;Node136 -->
<g id="edge14" class="edge">
<title>Node137&#45;&gt;Node136</title>
<path fill="none" stroke="#191970" d="M461.6292,-43.3034C481.1332,-40.496 505.9133,-36.9291 525.8487,-34.0597"/>
<polygon fill="#191970" stroke="#191970" points="526.379,-37.5195 535.7784,-32.6304 525.3817,-30.5909 526.379,-37.5195"/>
</g>
</g>
</svg>
