<?xml version="1.0" encoding="UTF-8" standalone="no"?>
<!DOCTYPE svg PUBLIC "-//W3C//DTD SVG 1.1//EN"
 "http://www.w3.org/Graphics/SVG/1.1/DTD/svg11.dtd">
<!-- Generated by graphviz version 2.40.1 (20161225.0304)
 -->
<!-- Title: assemble_mixedmass_full Pages: 1 -->
<svg width="556pt" height="39pt"
 viewBox="0.00 0.00 556.00 39.00" xmlns="http://www.w3.org/2000/svg" xmlns:xlink="http://www.w3.org/1999/xlink">
<g id="graph0" class="graph" transform="scale(1 1) rotate(0) translate(4 35)">
<title>assemble_mixedmass_full</title>
<polygon fill="#ffffff" stroke="transparent" points="-4,4 -4,-35 552,-35 552,4 -4,4"/>
<!-- Node42 -->
<g id="node1" class="node">
<title>Node42</title>
<polygon fill="#bfbfbf" stroke="#000000" points="0,-6 0,-25 147,-25 147,-6 0,-6"/>
<text text-anchor="middle" x="73.5" y="-13" font-family="Helvetica,sans-Serif" font-size="10.00" fill="#000000">assemble_mixedmass_full</text>
</g>
<!-- Node43 -->
<g id="node2" class="node">
<title>Node43</title>
<g id="a_node2"><a xlink:href="namespacesll__m__spline__fem__utilities__sparse.html#a836d6dd47591a9908563b281f683ab2e" target="_top" xlink:title="sll_s_spline_fem_mixedmass1d_full">
<polygon fill="#ffffff" stroke="#000000" points="183,-6 183,-25 376,-25 376,-6 183,-6"/>
<text text-anchor="middle" x="279.5" y="-13" font-family="Helvetica,sans-Serif" font-size="10.00" fill="#000000">sll_s_spline_fem_mixedmass1d_full</text>
</a>
</g>
</g>
<!-- Node42&#45;&gt;Node43 -->
<g id="edge1" class="edge">
<title>Node42&#45;&gt;Node43</title>
<path fill="none" stroke="#191970" d="M157.4185,-15.5C165.807,-15.5 174.3705,-15.5 182.8757,-15.5"/>
<polygon fill="#191970" stroke="#191970" points="157.2889,-12.0001 147.2889,-15.5 157.2888,-19.0001 157.2889,-12.0001"/>
</g>
<!-- Node44 -->
<g id="node3" class="node">
<title>Node44</title>
<g id="a_node3"><a xlink:href="namespacesll__m__maxwell__1d__trafo.html#a379870fb13734539528b6b4fd558963f" target="_top" xlink:title="Initialization. ">
<polygon fill="#ffffff" stroke="#000000" points="412,-.5 412,-30.5 548,-30.5 548,-.5 412,-.5"/>
<text text-anchor="start" x="420" y="-18.5" font-family="Helvetica,sans-Serif" font-size="10.00" fill="#000000">sll_m_maxwell_1d_trafo</text>
<text text-anchor="middle" x="480" y="-7.5" font-family="Helvetica,sans-Serif" font-size="10.00" fill="#000000">::init_1d_trafo</text>
</a>
</g>
</g>
<!-- Node43&#45;&gt;Node44 -->
<g id="edge2" class="edge">
<title>Node43&#45;&gt;Node44</title>
<path fill="none" stroke="#191970" d="M386.366,-15.5C394.9911,-15.5 403.5506,-15.5 411.7876,-15.5"/>
<polygon fill="#191970" stroke="#191970" points="386.2263,-12.0001 376.2262,-15.5 386.2262,-19.0001 386.2263,-12.0001"/>
</g>
</g>
</svg>
