<?xml version="1.0" encoding="UTF-8" standalone="no"?>
<!DOCTYPE svg PUBLIC "-//W3C//DTD SVG 1.1//EN"
 "http://www.w3.org/Graphics/SVG/1.1/DTD/svg11.dtd">
<!-- Generated by graphviz version 2.40.1 (20161225.0304)
 -->
<!-- Title: get_omp_world_size Pages: 1 -->
<svg width="252pt" height="142pt"
 viewBox="0.00 0.00 252.00 142.00" xmlns="http://www.w3.org/2000/svg" xmlns:xlink="http://www.w3.org/1999/xlink">
<g id="graph0" class="graph" transform="scale(1 1) rotate(0) translate(4 138)">
<title>get_omp_world_size</title>
<polygon fill="#ffffff" stroke="transparent" points="-4,4 -4,-138 248,-138 248,4 -4,4"/>
<!-- Node45 -->
<g id="node1" class="node">
<title>Node45</title>
<polygon fill="#bfbfbf" stroke="#000000" points="0,-57.5 0,-76.5 116,-76.5 116,-57.5 0,-57.5"/>
<text text-anchor="middle" x="58" y="-64.5" font-family="Helvetica,sans-Serif" font-size="10.00" fill="#000000">get_omp_world_size</text>
</g>
<!-- Node46 -->
<g id="node2" class="node">
<title>Node46</title>
<g id="a_node2"><a xlink:href="namespacefmempool.html#a4707b24c669b90d37b91cf1b31104d60" target="_top" xlink:title="mp_init">
<polygon fill="#ffffff" stroke="#000000" points="171.5,-114.5 171.5,-133.5 224.5,-133.5 224.5,-114.5 171.5,-114.5"/>
<text text-anchor="middle" x="198" y="-121.5" font-family="Helvetica,sans-Serif" font-size="10.00" fill="#000000">mp_init</text>
</a>
</g>
</g>
<!-- Node45&#45;&gt;Node46 -->
<g id="edge1" class="edge">
<title>Node45&#45;&gt;Node46</title>
<path fill="none" stroke="#191970" d="M90.7671,-80.3409C116.4439,-90.795 151.548,-105.0874 174.4907,-114.4284"/>
<polygon fill="#191970" stroke="#191970" points="92.0145,-77.0698 81.4329,-76.5405 89.3748,-83.5531 92.0145,-77.0698"/>
</g>
<!-- Node47 -->
<g id="node3" class="node">
<title>Node47</title>
<g id="a_node3"><a xlink:href="namespacefmempool.html#acaa47cfd5441f3e1cb2611a852dfea18" target="_top" xlink:title="mp_finalize">
<polygon fill="#ffffff" stroke="#000000" points="161.5,-76.5 161.5,-95.5 234.5,-95.5 234.5,-76.5 161.5,-76.5"/>
<text text-anchor="middle" x="198" y="-83.5" font-family="Helvetica,sans-Serif" font-size="10.00" fill="#000000">mp_finalize</text>
</a>
</g>
</g>
<!-- Node45&#45;&gt;Node47 -->
<g id="edge2" class="edge">
<title>Node45&#45;&gt;Node47</title>
<path fill="none" stroke="#191970" d="M126.2939,-76.2685C138.4197,-77.9141 150.6137,-79.569 161.4195,-81.0355"/>
<polygon fill="#191970" stroke="#191970" points="126.5362,-72.7693 116.1563,-74.8926 125.5948,-79.7058 126.5362,-72.7693"/>
</g>
<!-- Node48 -->
<g id="node4" class="node">
<title>Node48</title>
<g id="a_node4"><a xlink:href="namespacefmempool.html#a23b26c974416200addfc443357e41ffe" target="_top" xlink:title="mp_compactify">
<polygon fill="#ffffff" stroke="#000000" points="152,-38.5 152,-57.5 244,-57.5 244,-38.5 152,-38.5"/>
<text text-anchor="middle" x="198" y="-45.5" font-family="Helvetica,sans-Serif" font-size="10.00" fill="#000000">mp_compactify</text>
</a>
</g>
</g>
<!-- Node45&#45;&gt;Node48 -->
<g id="edge3" class="edge">
<title>Node45&#45;&gt;Node48</title>
<path fill="none" stroke="#191970" d="M126.2511,-57.7373C134.8912,-56.5648 143.5668,-55.3874 151.751,-54.2766"/>
<polygon fill="#191970" stroke="#191970" points="125.5948,-54.2942 116.1563,-59.1074 126.5362,-61.2307 125.5948,-54.2942"/>
</g>
<!-- Node49 -->
<g id="node5" class="node">
<title>Node49</title>
<g id="a_node5"><a xlink:href="namespacefmempool.html#a5a4760ec9ec1446f3d541d7ddaa3ea0a" target="_top" xlink:title="mp_statistics">
<polygon fill="#ffffff" stroke="#000000" points="157,-.5 157,-19.5 239,-19.5 239,-.5 157,-.5"/>
<text text-anchor="middle" x="198" y="-7.5" font-family="Helvetica,sans-Serif" font-size="10.00" fill="#000000">mp_statistics</text>
</a>
</g>
</g>
<!-- Node45&#45;&gt;Node49 -->
<g id="edge4" class="edge">
<title>Node45&#45;&gt;Node49</title>
<path fill="none" stroke="#191970" d="M90.7671,-53.6591C116.4439,-43.205 151.548,-28.9126 174.4907,-19.5716"/>
<polygon fill="#191970" stroke="#191970" points="89.3748,-50.4469 81.4329,-57.4595 92.0145,-56.9302 89.3748,-50.4469"/>
</g>
</g>
</svg>
