<?xml version="1.0" encoding="UTF-8" standalone="no"?>
<!DOCTYPE svg PUBLIC "-//W3C//DTD SVG 1.1//EN"
 "http://www.w3.org/Graphics/SVG/1.1/DTD/svg11.dtd">
<!-- Generated by graphviz version 2.38.0 (20140413.2041)
 -->
<!-- Title: sll_s_cubic_spline_1d_init Pages: 1 -->
<!--zoomable 159 -->
<svg id="main" version="1.1" xmlns="http://www.w3.org/2000/svg" xmlns:xlink="http://www.w3.org/1999/xlink" xml:space="preserve" onload="init(evt)">
<style type="text/css"><![CDATA[
.edge:hover path { stroke: red; }
.edge:hover polygon { stroke: red; fill: red; }
]]></style>
<script type="text/javascript"><![CDATA[
var edges = document.getElementsByTagName('g');
if (edges && edges.length) {
  for (var i=0;i<edges.length;i++) {
    if (edges[i].id.substr(0,4)=='edge') {
      edges[i].setAttribute('class','edge');
    }
  }
}
]]></script>
        <defs>
                <circle id="rim" cx="0" cy="0" r="7"/>
                <circle id="rim2" cx="0" cy="0" r="3.5"/>
                <g id="zoomPlus">
                        <use xlink:href="#rim" fill="#404040">
                                <set attributeName="fill" to="#808080" begin="zoomplus.mouseover" end="zoomplus.mouseout"/>
                        </use>
                        <path d="M-4,0h8M0,-4v8" fill="none" stroke="white" stroke-width="1.5" pointer-events="none"/>
                </g>
                <g id="zoomMin">
                        <use xlink:href="#rim" fill="#404040">
                                <set attributeName="fill" to="#808080" begin="zoomminus.mouseover" end="zoomminus.mouseout"/>
                        </use>
                        <path d="M-4,0h8" fill="none" stroke="white" stroke-width="1.5" pointer-events="none"/>
                </g>
                <g id="dirArrow">
                        <path fill="none" stroke="white" stroke-width="1.5" d="M0,-3.0v7 M-2.5,-0.5L0,-3.0L2.5,-0.5"/>
                </g>
               <g id="resetDef">
                       <use xlink:href="#rim2" fill="#404040">
                               <set attributeName="fill" to="#808080" begin="reset.mouseover" end="reset.mouseout"/>
                       </use>
               </g>
        </defs>

<script type="text/javascript">
var viewWidth = 899;
var viewHeight = 159;
var sectionId = 'dynsection-37';
</script>
<script xlink:href="svgpan.js"/>
<svg id="graph" class="graph">
<g id="viewport">
<title>sll_s_cubic_spline_1d_init</title>
<polygon fill="white" stroke="none" points="-4,4 -4,-154.5 895,-154.5 895,4 -4,4"/>
<!-- Node1 -->
<g id="node1" class="node"><title>Node1</title>
<polygon fill="#bfbfbf" stroke="black" points="0,-66 0,-96 96,-96 96,-66 0,-66"/>
<text text-anchor="start" x="8" y="-84" font-family="Helvetica,sans-Serif" font-size="10.00">sll_s_cubic_spline</text>
<text text-anchor="middle" x="48" y="-73" font-family="Helvetica,sans-Serif" font-size="10.00">_1d_init</text>
</g>
<!-- Node2 -->
<g id="node2" class="node"><title>Node2</title>
<g id="a_node2"><a xlink:href="namespacesll__m__fdistribu4d__dk.html#ad019b52770477f636c8115bc5ad20475" target="_top" xlink:title="sll_m_fdistribu4d_dk\l::function_xy_from_r">
<polygon fill="white" stroke="black" points="150.5,-120 150.5,-150 256.5,-150 256.5,-120 150.5,-120"/>
<text text-anchor="start" x="158.5" y="-138" font-family="Helvetica,sans-Serif" font-size="10.00">sll_m_fdistribu4d_dk</text>
<text text-anchor="middle" x="203.5" y="-127" font-family="Helvetica,sans-Serif" font-size="10.00">::function_xy_from_r</text>
</a>
</g>
</g>
<!-- Node1&#45;&gt;Node2 -->
<g id="edge1" class="edge"><title>Node1&#45;&gt;Node2</title>
<path fill="none" stroke="midnightblue" d="M99.8777,-99.5596C110.48,-103.38 121.595,-107.349 132,-111 140.296,-113.911 149.159,-116.969 157.702,-119.89"/>
<polygon fill="midnightblue" stroke="midnightblue" points="100.914,-96.2126 90.3194,-96.1069 98.5355,-102.796 100.914,-96.2126"/>
</g>
<!-- Node3 -->
<g id="node3" class="node"><title>Node3</title>
<g id="a_node3"><a xlink:href="namespacesll__m__cubic__spline__interpolator__1d.html#ab4aeb5dca8bc5be6fb404ac5e1ae7365" target="_top" xlink:title="initialize cubic spline interpolator ">
<polygon fill="white" stroke="black" points="140,-60.5 140,-101.5 267,-101.5 267,-60.5 140,-60.5"/>
<text text-anchor="start" x="148" y="-89.5" font-family="Helvetica,sans-Serif" font-size="10.00">sll_m_cubic_spline</text>
<text text-anchor="start" x="148" y="-78.5" font-family="Helvetica,sans-Serif" font-size="10.00">_interpolator_1d::initialize</text>
<text text-anchor="middle" x="203.5" y="-67.5" font-family="Helvetica,sans-Serif" font-size="10.00">_cs1d_interpolator</text>
</a>
</g>
</g>
<!-- Node1&#45;&gt;Node3 -->
<g id="edge2" class="edge"><title>Node1&#45;&gt;Node3</title>
<path fill="none" stroke="midnightblue" d="M106.522,-81C117.384,-81 128.795,-81 139.806,-81"/>
<polygon fill="midnightblue" stroke="midnightblue" points="106.308,-77.5001 96.3076,-81 106.308,-84.5001 106.308,-77.5001"/>
</g>
<!-- Node7 -->
<g id="node7" class="node"><title>Node7</title>
<g id="a_node7"><a xlink:href="namespacesll__m__cubic__spline__interpolator__1d__nonuniform.html#a949072be71d85ad42efeb69878a0fc14" target="_top" xlink:title="initialize cubic spline interpolator ">
<polygon fill="white" stroke="black" points="132,-0.5 132,-41.5 275,-41.5 275,-0.5 132,-0.5"/>
<text text-anchor="start" x="140" y="-29.5" font-family="Helvetica,sans-Serif" font-size="10.00">sll_m_cubic_spline</text>
<text text-anchor="start" x="140" y="-18.5" font-family="Helvetica,sans-Serif" font-size="10.00">_interpolator_1d_nonuniform</text>
<text text-anchor="middle" x="203.5" y="-7.5" font-family="Helvetica,sans-Serif" font-size="10.00">::initialize_cs1d_interpolator2</text>
</a>
</g>
</g>
<!-- Node1&#45;&gt;Node7 -->
<g id="edge6" class="edge"><title>Node1&#45;&gt;Node7</title>
<path fill="none" stroke="midnightblue" d="M97.3024,-62.1196C114.013,-55.5876 132.82,-48.2364 149.862,-41.5751"/>
<polygon fill="midnightblue" stroke="midnightblue" points="95.7741,-58.959 87.7345,-65.8595 98.3225,-65.4787 95.7741,-58.959"/>
</g>
<!-- Node4 -->
<g id="node4" class="node"><title>Node4</title>
<g id="a_node4"><a xlink:href="namespacesll__m__cubic__spline__interpolator__1d.html#ad719154e2d5d34641021bab462fbe00f" target="_top" xlink:title="PLEASE ADD DOCUMENTATION. ">
<polygon fill="white" stroke="black" points="311,-60.5 311,-101.5 487,-101.5 487,-60.5 311,-60.5"/>
<text text-anchor="start" x="319" y="-89.5" font-family="Helvetica,sans-Serif" font-size="10.00">sll_m_cubic_spline</text>
<text text-anchor="start" x="319" y="-78.5" font-family="Helvetica,sans-Serif" font-size="10.00">_interpolator_1d::sll</text>
<text text-anchor="middle" x="399" y="-67.5" font-family="Helvetica,sans-Serif" font-size="10.00">_f_new_cubic_spline_interpolator_1d</text>
</a>
</g>
</g>
<!-- Node3&#45;&gt;Node4 -->
<g id="edge3" class="edge"><title>Node3&#45;&gt;Node4</title>
<path fill="none" stroke="midnightblue" d="M277.336,-81C288.215,-81 299.525,-81 310.667,-81"/>
<polygon fill="midnightblue" stroke="midnightblue" points="277.057,-77.5001 267.057,-81 277.057,-84.5001 277.057,-77.5001"/>
</g>
<!-- Node5 -->
<g id="node5" class="node"><title>Node5</title>
<g id="a_node5"><a xlink:href="namespacesll__m__poisson__2d__mudpack__curvilinear.html#aafe1b9a1d79ddc7a217d3a14a73c418d" target="_top" xlink:title="sll_m_poisson_2d_mudpack\l_curvilinear::initialize\l_poisson_2d_mudpack_curvilinear">
<polygon fill="white" stroke="black" points="523,-60.5 523,-101.5 689,-101.5 689,-60.5 523,-60.5"/>
<text text-anchor="start" x="531" y="-89.5" font-family="Helvetica,sans-Serif" font-size="10.00">sll_m_poisson_2d_mudpack</text>
<text text-anchor="start" x="531" y="-78.5" font-family="Helvetica,sans-Serif" font-size="10.00">_curvilinear::initialize</text>
<text text-anchor="middle" x="606" y="-67.5" font-family="Helvetica,sans-Serif" font-size="10.00">_poisson_2d_mudpack_curvilinear</text>
</a>
</g>
</g>
<!-- Node4&#45;&gt;Node5 -->
<g id="edge4" class="edge"><title>Node4&#45;&gt;Node5</title>
<path fill="none" stroke="midnightblue" d="M497.495,-81C505.938,-81 514.425,-81 522.728,-81"/>
<polygon fill="midnightblue" stroke="midnightblue" points="497.236,-77.5001 487.236,-81 497.236,-84.5001 497.236,-77.5001"/>
</g>
<!-- Node6 -->
<g id="node6" class="node"><title>Node6</title>
<g id="a_node6"><a xlink:href="namespacesll__m__poisson__2d__mudpack__curvilinear.html#a030b51f0e3782ea9c0e5dc2c0c27f035" target="_top" xlink:title="PLEASE ADD DOCUMENTATION. ">
<polygon fill="white" stroke="black" points="725,-60.5 725,-101.5 891,-101.5 891,-60.5 725,-60.5"/>
<text text-anchor="start" x="733" y="-89.5" font-family="Helvetica,sans-Serif" font-size="10.00">sll_m_poisson_2d_mudpack</text>
<text text-anchor="start" x="733" y="-78.5" font-family="Helvetica,sans-Serif" font-size="10.00">_curvilinear::sll_f_new</text>
<text text-anchor="middle" x="808" y="-67.5" font-family="Helvetica,sans-Serif" font-size="10.00">_poisson_2d_mudpack_curvilinear</text>
</a>
</g>
</g>
<!-- Node5&#45;&gt;Node6 -->
<g id="edge5" class="edge"><title>Node5&#45;&gt;Node6</title>
<path fill="none" stroke="midnightblue" d="M699.466,-81C707.914,-81 716.434,-81 724.783,-81"/>
<polygon fill="midnightblue" stroke="midnightblue" points="699.213,-77.5001 689.213,-81 699.213,-84.5001 699.213,-77.5001"/>
</g>
</g>
</svg>
        <g id="navigator" transform="translate(0 0)" fill="#404254">
                <rect fill="#f2f5e9" fill-opacity="0.5" stroke="#606060" stroke-width=".5" x="0" y="0" width="60" height="60"/>
                <use id="zoomplus" xlink:href="#zoomPlus" x="17" y="9" onmousedown="handleZoom(evt,'in')"/>
                <use id="zoomminus" xlink:href="#zoomMin" x="42" y="9" onmousedown="handleZoom(evt,'out')"/>
                <use id="reset" xlink:href="#resetDef" x="30" y="36" onmousedown="handleReset()"/>
                <g id="arrowUp" xlink:href="#dirArrow" transform="translate(30 24)" onmousedown="handlePan(0,-1)">
                  <use xlink:href="#rim" fill="#404040">
                        <set attributeName="fill" to="#808080" begin="arrowUp.mouseover" end="arrowUp.mouseout"/>
                  </use>
                  <path fill="none" stroke="white" stroke-width="1.5" d="M0,-3.0v7 M-2.5,-0.5L0,-3.0L2.5,-0.5"/>
                </g>
                <g id="arrowRight" xlink:href="#dirArrow" transform="rotate(90) translate(36 -43)" onmousedown="handlePan(1,0)">
                  <use xlink:href="#rim" fill="#404040">
                        <set attributeName="fill" to="#808080" begin="arrowRight.mouseover" end="arrowRight.mouseout"/>
                  </use>
                  <path fill="none" stroke="white" stroke-width="1.5" d="M0,-3.0v7 M-2.5,-0.5L0,-3.0L2.5,-0.5"/>
                </g>
                <g id="arrowDown" xlink:href="#dirArrow" transform="rotate(180) translate(-30 -48)" onmousedown="handlePan(0,1)">
                  <use xlink:href="#rim" fill="#404040">
                        <set attributeName="fill" to="#808080" begin="arrowDown.mouseover" end="arrowDown.mouseout"/>
                  </use>
                  <path fill="none" stroke="white" stroke-width="1.5" d="M0,-3.0v7 M-2.5,-0.5L0,-3.0L2.5,-0.5"/>
                </g>
                <g id="arrowLeft" xlink:href="#dirArrow" transform="rotate(270) translate(-36 17)" onmousedown="handlePan(-1,0)">
                  <use xlink:href="#rim" fill="#404040">
                        <set attributeName="fill" to="#808080" begin="arrowLeft.mouseover" end="arrowLeft.mouseout"/>
                  </use>
                  <path fill="none" stroke="white" stroke-width="1.5" d="M0,-3.0v7 M-2.5,-0.5L0,-3.0L2.5,-0.5"/>
                </g>
        </g>
        <svg viewBox="0 0 15 15" width="100%" height="30px" preserveAspectRatio="xMaxYMin meet">
         <g id="arrow_out" transform="scale(0.3 0.3)">
          <a xlink:href="namespacesll__m__cubic__splines_a987fec37aa6a4bc8e01a954be0a3f922_icgraph_org.svg" target="_base">
           <rect id="button" ry="5" rx="5" y="6" x="6" height="38" width="38"
                fill="#f2f5e9" fill-opacity="0.5" stroke="#606060" stroke-width="1.0"/>
           <path id="arrow"
             d="M 11.500037,31.436501 C 11.940474,20.09759 22.043105,11.32322 32.158766,21.979434 L 37.068811,17.246167 C 37.068811,17.246167 37.088388,32 37.088388,32 L 22.160133,31.978069 C 22.160133,31.978069 26.997745,27.140456 26.997745,27.140456 C 18.528582,18.264221 13.291696,25.230495 11.500037,31.436501 z"
             style="fill:#404040;"/>
          </a>
         </g>
        </svg>
</svg>
