<?xml version="1.0" encoding="UTF-8" standalone="no"?>
<!DOCTYPE svg PUBLIC "-//W3C//DTD SVG 1.1//EN"
 "http://www.w3.org/Graphics/SVG/1.1/DTD/svg11.dtd">
<!-- Generated by graphviz version 2.38.0 (20140413.2041)
 -->
<!-- Title: sll_f_new_distribution_function_4d_multipatch Pages: 1 -->
<svg width="427pt" height="88pt"
 viewBox="0.00 0.00 427.00 88.00" xmlns="http://www.w3.org/2000/svg" xmlns:xlink="http://www.w3.org/1999/xlink">
<g id="graph0" class="graph" transform="scale(1 1) rotate(0) translate(4 84)">
<title>sll_f_new_distribution_function_4d_multipatch</title>
<polygon fill="white" stroke="none" points="-4,4 -4,-84 423,-84 423,4 -4,4"/>
<!-- Node1 -->
<g id="node1" class="node"><title>Node1</title>
<polygon fill="#bfbfbf" stroke="black" points="0,-24.5 0,-54.5 122,-54.5 122,-24.5 0,-24.5"/>
<text text-anchor="start" x="8" y="-42.5" font-family="Helvetica,sans-Serif" font-size="10.00">sll_f_new_distribution</text>
<text text-anchor="middle" x="61" y="-31.5" font-family="Helvetica,sans-Serif" font-size="10.00">_function_4d_multipatch</text>
</g>
<!-- Node2 -->
<g id="node2" class="node"><title>Node2</title>
<g id="a_node2"><a xlink:href="namespacesll__m__collective.html#af2d3c240d9dfe7e9c7d7f7c9e0529f17" target="_top" xlink:title="Determines the size of the group associated with a communicator. ">
<polygon fill="white" stroke="black" points="158.5,-49.5 158.5,-79.5 271.5,-79.5 271.5,-49.5 158.5,-49.5"/>
<text text-anchor="start" x="166.5" y="-67.5" font-family="Helvetica,sans-Serif" font-size="10.00">sll_m_collective::sll</text>
<text text-anchor="middle" x="215" y="-56.5" font-family="Helvetica,sans-Serif" font-size="10.00">_f_get_collective_size</text>
</a>
</g>
</g>
<!-- Node1&#45;&gt;Node2 -->
<g id="edge1" class="edge"><title>Node1&#45;&gt;Node2</title>
<path fill="none" stroke="midnightblue" d="M122.074,-49.3807C130.663,-50.7933 139.536,-52.2526 148.227,-53.682"/>
<polygon fill="midnightblue" stroke="midnightblue" points="147.882,-57.1723 158.318,-55.3417 149.018,-50.2651 147.882,-57.1723"/>
</g>
<!-- Node4 -->
<g id="node4" class="node"><title>Node4</title>
<g id="a_node4"><a xlink:href="namespacesll__m__collective.html#a396122f49340f0778eb448430d865b4e" target="_top" xlink:title="Determines the rank of the calling process in the communicator. ">
<polygon fill="white" stroke="black" points="158,-0.5 158,-30.5 272,-30.5 272,-0.5 158,-0.5"/>
<text text-anchor="start" x="166" y="-18.5" font-family="Helvetica,sans-Serif" font-size="10.00">sll_m_collective::sll</text>
<text text-anchor="middle" x="215" y="-7.5" font-family="Helvetica,sans-Serif" font-size="10.00">_f_get_collective_rank</text>
</a>
</g>
</g>
<!-- Node1&#45;&gt;Node4 -->
<g id="edge3" class="edge"><title>Node1&#45;&gt;Node4</title>
<path fill="none" stroke="midnightblue" d="M122.074,-30.0146C130.544,-28.6773 139.289,-27.2964 147.864,-25.9425"/>
<polygon fill="midnightblue" stroke="midnightblue" points="148.494,-29.3865 157.826,-24.3696 147.402,-22.4721 148.494,-29.3865"/>
</g>
<!-- Node3 -->
<g id="node3" class="node"><title>Node3</title>
<g id="a_node3"><a xlink:href="namespacesll__m__collective.html#a37ea25f42a791be5a710a6cf0d1e1197" target="_top" xlink:title="Checks if the pointer ptr is associated to an object. ">
<polygon fill="white" stroke="black" points="308,-24.5 308,-54.5 419,-54.5 419,-24.5 308,-24.5"/>
<text text-anchor="start" x="316" y="-42.5" font-family="Helvetica,sans-Serif" font-size="10.00">sll_m_collective::sll</text>
<text text-anchor="middle" x="363.5" y="-31.5" font-family="Helvetica,sans-Serif" font-size="10.00">_check_collective_ptr</text>
</a>
</g>
</g>
<!-- Node2&#45;&gt;Node3 -->
<g id="edge2" class="edge"><title>Node2&#45;&gt;Node3</title>
<path fill="none" stroke="midnightblue" d="M271.803,-54.9773C280.289,-53.5292 289.106,-52.0246 297.762,-50.5475"/>
<polygon fill="midnightblue" stroke="midnightblue" points="298.552,-53.9634 307.82,-48.831 297.374,-47.0631 298.552,-53.9634"/>
</g>
<!-- Node4&#45;&gt;Node3 -->
<g id="edge4" class="edge"><title>Node4&#45;&gt;Node3</title>
<path fill="none" stroke="midnightblue" d="M272.222,-24.7104C280.573,-26.0786 289.237,-27.4979 297.747,-28.8919"/>
<polygon fill="midnightblue" stroke="midnightblue" points="297.202,-32.3493 307.636,-30.5121 298.334,-25.4414 297.202,-32.3493"/>
</g>
</g>
</svg>
