<?xml version="1.0" encoding="UTF-8" standalone="no"?>
<!DOCTYPE svg PUBLIC "-//W3C//DTD SVG 1.1//EN"
 "http://www.w3.org/Graphics/SVG/1.1/DTD/svg11.dtd">
<!-- Generated by graphviz version 2.38.0 (20140413.2041)
 -->
<!-- Title: sll_s_fft_exec_r2r_1d Pages: 1 -->
<svg width="266pt" height="165pt"
 viewBox="0.00 0.00 266.00 165.00" xmlns="http://www.w3.org/2000/svg" xmlns:xlink="http://www.w3.org/1999/xlink">
<g id="graph0" class="graph" transform="scale(1 1) rotate(0) translate(4 161)">
<title>sll_s_fft_exec_r2r_1d</title>
<polygon fill="white" stroke="none" points="-4,4 -4,-161 262,-161 262,4 -4,4"/>
<!-- Node1 -->
<g id="node1" class="node"><title>Node1</title>
<polygon fill="#bfbfbf" stroke="black" points="0,-68.5 0,-87.5 110,-87.5 110,-68.5 0,-68.5"/>
<text text-anchor="middle" x="55" y="-75.5" font-family="Helvetica,sans-Serif" font-size="10.00">sll_s_fft_exec_r2r_1d</text>
</g>
<!-- Node2 -->
<g id="node2" class="node"><title>Node2</title>
<g id="a_node2"><a xlink:href="namespacesll__m__fft.html#a07ee4cd52316d2769eee6c35861d1482" target="_top" xlink:title="Compute fast Fourier transform in real to complex mode. ">
<polygon fill="white" stroke="black" points="146,-137.5 146,-156.5 258,-156.5 258,-137.5 146,-137.5"/>
<text text-anchor="middle" x="202" y="-144.5" font-family="Helvetica,sans-Serif" font-size="10.00">sll_s_fft_exec_r2c_1d</text>
</a>
</g>
</g>
<!-- Node1&#45;&gt;Node2 -->
<g id="edge1" class="edge"><title>Node1&#45;&gt;Node2</title>
<path fill="none" stroke="midnightblue" d="M71.1866,-87.5158C88.7477,-98.2619 118.742,-115.832 146,-128 150.722,-130.108 155.755,-132.132 160.785,-134.023"/>
<polygon fill="midnightblue" stroke="midnightblue" points="159.778,-137.38 170.373,-137.479 162.152,-130.795 159.778,-137.38"/>
</g>
<!-- Node3 -->
<g id="node3" class="node"><title>Node3</title>
<g id="a_node3"><a xlink:href="namespacesll__m__fft.html#a4b923cd83abdc837029b1eae8fe0d4ed" target="_top" xlink:title="Subroutine to set a complex mode to the real representation of r2r. ">
<polygon fill="white" stroke="black" points="152.5,-88 152.5,-118 251.5,-118 251.5,-88 152.5,-88"/>
<text text-anchor="start" x="160.5" y="-106" font-family="Helvetica,sans-Serif" font-size="10.00">sll_s_fft_set_mode</text>
<text text-anchor="middle" x="202" y="-95" font-family="Helvetica,sans-Serif" font-size="10.00">_c2r_1d</text>
</a>
</g>
</g>
<!-- Node1&#45;&gt;Node3 -->
<g id="edge2" class="edge"><title>Node1&#45;&gt;Node3</title>
<path fill="none" stroke="midnightblue" d="M110.405,-87.3802C120.88,-89.1861 131.892,-91.0849 142.49,-92.9122"/>
<polygon fill="midnightblue" stroke="midnightblue" points="142.044,-96.3868 152.493,-94.6368 143.234,-89.4885 142.044,-96.3868"/>
</g>
<!-- Node4 -->
<g id="node4" class="node"><title>Node4</title>
<g id="a_node4"><a xlink:href="namespacesll__m__fft.html#af3511e8ad158957634b1fd7ee1d2e73b" target="_top" xlink:title="Function to reconstruct a complex FFT mode from the data of a r2r transform. ">
<polygon fill="white" stroke="black" points="153.5,-39 153.5,-69 250.5,-69 250.5,-39 153.5,-39"/>
<text text-anchor="start" x="161.5" y="-57" font-family="Helvetica,sans-Serif" font-size="10.00">sll_f_fft_get_mode</text>
<text text-anchor="middle" x="202" y="-46" font-family="Helvetica,sans-Serif" font-size="10.00">_r2c_1d</text>
</a>
</g>
</g>
<!-- Node1&#45;&gt;Node4 -->
<g id="edge3" class="edge"><title>Node1&#45;&gt;Node4</title>
<path fill="none" stroke="midnightblue" d="M110.405,-68.995C121.234,-67.2027 132.638,-65.3152 143.564,-63.5067"/>
<polygon fill="midnightblue" stroke="midnightblue" points="144.14,-66.9591 153.434,-61.873 142.996,-60.0531 144.14,-66.9591"/>
</g>
<!-- Node5 -->
<g id="node5" class="node"><title>Node5</title>
<g id="a_node5"><a xlink:href="namespacesll__m__fft.html#a293ae19515b20fa6d456ef2c52f99b23" target="_top" xlink:title="Compute fast Fourier transform in complex to real mode. ">
<polygon fill="white" stroke="black" points="146,-0.5 146,-19.5 258,-19.5 258,-0.5 146,-0.5"/>
<text text-anchor="middle" x="202" y="-7.5" font-family="Helvetica,sans-Serif" font-size="10.00">sll_s_fft_exec_c2r_1d</text>
</a>
</g>
</g>
<!-- Node1&#45;&gt;Node5 -->
<g id="edge4" class="edge"><title>Node1&#45;&gt;Node5</title>
<path fill="none" stroke="midnightblue" d="M72.239,-68.4397C89.999,-58.1986 119.475,-41.8252 146,-30 151.41,-27.5882 157.208,-25.2377 162.937,-23.0457"/>
<polygon fill="midnightblue" stroke="midnightblue" points="164.274,-26.2828 172.433,-19.5233 161.84,-19.7198 164.274,-26.2828"/>
</g>
</g>
</svg>
