<?xml version="1.0" encoding="UTF-8" standalone="no"?>
<!DOCTYPE svg PUBLIC "-//W3C//DTD SVG 1.1//EN"
 "http://www.w3.org/Graphics/SVG/1.1/DTD/svg11.dtd">
<!-- Generated by graphviz version 2.38.0 (20140413.2041)
 -->
<!-- Title: write_to_file_discrete_2d Pages: 1 -->
<svg width="457pt" height="245pt"
 viewBox="0.00 0.00 457.00 245.00" xmlns="http://www.w3.org/2000/svg" xmlns:xlink="http://www.w3.org/1999/xlink">
<g id="graph0" class="graph" transform="scale(1 1) rotate(0) translate(4 241)">
<title>write_to_file_discrete_2d</title>
<polygon fill="white" stroke="none" points="-4,4 -4,-241 453,-241 453,4 -4,4"/>
<!-- Node1 -->
<g id="node1" class="node"><title>Node1</title>
<polygon fill="#bfbfbf" stroke="black" points="0,-160 0,-179 125,-179 125,-160 0,-160"/>
<text text-anchor="middle" x="62.5" y="-167" font-family="Helvetica,sans-Serif" font-size="10.00">write_to_file_discrete_2d</text>
</g>
<!-- Node2 -->
<g id="node2" class="node"><title>Node2</title>
<g id="a_node2"><a xlink:href="namespacesll__m__utilities.html#a4d45f033e67c39369da8b297302793cb" target="_top" xlink:title="Convert an integer &lt; 9999 to a 4 characters string. ">
<polygon fill="white" stroke="black" points="337,-206.5 337,-236.5 429,-236.5 429,-206.5 337,-206.5"/>
<text text-anchor="start" x="345" y="-224.5" font-family="Helvetica,sans-Serif" font-size="10.00">sll_m_utilities::sll</text>
<text text-anchor="middle" x="383" y="-213.5" font-family="Helvetica,sans-Serif" font-size="10.00">_s_int2string</text>
</a>
</g>
</g>
<!-- Node1&#45;&gt;Node2 -->
<g id="edge1" class="edge"><title>Node1&#45;&gt;Node2</title>
<path fill="none" stroke="midnightblue" d="M121.918,-179.038C180.366,-188.58 269.598,-203.149 326.861,-212.498"/>
<polygon fill="midnightblue" stroke="midnightblue" points="326.382,-215.966 336.816,-214.123 327.51,-209.057 326.382,-215.966"/>
</g>
<!-- Node3 -->
<g id="node3" class="node"><title>Node3</title>
<g id="a_node3"><a xlink:href="namespacesll__m__xdmf.html#a867e9a647f21e95b34565b0cb88d1cfc" target="_top" xlink:title="Subroutine to write a 2D array in xdmf format. The field is describe on a cartesian mesh...">
<polygon fill="white" stroke="black" points="161,-118.5 161,-148.5 281,-148.5 281,-118.5 161,-118.5"/>
<text text-anchor="start" x="169" y="-136.5" font-family="Helvetica,sans-Serif" font-size="10.00">sll_m_xdmf::sll_s_xdmf</text>
<text text-anchor="middle" x="221" y="-125.5" font-family="Helvetica,sans-Serif" font-size="10.00">_curv2d_nodes</text>
</a>
</g>
</g>
<!-- Node1&#45;&gt;Node3 -->
<g id="edge2" class="edge"><title>Node1&#45;&gt;Node3</title>
<path fill="none" stroke="midnightblue" d="M105.028,-159.947C119.068,-156.718 135.147,-153.019 150.743,-149.431"/>
<polygon fill="midnightblue" stroke="midnightblue" points="151.935,-152.749 160.896,-147.096 150.366,-145.927 151.935,-152.749"/>
</g>
<!-- Node3&#45;&gt;Node2 -->
<g id="edge3" class="edge"><title>Node3&#45;&gt;Node2</title>
<path fill="none" stroke="midnightblue" d="M241.522,-148.695C260.15,-162.687 289.387,-183.36 317,-197.5 320.455,-199.269 324.071,-200.974 327.754,-202.601"/>
<polygon fill="midnightblue" stroke="midnightblue" points="326.414,-205.835 336.989,-206.484 329.127,-199.382 326.414,-205.835"/>
</g>
<!-- Node4 -->
<g id="node4" class="node"><title>Node4</title>
<g id="a_node4"><a xlink:href="namespacesll__m__xml__io.html#aa79c90960210f0f247699f5c6559531a" target="_top" xlink:title="Create the XML file and begin to write first lines. You get the file unit number. ...">
<polygon fill="white" stroke="black" points="333,-157.5 333,-187.5 433,-187.5 433,-157.5 333,-157.5"/>
<text text-anchor="start" x="341" y="-175.5" font-family="Helvetica,sans-Serif" font-size="10.00">sll_m_xml_io::sll_s</text>
<text text-anchor="middle" x="383" y="-164.5" font-family="Helvetica,sans-Serif" font-size="10.00">_xml_file_create</text>
</a>
</g>
</g>
<!-- Node3&#45;&gt;Node4 -->
<g id="edge4" class="edge"><title>Node3&#45;&gt;Node4</title>
<path fill="none" stroke="midnightblue" d="M281.124,-147.911C294.805,-151.246 309.363,-154.795 323.038,-158.128"/>
<polygon fill="midnightblue" stroke="midnightblue" points="322.27,-161.543 332.814,-160.511 323.928,-154.742 322.27,-161.543"/>
</g>
<!-- Node5 -->
<g id="node5" class="node"><title>Node5</title>
<g id="a_node5"><a xlink:href="namespacesll__m__hdf5__io__serial.html#a4ee38dc50c13e54d6b1e905ca852e49b" target="_top" xlink:title="Create new HDF5 file. ">
<polygon fill="white" stroke="black" points="330.5,-98 330.5,-139 435.5,-139 435.5,-98 330.5,-98"/>
<text text-anchor="start" x="338.5" y="-127" font-family="Helvetica,sans-Serif" font-size="10.00">sll_m_hdf5_io_serial</text>
<text text-anchor="start" x="338.5" y="-116" font-family="Helvetica,sans-Serif" font-size="10.00">::sll_s_hdf5_ser_file</text>
<text text-anchor="middle" x="383" y="-105" font-family="Helvetica,sans-Serif" font-size="10.00">_create</text>
</a>
</g>
</g>
<!-- Node3&#45;&gt;Node5 -->
<g id="edge5" class="edge"><title>Node3&#45;&gt;Node5</title>
<path fill="none" stroke="midnightblue" d="M281.124,-127.957C293.908,-126.759 307.456,-125.488 320.335,-124.281"/>
<polygon fill="midnightblue" stroke="midnightblue" points="320.863,-127.747 330.493,-123.329 320.209,-120.778 320.863,-127.747"/>
</g>
<!-- Node6 -->
<g id="node6" class="node"><title>Node6</title>
<g id="a_node6"><a xlink:href="namespacesll__m__hdf5__io__serial.html#aad08ae9d9ee0157ed6f78f50717367f1" target="_top" xlink:title="Close existing HDF5 file. ">
<polygon fill="white" stroke="black" points="317,-49.5 317,-79.5 449,-79.5 449,-49.5 317,-49.5"/>
<text text-anchor="start" x="325" y="-67.5" font-family="Helvetica,sans-Serif" font-size="10.00">sll_m_hdf5_io_serial</text>
<text text-anchor="middle" x="383" y="-56.5" font-family="Helvetica,sans-Serif" font-size="10.00">::sll_s_hdf5_ser_file_close</text>
</a>
</g>
</g>
<!-- Node3&#45;&gt;Node6 -->
<g id="edge6" class="edge"><title>Node3&#45;&gt;Node6</title>
<path fill="none" stroke="midnightblue" d="M252.067,-118.419C270.602,-109.333 294.962,-97.7667 317,-88.5 321.167,-86.7478 325.511,-84.9929 329.891,-83.2739"/>
<polygon fill="midnightblue" stroke="midnightblue" points="331.405,-86.4414 339.48,-79.5827 328.89,-79.9087 331.405,-86.4414"/>
</g>
<!-- Node7 -->
<g id="node7" class="node"><title>Node7</title>
<g id="a_node7"><a xlink:href="namespacesll__m__xml__io.html#a214cc5ba4867ca81aa2551a414b4d2c2" target="_top" xlink:title="Close the XML file and finish to write last lines. You give the file unit number. ...">
<polygon fill="white" stroke="black" points="333,-0.5 333,-30.5 433,-30.5 433,-0.5 333,-0.5"/>
<text text-anchor="start" x="341" y="-18.5" font-family="Helvetica,sans-Serif" font-size="10.00">sll_m_xml_io::sll_s</text>
<text text-anchor="middle" x="383" y="-7.5" font-family="Helvetica,sans-Serif" font-size="10.00">_xml_file_close</text>
</a>
</g>
</g>
<!-- Node3&#45;&gt;Node7 -->
<g id="edge7" class="edge"><title>Node3&#45;&gt;Node7</title>
<path fill="none" stroke="midnightblue" d="M233.66,-118.471C250.204,-98.0478 282.356,-61.5545 317,-39.5 319.556,-37.8729 322.238,-36.3336 324.997,-34.8806"/>
<polygon fill="midnightblue" stroke="midnightblue" points="326.523,-38.0304 334.008,-30.5321 323.481,-31.726 326.523,-38.0304"/>
</g>
</g>
</svg>
