<?xml version="1.0" encoding="UTF-8" standalone="no"?>
<!DOCTYPE svg PUBLIC "-//W3C//DTD SVG 1.1//EN"
 "http://www.w3.org/Graphics/SVG/1.1/DTD/svg11.dtd">
<!-- Generated by graphviz version 2.40.1 (20161225.0304)
 -->
<!-- Title: sll_s_nufft_2d_free Pages: 1 -->
<svg width="304pt" height="50pt"
 viewBox="0.00 0.00 304.00 50.00" xmlns="http://www.w3.org/2000/svg" xmlns:xlink="http://www.w3.org/1999/xlink">
<g id="graph0" class="graph" transform="scale(1 1) rotate(0) translate(4 46)">
<title>sll_s_nufft_2d_free</title>
<polygon fill="#ffffff" stroke="transparent" points="-4,4 -4,-46 300,-46 300,4 -4,4"/>
<!-- Node12 -->
<g id="node1" class="node">
<title>Node12</title>
<polygon fill="#bfbfbf" stroke="#000000" points="0,-11.5 0,-30.5 108,-30.5 108,-11.5 0,-11.5"/>
<text text-anchor="middle" x="54" y="-18.5" font-family="Helvetica,sans-Serif" font-size="10.00" fill="#000000">sll_s_nufft_2d_free</text>
</g>
<!-- Node13 -->
<g id="node2" class="node">
<title>Node13</title>
<g id="a_node2"><a xlink:href="namespacesll__m__nufft__interpolator__2d.html#a9991dbb3f45540d544536d667f8dfe22" target="_top" xlink:title="sll_m_nufft_interpolator\l_2d::sll_s_nufft_interpolator\l_2d_free">
<polygon fill="#ffffff" stroke="#000000" points="144,-.5 144,-41.5 296,-41.5 296,-.5 144,-.5"/>
<text text-anchor="start" x="152" y="-29.5" font-family="Helvetica,sans-Serif" font-size="10.00" fill="#000000">sll_m_nufft_interpolator</text>
<text text-anchor="start" x="152" y="-18.5" font-family="Helvetica,sans-Serif" font-size="10.00" fill="#000000">_2d::sll_s_nufft_interpolator</text>
<text text-anchor="middle" x="220" y="-7.5" font-family="Helvetica,sans-Serif" font-size="10.00" fill="#000000">_2d_free</text>
</a>
</g>
</g>
<!-- Node12&#45;&gt;Node13 -->
<g id="edge1" class="edge">
<title>Node12&#45;&gt;Node13</title>
<path fill="none" stroke="#191970" d="M118.3741,-21C126.7158,-21 135.3222,-21 143.8321,-21"/>
<polygon fill="#191970" stroke="#191970" points="118.3546,-17.5001 108.3546,-21 118.3546,-24.5001 118.3546,-17.5001"/>
</g>
</g>
</svg>
