<?xml version="1.0" encoding="UTF-8" standalone="no"?>
<!DOCTYPE svg PUBLIC "-//W3C//DTD SVG 1.1//EN"
 "http://www.w3.org/Graphics/SVG/1.1/DTD/svg11.dtd">
<!-- Generated by graphviz version 2.43.0 (0)
 -->
<!-- Title: reconstruct_f_lbf Pages: 1 -->
<svg width="277pt" height="215pt"
 viewBox="0.00 0.00 277.00 214.50" xmlns="http://www.w3.org/2000/svg" xmlns:xlink="http://www.w3.org/1999/xlink">
<g id="graph0" class="graph" transform="scale(1 1) rotate(0) translate(4 210.5)">
<title>reconstruct_f_lbf</title>
<polygon fill="white" stroke="transparent" points="-4,4 -4,-210.5 273,-210.5 273,4 -4,4"/>
<!-- Node1 -->
<g id="node1" class="node">
<title>Node1</title>
<g id="a_node1"><a xlink:title="macro for the lbf approximation of a transported density (reconstruct_f_lbf) below &#45;&#45;&#45;&#45;&#45;&#45;&#45;&#45;&#45;&#45;&#45;&#45;&#45;&#45;&#45;&#45;&#45;&#45;...">
<polygon fill="#bfbfbf" stroke="black" points="0,-99 0,-118 98,-118 98,-99 0,-99"/>
<text text-anchor="middle" x="49" y="-106" font-family="Helvetica,sans-Serif" font-size="10.00">reconstruct_f_lbf</text>
</a>
</g>
</g>
<!-- Node2 -->
<g id="node2" class="node">
<title>Node2</title>
<g id="a_node2"><a xlink:href="namespacesll__m__particle__group__2d2v__lbf.html#ab5b68d806fa4ea6623a7aad38a915919" target="_top" xlink:title="convert_1d_index_to_4d &#45;&#45;&#45;&#45;&#45;&#45;&#45;&#45;&#45;&#45;&#45;&#45;&#45;&#45;&#45;&#45;&#45;&#45;&#45;&#45;&#45;&#45;&#45;&#45;&#45;&#45;&#45;&#45;&#45;&#45;&#45;&#45;&#45;&#45;&#45;&#45;&#45;&#45;&#45;&#45;&#45;&#45;&#45;&#45;&#45;&#45;&#45;&#45;&#45;&#45;&#45;&#45;&#45;&#45;&#45;&#45;&#45;&#45;&#45;&#45;&#45;&#45;&#45;&#45;&#45;&#45;&#45;&#45;&#45;&#45;&#45;&#45;&#45;&#45;&#45;&#45;&#45;&#45;...">
<polygon fill="white" stroke="black" points="134,-187 134,-206 269,-206 269,-187 134,-187"/>
<text text-anchor="middle" x="201.5" y="-194" font-family="Helvetica,sans-Serif" font-size="10.00">convert_1d_index_to_4d</text>
</a>
</g>
</g>
<!-- Node1&#45;&gt;Node2 -->
<g id="edge1" class="edge">
<title>Node1&#45;&gt;Node2</title>
<path fill="none" stroke="midnightblue" d="M59.37,-118.46C73.96,-133.4 103.58,-161.55 134,-177.5 138.29,-179.75 142.89,-181.77 147.58,-183.56"/>
<polygon fill="midnightblue" stroke="midnightblue" points="146.69,-186.96 157.28,-186.94 148.99,-180.35 146.69,-186.96"/>
</g>
<!-- Node3 -->
<g id="node3" class="node">
<title>Node3</title>
<g id="a_node3"><a xlink:href="namespacesll__m__particle__group__2d2v__lbf.html#a72d0afa9ddf3075811d66678300163b7" target="_top" xlink:title="get_1d_cell_containing_point &#45;&#45;&#45;&#45;&#45;&#45;&#45;&#45;&#45;&#45;&#45;&#45;&#45;&#45;&#45;&#45;&#45;&#45;&#45;&#45;&#45;&#45;&#45;&#45;&#45;&#45;&#45;&#45;&#45;&#45;&#45;&#45;&#45;&#45;&#45;&#45;&#45;&#45;&#45;&#45;&#45;&#45;&#45;&#45;&#45;&#45;&#45;&#45;&#45;&#45;&#45;&#45;&#45;&#45;&#45;&#45;&#45;&#45;&#45;&#45;&#45;&#45;&#45;&#45;&#45;&#45;&#45;&#45;&#45;&#45;&#45;&#45;...">
<polygon fill="white" stroke="black" points="137.5,-137.5 137.5,-167.5 265.5,-167.5 265.5,-137.5 137.5,-137.5"/>
<text text-anchor="start" x="145.5" y="-155.5" font-family="Helvetica,sans-Serif" font-size="10.00">get_1d_cell_containing</text>
<text text-anchor="middle" x="201.5" y="-144.5" font-family="Helvetica,sans-Serif" font-size="10.00">_point</text>
</a>
</g>
</g>
<!-- Node1&#45;&gt;Node3 -->
<g id="edge2" class="edge">
<title>Node1&#45;&gt;Node3</title>
<path fill="none" stroke="midnightblue" d="M82.66,-118.05C99.22,-122.89 119.9,-128.93 139.28,-134.6"/>
<polygon fill="midnightblue" stroke="midnightblue" points="138.39,-137.99 148.97,-137.43 140.35,-131.27 138.39,-137.99"/>
</g>
<!-- Node4 -->
<g id="node4" class="node">
<title>Node4</title>
<g id="a_node4"><a xlink:href="namespacesll__m__particle__group__2d2v__lbf.html#af4c7023c3346377d9d627beef7d4be09" target="_top" xlink:title="periodic_correction &#45;&#45;&#45;&#45;&#45;&#45;&#45;&#45;&#45;&#45;&#45;&#45;&#45;&#45;&#45;&#45;&#45;&#45;&#45;&#45;&#45;&#45;&#45;&#45;&#45;&#45;&#45;&#45;&#45;&#45;&#45;&#45;&#45;&#45;&#45;&#45;&#45;&#45;&#45;&#45;&#45;&#45;&#45;&#45;&#45;&#45;&#45;&#45;&#45;&#45;&#45;&#45;&#45;&#45;&#45;&#45;&#45;&#45;&#45;&#45;&#45;&#45;&#45;&#45;&#45;&#45;&#45;&#45;&#45;&#45;&#45;&#45;&#45;&#45;&#45;&#45;&#45;&#45;&#45;&#45;&#45;...">
<polygon fill="white" stroke="black" points="146.5,-99 146.5,-118 256.5,-118 256.5,-99 146.5,-99"/>
<text text-anchor="middle" x="201.5" y="-106" font-family="Helvetica,sans-Serif" font-size="10.00">periodic_correction</text>
</a>
</g>
</g>
<!-- Node1&#45;&gt;Node4 -->
<g id="edge3" class="edge">
<title>Node1&#45;&gt;Node4</title>
<path fill="none" stroke="midnightblue" d="M98.03,-108.5C110.18,-108.5 123.43,-108.5 136.24,-108.5"/>
<polygon fill="midnightblue" stroke="midnightblue" points="136.39,-112 146.39,-108.5 136.39,-105 136.39,-112"/>
</g>
<!-- Node5 -->
<g id="node5" class="node">
<title>Node5</title>
<g id="a_node5"><a xlink:href="namespacesll__m__particle__group__2d2v__lbf.html#a9ea469cf9548539be3e8977439eedb78" target="_top" xlink:title="sll_f_add_element_in_int_list &#45;&#45;&#45;&#45;&#45;&#45;&#45;&#45;&#45;&#45;&#45;&#45;&#45;&#45;&#45;&#45;&#45;&#45;&#45;&#45;&#45;&#45;&#45;&#45;&#45;&#45;&#45;&#45;&#45;&#45;&#45;&#45;&#45;&#45;&#45;&#45;&#45;&#45;&#45;&#45;&#45;&#45;&#45;&#45;&#45;&#45;&#45;&#45;&#45;&#45;&#45;&#45;&#45;&#45;&#45;&#45;&#45;&#45;&#45;&#45;&#45;&#45;&#45;&#45;&#45;&#45;&#45;&#45;&#45;&#45;&#45;...">
<polygon fill="white" stroke="black" points="141.5,-49.5 141.5,-79.5 261.5,-79.5 261.5,-49.5 141.5,-49.5"/>
<text text-anchor="start" x="149.5" y="-67.5" font-family="Helvetica,sans-Serif" font-size="10.00">sll_f_add_element_in</text>
<text text-anchor="middle" x="201.5" y="-56.5" font-family="Helvetica,sans-Serif" font-size="10.00">_int_list</text>
</a>
</g>
</g>
<!-- Node1&#45;&gt;Node5 -->
<g id="edge4" class="edge">
<title>Node1&#45;&gt;Node5</title>
<path fill="none" stroke="midnightblue" d="M82.66,-98.95C99.22,-94.11 119.9,-88.07 139.28,-82.4"/>
<polygon fill="midnightblue" stroke="midnightblue" points="140.35,-85.73 148.97,-79.57 138.39,-79.01 140.35,-85.73"/>
</g>
<!-- Node6 -->
<g id="node6" class="node">
<title>Node6</title>
<g id="a_node6"><a xlink:href="namespacesll__m__particle__group__2d2v__lbf.html#a853fc5fca7bb0ba78fbc632c0ae8f5c3" target="_top" xlink:title="update_closest_particle_arrays &#45;&#45;&#45;&#45;&#45;&#45;&#45;&#45;&#45;&#45;&#45;&#45;&#45;&#45;&#45;&#45;&#45;&#45;&#45;&#45;&#45;&#45;&#45;&#45;&#45;&#45;&#45;&#45;&#45;&#45;&#45;&#45;&#45;&#45;&#45;&#45;&#45;&#45;&#45;&#45;&#45;&#45;&#45;&#45;&#45;&#45;&#45;&#45;&#45;&#45;&#45;&#45;&#45;&#45;&#45;&#45;&#45;&#45;&#45;&#45;&#45;&#45;&#45;&#45;&#45;&#45;&#45;&#45;&#45;&#45;...">
<polygon fill="white" stroke="black" points="135.5,-0.5 135.5,-30.5 267.5,-30.5 267.5,-0.5 135.5,-0.5"/>
<text text-anchor="start" x="143.5" y="-18.5" font-family="Helvetica,sans-Serif" font-size="10.00">update_closest_particle</text>
<text text-anchor="middle" x="201.5" y="-7.5" font-family="Helvetica,sans-Serif" font-size="10.00">_arrays</text>
</a>
</g>
</g>
<!-- Node1&#45;&gt;Node6 -->
<g id="edge5" class="edge">
<title>Node1&#45;&gt;Node6</title>
<path fill="none" stroke="midnightblue" d="M59.57,-98.99C74.41,-84.68 104.37,-57.47 134,-40.5 137.61,-38.43 141.43,-36.47 145.33,-34.63"/>
<polygon fill="midnightblue" stroke="midnightblue" points="146.81,-37.81 154.54,-30.56 143.98,-31.4 146.81,-37.81"/>
</g>
</g>
</svg>
