<?xml version="1.0" encoding="UTF-8" standalone="no"?>
<!DOCTYPE svg PUBLIC "-//W3C//DTD SVG 1.1//EN"
 "http://www.w3.org/Graphics/SVG/1.1/DTD/svg11.dtd">
<!-- Generated by graphviz version 2.43.0 (0)
 -->
<!-- Title: sll_s_csr_matrix_mp_init Pages: 1 -->
<svg width="559pt" height="110pt"
 viewBox="0.00 0.00 559.00 110.00" xmlns="http://www.w3.org/2000/svg" xmlns:xlink="http://www.w3.org/1999/xlink">
<g id="graph0" class="graph" transform="scale(1 1) rotate(0) translate(4 106)">
<title>sll_s_csr_matrix_mp_init</title>
<polygon fill="white" stroke="transparent" points="-4,4 -4,-106 555,-106 555,4 -4,4"/>
<!-- Node1 -->
<g id="node1" class="node">
<title>Node1</title>
<g id="a_node1"><a xlink:title="initialization of CSR matrix type thanks to the global index of each local dof of each element param[...">
<polygon fill="#bfbfbf" stroke="black" points="414,-41.5 414,-60.5 551,-60.5 551,-41.5 414,-41.5"/>
<text text-anchor="middle" x="482.5" y="-48.5" font-family="Helvetica,sans-Serif" font-size="10.00">sll_s_csr_matrix_mp_init</text>
</a>
</g>
</g>
<!-- Node2 -->
<g id="node2" class="node">
<title>Node2</title>
<g id="a_node2"><a xlink:href="namespacesll__m__sparse__matrix__mp.html#ab8ac37685dad402f808e43fd26578034" target="_top" xlink:title="allocates the memory space for a new CSR type on the heap, initializes it with the given arguments an...">
<polygon fill="white" stroke="black" points="238,-41.5 238,-60.5 378,-60.5 378,-41.5 238,-41.5"/>
<text text-anchor="middle" x="308" y="-48.5" font-family="Helvetica,sans-Serif" font-size="10.00">sll_f_new_csr_matrix_mp</text>
</a>
</g>
</g>
<!-- Node1&#45;&gt;Node2 -->
<g id="edge1" class="edge">
<title>Node1&#45;&gt;Node2</title>
<path fill="none" stroke="midnightblue" d="M403.57,-51C395.11,-51 386.54,-51 378.19,-51"/>
<polygon fill="midnightblue" stroke="midnightblue" points="403.82,-54.5 413.82,-51 403.82,-47.5 403.82,-54.5"/>
</g>
<!-- Node3 -->
<g id="node3" class="node">
<title>Node3</title>
<g id="a_node3"><a xlink:href="namespacesll__m__general__coordinate__elliptic__solver__multipatch.html#ad5dcba50d55d23e36b6b7d9fbaae1da9" target="_top" xlink:title="Assemble the matrix for elliptic solver.">
<polygon fill="white" stroke="black" points="23.5,-60.5 23.5,-101.5 178.5,-101.5 178.5,-60.5 23.5,-60.5"/>
<text text-anchor="start" x="31.5" y="-89.5" font-family="Helvetica,sans-Serif" font-size="10.00">sll_m_general_coordinate</text>
<text text-anchor="start" x="31.5" y="-78.5" font-family="Helvetica,sans-Serif" font-size="10.00">_elliptic_solver_multipatch</text>
<text text-anchor="middle" x="101" y="-67.5" font-family="Helvetica,sans-Serif" font-size="10.00">::sll_s_factorize_mat_es_mp</text>
</a>
</g>
</g>
<!-- Node2&#45;&gt;Node3 -->
<g id="edge2" class="edge">
<title>Node2&#45;&gt;Node3</title>
<path fill="none" stroke="midnightblue" d="M231.83,-62C214.54,-64.53 196.15,-67.22 178.8,-69.76"/>
<polygon fill="midnightblue" stroke="midnightblue" points="232.47,-65.44 241.86,-60.53 231.45,-58.52 232.47,-65.44"/>
</g>
<!-- Node4 -->
<g id="node4" class="node">
<title>Node4</title>
<g id="a_node4"><a xlink:href="namespacesll__m__general__coordinate__elliptic__solver__multipatch.html#ae9b2728b7fc567b24d783dc03390c489" target="_top" xlink:title="Initialization for elleptic solver multipatch.">
<polygon fill="white" stroke="black" points="0,-0.5 0,-41.5 202,-41.5 202,-0.5 0,-0.5"/>
<text text-anchor="start" x="8" y="-29.5" font-family="Helvetica,sans-Serif" font-size="10.00">sll_m_general_coordinate</text>
<text text-anchor="start" x="8" y="-18.5" font-family="Helvetica,sans-Serif" font-size="10.00">_elliptic_solver_multipatch</text>
<text text-anchor="middle" x="101" y="-7.5" font-family="Helvetica,sans-Serif" font-size="10.00">::sll_s_general_elliptic_solver_mp_init</text>
</a>
</g>
</g>
<!-- Node2&#45;&gt;Node4 -->
<g id="edge3" class="edge">
<title>Node2&#45;&gt;Node4</title>
<path fill="none" stroke="midnightblue" d="M231.9,-40.01C222.21,-38.59 212.17,-37.12 202.16,-35.66"/>
<polygon fill="midnightblue" stroke="midnightblue" points="231.45,-43.48 241.86,-41.47 232.47,-36.56 231.45,-43.48"/>
</g>
</g>
</svg>
