<?xml version="1.0" encoding="UTF-8" standalone="no"?>
<!DOCTYPE svg PUBLIC "-//W3C//DTD SVG 1.1//EN"
 "http://www.w3.org/Graphics/SVG/1.1/DTD/svg11.dtd">
<!-- Generated by graphviz version 2.40.1 (20161225.0304)
 -->
<!-- Title: sll_s_set_slope_mp Pages: 1 -->
<svg width="670pt" height="61pt"
 viewBox="0.00 0.00 670.00 61.00" xmlns="http://www.w3.org/2000/svg" xmlns:xlink="http://www.w3.org/1999/xlink">
<g id="graph0" class="graph" transform="scale(1 1) rotate(0) translate(4 57)">
<title>sll_s_set_slope_mp</title>
<polygon fill="#ffffff" stroke="transparent" points="-4,4 -4,-57 666,-57 666,4 -4,4"/>
<!-- Node39 -->
<g id="node1" class="node">
<title>Node39</title>
<polygon fill="#bfbfbf" stroke="#000000" points="0,-17 0,-36 111,-36 111,-17 0,-17"/>
<text text-anchor="middle" x="55.5" y="-24" font-family="Helvetica,sans-Serif" font-size="10.00" fill="#000000">sll_s_set_slope_mp</text>
</g>
<!-- Node40 -->
<g id="node2" class="node">
<title>Node40</title>
<g id="a_node2"><a xlink:href="namespacesll__m__arbitrary__degree__spline__interpolator__2d.html#ac323ee160cec799fc8de858ab2c21a0e" target="_top" xlink:title="Initialization of the boundary for interpolator arbitrary degree splines 2d. The parameters are...">
<polygon fill="#ffffff" stroke="#000000" points="147,-6 147,-47 278,-47 278,-6 147,-6"/>
<text text-anchor="start" x="155" y="-35" font-family="Helvetica,sans-Serif" font-size="10.00" fill="#000000">sll_m_arbitrary_degree</text>
<text text-anchor="start" x="155" y="-24" font-family="Helvetica,sans-Serif" font-size="10.00" fill="#000000">_spline_interpolator_2d</text>
<text text-anchor="middle" x="212.5" y="-13" font-family="Helvetica,sans-Serif" font-size="10.00" fill="#000000">::sll_s_set_slope2d</text>
</a>
</g>
</g>
<!-- Node39&#45;&gt;Node40 -->
<g id="edge1" class="edge">
<title>Node39&#45;&gt;Node40</title>
<path fill="none" stroke="#191970" d="M111.2944,-26.5C119.5931,-26.5 128.2622,-26.5 136.8848,-26.5"/>
<polygon fill="#191970" stroke="#191970" points="136.9607,-30.0001 146.9607,-26.5 136.9606,-23.0001 136.9607,-30.0001"/>
</g>
<!-- Node41 -->
<g id="node3" class="node">
<title>Node41</title>
<g id="a_node3"><a xlink:href="namespacesll__m__arbitrary__degree__spline__interpolator__1d.html#a75cc31edcb1a843e541b2ff765af5b77" target="_top" xlink:title="Initialization of a pointer interpolator arbitrary degree splines 1d. ">
<polygon fill="#ffffff" stroke="#000000" points="314,-.5 314,-52.5 469,-52.5 469,-.5 314,-.5"/>
<text text-anchor="start" x="322" y="-40.5" font-family="Helvetica,sans-Serif" font-size="10.00" fill="#000000">sll_m_arbitrary_degree</text>
<text text-anchor="start" x="322" y="-29.5" font-family="Helvetica,sans-Serif" font-size="10.00" fill="#000000">_spline_interpolator_1d</text>
<text text-anchor="start" x="322" y="-18.5" font-family="Helvetica,sans-Serif" font-size="10.00" fill="#000000">::sll_f_new_arbitrary_degree</text>
<text text-anchor="middle" x="391.5" y="-7.5" font-family="Helvetica,sans-Serif" font-size="10.00" fill="#000000">_1d_interpolator</text>
</a>
</g>
</g>
<!-- Node40&#45;&gt;Node41 -->
<g id="edge2" class="edge">
<title>Node40&#45;&gt;Node41</title>
<path fill="none" stroke="#191970" d="M278.1366,-26.5C286.4556,-26.5 295.0714,-26.5 303.6666,-26.5"/>
<polygon fill="#191970" stroke="#191970" points="303.7283,-30.0001 313.7283,-26.5 303.7282,-23.0001 303.7283,-30.0001"/>
</g>
<!-- Node42 -->
<g id="node4" class="node">
<title>Node42</title>
<g id="a_node4"><a xlink:href="namespacesll__m__arbitrary__degree__spline__interpolator__1d.html#aee31c662f95bb95d7ebd777e3ed6403c" target="_top" xlink:title="Initialization of interpolator arbitrary degree splines 1d. ">
<polygon fill="#ffffff" stroke="#000000" points="505,-6 505,-47 662,-47 662,-6 505,-6"/>
<text text-anchor="start" x="513" y="-35" font-family="Helvetica,sans-Serif" font-size="10.00" fill="#000000">sll_m_arbitrary_degree</text>
<text text-anchor="start" x="513" y="-24" font-family="Helvetica,sans-Serif" font-size="10.00" fill="#000000">_spline_interpolator_1d</text>
<text text-anchor="middle" x="583.5" y="-13" font-family="Helvetica,sans-Serif" font-size="10.00" fill="#000000">::sll_s_ad1d_interpolator_init</text>
</a>
</g>
</g>
<!-- Node41&#45;&gt;Node42 -->
<g id="edge3" class="edge">
<title>Node41&#45;&gt;Node42</title>
<path fill="none" stroke="#191970" d="M469.0403,-26.5C477.4933,-26.5 486.1446,-26.5 494.7188,-26.5"/>
<polygon fill="#191970" stroke="#191970" points="494.7321,-30.0001 504.7321,-26.5 494.7321,-23.0001 494.7321,-30.0001"/>
</g>
</g>
</svg>
