<?xml version="1.0" encoding="UTF-8" standalone="no"?>
<!DOCTYPE svg PUBLIC "-//W3C//DTD SVG 1.1//EN"
 "http://www.w3.org/Graphics/SVG/1.1/DTD/svg11.dtd">
<!-- Generated by graphviz version 2.38.0 (20140413.2041)
 -->
<!-- Title: initconnectivity_new Pages: 1 -->
<!--zoomable 237 -->
<svg id="main" version="1.1" xmlns="http://www.w3.org/2000/svg" xmlns:xlink="http://www.w3.org/1999/xlink" xml:space="preserve" onload="init(evt)">
<style type="text/css"><![CDATA[
.edge:hover path { stroke: red; }
.edge:hover polygon { stroke: red; fill: red; }
]]></style>
<script type="text/javascript"><![CDATA[
var edges = document.getElementsByTagName('g');
if (edges && edges.length) {
  for (var i=0;i<edges.length;i++) {
    if (edges[i].id.substr(0,4)=='edge') {
      edges[i].setAttribute('class','edge');
    }
  }
}
]]></script>
        <defs>
                <circle id="rim" cx="0" cy="0" r="7"/>
                <circle id="rim2" cx="0" cy="0" r="3.5"/>
                <g id="zoomPlus">
                        <use xlink:href="#rim" fill="#404040">
                                <set attributeName="fill" to="#808080" begin="zoomplus.mouseover" end="zoomplus.mouseout"/>
                        </use>
                        <path d="M-4,0h8M0,-4v8" fill="none" stroke="white" stroke-width="1.5" pointer-events="none"/>
                </g>
                <g id="zoomMin">
                        <use xlink:href="#rim" fill="#404040">
                                <set attributeName="fill" to="#808080" begin="zoomminus.mouseover" end="zoomminus.mouseout"/>
                        </use>
                        <path d="M-4,0h8" fill="none" stroke="white" stroke-width="1.5" pointer-events="none"/>
                </g>
                <g id="dirArrow">
                        <path fill="none" stroke="white" stroke-width="1.5" d="M0,-3.0v7 M-2.5,-0.5L0,-3.0L2.5,-0.5"/>
                </g>
               <g id="resetDef">
                       <use xlink:href="#rim2" fill="#404040">
                               <set attributeName="fill" to="#808080" begin="reset.mouseover" end="reset.mouseout"/>
                       </use>
               </g>
        </defs>

<script type="text/javascript">
var viewWidth = 1050;
var viewHeight = 237;
var sectionId = 'dynsection-24';
</script>
<script xlink:href="svgpan.js"/>
<svg id="graph" class="graph">
<g id="viewport">
<title>initconnectivity_new</title>
<polygon fill="white" stroke="none" points="-4,4 -4,-232.5 1046,-232.5 1046,4 -4,4"/>
<!-- Node1 -->
<g id="node1" class="node"><title>Node1</title>
<polygon fill="#bfbfbf" stroke="black" points="0,-159.5 0,-178.5 105,-178.5 105,-159.5 0,-159.5"/>
<text text-anchor="middle" x="52.5" y="-166.5" font-family="Helvetica,sans-Serif" font-size="10.00">initconnectivity_new</text>
</g>
<!-- Node2 -->
<g id="node2" class="node"><title>Node2</title>
<g id="a_node2"><a xlink:href="namespacesll__m__general__coordinate__elliptic__solver.html#a57659e66efd4a5717590e13eee344000" target="_top" xlink:title="compute_local_splines\l_indices">
<polygon fill="white" stroke="black" points="143.5,-198 143.5,-228 259.5,-228 259.5,-198 143.5,-198"/>
<text text-anchor="start" x="151.5" y="-216" font-family="Helvetica,sans-Serif" font-size="10.00">compute_local_splines</text>
<text text-anchor="middle" x="201.5" y="-205" font-family="Helvetica,sans-Serif" font-size="10.00">_indices</text>
</a>
</g>
</g>
<!-- Node1&#45;&gt;Node2 -->
<g id="edge1" class="edge"><title>Node1&#45;&gt;Node2</title>
<path fill="none" stroke="midnightblue" d="M85.3968,-178.547C101.504,-183.369 121.586,-189.379 140.445,-195.024"/>
<polygon fill="midnightblue" stroke="midnightblue" points="139.584,-198.42 150.168,-197.935 141.592,-191.714 139.584,-198.42"/>
</g>
<!-- Node3 -->
<g id="node3" class="node"><title>Node3</title>
<g id="a_node3"><a xlink:href="namespacesll__m__general__coordinate__elliptic__solver.html#a27d90b4a6ca26e6014ca4db59a27eda1" target="_top" xlink:title="compute_global_splines\l_indices">
<polygon fill="white" stroke="black" points="141,-105 141,-135 262,-135 262,-105 141,-105"/>
<text text-anchor="start" x="149" y="-123" font-family="Helvetica,sans-Serif" font-size="10.00">compute_global_splines</text>
<text text-anchor="middle" x="201.5" y="-112" font-family="Helvetica,sans-Serif" font-size="10.00">_indices</text>
</a>
</g>
</g>
<!-- Node1&#45;&gt;Node3 -->
<g id="edge2" class="edge"><title>Node1&#45;&gt;Node3</title>
<path fill="none" stroke="midnightblue" d="M82.192,-159.436C100.234,-153.422 124.1,-145.467 145.67,-138.277"/>
<polygon fill="midnightblue" stroke="midnightblue" points="147.009,-141.52 155.389,-135.037 144.795,-134.879 147.009,-141.52"/>
</g>
<!-- Node5 -->
<g id="node5" class="node"><title>Node5</title>
<g id="a_node5"><a xlink:href="namespacesll__m__general__coordinate__elliptic__solver.html#a28d7b2c5dc102d89fd10040982029e00" target="_top" xlink:title="compute_local_to_global\l_splines_indices">
<polygon fill="white" stroke="black" points="463,-156 463,-186 587,-186 587,-156 463,-156"/>
<text text-anchor="start" x="471" y="-174" font-family="Helvetica,sans-Serif" font-size="10.00">compute_local_to_global</text>
<text text-anchor="middle" x="525" y="-163" font-family="Helvetica,sans-Serif" font-size="10.00">_splines_indices</text>
</a>
</g>
</g>
<!-- Node1&#45;&gt;Node5 -->
<g id="edge12" class="edge"><title>Node1&#45;&gt;Node5</title>
<path fill="none" stroke="midnightblue" d="M105.198,-169.22C189.612,-169.579 357.194,-170.291 452.798,-170.697"/>
<polygon fill="midnightblue" stroke="midnightblue" points="452.94,-174.198 462.954,-170.741 452.969,-167.198 452.94,-174.198"/>
</g>
<!-- Node4 -->
<g id="node4" class="node"><title>Node4</title>
<g id="a_node4"><a xlink:href="namespacesll__m__general__coordinate__elliptic__solver.html#aa97e7df003acbee3a05797610354c09d" target="_top" xlink:title="compute_b_spline_and\l_deriv_at_x">
<polygon fill="white" stroke="black" points="298,-103 298,-133 414,-133 414,-103 298,-103"/>
<text text-anchor="start" x="306" y="-121" font-family="Helvetica,sans-Serif" font-size="10.00">compute_b_spline_and</text>
<text text-anchor="middle" x="356" y="-110" font-family="Helvetica,sans-Serif" font-size="10.00">_deriv_at_x</text>
</a>
</g>
</g>
<!-- Node3&#45;&gt;Node4 -->
<g id="edge3" class="edge"><title>Node3&#45;&gt;Node4</title>
<path fill="none" stroke="midnightblue" d="M262.334,-119.215C270.64,-119.106 279.218,-118.994 287.649,-118.883"/>
<polygon fill="midnightblue" stroke="midnightblue" points="287.878,-122.381 297.832,-118.75 287.787,-115.381 287.878,-122.381"/>
</g>
<!-- Node4&#45;&gt;Node5 -->
<g id="edge4" class="edge"><title>Node4&#45;&gt;Node5</title>
<path fill="none" stroke="midnightblue" d="M404.409,-133.046C423.8,-139.2 446.408,-146.375 466.713,-152.819"/>
<polygon fill="midnightblue" stroke="midnightblue" points="465.882,-156.227 476.473,-155.916 468,-149.555 465.882,-156.227"/>
</g>
<!-- Node6 -->
<g id="node6" class="node"><title>Node6</title>
<g id="a_node6"><a xlink:href="namespacesll__m__gauss__legendre__integration.html#a0df63a9e8ee884c2d4a0d1f53602a949" target="_top" xlink:title="Returns a 2d array of size (2,npoints) containing gauss&#45;legendre points and weights in the interval [...">
<polygon fill="white" stroke="black" points="450,-96.5 450,-137.5 600,-137.5 600,-96.5 450,-96.5"/>
<text text-anchor="start" x="458" y="-125.5" font-family="Helvetica,sans-Serif" font-size="10.00">sll_m_gauss_legendre</text>
<text text-anchor="start" x="458" y="-114.5" font-family="Helvetica,sans-Serif" font-size="10.00">_integration::sll_f_gauss</text>
<text text-anchor="middle" x="525" y="-103.5" font-family="Helvetica,sans-Serif" font-size="10.00">_legendre_points_and_weights</text>
</a>
</g>
</g>
<!-- Node4&#45;&gt;Node6 -->
<g id="edge5" class="edge"><title>Node4&#45;&gt;Node6</title>
<path fill="none" stroke="midnightblue" d="M414.005,-117.659C422.29,-117.609 430.964,-117.557 439.65,-117.505"/>
<polygon fill="midnightblue" stroke="midnightblue" points="439.851,-121.004 449.83,-117.444 439.809,-114.004 439.851,-121.004"/>
</g>
<!-- Node7 -->
<g id="node7" class="node"><title>Node7</title>
<g id="a_node7"><a xlink:href="namespacesll__m__gauss__lobatto__integration.html#abde325bec9e6c51c78f56ecc3bb075d5" target="_top" xlink:title="Returns a 2d array of size (2,n) containing gauss&#45;lobatto points and weights in the interval [a...">
<polygon fill="white" stroke="black" points="468,-25 468,-77 582,-77 582,-25 468,-25"/>
<text text-anchor="start" x="476" y="-65" font-family="Helvetica,sans-Serif" font-size="10.00">sll_m_gauss_lobatto</text>
<text text-anchor="start" x="476" y="-54" font-family="Helvetica,sans-Serif" font-size="10.00">_integration::sll_f</text>
<text text-anchor="start" x="476" y="-43" font-family="Helvetica,sans-Serif" font-size="10.00">_gauss_lobatto_points</text>
<text text-anchor="middle" x="525" y="-32" font-family="Helvetica,sans-Serif" font-size="10.00">_and_weights</text>
</a>
</g>
</g>
<!-- Node4&#45;&gt;Node7 -->
<g id="edge6" class="edge"><title>Node4&#45;&gt;Node7</title>
<path fill="none" stroke="midnightblue" d="M394.478,-102.964C413.326,-95.402 436.724,-86.0148 458.427,-77.3079"/>
<polygon fill="midnightblue" stroke="midnightblue" points="459.952,-80.4672 467.93,-73.4953 457.345,-73.9705 459.952,-80.4672"/>
</g>
<!-- Node8 -->
<g id="node8" class="node"><title>Node8</title>
<g id="a_node8"><a xlink:href="namespacesll__m__gauss__lobatto__integration.html#a43443dd7dd80f1289d964b572cd6ee2c" target="_top" xlink:title="Returns a 1d array of size (n) containing gauss&#45;lobatto points in the interval [a,b]. ">
<polygon fill="white" stroke="black" points="640,-60.5 640,-101.5 754,-101.5 754,-60.5 640,-60.5"/>
<text text-anchor="start" x="648" y="-89.5" font-family="Helvetica,sans-Serif" font-size="10.00">sll_m_gauss_lobatto</text>
<text text-anchor="start" x="648" y="-78.5" font-family="Helvetica,sans-Serif" font-size="10.00">_integration::sll_f</text>
<text text-anchor="middle" x="697" y="-67.5" font-family="Helvetica,sans-Serif" font-size="10.00">_gauss_lobatto_points</text>
</a>
</g>
</g>
<!-- Node7&#45;&gt;Node8 -->
<g id="edge7" class="edge"><title>Node7&#45;&gt;Node8</title>
<path fill="none" stroke="midnightblue" d="M582.135,-60.9063C597.368,-63.5943 614.004,-66.53 629.738,-69.3067"/>
<polygon fill="midnightblue" stroke="midnightblue" points="629.467,-72.8129 639.923,-71.1041 630.684,-65.9195 629.467,-72.8129"/>
</g>
<!-- Node11 -->
<g id="node11" class="node"><title>Node11</title>
<g id="a_node11"><a xlink:href="namespacesll__m__gauss__lobatto__integration.html#ab2dd3e9cafb094226c63f629745b0654" target="_top" xlink:title="Returns a 1d array of size (n) containing gauss&#45;lobatto weights in the interval [a,b]. ">
<polygon fill="white" stroke="black" points="636,-0.5 636,-41.5 758,-41.5 758,-0.5 636,-0.5"/>
<text text-anchor="start" x="644" y="-29.5" font-family="Helvetica,sans-Serif" font-size="10.00">sll_m_gauss_lobatto</text>
<text text-anchor="start" x="644" y="-18.5" font-family="Helvetica,sans-Serif" font-size="10.00">_integration::sll_f</text>
<text text-anchor="middle" x="697" y="-7.5" font-family="Helvetica,sans-Serif" font-size="10.00">_gauss_lobatto_weights</text>
</a>
</g>
</g>
<!-- Node7&#45;&gt;Node11 -->
<g id="edge10" class="edge"><title>Node7&#45;&gt;Node11</title>
<path fill="none" stroke="midnightblue" d="M582.135,-41.0937C596.123,-38.6254 611.293,-35.9483 625.862,-33.3772"/>
<polygon fill="midnightblue" stroke="midnightblue" points="626.591,-36.8028 635.831,-31.6181 625.375,-29.9093 626.591,-36.8028"/>
</g>
<!-- Node9 -->
<g id="node9" class="node"><title>Node9</title>
<g id="a_node9"><a xlink:href="namespacesll__m__gauss__lobatto__integration.html#aef28cd44b846400f5133a0ee289babbc" target="_top" xlink:title="This comes from http://dl.acm.org, Algorithme 726 : ORTHPOL, appendices and supplements To use those ...">
<polygon fill="white" stroke="black" points="794,-36 794,-66 900,-66 900,-36 794,-36"/>
<text text-anchor="start" x="802" y="-54" font-family="Helvetica,sans-Serif" font-size="10.00">sll_m_gauss_lobatto</text>
<text text-anchor="middle" x="847" y="-43" font-family="Helvetica,sans-Serif" font-size="10.00">_integration::dlob</text>
</a>
</g>
</g>
<!-- Node8&#45;&gt;Node9 -->
<g id="edge8" class="edge"><title>Node8&#45;&gt;Node9</title>
<path fill="none" stroke="midnightblue" d="M754.375,-69.5727C763.954,-67.631 773.952,-65.6044 783.674,-63.6337"/>
<polygon fill="midnightblue" stroke="midnightblue" points="784.571,-67.0232 793.676,-61.6062 783.18,-60.1627 784.571,-67.0232"/>
</g>
<!-- Node10 -->
<g id="node10" class="node"><title>Node10</title>
<g id="a_node10"><a xlink:href="namespacesll__m__gauss__lobatto__integration.html#a20a90d157ba32cd27c5d6f89eccf3735" target="_top" xlink:title="Given n and a measure dlambda, this routine generates the n&#45;point Gaussian quadrature formula...">
<polygon fill="white" stroke="black" points="936,-36 936,-66 1042,-66 1042,-36 936,-36"/>
<text text-anchor="start" x="944" y="-54" font-family="Helvetica,sans-Serif" font-size="10.00">sll_m_gauss_lobatto</text>
<text text-anchor="middle" x="989" y="-43" font-family="Helvetica,sans-Serif" font-size="10.00">_integration::dgauss</text>
</a>
</g>
</g>
<!-- Node9&#45;&gt;Node10 -->
<g id="edge9" class="edge"><title>Node9&#45;&gt;Node10</title>
<path fill="none" stroke="midnightblue" d="M900.131,-51C908.421,-51 917.07,-51 925.568,-51"/>
<polygon fill="midnightblue" stroke="midnightblue" points="925.826,-54.5001 935.826,-51 925.826,-47.5001 925.826,-54.5001"/>
</g>
<!-- Node11&#45;&gt;Node9 -->
<g id="edge11" class="edge"><title>Node11&#45;&gt;Node9</title>
<path fill="none" stroke="midnightblue" d="M758.197,-33.2021C766.71,-34.9278 775.476,-36.7046 784.022,-38.4369"/>
<polygon fill="midnightblue" stroke="midnightblue" points="783.429,-41.8878 793.925,-40.4442 784.819,-35.0273 783.429,-41.8878"/>
</g>
</g>
</svg>
        <g id="navigator" transform="translate(0 0)" fill="#404254">
                <rect fill="#f2f5e9" fill-opacity="0.5" stroke="#606060" stroke-width=".5" x="0" y="0" width="60" height="60"/>
                <use id="zoomplus" xlink:href="#zoomPlus" x="17" y="9" onmousedown="handleZoom(evt,'in')"/>
                <use id="zoomminus" xlink:href="#zoomMin" x="42" y="9" onmousedown="handleZoom(evt,'out')"/>
                <use id="reset" xlink:href="#resetDef" x="30" y="36" onmousedown="handleReset()"/>
                <g id="arrowUp" xlink:href="#dirArrow" transform="translate(30 24)" onmousedown="handlePan(0,-1)">
                  <use xlink:href="#rim" fill="#404040">
                        <set attributeName="fill" to="#808080" begin="arrowUp.mouseover" end="arrowUp.mouseout"/>
                  </use>
                  <path fill="none" stroke="white" stroke-width="1.5" d="M0,-3.0v7 M-2.5,-0.5L0,-3.0L2.5,-0.5"/>
                </g>
                <g id="arrowRight" xlink:href="#dirArrow" transform="rotate(90) translate(36 -43)" onmousedown="handlePan(1,0)">
                  <use xlink:href="#rim" fill="#404040">
                        <set attributeName="fill" to="#808080" begin="arrowRight.mouseover" end="arrowRight.mouseout"/>
                  </use>
                  <path fill="none" stroke="white" stroke-width="1.5" d="M0,-3.0v7 M-2.5,-0.5L0,-3.0L2.5,-0.5"/>
                </g>
                <g id="arrowDown" xlink:href="#dirArrow" transform="rotate(180) translate(-30 -48)" onmousedown="handlePan(0,1)">
                  <use xlink:href="#rim" fill="#404040">
                        <set attributeName="fill" to="#808080" begin="arrowDown.mouseover" end="arrowDown.mouseout"/>
                  </use>
                  <path fill="none" stroke="white" stroke-width="1.5" d="M0,-3.0v7 M-2.5,-0.5L0,-3.0L2.5,-0.5"/>
                </g>
                <g id="arrowLeft" xlink:href="#dirArrow" transform="rotate(270) translate(-36 17)" onmousedown="handlePan(-1,0)">
                  <use xlink:href="#rim" fill="#404040">
                        <set attributeName="fill" to="#808080" begin="arrowLeft.mouseover" end="arrowLeft.mouseout"/>
                  </use>
                  <path fill="none" stroke="white" stroke-width="1.5" d="M0,-3.0v7 M-2.5,-0.5L0,-3.0L2.5,-0.5"/>
                </g>
        </g>
        <svg viewBox="0 0 15 15" width="100%" height="30px" preserveAspectRatio="xMaxYMin meet">
         <g id="arrow_out" transform="scale(0.3 0.3)">
          <a xlink:href="namespacesll__m__general__coordinate__elliptic__solver_a17eb78399c10cd0dcdd31c4bf2cb72e6_cgraph_org.svg" target="_base">
           <rect id="button" ry="5" rx="5" y="6" x="6" height="38" width="38"
                fill="#f2f5e9" fill-opacity="0.5" stroke="#606060" stroke-width="1.0"/>
           <path id="arrow"
             d="M 11.500037,31.436501 C 11.940474,20.09759 22.043105,11.32322 32.158766,21.979434 L 37.068811,17.246167 C 37.068811,17.246167 37.088388,32 37.088388,32 L 22.160133,31.978069 C 22.160133,31.978069 26.997745,27.140456 26.997745,27.140456 C 18.528582,18.264221 13.291696,25.230495 11.500037,31.436501 z"
             style="fill:#404040;"/>
          </a>
         </g>
        </svg>
</svg>
