<?xml version="1.0" encoding="UTF-8" standalone="no"?>
<!DOCTYPE svg PUBLIC "-//W3C//DTD SVG 1.1//EN"
 "http://www.w3.org/Graphics/SVG/1.1/DTD/svg11.dtd">
<!-- Generated by graphviz version 2.38.0 (20140413.2041)
 -->
<!-- Title: initconnectivity_bis Pages: 1 -->
<svg width="205pt" height="66pt"
 viewBox="0.00 0.00 205.00 66.00" xmlns="http://www.w3.org/2000/svg" xmlns:xlink="http://www.w3.org/1999/xlink">
<g id="graph0" class="graph" transform="scale(1 1) rotate(0) translate(4 62)">
<title>initconnectivity_bis</title>
<polygon fill="white" stroke="none" points="-4,4 -4,-62 201,-62 201,4 -4,4"/>
<!-- Node1 -->
<g id="node1" class="node"><title>Node1</title>
<polygon fill="#bfbfbf" stroke="black" points="0,-19.5 0,-38.5 100,-38.5 100,-19.5 0,-19.5"/>
<text text-anchor="middle" x="50" y="-26.5" font-family="Helvetica,sans-Serif" font-size="10.00">initconnectivity_bis</text>
</g>
<!-- Node2 -->
<g id="node2" class="node"><title>Node2</title>
<g id="a_node2"><a xlink:href="namespaceconnectivity__module.html#ababc46f2b02031c126e1740c9d365245" target="_top" xlink:title="xi_eta_init">
<polygon fill="white" stroke="black" points="136,-38.5 136,-57.5 197,-57.5 197,-38.5 136,-38.5"/>
<text text-anchor="middle" x="166.5" y="-45.5" font-family="Helvetica,sans-Serif" font-size="10.00">xi_eta_init</text>
</a>
</g>
</g>
<!-- Node1&#45;&gt;Node2 -->
<g id="edge1" class="edge"><title>Node1&#45;&gt;Node2</title>
<path fill="none" stroke="midnightblue" d="M100.223,-37.168C108.746,-38.5824 117.512,-40.037 125.744,-41.4029"/>
<polygon fill="midnightblue" stroke="midnightblue" points="125.389,-44.8918 135.827,-43.0761 126.535,-37.9863 125.389,-44.8918"/>
</g>
<!-- Node3 -->
<g id="node3" class="node"><title>Node3</title>
<g id="a_node3"><a xlink:href="namespaceconnectivity__module.html#a9c15ed827b153224e9ead002b87cd0e6" target="_top" xlink:title="initlm">
<polygon fill="white" stroke="black" points="146.5,-0.5 146.5,-19.5 186.5,-19.5 186.5,-0.5 146.5,-0.5"/>
<text text-anchor="middle" x="166.5" y="-7.5" font-family="Helvetica,sans-Serif" font-size="10.00">initlm</text>
</a>
</g>
</g>
<!-- Node1&#45;&gt;Node3 -->
<g id="edge2" class="edge"><title>Node1&#45;&gt;Node3</title>
<path fill="none" stroke="midnightblue" d="M100.223,-20.832C112.533,-18.7893 125.348,-16.6628 136.33,-14.8404"/>
<polygon fill="midnightblue" stroke="midnightblue" points="136.93,-18.2888 146.222,-13.1989 135.784,-11.3832 136.93,-18.2888"/>
</g>
</g>
</svg>
