<?xml version="1.0" encoding="UTF-8" standalone="no"?>
<!DOCTYPE svg PUBLIC "-//W3C//DTD SVG 1.1//EN"
 "http://www.w3.org/Graphics/SVG/1.1/DTD/svg11.dtd">
<!-- Generated by graphviz version 2.43.0 (0)
 -->
<!-- Title: sll_s_set_slope2d Pages: 1 -->
<svg width="255pt" height="50pt"
 viewBox="0.00 0.00 255.00 50.00" xmlns="http://www.w3.org/2000/svg" xmlns:xlink="http://www.w3.org/1999/xlink">
<g id="graph0" class="graph" transform="scale(1 1) rotate(0) translate(4 46)">
<title>sll_s_set_slope2d</title>
<polygon fill="white" stroke="transparent" points="-4,4 -4,-46 251,-46 251,4 -4,4"/>
<!-- Node1 -->
<g id="node1" class="node">
<title>Node1</title>
<g id="a_node1"><a xlink:title="Initialization of the boundary for interpolator arbitrary degree splines 2d. The parameters are.">
<polygon fill="#bfbfbf" stroke="black" points="145,-11.5 145,-30.5 247,-30.5 247,-11.5 145,-11.5"/>
<text text-anchor="middle" x="196" y="-18.5" font-family="Helvetica,sans-Serif" font-size="10.00">sll_s_set_slope2d</text>
</a>
</g>
</g>
<!-- Node2 -->
<g id="node2" class="node">
<title>Node2</title>
<g id="a_node2"><a xlink:href="namespacesll__m__scalar__field__2d__multipatch.html#ac2b96b095e1e194cf83edc5671fb9396" target="_top" xlink:title=" ">
<polygon fill="white" stroke="black" points="0,-0.5 0,-41.5 109,-41.5 109,-0.5 0,-0.5"/>
<text text-anchor="start" x="8" y="-29.5" font-family="Helvetica,sans-Serif" font-size="10.00">sll_m_scalar_field</text>
<text text-anchor="start" x="8" y="-18.5" font-family="Helvetica,sans-Serif" font-size="10.00">_2d_multipatch::sll</text>
<text text-anchor="middle" x="54.5" y="-7.5" font-family="Helvetica,sans-Serif" font-size="10.00">_s_set_slope_mp</text>
</a>
</g>
</g>
<!-- Node1&#45;&gt;Node2 -->
<g id="edge1" class="edge">
<title>Node1&#45;&gt;Node2</title>
<path fill="none" stroke="midnightblue" d="M134.46,-21C126.02,-21 117.39,-21 109.09,-21"/>
<polygon fill="midnightblue" stroke="midnightblue" points="134.64,-24.5 144.64,-21 134.64,-17.5 134.64,-24.5"/>
</g>
</g>
</svg>
