<?xml version="1.0" encoding="UTF-8" standalone="no"?>
<!DOCTYPE svg PUBLIC "-//W3C//DTD SVG 1.1//EN"
 "http://www.w3.org/Graphics/SVG/1.1/DTD/svg11.dtd">
<!-- Generated by graphviz version 2.38.0 (20140413.2041)
 -->
<!-- Title: sll_s_factorize_mat_es Pages: 1 -->
<svg width="596pt" height="306pt"
 viewBox="0.00 0.00 596.00 306.00" xmlns="http://www.w3.org/2000/svg" xmlns:xlink="http://www.w3.org/1999/xlink">
<g id="graph0" class="graph" transform="scale(1 1) rotate(0) translate(4 302)">
<title>sll_s_factorize_mat_es</title>
<polygon fill="white" stroke="none" points="-4,4 -4,-302 592,-302 592,4 -4,4"/>
<!-- Node1 -->
<g id="node1" class="node"><title>Node1</title>
<polygon fill="#bfbfbf" stroke="black" points="0,-129 0,-148 117,-148 117,-129 0,-129"/>
<text text-anchor="middle" x="58.5" y="-136" font-family="Helvetica,sans-Serif" font-size="10.00">sll_s_factorize_mat_es</text>
</g>
<!-- Node2 -->
<g id="node2" class="node"><title>Node2</title>
<g id="a_node2"><a xlink:href="namespacesll__m__sparse__matrix.html#a086124a863995323abefd9c047954380" target="_top" xlink:title="sll_m_sparse_matrix\l::sll_s_add_to_csr_matrix">
<polygon fill="white" stroke="black" points="153,-267.5 153,-297.5 281,-297.5 281,-267.5 153,-267.5"/>
<text text-anchor="start" x="161" y="-285.5" font-family="Helvetica,sans-Serif" font-size="10.00">sll_m_sparse_matrix</text>
<text text-anchor="middle" x="217" y="-274.5" font-family="Helvetica,sans-Serif" font-size="10.00">::sll_s_add_to_csr_matrix</text>
</a>
</g>
</g>
<!-- Node1&#45;&gt;Node2 -->
<g id="edge1" class="edge"><title>Node1&#45;&gt;Node2</title>
<path fill="none" stroke="midnightblue" d="M64.4985,-148.033C76.6846,-170.409 110.095,-226.793 153,-258.5 154.874,-259.885 156.837,-261.199 158.865,-262.446"/>
<polygon fill="midnightblue" stroke="midnightblue" points="157.634,-265.762 168.088,-267.487 160.991,-259.62 157.634,-265.762"/>
</g>
<!-- Node3 -->
<g id="node3" class="node"><title>Node3</title>
<g id="a_node3"><a xlink:href="namespacesll__m__sparse__matrix.html#a17e284dc6f0e44a96b9013b9a020df44" target="_top" xlink:title="sll_m_sparse_matrix\l::sll_f_new_csr_matrix\l_with_constraint">
<polygon fill="white" stroke="black" points="159.5,-208 159.5,-249 274.5,-249 274.5,-208 159.5,-208"/>
<text text-anchor="start" x="167.5" y="-237" font-family="Helvetica,sans-Serif" font-size="10.00">sll_m_sparse_matrix</text>
<text text-anchor="start" x="167.5" y="-226" font-family="Helvetica,sans-Serif" font-size="10.00">::sll_f_new_csr_matrix</text>
<text text-anchor="middle" x="217" y="-215" font-family="Helvetica,sans-Serif" font-size="10.00">_with_constraint</text>
</a>
</g>
</g>
<!-- Node1&#45;&gt;Node3 -->
<g id="edge2" class="edge"><title>Node1&#45;&gt;Node3</title>
<path fill="none" stroke="midnightblue" d="M73.1057,-148.004C91.0153,-160.333 123.669,-182.191 153,-198.5 155.859,-200.09 158.815,-201.677 161.817,-203.247"/>
<polygon fill="midnightblue" stroke="midnightblue" points="160.407,-206.456 170.906,-207.879 163.586,-200.22 160.407,-206.456"/>
</g>
<!-- Node5 -->
<g id="node5" class="node"><title>Node5</title>
<g id="a_node5"><a xlink:href="namespacesll__m__sparse__matrix.html#a01c9ba095beda10af3b3bea36fd89804" target="_top" xlink:title="sll_m_sparse_matrix\l::sll_s_csr_add_one\l_constraint">
<polygon fill="white" stroke="black" points="163.5,-148 163.5,-189 270.5,-189 270.5,-148 163.5,-148"/>
<text text-anchor="start" x="171.5" y="-177" font-family="Helvetica,sans-Serif" font-size="10.00">sll_m_sparse_matrix</text>
<text text-anchor="start" x="171.5" y="-166" font-family="Helvetica,sans-Serif" font-size="10.00">::sll_s_csr_add_one</text>
<text text-anchor="middle" x="217" y="-155" font-family="Helvetica,sans-Serif" font-size="10.00">_constraint</text>
</a>
</g>
</g>
<!-- Node1&#45;&gt;Node5 -->
<g id="edge4" class="edge"><title>Node1&#45;&gt;Node5</title>
<path fill="none" stroke="midnightblue" d="M109.448,-148.075C123.403,-150.75 138.746,-153.691 153.335,-156.488"/>
<polygon fill="midnightblue" stroke="midnightblue" points="152.809,-159.95 163.289,-158.396 154.127,-153.075 152.809,-159.95"/>
</g>
<!-- Node6 -->
<g id="node6" class="node"><title>Node6</title>
<g id="a_node6"><a xlink:href="namespacesll__m__sparse__matrix.html#ac6f576dad6666a1c1bb0ba5ee748b4e8" target="_top" xlink:title="sll_m_sparse_matrix\l::sll_s_factorize_csr\l_matrix">
<polygon fill="white" stroke="black" points="163.5,-88 163.5,-129 270.5,-129 270.5,-88 163.5,-88"/>
<text text-anchor="start" x="171.5" y="-117" font-family="Helvetica,sans-Serif" font-size="10.00">sll_m_sparse_matrix</text>
<text text-anchor="start" x="171.5" y="-106" font-family="Helvetica,sans-Serif" font-size="10.00">::sll_s_factorize_csr</text>
<text text-anchor="middle" x="217" y="-95" font-family="Helvetica,sans-Serif" font-size="10.00">_matrix</text>
</a>
</g>
</g>
<!-- Node1&#45;&gt;Node6 -->
<g id="edge5" class="edge"><title>Node1&#45;&gt;Node6</title>
<path fill="none" stroke="midnightblue" d="M109.448,-128.925C123.403,-126.25 138.746,-123.309 153.335,-120.512"/>
<polygon fill="midnightblue" stroke="midnightblue" points="154.127,-123.925 163.289,-118.604 152.809,-117.05 154.127,-123.925"/>
</g>
<!-- Node8 -->
<g id="node8" class="node"><title>Node8</title>
<g id="a_node8"><a xlink:href="namespacesll__m__sparse__matrix.html#a69a0ac919303b6063ba71c7e4f31137d" target="_top" xlink:title="sll_m_sparse_matrix\l::sll_s_mult_csr_matrix\l_vector">
<polygon fill="white" stroke="black" points="470,-17 470,-58 588,-58 588,-17 470,-17"/>
<text text-anchor="start" x="478" y="-46" font-family="Helvetica,sans-Serif" font-size="10.00">sll_m_sparse_matrix</text>
<text text-anchor="start" x="478" y="-35" font-family="Helvetica,sans-Serif" font-size="10.00">::sll_s_mult_csr_matrix</text>
<text text-anchor="middle" x="529" y="-24" font-family="Helvetica,sans-Serif" font-size="10.00">_vector</text>
</a>
</g>
</g>
<!-- Node1&#45;&gt;Node8 -->
<g id="edge7" class="edge"><title>Node1&#45;&gt;Node8</title>
<path fill="none" stroke="midnightblue" d="M70.6741,-128.834C87.3396,-115.032 120.267,-90.0684 153,-78.5 207.905,-59.0956 367.488,-46.8654 459.822,-41.2059"/>
<polygon fill="midnightblue" stroke="midnightblue" points="460.142,-44.693 469.913,-40.597 459.721,-37.7057 460.142,-44.693"/>
</g>
<!-- Node9 -->
<g id="node9" class="node"><title>Node9</title>
<g id="a_node9"><a xlink:href="namespacesll__m__sparse__matrix.html#a7d5478ffad5dfe54e84b5c4d203f380f" target="_top" xlink:title="sll_m_sparse_matrix\l::sll_s_solve_csr_matrix">
<polygon fill="white" stroke="black" points="156,-0.5 156,-30.5 278,-30.5 278,-0.5 156,-0.5"/>
<text text-anchor="start" x="164" y="-18.5" font-family="Helvetica,sans-Serif" font-size="10.00">sll_m_sparse_matrix</text>
<text text-anchor="middle" x="217" y="-7.5" font-family="Helvetica,sans-Serif" font-size="10.00">::sll_s_solve_csr_matrix</text>
</a>
</g>
</g>
<!-- Node1&#45;&gt;Node9 -->
<g id="edge8" class="edge"><title>Node1&#45;&gt;Node9</title>
<path fill="none" stroke="midnightblue" d="M67.1367,-128.998C82.0754,-110.881 116.872,-70.9427 153,-45.5 158.2,-41.838 163.917,-38.4163 169.72,-35.2903"/>
<polygon fill="midnightblue" stroke="midnightblue" points="171.533,-38.2943 178.847,-30.6294 168.35,-32.06 171.533,-38.2943"/>
</g>
<!-- Node4 -->
<g id="node4" class="node"><title>Node4</title>
<g id="a_node4"><a xlink:href="namespacesll__m__sparse__matrix.html#afaf5a93c7d94d6faacec83a4f4333724" target="_top" xlink:title="sll_m_sparse_matrix\l::sll_s_csr_matrix_with\l_constraint_init">
<polygon fill="white" stroke="black" points="317,-208 317,-249 434,-249 434,-208 317,-208"/>
<text text-anchor="start" x="325" y="-237" font-family="Helvetica,sans-Serif" font-size="10.00">sll_m_sparse_matrix</text>
<text text-anchor="start" x="325" y="-226" font-family="Helvetica,sans-Serif" font-size="10.00">::sll_s_csr_matrix_with</text>
<text text-anchor="middle" x="375.5" y="-215" font-family="Helvetica,sans-Serif" font-size="10.00">_constraint_init</text>
</a>
</g>
</g>
<!-- Node3&#45;&gt;Node4 -->
<g id="edge3" class="edge"><title>Node3&#45;&gt;Node4</title>
<path fill="none" stroke="midnightblue" d="M274.5,-228.5C284.917,-228.5 295.892,-228.5 306.604,-228.5"/>
<polygon fill="midnightblue" stroke="midnightblue" points="306.767,-232 316.767,-228.5 306.767,-225 306.767,-232"/>
</g>
<!-- Node7 -->
<g id="node7" class="node"><title>Node7</title>
<g id="a_node7"><a xlink:href="namespacesll__m__sparse__matrix.html#aa70661624cee43ed61725a19f1ad3359" target="_top" xlink:title="sll_m_sparse_matrix\l::print_solver_type">
<polygon fill="white" stroke="black" points="322,-93.5 322,-123.5 429,-123.5 429,-93.5 322,-93.5"/>
<text text-anchor="start" x="330" y="-111.5" font-family="Helvetica,sans-Serif" font-size="10.00">sll_m_sparse_matrix</text>
<text text-anchor="middle" x="375.5" y="-100.5" font-family="Helvetica,sans-Serif" font-size="10.00">::print_solver_type</text>
</a>
</g>
</g>
<!-- Node6&#45;&gt;Node7 -->
<g id="edge6" class="edge"><title>Node6&#45;&gt;Node7</title>
<path fill="none" stroke="midnightblue" d="M270.548,-108.5C283.709,-108.5 297.962,-108.5 311.572,-108.5"/>
<polygon fill="midnightblue" stroke="midnightblue" points="311.825,-112 321.825,-108.5 311.825,-105 311.825,-112"/>
</g>
<!-- Node10 -->
<g id="node10" class="node"><title>Node10</title>
<g id="a_node10"><a xlink:href="namespacesll__m__sparse__matrix.html#a468090b4b06aeafdea056c08b63a72ef" target="_top" xlink:title="sll_m_sparse_matrix\l::solve_with_cg">
<polygon fill="white" stroke="black" points="322,-0.5 322,-30.5 429,-30.5 429,-0.5 322,-0.5"/>
<text text-anchor="start" x="330" y="-18.5" font-family="Helvetica,sans-Serif" font-size="10.00">sll_m_sparse_matrix</text>
<text text-anchor="middle" x="375.5" y="-7.5" font-family="Helvetica,sans-Serif" font-size="10.00">::solve_with_cg</text>
</a>
</g>
</g>
<!-- Node9&#45;&gt;Node10 -->
<g id="edge9" class="edge"><title>Node9&#45;&gt;Node10</title>
<path fill="none" stroke="midnightblue" d="M278.059,-15.5C289.081,-15.5 300.612,-15.5 311.711,-15.5"/>
<polygon fill="midnightblue" stroke="midnightblue" points="311.755,-19.0001 321.755,-15.5 311.755,-12.0001 311.755,-19.0001"/>
</g>
<!-- Node10&#45;&gt;Node8 -->
<g id="edge10" class="edge"><title>Node10&#45;&gt;Node8</title>
<path fill="none" stroke="midnightblue" d="M429.062,-23.1328C438.933,-24.5662 449.385,-26.084 459.654,-27.5752"/>
<polygon fill="midnightblue" stroke="midnightblue" points="459.435,-31.08 469.834,-29.0535 460.441,-24.1526 459.435,-31.08"/>
</g>
</g>
</svg>
