<?xml version="1.0" encoding="UTF-8" standalone="no"?>
<!DOCTYPE svg PUBLIC "-//W3C//DTD SVG 1.1//EN"
 "http://www.w3.org/Graphics/SVG/1.1/DTD/svg11.dtd">
<!-- Generated by graphviz version 2.40.1 (20161225.0304)
 -->
<!-- Title: sll_s_spline_pp_b_to_pp_1d_clamped Pages: 1 -->
<svg width="312pt" height="39pt"
 viewBox="0.00 0.00 312.00 39.00" xmlns="http://www.w3.org/2000/svg" xmlns:xlink="http://www.w3.org/1999/xlink">
<g id="graph0" class="graph" transform="scale(1 1) rotate(0) translate(4 35)">
<title>sll_s_spline_pp_b_to_pp_1d_clamped</title>
<polygon fill="#ffffff" stroke="transparent" points="-4,4 -4,-35 308,-35 308,4 -4,4"/>
<!-- Node238 -->
<g id="node1" class="node">
<title>Node238</title>
<polygon fill="#bfbfbf" stroke="#000000" points="0,-.5 0,-30.5 116,-30.5 116,-.5 0,-.5"/>
<text text-anchor="start" x="8" y="-18.5" font-family="Helvetica,sans-Serif" font-size="10.00" fill="#000000">sll_s_spline_pp_b_to</text>
<text text-anchor="middle" x="58" y="-7.5" font-family="Helvetica,sans-Serif" font-size="10.00" fill="#000000">_pp_1d_clamped</text>
</g>
<!-- Node239 -->
<g id="node2" class="node">
<title>Node239</title>
<g id="a_node2"><a xlink:href="namespacesll__m__splines__pp.html#ae856e97f9b335607629a52dc2d54adc9" target="_top" xlink:title="sll_s_spline_evaluate\l_basis_b_form_1d_clamped">
<polygon fill="#ffffff" stroke="#000000" points="152,-.5 152,-30.5 304,-30.5 304,-.5 152,-.5"/>
<text text-anchor="start" x="160" y="-18.5" font-family="Helvetica,sans-Serif" font-size="10.00" fill="#000000">sll_s_spline_evaluate</text>
<text text-anchor="middle" x="228" y="-7.5" font-family="Helvetica,sans-Serif" font-size="10.00" fill="#000000">_basis_b_form_1d_clamped</text>
</a>
</g>
</g>
<!-- Node238&#45;&gt;Node239 -->
<g id="edge1" class="edge">
<title>Node238&#45;&gt;Node239</title>
<path fill="none" stroke="#191970" d="M126.2002,-15.5C134.6521,-15.5 143.3348,-15.5 151.8959,-15.5"/>
<polygon fill="#191970" stroke="#191970" points="126.0289,-12.0001 116.0289,-15.5 126.0288,-19.0001 126.0289,-12.0001"/>
</g>
</g>
</svg>
