<?xml version="1.0" encoding="UTF-8" standalone="no"?>
<!DOCTYPE svg PUBLIC "-//W3C//DTD SVG 1.1//EN"
 "http://www.w3.org/Graphics/SVG/1.1/DTD/svg11.dtd">
<!-- Generated by graphviz version 2.38.0 (20140413.2041)
 -->
<!-- Title: sll_s_compute_gyroaverage_pade_polar Pages: 1 -->
<svg width="326pt" height="50pt"
 viewBox="0.00 0.00 326.00 50.00" xmlns="http://www.w3.org/2000/svg" xmlns:xlink="http://www.w3.org/1999/xlink">
<g id="graph0" class="graph" transform="scale(1 1) rotate(0) translate(4 46)">
<title>sll_s_compute_gyroaverage_pade_polar</title>
<polygon fill="white" stroke="none" points="-4,4 -4,-46 322,-46 322,4 -4,4"/>
<!-- Node1 -->
<g id="node1" class="node"><title>Node1</title>
<polygon fill="#bfbfbf" stroke="black" points="0,-6 0,-36 138,-36 138,-6 0,-6"/>
<text text-anchor="start" x="8" y="-24" font-family="Helvetica,sans-Serif" font-size="10.00">sll_s_compute_gyroaverage</text>
<text text-anchor="middle" x="69" y="-13" font-family="Helvetica,sans-Serif" font-size="10.00">_pade_polar</text>
</g>
<!-- Node2 -->
<g id="node2" class="node"><title>Node2</title>
<g id="a_node2"><a xlink:href="namespacesll__m__gyroaverage__2d__polar__pade__solver.html#aee2483ca8f1997cb7912c39ee78ae205" target="_top" xlink:title="sll_m_gyroaverage_2d\l_polar_pade_solver::compute\l_gyroaverage_2d_polar_pade">
<polygon fill="white" stroke="black" points="174,-0.5 174,-41.5 318,-41.5 318,-0.5 174,-0.5"/>
<text text-anchor="start" x="182" y="-29.5" font-family="Helvetica,sans-Serif" font-size="10.00">sll_m_gyroaverage_2d</text>
<text text-anchor="start" x="182" y="-18.5" font-family="Helvetica,sans-Serif" font-size="10.00">_polar_pade_solver::compute</text>
<text text-anchor="middle" x="246" y="-7.5" font-family="Helvetica,sans-Serif" font-size="10.00">_gyroaverage_2d_polar_pade</text>
</a>
</g>
</g>
<!-- Node1&#45;&gt;Node2 -->
<g id="edge1" class="edge"><title>Node1&#45;&gt;Node2</title>
<path fill="none" stroke="midnightblue" d="M148.414,-21C156.885,-21 165.47,-21 173.848,-21"/>
<polygon fill="midnightblue" stroke="midnightblue" points="148.161,-17.5001 138.161,-21 148.161,-24.5001 148.161,-17.5001"/>
</g>
</g>
</svg>
