<?xml version="1.0" encoding="UTF-8" standalone="no"?>
<!DOCTYPE svg PUBLIC "-//W3C//DTD SVG 1.1//EN"
 "http://www.w3.org/Graphics/SVG/1.1/DTD/svg11.dtd">
<!-- Generated by graphviz version 2.43.0 (0)
 -->
<!-- Title: evaluate_field_single_spline_2d_feec Pages: 1 -->
<svg width="299pt" height="66pt"
 viewBox="0.00 0.00 299.00 66.00" xmlns="http://www.w3.org/2000/svg" xmlns:xlink="http://www.w3.org/1999/xlink">
<g id="graph0" class="graph" transform="scale(1 1) rotate(0) translate(4 62)">
<title>evaluate_field_single_spline_2d_feec</title>
<polygon fill="white" stroke="transparent" points="-4,4 -4,-62 295,-62 295,4 -4,4"/>
<!-- Node1 -->
<g id="node1" class="node">
<title>Node1</title>
<g id="a_node1"><a xlink:title="Evaluate field at at position position.">
<polygon fill="#bfbfbf" stroke="black" points="0,-14 0,-44 120,-44 120,-14 0,-14"/>
<text text-anchor="start" x="8" y="-32" font-family="Helvetica,sans-Serif" font-size="10.00">evaluate_field_single</text>
<text text-anchor="middle" x="60" y="-21" font-family="Helvetica,sans-Serif" font-size="10.00">_spline_2d_feec</text>
</a>
</g>
</g>
<!-- Node2 -->
<g id="node2" class="node">
<title>Node2</title>
<g id="a_node2"><a xlink:href="namespacesll__m__particle__mesh__coupling__spline__2d__feec.html#aa0a1a91bcb700facfc28bd973bc6ab5c" target="_top" xlink:title=" ">
<polygon fill="white" stroke="black" points="156,-38.5 156,-57.5 291,-57.5 291,-38.5 156,-38.5"/>
<text text-anchor="middle" x="223.5" y="-45.5" font-family="Helvetica,sans-Serif" font-size="10.00">convert_index_2d_to_1d</text>
</a>
</g>
</g>
<!-- Node1&#45;&gt;Node2 -->
<g id="edge1" class="edge">
<title>Node1&#45;&gt;Node2</title>
<path fill="none" stroke="midnightblue" d="M120.22,-35.97C128.57,-36.95 137.24,-37.97 145.86,-38.98"/>
<polygon fill="midnightblue" stroke="midnightblue" points="145.58,-42.47 155.92,-40.17 146.4,-35.52 145.58,-42.47"/>
</g>
<!-- Node3 -->
<g id="node3" class="node">
<title>Node3</title>
<g id="a_node3"><a xlink:href="namespacesll__m__particle__mesh__coupling__spline__2d__feec.html#a81cd837d9e71ab24c22efd9ad75a07d9" target="_top" xlink:title=" ">
<polygon fill="white" stroke="black" points="169,-0.5 169,-19.5 278,-19.5 278,-0.5 169,-0.5"/>
<text text-anchor="middle" x="223.5" y="-7.5" font-family="Helvetica,sans-Serif" font-size="10.00">convert_x_to_xbox</text>
</a>
</g>
</g>
<!-- Node1&#45;&gt;Node3 -->
<g id="edge2" class="edge">
<title>Node1&#45;&gt;Node3</title>
<path fill="none" stroke="midnightblue" d="M120.22,-22.03C132.79,-20.55 146.12,-18.99 158.85,-17.49"/>
<polygon fill="midnightblue" stroke="midnightblue" points="159.38,-20.95 168.9,-16.31 158.56,-14 159.38,-20.95"/>
</g>
</g>
</svg>
