<?xml version="1.0" encoding="UTF-8" standalone="no"?>
<!DOCTYPE svg PUBLIC "-//W3C//DTD SVG 1.1//EN"
 "http://www.w3.org/Graphics/SVG/1.1/DTD/svg11.dtd">
<!-- Generated by graphviz version 2.43.0 (0)
 -->
<!-- Title: sll_s_spline_fem_mixedmass3d Pages: 1 -->
<!--zoomable 198 -->
<svg id="main" version="1.1" xmlns="http://www.w3.org/2000/svg" xmlns:xlink="http://www.w3.org/1999/xlink" xml:space="preserve" onload="init(evt)">
<style type="text/css"><![CDATA[
.edge:hover path { stroke: red; }
.edge:hover polygon { stroke: red; fill: red; }
]]></style>
<script type="text/javascript"><![CDATA[
var edges = document.getElementsByTagName('g');
if (edges && edges.length) {
  for (var i=0;i<edges.length;i++) {
    if (edges[i].id.substr(0,4)=='edge') {
      edges[i].setAttribute('class','edge');
    }
  }
}
]]></script>
        <defs>
                <circle id="rim" cx="0" cy="0" r="7"/>
                <circle id="rim2" cx="0" cy="0" r="3.5"/>
                <g id="zoomPlus">
                        <use xlink:href="#rim" fill="#404040">
                                <set attributeName="fill" to="#808080" begin="zoomplus.mouseover" end="zoomplus.mouseout"/>
                        </use>
                        <path d="M-4,0h8M0,-4v8" fill="none" stroke="white" stroke-width="1.5" pointer-events="none"/>
                </g>
                <g id="zoomMin">
                        <use xlink:href="#rim" fill="#404040">
                                <set attributeName="fill" to="#808080" begin="zoomminus.mouseover" end="zoomminus.mouseout"/>
                        </use>
                        <path d="M-4,0h8" fill="none" stroke="white" stroke-width="1.5" pointer-events="none"/>
                </g>
                <g id="dirArrow">
                        <path fill="none" stroke="white" stroke-width="1.5" d="M0,-3.0v7 M-2.5,-0.5L0,-3.0L2.5,-0.5"/>
                </g>
               <g id="resetDef">
                       <use xlink:href="#rim2" fill="#404040">
                               <set attributeName="fill" to="#808080" begin="reset.mouseover" end="reset.mouseout"/>
                       </use>
               </g>
        </defs>

<script type="text/javascript">
var viewWidth = 772;
var viewHeight = 198;
var sectionId = 'dynsection-3';
</script>
<script xlink:href="svgpan.js"/>
<svg id="graph" class="graph">
<g id="viewport">
<title>sll_s_spline_fem_mixedmass3d</title>
<polygon fill="white" stroke="transparent" points="-4,4 -4,-193.5 768,-193.5 768,4 -4,4"/>
<!-- Node1 -->
<g id="node1" class="node">
<title>Node1</title>
<g id="a_node1"><a xlink:title="Set up 3d mixed mass matrix for specific spline degree and profile function.">
<polygon fill="#bfbfbf" stroke="black" points="0,-84.5 0,-103.5 171,-103.5 171,-84.5 0,-84.5"/>
<text text-anchor="middle" x="85.5" y="-91.5" font-family="Helvetica,sans-Serif" font-size="10.00">sll_s_spline_fem_mixedmass3d</text>
</a>
</g>
</g>
<!-- Node2 -->
<g id="node2" class="node">
<title>Node2</title>
<g id="a_node2"><a xlink:href="namespacesll__m__spline__fem__utilities__3d__helper.html#a1d9f853ac0acaad87465a6c51fe001dd" target="_top" xlink:title="Assemble the given row of the mixed mass matrix.">
<polygon fill="white" stroke="black" points="207,-159 207,-189 404,-189 404,-159 207,-159"/>
<text text-anchor="start" x="215" y="-177" font-family="Helvetica,sans-Serif" font-size="10.00">sll_m_spline_fem_utilities</text>
<text text-anchor="middle" x="305.5" y="-166" font-family="Helvetica,sans-Serif" font-size="10.00">_3d_helper::assemble_mixedmass3d</text>
</a>
</g>
</g>
<!-- Node1&#45;&gt;Node2 -->
<g id="edge1" class="edge">
<title>Node1&#45;&gt;Node2</title>
<path fill="none" stroke="midnightblue" d="M104.86,-103.62C128.13,-115.53 169.71,-135.82 207,-149 214.24,-151.56 221.87,-153.97 229.54,-156.22"/>
<polygon fill="midnightblue" stroke="midnightblue" points="228.67,-159.62 239.25,-158.98 230.58,-152.88 228.67,-159.62"/>
</g>
<!-- Node5 -->
<g id="node5" class="node">
<title>Node5</title>
<g id="a_node5"><a xlink:href="namespacesll__m__gauss__legendre__integration.html#a0df63a9e8ee884c2d4a0d1f53602a949" target="_top" xlink:title="Returns a 2d array of size (2,npoints) containing gauss&#45;legendre points and weights in the interval [...">
<polygon fill="white" stroke="black" points="222,-98.5 222,-139.5 389,-139.5 389,-98.5 222,-98.5"/>
<text text-anchor="start" x="230" y="-127.5" font-family="Helvetica,sans-Serif" font-size="10.00">sll_m_gauss_legendre</text>
<text text-anchor="start" x="230" y="-116.5" font-family="Helvetica,sans-Serif" font-size="10.00">_integration::sll_f_gauss</text>
<text text-anchor="middle" x="305.5" y="-105.5" font-family="Helvetica,sans-Serif" font-size="10.00">_legendre_points_and_weights</text>
</a>
</g>
</g>
<!-- Node1&#45;&gt;Node5 -->
<g id="edge4" class="edge">
<title>Node1&#45;&gt;Node5</title>
<path fill="none" stroke="midnightblue" d="M169.54,-103.52C183.29,-105.1 197.62,-106.74 211.6,-108.35"/>
<polygon fill="midnightblue" stroke="midnightblue" points="211.36,-111.84 221.69,-109.5 212.16,-104.89 211.36,-111.84"/>
</g>
<!-- Node6 -->
<g id="node6" class="node">
<title>Node6</title>
<g id="a_node6"><a xlink:href="namespacesll__m__spline__fem__utilities__3d.html#aa3d1e27c209113adc1de00472bb7fd13" target="_top" xlink:title=" ">
<polygon fill="white" stroke="black" points="214.5,-60.5 214.5,-79.5 396.5,-79.5 396.5,-60.5 214.5,-60.5"/>
<text text-anchor="middle" x="305.5" y="-67.5" font-family="Helvetica,sans-Serif" font-size="10.00">sll_s_spline_fem_mixedmass_line</text>
</a>
</g>
</g>
<!-- Node1&#45;&gt;Node6 -->
<g id="edge5" class="edge">
<title>Node1&#45;&gt;Node6</title>
<path fill="none" stroke="midnightblue" d="M171.1,-84.69C183.16,-83.36 195.64,-81.98 207.91,-80.63"/>
<polygon fill="midnightblue" stroke="midnightblue" points="208.6,-84.08 218.15,-79.51 207.83,-77.12 208.6,-84.08"/>
</g>
<!-- Node7 -->
<g id="node7" class="node">
<title>Node7</title>
<g id="a_node7"><a xlink:href="namespacesll__m__spline__fem__utilities__3d__helper.html#ae167039e30e88a2962d84a83da08516b" target="_top" xlink:title="Helper function to create sparsity pattern of the 3d mass matrix.">
<polygon fill="white" stroke="black" points="226,-0.5 226,-41.5 385,-41.5 385,-0.5 226,-0.5"/>
<text text-anchor="start" x="234" y="-29.5" font-family="Helvetica,sans-Serif" font-size="10.00">sll_m_spline_fem_utilities</text>
<text text-anchor="start" x="234" y="-18.5" font-family="Helvetica,sans-Serif" font-size="10.00">_3d_helper::sll_s_spline</text>
<text text-anchor="middle" x="305.5" y="-7.5" font-family="Helvetica,sans-Serif" font-size="10.00">_fem_sparsity_mixedmass3d</text>
</a>
</g>
</g>
<!-- Node1&#45;&gt;Node7 -->
<g id="edge6" class="edge">
<title>Node1&#45;&gt;Node7</title>
<path fill="none" stroke="midnightblue" d="M112.24,-84.44C136.56,-75.5 174.11,-61.92 207,-51 213.38,-48.88 220.01,-46.73 226.68,-44.61"/>
<polygon fill="midnightblue" stroke="midnightblue" points="227.97,-47.87 236.45,-41.52 225.86,-41.19 227.97,-47.87"/>
</g>
<!-- Node3 -->
<g id="node3" class="node">
<title>Node3</title>
<g id="a_node3"><a xlink:href="namespacesll__m__spline__fem__utilities__3d__helper.html#ac85b5e0f37a8c44e9b7c6fb266f6620f" target="_top" xlink:title=" ">
<polygon fill="white" stroke="black" points="440,-159 440,-189 584,-189 584,-159 440,-159"/>
<text text-anchor="start" x="448" y="-177" font-family="Helvetica,sans-Serif" font-size="10.00">sll_m_spline_fem_utilities</text>
<text text-anchor="middle" x="512" y="-166" font-family="Helvetica,sans-Serif" font-size="10.00">_3d_helper::massemble2</text>
</a>
</g>
</g>
<!-- Node2&#45;&gt;Node3 -->
<g id="edge2" class="edge">
<title>Node2&#45;&gt;Node3</title>
<path fill="none" stroke="midnightblue" d="M404.26,-174C412.8,-174 421.38,-174 429.77,-174"/>
<polygon fill="midnightblue" stroke="midnightblue" points="429.89,-177.5 439.89,-174 429.89,-170.5 429.89,-177.5"/>
</g>
<!-- Node4 -->
<g id="node4" class="node">
<title>Node4</title>
<g id="a_node4"><a xlink:href="namespacesll__m__spline__fem__utilities__3d__helper.html#ae851b296a1b0780753f40ed1a845ea81" target="_top" xlink:title=" ">
<polygon fill="white" stroke="black" points="620,-159 620,-189 764,-189 764,-159 620,-159"/>
<text text-anchor="start" x="628" y="-177" font-family="Helvetica,sans-Serif" font-size="10.00">sll_m_spline_fem_utilities</text>
<text text-anchor="middle" x="692" y="-166" font-family="Helvetica,sans-Serif" font-size="10.00">_3d_helper::massemble1</text>
</a>
</g>
</g>
<!-- Node3&#45;&gt;Node4 -->
<g id="edge3" class="edge">
<title>Node3&#45;&gt;Node4</title>
<path fill="none" stroke="midnightblue" d="M584.12,-174C592.61,-174 601.33,-174 609.94,-174"/>
<polygon fill="midnightblue" stroke="midnightblue" points="610,-177.5 620,-174 610,-170.5 610,-177.5"/>
</g>
<!-- Node8 -->
<g id="node8" class="node">
<title>Node8</title>
<g id="a_node8"><a xlink:href="namespacesll__m__spline__fem__utilities__3d__helper.html#a007289d653d48a70bfeb660a09725a03" target="_top" xlink:title=" ">
<polygon fill="white" stroke="black" points="440,-6 440,-36 584,-36 584,-6 440,-6"/>
<text text-anchor="start" x="448" y="-24" font-family="Helvetica,sans-Serif" font-size="10.00">sll_m_spline_fem_utilities</text>
<text text-anchor="middle" x="512" y="-13" font-family="Helvetica,sans-Serif" font-size="10.00">_3d_helper::mloop2</text>
</a>
</g>
</g>
<!-- Node7&#45;&gt;Node8 -->
<g id="edge7" class="edge">
<title>Node7&#45;&gt;Node8</title>
<path fill="none" stroke="midnightblue" d="M385.27,-21C399.9,-21 415.2,-21 429.9,-21"/>
<polygon fill="midnightblue" stroke="midnightblue" points="429.96,-24.5 439.96,-21 429.96,-17.5 429.96,-24.5"/>
</g>
<!-- Node9 -->
<g id="node9" class="node">
<title>Node9</title>
<g id="a_node9"><a xlink:href="namespacesll__m__spline__fem__utilities__3d__helper.html#a35ad1ea97da094cf58b058f818620148" target="_top" xlink:title=" ">
<polygon fill="white" stroke="black" points="620,-6 620,-36 764,-36 764,-6 620,-6"/>
<text text-anchor="start" x="628" y="-24" font-family="Helvetica,sans-Serif" font-size="10.00">sll_m_spline_fem_utilities</text>
<text text-anchor="middle" x="692" y="-13" font-family="Helvetica,sans-Serif" font-size="10.00">_3d_helper::mloop1</text>
</a>
</g>
</g>
<!-- Node8&#45;&gt;Node9 -->
<g id="edge8" class="edge">
<title>Node8&#45;&gt;Node9</title>
<path fill="none" stroke="midnightblue" d="M584.12,-21C592.61,-21 601.33,-21 609.94,-21"/>
<polygon fill="midnightblue" stroke="midnightblue" points="610,-24.5 620,-21 610,-17.5 610,-24.5"/>
</g>
</g>
</svg>
        <g id="navigator" transform="translate(0 0)" fill="#404254">
                <rect fill="#f2f5e9" fill-opacity="0.5" stroke="#606060" stroke-width=".5" x="0" y="0" width="60" height="60"/>
                <use id="zoomplus" xlink:href="#zoomPlus" x="17" y="9" onmousedown="handleZoom(evt,'in')"/>
                <use id="zoomminus" xlink:href="#zoomMin" x="42" y="9" onmousedown="handleZoom(evt,'out')"/>
                <use id="reset" xlink:href="#resetDef" x="30" y="36" onmousedown="handleReset()"/>
                <g id="arrowUp" xlink:href="#dirArrow" transform="translate(30 24)" onmousedown="handlePan(0,-1)">
                  <use xlink:href="#rim" fill="#404040">
                        <set attributeName="fill" to="#808080" begin="arrowUp.mouseover" end="arrowUp.mouseout"/>
                  </use>
                  <path fill="none" stroke="white" stroke-width="1.5" d="M0,-3.0v7 M-2.5,-0.5L0,-3.0L2.5,-0.5"/>
                </g>
                <g id="arrowRight" xlink:href="#dirArrow" transform="rotate(90) translate(36 -43)" onmousedown="handlePan(1,0)">
                  <use xlink:href="#rim" fill="#404040">
                        <set attributeName="fill" to="#808080" begin="arrowRight.mouseover" end="arrowRight.mouseout"/>
                  </use>
                  <path fill="none" stroke="white" stroke-width="1.5" d="M0,-3.0v7 M-2.5,-0.5L0,-3.0L2.5,-0.5"/>
                </g>
                <g id="arrowDown" xlink:href="#dirArrow" transform="rotate(180) translate(-30 -48)" onmousedown="handlePan(0,1)">
                  <use xlink:href="#rim" fill="#404040">
                        <set attributeName="fill" to="#808080" begin="arrowDown.mouseover" end="arrowDown.mouseout"/>
                  </use>
                  <path fill="none" stroke="white" stroke-width="1.5" d="M0,-3.0v7 M-2.5,-0.5L0,-3.0L2.5,-0.5"/>
                </g>
                <g id="arrowLeft" xlink:href="#dirArrow" transform="rotate(270) translate(-36 17)" onmousedown="handlePan(-1,0)">
                  <use xlink:href="#rim" fill="#404040">
                        <set attributeName="fill" to="#808080" begin="arrowLeft.mouseover" end="arrowLeft.mouseout"/>
                  </use>
                  <path fill="none" stroke="white" stroke-width="1.5" d="M0,-3.0v7 M-2.5,-0.5L0,-3.0L2.5,-0.5"/>
                </g>
        </g>
        <svg viewBox="0 0 15 15" width="100%" height="30px" preserveAspectRatio="xMaxYMin meet">
         <g id="arrow_out" transform="scale(0.3 0.3)">
          <a xlink:href="namespacesll__m__spline__fem__utilities__3d_a75c8275b4be3b0c6cb6f5754f0d2a706_cgraph_org.svg" target="_base">
           <rect id="button" ry="5" rx="5" y="6" x="6" height="38" width="38"
                fill="#f2f5e9" fill-opacity="0.5" stroke="#606060" stroke-width="1.0"/>
           <path id="arrow"
             d="M 11.500037,31.436501 C 11.940474,20.09759 22.043105,11.32322 32.158766,21.979434 L 37.068811,17.246167 C 37.068811,17.246167 37.088388,32 37.088388,32 L 22.160133,31.978069 C 22.160133,31.978069 26.997745,27.140456 26.997745,27.140456 C 18.528582,18.264221 13.291696,25.230495 11.500037,31.436501 z"
             style="fill:#404040;"/>
          </a>
         </g>
        </svg>
</svg>
