<?xml version="1.0" encoding="UTF-8" standalone="no"?>
<!DOCTYPE svg PUBLIC "-//W3C//DTD SVG 1.1//EN"
 "http://www.w3.org/Graphics/SVG/1.1/DTD/svg11.dtd">
<!-- Generated by graphviz version 2.40.1 (20161225.0304)
 -->
<!-- Title: mp_acquire_int_1d Pages: 1 -->
<svg width="411pt" height="66pt"
 viewBox="0.00 0.00 411.00 66.00" xmlns="http://www.w3.org/2000/svg" xmlns:xlink="http://www.w3.org/1999/xlink">
<g id="graph0" class="graph" transform="scale(1 1) rotate(0) translate(4 62)">
<title>mp_acquire_int_1d</title>
<polygon fill="#ffffff" stroke="transparent" points="-4,4 -4,-62 407,-62 407,4 -4,4"/>
<!-- Node85 -->
<g id="node1" class="node">
<title>Node85</title>
<polygon fill="#bfbfbf" stroke="#000000" points="0,-19.5 0,-38.5 109,-38.5 109,-19.5 0,-19.5"/>
<text text-anchor="middle" x="54.5" y="-26.5" font-family="Helvetica,sans-Serif" font-size="10.00" fill="#000000">mp_acquire_int_1d</text>
</g>
<!-- Node86 -->
<g id="node2" class="node">
<title>Node86</title>
<g id="a_node2"><a xlink:href="namespacefmempool.html#a04ed54d0c65f6226369b350cfaa124f4" target="_top" xlink:title="get_n_elem">
<polygon fill="#ffffff" stroke="#000000" points="161,-38.5 161,-57.5 235,-57.5 235,-38.5 161,-38.5"/>
<text text-anchor="middle" x="198" y="-45.5" font-family="Helvetica,sans-Serif" font-size="10.00" fill="#000000">get_n_elem</text>
</a>
</g>
</g>
<!-- Node85&#45;&gt;Node86 -->
<g id="edge1" class="edge">
<title>Node85&#45;&gt;Node86</title>
<path fill="none" stroke="#191970" d="M109.1606,-36.2373C122.92,-38.0591 137.5697,-39.9988 150.9215,-41.7666"/>
<polygon fill="#191970" stroke="#191970" points="150.4696,-45.2372 160.8425,-43.0802 151.3885,-38.2978 150.4696,-45.2372"/>
</g>
<!-- Node87 -->
<g id="node3" class="node">
<title>Node87</title>
<g id="a_node3"><a xlink:href="namespacefmempool.html#a7d6d7b60f6147c50c872e4d81f5d02fd" target="_top" xlink:title="mp_acquire_bytes">
<polygon fill="#ffffff" stroke="#000000" points="145,-.5 145,-19.5 251,-19.5 251,-.5 145,-.5"/>
<text text-anchor="middle" x="198" y="-7.5" font-family="Helvetica,sans-Serif" font-size="10.00" fill="#000000">mp_acquire_bytes</text>
</a>
</g>
</g>
<!-- Node85&#45;&gt;Node87 -->
<g id="edge2" class="edge">
<title>Node85&#45;&gt;Node87</title>
<path fill="none" stroke="#191970" d="M109.1606,-21.7627C117.586,-20.6471 126.3453,-19.4874 134.936,-18.3499"/>
<polygon fill="#191970" stroke="#191970" points="135.4591,-21.8113 144.9131,-17.0289 134.5402,-14.8719 135.4591,-21.8113"/>
</g>
<!-- Node88 -->
<g id="node4" class="node">
<title>Node88</title>
<g id="a_node4"><a xlink:href="namespacefmempool.html#a01aa784ca8bcf6dab0816a16963db6dc" target="_top" xlink:title="get_omp_thread_idx">
<polygon fill="#ffffff" stroke="#000000" points="287,-.5 287,-19.5 403,-19.5 403,-.5 287,-.5"/>
<text text-anchor="middle" x="345" y="-7.5" font-family="Helvetica,sans-Serif" font-size="10.00" fill="#000000">get_omp_thread_idx</text>
</a>
</g>
</g>
<!-- Node87&#45;&gt;Node88 -->
<g id="edge3" class="edge">
<title>Node87&#45;&gt;Node88</title>
<path fill="none" stroke="#191970" d="M251.0704,-10C259.4048,-10 268.1199,-10 276.7385,-10"/>
<polygon fill="#191970" stroke="#191970" points="276.783,-13.5001 286.783,-10 276.7829,-6.5001 276.783,-13.5001"/>
</g>
</g>
</svg>
