<?xml version="1.0" encoding="UTF-8" standalone="no"?>
<!DOCTYPE svg PUBLIC "-//W3C//DTD SVG 1.1//EN"
 "http://www.w3.org/Graphics/SVG/1.1/DTD/svg11.dtd">
<!-- Generated by graphviz version 2.40.1 (20161225.0304)
 -->
<!-- Title: add_current_evaluate_spline_strong_1d_quadrature Pages: 1 -->
<svg width="359pt" height="66pt"
 viewBox="0.00 0.00 359.00 66.00" xmlns="http://www.w3.org/2000/svg" xmlns:xlink="http://www.w3.org/1999/xlink">
<g id="graph0" class="graph" transform="scale(1 1) rotate(0) translate(4 62)">
<title>add_current_evaluate_spline_strong_1d_quadrature</title>
<polygon fill="#ffffff" stroke="transparent" points="-4,4 -4,-62 355,-62 355,4 -4,4"/>
<!-- Node8 -->
<g id="node1" class="node">
<title>Node8</title>
<polygon fill="#bfbfbf" stroke="#000000" points="0,-14 0,-44 163,-44 163,-14 0,-14"/>
<text text-anchor="start" x="8" y="-32" font-family="Helvetica,sans-Serif" font-size="10.00" fill="#000000">add_current_evaluate</text>
<text text-anchor="middle" x="81.5" y="-21" font-family="Helvetica,sans-Serif" font-size="10.00" fill="#000000">_spline_strong_1d_quadrature</text>
</g>
<!-- Node9 -->
<g id="node2" class="node">
<title>Node9</title>
<g id="a_node2"><a xlink:href="namespacesll__m__particle__mesh__coupling__spline__strong__1d.html#a9f30e84e3a4a46997c24e38e912cfd02" target="_top" xlink:title="helper_normalized_position">
<polygon fill="#ffffff" stroke="#000000" points="199,-38.5 199,-57.5 351,-57.5 351,-38.5 199,-38.5"/>
<text text-anchor="middle" x="275" y="-45.5" font-family="Helvetica,sans-Serif" font-size="10.00" fill="#000000">helper_normalized_position</text>
</a>
</g>
</g>
<!-- Node8&#45;&gt;Node9 -->
<g id="edge1" class="edge">
<title>Node8&#45;&gt;Node9</title>
<path fill="none" stroke="#191970" d="M163.0006,-37.0026C171.5378,-37.8409 180.2375,-38.6952 188.8247,-39.5383"/>
<polygon fill="#191970" stroke="#191970" points="188.543,-43.0274 198.8372,-40.5215 189.2272,-36.0609 188.543,-43.0274"/>
</g>
<!-- Node10 -->
<g id="node3" class="node">
<title>Node10</title>
<g id="a_node3"><a xlink:href="namespacesll__m__particle__mesh__coupling__spline__strong__1d.html#ab6d0684e8491bf304860fe4d4c0015e1" target="_top" xlink:title="current_eval_local">
<polygon fill="#ffffff" stroke="#000000" points="222,-.5 222,-19.5 328,-19.5 328,-.5 222,-.5"/>
<text text-anchor="middle" x="275" y="-7.5" font-family="Helvetica,sans-Serif" font-size="10.00" fill="#000000">current_eval_local</text>
</a>
</g>
</g>
<!-- Node8&#45;&gt;Node10 -->
<g id="edge2" class="edge">
<title>Node8&#45;&gt;Node10</title>
<path fill="none" stroke="#191970" d="M163.0006,-20.9974C179.3528,-19.3917 196.3012,-17.7275 211.9135,-16.1945"/>
<polygon fill="#191970" stroke="#191970" points="212.3503,-19.6686 221.9604,-15.208 211.6662,-12.7021 212.3503,-19.6686"/>
</g>
</g>
</svg>
