<?xml version="1.0" encoding="UTF-8" standalone="no"?>
<!DOCTYPE svg PUBLIC "-//W3C//DTD SVG 1.1//EN"
 "http://www.w3.org/Graphics/SVG/1.1/DTD/svg11.dtd">
<!-- Generated by graphviz version 2.38.0 (20140413.2041)
 -->
<!-- Title: initialize_general_elliptic_solver Pages: 1 -->
<svg width="738pt" height="337pt"
 viewBox="0.00 0.00 738.00 336.50" xmlns="http://www.w3.org/2000/svg" xmlns:xlink="http://www.w3.org/1999/xlink">
<g id="graph0" class="graph" transform="scale(1 1) rotate(0) translate(4 332.5)">
<title>initialize_general_elliptic_solver</title>
<polygon fill="white" stroke="none" points="-4,4 -4,-332.5 734,-332.5 734,4 -4,4"/>
<!-- Node1 -->
<g id="node1" class="node"><title>Node1</title>
<polygon fill="#bfbfbf" stroke="black" points="0,-166.5 0,-196.5 89,-196.5 89,-166.5 0,-166.5"/>
<text text-anchor="start" x="8" y="-184.5" font-family="Helvetica,sans-Serif" font-size="10.00">initialize_general</text>
<text text-anchor="middle" x="44.5" y="-173.5" font-family="Helvetica,sans-Serif" font-size="10.00">_elliptic_solver</text>
</g>
<!-- Node2 -->
<g id="node2" class="node"><title>Node2</title>
<g id="a_node2"><a xlink:href="namespacesll__m__general__coordinate__elliptic__solver.html#a7ff96a60c1ca1c84f6a4d6f42df49b93" target="_top" xlink:title="Assembling knots array. ">
<polygon fill="white" stroke="black" points="142.5,-309 142.5,-328 223.5,-328 223.5,-309 142.5,-309"/>
<text text-anchor="middle" x="183" y="-316" font-family="Helvetica,sans-Serif" font-size="10.00">initialize_knots</text>
</a>
</g>
</g>
<!-- Node1&#45;&gt;Node2 -->
<g id="edge1" class="edge"><title>Node1&#45;&gt;Node2</title>
<path fill="none" stroke="midnightblue" d="M51.6977,-196.505C62.7546,-221.471 88.2224,-271.551 125,-299.5 127.494,-301.395 130.187,-303.108 132.999,-304.653"/>
<polygon fill="midnightblue" stroke="midnightblue" points="131.745,-307.932 142.282,-309.045 134.739,-301.605 131.745,-307.932"/>
</g>
<!-- Node3 -->
<g id="node3" class="node"><title>Node3</title>
<g id="a_node3"><a xlink:href="namespacesll__m__deboor__splines__1d.html#a398ef6ca2b45ebcd64c4e1640a8b5bbe" target="_top" xlink:title="Calculates the nonvanishing B&#45;splines and derivatives at X. ">
<polygon fill="white" stroke="black" points="128,-259.5 128,-289.5 238,-289.5 238,-259.5 128,-259.5"/>
<text text-anchor="start" x="136" y="-277.5" font-family="Helvetica,sans-Serif" font-size="10.00">sll_m_deboor_splines</text>
<text text-anchor="middle" x="183" y="-266.5" font-family="Helvetica,sans-Serif" font-size="10.00">_1d::sll_s_bsplvd</text>
</a>
</g>
</g>
<!-- Node1&#45;&gt;Node3 -->
<g id="edge2" class="edge"><title>Node1&#45;&gt;Node3</title>
<path fill="none" stroke="midnightblue" d="M59.8979,-196.531C75.015,-211.671 100.019,-234.954 125,-250.5 127.436,-252.016 129.984,-253.477 132.595,-254.877"/>
<polygon fill="midnightblue" stroke="midnightblue" points="131.129,-258.058 141.639,-259.402 134.261,-251.798 131.129,-258.058"/>
</g>
<!-- Node5 -->
<g id="node5" class="node"><title>Node5</title>
<g id="a_node5"><a xlink:href="namespacesll__m__deboor__splines__1d.html#a4f9fcaf3a83c7141df5d8a5299346c45" target="_top" xlink:title="Brackets a real value in an ascending vector of values. ">
<polygon fill="white" stroke="black" points="128,-210.5 128,-240.5 238,-240.5 238,-210.5 128,-210.5"/>
<text text-anchor="start" x="136" y="-228.5" font-family="Helvetica,sans-Serif" font-size="10.00">sll_m_deboor_splines</text>
<text text-anchor="middle" x="183" y="-217.5" font-family="Helvetica,sans-Serif" font-size="10.00">_1d::sll_s_interv</text>
</a>
</g>
</g>
<!-- Node1&#45;&gt;Node5 -->
<g id="edge4" class="edge"><title>Node1&#45;&gt;Node5</title>
<path fill="none" stroke="midnightblue" d="M89.0648,-195.543C100.639,-199.274 113.308,-203.357 125.465,-207.276"/>
<polygon fill="midnightblue" stroke="midnightblue" points="124.484,-210.637 135.075,-210.374 126.631,-203.975 124.484,-210.637"/>
</g>
<!-- Node6 -->
<g id="node6" class="node"><title>Node6</title>
<g id="a_node6"><a xlink:href="namespacesll__m__general__coordinate__elliptic__solver.html#a6178a8050ae7382ba5ffc63e0df2857b" target="_top" xlink:title="compute_global_knots">
<polygon fill="white" stroke="black" points="289,-213 289,-232 403,-232 403,-213 289,-213"/>
<text text-anchor="middle" x="346" y="-220" font-family="Helvetica,sans-Serif" font-size="10.00">compute_global_knots</text>
</a>
</g>
</g>
<!-- Node1&#45;&gt;Node6 -->
<g id="edge5" class="edge"><title>Node1&#45;&gt;Node6</title>
<path fill="none" stroke="midnightblue" d="M89.1565,-184.342C128.892,-187.26 189.095,-192.513 241,-200.5 258.84,-203.245 278.229,-207.104 295.378,-210.825"/>
<polygon fill="midnightblue" stroke="midnightblue" points="294.669,-214.252 305.189,-212.99 296.178,-207.417 294.669,-214.252"/>
</g>
<!-- Node9 -->
<g id="node9" class="node"><title>Node9</title>
<g id="a_node9"><a xlink:href="namespacesll__m__general__coordinate__elliptic__solver.html#a4b97f8447ef161a4544d6888dd194f56" target="_top" xlink:title="compute_non_zero_splines\l_and_deriv_at_cell_points">
<polygon fill="white" stroke="black" points="278.5,-0.5 278.5,-30.5 413.5,-30.5 413.5,-0.5 278.5,-0.5"/>
<text text-anchor="start" x="286.5" y="-18.5" font-family="Helvetica,sans-Serif" font-size="10.00">compute_non_zero_splines</text>
<text text-anchor="middle" x="346" y="-7.5" font-family="Helvetica,sans-Serif" font-size="10.00">_and_deriv_at_cell_points</text>
</a>
</g>
</g>
<!-- Node1&#45;&gt;Node9 -->
<g id="edge8" class="edge"><title>Node1&#45;&gt;Node9</title>
<path fill="none" stroke="midnightblue" d="M59.3897,-166.369C74.2911,-150.926 99.3006,-127.2 125,-112.5 172.213,-85.4942 194.364,-101.492 241,-73.5 259.87,-62.1739 258.216,-50.9669 277,-39.5 279.64,-37.8886 282.403,-36.3647 285.242,-34.9265"/>
<polygon fill="midnightblue" stroke="midnightblue" points="286.911,-38.0103 294.505,-30.6222 283.961,-31.6622 286.911,-38.0103"/>
</g>
<!-- Node10 -->
<g id="node10" class="node"><title>Node10</title>
<g id="a_node10"><a xlink:href="namespacesll__m__general__coordinate__elliptic__solver.html#a1530444505e15898adb13de4fd54458c" target="_top" xlink:title="sll_s_general_elliptic\l_solver_prototype_init">
<polygon fill="white" stroke="black" points="127,-122.5 127,-152.5 239,-152.5 239,-122.5 127,-122.5"/>
<text text-anchor="start" x="135" y="-140.5" font-family="Helvetica,sans-Serif" font-size="10.00">sll_s_general_elliptic</text>
<text text-anchor="middle" x="183" y="-129.5" font-family="Helvetica,sans-Serif" font-size="10.00">_solver_prototype_init</text>
</a>
</g>
</g>
<!-- Node1&#45;&gt;Node10 -->
<g id="edge9" class="edge"><title>Node1&#45;&gt;Node10</title>
<path fill="none" stroke="midnightblue" d="M89.0648,-167.457C100.639,-163.726 113.308,-159.643 125.465,-155.724"/>
<polygon fill="midnightblue" stroke="midnightblue" points="126.631,-159.025 135.075,-152.626 124.484,-152.363 126.631,-159.025"/>
</g>
<!-- Node17 -->
<g id="node17" class="node"><title>Node17</title>
<g id="a_node17"><a xlink:href="namespacesll__m__sparse__matrix.html#adb438a42106336f09fc13c379a3ee56e" target="_top" xlink:title="sll_m_sparse_matrix\l::sll_s_free_csr_matrix">
<polygon fill="white" stroke="black" points="125,-34.5 125,-64.5 241,-64.5 241,-34.5 125,-34.5"/>
<text text-anchor="start" x="133" y="-52.5" font-family="Helvetica,sans-Serif" font-size="10.00">sll_m_sparse_matrix</text>
<text text-anchor="middle" x="183" y="-41.5" font-family="Helvetica,sans-Serif" font-size="10.00">::sll_s_free_csr_matrix</text>
</a>
</g>
</g>
<!-- Node1&#45;&gt;Node17 -->
<g id="edge20" class="edge"><title>Node1&#45;&gt;Node17</title>
<path fill="none" stroke="midnightblue" d="M54.384,-166.366C67.5883,-144.88 94.1743,-105.286 125,-79.5 129.235,-75.9573 133.957,-72.6652 138.82,-69.6588"/>
<polygon fill="midnightblue" stroke="midnightblue" points="140.739,-72.5924 147.652,-64.5635 137.241,-66.5291 140.739,-72.5924"/>
</g>
<!-- Node4 -->
<g id="node4" class="node"><title>Node4</title>
<g id="a_node4"><a xlink:href="namespacesll__m__deboor__splines__1d.html#a6672aeacfcdae431900c9307a3a4bc93" target="_top" xlink:title="Evaluates B&#45;splines at a point X with a given knot sequence. ">
<polygon fill="white" stroke="black" points="291,-259.5 291,-289.5 401,-289.5 401,-259.5 291,-259.5"/>
<text text-anchor="start" x="299" y="-277.5" font-family="Helvetica,sans-Serif" font-size="10.00">sll_m_deboor_splines</text>
<text text-anchor="middle" x="346" y="-266.5" font-family="Helvetica,sans-Serif" font-size="10.00">_1d::sll_s_bsplvb</text>
</a>
</g>
</g>
<!-- Node3&#45;&gt;Node4 -->
<g id="edge3" class="edge"><title>Node3&#45;&gt;Node4</title>
<path fill="none" stroke="midnightblue" d="M238.059,-274.5C251.731,-274.5 266.549,-274.5 280.674,-274.5"/>
<polygon fill="midnightblue" stroke="midnightblue" points="280.81,-278 290.81,-274.5 280.81,-271 280.81,-278"/>
</g>
<!-- Node7 -->
<g id="node7" class="node"><title>Node7</title>
<g id="a_node7"><a xlink:href="namespacesll__m__general__coordinate__elliptic__solver.html#affbbc69434a49d65cbbd0a62f77c5dcd" target="_top" xlink:title="compute_bc_indices">
<polygon fill="white" stroke="black" points="457.5,-251 457.5,-270 563.5,-270 563.5,-251 457.5,-251"/>
<text text-anchor="middle" x="510.5" y="-258" font-family="Helvetica,sans-Serif" font-size="10.00">compute_bc_indices</text>
</a>
</g>
</g>
<!-- Node6&#45;&gt;Node7 -->
<g id="edge6" class="edge"><title>Node6&#45;&gt;Node7</title>
<path fill="none" stroke="midnightblue" d="M388.006,-232.089C409.546,-237.126 436.135,-243.344 458.941,-248.677"/>
<polygon fill="midnightblue" stroke="midnightblue" points="458.255,-252.111 468.789,-250.98 459.849,-245.295 458.255,-252.111"/>
</g>
<!-- Node8 -->
<g id="node8" class="node"><title>Node8</title>
<g id="a_node8"><a xlink:href="namespacesll__m__general__coordinate__elliptic__solver.html#a28d7b2c5dc102d89fd10040982029e00" target="_top" xlink:title="compute_local_to_global\l_splines_indices">
<polygon fill="white" stroke="black" points="606,-199.5 606,-229.5 730,-229.5 730,-199.5 606,-199.5"/>
<text text-anchor="start" x="614" y="-217.5" font-family="Helvetica,sans-Serif" font-size="10.00">compute_local_to_global</text>
<text text-anchor="middle" x="668" y="-206.5" font-family="Helvetica,sans-Serif" font-size="10.00">_splines_indices</text>
</a>
</g>
</g>
<!-- Node6&#45;&gt;Node8 -->
<g id="edge7" class="edge"><title>Node6&#45;&gt;Node8</title>
<path fill="none" stroke="midnightblue" d="M403.106,-221.097C456.624,-219.759 537.465,-217.738 595.563,-216.286"/>
<polygon fill="midnightblue" stroke="midnightblue" points="595.861,-219.78 605.771,-216.031 595.686,-212.782 595.861,-219.78"/>
</g>
<!-- Node10&#45;&gt;Node6 -->
<g id="edge15" class="edge"><title>Node10&#45;&gt;Node6</title>
<path fill="none" stroke="midnightblue" d="M216.672,-152.542C224.908,-156.906 233.527,-161.995 241,-167.5 259.218,-180.921 257.465,-192.082 277,-203.5 280.691,-205.657 284.638,-207.579 288.703,-209.29"/>
<polygon fill="midnightblue" stroke="midnightblue" points="287.746,-212.669 298.338,-212.91 290.208,-206.117 287.746,-212.669"/>
</g>
<!-- Node10&#45;&gt;Node9 -->
<g id="edge16" class="edge"><title>Node10&#45;&gt;Node9</title>
<path fill="none" stroke="midnightblue" d="M220.582,-122.433C227.907,-118.317 235.141,-113.344 241,-107.5 265.21,-83.3489 251.102,-61.8316 277,-39.5 278.493,-38.2123 280.06,-36.9923 281.686,-35.8364"/>
<polygon fill="midnightblue" stroke="midnightblue" points="283.555,-38.7962 290.238,-30.5755 279.887,-32.8339 283.555,-38.7962"/>
</g>
<!-- Node11 -->
<g id="node11" class="node"><title>Node11</title>
<g id="a_node11"><a xlink:href="namespacesll__m__general__coordinate__elliptic__solver.html#af5e8d40d1650bab4953a450f4696a5f1" target="_top" xlink:title="compute_total_num_splines">
<polygon fill="white" stroke="black" points="277,-175 277,-194 415,-194 415,-175 277,-175"/>
<text text-anchor="middle" x="346" y="-182" font-family="Helvetica,sans-Serif" font-size="10.00">compute_total_num_splines</text>
</a>
</g>
</g>
<!-- Node10&#45;&gt;Node11 -->
<g id="edge10" class="edge"><title>Node10&#45;&gt;Node11</title>
<path fill="none" stroke="midnightblue" d="M235.384,-152.5C257.054,-158.826 281.976,-166.102 302.576,-172.115"/>
<polygon fill="midnightblue" stroke="midnightblue" points="301.728,-175.514 312.309,-174.957 303.69,-168.794 301.728,-175.514"/>
</g>
<!-- Node13 -->
<g id="node13" class="node"><title>Node13</title>
<g id="a_node13"><a xlink:href="namespacesll__m__general__coordinate__elliptic__solver.html#aa9ceef40154354e9427b67d594a0f821" target="_top" xlink:title="compute_index">
<polygon fill="white" stroke="black" points="626.5,-153 626.5,-172 709.5,-172 709.5,-153 626.5,-153"/>
<text text-anchor="middle" x="668" y="-160" font-family="Helvetica,sans-Serif" font-size="10.00">compute_index</text>
</a>
</g>
</g>
<!-- Node10&#45;&gt;Node13 -->
<g id="edge19" class="edge"><title>Node10&#45;&gt;Node13</title>
<path fill="none" stroke="midnightblue" d="M239.406,-140.368C333.89,-145.258 524.8,-155.14 616.108,-159.866"/>
<polygon fill="midnightblue" stroke="midnightblue" points="616.042,-163.367 626.21,-160.389 616.404,-156.376 616.042,-163.367"/>
</g>
<!-- Node14 -->
<g id="node14" class="node"><title>Node14</title>
<g id="a_node14"><a xlink:href="namespacesll__m__general__coordinate__elliptic__solver.html#a028b7cd93513f607d6aec3541e076f93" target="_top" xlink:title="compute_vec_size">
<polygon fill="white" stroke="black" points="297,-99 297,-118 395,-118 395,-99 297,-99"/>
<text text-anchor="middle" x="346" y="-106" font-family="Helvetica,sans-Serif" font-size="10.00">compute_vec_size</text>
</a>
</g>
</g>
<!-- Node10&#45;&gt;Node14 -->
<g id="edge14" class="edge"><title>Node10&#45;&gt;Node14</title>
<path fill="none" stroke="midnightblue" d="M239.407,-127.52C254.703,-124.765 271.343,-121.767 286.793,-118.985"/>
<polygon fill="midnightblue" stroke="midnightblue" points="287.526,-122.409 296.748,-117.191 286.285,-115.52 287.526,-122.409"/>
</g>
<!-- Node15 -->
<g id="node15" class="node"><title>Node15</title>
<g id="a_node15"><a xlink:href="namespacesll__m__general__coordinate__elliptic__solver.html#accca7b4fada93fd5a46e69cb9889a2d3" target="_top" xlink:title="compute_non_zero_splines\l_at_cell_points">
<polygon fill="white" stroke="black" points="278.5,-49.5 278.5,-79.5 413.5,-79.5 413.5,-49.5 278.5,-49.5"/>
<text text-anchor="start" x="286.5" y="-67.5" font-family="Helvetica,sans-Serif" font-size="10.00">compute_non_zero_splines</text>
<text text-anchor="middle" x="346" y="-56.5" font-family="Helvetica,sans-Serif" font-size="10.00">_at_cell_points</text>
</a>
</g>
</g>
<!-- Node10&#45;&gt;Node15 -->
<g id="edge17" class="edge"><title>Node10&#45;&gt;Node15</title>
<path fill="none" stroke="midnightblue" d="M212.996,-122.305C237.822,-109.333 270.555,-92.3348 277,-89.5 281.771,-87.4015 286.779,-85.3273 291.822,-83.3246"/>
<polygon fill="midnightblue" stroke="midnightblue" points="293.45,-86.4478 301.512,-79.5736 290.923,-79.9198 293.45,-86.4478"/>
</g>
<!-- Node12 -->
<g id="node12" class="node"><title>Node12</title>
<g id="a_node12"><a xlink:href="namespacesll__m__general__coordinate__elliptic__solver.html#a2371433254cb8dfeb5dabf61337f90bd" target="_top" xlink:title="compute_b_spline_at_x">
<polygon fill="white" stroke="black" points="451,-175 451,-194 570,-194 570,-175 451,-175"/>
<text text-anchor="middle" x="510.5" y="-182" font-family="Helvetica,sans-Serif" font-size="10.00">compute_b_spline_at_x</text>
</a>
</g>
</g>
<!-- Node11&#45;&gt;Node12 -->
<g id="edge11" class="edge"><title>Node11&#45;&gt;Node12</title>
<path fill="none" stroke="midnightblue" d="M415.444,-184.5C423.83,-184.5 432.403,-184.5 440.794,-184.5"/>
<polygon fill="midnightblue" stroke="midnightblue" points="440.913,-188 450.913,-184.5 440.913,-181 440.913,-188"/>
</g>
<!-- Node12&#45;&gt;Node8 -->
<g id="edge13" class="edge"><title>Node12&#45;&gt;Node8</title>
<path fill="none" stroke="midnightblue" d="M561.129,-194.075C572.239,-196.218 584.235,-198.532 596.022,-200.806"/>
<polygon fill="midnightblue" stroke="midnightblue" points="595.367,-204.245 605.849,-202.702 596.693,-197.371 595.367,-204.245"/>
</g>
<!-- Node12&#45;&gt;Node13 -->
<g id="edge12" class="edge"><title>Node12&#45;&gt;Node13</title>
<path fill="none" stroke="midnightblue" d="M570.288,-176.183C585.237,-174.068 601.182,-171.812 615.723,-169.755"/>
<polygon fill="midnightblue" stroke="midnightblue" points="616.619,-173.163 626.03,-168.296 615.638,-166.232 616.619,-173.163"/>
</g>
<!-- Node16 -->
<g id="node16" class="node"><title>Node16</title>
<g id="a_node16"><a xlink:href="namespacesll__m__cubic__splines.html#aae80d16d07bd41d098d50dc749e68d24" target="_top" xlink:title="sll_m_cubic_splines\l::sll_s_cubic_spline\l_2d_init">
<polygon fill="white" stroke="black" points="458.5,-44 458.5,-85 562.5,-85 562.5,-44 458.5,-44"/>
<text text-anchor="start" x="466.5" y="-73" font-family="Helvetica,sans-Serif" font-size="10.00">sll_m_cubic_splines</text>
<text text-anchor="start" x="466.5" y="-62" font-family="Helvetica,sans-Serif" font-size="10.00">::sll_s_cubic_spline</text>
<text text-anchor="middle" x="510.5" y="-51" font-family="Helvetica,sans-Serif" font-size="10.00">_2d_init</text>
</a>
</g>
</g>
<!-- Node15&#45;&gt;Node16 -->
<g id="edge18" class="edge"><title>Node15&#45;&gt;Node16</title>
<path fill="none" stroke="midnightblue" d="M413.564,-64.5C424.972,-64.5 436.78,-64.5 448.047,-64.5"/>
<polygon fill="midnightblue" stroke="midnightblue" points="448.215,-68.0001 458.215,-64.5 448.215,-61.0001 448.215,-68.0001"/>
</g>
</g>
</svg>
