<?xml version="1.0" encoding="UTF-8" standalone="no"?>
<!DOCTYPE svg PUBLIC "-//W3C//DTD SVG 1.1//EN"
 "http://www.w3.org/Graphics/SVG/1.1/DTD/svg11.dtd">
<!-- Generated by graphviz version 2.38.0 (20140413.2041)
 -->
<!-- Title: dehierarchical_stripe_recursive Pages: 1 -->
<svg width="680pt" height="39pt"
 viewBox="0.00 0.00 680.00 39.00" xmlns="http://www.w3.org/2000/svg" xmlns:xlink="http://www.w3.org/1999/xlink">
<g id="graph0" class="graph" transform="scale(1 1) rotate(0) translate(4 35)">
<title>dehierarchical_stripe_recursive</title>
<polygon fill="white" stroke="none" points="-4,4 -4,-35 676,-35 676,4 -4,4"/>
<!-- Node1 -->
<g id="node1" class="node"><title>Node1</title>
<polygon fill="#bfbfbf" stroke="black" points="0,-0.5 0,-30.5 106,-30.5 106,-0.5 0,-0.5"/>
<text text-anchor="start" x="8" y="-18.5" font-family="Helvetica,sans-Serif" font-size="10.00">dehierarchical_stripe</text>
<text text-anchor="middle" x="53" y="-7.5" font-family="Helvetica,sans-Serif" font-size="10.00">_recursive</text>
</g>
<!-- Node2 -->
<g id="node2" class="node"><title>Node2</title>
<g id="a_node2"><a xlink:href="namespacesll__m__sparse__grid__interpolator.html#ad842d658a4fc121b179d8e07e7af947d" target="_top" xlink:title="dehierarchical_stripe">
<polygon fill="white" stroke="black" points="142,-6 142,-25 248,-25 248,-6 142,-6"/>
<text text-anchor="middle" x="195" y="-13" font-family="Helvetica,sans-Serif" font-size="10.00">dehierarchical_stripe</text>
</a>
</g>
</g>
<!-- Node1&#45;&gt;Node2 -->
<g id="edge1" class="edge"><title>Node1&#45;&gt;Node2</title>
<path fill="none" stroke="midnightblue" d="M116.387,-15.5C124.885,-15.5 133.534,-15.5 141.826,-15.5"/>
<polygon fill="midnightblue" stroke="midnightblue" points="116.131,-12.0001 106.131,-15.5 116.131,-19.0001 116.131,-12.0001"/>
</g>
<!-- Node3 -->
<g id="node3" class="node"><title>Node3</title>
<g id="a_node3"><a xlink:href="namespacesll__m__sparse__grid__interpolator.html#abde63630cfb91242fb29f6d8919a9ef8" target="_top" xlink:title="interpolate_disp_1d\l_periodic">
<polygon fill="white" stroke="black" points="284,-0.5 284,-30.5 385,-30.5 385,-0.5 284,-0.5"/>
<text text-anchor="start" x="292" y="-18.5" font-family="Helvetica,sans-Serif" font-size="10.00">interpolate_disp_1d</text>
<text text-anchor="middle" x="334.5" y="-7.5" font-family="Helvetica,sans-Serif" font-size="10.00">_periodic</text>
</a>
</g>
</g>
<!-- Node2&#45;&gt;Node3 -->
<g id="edge2" class="edge"><title>Node2&#45;&gt;Node3</title>
<path fill="none" stroke="midnightblue" d="M258.643,-15.5C267.141,-15.5 275.764,-15.5 283.988,-15.5"/>
<polygon fill="midnightblue" stroke="midnightblue" points="258.375,-12.0001 248.375,-15.5 258.375,-19.0001 258.375,-12.0001"/>
</g>
<!-- Node4 -->
<g id="node4" class="node"><title>Node4</title>
<g id="a_node4"><a xlink:href="namespacesll__m__sparse__grid__interpolator.html#a27497afcda9d0024745a848b26449a4d" target="_top" xlink:title="interpolate_disp_recursive">
<polygon fill="white" stroke="black" points="421,-6 421,-25 551,-25 551,-6 421,-6"/>
<text text-anchor="middle" x="486" y="-13" font-family="Helvetica,sans-Serif" font-size="10.00">interpolate_disp_recursive</text>
</a>
</g>
</g>
<!-- Node3&#45;&gt;Node4 -->
<g id="edge3" class="edge"><title>Node3&#45;&gt;Node4</title>
<path fill="none" stroke="midnightblue" d="M395.341,-15.5C403.718,-15.5 412.355,-15.5 420.809,-15.5"/>
<polygon fill="midnightblue" stroke="midnightblue" points="395.281,-12.0001 385.281,-15.5 395.281,-19.0001 395.281,-12.0001"/>
</g>
<!-- Node5 -->
<g id="node5" class="node"><title>Node5</title>
<g id="a_node5"><a xlink:href="namespacesll__m__sparse__grid__interpolator.html#ada6560fddb123d6ef7b00b5397918de2" target="_top" xlink:title="interpolate_disp">
<polygon fill="white" stroke="black" points="587,-6 587,-25 672,-25 672,-6 587,-6"/>
<text text-anchor="middle" x="629.5" y="-13" font-family="Helvetica,sans-Serif" font-size="10.00">interpolate_disp</text>
</a>
</g>
</g>
<!-- Node4&#45;&gt;Node5 -->
<g id="edge4" class="edge"><title>Node4&#45;&gt;Node5</title>
<path fill="none" stroke="midnightblue" d="M561.398,-15.5C570.146,-15.5 578.82,-15.5 586.882,-15.5"/>
<polygon fill="midnightblue" stroke="midnightblue" points="561.126,-12.0001 551.126,-15.5 561.126,-19.0001 561.126,-12.0001"/>
</g>
</g>
</svg>
