<?xml version="1.0" encoding="UTF-8" standalone="no"?>
<!DOCTYPE svg PUBLIC "-//W3C//DTD SVG 1.1//EN"
 "http://www.w3.org/Graphics/SVG/1.1/DTD/svg11.dtd">
<!-- Generated by graphviz version 2.38.0 (20140413.2041)
 -->
<!-- Title: sll_collective_allgather_int Pages: 1 -->
<svg width="296pt" height="66pt"
 viewBox="0.00 0.00 296.00 66.00" xmlns="http://www.w3.org/2000/svg" xmlns:xlink="http://www.w3.org/1999/xlink">
<g id="graph0" class="graph" transform="scale(1 1) rotate(0) translate(4 62)">
<title>sll_collective_allgather_int</title>
<polygon fill="white" stroke="none" points="-4,4 -4,-62 292,-62 292,4 -4,4"/>
<!-- Node1 -->
<g id="node1" class="node"><title>Node1</title>
<polygon fill="#bfbfbf" stroke="black" points="0,-19.5 0,-38.5 131,-38.5 131,-19.5 0,-19.5"/>
<text text-anchor="middle" x="65.5" y="-26.5" font-family="Helvetica,sans-Serif" font-size="10.00">sll_collective_allgather_int</text>
</g>
<!-- Node2 -->
<g id="node2" class="node"><title>Node2</title>
<g id="a_node2"><a xlink:href="namespacesll__m__collective.html#a37ea25f42a791be5a710a6cf0d1e1197" target="_top" xlink:title="Checks if the pointer ptr is associated to an object. ">
<polygon fill="white" stroke="black" points="167,-38.5 167,-57.5 288,-57.5 288,-38.5 167,-38.5"/>
<text text-anchor="middle" x="227.5" y="-45.5" font-family="Helvetica,sans-Serif" font-size="10.00">sll_check_collective_ptr</text>
</a>
</g>
</g>
<!-- Node1&#45;&gt;Node2 -->
<g id="edge1" class="edge"><title>Node1&#45;&gt;Node2</title>
<path fill="none" stroke="midnightblue" d="M131.117,-36.6733C139.595,-37.68 148.312,-38.7152 156.869,-39.7313"/>
<polygon fill="midnightblue" stroke="midnightblue" points="156.472,-43.2087 166.815,-40.9124 157.298,-36.2576 156.472,-43.2087"/>
</g>
<!-- Node3 -->
<g id="node3" class="node"><title>Node3</title>
<g id="a_node3"><a xlink:href="namespacesll__m__collective.html#a9a5729d7ca2e55890195f76c8a5cbd62" target="_top" xlink:title="Checks the good execution of collective instruction. ">
<polygon fill="white" stroke="black" points="175.5,-0.5 175.5,-19.5 279.5,-19.5 279.5,-0.5 175.5,-0.5"/>
<text text-anchor="middle" x="227.5" y="-7.5" font-family="Helvetica,sans-Serif" font-size="10.00">sll_s_test_mpi_error</text>
</a>
</g>
</g>
<!-- Node1&#45;&gt;Node3 -->
<g id="edge2" class="edge"><title>Node1&#45;&gt;Node3</title>
<path fill="none" stroke="midnightblue" d="M131.117,-21.3267C142.405,-19.9862 154.119,-18.5953 165.311,-17.2662"/>
<polygon fill="midnightblue" stroke="midnightblue" points="165.899,-20.7211 175.416,-16.0662 165.073,-13.7699 165.899,-20.7211"/>
</g>
</g>
</svg>
