<?xml version="1.0" encoding="UTF-8" standalone="no"?>
<!DOCTYPE svg PUBLIC "-//W3C//DTD SVG 1.1//EN"
 "http://www.w3.org/Graphics/SVG/1.1/DTD/svg11.dtd">
<!-- Generated by graphviz version 2.40.1 (20161225.0304)
 -->
<!-- Title: lagr_6pt_coeff Pages: 1 -->
<svg width="430pt" height="137pt"
 viewBox="0.00 0.00 430.00 137.00" xmlns="http://www.w3.org/2000/svg" xmlns:xlink="http://www.w3.org/1999/xlink">
<g id="graph0" class="graph" transform="scale(1 1) rotate(0) translate(4 133)">
<title>lagr_6pt_coeff</title>
<polygon fill="#ffffff" stroke="transparent" points="-4,4 -4,-133 426,-133 426,4 -4,4"/>
<!-- Node90 -->
<g id="node1" class="node">
<title>Node90</title>
<polygon fill="#bfbfbf" stroke="#000000" points="0,-79 0,-98 86,-98 86,-79 0,-79"/>
<text text-anchor="middle" x="43" y="-86" font-family="Helvetica,sans-Serif" font-size="10.00" fill="#000000">lagr_6pt_coeff</text>
</g>
<!-- Node91 -->
<g id="node2" class="node">
<title>Node91</title>
<g id="a_node2"><a xlink:href="namespacesll__m__lagrange__interpolation__1d__fast.html#a4256739817750a8ef482115919ff3469" target="_top" xlink:title="single point 6&#45;pt&#45;lagrange interpolation ">
<polygon fill="#ffffff" stroke="#000000" points="133.5,-101 133.5,-120 189.5,-120 189.5,-101 133.5,-101"/>
<text text-anchor="middle" x="161.5" y="-108" font-family="Helvetica,sans-Serif" font-size="10.00" fill="#000000">lagr_6pt</text>
</a>
</g>
</g>
<!-- Node90&#45;&gt;Node91 -->
<g id="edge1" class="edge">
<title>Node90&#45;&gt;Node91</title>
<path fill="none" stroke="#191970" d="M96.2566,-98.3873C109.0591,-100.7641 122.2387,-103.211 133.3714,-105.2778"/>
<polygon fill="#191970" stroke="#191970" points="96.5873,-94.889 86.1164,-96.5047 95.3095,-101.7714 96.5873,-94.889"/>
</g>
<!-- Node93 -->
<g id="node4" class="node">
<title>Node93</title>
<g id="a_node4"><a xlink:href="namespacesll__m__lagrange__interpolation__1d__fast.html#a7f4d88f171a861b1efa88dc385690aad" target="_top" xlink:title="vectorizable 6&#45;pt&#45;lagrange interpolation ">
<polygon fill="#ffffff" stroke="#000000" points="122,-60 122,-79 201,-79 201,-60 122,-60"/>
<text text-anchor="middle" x="161.5" y="-67" font-family="Helvetica,sans-Serif" font-size="10.00" fill="#000000">lagr_6pt_vec</text>
</a>
</g>
</g>
<!-- Node90&#45;&gt;Node93 -->
<g id="edge3" class="edge">
<title>Node90&#45;&gt;Node93</title>
<path fill="none" stroke="#191970" d="M96.1128,-79.984C104.7346,-78.6016 113.5317,-77.1911 121.7631,-75.8713"/>
<polygon fill="#191970" stroke="#191970" points="95.4362,-76.5477 86.1164,-81.5868 96.5445,-83.4594 95.4362,-76.5477"/>
</g>
<!-- Node92 -->
<g id="node3" class="node">
<title>Node92</title>
<g id="a_node3"><a xlink:href="namespacesll__m__lagrange__interpolation__1d__fast.html#aab46cfc77da4bbd363a86cdef3998b39" target="_top" xlink:title="Lagrange interpolation centered around the interval of displacement, periodic boundary condtions...">
<polygon fill="#ffffff" stroke="#000000" points="240,-98.5 240,-128.5 419,-128.5 419,-98.5 240,-98.5"/>
<text text-anchor="start" x="248" y="-116.5" font-family="Helvetica,sans-Serif" font-size="10.00" fill="#000000">sll_s_lagrange_interpolation</text>
<text text-anchor="middle" x="329.5" y="-105.5" font-family="Helvetica,sans-Serif" font-size="10.00" fill="#000000">_1d_fast_disp_centered_periodicl</text>
</a>
</g>
</g>
<!-- Node91&#45;&gt;Node92 -->
<g id="edge2" class="edge">
<title>Node91&#45;&gt;Node92</title>
<path fill="none" stroke="#191970" d="M199.758,-111.1832C211.8766,-111.3996 225.8228,-111.6486 239.9789,-111.9014"/>
<polygon fill="#191970" stroke="#191970" points="199.6804,-107.6813 189.6194,-111.0021 199.5553,-114.6802 199.6804,-107.6813"/>
</g>
<!-- Node93&#45;&gt;Node92 -->
<g id="edge4" class="edge">
<title>Node93&#45;&gt;Node92</title>
<path fill="none" stroke="#191970" d="M207.5117,-81.7285C217.2461,-84.3044 227.4598,-86.9988 237,-89.5 248.0734,-92.4032 259.8974,-95.4849 271.2629,-98.438"/>
<polygon fill="#191970" stroke="#191970" points="208.1522,-78.2775 197.5893,-79.1001 206.3597,-85.0441 208.1522,-78.2775"/>
</g>
<!-- Node94 -->
<g id="node5" class="node">
<title>Node94</title>
<g id="a_node5"><a xlink:href="namespacesll__m__lagrange__interpolation__1d__fast.html#acf928f88f9fe7cad7c9ee88b7526444d" target="_top" xlink:title="sll_s_lagrange_interpolation\l_1d_fast_disp_centered_halo_cells">
<polygon fill="#ffffff" stroke="#000000" points="237,-49.5 237,-79.5 422,-79.5 422,-49.5 237,-49.5"/>
<text text-anchor="start" x="245" y="-67.5" font-family="Helvetica,sans-Serif" font-size="10.00" fill="#000000">sll_s_lagrange_interpolation</text>
<text text-anchor="middle" x="329.5" y="-56.5" font-family="Helvetica,sans-Serif" font-size="10.00" fill="#000000">_1d_fast_disp_centered_halo_cells</text>
</a>
</g>
</g>
<!-- Node93&#45;&gt;Node94 -->
<g id="edge5" class="edge">
<title>Node93&#45;&gt;Node94</title>
<path fill="none" stroke="#191970" d="M211.3278,-68.017C219.4753,-67.7745 228.1398,-67.5167 236.9308,-67.255"/>
<polygon fill="#191970" stroke="#191970" points="211.2051,-64.519 201.3137,-68.3151 211.4134,-71.5159 211.2051,-64.519"/>
</g>
<!-- Node95 -->
<g id="node6" class="node">
<title>Node95</title>
<g id="a_node6"><a xlink:href="namespacesll__m__lagrange__interpolation__1d__fast.html#a69a39cf6e3124d0623dc09ab168e7bfc" target="_top" xlink:title="Even Lagrange interpolation with halo cells and no interval shift, i.e. p must be between zero and on...">
<polygon fill="#ffffff" stroke="#000000" points="246,-.5 246,-30.5 413,-30.5 413,-.5 246,-.5"/>
<text text-anchor="start" x="254" y="-18.5" font-family="Helvetica,sans-Serif" font-size="10.00" fill="#000000">sll_s_lagrange_interpolation</text>
<text text-anchor="middle" x="329.5" y="-7.5" font-family="Helvetica,sans-Serif" font-size="10.00" fill="#000000">_1d_fast_disp_even_halo_cells</text>
</a>
</g>
</g>
<!-- Node93&#45;&gt;Node95 -->
<g id="edge6" class="edge">
<title>Node93&#45;&gt;Node95</title>
<path fill="none" stroke="#191970" d="M194.022,-56.1673C207.2471,-50.9666 222.7459,-45.1502 237,-40.5 247.596,-37.0432 258.9816,-33.6835 270.0177,-30.6067"/>
<polygon fill="#191970" stroke="#191970" points="192.4059,-53.0435 184.4102,-59.9947 194.9956,-59.5468 192.4059,-53.0435"/>
</g>
</g>
</svg>
