<?xml version="1.0" encoding="UTF-8" standalone="no"?>
<!DOCTYPE svg PUBLIC "-//W3C//DTD SVG 1.1//EN"
 "http://www.w3.org/Graphics/SVG/1.1/DTD/svg11.dtd">
<!-- Generated by graphviz version 2.40.1 (20161225.0304)
 -->
<!-- Title: spline_interpolate1d_disp_inplace Pages: 1 -->
<svg width="629pt" height="170pt"
 viewBox="0.00 0.00 629.00 170.00" xmlns="http://www.w3.org/2000/svg" xmlns:xlink="http://www.w3.org/1999/xlink">
<g id="graph0" class="graph" transform="scale(1 1) rotate(0) translate(4 166)">
<title>spline_interpolate1d_disp_inplace</title>
<polygon fill="#ffffff" stroke="transparent" points="-4,4 -4,-166 625,-166 625,4 -4,4"/>
<!-- Node52 -->
<g id="node1" class="node">
<title>Node52</title>
<polygon fill="#bfbfbf" stroke="#000000" points="0,-36 0,-66 116,-66 116,-36 0,-36"/>
<text text-anchor="start" x="8" y="-54" font-family="Helvetica,sans-Serif" font-size="10.00" fill="#000000">spline_interpolate1d</text>
<text text-anchor="middle" x="58" y="-43" font-family="Helvetica,sans-Serif" font-size="10.00" fill="#000000">_disp_inplace</text>
</g>
<!-- Node53 -->
<g id="node2" class="node">
<title>Node53</title>
<g id="a_node2"><a xlink:href="namespacesll__m__cubic__splines.html#a35d6c430ac300c5ca47c04adeb9a6db3" target="_top" xlink:title="Computes the cubic spline coefficients corresponding to the 1D data array &#39;f&#39;. ">
<polygon fill="#ffffff" stroke="#000000" points="152,-60.5 152,-101.5 292,-101.5 292,-60.5 152,-60.5"/>
<text text-anchor="start" x="160" y="-89.5" font-family="Helvetica,sans-Serif" font-size="10.00" fill="#000000">sll_m_cubic_splines</text>
<text text-anchor="start" x="160" y="-78.5" font-family="Helvetica,sans-Serif" font-size="10.00" fill="#000000">::sll_s_cubic_spline</text>
<text text-anchor="middle" x="222" y="-67.5" font-family="Helvetica,sans-Serif" font-size="10.00" fill="#000000">_1d_compute_interpolant</text>
</a>
</g>
</g>
<!-- Node52&#45;&gt;Node53 -->
<g id="edge1" class="edge">
<title>Node52&#45;&gt;Node53</title>
<path fill="none" stroke="#191970" d="M116.282,-61.6613C124.5537,-63.1745 133.1776,-64.752 141.7755,-66.3248"/>
<polygon fill="#191970" stroke="#191970" points="141.3675,-69.8082 151.8341,-68.1648 142.6271,-62.9224 141.3675,-69.8082"/>
</g>
<!-- Node59 -->
<g id="node8" class="node">
<title>Node59</title>
<g id="a_node8"><a xlink:href="namespacesll__m__cubic__splines.html#a6cf67fbcc6c931a4a2c05ae1b0314ce1" target="_top" xlink:title="returns the values of the images of a collection of abscissae, represented by a 1D array in another o...">
<polygon fill="#ffffff" stroke="#000000" points="165.5,-.5 165.5,-41.5 278.5,-41.5 278.5,-.5 165.5,-.5"/>
<text text-anchor="start" x="173.5" y="-29.5" font-family="Helvetica,sans-Serif" font-size="10.00" fill="#000000">sll_m_cubic_splines</text>
<text text-anchor="start" x="173.5" y="-18.5" font-family="Helvetica,sans-Serif" font-size="10.00" fill="#000000">::sll_s_cubic_spline</text>
<text text-anchor="middle" x="222" y="-7.5" font-family="Helvetica,sans-Serif" font-size="10.00" fill="#000000">_1d_eval_array</text>
</a>
</g>
</g>
<!-- Node52&#45;&gt;Node59 -->
<g id="edge8" class="edge">
<title>Node52&#45;&gt;Node59</title>
<path fill="none" stroke="#191970" d="M116.282,-40.3387C128.8499,-38.0397 142.2311,-35.5919 155.0985,-33.2381"/>
<polygon fill="#191970" stroke="#191970" points="156.0754,-36.6175 165.2824,-31.3752 154.8158,-29.7318 156.0754,-36.6175"/>
</g>
<!-- Node54 -->
<g id="node3" class="node">
<title>Node54</title>
<g id="a_node3"><a xlink:href="namespacesll__m__cubic__splines.html#a78c2f7524989143dc18bfbe96f7667fb" target="_top" xlink:title="sll_m_cubic_splines\l::compute_spline_1d\l_periodic">
<polygon fill="#ffffff" stroke="#000000" points="328,-90.5 328,-131.5 445,-131.5 445,-90.5 328,-90.5"/>
<text text-anchor="start" x="336" y="-119.5" font-family="Helvetica,sans-Serif" font-size="10.00" fill="#000000">sll_m_cubic_splines</text>
<text text-anchor="start" x="336" y="-108.5" font-family="Helvetica,sans-Serif" font-size="10.00" fill="#000000">::compute_spline_1d</text>
<text text-anchor="middle" x="386.5" y="-97.5" font-family="Helvetica,sans-Serif" font-size="10.00" fill="#000000">_periodic</text>
</a>
</g>
</g>
<!-- Node53&#45;&gt;Node54 -->
<g id="edge2" class="edge">
<title>Node53&#45;&gt;Node54</title>
<path fill="none" stroke="#191970" d="M292.24,-93.8097C300.776,-95.3664 309.4885,-96.9553 317.9988,-98.5074"/>
<polygon fill="#191970" stroke="#191970" points="317.4079,-101.9573 327.8736,-100.3083 318.6639,-95.0709 317.4079,-101.9573"/>
</g>
<!-- Node57 -->
<g id="node6" class="node">
<title>Node57</title>
<g id="a_node6"><a xlink:href="namespacesll__m__cubic__splines.html#a813ec77055a7936e0c4697d0098178a2" target="_top" xlink:title="sll_m_cubic_splines\l::compute_spline_1d\l_hermite">
<polygon fill="#ffffff" stroke="#000000" points="328,-30.5 328,-71.5 445,-71.5 445,-30.5 328,-30.5"/>
<text text-anchor="start" x="336" y="-59.5" font-family="Helvetica,sans-Serif" font-size="10.00" fill="#000000">sll_m_cubic_splines</text>
<text text-anchor="start" x="336" y="-48.5" font-family="Helvetica,sans-Serif" font-size="10.00" fill="#000000">::compute_spline_1d</text>
<text text-anchor="middle" x="386.5" y="-37.5" font-family="Helvetica,sans-Serif" font-size="10.00" fill="#000000">_hermite</text>
</a>
</g>
</g>
<!-- Node53&#45;&gt;Node57 -->
<g id="edge5" class="edge">
<title>Node53&#45;&gt;Node57</title>
<path fill="none" stroke="#191970" d="M292.24,-68.1903C300.776,-66.6336 309.4885,-65.0447 317.9988,-63.4926"/>
<polygon fill="#191970" stroke="#191970" points="318.6639,-66.9291 327.8736,-61.6917 317.4079,-60.0427 318.6639,-66.9291"/>
</g>
<!-- Node55 -->
<g id="node4" class="node">
<title>Node55</title>
<g id="a_node4"><a xlink:href="namespacesll__m__tridiagonal.html#a7760525c99ca03ee433e5d536d72db38" target="_top" xlink:title="Solves tridiagonal system. ">
<polygon fill="#ffffff" stroke="#000000" points="481,-60.5 481,-101.5 621,-101.5 621,-60.5 481,-60.5"/>
<text text-anchor="start" x="489" y="-89.5" font-family="Helvetica,sans-Serif" font-size="10.00" fill="#000000">sll_m_tridiagonal::</text>
<text text-anchor="start" x="489" y="-78.5" font-family="Helvetica,sans-Serif" font-size="10.00" fill="#000000">sll_s_solve_cyclic_tridiag</text>
<text text-anchor="middle" x="551" y="-67.5" font-family="Helvetica,sans-Serif" font-size="10.00" fill="#000000">_double</text>
</a>
</g>
</g>
<!-- Node54&#45;&gt;Node55 -->
<g id="edge3" class="edge">
<title>Node54&#45;&gt;Node55</title>
<path fill="none" stroke="#191970" d="M445.4236,-100.254C453.7064,-98.7435 462.3332,-97.1702 470.9282,-95.6028"/>
<polygon fill="#191970" stroke="#191970" points="471.7712,-99.0068 480.981,-93.7694 470.5152,-92.1204 471.7712,-99.0068"/>
</g>
<!-- Node56 -->
<g id="node5" class="node">
<title>Node56</title>
<g id="a_node5"><a xlink:href="namespacesll__m__cubic__splines.html#a908d8f64cc3a4c32d9bdc5afc4077948" target="_top" xlink:title="sll_m_cubic_splines\l::compute_spline_1d\l_periodic_aux">
<polygon fill="#ffffff" stroke="#000000" points="492.5,-120.5 492.5,-161.5 609.5,-161.5 609.5,-120.5 492.5,-120.5"/>
<text text-anchor="start" x="500.5" y="-149.5" font-family="Helvetica,sans-Serif" font-size="10.00" fill="#000000">sll_m_cubic_splines</text>
<text text-anchor="start" x="500.5" y="-138.5" font-family="Helvetica,sans-Serif" font-size="10.00" fill="#000000">::compute_spline_1d</text>
<text text-anchor="middle" x="551" y="-127.5" font-family="Helvetica,sans-Serif" font-size="10.00" fill="#000000">_periodic_aux</text>
</a>
</g>
</g>
<!-- Node54&#45;&gt;Node56 -->
<g id="edge4" class="edge">
<title>Node54&#45;&gt;Node56</title>
<path fill="none" stroke="#191970" d="M445.4236,-121.746C457.3796,-123.9264 470.0524,-126.2375 482.3119,-128.4733"/>
<polygon fill="#191970" stroke="#191970" points="482.022,-131.9781 492.4878,-130.3291 483.278,-125.0917 482.022,-131.9781"/>
</g>
<!-- Node57&#45;&gt;Node55 -->
<g id="edge6" class="edge">
<title>Node57&#45;&gt;Node55</title>
<path fill="none" stroke="#191970" d="M445.4236,-61.746C453.7064,-63.2565 462.3332,-64.8298 470.9282,-66.3972"/>
<polygon fill="#191970" stroke="#191970" points="470.5152,-69.8796 480.981,-68.2306 471.7712,-62.9932 470.5152,-69.8796"/>
</g>
<!-- Node58 -->
<g id="node7" class="node">
<title>Node58</title>
<g id="a_node7"><a xlink:href="namespacesll__m__cubic__splines.html#a3f3f1aa98bfbb8c05458a1eb30941d6d" target="_top" xlink:title="sll_m_cubic_splines\l::compute_spline_1d\l_hermite_aux">
<polygon fill="#ffffff" stroke="#000000" points="492.5,-.5 492.5,-41.5 609.5,-41.5 609.5,-.5 492.5,-.5"/>
<text text-anchor="start" x="500.5" y="-29.5" font-family="Helvetica,sans-Serif" font-size="10.00" fill="#000000">sll_m_cubic_splines</text>
<text text-anchor="start" x="500.5" y="-18.5" font-family="Helvetica,sans-Serif" font-size="10.00" fill="#000000">::compute_spline_1d</text>
<text text-anchor="middle" x="551" y="-7.5" font-family="Helvetica,sans-Serif" font-size="10.00" fill="#000000">_hermite_aux</text>
</a>
</g>
</g>
<!-- Node57&#45;&gt;Node58 -->
<g id="edge7" class="edge">
<title>Node57&#45;&gt;Node58</title>
<path fill="none" stroke="#191970" d="M445.4236,-40.254C457.3796,-38.0736 470.0524,-35.7625 482.3119,-33.5267"/>
<polygon fill="#191970" stroke="#191970" points="483.278,-36.9083 492.4878,-31.6709 482.022,-30.0219 483.278,-36.9083"/>
</g>
</g>
</svg>
