<?xml version="1.0" encoding="UTF-8" standalone="no"?>
<!DOCTYPE svg PUBLIC "-//W3C//DTD SVG 1.1//EN"
 "http://www.w3.org/Graphics/SVG/1.1/DTD/svg11.dtd">
<!-- Generated by graphviz version 2.43.0 (0)
 -->
<!-- Title: sll_s_fft_exec_c2c_2d Pages: 1 -->
<!--zoomable 170 -->
<svg id="main" version="1.1" xmlns="http://www.w3.org/2000/svg" xmlns:xlink="http://www.w3.org/1999/xlink" xml:space="preserve" onload="init(evt)">
<style type="text/css"><![CDATA[
.edge:hover path { stroke: red; }
.edge:hover polygon { stroke: red; fill: red; }
]]></style>
<script type="text/javascript"><![CDATA[
var edges = document.getElementsByTagName('g');
if (edges && edges.length) {
  for (var i=0;i<edges.length;i++) {
    if (edges[i].id.substr(0,4)=='edge') {
      edges[i].setAttribute('class','edge');
    }
  }
}
]]></script>
        <defs>
                <circle id="rim" cx="0" cy="0" r="7"/>
                <circle id="rim2" cx="0" cy="0" r="3.5"/>
                <g id="zoomPlus">
                        <use xlink:href="#rim" fill="#404040">
                                <set attributeName="fill" to="#808080" begin="zoomplus.mouseover" end="zoomplus.mouseout"/>
                        </use>
                        <path d="M-4,0h8M0,-4v8" fill="none" stroke="white" stroke-width="1.5" pointer-events="none"/>
                </g>
                <g id="zoomMin">
                        <use xlink:href="#rim" fill="#404040">
                                <set attributeName="fill" to="#808080" begin="zoomminus.mouseover" end="zoomminus.mouseout"/>
                        </use>
                        <path d="M-4,0h8" fill="none" stroke="white" stroke-width="1.5" pointer-events="none"/>
                </g>
                <g id="dirArrow">
                        <path fill="none" stroke="white" stroke-width="1.5" d="M0,-3.0v7 M-2.5,-0.5L0,-3.0L2.5,-0.5"/>
                </g>
               <g id="resetDef">
                       <use xlink:href="#rim2" fill="#404040">
                               <set attributeName="fill" to="#808080" begin="reset.mouseover" end="reset.mouseout"/>
                       </use>
               </g>
        </defs>

<script type="text/javascript">
var viewWidth = 696;
var viewHeight = 170;
var sectionId = 'dynsection-4';
</script>
<script xlink:href="svgpan.js"/>
<svg id="graph" class="graph">
<g id="viewport">
<title>sll_s_fft_exec_c2c_2d</title>
<polygon fill="white" stroke="transparent" points="-4,4 -4,-166 692,-166 692,4 -4,4"/>
<!-- Node1 -->
<g id="node1" class="node">
<title>Node1</title>
<g id="a_node1"><a xlink:title="Compute fast Fourier transform in complex to complex mode.">
<polygon fill="#bfbfbf" stroke="black" points="567,-71.5 567,-90.5 688,-90.5 688,-71.5 567,-71.5"/>
<text text-anchor="middle" x="627.5" y="-78.5" font-family="Helvetica,sans-Serif" font-size="10.00">sll_s_fft_exec_c2c_2d</text>
</a>
</g>
</g>
<!-- Node2 -->
<g id="node2" class="node">
<title>Node2</title>
<g id="a_node2"><a xlink:href="namespacesll__m__nufft__interpolation.html#a162b55abc00342f2e8676595c9427205" target="_top" xlink:title="Compute the fft and prepare data for nufft call.">
<polygon fill="white" stroke="black" points="378,-66 378,-96 531,-96 531,-66 378,-66"/>
<text text-anchor="start" x="386" y="-84" font-family="Helvetica,sans-Serif" font-size="10.00">sll_m_nufft_interpolation</text>
<text text-anchor="middle" x="454.5" y="-73" font-family="Helvetica,sans-Serif" font-size="10.00">::sll_s_nufft_2d_compute_fft</text>
</a>
</g>
</g>
<!-- Node1&#45;&gt;Node2 -->
<g id="edge1" class="edge">
<title>Node1&#45;&gt;Node2</title>
<path fill="none" stroke="midnightblue" d="M556.61,-81C548.23,-81 539.66,-81 531.21,-81"/>
<polygon fill="midnightblue" stroke="midnightblue" points="556.69,-84.5 566.69,-81 556.69,-77.5 556.69,-84.5"/>
</g>
<!-- Node3 -->
<g id="node3" class="node">
<title>Node3</title>
<g id="a_node3"><a xlink:href="namespacesll__m__nufft__interpolator__2d.html#aca9461cb9acb52b082e30014b709979d" target="_top" xlink:title=" ">
<polygon fill="white" stroke="black" points="195,-120.5 195,-161.5 341,-161.5 341,-120.5 195,-120.5"/>
<text text-anchor="start" x="203" y="-149.5" font-family="Helvetica,sans-Serif" font-size="10.00">sll_m_nufft_interpolator</text>
<text text-anchor="start" x="203" y="-138.5" font-family="Helvetica,sans-Serif" font-size="10.00">_2d::compute_interpolants</text>
<text text-anchor="middle" x="268" y="-127.5" font-family="Helvetica,sans-Serif" font-size="10.00">_nufft2d</text>
</a>
</g>
</g>
<!-- Node2&#45;&gt;Node3 -->
<g id="edge2" class="edge">
<title>Node2&#45;&gt;Node3</title>
<path fill="none" stroke="midnightblue" d="M397.41,-99.24C376.84,-105.93 353.42,-113.55 332.27,-120.42"/>
<polygon fill="midnightblue" stroke="midnightblue" points="398.52,-102.56 406.94,-96.14 396.35,-95.9 398.52,-102.56"/>
</g>
<!-- Node4 -->
<g id="node4" class="node">
<title>Node4</title>
<g id="a_node4"><a xlink:href="namespacesll__m__nufft__interpolation.html#a39fecd3696259ffa2ad4a468ccb2feca" target="_top" xlink:title="Compute the fft and interpolate array values.">
<polygon fill="white" stroke="black" points="194,-60.5 194,-101.5 342,-101.5 342,-60.5 194,-60.5"/>
<text text-anchor="start" x="202" y="-89.5" font-family="Helvetica,sans-Serif" font-size="10.00">sll_m_nufft_interpolation</text>
<text text-anchor="start" x="202" y="-78.5" font-family="Helvetica,sans-Serif" font-size="10.00">::sll_s_nufft_2d_interpolate</text>
<text text-anchor="middle" x="268" y="-67.5" font-family="Helvetica,sans-Serif" font-size="10.00">_array_values</text>
</a>
</g>
</g>
<!-- Node2&#45;&gt;Node4 -->
<g id="edge3" class="edge">
<title>Node2&#45;&gt;Node4</title>
<path fill="none" stroke="midnightblue" d="M367.86,-81C359.24,-81 350.55,-81 342.08,-81"/>
<polygon fill="midnightblue" stroke="midnightblue" points="367.92,-84.5 377.92,-81 367.92,-77.5 367.92,-84.5"/>
</g>
<!-- Node7 -->
<g id="node7" class="node">
<title>Node7</title>
<g id="a_node7"><a xlink:href="namespacesll__m__nufft__interpolation.html#a3dcc6ba7738ce0511cf8b9562f40ac21" target="_top" xlink:title="Compute the fft and interpolate array values when x and y could be outside the domaine....">
<polygon fill="white" stroke="black" points="194,-0.5 194,-41.5 342,-41.5 342,-0.5 194,-0.5"/>
<text text-anchor="start" x="202" y="-29.5" font-family="Helvetica,sans-Serif" font-size="10.00">sll_m_nufft_interpolation</text>
<text text-anchor="start" x="202" y="-18.5" font-family="Helvetica,sans-Serif" font-size="10.00">::sll_s_nufft_2d_interpolate</text>
<text text-anchor="middle" x="268" y="-7.5" font-family="Helvetica,sans-Serif" font-size="10.00">_array_values_axi</text>
</a>
</g>
</g>
<!-- Node2&#45;&gt;Node7 -->
<g id="edge6" class="edge">
<title>Node2&#45;&gt;Node7</title>
<path fill="none" stroke="midnightblue" d="M397.41,-62.76C376.84,-56.07 353.42,-48.45 332.27,-41.58"/>
<polygon fill="midnightblue" stroke="midnightblue" points="396.35,-66.1 406.94,-65.86 398.52,-59.44 396.35,-66.1"/>
</g>
<!-- Node5 -->
<g id="node5" class="node">
<title>Node5</title>
<g id="a_node5"><a xlink:href="namespacesll__m__nufft__interpolator__2d.html#a8e9d9c0186d8a0bb539ff6cade219f60" target="_top" xlink:title=" ">
<polygon fill="white" stroke="black" points="12.5,-90 12.5,-120 145.5,-120 145.5,-90 12.5,-90"/>
<text text-anchor="start" x="20.5" y="-108" font-family="Helvetica,sans-Serif" font-size="10.00">sll_m_nufft_interpolator</text>
<text text-anchor="middle" x="79" y="-97" font-family="Helvetica,sans-Serif" font-size="10.00">_2d::nufft_interpolate2d</text>
</a>
</g>
</g>
<!-- Node4&#45;&gt;Node5 -->
<g id="edge4" class="edge">
<title>Node4&#45;&gt;Node5</title>
<path fill="none" stroke="midnightblue" d="M183.76,-91.68C171.02,-93.32 158.03,-94.99 145.74,-96.56"/>
<polygon fill="midnightblue" stroke="midnightblue" points="184.42,-95.13 193.9,-90.38 183.53,-88.18 184.42,-95.13"/>
</g>
<!-- Node6 -->
<g id="node6" class="node">
<title>Node6</title>
<g id="a_node6"><a xlink:href="namespacesll__m__nufft__interpolator__2d.html#a7bb19c6e4f87524eaab22d595fac9d58" target="_top" xlink:title=" ">
<polygon fill="white" stroke="black" points="0,-41 0,-71 158,-71 158,-41 0,-41"/>
<text text-anchor="start" x="8" y="-59" font-family="Helvetica,sans-Serif" font-size="10.00">sll_m_nufft_interpolator</text>
<text text-anchor="middle" x="79" y="-48" font-family="Helvetica,sans-Serif" font-size="10.00">_2d::nufft_interpolate2d_disp</text>
</a>
</g>
</g>
<!-- Node4&#45;&gt;Node6 -->
<g id="edge5" class="edge">
<title>Node4&#45;&gt;Node6</title>
<path fill="none" stroke="midnightblue" d="M183.96,-69.9C175.43,-68.76 166.78,-67.6 158.3,-66.47"/>
<polygon fill="midnightblue" stroke="midnightblue" points="183.52,-73.37 193.9,-71.23 184.45,-66.43 183.52,-73.37"/>
</g>
</g>
</svg>
        <g id="navigator" transform="translate(0 0)" fill="#404254">
                <rect fill="#f2f5e9" fill-opacity="0.5" stroke="#606060" stroke-width=".5" x="0" y="0" width="60" height="60"/>
                <use id="zoomplus" xlink:href="#zoomPlus" x="17" y="9" onmousedown="handleZoom(evt,'in')"/>
                <use id="zoomminus" xlink:href="#zoomMin" x="42" y="9" onmousedown="handleZoom(evt,'out')"/>
                <use id="reset" xlink:href="#resetDef" x="30" y="36" onmousedown="handleReset()"/>
                <g id="arrowUp" xlink:href="#dirArrow" transform="translate(30 24)" onmousedown="handlePan(0,-1)">
                  <use xlink:href="#rim" fill="#404040">
                        <set attributeName="fill" to="#808080" begin="arrowUp.mouseover" end="arrowUp.mouseout"/>
                  </use>
                  <path fill="none" stroke="white" stroke-width="1.5" d="M0,-3.0v7 M-2.5,-0.5L0,-3.0L2.5,-0.5"/>
                </g>
                <g id="arrowRight" xlink:href="#dirArrow" transform="rotate(90) translate(36 -43)" onmousedown="handlePan(1,0)">
                  <use xlink:href="#rim" fill="#404040">
                        <set attributeName="fill" to="#808080" begin="arrowRight.mouseover" end="arrowRight.mouseout"/>
                  </use>
                  <path fill="none" stroke="white" stroke-width="1.5" d="M0,-3.0v7 M-2.5,-0.5L0,-3.0L2.5,-0.5"/>
                </g>
                <g id="arrowDown" xlink:href="#dirArrow" transform="rotate(180) translate(-30 -48)" onmousedown="handlePan(0,1)">
                  <use xlink:href="#rim" fill="#404040">
                        <set attributeName="fill" to="#808080" begin="arrowDown.mouseover" end="arrowDown.mouseout"/>
                  </use>
                  <path fill="none" stroke="white" stroke-width="1.5" d="M0,-3.0v7 M-2.5,-0.5L0,-3.0L2.5,-0.5"/>
                </g>
                <g id="arrowLeft" xlink:href="#dirArrow" transform="rotate(270) translate(-36 17)" onmousedown="handlePan(-1,0)">
                  <use xlink:href="#rim" fill="#404040">
                        <set attributeName="fill" to="#808080" begin="arrowLeft.mouseover" end="arrowLeft.mouseout"/>
                  </use>
                  <path fill="none" stroke="white" stroke-width="1.5" d="M0,-3.0v7 M-2.5,-0.5L0,-3.0L2.5,-0.5"/>
                </g>
        </g>
        <svg viewBox="0 0 15 15" width="100%" height="30px" preserveAspectRatio="xMaxYMin meet">
         <g id="arrow_out" transform="scale(0.3 0.3)">
          <a xlink:href="namespacesll__m__fft_a1da210c56b980ae78e65f9a4a473c432_icgraph_org.svg" target="_base">
           <rect id="button" ry="5" rx="5" y="6" x="6" height="38" width="38"
                fill="#f2f5e9" fill-opacity="0.5" stroke="#606060" stroke-width="1.0"/>
           <path id="arrow"
             d="M 11.500037,31.436501 C 11.940474,20.09759 22.043105,11.32322 32.158766,21.979434 L 37.068811,17.246167 C 37.068811,17.246167 37.088388,32 37.088388,32 L 22.160133,31.978069 C 22.160133,31.978069 26.997745,27.140456 26.997745,27.140456 C 18.528582,18.264221 13.291696,25.230495 11.500037,31.436501 z"
             style="fill:#404040;"/>
          </a>
         </g>
        </svg>
</svg>
