<?xml version="1.0" encoding="UTF-8" standalone="no"?>
<!DOCTYPE svg PUBLIC "-//W3C//DTD SVG 1.1//EN"
 "http://www.w3.org/Graphics/SVG/1.1/DTD/svg11.dtd">
<!-- Generated by graphviz version 2.38.0 (20140413.2041)
 -->
<!-- Title: product_with_sigma_ganev_dimitrov Pages: 1 -->
<svg width="425pt" height="39pt"
 viewBox="0.00 0.00 425.00 39.00" xmlns="http://www.w3.org/2000/svg" xmlns:xlink="http://www.w3.org/1999/xlink">
<g id="graph0" class="graph" transform="scale(1 1) rotate(0) translate(4 35)">
<title>product_with_sigma_ganev_dimitrov</title>
<polygon fill="white" stroke="none" points="-4,4 -4,-35 421,-35 421,4 -4,4"/>
<!-- Node1 -->
<g id="node1" class="node"><title>Node1</title>
<polygon fill="#bfbfbf" stroke="black" points="0,-0.5 0,-30.5 104,-30.5 104,-0.5 0,-0.5"/>
<text text-anchor="start" x="8" y="-18.5" font-family="Helvetica,sans-Serif" font-size="10.00">product_with_sigma</text>
<text text-anchor="middle" x="52" y="-7.5" font-family="Helvetica,sans-Serif" font-size="10.00">_ganev_dimitrov</text>
</g>
<!-- Node2 -->
<g id="node2" class="node"><title>Node2</title>
<g id="a_node2"><a xlink:href="namespacesll__m__interpolation__hex__hermite.html#a9f78b03e5cd34701a65ed75f9bb07bf2" target="_top" xlink:title="base_ganev_dimitrov">
<polygon fill="white" stroke="black" points="140,-6 140,-25 249,-25 249,-6 140,-6"/>
<text text-anchor="middle" x="194.5" y="-13" font-family="Helvetica,sans-Serif" font-size="10.00">base_ganev_dimitrov</text>
</a>
</g>
</g>
<!-- Node1&#45;&gt;Node2 -->
<g id="edge1" class="edge"><title>Node1&#45;&gt;Node2</title>
<path fill="none" stroke="midnightblue" d="M114.346,-15.5C122.829,-15.5 131.487,-15.5 139.816,-15.5"/>
<polygon fill="midnightblue" stroke="midnightblue" points="114.121,-12.0001 104.121,-15.5 114.121,-19.0001 114.121,-12.0001"/>
</g>
<!-- Node3 -->
<g id="node3" class="node"><title>Node3</title>
<g id="a_node3"><a xlink:href="namespacesll__m__interpolation__hex__hermite.html#a9c14ed4e8a770ba4a9e08cad03cc614f" target="_top" xlink:title="sll_s_hermite_interpolation">
<polygon fill="white" stroke="black" points="285,-6 285,-25 417,-25 417,-6 285,-6"/>
<text text-anchor="middle" x="351" y="-13" font-family="Helvetica,sans-Serif" font-size="10.00">sll_s_hermite_interpolation</text>
</a>
</g>
</g>
<!-- Node2&#45;&gt;Node3 -->
<g id="edge2" class="edge"><title>Node2&#45;&gt;Node3</title>
<path fill="none" stroke="midnightblue" d="M259.246,-15.5C267.674,-15.5 276.323,-15.5 284.775,-15.5"/>
<polygon fill="midnightblue" stroke="midnightblue" points="259.103,-12.0001 249.103,-15.5 259.103,-19.0001 259.103,-12.0001"/>
</g>
</g>
</svg>
