<?xml version="1.0" encoding="UTF-8" standalone="no"?>
<!DOCTYPE svg PUBLIC "-//W3C//DTD SVG 1.1//EN"
 "http://www.w3.org/Graphics/SVG/1.1/DTD/svg11.dtd">
<!-- Generated by graphviz version 2.38.0 (20140413.2041)
 -->
<!-- Title: init_spline_1d Pages: 1 -->
<svg width="270pt" height="99pt"
 viewBox="0.00 0.00 270.00 98.50" xmlns="http://www.w3.org/2000/svg" xmlns:xlink="http://www.w3.org/1999/xlink">
<g id="graph0" class="graph" transform="scale(1 1) rotate(0) translate(4 94.5)">
<title>init_spline_1d</title>
<polygon fill="white" stroke="none" points="-4,4 -4,-94.5 266,-94.5 266,4 -4,4"/>
<!-- Node1 -->
<g id="node1" class="node"><title>Node1</title>
<polygon fill="#bfbfbf" stroke="black" points="0,-33 0,-52 76,-52 76,-33 0,-33"/>
<text text-anchor="middle" x="38" y="-40" font-family="Helvetica,sans-Serif" font-size="10.00">init_spline_1d</text>
</g>
<!-- Node2 -->
<g id="node2" class="node"><title>Node2</title>
<g id="a_node2"><a xlink:href="namespacesll__m__gauss__legendre__integration.html#a0df63a9e8ee884c2d4a0d1f53602a949" target="_top" xlink:title="Returns a 2d array of size (2,npoints) containing gauss&#45;legendre points and weights in the interval [...">
<polygon fill="white" stroke="black" points="112,-49 112,-90 262,-90 262,-49 112,-49"/>
<text text-anchor="start" x="120" y="-78" font-family="Helvetica,sans-Serif" font-size="10.00">sll_m_gauss_legendre</text>
<text text-anchor="start" x="120" y="-67" font-family="Helvetica,sans-Serif" font-size="10.00">_integration::sll_f_gauss</text>
<text text-anchor="middle" x="187" y="-56" font-family="Helvetica,sans-Serif" font-size="10.00">_legendre_points_and_weights</text>
</a>
</g>
</g>
<!-- Node1&#45;&gt;Node2 -->
<g id="edge1" class="edge"><title>Node1&#45;&gt;Node2</title>
<path fill="none" stroke="midnightblue" d="M76.0943,-49.3132C84.1518,-50.7932 92.9903,-52.4166 102.045,-54.0797"/>
<polygon fill="midnightblue" stroke="midnightblue" points="101.46,-57.5308 111.928,-55.8949 102.725,-50.6459 101.46,-57.5308"/>
</g>
<!-- Node3 -->
<g id="node3" class="node"><title>Node3</title>
<g id="a_node3"><a xlink:href="namespacesll__m__splines__pp.html#a0c79f977725f86d5c265b682a0e56d02" target="_top" xlink:title="Initialize sll_t_spline_pp_1d object (Set poly_coeffs depending on degree) ">
<polygon fill="white" stroke="black" points="133.5,-0.5 133.5,-30.5 240.5,-30.5 240.5,-0.5 133.5,-0.5"/>
<text text-anchor="start" x="141.5" y="-18.5" font-family="Helvetica,sans-Serif" font-size="10.00">sll_m_splines_pp::sll</text>
<text text-anchor="middle" x="187" y="-7.5" font-family="Helvetica,sans-Serif" font-size="10.00">_s_spline_pp_init_1d</text>
</a>
</g>
</g>
<!-- Node1&#45;&gt;Node3 -->
<g id="edge2" class="edge"><title>Node1&#45;&gt;Node3</title>
<path fill="none" stroke="midnightblue" d="M76.0943,-35.6868C90.4631,-33.0476 107.315,-29.9523 123.448,-26.9892"/>
<polygon fill="midnightblue" stroke="midnightblue" points="124.168,-30.4156 133.371,-25.1666 122.903,-23.5308 124.168,-30.4156"/>
</g>
</g>
</svg>
