<?xml version="1.0" encoding="UTF-8" standalone="no"?>
<!DOCTYPE svg PUBLIC "-//W3C//DTD SVG 1.1//EN"
 "http://www.w3.org/Graphics/SVG/1.1/DTD/svg11.dtd">
<!-- Generated by graphviz version 2.40.1 (20161225.0304)
 -->
<!-- Title: loop2 Pages: 1 -->
<!--zoomable 258 -->
<svg id="main" version="1.1" xmlns="http://www.w3.org/2000/svg" xmlns:xlink="http://www.w3.org/1999/xlink" xml:space="preserve" onload="init(evt)">
<style type="text/css"><![CDATA[
.edge:hover path { stroke: red; }
.edge:hover polygon { stroke: red; fill: red; }
]]></style>
<script type="text/javascript"><![CDATA[
var edges = document.getElementsByTagName('g');
if (edges && edges.length) {
  for (var i=0;i<edges.length;i++) {
    if (edges[i].id.substr(0,4)=='edge') {
      edges[i].setAttribute('class','edge');
    }
  }
}
]]></script>
        <defs>
                <circle id="rim" cx="0" cy="0" r="7"/>
                <circle id="rim2" cx="0" cy="0" r="3.5"/>
                <g id="zoomPlus">
                        <use xlink:href="#rim" fill="#404040">
                                <set attributeName="fill" to="#808080" begin="zoomplus.mouseover" end="zoomplus.mouseout"/>
                        </use>
                        <path d="M-4,0h8M0,-4v8" fill="none" stroke="white" stroke-width="1.5" pointer-events="none"/>
                </g>
                <g id="zoomMin">
                        <use xlink:href="#rim" fill="#404040">
                                <set attributeName="fill" to="#808080" begin="zoomminus.mouseover" end="zoomminus.mouseout"/>
                        </use>
                        <path d="M-4,0h8" fill="none" stroke="white" stroke-width="1.5" pointer-events="none"/>
                </g>
                <g id="dirArrow">
                        <path fill="none" stroke="white" stroke-width="1.5" d="M0,-3.0v7 M-2.5,-0.5L0,-3.0L2.5,-0.5"/>
                </g>
               <g id="resetDef">
                       <use xlink:href="#rim2" fill="#404040">
                               <set attributeName="fill" to="#808080" begin="reset.mouseover" end="reset.mouseout"/>
                       </use>
               </g>
        </defs>

<script type="text/javascript">
var viewWidth = 603;
var viewHeight = 258;
var sectionId = 'dynsection-24';
</script>
<script xlink:href="svgpan.js"/>
<svg id="graph" class="graph">
<g id="viewport">
<title>loop2</title>
<polygon fill="#ffffff" stroke="transparent" points="-4,4 -4,-253.5 599,-253.5 599,4 -4,4"/>
<!-- Node121 -->
<g id="node1" class="node">
<title>Node121</title>
<polygon fill="#bfbfbf" stroke="#000000" points="0,-68.5 0,-87.5 44,-87.5 44,-68.5 0,-68.5"/>
<text text-anchor="middle" x="22" y="-75.5" font-family="Helvetica,sans-Serif" font-size="10.00" fill="#000000">loop2</text>
</g>
<!-- Node122 -->
<g id="node2" class="node">
<title>Node122</title>
<g id="a_node2"><a xlink:href="namespacesll__m__spline__fem__utilities__3d__helper.html#ab61e8df08e3414cd54d1b85c91ddb4ad" target="_top" xlink:title="Helper function to create sparsity pattern of the 3d mass matrix. ">
<polygon fill="#ffffff" stroke="#000000" points="80,-63 80,-93 222,-93 222,-63 80,-63"/>
<text text-anchor="start" x="88" y="-81" font-family="Helvetica,sans-Serif" font-size="10.00" fill="#000000">sll_s_spline_fem_sparsity</text>
<text text-anchor="middle" x="151" y="-70" font-family="Helvetica,sans-Serif" font-size="10.00" fill="#000000">_mass3d</text>
</a>
</g>
</g>
<!-- Node121&#45;&gt;Node122 -->
<g id="edge1" class="edge">
<title>Node121&#45;&gt;Node122</title>
<path fill="none" stroke="#191970" d="M54.2906,-78C62.1449,-78 70.8564,-78 79.7408,-78"/>
<polygon fill="#191970" stroke="#191970" points="54.1759,-74.5001 44.1759,-78 54.1759,-81.5001 54.1759,-74.5001"/>
</g>
<!-- Node123 -->
<g id="node3" class="node">
<title>Node123</title>
<g id="a_node3"><a xlink:href="namespacesll__m__spline__fem__utilities__3d.html#a6057d494b129b97fd792aafe62fb6932" target="_top" xlink:title="Set up 3d mass matrix for specific spline degrees and profile function. ">
<polygon fill="#ffffff" stroke="#000000" points="258,-93 258,-123 422,-123 422,-93 258,-93"/>
<text text-anchor="start" x="266" y="-111" font-family="Helvetica,sans-Serif" font-size="10.00" fill="#000000">sll_m_spline_fem_utilities</text>
<text text-anchor="middle" x="340" y="-100" font-family="Helvetica,sans-Serif" font-size="10.00" fill="#000000">_3d::sll_s_spline_fem_mass3d</text>
</a>
</g>
</g>
<!-- Node122&#45;&gt;Node123 -->
<g id="edge2" class="edge">
<title>Node122&#45;&gt;Node123</title>
<path fill="none" stroke="#191970" d="M232.0857,-90.8707C240.5932,-92.2212 249.2489,-93.5951 257.7692,-94.9475"/>
<polygon fill="#191970" stroke="#191970" points="232.6086,-87.41 222.1835,-89.299 231.5111,-94.3234 232.6086,-87.41"/>
</g>
<!-- Node127 -->
<g id="node7" class="node">
<title>Node127</title>
<g id="a_node7"><a xlink:href="namespacesll__m__maxwell__3d__trafo__parallel.html#a994d8feec849ce52b5243b251decabbc" target="_top" xlink:title="sll_m_maxwell_3d_trafo\l_parallel::init_3d_trafo\l_parallel">
<polygon fill="#ffffff" stroke="#000000" points="458.5,-.5 458.5,-41.5 594.5,-41.5 594.5,-.5 458.5,-.5"/>
<text text-anchor="start" x="466.5" y="-29.5" font-family="Helvetica,sans-Serif" font-size="10.00" fill="#000000">sll_m_maxwell_3d_trafo</text>
<text text-anchor="start" x="466.5" y="-18.5" font-family="Helvetica,sans-Serif" font-size="10.00" fill="#000000">_parallel::init_3d_trafo</text>
<text text-anchor="middle" x="526.5" y="-7.5" font-family="Helvetica,sans-Serif" font-size="10.00" fill="#000000">_parallel</text>
</a>
</g>
</g>
<!-- Node122&#45;&gt;Node127 -->
<g id="edge8" class="edge">
<title>Node122&#45;&gt;Node127</title>
<path fill="none" stroke="#191970" d="M232.2383,-65.6682C299.7239,-55.4241 394.6455,-41.0152 458.2523,-31.3598"/>
<polygon fill="#191970" stroke="#191970" points="231.4316,-62.2505 222.0701,-67.2117 232.4822,-69.1712 231.4316,-62.2505"/>
</g>
<!-- Node124 -->
<g id="node4" class="node">
<title>Node124</title>
<g id="a_node4"><a xlink:href="namespacesll__m__maxwell__3d__fem.html#ab814bfc0f843c1a2b8fe485351798ca0" target="_top" xlink:title="Initialization. ">
<polygon fill="#ffffff" stroke="#000000" points="460.5,-219 460.5,-249 592.5,-249 592.5,-219 460.5,-219"/>
<text text-anchor="start" x="468.5" y="-237" font-family="Helvetica,sans-Serif" font-size="10.00" fill="#000000">sll_m_maxwell_3d_fem</text>
<text text-anchor="middle" x="526.5" y="-226" font-family="Helvetica,sans-Serif" font-size="10.00" fill="#000000">::init_3d_fem</text>
</a>
</g>
</g>
<!-- Node123&#45;&gt;Node124 -->
<g id="edge3" class="edge">
<title>Node123&#45;&gt;Node124</title>
<path fill="none" stroke="#191970" d="M360.8058,-130.3844C382.9974,-153.1315 420.1038,-188.0549 458,-210 463.7795,-213.3468 470.102,-216.3365 476.4949,-218.9736"/>
<polygon fill="#191970" stroke="#191970" points="363.3262,-127.9558 353.8722,-123.1733 358.2803,-132.8076 363.3262,-127.9558"/>
</g>
<!-- Node125 -->
<g id="node5" class="node">
<title>Node125</title>
<g id="a_node5"><a xlink:href="namespacesll__m__maxwell__3d__trafo.html#aaad1e5b0c976c17ca8c2276ab121313d" target="_top" xlink:title="Initialization. ">
<polygon fill="#ffffff" stroke="#000000" points="458.5,-170 458.5,-200 594.5,-200 594.5,-170 458.5,-170"/>
<text text-anchor="start" x="466.5" y="-188" font-family="Helvetica,sans-Serif" font-size="10.00" fill="#000000">sll_m_maxwell_3d_trafo</text>
<text text-anchor="middle" x="526.5" y="-177" font-family="Helvetica,sans-Serif" font-size="10.00" fill="#000000">::init_3d_trafo</text>
</a>
</g>
</g>
<!-- Node123&#45;&gt;Node125 -->
<g id="edge4" class="edge">
<title>Node123&#45;&gt;Node125</title>
<path fill="none" stroke="#191970" d="M380.9983,-127.449C403.5264,-137.8731 432.0825,-150.661 458,-161 465.6078,-164.0349 473.7683,-167.0759 481.7104,-169.9242"/>
<polygon fill="#191970" stroke="#191970" points="382.2808,-124.1855 371.7377,-123.1402 379.3278,-130.5321 382.2808,-124.1855"/>
</g>
<!-- Node126 -->
<g id="node6" class="node">
<title>Node126</title>
<g id="a_node6"><a xlink:href="namespacesll__m__maxwell__clamped__3d__trafo.html#ab614fb88d34d5e55292639d8db6b0353" target="_top" xlink:title="Initialization. ">
<polygon fill="#ffffff" stroke="#000000" points="458,-121 458,-151 595,-151 595,-121 458,-121"/>
<text text-anchor="start" x="466" y="-139" font-family="Helvetica,sans-Serif" font-size="10.00" fill="#000000">sll_m_maxwell_clamped</text>
<text text-anchor="middle" x="526.5" y="-128" font-family="Helvetica,sans-Serif" font-size="10.00" fill="#000000">_3d_trafo::init_3d_trafo</text>
</a>
</g>
</g>
<!-- Node123&#45;&gt;Node126 -->
<g id="edge5" class="edge">
<title>Node123&#45;&gt;Node126</title>
<path fill="none" stroke="#191970" d="M432.1737,-121.8384C440.7978,-123.1332 449.4343,-124.4298 457.7878,-125.684"/>
<polygon fill="#191970" stroke="#191970" points="432.4819,-118.3455 422.073,-120.322 431.4425,-125.2679 432.4819,-118.3455"/>
</g>
<!-- Node123&#45;&gt;Node127 -->
<g id="edge6" class="edge">
<title>Node123&#45;&gt;Node127</title>
<path fill="none" stroke="#191970" d="M383.0761,-88.5454C395.6848,-82.7142 409.4506,-76.2143 422,-70 438.2128,-61.9717 441.7032,-58.8563 458,-51 464.5491,-47.8428 471.5108,-44.6313 478.3912,-41.5404"/>
<polygon fill="#191970" stroke="#191970" points="381.3215,-85.4999 373.6989,-92.8583 384.2466,-91.8594 381.3215,-85.4999"/>
</g>
<!-- Node128 -->
<g id="node8" class="node">
<title>Node128</title>
<g id="a_node8"><a xlink:href="namespacesll__m__maxwell__clamped__3d__trafo__parallel.html#ae0872c3bfa3cc2f7b7f3aaca4fd8838e" target="_top" xlink:title="sll_m_maxwell_clamped\l_3d_trafo_parallel::init\l_3d_trafo_parallel">
<polygon fill="#ffffff" stroke="#000000" points="458,-60.5 458,-101.5 595,-101.5 595,-60.5 458,-60.5"/>
<text text-anchor="start" x="466" y="-89.5" font-family="Helvetica,sans-Serif" font-size="10.00" fill="#000000">sll_m_maxwell_clamped</text>
<text text-anchor="start" x="466" y="-78.5" font-family="Helvetica,sans-Serif" font-size="10.00" fill="#000000">_3d_trafo_parallel::init</text>
<text text-anchor="middle" x="526.5" y="-67.5" font-family="Helvetica,sans-Serif" font-size="10.00" fill="#000000">_3d_trafo_parallel</text>
</a>
</g>
</g>
<!-- Node123&#45;&gt;Node128 -->
<g id="edge7" class="edge">
<title>Node123&#45;&gt;Node128</title>
<path fill="none" stroke="#191970" d="M432.1737,-94.6558C440.7978,-93.4073 449.4343,-92.157 457.7878,-90.9476"/>
<polygon fill="#191970" stroke="#191970" points="431.4683,-91.2214 422.073,-96.1181 432.4713,-98.1491 431.4683,-91.2214"/>
</g>
</g>
</svg>
        <g id="navigator" transform="translate(0 0)" fill="#404254">
                <rect fill="#f2f5e9" fill-opacity="0.5" stroke="#606060" stroke-width=".5" x="0" y="0" width="60" height="60"/>
                <use id="zoomplus" xlink:href="#zoomPlus" x="17" y="9" onmousedown="handleZoom(evt,'in')"/>
                <use id="zoomminus" xlink:href="#zoomMin" x="42" y="9" onmousedown="handleZoom(evt,'out')"/>
                <use id="reset" xlink:href="#resetDef" x="30" y="36" onmousedown="handleReset()"/>
                <g id="arrowUp" xlink:href="#dirArrow" transform="translate(30 24)" onmousedown="handlePan(0,-1)">
                  <use xlink:href="#rim" fill="#404040">
                        <set attributeName="fill" to="#808080" begin="arrowUp.mouseover" end="arrowUp.mouseout"/>
                  </use>
                  <path fill="none" stroke="white" stroke-width="1.5" d="M0,-3.0v7 M-2.5,-0.5L0,-3.0L2.5,-0.5"/>
                </g>
                <g id="arrowRight" xlink:href="#dirArrow" transform="rotate(90) translate(36 -43)" onmousedown="handlePan(1,0)">
                  <use xlink:href="#rim" fill="#404040">
                        <set attributeName="fill" to="#808080" begin="arrowRight.mouseover" end="arrowRight.mouseout"/>
                  </use>
                  <path fill="none" stroke="white" stroke-width="1.5" d="M0,-3.0v7 M-2.5,-0.5L0,-3.0L2.5,-0.5"/>
                </g>
                <g id="arrowDown" xlink:href="#dirArrow" transform="rotate(180) translate(-30 -48)" onmousedown="handlePan(0,1)">
                  <use xlink:href="#rim" fill="#404040">
                        <set attributeName="fill" to="#808080" begin="arrowDown.mouseover" end="arrowDown.mouseout"/>
                  </use>
                  <path fill="none" stroke="white" stroke-width="1.5" d="M0,-3.0v7 M-2.5,-0.5L0,-3.0L2.5,-0.5"/>
                </g>
                <g id="arrowLeft" xlink:href="#dirArrow" transform="rotate(270) translate(-36 17)" onmousedown="handlePan(-1,0)">
                  <use xlink:href="#rim" fill="#404040">
                        <set attributeName="fill" to="#808080" begin="arrowLeft.mouseover" end="arrowLeft.mouseout"/>
                  </use>
                  <path fill="none" stroke="white" stroke-width="1.5" d="M0,-3.0v7 M-2.5,-0.5L0,-3.0L2.5,-0.5"/>
                </g>
        </g>
        <svg viewBox="0 0 15 15" width="100%" height="30px" preserveAspectRatio="xMaxYMin meet">
         <g id="arrow_out" transform="scale(0.3 0.3)">
          <a xlink:href="namespacesll__m__spline__fem__utilities__3d__helper_a0ecb5b69702c19db85ec6fcf8f5cf530_icgraph_org.svg" target="_base">
           <rect id="button" ry="5" rx="5" y="6" x="6" height="38" width="38"
                fill="#f2f5e9" fill-opacity="0.5" stroke="#606060" stroke-width="1.0"/>
           <path id="arrow"
             d="M 11.500037,31.436501 C 11.940474,20.09759 22.043105,11.32322 32.158766,21.979434 L 37.068811,17.246167 C 37.068811,17.246167 37.088388,32 37.088388,32 L 22.160133,31.978069 C 22.160133,31.978069 26.997745,27.140456 26.997745,27.140456 C 18.528582,18.264221 13.291696,25.230495 11.500037,31.436501 z"
             style="fill:#404040;"/>
          </a>
         </g>
        </svg>
</svg>
