<?xml version="1.0" encoding="UTF-8" standalone="no"?>
<!DOCTYPE svg PUBLIC "-//W3C//DTD SVG 1.1//EN"
 "http://www.w3.org/Graphics/SVG/1.1/DTD/svg11.dtd">
<!-- Generated by graphviz version 2.40.1 (20161225.0304)
 -->
<!-- Title: interpolate_array_disp_sgfft Pages: 1 -->
<svg width="316pt" height="85pt"
 viewBox="0.00 0.00 316.00 85.00" xmlns="http://www.w3.org/2000/svg" xmlns:xlink="http://www.w3.org/1999/xlink">
<g id="graph0" class="graph" transform="scale(1 1) rotate(0) translate(4 81)">
<title>interpolate_array_disp_sgfft</title>
<polygon fill="#ffffff" stroke="transparent" points="-4,4 -4,-81 312,-81 312,4 -4,4"/>
<!-- Node13 -->
<g id="node1" class="node">
<title>Node13</title>
<polygon fill="#bfbfbf" stroke="#000000" points="0,-33 0,-63 126,-63 126,-33 0,-33"/>
<text text-anchor="start" x="8" y="-51" font-family="Helvetica,sans-Serif" font-size="10.00" fill="#000000">interpolate_array_disp</text>
<text text-anchor="middle" x="63" y="-40" font-family="Helvetica,sans-Serif" font-size="10.00" fill="#000000">_sgfft</text>
</g>
<!-- Node14 -->
<g id="node2" class="node">
<title>Node14</title>
<g id="a_node2"><a xlink:href="namespacesll__m__sparse__grid__3d.html#ac1edbe5fe2a39a6850912adf492f6498" target="_top" xlink:title="displace">
<polygon fill="#ffffff" stroke="#000000" points="162,-57.5 162,-76.5 219,-76.5 219,-57.5 162,-57.5"/>
<text text-anchor="middle" x="190.5" y="-64.5" font-family="Helvetica,sans-Serif" font-size="10.00" fill="#000000">displace</text>
</a>
</g>
</g>
<!-- Node13&#45;&gt;Node14 -->
<g id="edge1" class="edge">
<title>Node13&#45;&gt;Node14</title>
<path fill="none" stroke="#191970" d="M126.0029,-57.3887C134.8255,-58.7034 143.6672,-60.021 151.8519,-61.2407"/>
<polygon fill="#191970" stroke="#191970" points="151.4103,-64.7134 161.817,-62.7257 152.4421,-57.7899 151.4103,-64.7134"/>
</g>
<!-- Node15 -->
<g id="node3" class="node">
<title>Node15</title>
<g id="a_node3"><a xlink:href="namespacesll__m__sparse__grid__3d.html#a31a3a48b64e437c26f6c8b3eae67a4e1" target="_top" xlink:title="Sparse grid inverse FFT. ">
<polygon fill="#ffffff" stroke="#000000" points="170,-19.5 170,-38.5 211,-38.5 211,-19.5 170,-19.5"/>
<text text-anchor="middle" x="190.5" y="-26.5" font-family="Helvetica,sans-Serif" font-size="10.00" fill="#000000">ispfft</text>
</a>
</g>
</g>
<!-- Node13&#45;&gt;Node15 -->
<g id="edge2" class="edge">
<title>Node13&#45;&gt;Node15</title>
<path fill="none" stroke="#191970" d="M126.0029,-38.6113C137.737,-36.8627 149.5048,-35.1091 159.7159,-33.5874"/>
<polygon fill="#191970" stroke="#191970" points="160.3518,-37.0314 169.7267,-32.0956 159.32,-30.1079 160.3518,-37.0314"/>
</g>
<!-- Node16 -->
<g id="node4" class="node">
<title>Node16</title>
<g id="a_node4"><a xlink:href="namespacesll__m__sparse__grid__3d.html#a6dccf1d1dc47f13005dbced4fd10c0d5" target="_top" xlink:title="tohira">
<polygon fill="#ffffff" stroke="#000000" points="259,-38.5 259,-57.5 304,-57.5 304,-38.5 259,-38.5"/>
<text text-anchor="middle" x="281.5" y="-45.5" font-family="Helvetica,sans-Serif" font-size="10.00" fill="#000000">tohira</text>
</a>
</g>
</g>
<!-- Node15&#45;&gt;Node16 -->
<g id="edge3" class="edge">
<title>Node15&#45;&gt;Node16</title>
<path fill="none" stroke="#191970" d="M211.1493,-33.3114C222.2107,-35.6209 236.0986,-38.5206 248.6067,-41.1322"/>
<polygon fill="#191970" stroke="#191970" points="248.1922,-44.621 258.6965,-43.2388 249.6229,-37.7688 248.1922,-44.621"/>
</g>
<!-- Node17 -->
<g id="node5" class="node">
<title>Node17</title>
<g id="a_node5"><a xlink:href="namespacesll__m__sparse__grid__3d.html#ae91093d5f7d227c6bc572b47b98a995a" target="_top" xlink:title="tonodal">
<polygon fill="#ffffff" stroke="#000000" points="255,-.5 255,-19.5 308,-19.5 308,-.5 255,-.5"/>
<text text-anchor="middle" x="281.5" y="-7.5" font-family="Helvetica,sans-Serif" font-size="10.00" fill="#000000">tonodal</text>
</a>
</g>
</g>
<!-- Node15&#45;&gt;Node17 -->
<g id="edge4" class="edge">
<title>Node15&#45;&gt;Node17</title>
<path fill="none" stroke="#191970" d="M211.1493,-24.6886C221.1267,-22.6054 233.4037,-20.0421 244.8935,-17.6431"/>
<polygon fill="#191970" stroke="#191970" points="245.6367,-21.0635 254.7103,-15.5935 244.206,-14.2113 245.6367,-21.0635"/>
</g>
</g>
</svg>
