<?xml version="1.0" encoding="UTF-8" standalone="no"?>
<!DOCTYPE svg PUBLIC "-//W3C//DTD SVG 1.1//EN"
 "http://www.w3.org/Graphics/SVG/1.1/DTD/svg11.dtd">
<!-- Generated by graphviz version 2.40.1 (20161225.0304)
 -->
<!-- Title: sll_s_hdf5_ser_file_close Pages: 1 -->
<!--zoomable 764 -->
<svg id="main" version="1.1" xmlns="http://www.w3.org/2000/svg" xmlns:xlink="http://www.w3.org/1999/xlink" xml:space="preserve" onload="init(evt)">
<style type="text/css"><![CDATA[
.edge:hover path { stroke: red; }
.edge:hover polygon { stroke: red; fill: red; }
]]></style>
<script type="text/javascript"><![CDATA[
var edges = document.getElementsByTagName('g');
if (edges && edges.length) {
  for (var i=0;i<edges.length;i++) {
    if (edges[i].id.substr(0,4)=='edge') {
      edges[i].setAttribute('class','edge');
    }
  }
}
]]></script>
        <defs>
                <circle id="rim" cx="0" cy="0" r="7"/>
                <circle id="rim2" cx="0" cy="0" r="3.5"/>
                <g id="zoomPlus">
                        <use xlink:href="#rim" fill="#404040">
                                <set attributeName="fill" to="#808080" begin="zoomplus.mouseover" end="zoomplus.mouseout"/>
                        </use>
                        <path d="M-4,0h8M0,-4v8" fill="none" stroke="white" stroke-width="1.5" pointer-events="none"/>
                </g>
                <g id="zoomMin">
                        <use xlink:href="#rim" fill="#404040">
                                <set attributeName="fill" to="#808080" begin="zoomminus.mouseover" end="zoomminus.mouseout"/>
                        </use>
                        <path d="M-4,0h8" fill="none" stroke="white" stroke-width="1.5" pointer-events="none"/>
                </g>
                <g id="dirArrow">
                        <path fill="none" stroke="white" stroke-width="1.5" d="M0,-3.0v7 M-2.5,-0.5L0,-3.0L2.5,-0.5"/>
                </g>
               <g id="resetDef">
                       <use xlink:href="#rim2" fill="#404040">
                               <set attributeName="fill" to="#808080" begin="reset.mouseover" end="reset.mouseout"/>
                       </use>
               </g>
        </defs>

<script type="text/javascript">
var viewWidth = 539;
var viewHeight = 764;
var sectionId = 'dynsection-1';
</script>
<script xlink:href="svgpan.js"/>
<svg id="graph" class="graph">
<g id="viewport">
<title>sll_s_hdf5_ser_file_close</title>
<polygon fill="#ffffff" stroke="transparent" points="-4,4 -4,-760 535,-760 535,4 -4,4"/>
<!-- Node30 -->
<g id="node1" class="node">
<title>Node30</title>
<polygon fill="#bfbfbf" stroke="#000000" points="0,-357.5 0,-387.5 106,-387.5 106,-357.5 0,-357.5"/>
<text text-anchor="start" x="8" y="-375.5" font-family="Helvetica,sans-Serif" font-size="10.00" fill="#000000">sll_s_hdf5_ser_file</text>
<text text-anchor="middle" x="53" y="-364.5" font-family="Helvetica,sans-Serif" font-size="10.00" fill="#000000">_close</text>
</g>
<!-- Node31 -->
<g id="node2" class="node">
<title>Node31</title>
<g id="a_node2"><a xlink:href="namespacesll__m__xdmf.html#a6206e0336944846facc12c8175ee11b4" target="_top" xlink:title="Write 2d array in binary or hdf5 file and the matching line in XDMF file. ">
<polygon fill="#ffffff" stroke="#000000" points="177,-725.5 177,-755.5 299,-755.5 299,-725.5 177,-725.5"/>
<text text-anchor="start" x="185" y="-743.5" font-family="Helvetica,sans-Serif" font-size="10.00" fill="#000000">sll_m_xdmf::sll_xdmf</text>
<text text-anchor="middle" x="238" y="-732.5" font-family="Helvetica,sans-Serif" font-size="10.00" fill="#000000">_array_2d</text>
</a>
</g>
</g>
<!-- Node30&#45;&gt;Node31 -->
<g id="edge1" class="edge">
<title>Node30&#45;&gt;Node31</title>
<path fill="none" stroke="#191970" d="M56.1696,-397.6829C65.6609,-469.139 96.0697,-670.9444 142,-716.5 151.392,-725.8154 163.8193,-731.6983 176.6061,-735.3708"/>
<polygon fill="#191970" stroke="#191970" points="59.6378,-397.211 54.874,-387.7476 52.6966,-398.1163 59.6378,-397.211"/>
</g>
<!-- Node32 -->
<g id="node3" class="node">
<title>Node32</title>
<g id="a_node3"><a xlink:href="namespacesll__m__xdmf.html#a6e95da19da0e62591ee0402ddfd44009" target="_top" xlink:title="Write 3d array in binary or hdf5 file and the matching line in XDMF file. ">
<polygon fill="#ffffff" stroke="#000000" points="177,-676.5 177,-706.5 299,-706.5 299,-676.5 177,-676.5"/>
<text text-anchor="start" x="185" y="-694.5" font-family="Helvetica,sans-Serif" font-size="10.00" fill="#000000">sll_m_xdmf::sll_xdmf</text>
<text text-anchor="middle" x="238" y="-683.5" font-family="Helvetica,sans-Serif" font-size="10.00" fill="#000000">_array_3d</text>
</a>
</g>
</g>
<!-- Node30&#45;&gt;Node32 -->
<g id="edge2" class="edge">
<title>Node30&#45;&gt;Node32</title>
<path fill="none" stroke="#191970" d="M57.3607,-397.8833C68.9177,-462.2739 102.1903,-629.5579 142,-667.5 151.5757,-676.6265 164.0761,-682.4341 176.8755,-686.0937"/>
<polygon fill="#191970" stroke="#191970" points="60.7632,-397.0242 55.5759,-387.7861 53.8701,-398.2427 60.7632,-397.0242"/>
</g>
<!-- Node33 -->
<g id="node4" class="node">
<title>Node33</title>
<g id="a_node4"><a xlink:href="namespacesll__m__xdmf.html#a880cc0b67647740ea3504f3ed80585b0" target="_top" xlink:title="Subroutine to write a 2D array in xdmf format The field is describe on a cartesian mesh Axis are perp...">
<polygon fill="#ffffff" stroke="#000000" points="172,-627.5 172,-657.5 304,-657.5 304,-627.5 172,-627.5"/>
<text text-anchor="start" x="180" y="-645.5" font-family="Helvetica,sans-Serif" font-size="10.00" fill="#000000">sll_m_xdmf::sll_s_xdmf</text>
<text text-anchor="middle" x="238" y="-634.5" font-family="Helvetica,sans-Serif" font-size="10.00" fill="#000000">_corect2d_nodes</text>
</a>
</g>
</g>
<!-- Node30&#45;&gt;Node33 -->
<g id="edge3" class="edge">
<title>Node30&#45;&gt;Node33</title>
<path fill="none" stroke="#191970" d="M54.5697,-397.8143C59.0724,-447.7492 76.3377,-559.225 142,-618.5 150.4165,-626.0977 160.874,-631.3731 171.7609,-635.0186"/>
<polygon fill="#191970" stroke="#191970" points="58.0381,-397.2788 53.7517,-387.5898 51.0604,-397.8371 58.0381,-397.2788"/>
</g>
<!-- Node36 -->
<g id="node7" class="node">
<title>Node36</title>
<g id="a_node7"><a xlink:href="namespacesll__m__xdmf.html#a910b19f6e78165a5be687b9b641901e9" target="_top" xlink:title="Subroutine to write a 3D array in xdmf format The field is describe on a cartesian mesh Axis are perp...">
<polygon fill="#ffffff" stroke="#000000" points="172,-578.5 172,-608.5 304,-608.5 304,-578.5 172,-578.5"/>
<text text-anchor="start" x="180" y="-596.5" font-family="Helvetica,sans-Serif" font-size="10.00" fill="#000000">sll_m_xdmf::sll_s_xdmf</text>
<text text-anchor="middle" x="238" y="-585.5" font-family="Helvetica,sans-Serif" font-size="10.00" fill="#000000">_corect3d_nodes</text>
</a>
</g>
</g>
<!-- Node30&#45;&gt;Node36 -->
<g id="edge6" class="edge">
<title>Node30&#45;&gt;Node36</title>
<path fill="none" stroke="#191970" d="M57.083,-397.4681C65.3111,-439.5362 87.9387,-524.3587 142,-569.5 150.5715,-576.6572 160.9792,-581.7271 171.7382,-585.3083"/>
<polygon fill="#191970" stroke="#191970" points="60.5024,-396.71 55.2504,-387.5085 53.618,-397.9768 60.5024,-396.71"/>
</g>
<!-- Node37 -->
<g id="node8" class="node">
<title>Node37</title>
<g id="a_node8"><a xlink:href="namespacesll__m__xdmf.html#a90ca8516ec643328cd8f22fe17618d0b" target="_top" xlink:title="Subroutine to write a 2D array in xdmf format. The field is describe on a cartesian mesh...">
<polygon fill="#ffffff" stroke="#000000" points="172,-529.5 172,-559.5 304,-559.5 304,-529.5 172,-529.5"/>
<text text-anchor="start" x="180" y="-547.5" font-family="Helvetica,sans-Serif" font-size="10.00" fill="#000000">sll_m_xdmf::sll_s_xdmf</text>
<text text-anchor="middle" x="238" y="-536.5" font-family="Helvetica,sans-Serif" font-size="10.00" fill="#000000">_rect2d_nodes</text>
</a>
</g>
</g>
<!-- Node30&#45;&gt;Node37 -->
<g id="edge7" class="edge">
<title>Node30&#45;&gt;Node37</title>
<path fill="none" stroke="#191970" d="M61.0671,-397.222C73.2111,-430.4499 99.4122,-488.9777 142,-520.5 150.8375,-527.0412 161.2562,-531.8119 171.9132,-535.2884"/>
<polygon fill="#191970" stroke="#191970" points="64.3661,-396.0528 57.747,-387.78 57.7624,-398.3749 64.3661,-396.0528"/>
</g>
<!-- Node38 -->
<g id="node9" class="node">
<title>Node38</title>
<g id="a_node9"><a xlink:href="namespacesll__m__xdmf.html#a431375067ad6e24424dffff368c66988" target="_top" xlink:title="Subroutine to write a 3D array in xdmf format. The field is describe on a cartesian mesh...">
<polygon fill="#ffffff" stroke="#000000" points="172,-480.5 172,-510.5 304,-510.5 304,-480.5 172,-480.5"/>
<text text-anchor="start" x="180" y="-498.5" font-family="Helvetica,sans-Serif" font-size="10.00" fill="#000000">sll_m_xdmf::sll_s_xdmf</text>
<text text-anchor="middle" x="238" y="-487.5" font-family="Helvetica,sans-Serif" font-size="10.00" fill="#000000">_rect3d_nodes</text>
</a>
</g>
</g>
<!-- Node30&#45;&gt;Node38 -->
<g id="edge8" class="edge">
<title>Node30&#45;&gt;Node38</title>
<path fill="none" stroke="#191970" d="M68.2117,-395.9392C84.0058,-418.3993 110.753,-451.594 142,-470.5 151.1359,-476.0277 161.4774,-480.3442 171.9048,-483.7121"/>
<polygon fill="#191970" stroke="#191970" points="71.0536,-393.8947 62.5161,-387.6209 65.2778,-397.8495 71.0536,-393.8947"/>
</g>
<!-- Node39 -->
<g id="node10" class="node">
<title>Node39</title>
<g id="a_node10"><a xlink:href="namespacesll__m__xdmf.html#a867e9a647f21e95b34565b0cb88d1cfc" target="_top" xlink:title="Subroutine to write a 2D array in xdmf format. The field is describe on a cartesian mesh...">
<polygon fill="#ffffff" stroke="#000000" points="172,-431.5 172,-461.5 304,-461.5 304,-431.5 172,-431.5"/>
<text text-anchor="start" x="180" y="-449.5" font-family="Helvetica,sans-Serif" font-size="10.00" fill="#000000">sll_m_xdmf::sll_s_xdmf</text>
<text text-anchor="middle" x="238" y="-438.5" font-family="Helvetica,sans-Serif" font-size="10.00" fill="#000000">_curv2d_nodes</text>
</a>
</g>
</g>
<!-- Node30&#45;&gt;Node39 -->
<g id="edge9" class="edge">
<title>Node30&#45;&gt;Node39</title>
<path fill="none" stroke="#191970" d="M85.4446,-392.9147C101.9086,-402.6055 122.5051,-413.7357 142,-421.5 151.5201,-425.2916 161.8008,-428.6712 171.9742,-431.6255"/>
<polygon fill="#191970" stroke="#191970" points="87.1335,-389.8465 76.7564,-387.7095 83.5359,-395.8513 87.1335,-389.8465"/>
</g>
<!-- Node41 -->
<g id="node12" class="node">
<title>Node41</title>
<g id="a_node12"><a xlink:href="namespacesll__m__xdmf.html#ab1f4fd4ed9da296728589fd2a5056974" target="_top" xlink:title="Subroutine to write a 3D array in xdmf format. The field is describe on a cartesian mesh...">
<polygon fill="#ffffff" stroke="#000000" points="172,-382.5 172,-412.5 304,-412.5 304,-382.5 172,-382.5"/>
<text text-anchor="start" x="180" y="-400.5" font-family="Helvetica,sans-Serif" font-size="10.00" fill="#000000">sll_m_xdmf::sll_s_xdmf</text>
<text text-anchor="middle" x="238" y="-389.5" font-family="Helvetica,sans-Serif" font-size="10.00" fill="#000000">_curv3d_nodes</text>
</a>
</g>
</g>
<!-- Node30&#45;&gt;Node41 -->
<g id="edge11" class="edge">
<title>Node30&#45;&gt;Node41</title>
<path fill="none" stroke="#191970" d="M116.0867,-381.0252C134.047,-383.4523 153.6586,-386.1025 171.7986,-388.5539"/>
<polygon fill="#191970" stroke="#191970" points="116.3922,-377.5348 106.0136,-379.664 115.4548,-384.4717 116.3922,-377.5348"/>
</g>
<!-- Node42 -->
<g id="node13" class="node">
<title>Node42</title>
<g id="a_node13"><a xlink:href="namespacesll__m__xdmf.html#a1b701028e1b98ee4006acff3c3468459" target="_top" xlink:title="Plot 2d distribution function for VisIt. ">
<polygon fill="#ffffff" stroke="#000000" points="175.5,-333.5 175.5,-363.5 300.5,-363.5 300.5,-333.5 175.5,-333.5"/>
<text text-anchor="start" x="183.5" y="-351.5" font-family="Helvetica,sans-Serif" font-size="10.00" fill="#000000">sll_m_xdmf::sll_s_plot</text>
<text text-anchor="middle" x="238" y="-340.5" font-family="Helvetica,sans-Serif" font-size="10.00" fill="#000000">_f_cartesian</text>
</a>
</g>
</g>
<!-- Node30&#45;&gt;Node42 -->
<g id="edge12" class="edge">
<title>Node30&#45;&gt;Node42</title>
<path fill="none" stroke="#191970" d="M116.1455,-364.3082C135.3152,-361.8213 156.3615,-359.0909 175.4894,-356.6095"/>
<polygon fill="#191970" stroke="#191970" points="115.4802,-360.865 106.0136,-365.6226 116.3808,-367.8069 115.4802,-360.865"/>
</g>
<!-- Node43 -->
<g id="node14" class="node">
<title>Node43</title>
<g id="a_node14"><a xlink:href="namespacesll__m__xdmf.html#a13210eee7926f60557ab641a81588823" target="_top" xlink:title="Plot 2d distribution function for VisIt. ">
<polygon fill="#ffffff" stroke="#000000" points="171,-295 171,-314 305,-314 305,-295 171,-295"/>
<text text-anchor="middle" x="238" y="-302" font-family="Helvetica,sans-Serif" font-size="10.00" fill="#000000">sll_m_xdmf::sll_s_plot_f</text>
</a>
</g>
</g>
<!-- Node30&#45;&gt;Node43 -->
<g id="edge13" class="edge">
<title>Node30&#45;&gt;Node43</title>
<path fill="none" stroke="#191970" d="M84.5579,-352.0018C101.0862,-342.0868 122.0036,-330.7842 142,-323.5 152.5361,-319.662 164.0204,-316.5401 175.2636,-314.0201"/>
<polygon fill="#191970" stroke="#191970" points="82.5572,-349.1229 75.8608,-357.3331 86.2156,-355.0909 82.5572,-349.1229"/>
</g>
<!-- Node44 -->
<g id="node15" class="node">
<title>Node44</title>
<g id="a_node15"><a xlink:href="namespacesll__m__xdmf__serial__blocks.html#ac1d7d37581f06618cf3280ace3712a90" target="_top" xlink:title="Open a XDMF format file for a 2d plot. ">
<polygon fill="#ffffff" stroke="#000000" points="151.5,-245.5 151.5,-275.5 324.5,-275.5 324.5,-245.5 151.5,-245.5"/>
<text text-anchor="start" x="159.5" y="-263.5" font-family="Helvetica,sans-Serif" font-size="10.00" fill="#000000">sll_m_xdmf_serial_blocks</text>
<text text-anchor="middle" x="238" y="-252.5" font-family="Helvetica,sans-Serif" font-size="10.00" fill="#000000">::sll_s_xdmf_open_serial_blocks</text>
</a>
</g>
</g>
<!-- Node30&#45;&gt;Node44 -->
<g id="edge14" class="edge">
<title>Node30&#45;&gt;Node44</title>
<path fill="none" stroke="#191970" d="M70.6112,-349.5299C87.0072,-329.7101 113.1953,-301.7788 142,-285.5 148.8222,-281.6445 156.2519,-278.3698 163.8576,-275.5911"/>
<polygon fill="#191970" stroke="#191970" points="67.7603,-347.4894 64.2047,-357.4698 73.2081,-351.8851 67.7603,-347.4894"/>
</g>
<!-- Node45 -->
<g id="node16" class="node">
<title>Node45</title>
<g id="a_node16"><a xlink:href="namespacesll__m__xdmf__serial__blocks.html#a3070333c97ded3dc46826a951b191b48" target="_top" xlink:title="Write 2d array in parallel hdf5 file and the matching line in XDMF file. ">
<polygon fill="#ffffff" stroke="#000000" points="142,-196.5 142,-226.5 334,-226.5 334,-196.5 142,-196.5"/>
<text text-anchor="start" x="150" y="-214.5" font-family="Helvetica,sans-Serif" font-size="10.00" fill="#000000">sll_m_xdmf_serial_blocks</text>
<text text-anchor="middle" x="238" y="-203.5" font-family="Helvetica,sans-Serif" font-size="10.00" fill="#000000">::sll_s_xdmf_array_2d_serial_blocks</text>
</a>
</g>
</g>
<!-- Node30&#45;&gt;Node45 -->
<g id="edge15" class="edge">
<title>Node30&#45;&gt;Node45</title>
<path fill="none" stroke="#191970" d="M62.3147,-347.8378C75.3342,-316.79 101.9678,-264.069 142,-235.5 146.7545,-232.107 151.9394,-229.1918 157.3566,-226.6876"/>
<polygon fill="#191970" stroke="#191970" points="58.924,-346.8871 58.4217,-357.47 65.414,-349.5102 58.924,-346.8871"/>
</g>
<!-- Node46 -->
<g id="node17" class="node">
<title>Node46</title>
<g id="a_node17"><a xlink:href="namespacesll__m__hdf5__serial.html#a140be15ac495f7b0aeecb095a1695d7c" target="_top" xlink:title="sll_m_hdf5_serial::\lt_hdf5_serial__close">
<polygon fill="#ffffff" stroke="#000000" points="180,-147.5 180,-177.5 296,-177.5 296,-147.5 180,-147.5"/>
<text text-anchor="start" x="188" y="-165.5" font-family="Helvetica,sans-Serif" font-size="10.00" fill="#000000">sll_m_hdf5_serial::</text>
<text text-anchor="middle" x="238" y="-154.5" font-family="Helvetica,sans-Serif" font-size="10.00" fill="#000000">t_hdf5_serial__close</text>
</a>
</g>
</g>
<!-- Node30&#45;&gt;Node46 -->
<g id="edge16" class="edge">
<title>Node30&#45;&gt;Node46</title>
<path fill="none" stroke="#191970" d="M57.8392,-347.4607C66.9574,-307.2337 90.583,-228.4835 142,-186.5 152.7787,-177.6989 166.3474,-172.0645 179.8613,-168.474"/>
<polygon fill="#191970" stroke="#191970" points="54.4107,-346.7563 55.7328,-357.2684 61.2547,-348.2263 54.4107,-346.7563"/>
</g>
<!-- Node47 -->
<g id="node18" class="node">
<title>Node47</title>
<g id="a_node18"><a xlink:href="namespacesll__m__pic__viewer.html#ae9a23613f662ba67e6d0ea821d79480b" target="_top" xlink:title="sll_m_pic_viewer::write\l_2d_field">
<polygon fill="#ffffff" stroke="#000000" points="172.5,-98.5 172.5,-128.5 303.5,-128.5 303.5,-98.5 172.5,-98.5"/>
<text text-anchor="start" x="180.5" y="-116.5" font-family="Helvetica,sans-Serif" font-size="10.00" fill="#000000">sll_m_pic_viewer::write</text>
<text text-anchor="middle" x="238" y="-105.5" font-family="Helvetica,sans-Serif" font-size="10.00" fill="#000000">_2d_field</text>
</a>
</g>
</g>
<!-- Node30&#45;&gt;Node47 -->
<g id="edge17" class="edge">
<title>Node30&#45;&gt;Node47</title>
<path fill="none" stroke="#191970" d="M55.0499,-347.2989C60.3637,-299.0792 78.9406,-193.5787 142,-137.5 150.6012,-129.851 161.2759,-124.5618 172.3495,-120.9212"/>
<polygon fill="#191970" stroke="#191970" points="51.5449,-347.1759 54.0348,-357.474 58.5103,-347.8708 51.5449,-347.1759"/>
</g>
<!-- Node48 -->
<g id="node19" class="node">
<title>Node48</title>
<g id="a_node19"><a xlink:href="namespacesll__m__pic__viewer.html#aea83032c066628a0f076d663de3a0cae" target="_top" xlink:title="sll_m_pic_viewer::write\l_2d_particles">
<polygon fill="#ffffff" stroke="#000000" points="172.5,-49.5 172.5,-79.5 303.5,-79.5 303.5,-49.5 172.5,-49.5"/>
<text text-anchor="start" x="180.5" y="-67.5" font-family="Helvetica,sans-Serif" font-size="10.00" fill="#000000">sll_m_pic_viewer::write</text>
<text text-anchor="middle" x="238" y="-56.5" font-family="Helvetica,sans-Serif" font-size="10.00" fill="#000000">_2d_particles</text>
</a>
</g>
</g>
<!-- Node30&#45;&gt;Node48 -->
<g id="edge18" class="edge">
<title>Node30&#45;&gt;Node48</title>
<path fill="none" stroke="#191970" d="M57.6526,-347.2364C69.6721,-284.6374 103.5221,-124.7827 142,-88.5 150.4994,-80.4855 161.2569,-75.0353 172.4733,-71.3527"/>
<polygon fill="#191970" stroke="#191970" points="54.1474,-346.9361 55.7274,-357.4124 61.0254,-348.2374 54.1474,-346.9361"/>
</g>
<!-- Node49 -->
<g id="node20" class="node">
<title>Node49</title>
<g id="a_node20"><a xlink:href="namespacesll__m__pic__viewer.html#a209c226fa7620b0abb4823ba3e646bac" target="_top" xlink:title="sll_m_pic_viewer::write\l_2d_field_and_particles">
<polygon fill="#ffffff" stroke="#000000" points="172.5,-.5 172.5,-30.5 303.5,-30.5 303.5,-.5 172.5,-.5"/>
<text text-anchor="start" x="180.5" y="-18.5" font-family="Helvetica,sans-Serif" font-size="10.00" fill="#000000">sll_m_pic_viewer::write</text>
<text text-anchor="middle" x="238" y="-7.5" font-family="Helvetica,sans-Serif" font-size="10.00" fill="#000000">_2d_field_and_particles</text>
</a>
</g>
</g>
<!-- Node30&#45;&gt;Node49 -->
<g id="edge19" class="edge">
<title>Node30&#45;&gt;Node49</title>
<path fill="none" stroke="#191970" d="M56.4153,-347.211C66.3636,-277.2362 97.4617,-83.3233 142,-39.5 150.3271,-31.3066 161.0039,-25.7726 172.1945,-22.0633"/>
<polygon fill="#191970" stroke="#191970" points="52.9182,-346.9474 55.0014,-357.3354 59.8509,-347.9156 52.9182,-346.9474"/>
</g>
<!-- Node34 -->
<g id="node5" class="node">
<title>Node34</title>
<g id="a_node5"><a xlink:href="namespacesll__m__pic__visu.html#a18ee4e2413e318fe46a94506bdf191fc" target="_top" xlink:title="VisIt readable output for particles density Data file format could be XML, HDF5 or Binary (not fully ...">
<polygon fill="#ffffff" stroke="#000000" points="391,-651.5 391,-681.5 510,-681.5 510,-651.5 391,-651.5"/>
<text text-anchor="start" x="399" y="-669.5" font-family="Helvetica,sans-Serif" font-size="10.00" fill="#000000">sll_m_pic_visu::sll</text>
<text text-anchor="middle" x="450.5" y="-658.5" font-family="Helvetica,sans-Serif" font-size="10.00" fill="#000000">_s_distribution_xdmf</text>
</a>
</g>
</g>
<!-- Node33&#45;&gt;Node34 -->
<g id="edge4" class="edge">
<title>Node33&#45;&gt;Node34</title>
<path fill="none" stroke="#191970" d="M314.3354,-651.1214C339.5444,-653.9685 367.1995,-657.0919 390.9625,-659.7758"/>
<polygon fill="#191970" stroke="#191970" points="314.4011,-647.6067 304.0715,-649.9622 313.6155,-654.5624 314.4011,-647.6067"/>
</g>
<!-- Node35 -->
<g id="node6" class="node">
<title>Node35</title>
<g id="a_node6"><a xlink:href="namespacesll__m__pic__visu__parallel.html#ad67f213921eb3b0568bc86f927776a8d" target="_top" xlink:title="VisIt readable output for particles density Data file format could be XML, HDF5 or Binary (not fully ...">
<polygon fill="#ffffff" stroke="#000000" points="371.5,-602.5 371.5,-632.5 529.5,-632.5 529.5,-602.5 371.5,-602.5"/>
<text text-anchor="start" x="379.5" y="-620.5" font-family="Helvetica,sans-Serif" font-size="10.00" fill="#000000">sll_m_pic_visu_parallel</text>
<text text-anchor="middle" x="450.5" y="-609.5" font-family="Helvetica,sans-Serif" font-size="10.00" fill="#000000">::sll_s_distribution_xdmf_coll</text>
</a>
</g>
</g>
<!-- Node33&#45;&gt;Node35 -->
<g id="edge5" class="edge">
<title>Node33&#45;&gt;Node35</title>
<path fill="none" stroke="#191970" d="M314.2351,-633.5312C332.8054,-631.3464 352.7084,-629.0049 371.4082,-626.8049"/>
<polygon fill="#191970" stroke="#191970" points="313.594,-630.0824 304.0715,-634.7269 314.412,-637.0344 313.594,-630.0824"/>
</g>
<!-- Node40 -->
<g id="node11" class="node">
<title>Node40</title>
<g id="a_node11"><a xlink:href="namespacesll__m__scalar__field__2d.html#a00547734dbd587685206d85070d9dc4a" target="_top" xlink:title="sll_m_scalar_field\l_2d::write_to_file_discrete_2d">
<polygon fill="#ffffff" stroke="#000000" points="370,-431.5 370,-461.5 531,-461.5 531,-431.5 370,-431.5"/>
<text text-anchor="start" x="378" y="-449.5" font-family="Helvetica,sans-Serif" font-size="10.00" fill="#000000">sll_m_scalar_field</text>
<text text-anchor="middle" x="450.5" y="-438.5" font-family="Helvetica,sans-Serif" font-size="10.00" fill="#000000">_2d::write_to_file_discrete_2d</text>
</a>
</g>
</g>
<!-- Node39&#45;&gt;Node40 -->
<g id="edge10" class="edge">
<title>Node39&#45;&gt;Node40</title>
<path fill="none" stroke="#191970" d="M314.2513,-446.5C332.3139,-446.5 351.6365,-446.5 369.8859,-446.5"/>
<polygon fill="#191970" stroke="#191970" points="314.0715,-443.0001 304.0715,-446.5 314.0715,-450.0001 314.0715,-443.0001"/>
</g>
</g>
</svg>
        <g id="navigator" transform="translate(0 0)" fill="#404254">
                <rect fill="#f2f5e9" fill-opacity="0.5" stroke="#606060" stroke-width=".5" x="0" y="0" width="60" height="60"/>
                <use id="zoomplus" xlink:href="#zoomPlus" x="17" y="9" onmousedown="handleZoom(evt,'in')"/>
                <use id="zoomminus" xlink:href="#zoomMin" x="42" y="9" onmousedown="handleZoom(evt,'out')"/>
                <use id="reset" xlink:href="#resetDef" x="30" y="36" onmousedown="handleReset()"/>
                <g id="arrowUp" xlink:href="#dirArrow" transform="translate(30 24)" onmousedown="handlePan(0,-1)">
                  <use xlink:href="#rim" fill="#404040">
                        <set attributeName="fill" to="#808080" begin="arrowUp.mouseover" end="arrowUp.mouseout"/>
                  </use>
                  <path fill="none" stroke="white" stroke-width="1.5" d="M0,-3.0v7 M-2.5,-0.5L0,-3.0L2.5,-0.5"/>
                </g>
                <g id="arrowRight" xlink:href="#dirArrow" transform="rotate(90) translate(36 -43)" onmousedown="handlePan(1,0)">
                  <use xlink:href="#rim" fill="#404040">
                        <set attributeName="fill" to="#808080" begin="arrowRight.mouseover" end="arrowRight.mouseout"/>
                  </use>
                  <path fill="none" stroke="white" stroke-width="1.5" d="M0,-3.0v7 M-2.5,-0.5L0,-3.0L2.5,-0.5"/>
                </g>
                <g id="arrowDown" xlink:href="#dirArrow" transform="rotate(180) translate(-30 -48)" onmousedown="handlePan(0,1)">
                  <use xlink:href="#rim" fill="#404040">
                        <set attributeName="fill" to="#808080" begin="arrowDown.mouseover" end="arrowDown.mouseout"/>
                  </use>
                  <path fill="none" stroke="white" stroke-width="1.5" d="M0,-3.0v7 M-2.5,-0.5L0,-3.0L2.5,-0.5"/>
                </g>
                <g id="arrowLeft" xlink:href="#dirArrow" transform="rotate(270) translate(-36 17)" onmousedown="handlePan(-1,0)">
                  <use xlink:href="#rim" fill="#404040">
                        <set attributeName="fill" to="#808080" begin="arrowLeft.mouseover" end="arrowLeft.mouseout"/>
                  </use>
                  <path fill="none" stroke="white" stroke-width="1.5" d="M0,-3.0v7 M-2.5,-0.5L0,-3.0L2.5,-0.5"/>
                </g>
        </g>
        <svg viewBox="0 0 15 15" width="100%" height="30px" preserveAspectRatio="xMaxYMin meet">
         <g id="arrow_out" transform="scale(0.3 0.3)">
          <a xlink:href="namespacesll__m__hdf5__io__serial_aad08ae9d9ee0157ed6f78f50717367f1_icgraph_org.svg" target="_base">
           <rect id="button" ry="5" rx="5" y="6" x="6" height="38" width="38"
                fill="#f2f5e9" fill-opacity="0.5" stroke="#606060" stroke-width="1.0"/>
           <path id="arrow"
             d="M 11.500037,31.436501 C 11.940474,20.09759 22.043105,11.32322 32.158766,21.979434 L 37.068811,17.246167 C 37.068811,17.246167 37.088388,32 37.088388,32 L 22.160133,31.978069 C 22.160133,31.978069 26.997745,27.140456 26.997745,27.140456 C 18.528582,18.264221 13.291696,25.230495 11.500037,31.436501 z"
             style="fill:#404040;"/>
          </a>
         </g>
        </svg>
</svg>
