<?xml version="1.0" encoding="UTF-8" standalone="no"?>
<!DOCTYPE svg PUBLIC "-//W3C//DTD SVG 1.1//EN"
 "http://www.w3.org/Graphics/SVG/1.1/DTD/svg11.dtd">
<!-- Generated by graphviz version 2.43.0 (0)
 -->
<!-- Title: sll_s_ad2d_interpolator_init Pages: 1 -->
<svg width="550pt" height="100pt"
 viewBox="0.00 0.00 550.00 99.50" xmlns="http://www.w3.org/2000/svg" xmlns:xlink="http://www.w3.org/1999/xlink">
<g id="graph0" class="graph" transform="scale(1 1) rotate(0) translate(4 95.5)">
<title>sll_s_ad2d_interpolator_init</title>
<polygon fill="white" stroke="transparent" points="-4,4 -4,-95.5 546,-95.5 546,4 -4,4"/>
<!-- Node1 -->
<g id="node1" class="node">
<title>Node1</title>
<g id="a_node1"><a xlink:title="Initialization of an interpolator arbitrary degree splines 2d. The parameters are.">
<polygon fill="#bfbfbf" stroke="black" points="391,-33 391,-52 542,-52 542,-33 391,-33"/>
<text text-anchor="middle" x="466.5" y="-40" font-family="Helvetica,sans-Serif" font-size="10.00">sll_s_ad2d_interpolator_init</text>
</a>
</g>
</g>
<!-- Node2 -->
<g id="node2" class="node">
<title>Node2</title>
<g id="a_node2"><a xlink:href="namespacesll__m__arbitrary__degree__spline__interpolator__2d.html#a94723d635bdbaad8fb8fd863b4b7bd07" target="_top" xlink:title="Initialization of a pointer interpolator arbitrary degree splines 2d.">
<polygon fill="white" stroke="black" points="219,-27.5 219,-57.5 355,-57.5 355,-27.5 219,-27.5"/>
<text text-anchor="start" x="227" y="-45.5" font-family="Helvetica,sans-Serif" font-size="10.00">sll_f_new_arbitrary</text>
<text text-anchor="middle" x="287" y="-34.5" font-family="Helvetica,sans-Serif" font-size="10.00">_degree_spline_interp2d</text>
</a>
</g>
</g>
<!-- Node1&#45;&gt;Node2 -->
<g id="edge1" class="edge">
<title>Node1&#45;&gt;Node2</title>
<path fill="none" stroke="midnightblue" d="M380.93,-42.5C372.31,-42.5 363.64,-42.5 355.25,-42.5"/>
<polygon fill="midnightblue" stroke="midnightblue" points="381,-46 391,-42.5 381,-39 381,-46"/>
</g>
<!-- Node3 -->
<g id="node3" class="node">
<title>Node3</title>
<g id="a_node3"><a xlink:href="namespacesll__m__scalar__field__2d__multipatch.html#a8ea864138c82e8e8b66b75f3026c0a1c" target="_top" xlink:title=" ">
<polygon fill="white" stroke="black" points="21.5,-50 21.5,-91 161.5,-91 161.5,-50 21.5,-50"/>
<text text-anchor="start" x="29.5" y="-79" font-family="Helvetica,sans-Serif" font-size="10.00">sll_m_scalar_field</text>
<text text-anchor="start" x="29.5" y="-68" font-family="Helvetica,sans-Serif" font-size="10.00">_2d_multipatch::initialize</text>
<text text-anchor="middle" x="91.5" y="-57" font-family="Helvetica,sans-Serif" font-size="10.00">_scalar_field_sfmp2d</text>
</a>
</g>
</g>
<!-- Node2&#45;&gt;Node3 -->
<g id="edge2" class="edge">
<title>Node2&#45;&gt;Node3</title>
<path fill="none" stroke="midnightblue" d="M208.79,-53.67C193.27,-55.92 177.05,-58.27 161.81,-60.47"/>
<polygon fill="midnightblue" stroke="midnightblue" points="209.47,-57.11 218.87,-52.21 208.47,-50.18 209.47,-57.11"/>
</g>
<!-- Node4 -->
<g id="node4" class="node">
<title>Node4</title>
<g id="a_node4"><a xlink:href="namespacesll__m__coordinate__transformations__2d.html#af092a7689bceb4039d222e5f2a03c6e7" target="_top" xlink:title=" ">
<polygon fill="white" stroke="black" points="0,-0.5 0,-30.5 183,-30.5 183,-0.5 0,-0.5"/>
<text text-anchor="start" x="8" y="-18.5" font-family="Helvetica,sans-Serif" font-size="10.00">sll_m_coordinate_transformations</text>
<text text-anchor="middle" x="91.5" y="-7.5" font-family="Helvetica,sans-Serif" font-size="10.00">_2d::read_from_file_2d_discrete</text>
</a>
</g>
</g>
<!-- Node2&#45;&gt;Node4 -->
<g id="edge3" class="edge">
<title>Node2&#45;&gt;Node4</title>
<path fill="none" stroke="midnightblue" d="M208.69,-31.71C200.26,-30.54 191.61,-29.33 183.03,-28.13"/>
<polygon fill="midnightblue" stroke="midnightblue" points="208.48,-35.22 218.87,-33.13 209.45,-28.28 208.48,-35.22"/>
</g>
</g>
</svg>
