<?xml version="1.0" encoding="UTF-8" standalone="no"?>
<!DOCTYPE svg PUBLIC "-//W3C//DTD SVG 1.1//EN"
 "http://www.w3.org/Graphics/SVG/1.1/DTD/svg11.dtd">
<!-- Generated by graphviz version 2.40.1 (20161225.0304)
 -->
<!-- Title: get_n_elem Pages: 1 -->
<svg width="247pt" height="446pt"
 viewBox="0.00 0.00 247.00 446.00" xmlns="http://www.w3.org/2000/svg" xmlns:xlink="http://www.w3.org/1999/xlink">
<g id="graph0" class="graph" transform="scale(1 1) rotate(0) translate(4 442)">
<title>get_n_elem</title>
<polygon fill="#ffffff" stroke="transparent" points="-4,4 -4,-442 243,-442 243,4 -4,4"/>
<!-- Node1 -->
<g id="node1" class="node">
<title>Node1</title>
<polygon fill="#bfbfbf" stroke="#000000" points="0,-209.5 0,-228.5 74,-228.5 74,-209.5 0,-209.5"/>
<text text-anchor="middle" x="37" y="-216.5" font-family="Helvetica,sans-Serif" font-size="10.00" fill="#000000">get_n_elem</text>
</g>
<!-- Node2 -->
<g id="node2" class="node">
<title>Node2</title>
<g id="a_node2"><a xlink:href="namespacefmempool.html#aac7c0d2790983b4a5c6f1312d80e215a" target="_top" xlink:title="mp_acquire_double_1d">
<polygon fill="#ffffff" stroke="#000000" points="110,-418.5 110,-437.5 239,-437.5 239,-418.5 110,-418.5"/>
<text text-anchor="middle" x="174.5" y="-425.5" font-family="Helvetica,sans-Serif" font-size="10.00" fill="#000000">mp_acquire_double_1d</text>
</a>
</g>
</g>
<!-- Node1&#45;&gt;Node2 -->
<g id="edge1" class="edge">
<title>Node1&#45;&gt;Node2</title>
<path fill="none" stroke="#191970" d="M38.9105,-238.892C43.6837,-277.4237 59.6335,-362.5262 110,-409 114.2039,-412.879 119.1615,-415.9692 124.4304,-418.4303"/>
<polygon fill="#191970" stroke="#191970" points="42.3417,-238.0773 37.7622,-228.5234 35.3843,-238.8479 42.3417,-238.0773"/>
</g>
<!-- Node3 -->
<g id="node3" class="node">
<title>Node3</title>
<g id="a_node3"><a xlink:href="namespacefmempool.html#a24b8c0ff147db1fb2e22dc1677dab274" target="_top" xlink:title="mp_acquire_double_2d">
<polygon fill="#ffffff" stroke="#000000" points="110,-380.5 110,-399.5 239,-399.5 239,-380.5 110,-380.5"/>
<text text-anchor="middle" x="174.5" y="-387.5" font-family="Helvetica,sans-Serif" font-size="10.00" fill="#000000">mp_acquire_double_2d</text>
</a>
</g>
</g>
<!-- Node1&#45;&gt;Node3 -->
<g id="edge2" class="edge">
<title>Node1&#45;&gt;Node3</title>
<path fill="none" stroke="#191970" d="M41.0778,-238.9338C48.7671,-271.4255 68.5077,-335.7121 110,-371 114.5352,-374.8571 119.8233,-377.9314 125.3843,-380.3818"/>
<polygon fill="#191970" stroke="#191970" points="44.4273,-237.8715 38.8447,-228.8668 37.5934,-239.3874 44.4273,-237.8715"/>
</g>
<!-- Node4 -->
<g id="node4" class="node">
<title>Node4</title>
<g id="a_node4"><a xlink:href="namespacefmempool.html#a938dbeac2fdfdd53c49ac139afdd73e4" target="_top" xlink:title="mp_acquire_double_3d">
<polygon fill="#ffffff" stroke="#000000" points="110,-342.5 110,-361.5 239,-361.5 239,-342.5 110,-342.5"/>
<text text-anchor="middle" x="174.5" y="-349.5" font-family="Helvetica,sans-Serif" font-size="10.00" fill="#000000">mp_acquire_double_3d</text>
</a>
</g>
</g>
<!-- Node1&#45;&gt;Node4 -->
<g id="edge3" class="edge">
<title>Node1&#45;&gt;Node4</title>
<path fill="none" stroke="#191970" d="M44.2618,-238.2204C54.8514,-263.6621 76.9418,-308.1882 110,-333 115.1351,-336.8541 121.0408,-339.9292 127.1491,-342.382"/>
<polygon fill="#191970" stroke="#191970" points="47.3812,-236.5933 40.4291,-228.5984 40.8781,-239.1837 47.3812,-236.5933"/>
</g>
<!-- Node5 -->
<g id="node5" class="node">
<title>Node5</title>
<g id="a_node5"><a xlink:href="namespacefmempool.html#ab11f2c5d11505ecb529007d4b1a76439" target="_top" xlink:title="mp_acquire_double_6d">
<polygon fill="#ffffff" stroke="#000000" points="110,-304.5 110,-323.5 239,-323.5 239,-304.5 110,-304.5"/>
<text text-anchor="middle" x="174.5" y="-311.5" font-family="Helvetica,sans-Serif" font-size="10.00" fill="#000000">mp_acquire_double_6d</text>
</a>
</g>
</g>
<!-- Node1&#45;&gt;Node5 -->
<g id="edge4" class="edge">
<title>Node1&#45;&gt;Node5</title>
<path fill="none" stroke="#191970" d="M49.7317,-236.8803C62.9331,-254.1572 85.1021,-279.8717 110,-295 116.2851,-298.8189 123.3831,-301.9089 130.5131,-304.3975"/>
<polygon fill="#191970" stroke="#191970" points="52.4459,-234.6643 43.6788,-228.7155 46.8226,-238.8332 52.4459,-234.6643"/>
</g>
<!-- Node6 -->
<g id="node6" class="node">
<title>Node6</title>
<g id="a_node6"><a xlink:href="namespacefmempool.html#a27033f05fb0be62edd6f625bd0bc8535" target="_top" xlink:title="mp_acquire_real_1d">
<polygon fill="#ffffff" stroke="#000000" points="117,-266.5 117,-285.5 232,-285.5 232,-266.5 117,-266.5"/>
<text text-anchor="middle" x="174.5" y="-273.5" font-family="Helvetica,sans-Serif" font-size="10.00" fill="#000000">mp_acquire_real_1d</text>
</a>
</g>
</g>
<!-- Node1&#45;&gt;Node6 -->
<g id="edge5" class="edge">
<title>Node1&#45;&gt;Node6</title>
<path fill="none" stroke="#191970" d="M61.9997,-233.5489C75.8384,-241.2071 93.5266,-250.3589 110,-257 118.7698,-260.5355 128.4473,-263.7358 137.58,-266.4591"/>
<polygon fill="#191970" stroke="#191970" points="63.5271,-230.3922 53.0963,-228.5349 60.0922,-236.4916 63.5271,-230.3922"/>
</g>
<!-- Node7 -->
<g id="node7" class="node">
<title>Node7</title>
<g id="a_node7"><a xlink:href="namespacefmempool.html#ac082404ee20cbe5dfe80d25e637420de" target="_top" xlink:title="mp_acquire_real_2d">
<polygon fill="#ffffff" stroke="#000000" points="117,-228.5 117,-247.5 232,-247.5 232,-228.5 117,-228.5"/>
<text text-anchor="middle" x="174.5" y="-235.5" font-family="Helvetica,sans-Serif" font-size="10.00" fill="#000000">mp_acquire_real_2d</text>
</a>
</g>
</g>
<!-- Node1&#45;&gt;Node7 -->
<g id="edge6" class="edge">
<title>Node1&#45;&gt;Node7</title>
<path fill="none" stroke="#191970" d="M84.3778,-225.5467C94.8311,-226.9912 106.0164,-228.5368 116.8265,-230.0306"/>
<polygon fill="#191970" stroke="#191970" points="84.5945,-222.0435 74.2095,-224.1417 83.6362,-228.9776 84.5945,-222.0435"/>
</g>
<!-- Node8 -->
<g id="node8" class="node">
<title>Node8</title>
<g id="a_node8"><a xlink:href="namespacefmempool.html#a7482238bd6d1742a9856c4dcbce45695" target="_top" xlink:title="mp_acquire_real_3d">
<polygon fill="#ffffff" stroke="#000000" points="117,-190.5 117,-209.5 232,-209.5 232,-190.5 117,-190.5"/>
<text text-anchor="middle" x="174.5" y="-197.5" font-family="Helvetica,sans-Serif" font-size="10.00" fill="#000000">mp_acquire_real_3d</text>
</a>
</g>
</g>
<!-- Node1&#45;&gt;Node8 -->
<g id="edge7" class="edge">
<title>Node1&#45;&gt;Node8</title>
<path fill="none" stroke="#191970" d="M84.3778,-212.4533C94.8311,-211.0088 106.0164,-209.4632 116.8265,-207.9694"/>
<polygon fill="#191970" stroke="#191970" points="83.6362,-209.0224 74.2095,-213.8583 84.5945,-215.9565 83.6362,-209.0224"/>
</g>
<!-- Node9 -->
<g id="node9" class="node">
<title>Node9</title>
<g id="a_node9"><a xlink:href="namespacefmempool.html#ab4163e49b73eac46dde5755035adb6a8" target="_top" xlink:title="mp_acquire_real_6d">
<polygon fill="#ffffff" stroke="#000000" points="117,-152.5 117,-171.5 232,-171.5 232,-152.5 117,-152.5"/>
<text text-anchor="middle" x="174.5" y="-159.5" font-family="Helvetica,sans-Serif" font-size="10.00" fill="#000000">mp_acquire_real_6d</text>
</a>
</g>
</g>
<!-- Node1&#45;&gt;Node9 -->
<g id="edge8" class="edge">
<title>Node1&#45;&gt;Node9</title>
<path fill="none" stroke="#191970" d="M61.9997,-204.4511C75.8384,-196.7929 93.5266,-187.6411 110,-181 118.7698,-177.4645 128.4473,-174.2642 137.58,-171.5409"/>
<polygon fill="#191970" stroke="#191970" points="60.0922,-201.5084 53.0963,-209.4651 63.5271,-207.6078 60.0922,-201.5084"/>
</g>
<!-- Node10 -->
<g id="node10" class="node">
<title>Node10</title>
<g id="a_node10"><a xlink:href="namespacefmempool.html#aab47fbb85c006c6b92ea85ce68687115" target="_top" xlink:title="mp_acquire_int_1d">
<polygon fill="#ffffff" stroke="#000000" points="120,-114.5 120,-133.5 229,-133.5 229,-114.5 120,-114.5"/>
<text text-anchor="middle" x="174.5" y="-121.5" font-family="Helvetica,sans-Serif" font-size="10.00" fill="#000000">mp_acquire_int_1d</text>
</a>
</g>
</g>
<!-- Node1&#45;&gt;Node10 -->
<g id="edge9" class="edge">
<title>Node1&#45;&gt;Node10</title>
<path fill="none" stroke="#191970" d="M49.7317,-201.1197C62.9331,-183.8428 85.1021,-158.1283 110,-143 116.2851,-139.1811 123.3831,-136.0911 130.5131,-133.6025"/>
<polygon fill="#191970" stroke="#191970" points="46.8226,-199.1668 43.6788,-209.2845 52.4459,-203.3357 46.8226,-199.1668"/>
</g>
<!-- Node11 -->
<g id="node11" class="node">
<title>Node11</title>
<g id="a_node11"><a xlink:href="namespacefmempool.html#a57fc94a0bc6327960b500e38366e1eb7" target="_top" xlink:title="mp_acquire_int_2d">
<polygon fill="#ffffff" stroke="#000000" points="120,-76.5 120,-95.5 229,-95.5 229,-76.5 120,-76.5"/>
<text text-anchor="middle" x="174.5" y="-83.5" font-family="Helvetica,sans-Serif" font-size="10.00" fill="#000000">mp_acquire_int_2d</text>
</a>
</g>
</g>
<!-- Node1&#45;&gt;Node11 -->
<g id="edge10" class="edge">
<title>Node1&#45;&gt;Node11</title>
<path fill="none" stroke="#191970" d="M44.2618,-199.7796C54.8514,-174.3379 76.9418,-129.8118 110,-105 115.1351,-101.1459 121.0408,-98.0708 127.1491,-95.618"/>
<polygon fill="#191970" stroke="#191970" points="40.8781,-198.8163 40.4291,-209.4016 47.3812,-201.4067 40.8781,-198.8163"/>
</g>
<!-- Node12 -->
<g id="node12" class="node">
<title>Node12</title>
<g id="a_node12"><a xlink:href="namespacefmempool.html#a2556e29874a2d59184a969549c0103a2" target="_top" xlink:title="mp_acquire_int_3d">
<polygon fill="#ffffff" stroke="#000000" points="120,-38.5 120,-57.5 229,-57.5 229,-38.5 120,-38.5"/>
<text text-anchor="middle" x="174.5" y="-45.5" font-family="Helvetica,sans-Serif" font-size="10.00" fill="#000000">mp_acquire_int_3d</text>
</a>
</g>
</g>
<!-- Node1&#45;&gt;Node12 -->
<g id="edge11" class="edge">
<title>Node1&#45;&gt;Node12</title>
<path fill="none" stroke="#191970" d="M41.0778,-199.0662C48.7671,-166.5745 68.5077,-102.2879 110,-67 114.5352,-63.1429 119.8233,-60.0686 125.3843,-57.6182"/>
<polygon fill="#191970" stroke="#191970" points="37.5934,-198.6126 38.8447,-209.1332 44.4273,-200.1285 37.5934,-198.6126"/>
</g>
<!-- Node13 -->
<g id="node13" class="node">
<title>Node13</title>
<g id="a_node13"><a xlink:href="namespacefmempool.html#a7575c591016193d0bae59c1a9ecc5eb3" target="_top" xlink:title="mp_acquire_int_6d">
<polygon fill="#ffffff" stroke="#000000" points="120,-.5 120,-19.5 229,-19.5 229,-.5 120,-.5"/>
<text text-anchor="middle" x="174.5" y="-7.5" font-family="Helvetica,sans-Serif" font-size="10.00" fill="#000000">mp_acquire_int_6d</text>
</a>
</g>
</g>
<!-- Node1&#45;&gt;Node13 -->
<g id="edge12" class="edge">
<title>Node1&#45;&gt;Node13</title>
<path fill="none" stroke="#191970" d="M38.9105,-199.108C43.6837,-160.5763 59.6335,-75.4738 110,-29 114.2039,-25.121 119.1615,-22.0308 124.4304,-19.5697"/>
<polygon fill="#191970" stroke="#191970" points="35.3843,-199.1521 37.7622,-209.4766 42.3417,-199.9227 35.3843,-199.1521"/>
</g>
</g>
</svg>
