<?xml version="1.0" encoding="UTF-8" standalone="no"?>
<!DOCTYPE svg PUBLIC "-//W3C//DTD SVG 1.1//EN"
 "http://www.w3.org/Graphics/SVG/1.1/DTD/svg11.dtd">
<!-- Generated by graphviz version 2.40.1 (20161225.0304)
 -->
<!-- Title: compute_spline_2d_prdc_hrmt Pages: 1 -->
<!--zoomable 230 -->
<svg id="main" version="1.1" xmlns="http://www.w3.org/2000/svg" xmlns:xlink="http://www.w3.org/1999/xlink" xml:space="preserve" onload="init(evt)">
<style type="text/css"><![CDATA[
.edge:hover path { stroke: red; }
.edge:hover polygon { stroke: red; fill: red; }
]]></style>
<script type="text/javascript"><![CDATA[
var edges = document.getElementsByTagName('g');
if (edges && edges.length) {
  for (var i=0;i<edges.length;i++) {
    if (edges[i].id.substr(0,4)=='edge') {
      edges[i].setAttribute('class','edge');
    }
  }
}
]]></script>
        <defs>
                <circle id="rim" cx="0" cy="0" r="7"/>
                <circle id="rim2" cx="0" cy="0" r="3.5"/>
                <g id="zoomPlus">
                        <use xlink:href="#rim" fill="#404040">
                                <set attributeName="fill" to="#808080" begin="zoomplus.mouseover" end="zoomplus.mouseout"/>
                        </use>
                        <path d="M-4,0h8M0,-4v8" fill="none" stroke="white" stroke-width="1.5" pointer-events="none"/>
                </g>
                <g id="zoomMin">
                        <use xlink:href="#rim" fill="#404040">
                                <set attributeName="fill" to="#808080" begin="zoomminus.mouseover" end="zoomminus.mouseout"/>
                        </use>
                        <path d="M-4,0h8" fill="none" stroke="white" stroke-width="1.5" pointer-events="none"/>
                </g>
                <g id="dirArrow">
                        <path fill="none" stroke="white" stroke-width="1.5" d="M0,-3.0v7 M-2.5,-0.5L0,-3.0L2.5,-0.5"/>
                </g>
               <g id="resetDef">
                       <use xlink:href="#rim2" fill="#404040">
                               <set attributeName="fill" to="#808080" begin="reset.mouseover" end="reset.mouseout"/>
                       </use>
               </g>
        </defs>

<script type="text/javascript">
var viewWidth = 531;
var viewHeight = 230;
var sectionId = 'dynsection-11';
</script>
<script xlink:href="svgpan.js"/>
<svg id="graph" class="graph">
<g id="viewport">
<title>compute_spline_2d_prdc_hrmt</title>
<polygon fill="#ffffff" stroke="transparent" points="-4,4 -4,-226 527,-226 527,4 -4,4"/>
<!-- Node90 -->
<g id="node1" class="node">
<title>Node90</title>
<polygon fill="#bfbfbf" stroke="#000000" points="0,-101.5 0,-120.5 166,-120.5 166,-101.5 0,-101.5"/>
<text text-anchor="middle" x="83" y="-108.5" font-family="Helvetica,sans-Serif" font-size="10.00" fill="#000000">compute_spline_2d_prdc_hrmt</text>
</g>
<!-- Node91 -->
<g id="node2" class="node">
<title>Node91</title>
<g id="a_node2"><a xlink:href="namespacesll__m__cubic__splines.html#a0d1f3cee9f161c208e409c998ab66713" target="_top" xlink:title="Computes the spline coefficients for the given data. The coeffcients are first computed in the second...">
<polygon fill="#ffffff" stroke="#000000" points="202,-96 202,-126 342,-126 342,-96 202,-96"/>
<text text-anchor="start" x="210" y="-114" font-family="Helvetica,sans-Serif" font-size="10.00" fill="#000000">sll_s_cubic_spline</text>
<text text-anchor="middle" x="272" y="-103" font-family="Helvetica,sans-Serif" font-size="10.00" fill="#000000">_2d_compute_interpolant</text>
</a>
</g>
</g>
<!-- Node90&#45;&gt;Node91 -->
<g id="edge1" class="edge">
<title>Node90&#45;&gt;Node91</title>
<path fill="none" stroke="#191970" d="M176.2411,-111C184.8374,-111 193.4476,-111 201.7871,-111"/>
<polygon fill="#191970" stroke="#191970" points="176.1732,-107.5001 166.1732,-111 176.1732,-114.5001 176.1732,-107.5001"/>
</g>
<!-- Node92 -->
<g id="node3" class="node">
<title>Node92</title>
<g id="a_node3"><a xlink:href="namespacesll__m__fdistribu4d__dk.html#adf8cc4ba8aba42290c788f697de79f42" target="_top" xlink:title="sll_m_fdistribu4d_dk\l::sll_s_function_xy_from\l_rtheta">
<polygon fill="#ffffff" stroke="#000000" points="383,-180.5 383,-221.5 518,-221.5 518,-180.5 383,-180.5"/>
<text text-anchor="start" x="391" y="-209.5" font-family="Helvetica,sans-Serif" font-size="10.00" fill="#000000">sll_m_fdistribu4d_dk</text>
<text text-anchor="start" x="391" y="-198.5" font-family="Helvetica,sans-Serif" font-size="10.00" fill="#000000">::sll_s_function_xy_from</text>
<text text-anchor="middle" x="450.5" y="-187.5" font-family="Helvetica,sans-Serif" font-size="10.00" fill="#000000">_rtheta</text>
</a>
</g>
</g>
<!-- Node91&#45;&gt;Node92 -->
<g id="edge2" class="edge">
<title>Node91&#45;&gt;Node92</title>
<path fill="none" stroke="#191970" d="M305.4864,-131.3548C326.0671,-143.5106 353.1647,-158.8895 378,-171 384.6116,-174.224 391.6598,-177.4228 398.6662,-180.4634"/>
<polygon fill="#191970" stroke="#191970" points="307.19,-128.2958 296.8063,-126.191 303.6111,-134.3117 307.19,-128.2958"/>
</g>
<!-- Node93 -->
<g id="node4" class="node">
<title>Node93</title>
<g id="a_node4"><a xlink:href="namespacesll__m__cubic__spline__interpolator__2d.html#a10af8789e490412a3580fcd15040a9b6" target="_top" xlink:title="sll_m_cubic_spline\l_interpolator_2d::compute\l_interpolants_cs2d">
<polygon fill="#ffffff" stroke="#000000" points="378,-120.5 378,-161.5 523,-161.5 523,-120.5 378,-120.5"/>
<text text-anchor="start" x="386" y="-149.5" font-family="Helvetica,sans-Serif" font-size="10.00" fill="#000000">sll_m_cubic_spline</text>
<text text-anchor="start" x="386" y="-138.5" font-family="Helvetica,sans-Serif" font-size="10.00" fill="#000000">_interpolator_2d::compute</text>
<text text-anchor="middle" x="450.5" y="-127.5" font-family="Helvetica,sans-Serif" font-size="10.00" fill="#000000">_interpolants_cs2d</text>
</a>
</g>
</g>
<!-- Node91&#45;&gt;Node93 -->
<g id="edge3" class="edge">
<title>Node91&#45;&gt;Node93</title>
<path fill="none" stroke="#191970" d="M352.0158,-124.448C360.5786,-125.8872 369.2561,-127.3456 377.7283,-128.7695"/>
<polygon fill="#191970" stroke="#191970" points="352.4774,-120.9766 342.0356,-122.7707 351.3172,-127.8798 352.4774,-120.9766"/>
</g>
<!-- Node94 -->
<g id="node5" class="node">
<title>Node94</title>
<g id="a_node5"><a xlink:href="namespacesll__m__cubic__spline__interpolator__2d.html#a44c6e00989e48621fd373f2a8d0526fa" target="_top" xlink:title="sll_m_cubic_spline\l_interpolator_2d::spline\l_interpolate2d">
<polygon fill="#ffffff" stroke="#000000" points="385,-60.5 385,-101.5 516,-101.5 516,-60.5 385,-60.5"/>
<text text-anchor="start" x="393" y="-89.5" font-family="Helvetica,sans-Serif" font-size="10.00" fill="#000000">sll_m_cubic_spline</text>
<text text-anchor="start" x="393" y="-78.5" font-family="Helvetica,sans-Serif" font-size="10.00" fill="#000000">_interpolator_2d::spline</text>
<text text-anchor="middle" x="450.5" y="-67.5" font-family="Helvetica,sans-Serif" font-size="10.00" fill="#000000">_interpolate2d</text>
</a>
</g>
</g>
<!-- Node91&#45;&gt;Node94 -->
<g id="edge4" class="edge">
<title>Node91&#45;&gt;Node94</title>
<path fill="none" stroke="#191970" d="M352.0158,-97.552C362.9613,-95.7124 374.0941,-93.8413 384.7462,-92.0511"/>
<polygon fill="#191970" stroke="#191970" points="351.3172,-94.1202 342.0356,-99.2293 352.4774,-101.0234 351.3172,-94.1202"/>
</g>
<!-- Node95 -->
<g id="node6" class="node">
<title>Node95</title>
<g id="a_node6"><a xlink:href="namespacesll__m__cubic__spline__interpolator__2d.html#af3b769e5f47945e7de14ba1272defea0" target="_top" xlink:title="sll_m_cubic_spline\l_interpolator_2d::spline\l_interpolate2d_disp">
<polygon fill="#ffffff" stroke="#000000" points="385,-.5 385,-41.5 516,-41.5 516,-.5 385,-.5"/>
<text text-anchor="start" x="393" y="-29.5" font-family="Helvetica,sans-Serif" font-size="10.00" fill="#000000">sll_m_cubic_spline</text>
<text text-anchor="start" x="393" y="-18.5" font-family="Helvetica,sans-Serif" font-size="10.00" fill="#000000">_interpolator_2d::spline</text>
<text text-anchor="middle" x="450.5" y="-7.5" font-family="Helvetica,sans-Serif" font-size="10.00" fill="#000000">_interpolate2d_disp</text>
</a>
</g>
</g>
<!-- Node91&#45;&gt;Node95 -->
<g id="edge5" class="edge">
<title>Node91&#45;&gt;Node95</title>
<path fill="none" stroke="#191970" d="M305.4864,-90.6452C326.0671,-78.4894 353.1647,-63.1105 378,-51 384.6116,-47.776 391.6598,-44.5772 398.6662,-41.5366"/>
<polygon fill="#191970" stroke="#191970" points="303.6111,-87.6883 296.8063,-95.809 307.19,-93.7042 303.6111,-87.6883"/>
</g>
</g>
</svg>
        <g id="navigator" transform="translate(0 0)" fill="#404254">
                <rect fill="#f2f5e9" fill-opacity="0.5" stroke="#606060" stroke-width=".5" x="0" y="0" width="60" height="60"/>
                <use id="zoomplus" xlink:href="#zoomPlus" x="17" y="9" onmousedown="handleZoom(evt,'in')"/>
                <use id="zoomminus" xlink:href="#zoomMin" x="42" y="9" onmousedown="handleZoom(evt,'out')"/>
                <use id="reset" xlink:href="#resetDef" x="30" y="36" onmousedown="handleReset()"/>
                <g id="arrowUp" xlink:href="#dirArrow" transform="translate(30 24)" onmousedown="handlePan(0,-1)">
                  <use xlink:href="#rim" fill="#404040">
                        <set attributeName="fill" to="#808080" begin="arrowUp.mouseover" end="arrowUp.mouseout"/>
                  </use>
                  <path fill="none" stroke="white" stroke-width="1.5" d="M0,-3.0v7 M-2.5,-0.5L0,-3.0L2.5,-0.5"/>
                </g>
                <g id="arrowRight" xlink:href="#dirArrow" transform="rotate(90) translate(36 -43)" onmousedown="handlePan(1,0)">
                  <use xlink:href="#rim" fill="#404040">
                        <set attributeName="fill" to="#808080" begin="arrowRight.mouseover" end="arrowRight.mouseout"/>
                  </use>
                  <path fill="none" stroke="white" stroke-width="1.5" d="M0,-3.0v7 M-2.5,-0.5L0,-3.0L2.5,-0.5"/>
                </g>
                <g id="arrowDown" xlink:href="#dirArrow" transform="rotate(180) translate(-30 -48)" onmousedown="handlePan(0,1)">
                  <use xlink:href="#rim" fill="#404040">
                        <set attributeName="fill" to="#808080" begin="arrowDown.mouseover" end="arrowDown.mouseout"/>
                  </use>
                  <path fill="none" stroke="white" stroke-width="1.5" d="M0,-3.0v7 M-2.5,-0.5L0,-3.0L2.5,-0.5"/>
                </g>
                <g id="arrowLeft" xlink:href="#dirArrow" transform="rotate(270) translate(-36 17)" onmousedown="handlePan(-1,0)">
                  <use xlink:href="#rim" fill="#404040">
                        <set attributeName="fill" to="#808080" begin="arrowLeft.mouseover" end="arrowLeft.mouseout"/>
                  </use>
                  <path fill="none" stroke="white" stroke-width="1.5" d="M0,-3.0v7 M-2.5,-0.5L0,-3.0L2.5,-0.5"/>
                </g>
        </g>
        <svg viewBox="0 0 15 15" width="100%" height="30px" preserveAspectRatio="xMaxYMin meet">
         <g id="arrow_out" transform="scale(0.3 0.3)">
          <a xlink:href="namespacesll__m__cubic__splines_aee0b7670b3ea0984872ebfe5ddc01b27_icgraph_org.svg" target="_base">
           <rect id="button" ry="5" rx="5" y="6" x="6" height="38" width="38"
                fill="#f2f5e9" fill-opacity="0.5" stroke="#606060" stroke-width="1.0"/>
           <path id="arrow"
             d="M 11.500037,31.436501 C 11.940474,20.09759 22.043105,11.32322 32.158766,21.979434 L 37.068811,17.246167 C 37.068811,17.246167 37.088388,32 37.088388,32 L 22.160133,31.978069 C 22.160133,31.978069 26.997745,27.140456 26.997745,27.140456 C 18.528582,18.264221 13.291696,25.230495 11.500037,31.436501 z"
             style="fill:#404040;"/>
          </a>
         </g>
        </svg>
</svg>
