<?xml version="1.0" encoding="UTF-8" standalone="no"?>
<!DOCTYPE svg PUBLIC "-//W3C//DTD SVG 1.1//EN"
 "http://www.w3.org/Graphics/SVG/1.1/DTD/svg11.dtd">
<!-- Generated by graphviz version 2.40.1 (20161225.0304)
 -->
<!-- Title: sll_s_setup_cyclic_tridiag Pages: 1 -->
<svg width="1205pt" height="292pt"
 viewBox="0.00 0.00 1205.00 291.50" xmlns="http://www.w3.org/2000/svg" xmlns:xlink="http://www.w3.org/1999/xlink">
<g id="graph0" class="graph" transform="scale(1 1) rotate(0) translate(4 287.5)">
<title>sll_s_setup_cyclic_tridiag</title>
<polygon fill="#ffffff" stroke="transparent" points="-4,4 -4,-287.5 1201,-287.5 1201,4 -4,4"/>
<!-- Node1 -->
<g id="node1" class="node">
<title>Node1</title>
<polygon fill="#bfbfbf" stroke="#000000" points="0,-163 0,-193 104,-193 104,-163 0,-163"/>
<text text-anchor="start" x="8" y="-181" font-family="Helvetica,sans-Serif" font-size="10.00" fill="#000000">sll_s_setup_cyclic</text>
<text text-anchor="middle" x="52" y="-170" font-family="Helvetica,sans-Serif" font-size="10.00" fill="#000000">_tridiag</text>
</g>
<!-- Node2 -->
<g id="node2" class="node">
<title>Node2</title>
<g id="a_node2"><a xlink:href="namespacesll__m__cubic__non__uniform__splines.html#aefb9225983b59769f7adbf24dbdb47ff" target="_top" xlink:title="PLEASE ADD DOCUMENTATION. ">
<polygon fill="#ffffff" stroke="#000000" points="140,-217.5 140,-258.5 318,-258.5 318,-217.5 140,-217.5"/>
<text text-anchor="start" x="148" y="-246.5" font-family="Helvetica,sans-Serif" font-size="10.00" fill="#000000">sll_m_cubic_non_uniform</text>
<text text-anchor="start" x="148" y="-235.5" font-family="Helvetica,sans-Serif" font-size="10.00" fill="#000000">_splines::sll_s_setup</text>
<text text-anchor="middle" x="229" y="-224.5" font-family="Helvetica,sans-Serif" font-size="10.00" fill="#000000">_spline_nonunif_1d_periodic_aux</text>
</a>
</g>
</g>
<!-- Node1&#45;&gt;Node2 -->
<g id="edge1" class="edge">
<title>Node1&#45;&gt;Node2</title>
<path fill="none" stroke="#191970" d="M106.0078,-196.4444C117.2403,-200.2713 129.0043,-204.2725 140,-208 148.9566,-211.0362 158.4232,-214.2366 167.7089,-217.3708"/>
<polygon fill="#191970" stroke="#191970" points="106.9009,-193.0512 96.3064,-193.1376 104.6424,-199.6768 106.9009,-193.0512"/>
</g>
<!-- Node6 -->
<g id="node6" class="node">
<title>Node6</title>
<g id="a_node6"><a xlink:href="namespacesll__m__cubic__non__uniform__splines.html#a337ef4f96d615272c1fba3d8ae50a003" target="_top" xlink:title="sll_m_cubic_non_uniform\l_splines::setup_spline\l_nonunif_1d_hermite_aux">
<polygon fill="#ffffff" stroke="#000000" points="157.5,-157.5 157.5,-198.5 300.5,-198.5 300.5,-157.5 157.5,-157.5"/>
<text text-anchor="start" x="165.5" y="-186.5" font-family="Helvetica,sans-Serif" font-size="10.00" fill="#000000">sll_m_cubic_non_uniform</text>
<text text-anchor="start" x="165.5" y="-175.5" font-family="Helvetica,sans-Serif" font-size="10.00" fill="#000000">_splines::setup_spline</text>
<text text-anchor="middle" x="229" y="-164.5" font-family="Helvetica,sans-Serif" font-size="10.00" fill="#000000">_nonunif_1d_hermite_aux</text>
</a>
</g>
</g>
<!-- Node1&#45;&gt;Node6 -->
<g id="edge5" class="edge">
<title>Node1&#45;&gt;Node6</title>
<path fill="none" stroke="#191970" d="M114.5085,-178C128.3256,-178 143.0701,-178 157.2226,-178"/>
<polygon fill="#191970" stroke="#191970" points="114.1485,-174.5001 104.1485,-178 114.1485,-181.5001 114.1485,-174.5001"/>
</g>
<!-- Node7 -->
<g id="node7" class="node">
<title>Node7</title>
<g id="a_node7"><a xlink:href="namespacesll__m__cubic__splines.html#a35f9f53695f916944ed2f72a49531560" target="_top" xlink:title="Returns a pointer to a heap&#45;allocated cubic spline object. ">
<polygon fill="#ffffff" stroke="#000000" points="172.5,-85.5 172.5,-126.5 285.5,-126.5 285.5,-85.5 172.5,-85.5"/>
<text text-anchor="start" x="180.5" y="-114.5" font-family="Helvetica,sans-Serif" font-size="10.00" fill="#000000">sll_m_cubic_splines</text>
<text text-anchor="start" x="180.5" y="-103.5" font-family="Helvetica,sans-Serif" font-size="10.00" fill="#000000">::sll_s_cubic_spline</text>
<text text-anchor="middle" x="229" y="-92.5" font-family="Helvetica,sans-Serif" font-size="10.00" fill="#000000">_1d_init</text>
</a>
</g>
</g>
<!-- Node1&#45;&gt;Node7 -->
<g id="edge7" class="edge">
<title>Node1&#45;&gt;Node7</title>
<path fill="none" stroke="#191970" d="M98.5752,-159.0542C123.1639,-149.052 153.368,-136.7656 178.5158,-126.536"/>
<polygon fill="#191970" stroke="#191970" points="97.0491,-155.8964 89.105,-162.9064 99.6868,-162.3804 97.0491,-155.8964"/>
</g>
<!-- Node3 -->
<g id="node3" class="node">
<title>Node3</title>
<g id="a_node3"><a xlink:href="namespacesll__m__advection__1d__non__uniform__cubic__splines.html#a3764758795ef56e4229ab7dca94b1ef6" target="_top" xlink:title="sll_m_advection_1d\l_non_uniform_cubic_splines\l::initialize_sll_t_advector\l_1d_non_uniform_cubic_splines">
<polygon fill="#ffffff" stroke="#000000" points="354,-231 354,-283 525,-283 525,-231 354,-231"/>
<text text-anchor="start" x="362" y="-271" font-family="Helvetica,sans-Serif" font-size="10.00" fill="#000000">sll_m_advection_1d</text>
<text text-anchor="start" x="362" y="-260" font-family="Helvetica,sans-Serif" font-size="10.00" fill="#000000">_non_uniform_cubic_splines</text>
<text text-anchor="start" x="362" y="-249" font-family="Helvetica,sans-Serif" font-size="10.00" fill="#000000">::initialize_sll_t_advector</text>
<text text-anchor="middle" x="439.5" y="-238" font-family="Helvetica,sans-Serif" font-size="10.00" fill="#000000">_1d_non_uniform_cubic_splines</text>
</a>
</g>
</g>
<!-- Node2&#45;&gt;Node3 -->
<g id="edge2" class="edge">
<title>Node2&#45;&gt;Node3</title>
<path fill="none" stroke="#191970" d="M328.2495,-246.9584C336.7819,-247.7285 345.367,-248.5034 353.7796,-249.2628"/>
<polygon fill="#191970" stroke="#191970" points="328.5451,-243.4709 318.271,-246.0577 327.9158,-250.4426 328.5451,-243.4709"/>
</g>
<!-- Node5 -->
<g id="node5" class="node">
<title>Node5</title>
<g id="a_node5"><a xlink:href="namespacesll__m__cubic__non__uniform__splines.html#a0ca31c6377a98e37ce755d8bdd55517e" target="_top" xlink:title="compute splines coefficients ">
<polygon fill="#ffffff" stroke="#000000" points="369.5,-170.5 369.5,-211.5 509.5,-211.5 509.5,-170.5 369.5,-170.5"/>
<text text-anchor="start" x="377.5" y="-199.5" font-family="Helvetica,sans-Serif" font-size="10.00" fill="#000000">sll_m_cubic_non_uniform</text>
<text text-anchor="start" x="377.5" y="-188.5" font-family="Helvetica,sans-Serif" font-size="10.00" fill="#000000">_splines::sll_s_compute</text>
<text text-anchor="middle" x="439.5" y="-177.5" font-family="Helvetica,sans-Serif" font-size="10.00" fill="#000000">_spline_nonunif</text>
</a>
</g>
</g>
<!-- Node2&#45;&gt;Node5 -->
<g id="edge4" class="edge">
<title>Node2&#45;&gt;Node5</title>
<path fill="none" stroke="#191970" d="M328.3025,-215.8279C342.1313,-212.7403 356.0975,-209.6219 369.242,-206.6871"/>
<polygon fill="#191970" stroke="#191970" points="327.2679,-212.4727 318.271,-218.0678 328.7934,-219.3045 327.2679,-212.4727"/>
</g>
<!-- Node4 -->
<g id="node4" class="node">
<title>Node4</title>
<g id="a_node4"><a xlink:href="namespacesll__m__advection__1d__non__uniform__cubic__splines.html#acc49f9cb45ee80ca8099bf0d34200efd" target="_top" xlink:title="sll_m_advection_1d\l_non_uniform_cubic_splines\l::sll_f_new_advector_1d\l_non_uniform_cubic_splines">
<polygon fill="#ffffff" stroke="#000000" points="582,-231 582,-283 736,-283 736,-231 582,-231"/>
<text text-anchor="start" x="590" y="-271" font-family="Helvetica,sans-Serif" font-size="10.00" fill="#000000">sll_m_advection_1d</text>
<text text-anchor="start" x="590" y="-260" font-family="Helvetica,sans-Serif" font-size="10.00" fill="#000000">_non_uniform_cubic_splines</text>
<text text-anchor="start" x="590" y="-249" font-family="Helvetica,sans-Serif" font-size="10.00" fill="#000000">::sll_f_new_advector_1d</text>
<text text-anchor="middle" x="659" y="-238" font-family="Helvetica,sans-Serif" font-size="10.00" fill="#000000">_non_uniform_cubic_splines</text>
</a>
</g>
</g>
<!-- Node3&#45;&gt;Node4 -->
<g id="edge3" class="edge">
<title>Node3&#45;&gt;Node4</title>
<path fill="none" stroke="#191970" d="M535.4347,-257C550.9478,-257 566.8351,-257 581.8302,-257"/>
<polygon fill="#191970" stroke="#191970" points="535.3075,-253.5001 525.3075,-257 535.3075,-260.5001 535.3075,-253.5001"/>
</g>
<!-- Node6&#45;&gt;Node5 -->
<g id="edge6" class="edge">
<title>Node6&#45;&gt;Node5</title>
<path fill="none" stroke="#191970" d="M310.564,-183.0372C329.9206,-184.2326 350.4045,-185.4977 369.2088,-186.659"/>
<polygon fill="#191970" stroke="#191970" points="310.7562,-179.5425 300.5594,-182.4193 310.3246,-186.5292 310.7562,-179.5425"/>
</g>
<!-- Node8 -->
<g id="node8" class="node">
<title>Node8</title>
<g id="a_node8"><a xlink:href="namespacesll__m__fdistribu4d__dk.html#ad019b52770477f636c8115bc5ad20475" target="_top" xlink:title="sll_m_fdistribu4d_dk\l::function_xy_from_r">
<polygon fill="#ffffff" stroke="#000000" points="380.5,-121 380.5,-151 498.5,-151 498.5,-121 380.5,-121"/>
<text text-anchor="start" x="388.5" y="-139" font-family="Helvetica,sans-Serif" font-size="10.00" fill="#000000">sll_m_fdistribu4d_dk</text>
<text text-anchor="middle" x="439.5" y="-128" font-family="Helvetica,sans-Serif" font-size="10.00" fill="#000000">::function_xy_from_r</text>
</a>
</g>
</g>
<!-- Node7&#45;&gt;Node8 -->
<g id="edge8" class="edge">
<title>Node7&#45;&gt;Node8</title>
<path fill="none" stroke="#191970" d="M295.8473,-115.5269C322.9058,-119.3833 353.8889,-123.7989 380.1373,-127.5398"/>
<polygon fill="#191970" stroke="#191970" points="296.0809,-112.0249 285.687,-114.0789 295.0932,-118.9549 296.0809,-112.0249"/>
</g>
<!-- Node9 -->
<g id="node9" class="node">
<title>Node9</title>
<g id="a_node9"><a xlink:href="namespacesll__m__cubic__spline__interpolator__1d.html#ab4aeb5dca8bc5be6fb404ac5e1ae7365" target="_top" xlink:title="initialize cubic spline interpolator ">
<polygon fill="#ffffff" stroke="#000000" points="367.5,-60.5 367.5,-101.5 511.5,-101.5 511.5,-60.5 367.5,-60.5"/>
<text text-anchor="start" x="375.5" y="-89.5" font-family="Helvetica,sans-Serif" font-size="10.00" fill="#000000">sll_m_cubic_spline</text>
<text text-anchor="start" x="375.5" y="-78.5" font-family="Helvetica,sans-Serif" font-size="10.00" fill="#000000">_interpolator_1d::initialize</text>
<text text-anchor="middle" x="439.5" y="-67.5" font-family="Helvetica,sans-Serif" font-size="10.00" fill="#000000">_cs1d_interpolator</text>
</a>
</g>
</g>
<!-- Node7&#45;&gt;Node9 -->
<g id="edge9" class="edge">
<title>Node7&#45;&gt;Node9</title>
<path fill="none" stroke="#191970" d="M295.9129,-98.0531C318.6318,-95.3549 344.1113,-92.3288 367.2293,-89.5832"/>
<polygon fill="#191970" stroke="#191970" points="295.2044,-94.6126 285.687,-99.2676 296.0301,-101.5637 295.2044,-94.6126"/>
</g>
<!-- Node13 -->
<g id="node13" class="node">
<title>Node13</title>
<g id="a_node13"><a xlink:href="namespacesll__m__cubic__spline__interpolator__1d__nonuniform.html#a949072be71d85ad42efeb69878a0fc14" target="_top" xlink:title="initialize cubic spline interpolator ">
<polygon fill="#ffffff" stroke="#000000" points="359,-.5 359,-41.5 520,-41.5 520,-.5 359,-.5"/>
<text text-anchor="start" x="367" y="-29.5" font-family="Helvetica,sans-Serif" font-size="10.00" fill="#000000">sll_m_cubic_spline</text>
<text text-anchor="start" x="367" y="-18.5" font-family="Helvetica,sans-Serif" font-size="10.00" fill="#000000">_interpolator_1d_nonuniform</text>
<text text-anchor="middle" x="439.5" y="-7.5" font-family="Helvetica,sans-Serif" font-size="10.00" fill="#000000">::initialize_cs1d_interpolator2</text>
</a>
</g>
</g>
<!-- Node7&#45;&gt;Node13 -->
<g id="edge13" class="edge">
<title>Node7&#45;&gt;Node13</title>
<path fill="none" stroke="#191970" d="M282.6466,-81.3114C304.6045,-71.4907 330.3619,-60.3314 354,-51 362.0477,-47.8231 370.5839,-44.6265 379.0272,-41.5654"/>
<polygon fill="#191970" stroke="#191970" points="281.172,-78.1369 273.486,-85.4291 284.0419,-84.5216 281.172,-78.1369"/>
</g>
<!-- Node10 -->
<g id="node10" class="node">
<title>Node10</title>
<g id="a_node10"><a xlink:href="namespacesll__m__cubic__spline__interpolator__1d.html#ad719154e2d5d34641021bab462fbe00f" target="_top" xlink:title="PLEASE ADD DOCUMENTATION. ">
<polygon fill="#ffffff" stroke="#000000" points="561,-60.5 561,-101.5 757,-101.5 757,-60.5 561,-60.5"/>
<text text-anchor="start" x="569" y="-89.5" font-family="Helvetica,sans-Serif" font-size="10.00" fill="#000000">sll_m_cubic_spline</text>
<text text-anchor="start" x="569" y="-78.5" font-family="Helvetica,sans-Serif" font-size="10.00" fill="#000000">_interpolator_1d::sll</text>
<text text-anchor="middle" x="659" y="-67.5" font-family="Helvetica,sans-Serif" font-size="10.00" fill="#000000">_f_new_cubic_spline_interpolator_1d</text>
</a>
</g>
</g>
<!-- Node9&#45;&gt;Node10 -->
<g id="edge10" class="edge">
<title>Node9&#45;&gt;Node10</title>
<path fill="none" stroke="#191970" d="M521.7818,-81C534.5416,-81 547.8309,-81 560.8974,-81"/>
<polygon fill="#191970" stroke="#191970" points="521.6766,-77.5001 511.6765,-81 521.6765,-84.5001 521.6766,-77.5001"/>
</g>
<!-- Node11 -->
<g id="node11" class="node">
<title>Node11</title>
<g id="a_node11"><a xlink:href="namespacesll__m__poisson__2d__mudpack__curvilinear.html#aafe1b9a1d79ddc7a217d3a14a73c418d" target="_top" xlink:title="sll_m_poisson_2d_mudpack\l_curvilinear::initialize\l_poisson_2d_mudpack_curvilinear">
<polygon fill="#ffffff" stroke="#000000" points="793,-60.5 793,-101.5 977,-101.5 977,-60.5 793,-60.5"/>
<text text-anchor="start" x="801" y="-89.5" font-family="Helvetica,sans-Serif" font-size="10.00" fill="#000000">sll_m_poisson_2d_mudpack</text>
<text text-anchor="start" x="801" y="-78.5" font-family="Helvetica,sans-Serif" font-size="10.00" fill="#000000">_curvilinear::initialize</text>
<text text-anchor="middle" x="885" y="-67.5" font-family="Helvetica,sans-Serif" font-size="10.00" fill="#000000">_poisson_2d_mudpack_curvilinear</text>
</a>
</g>
</g>
<!-- Node10&#45;&gt;Node11 -->
<g id="edge11" class="edge">
<title>Node10&#45;&gt;Node11</title>
<path fill="none" stroke="#191970" d="M767.4102,-81C775.8535,-81 784.331,-81 792.6537,-81"/>
<polygon fill="#191970" stroke="#191970" points="767.1409,-77.5001 757.1409,-81 767.1409,-84.5001 767.1409,-77.5001"/>
</g>
<!-- Node12 -->
<g id="node12" class="node">
<title>Node12</title>
<g id="a_node12"><a xlink:href="namespacesll__m__poisson__2d__mudpack__curvilinear.html#a030b51f0e3782ea9c0e5dc2c0c27f035" target="_top" xlink:title="PLEASE ADD DOCUMENTATION. ">
<polygon fill="#ffffff" stroke="#000000" points="1013,-60.5 1013,-101.5 1197,-101.5 1197,-60.5 1013,-60.5"/>
<text text-anchor="start" x="1021" y="-89.5" font-family="Helvetica,sans-Serif" font-size="10.00" fill="#000000">sll_m_poisson_2d_mudpack</text>
<text text-anchor="start" x="1021" y="-78.5" font-family="Helvetica,sans-Serif" font-size="10.00" fill="#000000">_curvilinear::sll_f_new</text>
<text text-anchor="middle" x="1105" y="-67.5" font-family="Helvetica,sans-Serif" font-size="10.00" fill="#000000">_poisson_2d_mudpack_curvilinear</text>
</a>
</g>
</g>
<!-- Node11&#45;&gt;Node12 -->
<g id="edge12" class="edge">
<title>Node11&#45;&gt;Node12</title>
<path fill="none" stroke="#191970" d="M987.1148,-81C995.746,-81 1004.4424,-81 1012.9898,-81"/>
<polygon fill="#191970" stroke="#191970" points="987.0251,-77.5001 977.0251,-81 987.0251,-84.5001 987.0251,-77.5001"/>
</g>
</g>
</svg>
