<?xml version="1.0" encoding="UTF-8" standalone="no"?>
<!DOCTYPE svg PUBLIC "-//W3C//DTD SVG 1.1//EN"
 "http://www.w3.org/Graphics/SVG/1.1/DTD/svg11.dtd">
<!-- Generated by graphviz version 2.40.1 (20161225.0304)
 -->
<!-- Title: sll_s_lagrange_interpolation_1d_fast_disp_fixed_periodic Pages: 1 -->
<svg width="402pt" height="218pt"
 viewBox="0.00 0.00 402.00 218.00" xmlns="http://www.w3.org/2000/svg" xmlns:xlink="http://www.w3.org/1999/xlink">
<g id="graph0" class="graph" transform="scale(1 1) rotate(0) translate(4 214)">
<title>sll_s_lagrange_interpolation_1d_fast_disp_fixed_periodic</title>
<polygon fill="#ffffff" stroke="transparent" points="-4,4 -4,-214 398,-214 398,4 -4,4"/>
<!-- Node201 -->
<g id="node1" class="node">
<title>Node201</title>
<polygon fill="#bfbfbf" stroke="#000000" points="0,-90 0,-120 157,-120 157,-90 0,-90"/>
<text text-anchor="start" x="8" y="-108" font-family="Helvetica,sans-Serif" font-size="10.00" fill="#000000">sll_s_lagrange_interpolation</text>
<text text-anchor="middle" x="78.5" y="-97" font-family="Helvetica,sans-Serif" font-size="10.00" fill="#000000">_1d_fast_disp_fixed_periodic</text>
</g>
<!-- Node202 -->
<g id="node2" class="node">
<title>Node202</title>
<g id="a_node2"><a xlink:href="namespacesll__m__lagrange__interpolation__1d__fast.html#ad10a61e87a296da837942a437cdde514" target="_top" xlink:title="single point 7&#45;pt&#45;lagrange interpolation ">
<polygon fill="#ffffff" stroke="#000000" points="204.5,-190.5 204.5,-209.5 260.5,-209.5 260.5,-190.5 204.5,-190.5"/>
<text text-anchor="middle" x="232.5" y="-197.5" font-family="Helvetica,sans-Serif" font-size="10.00" fill="#000000">lagr_7pt</text>
</a>
</g>
</g>
<!-- Node201&#45;&gt;Node202 -->
<g id="edge1" class="edge">
<title>Node201&#45;&gt;Node202</title>
<path fill="none" stroke="#191970" d="M99.47,-120.1898C122.0196,-136.2185 159.1958,-161.7721 193,-181 195.9104,-182.6554 198.9872,-184.3031 202.0873,-185.8968"/>
<polygon fill="#191970" stroke="#191970" points="200.7998,-189.1649 211.314,-190.4695 203.9082,-182.8929 200.7998,-189.1649"/>
</g>
<!-- Node204 -->
<g id="node4" class="node">
<title>Node204</title>
<g id="a_node4"><a xlink:href="namespacesll__m__lagrange__interpolation__1d__fast.html#a38850d93ae2179b4e266f6575bc8466d" target="_top" xlink:title="vectorizable 7&#45;pt&#45;lagrange interpolation ">
<polygon fill="#ffffff" stroke="#000000" points="193,-152.5 193,-171.5 272,-171.5 272,-152.5 193,-152.5"/>
<text text-anchor="middle" x="232.5" y="-159.5" font-family="Helvetica,sans-Serif" font-size="10.00" fill="#000000">lagr_7pt_vec</text>
</a>
</g>
</g>
<!-- Node201&#45;&gt;Node204 -->
<g id="edge3" class="edge">
<title>Node201&#45;&gt;Node204</title>
<path fill="none" stroke="#191970" d="M119.3649,-120.1253C143.5354,-129.0715 173.8494,-140.2917 197.0135,-148.8654"/>
<polygon fill="#191970" stroke="#191970" points="195.8713,-152.1746 206.4645,-152.3635 198.3012,-145.6099 195.8713,-152.1746"/>
</g>
<!-- Node205 -->
<g id="node5" class="node">
<title>Node205</title>
<g id="a_node5"><a xlink:href="namespacesll__m__lagrange__interpolation__1d__fast.html#a8f57c8a0a159c9359ef2974b76fc3bcc" target="_top" xlink:title="single point 5&#45;pt&#45;lagrange interpolation ">
<polygon fill="#ffffff" stroke="#000000" points="204.5,-114.5 204.5,-133.5 260.5,-133.5 260.5,-114.5 204.5,-114.5"/>
<text text-anchor="middle" x="232.5" y="-121.5" font-family="Helvetica,sans-Serif" font-size="10.00" fill="#000000">lagr_5pt</text>
</a>
</g>
</g>
<!-- Node201&#45;&gt;Node205 -->
<g id="edge5" class="edge">
<title>Node201&#45;&gt;Node205</title>
<path fill="none" stroke="#191970" d="M157.3045,-114.7226C170.2226,-116.3164 183.0728,-117.9018 194.3999,-119.2993"/>
<polygon fill="#191970" stroke="#191970" points="193.9791,-122.7739 204.3324,-120.5248 194.8363,-115.8265 193.9791,-122.7739"/>
</g>
<!-- Node207 -->
<g id="node7" class="node">
<title>Node207</title>
<g id="a_node7"><a xlink:href="namespacesll__m__lagrange__interpolation__1d__fast.html#a5c89c5598c3666fd9bbcb2dbe2e25c3d" target="_top" xlink:title="vectorizable 5&#45;pt&#45;lagrange interpolation ">
<polygon fill="#ffffff" stroke="#000000" points="193,-76.5 193,-95.5 272,-95.5 272,-76.5 193,-76.5"/>
<text text-anchor="middle" x="232.5" y="-83.5" font-family="Helvetica,sans-Serif" font-size="10.00" fill="#000000">lagr_5pt_vec</text>
</a>
</g>
</g>
<!-- Node201&#45;&gt;Node207 -->
<g id="edge7" class="edge">
<title>Node201&#45;&gt;Node207</title>
<path fill="none" stroke="#191970" d="M157.3045,-95.2774C165.942,-94.2117 174.5492,-93.1498 182.691,-92.1453"/>
<polygon fill="#191970" stroke="#191970" points="183.2261,-95.6059 192.7223,-90.9076 182.3689,-88.6585 183.2261,-95.6059"/>
</g>
<!-- Node208 -->
<g id="node8" class="node">
<title>Node208</title>
<g id="a_node8"><a xlink:href="namespacesll__m__lagrange__interpolation__1d__fast.html#a3524e6617d31a9fde13312b8c6334cd2" target="_top" xlink:title="single point 3&#45;pt&#45;lagrange interpolation ">
<polygon fill="#ffffff" stroke="#000000" points="204.5,-38.5 204.5,-57.5 260.5,-57.5 260.5,-38.5 204.5,-38.5"/>
<text text-anchor="middle" x="232.5" y="-45.5" font-family="Helvetica,sans-Serif" font-size="10.00" fill="#000000">lagr_3pt</text>
</a>
</g>
</g>
<!-- Node201&#45;&gt;Node208 -->
<g id="edge9" class="edge">
<title>Node201&#45;&gt;Node208</title>
<path fill="none" stroke="#191970" d="M119.3649,-89.8747C143.5354,-80.9285 173.8494,-69.7083 197.0135,-61.1346"/>
<polygon fill="#191970" stroke="#191970" points="198.3012,-64.3901 206.4645,-57.6365 195.8713,-57.8254 198.3012,-64.3901"/>
</g>
<!-- Node210 -->
<g id="node10" class="node">
<title>Node210</title>
<g id="a_node10"><a xlink:href="namespacesll__m__lagrange__interpolation__1d__fast.html#af67f2e9f7ba458f70ca621609dc85f2a" target="_top" xlink:title="vectorizable 3&#45;pt&#45;lagrange interpolation ">
<polygon fill="#ffffff" stroke="#000000" points="193,-.5 193,-19.5 272,-19.5 272,-.5 193,-.5"/>
<text text-anchor="middle" x="232.5" y="-7.5" font-family="Helvetica,sans-Serif" font-size="10.00" fill="#000000">lagr_3pt_vec</text>
</a>
</g>
</g>
<!-- Node201&#45;&gt;Node210 -->
<g id="edge11" class="edge">
<title>Node201&#45;&gt;Node210</title>
<path fill="none" stroke="#191970" d="M99.47,-89.8102C122.0196,-73.7815 159.1958,-48.2279 193,-29 195.9104,-27.3446 198.9872,-25.6969 202.0873,-24.1032"/>
<polygon fill="#191970" stroke="#191970" points="203.9082,-27.1071 211.314,-19.5305 200.7998,-20.8351 203.9082,-27.1071"/>
</g>
<!-- Node203 -->
<g id="node3" class="node">
<title>Node203</title>
<g id="a_node3"><a xlink:href="namespacesll__m__lagrange__interpolation__1d__fast.html#af3b942f0b580f0f23550adc011dae2c7" target="_top" xlink:title="Compute coefficients for Lagrange interpolation for normalized displacement p. ">
<polygon fill="#ffffff" stroke="#000000" points="308,-161.5 308,-180.5 394,-180.5 394,-161.5 308,-161.5"/>
<text text-anchor="middle" x="351" y="-168.5" font-family="Helvetica,sans-Serif" font-size="10.00" fill="#000000">lagr_7pt_coeff</text>
</a>
</g>
</g>
<!-- Node202&#45;&gt;Node203 -->
<g id="edge2" class="edge">
<title>Node202&#45;&gt;Node203</title>
<path fill="none" stroke="#191970" d="M260.5828,-193.1274C272.9194,-190.1083 287.7761,-186.4725 301.8494,-183.0284"/>
<polygon fill="#191970" stroke="#191970" points="303.03,-186.3429 311.9113,-180.566 301.366,-179.5435 303.03,-186.3429"/>
</g>
<!-- Node204&#45;&gt;Node203 -->
<g id="edge4" class="edge">
<title>Node204&#45;&gt;Node203</title>
<path fill="none" stroke="#191970" d="M272.2884,-165.0219C280.504,-165.6459 289.2811,-166.3125 297.8839,-166.9659"/>
<polygon fill="#191970" stroke="#191970" points="297.6223,-170.456 307.8587,-167.7234 298.1525,-163.4761 297.6223,-170.456"/>
</g>
<!-- Node206 -->
<g id="node6" class="node">
<title>Node206</title>
<g id="a_node6"><a xlink:href="namespacesll__m__lagrange__interpolation__1d__fast.html#a45a03155cc8d6b00776985891e5e96ae" target="_top" xlink:title="Compute coefficients for Lagrange interpolation for normalized displacement p. ">
<polygon fill="#ffffff" stroke="#000000" points="308,-104.5 308,-123.5 394,-123.5 394,-104.5 308,-104.5"/>
<text text-anchor="middle" x="351" y="-111.5" font-family="Helvetica,sans-Serif" font-size="10.00" fill="#000000">lagr_5pt_coeff</text>
</a>
</g>
</g>
<!-- Node205&#45;&gt;Node206 -->
<g id="edge6" class="edge">
<title>Node205&#45;&gt;Node206</title>
<path fill="none" stroke="#191970" d="M260.5828,-121.6301C271.7078,-120.6913 284.8821,-119.5796 297.6833,-118.4993"/>
<polygon fill="#191970" stroke="#191970" points="298.153,-121.9722 307.8233,-117.6436 297.5644,-114.997 298.153,-121.9722"/>
</g>
<!-- Node207&#45;&gt;Node206 -->
<g id="edge8" class="edge">
<title>Node207&#45;&gt;Node206</title>
<path fill="none" stroke="#191970" d="M272.2884,-95.4015C281.4705,-97.5711 291.3541,-99.9065 300.9118,-102.1648"/>
<polygon fill="#191970" stroke="#191970" points="300.1739,-105.5868 310.7108,-104.4802 301.7836,-98.7744 300.1739,-105.5868"/>
</g>
<!-- Node209 -->
<g id="node9" class="node">
<title>Node209</title>
<g id="a_node9"><a xlink:href="namespacesll__m__lagrange__interpolation__1d__fast.html#ad26205c5e463fb6c101b119714b24317" target="_top" xlink:title="Compute coefficients for Lagrange interpolation for normalized displacement p. ">
<polygon fill="#ffffff" stroke="#000000" points="308,-19.5 308,-38.5 394,-38.5 394,-19.5 308,-19.5"/>
<text text-anchor="middle" x="351" y="-26.5" font-family="Helvetica,sans-Serif" font-size="10.00" fill="#000000">lagr_3pt_coeff</text>
</a>
</g>
</g>
<!-- Node208&#45;&gt;Node209 -->
<g id="edge10" class="edge">
<title>Node208&#45;&gt;Node209</title>
<path fill="none" stroke="#191970" d="M260.5828,-43.4973C271.7078,-41.7135 284.8821,-39.6012 297.6833,-37.5487"/>
<polygon fill="#191970" stroke="#191970" points="298.5035,-40.9619 307.8233,-35.9228 297.3953,-34.0502 298.5035,-40.9619"/>
</g>
<!-- Node210&#45;&gt;Node209 -->
<g id="edge12" class="edge">
<title>Node210&#45;&gt;Node209</title>
<path fill="none" stroke="#191970" d="M272.2884,-16.3796C280.504,-17.6968 289.2811,-19.1041 297.8839,-20.4835"/>
<polygon fill="#191970" stroke="#191970" points="297.4306,-23.9554 307.8587,-22.0828 298.5389,-17.0437 297.4306,-23.9554"/>
</g>
</g>
</svg>
