<?xml version="1.0" encoding="UTF-8" standalone="no"?>
<!DOCTYPE svg PUBLIC "-//W3C//DTD SVG 1.1//EN"
 "http://www.w3.org/Graphics/SVG/1.1/DTD/svg11.dtd">
<!-- Generated by graphviz version 2.40.1 (20161225.0304)
 -->
<!-- Title: add_particle_mass_spline_3d_feec Pages: 1 -->
<svg width="322pt" height="104pt"
 viewBox="0.00 0.00 322.00 104.00" xmlns="http://www.w3.org/2000/svg" xmlns:xlink="http://www.w3.org/1999/xlink">
<g id="graph0" class="graph" transform="scale(1 1) rotate(0) translate(4 100)">
<title>add_particle_mass_spline_3d_feec</title>
<polygon fill="#ffffff" stroke="transparent" points="-4,4 -4,-100 318,-100 318,4 -4,4"/>
<!-- Node92 -->
<g id="node1" class="node">
<title>Node92</title>
<polygon fill="#bfbfbf" stroke="#000000" points="0,-33 0,-63 143,-63 143,-33 0,-33"/>
<text text-anchor="start" x="8" y="-51" font-family="Helvetica,sans-Serif" font-size="10.00" fill="#000000">add_particle_mass_spline</text>
<text text-anchor="middle" x="71.5" y="-40" font-family="Helvetica,sans-Serif" font-size="10.00" fill="#000000">_3d_feec</text>
</g>
<!-- Node93 -->
<g id="node2" class="node">
<title>Node93</title>
<g id="a_node2"><a xlink:href="namespacesll__m__particle__mesh__coupling__spline__3d__feec.html#a39a81ff368618dfab16433c68acc90ee" target="_top" xlink:title="Identify the box in which the particle is located and its normalized position within the box...">
<polygon fill="#ffffff" stroke="#000000" points="192,-76.5 192,-95.5 301,-95.5 301,-76.5 192,-76.5"/>
<text text-anchor="middle" x="246.5" y="-83.5" font-family="Helvetica,sans-Serif" font-size="10.00" fill="#000000">convert_x_to_xbox</text>
</a>
</g>
</g>
<!-- Node92&#45;&gt;Node93 -->
<g id="edge1" class="edge">
<title>Node92&#45;&gt;Node93</title>
<path fill="none" stroke="#191970" d="M140.6646,-63.0186C157.9914,-66.781 176.3224,-70.7614 192.7723,-74.3334"/>
<polygon fill="#191970" stroke="#191970" points="192.2308,-77.7973 202.7457,-76.4991 193.7162,-70.9567 192.2308,-77.7973"/>
</g>
<!-- Node94 -->
<g id="node3" class="node">
<title>Node94</title>
<g id="a_node3"><a xlink:href="namespacesll__m__particle__mesh__coupling__spline__3d__feec.html#abfee33f2a32f4155838f54794a32b78b" target="_top" xlink:title="Sets the index of the splines that are involved in computations that concern splines from index box...">
<polygon fill="#ffffff" stroke="#000000" points="213,-38.5 213,-57.5 280,-57.5 280,-38.5 213,-38.5"/>
<text text-anchor="middle" x="246.5" y="-45.5" font-family="Helvetica,sans-Serif" font-size="10.00" fill="#000000">box_index</text>
</a>
</g>
</g>
<!-- Node92&#45;&gt;Node94 -->
<g id="edge2" class="edge">
<title>Node92&#45;&gt;Node94</title>
<path fill="none" stroke="#191970" d="M143.1841,-48C163.384,-48 184.7471,-48 202.7722,-48"/>
<polygon fill="#191970" stroke="#191970" points="202.9653,-51.5001 212.9653,-48 202.9653,-44.5001 202.9653,-51.5001"/>
</g>
<!-- Node95 -->
<g id="node4" class="node">
<title>Node95</title>
<g id="a_node4"><a xlink:href="namespacesll__m__particle__mesh__coupling__spline__3d__feec.html#af155e911078ed9972cca6201549a8048" target="_top" xlink:title="Convert 3d index to 1d index (first dimension without stride) ">
<polygon fill="#ffffff" stroke="#000000" points="179,-.5 179,-19.5 314,-19.5 314,-.5 179,-.5"/>
<text text-anchor="middle" x="246.5" y="-7.5" font-family="Helvetica,sans-Serif" font-size="10.00" fill="#000000">convert_index_3d_to_1d</text>
</a>
</g>
</g>
<!-- Node92&#45;&gt;Node95 -->
<g id="edge3" class="edge">
<title>Node92&#45;&gt;Node95</title>
<path fill="none" stroke="#191970" d="M140.6646,-32.9814C157.9914,-29.219 176.3224,-25.2386 192.7723,-21.6666"/>
<polygon fill="#191970" stroke="#191970" points="193.7162,-25.0433 202.7457,-19.5009 192.2308,-18.2027 193.7162,-25.0433"/>
</g>
</g>
</svg>
