<?xml version="1.0" encoding="UTF-8" standalone="no"?>
<!DOCTYPE svg PUBLIC "-//W3C//DTD SVG 1.1//EN"
 "http://www.w3.org/Graphics/SVG/1.1/DTD/svg11.dtd">
<!-- Generated by graphviz version 2.38.0 (20140413.2041)
 -->
<!-- Title: sll_f_new_dg_field_2d Pages: 1 -->
<svg width="563pt" height="148pt"
 viewBox="0.00 0.00 563.00 148.00" xmlns="http://www.w3.org/2000/svg" xmlns:xlink="http://www.w3.org/1999/xlink">
<g id="graph0" class="graph" transform="scale(1 1) rotate(0) translate(4 144)">
<title>sll_f_new_dg_field_2d</title>
<polygon fill="white" stroke="none" points="-4,4 -4,-144 559,-144 559,4 -4,4"/>
<!-- Node1 -->
<g id="node1" class="node"><title>Node1</title>
<polygon fill="#bfbfbf" stroke="black" points="0,-49.5 0,-68.5 113,-68.5 113,-49.5 0,-49.5"/>
<text text-anchor="middle" x="56.5" y="-56.5" font-family="Helvetica,sans-Serif" font-size="10.00">sll_f_new_dg_field_2d</text>
</g>
<!-- Node2 -->
<g id="node2" class="node"><title>Node2</title>
<g id="a_node2"><a xlink:href="namespacesll__m__gauss__lobatto__integration.html#a43443dd7dd80f1289d964b572cd6ee2c" target="_top" xlink:title="Returns a 1d array of size (n) containing gauss&#45;lobatto points in the interval [a,b]. ">
<polygon fill="white" stroke="black" points="153,-98.5 153,-139.5 267,-139.5 267,-98.5 153,-98.5"/>
<text text-anchor="start" x="161" y="-127.5" font-family="Helvetica,sans-Serif" font-size="10.00">sll_m_gauss_lobatto</text>
<text text-anchor="start" x="161" y="-116.5" font-family="Helvetica,sans-Serif" font-size="10.00">_integration::sll_f</text>
<text text-anchor="middle" x="210" y="-105.5" font-family="Helvetica,sans-Serif" font-size="10.00">_gauss_lobatto_points</text>
</a>
</g>
</g>
<!-- Node1&#45;&gt;Node2 -->
<g id="edge1" class="edge"><title>Node1&#45;&gt;Node2</title>
<path fill="none" stroke="midnightblue" d="M81.5056,-68.5072C99.3253,-75.5645 124.463,-85.52 147.713,-94.7278"/>
<polygon fill="midnightblue" stroke="midnightblue" points="146.605,-98.0534 157.191,-98.4816 149.182,-91.5453 146.605,-98.0534"/>
</g>
<!-- Node5 -->
<g id="node5" class="node"><title>Node5</title>
<g id="a_node5"><a xlink:href="namespacesll__m__gauss__lobatto__integration.html#ab2dd3e9cafb094226c63f629745b0654" target="_top" xlink:title="Returns a 1d array of size (n) containing gauss&#45;lobatto weights in the interval [a,b]. ">
<polygon fill="white" stroke="black" points="149,-38.5 149,-79.5 271,-79.5 271,-38.5 149,-38.5"/>
<text text-anchor="start" x="157" y="-67.5" font-family="Helvetica,sans-Serif" font-size="10.00">sll_m_gauss_lobatto</text>
<text text-anchor="start" x="157" y="-56.5" font-family="Helvetica,sans-Serif" font-size="10.00">_integration::sll_f</text>
<text text-anchor="middle" x="210" y="-45.5" font-family="Helvetica,sans-Serif" font-size="10.00">_gauss_lobatto_weights</text>
</a>
</g>
</g>
<!-- Node1&#45;&gt;Node5 -->
<g id="edge4" class="edge"><title>Node1&#45;&gt;Node5</title>
<path fill="none" stroke="midnightblue" d="M113.053,-59C121.429,-59 130.161,-59 138.796,-59"/>
<polygon fill="midnightblue" stroke="midnightblue" points="138.861,-62.5001 148.861,-59 138.861,-55.5001 138.861,-62.5001"/>
</g>
<!-- Node6 -->
<g id="node6" class="node"><title>Node6</title>
<g id="a_node6"><a xlink:href="namespacesll__m__dg__fields.html#ac58a04f8b3973e610bedff7f58924085" target="_top" xlink:title="set_value_dg_field_2d">
<polygon fill="white" stroke="black" points="153.5,-0.5 153.5,-19.5 266.5,-19.5 266.5,-0.5 153.5,-0.5"/>
<text text-anchor="middle" x="210" y="-7.5" font-family="Helvetica,sans-Serif" font-size="10.00">set_value_dg_field_2d</text>
</a>
</g>
</g>
<!-- Node1&#45;&gt;Node6 -->
<g id="edge6" class="edge"><title>Node1&#45;&gt;Node6</title>
<path fill="none" stroke="midnightblue" d="M86.3228,-49.467C104.326,-43.5331 127.997,-35.7685 149,-29 155.498,-26.9059 162.399,-24.7021 169.118,-22.567"/>
<polygon fill="midnightblue" stroke="midnightblue" points="170.29,-25.8671 178.765,-19.5086 168.175,-19.1944 170.29,-25.8671"/>
</g>
<!-- Node3 -->
<g id="node3" class="node"><title>Node3</title>
<g id="a_node3"><a xlink:href="namespacesll__m__gauss__lobatto__integration.html#aef28cd44b846400f5133a0ee289babbc" target="_top" xlink:title="This comes from http://dl.acm.org, Algorithme 726 : ORTHPOL, appendices and supplements To use those ...">
<polygon fill="white" stroke="black" points="307,-74 307,-104 413,-104 413,-74 307,-74"/>
<text text-anchor="start" x="315" y="-92" font-family="Helvetica,sans-Serif" font-size="10.00">sll_m_gauss_lobatto</text>
<text text-anchor="middle" x="360" y="-81" font-family="Helvetica,sans-Serif" font-size="10.00">_integration::dlob</text>
</a>
</g>
</g>
<!-- Node2&#45;&gt;Node3 -->
<g id="edge2" class="edge"><title>Node2&#45;&gt;Node3</title>
<path fill="none" stroke="midnightblue" d="M267.375,-107.573C276.954,-105.631 286.952,-103.604 296.674,-101.634"/>
<polygon fill="midnightblue" stroke="midnightblue" points="297.571,-105.023 306.676,-99.6062 296.18,-98.1627 297.571,-105.023"/>
</g>
<!-- Node4 -->
<g id="node4" class="node"><title>Node4</title>
<g id="a_node4"><a xlink:href="namespacesll__m__gauss__lobatto__integration.html#a20a90d157ba32cd27c5d6f89eccf3735" target="_top" xlink:title="Given n and a measure dlambda, this routine generates the n&#45;point Gaussian quadrature formula...">
<polygon fill="white" stroke="black" points="449,-74 449,-104 555,-104 555,-74 449,-74"/>
<text text-anchor="start" x="457" y="-92" font-family="Helvetica,sans-Serif" font-size="10.00">sll_m_gauss_lobatto</text>
<text text-anchor="middle" x="502" y="-81" font-family="Helvetica,sans-Serif" font-size="10.00">_integration::dgauss</text>
</a>
</g>
</g>
<!-- Node3&#45;&gt;Node4 -->
<g id="edge3" class="edge"><title>Node3&#45;&gt;Node4</title>
<path fill="none" stroke="midnightblue" d="M413.131,-89C421.421,-89 430.07,-89 438.568,-89"/>
<polygon fill="midnightblue" stroke="midnightblue" points="438.826,-92.5001 448.826,-89 438.826,-85.5001 438.826,-92.5001"/>
</g>
<!-- Node5&#45;&gt;Node3 -->
<g id="edge5" class="edge"><title>Node5&#45;&gt;Node3</title>
<path fill="none" stroke="midnightblue" d="M271.197,-71.2021C279.71,-72.9278 288.476,-74.7046 297.022,-76.4369"/>
<polygon fill="midnightblue" stroke="midnightblue" points="296.429,-79.8878 306.925,-78.4442 297.819,-73.0273 296.429,-79.8878"/>
</g>
</g>
</svg>
