<?xml version="1.0" encoding="UTF-8" standalone="no"?>
<!DOCTYPE svg PUBLIC "-//W3C//DTD SVG 1.1//EN"
 "http://www.w3.org/Graphics/SVG/1.1/DTD/svg11.dtd">
<!-- Generated by graphviz version 2.40.1 (20161225.0304)
 -->
<!-- Title: fourier1dperlagodd Pages: 1 -->
<svg width="458pt" height="160pt"
 viewBox="0.00 0.00 458.00 159.50" xmlns="http://www.w3.org/2000/svg" xmlns:xlink="http://www.w3.org/1999/xlink">
<g id="graph0" class="graph" transform="scale(1 1) rotate(0) translate(4 155.5)">
<title>fourier1dperlagodd</title>
<polygon fill="#ffffff" stroke="transparent" points="-4,4 -4,-155.5 454,-155.5 454,4 -4,4"/>
<!-- Node7 -->
<g id="node1" class="node">
<title>Node7</title>
<polygon fill="#bfbfbf" stroke="#000000" points="0,-71.5 0,-90.5 110,-90.5 110,-71.5 0,-71.5"/>
<text text-anchor="middle" x="55" y="-78.5" font-family="Helvetica,sans-Serif" font-size="10.00" fill="#000000">fourier1dperlagodd</text>
</g>
<!-- Node8 -->
<g id="node2" class="node">
<title>Node8</title>
<g id="a_node2"><a xlink:href="namespacesll__m__periodic__interp.html#af13c2d535538f2d6ca1e3e7b40b38139" target="_top" xlink:title="sll_s_periodic_interp">
<polygon fill="#ffffff" stroke="#000000" points="146,-71.5 146,-90.5 262,-90.5 262,-71.5 146,-71.5"/>
<text text-anchor="middle" x="204" y="-78.5" font-family="Helvetica,sans-Serif" font-size="10.00" fill="#000000">sll_s_periodic_interp</text>
</a>
</g>
</g>
<!-- Node7&#45;&gt;Node8 -->
<g id="edge1" class="edge">
<title>Node7&#45;&gt;Node8</title>
<path fill="none" stroke="#191970" d="M120.3367,-81C128.8538,-81 137.5331,-81 145.9202,-81"/>
<polygon fill="#191970" stroke="#191970" points="120.0588,-77.5001 110.0588,-81 120.0587,-84.5001 120.0588,-77.5001"/>
</g>
<!-- Node9 -->
<g id="node3" class="node">
<title>Node9</title>
<g id="a_node3"><a xlink:href="namespacesll__m__periodic__interpolator__1d.html#ae6f0cb5c46ddb52e2ab53c9c1e65792b" target="_top" xlink:title="sll_m_periodic_interpolator\l_1d::per_interpolate1d_disp">
<polygon fill="#ffffff" stroke="#000000" points="298,-121 298,-151 450,-151 450,-121 298,-121"/>
<text text-anchor="start" x="306" y="-139" font-family="Helvetica,sans-Serif" font-size="10.00" fill="#000000">sll_m_periodic_interpolator</text>
<text text-anchor="middle" x="374" y="-128" font-family="Helvetica,sans-Serif" font-size="10.00" fill="#000000">_1d::per_interpolate1d_disp</text>
</a>
</g>
</g>
<!-- Node8&#45;&gt;Node9 -->
<g id="edge2" class="edge">
<title>Node8&#45;&gt;Node9</title>
<path fill="none" stroke="#191970" d="M243.1757,-93.6745C268.2834,-101.7976 301,-112.3823 327.4344,-120.9346"/>
<polygon fill="#191970" stroke="#191970" points="244.2036,-90.3285 233.6117,-90.5803 242.0488,-96.9886 244.2036,-90.3285"/>
</g>
<!-- Node10 -->
<g id="node4" class="node">
<title>Node10</title>
<g id="a_node4"><a xlink:href="namespacesll__m__periodic__interpolator__1d.html#afddf771cf26aba1439b7c9068626b0a2" target="_top" xlink:title="sll_m_periodic_interpolator\l_1d::per_interpolate1d_disp\l_inplace">
<polygon fill="#ffffff" stroke="#000000" points="298,-60.5 298,-101.5 450,-101.5 450,-60.5 298,-60.5"/>
<text text-anchor="start" x="306" y="-89.5" font-family="Helvetica,sans-Serif" font-size="10.00" fill="#000000">sll_m_periodic_interpolator</text>
<text text-anchor="start" x="306" y="-78.5" font-family="Helvetica,sans-Serif" font-size="10.00" fill="#000000">_1d::per_interpolate1d_disp</text>
<text text-anchor="middle" x="374" y="-67.5" font-family="Helvetica,sans-Serif" font-size="10.00" fill="#000000">_inplace</text>
</a>
</g>
</g>
<!-- Node8&#45;&gt;Node10 -->
<g id="edge3" class="edge">
<title>Node8&#45;&gt;Node10</title>
<path fill="none" stroke="#191970" d="M272.2002,-81C280.6521,-81 289.3348,-81 297.8959,-81"/>
<polygon fill="#191970" stroke="#191970" points="272.0289,-77.5001 262.0289,-81 272.0288,-84.5001 272.0289,-77.5001"/>
</g>
<!-- Node11 -->
<g id="node5" class="node">
<title>Node11</title>
<g id="a_node5"><a xlink:href="namespacesll__m__advection__1d__periodic.html#a83e408dd2f8ef25942506b71256ab110" target="_top" xlink:title="sll_m_advection_1d\l_periodic::periodic\l_advect_1d_constant">
<polygon fill="#ffffff" stroke="#000000" points="314.5,-.5 314.5,-41.5 433.5,-41.5 433.5,-.5 314.5,-.5"/>
<text text-anchor="start" x="322.5" y="-29.5" font-family="Helvetica,sans-Serif" font-size="10.00" fill="#000000">sll_m_advection_1d</text>
<text text-anchor="start" x="322.5" y="-18.5" font-family="Helvetica,sans-Serif" font-size="10.00" fill="#000000">_periodic::periodic</text>
<text text-anchor="middle" x="374" y="-7.5" font-family="Helvetica,sans-Serif" font-size="10.00" fill="#000000">_advect_1d_constant</text>
</a>
</g>
</g>
<!-- Node8&#45;&gt;Node11 -->
<g id="edge4" class="edge">
<title>Node8&#45;&gt;Node11</title>
<path fill="none" stroke="#191970" d="M240.5286,-68.1076C262.4735,-60.3623 290.8929,-50.3319 315.8644,-41.5184"/>
<polygon fill="#191970" stroke="#191970" points="239.202,-64.8641 230.937,-71.4928 241.5318,-71.465 239.202,-64.8641"/>
</g>
</g>
</svg>
