<?xml version="1.0" encoding="UTF-8" standalone="no"?>
<!DOCTYPE svg PUBLIC "-//W3C//DTD SVG 1.1//EN"
 "http://www.w3.org/Graphics/SVG/1.1/DTD/svg11.dtd">
<!-- Generated by graphviz version 2.40.1 (20161225.0304)
 -->
<!-- Title: add_current_3d Pages: 1 -->
<svg width="352pt" height="66pt"
 viewBox="0.00 0.00 352.00 66.00" xmlns="http://www.w3.org/2000/svg" xmlns:xlink="http://www.w3.org/1999/xlink">
<g id="graph0" class="graph" transform="scale(1 1) rotate(0) translate(4 62)">
<title>add_current_3d</title>
<polygon fill="#ffffff" stroke="transparent" points="-4,4 -4,-62 348,-62 348,4 -4,4"/>
<!-- Node18 -->
<g id="node1" class="node">
<title>Node18</title>
<polygon fill="#bfbfbf" stroke="#000000" points="0,-19.5 0,-38.5 92,-38.5 92,-19.5 0,-19.5"/>
<text text-anchor="middle" x="46" y="-26.5" font-family="Helvetica,sans-Serif" font-size="10.00" fill="#000000">add_current_3d</text>
</g>
<!-- Node19 -->
<g id="node2" class="node">
<title>Node19</title>
<g id="a_node2"><a xlink:href="namespacesll__m__particle__mesh__coupling__spline__3d__feec.html#a39a81ff368618dfab16433c68acc90ee" target="_top" xlink:title="Identify the box in which the particle is located and its normalized position within the box...">
<polygon fill="#ffffff" stroke="#000000" points="130,-38.5 130,-57.5 239,-57.5 239,-38.5 130,-38.5"/>
<text text-anchor="middle" x="184.5" y="-45.5" font-family="Helvetica,sans-Serif" font-size="10.00" fill="#000000">convert_x_to_xbox</text>
</a>
</g>
</g>
<!-- Node18&#45;&gt;Node19 -->
<g id="edge1" class="edge">
<title>Node18&#45;&gt;Node19</title>
<path fill="none" stroke="#191970" d="M92.1185,-35.3267C101.0179,-36.5476 110.4932,-37.8474 119.8557,-39.1318"/>
<polygon fill="#191970" stroke="#191970" points="119.5553,-42.6233 129.9382,-40.515 120.5067,-35.6883 119.5553,-42.6233"/>
</g>
<!-- Node20 -->
<g id="node3" class="node">
<title>Node20</title>
<g id="a_node3"><a xlink:href="namespacesll__m__particle__mesh__coupling__spline__3d__feec.html#a22b4a15e45a35cda93472d3bc8576718" target="_top" xlink:title="Helper function for add_current_3d, takes care of the per box computations. ">
<polygon fill="#ffffff" stroke="#000000" points="128,-.5 128,-19.5 241,-19.5 241,-.5 128,-.5"/>
<text text-anchor="middle" x="184.5" y="-7.5" font-family="Helvetica,sans-Serif" font-size="10.00" fill="#000000">integrate_spline_3d</text>
</a>
</g>
</g>
<!-- Node18&#45;&gt;Node20 -->
<g id="edge2" class="edge">
<title>Node18&#45;&gt;Node20</title>
<path fill="none" stroke="#191970" d="M92.1185,-22.6733C100.3761,-21.5405 109.1295,-20.3396 117.8286,-19.1463"/>
<polygon fill="#191970" stroke="#191970" points="118.5511,-22.58 127.9826,-17.7533 117.5997,-15.645 118.5511,-22.58"/>
</g>
<!-- Node21 -->
<g id="node4" class="node">
<title>Node21</title>
<g id="a_node4"><a xlink:href="namespacesll__m__particle__mesh__coupling__spline__3d__feec.html#abfee33f2a32f4155838f54794a32b78b" target="_top" xlink:title="Sets the index of the splines that are involved in computations that concern splines from index box...">
<polygon fill="#ffffff" stroke="#000000" points="277,-.5 277,-19.5 344,-19.5 344,-.5 277,-.5"/>
<text text-anchor="middle" x="310.5" y="-7.5" font-family="Helvetica,sans-Serif" font-size="10.00" fill="#000000">box_index</text>
</a>
</g>
</g>
<!-- Node20&#45;&gt;Node21 -->
<g id="edge3" class="edge">
<title>Node20&#45;&gt;Node21</title>
<path fill="none" stroke="#191970" d="M241.2338,-10C249.7764,-10 258.4742,-10 266.6906,-10"/>
<polygon fill="#191970" stroke="#191970" points="266.7926,-13.5001 276.7925,-10 266.7925,-6.5001 266.7926,-13.5001"/>
</g>
</g>
</svg>
