<?xml version="1.0" encoding="UTF-8" standalone="no"?>
<!DOCTYPE svg PUBLIC "-//W3C//DTD SVG 1.1//EN"
 "http://www.w3.org/Graphics/SVG/1.1/DTD/svg11.dtd">
<!-- Generated by graphviz version 2.40.1 (20161225.0304)
 -->
<!-- Title: interpolate_hermite Pages: 1 -->
<svg width="476pt" height="50pt"
 viewBox="0.00 0.00 476.00 50.00" xmlns="http://www.w3.org/2000/svg" xmlns:xlink="http://www.w3.org/1999/xlink">
<g id="graph0" class="graph" transform="scale(1 1) rotate(0) translate(4 46)">
<title>interpolate_hermite</title>
<polygon fill="#ffffff" stroke="transparent" points="-4,4 -4,-46 472,-46 472,4 -4,4"/>
<!-- Node17 -->
<g id="node1" class="node">
<title>Node17</title>
<polygon fill="#bfbfbf" stroke="#000000" points="0,-11.5 0,-30.5 113,-30.5 113,-11.5 0,-11.5"/>
<text text-anchor="middle" x="56.5" y="-18.5" font-family="Helvetica,sans-Serif" font-size="10.00" fill="#000000">interpolate_hermite</text>
</g>
<!-- Node18 -->
<g id="node2" class="node">
<title>Node18</title>
<g id="a_node2"><a xlink:href="namespacesll__m__hermite__interpolation__2d.html#ad1e16cf91ebc6a34f7af88886a8c224b" target="_top" xlink:title="sll_f_interpolate_value\l_hermite_2d">
<polygon fill="#ffffff" stroke="#000000" points="149,-6 149,-36 277,-36 277,-6 149,-6"/>
<text text-anchor="start" x="157" y="-24" font-family="Helvetica,sans-Serif" font-size="10.00" fill="#000000">sll_f_interpolate_value</text>
<text text-anchor="middle" x="213" y="-13" font-family="Helvetica,sans-Serif" font-size="10.00" fill="#000000">_hermite_2d</text>
</a>
</g>
</g>
<!-- Node17&#45;&gt;Node18 -->
<g id="edge1" class="edge">
<title>Node17&#45;&gt;Node18</title>
<path fill="none" stroke="#191970" d="M123.2454,-21C131.7427,-21 140.4251,-21 148.8798,-21"/>
<polygon fill="#191970" stroke="#191970" points="123.0001,-17.5001 113.0001,-21 123.0001,-24.5001 123.0001,-17.5001"/>
</g>
<!-- Node19 -->
<g id="node3" class="node">
<title>Node19</title>
<g id="a_node3"><a xlink:href="namespacesll__m__hermite__interpolator__2d.html#ad6df3d7edfc21ba6b39f6a435661cf21" target="_top" xlink:title="sll_m_hermite_interpolator\l_2d::wrap_interpolate_value\l_hermite_2d">
<polygon fill="#ffffff" stroke="#000000" points="313,-.5 313,-41.5 468,-41.5 468,-.5 313,-.5"/>
<text text-anchor="start" x="321" y="-29.5" font-family="Helvetica,sans-Serif" font-size="10.00" fill="#000000">sll_m_hermite_interpolator</text>
<text text-anchor="start" x="321" y="-18.5" font-family="Helvetica,sans-Serif" font-size="10.00" fill="#000000">_2d::wrap_interpolate_value</text>
<text text-anchor="middle" x="390.5" y="-7.5" font-family="Helvetica,sans-Serif" font-size="10.00" fill="#000000">_hermite_2d</text>
</a>
</g>
</g>
<!-- Node18&#45;&gt;Node19 -->
<g id="edge2" class="edge">
<title>Node18&#45;&gt;Node19</title>
<path fill="none" stroke="#191970" d="M287.289,-21C295.7481,-21 304.3873,-21 312.888,-21"/>
<polygon fill="#191970" stroke="#191970" points="287.0816,-17.5001 277.0816,-21 287.0815,-24.5001 287.0816,-17.5001"/>
</g>
</g>
</svg>
