<?xml version="1.0" encoding="UTF-8" standalone="no"?>
<!DOCTYPE svg PUBLIC "-//W3C//DTD SVG 1.1//EN"
 "http://www.w3.org/Graphics/SVG/1.1/DTD/svg11.dtd">
<!-- Generated by graphviz version 2.43.0 (0)
 -->
<!-- Title: constant_advection_spl_non_unif_per Pages: 1 -->
<svg width="340pt" height="110pt"
 viewBox="0.00 0.00 340.00 110.00" xmlns="http://www.w3.org/2000/svg" xmlns:xlink="http://www.w3.org/1999/xlink">
<g id="graph0" class="graph" transform="scale(1 1) rotate(0) translate(4 106)">
<title>constant_advection_spl_non_unif_per</title>
<polygon fill="white" stroke="transparent" points="-4,4 -4,-106 336,-106 336,4 -4,4"/>
<!-- Node1 -->
<g id="node1" class="node">
<title>Node1</title>
<g id="a_node1"><a xlink:title=" ">
<polygon fill="#bfbfbf" stroke="black" points="0,-36 0,-66 112,-66 112,-36 0,-36"/>
<text text-anchor="start" x="8" y="-54" font-family="Helvetica,sans-Serif" font-size="10.00">constant_advection</text>
<text text-anchor="middle" x="56" y="-43" font-family="Helvetica,sans-Serif" font-size="10.00">_spl_non_unif_per</text>
</a>
</g>
</g>
<!-- Node2 -->
<g id="node2" class="node">
<title>Node2</title>
<g id="a_node2"><a xlink:href="namespacesll__m__cubic__non__uniform__splines.html#ac8b14ab9cbf822045356380851d80c20" target="_top" xlink:title="PLEASE ADD DOCUMENTATION.">
<polygon fill="white" stroke="black" points="148,-60.5 148,-101.5 332,-101.5 332,-60.5 148,-60.5"/>
<text text-anchor="start" x="156" y="-89.5" font-family="Helvetica,sans-Serif" font-size="10.00">sll_m_cubic_non_uniform</text>
<text text-anchor="start" x="156" y="-78.5" font-family="Helvetica,sans-Serif" font-size="10.00">_splines::sll_s_compute</text>
<text text-anchor="middle" x="240" y="-67.5" font-family="Helvetica,sans-Serif" font-size="10.00">_spline_nonunif_1d_periodic_aux2</text>
</a>
</g>
</g>
<!-- Node1&#45;&gt;Node2 -->
<g id="edge1" class="edge">
<title>Node1&#45;&gt;Node2</title>
<path fill="none" stroke="midnightblue" d="M112.1,-60.08C120.31,-61.44 128.98,-62.87 137.79,-64.32"/>
<polygon fill="midnightblue" stroke="midnightblue" points="137.33,-67.79 147.76,-65.96 138.46,-60.88 137.33,-67.79"/>
</g>
<!-- Node3 -->
<g id="node3" class="node">
<title>Node3</title>
<g id="a_node3"><a xlink:href="namespacesll__m__cubic__non__uniform__splines.html#a6c0e817e4ecc3db5169312815e5e23cd" target="_top" xlink:title="PLEASE ADD DOCUMENTATION.">
<polygon fill="white" stroke="black" points="167.5,-0.5 167.5,-41.5 312.5,-41.5 312.5,-0.5 167.5,-0.5"/>
<text text-anchor="start" x="175.5" y="-29.5" font-family="Helvetica,sans-Serif" font-size="10.00">sll_m_cubic_non_uniform</text>
<text text-anchor="start" x="175.5" y="-18.5" font-family="Helvetica,sans-Serif" font-size="10.00">_splines::sll_s_interpolate</text>
<text text-anchor="middle" x="240" y="-7.5" font-family="Helvetica,sans-Serif" font-size="10.00">_array_value_nonunif_aux</text>
</a>
</g>
</g>
<!-- Node1&#45;&gt;Node3 -->
<g id="edge2" class="edge">
<title>Node1&#45;&gt;Node3</title>
<path fill="none" stroke="midnightblue" d="M112.1,-41.92C126.35,-39.57 141.99,-36.99 157.28,-34.47"/>
<polygon fill="midnightblue" stroke="midnightblue" points="157.97,-37.9 167.26,-32.82 156.83,-31 157.97,-37.9"/>
</g>
</g>
</svg>
