<?xml version="1.0" encoding="UTF-8" standalone="no"?>
<!DOCTYPE svg PUBLIC "-//W3C//DTD SVG 1.1//EN"
 "http://www.w3.org/Graphics/SVG/1.1/DTD/svg11.dtd">
<!-- Generated by graphviz version 2.43.0 (0)
 -->
<!-- Title: ampere_te_2d_pstd Pages: 1 -->
<svg width="274pt" height="88pt"
 viewBox="0.00 0.00 274.00 88.00" xmlns="http://www.w3.org/2000/svg" xmlns:xlink="http://www.w3.org/1999/xlink">
<g id="graph0" class="graph" transform="scale(1 1) rotate(0) translate(4 84)">
<title>ampere_te_2d_pstd</title>
<polygon fill="white" stroke="transparent" points="-4,4 -4,-84 270,-84 270,4 -4,4"/>
<!-- Node1 -->
<g id="node1" class="node">
<title>Node1</title>
<g id="a_node1"><a xlink:title="Solve ampere maxwell equation (ex,ey,hz)">
<polygon fill="#bfbfbf" stroke="black" points="153,-30 153,-49 266,-49 266,-30 153,-30"/>
<text text-anchor="middle" x="209.5" y="-37" font-family="Helvetica,sans-Serif" font-size="10.00">ampere_te_2d_pstd</text>
</a>
</g>
</g>
<!-- Node2 -->
<g id="node2" class="node">
<title>Node2</title>
<g id="a_node2"><a xlink:href="namespacesll__m__maxwell__2d__pstd.html#adfa28f7eb64f0e698d7ed6d20ee154c6" target="_top" xlink:title=" ">
<polygon fill="white" stroke="black" points="2,-49.5 2,-79.5 115,-79.5 115,-49.5 2,-49.5"/>
<text text-anchor="start" x="10" y="-67.5" font-family="Helvetica,sans-Serif" font-size="10.00">sll_s_solve_ampere</text>
<text text-anchor="middle" x="58.5" y="-56.5" font-family="Helvetica,sans-Serif" font-size="10.00">_2d_pstd</text>
</a>
</g>
</g>
<!-- Node1&#45;&gt;Node2 -->
<g id="edge1" class="edge">
<title>Node1&#45;&gt;Node2</title>
<path fill="none" stroke="midnightblue" d="M142.73,-50.54C133.55,-52.08 124.19,-53.65 115.22,-55.15"/>
<polygon fill="midnightblue" stroke="midnightblue" points="143.31,-53.99 152.59,-48.88 142.15,-47.08 143.31,-53.99"/>
</g>
<!-- Node3 -->
<g id="node3" class="node">
<title>Node3</title>
<g id="a_node3"><a xlink:href="namespacesll__m__maxwell__2d__pstd.html#ab9935225e97846f8c8fa2f1a97a8510b" target="_top" xlink:title="self routine exists only for testing purpose. Use ampere and faraday in your appication.">
<polygon fill="white" stroke="black" points="0,-0.5 0,-30.5 117,-30.5 117,-0.5 0,-0.5"/>
<text text-anchor="start" x="8" y="-18.5" font-family="Helvetica,sans-Serif" font-size="10.00">sll_s_solve_maxwell</text>
<text text-anchor="middle" x="58.5" y="-7.5" font-family="Helvetica,sans-Serif" font-size="10.00">_2d_pstd</text>
</a>
</g>
</g>
<!-- Node1&#45;&gt;Node3 -->
<g id="edge2" class="edge">
<title>Node1&#45;&gt;Node3</title>
<path fill="none" stroke="midnightblue" d="M142.72,-28.9C134.22,-27.53 125.57,-26.14 117.21,-24.8"/>
<polygon fill="midnightblue" stroke="midnightblue" points="142.16,-32.36 152.59,-30.5 143.28,-25.45 142.16,-32.36"/>
</g>
</g>
</svg>
