<?xml version="1.0" encoding="UTF-8" standalone="no"?>
<!DOCTYPE svg PUBLIC "-//W3C//DTD SVG 1.1//EN"
 "http://www.w3.org/Graphics/SVG/1.1/DTD/svg11.dtd">
<!-- Generated by graphviz version 2.40.1 (20161225.0304)
 -->
<!-- Title: cell_type Pages: 1 -->
<svg width="363pt" height="142pt"
 viewBox="0.00 0.00 363.00 142.00" xmlns="http://www.w3.org/2000/svg" xmlns:xlink="http://www.w3.org/1999/xlink">
<g id="graph0" class="graph" transform="scale(1 1) rotate(0) translate(4 138)">
<title>cell_type</title>
<polygon fill="#ffffff" stroke="transparent" points="-4,4 -4,-138 359,-138 359,4 -4,4"/>
<!-- Node0 -->
<g id="node1" class="node">
<title>Node0</title>
<polygon fill="#bfbfbf" stroke="#000000" points="0,-57.5 0,-76.5 61,-76.5 61,-57.5 0,-57.5"/>
<text text-anchor="middle" x="30.5" y="-64.5" font-family="Helvetica,sans-Serif" font-size="10.00" fill="#000000">cell_type</text>
</g>
<!-- Node1 -->
<g id="node2" class="node">
<title>Node1</title>
<g id="a_node2"><a xlink:href="namespacesll__m__hexagonal__meshes.html#aa03f58c798d529ebb1b9d0f03b712035" target="_top" xlink:title="Transform cartesian coordinates to 1st hexagonal coordinates. ">
<polygon fill="#ffffff" stroke="#000000" points="97,-114.5 97,-133.5 202,-133.5 202,-114.5 97,-114.5"/>
<text text-anchor="middle" x="149.5" y="-121.5" font-family="Helvetica,sans-Serif" font-size="10.00" fill="#000000">sll_f_cart_to_hex1</text>
</a>
</g>
</g>
<!-- Node0&#45;&gt;Node1 -->
<g id="edge1" class="edge">
<title>Node0&#45;&gt;Node1</title>
<path fill="none" stroke="#191970" d="M45.4253,-76.5182C58.6511,-84.7101 78.6553,-96.5157 97,-105 101.3879,-107.0294 106.0587,-108.9892 110.7358,-110.8295"/>
<polygon fill="#191970" stroke="#191970" points="109.6643,-114.166 120.256,-114.4231 112.1364,-107.6171 109.6643,-114.166"/>
</g>
<!-- Node2 -->
<g id="node3" class="node">
<title>Node2</title>
<g id="a_node3"><a xlink:href="namespacesll__m__hexagonal__meshes.html#a8e973ce50cda93bfa411d78cff346741" target="_top" xlink:title="Transform cartesian coordinates to 2ndst hexagonal coordinates. ">
<polygon fill="#ffffff" stroke="#000000" points="97,-76.5 97,-95.5 202,-95.5 202,-76.5 97,-76.5"/>
<text text-anchor="middle" x="149.5" y="-83.5" font-family="Helvetica,sans-Serif" font-size="10.00" fill="#000000">sll_f_cart_to_hex2</text>
</a>
</g>
</g>
<!-- Node0&#45;&gt;Node2 -->
<g id="edge2" class="edge">
<title>Node0&#45;&gt;Node2</title>
<path fill="none" stroke="#191970" d="M61.1455,-71.893C69.0509,-73.1552 77.8531,-74.5606 86.7524,-75.9815"/>
<polygon fill="#191970" stroke="#191970" points="86.3719,-79.465 96.7987,-77.5855 87.4757,-72.5525 86.3719,-79.465"/>
</g>
<!-- Node3 -->
<g id="node4" class="node">
<title>Node3</title>
<g id="a_node4"><a xlink:href="namespacesll__m__hexagonal__meshes.html#a8bed234b81efa9e2e353c3f594c104e3" target="_top" xlink:title="Computes the number of cell from point to origin. ">
<polygon fill="#ffffff" stroke="#000000" points="240,-38.5 240,-57.5 353,-57.5 353,-38.5 240,-38.5"/>
<text text-anchor="middle" x="296.5" y="-45.5" font-family="Helvetica,sans-Serif" font-size="10.00" fill="#000000">sll_f_cells_to_origin</text>
</a>
</g>
</g>
<!-- Node0&#45;&gt;Node3 -->
<g id="edge3" class="edge">
<title>Node0&#45;&gt;Node3</title>
<path fill="none" stroke="#191970" d="M61.0136,-64.8205C101.9099,-61.8993 175.6095,-56.635 229.7002,-52.7714"/>
<polygon fill="#191970" stroke="#191970" points="230.1749,-56.2465 239.9001,-52.0429 229.6761,-49.2643 230.1749,-56.2465"/>
</g>
<!-- Node4 -->
<g id="node5" class="node">
<title>Node4</title>
<g id="a_node5"><a xlink:href="namespacesll__m__hexagonal__meshes.html#a4f66e0c718eda16377ca26d5c95b419f" target="_top" xlink:title="Transform hexagonal coordinates to global index. ">
<polygon fill="#ffffff" stroke="#000000" points="107,-.5 107,-19.5 192,-19.5 192,-.5 107,-.5"/>
<text text-anchor="middle" x="149.5" y="-7.5" font-family="Helvetica,sans-Serif" font-size="10.00" fill="#000000">hex_to_global</text>
</a>
</g>
</g>
<!-- Node0&#45;&gt;Node4 -->
<g id="edge4" class="edge">
<title>Node0&#45;&gt;Node4</title>
<path fill="none" stroke="#191970" d="M49.3402,-57.4511C62.6121,-50.7735 80.8274,-41.7069 97,-34 104.0284,-30.6506 111.6259,-27.1239 118.7998,-23.8359"/>
<polygon fill="#191970" stroke="#191970" points="120.5788,-26.8716 128.2266,-19.5393 117.6756,-20.502 120.5788,-26.8716"/>
</g>
<!-- Node4&#45;&gt;Node3 -->
<g id="edge5" class="edge">
<title>Node4&#45;&gt;Node3</title>
<path fill="none" stroke="#191970" d="M186.5943,-19.589C205.8178,-24.5583 229.4863,-30.6767 249.9294,-35.9613"/>
<polygon fill="#191970" stroke="#191970" points="249.1147,-39.3657 259.6724,-38.4799 250.8667,-32.5885 249.1147,-39.3657"/>
</g>
<!-- Node5 -->
<g id="node6" class="node">
<title>Node5</title>
<g id="a_node6"><a xlink:href="namespacesll__m__hexagonal__meshes.html#a47f7a419f8f8904d408ad3a630612ee4" target="_top" xlink:title="Finds the index in the global array of the point which coordinates where passed as parameter...">
<polygon fill="#ffffff" stroke="#000000" points="238,-.5 238,-19.5 355,-19.5 355,-.5 238,-.5"/>
<text text-anchor="middle" x="296.5" y="-7.5" font-family="Helvetica,sans-Serif" font-size="10.00" fill="#000000">index_hex_to_global</text>
</a>
</g>
</g>
<!-- Node4&#45;&gt;Node5 -->
<g id="edge6" class="edge">
<title>Node4&#45;&gt;Node5</title>
<path fill="none" stroke="#191970" d="M192.0185,-10C203.214,-10 215.5833,-10 227.7766,-10"/>
<polygon fill="#191970" stroke="#191970" points="227.948,-13.5001 237.948,-10 227.9479,-6.5001 227.948,-13.5001"/>
</g>
</g>
</svg>
