<?xml version="1.0" encoding="UTF-8" standalone="no"?>
<!DOCTYPE svg PUBLIC "-//W3C//DTD SVG 1.1//EN"
 "http://www.w3.org/Graphics/SVG/1.1/DTD/svg11.dtd">
<!-- Generated by graphviz version 2.38.0 (20140413.2041)
 -->
<!-- Title: interpolate_hermite Pages: 1 -->
<svg width="436pt" height="61pt"
 viewBox="0.00 0.00 436.00 61.00" xmlns="http://www.w3.org/2000/svg" xmlns:xlink="http://www.w3.org/1999/xlink">
<g id="graph0" class="graph" transform="scale(1 1) rotate(0) translate(4 57)">
<title>interpolate_hermite</title>
<polygon fill="white" stroke="none" points="-4,4 -4,-57 432,-57 432,4 -4,4"/>
<!-- Node1 -->
<g id="node1" class="node"><title>Node1</title>
<polygon fill="#bfbfbf" stroke="black" points="0,-17 0,-36 99,-36 99,-17 0,-17"/>
<text text-anchor="middle" x="49.5" y="-24" font-family="Helvetica,sans-Serif" font-size="10.00">interpolate_hermite</text>
</g>
<!-- Node2 -->
<g id="node2" class="node"><title>Node2</title>
<g id="a_node2"><a xlink:href="namespacesll__m__gyroaverage__2d__polar.html#a1882bcc115806b5d1d1b08a53c89490b" target="_top" xlink:title="sll_s_compute_gyroaverage\l_points_polar_hermite">
<polygon fill="white" stroke="black" points="135,-11.5 135,-41.5 273,-41.5 273,-11.5 135,-11.5"/>
<text text-anchor="start" x="143" y="-29.5" font-family="Helvetica,sans-Serif" font-size="10.00">sll_s_compute_gyroaverage</text>
<text text-anchor="middle" x="204" y="-18.5" font-family="Helvetica,sans-Serif" font-size="10.00">_points_polar_hermite</text>
</a>
</g>
</g>
<!-- Node1&#45;&gt;Node2 -->
<g id="edge1" class="edge"><title>Node1&#45;&gt;Node2</title>
<path fill="none" stroke="midnightblue" d="M109.204,-26.5C117.575,-26.5 126.244,-26.5 134.777,-26.5"/>
<polygon fill="midnightblue" stroke="midnightblue" points="109.171,-23.0001 99.1712,-26.5 109.171,-30.0001 109.171,-23.0001"/>
</g>
<!-- Node3 -->
<g id="node3" class="node"><title>Node3</title>
<g id="a_node3"><a xlink:href="namespacesll__m__gyroaverage__2d__polar__hermite__solver.html#afd578efdda5cfc4e19d981df4c069d6b" target="_top" xlink:title="sll_m_gyroaverage_2d\l_polar_hermite_solver\l::compute_gyroaverage\l_2d_polar_hermite">
<polygon fill="white" stroke="black" points="309,-0.5 309,-52.5 428,-52.5 428,-0.5 309,-0.5"/>
<text text-anchor="start" x="317" y="-40.5" font-family="Helvetica,sans-Serif" font-size="10.00">sll_m_gyroaverage_2d</text>
<text text-anchor="start" x="317" y="-29.5" font-family="Helvetica,sans-Serif" font-size="10.00">_polar_hermite_solver</text>
<text text-anchor="start" x="317" y="-18.5" font-family="Helvetica,sans-Serif" font-size="10.00">::compute_gyroaverage</text>
<text text-anchor="middle" x="368.5" y="-7.5" font-family="Helvetica,sans-Serif" font-size="10.00">_2d_polar_hermite</text>
</a>
</g>
</g>
<!-- Node2&#45;&gt;Node3 -->
<g id="edge2" class="edge"><title>Node2&#45;&gt;Node3</title>
<path fill="none" stroke="midnightblue" d="M283.462,-26.5C292.031,-26.5 300.642,-26.5 308.913,-26.5"/>
<polygon fill="midnightblue" stroke="midnightblue" points="283.444,-23.0001 273.444,-26.5 283.444,-30.0001 283.444,-23.0001"/>
</g>
</g>
</svg>
