<?xml version="1.0" encoding="UTF-8" standalone="no"?>
<!DOCTYPE svg PUBLIC "-//W3C//DTD SVG 1.1//EN"
 "http://www.w3.org/Graphics/SVG/1.1/DTD/svg11.dtd">
<!-- Generated by graphviz version 2.40.1 (20161225.0304)
 -->
<!-- Title: sll_s_compact_derivative_weight Pages: 1 -->
<svg width="466pt" height="39pt"
 viewBox="0.00 0.00 466.00 39.00" xmlns="http://www.w3.org/2000/svg" xmlns:xlink="http://www.w3.org/1999/xlink">
<g id="graph0" class="graph" transform="scale(1 1) rotate(0) translate(4 35)">
<title>sll_s_compact_derivative_weight</title>
<polygon fill="#ffffff" stroke="transparent" points="-4,4 -4,-35 462,-35 462,4 -4,4"/>
<!-- Node36 -->
<g id="node1" class="node">
<title>Node36</title>
<polygon fill="#bfbfbf" stroke="#000000" points="0,-.5 0,-30.5 140,-30.5 140,-.5 0,-.5"/>
<text text-anchor="start" x="8" y="-18.5" font-family="Helvetica,sans-Serif" font-size="10.00" fill="#000000">sll_s_compact_derivative</text>
<text text-anchor="middle" x="70" y="-7.5" font-family="Helvetica,sans-Serif" font-size="10.00" fill="#000000">_weight</text>
</g>
<!-- Node37 -->
<g id="node2" class="node">
<title>Node37</title>
<g id="a_node2"><a xlink:href="namespacesll__m__lagrange__interpolation.html#a27f51409cf832abd1cdaf75122c60dad" target="_top" xlink:title="compute_interpolants\l_hermite1d">
<polygon fill="#ffffff" stroke="#000000" points="176,-.5 176,-30.5 299,-30.5 299,-.5 176,-.5"/>
<text text-anchor="start" x="184" y="-18.5" font-family="Helvetica,sans-Serif" font-size="10.00" fill="#000000">compute_interpolants</text>
<text text-anchor="middle" x="237.5" y="-7.5" font-family="Helvetica,sans-Serif" font-size="10.00" fill="#000000">_hermite1d</text>
</a>
</g>
</g>
<!-- Node36&#45;&gt;Node37 -->
<g id="edge1" class="edge">
<title>Node36&#45;&gt;Node37</title>
<path fill="none" stroke="#191970" d="M150.1926,-15.5C158.8591,-15.5 167.5765,-15.5 175.9727,-15.5"/>
<polygon fill="#191970" stroke="#191970" points="150.0646,-12.0001 140.0646,-15.5 150.0645,-19.0001 150.0646,-12.0001"/>
</g>
<!-- Node38 -->
<g id="node3" class="node">
<title>Node38</title>
<g id="a_node3"><a xlink:href="namespacesll__m__lagrange__interpolation.html#af35615b1645decdb973369f391cf2945" target="_top" xlink:title="compute_interpolants\l_hermite2d">
<polygon fill="#ffffff" stroke="#000000" points="335,-.5 335,-30.5 458,-30.5 458,-.5 335,-.5"/>
<text text-anchor="start" x="343" y="-18.5" font-family="Helvetica,sans-Serif" font-size="10.00" fill="#000000">compute_interpolants</text>
<text text-anchor="middle" x="396.5" y="-7.5" font-family="Helvetica,sans-Serif" font-size="10.00" fill="#000000">_hermite2d</text>
</a>
</g>
</g>
<!-- Node37&#45;&gt;Node38 -->
<g id="edge2" class="edge">
<title>Node37&#45;&gt;Node38</title>
<path fill="none" stroke="#191970" d="M309.5919,-15.5C317.9898,-15.5 326.499,-15.5 334.7402,-15.5"/>
<polygon fill="#191970" stroke="#191970" points="309.4289,-12.0001 299.4288,-15.5 309.4288,-19.0001 309.4289,-12.0001"/>
</g>
</g>
</svg>
