<?xml version="1.0" encoding="UTF-8" standalone="no"?>
<!DOCTYPE svg PUBLIC "-//W3C//DTD SVG 1.1//EN"
 "http://www.w3.org/Graphics/SVG/1.1/DTD/svg11.dtd">
<!-- Generated by graphviz version 2.38.0 (20140413.2041)
 -->
<!-- Title: sll_s_cartesian_mesh_2d_init Pages: 1 -->
<!--zoomable 246 -->
<svg id="main" version="1.1" xmlns="http://www.w3.org/2000/svg" xmlns:xlink="http://www.w3.org/1999/xlink" xml:space="preserve" onload="init(evt)">
<style type="text/css"><![CDATA[
.edge:hover path { stroke: red; }
.edge:hover polygon { stroke: red; fill: red; }
]]></style>
<script type="text/javascript"><![CDATA[
var edges = document.getElementsByTagName('g');
if (edges && edges.length) {
  for (var i=0;i<edges.length;i++) {
    if (edges[i].id.substr(0,4)=='edge') {
      edges[i].setAttribute('class','edge');
    }
  }
}
]]></script>
        <defs>
                <circle id="rim" cx="0" cy="0" r="7"/>
                <circle id="rim2" cx="0" cy="0" r="3.5"/>
                <g id="zoomPlus">
                        <use xlink:href="#rim" fill="#404040">
                                <set attributeName="fill" to="#808080" begin="zoomplus.mouseover" end="zoomplus.mouseout"/>
                        </use>
                        <path d="M-4,0h8M0,-4v8" fill="none" stroke="white" stroke-width="1.5" pointer-events="none"/>
                </g>
                <g id="zoomMin">
                        <use xlink:href="#rim" fill="#404040">
                                <set attributeName="fill" to="#808080" begin="zoomminus.mouseover" end="zoomminus.mouseout"/>
                        </use>
                        <path d="M-4,0h8" fill="none" stroke="white" stroke-width="1.5" pointer-events="none"/>
                </g>
                <g id="dirArrow">
                        <path fill="none" stroke="white" stroke-width="1.5" d="M0,-3.0v7 M-2.5,-0.5L0,-3.0L2.5,-0.5"/>
                </g>
               <g id="resetDef">
                       <use xlink:href="#rim2" fill="#404040">
                               <set attributeName="fill" to="#808080" begin="reset.mouseover" end="reset.mouseout"/>
                       </use>
               </g>
        </defs>

<script type="text/javascript">
var viewWidth = 667;
var viewHeight = 246;
var sectionId = 'dynsection-8';
</script>
<script xlink:href="svgpan.js"/>
<svg id="graph" class="graph">
<g id="viewport">
<title>sll_s_cartesian_mesh_2d_init</title>
<polygon fill="white" stroke="none" points="-4,4 -4,-241.5 663,-241.5 663,4 -4,4"/>
<!-- Node1 -->
<g id="node1" class="node"><title>Node1</title>
<polygon fill="#bfbfbf" stroke="black" points="0,-98.5 0,-128.5 111,-128.5 111,-98.5 0,-98.5"/>
<text text-anchor="start" x="8" y="-116.5" font-family="Helvetica,sans-Serif" font-size="10.00">sll_s_cartesian_mesh</text>
<text text-anchor="middle" x="55.5" y="-105.5" font-family="Helvetica,sans-Serif" font-size="10.00">_2d_init</text>
</g>
<!-- Node2 -->
<g id="node2" class="node"><title>Node2</title>
<g id="a_node2"><a xlink:href="namespacesll__m__cartesian__meshes.html#a47fb939f257f84c12cc40b86a9d0fe11" target="_top" xlink:title="allocates the memory space for a new 2D cartesian mesh on the heap, initializes it with the given arg...">
<polygon fill="white" stroke="black" points="147,-98.5 147,-128.5 250,-128.5 250,-98.5 147,-98.5"/>
<text text-anchor="start" x="155" y="-116.5" font-family="Helvetica,sans-Serif" font-size="10.00">sll_f_new_cartesian</text>
<text text-anchor="middle" x="198.5" y="-105.5" font-family="Helvetica,sans-Serif" font-size="10.00">_mesh_2d</text>
</a>
</g>
</g>
<!-- Node1&#45;&gt;Node2 -->
<g id="edge1" class="edge"><title>Node1&#45;&gt;Node2</title>
<path fill="none" stroke="midnightblue" d="M121.071,-113.5C129.711,-113.5 138.471,-113.5 146.826,-113.5"/>
<polygon fill="midnightblue" stroke="midnightblue" points="121.014,-110 111.014,-113.5 121.014,-117 121.014,-110"/>
</g>
<!-- Node3 -->
<g id="node3" class="node"><title>Node3</title>
<g id="a_node3"><a xlink:href="namespacesll__m__cartesian__meshes__multipatch.html#a04c4cbd475a33dfae5f6798026de4eeb" target="_top" xlink:title="initializes a previously allocated multipatch 2d logical mesh. ">
<polygon fill="white" stroke="black" points="310.5,-196 310.5,-237 435.5,-237 435.5,-196 310.5,-196"/>
<text text-anchor="start" x="318.5" y="-225" font-family="Helvetica,sans-Serif" font-size="10.00">sll_m_cartesian_meshes</text>
<text text-anchor="start" x="318.5" y="-214" font-family="Helvetica,sans-Serif" font-size="10.00">_multipatch::initialize</text>
<text text-anchor="middle" x="373" y="-203" font-family="Helvetica,sans-Serif" font-size="10.00">_patch_lmmp2d</text>
</a>
</g>
</g>
<!-- Node2&#45;&gt;Node3 -->
<g id="edge2" class="edge"><title>Node2&#45;&gt;Node3</title>
<path fill="none" stroke="midnightblue" d="M220.937,-135.986C237.43,-152.193 261.484,-173.578 286,-187.5 293.536,-191.779 301.803,-195.558 310.14,-198.855"/>
<polygon fill="midnightblue" stroke="midnightblue" points="223.016,-133.114 213.478,-128.501 218.058,-138.055 223.016,-133.114"/>
</g>
<!-- Node4 -->
<g id="node4" class="node"><title>Node4</title>
<g id="a_node4"><a xlink:href="namespacesll__m__coordinate__transformations__2d__nurbs.html#a1ac1b0807542ac77efb925992c0d681e" target="_top" xlink:title="sll_m_coordinate_transformations\l_2d_nurbs::read_from_file_2d_nurbs">
<polygon fill="white" stroke="black" points="286,-147.5 286,-177.5 460,-177.5 460,-147.5 286,-147.5"/>
<text text-anchor="start" x="294" y="-165.5" font-family="Helvetica,sans-Serif" font-size="10.00">sll_m_coordinate_transformations</text>
<text text-anchor="middle" x="373" y="-154.5" font-family="Helvetica,sans-Serif" font-size="10.00">_2d_nurbs::read_from_file_2d_nurbs</text>
</a>
</g>
</g>
<!-- Node2&#45;&gt;Node4 -->
<g id="edge3" class="edge"><title>Node2&#45;&gt;Node4</title>
<path fill="none" stroke="midnightblue" d="M260,-131.062C268.721,-133.571 277.587,-136.111 286,-138.5 296.289,-141.422 307.279,-144.513 317.845,-147.469"/>
<polygon fill="midnightblue" stroke="midnightblue" points="260.826,-127.658 250.248,-128.252 258.888,-134.384 260.826,-127.658"/>
</g>
<!-- Node6 -->
<g id="node6" class="node"><title>Node6</title>
<g id="a_node6"><a xlink:href="namespacesll__m__coordinate__transformations__2d.html#af092a7689bceb4039d222e5f2a03c6e7" target="_top" xlink:title="sll_m_coordinate_transformations\l_2d::read_from_file_2d_discrete">
<polygon fill="white" stroke="black" points="291.5,-98.5 291.5,-128.5 454.5,-128.5 454.5,-98.5 291.5,-98.5"/>
<text text-anchor="start" x="299.5" y="-116.5" font-family="Helvetica,sans-Serif" font-size="10.00">sll_m_coordinate_transformations</text>
<text text-anchor="middle" x="373" y="-105.5" font-family="Helvetica,sans-Serif" font-size="10.00">_2d::read_from_file_2d_discrete</text>
</a>
</g>
</g>
<!-- Node2&#45;&gt;Node6 -->
<g id="edge5" class="edge"><title>Node2&#45;&gt;Node6</title>
<path fill="none" stroke="midnightblue" d="M260.546,-113.5C270.552,-113.5 281.055,-113.5 291.448,-113.5"/>
<polygon fill="midnightblue" stroke="midnightblue" points="260.323,-110 250.323,-113.5 260.323,-117 260.323,-110"/>
</g>
<!-- Node7 -->
<g id="node7" class="node"><title>Node7</title>
<g id="a_node7"><a xlink:href="namespacesll__m__cartesian__meshes.html#ab5c7c7adab553e987f64394b4c61414f" target="_top" xlink:title="Create a 2d mesh from two 1d meshes. ">
<polygon fill="white" stroke="black" points="321,-49.5 321,-79.5 425,-79.5 425,-49.5 321,-49.5"/>
<text text-anchor="start" x="329" y="-67.5" font-family="Helvetica,sans-Serif" font-size="10.00">sll_f_tensor_product</text>
<text text-anchor="middle" x="373" y="-56.5" font-family="Helvetica,sans-Serif" font-size="10.00">_1d_1d</text>
</a>
</g>
</g>
<!-- Node2&#45;&gt;Node7 -->
<g id="edge6" class="edge"><title>Node2&#45;&gt;Node7</title>
<path fill="none" stroke="midnightblue" d="M260.191,-96.2602C280.042,-90.6215 301.878,-84.4187 320.944,-79.0027"/>
<polygon fill="midnightblue" stroke="midnightblue" points="258.986,-92.9641 250.323,-99.0634 260.899,-99.6977 258.986,-92.9641"/>
</g>
<!-- Node8 -->
<g id="node8" class="node"><title>Node8</title>
<g id="a_node8"><a xlink:href="namespacesll__m__dk__curv__mesh.html#a4c65d8244e6f18bd6fb5cff4c5c5ee74" target="_top" xlink:title="Initialize simulation from input file. ">
<polygon fill="white" stroke="black" points="308,-0.5 308,-30.5 438,-30.5 438,-0.5 308,-0.5"/>
<text text-anchor="start" x="316" y="-18.5" font-family="Helvetica,sans-Serif" font-size="10.00">sll_m_dk_curv_mesh</text>
<text text-anchor="middle" x="373" y="-7.5" font-family="Helvetica,sans-Serif" font-size="10.00">::sll_s_init_dk_curv_mesh</text>
</a>
</g>
</g>
<!-- Node2&#45;&gt;Node8 -->
<g id="edge7" class="edge"><title>Node2&#45;&gt;Node8</title>
<path fill="none" stroke="midnightblue" d="M220.824,-91.0281C237.26,-74.8931 261.291,-53.7406 286,-40.5 293.127,-36.6811 300.906,-33.3821 308.78,-30.5494"/>
<polygon fill="midnightblue" stroke="midnightblue" points="217.97,-88.9331 213.395,-98.4892 222.931,-93.872 217.97,-88.9331"/>
</g>
<!-- Node5 -->
<g id="node5" class="node"><title>Node5</title>
<g id="a_node5"><a xlink:href="namespacesll__m__coordinate__transformations__2d__nurbs.html#a85ac2598975dd0e977cf92f9e02837d6" target="_top" xlink:title="sll_m_coordinate_transformations\l_2d_nurbs::sll_f_new_nurbs\l_2d_transformation_from_file">
<polygon fill="white" stroke="black" points="496,-142 496,-183 659,-183 659,-142 496,-142"/>
<text text-anchor="start" x="504" y="-171" font-family="Helvetica,sans-Serif" font-size="10.00">sll_m_coordinate_transformations</text>
<text text-anchor="start" x="504" y="-160" font-family="Helvetica,sans-Serif" font-size="10.00">_2d_nurbs::sll_f_new_nurbs</text>
<text text-anchor="middle" x="577.5" y="-149" font-family="Helvetica,sans-Serif" font-size="10.00">_2d_transformation_from_file</text>
</a>
</g>
</g>
<!-- Node4&#45;&gt;Node5 -->
<g id="edge4" class="edge"><title>Node4&#45;&gt;Node5</title>
<path fill="none" stroke="midnightblue" d="M470.215,-162.5C478.802,-162.5 487.437,-162.5 495.872,-162.5"/>
<polygon fill="midnightblue" stroke="midnightblue" points="470.172,-159 460.172,-162.5 470.172,-166 470.172,-159"/>
</g>
</g>
</svg>
        <g id="navigator" transform="translate(0 0)" fill="#404254">
                <rect fill="#f2f5e9" fill-opacity="0.5" stroke="#606060" stroke-width=".5" x="0" y="0" width="60" height="60"/>
                <use id="zoomplus" xlink:href="#zoomPlus" x="17" y="9" onmousedown="handleZoom(evt,'in')"/>
                <use id="zoomminus" xlink:href="#zoomMin" x="42" y="9" onmousedown="handleZoom(evt,'out')"/>
                <use id="reset" xlink:href="#resetDef" x="30" y="36" onmousedown="handleReset()"/>
                <g id="arrowUp" xlink:href="#dirArrow" transform="translate(30 24)" onmousedown="handlePan(0,-1)">
                  <use xlink:href="#rim" fill="#404040">
                        <set attributeName="fill" to="#808080" begin="arrowUp.mouseover" end="arrowUp.mouseout"/>
                  </use>
                  <path fill="none" stroke="white" stroke-width="1.5" d="M0,-3.0v7 M-2.5,-0.5L0,-3.0L2.5,-0.5"/>
                </g>
                <g id="arrowRight" xlink:href="#dirArrow" transform="rotate(90) translate(36 -43)" onmousedown="handlePan(1,0)">
                  <use xlink:href="#rim" fill="#404040">
                        <set attributeName="fill" to="#808080" begin="arrowRight.mouseover" end="arrowRight.mouseout"/>
                  </use>
                  <path fill="none" stroke="white" stroke-width="1.5" d="M0,-3.0v7 M-2.5,-0.5L0,-3.0L2.5,-0.5"/>
                </g>
                <g id="arrowDown" xlink:href="#dirArrow" transform="rotate(180) translate(-30 -48)" onmousedown="handlePan(0,1)">
                  <use xlink:href="#rim" fill="#404040">
                        <set attributeName="fill" to="#808080" begin="arrowDown.mouseover" end="arrowDown.mouseout"/>
                  </use>
                  <path fill="none" stroke="white" stroke-width="1.5" d="M0,-3.0v7 M-2.5,-0.5L0,-3.0L2.5,-0.5"/>
                </g>
                <g id="arrowLeft" xlink:href="#dirArrow" transform="rotate(270) translate(-36 17)" onmousedown="handlePan(-1,0)">
                  <use xlink:href="#rim" fill="#404040">
                        <set attributeName="fill" to="#808080" begin="arrowLeft.mouseover" end="arrowLeft.mouseout"/>
                  </use>
                  <path fill="none" stroke="white" stroke-width="1.5" d="M0,-3.0v7 M-2.5,-0.5L0,-3.0L2.5,-0.5"/>
                </g>
        </g>
        <svg viewBox="0 0 15 15" width="100%" height="30px" preserveAspectRatio="xMaxYMin meet">
         <g id="arrow_out" transform="scale(0.3 0.3)">
          <a xlink:href="namespacesll__m__cartesian__meshes_ab2d0d888cbfa10e6b2a37a5bcf427ef3_icgraph_org.svg" target="_base">
           <rect id="button" ry="5" rx="5" y="6" x="6" height="38" width="38"
                fill="#f2f5e9" fill-opacity="0.5" stroke="#606060" stroke-width="1.0"/>
           <path id="arrow"
             d="M 11.500037,31.436501 C 11.940474,20.09759 22.043105,11.32322 32.158766,21.979434 L 37.068811,17.246167 C 37.068811,17.246167 37.088388,32 37.088388,32 L 22.160133,31.978069 C 22.160133,31.978069 26.997745,27.140456 26.997745,27.140456 C 18.528582,18.264221 13.291696,25.230495 11.500037,31.436501 z"
             style="fill:#404040;"/>
          </a>
         </g>
        </svg>
</svg>
