<?xml version="1.0" encoding="UTF-8" standalone="no"?>
<!DOCTYPE svg PUBLIC "-//W3C//DTD SVG 1.1//EN"
 "http://www.w3.org/Graphics/SVG/1.1/DTD/svg11.dtd">
<!-- Generated by graphviz version 2.38.0 (20140413.2041)
 -->
<!-- Title: update_solution_csl_periodic Pages: 1 -->
<svg width="473pt" height="333pt"
 viewBox="0.00 0.00 473.00 332.50" xmlns="http://www.w3.org/2000/svg" xmlns:xlink="http://www.w3.org/1999/xlink">
<g id="graph0" class="graph" transform="scale(1 1) rotate(0) translate(4 328.5)">
<title>update_solution_csl_periodic</title>
<polygon fill="white" stroke="none" points="-4,4 -4,-328.5 469,-328.5 469,4 -4,4"/>
<!-- Node1 -->
<g id="node1" class="node"><title>Node1</title>
<polygon fill="#bfbfbf" stroke="black" points="0,-142.5 0,-172.5 103,-172.5 103,-142.5 0,-142.5"/>
<text text-anchor="start" x="8" y="-160.5" font-family="Helvetica,sans-Serif" font-size="10.00">update_solution_csl</text>
<text text-anchor="middle" x="51.5" y="-149.5" font-family="Helvetica,sans-Serif" font-size="10.00">_periodic</text>
</g>
<!-- Node2 -->
<g id="node2" class="node"><title>Node2</title>
<g id="a_node2"><a xlink:href="namespacesll__m__advection__1d__csl__periodic.html#a2a854b6d456b4307bd6bfabda8c29a26" target="_top" xlink:title="compute_csl_ww">
<polygon fill="white" stroke="black" points="168,-305 168,-324 260,-324 260,-305 168,-305"/>
<text text-anchor="middle" x="214" y="-312" font-family="Helvetica,sans-Serif" font-size="10.00">compute_csl_ww</text>
</a>
</g>
</g>
<!-- Node1&#45;&gt;Node2 -->
<g id="edge1" class="edge"><title>Node1&#45;&gt;Node2</title>
<path fill="none" stroke="midnightblue" d="M57.6323,-172.609C68.1497,-201.216 94.9398,-263.3 139,-295.5 144.684,-299.654 151.192,-302.902 157.939,-305.442"/>
<polygon fill="midnightblue" stroke="midnightblue" points="157.333,-308.925 167.925,-308.678 159.491,-302.266 157.333,-308.925"/>
</g>
<!-- Node3 -->
<g id="node3" class="node"><title>Node3</title>
<g id="a_node3"><a xlink:href="namespacesll__m__gauss__legendre__integration.html#a0df63a9e8ee884c2d4a0d1f53602a949" target="_top" xlink:title="Returns a 2d array of size (2,npoints) containing gauss&#45;legendre points and weights in the interval [...">
<polygon fill="white" stroke="black" points="139,-245 139,-286 289,-286 289,-245 139,-245"/>
<text text-anchor="start" x="147" y="-274" font-family="Helvetica,sans-Serif" font-size="10.00">sll_m_gauss_legendre</text>
<text text-anchor="start" x="147" y="-263" font-family="Helvetica,sans-Serif" font-size="10.00">_integration::sll_f_gauss</text>
<text text-anchor="middle" x="214" y="-252" font-family="Helvetica,sans-Serif" font-size="10.00">_legendre_points_and_weights</text>
</a>
</g>
</g>
<!-- Node1&#45;&gt;Node3 -->
<g id="edge2" class="edge"><title>Node1&#45;&gt;Node3</title>
<path fill="none" stroke="midnightblue" d="M65.8539,-172.686C81.8055,-190.063 109.993,-218.443 139,-236.5 140.951,-237.715 142.962,-238.894 145.016,-240.037"/>
<polygon fill="midnightblue" stroke="midnightblue" points="143.76,-243.329 154.249,-244.82 146.979,-237.113 143.76,-243.329"/>
</g>
<!-- Node4 -->
<g id="node4" class="node"><title>Node4</title>
<g id="a_node4"><a xlink:href="namespacesll__m__advection__1d__csl__periodic.html#af937e6876cc1afcbe583b713447017f2" target="_top" xlink:title="compute_node_derivative\l_order3">
<polygon fill="white" stroke="black" points="150,-196.5 150,-226.5 278,-226.5 278,-196.5 150,-196.5"/>
<text text-anchor="start" x="158" y="-214.5" font-family="Helvetica,sans-Serif" font-size="10.00">compute_node_derivative</text>
<text text-anchor="middle" x="214" y="-203.5" font-family="Helvetica,sans-Serif" font-size="10.00">_order3</text>
</a>
</g>
</g>
<!-- Node1&#45;&gt;Node4 -->
<g id="edge3" class="edge"><title>Node1&#45;&gt;Node4</title>
<path fill="none" stroke="midnightblue" d="M95.5598,-172.626C109.41,-177.44 124.835,-182.747 139,-187.5 144.578,-189.372 150.4,-191.301 156.222,-193.215"/>
<polygon fill="midnightblue" stroke="midnightblue" points="155.384,-196.623 165.977,-196.407 157.562,-189.97 155.384,-196.623"/>
</g>
<!-- Node6 -->
<g id="node6" class="node"><title>Node6</title>
<g id="a_node6"><a xlink:href="namespacesll__m__characteristics__1d__base.html#a34a2538ce842b3a4724dc12a3cdb5a85" target="_top" xlink:title="sll_m_characteristics\l_1d_base::sll_f_process\l_outside_point_periodic">
<polygon fill="white" stroke="black" points="153,-137 153,-178 275,-178 275,-137 153,-137"/>
<text text-anchor="start" x="161" y="-166" font-family="Helvetica,sans-Serif" font-size="10.00">sll_m_characteristics</text>
<text text-anchor="start" x="161" y="-155" font-family="Helvetica,sans-Serif" font-size="10.00">_1d_base::sll_f_process</text>
<text text-anchor="middle" x="214" y="-144" font-family="Helvetica,sans-Serif" font-size="10.00">_outside_point_periodic</text>
</a>
</g>
</g>
<!-- Node1&#45;&gt;Node6 -->
<g id="edge5" class="edge"><title>Node1&#45;&gt;Node6</title>
<path fill="none" stroke="midnightblue" d="M103.283,-157.5C115.798,-157.5 129.422,-157.5 142.68,-157.5"/>
<polygon fill="midnightblue" stroke="midnightblue" points="142.722,-161 152.722,-157.5 142.722,-154 142.722,-161"/>
</g>
<!-- Node7 -->
<g id="node7" class="node"><title>Node7</title>
<g id="a_node7"><a xlink:href="namespacesll__m__advection__1d__csl__periodic.html#aa98a9ffa40840c0bbdf8b3fd0bd07b15" target="_top" xlink:title="evaluate_hermite_1d">
<polygon fill="white" stroke="black" points="341.5,-77 341.5,-96 448.5,-96 448.5,-77 341.5,-77"/>
<text text-anchor="middle" x="395" y="-84" font-family="Helvetica,sans-Serif" font-size="10.00">evaluate_hermite_1d</text>
</a>
</g>
</g>
<!-- Node1&#45;&gt;Node7 -->
<g id="edge6" class="edge"><title>Node1&#45;&gt;Node7</title>
<path fill="none" stroke="midnightblue" d="M91.247,-142.444C106.02,-137.134 123.124,-131.497 139,-127.5 203.612,-111.233 279.131,-100.037 331.125,-93.5053"/>
<polygon fill="midnightblue" stroke="midnightblue" points="331.705,-96.9604 341.2,-92.2611 330.846,-90.0132 331.705,-96.9604"/>
</g>
<!-- Node8 -->
<g id="node8" class="node"><title>Node8</title>
<g id="a_node8"><a xlink:href="namespacesll__m__advection__1d__csl__periodic.html#a03bf92b99e58381e267caa3da6634abd" target="_top" xlink:title="contribution_gauss\l_lagrange">
<polygon fill="white" stroke="black" points="165,-0.5 165,-30.5 263,-30.5 263,-0.5 165,-0.5"/>
<text text-anchor="start" x="173" y="-18.5" font-family="Helvetica,sans-Serif" font-size="10.00">contribution_gauss</text>
<text text-anchor="middle" x="214" y="-7.5" font-family="Helvetica,sans-Serif" font-size="10.00">_lagrange</text>
</a>
</g>
</g>
<!-- Node1&#45;&gt;Node8 -->
<g id="edge7" class="edge"><title>Node1&#45;&gt;Node8</title>
<path fill="none" stroke="midnightblue" d="M59.5749,-142.469C72.0939,-117.464 100.505,-67.3275 139,-39.5 144.028,-35.8652 149.634,-32.7621 155.45,-30.1169"/>
<polygon fill="midnightblue" stroke="midnightblue" points="156.779,-33.3548 164.707,-26.3265 154.126,-26.8768 156.779,-33.3548"/>
</g>
<!-- Node10 -->
<g id="node10" class="node"><title>Node10</title>
<g id="a_node10"><a xlink:href="namespacesll__m__advection__1d__csl__periodic.html#a8f900b8856afe2d6ac3ed35ad20d892c" target="_top" xlink:title="contribution_simpson\l_hermite">
<polygon fill="white" stroke="black" points="159.5,-49.5 159.5,-79.5 268.5,-79.5 268.5,-49.5 159.5,-49.5"/>
<text text-anchor="start" x="167.5" y="-67.5" font-family="Helvetica,sans-Serif" font-size="10.00">contribution_simpson</text>
<text text-anchor="middle" x="214" y="-56.5" font-family="Helvetica,sans-Serif" font-size="10.00">_hermite</text>
</a>
</g>
</g>
<!-- Node1&#45;&gt;Node10 -->
<g id="edge9" class="edge"><title>Node1&#45;&gt;Node10</title>
<path fill="none" stroke="midnightblue" d="M70.5152,-142.352C87.4296,-128.635 113.831,-108.49 139,-94.5 146.064,-90.5737 153.748,-86.8798 161.403,-83.5162"/>
<polygon fill="midnightblue" stroke="midnightblue" points="162.842,-86.708 170.684,-79.5837 160.111,-80.2628 162.842,-86.708"/>
</g>
<!-- Node5 -->
<g id="node5" class="node"><title>Node5</title>
<g id="a_node5"><a xlink:href="namespacesll__m__advection__1d__csl__periodic.html#a367396d77752de25e7f0567266fe4d8b" target="_top" xlink:title="compute_quadrature">
<polygon fill="white" stroke="black" points="342.5,-202 342.5,-221 447.5,-221 447.5,-202 342.5,-202"/>
<text text-anchor="middle" x="395" y="-209" font-family="Helvetica,sans-Serif" font-size="10.00">compute_quadrature</text>
</a>
</g>
</g>
<!-- Node4&#45;&gt;Node5 -->
<g id="edge4" class="edge"><title>Node4&#45;&gt;Node5</title>
<path fill="none" stroke="midnightblue" d="M278.109,-211.5C295.694,-211.5 314.773,-211.5 332.277,-211.5"/>
<polygon fill="midnightblue" stroke="midnightblue" points="332.379,-215 342.379,-211.5 332.379,-208 332.379,-215"/>
</g>
<!-- Node9 -->
<g id="node9" class="node"><title>Node9</title>
<g id="a_node9"><a xlink:href="namespacesll__m__lagrange__interpolation.html#a8408ec777b0a4163e8d141bd68ff7a0f" target="_top" xlink:title="sll_m_lagrange_interpolation\l::sll_f_lagrange_interpolate">
<polygon fill="white" stroke="black" points="325,-0.5 325,-30.5 465,-30.5 465,-0.5 325,-0.5"/>
<text text-anchor="start" x="333" y="-18.5" font-family="Helvetica,sans-Serif" font-size="10.00">sll_m_lagrange_interpolation</text>
<text text-anchor="middle" x="395" y="-7.5" font-family="Helvetica,sans-Serif" font-size="10.00">::sll_f_lagrange_interpolate</text>
</a>
</g>
</g>
<!-- Node8&#45;&gt;Node9 -->
<g id="edge8" class="edge"><title>Node8&#45;&gt;Node9</title>
<path fill="none" stroke="midnightblue" d="M263.44,-15.5C279.192,-15.5 297.111,-15.5 314.518,-15.5"/>
<polygon fill="midnightblue" stroke="midnightblue" points="314.688,-19.0001 324.688,-15.5 314.688,-12.0001 314.688,-19.0001"/>
</g>
<!-- Node10&#45;&gt;Node7 -->
<g id="edge10" class="edge"><title>Node10&#45;&gt;Node7</title>
<path fill="none" stroke="midnightblue" d="M268.706,-71.1007C288.351,-73.5152 310.751,-76.2683 331.126,-78.7725"/>
<polygon fill="midnightblue" stroke="midnightblue" points="330.904,-82.2715 341.257,-80.0176 331.758,-75.3238 330.904,-82.2715"/>
</g>
</g>
</svg>
