<?xml version="1.0" encoding="UTF-8" standalone="no"?>
<!DOCTYPE svg PUBLIC "-//W3C//DTD SVG 1.1//EN"
 "http://www.w3.org/Graphics/SVG/1.1/DTD/svg11.dtd">
<!-- Generated by graphviz version 2.40.1 (20161225.0304)
 -->
<!-- Title: compute_phi_from_j_1d_fem Pages: 1 -->
<svg width="412pt" height="88pt"
 viewBox="0.00 0.00 412.00 88.00" xmlns="http://www.w3.org/2000/svg" xmlns:xlink="http://www.w3.org/1999/xlink">
<g id="graph0" class="graph" transform="scale(1 1) rotate(0) translate(4 84)">
<title>compute_phi_from_j_1d_fem</title>
<polygon fill="#ffffff" stroke="transparent" points="-4,4 -4,-84 408,-84 408,4 -4,4"/>
<!-- Node28 -->
<g id="node1" class="node">
<title>Node28</title>
<polygon fill="#bfbfbf" stroke="#000000" points="0,-24.5 0,-54.5 116,-54.5 116,-24.5 0,-24.5"/>
<text text-anchor="start" x="8" y="-42.5" font-family="Helvetica,sans-Serif" font-size="10.00" fill="#000000">compute_phi_from_j</text>
<text text-anchor="middle" x="58" y="-31.5" font-family="Helvetica,sans-Serif" font-size="10.00" fill="#000000">_1d_fem</text>
</g>
<!-- Node29 -->
<g id="node2" class="node">
<title>Node29</title>
<g id="a_node2"><a xlink:href="namespacesll__m__maxwell__1d__fem.html#aa477d469a63715e37b1d2c9f9d0a57a0" target="_top" xlink:title="multiply_gt">
<polygon fill="#ffffff" stroke="#000000" points="152,-52 152,-71 224,-71 224,-52 152,-52"/>
<text text-anchor="middle" x="188" y="-59" font-family="Helvetica,sans-Serif" font-size="10.00" fill="#000000">multiply_gt</text>
</a>
</g>
</g>
<!-- Node28&#45;&gt;Node29 -->
<g id="edge1" class="edge">
<title>Node28&#45;&gt;Node29</title>
<path fill="none" stroke="#191970" d="M116.1558,-49.3418C124.807,-50.8058 133.6217,-52.2975 141.9778,-53.7116"/>
<polygon fill="#191970" stroke="#191970" points="141.4572,-57.1732 151.9011,-55.391 142.6253,-50.2714 141.4572,-57.1732"/>
</g>
<!-- Node31 -->
<g id="node4" class="node">
<title>Node31</title>
<g id="a_node4"><a xlink:href="namespacesll__m__maxwell__1d__fem.html#af164250a221cd8f9727fc31ad44018a1" target="_top" xlink:title="multiply_g">
<polygon fill="#ffffff" stroke="#000000" points="154,-11 154,-30 222,-30 222,-11 154,-11"/>
<text text-anchor="middle" x="188" y="-18" font-family="Helvetica,sans-Serif" font-size="10.00" fill="#000000">multiply_g</text>
</a>
</g>
</g>
<!-- Node28&#45;&gt;Node31 -->
<g id="edge3" class="edge">
<title>Node28&#45;&gt;Node31</title>
<path fill="none" stroke="#191970" d="M116.1558,-31.0003C125.388,-29.651 134.8064,-28.2745 143.6549,-26.9812"/>
<polygon fill="#191970" stroke="#191970" points="144.3464,-30.4174 153.7351,-25.5079 143.3341,-23.491 144.3464,-30.4174"/>
</g>
<!-- Node30 -->
<g id="node3" class="node">
<title>Node30</title>
<g id="a_node3"><a xlink:href="namespacesll__m__spline__fem__utilities.html#aba0cb18b680186b2cd8bf714527fe4a7" target="_top" xlink:title="Multiplication of the input vector in by the transposed derivative matrix G^T. ">
<polygon fill="#ffffff" stroke="#000000" points="260,-49.5 260,-79.5 404,-79.5 404,-49.5 260,-49.5"/>
<text text-anchor="start" x="268" y="-67.5" font-family="Helvetica,sans-Serif" font-size="10.00" fill="#000000">sll_m_spline_fem_utilities</text>
<text text-anchor="middle" x="332" y="-56.5" font-family="Helvetica,sans-Serif" font-size="10.00" fill="#000000">::sll_s_multiply_gt_1d</text>
</a>
</g>
</g>
<!-- Node29&#45;&gt;Node30 -->
<g id="edge2" class="edge">
<title>Node29&#45;&gt;Node30</title>
<path fill="none" stroke="#191970" d="M224.3373,-62.257C232.2069,-62.421 240.837,-62.6008 249.6792,-62.785"/>
<polygon fill="#191970" stroke="#191970" points="249.6524,-66.2851 259.7231,-62.9942 249.7982,-59.2866 249.6524,-66.2851"/>
</g>
<!-- Node32 -->
<g id="node5" class="node">
<title>Node32</title>
<g id="a_node5"><a xlink:href="namespacesll__m__spline__fem__utilities.html#a249985cbe30c29c9e949f668c82d2e88" target="_top" xlink:title="Multiplication of the input vector in by the derivative matrix G. ">
<polygon fill="#ffffff" stroke="#000000" points="260,-.5 260,-30.5 404,-30.5 404,-.5 260,-.5"/>
<text text-anchor="start" x="268" y="-18.5" font-family="Helvetica,sans-Serif" font-size="10.00" fill="#000000">sll_m_spline_fem_utilities</text>
<text text-anchor="middle" x="332" y="-7.5" font-family="Helvetica,sans-Serif" font-size="10.00" fill="#000000">::sll_s_multiply_g_1d</text>
</a>
</g>
</g>
<!-- Node31&#45;&gt;Node32 -->
<g id="edge4" class="edge">
<title>Node31&#45;&gt;Node32</title>
<path fill="none" stroke="#191970" d="M222.126,-19.3151C230.5826,-19.0214 240.0138,-18.694 249.6988,-18.3577"/>
<polygon fill="#191970" stroke="#191970" points="249.9808,-21.8501 259.8533,-18.0051 249.7379,-14.8543 249.9808,-21.8501"/>
</g>
</g>
</svg>
