<?xml version="1.0" encoding="UTF-8" standalone="no"?>
<!DOCTYPE svg PUBLIC "-//W3C//DTD SVG 1.1//EN"
 "http://www.w3.org/Graphics/SVG/1.1/DTD/svg11.dtd">
<!-- Generated by graphviz version 2.38.0 (20140413.2041)
 -->
<!-- Title: sll_s_fft_set_mode_c2r_1d Pages: 1 -->
<svg width="584pt" height="473pt"
 viewBox="0.00 0.00 584.00 473.00" xmlns="http://www.w3.org/2000/svg" xmlns:xlink="http://www.w3.org/1999/xlink">
<g id="graph0" class="graph" transform="scale(1 1) rotate(0) translate(4 469)">
<title>sll_s_fft_set_mode_c2r_1d</title>
<polygon fill="white" stroke="none" points="-4,4 -4,-469 580,-469 580,4 -4,4"/>
<!-- Node1 -->
<g id="node1" class="node"><title>Node1</title>
<polygon fill="#bfbfbf" stroke="black" points="0,-193 0,-223 99,-223 99,-193 0,-193"/>
<text text-anchor="start" x="8" y="-211" font-family="Helvetica,sans-Serif" font-size="10.00">sll_s_fft_set_mode</text>
<text text-anchor="middle" x="49.5" y="-200" font-family="Helvetica,sans-Serif" font-size="10.00">_c2r_1d</text>
</g>
<!-- Node2 -->
<g id="node2" class="node"><title>Node2</title>
<g id="a_node2"><a xlink:href="namespacesll__m__fft.html#ac3f0bdd60b0eb75e936d13bf15f06ea2" target="_top" xlink:title="Compute fast Fourier transform in real to real mode. ">
<polygon fill="white" stroke="black" points="135,-198.5 135,-217.5 245,-217.5 245,-198.5 135,-198.5"/>
<text text-anchor="middle" x="190" y="-205.5" font-family="Helvetica,sans-Serif" font-size="10.00">sll_s_fft_exec_r2r_1d</text>
</a>
</g>
</g>
<!-- Node1&#45;&gt;Node2 -->
<g id="edge1" class="edge"><title>Node1&#45;&gt;Node2</title>
<path fill="none" stroke="midnightblue" d="M109.498,-208C117.948,-208 126.606,-208 134.953,-208"/>
<polygon fill="midnightblue" stroke="midnightblue" points="109.33,-204.5 99.3299,-208 109.33,-211.5 109.33,-204.5"/>
</g>
<!-- Node3 -->
<g id="node3" class="node"><title>Node3</title>
<g id="a_node3"><a xlink:href="namespacesll__m__maxwell__1d__fem.html#a0292d383eb02a02563a4a11367866848" target="_top" xlink:title="sll_m_maxwell_1d_fem\l::solve_circulant">
<polygon fill="white" stroke="black" points="281,-267 281,-297 400,-297 400,-267 281,-267"/>
<text text-anchor="start" x="289" y="-285" font-family="Helvetica,sans-Serif" font-size="10.00">sll_m_maxwell_1d_fem</text>
<text text-anchor="middle" x="340.5" y="-274" font-family="Helvetica,sans-Serif" font-size="10.00">::solve_circulant</text>
</a>
</g>
</g>
<!-- Node2&#45;&gt;Node3 -->
<g id="edge2" class="edge"><title>Node2&#45;&gt;Node3</title>
<path fill="none" stroke="midnightblue" d="M219.319,-222.112C245.021,-234.92 282.816,-253.753 309.135,-266.869"/>
<polygon fill="midnightblue" stroke="midnightblue" points="220.621,-218.85 210.11,-217.523 217.499,-225.115 220.621,-218.85"/>
</g>
<!-- Node10 -->
<g id="node10" class="node"><title>Node10</title>
<g id="a_node10"><a xlink:href="namespacesll__m__periodic__interp.html#af13c2d535538f2d6ca1e3e7b40b38139" target="_top" xlink:title="sll_m_periodic_interp\l::sll_s_periodic_interp">
<polygon fill="white" stroke="black" points="285,-93 285,-123 396,-123 396,-93 285,-93"/>
<text text-anchor="start" x="293" y="-111" font-family="Helvetica,sans-Serif" font-size="10.00">sll_m_periodic_interp</text>
<text text-anchor="middle" x="340.5" y="-100" font-family="Helvetica,sans-Serif" font-size="10.00">::sll_s_periodic_interp</text>
</a>
</g>
</g>
<!-- Node2&#45;&gt;Node10 -->
<g id="edge9" class="edge"><title>Node2&#45;&gt;Node10</title>
<path fill="none" stroke="midnightblue" d="M213.615,-192.771C241.677,-173.874 289.228,-141.853 317.161,-123.043"/>
<polygon fill="midnightblue" stroke="midnightblue" points="211.578,-189.923 205.239,-198.412 215.488,-195.729 211.578,-189.923"/>
</g>
<!-- Node4 -->
<g id="node4" class="node"><title>Node4</title>
<g id="a_node4"><a xlink:href="namespacesll__m__maxwell__1d__fem.html#a47196627859f2c2d812ad68b15d300fb" target="_top" xlink:title="compute Ey from Bz using weak Ampere formulation ">
<polygon fill="white" stroke="black" points="445.5,-423.5 445.5,-464.5 566.5,-464.5 566.5,-423.5 445.5,-423.5"/>
<text text-anchor="start" x="453.5" y="-452.5" font-family="Helvetica,sans-Serif" font-size="10.00">sll_m_maxwell_1d_fem</text>
<text text-anchor="start" x="453.5" y="-441.5" font-family="Helvetica,sans-Serif" font-size="10.00">::sll_s_compute_e_from</text>
<text text-anchor="middle" x="506" y="-430.5" font-family="Helvetica,sans-Serif" font-size="10.00">_b_1d_fem</text>
</a>
</g>
</g>
<!-- Node3&#45;&gt;Node4 -->
<g id="edge3" class="edge"><title>Node3&#45;&gt;Node4</title>
<path fill="none" stroke="midnightblue" d="M353.414,-306.387C368.836,-335.717 398.265,-384.768 436,-415 439.854,-418.087 444.083,-420.897 448.493,-423.444"/>
<polygon fill="midnightblue" stroke="midnightblue" points="356.407,-304.553 348.73,-297.252 350.179,-307.748 356.407,-304.553"/>
</g>
<!-- Node5 -->
<g id="node5" class="node"><title>Node5</title>
<g id="a_node5"><a xlink:href="namespacesll__m__maxwell__1d__fem.html#a35f67335e750d8c00872ac2599d5bfbe" target="_top" xlink:title="Compute E_i from j_i integrated over the time interval using weak Ampere formulation. ">
<polygon fill="white" stroke="black" points="436,-375 436,-405 576,-405 576,-375 436,-375"/>
<text text-anchor="start" x="444" y="-393" font-family="Helvetica,sans-Serif" font-size="10.00">sll_m_maxwell_1d_fem</text>
<text text-anchor="middle" x="506" y="-382" font-family="Helvetica,sans-Serif" font-size="10.00">::compute_e_from_j_1d_fem</text>
</a>
</g>
</g>
<!-- Node3&#45;&gt;Node5 -->
<g id="edge4" class="edge"><title>Node3&#45;&gt;Node5</title>
<path fill="none" stroke="midnightblue" d="M361.903,-304.521C379.856,-323.187 407.508,-349.28 436,-366 441.688,-369.338 447.912,-372.31 454.22,-374.927"/>
<polygon fill="midnightblue" stroke="midnightblue" points="364.238,-301.895 354.829,-297.025 359.147,-306.7 364.238,-301.895"/>
</g>
<!-- Node6 -->
<g id="node6" class="node"><title>Node6</title>
<g id="a_node6"><a xlink:href="namespacesll__m__maxwell__1d__fem.html#aaeeec4271a275e01eeb77df71a32532c" target="_top" xlink:title="sll_m_maxwell_1d_fem\l::sll_s_compute_e_from\l_rho_1d_fem">
<polygon fill="white" stroke="black" points="445.5,-315.5 445.5,-356.5 566.5,-356.5 566.5,-315.5 445.5,-315.5"/>
<text text-anchor="start" x="453.5" y="-344.5" font-family="Helvetica,sans-Serif" font-size="10.00">sll_m_maxwell_1d_fem</text>
<text text-anchor="start" x="453.5" y="-333.5" font-family="Helvetica,sans-Serif" font-size="10.00">::sll_s_compute_e_from</text>
<text text-anchor="middle" x="506" y="-322.5" font-family="Helvetica,sans-Serif" font-size="10.00">_rho_1d_fem</text>
</a>
</g>
</g>
<!-- Node3&#45;&gt;Node6 -->
<g id="edge5" class="edge"><title>Node3&#45;&gt;Node6</title>
<path fill="none" stroke="midnightblue" d="M396.587,-300.194C412.257,-305.369 429.395,-311.029 445.324,-316.29"/>
<polygon fill="midnightblue" stroke="midnightblue" points="397.637,-296.855 387.044,-297.042 395.442,-303.502 397.637,-296.855"/>
</g>
<!-- Node7 -->
<g id="node7" class="node"><title>Node7</title>
<g id="a_node7"><a xlink:href="namespacesll__m__maxwell__1d__fem.html#af92aa77aac30fa9ad87a4cf10cb88ceb" target="_top" xlink:title="Compute the L2 projection of a given function f on periodic splines of given degree. ">
<polygon fill="white" stroke="black" points="446.5,-267 446.5,-297 565.5,-297 565.5,-267 446.5,-267"/>
<text text-anchor="start" x="454.5" y="-285" font-family="Helvetica,sans-Serif" font-size="10.00">sll_m_maxwell_1d_fem</text>
<text text-anchor="middle" x="506" y="-274" font-family="Helvetica,sans-Serif" font-size="10.00">::l2projection_1d_fem</text>
</a>
</g>
</g>
<!-- Node3&#45;&gt;Node7 -->
<g id="edge6" class="edge"><title>Node3&#45;&gt;Node7</title>
<path fill="none" stroke="midnightblue" d="M410.067,-282C422.112,-282 434.548,-282 446.294,-282"/>
<polygon fill="midnightblue" stroke="midnightblue" points="410.065,-278.5 400.065,-282 410.065,-285.5 410.065,-278.5"/>
</g>
<!-- Node8 -->
<g id="node8" class="node"><title>Node8</title>
<g id="a_node8"><a xlink:href="namespacesll__m__maxwell__1d__fem.html#abfc2b83c57927e44075c5d11b8949235" target="_top" xlink:title="Compute square of the L2norm. ">
<polygon fill="white" stroke="black" points="441.5,-218 441.5,-248 570.5,-248 570.5,-218 441.5,-218"/>
<text text-anchor="start" x="449.5" y="-236" font-family="Helvetica,sans-Serif" font-size="10.00">sll_m_maxwell_1d_fem</text>
<text text-anchor="middle" x="506" y="-225" font-family="Helvetica,sans-Serif" font-size="10.00">::l2norm_squared_1d_fem</text>
</a>
</g>
</g>
<!-- Node3&#45;&gt;Node8 -->
<g id="edge7" class="edge"><title>Node3&#45;&gt;Node8</title>
<path fill="none" stroke="midnightblue" d="M401.938,-263.887C419.32,-258.678 438.084,-253.054 454.777,-248.052"/>
<polygon fill="midnightblue" stroke="midnightblue" points="400.464,-260.675 391.889,-266.899 402.473,-267.38 400.464,-260.675"/>
</g>
<!-- Node9 -->
<g id="node9" class="node"><title>Node9</title>
<g id="a_node9"><a xlink:href="namespacesll__m__maxwell__1d__fem.html#ad6fcfa748c66b9c8573c36a4a38b53c0" target="_top" xlink:title="sll_m_maxwell_1d_fem\l::inner_product_1d_fem">
<polygon fill="white" stroke="black" points="446.5,-169 446.5,-199 565.5,-199 565.5,-169 446.5,-169"/>
<text text-anchor="start" x="454.5" y="-187" font-family="Helvetica,sans-Serif" font-size="10.00">sll_m_maxwell_1d_fem</text>
<text text-anchor="middle" x="506" y="-176" font-family="Helvetica,sans-Serif" font-size="10.00">::inner_product_1d_fem</text>
</a>
</g>
</g>
<!-- Node3&#45;&gt;Node9 -->
<g id="edge8" class="edge"><title>Node3&#45;&gt;Node9</title>
<path fill="none" stroke="midnightblue" d="M365.598,-259.975C383.868,-244.156 410.163,-223.204 436,-209 442.699,-205.317 450.048,-201.987 457.375,-199.047"/>
<polygon fill="midnightblue" stroke="midnightblue" points="362.993,-257.605 357.798,-266.839 367.618,-262.86 362.993,-257.605"/>
</g>
<!-- Node11 -->
<g id="node11" class="node"><title>Node11</title>
<g id="a_node11"><a xlink:href="namespacesll__m__periodic__interpolator__1d.html#ae6f0cb5c46ddb52e2ab53c9c1e65792b" target="_top" xlink:title="sll_m_periodic_interpolator\l_1d::per_interpolate1d_disp">
<polygon fill="white" stroke="black" points="438,-120 438,-150 574,-150 574,-120 438,-120"/>
<text text-anchor="start" x="446" y="-138" font-family="Helvetica,sans-Serif" font-size="10.00">sll_m_periodic_interpolator</text>
<text text-anchor="middle" x="506" y="-127" font-family="Helvetica,sans-Serif" font-size="10.00">_1d::per_interpolate1d_disp</text>
</a>
</g>
</g>
<!-- Node10&#45;&gt;Node11 -->
<g id="edge10" class="edge"><title>Node10&#45;&gt;Node11</title>
<path fill="none" stroke="midnightblue" d="M406.521,-118.737C416.792,-120.434 427.432,-122.191 437.753,-123.895"/>
<polygon fill="midnightblue" stroke="midnightblue" points="406.835,-115.242 396.398,-117.066 405.694,-122.148 406.835,-115.242"/>
</g>
<!-- Node12 -->
<g id="node12" class="node"><title>Node12</title>
<g id="a_node12"><a xlink:href="namespacesll__m__periodic__interpolator__1d.html#afddf771cf26aba1439b7c9068626b0a2" target="_top" xlink:title="sll_m_periodic_interpolator\l_1d::per_interpolate1d_disp\l_inplace">
<polygon fill="white" stroke="black" points="438,-60.5 438,-101.5 574,-101.5 574,-60.5 438,-60.5"/>
<text text-anchor="start" x="446" y="-89.5" font-family="Helvetica,sans-Serif" font-size="10.00">sll_m_periodic_interpolator</text>
<text text-anchor="start" x="446" y="-78.5" font-family="Helvetica,sans-Serif" font-size="10.00">_1d::per_interpolate1d_disp</text>
<text text-anchor="middle" x="506" y="-67.5" font-family="Helvetica,sans-Serif" font-size="10.00">_inplace</text>
</a>
</g>
</g>
<!-- Node10&#45;&gt;Node12 -->
<g id="edge11" class="edge"><title>Node10&#45;&gt;Node12</title>
<path fill="none" stroke="midnightblue" d="M406.521,-97.2626C416.792,-95.5664 427.432,-93.8094 437.753,-92.1051"/>
<polygon fill="midnightblue" stroke="midnightblue" points="405.694,-93.8517 396.398,-98.9343 406.835,-100.758 405.694,-93.8517"/>
</g>
<!-- Node13 -->
<g id="node13" class="node"><title>Node13</title>
<g id="a_node13"><a xlink:href="namespacesll__m__advection__1d__periodic.html#a83e408dd2f8ef25942506b71256ab110" target="_top" xlink:title="sll_m_advection_1d\l_periodic::periodic\l_advect_1d_constant">
<polygon fill="white" stroke="black" points="451,-0.5 451,-41.5 561,-41.5 561,-0.5 451,-0.5"/>
<text text-anchor="start" x="459" y="-29.5" font-family="Helvetica,sans-Serif" font-size="10.00">sll_m_advection_1d</text>
<text text-anchor="start" x="459" y="-18.5" font-family="Helvetica,sans-Serif" font-size="10.00">_periodic::periodic</text>
<text text-anchor="middle" x="506" y="-7.5" font-family="Helvetica,sans-Serif" font-size="10.00">_advect_1d_constant</text>
</a>
</g>
</g>
<!-- Node10&#45;&gt;Node13 -->
<g id="edge12" class="edge"><title>Node10&#45;&gt;Node13</title>
<path fill="none" stroke="midnightblue" d="M373.614,-87.1754C391.622,-75.8708 414.687,-61.9995 436,-51 442.268,-47.765 448.962,-44.56 455.623,-41.5162"/>
<polygon fill="midnightblue" stroke="midnightblue" points="371.271,-84.5169 364.695,-92.8242 375.016,-90.4308 371.271,-84.5169"/>
</g>
</g>
</svg>
