<?xml version="1.0" encoding="UTF-8" standalone="no"?>
<!DOCTYPE svg PUBLIC "-//W3C//DTD SVG 1.1//EN"
 "http://www.w3.org/Graphics/SVG/1.1/DTD/svg11.dtd">
<!-- Generated by graphviz version 2.38.0 (20140413.2041)
 -->
<!-- Title: initialize_poisson_solver Pages: 1 -->
<svg width="316pt" height="154pt"
 viewBox="0.00 0.00 316.00 153.50" xmlns="http://www.w3.org/2000/svg" xmlns:xlink="http://www.w3.org/1999/xlink">
<g id="graph0" class="graph" transform="scale(1 1) rotate(0) translate(4 149.5)">
<title>initialize_poisson_solver</title>
<polygon fill="white" stroke="none" points="-4,4 -4,-149.5 312,-149.5 312,4 -4,4"/>
<!-- Node1 -->
<g id="node1" class="node"><title>Node1</title>
<polygon fill="#bfbfbf" stroke="black" points="0,-63.5 0,-93.5 91,-93.5 91,-63.5 0,-63.5"/>
<text text-anchor="start" x="8" y="-81.5" font-family="Helvetica,sans-Serif" font-size="10.00">initialize_poisson</text>
<text text-anchor="middle" x="45.5" y="-70.5" font-family="Helvetica,sans-Serif" font-size="10.00">_solver</text>
</g>
<!-- Node2 -->
<g id="node2" class="node"><title>Node2</title>
<g id="a_node2"><a xlink:href="namespacesll__m__poisson__2d__tri.html#a47b12896c284ff2ba17fbcd1bafdb6ac" target="_top" xlink:title="morse">
<polygon fill="white" stroke="black" points="153.5,-126 153.5,-145 197.5,-145 197.5,-126 153.5,-126"/>
<text text-anchor="middle" x="175.5" y="-133" font-family="Helvetica,sans-Serif" font-size="10.00">morse</text>
</a>
</g>
</g>
<!-- Node1&#45;&gt;Node2 -->
<g id="edge1" class="edge"><title>Node1&#45;&gt;Node2</title>
<path fill="none" stroke="midnightblue" d="M77.2637,-93.5571C92.1831,-100.722 110.422,-109.28 127,-116.5 132.293,-118.805 137.96,-121.165 143.471,-123.402"/>
<polygon fill="midnightblue" stroke="midnightblue" points="142.521,-126.792 153.105,-127.26 145.123,-120.294 142.521,-126.792"/>
</g>
<!-- Node3 -->
<g id="node3" class="node"><title>Node3</title>
<g id="a_node3"><a xlink:href="namespacesll__m__poisson__2d__tri.html#ab5aad2c85eda5c4666b2c7302535c8f6" target="_top" xlink:title="profil">
<polygon fill="white" stroke="black" points="156.5,-88 156.5,-107 194.5,-107 194.5,-88 156.5,-88"/>
<text text-anchor="middle" x="175.5" y="-95" font-family="Helvetica,sans-Serif" font-size="10.00">profil</text>
</a>
</g>
</g>
<!-- Node1&#45;&gt;Node3 -->
<g id="edge2" class="edge"><title>Node1&#45;&gt;Node3</title>
<path fill="none" stroke="midnightblue" d="M91.2682,-85.1453C109.427,-87.8407 129.862,-90.874 145.94,-93.2606"/>
<polygon fill="midnightblue" stroke="midnightblue" points="145.887,-96.791 156.292,-94.7973 146.915,-89.8669 145.887,-96.791"/>
</g>
<!-- Node4 -->
<g id="node4" class="node"><title>Node4</title>
<g id="a_node4"><a xlink:href="namespacesll__m__poisson__2d__tri.html#a5806fd9163da9d11b6286801974cb41f" target="_top" xlink:title="poismc">
<polygon fill="white" stroke="black" points="151.5,-50 151.5,-69 199.5,-69 199.5,-50 151.5,-50"/>
<text text-anchor="middle" x="175.5" y="-57" font-family="Helvetica,sans-Serif" font-size="10.00">poismc</text>
</a>
</g>
</g>
<!-- Node1&#45;&gt;Node4 -->
<g id="edge3" class="edge"><title>Node1&#45;&gt;Node4</title>
<path fill="none" stroke="midnightblue" d="M91.2682,-71.8547C107.669,-69.4202 125.928,-66.7099 141.155,-64.4496"/>
<polygon fill="midnightblue" stroke="midnightblue" points="141.775,-67.896 151.153,-62.9656 140.748,-60.9719 141.775,-67.896"/>
</g>
<!-- Node8 -->
<g id="node8" class="node"><title>Node8</title>
<g id="a_node8"><a xlink:href="namespacesll__m__choleski.html#a58caa9212cd8ec915ad24478ad5b2742" target="_top" xlink:title="sll_m_choleski::sll\l_s_choles">
<polygon fill="white" stroke="black" points="127,-0.5 127,-30.5 224,-30.5 224,-0.5 127,-0.5"/>
<text text-anchor="start" x="135" y="-18.5" font-family="Helvetica,sans-Serif" font-size="10.00">sll_m_choleski::sll</text>
<text text-anchor="middle" x="175.5" y="-7.5" font-family="Helvetica,sans-Serif" font-size="10.00">_s_choles</text>
</a>
</g>
</g>
<!-- Node1&#45;&gt;Node8 -->
<g id="edge7" class="edge"><title>Node1&#45;&gt;Node8</title>
<path fill="none" stroke="midnightblue" d="M77.1592,-63.4099C94.3688,-54.9396 116.041,-44.2729 134.565,-35.1556"/>
<polygon fill="midnightblue" stroke="midnightblue" points="136.221,-38.2416 143.647,-30.6853 133.13,-31.9611 136.221,-38.2416"/>
</g>
<!-- Node5 -->
<g id="node5" class="node"><title>Node5</title>
<g id="a_node5"><a xlink:href="namespacesll__m__poisson__2d__tri.html#adc7c2ff49cf1889e0efc2731b46df97d" target="_top" xlink:title="asbld">
<polygon fill="white" stroke="black" points="264,-88 264,-107 304,-107 304,-88 264,-88"/>
<text text-anchor="middle" x="284" y="-95" font-family="Helvetica,sans-Serif" font-size="10.00">asbld</text>
</a>
</g>
</g>
<!-- Node4&#45;&gt;Node5 -->
<g id="edge4" class="edge"><title>Node4&#45;&gt;Node5</title>
<path fill="none" stroke="midnightblue" d="M199.609,-67.7454C215.667,-73.475 237.177,-81.1502 254.329,-87.2701"/>
<polygon fill="midnightblue" stroke="midnightblue" points="253.256,-90.6031 263.85,-90.6673 255.608,-84.0102 253.256,-90.6031"/>
</g>
<!-- Node6 -->
<g id="node6" class="node"><title>Node6</title>
<g id="a_node6"><a xlink:href="namespacesll__m__poisson__2d__tri.html#a0b9ccd191cd095ff48b73c95aa0100aa" target="_top" xlink:title="asblp">
<polygon fill="white" stroke="black" points="264,-50 264,-69 304,-69 304,-50 264,-50"/>
<text text-anchor="middle" x="284" y="-57" font-family="Helvetica,sans-Serif" font-size="10.00">asblp</text>
</a>
</g>
</g>
<!-- Node4&#45;&gt;Node6 -->
<g id="edge5" class="edge"><title>Node4&#45;&gt;Node6</title>
<path fill="none" stroke="midnightblue" d="M199.609,-59.5C215.517,-59.5 236.776,-59.5 253.847,-59.5"/>
<polygon fill="midnightblue" stroke="midnightblue" points="253.85,-63.0001 263.85,-59.5 253.85,-56.0001 253.85,-63.0001"/>
</g>
<!-- Node7 -->
<g id="node7" class="node"><title>Node7</title>
<g id="a_node7"><a xlink:href="namespacesll__m__poisson__2d__tri.html#a99351a5329a5f2aaabd4b3047814b01f" target="_top" xlink:title="asblm2">
<polygon fill="white" stroke="black" points="260,-12 260,-31 308,-31 308,-12 260,-12"/>
<text text-anchor="middle" x="284" y="-19" font-family="Helvetica,sans-Serif" font-size="10.00">asblm2</text>
</a>
</g>
</g>
<!-- Node4&#45;&gt;Node7 -->
<g id="edge6" class="edge"><title>Node4&#45;&gt;Node7</title>
<path fill="none" stroke="midnightblue" d="M199.609,-51.2546C214.402,-45.9762 233.823,-39.0467 250.201,-33.203"/>
<polygon fill="midnightblue" stroke="midnightblue" points="251.694,-36.3864 259.936,-29.7293 249.342,-29.7935 251.694,-36.3864"/>
</g>
</g>
</svg>
