<?xml version="1.0" encoding="UTF-8" standalone="no"?>
<!DOCTYPE svg PUBLIC "-//W3C//DTD SVG 1.1//EN"
 "http://www.w3.org/Graphics/SVG/1.1/DTD/svg11.dtd">
<!-- Generated by graphviz version 2.43.0 (0)
 -->
<!-- Title: evaluate_field_single_spline_pp_2d_feec Pages: 1 -->
<svg width="462pt" height="78pt"
 viewBox="0.00 0.00 462.00 77.50" xmlns="http://www.w3.org/2000/svg" xmlns:xlink="http://www.w3.org/1999/xlink">
<g id="graph0" class="graph" transform="scale(1 1) rotate(0) translate(4 73.5)">
<title>evaluate_field_single_spline_pp_2d_feec</title>
<polygon fill="white" stroke="transparent" points="-4,4 -4,-73.5 458,-73.5 458,4 -4,4"/>
<!-- Node1 -->
<g id="node1" class="node">
<title>Node1</title>
<g id="a_node1"><a xlink:title="Evaluate field at at position position.">
<polygon fill="#bfbfbf" stroke="black" points="0,-22.5 0,-52.5 120,-52.5 120,-22.5 0,-22.5"/>
<text text-anchor="start" x="8" y="-40.5" font-family="Helvetica,sans-Serif" font-size="10.00">evaluate_field_single</text>
<text text-anchor="middle" x="60" y="-29.5" font-family="Helvetica,sans-Serif" font-size="10.00">_spline_pp_2d_feec</text>
</a>
</g>
</g>
<!-- Node2 -->
<g id="node2" class="node">
<title>Node2</title>
<g id="a_node2"><a xlink:href="namespacesll__m__particle__mesh__coupling__spline__2d__feec.html#a81cd837d9e71ab24c22efd9ad75a07d9" target="_top" xlink:title=" ">
<polygon fill="white" stroke="black" points="167,-50 167,-69 276,-69 276,-50 167,-50"/>
<text text-anchor="middle" x="221.5" y="-57" font-family="Helvetica,sans-Serif" font-size="10.00">convert_x_to_xbox</text>
</a>
</g>
</g>
<!-- Node1&#45;&gt;Node2 -->
<g id="edge1" class="edge">
<title>Node1&#45;&gt;Node2</title>
<path fill="none" stroke="midnightblue" d="M120.39,-45.69C132.29,-47.33 144.84,-49.06 156.88,-50.73"/>
<polygon fill="midnightblue" stroke="midnightblue" points="156.46,-54.2 166.85,-52.1 157.42,-47.27 156.46,-54.2"/>
</g>
<!-- Node3 -->
<g id="node3" class="node">
<title>Node3</title>
<g id="a_node3"><a xlink:href="namespacesll__m__splines__pp.html#a0e728b131757d9606adbb1227354c22a" target="_top" xlink:title="Perform a 2d hornerschema on the pp_coeffs at the indices.">
<polygon fill="white" stroke="black" points="156,-0.5 156,-30.5 287,-30.5 287,-0.5 156,-0.5"/>
<text text-anchor="start" x="164" y="-18.5" font-family="Helvetica,sans-Serif" font-size="10.00">sll_m_splines_pp::sll</text>
<text text-anchor="middle" x="221.5" y="-7.5" font-family="Helvetica,sans-Serif" font-size="10.00">_f_spline_pp_horner_2d</text>
</a>
</g>
</g>
<!-- Node1&#45;&gt;Node3 -->
<g id="edge2" class="edge">
<title>Node1&#45;&gt;Node3</title>
<path fill="none" stroke="midnightblue" d="M120.39,-29.31C128.73,-28.16 137.39,-26.96 145.97,-25.78"/>
<polygon fill="midnightblue" stroke="midnightblue" points="146.55,-29.23 155.97,-24.4 145.59,-22.3 146.55,-29.23"/>
</g>
<!-- Node4 -->
<g id="node4" class="node">
<title>Node4</title>
<g id="a_node4"><a xlink:href="namespacesll__m__splines__pp.html#ab63c3a25b861ed9b8701ae2f65942bcf" target="_top" xlink:title="Perform a 1d hornerschema on the pp_coeffs at index.">
<polygon fill="white" stroke="black" points="323,-0.5 323,-30.5 454,-30.5 454,-0.5 323,-0.5"/>
<text text-anchor="start" x="331" y="-18.5" font-family="Helvetica,sans-Serif" font-size="10.00">sll_m_splines_pp::sll</text>
<text text-anchor="middle" x="388.5" y="-7.5" font-family="Helvetica,sans-Serif" font-size="10.00">_f_spline_pp_horner_1d</text>
</a>
</g>
</g>
<!-- Node3&#45;&gt;Node4 -->
<g id="edge3" class="edge">
<title>Node3&#45;&gt;Node4</title>
<path fill="none" stroke="midnightblue" d="M287.24,-15.5C295.58,-15.5 304.18,-15.5 312.67,-15.5"/>
<polygon fill="midnightblue" stroke="midnightblue" points="312.95,-19 322.95,-15.5 312.95,-12 312.95,-19"/>
</g>
</g>
</svg>
