<?xml version="1.0" encoding="UTF-8" standalone="no"?>
<!DOCTYPE svg PUBLIC "-//W3C//DTD SVG 1.1//EN"
 "http://www.w3.org/Graphics/SVG/1.1/DTD/svg11.dtd">
<!-- Generated by graphviz version 2.40.1 (20161225.0304)
 -->
<!-- Title: sll_f_gauss_lobatto_points Pages: 1 -->
<svg width="972pt" height="441pt"
 viewBox="0.00 0.00 972.00 441.00" xmlns="http://www.w3.org/2000/svg" xmlns:xlink="http://www.w3.org/1999/xlink">
<g id="graph0" class="graph" transform="scale(1 1) rotate(0) translate(4 437)">
<title>sll_f_gauss_lobatto_points</title>
<polygon fill="#ffffff" stroke="transparent" points="-4,4 -4,-437 968,-437 968,4 -4,4"/>
<!-- Node54 -->
<g id="node1" class="node">
<title>Node54</title>
<polygon fill="#bfbfbf" stroke="#000000" points="0,-240.5 0,-270.5 110,-270.5 110,-240.5 0,-240.5"/>
<text text-anchor="start" x="8" y="-258.5" font-family="Helvetica,sans-Serif" font-size="10.00" fill="#000000">sll_f_gauss_lobatto</text>
<text text-anchor="middle" x="55" y="-247.5" font-family="Helvetica,sans-Serif" font-size="10.00" fill="#000000">_points</text>
</g>
<!-- Node55 -->
<g id="node2" class="node">
<title>Node55</title>
<g id="a_node2"><a xlink:href="namespacesll__m__dg__fields.html#a66ffd9f6cf3e20a707f967e4cb457d30" target="_top" xlink:title="sll_m_dg_fields::sll\l_s_dg_field_2d_init">
<polygon fill="#ffffff" stroke="#000000" points="167.5,-402.5 167.5,-432.5 276.5,-432.5 276.5,-402.5 167.5,-402.5"/>
<text text-anchor="start" x="175.5" y="-420.5" font-family="Helvetica,sans-Serif" font-size="10.00" fill="#000000">sll_m_dg_fields::sll</text>
<text text-anchor="middle" x="222" y="-409.5" font-family="Helvetica,sans-Serif" font-size="10.00" fill="#000000">_s_dg_field_2d_init</text>
</a>
</g>
</g>
<!-- Node54&#45;&gt;Node55 -->
<g id="edge1" class="edge">
<title>Node54&#45;&gt;Node55</title>
<path fill="none" stroke="#191970" d="M66.1872,-279.8505C80.7515,-309.1065 108.804,-357.9348 146,-387.5 153.5511,-393.502 162.4531,-398.4322 171.4553,-402.4364"/>
<polygon fill="#191970" stroke="#191970" points="69.2811,-278.2089 61.7714,-270.7353 62.9814,-281.2608 69.2811,-278.2089"/>
</g>
<!-- Node56 -->
<g id="node3" class="node">
<title>Node56</title>
<g id="a_node3"><a xlink:href="namespacesll__m__maxwell__2d__diga.html#aea7962198b6305c1256087d5a9e5c8fe" target="_top" xlink:title="Initialize Maxwell solver object using DG method. ">
<polygon fill="#ffffff" stroke="#000000" points="357,-287.5 357,-317.5 513,-317.5 513,-287.5 357,-287.5"/>
<text text-anchor="start" x="365" y="-305.5" font-family="Helvetica,sans-Serif" font-size="10.00" fill="#000000">sll_m_maxwell_2d_diga</text>
<text text-anchor="middle" x="435" y="-294.5" font-family="Helvetica,sans-Serif" font-size="10.00" fill="#000000">::sll_s_maxwell_2d_diga_init</text>
</a>
</g>
</g>
<!-- Node54&#45;&gt;Node56 -->
<g id="edge6" class="edge">
<title>Node54&#45;&gt;Node56</title>
<path fill="none" stroke="#191970" d="M68.7145,-279.471C84.038,-303.5707 111.3139,-339.2699 146,-354.5 236.0883,-394.0564 354.6006,-344.4137 407.4749,-317.5845"/>
<polygon fill="#191970" stroke="#191970" points="71.6496,-277.5621 63.4363,-270.8693 65.6833,-281.2231 71.6496,-277.5621"/>
</g>
<!-- Node58 -->
<g id="node5" class="node">
<title>Node58</title>
<g id="a_node5"><a xlink:href="namespacesll__m__dg__fields.html#afd907112b47b1a216f2bc3af0bdc9e44" target="_top" xlink:title="sll_m_dg_fields::sll\l_f_new_dg_field_2d">
<polygon fill="#ffffff" stroke="#000000" points="166,-314.5 166,-344.5 278,-344.5 278,-314.5 166,-314.5"/>
<text text-anchor="start" x="174" y="-332.5" font-family="Helvetica,sans-Serif" font-size="10.00" fill="#000000">sll_m_dg_fields::sll</text>
<text text-anchor="middle" x="222" y="-321.5" font-family="Helvetica,sans-Serif" font-size="10.00" fill="#000000">_f_new_dg_field_2d</text>
</a>
</g>
</g>
<!-- Node54&#45;&gt;Node58 -->
<g id="edge4" class="edge">
<title>Node54&#45;&gt;Node58</title>
<path fill="none" stroke="#191970" d="M88.3586,-275.8925C105.2379,-285.6734 126.282,-297.0668 146,-305.5 153.506,-308.7103 161.589,-311.7156 169.5843,-314.4399"/>
<polygon fill="#191970" stroke="#191970" points="89.8393,-272.7031 79.4445,-270.6536 86.2924,-278.738 89.8393,-272.7031"/>
</g>
<!-- Node59 -->
<g id="node6" class="node">
<title>Node59</title>
<g id="a_node6"><a xlink:href="namespacesll__m__gyroaverage__utilities.html#ace9ca74c71712dea32a595db9b2585fa" target="_top" xlink:title="sll_m_gyroaverage_utilities\l::sll_s_compute_mu">
<polygon fill="#ffffff" stroke="#000000" points="146,-265.5 146,-295.5 298,-295.5 298,-265.5 146,-265.5"/>
<text text-anchor="start" x="154" y="-283.5" font-family="Helvetica,sans-Serif" font-size="10.00" fill="#000000">sll_m_gyroaverage_utilities</text>
<text text-anchor="middle" x="222" y="-272.5" font-family="Helvetica,sans-Serif" font-size="10.00" fill="#000000">::sll_s_compute_mu</text>
</a>
</g>
</g>
<!-- Node54&#45;&gt;Node59 -->
<g id="edge5" class="edge">
<title>Node54&#45;&gt;Node59</title>
<path fill="none" stroke="#191970" d="M120.2079,-265.2617C128.5826,-266.5154 137.2155,-267.8077 145.7467,-269.0848"/>
<polygon fill="#191970" stroke="#191970" points="120.5529,-261.7744 110.1449,-263.7552 119.5165,-268.6972 120.5529,-261.7744"/>
</g>
<!-- Node60 -->
<g id="node7" class="node">
<title>Node60</title>
<g id="a_node7"><a xlink:href="namespacesll__m__maxwell__2d__diga.html#aaf2e3de1e3a109d93be64114e8abeb03" target="_top" xlink:title="Compute cell normals. ">
<polygon fill="#ffffff" stroke="#000000" points="155,-216.5 155,-246.5 289,-246.5 289,-216.5 155,-216.5"/>
<text text-anchor="start" x="163" y="-234.5" font-family="Helvetica,sans-Serif" font-size="10.00" fill="#000000">sll_m_maxwell_2d_diga</text>
<text text-anchor="middle" x="222" y="-223.5" font-family="Helvetica,sans-Serif" font-size="10.00" fill="#000000">::compute_normals</text>
</a>
</g>
</g>
<!-- Node54&#45;&gt;Node60 -->
<g id="edge7" class="edge">
<title>Node54&#45;&gt;Node60</title>
<path fill="none" stroke="#191970" d="M120.0676,-246.149C131.5282,-244.5019 143.4764,-242.7848 154.9891,-241.1303"/>
<polygon fill="#191970" stroke="#191970" points="119.5453,-242.688 110.1449,-247.575 120.5411,-249.6168 119.5453,-242.688"/>
</g>
<!-- Node61 -->
<g id="node8" class="node">
<title>Node61</title>
<g id="a_node8"><a xlink:href="namespacesll__m__dg__interpolator__1d.html#aab53d5893320fe81960e78fc061d7239" target="_top" xlink:title="sll_m_dg_interpolator\l_1d::sll_s_dg_interpolator\l_1d_init">
<polygon fill="#ffffff" stroke="#000000" points="151.5,-156 151.5,-197 292.5,-197 292.5,-156 151.5,-156"/>
<text text-anchor="start" x="159.5" y="-185" font-family="Helvetica,sans-Serif" font-size="10.00" fill="#000000">sll_m_dg_interpolator</text>
<text text-anchor="start" x="159.5" y="-174" font-family="Helvetica,sans-Serif" font-size="10.00" fill="#000000">_1d::sll_s_dg_interpolator</text>
<text text-anchor="middle" x="222" y="-163" font-family="Helvetica,sans-Serif" font-size="10.00" fill="#000000">_1d_init</text>
</a>
</g>
</g>
<!-- Node54&#45;&gt;Node61 -->
<g id="edge9" class="edge">
<title>Node54&#45;&gt;Node61</title>
<path fill="none" stroke="#191970" d="M90.9418,-235.4994C107.5144,-226.5482 127.5607,-216.0985 146,-207.5 153.6197,-203.9468 161.764,-200.3848 169.7863,-197.0069"/>
<polygon fill="#191970" stroke="#191970" points="89.2357,-232.4431 82.1245,-240.2968 92.5813,-238.5919 89.2357,-232.4431"/>
</g>
<!-- Node62 -->
<g id="node9" class="node">
<title>Node62</title>
<g id="a_node9"><a xlink:href="namespacesll__m__gauss__lobatto__integration.html#abde325bec9e6c51c78f56ecc3bb075d5" target="_top" xlink:title="Returns a 2d array of size (2,n) containing gauss&#45;lobatto points and weights in the interval [a...">
<polygon fill="#ffffff" stroke="#000000" points="162.5,-57.5 162.5,-87.5 281.5,-87.5 281.5,-57.5 162.5,-57.5"/>
<text text-anchor="start" x="170.5" y="-75.5" font-family="Helvetica,sans-Serif" font-size="10.00" fill="#000000">sll_f_gauss_lobatto</text>
<text text-anchor="middle" x="222" y="-64.5" font-family="Helvetica,sans-Serif" font-size="10.00" fill="#000000">_points_and_weights</text>
</a>
</g>
</g>
<!-- Node54&#45;&gt;Node62 -->
<g id="edge10" class="edge">
<title>Node54&#45;&gt;Node62</title>
<path fill="none" stroke="#191970" d="M62.9135,-230.6495C75.2116,-195.9305 102.164,-133.1682 146,-97.5 150.956,-93.4674 156.5849,-90.0768 162.4847,-87.2277"/>
<polygon fill="#191970" stroke="#191970" points="59.4819,-229.8685 59.5649,-240.463 66.1069,-232.1292 59.4819,-229.8685"/>
</g>
<!-- Node68 -->
<g id="node15" class="node">
<title>Node68</title>
<g id="a_node15"><a xlink:href="namespacesll__m__gauss__lobatto__integration.html#a094e30fa9676b7845eb9d5bb58451496" target="_top" xlink:title="Construction of the derivative matrix for Gauss&#45;Lobatto, The matrix must be already allocated of size...">
<polygon fill="#ffffff" stroke="#000000" points="167,-106.5 167,-136.5 277,-136.5 277,-106.5 167,-106.5"/>
<text text-anchor="start" x="175" y="-124.5" font-family="Helvetica,sans-Serif" font-size="10.00" fill="#000000">sll_f_gauss_lobatto</text>
<text text-anchor="middle" x="222" y="-113.5" font-family="Helvetica,sans-Serif" font-size="10.00" fill="#000000">_derivative_matrix</text>
</a>
</g>
</g>
<!-- Node54&#45;&gt;Node68 -->
<g id="edge16" class="edge">
<title>Node54&#45;&gt;Node68</title>
<path fill="none" stroke="#191970" d="M69.3546,-231.4008C85.2035,-206.749 112.9056,-168.9704 146,-146.5 152.3203,-142.2087 159.4328,-138.6073 166.7055,-135.5975"/>
<polygon fill="#191970" stroke="#191970" points="66.2182,-229.8146 63.8742,-240.1469 72.1499,-233.5315 66.2182,-229.8146"/>
</g>
<!-- Node55&#45;&gt;Node56 -->
<g id="edge2" class="edge">
<title>Node55&#45;&gt;Node56</title>
<path fill="none" stroke="#191970" d="M273.3453,-398.6889C281.6982,-395.2149 290.1722,-391.4334 298,-387.5 340.5182,-366.1351 386.9811,-335.6622 413.3999,-317.5994"/>
<polygon fill="#191970" stroke="#191970" points="271.961,-395.4733 264.007,-402.4722 274.5895,-401.9611 271.961,-395.4733"/>
</g>
<!-- Node57 -->
<g id="node4" class="node">
<title>Node57</title>
<g id="a_node4"><a xlink:href="namespacesll__m__maxwell__2d__diga.html#a757b8a57dde51f462e899778a250a81d" target="_top" xlink:title="sll_m_maxwell_2d_diga\l::sll_f_new_maxwell_2d_diga">
<polygon fill="#ffffff" stroke="#000000" points="572,-287.5 572,-317.5 731,-317.5 731,-287.5 572,-287.5"/>
<text text-anchor="start" x="580" y="-305.5" font-family="Helvetica,sans-Serif" font-size="10.00" fill="#000000">sll_m_maxwell_2d_diga</text>
<text text-anchor="middle" x="651.5" y="-294.5" font-family="Helvetica,sans-Serif" font-size="10.00" fill="#000000">::sll_f_new_maxwell_2d_diga</text>
</a>
</g>
</g>
<!-- Node56&#45;&gt;Node57 -->
<g id="edge3" class="edge">
<title>Node56&#45;&gt;Node57</title>
<path fill="none" stroke="#191970" d="M523.5941,-302.5C539.6237,-302.5 556.2483,-302.5 571.9976,-302.5"/>
<polygon fill="#191970" stroke="#191970" points="523.1615,-299.0001 513.1615,-302.5 523.1614,-306.0001 523.1615,-299.0001"/>
</g>
<!-- Node60&#45;&gt;Node56 -->
<g id="edge8" class="edge">
<title>Node60&#45;&gt;Node56</title>
<path fill="none" stroke="#191970" d="M277.7482,-249.7948C284.572,-252.0469 291.4465,-254.3219 298,-256.5 328.8328,-266.7474 363.5289,-278.3984 390.2899,-287.4107"/>
<polygon fill="#191970" stroke="#191970" points="278.4234,-246.3321 267.8303,-246.5254 276.2319,-252.9802 278.4234,-246.3321"/>
</g>
<!-- Node63 -->
<g id="node10" class="node">
<title>Node63</title>
<g id="a_node10"><a xlink:href="namespacesll__m__general__coordinate__elliptic__solver__multipatch.html#ae9b2728b7fc567b24d783dc03390c489" target="_top" xlink:title="Initialization for elleptic solver multipatch. ">
<polygon fill="#ffffff" stroke="#000000" points="334,-82 334,-123 536,-123 536,-82 334,-82"/>
<text text-anchor="start" x="342" y="-111" font-family="Helvetica,sans-Serif" font-size="10.00" fill="#000000">sll_m_general_coordinate</text>
<text text-anchor="start" x="342" y="-100" font-family="Helvetica,sans-Serif" font-size="10.00" fill="#000000">_elliptic_solver_multipatch</text>
<text text-anchor="middle" x="435" y="-89" font-family="Helvetica,sans-Serif" font-size="10.00" fill="#000000">::sll_s_general_elliptic_solver_mp_init</text>
</a>
</g>
</g>
<!-- Node62&#45;&gt;Node63 -->
<g id="edge11" class="edge">
<title>Node62&#45;&gt;Node63</title>
<path fill="none" stroke="#191970" d="M291.7234,-82.3202C305.1914,-84.2171 319.5539,-86.24 333.7901,-88.2451"/>
<polygon fill="#191970" stroke="#191970" points="292.006,-78.8255 281.6156,-80.8966 291.0297,-85.7571 292.006,-78.8255"/>
</g>
<!-- Node64 -->
<g id="node11" class="node">
<title>Node64</title>
<g id="a_node11"><a xlink:href="namespacesll__m__general__coordinate__elliptic__solver.html#aa97e7df003acbee3a05797610354c09d" target="_top" xlink:title="sll_m_general_coordinate\l_elliptic_solver::compute\l_b_spline_and_deriv_at_x">
<polygon fill="#ffffff" stroke="#000000" points="364,-22 364,-63 506,-63 506,-22 364,-22"/>
<text text-anchor="start" x="372" y="-51" font-family="Helvetica,sans-Serif" font-size="10.00" fill="#000000">sll_m_general_coordinate</text>
<text text-anchor="start" x="372" y="-40" font-family="Helvetica,sans-Serif" font-size="10.00" fill="#000000">_elliptic_solver::compute</text>
<text text-anchor="middle" x="435" y="-29" font-family="Helvetica,sans-Serif" font-size="10.00" fill="#000000">_b_spline_and_deriv_at_x</text>
</a>
</g>
</g>
<!-- Node62&#45;&gt;Node64 -->
<g id="edge12" class="edge">
<title>Node62&#45;&gt;Node64</title>
<path fill="none" stroke="#191970" d="M291.6739,-62.6868C314.7575,-59.4356 340.4734,-55.8136 363.679,-52.5452"/>
<polygon fill="#191970" stroke="#191970" points="291.0297,-59.2429 281.6156,-64.1034 292.006,-66.1745 291.0297,-59.2429"/>
</g>
<!-- Node65 -->
<g id="node12" class="node">
<title>Node65</title>
<g id="a_node12"><a xlink:href="namespacesll__m__general__coordinate__elliptic__solver.html#a27d90b4a6ca26e6014ca4db59a27eda1" target="_top" xlink:title="sll_m_general_coordinate\l_elliptic_solver::compute\l_global_splines_indices">
<polygon fill="#ffffff" stroke="#000000" points="580.5,-22 580.5,-63 722.5,-63 722.5,-22 580.5,-22"/>
<text text-anchor="start" x="588.5" y="-51" font-family="Helvetica,sans-Serif" font-size="10.00" fill="#000000">sll_m_general_coordinate</text>
<text text-anchor="start" x="588.5" y="-40" font-family="Helvetica,sans-Serif" font-size="10.00" fill="#000000">_elliptic_solver::compute</text>
<text text-anchor="middle" x="651.5" y="-29" font-family="Helvetica,sans-Serif" font-size="10.00" fill="#000000">_global_splines_indices</text>
</a>
</g>
</g>
<!-- Node64&#45;&gt;Node65 -->
<g id="edge13" class="edge">
<title>Node64&#45;&gt;Node65</title>
<path fill="none" stroke="#191970" d="M516.3709,-42.5C537.3762,-42.5 559.823,-42.5 580.2672,-42.5"/>
<polygon fill="#191970" stroke="#191970" points="516.1901,-39.0001 506.1901,-42.5 516.19,-46.0001 516.1901,-39.0001"/>
</g>
<!-- Node66 -->
<g id="node13" class="node">
<title>Node66</title>
<g id="a_node13"><a xlink:href="namespacesll__m__general__coordinate__elliptic__solver.html#a13e1428f9465e72bbf96682e92f305f8" target="_top" xlink:title="Assemble the matrix for elliptic solver. ">
<polygon fill="#ffffff" stroke="#000000" points="777.5,-50 777.5,-91 953.5,-91 953.5,-50 777.5,-50"/>
<text text-anchor="start" x="785.5" y="-79" font-family="Helvetica,sans-Serif" font-size="10.00" fill="#000000">sll_m_general_coordinate</text>
<text text-anchor="start" x="785.5" y="-68" font-family="Helvetica,sans-Serif" font-size="10.00" fill="#000000">_elliptic_solver::solve</text>
<text text-anchor="middle" x="865.5" y="-57" font-family="Helvetica,sans-Serif" font-size="10.00" fill="#000000">_general_coordinates_elliptic_eq</text>
</a>
</g>
</g>
<!-- Node65&#45;&gt;Node66 -->
<g id="edge14" class="edge">
<title>Node65&#45;&gt;Node66</title>
<path fill="none" stroke="#191970" d="M732.7451,-53.1302C747.3476,-55.0408 762.6305,-57.0404 777.4157,-58.975"/>
<polygon fill="#191970" stroke="#191970" points="733.1285,-49.6506 722.7589,-51.8236 732.2203,-56.5915 733.1285,-49.6506"/>
</g>
<!-- Node67 -->
<g id="node14" class="node">
<title>Node67</title>
<g id="a_node14"><a xlink:href="namespacesll__m__general__coordinate__elliptic__solver.html#a17eb78399c10cd0dcdd31c4bf2cb72e6" target="_top" xlink:title="sll_m_general_coordinate\l_elliptic_solver::initconnectivity_new">
<polygon fill="#ffffff" stroke="#000000" points="767,-.5 767,-30.5 964,-30.5 964,-.5 767,-.5"/>
<text text-anchor="start" x="775" y="-18.5" font-family="Helvetica,sans-Serif" font-size="10.00" fill="#000000">sll_m_general_coordinate</text>
<text text-anchor="middle" x="865.5" y="-7.5" font-family="Helvetica,sans-Serif" font-size="10.00" fill="#000000">_elliptic_solver::initconnectivity_new</text>
</a>
</g>
</g>
<!-- Node65&#45;&gt;Node67 -->
<g id="edge15" class="edge">
<title>Node65&#45;&gt;Node67</title>
<path fill="none" stroke="#191970" d="M732.8153,-32.2406C743.9015,-30.8419 755.3786,-29.3938 766.7313,-27.9615"/>
<polygon fill="#191970" stroke="#191970" points="732.2421,-28.7851 722.7589,-33.5094 733.1184,-35.73 732.2421,-28.7851"/>
</g>
<!-- Node68&#45;&gt;Node56 -->
<g id="edge17" class="edge">
<title>Node68&#45;&gt;Node56</title>
<path fill="none" stroke="#191970" d="M286.6257,-139.9993C290.5864,-141.969 294.4149,-144.1308 298,-146.5 356.9397,-185.4512 405.9349,-256.2027 425.6637,-287.2278"/>
<polygon fill="#191970" stroke="#191970" points="287.7508,-136.6672 277.1962,-135.7443 284.8716,-143.0477 287.7508,-136.6672"/>
</g>
</g>
</svg>
