<?xml version="1.0" encoding="UTF-8" standalone="no"?>
<!DOCTYPE svg PUBLIC "-//W3C//DTD SVG 1.1//EN"
 "http://www.w3.org/Graphics/SVG/1.1/DTD/svg11.dtd">
<!-- Generated by graphviz version 2.38.0 (20140413.2041)
 -->
<!-- Title: allocate_compressed_buffer_index_arrays Pages: 1 -->
<svg width="278pt" height="66pt"
 viewBox="0.00 0.00 278.00 66.00" xmlns="http://www.w3.org/2000/svg" xmlns:xlink="http://www.w3.org/1999/xlink">
<g id="graph0" class="graph" transform="scale(1 1) rotate(0) translate(4 62)">
<title>allocate_compressed_buffer_index_arrays</title>
<polygon fill="white" stroke="none" points="-4,4 -4,-62 274,-62 274,4 -4,4"/>
<!-- Node1 -->
<g id="node1" class="node"><title>Node1</title>
<polygon fill="#bfbfbf" stroke="black" points="0,-14 0,-44 109,-44 109,-14 0,-14"/>
<text text-anchor="start" x="8" y="-32" font-family="Helvetica,sans-Serif" font-size="10.00">allocate_compressed</text>
<text text-anchor="middle" x="54.5" y="-21" font-family="Helvetica,sans-Serif" font-size="10.00">_buffer_index_arrays</text>
</g>
<!-- Node2 -->
<g id="node2" class="node"><title>Node2</title>
<g id="a_node2"><a xlink:href="namespacesll__m__compression.html#a6d61e5384cf55387f7f96cdccb330951" target="_top" xlink:title="compress buffer ">
<polygon fill="white" stroke="black" points="154,-38.5 154,-57.5 261,-57.5 261,-38.5 154,-38.5"/>
<text text-anchor="middle" x="207.5" y="-45.5" font-family="Helvetica,sans-Serif" font-size="10.00">deflate_buffer_real64</text>
</a>
</g>
</g>
<!-- Node1&#45;&gt;Node2 -->
<g id="edge1" class="edge"><title>Node1&#45;&gt;Node2</title>
<path fill="none" stroke="midnightblue" d="M119.168,-37.0111C130.695,-38.4617 142.601,-39.9597 153.772,-41.3654"/>
<polygon fill="midnightblue" stroke="midnightblue" points="119.521,-33.5281 109.162,-35.7522 118.647,-40.4733 119.521,-33.5281"/>
</g>
<!-- Node3 -->
<g id="node3" class="node"><title>Node3</title>
<g id="a_node3"><a xlink:href="namespacesll__m__compression.html#a574b169d9b0553311d7cc1f550eedaec" target="_top" xlink:title="decatenate_index_arrays">
<polygon fill="white" stroke="black" points="145,-0.5 145,-19.5 270,-19.5 270,-0.5 145,-0.5"/>
<text text-anchor="middle" x="207.5" y="-7.5" font-family="Helvetica,sans-Serif" font-size="10.00">decatenate_index_arrays</text>
</a>
</g>
</g>
<!-- Node1&#45;&gt;Node3 -->
<g id="edge2" class="edge"><title>Node1&#45;&gt;Node3</title>
<path fill="none" stroke="midnightblue" d="M119.317,-20.9701C127.747,-19.9094 136.375,-18.8236 144.769,-17.7674"/>
<polygon fill="midnightblue" stroke="midnightblue" points="118.647,-17.5267 109.162,-22.2478 119.521,-24.4719 118.647,-17.5267"/>
</g>
</g>
</svg>
