<?xml version="1.0" encoding="UTF-8" standalone="no"?>
<!DOCTYPE svg PUBLIC "-//W3C//DTD SVG 1.1//EN"
 "http://www.w3.org/Graphics/SVG/1.1/DTD/svg11.dtd">
<!-- Generated by graphviz version 2.40.1 (20161225.0304)
 -->
<!-- Title: evaluate_int_spline_1d Pages: 1 -->
<svg width="304pt" height="78pt"
 viewBox="0.00 0.00 304.00 77.50" xmlns="http://www.w3.org/2000/svg" xmlns:xlink="http://www.w3.org/1999/xlink">
<g id="graph0" class="graph" transform="scale(1 1) rotate(0) translate(4 73.5)">
<title>evaluate_int_spline_1d</title>
<polygon fill="#ffffff" stroke="transparent" points="-4,4 -4,-73.5 300,-73.5 300,4 -4,4"/>
<!-- Node60 -->
<g id="node1" class="node">
<title>Node60</title>
<polygon fill="#bfbfbf" stroke="#000000" points="0,-28 0,-47 129,-47 129,-28 0,-28"/>
<text text-anchor="middle" x="64.5" y="-35" font-family="Helvetica,sans-Serif" font-size="10.00" fill="#000000">evaluate_int_spline_1d</text>
</g>
<!-- Node61 -->
<g id="node2" class="node">
<title>Node61</title>
<g id="a_node2"><a xlink:href="namespacesll__m__particle__mesh__coupling__spline__1d.html#acd3198a72571d1253f83aaa909e67031" target="_top" xlink:title="Helper function that identifies in which box the particle is found and its normalized poistion in the...">
<polygon fill="#ffffff" stroke="#000000" points="176,-50 176,-69 285,-69 285,-50 176,-50"/>
<text text-anchor="middle" x="230.5" y="-57" font-family="Helvetica,sans-Serif" font-size="10.00" fill="#000000">convert_x_to_xbox</text>
</a>
</g>
</g>
<!-- Node60&#45;&gt;Node61 -->
<g id="edge1" class="edge">
<title>Node60&#45;&gt;Node61</title>
<path fill="none" stroke="#191970" d="M129.1553,-46.0688C141.2459,-47.6711 153.8832,-49.346 165.97,-50.9478"/>
<polygon fill="#191970" stroke="#191970" points="165.5962,-54.4288 175.9694,-52.2731 166.5159,-47.4895 165.5962,-54.4288"/>
</g>
<!-- Node62 -->
<g id="node3" class="node">
<title>Node62</title>
<g id="a_node3"><a xlink:href="namespacesll__m__splines__pp.html#ab63c3a25b861ed9b8701ae2f65942bcf" target="_top" xlink:title="Perform a 1d hornerschema on the pp_coeffs at index. ">
<polygon fill="#ffffff" stroke="#000000" points="165,-.5 165,-30.5 296,-30.5 296,-.5 165,-.5"/>
<text text-anchor="start" x="173" y="-18.5" font-family="Helvetica,sans-Serif" font-size="10.00" fill="#000000">sll_m_splines_pp::sll</text>
<text text-anchor="middle" x="230.5" y="-7.5" font-family="Helvetica,sans-Serif" font-size="10.00" fill="#000000">_f_spline_pp_horner_1d</text>
</a>
</g>
</g>
<!-- Node60&#45;&gt;Node62 -->
<g id="edge2" class="edge">
<title>Node60&#45;&gt;Node62</title>
<path fill="none" stroke="#191970" d="M129.1553,-28.9312C137.5959,-27.8126 146.303,-26.6586 154.9033,-25.5188"/>
<polygon fill="#191970" stroke="#191970" points="155.4743,-28.9739 164.9278,-24.1903 154.5546,-22.0345 155.4743,-28.9739"/>
</g>
</g>
</svg>
