<?xml version="1.0" encoding="UTF-8" standalone="no"?>
<!DOCTYPE svg PUBLIC "-//W3C//DTD SVG 1.1//EN"
 "http://www.w3.org/Graphics/SVG/1.1/DTD/svg11.dtd">
<!-- Generated by graphviz version 2.43.0 (0)
 -->
<!-- Title: l2norm_squared_2d_fem Pages: 1 -->
<svg width="687pt" height="39pt"
 viewBox="0.00 0.00 687.00 39.00" xmlns="http://www.w3.org/2000/svg" xmlns:xlink="http://www.w3.org/1999/xlink">
<g id="graph0" class="graph" transform="scale(1 1) rotate(0) translate(4 35)">
<title>l2norm_squared_2d_fem</title>
<polygon fill="white" stroke="transparent" points="-4,4 -4,-35 683,-35 683,4 -4,4"/>
<!-- Node1 -->
<g id="node1" class="node">
<title>Node1</title>
<g id="a_node1"><a xlink:title="Compute square of the L2norm.">
<polygon fill="#bfbfbf" stroke="black" points="0,-6 0,-25 137,-25 137,-6 0,-6"/>
<text text-anchor="middle" x="68.5" y="-13" font-family="Helvetica,sans-Serif" font-size="10.00">l2norm_squared_2d_fem</text>
</a>
</g>
</g>
<!-- Node2 -->
<g id="node2" class="node">
<title>Node2</title>
<g id="a_node2"><a xlink:href="namespacesll__m__maxwell__2d__fem__fft.html#aa51ed5a01418cd3e1b624e1ebce8b256" target="_top" xlink:title=" ">
<polygon fill="white" stroke="black" points="173,-6 173,-25 298,-25 298,-6 173,-6"/>
<text text-anchor="middle" x="235.5" y="-13" font-family="Helvetica,sans-Serif" font-size="10.00">inner_product_2d_fem</text>
</a>
</g>
</g>
<!-- Node1&#45;&gt;Node2 -->
<g id="edge1" class="edge">
<title>Node1&#45;&gt;Node2</title>
<path fill="none" stroke="midnightblue" d="M137.09,-15.5C145.5,-15.5 154.13,-15.5 162.61,-15.5"/>
<polygon fill="midnightblue" stroke="midnightblue" points="162.85,-19 172.85,-15.5 162.85,-12 162.85,-19"/>
</g>
<!-- Node3 -->
<g id="node3" class="node">
<title>Node3</title>
<g id="a_node3"><a xlink:href="namespacesll__m__maxwell__2d__fem__fft.html#aa50fa038089df0d0bd86994241630dcb" target="_top" xlink:title="Multiply by the mass matrix.">
<polygon fill="white" stroke="black" points="334,-6 334,-25 462,-25 462,-6 334,-6"/>
<text text-anchor="middle" x="398" y="-13" font-family="Helvetica,sans-Serif" font-size="10.00">multiply_mass_2dkron</text>
</a>
</g>
</g>
<!-- Node2&#45;&gt;Node3 -->
<g id="edge2" class="edge">
<title>Node2&#45;&gt;Node3</title>
<path fill="none" stroke="midnightblue" d="M298.09,-15.5C306.55,-15.5 315.29,-15.5 323.92,-15.5"/>
<polygon fill="midnightblue" stroke="midnightblue" points="323.98,-19 333.98,-15.5 323.98,-12 323.98,-19"/>
</g>
<!-- Node4 -->
<g id="node4" class="node">
<title>Node4</title>
<g id="a_node4"><a xlink:href="namespacesll__m__spline__fem__utilities.html#a528fc7241e39fd979bd521f0c2d7b350" target="_top" xlink:title="Multiply the vector invec with the spline FEM mass matrix with mass line mass.">
<polygon fill="white" stroke="black" points="498,-0.5 498,-30.5 679,-30.5 679,-0.5 498,-0.5"/>
<text text-anchor="start" x="506" y="-18.5" font-family="Helvetica,sans-Serif" font-size="10.00">sll_m_spline_fem_utilities</text>
<text text-anchor="middle" x="588.5" y="-7.5" font-family="Helvetica,sans-Serif" font-size="10.00">::sll_s_spline_fem_multiply_mass</text>
</a>
</g>
</g>
<!-- Node3&#45;&gt;Node4 -->
<g id="edge3" class="edge">
<title>Node3&#45;&gt;Node4</title>
<path fill="none" stroke="midnightblue" d="M462.03,-15.5C470.26,-15.5 478.85,-15.5 487.5,-15.5"/>
<polygon fill="midnightblue" stroke="midnightblue" points="487.68,-19 497.68,-15.5 487.68,-12 487.68,-19"/>
</g>
</g>
</svg>
