<?xml version="1.0" encoding="UTF-8" standalone="no"?>
<!DOCTYPE svg PUBLIC "-//W3C//DTD SVG 1.1//EN"
 "http://www.w3.org/Graphics/SVG/1.1/DTD/svg11.dtd">
<!-- Generated by graphviz version 2.40.1 (20161225.0304)
 -->
<!-- Title: splcoefper1dold Pages: 1 -->
<svg width="591pt" height="137pt"
 viewBox="0.00 0.00 591.00 137.00" xmlns="http://www.w3.org/2000/svg" xmlns:xlink="http://www.w3.org/1999/xlink">
<g id="graph0" class="graph" transform="scale(1 1) rotate(0) translate(4 133)">
<title>splcoefper1dold</title>
<polygon fill="#ffffff" stroke="transparent" points="-4,4 -4,-133 587,-133 587,4 -4,4"/>
<!-- Node240 -->
<g id="node1" class="node">
<title>Node240</title>
<polygon fill="#bfbfbf" stroke="#000000" points="0,-55 0,-74 95,-74 95,-55 0,-55"/>
<text text-anchor="middle" x="47.5" y="-62" font-family="Helvetica,sans-Serif" font-size="10.00" fill="#000000">splcoefper1dold</text>
</g>
<!-- Node241 -->
<g id="node2" class="node">
<title>Node241</title>
<g id="a_node2"><a xlink:href="namespacesll__m__gyroaverage__2d__polar.html#aa3be680ae583d97a373f0e422866a37b" target="_top" xlink:title="splcoefnatper2d">
<polygon fill="#ffffff" stroke="#000000" points="131,-55 131,-74 226,-74 226,-55 131,-55"/>
<text text-anchor="middle" x="178.5" y="-62" font-family="Helvetica,sans-Serif" font-size="10.00" fill="#000000">splcoefnatper2d</text>
</a>
</g>
</g>
<!-- Node240&#45;&gt;Node241 -->
<g id="edge1" class="edge">
<title>Node240&#45;&gt;Node241</title>
<path fill="none" stroke="#191970" d="M105.3507,-64.5C113.8031,-64.5 122.4278,-64.5 130.6514,-64.5"/>
<polygon fill="#191970" stroke="#191970" points="105.1646,-61.0001 95.1646,-64.5 105.1645,-68.0001 105.1646,-61.0001"/>
</g>
<!-- Node242 -->
<g id="node3" class="node">
<title>Node242</title>
<g id="a_node3"><a xlink:href="namespacesll__m__gyroaverage__2d__polar.html#a2179cb107521617ad7f43d8150ee7ea9" target="_top" xlink:title="sll_s_compute_gyroaverage\l_points_polar_spl">
<polygon fill="#ffffff" stroke="#000000" points="262,-98.5 262,-128.5 415,-128.5 415,-98.5 262,-98.5"/>
<text text-anchor="start" x="270" y="-116.5" font-family="Helvetica,sans-Serif" font-size="10.00" fill="#000000">sll_s_compute_gyroaverage</text>
<text text-anchor="middle" x="338.5" y="-105.5" font-family="Helvetica,sans-Serif" font-size="10.00" fill="#000000">_points_polar_spl</text>
</a>
</g>
</g>
<!-- Node241&#45;&gt;Node242 -->
<g id="edge2" class="edge">
<title>Node241&#45;&gt;Node242</title>
<path fill="none" stroke="#191970" d="M219.4555,-77.0426C240.7757,-83.5719 266.9975,-91.6024 289.3997,-98.463"/>
<polygon fill="#191970" stroke="#191970" points="220.316,-73.6458 209.7294,-74.064 218.2662,-80.3389 220.316,-73.6458"/>
</g>
<!-- Node244 -->
<g id="node5" class="node">
<title>Node244</title>
<g id="a_node5"><a xlink:href="namespacesll__m__gyroaverage__2d__polar.html#a4e89056071a65026b5e8816c6764df4f" target="_top" xlink:title="sll_s_compute_gyroaverage\l_pre_compute_polar_spl">
<polygon fill="#ffffff" stroke="#000000" points="262,-49.5 262,-79.5 415,-79.5 415,-49.5 262,-49.5"/>
<text text-anchor="start" x="270" y="-67.5" font-family="Helvetica,sans-Serif" font-size="10.00" fill="#000000">sll_s_compute_gyroaverage</text>
<text text-anchor="middle" x="338.5" y="-56.5" font-family="Helvetica,sans-Serif" font-size="10.00" fill="#000000">_pre_compute_polar_spl</text>
</a>
</g>
</g>
<!-- Node241&#45;&gt;Node244 -->
<g id="edge4" class="edge">
<title>Node241&#45;&gt;Node244</title>
<path fill="none" stroke="#191970" d="M236.3233,-64.5C244.5844,-64.5 253.1879,-64.5 261.742,-64.5"/>
<polygon fill="#191970" stroke="#191970" points="236.0721,-61.0001 226.0721,-64.5 236.072,-68.0001 236.0721,-61.0001"/>
</g>
<!-- Node245 -->
<g id="node6" class="node">
<title>Node245</title>
<g id="a_node6"><a xlink:href="namespacesll__m__gyroaverage__2d__polar.html#adf408663e066fc8c157b546629468f80" target="_top" xlink:title="sll_s_compute_gyroaverage\l_pre_compute_polar_spl_fft">
<polygon fill="#ffffff" stroke="#000000" points="262,-.5 262,-30.5 415,-30.5 415,-.5 262,-.5"/>
<text text-anchor="start" x="270" y="-18.5" font-family="Helvetica,sans-Serif" font-size="10.00" fill="#000000">sll_s_compute_gyroaverage</text>
<text text-anchor="middle" x="338.5" y="-7.5" font-family="Helvetica,sans-Serif" font-size="10.00" fill="#000000">_pre_compute_polar_spl_fft</text>
</a>
</g>
</g>
<!-- Node241&#45;&gt;Node245 -->
<g id="edge6" class="edge">
<title>Node241&#45;&gt;Node245</title>
<path fill="none" stroke="#191970" d="M219.4555,-51.9574C240.7757,-45.4281 266.9975,-37.3976 289.3997,-30.537"/>
<polygon fill="#191970" stroke="#191970" points="218.2662,-48.6611 209.7294,-54.936 220.316,-55.3542 218.2662,-48.6611"/>
</g>
<!-- Node243 -->
<g id="node4" class="node">
<title>Node243</title>
<g id="a_node4"><a xlink:href="namespacesll__m__gyroaverage__2d__polar__splines__solver.html#a2027a05dfe7a379899c5e06c046d0a95" target="_top" xlink:title="sll_m_gyroaverage_2d\l_polar_splines_solver\l::compute_gyroaverage\l_2d_polar_splines">
<polygon fill="#ffffff" stroke="#000000" points="451,-38.5 451,-90.5 583,-90.5 583,-38.5 451,-38.5"/>
<text text-anchor="start" x="459" y="-78.5" font-family="Helvetica,sans-Serif" font-size="10.00" fill="#000000">sll_m_gyroaverage_2d</text>
<text text-anchor="start" x="459" y="-67.5" font-family="Helvetica,sans-Serif" font-size="10.00" fill="#000000">_polar_splines_solver</text>
<text text-anchor="start" x="459" y="-56.5" font-family="Helvetica,sans-Serif" font-size="10.00" fill="#000000">::compute_gyroaverage</text>
<text text-anchor="middle" x="517" y="-45.5" font-family="Helvetica,sans-Serif" font-size="10.00" fill="#000000">_2d_polar_splines</text>
</a>
</g>
</g>
<!-- Node242&#45;&gt;Node243 -->
<g id="edge3" class="edge">
<title>Node242&#45;&gt;Node243</title>
<path fill="none" stroke="#191970" d="M403.48,-95.6623C418.9103,-91.4266 435.388,-86.9033 450.8691,-82.6536"/>
<polygon fill="#191970" stroke="#191970" points="402.2291,-92.3762 393.5124,-98.3986 404.0822,-99.1265 402.2291,-92.3762"/>
</g>
<!-- Node244&#45;&gt;Node243 -->
<g id="edge5" class="edge">
<title>Node244&#45;&gt;Node243</title>
<path fill="none" stroke="#191970" d="M425.3342,-64.5C433.9646,-64.5 442.6252,-64.5 450.9928,-64.5"/>
<polygon fill="#191970" stroke="#191970" points="425.236,-61.0001 415.236,-64.5 425.236,-68.0001 425.236,-61.0001"/>
</g>
<!-- Node245&#45;&gt;Node243 -->
<g id="edge7" class="edge">
<title>Node245&#45;&gt;Node243</title>
<path fill="none" stroke="#191970" d="M403.48,-33.3377C418.9103,-37.5734 435.388,-42.0967 450.8691,-46.3464"/>
<polygon fill="#191970" stroke="#191970" points="404.0822,-29.8735 393.5124,-30.6014 402.2291,-36.6238 404.0822,-29.8735"/>
</g>
</g>
</svg>
