<?xml version="1.0" encoding="UTF-8" standalone="no"?>
<!DOCTYPE svg PUBLIC "-//W3C//DTD SVG 1.1//EN"
 "http://www.w3.org/Graphics/SVG/1.1/DTD/svg11.dtd">
<!-- Generated by graphviz version 2.38.0 (20140413.2041)
 -->
<!-- Title: csl_advect_1d Pages: 1 -->
<svg width="249pt" height="66pt"
 viewBox="0.00 0.00 249.00 66.00" xmlns="http://www.w3.org/2000/svg" xmlns:xlink="http://www.w3.org/1999/xlink">
<g id="graph0" class="graph" transform="scale(1 1) rotate(0) translate(4 62)">
<title>csl_advect_1d</title>
<polygon fill="white" stroke="none" points="-4,4 -4,-62 245,-62 245,4 -4,4"/>
<!-- Node1 -->
<g id="node1" class="node"><title>Node1</title>
<polygon fill="#bfbfbf" stroke="black" points="0,-19.5 0,-38.5 80,-38.5 80,-19.5 0,-19.5"/>
<text text-anchor="middle" x="40" y="-26.5" font-family="Helvetica,sans-Serif" font-size="10.00">csl_advect_1d</text>
</g>
<!-- Node2 -->
<g id="node2" class="node"><title>Node2</title>
<g id="a_node2"><a xlink:href="namespacesll__m__advection__1d__csl.html#add8fd84dad1582e9357059afb3876987" target="_top" xlink:title="function_to_primitive_csl">
<polygon fill="white" stroke="black" points="116,-38.5 116,-57.5 241,-57.5 241,-38.5 116,-38.5"/>
<text text-anchor="middle" x="178.5" y="-45.5" font-family="Helvetica,sans-Serif" font-size="10.00">function_to_primitive_csl</text>
</a>
</g>
</g>
<!-- Node1&#45;&gt;Node2 -->
<g id="edge1" class="edge"><title>Node1&#45;&gt;Node2</title>
<path fill="none" stroke="midnightblue" d="M80.1154,-34.4446C88.2433,-35.576 97.0499,-36.8018 105.932,-38.0381"/>
<polygon fill="midnightblue" stroke="midnightblue" points="105.572,-41.5217 115.959,-39.4339 106.537,-34.5885 105.572,-41.5217"/>
</g>
<!-- Node3 -->
<g id="node3" class="node"><title>Node3</title>
<g id="a_node3"><a xlink:href="namespacesll__m__advection__1d__csl.html#a9950a98b3dfd11545563a020cdb21246" target="_top" xlink:title="primitive_to_function_csl">
<polygon fill="white" stroke="black" points="116,-0.5 116,-19.5 241,-19.5 241,-0.5 116,-0.5"/>
<text text-anchor="middle" x="178.5" y="-7.5" font-family="Helvetica,sans-Serif" font-size="10.00">primitive_to_function_csl</text>
</a>
</g>
</g>
<!-- Node1&#45;&gt;Node3 -->
<g id="edge2" class="edge"><title>Node1&#45;&gt;Node3</title>
<path fill="none" stroke="midnightblue" d="M80.1154,-23.5554C88.2433,-22.424 97.0499,-21.1982 105.932,-19.9619"/>
<polygon fill="midnightblue" stroke="midnightblue" points="106.537,-23.4115 115.959,-18.5661 105.572,-16.4783 106.537,-23.4115"/>
</g>
</g>
</svg>
