<?xml version="1.0" encoding="UTF-8" standalone="no"?>
<!DOCTYPE svg PUBLIC "-//W3C//DTD SVG 1.1//EN"
 "http://www.w3.org/Graphics/SVG/1.1/DTD/svg11.dtd">
<!-- Generated by graphviz version 2.40.1 (20161225.0304)
 -->
<!-- Title: s_nml_mesh_1d_landau_cart_mesh Pages: 1 -->
<svg width="488pt" height="50pt"
 viewBox="0.00 0.00 488.00 50.00" xmlns="http://www.w3.org/2000/svg" xmlns:xlink="http://www.w3.org/1999/xlink">
<g id="graph0" class="graph" transform="scale(1 1) rotate(0) translate(4 46)">
<title>s_nml_mesh_1d_landau_cart_mesh</title>
<polygon fill="#ffffff" stroke="transparent" points="-4,4 -4,-46 484,-46 484,4 -4,4"/>
<!-- Node2 -->
<g id="node1" class="node">
<title>Node2</title>
<polygon fill="#bfbfbf" stroke="#000000" points="0,-6 0,-36 134,-36 134,-6 0,-6"/>
<text text-anchor="start" x="8" y="-24" font-family="Helvetica,sans-Serif" font-size="10.00" fill="#000000">s_nml_mesh_1d_landau</text>
<text text-anchor="middle" x="67" y="-13" font-family="Helvetica,sans-Serif" font-size="10.00" fill="#000000">_cart_mesh</text>
</g>
<!-- Node3 -->
<g id="node2" class="node">
<title>Node3</title>
<g id="a_node2"><a xlink:href="namespacesll__m__cartesian__meshes.html#a81d2553ba3157ced2c6f46d9610899a2" target="_top" xlink:title="allocates the memory space for a new 1D cartesian mesh on the heap, initializes it with the given arg...">
<polygon fill="#ffffff" stroke="#000000" points="170,-.5 170,-41.5 307,-41.5 307,-.5 170,-.5"/>
<text text-anchor="start" x="178" y="-29.5" font-family="Helvetica,sans-Serif" font-size="10.00" fill="#000000">sll_m_cartesian_meshes</text>
<text text-anchor="start" x="178" y="-18.5" font-family="Helvetica,sans-Serif" font-size="10.00" fill="#000000">::sll_f_new_cartesian</text>
<text text-anchor="middle" x="238.5" y="-7.5" font-family="Helvetica,sans-Serif" font-size="10.00" fill="#000000">_mesh_1d</text>
</a>
</g>
</g>
<!-- Node2&#45;&gt;Node3 -->
<g id="edge1" class="edge">
<title>Node2&#45;&gt;Node3</title>
<path fill="none" stroke="#191970" d="M134.2891,-21C142.7202,-21 151.4012,-21 159.9848,-21"/>
<polygon fill="#191970" stroke="#191970" points="159.9957,-24.5001 169.9957,-21 159.9956,-17.5001 159.9957,-24.5001"/>
</g>
<!-- Node4 -->
<g id="node3" class="node">
<title>Node4</title>
<g id="a_node3"><a xlink:href="namespacesll__m__cartesian__meshes.html#a943354705d0bce883bb181425f75d040" target="_top" xlink:title="Initializes a previously allocated 1D cartesian mesh object. ">
<polygon fill="#ffffff" stroke="#000000" points="343,-.5 343,-41.5 480,-41.5 480,-.5 343,-.5"/>
<text text-anchor="start" x="351" y="-29.5" font-family="Helvetica,sans-Serif" font-size="10.00" fill="#000000">sll_m_cartesian_meshes</text>
<text text-anchor="start" x="351" y="-18.5" font-family="Helvetica,sans-Serif" font-size="10.00" fill="#000000">::sll_s_cartesian_mesh</text>
<text text-anchor="middle" x="411.5" y="-7.5" font-family="Helvetica,sans-Serif" font-size="10.00" fill="#000000">_1d_init</text>
</a>
</g>
</g>
<!-- Node3&#45;&gt;Node4 -->
<g id="edge2" class="edge">
<title>Node3&#45;&gt;Node4</title>
<path fill="none" stroke="#191970" d="M307.3713,-21C315.678,-21 324.2111,-21 332.6466,-21"/>
<polygon fill="#191970" stroke="#191970" points="332.8657,-24.5001 342.8657,-21 332.8657,-17.5001 332.8657,-24.5001"/>
</g>
</g>
</svg>
