<?xml version="1.0" encoding="UTF-8" standalone="no"?>
<!DOCTYPE svg PUBLIC "-//W3C//DTD SVG 1.1//EN"
 "http://www.w3.org/Graphics/SVG/1.1/DTD/svg11.dtd">
<!-- Generated by graphviz version 2.38.0 (20140413.2041)
 -->
<!-- Title: lagr_3pt_coeff Pages: 1 -->
<!--zoomable 235 -->
<svg id="main" version="1.1" xmlns="http://www.w3.org/2000/svg" xmlns:xlink="http://www.w3.org/1999/xlink" xml:space="preserve" onload="init(evt)">
<style type="text/css"><![CDATA[
.edge:hover path { stroke: red; }
.edge:hover polygon { stroke: red; fill: red; }
]]></style>
<script type="text/javascript"><![CDATA[
var edges = document.getElementsByTagName('g');
if (edges && edges.length) {
  for (var i=0;i<edges.length;i++) {
    if (edges[i].id.substr(0,4)=='edge') {
      edges[i].setAttribute('class','edge');
    }
  }
}
]]></script>
        <defs>
                <circle id="rim" cx="0" cy="0" r="7"/>
                <circle id="rim2" cx="0" cy="0" r="3.5"/>
                <g id="zoomPlus">
                        <use xlink:href="#rim" fill="#404040">
                                <set attributeName="fill" to="#808080" begin="zoomplus.mouseover" end="zoomplus.mouseout"/>
                        </use>
                        <path d="M-4,0h8M0,-4v8" fill="none" stroke="white" stroke-width="1.5" pointer-events="none"/>
                </g>
                <g id="zoomMin">
                        <use xlink:href="#rim" fill="#404040">
                                <set attributeName="fill" to="#808080" begin="zoomminus.mouseover" end="zoomminus.mouseout"/>
                        </use>
                        <path d="M-4,0h8" fill="none" stroke="white" stroke-width="1.5" pointer-events="none"/>
                </g>
                <g id="dirArrow">
                        <path fill="none" stroke="white" stroke-width="1.5" d="M0,-3.0v7 M-2.5,-0.5L0,-3.0L2.5,-0.5"/>
                </g>
               <g id="resetDef">
                       <use xlink:href="#rim2" fill="#404040">
                               <set attributeName="fill" to="#808080" begin="reset.mouseover" end="reset.mouseout"/>
                       </use>
               </g>
        </defs>

<script type="text/javascript">
var viewWidth = 578;
var viewHeight = 235;
var sectionId = 'dynsection-7';
</script>
<script xlink:href="svgpan.js"/>
<svg id="graph" class="graph">
<g id="viewport">
<title>lagr_3pt_coeff</title>
<polygon fill="white" stroke="none" points="-4,4 -4,-231 574,-231 574,4 -4,4"/>
<!-- Node1 -->
<g id="node1" class="node"><title>Node1</title>
<polygon fill="#bfbfbf" stroke="black" points="0,-104 0,-123 78,-123 78,-104 0,-104"/>
<text text-anchor="middle" x="39" y="-111" font-family="Helvetica,sans-Serif" font-size="10.00">lagr_3pt_coeff</text>
</g>
<!-- Node2 -->
<g id="node2" class="node"><title>Node2</title>
<g id="a_node2"><a xlink:href="namespacesll__m__lagrange__interpolation__1d__fast.html#a3524e6617d31a9fde13312b8c6334cd2" target="_top" xlink:title="single point 3&#45;pt&#45;lagrange interpolation ">
<polygon fill="white" stroke="black" points="124.5,-85 124.5,-104 175.5,-104 175.5,-85 124.5,-85"/>
<text text-anchor="middle" x="150" y="-92" font-family="Helvetica,sans-Serif" font-size="10.00">lagr_3pt</text>
</a>
</g>
</g>
<!-- Node1&#45;&gt;Node2 -->
<g id="edge1" class="edge"><title>Node1&#45;&gt;Node2</title>
<path fill="none" stroke="midnightblue" d="M88.0384,-105.126C100.591,-102.938 113.607,-100.669 124.373,-98.7928"/>
<polygon fill="midnightblue" stroke="midnightblue" points="87.3733,-101.689 78.1229,-106.855 88.5754,-108.585 87.3733,-101.689"/>
</g>
<!-- Node8 -->
<g id="node8" class="node"><title>Node8</title>
<g id="a_node8"><a xlink:href="namespacesll__m__lagrange__interpolation__1d__fast.html#af67f2e9f7ba458f70ca621609dc85f2a" target="_top" xlink:title="vectorizable 3&#45;pt&#45;lagrange interpolation ">
<polygon fill="white" stroke="black" points="114,-123 114,-142 186,-142 186,-123 114,-123"/>
<text text-anchor="middle" x="150" y="-130" font-family="Helvetica,sans-Serif" font-size="10.00">lagr_3pt_vec</text>
</a>
</g>
</g>
<!-- Node1&#45;&gt;Node8 -->
<g id="edge9" class="edge"><title>Node1&#45;&gt;Node8</title>
<path fill="none" stroke="midnightblue" d="M88.0652,-121.878C96.6639,-123.377 105.479,-124.914 113.639,-126.336"/>
<polygon fill="midnightblue" stroke="midnightblue" points="88.5754,-118.415 78.1229,-120.145 87.3733,-125.311 88.5754,-118.415"/>
</g>
<!-- Node3 -->
<g id="node3" class="node"><title>Node3</title>
<g id="a_node3"><a xlink:href="namespacesll__m__lagrange__interpolation__1d__fast.html#a07b3f0d9dcc0467c5159b3caa0a8ee40" target="_top" xlink:title="Lagrange interpolation, without boundary conditions. One sided a the outermost points. ">
<polygon fill="white" stroke="black" points="232.5,-147.5 232.5,-177.5 369.5,-177.5 369.5,-147.5 232.5,-147.5"/>
<text text-anchor="start" x="240.5" y="-165.5" font-family="Helvetica,sans-Serif" font-size="10.00">sll_s_lagrange_interpolation</text>
<text text-anchor="middle" x="301" y="-154.5" font-family="Helvetica,sans-Serif" font-size="10.00">_1d_fast_disp_fixed_no_bc</text>
</a>
</g>
</g>
<!-- Node2&#45;&gt;Node3 -->
<g id="edge2" class="edge"><title>Node2&#45;&gt;Node3</title>
<path fill="none" stroke="midnightblue" d="M178.698,-109.169C181.188,-110.597 183.653,-112.054 186,-113.5 202.585,-123.718 204.483,-129.979 222,-138.5 228.753,-141.785 236.052,-144.738 243.383,-147.356"/>
<polygon fill="midnightblue" stroke="midnightblue" points="180.183,-105.99 169.743,-104.185 176.779,-112.106 180.183,-105.99"/>
</g>
<!-- Node5 -->
<g id="node5" class="node"><title>Node5</title>
<g id="a_node5"><a xlink:href="namespacesll__m__lagrange__interpolation__1d__fast.html#ab18de38c85fd97f50c49d5573ab183b1" target="_top" xlink:title="Lagrange interpolation, periodic boundary conditions. ">
<polygon fill="white" stroke="black" points="229.5,-98.5 229.5,-128.5 372.5,-128.5 372.5,-98.5 229.5,-98.5"/>
<text text-anchor="start" x="237.5" y="-116.5" font-family="Helvetica,sans-Serif" font-size="10.00">sll_s_lagrange_interpolation</text>
<text text-anchor="middle" x="301" y="-105.5" font-family="Helvetica,sans-Serif" font-size="10.00">_1d_fast_disp_fixed_periodic</text>
</a>
</g>
</g>
<!-- Node2&#45;&gt;Node5 -->
<g id="edge4" class="edge"><title>Node2&#45;&gt;Node5</title>
<path fill="none" stroke="midnightblue" d="M185.567,-98.9079C198.676,-100.58 214.127,-102.55 229.362,-104.493"/>
<polygon fill="midnightblue" stroke="midnightblue" points="185.967,-95.4306 175.604,-97.6375 185.081,-102.374 185.967,-95.4306"/>
</g>
<!-- Node6 -->
<g id="node6" class="node"><title>Node6</title>
<g id="a_node6"><a xlink:href="namespacesll__m__lagrange__interpolation__1d__fast.html#a5165066a14857300420afc9315cca668" target="_top" xlink:title="Lagrange interpolation, periodic boundary conditions, first value repeated at the end...">
<polygon fill="white" stroke="black" points="228.5,-49.5 228.5,-79.5 373.5,-79.5 373.5,-49.5 228.5,-49.5"/>
<text text-anchor="start" x="236.5" y="-67.5" font-family="Helvetica,sans-Serif" font-size="10.00">sll_s_lagrange_interpolation</text>
<text text-anchor="middle" x="301" y="-56.5" font-family="Helvetica,sans-Serif" font-size="10.00">_1d_fast_disp_fixed_periodicl</text>
</a>
</g>
</g>
<!-- Node2&#45;&gt;Node6 -->
<g id="edge6" class="edge"><title>Node2&#45;&gt;Node6</title>
<path fill="none" stroke="midnightblue" d="M185.774,-87.4986C198.56,-84.9242 213.552,-81.9056 228.391,-78.9179"/>
<polygon fill="midnightblue" stroke="midnightblue" points="184.717,-84.1411 175.604,-89.5461 186.098,-91.0034 184.717,-84.1411"/>
</g>
<!-- Node7 -->
<g id="node7" class="node"><title>Node7</title>
<g id="a_node7"><a xlink:href="namespacesll__m__lagrange__interpolation__1d__fast.html#ada2aaee72cea60e0d2beb19bb9e038c1" target="_top" xlink:title="Lagrange interpolation with halo cell boundaries, where the input array already contains halo cells...">
<polygon fill="white" stroke="black" points="232.5,-0.5 232.5,-30.5 369.5,-30.5 369.5,-0.5 232.5,-0.5"/>
<text text-anchor="start" x="240.5" y="-18.5" font-family="Helvetica,sans-Serif" font-size="10.00">sll_s_lagrange_interpolation</text>
<text text-anchor="middle" x="301" y="-7.5" font-family="Helvetica,sans-Serif" font-size="10.00">_1d_fast_haloc_cells</text>
</a>
</g>
</g>
<!-- Node2&#45;&gt;Node7 -->
<g id="edge8" class="edge"><title>Node2&#45;&gt;Node7</title>
<path fill="none" stroke="midnightblue" d="M168.882,-77.6734C182.532,-65.6046 202.288,-49.7319 222,-39.5 228.413,-36.171 235.367,-33.2159 242.391,-30.6178"/>
<polygon fill="midnightblue" stroke="midnightblue" points="166.286,-75.3027 161.228,-84.612 170.988,-80.489 166.286,-75.3027"/>
</g>
<!-- Node4 -->
<g id="node4" class="node"><title>Node4</title>
<g id="a_node4"><a xlink:href="namespacesll__m__lagrange__interpolator__1d.html#a666c93a77c57376c29a70b853ab02e44" target="_top" xlink:title="sll_m_lagrange_interpolator\l_1d::interpolate_array_disp_li1d">
<polygon fill="white" stroke="black" points="416,-122.5 416,-152.5 570,-152.5 570,-122.5 416,-122.5"/>
<text text-anchor="start" x="424" y="-140.5" font-family="Helvetica,sans-Serif" font-size="10.00">sll_m_lagrange_interpolator</text>
<text text-anchor="middle" x="493" y="-129.5" font-family="Helvetica,sans-Serif" font-size="10.00">_1d::interpolate_array_disp_li1d</text>
</a>
</g>
</g>
<!-- Node3&#45;&gt;Node4 -->
<g id="edge3" class="edge"><title>Node3&#45;&gt;Node4</title>
<path fill="none" stroke="midnightblue" d="M379.518,-152.3C391.548,-150.717 403.965,-149.084 415.962,-147.505"/>
<polygon fill="midnightblue" stroke="midnightblue" points="378.98,-148.841 369.522,-153.616 379.893,-155.781 378.98,-148.841"/>
</g>
<!-- Node5&#45;&gt;Node4 -->
<g id="edge5" class="edge"><title>Node5&#45;&gt;Node4</title>
<path fill="none" stroke="midnightblue" d="M382.723,-123.697C393.682,-125.081 404.9,-126.498 415.776,-127.872"/>
<polygon fill="midnightblue" stroke="midnightblue" points="383.109,-120.218 372.749,-122.437 382.232,-127.162 383.109,-120.218"/>
</g>
<!-- Node6&#45;&gt;Node4 -->
<g id="edge7" class="edge"><title>Node6&#45;&gt;Node4</title>
<path fill="none" stroke="midnightblue" d="M361.282,-82.8499C367.63,-85.0081 373.968,-87.2466 380,-89.5 406.951,-99.5686 436.876,-112.486 459.009,-122.384"/>
<polygon fill="midnightblue" stroke="midnightblue" points="361.936,-79.3784 351.342,-79.5338 359.72,-86.0186 361.936,-79.3784"/>
</g>
<!-- Node8&#45;&gt;Node3 -->
<g id="edge10" class="edge"><title>Node8&#45;&gt;Node3</title>
<path fill="none" stroke="midnightblue" d="M196.366,-141.634C207.682,-143.913 220.063,-146.405 232.203,-148.85"/>
<polygon fill="midnightblue" stroke="midnightblue" points="196.805,-138.152 186.311,-139.61 195.423,-145.015 196.805,-138.152"/>
</g>
<!-- Node8&#45;&gt;Node5 -->
<g id="edge11" class="edge"><title>Node8&#45;&gt;Node5</title>
<path fill="none" stroke="midnightblue" d="M196.366,-126.715C206.759,-125.39 218.048,-123.95 229.226,-122.525"/>
<polygon fill="midnightblue" stroke="midnightblue" points="195.788,-123.26 186.311,-127.997 196.673,-130.204 195.788,-123.26"/>
</g>
<!-- Node8&#45;&gt;Node6 -->
<g id="edge12" class="edge"><title>Node8&#45;&gt;Node6</title>
<path fill="none" stroke="midnightblue" d="M178.235,-118.03C180.877,-116.532 183.502,-115.006 186,-113.5 202.467,-103.569 204.677,-97.8484 222,-89.5 229.686,-85.7958 238.054,-82.4547 246.362,-79.5099"/>
<polygon fill="midnightblue" stroke="midnightblue" points="176.4,-115.045 169.342,-122.947 179.787,-121.171 176.4,-115.045"/>
</g>
<!-- Node9 -->
<g id="node9" class="node"><title>Node9</title>
<g id="a_node9"><a xlink:href="namespacesll__m__lagrange__interpolation__1d__fast.html#ac26fc43ee907fcd29791154948c16dd3" target="_top" xlink:title="Lagrange interpolation with halo cell boundaries, where the input array already contains halo cells...">
<polygon fill="white" stroke="black" points="222,-196.5 222,-226.5 380,-226.5 380,-196.5 222,-196.5"/>
<text text-anchor="start" x="230" y="-214.5" font-family="Helvetica,sans-Serif" font-size="10.00">sll_s_lagrange_interpolation</text>
<text text-anchor="middle" x="301" y="-203.5" font-family="Helvetica,sans-Serif" font-size="10.00">_1d_fast_disp_fixed_haloc_cells</text>
</a>
</g>
</g>
<!-- Node8&#45;&gt;Node9 -->
<g id="edge13" class="edge"><title>Node8&#45;&gt;Node9</title>
<path fill="none" stroke="midnightblue" d="M168.882,-149.327C182.532,-161.395 202.288,-177.268 222,-187.5 228.413,-190.829 235.367,-193.784 242.391,-196.382"/>
<polygon fill="midnightblue" stroke="midnightblue" points="170.988,-146.511 161.228,-142.388 166.286,-151.697 170.988,-146.511"/>
</g>
<!-- Node9&#45;&gt;Node4 -->
<g id="edge14" class="edge"><title>Node9&#45;&gt;Node4</title>
<path fill="none" stroke="midnightblue" d="M363.813,-193.241C369.316,-191.387 374.777,-189.461 380,-187.5 407.909,-177.021 438.789,-163.05 461.043,-152.54"/>
<polygon fill="midnightblue" stroke="midnightblue" points="362.314,-190.05 353.905,-196.495 364.498,-196.7 362.314,-190.05"/>
</g>
</g>
</svg>
        <g id="navigator" transform="translate(0 0)" fill="#404254">
                <rect fill="#f2f5e9" fill-opacity="0.5" stroke="#606060" stroke-width=".5" x="0" y="0" width="60" height="60"/>
                <use id="zoomplus" xlink:href="#zoomPlus" x="17" y="9" onmousedown="handleZoom(evt,'in')"/>
                <use id="zoomminus" xlink:href="#zoomMin" x="42" y="9" onmousedown="handleZoom(evt,'out')"/>
                <use id="reset" xlink:href="#resetDef" x="30" y="36" onmousedown="handleReset()"/>
                <g id="arrowUp" xlink:href="#dirArrow" transform="translate(30 24)" onmousedown="handlePan(0,-1)">
                  <use xlink:href="#rim" fill="#404040">
                        <set attributeName="fill" to="#808080" begin="arrowUp.mouseover" end="arrowUp.mouseout"/>
                  </use>
                  <path fill="none" stroke="white" stroke-width="1.5" d="M0,-3.0v7 M-2.5,-0.5L0,-3.0L2.5,-0.5"/>
                </g>
                <g id="arrowRight" xlink:href="#dirArrow" transform="rotate(90) translate(36 -43)" onmousedown="handlePan(1,0)">
                  <use xlink:href="#rim" fill="#404040">
                        <set attributeName="fill" to="#808080" begin="arrowRight.mouseover" end="arrowRight.mouseout"/>
                  </use>
                  <path fill="none" stroke="white" stroke-width="1.5" d="M0,-3.0v7 M-2.5,-0.5L0,-3.0L2.5,-0.5"/>
                </g>
                <g id="arrowDown" xlink:href="#dirArrow" transform="rotate(180) translate(-30 -48)" onmousedown="handlePan(0,1)">
                  <use xlink:href="#rim" fill="#404040">
                        <set attributeName="fill" to="#808080" begin="arrowDown.mouseover" end="arrowDown.mouseout"/>
                  </use>
                  <path fill="none" stroke="white" stroke-width="1.5" d="M0,-3.0v7 M-2.5,-0.5L0,-3.0L2.5,-0.5"/>
                </g>
                <g id="arrowLeft" xlink:href="#dirArrow" transform="rotate(270) translate(-36 17)" onmousedown="handlePan(-1,0)">
                  <use xlink:href="#rim" fill="#404040">
                        <set attributeName="fill" to="#808080" begin="arrowLeft.mouseover" end="arrowLeft.mouseout"/>
                  </use>
                  <path fill="none" stroke="white" stroke-width="1.5" d="M0,-3.0v7 M-2.5,-0.5L0,-3.0L2.5,-0.5"/>
                </g>
        </g>
        <svg viewBox="0 0 15 15" width="100%" height="30px" preserveAspectRatio="xMaxYMin meet">
         <g id="arrow_out" transform="scale(0.3 0.3)">
          <a xlink:href="namespacesll__m__lagrange__interpolation__1d__fast_ad26205c5e463fb6c101b119714b24317_icgraph_org.svg" target="_base">
           <rect id="button" ry="5" rx="5" y="6" x="6" height="38" width="38"
                fill="#f2f5e9" fill-opacity="0.5" stroke="#606060" stroke-width="1.0"/>
           <path id="arrow"
             d="M 11.500037,31.436501 C 11.940474,20.09759 22.043105,11.32322 32.158766,21.979434 L 37.068811,17.246167 C 37.068811,17.246167 37.088388,32 37.088388,32 L 22.160133,31.978069 C 22.160133,31.978069 26.997745,27.140456 26.997745,27.140456 C 18.528582,18.264221 13.291696,25.230495 11.500037,31.436501 z"
             style="fill:#404040;"/>
          </a>
         </g>
        </svg>
</svg>
