<?xml version="1.0" encoding="UTF-8" standalone="no"?>
<!DOCTYPE svg PUBLIC "-//W3C//DTD SVG 1.1//EN"
 "http://www.w3.org/Graphics/SVG/1.1/DTD/svg11.dtd">
<!-- Generated by graphviz version 2.43.0 (0)
 -->
<!-- Title: sll_s_solve_cyclic_tridiag_double Pages: 1 -->
<svg width="634pt" height="532pt"
 viewBox="0.00 0.00 634.00 531.50" xmlns="http://www.w3.org/2000/svg" xmlns:xlink="http://www.w3.org/1999/xlink">
<g id="graph0" class="graph" transform="scale(1 1) rotate(0) translate(4 527.5)">
<title>sll_s_solve_cyclic_tridiag_double</title>
<polygon fill="white" stroke="transparent" points="-4,4 -4,-527.5 630,-527.5 630,4 -4,4"/>
<!-- Node1 -->
<g id="node1" class="node">
<title>Node1</title>
<g id="a_node1"><a xlink:title="Solves tridiagonal system.">
<polygon fill="#bfbfbf" stroke="black" points="523,-257.5 523,-287.5 626,-287.5 626,-257.5 523,-257.5"/>
<text text-anchor="start" x="531" y="-275.5" font-family="Helvetica,sans-Serif" font-size="10.00">sll_s_solve_cyclic</text>
<text text-anchor="middle" x="574.5" y="-264.5" font-family="Helvetica,sans-Serif" font-size="10.00">_tridiag_double</text>
</a>
</g>
</g>
<!-- Node2 -->
<g id="node2" class="node">
<title>Node2</title>
<g id="a_node2"><a xlink:href="namespacesll__m__cubic__splines.html#a813ec77055a7936e0c4697d0098178a2" target="_top" xlink:title=" ">
<polygon fill="white" stroke="black" points="370,-282 370,-323 487,-323 487,-282 370,-282"/>
<text text-anchor="start" x="378" y="-311" font-family="Helvetica,sans-Serif" font-size="10.00">sll_m_cubic_splines</text>
<text text-anchor="start" x="378" y="-300" font-family="Helvetica,sans-Serif" font-size="10.00">::compute_spline_1d</text>
<text text-anchor="middle" x="428.5" y="-289" font-family="Helvetica,sans-Serif" font-size="10.00">_hermite</text>
</a>
</g>
</g>
<!-- Node1&#45;&gt;Node2 -->
<g id="edge1" class="edge">
<title>Node1&#45;&gt;Node2</title>
<path fill="none" stroke="midnightblue" d="M512.87,-285.13C504.36,-286.9 495.63,-288.72 487.18,-290.48"/>
<polygon fill="midnightblue" stroke="midnightblue" points="513.66,-288.54 522.73,-283.08 512.23,-281.69 513.66,-288.54"/>
</g>
<!-- Node13 -->
<g id="node13" class="node">
<title>Node13</title>
<g id="a_node13"><a xlink:href="namespacesll__m__cubic__splines.html#a78c2f7524989143dc18bfbe96f7667fb" target="_top" xlink:title=" ">
<polygon fill="white" stroke="black" points="370,-222 370,-263 487,-263 487,-222 370,-222"/>
<text text-anchor="start" x="378" y="-251" font-family="Helvetica,sans-Serif" font-size="10.00">sll_m_cubic_splines</text>
<text text-anchor="start" x="378" y="-240" font-family="Helvetica,sans-Serif" font-size="10.00">::compute_spline_1d</text>
<text text-anchor="middle" x="428.5" y="-229" font-family="Helvetica,sans-Serif" font-size="10.00">_periodic</text>
</a>
</g>
</g>
<!-- Node1&#45;&gt;Node13 -->
<g id="edge12" class="edge">
<title>Node1&#45;&gt;Node13</title>
<path fill="none" stroke="midnightblue" d="M512.87,-259.87C504.36,-258.1 495.63,-256.28 487.18,-254.52"/>
<polygon fill="midnightblue" stroke="midnightblue" points="512.23,-263.31 522.73,-261.92 513.66,-256.46 512.23,-263.31"/>
</g>
<!-- Node3 -->
<g id="node3" class="node">
<title>Node3</title>
<g id="a_node3"><a xlink:href="namespacesll__m__cubic__splines.html#a35d6c430ac300c5ca47c04adeb9a6db3" target="_top" xlink:title="Computes the cubic spline coefficients corresponding to the 1D data array &#39;f&#39;.">
<polygon fill="white" stroke="black" points="194,-252 194,-293 334,-293 334,-252 194,-252"/>
<text text-anchor="start" x="202" y="-281" font-family="Helvetica,sans-Serif" font-size="10.00">sll_m_cubic_splines</text>
<text text-anchor="start" x="202" y="-270" font-family="Helvetica,sans-Serif" font-size="10.00">::sll_s_cubic_spline</text>
<text text-anchor="middle" x="264" y="-259" font-family="Helvetica,sans-Serif" font-size="10.00">_1d_compute_interpolant</text>
</a>
</g>
</g>
<!-- Node2&#45;&gt;Node3 -->
<g id="edge2" class="edge">
<title>Node2&#45;&gt;Node3</title>
<path fill="none" stroke="midnightblue" d="M359.91,-290.02C351.43,-288.46 342.75,-286.85 334.24,-285.28"/>
<polygon fill="midnightblue" stroke="midnightblue" points="359.28,-293.46 369.75,-291.84 360.55,-286.58 359.28,-293.46"/>
</g>
<!-- Node4 -->
<g id="node4" class="node">
<title>Node4</title>
<g id="a_node4"><a xlink:href="namespacesll__m__cubic__spline__interpolator__1d.html#a066c04e2f54afd06b3fb6da7d4a81d71" target="_top" xlink:title=" ">
<polygon fill="white" stroke="black" points="6.5,-482 6.5,-523 151.5,-523 151.5,-482 6.5,-482"/>
<text text-anchor="start" x="14.5" y="-511" font-family="Helvetica,sans-Serif" font-size="10.00">sll_m_cubic_spline</text>
<text text-anchor="start" x="14.5" y="-500" font-family="Helvetica,sans-Serif" font-size="10.00">_interpolator_1d::compute</text>
<text text-anchor="middle" x="79" y="-489" font-family="Helvetica,sans-Serif" font-size="10.00">_interpolants_cs1d</text>
</a>
</g>
</g>
<!-- Node3&#45;&gt;Node4 -->
<g id="edge3" class="edge">
<title>Node3&#45;&gt;Node4</title>
<path fill="none" stroke="midnightblue" d="M254.58,-302.79C241.08,-346.11 210.61,-425.67 158,-472.5 154.1,-475.97 149.75,-479.06 145.16,-481.81"/>
<polygon fill="midnightblue" stroke="midnightblue" points="257.97,-303.7 257.51,-293.11 251.27,-301.67 257.97,-303.7"/>
</g>
<!-- Node5 -->
<g id="node5" class="node">
<title>Node5</title>
<g id="a_node5"><a xlink:href="namespacesll__m__cubic__spline__interpolator__1d__nonuniform.html#abd3af9c4360ae59306613d94743de5a2" target="_top" xlink:title=" ">
<polygon fill="white" stroke="black" points="0,-422 0,-463 158,-463 158,-422 0,-422"/>
<text text-anchor="start" x="8" y="-451" font-family="Helvetica,sans-Serif" font-size="10.00">sll_m_cubic_spline</text>
<text text-anchor="start" x="8" y="-440" font-family="Helvetica,sans-Serif" font-size="10.00">_interpolator_1d_nonuniform</text>
<text text-anchor="middle" x="79" y="-429" font-family="Helvetica,sans-Serif" font-size="10.00">::compute_interpolants_cs1d</text>
</a>
</g>
</g>
<!-- Node3&#45;&gt;Node5 -->
<g id="edge4" class="edge">
<title>Node3&#45;&gt;Node5</title>
<path fill="none" stroke="midnightblue" d="M247.18,-302.61C229.32,-333.97 197.54,-382.62 158,-412.5 153.37,-416 148.28,-419.14 142.99,-421.94"/>
<polygon fill="midnightblue" stroke="midnightblue" points="250.46,-303.91 252.27,-293.47 244.34,-300.51 250.46,-303.91"/>
</g>
<!-- Node6 -->
<g id="node6" class="node">
<title>Node6</title>
<g id="a_node6"><a xlink:href="namespacesll__m__fdistribu4d__dk.html#ad019b52770477f636c8115bc5ad20475" target="_top" xlink:title=" ">
<polygon fill="white" stroke="black" points="20,-372.5 20,-402.5 138,-402.5 138,-372.5 20,-372.5"/>
<text text-anchor="start" x="28" y="-390.5" font-family="Helvetica,sans-Serif" font-size="10.00">sll_m_fdistribu4d_dk</text>
<text text-anchor="middle" x="79" y="-379.5" font-family="Helvetica,sans-Serif" font-size="10.00">::function_xy_from_r</text>
</a>
</g>
</g>
<!-- Node3&#45;&gt;Node6 -->
<g id="edge5" class="edge">
<title>Node3&#45;&gt;Node6</title>
<path fill="none" stroke="midnightblue" d="M236.73,-300.31C216.76,-320.05 187.74,-345.89 158,-362.5 151.3,-366.24 143.95,-369.52 136.53,-372.36"/>
<polygon fill="midnightblue" stroke="midnightblue" points="239.36,-302.63 243.93,-293.07 234.39,-297.7 239.36,-302.63"/>
</g>
<!-- Node7 -->
<g id="node7" class="node">
<title>Node7</title>
<g id="a_node7"><a xlink:href="namespacesll__m__cubic__spline__interpolator__1d.html#ab8a181e5359e6b21447adfc487b11bba" target="_top" xlink:title=" ">
<polygon fill="white" stroke="black" points="13.5,-312 13.5,-353 144.5,-353 144.5,-312 13.5,-312"/>
<text text-anchor="start" x="21.5" y="-341" font-family="Helvetica,sans-Serif" font-size="10.00">sll_m_cubic_spline</text>
<text text-anchor="start" x="21.5" y="-330" font-family="Helvetica,sans-Serif" font-size="10.00">_interpolator_1d::spline</text>
<text text-anchor="middle" x="79" y="-319" font-family="Helvetica,sans-Serif" font-size="10.00">_interpolate1d</text>
</a>
</g>
</g>
<!-- Node3&#45;&gt;Node7 -->
<g id="edge6" class="edge">
<title>Node3&#45;&gt;Node7</title>
<path fill="none" stroke="midnightblue" d="M190.54,-296.26C174.7,-301.45 158.06,-306.91 142.64,-311.96"/>
<polygon fill="midnightblue" stroke="midnightblue" points="191.87,-299.51 200.28,-293.06 189.69,-292.85 191.87,-299.51"/>
</g>
<!-- Node8 -->
<g id="node8" class="node">
<title>Node8</title>
<g id="a_node8"><a xlink:href="namespacesll__m__cubic__spline__interpolator__1d__nonuniform.html#ae95057946b4f429cb6eb045cdf981cbb" target="_top" xlink:title=" ">
<polygon fill="white" stroke="black" points="0,-252 0,-293 158,-293 158,-252 0,-252"/>
<text text-anchor="start" x="8" y="-281" font-family="Helvetica,sans-Serif" font-size="10.00">sll_m_cubic_spline</text>
<text text-anchor="start" x="8" y="-270" font-family="Helvetica,sans-Serif" font-size="10.00">_interpolator_1d_nonuniform</text>
<text text-anchor="middle" x="79" y="-259" font-family="Helvetica,sans-Serif" font-size="10.00">::spline_interpolate1d</text>
</a>
</g>
</g>
<!-- Node3&#45;&gt;Node8 -->
<g id="edge7" class="edge">
<title>Node3&#45;&gt;Node8</title>
<path fill="none" stroke="midnightblue" d="M183.61,-272.5C175.18,-272.5 166.6,-272.5 158.17,-272.5"/>
<polygon fill="midnightblue" stroke="midnightblue" points="183.82,-276 193.82,-272.5 183.82,-269 183.82,-276"/>
</g>
<!-- Node9 -->
<g id="node9" class="node">
<title>Node9</title>
<g id="a_node9"><a xlink:href="namespacesll__m__cubic__spline__interpolator__1d.html#abe4c9e034ac1540b8d94dc4ace1a6f70" target="_top" xlink:title="Computes the interpolated values at each grid point replaced by alpha using cubic spline interpolatio...">
<polygon fill="white" stroke="black" points="13.5,-192 13.5,-233 144.5,-233 144.5,-192 13.5,-192"/>
<text text-anchor="start" x="21.5" y="-221" font-family="Helvetica,sans-Serif" font-size="10.00">sll_m_cubic_spline</text>
<text text-anchor="start" x="21.5" y="-210" font-family="Helvetica,sans-Serif" font-size="10.00">_interpolator_1d::spline</text>
<text text-anchor="middle" x="79" y="-199" font-family="Helvetica,sans-Serif" font-size="10.00">_interpolate1d_disp</text>
</a>
</g>
</g>
<!-- Node3&#45;&gt;Node9 -->
<g id="edge8" class="edge">
<title>Node3&#45;&gt;Node9</title>
<path fill="none" stroke="midnightblue" d="M190.54,-248.74C174.7,-243.55 158.06,-238.09 142.64,-233.04"/>
<polygon fill="midnightblue" stroke="midnightblue" points="189.69,-252.15 200.28,-251.94 191.87,-245.49 189.69,-252.15"/>
</g>
<!-- Node10 -->
<g id="node10" class="node">
<title>Node10</title>
<g id="a_node10"><a xlink:href="namespacesll__m__cubic__spline__interpolator__1d__nonuniform.html#af53ddbd763184d9522db48311097a230" target="_top" xlink:title=" ">
<polygon fill="white" stroke="black" points="0,-132 0,-173 158,-173 158,-132 0,-132"/>
<text text-anchor="start" x="8" y="-161" font-family="Helvetica,sans-Serif" font-size="10.00">sll_m_cubic_spline</text>
<text text-anchor="start" x="8" y="-150" font-family="Helvetica,sans-Serif" font-size="10.00">_interpolator_1d_nonuniform</text>
<text text-anchor="middle" x="79" y="-139" font-family="Helvetica,sans-Serif" font-size="10.00">::spline_interpolate1d_disp</text>
</a>
</g>
</g>
<!-- Node3&#45;&gt;Node10 -->
<g id="edge9" class="edge">
<title>Node3&#45;&gt;Node10</title>
<path fill="none" stroke="midnightblue" d="M236.07,-244.83C215.97,-225.38 187.07,-199.84 158,-182.5 152.27,-179.08 146.08,-175.92 139.78,-173.04"/>
<polygon fill="midnightblue" stroke="midnightblue" points="233.73,-247.44 243.32,-251.95 238.64,-242.45 233.73,-247.44"/>
</g>
<!-- Node11 -->
<g id="node11" class="node">
<title>Node11</title>
<g id="a_node11"><a xlink:href="namespacesll__m__cubic__spline__interpolator__1d.html#a9b93d13cff3e434180f86bea86b590a0" target="_top" xlink:title=" ">
<polygon fill="white" stroke="black" points="2.5,-72 2.5,-113 155.5,-113 155.5,-72 2.5,-72"/>
<text text-anchor="start" x="10.5" y="-101" font-family="Helvetica,sans-Serif" font-size="10.00">sll_m_cubic_spline</text>
<text text-anchor="start" x="10.5" y="-90" font-family="Helvetica,sans-Serif" font-size="10.00">_interpolator_1d::spline</text>
<text text-anchor="middle" x="79" y="-79" font-family="Helvetica,sans-Serif" font-size="10.00">_interpolate1d_disp_inplace</text>
</a>
</g>
</g>
<!-- Node3&#45;&gt;Node11 -->
<g id="edge10" class="edge">
<title>Node3&#45;&gt;Node11</title>
<path fill="none" stroke="midnightblue" d="M248.92,-242.58C231.77,-209.08 199.82,-155.2 158,-122.5 153.54,-119.01 148.63,-115.89 143.51,-113.11"/>
<polygon fill="midnightblue" stroke="midnightblue" points="245.96,-244.49 253.56,-251.87 252.22,-241.36 245.96,-244.49"/>
</g>
<!-- Node12 -->
<g id="node12" class="node">
<title>Node12</title>
<g id="a_node12"><a xlink:href="namespacesll__m__cubic__spline__interpolator__1d__nonuniform.html#a02beec466d1229b3850dfcaea9eaa8af" target="_top" xlink:title=" ">
<polygon fill="white" stroke="black" points="0,-0.5 0,-52.5 158,-52.5 158,-0.5 0,-0.5"/>
<text text-anchor="start" x="8" y="-40.5" font-family="Helvetica,sans-Serif" font-size="10.00">sll_m_cubic_spline</text>
<text text-anchor="start" x="8" y="-29.5" font-family="Helvetica,sans-Serif" font-size="10.00">_interpolator_1d_nonuniform</text>
<text text-anchor="start" x="8" y="-18.5" font-family="Helvetica,sans-Serif" font-size="10.00">::spline_interpolate1d_disp</text>
<text text-anchor="middle" x="79" y="-7.5" font-family="Helvetica,sans-Serif" font-size="10.00">_inplace</text>
</a>
</g>
</g>
<!-- Node3&#45;&gt;Node12 -->
<g id="edge11" class="edge">
<title>Node3&#45;&gt;Node12</title>
<path fill="none" stroke="midnightblue" d="M254.86,-242.14C241.5,-197.48 210.95,-113.82 158,-62.5 154.25,-58.87 150.07,-55.55 145.64,-52.54"/>
<polygon fill="midnightblue" stroke="midnightblue" points="251.53,-243.21 257.68,-251.83 258.25,-241.26 251.53,-243.21"/>
</g>
<!-- Node13&#45;&gt;Node3 -->
<g id="edge13" class="edge">
<title>Node13&#45;&gt;Node3</title>
<path fill="none" stroke="midnightblue" d="M359.91,-254.98C351.43,-256.54 342.75,-258.15 334.24,-259.72"/>
<polygon fill="midnightblue" stroke="midnightblue" points="360.55,-258.42 369.75,-253.16 359.28,-251.54 360.55,-258.42"/>
</g>
</g>
</svg>
