<?xml version="1.0" encoding="UTF-8" standalone="no"?>
<!DOCTYPE svg PUBLIC "-//W3C//DTD SVG 1.1//EN"
 "http://www.w3.org/Graphics/SVG/1.1/DTD/svg11.dtd">
<!-- Generated by graphviz version 2.43.0 (0)
 -->
<!-- Title: sll_s_qn_solver_3d_polar_par_solve Pages: 1 -->
<svg width="494pt" height="50pt"
 viewBox="0.00 0.00 494.00 50.00" xmlns="http://www.w3.org/2000/svg" xmlns:xlink="http://www.w3.org/1999/xlink">
<g id="graph0" class="graph" transform="scale(1 1) rotate(0) translate(4 46)">
<title>sll_s_qn_solver_3d_polar_par_solve</title>
<polygon fill="white" stroke="transparent" points="-4,4 -4,-46 490,-46 490,4 -4,4"/>
<!-- Node1 -->
<g id="node1" class="node">
<title>Node1</title>
<g id="a_node1"><a xlink:title="Solve the quasi&#45;neutrality equation and get the electrostatic potential.">
<polygon fill="#bfbfbf" stroke="black" points="0,-6 0,-36 108,-36 108,-6 0,-6"/>
<text text-anchor="start" x="8" y="-24" font-family="Helvetica,sans-Serif" font-size="10.00">sll_s_qn_solver_3d</text>
<text text-anchor="middle" x="54" y="-13" font-family="Helvetica,sans-Serif" font-size="10.00">_polar_par_solve</text>
</a>
</g>
</g>
<!-- Node2 -->
<g id="node2" class="node">
<title>Node2</title>
<g id="a_node2"><a xlink:href="namespacesll__m__qn__solver__2d__polar__par.html#a6847dcd1e2ad86b883dfa7274d4785cc" target="_top" xlink:title="Solve the quasi&#45;neutrality equation and get the electrostatic potential.">
<polygon fill="white" stroke="black" points="144,-0.5 144,-41.5 296,-41.5 296,-0.5 144,-0.5"/>
<text text-anchor="start" x="152" y="-29.5" font-family="Helvetica,sans-Serif" font-size="10.00">sll_m_qn_solver_2d</text>
<text text-anchor="start" x="152" y="-18.5" font-family="Helvetica,sans-Serif" font-size="10.00">_polar_par::sll_s_qn</text>
<text text-anchor="middle" x="220" y="-7.5" font-family="Helvetica,sans-Serif" font-size="10.00">_solver_2d_polar_par_solve</text>
</a>
</g>
</g>
<!-- Node1&#45;&gt;Node2 -->
<g id="edge1" class="edge">
<title>Node1&#45;&gt;Node2</title>
<path fill="none" stroke="midnightblue" d="M108.25,-21C116.45,-21 125.09,-21 133.78,-21"/>
<polygon fill="midnightblue" stroke="midnightblue" points="133.98,-24.5 143.98,-21 133.98,-17.5 133.98,-24.5"/>
</g>
<!-- Node3 -->
<g id="node3" class="node">
<title>Node3</title>
<g id="a_node3"><a xlink:href="namespacesll__m__qn__solver__2d__polar__par.html#a73267da261954756976f2194cc7af865" target="_top" xlink:title="Check if array sizes are compatible with the layout.">
<polygon fill="white" stroke="black" points="332,-0.5 332,-41.5 486,-41.5 486,-0.5 332,-0.5"/>
<text text-anchor="start" x="340" y="-29.5" font-family="Helvetica,sans-Serif" font-size="10.00">sll_m_qn_solver_2d</text>
<text text-anchor="start" x="340" y="-18.5" font-family="Helvetica,sans-Serif" font-size="10.00">_polar_par::verify_argument</text>
<text text-anchor="middle" x="409" y="-7.5" font-family="Helvetica,sans-Serif" font-size="10.00">_sizes_par</text>
</a>
</g>
</g>
<!-- Node2&#45;&gt;Node3 -->
<g id="edge2" class="edge">
<title>Node2&#45;&gt;Node3</title>
<path fill="none" stroke="midnightblue" d="M296.25,-21C304.71,-21 313.38,-21 321.97,-21"/>
<polygon fill="midnightblue" stroke="midnightblue" points="321.99,-24.5 331.99,-21 321.99,-17.5 321.99,-24.5"/>
</g>
</g>
</svg>
