<?xml version="1.0" encoding="UTF-8" standalone="no"?>
<!DOCTYPE svg PUBLIC "-//W3C//DTD SVG 1.1//EN"
 "http://www.w3.org/Graphics/SVG/1.1/DTD/svg11.dtd">
<!-- Generated by graphviz version 2.43.0 (0)
 -->
<!-- Title: interpolate_from_interpolant_value Pages: 1 -->
<svg width="362pt" height="88pt"
 viewBox="0.00 0.00 362.00 88.00" xmlns="http://www.w3.org/2000/svg" xmlns:xlink="http://www.w3.org/1999/xlink">
<g id="graph0" class="graph" transform="scale(1 1) rotate(0) translate(4 84)">
<title>interpolate_from_interpolant_value</title>
<polygon fill="white" stroke="transparent" points="-4,4 -4,-84 358,-84 358,4 -4,4"/>
<!-- Node1 -->
<g id="node1" class="node">
<title>Node1</title>
<g id="a_node1"><a xlink:title="Compute the value of the sparse grid interpolant at position eta (using standard sparse grid interpol...">
<polygon fill="#bfbfbf" stroke="black" points="0,-24.5 0,-54.5 157,-54.5 157,-24.5 0,-24.5"/>
<text text-anchor="start" x="8" y="-42.5" font-family="Helvetica,sans-Serif" font-size="10.00">interpolate_from_interpolant</text>
<text text-anchor="middle" x="78.5" y="-31.5" font-family="Helvetica,sans-Serif" font-size="10.00">_value</text>
</a>
</g>
</g>
<!-- Node2 -->
<g id="node2" class="node">
<title>Node2</title>
<g id="a_node2"><a xlink:href="namespacesll__m__sparse__grid__3d.html#a2bd4be0fdabc6f1fb46a6d4ec68328d2" target="_top" xlink:title="Implements interpolate_from_interpolant_value for periodic sparse grid.">
<polygon fill="white" stroke="black" points="193,-49.5 193,-79.5 354,-79.5 354,-49.5 193,-49.5"/>
<text text-anchor="start" x="201" y="-67.5" font-family="Helvetica,sans-Serif" font-size="10.00">interpolate_from_hierarchical</text>
<text text-anchor="middle" x="273.5" y="-56.5" font-family="Helvetica,sans-Serif" font-size="10.00">_surplus</text>
</a>
</g>
</g>
<!-- Node1&#45;&gt;Node2 -->
<g id="edge1" class="edge">
<title>Node1&#45;&gt;Node2</title>
<path fill="none" stroke="midnightblue" d="M157.17,-49.56C165.6,-50.65 174.23,-51.77 182.79,-52.88"/>
<polygon fill="midnightblue" stroke="midnightblue" points="182.42,-56.36 192.79,-54.17 183.32,-49.42 182.42,-56.36"/>
</g>
<!-- Node3 -->
<g id="node3" class="node">
<title>Node3</title>
<g id="a_node3"><a xlink:href="namespacesll__m__sparse__grid__3d.html#a09df31415bc404819675c2d2b23739a2" target="_top" xlink:title="implements interpolation from hierarchical surplus (interpolate_from_interpolant_value) non&#45;periodic">
<polygon fill="white" stroke="black" points="193,-0.5 193,-30.5 354,-30.5 354,-0.5 193,-0.5"/>
<text text-anchor="start" x="201" y="-18.5" font-family="Helvetica,sans-Serif" font-size="10.00">interpolate_from_hierarchical</text>
<text text-anchor="middle" x="273.5" y="-7.5" font-family="Helvetica,sans-Serif" font-size="10.00">_surplus_boundary</text>
</a>
</g>
</g>
<!-- Node1&#45;&gt;Node3 -->
<g id="edge2" class="edge">
<title>Node1&#45;&gt;Node3</title>
<path fill="none" stroke="midnightblue" d="M157.17,-29.84C165.6,-28.79 174.23,-27.72 182.79,-26.66"/>
<polygon fill="midnightblue" stroke="midnightblue" points="183.3,-30.12 192.79,-25.41 182.43,-23.17 183.3,-30.12"/>
</g>
</g>
</svg>
