<?xml version="1.0" encoding="UTF-8" standalone="no"?>
<!DOCTYPE svg PUBLIC "-//W3C//DTD SVG 1.1//EN"
 "http://www.w3.org/Graphics/SVG/1.1/DTD/svg11.dtd">
<!-- Generated by graphviz version 2.38.0 (20140413.2041)
 -->
<!-- Title: sll_s_solve_general_coordinates_elliptic_eq_mp Pages: 1 -->
<svg width="894pt" height="68pt"
 viewBox="0.00 0.00 894.00 67.50" xmlns="http://www.w3.org/2000/svg" xmlns:xlink="http://www.w3.org/1999/xlink">
<g id="graph0" class="graph" transform="scale(1 1) rotate(0) translate(4 63.5)">
<title>sll_s_solve_general_coordinates_elliptic_eq_mp</title>
<polygon fill="white" stroke="none" points="-4,4 -4,-63.5 890,-63.5 890,4 -4,4"/>
<!-- Node1 -->
<g id="node1" class="node"><title>Node1</title>
<polygon fill="#bfbfbf" stroke="black" points="0,-23.5 0,-53.5 140,-53.5 140,-23.5 0,-23.5"/>
<text text-anchor="start" x="8" y="-41.5" font-family="Helvetica,sans-Serif" font-size="10.00">sll_s_solve_general</text>
<text text-anchor="middle" x="70" y="-30.5" font-family="Helvetica,sans-Serif" font-size="10.00">_coordinates_elliptic_eq_mp</text>
</g>
<!-- Node2 -->
<g id="node2" class="node"><title>Node2</title>
<g id="a_node2"><a xlink:href="namespacesll__m__sparse__matrix.html#a69a0ac919303b6063ba71c7e4f31137d" target="_top" xlink:title="sll_m_sparse_matrix\l::sll_s_mult_csr_matrix\l_vector">
<polygon fill="white" stroke="black" points="768,-17 768,-58 886,-58 886,-17 768,-17"/>
<text text-anchor="start" x="776" y="-46" font-family="Helvetica,sans-Serif" font-size="10.00">sll_m_sparse_matrix</text>
<text text-anchor="start" x="776" y="-35" font-family="Helvetica,sans-Serif" font-size="10.00">::sll_s_mult_csr_matrix</text>
<text text-anchor="middle" x="827" y="-24" font-family="Helvetica,sans-Serif" font-size="10.00">_vector</text>
</a>
</g>
</g>
<!-- Node1&#45;&gt;Node2 -->
<g id="edge1" class="edge"><title>Node1&#45;&gt;Node2</title>
<path fill="none" stroke="midnightblue" d="M140.305,-45.8448C203.471,-51.9006 299.395,-59.5 383,-59.5 383,-59.5 383,-59.5 529,-59.5 607.569,-59.5 697.51,-51.7483 757.639,-45.4476"/>
<polygon fill="midnightblue" stroke="midnightblue" points="758.193,-48.9085 767.767,-44.3704 757.453,-41.9477 758.193,-48.9085"/>
</g>
<!-- Node3 -->
<g id="node3" class="node"><title>Node3</title>
<g id="a_node3"><a xlink:href="namespacesll__m__general__coordinate__elliptic__solver__multipatch.html#ad586304ed7ac38e61ea43cf18d2ca0c1" target="_top" xlink:title="solve_linear_system_mp">
<polygon fill="white" stroke="black" points="176,-9 176,-28 301,-28 301,-9 176,-9"/>
<text text-anchor="middle" x="238.5" y="-16" font-family="Helvetica,sans-Serif" font-size="10.00">solve_linear_system_mp</text>
</a>
</g>
</g>
<!-- Node1&#45;&gt;Node3 -->
<g id="edge2" class="edge"><title>Node1&#45;&gt;Node3</title>
<path fill="none" stroke="midnightblue" d="M140.165,-30.192C148.706,-29.166 157.45,-28.1156 166.025,-27.0856"/>
<polygon fill="midnightblue" stroke="midnightblue" points="166.479,-30.5563 175.99,-25.8886 165.644,-23.6062 166.479,-30.5563"/>
</g>
<!-- Node4 -->
<g id="node4" class="node"><title>Node4</title>
<g id="a_node4"><a xlink:href="namespacesll__m__general__coordinate__elliptic__solver__multipatch.html#acb2419ac4636b43343b2c695498a516e" target="_top" xlink:title="solve_gen_elliptic\l_eq_mp">
<polygon fill="white" stroke="black" points="337,-0.5 337,-30.5 431,-30.5 431,-0.5 337,-0.5"/>
<text text-anchor="start" x="345" y="-18.5" font-family="Helvetica,sans-Serif" font-size="10.00">solve_gen_elliptic</text>
<text text-anchor="middle" x="384" y="-7.5" font-family="Helvetica,sans-Serif" font-size="10.00">_eq_mp</text>
</a>
</g>
</g>
<!-- Node3&#45;&gt;Node4 -->
<g id="edge3" class="edge"><title>Node3&#45;&gt;Node4</title>
<path fill="none" stroke="midnightblue" d="M301.19,-17.2103C309.723,-17.0319 318.449,-16.8495 326.874,-16.6734"/>
<polygon fill="midnightblue" stroke="midnightblue" points="327.042,-20.1707 336.967,-16.4624 326.896,-13.1722 327.042,-20.1707"/>
</g>
<!-- Node5 -->
<g id="node5" class="node"><title>Node5</title>
<g id="a_node5"><a xlink:href="namespacesll__m__sparse__matrix.html#a7d5478ffad5dfe54e84b5c4d203f380f" target="_top" xlink:title="sll_m_sparse_matrix\l::sll_s_solve_csr_matrix">
<polygon fill="white" stroke="black" points="467,-0.5 467,-30.5 589,-30.5 589,-0.5 467,-0.5"/>
<text text-anchor="start" x="475" y="-18.5" font-family="Helvetica,sans-Serif" font-size="10.00">sll_m_sparse_matrix</text>
<text text-anchor="middle" x="528" y="-7.5" font-family="Helvetica,sans-Serif" font-size="10.00">::sll_s_solve_csr_matrix</text>
</a>
</g>
</g>
<!-- Node4&#45;&gt;Node5 -->
<g id="edge4" class="edge"><title>Node4&#45;&gt;Node5</title>
<path fill="none" stroke="midnightblue" d="M431.103,-15.5C439.31,-15.5 448.026,-15.5 456.726,-15.5"/>
<polygon fill="midnightblue" stroke="midnightblue" points="456.902,-19.0001 466.902,-15.5 456.902,-12.0001 456.902,-19.0001"/>
</g>
<!-- Node6 -->
<g id="node6" class="node"><title>Node6</title>
<g id="a_node6"><a xlink:href="namespacesll__m__sparse__matrix.html#a468090b4b06aeafdea056c08b63a72ef" target="_top" xlink:title="sll_m_sparse_matrix\l::solve_with_cg">
<polygon fill="white" stroke="black" points="625,-0.5 625,-30.5 732,-30.5 732,-0.5 625,-0.5"/>
<text text-anchor="start" x="633" y="-18.5" font-family="Helvetica,sans-Serif" font-size="10.00">sll_m_sparse_matrix</text>
<text text-anchor="middle" x="678.5" y="-7.5" font-family="Helvetica,sans-Serif" font-size="10.00">::solve_with_cg</text>
</a>
</g>
</g>
<!-- Node5&#45;&gt;Node6 -->
<g id="edge5" class="edge"><title>Node5&#45;&gt;Node6</title>
<path fill="none" stroke="midnightblue" d="M589.401,-15.5C597.735,-15.5 606.312,-15.5 614.689,-15.5"/>
<polygon fill="midnightblue" stroke="midnightblue" points="614.779,-19.0001 624.779,-15.5 614.779,-12.0001 614.779,-19.0001"/>
</g>
<!-- Node6&#45;&gt;Node2 -->
<g id="edge6" class="edge"><title>Node6&#45;&gt;Node2</title>
<path fill="none" stroke="midnightblue" d="M732.39,-23.4425C740.637,-24.681 749.258,-25.9756 757.788,-27.2565"/>
<polygon fill="midnightblue" stroke="midnightblue" points="757.322,-30.7258 767.731,-28.7497 758.362,-23.8034 757.322,-30.7258"/>
</g>
</g>
</svg>
