<?xml version="1.0" encoding="UTF-8" standalone="no"?>
<!DOCTYPE svg PUBLIC "-//W3C//DTD SVG 1.1//EN"
 "http://www.w3.org/Graphics/SVG/1.1/DTD/svg11.dtd">
<!-- Generated by graphviz version 2.43.0 (0)
 -->
<!-- Title: init_3d_fem Pages: 1 -->
<svg width="878pt" height="450pt"
 viewBox="0.00 0.00 878.00 450.00" xmlns="http://www.w3.org/2000/svg" xmlns:xlink="http://www.w3.org/1999/xlink">
<g id="graph0" class="graph" transform="scale(1 1) rotate(0) translate(4 446)">
<title>init_3d_fem</title>
<polygon fill="white" stroke="transparent" points="-4,4 -4,-446 874,-446 874,4 -4,4"/>
<!-- Node1 -->
<g id="node1" class="node">
<title>Node1</title>
<g id="a_node1"><a xlink:title="Initialization.">
<polygon fill="#bfbfbf" stroke="black" points="0,-291.5 0,-310.5 74,-310.5 74,-291.5 0,-291.5"/>
<text text-anchor="middle" x="37" y="-298.5" font-family="Helvetica,sans-Serif" font-size="10.00">init_3d_fem</text>
</a>
</g>
</g>
<!-- Node2 -->
<g id="node2" class="node">
<title>Node2</title>
<g id="a_node2"><a xlink:href="sll__m__maxwell__1d__trafo_8_f90.html#a84da6f16f6cb045957fef43d185b23db" target="_top" xlink:title=" ">
<polygon fill="white" stroke="black" points="174.5,-422.5 174.5,-441.5 233.5,-441.5 233.5,-422.5 174.5,-422.5"/>
<text text-anchor="middle" x="204" y="-429.5" font-family="Helvetica,sans-Serif" font-size="10.00">profile_0</text>
</a>
</g>
</g>
<!-- Node1&#45;&gt;Node2 -->
<g id="edge1" class="edge">
<title>Node1&#45;&gt;Node2</title>
<path fill="none" stroke="midnightblue" d="M41.23,-310.65C49.14,-332.67 71.67,-386.75 110,-413 125.8,-423.82 146.41,-428.73 164.22,-430.87"/>
<polygon fill="midnightblue" stroke="midnightblue" points="164.04,-434.37 174.32,-431.83 164.7,-427.4 164.04,-434.37"/>
</g>
<!-- Node3 -->
<g id="node3" class="node">
<title>Node3</title>
<g id="a_node3"><a xlink:href="sll__m__maxwell__1d__trafo_8_f90.html#a9c311415a09c7e5c6d5c7dc66b773bc9" target="_top" xlink:title=" ">
<polygon fill="white" stroke="black" points="170,-384.5 170,-403.5 238,-403.5 238,-384.5 170,-384.5"/>
<text text-anchor="middle" x="204" y="-391.5" font-family="Helvetica,sans-Serif" font-size="10.00">profile_m0</text>
</a>
</g>
</g>
<!-- Node1&#45;&gt;Node3 -->
<g id="edge2" class="edge">
<title>Node1&#45;&gt;Node3</title>
<path fill="none" stroke="midnightblue" d="M44.46,-310.73C55.73,-326.85 80.59,-358.92 110,-375 125.21,-383.31 143.62,-388 160.03,-390.64"/>
<polygon fill="midnightblue" stroke="midnightblue" points="159.55,-394.11 169.94,-392.04 160.53,-387.18 159.55,-394.11"/>
</g>
<!-- Node4 -->
<g id="node4" class="node">
<title>Node4</title>
<g id="a_node4"><a xlink:href="namespacesll__m__spline__fem__utilities__sparse.html#a2003f09f29c8034b9cb433328afaef6b" target="_top" xlink:title="Set up 1d mass matrix (sparsity pattern and values)">
<polygon fill="white" stroke="black" points="111.5,-335 111.5,-365 296.5,-365 296.5,-335 111.5,-335"/>
<text text-anchor="start" x="119.5" y="-353" font-family="Helvetica,sans-Serif" font-size="10.00">sll_m_spline_fem_utilities</text>
<text text-anchor="middle" x="204" y="-342" font-family="Helvetica,sans-Serif" font-size="10.00">_sparse::sll_s_spline_fem_mass1d</text>
</a>
</g>
</g>
<!-- Node1&#45;&gt;Node4 -->
<g id="edge3" class="edge">
<title>Node1&#45;&gt;Node4</title>
<path fill="none" stroke="midnightblue" d="M63.83,-310.54C77.47,-315.44 94.55,-321.33 110,-326 117.1,-328.15 124.55,-330.27 132,-332.32"/>
<polygon fill="midnightblue" stroke="midnightblue" points="131.2,-335.73 141.77,-334.96 133.03,-328.97 131.2,-335.73"/>
</g>
<!-- Node7 -->
<g id="node7" class="node">
<title>Node7</title>
<g id="a_node7"><a xlink:href="namespacesll__m__spline__fem__utilities__3d.html#a6057d494b129b97fd792aafe62fb6932" target="_top" xlink:title="Set up 3d mass matrix for specific spline degrees and profile function.">
<polygon fill="white" stroke="black" points="122,-188 122,-218 286,-218 286,-188 122,-188"/>
<text text-anchor="start" x="130" y="-206" font-family="Helvetica,sans-Serif" font-size="10.00">sll_m_spline_fem_utilities</text>
<text text-anchor="middle" x="204" y="-195" font-family="Helvetica,sans-Serif" font-size="10.00">_3d::sll_s_spline_fem_mass3d</text>
</a>
</g>
</g>
<!-- Node1&#45;&gt;Node7 -->
<g id="edge6" class="edge">
<title>Node1&#45;&gt;Node7</title>
<path fill="none" stroke="midnightblue" d="M44.79,-291.35C56.35,-275.65 81.39,-244.67 110,-228 113.84,-225.76 117.89,-223.72 122.06,-221.86"/>
<polygon fill="midnightblue" stroke="midnightblue" points="123.42,-225.08 131.34,-218.05 120.76,-218.6 123.42,-225.08"/>
</g>
<!-- Node16 -->
<g id="node16" class="node">
<title>Node16</title>
<g id="a_node16"><a xlink:href="namespacesll__m__spline__fem__utilities.html#ae3b59ded8bbb13b7762f0ac9dfb320be" target="_top" xlink:title="Computes the mass line for a mass matrix with degree splines.">
<polygon fill="white" stroke="black" points="125,-286 125,-316 283,-316 283,-286 125,-286"/>
<text text-anchor="start" x="133" y="-304" font-family="Helvetica,sans-Serif" font-size="10.00">sll_m_spline_fem_utilities</text>
<text text-anchor="middle" x="204" y="-293" font-family="Helvetica,sans-Serif" font-size="10.00">::sll_s_spline_fem_mass_line</text>
</a>
</g>
</g>
<!-- Node1&#45;&gt;Node16 -->
<g id="edge15" class="edge">
<title>Node1&#45;&gt;Node16</title>
<path fill="none" stroke="midnightblue" d="M74.21,-301C86.27,-301 100.28,-301 114.54,-301"/>
<polygon fill="midnightblue" stroke="midnightblue" points="114.93,-304.5 124.93,-301 114.93,-297.5 114.93,-304.5"/>
</g>
<!-- Node17 -->
<g id="node17" class="node">
<title>Node17</title>
<g id="a_node17"><a xlink:href="namespacesll__m__spline__fem__utilities__sparse.html#ab1ac1f6dcb1c4dfe4711711a3e89dbe6" target="_top" xlink:title=" ">
<polygon fill="white" stroke="black" points="132,-55.5 132,-96.5 276,-96.5 276,-55.5 132,-55.5"/>
<text text-anchor="start" x="140" y="-84.5" font-family="Helvetica,sans-Serif" font-size="10.00">sll_m_spline_fem_utilities</text>
<text text-anchor="start" x="140" y="-73.5" font-family="Helvetica,sans-Serif" font-size="10.00">_sparse::sll_s_spline_fem</text>
<text text-anchor="middle" x="204" y="-62.5" font-family="Helvetica,sans-Serif" font-size="10.00">_mixedmass1d</text>
</a>
</g>
</g>
<!-- Node1&#45;&gt;Node17 -->
<g id="edge17" class="edge">
<title>Node1&#45;&gt;Node17</title>
<path fill="none" stroke="midnightblue" d="M42.81,-291.41C53.59,-270.28 81.02,-218.44 110,-179 129.86,-151.97 155.63,-123.88 175,-103.88"/>
<polygon fill="midnightblue" stroke="midnightblue" points="177.6,-106.22 182.08,-96.62 172.59,-101.33 177.6,-106.22"/>
</g>
<!-- Node20 -->
<g id="node20" class="node">
<title>Node20</title>
<g id="a_node20"><a xlink:href="namespacesll__m__spline__fem__utilities.html#adfa24c61f416471302339b83845ac77c" target="_top" xlink:title="Helper function to find line of mass matrix ( N_i^p N_j^{p&#45;1}))">
<polygon fill="white" stroke="black" points="110,-237 110,-267 298,-267 298,-237 110,-237"/>
<text text-anchor="start" x="118" y="-255" font-family="Helvetica,sans-Serif" font-size="10.00">sll_m_spline_fem_utilities</text>
<text text-anchor="middle" x="204" y="-244" font-family="Helvetica,sans-Serif" font-size="10.00">::sll_s_spline_fem_mixedmass_line</text>
</a>
</g>
</g>
<!-- Node1&#45;&gt;Node20 -->
<g id="edge20" class="edge">
<title>Node1&#45;&gt;Node20</title>
<path fill="none" stroke="midnightblue" d="M65.57,-291.38C78.93,-286.84 95.24,-281.44 110,-277 118.06,-274.58 126.54,-272.14 134.96,-269.79"/>
<polygon fill="midnightblue" stroke="midnightblue" points="136.1,-273.11 144.81,-267.08 134.24,-266.36 136.1,-273.11"/>
</g>
<!-- Node5 -->
<g id="node5" class="node">
<title>Node5</title>
<g id="a_node5"><a xlink:href="namespacesll__m__spline__fem__utilities__sparse.html#af733f1fdecc6e55f524603a72888ed31" target="_top" xlink:title="Assemble sparse matrix for mass matrix.">
<polygon fill="white" stroke="black" points="350,-390 350,-420 494,-420 494,-390 350,-390"/>
<text text-anchor="start" x="358" y="-408" font-family="Helvetica,sans-Serif" font-size="10.00">sll_m_spline_fem_utilities</text>
<text text-anchor="middle" x="422" y="-397" font-family="Helvetica,sans-Serif" font-size="10.00">_sparse::assemble_mass</text>
</a>
</g>
</g>
<!-- Node4&#45;&gt;Node5 -->
<g id="edge4" class="edge">
<title>Node4&#45;&gt;Node5</title>
<path fill="none" stroke="midnightblue" d="M264.02,-365.03C291.29,-371.97 323.83,-380.26 352.2,-387.48"/>
<polygon fill="midnightblue" stroke="midnightblue" points="351.49,-390.91 362.05,-389.99 353.22,-384.13 351.49,-390.91"/>
</g>
<!-- Node6 -->
<g id="node6" class="node">
<title>Node6</title>
<g id="a_node6"><a xlink:href="namespacesll__m__spline__fem__utilities__sparse.html#a10fb9b7a4dea5775b5aa44f03be76f0e" target="_top" xlink:title="Helper function to create sparsity pattern of the mass matrix.">
<polygon fill="white" stroke="black" points="350,-329.5 350,-370.5 494,-370.5 494,-329.5 350,-329.5"/>
<text text-anchor="start" x="358" y="-358.5" font-family="Helvetica,sans-Serif" font-size="10.00">sll_m_spline_fem_utilities</text>
<text text-anchor="start" x="358" y="-347.5" font-family="Helvetica,sans-Serif" font-size="10.00">_sparse::sll_s_spline_fem</text>
<text text-anchor="middle" x="422" y="-336.5" font-family="Helvetica,sans-Serif" font-size="10.00">_sparsity_mass</text>
</a>
</g>
</g>
<!-- Node4&#45;&gt;Node6 -->
<g id="edge5" class="edge">
<title>Node4&#45;&gt;Node6</title>
<path fill="none" stroke="midnightblue" d="M296.6,-350C310.94,-350 325.68,-350 339.77,-350"/>
<polygon fill="midnightblue" stroke="midnightblue" points="339.9,-353.5 349.9,-350 339.9,-346.5 339.9,-353.5"/>
</g>
<!-- Node8 -->
<g id="node8" class="node">
<title>Node8</title>
<g id="a_node8"><a xlink:href="namespacesll__m__spline__fem__utilities__3d__helper.html#a4d70bfcfbf78b2dbfed72ee7c3e2d91e" target="_top" xlink:title="Assemble the given row of the 3d mass matrix.">
<polygon fill="white" stroke="black" points="338.5,-220 338.5,-250 505.5,-250 505.5,-220 338.5,-220"/>
<text text-anchor="start" x="346.5" y="-238" font-family="Helvetica,sans-Serif" font-size="10.00">sll_m_spline_fem_utilities</text>
<text text-anchor="middle" x="422" y="-227" font-family="Helvetica,sans-Serif" font-size="10.00">_3d_helper::assemble_mass3d</text>
</a>
</g>
</g>
<!-- Node7&#45;&gt;Node8 -->
<g id="edge7" class="edge">
<title>Node7&#45;&gt;Node8</title>
<path fill="none" stroke="midnightblue" d="M286.04,-215.01C299.82,-217.05 314.22,-219.18 328.27,-221.26"/>
<polygon fill="midnightblue" stroke="midnightblue" points="328.02,-224.76 338.42,-222.77 329.04,-217.84 328.02,-224.76"/>
</g>
<!-- Node11 -->
<g id="node11" class="node">
<title>Node11</title>
<g id="a_node11"><a xlink:href="namespacesll__m__gauss__legendre__integration.html#a0df63a9e8ee884c2d4a0d1f53602a949" target="_top" xlink:title="Returns a 2d array of size (2,npoints) containing gauss&#45;legendre points and weights in the interval [...">
<polygon fill="white" stroke="black" points="338.5,-269.5 338.5,-310.5 505.5,-310.5 505.5,-269.5 338.5,-269.5"/>
<text text-anchor="start" x="346.5" y="-298.5" font-family="Helvetica,sans-Serif" font-size="10.00">sll_m_gauss_legendre</text>
<text text-anchor="start" x="346.5" y="-287.5" font-family="Helvetica,sans-Serif" font-size="10.00">_integration::sll_f_gauss</text>
<text text-anchor="middle" x="422" y="-276.5" font-family="Helvetica,sans-Serif" font-size="10.00">_legendre_points_and_weights</text>
</a>
</g>
</g>
<!-- Node7&#45;&gt;Node11 -->
<g id="edge10" class="edge">
<title>Node7&#45;&gt;Node11</title>
<path fill="none" stroke="midnightblue" d="M275.43,-218.15C283.25,-220.93 290.94,-224.19 298,-228 316.84,-238.16 315.52,-249.19 334,-260 337.06,-261.79 340.24,-263.49 343.5,-265.11"/>
<polygon fill="midnightblue" stroke="midnightblue" points="342.31,-268.42 352.85,-269.46 345.26,-262.07 342.31,-268.42"/>
</g>
<!-- Node12 -->
<g id="node12" class="node">
<title>Node12</title>
<g id="a_node12"><a xlink:href="namespacesll__m__spline__fem__utilities__3d.html#adb777f54b3a7be04fd78f00b22f072f9" target="_top" xlink:title="Computes the mass line for a mass matrix with degree splines.">
<polygon fill="white" stroke="black" points="334,-171 334,-201 510,-201 510,-171 334,-171"/>
<text text-anchor="start" x="342" y="-189" font-family="Helvetica,sans-Serif" font-size="10.00">sll_m_spline_fem_utilities</text>
<text text-anchor="middle" x="422" y="-178" font-family="Helvetica,sans-Serif" font-size="10.00">_3d::sll_s_spline_fem_mass_line</text>
</a>
</g>
</g>
<!-- Node7&#45;&gt;Node12 -->
<g id="edge11" class="edge">
<title>Node7&#45;&gt;Node12</title>
<path fill="none" stroke="midnightblue" d="M286.04,-196.62C298.32,-195.66 311.1,-194.65 323.68,-193.66"/>
<polygon fill="midnightblue" stroke="midnightblue" points="324.02,-197.14 333.72,-192.87 323.47,-190.17 324.02,-197.14"/>
</g>
<!-- Node13 -->
<g id="node13" class="node">
<title>Node13</title>
<g id="a_node13"><a xlink:href="namespacesll__m__spline__fem__utilities__3d__helper.html#ab61e8df08e3414cd54d1b85c91ddb4ad" target="_top" xlink:title="Helper function to create sparsity pattern of the 3d mass matrix.">
<polygon fill="white" stroke="black" points="350,-110.5 350,-151.5 494,-151.5 494,-110.5 350,-110.5"/>
<text text-anchor="start" x="358" y="-139.5" font-family="Helvetica,sans-Serif" font-size="10.00">sll_m_spline_fem_utilities</text>
<text text-anchor="start" x="358" y="-128.5" font-family="Helvetica,sans-Serif" font-size="10.00">_3d_helper::sll_s_spline</text>
<text text-anchor="middle" x="422" y="-117.5" font-family="Helvetica,sans-Serif" font-size="10.00">_fem_sparsity_mass3d</text>
</a>
</g>
</g>
<!-- Node7&#45;&gt;Node13 -->
<g id="edge12" class="edge">
<title>Node7&#45;&gt;Node13</title>
<path fill="none" stroke="midnightblue" d="M250.02,-187.99C278.83,-178.39 316.82,-165.73 349.68,-154.77"/>
<polygon fill="midnightblue" stroke="midnightblue" points="350.87,-158.07 359.25,-151.58 348.65,-151.43 350.87,-158.07"/>
</g>
<!-- Node9 -->
<g id="node9" class="node">
<title>Node9</title>
<g id="a_node9"><a xlink:href="namespacesll__m__spline__fem__utilities__3d__helper.html#af847495fdf13923f87f64ce3ab2359f8" target="_top" xlink:title=" ">
<polygon fill="white" stroke="black" points="546,-220 546,-250 690,-250 690,-220 546,-220"/>
<text text-anchor="start" x="554" y="-238" font-family="Helvetica,sans-Serif" font-size="10.00">sll_m_spline_fem_utilities</text>
<text text-anchor="middle" x="618" y="-227" font-family="Helvetica,sans-Serif" font-size="10.00">_3d_helper::assemble2</text>
</a>
</g>
</g>
<!-- Node8&#45;&gt;Node9 -->
<g id="edge8" class="edge">
<title>Node8&#45;&gt;Node9</title>
<path fill="none" stroke="midnightblue" d="M505.55,-235C515.51,-235 525.66,-235 535.6,-235"/>
<polygon fill="midnightblue" stroke="midnightblue" points="535.85,-238.5 545.85,-235 535.85,-231.5 535.85,-238.5"/>
</g>
<!-- Node10 -->
<g id="node10" class="node">
<title>Node10</title>
<g id="a_node10"><a xlink:href="namespacesll__m__spline__fem__utilities__3d__helper.html#ab84b0dd7f4944ab6de020098b07c7e60" target="_top" xlink:title=" ">
<polygon fill="white" stroke="black" points="726,-220 726,-250 870,-250 870,-220 726,-220"/>
<text text-anchor="start" x="734" y="-238" font-family="Helvetica,sans-Serif" font-size="10.00">sll_m_spline_fem_utilities</text>
<text text-anchor="middle" x="798" y="-227" font-family="Helvetica,sans-Serif" font-size="10.00">_3d_helper::assemble1</text>
</a>
</g>
</g>
<!-- Node9&#45;&gt;Node10 -->
<g id="edge9" class="edge">
<title>Node9&#45;&gt;Node10</title>
<path fill="none" stroke="midnightblue" d="M690.12,-235C698.61,-235 707.33,-235 715.94,-235"/>
<polygon fill="midnightblue" stroke="midnightblue" points="716,-238.5 726,-235 716,-231.5 716,-238.5"/>
</g>
<!-- Node14 -->
<g id="node14" class="node">
<title>Node14</title>
<g id="a_node14"><a xlink:href="namespacesll__m__spline__fem__utilities__3d__helper.html#a0ecb5b69702c19db85ec6fcf8f5cf530" target="_top" xlink:title=" ">
<polygon fill="white" stroke="black" points="546,-116 546,-146 690,-146 690,-116 546,-116"/>
<text text-anchor="start" x="554" y="-134" font-family="Helvetica,sans-Serif" font-size="10.00">sll_m_spline_fem_utilities</text>
<text text-anchor="middle" x="618" y="-123" font-family="Helvetica,sans-Serif" font-size="10.00">_3d_helper::loop2</text>
</a>
</g>
</g>
<!-- Node13&#45;&gt;Node14 -->
<g id="edge13" class="edge">
<title>Node13&#45;&gt;Node14</title>
<path fill="none" stroke="midnightblue" d="M494.14,-131C507.58,-131 521.74,-131 535.47,-131"/>
<polygon fill="midnightblue" stroke="midnightblue" points="535.87,-134.5 545.87,-131 535.87,-127.5 535.87,-134.5"/>
</g>
<!-- Node15 -->
<g id="node15" class="node">
<title>Node15</title>
<g id="a_node15"><a xlink:href="namespacesll__m__spline__fem__utilities__3d__helper.html#a44ec465b69568824a811ff2ba3831a7a" target="_top" xlink:title=" ">
<polygon fill="white" stroke="black" points="726,-116 726,-146 870,-146 870,-116 726,-116"/>
<text text-anchor="start" x="734" y="-134" font-family="Helvetica,sans-Serif" font-size="10.00">sll_m_spline_fem_utilities</text>
<text text-anchor="middle" x="798" y="-123" font-family="Helvetica,sans-Serif" font-size="10.00">_3d_helper::loop1</text>
</a>
</g>
</g>
<!-- Node14&#45;&gt;Node15 -->
<g id="edge14" class="edge">
<title>Node14&#45;&gt;Node15</title>
<path fill="none" stroke="midnightblue" d="M690.12,-131C698.61,-131 707.33,-131 715.94,-131"/>
<polygon fill="midnightblue" stroke="midnightblue" points="716,-134.5 726,-131 716,-127.5 716,-134.5"/>
</g>
<!-- Node16&#45;&gt;Node11 -->
<g id="edge16" class="edge">
<title>Node16&#45;&gt;Node11</title>
<path fill="none" stroke="midnightblue" d="M283.29,-297.01C297.8,-296.27 313.1,-295.49 328.01,-294.74"/>
<polygon fill="midnightblue" stroke="midnightblue" points="328.44,-298.22 338.25,-294.21 328.08,-291.23 328.44,-298.22"/>
</g>
<!-- Node18 -->
<g id="node18" class="node">
<title>Node18</title>
<g id="a_node18"><a xlink:href="namespacesll__m__spline__fem__utilities__sparse.html#a547d8c6bef87406ed54468ccacf4c462" target="_top" xlink:title="Assemble the mixed mass matrix.">
<polygon fill="white" stroke="black" points="337.5,-61 337.5,-91 506.5,-91 506.5,-61 337.5,-61"/>
<text text-anchor="start" x="345.5" y="-79" font-family="Helvetica,sans-Serif" font-size="10.00">sll_m_spline_fem_utilities</text>
<text text-anchor="middle" x="422" y="-68" font-family="Helvetica,sans-Serif" font-size="10.00">_sparse::assemble_mixedmass</text>
</a>
</g>
</g>
<!-- Node17&#45;&gt;Node18 -->
<g id="edge18" class="edge">
<title>Node17&#45;&gt;Node18</title>
<path fill="none" stroke="midnightblue" d="M276.03,-76C292.37,-76 310,-76 327.14,-76"/>
<polygon fill="midnightblue" stroke="midnightblue" points="327.17,-79.5 337.17,-76 327.17,-72.5 327.17,-79.5"/>
</g>
<!-- Node19 -->
<g id="node19" class="node">
<title>Node19</title>
<g id="a_node19"><a xlink:href="namespacesll__m__spline__fem__utilities__sparse.html#ac6a7e77bc6c96ef0043d1391b6789d57" target="_top" xlink:title="Helper function to create sparsity pattern of the mass matrix with mixed degree deg1 and deg2.">
<polygon fill="white" stroke="black" points="340,-0.5 340,-41.5 504,-41.5 504,-0.5 340,-0.5"/>
<text text-anchor="start" x="348" y="-29.5" font-family="Helvetica,sans-Serif" font-size="10.00">sll_m_spline_fem_utilities</text>
<text text-anchor="start" x="348" y="-18.5" font-family="Helvetica,sans-Serif" font-size="10.00">_sparse::sll_s_maxwell_spline</text>
<text text-anchor="middle" x="422" y="-7.5" font-family="Helvetica,sans-Serif" font-size="10.00">_fem_sparsity_mixedmass</text>
</a>
</g>
</g>
<!-- Node17&#45;&gt;Node19 -->
<g id="edge19" class="edge">
<title>Node17&#45;&gt;Node19</title>
<path fill="none" stroke="midnightblue" d="M276.03,-57.91C293.43,-53.48 312.3,-48.68 330.48,-44.05"/>
<polygon fill="midnightblue" stroke="midnightblue" points="331.38,-47.43 340.21,-41.57 329.65,-40.65 331.38,-47.43"/>
</g>
<!-- Node20&#45;&gt;Node11 -->
<g id="edge21" class="edge">
<title>Node20&#45;&gt;Node11</title>
<path fill="none" stroke="midnightblue" d="M290.37,-267.02C302.84,-269.21 315.73,-271.48 328.33,-273.7"/>
<polygon fill="midnightblue" stroke="midnightblue" points="327.91,-277.18 338.37,-275.46 329.12,-270.28 327.91,-277.18"/>
</g>
</g>
</svg>
