<?xml version="1.0" encoding="UTF-8" standalone="no"?>
<!DOCTYPE svg PUBLIC "-//W3C//DTD SVG 1.1//EN"
 "http://www.w3.org/Graphics/SVG/1.1/DTD/svg11.dtd">
<!-- Generated by graphviz version 2.43.0 (0)
 -->
<!-- Title: initialize_poisson_solver Pages: 1 -->
<svg width="317pt" height="78pt"
 viewBox="0.00 0.00 317.00 77.50" xmlns="http://www.w3.org/2000/svg" xmlns:xlink="http://www.w3.org/1999/xlink">
<g id="graph0" class="graph" transform="scale(1 1) rotate(0) translate(4 73.5)">
<title>initialize_poisson_solver</title>
<polygon fill="white" stroke="transparent" points="-4,4 -4,-73.5 313,-73.5 313,4 -4,4"/>
<!-- Node1 -->
<g id="node1" class="node">
<title>Node1</title>
<g id="a_node1"><a xlink:title=" ">
<polygon fill="#bfbfbf" stroke="black" points="208,-17 208,-47 309,-47 309,-17 208,-17"/>
<text text-anchor="start" x="216" y="-35" font-family="Helvetica,sans-Serif" font-size="10.00">initialize_poisson</text>
<text text-anchor="middle" x="258.5" y="-24" font-family="Helvetica,sans-Serif" font-size="10.00">_solver</text>
</a>
</g>
</g>
<!-- Node2 -->
<g id="node2" class="node">
<title>Node2</title>
<g id="a_node2"><a xlink:href="namespacesll__m__poisson__2d__tri.html#a7177a22a26838aee55ca4c7a9c36ebc7" target="_top" xlink:title=" ">
<polygon fill="white" stroke="black" points="35.5,-39 35.5,-69 136.5,-69 136.5,-39 35.5,-39"/>
<text text-anchor="start" x="43.5" y="-57" font-family="Helvetica,sans-Serif" font-size="10.00">initialize_poisson</text>
<text text-anchor="middle" x="86" y="-46" font-family="Helvetica,sans-Serif" font-size="10.00">_solver_from_file</text>
</a>
</g>
</g>
<!-- Node1&#45;&gt;Node2 -->
<g id="edge1" class="edge">
<title>Node1&#45;&gt;Node2</title>
<path fill="none" stroke="midnightblue" d="M197.78,-39.71C177.77,-42.29 155.69,-45.14 136.54,-47.61"/>
<polygon fill="midnightblue" stroke="midnightblue" points="198.26,-43.17 207.73,-38.42 197.36,-36.23 198.26,-43.17"/>
</g>
<!-- Node3 -->
<g id="node3" class="node">
<title>Node3</title>
<g id="a_node3"><a xlink:href="namespacesll__m__poisson__2d__tri.html#aa53d2590e2d41cb21a8d905da8cab8d3" target="_top" xlink:title=" ">
<polygon fill="white" stroke="black" points="0,-0.5 0,-19.5 172,-19.5 172,-0.5 0,-0.5"/>
<text text-anchor="middle" x="86" y="-7.5" font-family="Helvetica,sans-Serif" font-size="10.00">sll_s_poisson_2d_triangular_init</text>
</a>
</g>
</g>
<!-- Node1&#45;&gt;Node3 -->
<g id="edge2" class="edge">
<title>Node1&#45;&gt;Node3</title>
<path fill="none" stroke="midnightblue" d="M197.54,-24.26C185.7,-22.74 173.15,-21.12 160.92,-19.54"/>
<polygon fill="midnightblue" stroke="midnightblue" points="197.36,-27.77 207.73,-25.58 198.26,-20.83 197.36,-27.77"/>
</g>
</g>
</svg>
