<?xml version="1.0" encoding="UTF-8" standalone="no"?>
<!DOCTYPE svg PUBLIC "-//W3C//DTD SVG 1.1//EN"
 "http://www.w3.org/Graphics/SVG/1.1/DTD/svg11.dtd">
<!-- Generated by graphviz version 2.40.1 (20161225.0304)
 -->
<!-- Title: sll_s_uniform_bsplines_eval_basis_clamped Pages: 1 -->
<svg width="637pt" height="410pt"
 viewBox="0.00 0.00 637.00 409.50" xmlns="http://www.w3.org/2000/svg" xmlns:xlink="http://www.w3.org/1999/xlink">
<g id="graph0" class="graph" transform="scale(1 1) rotate(0) translate(4 405.5)">
<title>sll_s_uniform_bsplines_eval_basis_clamped</title>
<polygon fill="#ffffff" stroke="transparent" points="-4,4 -4,-405.5 633,-405.5 633,4 -4,4"/>
<!-- Node132 -->
<g id="node1" class="node">
<title>Node132</title>
<polygon fill="#bfbfbf" stroke="#000000" points="0,-180 0,-210 128,-210 128,-180 0,-180"/>
<text text-anchor="start" x="8" y="-198" font-family="Helvetica,sans-Serif" font-size="10.00" fill="#000000">sll_s_uniform_bsplines</text>
<text text-anchor="middle" x="64" y="-187" font-family="Helvetica,sans-Serif" font-size="10.00" fill="#000000">_eval_basis_clamped</text>
</g>
<!-- Node133 -->
<g id="node2" class="node">
<title>Node133</title>
<g id="a_node2"><a xlink:href="namespacesll__m__particle__mesh__coupling__spline__cl__3d__feec.html#ad6b240f8b4ec48d3336dd6cdd1ed9ca6" target="_top" xlink:title="Add charge of one particle. ">
<polygon fill="#ffffff" stroke="#000000" points="164.5,-371 164.5,-401 306.5,-401 306.5,-371 164.5,-371"/>
<text text-anchor="start" x="172.5" y="-389" font-family="Helvetica,sans-Serif" font-size="10.00" fill="#000000">add_charge_single_spline</text>
<text text-anchor="middle" x="235.5" y="-378" font-family="Helvetica,sans-Serif" font-size="10.00" fill="#000000">_cl_3d_feec</text>
</a>
</g>
</g>
<!-- Node132&#45;&gt;Node133 -->
<g id="edge1" class="edge">
<title>Node132&#45;&gt;Node133</title>
<path fill="none" stroke="#191970" d="M72.6285,-220.2059C86.3518,-256.6393 116.5525,-323.8227 164,-362 168.2846,-365.4475 173.0879,-368.4098 178.1243,-370.9533"/>
<polygon fill="#191970" stroke="#191970" points="75.7577,-218.5704 69.0455,-210.373 69.1808,-220.967 75.7577,-218.5704"/>
</g>
<!-- Node134 -->
<g id="node3" class="node">
<title>Node134</title>
<g id="a_node3"><a xlink:href="namespacesll__m__particle__mesh__coupling__spline__cl__3d__feec.html#af6bc4e591409f657101f5d03ec248568" target="_top" xlink:title="Add the contribution of one particle to the diagonal parts fo the approximate mass matrix...">
<polygon fill="#ffffff" stroke="#000000" points="164,-322 164,-352 307,-352 307,-322 164,-322"/>
<text text-anchor="start" x="172" y="-340" font-family="Helvetica,sans-Serif" font-size="10.00" fill="#000000">add_particle_mass_spline</text>
<text text-anchor="middle" x="235.5" y="-329" font-family="Helvetica,sans-Serif" font-size="10.00" fill="#000000">_cl_3d_feec</text>
</a>
</g>
</g>
<!-- Node132&#45;&gt;Node134 -->
<g id="edge2" class="edge">
<title>Node132&#45;&gt;Node134</title>
<path fill="none" stroke="#191970" d="M78.5886,-219.0394C95.8675,-245.6008 127.0196,-287.927 164,-313 168.9853,-316.3801 174.4876,-319.3204 180.1601,-321.8697"/>
<polygon fill="#191970" stroke="#191970" points="81.3871,-216.9175 73.0687,-210.3559 75.4797,-220.6728 81.3871,-216.9175"/>
</g>
<!-- Node135 -->
<g id="node4" class="node">
<title>Node135</title>
<g id="a_node4"><a xlink:href="namespacesll__m__particle__mesh__coupling__spline__cl__3d__feec.html#a2826fcf5a51826bde093d85c46f63d7b" target="_top" xlink:title="Add the contribution of one particle to the off&#45;diagonal parts of the approximate mass matrix...">
<polygon fill="#ffffff" stroke="#000000" points="173,-273 173,-303 298,-303 298,-273 173,-273"/>
<text text-anchor="start" x="181" y="-291" font-family="Helvetica,sans-Serif" font-size="10.00" fill="#000000">add_particle_mass_od</text>
<text text-anchor="middle" x="235.5" y="-280" font-family="Helvetica,sans-Serif" font-size="10.00" fill="#000000">_spline_cl_3d_feec</text>
</a>
</g>
</g>
<!-- Node132&#45;&gt;Node135 -->
<g id="edge3" class="edge">
<title>Node132&#45;&gt;Node135</title>
<path fill="none" stroke="#191970" d="M90.6199,-216.4454C110.0633,-231.3213 137.5447,-250.7635 164,-264 170.5576,-267.281 177.6676,-270.275 184.7745,-272.9505"/>
<polygon fill="#191970" stroke="#191970" points="92.5907,-213.5444 82.5456,-210.1762 88.2978,-219.0735 92.5907,-213.5444"/>
</g>
<!-- Node136 -->
<g id="node5" class="node">
<title>Node136</title>
<g id="a_node5"><a xlink:href="namespacesll__m__particle__mesh__coupling__spline__cl__3d__feec.html#af01af1de739a7ce621180ecdb254237b" target="_top" xlink:title="Evaluate field at at position position. ">
<polygon fill="#ffffff" stroke="#000000" points="175.5,-224 175.5,-254 295.5,-254 295.5,-224 175.5,-224"/>
<text text-anchor="start" x="183.5" y="-242" font-family="Helvetica,sans-Serif" font-size="10.00" fill="#000000">evaluate_field_single</text>
<text text-anchor="middle" x="235.5" y="-231" font-family="Helvetica,sans-Serif" font-size="10.00" fill="#000000">_spline_cl_3d_feec</text>
</a>
</g>
</g>
<!-- Node132&#45;&gt;Node136 -->
<g id="edge4" class="edge">
<title>Node132&#45;&gt;Node136</title>
<path fill="none" stroke="#191970" d="M132.5771,-212.5941C147.2681,-216.3632 162.6602,-220.3122 176.932,-223.9738"/>
<polygon fill="#191970" stroke="#191970" points="133.097,-209.1142 122.5409,-210.0192 131.3574,-215.8946 133.097,-209.1142"/>
</g>
<!-- Node137 -->
<g id="node6" class="node">
<title>Node137</title>
<g id="a_node6"><a xlink:href="namespacesll__m__particle__mesh__coupling__spline__cl__3d__feec.html#a3cf554b459625a1bcd9356eed42e4971" target="_top" xlink:title="Helper function for add_current_evaluate. ">
<polygon fill="#ffffff" stroke="#000000" points="190,-185.5 190,-204.5 281,-204.5 281,-185.5 190,-185.5"/>
<text text-anchor="middle" x="235.5" y="-192.5" font-family="Helvetica,sans-Serif" font-size="10.00" fill="#000000">point_add_eval</text>
</a>
</g>
</g>
<!-- Node132&#45;&gt;Node137 -->
<g id="edge5" class="edge">
<title>Node132&#45;&gt;Node137</title>
<path fill="none" stroke="#191970" d="M138.5236,-195C155.9673,-195 174.0417,-195 189.7919,-195"/>
<polygon fill="#191970" stroke="#191970" points="138.3482,-191.5001 128.3482,-195 138.3482,-198.5001 138.3482,-191.5001"/>
</g>
<!-- Node139 -->
<g id="node8" class="node">
<title>Node139</title>
<g id="a_node8"><a xlink:href="namespacesll__m__particle__mesh__coupling__spline__cl__3d__feec.html#add4465bdda1c90ae966f7f4537fdddaf" target="_top" xlink:title="Helper function for add_current. ">
<polygon fill="#ffffff" stroke="#000000" points="172.5,-147.5 172.5,-166.5 298.5,-166.5 298.5,-147.5 172.5,-147.5"/>
<text text-anchor="middle" x="235.5" y="-154.5" font-family="Helvetica,sans-Serif" font-size="10.00" fill="#000000">integrate_spline_cl_3d</text>
</a>
</g>
</g>
<!-- Node132&#45;&gt;Node139 -->
<g id="edge7" class="edge">
<title>Node132&#45;&gt;Node139</title>
<path fill="none" stroke="#191970" d="M138.2336,-178.5517C156.7371,-174.4518 175.9692,-170.1905 192.3989,-166.5501"/>
<polygon fill="#191970" stroke="#191970" points="137.3542,-175.1616 128.3482,-180.7421 138.8686,-181.9959 137.3542,-175.1616"/>
</g>
<!-- Node141 -->
<g id="node10" class="node">
<title>Node141</title>
<g id="a_node10"><a xlink:href="namespacesll__m__particle__mesh__coupling__spline__cl__3d__feec.html#a21aa41ea14ca5a4093045fa5114ecd00" target="_top" xlink:title="Add current for one particle and update v (according to H_p1 part in Hamiltonian splitting) ...">
<polygon fill="#ffffff" stroke="#000000" points="501,-120.5 501,-161.5 629,-161.5 629,-120.5 501,-120.5"/>
<text text-anchor="start" x="509" y="-149.5" font-family="Helvetica,sans-Serif" font-size="10.00" fill="#000000">add_current_update</text>
<text text-anchor="start" x="509" y="-138.5" font-family="Helvetica,sans-Serif" font-size="10.00" fill="#000000">_v_component2_spline</text>
<text text-anchor="middle" x="565" y="-127.5" font-family="Helvetica,sans-Serif" font-size="10.00" fill="#000000">_3d_feec</text>
</a>
</g>
</g>
<!-- Node132&#45;&gt;Node141 -->
<g id="edge9" class="edge">
<title>Node132&#45;&gt;Node141</title>
<path fill="none" stroke="#191970" d="M91.5738,-174.0513C110.7515,-160.8475 137.5331,-145.0134 164,-138 279.5832,-107.3719 420.5692,-119.1908 500.8481,-130.2873"/>
<polygon fill="#191970" stroke="#191970" points="89.4644,-171.2563 83.3259,-179.8916 93.5097,-176.9691 89.4644,-171.2563"/>
</g>
<!-- Node142 -->
<g id="node11" class="node">
<title>Node142</title>
<g id="a_node11"><a xlink:href="namespacesll__m__particle__mesh__coupling__spline__cl__3d__feec.html#ad22243ca464ca4758024da8aa083a688" target="_top" xlink:title="Add current for one particle and update v (according to H_p1 part in Hamiltonian splitting) ...">
<polygon fill="#ffffff" stroke="#000000" points="501,-.5 501,-41.5 629,-41.5 629,-.5 501,-.5"/>
<text text-anchor="start" x="509" y="-29.5" font-family="Helvetica,sans-Serif" font-size="10.00" fill="#000000">add_current_update</text>
<text text-anchor="start" x="509" y="-18.5" font-family="Helvetica,sans-Serif" font-size="10.00" fill="#000000">_v_component3_spline</text>
<text text-anchor="middle" x="565" y="-7.5" font-family="Helvetica,sans-Serif" font-size="10.00" fill="#000000">_3d_feec</text>
</a>
</g>
</g>
<!-- Node132&#45;&gt;Node142 -->
<g id="edge10" class="edge">
<title>Node132&#45;&gt;Node142</title>
<path fill="none" stroke="#191970" d="M74.6948,-170.4931C89.7079,-139.3671 120.19,-86.7356 164,-62 270.1856,-2.0464 417.6025,-4.7139 500.9252,-12.5313"/>
<polygon fill="#191970" stroke="#191970" points="71.4183,-169.2381 70.3667,-179.7807 77.7632,-172.195 71.4183,-169.2381"/>
</g>
<!-- Node143 -->
<g id="node12" class="node">
<title>Node143</title>
<g id="a_node12"><a xlink:href="namespacesll__m__particle__mesh__coupling__spline__cl__3d__feec.html#a7625dc6be8f19513639e8e023a1dae87" target="_top" xlink:title="Helper function for add_current_update_v. ">
<polygon fill="#ffffff" stroke="#000000" points="203,-71.5 203,-90.5 268,-90.5 268,-71.5 203,-71.5"/>
<text text-anchor="middle" x="235.5" y="-78.5" font-family="Helvetica,sans-Serif" font-size="10.00" fill="#000000">update_jv</text>
</a>
</g>
</g>
<!-- Node132&#45;&gt;Node143 -->
<g id="edge11" class="edge">
<title>Node132&#45;&gt;Node143</title>
<path fill="none" stroke="#191970" d="M83.9994,-172.3507C102.8662,-152.2027 132.8354,-123.19 164,-105 175.987,-98.0035 190.3058,-92.6862 202.9702,-88.8571"/>
<polygon fill="#191970" stroke="#191970" points="81.2876,-170.1291 77.0962,-179.8596 86.4408,-174.8667 81.2876,-170.1291"/>
</g>
<!-- Node138 -->
<g id="node7" class="node">
<title>Node138</title>
<g id="a_node7"><a xlink:href="namespacesll__m__particle__mesh__coupling__spline__cl__3d__feec.html#a0e0303a9e5cf4cfafbf3ce8ecf87357c" target="_top" xlink:title="Add current with integration over x and evaluate the electric field. ">
<polygon fill="#ffffff" stroke="#000000" points="343,-185.5 343,-204.5 465,-204.5 465,-185.5 343,-185.5"/>
<text text-anchor="middle" x="404" y="-192.5" font-family="Helvetica,sans-Serif" font-size="10.00" fill="#000000">add_current_evaluate</text>
</a>
</g>
</g>
<!-- Node137&#45;&gt;Node138 -->
<g id="edge6" class="edge">
<title>Node137&#45;&gt;Node138</title>
<path fill="none" stroke="#191970" d="M291.1683,-195C307.7312,-195 325.966,-195 342.8577,-195"/>
<polygon fill="#191970" stroke="#191970" points="291.0986,-191.5001 281.0985,-195 291.0985,-198.5001 291.0986,-191.5001"/>
</g>
<!-- Node140 -->
<g id="node9" class="node">
<title>Node140</title>
<g id="a_node9"><a xlink:href="namespacesll__m__particle__mesh__coupling__spline__cl__3d__feec.html#aef517b0d273cd95396b2c83e284b03b6" target="_top" xlink:title="Add current with integration over x. ">
<polygon fill="#ffffff" stroke="#000000" points="351.5,-147.5 351.5,-166.5 456.5,-166.5 456.5,-147.5 351.5,-147.5"/>
<text text-anchor="middle" x="404" y="-154.5" font-family="Helvetica,sans-Serif" font-size="10.00" fill="#000000">add_current_cl_3d</text>
</a>
</g>
</g>
<!-- Node139&#45;&gt;Node140 -->
<g id="edge8" class="edge">
<title>Node139&#45;&gt;Node140</title>
<path fill="none" stroke="#191970" d="M309.0218,-157C323.3003,-157 337.9968,-157 351.4345,-157"/>
<polygon fill="#191970" stroke="#191970" points="308.7226,-153.5001 298.7226,-157 308.7225,-160.5001 308.7226,-153.5001"/>
</g>
<!-- Node144 -->
<g id="node13" class="node">
<title>Node144</title>
<g id="a_node13"><a xlink:href="namespacesll__m__particle__mesh__coupling__spline__cl__3d__feec.html#a8fe3a6d0771b053312d484d387bc5ec0" target="_top" xlink:title="Helper function for add_current_update_v. ">
<polygon fill="#ffffff" stroke="#000000" points="358,-71.5 358,-90.5 450,-90.5 450,-71.5 358,-71.5"/>
<text text-anchor="middle" x="404" y="-78.5" font-family="Helvetica,sans-Serif" font-size="10.00" fill="#000000">add_current_1d</text>
</a>
</g>
</g>
<!-- Node143&#45;&gt;Node144 -->
<g id="edge12" class="edge">
<title>Node143&#45;&gt;Node144</title>
<path fill="none" stroke="#191970" d="M278.7084,-81C302.9239,-81 333.1253,-81 357.8087,-81"/>
<polygon fill="#191970" stroke="#191970" points="278.3885,-77.5001 268.3885,-81 278.3885,-84.5001 278.3885,-77.5001"/>
</g>
<!-- Node144&#45;&gt;Node141 -->
<g id="edge14" class="edge">
<title>Node144&#45;&gt;Node141</title>
<path fill="none" stroke="#191970" d="M439.1579,-94.1023C459.8625,-101.8183 486.5057,-111.7475 509.9422,-120.4816"/>
<polygon fill="#191970" stroke="#191970" points="440.1036,-90.7197 429.5109,-90.5072 437.6591,-97.279 440.1036,-90.7197"/>
</g>
<!-- Node144&#45;&gt;Node142 -->
<g id="edge15" class="edge">
<title>Node144&#45;&gt;Node142</title>
<path fill="none" stroke="#191970" d="M439.1579,-67.8977C459.8625,-60.1817 486.5057,-50.2525 509.9422,-41.5184"/>
<polygon fill="#191970" stroke="#191970" points="437.6591,-64.721 429.5109,-71.4928 440.1036,-71.2803 437.6591,-64.721"/>
</g>
<!-- Node145 -->
<g id="node14" class="node">
<title>Node145</title>
<g id="a_node14"><a xlink:href="namespacesll__m__particle__mesh__coupling__spline__cl__3d__feec.html#a536563b4882cbfed512dd5f81ffbfcdc" target="_top" xlink:title="Add current for one particle and update v (according to H_p1 part in Hamiltonian splitting) ...">
<polygon fill="#ffffff" stroke="#000000" points="501,-60.5 501,-101.5 629,-101.5 629,-60.5 501,-60.5"/>
<text text-anchor="start" x="509" y="-89.5" font-family="Helvetica,sans-Serif" font-size="10.00" fill="#000000">add_current_update</text>
<text text-anchor="start" x="509" y="-78.5" font-family="Helvetica,sans-Serif" font-size="10.00" fill="#000000">_v_component1_spline</text>
<text text-anchor="middle" x="565" y="-67.5" font-family="Helvetica,sans-Serif" font-size="10.00" fill="#000000">_3d_feec</text>
</a>
</g>
</g>
<!-- Node144&#45;&gt;Node145 -->
<g id="edge13" class="edge">
<title>Node144&#45;&gt;Node145</title>
<path fill="none" stroke="#191970" d="M460.3925,-81C473.4686,-81 487.4795,-81 500.8607,-81"/>
<polygon fill="#191970" stroke="#191970" points="460.1362,-77.5001 450.1361,-81 460.1361,-84.5001 460.1362,-77.5001"/>
</g>
</g>
</svg>
