<?xml version="1.0" encoding="UTF-8" standalone="no"?>
<!DOCTYPE svg PUBLIC "-//W3C//DTD SVG 1.1//EN"
 "http://www.w3.org/Graphics/SVG/1.1/DTD/svg11.dtd">
<!-- Generated by graphviz version 2.40.1 (20161225.0304)
 -->
<!-- Title: test_solve_circulant_system Pages: 1 -->
<svg width="488pt" height="66pt"
 viewBox="0.00 0.00 488.00 66.00" xmlns="http://www.w3.org/2000/svg" xmlns:xlink="http://www.w3.org/1999/xlink">
<g id="graph0" class="graph" transform="scale(1 1) rotate(0) translate(4 62)">
<title>test_solve_circulant_system</title>
<polygon fill="#ffffff" stroke="transparent" points="-4,4 -4,-62 484,-62 484,4 -4,4"/>
<!-- Node168 -->
<g id="node1" class="node">
<title>Node168</title>
<polygon fill="#bfbfbf" stroke="#000000" points="0,-14 0,-44 114,-44 114,-14 0,-14"/>
<text text-anchor="start" x="8" y="-32" font-family="Helvetica,sans-Serif" font-size="10.00" fill="#000000">test_solve_circulant</text>
<text text-anchor="middle" x="57" y="-21" font-family="Helvetica,sans-Serif" font-size="10.00" fill="#000000">_system</text>
</g>
<!-- Node169 -->
<g id="node2" class="node">
<title>Node169</title>
<g id="a_node2"><a xlink:href="namespacesll__m__qn__2d__polar.html#aa95847c3b2595b8fe8221ed6e58caf9f" target="_top" xlink:title="solve_circulant_system">
<polygon fill="#ffffff" stroke="#000000" points="150,-38.5 150,-57.5 281,-57.5 281,-38.5 150,-38.5"/>
<text text-anchor="middle" x="215.5" y="-45.5" font-family="Helvetica,sans-Serif" font-size="10.00" fill="#000000">solve_circulant_system</text>
</a>
</g>
</g>
<!-- Node168&#45;&gt;Node169 -->
<g id="edge1" class="edge">
<title>Node168&#45;&gt;Node169</title>
<path fill="none" stroke="#191970" d="M114.2221,-35.8594C122.5075,-36.8526 131.1418,-37.8877 139.7217,-38.9162"/>
<polygon fill="#191970" stroke="#191970" points="139.3991,-42.4025 149.7446,-40.1177 140.2323,-35.4522 139.3991,-42.4025"/>
</g>
<!-- Node172 -->
<g id="node5" class="node">
<title>Node172</title>
<g id="a_node5"><a xlink:href="namespacesll__m__qn__2d__polar.html#a01fc8864e65db95d0fc3e98f251f5043" target="_top" xlink:title="matrix_product_circ">
<polygon fill="#ffffff" stroke="#000000" points="159,-.5 159,-19.5 272,-19.5 272,-.5 159,-.5"/>
<text text-anchor="middle" x="215.5" y="-7.5" font-family="Helvetica,sans-Serif" font-size="10.00" fill="#000000">matrix_product_circ</text>
</a>
</g>
</g>
<!-- Node168&#45;&gt;Node172 -->
<g id="edge4" class="edge">
<title>Node168&#45;&gt;Node172</title>
<path fill="none" stroke="#191970" d="M114.2221,-22.1406C125.4697,-20.7923 137.3603,-19.3669 148.885,-17.9854"/>
<polygon fill="#191970" stroke="#191970" points="149.3809,-21.4511 158.8933,-16.7857 148.5477,-14.5009 149.3809,-21.4511"/>
</g>
<!-- Node170 -->
<g id="node3" class="node">
<title>Node170</title>
<g id="a_node3"><a xlink:href="sol_8f.html#a4145fac37257dc54fbe9cb58cba9e27d" target="_top" xlink:title="sol">
<polygon fill="#ffffff" stroke="#000000" points="347,-38.5 347,-57.5 378,-57.5 378,-38.5 347,-38.5"/>
<text text-anchor="middle" x="362.5" y="-45.5" font-family="Helvetica,sans-Serif" font-size="10.00" fill="#000000">sol</text>
</a>
</g>
</g>
<!-- Node169&#45;&gt;Node170 -->
<g id="edge2" class="edge">
<title>Node169&#45;&gt;Node170</title>
<path fill="none" stroke="#191970" d="M281.2608,-48C300.8222,-48 321.123,-48 336.538,-48"/>
<polygon fill="#191970" stroke="#191970" points="336.8185,-51.5001 346.8185,-48 336.8185,-44.5001 336.8185,-51.5001"/>
</g>
<!-- Node171 -->
<g id="node4" class="node">
<title>Node171</title>
<g id="a_node4"><a xlink:href="sol_8f.html#af0ab570d99532a3735bed4c552583c95" target="_top" xlink:title="scal">
<polygon fill="#ffffff" stroke="#000000" points="444,-38.5 444,-57.5 480,-57.5 480,-38.5 444,-38.5"/>
<text text-anchor="middle" x="462" y="-45.5" font-family="Helvetica,sans-Serif" font-size="10.00" fill="#000000">scal</text>
</a>
</g>
</g>
<!-- Node170&#45;&gt;Node171 -->
<g id="edge3" class="edge">
<title>Node170&#45;&gt;Node171</title>
<path fill="none" stroke="#191970" d="M378.0469,-48C392.9418,-48 415.7645,-48 433.8562,-48"/>
<polygon fill="#191970" stroke="#191970" points="433.8659,-51.5001 443.8659,-48 433.8658,-44.5001 433.8659,-51.5001"/>
</g>
<!-- Node173 -->
<g id="node6" class="node">
<title>Node173</title>
<g id="a_node6"><a xlink:href="namespacesll__m__qn__2d__polar.html#aa7736b2f0573912e8b31a2356f047473" target="_top" xlink:title="matrix_product">
<polygon fill="#ffffff" stroke="#000000" points="317,-.5 317,-19.5 408,-19.5 408,-.5 317,-.5"/>
<text text-anchor="middle" x="362.5" y="-7.5" font-family="Helvetica,sans-Serif" font-size="10.00" fill="#000000">matrix_product</text>
</a>
</g>
</g>
<!-- Node172&#45;&gt;Node173 -->
<g id="edge5" class="edge">
<title>Node172&#45;&gt;Node173</title>
<path fill="none" stroke="#191970" d="M272.334,-10C283.592,-10 295.4006,-10 306.6262,-10"/>
<polygon fill="#191970" stroke="#191970" points="306.7391,-13.5001 316.7391,-10 306.7391,-6.5001 306.7391,-13.5001"/>
</g>
</g>
</svg>
