<?xml version="1.0" encoding="UTF-8" standalone="no"?>
<!DOCTYPE svg PUBLIC "-//W3C//DTD SVG 1.1//EN"
 "http://www.w3.org/Graphics/SVG/1.1/DTD/svg11.dtd">
<!-- Generated by graphviz version 2.40.1 (20161225.0304)
 -->
<!-- Title: compute_curl_part_1d_ps Pages: 1 -->
<svg width="316pt" height="66pt"
 viewBox="0.00 0.00 316.00 66.00" xmlns="http://www.w3.org/2000/svg" xmlns:xlink="http://www.w3.org/1999/xlink">
<g id="graph0" class="graph" transform="scale(1 1) rotate(0) translate(4 62)">
<title>compute_curl_part_1d_ps</title>
<polygon fill="#ffffff" stroke="transparent" points="-4,4 -4,-62 312,-62 312,4 -4,4"/>
<!-- Node15 -->
<g id="node1" class="node">
<title>Node15</title>
<polygon fill="#bfbfbf" stroke="#000000" points="0,-19.5 0,-38.5 141,-38.5 141,-19.5 0,-19.5"/>
<text text-anchor="middle" x="70.5" y="-26.5" font-family="Helvetica,sans-Serif" font-size="10.00" fill="#000000">compute_curl_part_1d_ps</text>
</g>
<!-- Node16 -->
<g id="node2" class="node">
<title>Node16</title>
<g id="a_node2"><a xlink:href="namespacesll__m__maxwell__1d__ps.html#a3d248d779660595ff0d7385d62fea9ec" target="_top" xlink:title="set_eig_schur_curl_part">
<polygon fill="#ffffff" stroke="#000000" points="177,-38.5 177,-57.5 308,-57.5 308,-38.5 177,-38.5"/>
<text text-anchor="middle" x="242.5" y="-45.5" font-family="Helvetica,sans-Serif" font-size="10.00" fill="#000000">set_eig_schur_curl_part</text>
</a>
</g>
</g>
<!-- Node15&#45;&gt;Node16 -->
<g id="edge1" class="edge">
<title>Node15&#45;&gt;Node16</title>
<path fill="none" stroke="#191970" d="M141.452,-36.8377C149.8072,-37.7607 158.3579,-38.7052 166.7754,-39.6351"/>
<polygon fill="#191970" stroke="#191970" points="166.6309,-43.1403 176.9547,-40.7595 167.3995,-36.1826 166.6309,-43.1403"/>
</g>
<!-- Node17 -->
<g id="node3" class="node">
<title>Node17</title>
<g id="a_node3"><a xlink:href="namespacesll__m__maxwell__1d__ps.html#a18c5051e81ea1bbd97f17237ac9feffc" target="_top" xlink:title="complex_product_real">
<polygon fill="#ffffff" stroke="#000000" points="180,-.5 180,-19.5 305,-19.5 305,-.5 180,-.5"/>
<text text-anchor="middle" x="242.5" y="-7.5" font-family="Helvetica,sans-Serif" font-size="10.00" fill="#000000">complex_product_real</text>
</a>
</g>
</g>
<!-- Node15&#45;&gt;Node17 -->
<g id="edge2" class="edge">
<title>Node15&#45;&gt;Node17</title>
<path fill="none" stroke="#191970" d="M141.452,-21.1623C150.8301,-20.1263 160.4547,-19.0631 169.8606,-18.0241"/>
<polygon fill="#191970" stroke="#191970" points="170.4041,-21.4855 179.9593,-16.9086 169.6355,-14.5278 170.4041,-21.4855"/>
</g>
</g>
</svg>
