<?xml version="1.0" encoding="UTF-8" standalone="no"?>
<!DOCTYPE svg PUBLIC "-//W3C//DTD SVG 1.1//EN"
 "http://www.w3.org/Graphics/SVG/1.1/DTD/svg11.dtd">
<!-- Generated by graphviz version 2.43.0 (0)
 -->
<!-- Title: convert_index_2d_to_1d Pages: 1 -->
<svg width="322pt" height="307pt"
 viewBox="0.00 0.00 322.00 307.00" xmlns="http://www.w3.org/2000/svg" xmlns:xlink="http://www.w3.org/1999/xlink">
<g id="graph0" class="graph" transform="scale(1 1) rotate(0) translate(4 303)">
<title>convert_index_2d_to_1d</title>
<polygon fill="white" stroke="transparent" points="-4,4 -4,-303 318,-303 318,4 -4,4"/>
<!-- Node1 -->
<g id="node1" class="node">
<title>Node1</title>
<g id="a_node1"><a xlink:title=" ">
<polygon fill="#bfbfbf" stroke="black" points="179,-140 179,-159 314,-159 314,-140 179,-140"/>
<text text-anchor="middle" x="246.5" y="-147" font-family="Helvetica,sans-Serif" font-size="10.00">convert_index_2d_to_1d</text>
</a>
</g>
</g>
<!-- Node2 -->
<g id="node2" class="node">
<title>Node2</title>
<g id="a_node2"><a xlink:href="namespacesll__m__particle__mesh__coupling__spline__2d__feec.html#a0794179127e7ac51d740578a7e254342" target="_top" xlink:title="Destructor.">
<polygon fill="white" stroke="black" points="0.5,-268.5 0.5,-298.5 142.5,-298.5 142.5,-268.5 0.5,-268.5"/>
<text text-anchor="start" x="8.5" y="-286.5" font-family="Helvetica,sans-Serif" font-size="10.00">add_charge_single_spline</text>
<text text-anchor="middle" x="71.5" y="-275.5" font-family="Helvetica,sans-Serif" font-size="10.00">_2d_feec</text>
</a>
</g>
</g>
<!-- Node1&#45;&gt;Node2 -->
<g id="edge1" class="edge">
<title>Node1&#45;&gt;Node2</title>
<path fill="none" stroke="midnightblue" d="M233.16,-167.51C215.73,-191.69 181.67,-234.47 143,-259.5 137.79,-262.87 132.06,-265.82 126.18,-268.39"/>
<polygon fill="midnightblue" stroke="midnightblue" points="236.1,-169.42 239,-159.23 230.38,-165.39 236.1,-169.42"/>
</g>
<!-- Node3 -->
<g id="node3" class="node">
<title>Node3</title>
<g id="a_node3"><a xlink:href="namespacesll__m__particle__mesh__coupling__spline__2d__feec.html#a16dfc602f3b18581ee980f5947096ce8" target="_top" xlink:title="Add current for one particle.">
<polygon fill="white" stroke="black" points="17,-219.5 17,-249.5 126,-249.5 126,-219.5 17,-219.5"/>
<text text-anchor="start" x="25" y="-237.5" font-family="Helvetica,sans-Serif" font-size="10.00">add_current_spline</text>
<text text-anchor="middle" x="71.5" y="-226.5" font-family="Helvetica,sans-Serif" font-size="10.00">_2d_feec</text>
</a>
</g>
</g>
<!-- Node1&#45;&gt;Node3 -->
<g id="edge2" class="edge">
<title>Node1&#45;&gt;Node3</title>
<path fill="none" stroke="midnightblue" d="M222.47,-164.68C202.13,-177.67 171.38,-196.31 143,-209.5 135.35,-213.06 127.03,-216.42 118.89,-219.46"/>
<polygon fill="midnightblue" stroke="midnightblue" points="224.53,-167.51 231.04,-159.15 220.74,-161.63 224.53,-167.51"/>
</g>
<!-- Node4 -->
<g id="node4" class="node">
<title>Node4</title>
<g id="a_node4"><a xlink:href="namespacesll__m__particle__mesh__coupling__spline__2d__feec.html#a68f1753a024244e80779dea373d4e03e" target="_top" xlink:title="Add current for one particle and update v (according to H_p1 part in Hamiltonian splitting)">
<polygon fill="white" stroke="black" points="0,-159 0,-200 143,-200 143,-159 0,-159"/>
<text text-anchor="start" x="8" y="-188" font-family="Helvetica,sans-Serif" font-size="10.00">add_current_update</text>
<text text-anchor="start" x="8" y="-177" font-family="Helvetica,sans-Serif" font-size="10.00">_v_primitive_component1</text>
<text text-anchor="middle" x="71.5" y="-166" font-family="Helvetica,sans-Serif" font-size="10.00">_spline_2d_feec</text>
</a>
</g>
</g>
<!-- Node1&#45;&gt;Node4 -->
<g id="edge3" class="edge">
<title>Node1&#45;&gt;Node4</title>
<path fill="none" stroke="midnightblue" d="M180.24,-160.82C168.08,-162.93 155.32,-165.14 143.01,-167.27"/>
<polygon fill="midnightblue" stroke="midnightblue" points="181.03,-164.23 190.29,-159.07 179.84,-157.33 181.03,-164.23"/>
</g>
<!-- Node5 -->
<g id="node5" class="node">
<title>Node5</title>
<g id="a_node5"><a xlink:href="namespacesll__m__particle__mesh__coupling__spline__2d__feec.html#a5406f8d57e7c4b51adcf7601f4fd4b59" target="_top" xlink:title=" ">
<polygon fill="white" stroke="black" points="0,-99 0,-140 143,-140 143,-99 0,-99"/>
<text text-anchor="start" x="8" y="-128" font-family="Helvetica,sans-Serif" font-size="10.00">add_current_update</text>
<text text-anchor="start" x="8" y="-117" font-family="Helvetica,sans-Serif" font-size="10.00">_v_primitive_component2</text>
<text text-anchor="middle" x="71.5" y="-106" font-family="Helvetica,sans-Serif" font-size="10.00">_spline_2d_feec</text>
</a>
</g>
</g>
<!-- Node1&#45;&gt;Node5 -->
<g id="edge4" class="edge">
<title>Node1&#45;&gt;Node5</title>
<path fill="none" stroke="midnightblue" d="M180.24,-138.18C168.08,-136.07 155.32,-133.86 143.01,-131.73"/>
<polygon fill="midnightblue" stroke="midnightblue" points="179.84,-141.67 190.29,-139.93 181.03,-134.77 179.84,-141.67"/>
</g>
<!-- Node6 -->
<g id="node6" class="node">
<title>Node6</title>
<g id="a_node6"><a xlink:href="namespacesll__m__particle__mesh__coupling__spline__2d__feec.html#add69346cb9569aa5806a247b254b4f91" target="_top" xlink:title="Add charge of one particle.">
<polygon fill="white" stroke="black" points="0,-49.5 0,-79.5 143,-79.5 143,-49.5 0,-49.5"/>
<text text-anchor="start" x="8" y="-67.5" font-family="Helvetica,sans-Serif" font-size="10.00">add_particle_mass_spline</text>
<text text-anchor="middle" x="71.5" y="-56.5" font-family="Helvetica,sans-Serif" font-size="10.00">_2d_feec</text>
</a>
</g>
</g>
<!-- Node1&#45;&gt;Node6 -->
<g id="edge5" class="edge">
<title>Node1&#45;&gt;Node6</title>
<path fill="none" stroke="midnightblue" d="M222.47,-134.32C202.13,-121.33 171.38,-102.69 143,-89.5 135.35,-85.94 127.03,-82.58 118.89,-79.54"/>
<polygon fill="midnightblue" stroke="midnightblue" points="220.74,-137.37 231.04,-139.85 224.53,-131.49 220.74,-137.37"/>
</g>
<!-- Node7 -->
<g id="node7" class="node">
<title>Node7</title>
<g id="a_node7"><a xlink:href="namespacesll__m__particle__mesh__coupling__spline__2d__feec.html#afbd2a9064b7e3530a3571f8c347e9314" target="_top" xlink:title="Evaluate field at at position position.">
<polygon fill="white" stroke="black" points="11.5,-0.5 11.5,-30.5 131.5,-30.5 131.5,-0.5 11.5,-0.5"/>
<text text-anchor="start" x="19.5" y="-18.5" font-family="Helvetica,sans-Serif" font-size="10.00">evaluate_field_single</text>
<text text-anchor="middle" x="71.5" y="-7.5" font-family="Helvetica,sans-Serif" font-size="10.00">_spline_2d_feec</text>
</a>
</g>
</g>
<!-- Node1&#45;&gt;Node7 -->
<g id="edge6" class="edge">
<title>Node1&#45;&gt;Node7</title>
<path fill="none" stroke="midnightblue" d="M233.08,-131.73C215.55,-107.86 181.38,-65.56 143,-40.5 137.24,-36.74 130.84,-33.46 124.31,-30.63"/>
<polygon fill="midnightblue" stroke="midnightblue" points="230.27,-133.82 238.96,-139.9 235.96,-129.74 230.27,-133.82"/>
</g>
</g>
</svg>
