<?xml version="1.0" encoding="UTF-8" standalone="no"?>
<!DOCTYPE svg PUBLIC "-//W3C//DTD SVG 1.1//EN"
 "http://www.w3.org/Graphics/SVG/1.1/DTD/svg11.dtd">
<!-- Generated by graphviz version 2.40.1 (20161225.0304)
 -->
<!-- Title: evaluate_field_single_spline_pp_1d Pages: 1 -->
<svg width="295pt" height="39pt"
 viewBox="0.00 0.00 295.00 39.00" xmlns="http://www.w3.org/2000/svg" xmlns:xlink="http://www.w3.org/1999/xlink">
<g id="graph0" class="graph" transform="scale(1 1) rotate(0) translate(4 35)">
<title>evaluate_field_single_spline_pp_1d</title>
<polygon fill="#ffffff" stroke="transparent" points="-4,4 -4,-35 291,-35 291,4 -4,4"/>
<!-- Node12 -->
<g id="node1" class="node">
<title>Node12</title>
<polygon fill="#bfbfbf" stroke="#000000" points="0,-.5 0,-30.5 120,-30.5 120,-.5 0,-.5"/>
<text text-anchor="start" x="8" y="-18.5" font-family="Helvetica,sans-Serif" font-size="10.00" fill="#000000">evaluate_field_single</text>
<text text-anchor="middle" x="60" y="-7.5" font-family="Helvetica,sans-Serif" font-size="10.00" fill="#000000">_spline_pp_1d</text>
</g>
<!-- Node13 -->
<g id="node2" class="node">
<title>Node13</title>
<g id="a_node2"><a xlink:href="namespacesll__m__splines__pp.html#ab63c3a25b861ed9b8701ae2f65942bcf" target="_top" xlink:title="Perform a 1d hornerschema on the pp_coeffs at index. ">
<polygon fill="#ffffff" stroke="#000000" points="156,-.5 156,-30.5 287,-30.5 287,-.5 156,-.5"/>
<text text-anchor="start" x="164" y="-18.5" font-family="Helvetica,sans-Serif" font-size="10.00" fill="#000000">sll_m_splines_pp::sll</text>
<text text-anchor="middle" x="221.5" y="-7.5" font-family="Helvetica,sans-Serif" font-size="10.00" fill="#000000">_f_spline_pp_horner_1d</text>
</a>
</g>
</g>
<!-- Node12&#45;&gt;Node13 -->
<g id="edge1" class="edge">
<title>Node12&#45;&gt;Node13</title>
<path fill="none" stroke="#191970" d="M120.1366,-15.5C128.5162,-15.5 137.2132,-15.5 145.8326,-15.5"/>
<polygon fill="#191970" stroke="#191970" points="145.8918,-19.0001 155.8918,-15.5 145.8918,-12.0001 145.8918,-19.0001"/>
</g>
</g>
</svg>
