<?xml version="1.0" encoding="UTF-8" standalone="no"?>
<!DOCTYPE svg PUBLIC "-//W3C//DTD SVG 1.1//EN"
 "http://www.w3.org/Graphics/SVG/1.1/DTD/svg11.dtd">
<!-- Generated by graphviz version 2.38.0 (20140413.2041)
 -->
<!-- Title: wrap_interpolate_array_hermite_2d Pages: 1 -->
<svg width="675pt" height="88pt"
 viewBox="0.00 0.00 675.00 88.00" xmlns="http://www.w3.org/2000/svg" xmlns:xlink="http://www.w3.org/1999/xlink">
<g id="graph0" class="graph" transform="scale(1 1) rotate(0) translate(4 84)">
<title>wrap_interpolate_array_hermite_2d</title>
<polygon fill="white" stroke="none" points="-4,4 -4,-84 671,-84 671,4 -4,4"/>
<!-- Node1 -->
<g id="node1" class="node"><title>Node1</title>
<polygon fill="#bfbfbf" stroke="black" points="0,-24.5 0,-54.5 115,-54.5 115,-24.5 0,-24.5"/>
<text text-anchor="start" x="8" y="-42.5" font-family="Helvetica,sans-Serif" font-size="10.00">wrap_interpolate_array</text>
<text text-anchor="middle" x="57.5" y="-31.5" font-family="Helvetica,sans-Serif" font-size="10.00">_hermite_2d</text>
</g>
<!-- Node2 -->
<g id="node2" class="node"><title>Node2</title>
<g id="a_node2"><a xlink:href="namespacesll__m__hermite__interpolation__2d.html#a04292b17bd88dc36d294cd061c7b9851" target="_top" xlink:title="sll_m_hermite_interpolation\l_2d::sll_s_compute_interpolants\l_hermite_2d">
<polygon fill="white" stroke="black" points="151,-19 151,-60 308,-60 308,-19 151,-19"/>
<text text-anchor="start" x="159" y="-48" font-family="Helvetica,sans-Serif" font-size="10.00">sll_m_hermite_interpolation</text>
<text text-anchor="start" x="159" y="-37" font-family="Helvetica,sans-Serif" font-size="10.00">_2d::sll_s_compute_interpolants</text>
<text text-anchor="middle" x="229.5" y="-26" font-family="Helvetica,sans-Serif" font-size="10.00">_hermite_2d</text>
</a>
</g>
</g>
<!-- Node1&#45;&gt;Node2 -->
<g id="edge1" class="edge"><title>Node1&#45;&gt;Node2</title>
<path fill="none" stroke="midnightblue" d="M115.108,-39.5C123.369,-39.5 132.034,-39.5 140.739,-39.5"/>
<polygon fill="midnightblue" stroke="midnightblue" points="140.952,-43.0001 150.952,-39.5 140.952,-36.0001 140.952,-43.0001"/>
</g>
<!-- Node3 -->
<g id="node3" class="node"><title>Node3</title>
<g id="a_node3"><a xlink:href="namespacesll__m__hermite__interpolation__2d.html#a416aa4cb794e29bd7e0d0f95414fa8fd" target="_top" xlink:title="sll_m_hermite_interpolation\l_2d::hermite_coef_nat_per">
<polygon fill="white" stroke="black" points="344,-49.5 344,-79.5 479,-79.5 479,-49.5 344,-49.5"/>
<text text-anchor="start" x="352" y="-67.5" font-family="Helvetica,sans-Serif" font-size="10.00">sll_m_hermite_interpolation</text>
<text text-anchor="middle" x="411.5" y="-56.5" font-family="Helvetica,sans-Serif" font-size="10.00">_2d::hermite_coef_nat_per</text>
</a>
</g>
</g>
<!-- Node2&#45;&gt;Node3 -->
<g id="edge2" class="edge"><title>Node2&#45;&gt;Node3</title>
<path fill="none" stroke="midnightblue" d="M308.142,-50.2836C316.691,-51.471 325.391,-52.6793 333.927,-53.8648"/>
<polygon fill="midnightblue" stroke="midnightblue" points="333.465,-57.3343 343.852,-55.2433 334.428,-50.4008 333.465,-57.3343"/>
</g>
<!-- Node5 -->
<g id="node5" class="node"><title>Node5</title>
<g id="a_node5"><a xlink:href="namespacesll__m__hermite__interpolation__2d.html#a59746b1f0ec8072ec811a6260ba3dc4d" target="_top" xlink:title="sll_m_hermite_interpolation\l_2d::hermite_coef_per_per">
<polygon fill="white" stroke="black" points="344,-0.5 344,-30.5 479,-30.5 479,-0.5 344,-0.5"/>
<text text-anchor="start" x="352" y="-18.5" font-family="Helvetica,sans-Serif" font-size="10.00">sll_m_hermite_interpolation</text>
<text text-anchor="middle" x="411.5" y="-7.5" font-family="Helvetica,sans-Serif" font-size="10.00">_2d::hermite_coef_per_per</text>
</a>
</g>
</g>
<!-- Node2&#45;&gt;Node5 -->
<g id="edge4" class="edge"><title>Node2&#45;&gt;Node5</title>
<path fill="none" stroke="midnightblue" d="M308.142,-29.1477C316.691,-28.0079 325.391,-26.8478 333.927,-25.7098"/>
<polygon fill="midnightblue" stroke="midnightblue" points="334.402,-29.1775 343.852,-24.3864 333.477,-22.2389 334.402,-29.1775"/>
</g>
<!-- Node4 -->
<g id="node4" class="node"><title>Node4</title>
<g id="a_node4"><a xlink:href="namespacesll__m__hermite__interpolation__2d.html#addf0a862acbd92932b845d9938e544f0" target="_top" xlink:title="sll_m_hermite_interpolation\l_2d::sll_s_compute_w_hermite">
<polygon fill="white" stroke="black" points="515,-24.5 515,-54.5 667,-54.5 667,-24.5 515,-24.5"/>
<text text-anchor="start" x="523" y="-42.5" font-family="Helvetica,sans-Serif" font-size="10.00">sll_m_hermite_interpolation</text>
<text text-anchor="middle" x="591" y="-31.5" font-family="Helvetica,sans-Serif" font-size="10.00">_2d::sll_s_compute_w_hermite</text>
</a>
</g>
</g>
<!-- Node3&#45;&gt;Node4 -->
<g id="edge3" class="edge"><title>Node3&#45;&gt;Node4</title>
<path fill="none" stroke="midnightblue" d="M479.099,-55.1198C487.513,-53.9347 496.211,-52.7097 504.863,-51.4912"/>
<polygon fill="midnightblue" stroke="midnightblue" points="505.564,-54.927 514.978,-50.0664 504.588,-47.9954 505.564,-54.927"/>
</g>
<!-- Node5&#45;&gt;Node4 -->
<g id="edge5" class="edge"><title>Node5&#45;&gt;Node4</title>
<path fill="none" stroke="midnightblue" d="M479.099,-24.505C487.513,-25.6426 496.211,-26.8187 504.863,-27.9885"/>
<polygon fill="midnightblue" stroke="midnightblue" points="504.599,-31.4847 514.978,-29.3562 505.537,-24.5478 504.599,-31.4847"/>
</g>
</g>
</svg>
