<?xml version="1.0" encoding="UTF-8" standalone="no"?>
<!DOCTYPE svg PUBLIC "-//W3C//DTD SVG 1.1//EN"
 "http://www.w3.org/Graphics/SVG/1.1/DTD/svg11.dtd">
<!-- Generated by graphviz version 2.38.0 (20140413.2041)
 -->
<!-- Title: interpolate_disp Pages: 1 -->
<svg width="683pt" height="218pt"
 viewBox="0.00 0.00 683.00 217.50" xmlns="http://www.w3.org/2000/svg" xmlns:xlink="http://www.w3.org/1999/xlink">
<g id="graph0" class="graph" transform="scale(1 1) rotate(0) translate(4 213.5)">
<title>interpolate_disp</title>
<polygon fill="white" stroke="none" points="-4,4 -4,-213.5 679,-213.5 679,4 -4,4"/>
<!-- Node1 -->
<g id="node1" class="node"><title>Node1</title>
<polygon fill="#bfbfbf" stroke="black" points="0,-55 0,-74 85,-74 85,-55 0,-55"/>
<text text-anchor="middle" x="42.5" y="-62" font-family="Helvetica,sans-Serif" font-size="10.00">interpolate_disp</text>
</g>
<!-- Node2 -->
<g id="node2" class="node"><title>Node2</title>
<g id="a_node2"><a xlink:href="namespacesll__m__sparse__grid__interpolator.html#a27497afcda9d0024745a848b26449a4d" target="_top" xlink:title="interpolate_disp_recursive">
<polygon fill="white" stroke="black" points="121,-101 121,-120 251,-120 251,-101 121,-101"/>
<text text-anchor="middle" x="186" y="-108" font-family="Helvetica,sans-Serif" font-size="10.00">interpolate_disp_recursive</text>
</a>
</g>
</g>
<!-- Node1&#45;&gt;Node2 -->
<g id="edge1" class="edge"><title>Node1&#45;&gt;Node2</title>
<path fill="none" stroke="midnightblue" d="M72.8189,-74.0312C94.0682,-80.9391 123.016,-90.3498 146.183,-97.8811"/>
<polygon fill="midnightblue" stroke="midnightblue" points="145.126,-101.218 155.719,-100.981 147.291,-94.5608 145.126,-101.218"/>
</g>
<!-- Node12 -->
<g id="node12" class="node"><title>Node12</title>
<g id="a_node12"><a xlink:href="namespacesll__m__sparse__grid__interpolator.html#aec5c5b1deef2658a1414515d8cbd3fe3" target="_top" xlink:title="dehierarchical_part\l_order">
<polygon fill="white" stroke="black" points="137,-49.5 137,-79.5 235,-79.5 235,-49.5 137,-49.5"/>
<text text-anchor="start" x="145" y="-67.5" font-family="Helvetica,sans-Serif" font-size="10.00">dehierarchical_part</text>
<text text-anchor="middle" x="186" y="-56.5" font-family="Helvetica,sans-Serif" font-size="10.00">_order</text>
</a>
</g>
</g>
<!-- Node1&#45;&gt;Node12 -->
<g id="edge11" class="edge"><title>Node1&#45;&gt;Node12</title>
<path fill="none" stroke="midnightblue" d="M85.1893,-64.5C98.2436,-64.5 112.896,-64.5 126.869,-64.5"/>
<polygon fill="midnightblue" stroke="midnightblue" points="126.891,-68.0001 136.891,-64.5 126.891,-61.0001 126.891,-68.0001"/>
</g>
<!-- Node14 -->
<g id="node14" class="node"><title>Node14</title>
<g id="a_node14"><a xlink:href="namespacesll__m__sparse__grid__interpolator.html#a0f1a7c18559af8b9ee87e2a15b3a1dd4" target="_top" xlink:title="dehierarchical_part">
<polygon fill="white" stroke="black" points="137,-9 137,-28 235,-28 235,-9 137,-9"/>
<text text-anchor="middle" x="186" y="-16" font-family="Helvetica,sans-Serif" font-size="10.00">dehierarchical_part</text>
</a>
</g>
</g>
<!-- Node1&#45;&gt;Node14 -->
<g id="edge13" class="edge"><title>Node1&#45;&gt;Node14</title>
<path fill="none" stroke="midnightblue" d="M72.8189,-54.9688C94.0682,-48.0609 123.016,-38.6502 146.183,-31.1189"/>
<polygon fill="midnightblue" stroke="midnightblue" points="147.291,-34.4392 155.719,-28.019 145.126,-27.7822 147.291,-34.4392"/>
</g>
<!-- Node3 -->
<g id="node3" class="node"><title>Node3</title>
<g id="a_node3"><a xlink:href="namespacesll__m__sparse__grid__interpolator.html#abde63630cfb91242fb29f6d8919a9ef8" target="_top" xlink:title="interpolate_disp_1d\l_periodic">
<polygon fill="white" stroke="black" points="288.5,-98.5 288.5,-128.5 389.5,-128.5 389.5,-98.5 288.5,-98.5"/>
<text text-anchor="start" x="296.5" y="-116.5" font-family="Helvetica,sans-Serif" font-size="10.00">interpolate_disp_1d</text>
<text text-anchor="middle" x="339" y="-105.5" font-family="Helvetica,sans-Serif" font-size="10.00">_periodic</text>
</a>
</g>
</g>
<!-- Node2&#45;&gt;Node3 -->
<g id="edge2" class="edge"><title>Node2&#45;&gt;Node3</title>
<path fill="none" stroke="midnightblue" d="M251.038,-111.772C259.935,-111.949 269.049,-112.13 277.872,-112.305"/>
<polygon fill="midnightblue" stroke="midnightblue" points="277.996,-115.808 288.063,-112.508 278.135,-108.81 277.996,-115.808"/>
</g>
<!-- Node4 -->
<g id="node4" class="node"><title>Node4</title>
<g id="a_node4"><a xlink:href="namespacesll__m__sparse__grid__interpolator.html#aa89226cc4257345b3f25fd8b49ed8cbf" target="_top" xlink:title="extract_periodic">
<polygon fill="white" stroke="black" points="437,-189 437,-208 523,-208 523,-189 437,-189"/>
<text text-anchor="middle" x="480" y="-196" font-family="Helvetica,sans-Serif" font-size="10.00">extract_periodic</text>
</a>
</g>
</g>
<!-- Node3&#45;&gt;Node4 -->
<g id="edge3" class="edge"><title>Node3&#45;&gt;Node4</title>
<path fill="none" stroke="midnightblue" d="M358.184,-128.551C375.24,-142.201 401.823,-162.301 427,-176.5 432.306,-179.492 438.1,-182.328 443.832,-184.907"/>
<polygon fill="midnightblue" stroke="midnightblue" points="442.755,-188.254 453.324,-188.987 445.519,-181.823 442.755,-188.254"/>
</g>
<!-- Node6 -->
<g id="node6" class="node"><title>Node6</title>
<g id="a_node6"><a xlink:href="namespacesll__m__sparse__grid__interpolator.html#ad842d658a4fc121b179d8e07e7af947d" target="_top" xlink:title="dehierarchical_stripe">
<polygon fill="white" stroke="black" points="427,-148 427,-167 533,-167 533,-148 427,-148"/>
<text text-anchor="middle" x="480" y="-155" font-family="Helvetica,sans-Serif" font-size="10.00">dehierarchical_stripe</text>
</a>
</g>
</g>
<!-- Node3&#45;&gt;Node6 -->
<g id="edge5" class="edge"><title>Node3&#45;&gt;Node6</title>
<path fill="none" stroke="midnightblue" d="M387.447,-128.519C404.251,-133.838 422.973,-139.765 439.086,-144.865"/>
<polygon fill="midnightblue" stroke="midnightblue" points="438.151,-148.241 448.741,-147.922 440.264,-141.567 438.151,-148.241"/>
</g>
<!-- Node8 -->
<g id="node8" class="node"><title>Node8</title>
<g id="a_node8"><a xlink:href="namespacesll__m__sparse__grid__interpolator.html#a2a6e7c82c896d91b90a3cc7376c43ee8" target="_top" xlink:title="displace_on_stripe\l_periodic">
<polygon fill="white" stroke="black" points="431,-98.5 431,-128.5 529,-128.5 529,-98.5 431,-98.5"/>
<text text-anchor="start" x="439" y="-116.5" font-family="Helvetica,sans-Serif" font-size="10.00">displace_on_stripe</text>
<text text-anchor="middle" x="480" y="-105.5" font-family="Helvetica,sans-Serif" font-size="10.00">_periodic</text>
</a>
</g>
</g>
<!-- Node3&#45;&gt;Node8 -->
<g id="edge7" class="edge"><title>Node3&#45;&gt;Node8</title>
<path fill="none" stroke="midnightblue" d="M389.79,-113.5C399.839,-113.5 410.487,-113.5 420.795,-113.5"/>
<polygon fill="midnightblue" stroke="midnightblue" points="420.954,-117 430.954,-113.5 420.954,-110 420.954,-117"/>
</g>
<!-- Node9 -->
<g id="node9" class="node"><title>Node9</title>
<g id="a_node9"><a xlink:href="namespacesll__m__sparse__grid__interpolator.html#a2bde855e935d8dd8ba42307e0f8ec991" target="_top" xlink:title="hierarchical_stripe">
<polygon fill="white" stroke="black" points="432.5,-60 432.5,-79 527.5,-79 527.5,-60 432.5,-60"/>
<text text-anchor="middle" x="480" y="-67" font-family="Helvetica,sans-Serif" font-size="10.00">hierarchical_stripe</text>
</a>
</g>
</g>
<!-- Node3&#45;&gt;Node9 -->
<g id="edge8" class="edge"><title>Node3&#45;&gt;Node9</title>
<path fill="none" stroke="midnightblue" d="M387.447,-98.4808C404.251,-93.1617 422.973,-87.2353 439.086,-82.1346"/>
<polygon fill="midnightblue" stroke="midnightblue" points="440.264,-85.433 448.741,-79.0783 438.151,-78.7594 440.264,-85.433"/>
</g>
<!-- Node10 -->
<g id="node10" class="node"><title>Node10</title>
<g id="a_node10"><a xlink:href="namespacesll__m__sparse__grid__interpolator.html#a480541723892aac41a1d4802a693b61d" target="_top" xlink:title="insert_periodic">
<polygon fill="white" stroke="black" points="440,-22 440,-41 520,-41 520,-22 440,-22"/>
<text text-anchor="middle" x="480" y="-29" font-family="Helvetica,sans-Serif" font-size="10.00">insert_periodic</text>
</a>
</g>
</g>
<!-- Node3&#45;&gt;Node10 -->
<g id="edge9" class="edge"><title>Node3&#45;&gt;Node10</title>
<path fill="none" stroke="midnightblue" d="M374.989,-98.429C380.544,-95.456 386.075,-92.122 391,-88.5 409.742,-74.717 407.558,-63.2761 427,-50.5 429.941,-48.5676 433.104,-46.7994 436.365,-45.1878"/>
<polygon fill="midnightblue" stroke="midnightblue" points="437.984,-48.2989 445.716,-41.0549 435.154,-41.8965 437.984,-48.2989"/>
</g>
<!-- Node5 -->
<g id="node5" class="node"><title>Node5</title>
<g id="a_node5"><a xlink:href="namespacesll__m__sparse__grid__interpolator.html#a652e68ef87807a2193e0aa16fe3b0bc0" target="_top" xlink:title="extract_recursive">
<polygon fill="white" stroke="black" points="576,-190 576,-209 668,-209 668,-190 576,-190"/>
<text text-anchor="middle" x="622" y="-197" font-family="Helvetica,sans-Serif" font-size="10.00">extract_recursive</text>
</a>
</g>
</g>
<!-- Node4&#45;&gt;Node5 -->
<g id="edge4" class="edge"><title>Node4&#45;&gt;Node5</title>
<path fill="none" stroke="midnightblue" d="M523.005,-198.8C536.356,-198.895 551.334,-199.002 565.486,-199.103"/>
<polygon fill="midnightblue" stroke="midnightblue" points="565.585,-202.604 575.609,-199.176 565.635,-195.604 565.585,-202.604"/>
</g>
<!-- Node7 -->
<g id="node7" class="node"><title>Node7</title>
<g id="a_node7"><a xlink:href="namespacesll__m__sparse__grid__interpolator.html#aeec87af6dcfc4d785c281ad466bf2272" target="_top" xlink:title="dehierarchical_stripe\l_recursive">
<polygon fill="white" stroke="black" points="569,-140.5 569,-170.5 675,-170.5 675,-140.5 569,-140.5"/>
<text text-anchor="start" x="577" y="-158.5" font-family="Helvetica,sans-Serif" font-size="10.00">dehierarchical_stripe</text>
<text text-anchor="middle" x="622" y="-147.5" font-family="Helvetica,sans-Serif" font-size="10.00">_recursive</text>
</a>
</g>
</g>
<!-- Node6&#45;&gt;Node7 -->
<g id="edge6" class="edge"><title>Node6&#45;&gt;Node7</title>
<path fill="none" stroke="midnightblue" d="M533.131,-156.755C541.421,-156.637 550.07,-156.513 558.568,-156.392"/>
<polygon fill="midnightblue" stroke="midnightblue" points="558.877,-159.888 568.826,-156.245 558.777,-152.889 558.877,-159.888"/>
</g>
<!-- Node11 -->
<g id="node11" class="node"><title>Node11</title>
<g id="a_node11"><a xlink:href="namespacesll__m__sparse__grid__interpolator.html#a1de98a2ca12892363bb97464db87ca63" target="_top" xlink:title="insert_recursive">
<polygon fill="white" stroke="black" points="579,-22 579,-41 665,-41 665,-22 579,-22"/>
<text text-anchor="middle" x="622" y="-29" font-family="Helvetica,sans-Serif" font-size="10.00">insert_recursive</text>
</a>
</g>
</g>
<!-- Node10&#45;&gt;Node11 -->
<g id="edge10" class="edge"><title>Node10&#45;&gt;Node11</title>
<path fill="none" stroke="midnightblue" d="M520.37,-31.5C535.364,-31.5 552.693,-31.5 568.7,-31.5"/>
<polygon fill="midnightblue" stroke="midnightblue" points="568.991,-35.0001 578.991,-31.5 568.991,-28.0001 568.991,-35.0001"/>
</g>
<!-- Node13 -->
<g id="node13" class="node"><title>Node13</title>
<g id="a_node13"><a xlink:href="namespacesll__m__sparse__grid__interpolator.html#aa42861ef2d133c119983879b2e0854dd" target="_top" xlink:title="dehierarchical_part\l_order_d_dimension">
<polygon fill="white" stroke="black" points="287,-49.5 287,-79.5 391,-79.5 391,-49.5 287,-49.5"/>
<text text-anchor="start" x="295" y="-67.5" font-family="Helvetica,sans-Serif" font-size="10.00">dehierarchical_part</text>
<text text-anchor="middle" x="339" y="-56.5" font-family="Helvetica,sans-Serif" font-size="10.00">_order_d_dimension</text>
</a>
</g>
</g>
<!-- Node12&#45;&gt;Node13 -->
<g id="edge12" class="edge"><title>Node12&#45;&gt;Node13</title>
<path fill="none" stroke="midnightblue" d="M235.193,-64.5C248.329,-64.5 262.741,-64.5 276.508,-64.5"/>
<polygon fill="midnightblue" stroke="midnightblue" points="276.879,-68.0001 286.879,-64.5 276.879,-61.0001 276.879,-68.0001"/>
</g>
<!-- Node15 -->
<g id="node15" class="node"><title>Node15</title>
<g id="a_node15"><a xlink:href="namespacesll__m__sparse__grid__interpolator.html#a1922c60eabeb5ce3b2d43f7d2db8bf65" target="_top" xlink:title="dehierarchical_part\l_d_dimension">
<polygon fill="white" stroke="black" points="290,-0.5 290,-30.5 388,-30.5 388,-0.5 290,-0.5"/>
<text text-anchor="start" x="298" y="-18.5" font-family="Helvetica,sans-Serif" font-size="10.00">dehierarchical_part</text>
<text text-anchor="middle" x="339" y="-7.5" font-family="Helvetica,sans-Serif" font-size="10.00">_d_dimension</text>
</a>
</g>
</g>
<!-- Node14&#45;&gt;Node15 -->
<g id="edge14" class="edge"><title>Node14&#45;&gt;Node15</title>
<path fill="none" stroke="midnightblue" d="M235.193,-17.5425C249.358,-17.2611 265.006,-16.9502 279.731,-16.6577"/>
<polygon fill="midnightblue" stroke="midnightblue" points="279.819,-20.1567 289.747,-16.4587 279.68,-13.1581 279.819,-20.1567"/>
</g>
</g>
</svg>
