<?xml version="1.0" encoding="UTF-8" standalone="no"?>
<!DOCTYPE svg PUBLIC "-//W3C//DTD SVG 1.1//EN"
 "http://www.w3.org/Graphics/SVG/1.1/DTD/svg11.dtd">
<!-- Generated by graphviz version 2.43.0 (0)
 -->
<!-- Title: sll_s_spline_fem_mass_line Pages: 1 -->
<svg width="365pt" height="673pt"
 viewBox="0.00 0.00 365.00 672.50" xmlns="http://www.w3.org/2000/svg" xmlns:xlink="http://www.w3.org/1999/xlink">
<g id="graph0" class="graph" transform="scale(1 1) rotate(0) translate(4 668.5)">
<title>sll_s_spline_fem_mass_line</title>
<polygon fill="white" stroke="transparent" points="-4,4 -4,-668.5 361,-668.5 361,4 -4,4"/>
<!-- Node1 -->
<g id="node1" class="node">
<title>Node1</title>
<g id="a_node1"><a xlink:title="Computes the mass line for a mass matrix with degree splines.">
<polygon fill="#bfbfbf" stroke="black" points="205,-334 205,-353 357,-353 357,-334 205,-334"/>
<text text-anchor="middle" x="281" y="-341" font-family="Helvetica,sans-Serif" font-size="10.00">sll_s_spline_fem_mass_line</text>
</a>
</g>
</g>
<!-- Node2 -->
<g id="node2" class="node">
<title>Node2</title>
<g id="a_node2"><a xlink:href="namespacesll__m__preconditioner__curl__solver__fft.html#a3b2fb1ca4c033320def7c3fd39a489a6" target="_top" xlink:title=" ">
<polygon fill="white" stroke="black" points="20.5,-623 20.5,-664 148.5,-664 148.5,-623 20.5,-623"/>
<text text-anchor="start" x="28.5" y="-652" font-family="Helvetica,sans-Serif" font-size="10.00">sll_m_preconditioner</text>
<text text-anchor="start" x="28.5" y="-641" font-family="Helvetica,sans-Serif" font-size="10.00">_curl_solver_fft::create</text>
<text text-anchor="middle" x="84.5" y="-630" font-family="Helvetica,sans-Serif" font-size="10.00">_preconditioner</text>
</a>
</g>
</g>
<!-- Node1&#45;&gt;Node2 -->
<g id="edge1" class="edge">
<title>Node1&#45;&gt;Node2</title>
<path fill="none" stroke="midnightblue" d="M277.43,-363.14C269.99,-412.31 243.95,-541.86 169,-613.5 163.1,-619.14 156.06,-623.73 148.61,-627.47"/>
<polygon fill="midnightblue" stroke="midnightblue" points="280.91,-363.57 278.85,-353.18 273.98,-362.59 280.91,-363.57"/>
</g>
<!-- Node3 -->
<g id="node3" class="node">
<title>Node3</title>
<g id="a_node3"><a xlink:href="namespacesll__m__maxwell__1d__fem.html#a5b82c557e498ae59986631d0aea7ed63" target="_top" xlink:title=" ">
<polygon fill="white" stroke="black" points="18.5,-573.5 18.5,-603.5 150.5,-603.5 150.5,-573.5 18.5,-573.5"/>
<text text-anchor="start" x="26.5" y="-591.5" font-family="Helvetica,sans-Serif" font-size="10.00">sll_m_maxwell_1d_fem</text>
<text text-anchor="middle" x="84.5" y="-580.5" font-family="Helvetica,sans-Serif" font-size="10.00">::init_1d_fem</text>
</a>
</g>
</g>
<!-- Node1&#45;&gt;Node3 -->
<g id="edge2" class="edge">
<title>Node1&#45;&gt;Node3</title>
<path fill="none" stroke="midnightblue" d="M275.82,-362.97C265.55,-406.01 234.96,-509.77 169,-564.5 163.54,-569.03 157.28,-572.7 150.68,-575.68"/>
<polygon fill="midnightblue" stroke="midnightblue" points="279.24,-363.71 278.05,-353.18 272.41,-362.15 279.24,-363.71"/>
</g>
<!-- Node4 -->
<g id="node4" class="node">
<title>Node4</title>
<g id="a_node4"><a xlink:href="namespacesll__m__maxwell__clamped__1d__fem__sm.html#a400fe28b25203e207ad0786874c32912" target="_top" xlink:title="Initialization.">
<polygon fill="white" stroke="black" points="3,-524.5 3,-554.5 166,-554.5 166,-524.5 3,-524.5"/>
<text text-anchor="start" x="11" y="-542.5" font-family="Helvetica,sans-Serif" font-size="10.00">sll_m_maxwell_clamped</text>
<text text-anchor="middle" x="84.5" y="-531.5" font-family="Helvetica,sans-Serif" font-size="10.00">_1d_fem_sm::init_1d_fem_sm</text>
</a>
</g>
</g>
<!-- Node1&#45;&gt;Node4 -->
<g id="edge3" class="edge">
<title>Node1&#45;&gt;Node4</title>
<path fill="none" stroke="midnightblue" d="M272.96,-362.68C258.87,-398.31 223.82,-474.79 169,-515.5 164.4,-518.92 159.32,-521.85 154.02,-524.36"/>
<polygon fill="midnightblue" stroke="midnightblue" points="276.35,-363.61 276.65,-353.02 269.81,-361.11 276.35,-363.61"/>
</g>
<!-- Node5 -->
<g id="node5" class="node">
<title>Node5</title>
<g id="a_node5"><a xlink:href="namespacesll__m__maxwell__1d__fem__sm.html#a45e52ba17b5b5af73732917939909d67" target="_top" xlink:title="Initialization.">
<polygon fill="white" stroke="black" points="18.5,-475.5 18.5,-505.5 150.5,-505.5 150.5,-475.5 18.5,-475.5"/>
<text text-anchor="start" x="26.5" y="-493.5" font-family="Helvetica,sans-Serif" font-size="10.00">sll_m_maxwell_1d_fem</text>
<text text-anchor="middle" x="84.5" y="-482.5" font-family="Helvetica,sans-Serif" font-size="10.00">_sm::init_1d_fem_sm</text>
</a>
</g>
</g>
<!-- Node1&#45;&gt;Node5 -->
<g id="edge4" class="edge">
<title>Node1&#45;&gt;Node5</title>
<path fill="none" stroke="midnightblue" d="M268.55,-361.62C250.6,-388.53 213.3,-438.83 169,-466.5 163.37,-470.02 157.21,-473.03 150.87,-475.62"/>
<polygon fill="midnightblue" stroke="midnightblue" points="271.54,-363.44 274.07,-353.16 265.67,-359.62 271.54,-363.44"/>
</g>
<!-- Node6 -->
<g id="node6" class="node">
<title>Node6</title>
<g id="a_node6"><a xlink:href="namespacesll__m__maxwell__2d__fem__fft.html#ac36dd5f7c1676c2e3c92ddca3021af44" target="_top" xlink:title=" ">
<polygon fill="white" stroke="black" points="18.5,-426.5 18.5,-456.5 150.5,-456.5 150.5,-426.5 18.5,-426.5"/>
<text text-anchor="start" x="26.5" y="-444.5" font-family="Helvetica,sans-Serif" font-size="10.00">sll_m_maxwell_2d_fem</text>
<text text-anchor="middle" x="84.5" y="-433.5" font-family="Helvetica,sans-Serif" font-size="10.00">_fft::init_2d_fem</text>
</a>
</g>
</g>
<!-- Node1&#45;&gt;Node6 -->
<g id="edge5" class="edge">
<title>Node1&#45;&gt;Node6</title>
<path fill="none" stroke="midnightblue" d="M260.44,-359.27C239.1,-375.82 203.35,-401.58 169,-417.5 161.88,-420.8 154.21,-423.75 146.51,-426.35"/>
<polygon fill="midnightblue" stroke="midnightblue" points="262.71,-361.94 268.41,-353.01 258.38,-356.44 262.71,-361.94"/>
</g>
<!-- Node7 -->
<g id="node7" class="node">
<title>Node7</title>
<g id="a_node7"><a xlink:href="namespacesll__m__maxwell__clamped__3d__fem.html#afadba212d3f01a688b12c751068d1707" target="_top" xlink:title="Initialization.">
<polygon fill="white" stroke="black" points="16,-377.5 16,-407.5 153,-407.5 153,-377.5 16,-377.5"/>
<text text-anchor="start" x="24" y="-395.5" font-family="Helvetica,sans-Serif" font-size="10.00">sll_m_maxwell_clamped</text>
<text text-anchor="middle" x="84.5" y="-384.5" font-family="Helvetica,sans-Serif" font-size="10.00">_3d_fem::init_3d_fem</text>
</a>
</g>
</g>
<!-- Node1&#45;&gt;Node7 -->
<g id="edge6" class="edge">
<title>Node1&#45;&gt;Node7</title>
<path fill="none" stroke="midnightblue" d="M232.31,-355.51C206.03,-362.14 173.16,-370.42 145.19,-377.46"/>
<polygon fill="midnightblue" stroke="midnightblue" points="233.19,-358.9 242.04,-353.06 231.48,-352.11 233.19,-358.9"/>
</g>
<!-- Node8 -->
<g id="node8" class="node">
<title>Node8</title>
<g id="a_node8"><a xlink:href="namespacesll__m__maxwell__3d__fem.html#ab814bfc0f843c1a2b8fe485351798ca0" target="_top" xlink:title="Initialization.">
<polygon fill="white" stroke="black" points="18.5,-328.5 18.5,-358.5 150.5,-358.5 150.5,-328.5 18.5,-328.5"/>
<text text-anchor="start" x="26.5" y="-346.5" font-family="Helvetica,sans-Serif" font-size="10.00">sll_m_maxwell_3d_fem</text>
<text text-anchor="middle" x="84.5" y="-335.5" font-family="Helvetica,sans-Serif" font-size="10.00">::init_3d_fem</text>
</a>
</g>
</g>
<!-- Node1&#45;&gt;Node8 -->
<g id="edge7" class="edge">
<title>Node1&#45;&gt;Node8</title>
<path fill="none" stroke="midnightblue" d="M194.67,-343.5C179.92,-343.5 164.79,-343.5 150.69,-343.5"/>
<polygon fill="midnightblue" stroke="midnightblue" points="194.8,-347 204.8,-343.5 194.8,-340 194.8,-347"/>
</g>
<!-- Node9 -->
<g id="node9" class="node">
<title>Node9</title>
<g id="a_node9"><a xlink:href="namespacesll__m__maxwell__3d__fem__fft.html#a8a58004064950f3f15cada7e7c4fb56b" target="_top" xlink:title="Initialization.">
<polygon fill="white" stroke="black" points="18.5,-279.5 18.5,-309.5 150.5,-309.5 150.5,-279.5 18.5,-279.5"/>
<text text-anchor="start" x="26.5" y="-297.5" font-family="Helvetica,sans-Serif" font-size="10.00">sll_m_maxwell_3d_fem</text>
<text text-anchor="middle" x="84.5" y="-286.5" font-family="Helvetica,sans-Serif" font-size="10.00">_fft::init_3d_fem_fft</text>
</a>
</g>
</g>
<!-- Node1&#45;&gt;Node9 -->
<g id="edge8" class="edge">
<title>Node1&#45;&gt;Node9</title>
<path fill="none" stroke="midnightblue" d="M232.31,-331.49C206.03,-324.86 173.16,-316.58 145.19,-309.54"/>
<polygon fill="midnightblue" stroke="midnightblue" points="231.48,-334.89 242.04,-333.94 233.19,-328.1 231.48,-334.89"/>
</g>
<!-- Node10 -->
<g id="node10" class="node">
<title>Node10</title>
<g id="a_node10"><a xlink:href="namespacesll__m__preconditioner__fft.html#a356c74657f0e63a3ea3351c2f2967d06" target="_top" xlink:title=" ">
<polygon fill="white" stroke="black" points="25,-230.5 25,-260.5 144,-260.5 144,-230.5 25,-230.5"/>
<text text-anchor="start" x="33" y="-248.5" font-family="Helvetica,sans-Serif" font-size="10.00">sll_m_preconditioner</text>
<text text-anchor="middle" x="84.5" y="-237.5" font-family="Helvetica,sans-Serif" font-size="10.00">_fft::init_3d_trafo</text>
</a>
</g>
</g>
<!-- Node1&#45;&gt;Node10 -->
<g id="edge9" class="edge">
<title>Node1&#45;&gt;Node10</title>
<path fill="none" stroke="midnightblue" d="M260.03,-327.77C238.58,-311.51 202.99,-286.35 169,-270.5 161.05,-266.79 152.41,-263.48 143.81,-260.58"/>
<polygon fill="midnightblue" stroke="midnightblue" points="257.98,-330.61 268.05,-333.93 262.25,-325.06 257.98,-330.61"/>
</g>
<!-- Node11 -->
<g id="node11" class="node">
<title>Node11</title>
<g id="a_node11"><a xlink:href="namespacesll__m__poisson__2d__fem__fft.html#a199a25f8041eeff03305f97d0a00f1ab" target="_top" xlink:title=" ">
<polygon fill="white" stroke="black" points="20.5,-181.5 20.5,-211.5 148.5,-211.5 148.5,-181.5 20.5,-181.5"/>
<text text-anchor="start" x="28.5" y="-199.5" font-family="Helvetica,sans-Serif" font-size="10.00">sll_m_poisson_2d_fem</text>
<text text-anchor="middle" x="84.5" y="-188.5" font-family="Helvetica,sans-Serif" font-size="10.00">_fft::init_fft</text>
</a>
</g>
</g>
<!-- Node1&#45;&gt;Node11 -->
<g id="edge10" class="edge">
<title>Node1&#45;&gt;Node11</title>
<path fill="none" stroke="midnightblue" d="M268.47,-325.59C250.43,-298.99 213.01,-249.2 169,-221.5 162.72,-217.55 155.79,-214.2 148.68,-211.36"/>
<polygon fill="midnightblue" stroke="midnightblue" points="265.58,-327.56 274.02,-333.96 271.41,-323.69 265.58,-327.56"/>
</g>
<!-- Node12 -->
<g id="node12" class="node">
<title>Node12</title>
<g id="a_node12"><a xlink:href="namespacesll__m__poisson__3d__fem__fft.html#aa2a85fbbb889d7b8a70ead2138f48816" target="_top" xlink:title=" ">
<polygon fill="white" stroke="black" points="20.5,-132.5 20.5,-162.5 148.5,-162.5 148.5,-132.5 20.5,-132.5"/>
<text text-anchor="start" x="28.5" y="-150.5" font-family="Helvetica,sans-Serif" font-size="10.00">sll_m_poisson_3d_fem</text>
<text text-anchor="middle" x="84.5" y="-139.5" font-family="Helvetica,sans-Serif" font-size="10.00">_fft::init_fft</text>
</a>
</g>
</g>
<!-- Node1&#45;&gt;Node12 -->
<g id="edge11" class="edge">
<title>Node1&#45;&gt;Node12</title>
<path fill="none" stroke="midnightblue" d="M272.68,-323.99C258.34,-288.44 223.16,-213.08 169,-172.5 162.94,-167.96 156.07,-164.25 148.93,-161.2"/>
<polygon fill="midnightblue" stroke="midnightblue" points="269.56,-325.62 276.46,-333.66 276.08,-323.07 269.56,-325.62"/>
</g>
<!-- Node13 -->
<g id="node13" class="node">
<title>Node13</title>
<g id="a_node13"><a xlink:href="namespacesll__m__time__propagator__pic__vm__1d2v__ecsim.html#a2a4eac1f325a94bf4dd5ab6f1ba34f80" target="_top" xlink:title="Constructor.">
<polygon fill="white" stroke="black" points="0,-72 0,-113 169,-113 169,-72 0,-72"/>
<text text-anchor="start" x="8" y="-101" font-family="Helvetica,sans-Serif" font-size="10.00">sll_m_time_propagator</text>
<text text-anchor="start" x="8" y="-90" font-family="Helvetica,sans-Serif" font-size="10.00">_pic_vm_1d2v_ecsim::initialize</text>
<text text-anchor="middle" x="84.5" y="-79" font-family="Helvetica,sans-Serif" font-size="10.00">_pic_vm_1d2v_ecsim</text>
</a>
</g>
</g>
<!-- Node1&#45;&gt;Node13 -->
<g id="edge12" class="edge">
<title>Node1&#45;&gt;Node13</title>
<path fill="none" stroke="midnightblue" d="M275.26,-323.61C264.11,-280.97 232.24,-180.04 169,-123.5 164.62,-119.58 159.7,-116.15 154.5,-113.13"/>
<polygon fill="midnightblue" stroke="midnightblue" points="271.93,-324.73 277.76,-333.58 278.72,-323.02 271.93,-324.73"/>
</g>
<!-- Node14 -->
<g id="node14" class="node">
<title>Node14</title>
<g id="a_node14"><a xlink:href="namespacesll__m__time__propagator__pic__vm__1d2v__ecsim2o.html#a519967e1975b6b31ce3b36b06b557df7" target="_top" xlink:title="Constructor.">
<polygon fill="white" stroke="black" points="17.5,-0.5 17.5,-52.5 151.5,-52.5 151.5,-0.5 17.5,-0.5"/>
<text text-anchor="start" x="25.5" y="-40.5" font-family="Helvetica,sans-Serif" font-size="10.00">sll_m_time_propagator</text>
<text text-anchor="start" x="25.5" y="-29.5" font-family="Helvetica,sans-Serif" font-size="10.00">_pic_vm_1d2v_ecsim2o</text>
<text text-anchor="start" x="25.5" y="-18.5" font-family="Helvetica,sans-Serif" font-size="10.00">::initialize_pic_vm_1d2v</text>
<text text-anchor="middle" x="84.5" y="-7.5" font-family="Helvetica,sans-Serif" font-size="10.00">_ecsim2o</text>
</a>
</g>
</g>
<!-- Node1&#45;&gt;Node14 -->
<g id="edge13" class="edge">
<title>Node1&#45;&gt;Node14</title>
<path fill="none" stroke="midnightblue" d="M277.45,-323.7C270.01,-273.49 243.86,-139.71 169,-62.5 163.94,-57.29 158.01,-52.78 151.68,-48.91"/>
<polygon fill="midnightblue" stroke="midnightblue" points="274.02,-324.42 278.87,-333.85 280.95,-323.46 274.02,-324.42"/>
</g>
</g>
</svg>
