<?xml version="1.0" encoding="UTF-8" standalone="no"?>
<!DOCTYPE svg PUBLIC "-//W3C//DTD SVG 1.1//EN"
 "http://www.w3.org/Graphics/SVG/1.1/DTD/svg11.dtd">
<!-- Generated by graphviz version 2.38.0 (20140413.2041)
 -->
<!-- Title: sll_s_nufft_interpolator_2d_init Pages: 1 -->
<svg width="412pt" height="39pt"
 viewBox="0.00 0.00 412.00 39.00" xmlns="http://www.w3.org/2000/svg" xmlns:xlink="http://www.w3.org/1999/xlink">
<g id="graph0" class="graph" transform="scale(1 1) rotate(0) translate(4 35)">
<title>sll_s_nufft_interpolator_2d_init</title>
<polygon fill="white" stroke="none" points="-4,4 -4,-35 408,-35 408,4 -4,4"/>
<!-- Node1 -->
<g id="node1" class="node"><title>Node1</title>
<polygon fill="#bfbfbf" stroke="black" points="0,-0.5 0,-30.5 115,-30.5 115,-0.5 0,-0.5"/>
<text text-anchor="start" x="8" y="-18.5" font-family="Helvetica,sans-Serif" font-size="10.00">sll_s_nufft_interpolator</text>
<text text-anchor="middle" x="57.5" y="-7.5" font-family="Helvetica,sans-Serif" font-size="10.00">_2d_init</text>
</g>
<!-- Node2 -->
<g id="node2" class="node"><title>Node2</title>
<g id="a_node2"><a xlink:href="namespacesll__m__nufft__interpolation.html#a9aea94bbee7bcc4ddbfc89f899a739a3" target="_top" xlink:title="Allocate and initialize data and prepare the fft plan. ">
<polygon fill="white" stroke="black" points="151,-0.5 151,-30.5 273,-30.5 273,-0.5 151,-0.5"/>
<text text-anchor="start" x="159" y="-18.5" font-family="Helvetica,sans-Serif" font-size="10.00">sll_m_nufft_interpolation</text>
<text text-anchor="middle" x="212" y="-7.5" font-family="Helvetica,sans-Serif" font-size="10.00">::sll_s_nufft_2d_init</text>
</a>
</g>
</g>
<!-- Node1&#45;&gt;Node2 -->
<g id="edge1" class="edge"><title>Node1&#45;&gt;Node2</title>
<path fill="none" stroke="midnightblue" d="M115.285,-15.5C123.533,-15.5 132.107,-15.5 140.584,-15.5"/>
<polygon fill="midnightblue" stroke="midnightblue" points="140.848,-19.0001 150.848,-15.5 140.848,-12.0001 140.848,-19.0001"/>
</g>
<!-- Node3 -->
<g id="node3" class="node"><title>Node3</title>
<g id="a_node3"><a xlink:href="namespacesll__m__fft.html#a0d2bc82fedd7e4f4d70a98f37b50ba1e" target="_top" xlink:title="Create new 2d complex to complex plan. ">
<polygon fill="white" stroke="black" points="309,-0.5 309,-30.5 404,-30.5 404,-0.5 309,-0.5"/>
<text text-anchor="start" x="317" y="-18.5" font-family="Helvetica,sans-Serif" font-size="10.00">sll_m_fft::sll_s_fft</text>
<text text-anchor="middle" x="356.5" y="-7.5" font-family="Helvetica,sans-Serif" font-size="10.00">_init_c2c_2d</text>
</a>
</g>
</g>
<!-- Node2&#45;&gt;Node3 -->
<g id="edge2" class="edge"><title>Node2&#45;&gt;Node3</title>
<path fill="none" stroke="midnightblue" d="M273.02,-15.5C281.564,-15.5 290.329,-15.5 298.807,-15.5"/>
<polygon fill="midnightblue" stroke="midnightblue" points="298.971,-19.0001 308.971,-15.5 298.971,-12.0001 298.971,-19.0001"/>
</g>
</g>
</svg>
