<?xml version="1.0" encoding="UTF-8" standalone="no"?>
<!DOCTYPE svg PUBLIC "-//W3C//DTD SVG 1.1//EN"
 "http://www.w3.org/Graphics/SVG/1.1/DTD/svg11.dtd">
<!-- Generated by graphviz version 2.43.0 (0)
 -->
<!-- Title: splnat1d Pages: 1 -->
<svg width="429pt" height="61pt"
 viewBox="0.00 0.00 429.00 61.00" xmlns="http://www.w3.org/2000/svg" xmlns:xlink="http://www.w3.org/1999/xlink">
<g id="graph0" class="graph" transform="scale(1 1) rotate(0) translate(4 57)">
<title>splnat1d</title>
<polygon fill="white" stroke="transparent" points="-4,4 -4,-57 425,-57 425,4 -4,4"/>
<!-- Node1 -->
<g id="node1" class="node">
<title>Node1</title>
<g id="a_node1"><a xlink:title=" ">
<polygon fill="#bfbfbf" stroke="black" points="362,-17 362,-36 421,-36 421,-17 362,-17"/>
<text text-anchor="middle" x="391.5" y="-24" font-family="Helvetica,sans-Serif" font-size="10.00">splnat1d</text>
</a>
</g>
</g>
<!-- Node2 -->
<g id="node2" class="node">
<title>Node2</title>
<g id="a_node2"><a xlink:href="namespacesll__m__gyroaverage__2d__polar.html#abfe531013e6b7c94702be5712e45bf20" target="_top" xlink:title=" ">
<polygon fill="white" stroke="black" points="168,-11.5 168,-41.5 326,-41.5 326,-11.5 168,-11.5"/>
<text text-anchor="start" x="176" y="-29.5" font-family="Helvetica,sans-Serif" font-size="10.00">sll_s_compute_gyroaverage</text>
<text text-anchor="middle" x="247" y="-18.5" font-family="Helvetica,sans-Serif" font-size="10.00">_points_polar_with_invar_spl</text>
</a>
</g>
</g>
<!-- Node1&#45;&gt;Node2 -->
<g id="edge1" class="edge">
<title>Node1&#45;&gt;Node2</title>
<path fill="none" stroke="midnightblue" d="M351.58,-26.5C343.58,-26.5 334.88,-26.5 326.04,-26.5"/>
<polygon fill="midnightblue" stroke="midnightblue" points="351.66,-30 361.66,-26.5 351.66,-23 351.66,-30"/>
</g>
<!-- Node3 -->
<g id="node3" class="node">
<title>Node3</title>
<g id="a_node3"><a xlink:href="namespacesll__m__gyroaverage__2d__polar__splines__solver.html#a2027a05dfe7a379899c5e06c046d0a95" target="_top" xlink:title=" ">
<polygon fill="white" stroke="black" points="0,-0.5 0,-52.5 132,-52.5 132,-0.5 0,-0.5"/>
<text text-anchor="start" x="8" y="-40.5" font-family="Helvetica,sans-Serif" font-size="10.00">sll_m_gyroaverage_2d</text>
<text text-anchor="start" x="8" y="-29.5" font-family="Helvetica,sans-Serif" font-size="10.00">_polar_splines_solver</text>
<text text-anchor="start" x="8" y="-18.5" font-family="Helvetica,sans-Serif" font-size="10.00">::compute_gyroaverage</text>
<text text-anchor="middle" x="66" y="-7.5" font-family="Helvetica,sans-Serif" font-size="10.00">_2d_polar_splines</text>
</a>
</g>
</g>
<!-- Node2&#45;&gt;Node3 -->
<g id="edge2" class="edge">
<title>Node2&#45;&gt;Node3</title>
<path fill="none" stroke="midnightblue" d="M157.7,-26.5C149.12,-26.5 140.53,-26.5 132.24,-26.5"/>
<polygon fill="midnightblue" stroke="midnightblue" points="157.75,-30 167.75,-26.5 157.75,-23 157.75,-30"/>
</g>
</g>
</svg>
