<?xml version="1.0" encoding="UTF-8" standalone="no"?>
<!DOCTYPE svg PUBLIC "-//W3C//DTD SVG 1.1//EN"
 "http://www.w3.org/Graphics/SVG/1.1/DTD/svg11.dtd">
<!-- Generated by graphviz version 2.40.1 (20161225.0304)
 -->
<!-- Title: sll_s_qsortc Pages: 1 -->
<!--zoomable 149 -->
<svg id="main" version="1.1" xmlns="http://www.w3.org/2000/svg" xmlns:xlink="http://www.w3.org/1999/xlink" xml:space="preserve" onload="init(evt)">
<style type="text/css"><![CDATA[
.edge:hover path { stroke: red; }
.edge:hover polygon { stroke: red; fill: red; }
]]></style>
<script type="text/javascript"><![CDATA[
var edges = document.getElementsByTagName('g');
if (edges && edges.length) {
  for (var i=0;i<edges.length;i++) {
    if (edges[i].id.substr(0,4)=='edge') {
      edges[i].setAttribute('class','edge');
    }
  }
}
]]></script>
        <defs>
                <circle id="rim" cx="0" cy="0" r="7"/>
                <circle id="rim2" cx="0" cy="0" r="3.5"/>
                <g id="zoomPlus">
                        <use xlink:href="#rim" fill="#404040">
                                <set attributeName="fill" to="#808080" begin="zoomplus.mouseover" end="zoomplus.mouseout"/>
                        </use>
                        <path d="M-4,0h8M0,-4v8" fill="none" stroke="white" stroke-width="1.5" pointer-events="none"/>
                </g>
                <g id="zoomMin">
                        <use xlink:href="#rim" fill="#404040">
                                <set attributeName="fill" to="#808080" begin="zoomminus.mouseover" end="zoomminus.mouseout"/>
                        </use>
                        <path d="M-4,0h8" fill="none" stroke="white" stroke-width="1.5" pointer-events="none"/>
                </g>
                <g id="dirArrow">
                        <path fill="none" stroke="white" stroke-width="1.5" d="M0,-3.0v7 M-2.5,-0.5L0,-3.0L2.5,-0.5"/>
                </g>
               <g id="resetDef">
                       <use xlink:href="#rim2" fill="#404040">
                               <set attributeName="fill" to="#808080" begin="reset.mouseover" end="reset.mouseout"/>
                       </use>
               </g>
        </defs>

<script type="text/javascript">
var viewWidth = 671;
var viewHeight = 149;
var sectionId = 'dynsection-2';
</script>
<script xlink:href="svgpan.js"/>
<svg id="graph" class="graph">
<g id="viewport">
<title>sll_s_qsortc</title>
<polygon fill="#ffffff" stroke="transparent" points="-4,4 -4,-144.5 667,-144.5 667,4 -4,4"/>
<!-- Node12 -->
<g id="node1" class="node">
<title>Node12</title>
<polygon fill="#bfbfbf" stroke="#000000" points="0,-64.5 0,-83.5 74,-83.5 74,-64.5 0,-64.5"/>
<text text-anchor="middle" x="37" y="-71.5" font-family="Helvetica,sans-Serif" font-size="10.00" fill="#000000">sll_s_qsortc</text>
</g>
<!-- Node13 -->
<g id="node2" class="node">
<title>Node13</title>
<g id="a_node2"><a xlink:href="namespacesll__m__sparse__matrix.html#a4d0df569f33bdd62f3a9a6ba079074ca" target="_top" xlink:title="initialization of CSR matrix type thanks to the global index of each local dof of each element ...">
<polygon fill="#ffffff" stroke="#000000" points="132.5,-108 132.5,-138 254.5,-138 254.5,-108 132.5,-108"/>
<text text-anchor="start" x="140.5" y="-126" font-family="Helvetica,sans-Serif" font-size="10.00" fill="#000000">sll_m_sparse_matrix</text>
<text text-anchor="middle" x="193.5" y="-115" font-family="Helvetica,sans-Serif" font-size="10.00" fill="#000000">::sll_s_csr_matrix_init</text>
</a>
</g>
</g>
<!-- Node12&#45;&gt;Node13 -->
<g id="edge1" class="edge">
<title>Node12&#45;&gt;Node13</title>
<path fill="none" stroke="#191970" d="M73.7142,-86.9744C85.2846,-90.9552 98.1402,-95.2674 110,-99 119.4959,-101.9886 129.6455,-105.0315 139.4805,-107.9019"/>
<polygon fill="#191970" stroke="#191970" points="74.5293,-83.5526 63.9345,-83.5842 72.2365,-90.1665 74.5293,-83.5526"/>
</g>
<!-- Node16 -->
<g id="node5" class="node">
<title>Node16</title>
<g id="a_node5"><a xlink:href="namespacesll__m__sparse__matrix__mp.html#abc1c3727deb98451291669211b354eb0" target="_top" xlink:title="sll_m_sparse_matrix\l_mp::sll_init_sparsematrix_mp">
<polygon fill="#ffffff" stroke="#000000" points="110,-9 110,-39 277,-39 277,-9 110,-9"/>
<text text-anchor="start" x="118" y="-27" font-family="Helvetica,sans-Serif" font-size="10.00" fill="#000000">sll_m_sparse_matrix</text>
<text text-anchor="middle" x="193.5" y="-16" font-family="Helvetica,sans-Serif" font-size="10.00" fill="#000000">_mp::sll_init_sparsematrix_mp</text>
</a>
</g>
</g>
<!-- Node12&#45;&gt;Node16 -->
<g id="edge4" class="edge">
<title>Node12&#45;&gt;Node16</title>
<path fill="none" stroke="#191970" d="M73.7395,-61.1053C85.3111,-57.1281 98.1609,-52.798 110,-49 120.3745,-45.6719 131.5183,-42.2383 142.1781,-39.0218"/>
<polygon fill="#191970" stroke="#191970" points="72.2647,-57.9118 63.9572,-64.4873 74.552,-64.5276 72.2647,-57.9118"/>
</g>
<!-- Node19 -->
<g id="node8" class="node">
<title>Node19</title>
<g id="a_node8"><a xlink:href="namespacesll__m__sparse__matrix.html#ac5355751dadd75cc69b33fed0798de2c" target="_top" xlink:title="sll_m_sparse_matrix\l::init_sparsematrix">
<polygon fill="#ffffff" stroke="#000000" points="134.5,-59 134.5,-89 252.5,-89 252.5,-59 134.5,-59"/>
<text text-anchor="start" x="142.5" y="-77" font-family="Helvetica,sans-Serif" font-size="10.00" fill="#000000">sll_m_sparse_matrix</text>
<text text-anchor="middle" x="193.5" y="-66" font-family="Helvetica,sans-Serif" font-size="10.00" fill="#000000">::init_sparsematrix</text>
</a>
</g>
</g>
<!-- Node12&#45;&gt;Node19 -->
<g id="edge7" class="edge">
<title>Node12&#45;&gt;Node19</title>
<path fill="none" stroke="#191970" d="M84.1435,-74C99.9392,-74 117.7548,-74 134.3497,-74"/>
<polygon fill="#191970" stroke="#191970" points="84.0884,-70.5001 74.0883,-74 84.0883,-77.5001 84.0884,-70.5001"/>
</g>
<!-- Node14 -->
<g id="node3" class="node">
<title>Node14</title>
<g id="a_node3"><a xlink:href="namespacesll__m__sparse__matrix.html#a482d60f2c137395c531bad0b281e24c7" target="_top" xlink:title="allocates the memory space for a new CSR matrix, ">
<polygon fill="#ffffff" stroke="#000000" points="313,-110 313,-140 460,-140 460,-110 313,-110"/>
<text text-anchor="start" x="321" y="-128" font-family="Helvetica,sans-Serif" font-size="10.00" fill="#000000">sll_m_sparse_matrix</text>
<text text-anchor="middle" x="386.5" y="-117" font-family="Helvetica,sans-Serif" font-size="10.00" fill="#000000">::new_csr_matrix_with_dof</text>
</a>
</g>
</g>
<!-- Node13&#45;&gt;Node14 -->
<g id="edge2" class="edge">
<title>Node13&#45;&gt;Node14</title>
<path fill="none" stroke="#191970" d="M264.745,-123.7383C280.4744,-123.9013 297.1668,-124.0743 312.9844,-124.2382"/>
<polygon fill="#191970" stroke="#191970" points="264.6022,-120.2367 254.5664,-123.6328 264.5296,-127.2363 264.6022,-120.2367"/>
</g>
<!-- Node15 -->
<g id="node4" class="node">
<title>Node15</title>
<g id="a_node4"><a xlink:href="namespacesll__m__sparse__matrix.html#aa80d24ea9a4248045fb6c11142206ca6" target="_top" xlink:title="allocates the memory space for a new CSR type on the heap, initializes it with the given arguments an...">
<polygon fill="#ffffff" stroke="#000000" points="324,-61 324,-91 449,-91 449,-61 324,-61"/>
<text text-anchor="start" x="332" y="-79" font-family="Helvetica,sans-Serif" font-size="10.00" fill="#000000">sll_m_sparse_matrix</text>
<text text-anchor="middle" x="386.5" y="-68" font-family="Helvetica,sans-Serif" font-size="10.00" fill="#000000">::sll_f_new_csr_matrix</text>
</a>
</g>
</g>
<!-- Node13&#45;&gt;Node15 -->
<g id="edge3" class="edge">
<title>Node13&#45;&gt;Node15</title>
<path fill="none" stroke="#191970" d="M264.4548,-105.7208C284.2608,-100.8976 305.6137,-95.6977 324.8365,-91.0165"/>
<polygon fill="#191970" stroke="#191970" points="263.4543,-102.3621 254.5664,-108.1289 265.1106,-109.1634 263.4543,-102.3621"/>
</g>
<!-- Node17 -->
<g id="node6" class="node">
<title>Node17</title>
<g id="a_node6"><a xlink:href="namespacesll__m__sparse__matrix__mp.html#ad32ebfd00f8ef3065b6859eca129d87a" target="_top" xlink:title="initialization of CSR matrix type ">
<polygon fill="#ffffff" stroke="#000000" points="325.5,-.5 325.5,-41.5 447.5,-41.5 447.5,-.5 325.5,-.5"/>
<text text-anchor="start" x="333.5" y="-29.5" font-family="Helvetica,sans-Serif" font-size="10.00" fill="#000000">sll_m_sparse_matrix</text>
<text text-anchor="start" x="333.5" y="-18.5" font-family="Helvetica,sans-Serif" font-size="10.00" fill="#000000">_mp::sll_s_csr_matrix</text>
<text text-anchor="middle" x="386.5" y="-7.5" font-family="Helvetica,sans-Serif" font-size="10.00" fill="#000000">_mp_init</text>
</a>
</g>
</g>
<!-- Node16&#45;&gt;Node17 -->
<g id="edge5" class="edge">
<title>Node16&#45;&gt;Node17</title>
<path fill="none" stroke="#191970" d="M287.3293,-22.5415C300.2104,-22.3413 313.155,-22.1401 325.2441,-21.9522"/>
<polygon fill="#191970" stroke="#191970" points="286.9745,-19.0465 277.0301,-22.7016 287.0833,-26.0457 286.9745,-19.0465"/>
</g>
<!-- Node18 -->
<g id="node7" class="node">
<title>Node18</title>
<g id="a_node7"><a xlink:href="namespacesll__m__sparse__matrix__mp.html#ab8ac37685dad402f808e43fd26578034" target="_top" xlink:title="allocates the memory space for a new CSR type on the heap, ">
<polygon fill="#ffffff" stroke="#000000" points="496,-6 496,-36 663,-36 663,-6 496,-6"/>
<text text-anchor="start" x="504" y="-24" font-family="Helvetica,sans-Serif" font-size="10.00" fill="#000000">sll_m_sparse_matrix</text>
<text text-anchor="middle" x="579.5" y="-13" font-family="Helvetica,sans-Serif" font-size="10.00" fill="#000000">_mp::sll_f_new_csr_matrix_mp</text>
</a>
</g>
</g>
<!-- Node17&#45;&gt;Node18 -->
<g id="edge6" class="edge">
<title>Node17&#45;&gt;Node18</title>
<path fill="none" stroke="#191970" d="M457.8199,-21C470.2168,-21 483.2098,-21 495.8998,-21"/>
<polygon fill="#191970" stroke="#191970" points="457.5664,-17.5001 447.5664,-21 457.5664,-24.5001 457.5664,-17.5001"/>
</g>
<!-- Node19&#45;&gt;Node15 -->
<g id="edge8" class="edge">
<title>Node19&#45;&gt;Node15</title>
<path fill="none" stroke="#191970" d="M262.926,-74.7194C282.7744,-74.9251 304.2855,-75.148 323.7118,-75.3493"/>
<polygon fill="#191970" stroke="#191970" points="262.7537,-71.2176 252.718,-74.6137 262.6811,-78.2172 262.7537,-71.2176"/>
</g>
</g>
</svg>
        <g id="navigator" transform="translate(0 0)" fill="#404254">
                <rect fill="#f2f5e9" fill-opacity="0.5" stroke="#606060" stroke-width=".5" x="0" y="0" width="60" height="60"/>
                <use id="zoomplus" xlink:href="#zoomPlus" x="17" y="9" onmousedown="handleZoom(evt,'in')"/>
                <use id="zoomminus" xlink:href="#zoomMin" x="42" y="9" onmousedown="handleZoom(evt,'out')"/>
                <use id="reset" xlink:href="#resetDef" x="30" y="36" onmousedown="handleReset()"/>
                <g id="arrowUp" xlink:href="#dirArrow" transform="translate(30 24)" onmousedown="handlePan(0,-1)">
                  <use xlink:href="#rim" fill="#404040">
                        <set attributeName="fill" to="#808080" begin="arrowUp.mouseover" end="arrowUp.mouseout"/>
                  </use>
                  <path fill="none" stroke="white" stroke-width="1.5" d="M0,-3.0v7 M-2.5,-0.5L0,-3.0L2.5,-0.5"/>
                </g>
                <g id="arrowRight" xlink:href="#dirArrow" transform="rotate(90) translate(36 -43)" onmousedown="handlePan(1,0)">
                  <use xlink:href="#rim" fill="#404040">
                        <set attributeName="fill" to="#808080" begin="arrowRight.mouseover" end="arrowRight.mouseout"/>
                  </use>
                  <path fill="none" stroke="white" stroke-width="1.5" d="M0,-3.0v7 M-2.5,-0.5L0,-3.0L2.5,-0.5"/>
                </g>
                <g id="arrowDown" xlink:href="#dirArrow" transform="rotate(180) translate(-30 -48)" onmousedown="handlePan(0,1)">
                  <use xlink:href="#rim" fill="#404040">
                        <set attributeName="fill" to="#808080" begin="arrowDown.mouseover" end="arrowDown.mouseout"/>
                  </use>
                  <path fill="none" stroke="white" stroke-width="1.5" d="M0,-3.0v7 M-2.5,-0.5L0,-3.0L2.5,-0.5"/>
                </g>
                <g id="arrowLeft" xlink:href="#dirArrow" transform="rotate(270) translate(-36 17)" onmousedown="handlePan(-1,0)">
                  <use xlink:href="#rim" fill="#404040">
                        <set attributeName="fill" to="#808080" begin="arrowLeft.mouseover" end="arrowLeft.mouseout"/>
                  </use>
                  <path fill="none" stroke="white" stroke-width="1.5" d="M0,-3.0v7 M-2.5,-0.5L0,-3.0L2.5,-0.5"/>
                </g>
        </g>
        <svg viewBox="0 0 15 15" width="100%" height="30px" preserveAspectRatio="xMaxYMin meet">
         <g id="arrow_out" transform="scale(0.3 0.3)">
          <a xlink:href="namespacesll__m__qsort__partition_a2ce333a69b25b96185626ef494f55971_icgraph_org.svg" target="_base">
           <rect id="button" ry="5" rx="5" y="6" x="6" height="38" width="38"
                fill="#f2f5e9" fill-opacity="0.5" stroke="#606060" stroke-width="1.0"/>
           <path id="arrow"
             d="M 11.500037,31.436501 C 11.940474,20.09759 22.043105,11.32322 32.158766,21.979434 L 37.068811,17.246167 C 37.068811,17.246167 37.088388,32 37.088388,32 L 22.160133,31.978069 C 22.160133,31.978069 26.997745,27.140456 26.997745,27.140456 C 18.528582,18.264221 13.291696,25.230495 11.500037,31.436501 z"
             style="fill:#404040;"/>
          </a>
         </g>
        </svg>
</svg>
