<?xml version="1.0" encoding="UTF-8" standalone="no"?>
<!DOCTYPE svg PUBLIC "-//W3C//DTD SVG 1.1//EN"
 "http://www.w3.org/Graphics/SVG/1.1/DTD/svg11.dtd">
<!-- Generated by graphviz version 2.43.0 (0)
 -->
<!-- Title: sll_s_csr_matrix_mp_init Pages: 1 -->
<svg width="631pt" height="83pt"
 viewBox="0.00 0.00 631.00 83.00" xmlns="http://www.w3.org/2000/svg" xmlns:xlink="http://www.w3.org/1999/xlink">
<g id="graph0" class="graph" transform="scale(1 1) rotate(0) translate(4 79)">
<title>sll_s_csr_matrix_mp_init</title>
<polygon fill="white" stroke="transparent" points="-4,4 -4,-79 627,-79 627,4 -4,4"/>
<!-- Node1 -->
<g id="node1" class="node">
<title>Node1</title>
<g id="a_node1"><a xlink:title="initialization of CSR matrix type">
<polygon fill="#bfbfbf" stroke="black" points="0,-28 0,-47 137,-47 137,-28 0,-28"/>
<text text-anchor="middle" x="68.5" y="-35" font-family="Helvetica,sans-Serif" font-size="10.00">sll_s_csr_matrix_mp_init</text>
</a>
</g>
</g>
<!-- Node2 -->
<g id="node2" class="node">
<title>Node2</title>
<g id="a_node2"><a xlink:href="namespacesll__m__sparse__matrix__mp.html#a1fb3bbe4559d8215826da696a5986d54" target="_top" xlink:title=" ">
<polygon fill="white" stroke="black" points="188,-44.5 188,-74.5 298,-74.5 298,-44.5 188,-44.5"/>
<text text-anchor="start" x="196" y="-62.5" font-family="Helvetica,sans-Serif" font-size="10.00">sll_count_non_zero</text>
<text text-anchor="middle" x="243" y="-51.5" font-family="Helvetica,sans-Serif" font-size="10.00">_elts_mp</text>
</a>
</g>
</g>
<!-- Node1&#45;&gt;Node2 -->
<g id="edge1" class="edge">
<title>Node1&#45;&gt;Node2</title>
<path fill="none" stroke="midnightblue" d="M137.18,-46.13C150.57,-47.84 164.58,-49.63 177.85,-51.32"/>
<polygon fill="midnightblue" stroke="midnightblue" points="177.47,-54.8 187.83,-52.59 178.35,-47.85 177.47,-54.8"/>
</g>
<!-- Node3 -->
<g id="node3" class="node">
<title>Node3</title>
<g id="a_node3"><a xlink:href="namespacesll__m__sparse__matrix__mp.html#abc1c3727deb98451291669211b354eb0" target="_top" xlink:title=" ">
<polygon fill="white" stroke="black" points="173,-6 173,-25 313,-25 313,-6 173,-6"/>
<text text-anchor="middle" x="243" y="-13" font-family="Helvetica,sans-Serif" font-size="10.00">sll_init_sparsematrix_mp</text>
</a>
</g>
</g>
<!-- Node1&#45;&gt;Node3 -->
<g id="edge2" class="edge">
<title>Node1&#45;&gt;Node3</title>
<path fill="none" stroke="midnightblue" d="M137.18,-28.87C145.59,-27.8 154.25,-26.69 162.82,-25.6"/>
<polygon fill="midnightblue" stroke="midnightblue" points="163.34,-29.06 172.81,-24.32 162.45,-22.12 163.34,-29.06"/>
</g>
<!-- Node4 -->
<g id="node4" class="node">
<title>Node4</title>
<g id="a_node4"><a xlink:href="namespacesll__m__qsort__partition.html#a2ce333a69b25b96185626ef494f55971" target="_top" xlink:title=" ">
<polygon fill="white" stroke="black" points="349,-0.5 349,-30.5 468,-30.5 468,-0.5 349,-0.5"/>
<text text-anchor="start" x="357" y="-18.5" font-family="Helvetica,sans-Serif" font-size="10.00">sll_m_qsort_partition</text>
<text text-anchor="middle" x="408.5" y="-7.5" font-family="Helvetica,sans-Serif" font-size="10.00">::sll_s_qsortc</text>
</a>
</g>
</g>
<!-- Node3&#45;&gt;Node4 -->
<g id="edge3" class="edge">
<title>Node3&#45;&gt;Node4</title>
<path fill="none" stroke="midnightblue" d="M313.34,-15.5C321.75,-15.5 330.35,-15.5 338.76,-15.5"/>
<polygon fill="midnightblue" stroke="midnightblue" points="338.89,-19 348.89,-15.5 338.89,-12 338.89,-19"/>
</g>
<!-- Node5 -->
<g id="node5" class="node">
<title>Node5</title>
<g id="a_node5"><a xlink:href="namespacesll__m__qsort__partition.html#aa1ad128585a5c9195e5903a7bc8f478e" target="_top" xlink:title=" ">
<polygon fill="white" stroke="black" points="504,-0.5 504,-30.5 623,-30.5 623,-0.5 504,-0.5"/>
<text text-anchor="start" x="512" y="-18.5" font-family="Helvetica,sans-Serif" font-size="10.00">sll_m_qsort_partition</text>
<text text-anchor="middle" x="563.5" y="-7.5" font-family="Helvetica,sans-Serif" font-size="10.00">::partition</text>
</a>
</g>
</g>
<!-- Node4&#45;&gt;Node5 -->
<g id="edge4" class="edge">
<title>Node4&#45;&gt;Node5</title>
<path fill="none" stroke="midnightblue" d="M468.22,-15.5C476.54,-15.5 485.17,-15.5 493.67,-15.5"/>
<polygon fill="midnightblue" stroke="midnightblue" points="493.94,-19 503.94,-15.5 493.94,-12 493.94,-19"/>
</g>
</g>
</svg>
