<?xml version="1.0" encoding="UTF-8" standalone="no"?>
<!DOCTYPE svg PUBLIC "-//W3C//DTD SVG 1.1//EN"
 "http://www.w3.org/Graphics/SVG/1.1/DTD/svg11.dtd">
<!-- Generated by graphviz version 2.38.0 (20140413.2041)
 -->
<!-- Title: get_neighbours Pages: 1 -->
<svg width="516pt" height="147pt"
 viewBox="0.00 0.00 516.00 146.91" xmlns="http://www.w3.org/2000/svg" xmlns:xlink="http://www.w3.org/1999/xlink">
<g id="graph0" class="graph" transform="scale(1 1) rotate(0) translate(4 142.907)">
<title>get_neighbours</title>
<polygon fill="white" stroke="none" points="-4,4 -4,-142.907 512,-142.907 512,4 -4,4"/>
<!-- Node1 -->
<g id="node1" class="node"><title>Node1</title>
<polygon fill="#bfbfbf" stroke="black" points="0,-72 0,-91 83,-91 83,-72 0,-72"/>
<text text-anchor="middle" x="41.5" y="-79" font-family="Helvetica,sans-Serif" font-size="10.00">get_neighbours</text>
</g>
<!-- Node2 -->
<g id="node2" class="node"><title>Node2</title>
<g id="a_node2"><a xlink:href="namespacesll__m__hexagonal__meshes.html#aa579f5999884452ce000e206a88dc6b7" target="_top" xlink:title="Returns indices of the edges of a given cell. ">
<polygon fill="white" stroke="black" points="119,-88.5 119,-118.5 235,-118.5 235,-88.5 119,-88.5"/>
<text text-anchor="start" x="127" y="-106.5" font-family="Helvetica,sans-Serif" font-size="10.00">sll_s_get_cell_vertices</text>
<text text-anchor="middle" x="177" y="-95.5" font-family="Helvetica,sans-Serif" font-size="10.00">_index</text>
</a>
</g>
</g>
<!-- Node1&#45;&gt;Node2 -->
<g id="edge1" class="edge"><title>Node1&#45;&gt;Node2</title>
<path fill="none" stroke="midnightblue" d="M83.2798,-88.2203C91.3264,-89.5463 99.9694,-90.9706 108.626,-92.3972"/>
<polygon fill="midnightblue" stroke="midnightblue" points="108.325,-95.8946 118.761,-94.0673 109.463,-88.9878 108.325,-95.8946"/>
</g>
<!-- Node3 -->
<g id="node3" class="node"><title>Node3</title>
<g id="a_node3"><a xlink:href="namespacesll__m__hexagonal__meshes.html#a066138062e95dab8690eb6e889dfe769" target="_top" xlink:title="Transform cartesian coordinates to 1st hexagonal coordinates. ">
<polygon fill="white" stroke="black" points="271,-116 271,-135 367,-135 367,-116 271,-116"/>
<text text-anchor="middle" x="319" y="-123" font-family="Helvetica,sans-Serif" font-size="10.00">sll_f_cart_to_hex1</text>
</a>
</g>
</g>
<!-- Node1&#45;&gt;Node3 -->
<g id="edge7" class="edge"><title>Node1&#45;&gt;Node3</title>
<path fill="none" stroke="midnightblue" d="M53.4709,-91.0047C67.5355,-102.498 93.2001,-121.208 119,-128.5 165.438,-141.626 220.437,-139.537 260.833,-134.927"/>
<polygon fill="midnightblue" stroke="midnightblue" points="261.275,-138.4 270.775,-133.709 260.423,-131.452 261.275,-138.4"/>
</g>
<!-- Node4 -->
<g id="node4" class="node"><title>Node4</title>
<g id="a_node4"><a xlink:href="namespacesll__m__hexagonal__meshes.html#aa108ce30c3a8af1414fbfeba3420d493" target="_top" xlink:title="Transform cartesian coordinates to 2ndst hexagonal coordinates. ">
<polygon fill="white" stroke="black" points="271,-64 271,-83 367,-83 367,-64 271,-64"/>
<text text-anchor="middle" x="319" y="-71" font-family="Helvetica,sans-Serif" font-size="10.00">sll_f_cart_to_hex2</text>
</a>
</g>
</g>
<!-- Node1&#45;&gt;Node4 -->
<g id="edge8" class="edge"><title>Node1&#45;&gt;Node4</title>
<path fill="none" stroke="midnightblue" d="M83.151,-80.3196C130.019,-78.9586 207.399,-76.7116 260.441,-75.1714"/>
<polygon fill="midnightblue" stroke="midnightblue" points="260.814,-78.6621 270.708,-74.8733 260.611,-71.6651 260.814,-78.6621"/>
</g>
<!-- Node8 -->
<g id="node8" class="node"><title>Node8</title>
<g id="a_node8"><a xlink:href="namespacesll__m__hexagonal__meshes.html#a0770cf59d8b43bdb276ef0be796ad405" target="_top" xlink:title="Given a mesh point and the first cartesian coordinate of a point (that is not on the mesh) we return ...">
<polygon fill="white" stroke="black" points="131,-0.5 131,-30.5 223,-30.5 223,-0.5 131,-0.5"/>
<text text-anchor="start" x="139" y="-18.5" font-family="Helvetica,sans-Serif" font-size="10.00">sll_s_get_triangle</text>
<text text-anchor="middle" x="177" y="-7.5" font-family="Helvetica,sans-Serif" font-size="10.00">_index</text>
</a>
</g>
</g>
<!-- Node1&#45;&gt;Node8 -->
<g id="edge9" class="edge"><title>Node1&#45;&gt;Node8</title>
<path fill="none" stroke="midnightblue" d="M61.912,-71.903C81.3417,-62.2974 111.796,-47.2413 136.354,-35.1002"/>
<polygon fill="midnightblue" stroke="midnightblue" points="138.029,-38.1765 145.442,-30.6071 134.927,-31.9015 138.029,-38.1765"/>
</g>
<!-- Node2&#45;&gt;Node3 -->
<g id="edge2" class="edge"><title>Node2&#45;&gt;Node3</title>
<path fill="none" stroke="midnightblue" d="M235.347,-112.512C243.722,-113.828 252.347,-115.183 260.721,-116.499"/>
<polygon fill="midnightblue" stroke="midnightblue" points="260.354,-119.984 270.776,-118.079 261.441,-113.069 260.354,-119.984"/>
</g>
<!-- Node2&#45;&gt;Node4 -->
<g id="edge3" class="edge"><title>Node2&#45;&gt;Node4</title>
<path fill="none" stroke="midnightblue" d="M235.347,-91.2113C244.664,-89.2149 254.29,-87.1522 263.535,-85.1712"/>
<polygon fill="midnightblue" stroke="midnightblue" points="264.34,-88.5782 273.384,-83.0605 262.873,-81.7335 264.34,-88.5782"/>
</g>
<!-- Node5 -->
<g id="node5" class="node"><title>Node5</title>
<g id="a_node5"><a xlink:href="namespacesll__m__hexagonal__meshes.html#af2ad9a5ed18f26e97513930ee9793370" target="_top" xlink:title="Transform hexagonal coordinates to global index. ">
<polygon fill="white" stroke="black" points="280.5,-23 280.5,-42 357.5,-42 357.5,-23 280.5,-23"/>
<text text-anchor="middle" x="319" y="-30" font-family="Helvetica,sans-Serif" font-size="10.00">hex_to_global</text>
</a>
</g>
</g>
<!-- Node2&#45;&gt;Node5 -->
<g id="edge4" class="edge"><title>Node2&#45;&gt;Node5</title>
<path fill="none" stroke="midnightblue" d="M205.904,-88.3584C224.283,-78.4943 248.939,-65.4676 271,-54.5 276.375,-51.8279 282.136,-49.0566 287.717,-46.4186"/>
<polygon fill="midnightblue" stroke="midnightblue" points="289.27,-49.5565 296.842,-42.1461 286.301,-43.217 289.27,-49.5565"/>
</g>
<!-- Node6 -->
<g id="node6" class="node"><title>Node6</title>
<g id="a_node6"><a xlink:href="namespacesll__m__hexagonal__meshes.html#a8bed234b81efa9e2e353c3f594c104e3" target="_top" xlink:title="Computes the number of cell from point to origin. ">
<polygon fill="white" stroke="black" points="404.5,-42 404.5,-61 506.5,-61 506.5,-42 404.5,-42"/>
<text text-anchor="middle" x="455.5" y="-49" font-family="Helvetica,sans-Serif" font-size="10.00">sll_f_cells_to_origin</text>
</a>
</g>
</g>
<!-- Node5&#45;&gt;Node6 -->
<g id="edge5" class="edge"><title>Node5&#45;&gt;Node6</title>
<path fill="none" stroke="midnightblue" d="M357.824,-37.8431C369.114,-39.4381 381.783,-41.2278 394.139,-42.9732"/>
<polygon fill="midnightblue" stroke="midnightblue" points="394.015,-46.4904 404.407,-44.4236 394.995,-39.5592 394.015,-46.4904"/>
</g>
<!-- Node7 -->
<g id="node7" class="node"><title>Node7</title>
<g id="a_node7"><a xlink:href="namespacesll__m__hexagonal__meshes.html#a47f7a419f8f8904d408ad3a630612ee4" target="_top" xlink:title="Finds the index in the global array of the point which coordinates where passed as parameter...">
<polygon fill="white" stroke="black" points="403,-4 403,-23 508,-23 508,-4 403,-4"/>
<text text-anchor="middle" x="455.5" y="-11" font-family="Helvetica,sans-Serif" font-size="10.00">index_hex_to_global</text>
</a>
</g>
</g>
<!-- Node5&#45;&gt;Node7 -->
<g id="edge6" class="edge"><title>Node5&#45;&gt;Node7</title>
<path fill="none" stroke="midnightblue" d="M357.824,-27.1569C368.75,-25.6134 380.967,-23.8875 392.942,-22.1959"/>
<polygon fill="midnightblue" stroke="midnightblue" points="393.498,-25.6522 402.91,-20.7877 392.519,-18.721 393.498,-25.6522"/>
</g>
<!-- Node8&#45;&gt;Node5 -->
<g id="edge10" class="edge"><title>Node8&#45;&gt;Node5</title>
<path fill="none" stroke="midnightblue" d="M223.068,-20.9725C238.005,-22.7864 254.685,-24.8118 269.846,-26.6527"/>
<polygon fill="midnightblue" stroke="midnightblue" points="269.71,-30.1619 280.059,-27.8929 270.554,-23.2129 269.71,-30.1619"/>
</g>
</g>
</svg>
