<?xml version="1.0" encoding="UTF-8" standalone="no"?>
<!DOCTYPE svg PUBLIC "-//W3C//DTD SVG 1.1//EN"
 "http://www.w3.org/Graphics/SVG/1.1/DTD/svg11.dtd">
<!-- Generated by graphviz version 2.38.0 (20140413.2041)
 -->
<!-- Title: sll_s_distribution_xdmf Pages: 1 -->
<svg width="448pt" height="245pt"
 viewBox="0.00 0.00 448.00 245.00" xmlns="http://www.w3.org/2000/svg" xmlns:xlink="http://www.w3.org/1999/xlink">
<g id="graph0" class="graph" transform="scale(1 1) rotate(0) translate(4 241)">
<title>sll_s_distribution_xdmf</title>
<polygon fill="white" stroke="none" points="-4,4 -4,-241 444,-241 444,4 -4,4"/>
<!-- Node1 -->
<g id="node1" class="node"><title>Node1</title>
<polygon fill="#bfbfbf" stroke="black" points="0,-166 0,-185 116,-185 116,-166 0,-166"/>
<text text-anchor="middle" x="58" y="-173" font-family="Helvetica,sans-Serif" font-size="10.00">sll_s_distribution_xdmf</text>
</g>
<!-- Node2 -->
<g id="node2" class="node"><title>Node2</title>
<g id="a_node2"><a xlink:href="namespacesll__m__utilities.html#a4d45f033e67c39369da8b297302793cb" target="_top" xlink:title="Convert an integer &lt; 9999 to a 4 characters string. ">
<polygon fill="white" stroke="black" points="328,-206.5 328,-236.5 420,-236.5 420,-206.5 328,-206.5"/>
<text text-anchor="start" x="336" y="-224.5" font-family="Helvetica,sans-Serif" font-size="10.00">sll_m_utilities::sll</text>
<text text-anchor="middle" x="374" y="-213.5" font-family="Helvetica,sans-Serif" font-size="10.00">_s_int2string</text>
</a>
</g>
</g>
<!-- Node1&#45;&gt;Node2 -->
<g id="edge1" class="edge"><title>Node1&#45;&gt;Node2</title>
<path fill="none" stroke="midnightblue" d="M101.928,-185.017C117.632,-188.301 135.573,-191.823 152,-194.5 208.275,-203.671 273.074,-211.238 317.889,-216.004"/>
<polygon fill="midnightblue" stroke="midnightblue" points="317.673,-219.5 327.984,-217.066 318.405,-212.539 317.673,-219.5"/>
</g>
<!-- Node3 -->
<g id="node3" class="node"><title>Node3</title>
<g id="a_node3"><a xlink:href="namespacesll__m__pic__visu.html#acbe07368aabb6b2ad81e93f1cd25c11d" target="_top" xlink:title="Compute grid field from particles distribution with the CIC scheme (Cloud In. ">
<polygon fill="white" stroke="black" points="156.5,-166 156.5,-185 267.5,-185 267.5,-166 156.5,-166"/>
<text text-anchor="middle" x="212" y="-173" font-family="Helvetica,sans-Serif" font-size="10.00">sll_s_compute_df_cic</text>
</a>
</g>
</g>
<!-- Node1&#45;&gt;Node3 -->
<g id="edge2" class="edge"><title>Node1&#45;&gt;Node3</title>
<path fill="none" stroke="midnightblue" d="M116.032,-175.5C125.848,-175.5 136.114,-175.5 146.119,-175.5"/>
<polygon fill="midnightblue" stroke="midnightblue" points="146.419,-179 156.419,-175.5 146.419,-172 146.419,-179"/>
</g>
<!-- Node4 -->
<g id="node4" class="node"><title>Node4</title>
<g id="a_node4"><a xlink:href="namespacesll__m__xdmf.html#a880cc0b67647740ea3504f3ed80585b0" target="_top" xlink:title="Subroutine to write a 2D array in xdmf format The field is describe on a cartesian mesh Axis are perp...">
<polygon fill="white" stroke="black" points="152,-106.5 152,-136.5 272,-136.5 272,-106.5 152,-106.5"/>
<text text-anchor="start" x="160" y="-124.5" font-family="Helvetica,sans-Serif" font-size="10.00">sll_m_xdmf::sll_s_xdmf</text>
<text text-anchor="middle" x="212" y="-113.5" font-family="Helvetica,sans-Serif" font-size="10.00">_corect2d_nodes</text>
</a>
</g>
</g>
<!-- Node1&#45;&gt;Node4 -->
<g id="edge3" class="edge"><title>Node1&#45;&gt;Node4</title>
<path fill="none" stroke="midnightblue" d="M85.8247,-165.97C106.064,-158.78 134.458,-148.693 159.087,-139.943"/>
<polygon fill="midnightblue" stroke="midnightblue" points="160.417,-143.185 168.668,-136.539 158.073,-136.589 160.417,-143.185"/>
</g>
<!-- Node4&#45;&gt;Node2 -->
<g id="edge4" class="edge"><title>Node4&#45;&gt;Node2</title>
<path fill="none" stroke="midnightblue" d="M242.419,-136.521C252.268,-142.169 263.019,-149.045 272,-156.5 290.659,-171.989 288.013,-183.768 308,-197.5 311.308,-199.772 314.857,-201.86 318.529,-203.773"/>
<polygon fill="midnightblue" stroke="midnightblue" points="317.304,-207.065 327.84,-208.171 320.293,-200.735 317.304,-207.065"/>
</g>
<!-- Node5 -->
<g id="node5" class="node"><title>Node5</title>
<g id="a_node5"><a xlink:href="namespacesll__m__xml__io.html#aa79c90960210f0f247699f5c6559531a" target="_top" xlink:title="Create the XML file and begin to write first lines. You get the file unit number. ...">
<polygon fill="white" stroke="black" points="324,-157.5 324,-187.5 424,-187.5 424,-157.5 324,-157.5"/>
<text text-anchor="start" x="332" y="-175.5" font-family="Helvetica,sans-Serif" font-size="10.00">sll_m_xml_io::sll_s</text>
<text text-anchor="middle" x="374" y="-164.5" font-family="Helvetica,sans-Serif" font-size="10.00">_xml_file_create</text>
</a>
</g>
</g>
<!-- Node4&#45;&gt;Node5 -->
<g id="edge5" class="edge"><title>Node4&#45;&gt;Node5</title>
<path fill="none" stroke="midnightblue" d="M260.14,-136.526C277.721,-142.13 297.864,-148.55 316.221,-154.402"/>
<polygon fill="midnightblue" stroke="midnightblue" points="315.33,-157.791 325.921,-157.494 317.456,-151.122 315.33,-157.791"/>
</g>
<!-- Node6 -->
<g id="node6" class="node"><title>Node6</title>
<g id="a_node6"><a xlink:href="namespacesll__m__hdf5__io__serial.html#a4ee38dc50c13e54d6b1e905ca852e49b" target="_top" xlink:title="Create new HDF5 file. ">
<polygon fill="white" stroke="black" points="321.5,-98 321.5,-139 426.5,-139 426.5,-98 321.5,-98"/>
<text text-anchor="start" x="329.5" y="-127" font-family="Helvetica,sans-Serif" font-size="10.00">sll_m_hdf5_io_serial</text>
<text text-anchor="start" x="329.5" y="-116" font-family="Helvetica,sans-Serif" font-size="10.00">::sll_s_hdf5_ser_file</text>
<text text-anchor="middle" x="374" y="-105" font-family="Helvetica,sans-Serif" font-size="10.00">_create</text>
</a>
</g>
</g>
<!-- Node4&#45;&gt;Node6 -->
<g id="edge6" class="edge"><title>Node4&#45;&gt;Node6</title>
<path fill="none" stroke="midnightblue" d="M272.124,-120.391C284.908,-120.152 298.456,-119.898 311.335,-119.656"/>
<polygon fill="midnightblue" stroke="midnightblue" points="311.56,-123.153 321.493,-119.466 311.429,-116.154 311.56,-123.153"/>
</g>
<!-- Node7 -->
<g id="node7" class="node"><title>Node7</title>
<g id="a_node7"><a xlink:href="namespacesll__m__hdf5__io__serial.html#aad08ae9d9ee0157ed6f78f50717367f1" target="_top" xlink:title="Close existing HDF5 file. ">
<polygon fill="white" stroke="black" points="308,-49.5 308,-79.5 440,-79.5 440,-49.5 308,-49.5"/>
<text text-anchor="start" x="316" y="-67.5" font-family="Helvetica,sans-Serif" font-size="10.00">sll_m_hdf5_io_serial</text>
<text text-anchor="middle" x="374" y="-56.5" font-family="Helvetica,sans-Serif" font-size="10.00">::sll_s_hdf5_ser_file_close</text>
</a>
</g>
</g>
<!-- Node4&#45;&gt;Node7 -->
<g id="edge7" class="edge"><title>Node4&#45;&gt;Node7</title>
<path fill="none" stroke="midnightblue" d="M255.457,-106.375C275.608,-99.1958 299.87,-90.5527 321.104,-82.9878"/>
<polygon fill="midnightblue" stroke="midnightblue" points="322.377,-86.25 330.622,-79.597 320.028,-79.6559 322.377,-86.25"/>
</g>
<!-- Node8 -->
<g id="node8" class="node"><title>Node8</title>
<g id="a_node8"><a xlink:href="namespacesll__m__xml__io.html#a214cc5ba4867ca81aa2551a414b4d2c2" target="_top" xlink:title="Close the XML file and finish to write last lines. You give the file unit number. ...">
<polygon fill="white" stroke="black" points="324,-0.5 324,-30.5 424,-30.5 424,-0.5 324,-0.5"/>
<text text-anchor="start" x="332" y="-18.5" font-family="Helvetica,sans-Serif" font-size="10.00">sll_m_xml_io::sll_s</text>
<text text-anchor="middle" x="374" y="-7.5" font-family="Helvetica,sans-Serif" font-size="10.00">_xml_file_close</text>
</a>
</g>
</g>
<!-- Node4&#45;&gt;Node8 -->
<g id="edge8" class="edge"><title>Node4&#45;&gt;Node8</title>
<path fill="none" stroke="midnightblue" d="M227.159,-106.326C244.672,-88.3027 276.097,-58.3166 308,-39.5 310.798,-37.85 313.728,-36.281 316.732,-34.7944"/>
<polygon fill="midnightblue" stroke="midnightblue" points="318.279,-37.9355 325.907,-30.5828 315.359,-31.5738 318.279,-37.9355"/>
</g>
</g>
</svg>
