<?xml version="1.0" encoding="UTF-8" standalone="no"?>
<!DOCTYPE svg PUBLIC "-//W3C//DTD SVG 1.1//EN"
 "http://www.w3.org/Graphics/SVG/1.1/DTD/svg11.dtd">
<!-- Generated by graphviz version 2.38.0 (20140413.2041)
 -->
<!-- Title: delta Pages: 1 -->
<svg width="435pt" height="127pt"
 viewBox="0.00 0.00 435.00 126.50" xmlns="http://www.w3.org/2000/svg" xmlns:xlink="http://www.w3.org/1999/xlink">
<g id="graph0" class="graph" transform="scale(1 1) rotate(0) translate(4 122.5)">
<title>delta</title>
<polygon fill="white" stroke="none" points="-4,4 -4,-122.5 431,-122.5 431,4 -4,4"/>
<!-- Node1 -->
<g id="node1" class="node"><title>Node1</title>
<polygon fill="#bfbfbf" stroke="black" points="0,-49.5 0,-68.5 38,-68.5 38,-49.5 0,-49.5"/>
<text text-anchor="middle" x="19" y="-56.5" font-family="Helvetica,sans-Serif" font-size="10.00">delta</text>
</g>
<!-- Node2 -->
<g id="node2" class="node"><title>Node2</title>
<g id="a_node2"><a xlink:href="namespacesll__m__lobalap.html#ae1abc937c80845119fe8339415a7263f" target="_top" xlink:title="gradpg">
<polygon fill="white" stroke="black" points="74,-49.5 74,-68.5 120,-68.5 120,-49.5 74,-49.5"/>
<text text-anchor="middle" x="97" y="-56.5" font-family="Helvetica,sans-Serif" font-size="10.00">gradpg</text>
</a>
</g>
</g>
<!-- Node1&#45;&gt;Node2 -->
<g id="edge1" class="edge"><title>Node1&#45;&gt;Node2</title>
<path fill="none" stroke="midnightblue" d="M48.1954,-59C56.6369,-59 65.7713,-59 73.7718,-59"/>
<polygon fill="midnightblue" stroke="midnightblue" points="48.011,-55.5001 38.0109,-59 48.0109,-62.5001 48.011,-55.5001"/>
</g>
<!-- Node3 -->
<g id="node3" class="node"><title>Node3</title>
<g id="a_node3"><a xlink:href="namespacesll__m__lobalap.html#a1d90bda565f3c0f8f94cc5e45a9e0731" target="_top" xlink:title="sll_s_compute_electric\l_field">
<polygon fill="white" stroke="black" points="156,-88 156,-118 272,-118 272,-88 156,-88"/>
<text text-anchor="start" x="164" y="-106" font-family="Helvetica,sans-Serif" font-size="10.00">sll_s_compute_electric</text>
<text text-anchor="middle" x="214" y="-95" font-family="Helvetica,sans-Serif" font-size="10.00">_field</text>
</a>
</g>
</g>
<!-- Node2&#45;&gt;Node3 -->
<g id="edge2" class="edge"><title>Node2&#45;&gt;Node3</title>
<path fill="none" stroke="midnightblue" d="M129.597,-71.0894C143.216,-76.2999 159.285,-82.4481 173.665,-87.95"/>
<polygon fill="midnightblue" stroke="midnightblue" points="130.764,-67.7883 120.173,-67.4836 128.262,-74.3261 130.764,-67.7883"/>
</g>
<!-- Node5 -->
<g id="node5" class="node"><title>Node5</title>
<g id="a_node5"><a xlink:href="namespacesll__m__lobalap.html#a060d9a8b397148f2e9c371d0ae280ede" target="_top" xlink:title="sll_s_assemb">
<polygon fill="white" stroke="black" points="175.5,-11.5 175.5,-30.5 252.5,-30.5 252.5,-11.5 175.5,-11.5"/>
<text text-anchor="middle" x="214" y="-18.5" font-family="Helvetica,sans-Serif" font-size="10.00">sll_s_assemb</text>
</a>
</g>
</g>
<!-- Node2&#45;&gt;Node5 -->
<g id="edge4" class="edge"><title>Node2&#45;&gt;Node5</title>
<path fill="none" stroke="midnightblue" d="M130.139,-48.3802C147.012,-42.8048 167.528,-36.0254 183.925,-30.6074"/>
<polygon fill="midnightblue" stroke="midnightblue" points="128.57,-45.2124 120.173,-51.6732 130.766,-51.8589 128.57,-45.2124"/>
</g>
<!-- Node7 -->
<g id="node7" class="node"><title>Node7</title>
<g id="a_node7"><a xlink:href="namespacesll__m__lobalap.html#a06608d70ef9ef85c8348201a631e771e" target="_top" xlink:title="sll_s_assemb_rhs">
<polygon fill="white" stroke="black" points="166.5,-49.5 166.5,-68.5 261.5,-68.5 261.5,-49.5 166.5,-49.5"/>
<text text-anchor="middle" x="214" y="-56.5" font-family="Helvetica,sans-Serif" font-size="10.00">sll_s_assemb_rhs</text>
</a>
</g>
</g>
<!-- Node2&#45;&gt;Node7 -->
<g id="edge6" class="edge"><title>Node2&#45;&gt;Node7</title>
<path fill="none" stroke="midnightblue" d="M130.283,-59C141.405,-59 154.096,-59 166.142,-59"/>
<polygon fill="midnightblue" stroke="midnightblue" points="130.173,-55.5001 120.173,-59 130.173,-62.5001 130.173,-55.5001"/>
</g>
<!-- Node4 -->
<g id="node4" class="node"><title>Node4</title>
<g id="a_node4"><a xlink:href="namespacesll__m__lobatto__poisson.html#a9c5866187baac222bbdcdb355c578fcb" target="_top" xlink:title="sll_m_lobatto_poisson\l::solve_lobatto_poisson">
<polygon fill="white" stroke="black" points="308,-74 308,-104 427,-104 427,-74 308,-74"/>
<text text-anchor="start" x="316" y="-92" font-family="Helvetica,sans-Serif" font-size="10.00">sll_m_lobatto_poisson</text>
<text text-anchor="middle" x="367.5" y="-81" font-family="Helvetica,sans-Serif" font-size="10.00">::solve_lobatto_poisson</text>
</a>
</g>
</g>
<!-- Node3&#45;&gt;Node4 -->
<g id="edge3" class="edge"><title>Node3&#45;&gt;Node4</title>
<path fill="none" stroke="midnightblue" d="M282.503,-96.7621C290.967,-95.9799 299.571,-95.1849 307.884,-94.4167"/>
<polygon fill="midnightblue" stroke="midnightblue" points="281.911,-93.3018 272.276,-97.7072 282.555,-100.272 281.911,-93.3018"/>
</g>
<!-- Node6 -->
<g id="node6" class="node"><title>Node6</title>
<g id="a_node6"><a xlink:href="namespacesll__m__lobatto__poisson.html#ade8d9828f8cfb56297d7d3ca1c09809e" target="_top" xlink:title="sll_m_lobatto_poisson\l::initialize_lobatto\l_poisson">
<polygon fill="white" stroke="black" points="311,-0.5 311,-41.5 424,-41.5 424,-0.5 311,-0.5"/>
<text text-anchor="start" x="319" y="-29.5" font-family="Helvetica,sans-Serif" font-size="10.00">sll_m_lobatto_poisson</text>
<text text-anchor="start" x="319" y="-18.5" font-family="Helvetica,sans-Serif" font-size="10.00">::initialize_lobatto</text>
<text text-anchor="middle" x="367.5" y="-7.5" font-family="Helvetica,sans-Serif" font-size="10.00">_poisson</text>
</a>
</g>
</g>
<!-- Node5&#45;&gt;Node6 -->
<g id="edge5" class="edge"><title>Node5&#45;&gt;Node6</title>
<path fill="none" stroke="midnightblue" d="M263.047,-21C278.243,-21 295.164,-21 310.847,-21"/>
<polygon fill="midnightblue" stroke="midnightblue" points="262.839,-17.5001 252.839,-21 262.839,-24.5001 262.839,-17.5001"/>
</g>
<!-- Node7&#45;&gt;Node4 -->
<g id="edge7" class="edge"><title>Node7&#45;&gt;Node4</title>
<path fill="none" stroke="midnightblue" d="M271.849,-70.2573C283.635,-72.5911 296.073,-75.054 307.919,-77.3999"/>
<polygon fill="midnightblue" stroke="midnightblue" points="272.181,-66.755 261.691,-68.2458 270.821,-73.6217 272.181,-66.755"/>
</g>
</g>
</svg>
