<?xml version="1.0" encoding="UTF-8" standalone="no"?>
<!DOCTYPE svg PUBLIC "-//W3C//DTD SVG 1.1//EN"
 "http://www.w3.org/Graphics/SVG/1.1/DTD/svg11.dtd">
<!-- Generated by graphviz version 2.38.0 (20140413.2041)
 -->
<!-- Title: compute_w_hermite Pages: 1 -->
<svg width="623pt" height="196pt"
 viewBox="0.00 0.00 623.00 196.00" xmlns="http://www.w3.org/2000/svg" xmlns:xlink="http://www.w3.org/1999/xlink">
<g id="graph0" class="graph" transform="scale(1 1) rotate(0) translate(4 192)">
<title>compute_w_hermite</title>
<polygon fill="white" stroke="none" points="-4,4 -4,-192 619,-192 619,4 -4,4"/>
<!-- Node1 -->
<g id="node1" class="node"><title>Node1</title>
<polygon fill="#bfbfbf" stroke="black" points="0,-111 0,-130 104,-130 104,-111 0,-111"/>
<text text-anchor="middle" x="52" y="-118" font-family="Helvetica,sans-Serif" font-size="10.00">compute_w_hermite</text>
</g>
<!-- Node2 -->
<g id="node2" class="node"><title>Node2</title>
<g id="a_node2"><a xlink:href="namespacesll__m__gyroaverage__2d__polar.html#ab5853a5652521bebf3ea7eea21e2a24f" target="_top" xlink:title="hermite_coef_nat_per">
<polygon fill="white" stroke="black" points="148,-146 148,-165 258,-165 258,-146 148,-146"/>
<text text-anchor="middle" x="203" y="-153" font-family="Helvetica,sans-Serif" font-size="10.00">hermite_coef_nat_per</text>
</a>
</g>
</g>
<!-- Node1&#45;&gt;Node2 -->
<g id="edge1" class="edge"><title>Node1&#45;&gt;Node2</title>
<path fill="none" stroke="midnightblue" d="M103.608,-132.388C122.427,-136.808 143.519,-141.763 161.334,-145.948"/>
<polygon fill="midnightblue" stroke="midnightblue" points="104.25,-128.943 93.7149,-130.064 102.65,-135.758 104.25,-128.943"/>
</g>
<!-- Node5 -->
<g id="node5" class="node"><title>Node5</title>
<g id="a_node5"><a xlink:href="namespacesll__m__gyroaverage__2d__polar.html#abfb82f7f95b355d86f7f3a105dc293a6" target="_top" xlink:title="hermite_c1_coef_nat_per">
<polygon fill="white" stroke="black" points="140,-76 140,-95 266,-95 266,-76 140,-76"/>
<text text-anchor="middle" x="203" y="-83" font-family="Helvetica,sans-Serif" font-size="10.00">hermite_c1_coef_nat_per</text>
</a>
</g>
</g>
<!-- Node1&#45;&gt;Node5 -->
<g id="edge4" class="edge"><title>Node1&#45;&gt;Node5</title>
<path fill="none" stroke="midnightblue" d="M103.608,-108.612C122.427,-104.192 143.519,-99.2371 161.334,-95.0523"/>
<polygon fill="midnightblue" stroke="midnightblue" points="102.65,-105.242 93.7149,-110.936 104.25,-112.057 102.65,-105.242"/>
</g>
<!-- Node3 -->
<g id="node3" class="node"><title>Node3</title>
<g id="a_node3"><a xlink:href="namespacesll__m__gyroaverage__2d__polar.html#a1882bcc115806b5d1d1b08a53c89490b" target="_top" xlink:title="sll_s_compute_gyroaverage\l_points_polar_hermite">
<polygon fill="white" stroke="black" points="312,-157.5 312,-187.5 450,-187.5 450,-157.5 312,-157.5"/>
<text text-anchor="start" x="320" y="-175.5" font-family="Helvetica,sans-Serif" font-size="10.00">sll_s_compute_gyroaverage</text>
<text text-anchor="middle" x="381" y="-164.5" font-family="Helvetica,sans-Serif" font-size="10.00">_points_polar_hermite</text>
</a>
</g>
</g>
<!-- Node2&#45;&gt;Node3 -->
<g id="edge2" class="edge"><title>Node2&#45;&gt;Node3</title>
<path fill="none" stroke="midnightblue" d="M268.387,-161.719C282.566,-163.089 297.628,-164.544 311.946,-165.927"/>
<polygon fill="midnightblue" stroke="midnightblue" points="268.532,-158.217 258.242,-160.739 267.859,-165.185 268.532,-158.217"/>
</g>
<!-- Node4 -->
<g id="node4" class="node"><title>Node4</title>
<g id="a_node4"><a xlink:href="namespacesll__m__gyroaverage__2d__polar__hermite__solver.html#afd578efdda5cfc4e19d981df4c069d6b" target="_top" xlink:title="sll_m_gyroaverage_2d\l_polar_hermite_solver\l::compute_gyroaverage\l_2d_polar_hermite">
<polygon fill="white" stroke="black" points="496,-70.5 496,-122.5 615,-122.5 615,-70.5 496,-70.5"/>
<text text-anchor="start" x="504" y="-110.5" font-family="Helvetica,sans-Serif" font-size="10.00">sll_m_gyroaverage_2d</text>
<text text-anchor="start" x="504" y="-99.5" font-family="Helvetica,sans-Serif" font-size="10.00">_polar_hermite_solver</text>
<text text-anchor="start" x="504" y="-88.5" font-family="Helvetica,sans-Serif" font-size="10.00">::compute_gyroaverage</text>
<text text-anchor="middle" x="555.5" y="-77.5" font-family="Helvetica,sans-Serif" font-size="10.00">_2d_polar_hermite</text>
</a>
</g>
</g>
<!-- Node3&#45;&gt;Node4 -->
<g id="edge3" class="edge"><title>Node3&#45;&gt;Node4</title>
<path fill="none" stroke="midnightblue" d="M445.674,-154.1C450.565,-152.325 455.389,-150.454 460,-148.5 477.242,-141.194 495.434,-131.662 511.201,-122.757"/>
<polygon fill="midnightblue" stroke="midnightblue" points="444.517,-150.797 436.224,-157.391 446.819,-157.408 444.517,-150.797"/>
</g>
<!-- Node6 -->
<g id="node6" class="node"><title>Node6</title>
<g id="a_node6"><a xlink:href="namespacesll__m__gyroaverage__2d__polar.html#a4e71edee1dc6cc04b3ccb2564ab2c03b" target="_top" xlink:title="sll_s_compute_gyroaverage\l_points_polar_hermite_c1">
<polygon fill="white" stroke="black" points="312,-108.5 312,-138.5 450,-138.5 450,-108.5 312,-108.5"/>
<text text-anchor="start" x="320" y="-126.5" font-family="Helvetica,sans-Serif" font-size="10.00">sll_s_compute_gyroaverage</text>
<text text-anchor="middle" x="381" y="-115.5" font-family="Helvetica,sans-Serif" font-size="10.00">_points_polar_hermite_c1</text>
</a>
</g>
</g>
<!-- Node5&#45;&gt;Node6 -->
<g id="edge5" class="edge"><title>Node5&#45;&gt;Node6</title>
<path fill="none" stroke="midnightblue" d="M258.639,-97.297C275.505,-100.939 294.291,-104.995 311.946,-108.807"/>
<polygon fill="midnightblue" stroke="midnightblue" points="258.926,-93.7784 248.412,-95.089 257.448,-100.621 258.926,-93.7784"/>
</g>
<!-- Node7 -->
<g id="node7" class="node"><title>Node7</title>
<g id="a_node7"><a xlink:href="namespacesll__m__gyroaverage__2d__polar.html#ad41ab63a950213f472e2f5a329c72502" target="_top" xlink:title="sll_s_compute_gyroaverage\l_points_polar_with_invar\l_hermite_c1">
<polygon fill="white" stroke="black" points="312,-49 312,-90 450,-90 450,-49 312,-49"/>
<text text-anchor="start" x="320" y="-78" font-family="Helvetica,sans-Serif" font-size="10.00">sll_s_compute_gyroaverage</text>
<text text-anchor="start" x="320" y="-67" font-family="Helvetica,sans-Serif" font-size="10.00">_points_polar_with_invar</text>
<text text-anchor="middle" x="381" y="-56" font-family="Helvetica,sans-Serif" font-size="10.00">_hermite_c1</text>
</a>
</g>
</g>
<!-- Node5&#45;&gt;Node7 -->
<g id="edge7" class="edge"><title>Node5&#45;&gt;Node7</title>
<path fill="none" stroke="midnightblue" d="M276.286,-78.9286C288.071,-77.8572 300.245,-76.7505 311.924,-75.6887"/>
<polygon fill="midnightblue" stroke="midnightblue" points="275.693,-75.4679 266.051,-79.859 276.327,-82.4392 275.693,-75.4679"/>
</g>
<!-- Node8 -->
<g id="node8" class="node"><title>Node8</title>
<g id="a_node8"><a xlink:href="namespacesll__m__gyroaverage__2d__polar.html#ac99045a4e95803a8460bce27c7598b25" target="_top" xlink:title="sll_s_compute_gyroaverage\l_pre_compute_polar_hermite_c1">
<polygon fill="white" stroke="black" points="302,-0.5 302,-30.5 460,-30.5 460,-0.5 302,-0.5"/>
<text text-anchor="start" x="310" y="-18.5" font-family="Helvetica,sans-Serif" font-size="10.00">sll_s_compute_gyroaverage</text>
<text text-anchor="middle" x="381" y="-7.5" font-family="Helvetica,sans-Serif" font-size="10.00">_pre_compute_polar_hermite_c1</text>
</a>
</g>
</g>
<!-- Node5&#45;&gt;Node8 -->
<g id="edge9" class="edge"><title>Node5&#45;&gt;Node8</title>
<path fill="none" stroke="midnightblue" d="M231.602,-71.2706C250.993,-61.5915 277.703,-48.887 302,-39.5 310.194,-36.3343 318.994,-33.2943 327.626,-30.5047"/>
<polygon fill="midnightblue" stroke="midnightblue" points="229.801,-68.259 222.448,-75.8869 232.953,-74.5093 229.801,-68.259"/>
</g>
<!-- Node6&#45;&gt;Node4 -->
<g id="edge6" class="edge"><title>Node6&#45;&gt;Node4</title>
<path fill="none" stroke="midnightblue" d="M460.155,-111.267C472.117,-109.395 484.288,-107.49 495.738,-105.697"/>
<polygon fill="midnightblue" stroke="midnightblue" points="459.515,-107.825 450.177,-112.829 460.598,-114.74 459.515,-107.825"/>
</g>
<!-- Node7&#45;&gt;Node4 -->
<g id="edge8" class="edge"><title>Node7&#45;&gt;Node4</title>
<path fill="none" stroke="midnightblue" d="M460.155,-81.7329C472.117,-83.6053 484.288,-85.5104 495.738,-87.3025"/>
<polygon fill="midnightblue" stroke="midnightblue" points="460.598,-78.2597 450.177,-80.1711 459.515,-85.1755 460.598,-78.2597"/>
</g>
<!-- Node8&#45;&gt;Node4 -->
<g id="edge10" class="edge"><title>Node8&#45;&gt;Node4</title>
<path fill="none" stroke="midnightblue" d="M446.627,-34.0214C451.201,-35.7476 455.7,-37.5764 460,-39.5 479.239,-48.1058 499.392,-59.84 516.121,-70.4252"/>
<polygon fill="midnightblue" stroke="midnightblue" points="447.769,-30.7126 437.174,-30.6249 445.402,-37.3002 447.769,-30.7126"/>
</g>
</g>
</svg>
