<?xml version="1.0" encoding="UTF-8" standalone="no"?>
<!DOCTYPE svg PUBLIC "-//W3C//DTD SVG 1.1//EN"
 "http://www.w3.org/Graphics/SVG/1.1/DTD/svg11.dtd">
<!-- Generated by graphviz version 2.40.1 (20161225.0304)
 -->
<!-- Title: sll_collective_globalsum_comp32 Pages: 1 -->
<svg width="654pt" height="88pt"
 viewBox="0.00 0.00 654.00 88.00" xmlns="http://www.w3.org/2000/svg" xmlns:xlink="http://www.w3.org/1999/xlink">
<g id="graph0" class="graph" transform="scale(1 1) rotate(0) translate(4 84)">
<title>sll_collective_globalsum_comp32</title>
<polygon fill="#ffffff" stroke="transparent" points="-4,4 -4,-84 650,-84 650,4 -4,4"/>
<!-- Node173 -->
<g id="node1" class="node">
<title>Node173</title>
<polygon fill="#bfbfbf" stroke="#000000" points="0,-24.5 0,-54.5 137,-54.5 137,-24.5 0,-24.5"/>
<text text-anchor="start" x="8" y="-42.5" font-family="Helvetica,sans-Serif" font-size="10.00" fill="#000000">sll_collective_globalsum</text>
<text text-anchor="middle" x="68.5" y="-31.5" font-family="Helvetica,sans-Serif" font-size="10.00" fill="#000000">_comp32</text>
</g>
<!-- Node174 -->
<g id="node2" class="node">
<title>Node174</title>
<g id="a_node2"><a xlink:href="namespacesll__m__collective.html#ad1d8018497a41286301bf1d7f9a88b12" target="_top" xlink:title="Performs a global sum over an array and writes the result in the given node If no node in root_rank i...">
<polygon fill="#ffffff" stroke="#000000" points="173,-24.5 173,-54.5 310,-54.5 310,-24.5 173,-24.5"/>
<text text-anchor="start" x="181" y="-42.5" font-family="Helvetica,sans-Serif" font-size="10.00" fill="#000000">sll_collective_globalsum</text>
<text text-anchor="middle" x="241.5" y="-31.5" font-family="Helvetica,sans-Serif" font-size="10.00" fill="#000000">_array_comp32</text>
</a>
</g>
</g>
<!-- Node173&#45;&gt;Node174 -->
<g id="edge1" class="edge">
<title>Node173&#45;&gt;Node174</title>
<path fill="none" stroke="#191970" d="M137.3713,-39.5C145.678,-39.5 154.2111,-39.5 162.6466,-39.5"/>
<polygon fill="#191970" stroke="#191970" points="162.8657,-43.0001 172.8657,-39.5 162.8657,-36.0001 162.8657,-43.0001"/>
</g>
<!-- Node175 -->
<g id="node3" class="node">
<title>Node175</title>
<g id="a_node3"><a xlink:href="namespacesll__m__collective.html#a5eb76797f4689a2e466569436b821115" target="_top" xlink:title="sll_collective_reduce\l_comp32">
<polygon fill="#ffffff" stroke="#000000" points="352,-49.5 352,-79.5 471,-79.5 471,-49.5 352,-49.5"/>
<text text-anchor="start" x="360" y="-67.5" font-family="Helvetica,sans-Serif" font-size="10.00" fill="#000000">sll_collective_reduce</text>
<text text-anchor="middle" x="411.5" y="-56.5" font-family="Helvetica,sans-Serif" font-size="10.00" fill="#000000">_comp32</text>
</a>
</g>
</g>
<!-- Node174&#45;&gt;Node175 -->
<g id="edge2" class="edge">
<title>Node174&#45;&gt;Node175</title>
<path fill="none" stroke="#191970" d="M310.1555,-49.5964C320.6305,-51.1368 331.4496,-52.7279 341.9437,-54.2711"/>
<polygon fill="#191970" stroke="#191970" points="341.4808,-57.7406 351.8837,-55.7329 342.4993,-50.8151 341.4808,-57.7406"/>
</g>
<!-- Node177 -->
<g id="node5" class="node">
<title>Node177</title>
<g id="a_node5"><a xlink:href="namespacesll__m__collective.html#a53667aea76e2fe9f17e7a9cac24e352f" target="_top" xlink:title="sll_collective_allreduce\l_comp32">
<polygon fill="#ffffff" stroke="#000000" points="346,-.5 346,-30.5 477,-30.5 477,-.5 346,-.5"/>
<text text-anchor="start" x="354" y="-18.5" font-family="Helvetica,sans-Serif" font-size="10.00" fill="#000000">sll_collective_allreduce</text>
<text text-anchor="middle" x="411.5" y="-7.5" font-family="Helvetica,sans-Serif" font-size="10.00" fill="#000000">_comp32</text>
</a>
</g>
</g>
<!-- Node174&#45;&gt;Node177 -->
<g id="edge4" class="edge">
<title>Node174&#45;&gt;Node177</title>
<path fill="none" stroke="#191970" d="M310.1555,-29.8075C318.6334,-28.6106 327.3367,-27.3819 335.9107,-26.1714"/>
<polygon fill="#191970" stroke="#191970" points="336.4826,-29.6255 345.8952,-24.7619 335.5041,-22.6942 336.4826,-29.6255"/>
</g>
<!-- Node176 -->
<g id="node4" class="node">
<title>Node176</title>
<g id="a_node4"><a xlink:href="namespacesll__m__collective.html#a9a5729d7ca2e55890195f76c8a5cbd62" target="_top" xlink:title="Checks the good execution of collective instruction. ">
<polygon fill="#ffffff" stroke="#000000" points="522,-49 522,-68 637,-68 637,-49 522,-49"/>
<text text-anchor="middle" x="579.5" y="-56" font-family="Helvetica,sans-Serif" font-size="10.00" fill="#000000">sll_s_test_mpi_error</text>
</a>
</g>
</g>
<!-- Node175&#45;&gt;Node176 -->
<g id="edge3" class="edge">
<title>Node175&#45;&gt;Node176</title>
<path fill="none" stroke="#191970" d="M471.2035,-62.3677C484.3557,-61.898 498.3774,-61.3972 511.8192,-60.9172"/>
<polygon fill="#191970" stroke="#191970" points="512.0925,-64.4097 521.9612,-60.555 511.8426,-57.4142 512.0925,-64.4097"/>
</g>
<!-- Node177&#45;&gt;Node176 -->
<g id="edge6" class="edge">
<title>Node177&#45;&gt;Node176</title>
<path fill="none" stroke="#191970" d="M470.2582,-30.5393C490.6441,-35.7571 513.2165,-41.5346 532.5256,-46.4768"/>
<polygon fill="#191970" stroke="#191970" points="531.7412,-49.8888 542.2968,-48.9777 533.477,-43.1074 531.7412,-49.8888"/>
</g>
<!-- Node178 -->
<g id="node6" class="node">
<title>Node178</title>
<g id="a_node6"><a xlink:href="namespacesll__m__collective.html#a37ea25f42a791be5a710a6cf0d1e1197" target="_top" xlink:title="Checks if the pointer ptr is associated to an object. ">
<polygon fill="#ffffff" stroke="#000000" points="513,-6 513,-25 646,-25 646,-6 513,-6"/>
<text text-anchor="middle" x="579.5" y="-13" font-family="Helvetica,sans-Serif" font-size="10.00" fill="#000000">sll_check_collective_ptr</text>
</a>
</g>
</g>
<!-- Node177&#45;&gt;Node178 -->
<g id="edge5" class="edge">
<title>Node177&#45;&gt;Node178</title>
<path fill="none" stroke="#191970" d="M477.4159,-15.5C485.7158,-15.5 494.263,-15.5 502.7122,-15.5"/>
<polygon fill="#191970" stroke="#191970" points="502.9465,-19.0001 512.9464,-15.5 502.9464,-12.0001 502.9465,-19.0001"/>
</g>
</g>
</svg>
