<?xml version="1.0" encoding="UTF-8" standalone="no"?>
<!DOCTYPE svg PUBLIC "-//W3C//DTD SVG 1.1//EN"
 "http://www.w3.org/Graphics/SVG/1.1/DTD/svg11.dtd">
<!-- Generated by graphviz version 2.38.0 (20140413.2041)
 -->
<!-- Title: sll_f_gaussian_deviate Pages: 1 -->
<svg width="320pt" height="50pt"
 viewBox="0.00 0.00 320.00 50.00" xmlns="http://www.w3.org/2000/svg" xmlns:xlink="http://www.w3.org/1999/xlink">
<g id="graph0" class="graph" transform="scale(1 1) rotate(0) translate(4 46)">
<title>sll_f_gaussian_deviate</title>
<polygon fill="white" stroke="none" points="-4,4 -4,-46 316,-46 316,4 -4,4"/>
<!-- Node1 -->
<g id="node1" class="node"><title>Node1</title>
<polygon fill="#bfbfbf" stroke="black" points="0,-11.5 0,-30.5 116,-30.5 116,-11.5 0,-11.5"/>
<text text-anchor="middle" x="58" y="-18.5" font-family="Helvetica,sans-Serif" font-size="10.00">sll_f_gaussian_deviate</text>
</g>
<!-- Node2 -->
<g id="node2" class="node"><title>Node2</title>
<g id="a_node2"><a xlink:href="namespacesll__m__common__array__initializers.html#a60e6570fd13c38f0d9b33844bdd0bd4b" target="_top" xlink:title="Initializer for Langmuir function with Gaussian deviate perturbation. ">
<polygon fill="white" stroke="black" points="152,-0.5 152,-41.5 312,-41.5 312,-0.5 152,-0.5"/>
<text text-anchor="start" x="160" y="-29.5" font-family="Helvetica,sans-Serif" font-size="10.00">sll_m_common_array</text>
<text text-anchor="start" x="160" y="-18.5" font-family="Helvetica,sans-Serif" font-size="10.00">_initializers::sll_f</text>
<text text-anchor="middle" x="232" y="-7.5" font-family="Helvetica,sans-Serif" font-size="10.00">_langmuir_gaussxv_initializer_2d</text>
</a>
</g>
</g>
<!-- Node1&#45;&gt;Node2 -->
<g id="edge1" class="edge"><title>Node1&#45;&gt;Node2</title>
<path fill="none" stroke="midnightblue" d="M126.358,-21C134.745,-21 143.38,-21 151.924,-21"/>
<polygon fill="midnightblue" stroke="midnightblue" points="126.274,-17.5001 116.274,-21 126.273,-24.5001 126.274,-17.5001"/>
</g>
</g>
</svg>
