<?xml version="1.0" encoding="UTF-8" standalone="no"?>
<!DOCTYPE svg PUBLIC "-//W3C//DTD SVG 1.1//EN"
 "http://www.w3.org/Graphics/SVG/1.1/DTD/svg11.dtd">
<!-- Generated by graphviz version 2.43.0 (0)
 -->
<!-- Title: sll_f_new_plan_gyroaverage_polar_pade Pages: 1 -->
<svg width="595pt" height="61pt"
 viewBox="0.00 0.00 595.00 61.00" xmlns="http://www.w3.org/2000/svg" xmlns:xlink="http://www.w3.org/1999/xlink">
<g id="graph0" class="graph" transform="scale(1 1) rotate(0) translate(4 57)">
<title>sll_f_new_plan_gyroaverage_polar_pade</title>
<polygon fill="white" stroke="transparent" points="-4,4 -4,-57 591,-57 591,4 -4,4"/>
<!-- Node1 -->
<g id="node1" class="node">
<title>Node1</title>
<g id="a_node1"><a xlink:title=" ">
<polygon fill="#bfbfbf" stroke="black" points="432,-11.5 432,-41.5 587,-41.5 587,-11.5 432,-11.5"/>
<text text-anchor="start" x="440" y="-29.5" font-family="Helvetica,sans-Serif" font-size="10.00">sll_f_new_plan_gyroaverage</text>
<text text-anchor="middle" x="509.5" y="-18.5" font-family="Helvetica,sans-Serif" font-size="10.00">_polar_pade</text>
</a>
</g>
</g>
<!-- Node2 -->
<g id="node2" class="node">
<title>Node2</title>
<g id="a_node2"><a xlink:href="namespacesll__m__gyroaverage__2d__polar__pade__solver.html#a15c17074c605c5711c7586be75146e3a" target="_top" xlink:title=" ">
<polygon fill="white" stroke="black" points="201,-6 201,-47 396,-47 396,-6 201,-6"/>
<text text-anchor="start" x="209" y="-35" font-family="Helvetica,sans-Serif" font-size="10.00">sll_m_gyroaverage_2d</text>
<text text-anchor="start" x="209" y="-24" font-family="Helvetica,sans-Serif" font-size="10.00">_polar_pade_solver::initialize</text>
<text text-anchor="middle" x="298.5" y="-13" font-family="Helvetica,sans-Serif" font-size="10.00">_gyroaverage_2d_polar_pade_solver</text>
</a>
</g>
</g>
<!-- Node1&#45;&gt;Node2 -->
<g id="edge1" class="edge">
<title>Node1&#45;&gt;Node2</title>
<path fill="none" stroke="midnightblue" d="M421.65,-26.5C413.2,-26.5 404.59,-26.5 396.06,-26.5"/>
<polygon fill="midnightblue" stroke="midnightblue" points="421.86,-30 431.86,-26.5 421.86,-23 421.86,-30"/>
</g>
<!-- Node3 -->
<g id="node3" class="node">
<title>Node3</title>
<g id="a_node3"><a xlink:href="namespacesll__m__gyroaverage__2d__polar__pade__solver.html#a13aedcd8f586efeba070c3fa12fb837d" target="_top" xlink:title=" ">
<polygon fill="white" stroke="black" points="0,-0.5 0,-52.5 165,-52.5 165,-0.5 0,-0.5"/>
<text text-anchor="start" x="8" y="-40.5" font-family="Helvetica,sans-Serif" font-size="10.00">sll_m_gyroaverage_2d</text>
<text text-anchor="start" x="8" y="-29.5" font-family="Helvetica,sans-Serif" font-size="10.00">_polar_pade_solver::sll</text>
<text text-anchor="start" x="8" y="-18.5" font-family="Helvetica,sans-Serif" font-size="10.00">_f_new_gyroaverage_2d_polar</text>
<text text-anchor="middle" x="82.5" y="-7.5" font-family="Helvetica,sans-Serif" font-size="10.00">_pade_solver</text>
</a>
</g>
</g>
<!-- Node2&#45;&gt;Node3 -->
<g id="edge2" class="edge">
<title>Node2&#45;&gt;Node3</title>
<path fill="none" stroke="midnightblue" d="M190.71,-26.5C182.08,-26.5 173.44,-26.5 165.03,-26.5"/>
<polygon fill="midnightblue" stroke="midnightblue" points="190.83,-30 200.83,-26.5 190.83,-23 190.83,-30"/>
</g>
</g>
</svg>
