<?xml version="1.0" encoding="UTF-8" standalone="no"?>
<!DOCTYPE svg PUBLIC "-//W3C//DTD SVG 1.1//EN"
 "http://www.w3.org/Graphics/SVG/1.1/DTD/svg11.dtd">
<!-- Generated by graphviz version 2.40.1 (20161225.0304)
 -->
<!-- Title: contribution_gauss_lagrange Pages: 1 -->
<svg width="311pt" height="39pt"
 viewBox="0.00 0.00 311.00 39.00" xmlns="http://www.w3.org/2000/svg" xmlns:xlink="http://www.w3.org/1999/xlink">
<g id="graph0" class="graph" transform="scale(1 1) rotate(0) translate(4 35)">
<title>contribution_gauss_lagrange</title>
<polygon fill="#ffffff" stroke="transparent" points="-4,4 -4,-35 307,-35 307,4 -4,4"/>
<!-- Node51 -->
<g id="node1" class="node">
<title>Node51</title>
<polygon fill="#bfbfbf" stroke="#000000" points="0,-.5 0,-30.5 109,-30.5 109,-.5 0,-.5"/>
<text text-anchor="start" x="8" y="-18.5" font-family="Helvetica,sans-Serif" font-size="10.00" fill="#000000">contribution_gauss</text>
<text text-anchor="middle" x="54.5" y="-7.5" font-family="Helvetica,sans-Serif" font-size="10.00" fill="#000000">_lagrange</text>
</g>
<!-- Node52 -->
<g id="node2" class="node">
<title>Node52</title>
<g id="a_node2"><a xlink:href="namespacesll__m__lagrange__interpolation.html#a8408ec777b0a4163e8d141bd68ff7a0f" target="_top" xlink:title="sll_m_lagrange_interpolation\l::sll_f_lagrange_interpolate">
<polygon fill="#ffffff" stroke="#000000" points="145,-.5 145,-30.5 303,-30.5 303,-.5 145,-.5"/>
<text text-anchor="start" x="153" y="-18.5" font-family="Helvetica,sans-Serif" font-size="10.00" fill="#000000">sll_m_lagrange_interpolation</text>
<text text-anchor="middle" x="224" y="-7.5" font-family="Helvetica,sans-Serif" font-size="10.00" fill="#000000">::sll_f_lagrange_interpolate</text>
</a>
</g>
</g>
<!-- Node51&#45;&gt;Node52 -->
<g id="edge1" class="edge">
<title>Node51&#45;&gt;Node52</title>
<path fill="none" stroke="#191970" d="M109.0639,-15.5C117.2718,-15.5 125.9143,-15.5 134.6222,-15.5"/>
<polygon fill="#191970" stroke="#191970" points="134.8523,-19.0001 144.8523,-15.5 134.8523,-12.0001 134.8523,-19.0001"/>
</g>
</g>
</svg>
