<?xml version="1.0" encoding="UTF-8" standalone="no"?>
<!DOCTYPE svg PUBLIC "-//W3C//DTD SVG 1.1//EN"
 "http://www.w3.org/Graphics/SVG/1.1/DTD/svg11.dtd">
<!-- Generated by graphviz version 2.43.0 (0)
 -->
<!-- Title: sll_s_compute_feet_rk4 Pages: 1 -->
<svg width="241pt" height="66pt"
 viewBox="0.00 0.00 241.00 66.00" xmlns="http://www.w3.org/2000/svg" xmlns:xlink="http://www.w3.org/1999/xlink">
<g id="graph0" class="graph" transform="scale(1 1) rotate(0) translate(4 62)">
<title>sll_s_compute_feet_rk4</title>
<polygon fill="white" stroke="transparent" points="-4,4 -4,-62 237,-62 237,4 -4,4"/>
<!-- Node1 -->
<g id="node1" class="node">
<title>Node1</title>
<g id="a_node1"><a xlink:title=" ">
<polygon fill="#bfbfbf" stroke="black" points="0,-19.5 0,-38.5 132,-38.5 132,-19.5 0,-19.5"/>
<text text-anchor="middle" x="66" y="-26.5" font-family="Helvetica,sans-Serif" font-size="10.00">sll_s_compute_feet_rk4</text>
</a>
</g>
</g>
<!-- Node2 -->
<g id="node2" class="node">
<title>Node2</title>
<g id="a_node2"><a xlink:href="namespacesll__m__fcisl__toroidal.html#a3ca26babb29f2aa3a9c19e127f611b38" target="_top" xlink:title=" ">
<polygon fill="white" stroke="black" points="168,-38.5 168,-57.5 233,-57.5 233,-38.5 168,-38.5"/>
<text text-anchor="middle" x="200.5" y="-45.5" font-family="Helvetica,sans-Serif" font-size="10.00">toroidal_1</text>
</a>
</g>
</g>
<!-- Node1&#45;&gt;Node2 -->
<g id="edge1" class="edge">
<title>Node1&#45;&gt;Node2</title>
<path fill="none" stroke="midnightblue" d="M132.09,-38.33C140.83,-39.59 149.6,-40.84 157.79,-42.02"/>
<polygon fill="midnightblue" stroke="midnightblue" points="157.41,-45.5 167.8,-43.45 158.4,-38.57 157.41,-45.5"/>
</g>
<!-- Node3 -->
<g id="node3" class="node">
<title>Node3</title>
<g id="a_node3"><a xlink:href="namespacesll__m__fcisl__toroidal.html#aea442fdae18e85541759322fbb865390" target="_top" xlink:title=" ">
<polygon fill="white" stroke="black" points="168,-0.5 168,-19.5 233,-19.5 233,-0.5 168,-0.5"/>
<text text-anchor="middle" x="200.5" y="-7.5" font-family="Helvetica,sans-Serif" font-size="10.00">toroidal_2</text>
</a>
</g>
</g>
<!-- Node1&#45;&gt;Node3 -->
<g id="edge2" class="edge">
<title>Node1&#45;&gt;Node3</title>
<path fill="none" stroke="midnightblue" d="M132.09,-19.67C140.83,-18.41 149.6,-17.16 157.79,-15.98"/>
<polygon fill="midnightblue" stroke="midnightblue" points="158.4,-19.43 167.8,-14.55 157.41,-12.5 158.4,-19.43"/>
</g>
</g>
</svg>
