<?xml version="1.0" encoding="UTF-8" standalone="no"?>
<!DOCTYPE svg PUBLIC "-//W3C//DTD SVG 1.1//EN"
 "http://www.w3.org/Graphics/SVG/1.1/DTD/svg11.dtd">
<!-- Generated by graphviz version 2.40.1 (20161225.0304)
 -->
<!-- Title: insert_recursive_fourier_real Pages: 1 -->
<svg width="630pt" height="39pt"
 viewBox="0.00 0.00 630.00 39.00" xmlns="http://www.w3.org/2000/svg" xmlns:xlink="http://www.w3.org/1999/xlink">
<g id="graph0" class="graph" transform="scale(1 1) rotate(0) translate(4 35)">
<title>insert_recursive_fourier_real</title>
<polygon fill="#ffffff" stroke="transparent" points="-4,4 -4,-35 626,-35 626,4 -4,4"/>
<!-- Node11 -->
<g id="node1" class="node">
<title>Node11</title>
<polygon fill="#bfbfbf" stroke="#000000" points="0,-6 0,-25 156,-25 156,-6 0,-6"/>
<text text-anchor="middle" x="78" y="-13" font-family="Helvetica,sans-Serif" font-size="10.00" fill="#000000">insert_recursive_fourier_real</text>
</g>
<!-- Node12 -->
<g id="node2" class="node">
<title>Node12</title>
<g id="a_node2"><a xlink:href="namespacesll__m__poisson__2d__sparse__grid__fft.html#accb5b809ee3f915b48e185a4fea56418" target="_top" xlink:title="Helper function to insert the real Fourier coefficient into the sparse grid data structure. ">
<polygon fill="#ffffff" stroke="#000000" points="192,-6 192,-25 298,-25 298,-6 192,-6"/>
<text text-anchor="middle" x="245" y="-13" font-family="Helvetica,sans-Serif" font-size="10.00" fill="#000000">insert_fourier_real</text>
</a>
</g>
</g>
<!-- Node11&#45;&gt;Node12 -->
<g id="edge1" class="edge">
<title>Node11&#45;&gt;Node12</title>
<path fill="none" stroke="#191970" d="M166.3055,-15.5C174.9728,-15.5 183.5708,-15.5 191.7243,-15.5"/>
<polygon fill="#191970" stroke="#191970" points="166.1215,-12.0001 156.1215,-15.5 166.1214,-19.0001 166.1215,-12.0001"/>
</g>
<!-- Node13 -->
<g id="node3" class="node">
<title>Node13</title>
<g id="a_node3"><a xlink:href="namespacesll__m__poisson__2d__sparse__grid__fft.html#a7971379986b9ed5489f790a8ceb605f4" target="_top" xlink:title="Helper function to compute the Fourier coefficients for the derivative operation. ...">
<polygon fill="#ffffff" stroke="#000000" points="334,-6 334,-25 452,-25 452,-6 334,-6"/>
<text text-anchor="middle" x="393" y="-13" font-family="Helvetica,sans-Serif" font-size="10.00" fill="#000000">derivative_coeffs_1d</text>
</a>
</g>
</g>
<!-- Node12&#45;&gt;Node13 -->
<g id="edge2" class="edge">
<title>Node12&#45;&gt;Node13</title>
<path fill="none" stroke="#191970" d="M308.2407,-15.5C316.7291,-15.5 325.4105,-15.5 333.8252,-15.5"/>
<polygon fill="#191970" stroke="#191970" points="308.0134,-12.0001 298.0134,-15.5 308.0133,-19.0001 308.0134,-12.0001"/>
</g>
<!-- Node14 -->
<g id="node4" class="node">
<title>Node14</title>
<g id="a_node4"><a xlink:href="namespacesll__m__poisson__2d__sparse__grid__fft.html#a8d1139606d33f42d4334490e5505f6da" target="_top" xlink:title="Create Poisson solver object with Fourier spectral method on 2d sparse grid. ">
<polygon fill="#ffffff" stroke="#000000" points="488,-.5 488,-30.5 622,-30.5 622,-.5 488,-.5"/>
<text text-anchor="start" x="496" y="-18.5" font-family="Helvetica,sans-Serif" font-size="10.00" fill="#000000">new_poisson_2d_sparse</text>
<text text-anchor="middle" x="555" y="-7.5" font-family="Helvetica,sans-Serif" font-size="10.00" fill="#000000">_grid_fft</text>
</a>
</g>
</g>
<!-- Node13&#45;&gt;Node14 -->
<g id="edge3" class="edge">
<title>Node13&#45;&gt;Node14</title>
<path fill="none" stroke="#191970" d="M462.5601,-15.5C470.976,-15.5 479.5601,-15.5 487.939,-15.5"/>
<polygon fill="#191970" stroke="#191970" points="462.403,-12.0001 452.4029,-15.5 462.4029,-19.0001 462.403,-12.0001"/>
</g>
</g>
</svg>
