<?xml version="1.0" encoding="UTF-8" standalone="no"?>
<!DOCTYPE svg PUBLIC "-//W3C//DTD SVG 1.1//EN"
 "http://www.w3.org/Graphics/SVG/1.1/DTD/svg11.dtd">
<!-- Generated by graphviz version 2.40.1 (20161225.0304)
 -->
<!-- Title: interpolate_derivative_aux Pages: 1 -->
<!--zoomable 290 -->
<svg id="main" version="1.1" xmlns="http://www.w3.org/2000/svg" xmlns:xlink="http://www.w3.org/1999/xlink" xml:space="preserve" onload="init(evt)">
<style type="text/css"><![CDATA[
.edge:hover path { stroke: red; }
.edge:hover polygon { stroke: red; fill: red; }
]]></style>
<script type="text/javascript"><![CDATA[
var edges = document.getElementsByTagName('g');
if (edges && edges.length) {
  for (var i=0;i<edges.length;i++) {
    if (edges[i].id.substr(0,4)=='edge') {
      edges[i].setAttribute('class','edge');
    }
  }
}
]]></script>
        <defs>
                <circle id="rim" cx="0" cy="0" r="7"/>
                <circle id="rim2" cx="0" cy="0" r="3.5"/>
                <g id="zoomPlus">
                        <use xlink:href="#rim" fill="#404040">
                                <set attributeName="fill" to="#808080" begin="zoomplus.mouseover" end="zoomplus.mouseout"/>
                        </use>
                        <path d="M-4,0h8M0,-4v8" fill="none" stroke="white" stroke-width="1.5" pointer-events="none"/>
                </g>
                <g id="zoomMin">
                        <use xlink:href="#rim" fill="#404040">
                                <set attributeName="fill" to="#808080" begin="zoomminus.mouseover" end="zoomminus.mouseout"/>
                        </use>
                        <path d="M-4,0h8" fill="none" stroke="white" stroke-width="1.5" pointer-events="none"/>
                </g>
                <g id="dirArrow">
                        <path fill="none" stroke="white" stroke-width="1.5" d="M0,-3.0v7 M-2.5,-0.5L0,-3.0L2.5,-0.5"/>
                </g>
               <g id="resetDef">
                       <use xlink:href="#rim2" fill="#404040">
                               <set attributeName="fill" to="#808080" begin="reset.mouseover" end="reset.mouseout"/>
                       </use>
               </g>
        </defs>

<script type="text/javascript">
var viewWidth = 513;
var viewHeight = 290;
var sectionId = 'dynsection-14';
</script>
<script xlink:href="svgpan.js"/>
<svg id="graph" class="graph">
<g id="viewport">
<title>interpolate_derivative_aux</title>
<polygon fill="#ffffff" stroke="transparent" points="-4,4 -4,-286 509,-286 509,4 -4,4"/>
<!-- Node105 -->
<g id="node1" class="node">
<title>Node105</title>
<polygon fill="#bfbfbf" stroke="#000000" points="0,-95.5 0,-114.5 148,-114.5 148,-95.5 0,-95.5"/>
<text text-anchor="middle" x="74" y="-102.5" font-family="Helvetica,sans-Serif" font-size="10.00" fill="#000000">interpolate_derivative_aux</text>
</g>
<!-- Node106 -->
<g id="node2" class="node">
<title>Node106</title>
<g id="a_node2"><a xlink:href="namespacesll__m__cubic__splines.html#a20d325fd04e034c8ddd6e5ba214db9d0" target="_top" xlink:title="returns the value of the derivative at the image of the abscissa &#39;x&#39;, using the spline coefficients s...">
<polygon fill="#ffffff" stroke="#000000" points="193.5,-186 193.5,-216 295.5,-216 295.5,-186 193.5,-186"/>
<text text-anchor="start" x="201.5" y="-204" font-family="Helvetica,sans-Serif" font-size="10.00" fill="#000000">sll_f_cubic_spline</text>
<text text-anchor="middle" x="244.5" y="-193" font-family="Helvetica,sans-Serif" font-size="10.00" fill="#000000">_1d_eval_deriv</text>
</a>
</g>
</g>
<!-- Node105&#45;&gt;Node106 -->
<g id="edge1" class="edge">
<title>Node105&#45;&gt;Node106</title>
<path fill="none" stroke="#191970" d="M99.691,-119.4653C131.4527,-137.3487 185.2587,-167.6442 217.5779,-185.8415"/>
<polygon fill="#191970" stroke="#191970" points="101.4025,-116.4123 90.9715,-114.5558 97.968,-122.5119 101.4025,-116.4123"/>
</g>
<!-- Node109 -->
<g id="node5" class="node">
<title>Node109</title>
<g id="a_node5"><a xlink:href="namespacesll__m__cubic__splines.html#a872e8839340faa83e0513d849103b674" target="_top" xlink:title="returns the values of the derivatives evaluated at a collection of abscissae stored in the input 1D a...">
<polygon fill="#ffffff" stroke="#000000" points="184,-115 184,-145 305,-145 305,-115 184,-115"/>
<text text-anchor="start" x="192" y="-133" font-family="Helvetica,sans-Serif" font-size="10.00" fill="#000000">sll_s_cubic_spline</text>
<text text-anchor="middle" x="244.5" y="-122" font-family="Helvetica,sans-Serif" font-size="10.00" fill="#000000">_1d_eval_array_deriv</text>
</a>
</g>
</g>
<!-- Node105&#45;&gt;Node109 -->
<g id="edge4" class="edge">
<title>Node105&#45;&gt;Node109</title>
<path fill="none" stroke="#191970" d="M149.0982,-116.0115C160.7523,-117.7203 172.6631,-119.4667 183.9427,-121.1206"/>
<polygon fill="#191970" stroke="#191970" points="149.3471,-112.5106 138.9451,-114.5227 148.3315,-119.4366 149.3471,-112.5106"/>
</g>
<!-- Node112 -->
<g id="node8" class="node">
<title>Node112</title>
<g id="a_node8"><a xlink:href="namespacesll__m__cubic__splines.html#a4a4ca9e875e412121ae2d9b01eb5aa18" target="_top" xlink:title="analogous to the sll_s_cubic_spline_1d_eval_array_deriv() subroutine but its input and output arrays ...">
<polygon fill="#ffffff" stroke="#000000" points="189.5,-66 189.5,-96 299.5,-96 299.5,-66 189.5,-66"/>
<text text-anchor="start" x="197.5" y="-84" font-family="Helvetica,sans-Serif" font-size="10.00" fill="#000000">interpolate_pointer</text>
<text text-anchor="middle" x="244.5" y="-73" font-family="Helvetica,sans-Serif" font-size="10.00" fill="#000000">_derivatives</text>
</a>
</g>
</g>
<!-- Node105&#45;&gt;Node112 -->
<g id="edge7" class="edge">
<title>Node105&#45;&gt;Node112</title>
<path fill="none" stroke="#191970" d="M151.9556,-94.0268C164.6085,-92.2457 177.4772,-90.4343 189.436,-88.7509"/>
<polygon fill="#191970" stroke="#191970" points="151.2905,-90.5858 141.876,-95.4456 152.2663,-97.5175 151.2905,-90.5858"/>
</g>
<!-- Node113 -->
<g id="node9" class="node">
<title>Node113</title>
<g id="a_node9"><a xlink:href="namespacesll__m__cubic__splines.html#a9f207e5c634fc68284cb6f28aee7cef8" target="_top" xlink:title="Returns the interpolated value of the derivative in the x1 direction at the point (x1...">
<polygon fill="#ffffff" stroke="#000000" points="191,-12 191,-42 298,-42 298,-12 191,-12"/>
<text text-anchor="start" x="199" y="-30" font-family="Helvetica,sans-Serif" font-size="10.00" fill="#000000">sll_f_cubic_spline</text>
<text text-anchor="middle" x="244.5" y="-19" font-family="Helvetica,sans-Serif" font-size="10.00" fill="#000000">_2d_eval_deriv_x1</text>
</a>
</g>
</g>
<!-- Node105&#45;&gt;Node113 -->
<g id="edge8" class="edge">
<title>Node105&#45;&gt;Node113</title>
<path fill="none" stroke="#191970" d="M104.0692,-91.244C134.1508,-77.4823 180.3056,-56.3675 211.4111,-42.1375"/>
<polygon fill="#191970" stroke="#191970" points="102.5442,-88.0927 94.9066,-95.4357 105.4563,-94.4583 102.5442,-88.0927"/>
</g>
<!-- Node107 -->
<g id="node3" class="node">
<title>Node107</title>
<g id="a_node3"><a xlink:href="namespacesll__m__cubic__spline__interpolator__1d.html#ab5170ffba89fc8d3da679aef50e65182" target="_top" xlink:title="sll_m_cubic_spline\l_interpolator_1d::interpolate\l_deriv1_cs1d">
<polygon fill="#ffffff" stroke="#000000" points="345.5,-240.5 345.5,-281.5 500.5,-281.5 500.5,-240.5 345.5,-240.5"/>
<text text-anchor="start" x="353.5" y="-269.5" font-family="Helvetica,sans-Serif" font-size="10.00" fill="#000000">sll_m_cubic_spline</text>
<text text-anchor="start" x="353.5" y="-258.5" font-family="Helvetica,sans-Serif" font-size="10.00" fill="#000000">_interpolator_1d::interpolate</text>
<text text-anchor="middle" x="423" y="-247.5" font-family="Helvetica,sans-Serif" font-size="10.00" fill="#000000">_deriv1_cs1d</text>
</a>
</g>
</g>
<!-- Node106&#45;&gt;Node107 -->
<g id="edge2" class="edge">
<title>Node106&#45;&gt;Node107</title>
<path fill="none" stroke="#191970" d="M299.0405,-219.3329C318.8739,-225.9996 341.4162,-233.5769 361.789,-240.4249"/>
<polygon fill="#191970" stroke="#191970" points="300.1371,-216.0092 289.5431,-216.1405 297.9067,-222.6444 300.1371,-216.0092"/>
</g>
<!-- Node108 -->
<g id="node4" class="node">
<title>Node108</title>
<g id="a_node4"><a xlink:href="namespacesll__m__cubic__spline__interpolator__1d__nonuniform.html#a4fca6d79277033808d7fcc14e9a5ea03" target="_top" xlink:title="sll_m_cubic_spline\l_interpolator_1d_nonuniform\l::interpolate_deriv1_cs1d">
<polygon fill="#ffffff" stroke="#000000" points="344,-180.5 344,-221.5 502,-221.5 502,-180.5 344,-180.5"/>
<text text-anchor="start" x="352" y="-209.5" font-family="Helvetica,sans-Serif" font-size="10.00" fill="#000000">sll_m_cubic_spline</text>
<text text-anchor="start" x="352" y="-198.5" font-family="Helvetica,sans-Serif" font-size="10.00" fill="#000000">_interpolator_1d_nonuniform</text>
<text text-anchor="middle" x="423" y="-187.5" font-family="Helvetica,sans-Serif" font-size="10.00" fill="#000000">::interpolate_deriv1_cs1d</text>
</a>
</g>
</g>
<!-- Node106&#45;&gt;Node108 -->
<g id="edge3" class="edge">
<title>Node106&#45;&gt;Node108</title>
<path fill="none" stroke="#191970" d="M305.7533,-201C318.0279,-201 331.0886,-201 343.8689,-201"/>
<polygon fill="#191970" stroke="#191970" points="305.651,-197.5001 295.6509,-201 305.6509,-204.5001 305.651,-197.5001"/>
</g>
<!-- Node110 -->
<g id="node6" class="node">
<title>Node110</title>
<g id="a_node6"><a xlink:href="namespacesll__m__cubic__spline__interpolator__1d.html#af8b5d44a288bd78ca278dfd172bd1b6c" target="_top" xlink:title="sll_m_cubic_spline\l_interpolator_1d::interpolate\l_derivatives_cs1d">
<polygon fill="#ffffff" stroke="#000000" points="345.5,-120.5 345.5,-161.5 500.5,-161.5 500.5,-120.5 345.5,-120.5"/>
<text text-anchor="start" x="353.5" y="-149.5" font-family="Helvetica,sans-Serif" font-size="10.00" fill="#000000">sll_m_cubic_spline</text>
<text text-anchor="start" x="353.5" y="-138.5" font-family="Helvetica,sans-Serif" font-size="10.00" fill="#000000">_interpolator_1d::interpolate</text>
<text text-anchor="middle" x="423" y="-127.5" font-family="Helvetica,sans-Serif" font-size="10.00" fill="#000000">_derivatives_cs1d</text>
</a>
</g>
</g>
<!-- Node109&#45;&gt;Node110 -->
<g id="edge5" class="edge">
<title>Node109&#45;&gt;Node110</title>
<path fill="none" stroke="#191970" d="M315.5035,-134.3756C325.2961,-134.979 335.3949,-135.6014 345.3006,-136.2118"/>
<polygon fill="#191970" stroke="#191970" points="315.6267,-130.8766 305.4303,-133.7548 315.1961,-137.8634 315.6267,-130.8766"/>
</g>
<!-- Node111 -->
<g id="node7" class="node">
<title>Node111</title>
<g id="a_node7"><a xlink:href="namespacesll__m__cubic__spline__interpolator__1d__nonuniform.html#ad7577fa72d293954f9423564b5217274" target="_top" xlink:title="sll_m_cubic_spline\l_interpolator_1d_nonuniform\l::interpolate_derivatives_cs1d">
<polygon fill="#ffffff" stroke="#000000" points="341,-60.5 341,-101.5 505,-101.5 505,-60.5 341,-60.5"/>
<text text-anchor="start" x="349" y="-89.5" font-family="Helvetica,sans-Serif" font-size="10.00" fill="#000000">sll_m_cubic_spline</text>
<text text-anchor="start" x="349" y="-78.5" font-family="Helvetica,sans-Serif" font-size="10.00" fill="#000000">_interpolator_1d_nonuniform</text>
<text text-anchor="middle" x="423" y="-67.5" font-family="Helvetica,sans-Serif" font-size="10.00" fill="#000000">::interpolate_derivatives_cs1d</text>
</a>
</g>
</g>
<!-- Node109&#45;&gt;Node111 -->
<g id="edge6" class="edge">
<title>Node109&#45;&gt;Node111</title>
<path fill="none" stroke="#191970" d="M309.4277,-112.1767C322.0041,-108.7244 335.2781,-105.0805 348.1424,-101.5491"/>
<polygon fill="#191970" stroke="#191970" points="308.2291,-108.8762 299.5124,-114.8986 310.0822,-115.6265 308.2291,-108.8762"/>
</g>
<!-- Node114 -->
<g id="node10" class="node">
<title>Node114</title>
<g id="a_node10"><a xlink:href="namespacesll__m__cubic__spline__interpolator__2d.html#af1ede9ba198e76e41e590dec3402365b" target="_top" xlink:title="sll_m_cubic_spline\l_interpolator_2d::interpolate\l_deriv1_cs2d">
<polygon fill="#ffffff" stroke="#000000" points="345.5,-.5 345.5,-41.5 500.5,-41.5 500.5,-.5 345.5,-.5"/>
<text text-anchor="start" x="353.5" y="-29.5" font-family="Helvetica,sans-Serif" font-size="10.00" fill="#000000">sll_m_cubic_spline</text>
<text text-anchor="start" x="353.5" y="-18.5" font-family="Helvetica,sans-Serif" font-size="10.00" fill="#000000">_interpolator_2d::interpolate</text>
<text text-anchor="middle" x="423" y="-7.5" font-family="Helvetica,sans-Serif" font-size="10.00" fill="#000000">_deriv1_cs2d</text>
</a>
</g>
</g>
<!-- Node113&#45;&gt;Node114 -->
<g id="edge9" class="edge">
<title>Node113&#45;&gt;Node114</title>
<path fill="none" stroke="#191970" d="M308.3967,-24.8522C320.3866,-24.4492 333.0421,-24.0238 345.3948,-23.6086"/>
<polygon fill="#191970" stroke="#191970" points="307.9326,-21.3657 298.0559,-25.1998 308.1679,-28.3618 307.9326,-21.3657"/>
</g>
</g>
</svg>
        <g id="navigator" transform="translate(0 0)" fill="#404254">
                <rect fill="#f2f5e9" fill-opacity="0.5" stroke="#606060" stroke-width=".5" x="0" y="0" width="60" height="60"/>
                <use id="zoomplus" xlink:href="#zoomPlus" x="17" y="9" onmousedown="handleZoom(evt,'in')"/>
                <use id="zoomminus" xlink:href="#zoomMin" x="42" y="9" onmousedown="handleZoom(evt,'out')"/>
                <use id="reset" xlink:href="#resetDef" x="30" y="36" onmousedown="handleReset()"/>
                <g id="arrowUp" xlink:href="#dirArrow" transform="translate(30 24)" onmousedown="handlePan(0,-1)">
                  <use xlink:href="#rim" fill="#404040">
                        <set attributeName="fill" to="#808080" begin="arrowUp.mouseover" end="arrowUp.mouseout"/>
                  </use>
                  <path fill="none" stroke="white" stroke-width="1.5" d="M0,-3.0v7 M-2.5,-0.5L0,-3.0L2.5,-0.5"/>
                </g>
                <g id="arrowRight" xlink:href="#dirArrow" transform="rotate(90) translate(36 -43)" onmousedown="handlePan(1,0)">
                  <use xlink:href="#rim" fill="#404040">
                        <set attributeName="fill" to="#808080" begin="arrowRight.mouseover" end="arrowRight.mouseout"/>
                  </use>
                  <path fill="none" stroke="white" stroke-width="1.5" d="M0,-3.0v7 M-2.5,-0.5L0,-3.0L2.5,-0.5"/>
                </g>
                <g id="arrowDown" xlink:href="#dirArrow" transform="rotate(180) translate(-30 -48)" onmousedown="handlePan(0,1)">
                  <use xlink:href="#rim" fill="#404040">
                        <set attributeName="fill" to="#808080" begin="arrowDown.mouseover" end="arrowDown.mouseout"/>
                  </use>
                  <path fill="none" stroke="white" stroke-width="1.5" d="M0,-3.0v7 M-2.5,-0.5L0,-3.0L2.5,-0.5"/>
                </g>
                <g id="arrowLeft" xlink:href="#dirArrow" transform="rotate(270) translate(-36 17)" onmousedown="handlePan(-1,0)">
                  <use xlink:href="#rim" fill="#404040">
                        <set attributeName="fill" to="#808080" begin="arrowLeft.mouseover" end="arrowLeft.mouseout"/>
                  </use>
                  <path fill="none" stroke="white" stroke-width="1.5" d="M0,-3.0v7 M-2.5,-0.5L0,-3.0L2.5,-0.5"/>
                </g>
        </g>
        <svg viewBox="0 0 15 15" width="100%" height="30px" preserveAspectRatio="xMaxYMin meet">
         <g id="arrow_out" transform="scale(0.3 0.3)">
          <a xlink:href="namespacesll__m__cubic__splines_a575c8a1996272528d087f3a83f79fccb_icgraph_org.svg" target="_base">
           <rect id="button" ry="5" rx="5" y="6" x="6" height="38" width="38"
                fill="#f2f5e9" fill-opacity="0.5" stroke="#606060" stroke-width="1.0"/>
           <path id="arrow"
             d="M 11.500037,31.436501 C 11.940474,20.09759 22.043105,11.32322 32.158766,21.979434 L 37.068811,17.246167 C 37.068811,17.246167 37.088388,32 37.088388,32 L 22.160133,31.978069 C 22.160133,31.978069 26.997745,27.140456 26.997745,27.140456 C 18.528582,18.264221 13.291696,25.230495 11.500037,31.436501 z"
             style="fill:#404040;"/>
          </a>
         </g>
        </svg>
</svg>
