<?xml version="1.0" encoding="UTF-8" standalone="no"?>
<!DOCTYPE svg PUBLIC "-//W3C//DTD SVG 1.1//EN"
 "http://www.w3.org/Graphics/SVG/1.1/DTD/svg11.dtd">
<!-- Generated by graphviz version 2.40.1 (20161225.0304)
 -->
<!-- Title: sll_s_new_array_linspace Pages: 1 -->
<!--zoomable 220 -->
<svg id="main" version="1.1" xmlns="http://www.w3.org/2000/svg" xmlns:xlink="http://www.w3.org/1999/xlink" xml:space="preserve" onload="init(evt)">
<style type="text/css"><![CDATA[
.edge:hover path { stroke: red; }
.edge:hover polygon { stroke: red; fill: red; }
]]></style>
<script type="text/javascript"><![CDATA[
var edges = document.getElementsByTagName('g');
if (edges && edges.length) {
  for (var i=0;i<edges.length;i++) {
    if (edges[i].id.substr(0,4)=='edge') {
      edges[i].setAttribute('class','edge');
    }
  }
}
]]></script>
        <defs>
                <circle id="rim" cx="0" cy="0" r="7"/>
                <circle id="rim2" cx="0" cy="0" r="3.5"/>
                <g id="zoomPlus">
                        <use xlink:href="#rim" fill="#404040">
                                <set attributeName="fill" to="#808080" begin="zoomplus.mouseover" end="zoomplus.mouseout"/>
                        </use>
                        <path d="M-4,0h8M0,-4v8" fill="none" stroke="white" stroke-width="1.5" pointer-events="none"/>
                </g>
                <g id="zoomMin">
                        <use xlink:href="#rim" fill="#404040">
                                <set attributeName="fill" to="#808080" begin="zoomminus.mouseover" end="zoomminus.mouseout"/>
                        </use>
                        <path d="M-4,0h8" fill="none" stroke="white" stroke-width="1.5" pointer-events="none"/>
                </g>
                <g id="dirArrow">
                        <path fill="none" stroke="white" stroke-width="1.5" d="M0,-3.0v7 M-2.5,-0.5L0,-3.0L2.5,-0.5"/>
                </g>
               <g id="resetDef">
                       <use xlink:href="#rim2" fill="#404040">
                               <set attributeName="fill" to="#808080" begin="reset.mouseover" end="reset.mouseout"/>
                       </use>
               </g>
        </defs>

<script type="text/javascript">
var viewWidth = 533;
var viewHeight = 220;
var sectionId = 'dynsection-5';
</script>
<script xlink:href="svgpan.js"/>
<svg id="graph" class="graph">
<g id="viewport">
<title>sll_s_new_array_linspace</title>
<polygon fill="#ffffff" stroke="transparent" points="-4,4 -4,-215.5 529,-215.5 529,4 -4,4"/>
<!-- Node72 -->
<g id="node1" class="node">
<title>Node72</title>
<polygon fill="#bfbfbf" stroke="#000000" points="0,-101.5 0,-120.5 140,-120.5 140,-101.5 0,-101.5"/>
<text text-anchor="middle" x="70" y="-108.5" font-family="Helvetica,sans-Serif" font-size="10.00" fill="#000000">sll_s_new_array_linspace</text>
</g>
<!-- Node73 -->
<g id="node2" class="node">
<title>Node73</title>
<g id="a_node2"><a xlink:href="namespacesll__m__poisson__2d__polar.html#a1cbf53db6d782b38d4ef697a75f70c32" target="_top" xlink:title="sll_o_initialize the Poisson solver in polar coordinates ">
<polygon fill="#ffffff" stroke="#000000" points="176,-181 176,-211 331,-211 331,-181 176,-181"/>
<text text-anchor="start" x="184" y="-199" font-family="Helvetica,sans-Serif" font-size="10.00" fill="#000000">sll_m_poisson_2d_polar</text>
<text text-anchor="middle" x="253.5" y="-188" font-family="Helvetica,sans-Serif" font-size="10.00" fill="#000000">::sll_s_poisson_2d_polar_init</text>
</a>
</g>
</g>
<!-- Node72&#45;&gt;Node73 -->
<g id="edge1" class="edge">
<title>Node72&#45;&gt;Node73</title>
<path fill="none" stroke="#191970" d="M93.1536,-125.9282C114.1665,-139.0286 146.3131,-157.9714 176,-171 184.1558,-174.5793 192.991,-177.911 201.6773,-180.9001"/>
<polygon fill="#191970" stroke="#191970" points="94.926,-122.9081 84.6006,-120.5342 91.192,-128.829 94.926,-122.9081"/>
</g>
<!-- Node75 -->
<g id="node4" class="node">
<title>Node75</title>
<g id="a_node4"><a xlink:href="namespacesll__m__poisson__2d__polar__par.html#a0f1dc18ba51644f7472cbb9f2b9b87df" target="_top" xlink:title="sll_o_initialize the Poisson solver in polar coordinates ">
<polygon fill="#ffffff" stroke="#000000" points="187,-120.5 187,-161.5 320,-161.5 320,-120.5 187,-120.5"/>
<text text-anchor="start" x="195" y="-149.5" font-family="Helvetica,sans-Serif" font-size="10.00" fill="#000000">sll_m_poisson_2d_polar</text>
<text text-anchor="start" x="195" y="-138.5" font-family="Helvetica,sans-Serif" font-size="10.00" fill="#000000">_par::sll_s_poisson_2d</text>
<text text-anchor="middle" x="253.5" y="-127.5" font-family="Helvetica,sans-Serif" font-size="10.00" fill="#000000">_polar_par_init</text>
</a>
</g>
</g>
<!-- Node72&#45;&gt;Node75 -->
<g id="edge3" class="edge">
<title>Node72&#45;&gt;Node75</title>
<path fill="none" stroke="#191970" d="M138.5096,-122.2005C154.2739,-124.7778 171.0181,-127.5152 186.7083,-130.0804"/>
<polygon fill="#191970" stroke="#191970" points="138.7464,-118.6928 128.3127,-120.5334 137.6169,-125.6011 138.7464,-118.6928"/>
</g>
<!-- Node76 -->
<g id="node5" class="node">
<title>Node76</title>
<g id="a_node5"><a xlink:href="namespacesll__m__qn__solver__2d__polar.html#a415a362f5de77031f02637bafd15b96a" target="_top" xlink:title="Initialize the solver. ">
<polygon fill="#ffffff" stroke="#000000" points="190,-60.5 190,-101.5 317,-101.5 317,-60.5 190,-60.5"/>
<text text-anchor="start" x="198" y="-89.5" font-family="Helvetica,sans-Serif" font-size="10.00" fill="#000000">sll_m_qn_solver_2d</text>
<text text-anchor="start" x="198" y="-78.5" font-family="Helvetica,sans-Serif" font-size="10.00" fill="#000000">_polar::sll_s_qn_solver</text>
<text text-anchor="middle" x="253.5" y="-67.5" font-family="Helvetica,sans-Serif" font-size="10.00" fill="#000000">_2d_polar_init</text>
</a>
</g>
</g>
<!-- Node72&#45;&gt;Node76 -->
<g id="edge4" class="edge">
<title>Node72&#45;&gt;Node76</title>
<path fill="none" stroke="#191970" d="M138.6191,-99.7816C155.4374,-97.032 173.3651,-94.1011 189.9346,-91.3922"/>
<polygon fill="#191970" stroke="#191970" points="137.6169,-96.3989 128.3127,-101.4666 138.7464,-103.3072 137.6169,-96.3989"/>
</g>
<!-- Node77 -->
<g id="node6" class="node">
<title>Node77</title>
<g id="a_node6"><a xlink:href="namespacesll__m__qn__solver__2d__polar__par.html#a469531318563d910cd216334ff4a1828" target="_top" xlink:title="Initialize the solver. ">
<polygon fill="#ffffff" stroke="#000000" points="183,-.5 183,-41.5 324,-41.5 324,-.5 183,-.5"/>
<text text-anchor="start" x="191" y="-29.5" font-family="Helvetica,sans-Serif" font-size="10.00" fill="#000000">sll_m_qn_solver_2d</text>
<text text-anchor="start" x="191" y="-18.5" font-family="Helvetica,sans-Serif" font-size="10.00" fill="#000000">_polar_par::sll_s_qn</text>
<text text-anchor="middle" x="253.5" y="-7.5" font-family="Helvetica,sans-Serif" font-size="10.00" fill="#000000">_solver_2d_polar_par_init</text>
</a>
</g>
</g>
<!-- Node72&#45;&gt;Node77 -->
<g id="edge5" class="edge">
<title>Node72&#45;&gt;Node77</title>
<path fill="none" stroke="#191970" d="M94.0645,-96.04C115.2076,-83.2231 147.0314,-64.7159 176,-51 182.9112,-47.7277 190.2825,-44.5245 197.6272,-41.502"/>
<polygon fill="#191970" stroke="#191970" points="92.1302,-93.1202 85.4236,-101.3222 95.7812,-99.0927 92.1302,-93.1202"/>
</g>
<!-- Node74 -->
<g id="node3" class="node">
<title>Node74</title>
<g id="a_node3"><a xlink:href="namespacesll__m__poisson__2d__polar.html#a626a3a26fa63ae7a36c1819d40877047" target="_top" xlink:title="OO interface: allocate pointer to Poisson solver and initialize it. ">
<polygon fill="#ffffff" stroke="#000000" points="367,-181 367,-211 525,-211 525,-181 367,-181"/>
<text text-anchor="start" x="375" y="-199" font-family="Helvetica,sans-Serif" font-size="10.00" fill="#000000">sll_m_poisson_2d_polar</text>
<text text-anchor="middle" x="446" y="-188" font-family="Helvetica,sans-Serif" font-size="10.00" fill="#000000">::sll_f_new_poisson_2d_polar</text>
</a>
</g>
</g>
<!-- Node73&#45;&gt;Node74 -->
<g id="edge2" class="edge">
<title>Node73&#45;&gt;Node74</title>
<path fill="none" stroke="#191970" d="M341.4543,-196C349.8754,-196 358.3818,-196 366.7132,-196"/>
<polygon fill="#191970" stroke="#191970" points="341.2423,-192.5001 331.2422,-196 341.2422,-199.5001 341.2423,-192.5001"/>
</g>
<!-- Node78 -->
<g id="node7" class="node">
<title>Node78</title>
<g id="a_node7"><a xlink:href="namespacesll__m__qn__solver__3d__polar__par.html#a2e6d1e5238b003c9d2a5bf33a11644d0" target="_top" xlink:title="Initialize the 3D (wrapper) solver. ">
<polygon fill="#ffffff" stroke="#000000" points="375.5,-.5 375.5,-41.5 516.5,-41.5 516.5,-.5 375.5,-.5"/>
<text text-anchor="start" x="383.5" y="-29.5" font-family="Helvetica,sans-Serif" font-size="10.00" fill="#000000">sll_m_qn_solver_3d</text>
<text text-anchor="start" x="383.5" y="-18.5" font-family="Helvetica,sans-Serif" font-size="10.00" fill="#000000">_polar_par::sll_s_qn</text>
<text text-anchor="middle" x="446" y="-7.5" font-family="Helvetica,sans-Serif" font-size="10.00" fill="#000000">_solver_3d_polar_par_init</text>
</a>
</g>
</g>
<!-- Node77&#45;&gt;Node78 -->
<g id="edge6" class="edge">
<title>Node77&#45;&gt;Node78</title>
<path fill="none" stroke="#191970" d="M334.4069,-21C348.0343,-21 362.0828,-21 375.4217,-21"/>
<polygon fill="#191970" stroke="#191970" points="334.0869,-17.5001 324.0868,-21 334.0868,-24.5001 334.0869,-17.5001"/>
</g>
</g>
</svg>
        <g id="navigator" transform="translate(0 0)" fill="#404254">
                <rect fill="#f2f5e9" fill-opacity="0.5" stroke="#606060" stroke-width=".5" x="0" y="0" width="60" height="60"/>
                <use id="zoomplus" xlink:href="#zoomPlus" x="17" y="9" onmousedown="handleZoom(evt,'in')"/>
                <use id="zoomminus" xlink:href="#zoomMin" x="42" y="9" onmousedown="handleZoom(evt,'out')"/>
                <use id="reset" xlink:href="#resetDef" x="30" y="36" onmousedown="handleReset()"/>
                <g id="arrowUp" xlink:href="#dirArrow" transform="translate(30 24)" onmousedown="handlePan(0,-1)">
                  <use xlink:href="#rim" fill="#404040">
                        <set attributeName="fill" to="#808080" begin="arrowUp.mouseover" end="arrowUp.mouseout"/>
                  </use>
                  <path fill="none" stroke="white" stroke-width="1.5" d="M0,-3.0v7 M-2.5,-0.5L0,-3.0L2.5,-0.5"/>
                </g>
                <g id="arrowRight" xlink:href="#dirArrow" transform="rotate(90) translate(36 -43)" onmousedown="handlePan(1,0)">
                  <use xlink:href="#rim" fill="#404040">
                        <set attributeName="fill" to="#808080" begin="arrowRight.mouseover" end="arrowRight.mouseout"/>
                  </use>
                  <path fill="none" stroke="white" stroke-width="1.5" d="M0,-3.0v7 M-2.5,-0.5L0,-3.0L2.5,-0.5"/>
                </g>
                <g id="arrowDown" xlink:href="#dirArrow" transform="rotate(180) translate(-30 -48)" onmousedown="handlePan(0,1)">
                  <use xlink:href="#rim" fill="#404040">
                        <set attributeName="fill" to="#808080" begin="arrowDown.mouseover" end="arrowDown.mouseout"/>
                  </use>
                  <path fill="none" stroke="white" stroke-width="1.5" d="M0,-3.0v7 M-2.5,-0.5L0,-3.0L2.5,-0.5"/>
                </g>
                <g id="arrowLeft" xlink:href="#dirArrow" transform="rotate(270) translate(-36 17)" onmousedown="handlePan(-1,0)">
                  <use xlink:href="#rim" fill="#404040">
                        <set attributeName="fill" to="#808080" begin="arrowLeft.mouseover" end="arrowLeft.mouseout"/>
                  </use>
                  <path fill="none" stroke="white" stroke-width="1.5" d="M0,-3.0v7 M-2.5,-0.5L0,-3.0L2.5,-0.5"/>
                </g>
        </g>
        <svg viewBox="0 0 15 15" width="100%" height="30px" preserveAspectRatio="xMaxYMin meet">
         <g id="arrow_out" transform="scale(0.3 0.3)">
          <a xlink:href="namespacesll__m__utilities_a597cd0038286f2ca1fbeb97af32ba146_icgraph_org.svg" target="_base">
           <rect id="button" ry="5" rx="5" y="6" x="6" height="38" width="38"
                fill="#f2f5e9" fill-opacity="0.5" stroke="#606060" stroke-width="1.0"/>
           <path id="arrow"
             d="M 11.500037,31.436501 C 11.940474,20.09759 22.043105,11.32322 32.158766,21.979434 L 37.068811,17.246167 C 37.068811,17.246167 37.088388,32 37.088388,32 L 22.160133,31.978069 C 22.160133,31.978069 26.997745,27.140456 26.997745,27.140456 C 18.528582,18.264221 13.291696,25.230495 11.500037,31.436501 z"
             style="fill:#404040;"/>
          </a>
         </g>
        </svg>
</svg>
