<?xml version="1.0" encoding="UTF-8" standalone="no"?>
<!DOCTYPE svg PUBLIC "-//W3C//DTD SVG 1.1//EN"
 "http://www.w3.org/Graphics/SVG/1.1/DTD/svg11.dtd">
<!-- Generated by graphviz version 2.40.1 (20161225.0304)
 -->
<!-- Title: hermite_c1_coef_nat_per Pages: 1 -->
<!--zoomable 149 -->
<svg id="main" version="1.1" xmlns="http://www.w3.org/2000/svg" xmlns:xlink="http://www.w3.org/1999/xlink" xml:space="preserve" onload="init(evt)">
<style type="text/css"><![CDATA[
.edge:hover path { stroke: red; }
.edge:hover polygon { stroke: red; fill: red; }
]]></style>
<script type="text/javascript"><![CDATA[
var edges = document.getElementsByTagName('g');
if (edges && edges.length) {
  for (var i=0;i<edges.length;i++) {
    if (edges[i].id.substr(0,4)=='edge') {
      edges[i].setAttribute('class','edge');
    }
  }
}
]]></script>
        <defs>
                <circle id="rim" cx="0" cy="0" r="7"/>
                <circle id="rim2" cx="0" cy="0" r="3.5"/>
                <g id="zoomPlus">
                        <use xlink:href="#rim" fill="#404040">
                                <set attributeName="fill" to="#808080" begin="zoomplus.mouseover" end="zoomplus.mouseout"/>
                        </use>
                        <path d="M-4,0h8M0,-4v8" fill="none" stroke="white" stroke-width="1.5" pointer-events="none"/>
                </g>
                <g id="zoomMin">
                        <use xlink:href="#rim" fill="#404040">
                                <set attributeName="fill" to="#808080" begin="zoomminus.mouseover" end="zoomminus.mouseout"/>
                        </use>
                        <path d="M-4,0h8" fill="none" stroke="white" stroke-width="1.5" pointer-events="none"/>
                </g>
                <g id="dirArrow">
                        <path fill="none" stroke="white" stroke-width="1.5" d="M0,-3.0v7 M-2.5,-0.5L0,-3.0L2.5,-0.5"/>
                </g>
               <g id="resetDef">
                       <use xlink:href="#rim2" fill="#404040">
                               <set attributeName="fill" to="#808080" begin="reset.mouseover" end="reset.mouseout"/>
                       </use>
               </g>
        </defs>

<script type="text/javascript">
var viewWidth = 528;
var viewHeight = 149;
var sectionId = 'dynsection-4';
</script>
<script xlink:href="svgpan.js"/>
<svg id="graph" class="graph">
<g id="viewport">
<title>hermite_c1_coef_nat_per</title>
<polygon fill="#ffffff" stroke="transparent" points="-4,4 -4,-145 524,-145 524,4 -4,4"/>
<!-- Node23 -->
<g id="node1" class="node">
<title>Node23</title>
<polygon fill="#bfbfbf" stroke="#000000" points="0,-61 0,-80 140,-80 140,-61 0,-61"/>
<text text-anchor="middle" x="70" y="-68" font-family="Helvetica,sans-Serif" font-size="10.00" fill="#000000">hermite_c1_coef_nat_per</text>
</g>
<!-- Node24 -->
<g id="node2" class="node">
<title>Node24</title>
<g id="a_node2"><a xlink:href="namespacesll__m__gyroaverage__2d__polar.html#a4e71edee1dc6cc04b3ccb2564ab2c03b" target="_top" xlink:title="sll_s_compute_gyroaverage\l_points_polar_hermite_c1">
<polygon fill="#ffffff" stroke="#000000" points="187.5,-110.5 187.5,-140.5 340.5,-140.5 340.5,-110.5 187.5,-110.5"/>
<text text-anchor="start" x="195.5" y="-128.5" font-family="Helvetica,sans-Serif" font-size="10.00" fill="#000000">sll_s_compute_gyroaverage</text>
<text text-anchor="middle" x="264" y="-117.5" font-family="Helvetica,sans-Serif" font-size="10.00" fill="#000000">_points_polar_hermite_c1</text>
</a>
</g>
</g>
<!-- Node23&#45;&gt;Node24 -->
<g id="edge1" class="edge">
<title>Node23&#45;&gt;Node24</title>
<path fill="none" stroke="#191970" d="M113.57,-82.8523C142.3662,-91.0162 180.2936,-101.7688 210.8604,-110.4346"/>
<polygon fill="#191970" stroke="#191970" points="114.3677,-79.4406 103.7922,-80.0803 112.4584,-86.1752 114.3677,-79.4406"/>
</g>
<!-- Node26 -->
<g id="node4" class="node">
<title>Node26</title>
<g id="a_node4"><a xlink:href="namespacesll__m__gyroaverage__2d__polar.html#ad41ab63a950213f472e2f5a329c72502" target="_top" xlink:title="sll_s_compute_gyroaverage\l_points_polar_with_invar\l_hermite_c1">
<polygon fill="#ffffff" stroke="#000000" points="187.5,-50 187.5,-91 340.5,-91 340.5,-50 187.5,-50"/>
<text text-anchor="start" x="195.5" y="-79" font-family="Helvetica,sans-Serif" font-size="10.00" fill="#000000">sll_s_compute_gyroaverage</text>
<text text-anchor="start" x="195.5" y="-68" font-family="Helvetica,sans-Serif" font-size="10.00" fill="#000000">_points_polar_with_invar</text>
<text text-anchor="middle" x="264" y="-57" font-family="Helvetica,sans-Serif" font-size="10.00" fill="#000000">_hermite_c1</text>
</a>
</g>
</g>
<!-- Node23&#45;&gt;Node26 -->
<g id="edge3" class="edge">
<title>Node23&#45;&gt;Node26</title>
<path fill="none" stroke="#191970" d="M150.203,-70.5C162.4276,-70.5 175.0193,-70.5 187.1693,-70.5"/>
<polygon fill="#191970" stroke="#191970" points="150.0385,-67.0001 140.0385,-70.5 150.0384,-74.0001 150.0385,-67.0001"/>
</g>
<!-- Node27 -->
<g id="node5" class="node">
<title>Node27</title>
<g id="a_node5"><a xlink:href="namespacesll__m__gyroaverage__2d__polar.html#ac99045a4e95803a8460bce27c7598b25" target="_top" xlink:title="sll_s_compute_gyroaverage\l_pre_compute_polar_hermite_c1">
<polygon fill="#ffffff" stroke="#000000" points="176,-.5 176,-30.5 352,-30.5 352,-.5 176,-.5"/>
<text text-anchor="start" x="184" y="-18.5" font-family="Helvetica,sans-Serif" font-size="10.00" fill="#000000">sll_s_compute_gyroaverage</text>
<text text-anchor="middle" x="264" y="-7.5" font-family="Helvetica,sans-Serif" font-size="10.00" fill="#000000">_pre_compute_polar_hermite_c1</text>
</a>
</g>
</g>
<!-- Node23&#45;&gt;Node27 -->
<g id="edge5" class="edge">
<title>Node23&#45;&gt;Node27</title>
<path fill="none" stroke="#191970" d="M113.57,-58.1477C142.3662,-49.9838 180.2936,-39.2312 210.8604,-30.5654"/>
<polygon fill="#191970" stroke="#191970" points="112.4584,-54.8248 103.7922,-60.9197 114.3677,-61.5594 112.4584,-54.8248"/>
</g>
<!-- Node25 -->
<g id="node3" class="node">
<title>Node25</title>
<g id="a_node3"><a xlink:href="namespacesll__m__gyroaverage__2d__polar__hermite__solver.html#afd578efdda5cfc4e19d981df4c069d6b" target="_top" xlink:title="sll_m_gyroaverage_2d\l_polar_hermite_solver\l::compute_gyroaverage\l_2d_polar_hermite">
<polygon fill="#ffffff" stroke="#000000" points="388,-44.5 388,-96.5 520,-96.5 520,-44.5 388,-44.5"/>
<text text-anchor="start" x="396" y="-84.5" font-family="Helvetica,sans-Serif" font-size="10.00" fill="#000000">sll_m_gyroaverage_2d</text>
<text text-anchor="start" x="396" y="-73.5" font-family="Helvetica,sans-Serif" font-size="10.00" fill="#000000">_polar_hermite_solver</text>
<text text-anchor="start" x="396" y="-62.5" font-family="Helvetica,sans-Serif" font-size="10.00" fill="#000000">::compute_gyroaverage</text>
<text text-anchor="middle" x="454" y="-51.5" font-family="Helvetica,sans-Serif" font-size="10.00" fill="#000000">_2d_polar_hermite</text>
</a>
</g>
</g>
<!-- Node24&#45;&gt;Node25 -->
<g id="edge2" class="edge">
<title>Node24&#45;&gt;Node25</title>
<path fill="none" stroke="#191970" d="M327.2449,-107.6087C335.574,-105.2302 343.9946,-102.8144 352,-100.5 363.6146,-97.1422 375.9631,-93.5388 387.9097,-90.0352"/>
<polygon fill="#191970" stroke="#191970" points="326.1968,-104.268 317.5394,-110.3754 328.1158,-110.9998 326.1968,-104.268"/>
</g>
<!-- Node26&#45;&gt;Node25 -->
<g id="edge4" class="edge">
<title>Node26&#45;&gt;Node25</title>
<path fill="none" stroke="#191970" d="M351.0861,-70.5C363.4846,-70.5 376.0642,-70.5 387.9722,-70.5"/>
<polygon fill="#191970" stroke="#191970" points="350.7326,-67.0001 340.7326,-70.5 350.7326,-74.0001 350.7326,-67.0001"/>
</g>
<!-- Node27&#45;&gt;Node25 -->
<g id="edge6" class="edge">
<title>Node27&#45;&gt;Node25</title>
<path fill="none" stroke="#191970" d="M327.2449,-33.3913C335.574,-35.7698 343.9946,-38.1856 352,-40.5 363.6146,-43.8578 375.9631,-47.4612 387.9097,-50.9648"/>
<polygon fill="#191970" stroke="#191970" points="328.1158,-30.0002 317.5394,-30.6246 326.1968,-36.732 328.1158,-30.0002"/>
</g>
</g>
</svg>
        <g id="navigator" transform="translate(0 0)" fill="#404254">
                <rect fill="#f2f5e9" fill-opacity="0.5" stroke="#606060" stroke-width=".5" x="0" y="0" width="60" height="60"/>
                <use id="zoomplus" xlink:href="#zoomPlus" x="17" y="9" onmousedown="handleZoom(evt,'in')"/>
                <use id="zoomminus" xlink:href="#zoomMin" x="42" y="9" onmousedown="handleZoom(evt,'out')"/>
                <use id="reset" xlink:href="#resetDef" x="30" y="36" onmousedown="handleReset()"/>
                <g id="arrowUp" xlink:href="#dirArrow" transform="translate(30 24)" onmousedown="handlePan(0,-1)">
                  <use xlink:href="#rim" fill="#404040">
                        <set attributeName="fill" to="#808080" begin="arrowUp.mouseover" end="arrowUp.mouseout"/>
                  </use>
                  <path fill="none" stroke="white" stroke-width="1.5" d="M0,-3.0v7 M-2.5,-0.5L0,-3.0L2.5,-0.5"/>
                </g>
                <g id="arrowRight" xlink:href="#dirArrow" transform="rotate(90) translate(36 -43)" onmousedown="handlePan(1,0)">
                  <use xlink:href="#rim" fill="#404040">
                        <set attributeName="fill" to="#808080" begin="arrowRight.mouseover" end="arrowRight.mouseout"/>
                  </use>
                  <path fill="none" stroke="white" stroke-width="1.5" d="M0,-3.0v7 M-2.5,-0.5L0,-3.0L2.5,-0.5"/>
                </g>
                <g id="arrowDown" xlink:href="#dirArrow" transform="rotate(180) translate(-30 -48)" onmousedown="handlePan(0,1)">
                  <use xlink:href="#rim" fill="#404040">
                        <set attributeName="fill" to="#808080" begin="arrowDown.mouseover" end="arrowDown.mouseout"/>
                  </use>
                  <path fill="none" stroke="white" stroke-width="1.5" d="M0,-3.0v7 M-2.5,-0.5L0,-3.0L2.5,-0.5"/>
                </g>
                <g id="arrowLeft" xlink:href="#dirArrow" transform="rotate(270) translate(-36 17)" onmousedown="handlePan(-1,0)">
                  <use xlink:href="#rim" fill="#404040">
                        <set attributeName="fill" to="#808080" begin="arrowLeft.mouseover" end="arrowLeft.mouseout"/>
                  </use>
                  <path fill="none" stroke="white" stroke-width="1.5" d="M0,-3.0v7 M-2.5,-0.5L0,-3.0L2.5,-0.5"/>
                </g>
        </g>
        <svg viewBox="0 0 15 15" width="100%" height="30px" preserveAspectRatio="xMaxYMin meet">
         <g id="arrow_out" transform="scale(0.3 0.3)">
          <a xlink:href="namespacesll__m__gyroaverage__2d__polar_abfb82f7f95b355d86f7f3a105dc293a6_icgraph_org.svg" target="_base">
           <rect id="button" ry="5" rx="5" y="6" x="6" height="38" width="38"
                fill="#f2f5e9" fill-opacity="0.5" stroke="#606060" stroke-width="1.0"/>
           <path id="arrow"
             d="M 11.500037,31.436501 C 11.940474,20.09759 22.043105,11.32322 32.158766,21.979434 L 37.068811,17.246167 C 37.068811,17.246167 37.088388,32 37.088388,32 L 22.160133,31.978069 C 22.160133,31.978069 26.997745,27.140456 26.997745,27.140456 C 18.528582,18.264221 13.291696,25.230495 11.500037,31.436501 z"
             style="fill:#404040;"/>
          </a>
         </g>
        </svg>
</svg>
