<?xml version="1.0" encoding="UTF-8" standalone="no"?>
<!DOCTYPE svg PUBLIC "-//W3C//DTD SVG 1.1//EN"
 "http://www.w3.org/Graphics/SVG/1.1/DTD/svg11.dtd">
<!-- Generated by graphviz version 2.40.1 (20161225.0304)
 -->
<!-- Title: write_2d_field_and_particles Pages: 1 -->
<svg width="295pt" height="324pt"
 viewBox="0.00 0.00 295.00 324.00" xmlns="http://www.w3.org/2000/svg" xmlns:xlink="http://www.w3.org/1999/xlink">
<g id="graph0" class="graph" transform="scale(1 1) rotate(0) translate(4 320)">
<title>write_2d_field_and_particles</title>
<polygon fill="#ffffff" stroke="transparent" points="-4,4 -4,-320 291,-320 291,4 -4,4"/>
<!-- Node13 -->
<g id="node1" class="node">
<title>Node13</title>
<polygon fill="#bfbfbf" stroke="#000000" points="0,-154.5 0,-184.5 108,-184.5 108,-154.5 0,-154.5"/>
<text text-anchor="start" x="8" y="-172.5" font-family="Helvetica,sans-Serif" font-size="10.00" fill="#000000">write_2d_field_and</text>
<text text-anchor="middle" x="54" y="-161.5" font-family="Helvetica,sans-Serif" font-size="10.00" fill="#000000">_particles</text>
</g>
<!-- Node14 -->
<g id="node2" class="node">
<title>Node14</title>
<g id="a_node2"><a xlink:href="namespacesll__m__utilities.html#a4d45f033e67c39369da8b297302793cb" target="_top" xlink:title="Convert an integer &lt; 9999 to a 4 characters string. ">
<polygon fill="#ffffff" stroke="#000000" points="164.5,-285.5 164.5,-315.5 266.5,-315.5 266.5,-285.5 164.5,-285.5"/>
<text text-anchor="start" x="172.5" y="-303.5" font-family="Helvetica,sans-Serif" font-size="10.00" fill="#000000">sll_m_utilities::sll</text>
<text text-anchor="middle" x="215.5" y="-292.5" font-family="Helvetica,sans-Serif" font-size="10.00" fill="#000000">_s_int2string</text>
</a>
</g>
</g>
<!-- Node13&#45;&gt;Node14 -->
<g id="edge1" class="edge">
<title>Node13&#45;&gt;Node14</title>
<path fill="none" stroke="#191970" d="M62.8233,-184.5421C77.0674,-207.5671 107.279,-251.5036 144,-276.5 147.4705,-278.8624 151.1932,-281.0095 155.0505,-282.9582"/>
<polygon fill="#191970" stroke="#191970" points="153.6895,-286.1843 164.2399,-287.153 156.5963,-279.8163 153.6895,-286.1843"/>
</g>
<!-- Node15 -->
<g id="node3" class="node">
<title>Node15</title>
<g id="a_node3"><a xlink:href="namespacesll__m__xml__io.html#aa79c90960210f0f247699f5c6559531a" target="_top" xlink:title="Create the XML file and begin to write first lines. You get the file unit number. ...">
<polygon fill="#ffffff" stroke="#000000" points="161,-236.5 161,-266.5 270,-266.5 270,-236.5 161,-236.5"/>
<text text-anchor="start" x="169" y="-254.5" font-family="Helvetica,sans-Serif" font-size="10.00" fill="#000000">sll_m_xml_io::sll_s</text>
<text text-anchor="middle" x="215.5" y="-243.5" font-family="Helvetica,sans-Serif" font-size="10.00" fill="#000000">_xml_file_create</text>
</a>
</g>
</g>
<!-- Node13&#45;&gt;Node15 -->
<g id="edge2" class="edge">
<title>Node13&#45;&gt;Node15</title>
<path fill="none" stroke="#191970" d="M74.6669,-184.5121C92.4184,-196.9279 119.0249,-214.4213 144,-226.5 148.5448,-228.698 153.3345,-230.799 158.1933,-232.7826"/>
<polygon fill="#191970" stroke="#191970" points="156.9883,-236.0694 167.5764,-236.4473 159.5349,-229.5491 156.9883,-236.0694"/>
</g>
<!-- Node16 -->
<g id="node4" class="node">
<title>Node16</title>
<g id="a_node4"><a xlink:href="namespacesll__m__pic__viewer.html#abbd474540d619d9b4aae1188372e37e4" target="_top" xlink:title="write_particles_2d_xml">
<polygon fill="#ffffff" stroke="#000000" points="150.5,-198 150.5,-217 280.5,-217 280.5,-198 150.5,-198"/>
<text text-anchor="middle" x="215.5" y="-205" font-family="Helvetica,sans-Serif" font-size="10.00" fill="#000000">write_particles_2d_xml</text>
</a>
</g>
</g>
<!-- Node13&#45;&gt;Node16 -->
<g id="edge3" class="edge">
<title>Node13&#45;&gt;Node16</title>
<path fill="none" stroke="#191970" d="M108.2264,-182.2592C126.628,-186.5889 147.0969,-191.4051 165.1807,-195.6602"/>
<polygon fill="#191970" stroke="#191970" points="164.4177,-199.0762 174.9536,-197.9597 166.0211,-192.2622 164.4177,-199.0762"/>
</g>
<!-- Node17 -->
<g id="node5" class="node">
<title>Node17</title>
<g id="a_node5"><a xlink:href="namespacesll__m__pic__viewer.html#a621ed54bf19228ba66cf15045a63adc5" target="_top" xlink:title="write_grid_2d_xml">
<polygon fill="#ffffff" stroke="#000000" points="162,-160 162,-179 269,-179 269,-160 162,-160"/>
<text text-anchor="middle" x="215.5" y="-167" font-family="Helvetica,sans-Serif" font-size="10.00" fill="#000000">write_grid_2d_xml</text>
</a>
</g>
</g>
<!-- Node13&#45;&gt;Node17 -->
<g id="edge4" class="edge">
<title>Node13&#45;&gt;Node17</title>
<path fill="none" stroke="#191970" d="M108.2264,-169.5C122.1629,-169.5 137.2852,-169.5 151.6591,-169.5"/>
<polygon fill="#191970" stroke="#191970" points="151.9656,-173.0001 161.9656,-169.5 151.9655,-166.0001 151.9656,-173.0001"/>
</g>
<!-- Node18 -->
<g id="node6" class="node">
<title>Node18</title>
<g id="a_node6"><a xlink:href="namespacesll__m__xml__io.html#a214cc5ba4867ca81aa2551a414b4d2c2" target="_top" xlink:title="Close the XML file and finish to write last lines. You give the file unit number. ...">
<polygon fill="#ffffff" stroke="#000000" points="161,-110.5 161,-140.5 270,-140.5 270,-110.5 161,-110.5"/>
<text text-anchor="start" x="169" y="-128.5" font-family="Helvetica,sans-Serif" font-size="10.00" fill="#000000">sll_m_xml_io::sll_s</text>
<text text-anchor="middle" x="215.5" y="-117.5" font-family="Helvetica,sans-Serif" font-size="10.00" fill="#000000">_xml_file_close</text>
</a>
</g>
</g>
<!-- Node13&#45;&gt;Node18 -->
<g id="edge5" class="edge">
<title>Node13&#45;&gt;Node18</title>
<path fill="none" stroke="#191970" d="M108.2264,-154.7262C122.0004,-150.9736 136.9327,-146.9053 151.1559,-143.0303"/>
<polygon fill="#191970" stroke="#191970" points="152.1383,-146.3903 160.8666,-140.3846 150.2982,-139.6365 152.1383,-146.3903"/>
</g>
<!-- Node19 -->
<g id="node7" class="node">
<title>Node19</title>
<g id="a_node7"><a xlink:href="namespacesll__m__hdf5__io__serial.html#a4ee38dc50c13e54d6b1e905ca852e49b" target="_top" xlink:title="Create new HDF5 file. ">
<polygon fill="#ffffff" stroke="#000000" points="157.5,-50 157.5,-91 273.5,-91 273.5,-50 157.5,-50"/>
<text text-anchor="start" x="165.5" y="-79" font-family="Helvetica,sans-Serif" font-size="10.00" fill="#000000">sll_m_hdf5_io_serial</text>
<text text-anchor="start" x="165.5" y="-68" font-family="Helvetica,sans-Serif" font-size="10.00" fill="#000000">::sll_s_hdf5_ser_file</text>
<text text-anchor="middle" x="215.5" y="-57" font-family="Helvetica,sans-Serif" font-size="10.00" fill="#000000">_create</text>
</a>
</g>
</g>
<!-- Node13&#45;&gt;Node19 -->
<g id="edge6" class="edge">
<title>Node13&#45;&gt;Node19</title>
<path fill="none" stroke="#191970" d="M71.3876,-154.3677C88.8997,-139.6211 117.1039,-117.1894 144,-101.5 147.4512,-99.4868 151.0577,-97.5255 154.7376,-95.631"/>
<polygon fill="#191970" stroke="#191970" points="156.5694,-98.6302 163.9896,-91.0677 153.4729,-92.3522 156.5694,-98.6302"/>
</g>
<!-- Node20 -->
<g id="node8" class="node">
<title>Node20</title>
<g id="a_node8"><a xlink:href="namespacesll__m__hdf5__io__serial.html#aad08ae9d9ee0157ed6f78f50717367f1" target="_top" xlink:title="Close existing HDF5 file. ">
<polygon fill="#ffffff" stroke="#000000" points="144,-.5 144,-30.5 287,-30.5 287,-.5 144,-.5"/>
<text text-anchor="start" x="152" y="-18.5" font-family="Helvetica,sans-Serif" font-size="10.00" fill="#000000">sll_m_hdf5_io_serial</text>
<text text-anchor="middle" x="215.5" y="-7.5" font-family="Helvetica,sans-Serif" font-size="10.00" fill="#000000">::sll_s_hdf5_ser_file_close</text>
</a>
</g>
</g>
<!-- Node13&#45;&gt;Node20 -->
<g id="edge7" class="edge">
<title>Node13&#45;&gt;Node20</title>
<path fill="none" stroke="#191970" d="M60.6192,-154.4512C73.1103,-127.7279 102.664,-71.8585 144,-40.5 146.4358,-38.6521 149.0189,-36.9337 151.7025,-35.3365"/>
<polygon fill="#191970" stroke="#191970" points="153.3649,-38.4166 160.5577,-30.6375 150.0837,-32.2333 153.3649,-38.4166"/>
</g>
</g>
</svg>
