<?xml version="1.0" encoding="UTF-8" standalone="no"?>
<!DOCTYPE svg PUBLIC "-//W3C//DTD SVG 1.1//EN"
 "http://www.w3.org/Graphics/SVG/1.1/DTD/svg11.dtd">
<!-- Generated by graphviz version 2.38.0 (20140413.2041)
 -->
<!-- Title: add_charge_single_spline_2d Pages: 1 -->
<svg width="304pt" height="88pt"
 viewBox="0.00 0.00 304.00 88.00" xmlns="http://www.w3.org/2000/svg" xmlns:xlink="http://www.w3.org/1999/xlink">
<g id="graph0" class="graph" transform="scale(1 1) rotate(0) translate(4 84)">
<title>add_charge_single_spline_2d</title>
<polygon fill="white" stroke="none" points="-4,4 -4,-84 300,-84 300,4 -4,4"/>
<!-- Node1 -->
<g id="node1" class="node"><title>Node1</title>
<polygon fill="#bfbfbf" stroke="black" points="0,-30 0,-49 144,-49 144,-30 0,-30"/>
<text text-anchor="middle" x="72" y="-37" font-family="Helvetica,sans-Serif" font-size="10.00">add_charge_single_spline_2d</text>
</g>
<!-- Node2 -->
<g id="node2" class="node"><title>Node2</title>
<g id="a_node2"><a xlink:href="namespacesll__m__particle__mesh__coupling__spline__2d.html#a02a86e53e9eacc0ed74818d1231e312d" target="_top" xlink:title="Helper function computing shape factor. ">
<polygon fill="white" stroke="black" points="180,-49.5 180,-79.5 296,-79.5 296,-49.5 180,-49.5"/>
<text text-anchor="start" x="188" y="-67.5" font-family="Helvetica,sans-Serif" font-size="10.00">compute_shape_factor</text>
<text text-anchor="middle" x="238" y="-56.5" font-family="Helvetica,sans-Serif" font-size="10.00">_spline_2d</text>
</a>
</g>
</g>
<!-- Node1&#45;&gt;Node2 -->
<g id="edge1" class="edge"><title>Node1&#45;&gt;Node2</title>
<path fill="none" stroke="midnightblue" d="M135.469,-49.0227C146.741,-50.741 158.536,-52.539 169.932,-54.2762"/>
<polygon fill="midnightblue" stroke="midnightblue" points="169.408,-57.7367 179.822,-55.7838 170.463,-50.8167 169.408,-57.7367"/>
</g>
<!-- Node3 -->
<g id="node3" class="node"><title>Node3</title>
<g id="a_node3"><a xlink:href="namespacesll__m__particle__mesh__coupling__spline__2d.html#a3cee104f8310c4bdf9b8b8097a6009cb" target="_top" xlink:title="index_1dto2d_column\l_major">
<polygon fill="white" stroke="black" points="182.5,-0.5 182.5,-30.5 293.5,-30.5 293.5,-0.5 182.5,-0.5"/>
<text text-anchor="start" x="190.5" y="-18.5" font-family="Helvetica,sans-Serif" font-size="10.00">index_1dto2d_column</text>
<text text-anchor="middle" x="238" y="-7.5" font-family="Helvetica,sans-Serif" font-size="10.00">_major</text>
</a>
</g>
</g>
<!-- Node1&#45;&gt;Node3 -->
<g id="edge2" class="edge"><title>Node1&#45;&gt;Node3</title>
<path fill="none" stroke="midnightblue" d="M138.288,-29.9456C149.504,-28.3043 161.156,-26.5992 172.355,-24.9603"/>
<polygon fill="midnightblue" stroke="midnightblue" points="173.099,-28.3888 182.487,-23.4776 172.085,-21.4625 173.099,-28.3888"/>
</g>
</g>
</svg>
