<?xml version="1.0" encoding="UTF-8" standalone="no"?>
<!DOCTYPE svg PUBLIC "-//W3C//DTD SVG 1.1//EN"
 "http://www.w3.org/Graphics/SVG/1.1/DTD/svg11.dtd">
<!-- Generated by graphviz version 2.43.0 (0)
 -->
<!-- Title: sll_s_localize_polar Pages: 1 -->
<svg width="569pt" height="165pt"
 viewBox="0.00 0.00 569.00 165.00" xmlns="http://www.w3.org/2000/svg" xmlns:xlink="http://www.w3.org/1999/xlink">
<g id="graph0" class="graph" transform="scale(1 1) rotate(0) translate(4 161)">
<title>sll_s_localize_polar</title>
<polygon fill="white" stroke="transparent" points="-4,4 -4,-161 565,-161 565,4 -4,4"/>
<!-- Node1 -->
<g id="node1" class="node">
<title>Node1</title>
<g id="a_node1"><a xlink:title=" ">
<polygon fill="#bfbfbf" stroke="black" points="450,-66.5 450,-85.5 561,-85.5 561,-66.5 450,-66.5"/>
<text text-anchor="middle" x="505.5" y="-73.5" font-family="Helvetica,sans-Serif" font-size="10.00">sll_s_localize_polar</text>
</a>
</g>
</g>
<!-- Node2 -->
<g id="node2" class="node">
<title>Node2</title>
<g id="a_node2"><a xlink:href="namespacesll__m__qn__2d__polar__precompute.html#af5241a268657b5cb855bfc84e92f8643" target="_top" xlink:title=" ">
<polygon fill="white" stroke="black" points="207,-115.5 207,-156.5 414,-156.5 414,-115.5 207,-115.5"/>
<text text-anchor="start" x="215" y="-144.5" font-family="Helvetica,sans-Serif" font-size="10.00">sll_m_qn_2d_polar_precompute</text>
<text text-anchor="start" x="215" y="-133.5" font-family="Helvetica,sans-Serif" font-size="10.00">::pre_precompute_double_gyroaverage</text>
<text text-anchor="middle" x="310.5" y="-122.5" font-family="Helvetica,sans-Serif" font-size="10.00">_coeff_polar_splines</text>
</a>
</g>
</g>
<!-- Node1&#45;&gt;Node2 -->
<g id="edge1" class="edge">
<title>Node1&#45;&gt;Node2</title>
<path fill="none" stroke="midnightblue" d="M466.79,-88.83C450.58,-94.26 431.4,-100.57 414,-106 404,-109.12 393.42,-112.32 383.01,-115.42"/>
<polygon fill="midnightblue" stroke="midnightblue" points="468.09,-92.09 476.45,-85.58 465.86,-85.45 468.09,-92.09"/>
</g>
<!-- Node4 -->
<g id="node4" class="node">
<title>Node4</title>
<g id="a_node4"><a xlink:href="namespacesll__m__qn__2d__polar__precompute.html#a7ad60672f52b58e23fc83914c6fab721" target="_top" xlink:title=" ">
<polygon fill="white" stroke="black" points="217.5,-55.5 217.5,-96.5 403.5,-96.5 403.5,-55.5 217.5,-55.5"/>
<text text-anchor="start" x="225.5" y="-84.5" font-family="Helvetica,sans-Serif" font-size="10.00">sll_m_qn_2d_polar_precompute</text>
<text text-anchor="start" x="225.5" y="-73.5" font-family="Helvetica,sans-Serif" font-size="10.00">::precompute_double_gyroaverage</text>
<text text-anchor="middle" x="310.5" y="-62.5" font-family="Helvetica,sans-Serif" font-size="10.00">_coeff_polar_splines</text>
</a>
</g>
</g>
<!-- Node1&#45;&gt;Node4 -->
<g id="edge3" class="edge">
<title>Node1&#45;&gt;Node4</title>
<path fill="none" stroke="midnightblue" d="M439.9,-76C428.21,-76 415.82,-76 403.52,-76"/>
<polygon fill="midnightblue" stroke="midnightblue" points="439.97,-79.5 449.97,-76 439.97,-72.5 439.97,-79.5"/>
</g>
<!-- Node5 -->
<g id="node5" class="node">
<title>Node5</title>
<g id="a_node5"><a xlink:href="namespacesll__m__qn__2d__polar.html#ab7df0b913d3a672e52e0856979998724" target="_top" xlink:title=" ">
<polygon fill="white" stroke="black" points="226,-6 226,-36 395,-36 395,-6 226,-6"/>
<text text-anchor="start" x="234" y="-24" font-family="Helvetica,sans-Serif" font-size="10.00">sll_s_precompute_gyroaverage</text>
<text text-anchor="middle" x="310.5" y="-13" font-family="Helvetica,sans-Serif" font-size="10.00">_index</text>
</a>
</g>
</g>
<!-- Node1&#45;&gt;Node5 -->
<g id="edge5" class="edge">
<title>Node1&#45;&gt;Node5</title>
<path fill="none" stroke="midnightblue" d="M467.63,-63.03C451.3,-57.48 431.79,-51.11 414,-46 401.94,-42.54 389,-39.14 376.5,-36.01"/>
<polygon fill="midnightblue" stroke="midnightblue" points="466.76,-66.43 477.35,-66.36 469.03,-59.81 466.76,-66.43"/>
</g>
<!-- Node3 -->
<g id="node3" class="node">
<title>Node3</title>
<g id="a_node3"><a xlink:href="namespacesll__m__qn__2d__polar__precompute.html#a41d1928c191efdcfecf8bbb3688e7cee" target="_top" xlink:title=" ">
<polygon fill="white" stroke="black" points="0,-87.5 0,-128.5 171,-128.5 171,-87.5 0,-87.5"/>
<text text-anchor="start" x="8" y="-116.5" font-family="Helvetica,sans-Serif" font-size="10.00">sll_m_qn_2d_polar_precompute</text>
<text text-anchor="start" x="8" y="-105.5" font-family="Helvetica,sans-Serif" font-size="10.00">::sll_s_compute_qns_matrix</text>
<text text-anchor="middle" x="85.5" y="-94.5" font-family="Helvetica,sans-Serif" font-size="10.00">_polar_splines</text>
</a>
</g>
</g>
<!-- Node2&#45;&gt;Node3 -->
<g id="edge2" class="edge">
<title>Node2&#45;&gt;Node3</title>
<path fill="none" stroke="midnightblue" d="M196.76,-121.84C188.19,-120.77 179.63,-119.69 171.29,-118.65"/>
<polygon fill="midnightblue" stroke="midnightblue" points="196.45,-125.33 206.81,-123.11 197.33,-118.39 196.45,-125.33"/>
</g>
<!-- Node4&#45;&gt;Node3 -->
<g id="edge4" class="edge">
<title>Node4&#45;&gt;Node3</title>
<path fill="none" stroke="midnightblue" d="M207.14,-90.69C195.13,-92.41 182.98,-94.16 171.24,-95.84"/>
<polygon fill="midnightblue" stroke="midnightblue" points="207.79,-94.13 217.19,-89.25 206.79,-87.2 207.79,-94.13"/>
</g>
<!-- Node6 -->
<g id="node6" class="node">
<title>Node6</title>
<g id="a_node6"><a xlink:href="namespacesll__m__qn__2d__polar__splines__solver.html#ad8c21089183e4a8bcdb6bd79c1e37a4b" target="_top" xlink:title=" ">
<polygon fill="white" stroke="black" points="12,-0.5 12,-41.5 159,-41.5 159,-0.5 12,-0.5"/>
<text text-anchor="start" x="20" y="-29.5" font-family="Helvetica,sans-Serif" font-size="10.00">sll_m_qn_2d_polar_splines</text>
<text text-anchor="start" x="20" y="-18.5" font-family="Helvetica,sans-Serif" font-size="10.00">_solver::precompute_qn</text>
<text text-anchor="middle" x="85.5" y="-7.5" font-family="Helvetica,sans-Serif" font-size="10.00">_2d_polar_splines</text>
</a>
</g>
</g>
<!-- Node5&#45;&gt;Node6 -->
<g id="edge6" class="edge">
<title>Node5&#45;&gt;Node6</title>
<path fill="none" stroke="midnightblue" d="M215.74,-21C196.87,-21 177.31,-21 159.29,-21"/>
<polygon fill="midnightblue" stroke="midnightblue" points="215.83,-24.5 225.83,-21 215.83,-17.5 215.83,-24.5"/>
</g>
</g>
</svg>
