<?xml version="1.0" encoding="UTF-8" standalone="no"?>
<!DOCTYPE svg PUBLIC "-//W3C//DTD SVG 1.1//EN"
 "http://www.w3.org/Graphics/SVG/1.1/DTD/svg11.dtd">
<!-- Generated by graphviz version 2.38.0 (20140413.2041)
 -->
<!-- Title: sll_s_solve_cyclic_tridiag_double Pages: 1 -->
<svg width="586pt" height="531pt"
 viewBox="0.00 0.00 586.00 530.50" xmlns="http://www.w3.org/2000/svg" xmlns:xlink="http://www.w3.org/1999/xlink">
<g id="graph0" class="graph" transform="scale(1 1) rotate(0) translate(4 526.5)">
<title>sll_s_solve_cyclic_tridiag_double</title>
<polygon fill="white" stroke="none" points="-4,4 -4,-526.5 582,-526.5 582,4 -4,4"/>
<!-- Node1 -->
<g id="node1" class="node"><title>Node1</title>
<polygon fill="#bfbfbf" stroke="black" points="0,-258 0,-288 96,-288 96,-258 0,-258"/>
<text text-anchor="start" x="8" y="-276" font-family="Helvetica,sans-Serif" font-size="10.00">sll_s_solve_cyclic</text>
<text text-anchor="middle" x="48" y="-265" font-family="Helvetica,sans-Serif" font-size="10.00">_tridiag_double</text>
</g>
<!-- Node2 -->
<g id="node2" class="node"><title>Node2</title>
<g id="a_node2"><a xlink:href="namespacesll__m__cubic__splines.html#a78c2f7524989143dc18bfbe96f7667fb" target="_top" xlink:title="sll_m_cubic_splines\l::compute_spline_1d\l_periodic">
<polygon fill="white" stroke="black" points="132,-282.5 132,-323.5 239,-323.5 239,-282.5 132,-282.5"/>
<text text-anchor="start" x="140" y="-311.5" font-family="Helvetica,sans-Serif" font-size="10.00">sll_m_cubic_splines</text>
<text text-anchor="start" x="140" y="-300.5" font-family="Helvetica,sans-Serif" font-size="10.00">::compute_spline_1d</text>
<text text-anchor="middle" x="185.5" y="-289.5" font-family="Helvetica,sans-Serif" font-size="10.00">_periodic</text>
</a>
</g>
</g>
<!-- Node1&#45;&gt;Node2 -->
<g id="edge1" class="edge"><title>Node1&#45;&gt;Node2</title>
<path fill="none" stroke="midnightblue" d="M105.86,-285.589C114.37,-287.473 123.116,-289.409 131.541,-291.275"/>
<polygon fill="midnightblue" stroke="midnightblue" points="106.531,-282.153 96.011,-283.408 105.018,-288.987 106.531,-282.153"/>
</g>
<!-- Node13 -->
<g id="node13" class="node"><title>Node13</title>
<g id="a_node13"><a xlink:href="namespacesll__m__cubic__splines.html#a813ec77055a7936e0c4697d0098178a2" target="_top" xlink:title="sll_m_cubic_splines\l::compute_spline_1d\l_hermite">
<polygon fill="white" stroke="black" points="132,-222.5 132,-263.5 239,-263.5 239,-222.5 132,-222.5"/>
<text text-anchor="start" x="140" y="-251.5" font-family="Helvetica,sans-Serif" font-size="10.00">sll_m_cubic_splines</text>
<text text-anchor="start" x="140" y="-240.5" font-family="Helvetica,sans-Serif" font-size="10.00">::compute_spline_1d</text>
<text text-anchor="middle" x="185.5" y="-229.5" font-family="Helvetica,sans-Serif" font-size="10.00">_hermite</text>
</a>
</g>
</g>
<!-- Node1&#45;&gt;Node13 -->
<g id="edge12" class="edge"><title>Node1&#45;&gt;Node13</title>
<path fill="none" stroke="midnightblue" d="M105.86,-260.411C114.37,-258.527 123.116,-256.591 131.541,-254.725"/>
<polygon fill="midnightblue" stroke="midnightblue" points="105.018,-257.013 96.011,-262.592 106.531,-263.847 105.018,-257.013"/>
</g>
<!-- Node3 -->
<g id="node3" class="node"><title>Node3</title>
<g id="a_node3"><a xlink:href="namespacesll__m__cubic__splines.html#afdbb33643f3eff066e078cc08ff261db" target="_top" xlink:title="Computes the cubic spline coefficients corresponding to the 1D data array &#39;f&#39;. ">
<polygon fill="white" stroke="black" points="275,-252.5 275,-293.5 400,-293.5 400,-252.5 275,-252.5"/>
<text text-anchor="start" x="283" y="-281.5" font-family="Helvetica,sans-Serif" font-size="10.00">sll_m_cubic_splines</text>
<text text-anchor="start" x="283" y="-270.5" font-family="Helvetica,sans-Serif" font-size="10.00">::sll_s_cubic_spline</text>
<text text-anchor="middle" x="337.5" y="-259.5" font-family="Helvetica,sans-Serif" font-size="10.00">_1d_compute_interpolant</text>
</a>
</g>
</g>
<!-- Node2&#45;&gt;Node3 -->
<g id="edge2" class="edge"><title>Node2&#45;&gt;Node3</title>
<path fill="none" stroke="midnightblue" d="M249.216,-290.457C257.699,-288.76 266.397,-287.021 274.86,-285.328"/>
<polygon fill="midnightblue" stroke="midnightblue" points="248.504,-287.03 239.384,-292.423 249.877,-293.894 248.504,-287.03"/>
</g>
<!-- Node4 -->
<g id="node4" class="node"><title>Node4</title>
<g id="a_node4"><a xlink:href="namespacesll__m__fdistribu4d__dk.html#ad019b52770477f636c8115bc5ad20475" target="_top" xlink:title="sll_m_fdistribu4d_dk\l::function_xy_from_r">
<polygon fill="white" stroke="black" points="454,-492 454,-522 560,-522 560,-492 454,-492"/>
<text text-anchor="start" x="462" y="-510" font-family="Helvetica,sans-Serif" font-size="10.00">sll_m_fdistribu4d_dk</text>
<text text-anchor="middle" x="507" y="-499" font-family="Helvetica,sans-Serif" font-size="10.00">::function_xy_from_r</text>
</a>
</g>
</g>
<!-- Node3&#45;&gt;Node4 -->
<g id="edge3" class="edge"><title>Node3&#45;&gt;Node4</title>
<path fill="none" stroke="midnightblue" d="M344.634,-303.346C355.342,-348.708 381.691,-434.083 436,-483 441.155,-487.643 447.249,-491.395 453.658,-494.426"/>
<polygon fill="midnightblue" stroke="midnightblue" points="348.029,-302.492 342.41,-293.51 341.201,-304.036 348.029,-302.492"/>
</g>
<!-- Node5 -->
<g id="node5" class="node"><title>Node5</title>
<g id="a_node5"><a xlink:href="namespacesll__m__cubic__spline__interpolator__1d.html#ab8a181e5359e6b21447adfc487b11bba" target="_top" xlink:title="sll_m_cubic_spline\l_interpolator_1d::spline\l_interpolate1d">
<polygon fill="white" stroke="black" points="448.5,-432.5 448.5,-473.5 565.5,-473.5 565.5,-432.5 448.5,-432.5"/>
<text text-anchor="start" x="456.5" y="-461.5" font-family="Helvetica,sans-Serif" font-size="10.00">sll_m_cubic_spline</text>
<text text-anchor="start" x="456.5" y="-450.5" font-family="Helvetica,sans-Serif" font-size="10.00">_interpolator_1d::spline</text>
<text text-anchor="middle" x="507" y="-439.5" font-family="Helvetica,sans-Serif" font-size="10.00">_interpolate1d</text>
</a>
</g>
</g>
<!-- Node3&#45;&gt;Node5 -->
<g id="edge4" class="edge"><title>Node3&#45;&gt;Node5</title>
<path fill="none" stroke="midnightblue" d="M351.395,-302.936C367.072,-336.226 396.421,-389.687 436,-423 440.147,-426.491 444.762,-429.633 449.587,-432.449"/>
<polygon fill="midnightblue" stroke="midnightblue" points="354.51,-301.333 347.155,-293.706 348.149,-304.255 354.51,-301.333"/>
</g>
<!-- Node6 -->
<g id="node6" class="node"><title>Node6</title>
<g id="a_node6"><a xlink:href="namespacesll__m__cubic__spline__interpolator__1d.html#abe4c9e034ac1540b8d94dc4ace1a6f70" target="_top" xlink:title="Computes the interpolated values at each grid point replaced by alpha using cubic spline interpolatio...">
<polygon fill="white" stroke="black" points="448.5,-372.5 448.5,-413.5 565.5,-413.5 565.5,-372.5 448.5,-372.5"/>
<text text-anchor="start" x="456.5" y="-401.5" font-family="Helvetica,sans-Serif" font-size="10.00">sll_m_cubic_spline</text>
<text text-anchor="start" x="456.5" y="-390.5" font-family="Helvetica,sans-Serif" font-size="10.00">_interpolator_1d::spline</text>
<text text-anchor="middle" x="507" y="-379.5" font-family="Helvetica,sans-Serif" font-size="10.00">_interpolate1d_disp</text>
</a>
</g>
</g>
<!-- Node3&#45;&gt;Node6 -->
<g id="edge5" class="edge"><title>Node3&#45;&gt;Node6</title>
<path fill="none" stroke="midnightblue" d="M363.951,-301.098C382.512,-320.371 409.038,-345.521 436,-363 441.214,-366.38 446.874,-369.531 452.639,-372.421"/>
<polygon fill="midnightblue" stroke="midnightblue" points="366.419,-298.613 356.998,-293.765 361.339,-303.43 366.419,-298.613"/>
</g>
<!-- Node7 -->
<g id="node7" class="node"><title>Node7</title>
<g id="a_node7"><a xlink:href="namespacesll__m__cubic__spline__interpolator__1d.html#a9b93d13cff3e434180f86bea86b590a0" target="_top" xlink:title="sll_m_cubic_spline\l_interpolator_1d::spline\l_interpolate1d_disp_inplace">
<polygon fill="white" stroke="black" points="438.5,-312.5 438.5,-353.5 575.5,-353.5 575.5,-312.5 438.5,-312.5"/>
<text text-anchor="start" x="446.5" y="-341.5" font-family="Helvetica,sans-Serif" font-size="10.00">sll_m_cubic_spline</text>
<text text-anchor="start" x="446.5" y="-330.5" font-family="Helvetica,sans-Serif" font-size="10.00">_interpolator_1d::spline</text>
<text text-anchor="middle" x="507" y="-319.5" font-family="Helvetica,sans-Serif" font-size="10.00">_interpolate1d_disp_inplace</text>
</a>
</g>
</g>
<!-- Node3&#45;&gt;Node7 -->
<g id="edge6" class="edge"><title>Node3&#45;&gt;Node7</title>
<path fill="none" stroke="midnightblue" d="M405.818,-297.114C419.973,-302.184 434.78,-307.488 448.534,-312.415"/>
<polygon fill="midnightblue" stroke="midnightblue" points="406.739,-293.726 396.144,-293.649 404.378,-300.316 406.739,-293.726"/>
</g>
<!-- Node8 -->
<g id="node8" class="node"><title>Node8</title>
<g id="a_node8"><a xlink:href="namespacesll__m__cubic__spline__interpolator__1d.html#a066c04e2f54afd06b3fb6da7d4a81d71" target="_top" xlink:title="sll_m_cubic_spline\l_interpolator_1d::compute\l_interpolants_cs1d">
<polygon fill="white" stroke="black" points="442.5,-252.5 442.5,-293.5 571.5,-293.5 571.5,-252.5 442.5,-252.5"/>
<text text-anchor="start" x="450.5" y="-281.5" font-family="Helvetica,sans-Serif" font-size="10.00">sll_m_cubic_spline</text>
<text text-anchor="start" x="450.5" y="-270.5" font-family="Helvetica,sans-Serif" font-size="10.00">_interpolator_1d::compute</text>
<text text-anchor="middle" x="507" y="-259.5" font-family="Helvetica,sans-Serif" font-size="10.00">_interpolants_cs1d</text>
</a>
</g>
</g>
<!-- Node3&#45;&gt;Node8 -->
<g id="edge7" class="edge"><title>Node3&#45;&gt;Node8</title>
<path fill="none" stroke="midnightblue" d="M410.473,-273C421.091,-273 431.966,-273 442.398,-273"/>
<polygon fill="midnightblue" stroke="midnightblue" points="410.395,-269.5 400.395,-273 410.395,-276.5 410.395,-269.5"/>
</g>
<!-- Node9 -->
<g id="node9" class="node"><title>Node9</title>
<g id="a_node9"><a xlink:href="namespacesll__m__cubic__spline__interpolator__1d__nonuniform.html#ae95057946b4f429cb6eb045cdf981cbb" target="_top" xlink:title="sll_m_cubic_spline\l_interpolator_1d_nonuniform\l::spline_interpolate1d">
<polygon fill="white" stroke="black" points="437.5,-192.5 437.5,-233.5 576.5,-233.5 576.5,-192.5 437.5,-192.5"/>
<text text-anchor="start" x="445.5" y="-221.5" font-family="Helvetica,sans-Serif" font-size="10.00">sll_m_cubic_spline</text>
<text text-anchor="start" x="445.5" y="-210.5" font-family="Helvetica,sans-Serif" font-size="10.00">_interpolator_1d_nonuniform</text>
<text text-anchor="middle" x="507" y="-199.5" font-family="Helvetica,sans-Serif" font-size="10.00">::spline_interpolate1d</text>
</a>
</g>
</g>
<!-- Node3&#45;&gt;Node9 -->
<g id="edge8" class="edge"><title>Node3&#45;&gt;Node9</title>
<path fill="none" stroke="midnightblue" d="M405.818,-248.886C419.973,-243.816 434.78,-238.512 448.534,-233.585"/>
<polygon fill="midnightblue" stroke="midnightblue" points="404.378,-245.684 396.144,-252.351 406.739,-252.274 404.378,-245.684"/>
</g>
<!-- Node10 -->
<g id="node10" class="node"><title>Node10</title>
<g id="a_node10"><a xlink:href="namespacesll__m__cubic__spline__interpolator__1d__nonuniform.html#af53ddbd763184d9522db48311097a230" target="_top" xlink:title="sll_m_cubic_spline\l_interpolator_1d_nonuniform\l::spline_interpolate1d_disp">
<polygon fill="white" stroke="black" points="437.5,-132.5 437.5,-173.5 576.5,-173.5 576.5,-132.5 437.5,-132.5"/>
<text text-anchor="start" x="445.5" y="-161.5" font-family="Helvetica,sans-Serif" font-size="10.00">sll_m_cubic_spline</text>
<text text-anchor="start" x="445.5" y="-150.5" font-family="Helvetica,sans-Serif" font-size="10.00">_interpolator_1d_nonuniform</text>
<text text-anchor="middle" x="507" y="-139.5" font-family="Helvetica,sans-Serif" font-size="10.00">::spline_interpolate1d_disp</text>
</a>
</g>
</g>
<!-- Node3&#45;&gt;Node10 -->
<g id="edge9" class="edge"><title>Node3&#45;&gt;Node10</title>
<path fill="none" stroke="midnightblue" d="M363.951,-244.902C382.512,-225.629 409.038,-200.479 436,-183 441.214,-179.62 446.874,-176.469 452.639,-173.579"/>
<polygon fill="midnightblue" stroke="midnightblue" points="361.339,-242.57 356.998,-252.235 366.419,-247.387 361.339,-242.57"/>
</g>
<!-- Node11 -->
<g id="node11" class="node"><title>Node11</title>
<g id="a_node11"><a xlink:href="namespacesll__m__cubic__spline__interpolator__1d__nonuniform.html#a02beec466d1229b3850dfcaea9eaa8af" target="_top" xlink:title="sll_m_cubic_spline\l_interpolator_1d_nonuniform\l::spline_interpolate1d_disp\l_inplace">
<polygon fill="white" stroke="black" points="437.5,-61 437.5,-113 576.5,-113 576.5,-61 437.5,-61"/>
<text text-anchor="start" x="445.5" y="-101" font-family="Helvetica,sans-Serif" font-size="10.00">sll_m_cubic_spline</text>
<text text-anchor="start" x="445.5" y="-90" font-family="Helvetica,sans-Serif" font-size="10.00">_interpolator_1d_nonuniform</text>
<text text-anchor="start" x="445.5" y="-79" font-family="Helvetica,sans-Serif" font-size="10.00">::spline_interpolate1d_disp</text>
<text text-anchor="middle" x="507" y="-68" font-family="Helvetica,sans-Serif" font-size="10.00">_inplace</text>
</a>
</g>
</g>
<!-- Node3&#45;&gt;Node11 -->
<g id="edge10" class="edge"><title>Node3&#45;&gt;Node11</title>
<path fill="none" stroke="midnightblue" d="M351.963,-243.295C368.067,-210.439 397.718,-157.585 436,-123 439.955,-119.427 444.329,-116.107 448.903,-113.047"/>
<polygon fill="midnightblue" stroke="midnightblue" points="348.763,-241.873 347.595,-252.403 355.075,-244.9 348.763,-241.873"/>
</g>
<!-- Node12 -->
<g id="node12" class="node"><title>Node12</title>
<g id="a_node12"><a xlink:href="namespacesll__m__cubic__spline__interpolator__1d__nonuniform.html#abd3af9c4360ae59306613d94743de5a2" target="_top" xlink:title="sll_m_cubic_spline\l_interpolator_1d_nonuniform\l::compute_interpolants_cs1d">
<polygon fill="white" stroke="black" points="436,-0.5 436,-41.5 578,-41.5 578,-0.5 436,-0.5"/>
<text text-anchor="start" x="444" y="-29.5" font-family="Helvetica,sans-Serif" font-size="10.00">sll_m_cubic_spline</text>
<text text-anchor="start" x="444" y="-18.5" font-family="Helvetica,sans-Serif" font-size="10.00">_interpolator_1d_nonuniform</text>
<text text-anchor="middle" x="507" y="-7.5" font-family="Helvetica,sans-Serif" font-size="10.00">::compute_interpolants_cs1d</text>
</a>
</g>
</g>
<!-- Node3&#45;&gt;Node12 -->
<g id="edge11" class="edge"><title>Node3&#45;&gt;Node12</title>
<path fill="none" stroke="midnightblue" d="M344.39,-242.483C354.931,-195.515 381.242,-105.271 436,-51 439.569,-47.4632 443.62,-44.3154 447.932,-41.519"/>
<polygon fill="midnightblue" stroke="midnightblue" points="340.946,-241.85 342.264,-252.362 347.79,-243.322 340.946,-241.85"/>
</g>
<!-- Node13&#45;&gt;Node3 -->
<g id="edge13" class="edge"><title>Node13&#45;&gt;Node3</title>
<path fill="none" stroke="midnightblue" d="M249.216,-255.543C257.699,-257.24 266.397,-258.979 274.86,-260.672"/>
<polygon fill="midnightblue" stroke="midnightblue" points="249.877,-252.106 239.384,-253.577 248.504,-258.97 249.877,-252.106"/>
</g>
</g>
</svg>
