<?xml version="1.0" encoding="UTF-8" standalone="no"?>
<!DOCTYPE svg PUBLIC "-//W3C//DTD SVG 1.1//EN"
 "http://www.w3.org/Graphics/SVG/1.1/DTD/svg11.dtd">
<!-- Generated by graphviz version 2.43.0 (0)
 -->
<!-- Title: interpolate_array_disp_inplace_li1d Pages: 1 -->
<svg width="328pt" height="50pt"
 viewBox="0.00 0.00 328.00 50.00" xmlns="http://www.w3.org/2000/svg" xmlns:xlink="http://www.w3.org/1999/xlink">
<g id="graph0" class="graph" transform="scale(1 1) rotate(0) translate(4 46)">
<title>interpolate_array_disp_inplace_li1d</title>
<polygon fill="white" stroke="transparent" points="-4,4 -4,-46 324,-46 324,4 -4,4"/>
<!-- Node1 -->
<g id="node1" class="node">
<title>Node1</title>
<g id="a_node1"><a xlink:title=" ">
<polygon fill="#bfbfbf" stroke="black" points="0,-6 0,-36 126,-36 126,-6 0,-6"/>
<text text-anchor="start" x="8" y="-24" font-family="Helvetica,sans-Serif" font-size="10.00">interpolate_array_disp</text>
<text text-anchor="middle" x="63" y="-13" font-family="Helvetica,sans-Serif" font-size="10.00">_inplace_li1d</text>
</a>
</g>
</g>
<!-- Node2 -->
<g id="node2" class="node">
<title>Node2</title>
<g id="a_node2"><a xlink:href="namespacesll__m__lagrange__interpolation__1d.html#a3bc81cd2044b34d96be5a0bc902f3fdd" target="_top" xlink:title="This function computes the value at the grid points displacement by &#45;alpha.">
<polygon fill="white" stroke="black" points="162,-0.5 162,-41.5 320,-41.5 320,-0.5 162,-0.5"/>
<text text-anchor="start" x="170" y="-29.5" font-family="Helvetica,sans-Serif" font-size="10.00">sll_m_lagrange_interpolation</text>
<text text-anchor="start" x="170" y="-18.5" font-family="Helvetica,sans-Serif" font-size="10.00">_1d::sll_s_cubic_spline_1d</text>
<text text-anchor="middle" x="241" y="-7.5" font-family="Helvetica,sans-Serif" font-size="10.00">_eval_array</text>
</a>
</g>
</g>
<!-- Node1&#45;&gt;Node2 -->
<g id="edge1" class="edge">
<title>Node1&#45;&gt;Node2</title>
<path fill="none" stroke="midnightblue" d="M126.05,-21C134.37,-21 143.04,-21 151.7,-21"/>
<polygon fill="midnightblue" stroke="midnightblue" points="151.86,-24.5 161.86,-21 151.86,-17.5 151.86,-24.5"/>
</g>
</g>
</svg>
