<?xml version="1.0" encoding="UTF-8" standalone="no"?>
<!DOCTYPE svg PUBLIC "-//W3C//DTD SVG 1.1//EN"
 "http://www.w3.org/Graphics/SVG/1.1/DTD/svg11.dtd">
<!-- Generated by graphviz version 2.43.0 (0)
 -->
<!-- Title: s_nml_mesh_1d_unif_cart_mesh Pages: 1 -->
<svg width="473pt" height="50pt"
 viewBox="0.00 0.00 473.00 50.00" xmlns="http://www.w3.org/2000/svg" xmlns:xlink="http://www.w3.org/1999/xlink">
<g id="graph0" class="graph" transform="scale(1 1) rotate(0) translate(4 46)">
<title>s_nml_mesh_1d_unif_cart_mesh</title>
<polygon fill="white" stroke="transparent" points="-4,4 -4,-46 469,-46 469,4 -4,4"/>
<!-- Node1 -->
<g id="node1" class="node">
<title>Node1</title>
<g id="a_node1"><a xlink:title="create 1d (uniform) cartesian mesh from namelist">
<polygon fill="#bfbfbf" stroke="black" points="0,-6 0,-36 119,-36 119,-6 0,-6"/>
<text text-anchor="start" x="8" y="-24" font-family="Helvetica,sans-Serif" font-size="10.00">s_nml_mesh_1d_unif</text>
<text text-anchor="middle" x="59.5" y="-13" font-family="Helvetica,sans-Serif" font-size="10.00">_cart_mesh</text>
</a>
</g>
</g>
<!-- Node2 -->
<g id="node2" class="node">
<title>Node2</title>
<g id="a_node2"><a xlink:href="namespacesll__m__cartesian__meshes.html#a81d2553ba3157ced2c6f46d9610899a2" target="_top" xlink:title="allocates the memory space for a new 1D cartesian mesh on the heap, initializes it with the given arg...">
<polygon fill="white" stroke="black" points="155,-0.5 155,-41.5 292,-41.5 292,-0.5 155,-0.5"/>
<text text-anchor="start" x="163" y="-29.5" font-family="Helvetica,sans-Serif" font-size="10.00">sll_m_cartesian_meshes</text>
<text text-anchor="start" x="163" y="-18.5" font-family="Helvetica,sans-Serif" font-size="10.00">::sll_f_new_cartesian</text>
<text text-anchor="middle" x="223.5" y="-7.5" font-family="Helvetica,sans-Serif" font-size="10.00">_mesh_1d</text>
</a>
</g>
</g>
<!-- Node1&#45;&gt;Node2 -->
<g id="edge1" class="edge">
<title>Node1&#45;&gt;Node2</title>
<path fill="none" stroke="midnightblue" d="M119.44,-21C127.61,-21 136.1,-21 144.55,-21"/>
<polygon fill="midnightblue" stroke="midnightblue" points="144.81,-24.5 154.81,-21 144.81,-17.5 144.81,-24.5"/>
</g>
<!-- Node3 -->
<g id="node3" class="node">
<title>Node3</title>
<g id="a_node3"><a xlink:href="namespacesll__m__cartesian__meshes.html#a943354705d0bce883bb181425f75d040" target="_top" xlink:title="Initializes a previously allocated 1D cartesian mesh object.">
<polygon fill="white" stroke="black" points="328,-0.5 328,-41.5 465,-41.5 465,-0.5 328,-0.5"/>
<text text-anchor="start" x="336" y="-29.5" font-family="Helvetica,sans-Serif" font-size="10.00">sll_m_cartesian_meshes</text>
<text text-anchor="start" x="336" y="-18.5" font-family="Helvetica,sans-Serif" font-size="10.00">::sll_s_cartesian_mesh</text>
<text text-anchor="middle" x="396.5" y="-7.5" font-family="Helvetica,sans-Serif" font-size="10.00">_1d_init</text>
</a>
</g>
</g>
<!-- Node2&#45;&gt;Node3 -->
<g id="edge2" class="edge">
<title>Node2&#45;&gt;Node3</title>
<path fill="none" stroke="midnightblue" d="M292.08,-21C300.54,-21 309.24,-21 317.83,-21"/>
<polygon fill="midnightblue" stroke="midnightblue" points="317.85,-24.5 327.85,-21 317.85,-17.5 317.85,-24.5"/>
</g>
</g>
</svg>
