<?xml version="1.0" encoding="UTF-8" standalone="no"?>
<!DOCTYPE svg PUBLIC "-//W3C//DTD SVG 1.1//EN"
 "http://www.w3.org/Graphics/SVG/1.1/DTD/svg11.dtd">
<!-- Generated by graphviz version 2.38.0 (20140413.2041)
 -->
<!-- Title: poissn Pages: 1 -->
<svg width="186pt" height="78pt"
 viewBox="0.00 0.00 186.00 77.50" xmlns="http://www.w3.org/2000/svg" xmlns:xlink="http://www.w3.org/1999/xlink">
<g id="graph0" class="graph" transform="scale(1 1) rotate(0) translate(4 73.5)">
<title>poissn</title>
<polygon fill="white" stroke="none" points="-4,4 -4,-73.5 182,-73.5 182,4 -4,4"/>
<!-- Node1 -->
<g id="node1" class="node"><title>Node1</title>
<polygon fill="#bfbfbf" stroke="black" points="0,-22.5 0,-41.5 45,-41.5 45,-22.5 0,-22.5"/>
<text text-anchor="middle" x="22.5" y="-29.5" font-family="Helvetica,sans-Serif" font-size="10.00">poissn</text>
</g>
<!-- Node2 -->
<g id="node2" class="node"><title>Node2</title>
<g id="a_node2"><a xlink:href="namespacesll__m__choleski.html#aa23926107cc08312471f33346d978054" target="_top" xlink:title="sll_m_choleski::sll\l_s_desrem">
<polygon fill="white" stroke="black" points="81,-39 81,-69 178,-69 178,-39 81,-39"/>
<text text-anchor="start" x="89" y="-57" font-family="Helvetica,sans-Serif" font-size="10.00">sll_m_choleski::sll</text>
<text text-anchor="middle" x="129.5" y="-46" font-family="Helvetica,sans-Serif" font-size="10.00">_s_desrem</text>
</a>
</g>
</g>
<!-- Node1&#45;&gt;Node2 -->
<g id="edge1" class="edge"><title>Node1&#45;&gt;Node2</title>
<path fill="none" stroke="midnightblue" d="M45.0017,-36.5051C52.5802,-38.093 61.5014,-39.9622 70.6415,-41.8773"/>
<polygon fill="midnightblue" stroke="midnightblue" points="70.087,-45.337 80.5922,-43.9622 71.5225,-38.4858 70.087,-45.337"/>
</g>
<!-- Node3 -->
<g id="node3" class="node"><title>Node3</title>
<g id="a_node3"><a xlink:href="namespacesll__m__poisson__2d__tri.html#a55eae465794da73fee4ecba53d5cb2ec" target="_top" xlink:title="m1p">
<polygon fill="white" stroke="black" points="112,-0.5 112,-19.5 147,-19.5 147,-0.5 112,-0.5"/>
<text text-anchor="middle" x="129.5" y="-7.5" font-family="Helvetica,sans-Serif" font-size="10.00">m1p</text>
</a>
</g>
</g>
<!-- Node1&#45;&gt;Node3 -->
<g id="edge2" class="edge"><title>Node1&#45;&gt;Node3</title>
<path fill="none" stroke="midnightblue" d="M45.0017,-27.4949C61.3981,-24.0594 84.0792,-19.3072 101.665,-15.6226"/>
<polygon fill="midnightblue" stroke="midnightblue" points="102.785,-18.9641 111.854,-13.4877 101.349,-12.1128 102.785,-18.9641"/>
</g>
</g>
</svg>
