<?xml version="1.0" encoding="UTF-8" standalone="no"?>
<!DOCTYPE svg PUBLIC "-//W3C//DTD SVG 1.1//EN"
 "http://www.w3.org/Graphics/SVG/1.1/DTD/svg11.dtd">
<!-- Generated by graphviz version 2.40.1 (20161225.0304)
 -->
<!-- Title: sll_s_splin5 Pages: 1 -->
<svg width="499pt" height="220pt"
 viewBox="0.00 0.00 499.00 220.00" xmlns="http://www.w3.org/2000/svg" xmlns:xlink="http://www.w3.org/1999/xlink">
<g id="graph0" class="graph" transform="scale(1 1) rotate(0) translate(4 216)">
<title>sll_s_splin5</title>
<polygon fill="#ffffff" stroke="transparent" points="-4,4 -4,-216 495,-216 495,4 -4,4"/>
<!-- Node8 -->
<g id="node1" class="node">
<title>Node8</title>
<polygon fill="#bfbfbf" stroke="#000000" points="0,-98.5 0,-117.5 73,-117.5 73,-98.5 0,-98.5"/>
<text text-anchor="middle" x="36.5" y="-105.5" font-family="Helvetica,sans-Serif" font-size="10.00" fill="#000000">sll_s_splin5</text>
</g>
<!-- Node9 -->
<g id="node2" class="node">
<title>Node9</title>
<g id="a_node2"><a xlink:href="namespacesll__m__quintic__spline__interpolator__1d.html#aec093847e0ebfb5e009bd6244ee0c6c3" target="_top" xlink:title="sll_m_quintic_spline\l_interpolator_1d::interpolate\l_from_interpolant_value">
<polygon fill="#ffffff" stroke="#000000" points="127,-170.5 127,-211.5 282,-211.5 282,-170.5 127,-170.5"/>
<text text-anchor="start" x="135" y="-199.5" font-family="Helvetica,sans-Serif" font-size="10.00" fill="#000000">sll_m_quintic_spline</text>
<text text-anchor="start" x="135" y="-188.5" font-family="Helvetica,sans-Serif" font-size="10.00" fill="#000000">_interpolator_1d::interpolate</text>
<text text-anchor="middle" x="204.5" y="-177.5" font-family="Helvetica,sans-Serif" font-size="10.00" fill="#000000">_from_interpolant_value</text>
</a>
</g>
</g>
<!-- Node8&#45;&gt;Node9 -->
<g id="edge1" class="edge">
<title>Node8&#45;&gt;Node9</title>
<path fill="none" stroke="#191970" d="M55.4328,-124.529C69.4394,-136.0622 89.4085,-151.102 109,-161 115.825,-164.4481 123.1251,-167.5972 130.5354,-170.4481"/>
<polygon fill="#191970" stroke="#191970" points="57.4417,-121.645 47.539,-117.8785 52.9316,-126.9983 57.4417,-121.645"/>
</g>
<!-- Node11 -->
<g id="node4" class="node">
<title>Node11</title>
<g id="a_node4"><a xlink:href="namespacesll__m__quintic__spline__interpolator__1d.html#a8b2cfaf621e1f4f232ce3788b0401551" target="_top" xlink:title="sll_m_quintic_spline\l_interpolator_1d::interpolate_array">
<polygon fill="#ffffff" stroke="#000000" points="111.5,-121 111.5,-151 297.5,-151 297.5,-121 111.5,-121"/>
<text text-anchor="start" x="119.5" y="-139" font-family="Helvetica,sans-Serif" font-size="10.00" fill="#000000">sll_m_quintic_spline</text>
<text text-anchor="middle" x="204.5" y="-128" font-family="Helvetica,sans-Serif" font-size="10.00" fill="#000000">_interpolator_1d::interpolate_array</text>
</a>
</g>
</g>
<!-- Node8&#45;&gt;Node11 -->
<g id="edge3" class="edge">
<title>Node8&#45;&gt;Node11</title>
<path fill="none" stroke="#191970" d="M83.5305,-115.8384C93.2224,-117.4537 103.7345,-119.2058 114.3784,-120.9797"/>
<polygon fill="#191970" stroke="#191970" points="83.8077,-112.3364 73.3683,-114.1447 82.6568,-119.2412 83.8077,-112.3364"/>
</g>
<!-- Node12 -->
<g id="node5" class="node">
<title>Node12</title>
<g id="a_node5"><a xlink:href="namespacesll__m__quintic__spline__interpolator__1d.html#affb5bd503cab5985d8d34fb30ca766f9" target="_top" xlink:title="sll_m_quintic_spline\l_interpolator_1d::interpolate\l_from_interpolant_derivative_eta1">
<polygon fill="#ffffff" stroke="#000000" points="112,-60.5 112,-101.5 297,-101.5 297,-60.5 112,-60.5"/>
<text text-anchor="start" x="120" y="-89.5" font-family="Helvetica,sans-Serif" font-size="10.00" fill="#000000">sll_m_quintic_spline</text>
<text text-anchor="start" x="120" y="-78.5" font-family="Helvetica,sans-Serif" font-size="10.00" fill="#000000">_interpolator_1d::interpolate</text>
<text text-anchor="middle" x="204.5" y="-67.5" font-family="Helvetica,sans-Serif" font-size="10.00" fill="#000000">_from_interpolant_derivative_eta1</text>
</a>
</g>
</g>
<!-- Node8&#45;&gt;Node12 -->
<g id="edge4" class="edge">
<title>Node8&#45;&gt;Node12</title>
<path fill="none" stroke="#191970" d="M83.2434,-100.4877C92.2884,-99.034 102.0562,-97.4642 111.9843,-95.8686"/>
<polygon fill="#191970" stroke="#191970" points="82.6862,-97.0322 73.3683,-102.0747 83.797,-103.9435 82.6862,-97.0322"/>
</g>
<!-- Node13 -->
<g id="node6" class="node">
<title>Node13</title>
<g id="a_node6"><a xlink:href="namespacesll__m__quintic__spline__interpolator__1d.html#ae000bdc186787b400dccd5c871941114" target="_top" xlink:title="sll_m_quintic_spline\l_interpolator_1d::interpolate\l_from_interpolant_derivatives_eta1">
<polygon fill="#ffffff" stroke="#000000" points="109,-.5 109,-41.5 300,-41.5 300,-.5 109,-.5"/>
<text text-anchor="start" x="117" y="-29.5" font-family="Helvetica,sans-Serif" font-size="10.00" fill="#000000">sll_m_quintic_spline</text>
<text text-anchor="start" x="117" y="-18.5" font-family="Helvetica,sans-Serif" font-size="10.00" fill="#000000">_interpolator_1d::interpolate</text>
<text text-anchor="middle" x="204.5" y="-7.5" font-family="Helvetica,sans-Serif" font-size="10.00" fill="#000000">_from_interpolant_derivatives_eta1</text>
</a>
</g>
</g>
<!-- Node8&#45;&gt;Node13 -->
<g id="edge5" class="edge">
<title>Node8&#45;&gt;Node13</title>
<path fill="none" stroke="#191970" d="M53.8582,-91.3705C67.8047,-78.7837 88.4006,-61.864 109,-51 115.6099,-47.514 122.6937,-44.3526 129.9056,-41.5052"/>
<polygon fill="#191970" stroke="#191970" points="51.4343,-88.8448 46.4653,-98.2021 56.1851,-93.9858 51.4343,-88.8448"/>
</g>
<!-- Node10 -->
<g id="node3" class="node">
<title>Node10</title>
<g id="a_node3"><a xlink:href="namespacesll__m__quintic__spline__interpolator__1d.html#a6b0f215c80e708123d356b1251df14b9" target="_top" xlink:title="sll_m_quintic_spline\l_interpolator_1d::interpolate\l_from_interpolant_array">
<polygon fill="#ffffff" stroke="#000000" points="336,-170.5 336,-211.5 491,-211.5 491,-170.5 336,-170.5"/>
<text text-anchor="start" x="344" y="-199.5" font-family="Helvetica,sans-Serif" font-size="10.00" fill="#000000">sll_m_quintic_spline</text>
<text text-anchor="start" x="344" y="-188.5" font-family="Helvetica,sans-Serif" font-size="10.00" fill="#000000">_interpolator_1d::interpolate</text>
<text text-anchor="middle" x="413.5" y="-177.5" font-family="Helvetica,sans-Serif" font-size="10.00" fill="#000000">_from_interpolant_array</text>
</a>
</g>
</g>
<!-- Node9&#45;&gt;Node10 -->
<g id="edge2" class="edge">
<title>Node9&#45;&gt;Node10</title>
<path fill="none" stroke="#191970" d="M292.4137,-191C306.8049,-191 321.6268,-191 335.7498,-191"/>
<polygon fill="#191970" stroke="#191970" points="292.0269,-187.5001 282.0269,-191 292.0268,-194.5001 292.0269,-187.5001"/>
</g>
</g>
</svg>
