<?xml version="1.0" encoding="UTF-8" standalone="no"?>
<!DOCTYPE svg PUBLIC "-//W3C//DTD SVG 1.1//EN"
 "http://www.w3.org/Graphics/SVG/1.1/DTD/svg11.dtd">
<!-- Generated by graphviz version 2.38.0 (20140413.2041)
 -->
<!-- Title: choose Pages: 1 -->
<!--zoomable 215 -->
<svg id="main" version="1.1" xmlns="http://www.w3.org/2000/svg" xmlns:xlink="http://www.w3.org/1999/xlink" xml:space="preserve" onload="init(evt)">
<style type="text/css"><![CDATA[
.edge:hover path { stroke: red; }
.edge:hover polygon { stroke: red; fill: red; }
]]></style>
<script type="text/javascript"><![CDATA[
var edges = document.getElementsByTagName('g');
if (edges && edges.length) {
  for (var i=0;i<edges.length;i++) {
    if (edges[i].id.substr(0,4)=='edge') {
      edges[i].setAttribute('class','edge');
    }
  }
}
]]></script>
        <defs>
                <circle id="rim" cx="0" cy="0" r="7"/>
                <circle id="rim2" cx="0" cy="0" r="3.5"/>
                <g id="zoomPlus">
                        <use xlink:href="#rim" fill="#404040">
                                <set attributeName="fill" to="#808080" begin="zoomplus.mouseover" end="zoomplus.mouseout"/>
                        </use>
                        <path d="M-4,0h8M0,-4v8" fill="none" stroke="white" stroke-width="1.5" pointer-events="none"/>
                </g>
                <g id="zoomMin">
                        <use xlink:href="#rim" fill="#404040">
                                <set attributeName="fill" to="#808080" begin="zoomminus.mouseover" end="zoomminus.mouseout"/>
                        </use>
                        <path d="M-4,0h8" fill="none" stroke="white" stroke-width="1.5" pointer-events="none"/>
                </g>
                <g id="dirArrow">
                        <path fill="none" stroke="white" stroke-width="1.5" d="M0,-3.0v7 M-2.5,-0.5L0,-3.0L2.5,-0.5"/>
                </g>
               <g id="resetDef">
                       <use xlink:href="#rim2" fill="#404040">
                               <set attributeName="fill" to="#808080" begin="reset.mouseover" end="reset.mouseout"/>
                       </use>
               </g>
        </defs>

<script type="text/javascript">
var viewWidth = 814;
var viewHeight = 215;
var sectionId = 'dynsection-4';
</script>
<script xlink:href="svgpan.js"/>
<svg id="graph" class="graph">
<g id="viewport">
<title>choose</title>
<polygon fill="white" stroke="none" points="-4,4 -4,-210.5 810,-210.5 810,4 -4,4"/>
<!-- Node1 -->
<g id="node1" class="node"><title>Node1</title>
<polygon fill="#bfbfbf" stroke="black" points="0,-94 0,-113 48,-113 48,-94 0,-94"/>
<text text-anchor="middle" x="24" y="-101" font-family="Helvetica,sans-Serif" font-size="10.00">choose</text>
</g>
<!-- Node2 -->
<g id="node2" class="node"><title>Node2</title>
<g id="a_node2"><a xlink:href="namespacesll__m__box__splines.html#a7a05a2e34070d0618d01288021e9ec28" target="_top" xlink:title="Computes the box spline of degree deg on (x1, x2) ">
<polygon fill="white" stroke="black" points="84,-94 84,-113 152,-113 152,-94 84,-94"/>
<text text-anchor="middle" x="118" y="-101" font-family="Helvetica,sans-Serif" font-size="10.00">chi_gen_val</text>
</a>
</g>
</g>
<!-- Node1&#45;&gt;Node2 -->
<g id="edge1" class="edge"><title>Node1&#45;&gt;Node2</title>
<path fill="none" stroke="midnightblue" d="M58.2899,-103.5C66.5657,-103.5 75.4371,-103.5 83.7127,-103.5"/>
<polygon fill="midnightblue" stroke="midnightblue" points="58.2155,-100 48.2155,-103.5 58.2154,-107 58.2155,-100"/>
</g>
<!-- Node3 -->
<g id="node3" class="node"><title>Node3</title>
<g id="a_node3"><a xlink:href="namespacesll__m__box__splines.html#ae85be189f19eda4cfbd8461587cdbe98" target="_top" xlink:title="Computes the value of a box spline. ">
<polygon fill="white" stroke="black" points="188,-187 188,-206 317,-206 317,-187 188,-187"/>
<text text-anchor="middle" x="252.5" y="-194" font-family="Helvetica,sans-Serif" font-size="10.00">sll_f_compute_box_spline</text>
</a>
</g>
</g>
<!-- Node2&#45;&gt;Node3 -->
<g id="edge2" class="edge"><title>Node2&#45;&gt;Node3</title>
<path fill="none" stroke="midnightblue" d="M131.479,-121.635C143.942,-138.438 164.579,-162.961 188,-177.5 194.159,-181.323 201.133,-184.416 208.147,-186.905"/>
<polygon fill="midnightblue" stroke="midnightblue" points="134.104,-119.291 125.429,-113.208 128.417,-123.372 134.104,-119.291"/>
</g>
<!-- Node4 -->
<g id="node4" class="node"><title>Node4</title>
<g id="a_node4"><a xlink:href="namespacesll__m__box__splines.html#a22194490adc78c1d67ab8345417700f8" target="_top" xlink:title="Interpolates on point of cartesian coordinates (x1, x2) ">
<polygon fill="white" stroke="black" points="199.5,-137.5 199.5,-167.5 305.5,-167.5 305.5,-137.5 199.5,-137.5"/>
<text text-anchor="start" x="207.5" y="-155.5" font-family="Helvetica,sans-Serif" font-size="10.00">sll_f_hex_interpolate</text>
<text text-anchor="middle" x="252.5" y="-144.5" font-family="Helvetica,sans-Serif" font-size="10.00">_value</text>
</a>
</g>
</g>
<!-- Node2&#45;&gt;Node4 -->
<g id="edge3" class="edge"><title>Node2&#45;&gt;Node4</title>
<path fill="none" stroke="midnightblue" d="M154.606,-116.667C171.944,-123.079 192.875,-130.82 210.839,-137.463"/>
<polygon fill="midnightblue" stroke="midnightblue" points="155.455,-113.25 144.862,-113.064 153.027,-119.815 155.455,-113.25"/>
</g>
<!-- Node5 -->
<g id="node5" class="node"><title>Node5</title>
<g id="a_node5"><a xlink:href="namespacesll__m__box__splines.html#ae867b46ed0654e35ad21b818a3198601" target="_top" xlink:title="Computes x&#45;derivative on (x,y) ">
<polygon fill="white" stroke="black" points="204,-88.5 204,-118.5 301,-118.5 301,-88.5 204,-88.5"/>
<text text-anchor="start" x="212" y="-106.5" font-family="Helvetica,sans-Serif" font-size="10.00">sll_f_boxspline_x1</text>
<text text-anchor="middle" x="252.5" y="-95.5" font-family="Helvetica,sans-Serif" font-size="10.00">_derivative</text>
</a>
</g>
</g>
<!-- Node2&#45;&gt;Node5 -->
<g id="edge4" class="edge"><title>Node2&#45;&gt;Node5</title>
<path fill="none" stroke="midnightblue" d="M162.384,-103.5C175.648,-103.5 190.305,-103.5 203.837,-103.5"/>
<polygon fill="midnightblue" stroke="midnightblue" points="162.094,-100 152.094,-103.5 162.094,-107 162.094,-100"/>
</g>
<!-- Node6 -->
<g id="node6" class="node"><title>Node6</title>
<g id="a_node6"><a xlink:href="namespacesll__m__box__splines.html#a0f40714993a4e4bdcf19d5798130ae75" target="_top" xlink:title="Computes the values or derivatives of box splines. ">
<polygon fill="white" stroke="black" points="353,-50 353,-69 471,-69 471,-50 353,-50"/>
<text text-anchor="middle" x="412" y="-57" font-family="Helvetica,sans-Serif" font-size="10.00">sll_f_boxspline_val_der</text>
</a>
</g>
</g>
<!-- Node2&#45;&gt;Node6 -->
<g id="edge10" class="edge"><title>Node2&#45;&gt;Node6</title>
<path fill="none" stroke="midnightblue" d="M151.442,-90.3769C162.83,-86.2659 175.821,-82.1225 188,-79.5 243.1,-67.6354 307.324,-62.7948 352.659,-60.8278"/>
<polygon fill="midnightblue" stroke="midnightblue" points="150.049,-87.1611 141.909,-93.9423 152.502,-93.7175 150.049,-87.1611"/>
</g>
<!-- Node9 -->
<g id="node9" class="node"><title>Node9</title>
<g id="a_node9"><a xlink:href="namespacesll__m__box__splines.html#acefc07fcf7d400ff2f46c5ac346f8b1a" target="_top" xlink:title="Computes y&#45;derivative on (x,y) ">
<polygon fill="white" stroke="black" points="204,-0.5 204,-30.5 301,-30.5 301,-0.5 204,-0.5"/>
<text text-anchor="start" x="212" y="-18.5" font-family="Helvetica,sans-Serif" font-size="10.00">sll_f_boxspline_x2</text>
<text text-anchor="middle" x="252.5" y="-7.5" font-family="Helvetica,sans-Serif" font-size="10.00">_derivative</text>
</a>
</g>
</g>
<!-- Node2&#45;&gt;Node9 -->
<g id="edge8" class="edge"><title>Node2&#45;&gt;Node9</title>
<path fill="none" stroke="midnightblue" d="M136.146,-86.9181C149.544,-74.5168 169.018,-57.6718 188,-45.5 196.519,-40.0374 206.189,-34.9635 215.368,-30.6003"/>
<polygon fill="midnightblue" stroke="midnightblue" points="133.525,-84.5785 128.648,-93.9839 138.326,-89.6731 133.525,-84.5785"/>
</g>
<!-- Node5&#45;&gt;Node6 -->
<g id="edge5" class="edge"><title>Node5&#45;&gt;Node6</title>
<path fill="none" stroke="midnightblue" d="M310.848,-87.479C333.04,-81.2794 357.685,-74.3943 376.975,-69.0054"/>
<polygon fill="midnightblue" stroke="midnightblue" points="309.872,-84.1175 301.183,-90.1791 311.756,-90.8594 309.872,-84.1175"/>
</g>
<!-- Node7 -->
<g id="node7" class="node"><title>Node7</title>
<g id="a_node7"><a xlink:href="namespacesll__m__fekete__integration.html#ac7c05ae36ac69d55d2c022d71e82cae9" target="_top" xlink:title="Writes on a file values of boxsplines on fekete points. ">
<polygon fill="white" stroke="black" points="507,-44.5 507,-74.5 629,-74.5 629,-44.5 507,-44.5"/>
<text text-anchor="start" x="515" y="-62.5" font-family="Helvetica,sans-Serif" font-size="10.00">sll_m_fekete_integration</text>
<text text-anchor="middle" x="568" y="-51.5" font-family="Helvetica,sans-Serif" font-size="10.00">::write_basis_values</text>
</a>
</g>
</g>
<!-- Node6&#45;&gt;Node7 -->
<g id="edge6" class="edge"><title>Node6&#45;&gt;Node7</title>
<path fill="none" stroke="midnightblue" d="M481.466,-59.5C489.944,-59.5 498.563,-59.5 506.903,-59.5"/>
<polygon fill="midnightblue" stroke="midnightblue" points="481.221,-56.0001 471.221,-59.5 481.221,-63.0001 481.221,-56.0001"/>
</g>
<!-- Node8 -->
<g id="node8" class="node"><title>Node8</title>
<g id="a_node8"><a xlink:href="namespacesll__m__fekete__integration.html#adceb8456a1011a2bb4dcecfd28374463" target="_top" xlink:title="This function is supposed to write all django input files needed for a Django/Jorek simulation...">
<polygon fill="white" stroke="black" points="665,-44.5 665,-74.5 806,-74.5 806,-44.5 665,-44.5"/>
<text text-anchor="start" x="673" y="-62.5" font-family="Helvetica,sans-Serif" font-size="10.00">sll_m_fekete_integration</text>
<text text-anchor="middle" x="735.5" y="-51.5" font-family="Helvetica,sans-Serif" font-size="10.00">::sll_s_write_all_django_files</text>
</a>
</g>
</g>
<!-- Node7&#45;&gt;Node8 -->
<g id="edge7" class="edge"><title>Node7&#45;&gt;Node8</title>
<path fill="none" stroke="midnightblue" d="M639.371,-59.5C647.786,-59.5 656.375,-59.5 664.781,-59.5"/>
<polygon fill="midnightblue" stroke="midnightblue" points="639.218,-56.0001 629.217,-59.5 639.217,-63.0001 639.218,-56.0001"/>
</g>
<!-- Node9&#45;&gt;Node6 -->
<g id="edge9" class="edge"><title>Node9&#45;&gt;Node6</title>
<path fill="none" stroke="midnightblue" d="M310.848,-31.521C333.04,-37.7206 357.685,-44.6057 376.975,-49.9946"/>
<polygon fill="midnightblue" stroke="midnightblue" points="311.756,-28.1406 301.183,-28.8209 309.872,-34.8825 311.756,-28.1406"/>
</g>
</g>
</svg>
        <g id="navigator" transform="translate(0 0)" fill="#404254">
                <rect fill="#f2f5e9" fill-opacity="0.5" stroke="#606060" stroke-width=".5" x="0" y="0" width="60" height="60"/>
                <use id="zoomplus" xlink:href="#zoomPlus" x="17" y="9" onmousedown="handleZoom(evt,'in')"/>
                <use id="zoomminus" xlink:href="#zoomMin" x="42" y="9" onmousedown="handleZoom(evt,'out')"/>
                <use id="reset" xlink:href="#resetDef" x="30" y="36" onmousedown="handleReset()"/>
                <g id="arrowUp" xlink:href="#dirArrow" transform="translate(30 24)" onmousedown="handlePan(0,-1)">
                  <use xlink:href="#rim" fill="#404040">
                        <set attributeName="fill" to="#808080" begin="arrowUp.mouseover" end="arrowUp.mouseout"/>
                  </use>
                  <path fill="none" stroke="white" stroke-width="1.5" d="M0,-3.0v7 M-2.5,-0.5L0,-3.0L2.5,-0.5"/>
                </g>
                <g id="arrowRight" xlink:href="#dirArrow" transform="rotate(90) translate(36 -43)" onmousedown="handlePan(1,0)">
                  <use xlink:href="#rim" fill="#404040">
                        <set attributeName="fill" to="#808080" begin="arrowRight.mouseover" end="arrowRight.mouseout"/>
                  </use>
                  <path fill="none" stroke="white" stroke-width="1.5" d="M0,-3.0v7 M-2.5,-0.5L0,-3.0L2.5,-0.5"/>
                </g>
                <g id="arrowDown" xlink:href="#dirArrow" transform="rotate(180) translate(-30 -48)" onmousedown="handlePan(0,1)">
                  <use xlink:href="#rim" fill="#404040">
                        <set attributeName="fill" to="#808080" begin="arrowDown.mouseover" end="arrowDown.mouseout"/>
                  </use>
                  <path fill="none" stroke="white" stroke-width="1.5" d="M0,-3.0v7 M-2.5,-0.5L0,-3.0L2.5,-0.5"/>
                </g>
                <g id="arrowLeft" xlink:href="#dirArrow" transform="rotate(270) translate(-36 17)" onmousedown="handlePan(-1,0)">
                  <use xlink:href="#rim" fill="#404040">
                        <set attributeName="fill" to="#808080" begin="arrowLeft.mouseover" end="arrowLeft.mouseout"/>
                  </use>
                  <path fill="none" stroke="white" stroke-width="1.5" d="M0,-3.0v7 M-2.5,-0.5L0,-3.0L2.5,-0.5"/>
                </g>
        </g>
        <svg viewBox="0 0 15 15" width="100%" height="30px" preserveAspectRatio="xMaxYMin meet">
         <g id="arrow_out" transform="scale(0.3 0.3)">
          <a xlink:href="namespacesll__m__box__splines_a12728f21737f7f8d9f56c33b69ec31d6_icgraph_org.svg" target="_base">
           <rect id="button" ry="5" rx="5" y="6" x="6" height="38" width="38"
                fill="#f2f5e9" fill-opacity="0.5" stroke="#606060" stroke-width="1.0"/>
           <path id="arrow"
             d="M 11.500037,31.436501 C 11.940474,20.09759 22.043105,11.32322 32.158766,21.979434 L 37.068811,17.246167 C 37.068811,17.246167 37.088388,32 37.088388,32 L 22.160133,31.978069 C 22.160133,31.978069 26.997745,27.140456 26.997745,27.140456 C 18.528582,18.264221 13.291696,25.230495 11.500037,31.436501 z"
             style="fill:#404040;"/>
          </a>
         </g>
        </svg>
</svg>
