<?xml version="1.0" encoding="UTF-8" standalone="no"?>
<!DOCTYPE svg PUBLIC "-//W3C//DTD SVG 1.1//EN"
 "http://www.w3.org/Graphics/SVG/1.1/DTD/svg11.dtd">
<!-- Generated by graphviz version 2.43.0 (0)
 -->
<!-- Title: sll_f_new_collective Pages: 1 -->
<svg width="292pt" height="66pt"
 viewBox="0.00 0.00 292.00 66.00" xmlns="http://www.w3.org/2000/svg" xmlns:xlink="http://www.w3.org/1999/xlink">
<g id="graph0" class="graph" transform="scale(1 1) rotate(0) translate(4 62)">
<title>sll_f_new_collective</title>
<polygon fill="white" stroke="transparent" points="-4,4 -4,-62 288,-62 288,4 -4,4"/>
<!-- Node1 -->
<g id="node1" class="node">
<title>Node1</title>
<g id="a_node1"><a xlink:title="Creates new (wrapper around) communicators based on colors and keys.">
<polygon fill="#bfbfbf" stroke="black" points="0,-19.5 0,-38.5 115,-38.5 115,-19.5 0,-19.5"/>
<text text-anchor="middle" x="57.5" y="-26.5" font-family="Helvetica,sans-Serif" font-size="10.00">sll_f_new_collective</text>
</a>
</g>
</g>
<!-- Node2 -->
<g id="node2" class="node">
<title>Node2</title>
<g id="a_node2"><a xlink:href="namespacesll__m__collective.html#a37ea25f42a791be5a710a6cf0d1e1197" target="_top" xlink:title="Checks if the pointer ptr is associated to an object.">
<polygon fill="white" stroke="black" points="151,-38.5 151,-57.5 284,-57.5 284,-38.5 151,-38.5"/>
<text text-anchor="middle" x="217.5" y="-45.5" font-family="Helvetica,sans-Serif" font-size="10.00">sll_check_collective_ptr</text>
</a>
</g>
</g>
<!-- Node1&#45;&gt;Node2 -->
<g id="edge1" class="edge">
<title>Node1&#45;&gt;Node2</title>
<path fill="none" stroke="midnightblue" d="M115.1,-35.81C123.43,-36.81 132.13,-37.85 140.78,-38.89"/>
<polygon fill="midnightblue" stroke="midnightblue" points="140.54,-42.39 150.88,-40.11 141.37,-35.44 140.54,-42.39"/>
</g>
<!-- Node3 -->
<g id="node3" class="node">
<title>Node3</title>
<g id="a_node3"><a xlink:href="namespacesll__m__collective.html#a9a5729d7ca2e55890195f76c8a5cbd62" target="_top" xlink:title="Checks the good execution of collective instruction.">
<polygon fill="white" stroke="black" points="160,-0.5 160,-19.5 275,-19.5 275,-0.5 160,-0.5"/>
<text text-anchor="middle" x="217.5" y="-7.5" font-family="Helvetica,sans-Serif" font-size="10.00">sll_s_test_mpi_error</text>
</a>
</g>
</g>
<!-- Node1&#45;&gt;Node3 -->
<g id="edge2" class="edge">
<title>Node1&#45;&gt;Node3</title>
<path fill="none" stroke="midnightblue" d="M115.1,-22.19C126.33,-20.84 138.22,-19.41 149.75,-18.03"/>
<polygon fill="midnightblue" stroke="midnightblue" points="150.26,-21.49 159.77,-16.82 149.42,-14.54 150.26,-21.49"/>
</g>
</g>
</svg>
