<?xml version="1.0" encoding="UTF-8" standalone="no"?>
<!DOCTYPE svg PUBLIC "-//W3C//DTD SVG 1.1//EN"
 "http://www.w3.org/Graphics/SVG/1.1/DTD/svg11.dtd">
<!-- Generated by graphviz version 2.43.0 (0)
 -->
<!-- Title: write_basis_values Pages: 1 -->
<!--zoomable 476 -->
<svg id="main" version="1.1" xmlns="http://www.w3.org/2000/svg" xmlns:xlink="http://www.w3.org/1999/xlink" xml:space="preserve" onload="init(evt)">
<style type="text/css"><![CDATA[
.edge:hover path { stroke: red; }
.edge:hover polygon { stroke: red; fill: red; }
]]></style>
<script type="text/javascript"><![CDATA[
var edges = document.getElementsByTagName('g');
if (edges && edges.length) {
  for (var i=0;i<edges.length;i++) {
    if (edges[i].id.substr(0,4)=='edge') {
      edges[i].setAttribute('class','edge');
    }
  }
}
]]></script>
        <defs>
                <circle id="rim" cx="0" cy="0" r="7"/>
                <circle id="rim2" cx="0" cy="0" r="3.5"/>
                <g id="zoomPlus">
                        <use xlink:href="#rim" fill="#404040">
                                <set attributeName="fill" to="#808080" begin="zoomplus.mouseover" end="zoomplus.mouseout"/>
                        </use>
                        <path d="M-4,0h8M0,-4v8" fill="none" stroke="white" stroke-width="1.5" pointer-events="none"/>
                </g>
                <g id="zoomMin">
                        <use xlink:href="#rim" fill="#404040">
                                <set attributeName="fill" to="#808080" begin="zoomminus.mouseover" end="zoomminus.mouseout"/>
                        </use>
                        <path d="M-4,0h8" fill="none" stroke="white" stroke-width="1.5" pointer-events="none"/>
                </g>
                <g id="dirArrow">
                        <path fill="none" stroke="white" stroke-width="1.5" d="M0,-3.0v7 M-2.5,-0.5L0,-3.0L2.5,-0.5"/>
                </g>
               <g id="resetDef">
                       <use xlink:href="#rim2" fill="#404040">
                               <set attributeName="fill" to="#808080" begin="reset.mouseover" end="reset.mouseout"/>
                       </use>
               </g>
        </defs>

<script type="text/javascript">
var viewWidth = 849;
var viewHeight = 476;
var sectionId = 'dynsection-15';
</script>
<script xlink:href="svgpan.js"/>
<svg id="graph" class="graph">
<g id="viewport">
<title>write_basis_values</title>
<polygon fill="white" stroke="transparent" points="-4,4 -4,-471.5 845,-471.5 845,4 -4,4"/>
<!-- Node1 -->
<g id="node1" class="node">
<title>Node1</title>
<g id="a_node1"><a xlink:title="Writes on a file values of boxsplines on fekete points.">
<polygon fill="#bfbfbf" stroke="black" points="0,-117.5 0,-136.5 110,-136.5 110,-117.5 0,-117.5"/>
<text text-anchor="middle" x="55" y="-124.5" font-family="Helvetica,sans-Serif" font-size="10.00">write_basis_values</text>
</a>
</g>
</g>
<!-- Node2 -->
<g id="node2" class="node">
<title>Node2</title>
<g id="a_node2"><a xlink:href="namespacesll__m__box__splines.html#a0f40714993a4e4bdcf19d5798130ae75" target="_top" xlink:title="Computes the values or derivatives of box splines.">
<polygon fill="white" stroke="black" points="146,-275 146,-305 277,-305 277,-275 146,-275"/>
<text text-anchor="start" x="154" y="-293" font-family="Helvetica,sans-Serif" font-size="10.00">sll_m_box_splines::</text>
<text text-anchor="middle" x="211.5" y="-282" font-family="Helvetica,sans-Serif" font-size="10.00">sll_f_boxspline_val_der</text>
</a>
</g>
</g>
<!-- Node1&#45;&gt;Node2 -->
<g id="edge1" class="edge">
<title>Node1&#45;&gt;Node2</title>
<path fill="none" stroke="midnightblue" d="M65.2,-136.71C89.3,-162.13 154.75,-231.18 188.98,-267.3"/>
<polygon fill="midnightblue" stroke="midnightblue" points="186.76,-270.04 196.18,-274.89 191.84,-265.23 186.76,-270.04"/>
</g>
<!-- Node15 -->
<g id="node15" class="node">
<title>Node15</title>
<g id="a_node15"><a xlink:href="namespacesll__m__fekete__integration.html#a000587e1502ac1254502c6e3d3600f26" target="_top" xlink:title="Gives the fekete points coordinates and associated weights for a certain rule in a given triangle.">
<polygon fill="white" stroke="black" points="157.5,-68 157.5,-98 265.5,-98 265.5,-68 157.5,-68"/>
<text text-anchor="start" x="165.5" y="-86" font-family="Helvetica,sans-Serif" font-size="10.00">sll_f_fekete_points</text>
<text text-anchor="middle" x="211.5" y="-75" font-family="Helvetica,sans-Serif" font-size="10.00">_and_weights</text>
</a>
</g>
</g>
<!-- Node1&#45;&gt;Node15 -->
<g id="edge16" class="edge">
<title>Node1&#45;&gt;Node15</title>
<path fill="none" stroke="midnightblue" d="M89.52,-117.45C106.61,-112.59 127.95,-106.51 147.93,-100.82"/>
<polygon fill="midnightblue" stroke="midnightblue" points="148.94,-104.17 157.6,-98.07 147.02,-97.44 148.94,-104.17"/>
</g>
<!-- Node23 -->
<g id="node23" class="node">
<title>Node23</title>
<g id="a_node23"><a xlink:href="namespacesll__m__fekete__integration.html#a0f14c18e1a21285d9a7d808077677951" target="_top" xlink:title="returns the order of a Fekete rule for the triangle.">
<polygon fill="white" stroke="black" points="327.5,-114.5 327.5,-133.5 459.5,-133.5 459.5,-114.5 327.5,-114.5"/>
<text text-anchor="middle" x="393.5" y="-121.5" font-family="Helvetica,sans-Serif" font-size="10.00">sll_s_fekete_order_num</text>
</a>
</g>
</g>
<!-- Node1&#45;&gt;Node23 -->
<g id="edge27" class="edge">
<title>Node1&#45;&gt;Node23</title>
<path fill="none" stroke="midnightblue" d="M110.06,-126.52C166.12,-126.02 254.18,-125.23 317.07,-124.67"/>
<polygon fill="midnightblue" stroke="midnightblue" points="317.36,-128.17 327.32,-124.58 317.29,-121.17 317.36,-128.17"/>
</g>
<!-- Node3 -->
<g id="node3" class="node">
<title>Node3</title>
<g id="a_node3"><a xlink:href="namespacesll__m__box__splines.html#a3b94ddbae2c7b03c53ca2653ae187885" target="_top" xlink:title="1st coo. of (x1, x2) in reference hex&#45;mesh coo.">
<polygon fill="white" stroke="black" points="337.5,-202 337.5,-232 449.5,-232 449.5,-202 337.5,-202"/>
<text text-anchor="start" x="345.5" y="-220" font-family="Helvetica,sans-Serif" font-size="10.00">sll_m_box_splines::</text>
<text text-anchor="middle" x="393.5" y="-209" font-family="Helvetica,sans-Serif" font-size="10.00">change_basis_x1</text>
</a>
</g>
</g>
<!-- Node2&#45;&gt;Node3 -->
<g id="edge2" class="edge">
<title>Node2&#45;&gt;Node3</title>
<path fill="none" stroke="midnightblue" d="M241.48,-274.82C261.3,-264.77 288.35,-251.71 313,-242 318.83,-239.7 324.96,-237.47 331.13,-235.34"/>
<polygon fill="midnightblue" stroke="midnightblue" points="332.45,-238.59 340.81,-232.09 330.22,-231.96 332.45,-238.59"/>
</g>
<!-- Node4 -->
<g id="node4" class="node">
<title>Node4</title>
<g id="a_node4"><a xlink:href="namespacesll__m__box__splines.html#a1edd2773985cb3b80bdcdab980892673" target="_top" xlink:title="2nd coo. of (x1, x2) in reference hex&#45;mesh coo.">
<polygon fill="white" stroke="black" points="337.5,-153 337.5,-183 449.5,-183 449.5,-153 337.5,-153"/>
<text text-anchor="start" x="345.5" y="-171" font-family="Helvetica,sans-Serif" font-size="10.00">sll_m_box_splines::</text>
<text text-anchor="middle" x="393.5" y="-160" font-family="Helvetica,sans-Serif" font-size="10.00">change_basis_x2</text>
</a>
</g>
</g>
<!-- Node2&#45;&gt;Node4 -->
<g id="edge3" class="edge">
<title>Node2&#45;&gt;Node4</title>
<path fill="none" stroke="midnightblue" d="M224.18,-274.97C241.42,-253.76 275.69,-215.17 313,-193 317.66,-190.23 322.67,-187.73 327.81,-185.49"/>
<polygon fill="midnightblue" stroke="midnightblue" points="329.2,-188.7 337.18,-181.73 326.59,-182.21 329.2,-188.7"/>
</g>
<!-- Node5 -->
<g id="node5" class="node">
<title>Node5</title>
<g id="a_node5"><a xlink:href="namespacesll__m__box__splines.html#a3036d812bbf7826012acb93b1bc5ad44" target="_top" xlink:title="Computes the box spline of degree deg on (x1, x2)">
<polygon fill="white" stroke="black" points="525.5,-393 525.5,-423 637.5,-423 637.5,-393 525.5,-393"/>
<text text-anchor="start" x="533.5" y="-411" font-family="Helvetica,sans-Serif" font-size="10.00">sll_m_box_splines::</text>
<text text-anchor="middle" x="581.5" y="-400" font-family="Helvetica,sans-Serif" font-size="10.00">chi_gen_val</text>
</a>
</g>
</g>
<!-- Node2&#45;&gt;Node5 -->
<g id="edge4" class="edge">
<title>Node2&#45;&gt;Node5</title>
<path fill="none" stroke="midnightblue" d="M222.39,-305.06C238.35,-327.89 272.16,-370.54 313,-389 377.21,-418.01 458.98,-419.36 515.11,-415.62"/>
<polygon fill="midnightblue" stroke="midnightblue" points="515.57,-419.09 525.29,-414.87 515.06,-412.11 515.57,-419.09"/>
</g>
<!-- Node7 -->
<g id="node7" class="node">
<title>Node7</title>
<g id="a_node7"><a xlink:href="namespacesll__m__box__splines.html#ae867b46ed0654e35ad21b818a3198601" target="_top" xlink:title="Computes x&#45;derivative on (x,y)">
<polygon fill="white" stroke="black" points="313,-437 313,-467 474,-467 474,-437 313,-437"/>
<text text-anchor="start" x="321" y="-455" font-family="Helvetica,sans-Serif" font-size="10.00">sll_m_box_splines::</text>
<text text-anchor="middle" x="393.5" y="-444" font-family="Helvetica,sans-Serif" font-size="10.00">sll_f_boxspline_x1_derivative</text>
</a>
</g>
</g>
<!-- Node2&#45;&gt;Node7 -->
<g id="edge6" class="edge">
<title>Node2&#45;&gt;Node7</title>
<path fill="none" stroke="midnightblue" d="M220.35,-305.28C235.01,-332.43 269.12,-389.3 313,-422 318.4,-426.03 324.41,-429.57 330.63,-432.68"/>
<polygon fill="midnightblue" stroke="midnightblue" points="329.31,-435.92 339.86,-436.92 332.24,-429.57 329.31,-435.92"/>
</g>
<!-- Node8 -->
<g id="node8" class="node">
<title>Node8</title>
<g id="a_node8"><a xlink:href="namespacesll__m__box__splines.html#acefc07fcf7d400ff2f46c5ac346f8b1a" target="_top" xlink:title="Computes y&#45;derivative on (x,y)">
<polygon fill="white" stroke="black" points="313,-349 313,-379 474,-379 474,-349 313,-349"/>
<text text-anchor="start" x="321" y="-367" font-family="Helvetica,sans-Serif" font-size="10.00">sll_m_box_splines::</text>
<text text-anchor="middle" x="393.5" y="-356" font-family="Helvetica,sans-Serif" font-size="10.00">sll_f_boxspline_x2_derivative</text>
</a>
</g>
</g>
<!-- Node2&#45;&gt;Node8 -->
<g id="edge8" class="edge">
<title>Node2&#45;&gt;Node8</title>
<path fill="none" stroke="midnightblue" d="M239.66,-305.07C259.56,-315.73 287.46,-329.87 313,-340 318.03,-341.99 323.29,-343.92 328.6,-345.75"/>
<polygon fill="midnightblue" stroke="midnightblue" points="327.6,-349.1 338.2,-348.94 329.81,-342.46 327.6,-349.1"/>
</g>
<!-- Node9 -->
<g id="node9" class="node">
<title>Node9</title>
<g id="a_node9"><a xlink:href="namespacesll__m__box__splines.html#ad4228ae18d2dbf7abe54f1727a800c76" target="_top" xlink:title="Creates a box spline element.">
<polygon fill="white" stroke="black" points="325,-300 325,-330 462,-330 462,-300 325,-300"/>
<text text-anchor="start" x="333" y="-318" font-family="Helvetica,sans-Serif" font-size="10.00">sll_m_box_splines::</text>
<text text-anchor="middle" x="393.5" y="-307" font-family="Helvetica,sans-Serif" font-size="10.00">sll_f_new_box_spline_2d</text>
</a>
</g>
</g>
<!-- Node2&#45;&gt;Node9 -->
<g id="edge10" class="edge">
<title>Node2&#45;&gt;Node9</title>
<path fill="none" stroke="midnightblue" d="M277.23,-298.99C289.4,-300.68 302.24,-302.46 314.75,-304.2"/>
<polygon fill="midnightblue" stroke="midnightblue" points="314.32,-307.67 324.7,-305.58 315.28,-300.74 314.32,-307.67"/>
</g>
<!-- Node10 -->
<g id="node10" class="node">
<title>Node10</title>
<g id="a_node10"><a xlink:href="namespacesll__m__hexagonal__meshes.html#aaa2262794e099a011cb267f899c82b15" target="_top" xlink:title="Creates and initializes a new hexagonal mesh.">
<polygon fill="white" stroke="black" points="322,-251 322,-281 465,-281 465,-251 322,-251"/>
<text text-anchor="start" x="330" y="-269" font-family="Helvetica,sans-Serif" font-size="10.00">sll_m_hexagonal_meshes</text>
<text text-anchor="middle" x="393.5" y="-258" font-family="Helvetica,sans-Serif" font-size="10.00">::sll_f_new_hex_mesh_2d</text>
</a>
</g>
</g>
<!-- Node2&#45;&gt;Node10 -->
<g id="edge11" class="edge">
<title>Node2&#45;&gt;Node10</title>
<path fill="none" stroke="midnightblue" d="M277.23,-281.37C288.46,-279.87 300.25,-278.3 311.84,-276.75"/>
<polygon fill="midnightblue" stroke="midnightblue" points="312.5,-280.2 321.95,-275.41 311.57,-273.26 312.5,-280.2"/>
</g>
<!-- Node6 -->
<g id="node6" class="node">
<title>Node6</title>
<g id="a_node6"><a xlink:href="namespacesll__m__box__splines.html#aba645e61067c71ff9b07c7848cf12073" target="_top" xlink:title="Computes the binomial coefficient (n, k)">
<polygon fill="white" stroke="black" points="709,-393 709,-423 821,-423 821,-393 709,-393"/>
<text text-anchor="start" x="717" y="-411" font-family="Helvetica,sans-Serif" font-size="10.00">sll_m_box_splines::</text>
<text text-anchor="middle" x="765" y="-400" font-family="Helvetica,sans-Serif" font-size="10.00">choose</text>
</a>
</g>
</g>
<!-- Node5&#45;&gt;Node6 -->
<g id="edge5" class="edge">
<title>Node5&#45;&gt;Node6</title>
<path fill="none" stroke="midnightblue" d="M637.94,-408C657.12,-408 678.78,-408 698.68,-408"/>
<polygon fill="midnightblue" stroke="midnightblue" points="698.9,-411.5 708.9,-408 698.9,-404.5 698.9,-411.5"/>
</g>
<!-- Node7&#45;&gt;Node5 -->
<g id="edge7" class="edge">
<title>Node7&#45;&gt;Node5</title>
<path fill="none" stroke="midnightblue" d="M457.99,-436.98C476.55,-432.59 496.85,-427.79 515.5,-423.38"/>
<polygon fill="midnightblue" stroke="midnightblue" points="516.44,-426.75 525.37,-421.04 514.83,-419.94 516.44,-426.75"/>
</g>
<!-- Node8&#45;&gt;Node5 -->
<g id="edge9" class="edge">
<title>Node8&#45;&gt;Node5</title>
<path fill="none" stroke="midnightblue" d="M457.99,-379.02C476.55,-383.41 496.85,-388.21 515.5,-392.62"/>
<polygon fill="midnightblue" stroke="midnightblue" points="514.83,-396.06 525.37,-394.96 516.44,-389.25 514.83,-396.06"/>
</g>
<!-- Node11 -->
<g id="node11" class="node">
<title>Node11</title>
<g id="a_node11"><a xlink:href="namespacesll__m__hexagonal__meshes.html#a9384fd0ae5d59bb61739f9814a391007" target="_top" xlink:title="initializes a previously allocated 2d hex&#45;mesh">
<polygon fill="white" stroke="black" points="510,-251 510,-281 653,-281 653,-251 510,-251"/>
<text text-anchor="start" x="518" y="-269" font-family="Helvetica,sans-Serif" font-size="10.00">sll_m_hexagonal_meshes</text>
<text text-anchor="middle" x="581.5" y="-258" font-family="Helvetica,sans-Serif" font-size="10.00">::sll_s_hex_mesh_2d_init</text>
</a>
</g>
</g>
<!-- Node10&#45;&gt;Node11 -->
<g id="edge12" class="edge">
<title>Node10&#45;&gt;Node11</title>
<path fill="none" stroke="midnightblue" d="M465.08,-266C476.45,-266 488.29,-266 499.87,-266"/>
<polygon fill="midnightblue" stroke="midnightblue" points="499.96,-269.5 509.96,-266 499.96,-262.5 499.96,-269.5"/>
</g>
<!-- Node12 -->
<g id="node12" class="node">
<title>Node12</title>
<g id="a_node12"><a xlink:href="namespacesll__m__hexagonal__meshes.html#a47f7a419f8f8904d408ad3a630612ee4" target="_top" xlink:title="Finds the index in the global array of the point which coordinates where passed as parameter.">
<polygon fill="white" stroke="black" points="693.5,-202 693.5,-232 836.5,-232 836.5,-202 693.5,-202"/>
<text text-anchor="start" x="701.5" y="-220" font-family="Helvetica,sans-Serif" font-size="10.00">sll_m_hexagonal_meshes</text>
<text text-anchor="middle" x="765" y="-209" font-family="Helvetica,sans-Serif" font-size="10.00">::index_hex_to_global</text>
</a>
</g>
</g>
<!-- Node11&#45;&gt;Node12 -->
<g id="edge13" class="edge">
<title>Node11&#45;&gt;Node12</title>
<path fill="none" stroke="midnightblue" d="M638.44,-250.9C657.42,-245.77 678.79,-240 698.45,-234.7"/>
<polygon fill="midnightblue" stroke="midnightblue" points="699.51,-238.04 708.25,-232.05 697.68,-231.28 699.51,-238.04"/>
</g>
<!-- Node13 -->
<g id="node13" class="node">
<title>Node13</title>
<g id="a_node13"><a xlink:href="namespacesll__m__hexagonal__meshes.html#abc0ec74da1d524a49e0bf0f1c3fb7ed7" target="_top" xlink:title="&lt;BRIEF_DESCRIPTION&gt;">
<polygon fill="white" stroke="black" points="689,-300 689,-330 841,-330 841,-300 689,-300"/>
<text text-anchor="start" x="697" y="-318" font-family="Helvetica,sans-Serif" font-size="10.00">sll_m_hexagonal_meshes</text>
<text text-anchor="middle" x="765" y="-307" font-family="Helvetica,sans-Serif" font-size="10.00">::init_center_points_triangle</text>
</a>
</g>
</g>
<!-- Node11&#45;&gt;Node13 -->
<g id="edge14" class="edge">
<title>Node11&#45;&gt;Node13</title>
<path fill="none" stroke="midnightblue" d="M638.44,-281.1C657.42,-286.23 678.79,-292 698.45,-297.3"/>
<polygon fill="midnightblue" stroke="midnightblue" points="697.68,-300.72 708.25,-299.95 699.51,-293.96 697.68,-300.72"/>
</g>
<!-- Node14 -->
<g id="node14" class="node">
<title>Node14</title>
<g id="a_node14"><a xlink:href="namespacesll__m__hexagonal__meshes.html#a7c715615f53575368c5a2fccf6ea3583" target="_top" xlink:title="&lt;BRIEF_DESCRIPTION&gt;">
<polygon fill="white" stroke="black" points="692,-251 692,-281 838,-281 838,-251 692,-251"/>
<text text-anchor="start" x="700" y="-269" font-family="Helvetica,sans-Serif" font-size="10.00">sll_m_hexagonal_meshes</text>
<text text-anchor="middle" x="765" y="-258" font-family="Helvetica,sans-Serif" font-size="10.00">::init_edge_center_triangle</text>
</a>
</g>
</g>
<!-- Node11&#45;&gt;Node14 -->
<g id="edge15" class="edge">
<title>Node11&#45;&gt;Node14</title>
<path fill="none" stroke="midnightblue" d="M653.19,-266C662.48,-266 672.05,-266 681.51,-266"/>
<polygon fill="midnightblue" stroke="midnightblue" points="681.71,-269.5 691.71,-266 681.71,-262.5 681.71,-269.5"/>
</g>
<!-- Node16 -->
<g id="node16" class="node">
<title>Node16</title>
<g id="a_node16"><a xlink:href="namespacesll__m__fekete__integration.html#a27f642a490626a046858fb87eedff174" target="_top" xlink:title="returns the points and weights of a Fekete rule.">
<polygon fill="white" stroke="black" points="358,-76.5 358,-95.5 429,-95.5 429,-76.5 358,-76.5"/>
<text text-anchor="middle" x="393.5" y="-83.5" font-family="Helvetica,sans-Serif" font-size="10.00">fekete_rule</text>
</a>
</g>
</g>
<!-- Node15&#45;&gt;Node16 -->
<g id="edge17" class="edge">
<title>Node15&#45;&gt;Node16</title>
<path fill="none" stroke="midnightblue" d="M265.53,-83.88C291.57,-84.32 322.62,-84.84 347.49,-85.25"/>
<polygon fill="midnightblue" stroke="midnightblue" points="347.68,-88.75 357.73,-85.42 347.79,-81.75 347.68,-88.75"/>
</g>
<!-- Node21 -->
<g id="node21" class="node">
<title>Node21</title>
<g id="a_node21"><a xlink:href="namespacesll__m__fekete__integration.html#aa74e57776217489a27f8c7ef355a3e14" target="_top" xlink:title="Re arranges the order of the quadrature point to go from lower&#45;left to top right.">
<polygon fill="white" stroke="black" points="331.5,-38.5 331.5,-57.5 455.5,-57.5 455.5,-38.5 331.5,-38.5"/>
<text text-anchor="middle" x="393.5" y="-45.5" font-family="Helvetica,sans-Serif" font-size="10.00">rearrange_fekete_rule</text>
</a>
</g>
</g>
<!-- Node15&#45;&gt;Node21 -->
<g id="edge22" class="edge">
<title>Node15&#45;&gt;Node21</title>
<path fill="none" stroke="midnightblue" d="M265.53,-72.69C286.94,-68.53 311.71,-63.71 333.67,-59.44"/>
<polygon fill="midnightblue" stroke="midnightblue" points="334.39,-62.86 343.54,-57.52 333.05,-55.99 334.39,-62.86"/>
</g>
<!-- Node22 -->
<g id="node22" class="node">
<title>Node22</title>
<g id="a_node22"><a xlink:href="namespacesll__m__fekete__integration.html#a51d156745cf92c12df4b41a477cd6c6a" target="_top" xlink:title="maps T3 reference points to physical points.">
<polygon fill="white" stroke="black" points="324,-0.5 324,-19.5 463,-19.5 463,-0.5 324,-0.5"/>
<text text-anchor="middle" x="393.5" y="-7.5" font-family="Helvetica,sans-Serif" font-size="10.00">reference_to_physical_t3</text>
</a>
</g>
</g>
<!-- Node15&#45;&gt;Node22 -->
<g id="edge23" class="edge">
<title>Node15&#45;&gt;Node22</title>
<path fill="none" stroke="midnightblue" d="M236.44,-67.85C256.29,-55.85 285.6,-39.43 313,-29 319.66,-26.47 326.76,-24.19 333.87,-22.18"/>
<polygon fill="midnightblue" stroke="midnightblue" points="334.79,-25.56 343.55,-19.6 332.98,-18.8 334.79,-25.56"/>
</g>
<!-- Node15&#45;&gt;Node23 -->
<g id="edge24" class="edge">
<title>Node15&#45;&gt;Node23</title>
<path fill="none" stroke="midnightblue" d="M265.53,-95.08C289.31,-100.49 317.25,-106.86 340.85,-112.24"/>
<polygon fill="midnightblue" stroke="midnightblue" points="340.15,-115.67 350.68,-114.47 341.71,-108.84 340.15,-115.67"/>
</g>
<!-- Node17 -->
<g id="node17" class="node">
<title>Node17</title>
<g id="a_node17"><a xlink:href="namespacesll__m__fekete__integration.html#ac49d3ac7ddf882cf310aa5ec0e1cb251" target="_top" xlink:title="returns the suborders for a Fekete rule.">
<polygon fill="white" stroke="black" points="534,-133.5 534,-152.5 629,-152.5 629,-133.5 534,-133.5"/>
<text text-anchor="middle" x="581.5" y="-140.5" font-family="Helvetica,sans-Serif" font-size="10.00">fekete_suborder</text>
</a>
</g>
</g>
<!-- Node16&#45;&gt;Node17 -->
<g id="edge18" class="edge">
<title>Node16&#45;&gt;Node17</title>
<path fill="none" stroke="midnightblue" d="M429.11,-92.29C443.27,-95.37 459.66,-99.6 474,-105 490.93,-111.38 493.16,-117.38 510,-124 516.18,-126.43 522.79,-128.66 529.39,-130.67"/>
<polygon fill="midnightblue" stroke="midnightblue" points="528.41,-134.04 538.99,-133.46 530.37,-127.31 528.41,-134.04"/>
</g>
<!-- Node18 -->
<g id="node18" class="node">
<title>Node18</title>
<g id="a_node18"><a xlink:href="namespacesll__m__fekete__integration.html#aa2915462263d3b13d58e9538bc87d2a8" target="_top" xlink:title="returns the number of suborders for a Fekete rule.">
<polygon fill="white" stroke="black" points="520.5,-95.5 520.5,-114.5 642.5,-114.5 642.5,-95.5 520.5,-95.5"/>
<text text-anchor="middle" x="581.5" y="-102.5" font-family="Helvetica,sans-Serif" font-size="10.00">fekete_suborder_num</text>
</a>
</g>
</g>
<!-- Node16&#45;&gt;Node18 -->
<g id="edge19" class="edge">
<title>Node16&#45;&gt;Node18</title>
<path fill="none" stroke="midnightblue" d="M429.05,-89.53C451.79,-91.85 482.36,-94.98 510.09,-97.81"/>
<polygon fill="midnightblue" stroke="midnightblue" points="509.85,-101.3 520.15,-98.84 510.56,-94.34 509.85,-101.3"/>
</g>
<!-- Node19 -->
<g id="node19" class="node">
<title>Node19</title>
<g id="a_node19"><a xlink:href="namespacesll__m__fekete__integration.html#a6c628fc6b0e9e59bc5b196175ebd7851" target="_top" xlink:title="returns a compressed Fekete rule">
<polygon fill="white" stroke="black" points="537,-57.5 537,-76.5 626,-76.5 626,-57.5 537,-57.5"/>
<text text-anchor="middle" x="581.5" y="-64.5" font-family="Helvetica,sans-Serif" font-size="10.00">fekete_subrule</text>
</a>
</g>
</g>
<!-- Node16&#45;&gt;Node19 -->
<g id="edge20" class="edge">
<title>Node16&#45;&gt;Node19</title>
<path fill="none" stroke="midnightblue" d="M429.05,-82.47C456.42,-79.67 495.16,-75.72 526.6,-72.51"/>
<polygon fill="midnightblue" stroke="midnightblue" points="527.36,-75.95 536.96,-71.45 526.65,-68.98 527.36,-75.95"/>
</g>
<!-- Node20 -->
<g id="node20" class="node">
<title>Node20</title>
<g id="a_node20"><a xlink:href="namespacesll__m__fekete__integration.html#a00966f8455b0a2836270ef9831e95dff" target="_top" xlink:title="forces an I4 to lie between given limits by wrapping.">
<polygon fill="white" stroke="black" points="550.5,-19.5 550.5,-38.5 612.5,-38.5 612.5,-19.5 550.5,-19.5"/>
<text text-anchor="middle" x="581.5" y="-26.5" font-family="Helvetica,sans-Serif" font-size="10.00">wrapping</text>
</a>
</g>
</g>
<!-- Node16&#45;&gt;Node20 -->
<g id="edge21" class="edge">
<title>Node16&#45;&gt;Node20</title>
<path fill="none" stroke="midnightblue" d="M429.11,-79.71C443.27,-76.63 459.66,-72.4 474,-67 490.93,-60.62 493.16,-54.62 510,-48 519.64,-44.21 530.32,-40.9 540.38,-38.16"/>
<polygon fill="midnightblue" stroke="midnightblue" points="541.39,-41.51 550.18,-35.6 539.62,-34.74 541.39,-41.51"/>
</g>
<!-- Node23&#45;&gt;Node17 -->
<g id="edge25" class="edge">
<title>Node23&#45;&gt;Node17</title>
<path fill="none" stroke="midnightblue" d="M459.55,-130.65C480.52,-132.79 503.59,-135.14 523.9,-137.22"/>
<polygon fill="midnightblue" stroke="midnightblue" points="523.63,-140.71 533.93,-138.24 524.34,-133.74 523.63,-140.71"/>
</g>
<!-- Node23&#45;&gt;Node18 -->
<g id="edge26" class="edge">
<title>Node23&#45;&gt;Node18</title>
<path fill="none" stroke="midnightblue" d="M459.55,-117.35C475.95,-115.68 493.62,-113.87 510.26,-112.17"/>
<polygon fill="midnightblue" stroke="midnightblue" points="510.88,-115.63 520.47,-111.13 510.16,-108.67 510.88,-115.63"/>
</g>
</g>
</svg>
        <g id="navigator" transform="translate(0 0)" fill="#404254">
                <rect fill="#f2f5e9" fill-opacity="0.5" stroke="#606060" stroke-width=".5" x="0" y="0" width="60" height="60"/>
                <use id="zoomplus" xlink:href="#zoomPlus" x="17" y="9" onmousedown="handleZoom(evt,'in')"/>
                <use id="zoomminus" xlink:href="#zoomMin" x="42" y="9" onmousedown="handleZoom(evt,'out')"/>
                <use id="reset" xlink:href="#resetDef" x="30" y="36" onmousedown="handleReset()"/>
                <g id="arrowUp" xlink:href="#dirArrow" transform="translate(30 24)" onmousedown="handlePan(0,-1)">
                  <use xlink:href="#rim" fill="#404040">
                        <set attributeName="fill" to="#808080" begin="arrowUp.mouseover" end="arrowUp.mouseout"/>
                  </use>
                  <path fill="none" stroke="white" stroke-width="1.5" d="M0,-3.0v7 M-2.5,-0.5L0,-3.0L2.5,-0.5"/>
                </g>
                <g id="arrowRight" xlink:href="#dirArrow" transform="rotate(90) translate(36 -43)" onmousedown="handlePan(1,0)">
                  <use xlink:href="#rim" fill="#404040">
                        <set attributeName="fill" to="#808080" begin="arrowRight.mouseover" end="arrowRight.mouseout"/>
                  </use>
                  <path fill="none" stroke="white" stroke-width="1.5" d="M0,-3.0v7 M-2.5,-0.5L0,-3.0L2.5,-0.5"/>
                </g>
                <g id="arrowDown" xlink:href="#dirArrow" transform="rotate(180) translate(-30 -48)" onmousedown="handlePan(0,1)">
                  <use xlink:href="#rim" fill="#404040">
                        <set attributeName="fill" to="#808080" begin="arrowDown.mouseover" end="arrowDown.mouseout"/>
                  </use>
                  <path fill="none" stroke="white" stroke-width="1.5" d="M0,-3.0v7 M-2.5,-0.5L0,-3.0L2.5,-0.5"/>
                </g>
                <g id="arrowLeft" xlink:href="#dirArrow" transform="rotate(270) translate(-36 17)" onmousedown="handlePan(-1,0)">
                  <use xlink:href="#rim" fill="#404040">
                        <set attributeName="fill" to="#808080" begin="arrowLeft.mouseover" end="arrowLeft.mouseout"/>
                  </use>
                  <path fill="none" stroke="white" stroke-width="1.5" d="M0,-3.0v7 M-2.5,-0.5L0,-3.0L2.5,-0.5"/>
                </g>
        </g>
        <svg viewBox="0 0 15 15" width="100%" height="30px" preserveAspectRatio="xMaxYMin meet">
         <g id="arrow_out" transform="scale(0.3 0.3)">
          <a xlink:href="namespacesll__m__fekete__integration_ac7c05ae36ac69d55d2c022d71e82cae9_cgraph_org.svg" target="_base">
           <rect id="button" ry="5" rx="5" y="6" x="6" height="38" width="38"
                fill="#f2f5e9" fill-opacity="0.5" stroke="#606060" stroke-width="1.0"/>
           <path id="arrow"
             d="M 11.500037,31.436501 C 11.940474,20.09759 22.043105,11.32322 32.158766,21.979434 L 37.068811,17.246167 C 37.068811,17.246167 37.088388,32 37.088388,32 L 22.160133,31.978069 C 22.160133,31.978069 26.997745,27.140456 26.997745,27.140456 C 18.528582,18.264221 13.291696,25.230495 11.500037,31.436501 z"
             style="fill:#404040;"/>
          </a>
         </g>
        </svg>
</svg>
