<?xml version="1.0" encoding="UTF-8" standalone="no"?>
<!DOCTYPE svg PUBLIC "-//W3C//DTD SVG 1.1//EN"
 "http://www.w3.org/Graphics/SVG/1.1/DTD/svg11.dtd">
<!-- Generated by graphviz version 2.43.0 (0)
 -->
<!-- Title: sll_s_fft_exec_r2c_2d Pages: 1 -->
<svg width="331pt" height="110pt"
 viewBox="0.00 0.00 331.00 110.00" xmlns="http://www.w3.org/2000/svg" xmlns:xlink="http://www.w3.org/1999/xlink">
<g id="graph0" class="graph" transform="scale(1 1) rotate(0) translate(4 106)">
<title>sll_s_fft_exec_r2c_2d</title>
<polygon fill="white" stroke="transparent" points="-4,4 -4,-106 327,-106 327,4 -4,4"/>
<!-- Node1 -->
<g id="node1" class="node">
<title>Node1</title>
<g id="a_node1"><a xlink:title="Compute fast Fourier transform in real to complex mode.">
<polygon fill="#bfbfbf" stroke="black" points="204,-41.5 204,-60.5 323,-60.5 323,-41.5 204,-41.5"/>
<text text-anchor="middle" x="263.5" y="-48.5" font-family="Helvetica,sans-Serif" font-size="10.00">sll_s_fft_exec_r2c_2d</text>
</a>
</g>
</g>
<!-- Node2 -->
<g id="node2" class="node">
<title>Node2</title>
<g id="a_node2"><a xlink:href="interfacesll__m__poisson__2d__periodic_1_1sll__o__solve.html#a8571d1d3cca1b57ee563559320d1d293" target="_top" xlink:title="sll_o_solve Poisson equation on 2D mesh with periodic boundary conditions. return electric fields.">
<polygon fill="white" stroke="black" points="0,-60.5 0,-101.5 168,-101.5 168,-60.5 0,-60.5"/>
<text text-anchor="start" x="8" y="-89.5" font-family="Helvetica,sans-Serif" font-size="10.00">sll_m_poisson_2d_periodic</text>
<text text-anchor="start" x="8" y="-78.5" font-family="Helvetica,sans-Serif" font-size="10.00">::sll_o_solve::solve_e</text>
<text text-anchor="middle" x="84" y="-67.5" font-family="Helvetica,sans-Serif" font-size="10.00">_fields_poisson_2d_periodic_fft</text>
</a>
</g>
</g>
<!-- Node1&#45;&gt;Node2 -->
<g id="edge1" class="edge">
<title>Node1&#45;&gt;Node2</title>
<path fill="none" stroke="midnightblue" d="M195.85,-62.27C186.85,-63.79 177.53,-65.36 168.28,-66.92"/>
<polygon fill="midnightblue" stroke="midnightblue" points="196.57,-65.69 205.85,-60.57 195.41,-58.79 196.57,-65.69"/>
</g>
<!-- Node3 -->
<g id="node3" class="node">
<title>Node3</title>
<g id="a_node3"><a xlink:href="interfacesll__m__poisson__2d__periodic_1_1sll__o__solve.html#a04ef96f19b60003e1578e563fdaf1610" target="_top" xlink:title="sll_o_solve Poisson equation on 2D mesh with periodic boundary conditions. return potential.">
<polygon fill="white" stroke="black" points="5,-0.5 5,-41.5 163,-41.5 163,-0.5 5,-0.5"/>
<text text-anchor="start" x="13" y="-29.5" font-family="Helvetica,sans-Serif" font-size="10.00">sll_m_poisson_2d_periodic</text>
<text text-anchor="start" x="13" y="-18.5" font-family="Helvetica,sans-Serif" font-size="10.00">::sll_o_solve::solve_potential</text>
<text text-anchor="middle" x="84" y="-7.5" font-family="Helvetica,sans-Serif" font-size="10.00">_poisson_2d_periodic_fft</text>
</a>
</g>
</g>
<!-- Node1&#45;&gt;Node3 -->
<g id="edge2" class="edge">
<title>Node1&#45;&gt;Node3</title>
<path fill="none" stroke="midnightblue" d="M195.79,-39.72C185.13,-37.92 174.02,-36.04 163.12,-34.2"/>
<polygon fill="midnightblue" stroke="midnightblue" points="195.41,-43.21 205.85,-41.43 196.57,-36.31 195.41,-43.21"/>
</g>
</g>
</svg>
