<?xml version="1.0" encoding="UTF-8" standalone="no"?>
<!DOCTYPE svg PUBLIC "-//W3C//DTD SVG 1.1//EN"
 "http://www.w3.org/Graphics/SVG/1.1/DTD/svg11.dtd">
<!-- Generated by graphviz version 2.43.0 (0)
 -->
<!-- Title: sll_xml_dataitem_3d Pages: 1 -->
<svg width="291pt" height="193pt"
 viewBox="0.00 0.00 291.00 192.50" xmlns="http://www.w3.org/2000/svg" xmlns:xlink="http://www.w3.org/1999/xlink">
<g id="graph0" class="graph" transform="scale(1 1) rotate(0) translate(4 188.5)">
<title>sll_xml_dataitem_3d</title>
<polygon fill="white" stroke="transparent" points="-4,4 -4,-188.5 287,-188.5 287,4 -4,4"/>
<!-- Node1 -->
<g id="node1" class="node">
<title>Node1</title>
<g id="a_node1"><a xlink:title="Write the description of a scalar field on a 3D mesh.">
<polygon fill="#bfbfbf" stroke="black" points="164,-88 164,-107 283,-107 283,-88 164,-88"/>
<text text-anchor="middle" x="223.5" y="-95" font-family="Helvetica,sans-Serif" font-size="10.00">sll_xml_dataitem_3d</text>
</a>
</g>
</g>
<!-- Node2 -->
<g id="node2" class="node">
<title>Node2</title>
<g id="a_node2"><a xlink:href="interfacesll__m__xml__io_1_1sll__o__xml__field.html#af9987ceb2daed0f73fd284cdefa34643" target="_top" xlink:title="Write the description of a scalar field on a 3D mesh.">
<polygon fill="white" stroke="black" points="9,-143 9,-184 119,-184 119,-143 9,-143"/>
<text text-anchor="start" x="17" y="-172" font-family="Helvetica,sans-Serif" font-size="10.00">sll_m_xml_io::sll_o</text>
<text text-anchor="start" x="17" y="-161" font-family="Helvetica,sans-Serif" font-size="10.00">_xml_field::sll_xml</text>
<text text-anchor="middle" x="64" y="-150" font-family="Helvetica,sans-Serif" font-size="10.00">_field_3d</text>
</a>
</g>
</g>
<!-- Node1&#45;&gt;Node2 -->
<g id="edge1" class="edge">
<title>Node1&#45;&gt;Node2</title>
<path fill="none" stroke="midnightblue" d="M190.08,-111.09C168.13,-120.28 138.73,-132.6 113.95,-142.99"/>
<polygon fill="midnightblue" stroke="midnightblue" points="191.73,-114.19 199.6,-107.1 189.02,-107.73 191.73,-114.19"/>
</g>
<!-- Node3 -->
<g id="node3" class="node">
<title>Node3</title>
<g id="a_node3"><a xlink:href="interfacesll__m__xml__io_1_1sll__o__xml__grid__geometry.html#a221c0bd5fb8ef38dededc649c7c5e85f" target="_top" xlink:title="Write the description of a 3D structured curvilinear grid mesh with its nodes coordinates contains in...">
<polygon fill="white" stroke="black" points="0,-71.5 0,-123.5 128,-123.5 128,-71.5 0,-71.5"/>
<text text-anchor="start" x="8" y="-111.5" font-family="Helvetica,sans-Serif" font-size="10.00">sll_m_xml_io::sll_o</text>
<text text-anchor="start" x="8" y="-100.5" font-family="Helvetica,sans-Serif" font-size="10.00">_xml_grid_geometry::</text>
<text text-anchor="start" x="8" y="-89.5" font-family="Helvetica,sans-Serif" font-size="10.00">sll_xml_grid_geometry</text>
<text text-anchor="middle" x="64" y="-78.5" font-family="Helvetica,sans-Serif" font-size="10.00">_3d_high_level</text>
</a>
</g>
</g>
<!-- Node1&#45;&gt;Node3 -->
<g id="edge2" class="edge">
<title>Node1&#45;&gt;Node3</title>
<path fill="none" stroke="midnightblue" d="M153.64,-97.5C145.17,-97.5 136.56,-97.5 128.19,-97.5"/>
<polygon fill="midnightblue" stroke="midnightblue" points="153.85,-101 163.85,-97.5 153.85,-94 153.85,-101"/>
</g>
<!-- Node4 -->
<g id="node4" class="node">
<title>Node4</title>
<g id="a_node4"><a xlink:href="interfacesll__m__xml__io_1_1sll__o__xml__grid__geometry.html#ac7d0528db8cac2fb5fed2b76c35636ed" target="_top" xlink:title="Write the description of a 3D structured curvilinear grid mesh with its nodes coordinates contains in...">
<polygon fill="white" stroke="black" points="0,-0.5 0,-52.5 128,-52.5 128,-0.5 0,-0.5"/>
<text text-anchor="start" x="8" y="-40.5" font-family="Helvetica,sans-Serif" font-size="10.00">sll_m_xml_io::sll_o</text>
<text text-anchor="start" x="8" y="-29.5" font-family="Helvetica,sans-Serif" font-size="10.00">_xml_grid_geometry::</text>
<text text-anchor="start" x="8" y="-18.5" font-family="Helvetica,sans-Serif" font-size="10.00">sll_xml_grid_geometry</text>
<text text-anchor="middle" x="64" y="-7.5" font-family="Helvetica,sans-Serif" font-size="10.00">_3d_low_level</text>
</a>
</g>
</g>
<!-- Node1&#45;&gt;Node4 -->
<g id="edge3" class="edge">
<title>Node1&#45;&gt;Node4</title>
<path fill="none" stroke="midnightblue" d="M191.92,-83.71C172.3,-74.87 146.21,-63.11 122.79,-52.55"/>
<polygon fill="midnightblue" stroke="midnightblue" points="190.7,-87.01 201.26,-87.92 193.58,-80.62 190.7,-87.01"/>
</g>
</g>
</svg>
