<?xml version="1.0" encoding="UTF-8" standalone="no"?>
<!DOCTYPE svg PUBLIC "-//W3C//DTD SVG 1.1//EN"
 "http://www.w3.org/Graphics/SVG/1.1/DTD/svg11.dtd">
<!-- Generated by graphviz version 2.40.1 (20161225.0304)
 -->
<!-- Title: complex_product_real Pages: 1 -->
<svg width="310pt" height="542pt"
 viewBox="0.00 0.00 310.00 541.50" xmlns="http://www.w3.org/2000/svg" xmlns:xlink="http://www.w3.org/1999/xlink">
<g id="graph0" class="graph" transform="scale(1 1) rotate(0) translate(4 537.5)">
<title>complex_product_real</title>
<polygon fill="#ffffff" stroke="transparent" points="-4,4 -4,-537.5 306,-537.5 306,4 -4,4"/>
<!-- Node1 -->
<g id="node1" class="node">
<title>Node1</title>
<polygon fill="#bfbfbf" stroke="#000000" points="0,-274 0,-293 125,-293 125,-274 0,-274"/>
<text text-anchor="middle" x="62.5" y="-281" font-family="Helvetica,sans-Serif" font-size="10.00" fill="#000000">complex_product_real</text>
</g>
<!-- Node2 -->
<g id="node2" class="node">
<title>Node2</title>
<g id="a_node2"><a xlink:href="namespacesll__m__maxwell__1d__ps.html#a5c9b2f85c669dd1b29e92187d52ff1eb" target="_top" xlink:title="grad_proj0">
<polygon fill="#ffffff" stroke="#000000" points="197.5,-514 197.5,-533 265.5,-533 265.5,-514 197.5,-514"/>
<text text-anchor="middle" x="231.5" y="-521" font-family="Helvetica,sans-Serif" font-size="10.00" fill="#000000">grad_proj0</text>
</a>
</g>
</g>
<!-- Node1&#45;&gt;Node2 -->
<g id="edge1" class="edge">
<title>Node1&#45;&gt;Node2</title>
<path fill="none" stroke="#191970" d="M65.5026,-303.2805C73.1382,-346.5601 97.4006,-450.1229 161,-504.5 171.1165,-513.1496 184.7944,-517.9001 197.4104,-520.495"/>
<polygon fill="#191970" stroke="#191970" points="68.9206,-302.4961 63.8377,-293.2002 62.0141,-303.6369 68.9206,-302.4961"/>
</g>
<!-- Node3 -->
<g id="node3" class="node">
<title>Node3</title>
<g id="a_node3"><a xlink:href="namespacesll__m__maxwell__1d__ps.html#a46e3fb15ca597b392b2a0e6614bd19a3" target="_top" xlink:title="proj1_grad">
<polygon fill="#ffffff" stroke="#000000" points="197.5,-476 197.5,-495 265.5,-495 265.5,-476 197.5,-476"/>
<text text-anchor="middle" x="231.5" y="-483" font-family="Helvetica,sans-Serif" font-size="10.00" fill="#000000">proj1_grad</text>
</a>
</g>
</g>
<!-- Node1&#45;&gt;Node3 -->
<g id="edge2" class="edge">
<title>Node1&#45;&gt;Node3</title>
<path fill="none" stroke="#191970" d="M67.403,-302.9317C77.901,-340.4655 106.1796,-423.0564 161,-466.5 171.3323,-474.688 184.9049,-479.359 197.3797,-482.0193"/>
<polygon fill="#191970" stroke="#191970" points="70.7693,-301.9716 64.8055,-293.2147 64.0067,-303.7794 70.7693,-301.9716"/>
</g>
<!-- Node4 -->
<g id="node4" class="node">
<title>Node4</title>
<g id="a_node4"><a xlink:href="namespacesll__m__maxwell__1d__ps.html#a204f3373ec87c22cb525bb0315de319b" target="_top" xlink:title="inner_product_1d_ps">
<polygon fill="#ffffff" stroke="#000000" points="173,-438 173,-457 290,-457 290,-438 173,-438"/>
<text text-anchor="middle" x="231.5" y="-445" font-family="Helvetica,sans-Serif" font-size="10.00" fill="#000000">inner_product_1d_ps</text>
</a>
</g>
</g>
<!-- Node1&#45;&gt;Node4 -->
<g id="edge3" class="edge">
<title>Node1&#45;&gt;Node4</title>
<path fill="none" stroke="#191970" d="M70.0328,-302.2925C83.4922,-333.4218 114.67,-395.5176 161,-428.5 166.4732,-432.3964 172.7019,-435.4938 179.1387,-437.956"/>
<polygon fill="#191970" stroke="#191970" points="73.2382,-300.8853 66.1514,-293.0095 66.78,-303.5857 73.2382,-300.8853"/>
</g>
<!-- Node5 -->
<g id="node5" class="node">
<title>Node5</title>
<g id="a_node5"><a xlink:href="namespacesll__m__maxwell__1d__ps.html#addd00456d6978f3e54ed7c92ef1fed51" target="_top" xlink:title="Compute E_i from j_i integrated over the time interval using weak Ampere formulation. ">
<polygon fill="#ffffff" stroke="#000000" points="161,-400 161,-419 302,-419 302,-400 161,-400"/>
<text text-anchor="middle" x="231.5" y="-407" font-family="Helvetica,sans-Serif" font-size="10.00" fill="#000000">compute_e_from_j_1d_ps</text>
</a>
</g>
</g>
<!-- Node1&#45;&gt;Node5 -->
<g id="edge4" class="edge">
<title>Node1&#45;&gt;Node5</title>
<path fill="none" stroke="#191970" d="M74.3026,-301.6987C90.8106,-325.68 123.0685,-367.5045 161,-390.5 167.3955,-394.3772 174.5878,-397.4765 181.8698,-399.9504"/>
<polygon fill="#191970" stroke="#191970" points="77.0632,-299.5312 68.5848,-293.1776 71.2505,-303.4316 77.0632,-299.5312"/>
</g>
<!-- Node6 -->
<g id="node6" class="node">
<title>Node6</title>
<g id="a_node6"><a xlink:href="namespacesll__m__maxwell__1d__ps.html#aee06820086eda9b561fb66a3f57185a5" target="_top" xlink:title="compute_field_from\l_field_1d_ps">
<polygon fill="#ffffff" stroke="#000000" points="174.5,-350.5 174.5,-380.5 288.5,-380.5 288.5,-350.5 174.5,-350.5"/>
<text text-anchor="start" x="182.5" y="-368.5" font-family="Helvetica,sans-Serif" font-size="10.00" fill="#000000">compute_field_from</text>
<text text-anchor="middle" x="231.5" y="-357.5" font-family="Helvetica,sans-Serif" font-size="10.00" fill="#000000">_field_1d_ps</text>
</a>
</g>
</g>
<!-- Node1&#45;&gt;Node6 -->
<g id="edge5" class="edge">
<title>Node1&#45;&gt;Node6</title>
<path fill="none" stroke="#191970" d="M85.5951,-298.4939C105.1558,-310.7912 134.2119,-328.1272 161,-340.5 168.6632,-344.0395 176.98,-347.3932 185.1244,-350.4275"/>
<polygon fill="#191970" stroke="#191970" points="87.3796,-295.481 77.0627,-293.0702 83.6244,-301.3885 87.3796,-295.481"/>
</g>
<!-- Node7 -->
<g id="node7" class="node">
<title>Node7</title>
<g id="a_node7"><a xlink:href="namespacesll__m__maxwell__1d__ps.html#a9e55a5d02ee69497a0661ec69fbcc084" target="_top" xlink:title="compute_curl_part_1d_ps">
<polygon fill="#ffffff" stroke="#000000" points="161,-312 161,-331 302,-331 302,-312 161,-312"/>
<text text-anchor="middle" x="231.5" y="-319" font-family="Helvetica,sans-Serif" font-size="10.00" fill="#000000">compute_curl_part_1d_ps</text>
</a>
</g>
</g>
<!-- Node1&#45;&gt;Node7 -->
<g id="edge6" class="edge">
<title>Node1&#45;&gt;Node7</title>
<path fill="none" stroke="#191970" d="M115.0869,-295.3243C138.9129,-300.6816 166.7069,-306.9311 189.1608,-311.9799"/>
<polygon fill="#191970" stroke="#191970" points="115.6701,-291.8681 105.1458,-293.089 114.1344,-298.6976 115.6701,-291.8681"/>
</g>
<!-- Node8 -->
<g id="node8" class="node">
<title>Node8</title>
<g id="a_node8"><a xlink:href="namespacesll__m__maxwell__1d__ps.html#ae284c34a8333b70f2809cbeefc25b95d" target="_top" xlink:title="transform_dofs_1d_ps">
<polygon fill="#ffffff" stroke="#000000" points="169,-274 169,-293 294,-293 294,-274 169,-274"/>
<text text-anchor="middle" x="231.5" y="-281" font-family="Helvetica,sans-Serif" font-size="10.00" fill="#000000">transform_dofs_1d_ps</text>
</a>
</g>
</g>
<!-- Node1&#45;&gt;Node8 -->
<g id="edge7" class="edge">
<title>Node1&#45;&gt;Node8</title>
<path fill="none" stroke="#191970" d="M135.5136,-283.5C146.601,-283.5 157.9573,-283.5 168.7995,-283.5"/>
<polygon fill="#191970" stroke="#191970" points="135.4294,-280.0001 125.4294,-283.5 135.4293,-287.0001 135.4294,-280.0001"/>
</g>
<!-- Node9 -->
<g id="node9" class="node">
<title>Node9</title>
<g id="a_node9"><a xlink:href="namespacesll__m__maxwell__1d__ps.html#af92d3c7405230ec0d3d67e6d6035ec11" target="_top" xlink:title="compute_e_from_rho\l_1d_ps">
<polygon fill="#ffffff" stroke="#000000" points="171.5,-224.5 171.5,-254.5 291.5,-254.5 291.5,-224.5 171.5,-224.5"/>
<text text-anchor="start" x="179.5" y="-242.5" font-family="Helvetica,sans-Serif" font-size="10.00" fill="#000000">compute_e_from_rho</text>
<text text-anchor="middle" x="231.5" y="-231.5" font-family="Helvetica,sans-Serif" font-size="10.00" fill="#000000">_1d_ps</text>
</a>
</g>
</g>
<!-- Node1&#45;&gt;Node9 -->
<g id="edge8" class="edge">
<title>Node1&#45;&gt;Node9</title>
<path fill="none" stroke="#191970" d="M108.9649,-271.4026C128.9529,-266.1987 152.5289,-260.0605 173.6353,-254.5654"/>
<polygon fill="#191970" stroke="#191970" points="107.966,-268.0459 99.1705,-273.9527 109.7297,-274.8201 107.966,-268.0459"/>
</g>
<!-- Node10 -->
<g id="node10" class="node">
<title>Node10</title>
<g id="a_node10"><a xlink:href="namespacesll__m__maxwell__1d__ps.html#a969d68da25da33b0f5277a0787f4efd3" target="_top" xlink:title="compute_rho_from_e\l_1d_ps">
<polygon fill="#ffffff" stroke="#000000" points="171.5,-175.5 171.5,-205.5 291.5,-205.5 291.5,-175.5 171.5,-175.5"/>
<text text-anchor="start" x="179.5" y="-193.5" font-family="Helvetica,sans-Serif" font-size="10.00" fill="#000000">compute_rho_from_e</text>
<text text-anchor="middle" x="231.5" y="-182.5" font-family="Helvetica,sans-Serif" font-size="10.00" fill="#000000">_1d_ps</text>
</a>
</g>
</g>
<!-- Node1&#45;&gt;Node10 -->
<g id="edge9" class="edge">
<title>Node1&#45;&gt;Node10</title>
<path fill="none" stroke="#191970" d="M82.2801,-267.5074C101.4996,-252.5486 131.9573,-230.3441 161,-215.5 168.0537,-211.8947 175.7488,-208.5882 183.379,-205.6426"/>
<polygon fill="#191970" stroke="#191970" points="79.9663,-264.8747 74.2857,-273.818 84.3035,-270.3692 79.9663,-264.8747"/>
</g>
<!-- Node11 -->
<g id="node11" class="node">
<title>Node11</title>
<g id="a_node11"><a xlink:href="namespacesll__m__maxwell__1d__ps.html#ac11edcc55c08d612b22aa8f964e6d868" target="_top" xlink:title="multiply_g">
<polygon fill="#ffffff" stroke="#000000" points="197.5,-137 197.5,-156 265.5,-156 265.5,-137 197.5,-137"/>
<text text-anchor="middle" x="231.5" y="-144" font-family="Helvetica,sans-Serif" font-size="10.00" fill="#000000">multiply_g</text>
</a>
</g>
</g>
<!-- Node1&#45;&gt;Node11 -->
<g id="edge10" class="edge">
<title>Node1&#45;&gt;Node11</title>
<path fill="none" stroke="#191970" d="M73.0078,-265.1651C88.7869,-239.2822 121.0552,-192.3141 161,-166.5 171.8992,-159.4565 185.3051,-154.8507 197.49,-151.8583"/>
<polygon fill="#191970" stroke="#191970" points="69.8794,-263.5786 67.786,-273.9646 75.8993,-267.1509 69.8794,-263.5786"/>
</g>
<!-- Node12 -->
<g id="node12" class="node">
<title>Node12</title>
<g id="a_node12"><a xlink:href="namespacesll__m__maxwell__1d__ps.html#a0f6828f2035b982f28dcf937710d1f27" target="_top" xlink:title="multiply_gt">
<polygon fill="#ffffff" stroke="#000000" points="195.5,-99 195.5,-118 267.5,-118 267.5,-99 195.5,-99"/>
<text text-anchor="middle" x="231.5" y="-106" font-family="Helvetica,sans-Serif" font-size="10.00" fill="#000000">multiply_gt</text>
</a>
</g>
</g>
<!-- Node1&#45;&gt;Node12 -->
<g id="edge11" class="edge">
<title>Node1&#45;&gt;Node12</title>
<path fill="none" stroke="#191970" d="M69.2797,-264.2041C81.9413,-231.0418 112.3841,-163.3521 161,-127.5 170.8961,-120.2021 183.4144,-115.7068 195.1471,-112.938"/>
<polygon fill="#191970" stroke="#191970" points="65.9639,-263.0803 65.7931,-273.6738 72.5328,-265.4989 65.9639,-263.0803"/>
</g>
<!-- Node13 -->
<g id="node13" class="node">
<title>Node13</title>
<g id="a_node13"><a xlink:href="namespacesll__m__maxwell__1d__ps.html#ab57ee5ce5456d5ff91aee001087e1797" target="_top" xlink:title="For model with adiabatic electrons. ">
<polygon fill="#ffffff" stroke="#000000" points="167,-49.5 167,-79.5 296,-79.5 296,-49.5 167,-49.5"/>
<text text-anchor="start" x="175" y="-67.5" font-family="Helvetica,sans-Serif" font-size="10.00" fill="#000000">compute_phi_from_rho</text>
<text text-anchor="middle" x="231.5" y="-56.5" font-family="Helvetica,sans-Serif" font-size="10.00" fill="#000000">_1d_ps</text>
</a>
</g>
</g>
<!-- Node1&#45;&gt;Node13 -->
<g id="edge12" class="edge">
<title>Node1&#45;&gt;Node13</title>
<path fill="none" stroke="#191970" d="M67.2234,-263.8504C77.5444,-225.0287 105.7307,-138.0609 161,-89.5 165.3901,-85.6428 170.4151,-82.3692 175.7163,-79.5931"/>
<polygon fill="#191970" stroke="#191970" points="63.7515,-263.3023 64.6804,-273.8563 70.5358,-265.0266 63.7515,-263.3023"/>
</g>
<!-- Node14 -->
<g id="node14" class="node">
<title>Node14</title>
<g id="a_node14"><a xlink:href="namespacesll__m__maxwell__1d__ps.html#a7054adbfec2e8d274b466db12efbbd53" target="_top" xlink:title="For model with adiabatic electrons. ">
<polygon fill="#ffffff" stroke="#000000" points="173.5,-.5 173.5,-30.5 289.5,-30.5 289.5,-.5 173.5,-.5"/>
<text text-anchor="start" x="181.5" y="-18.5" font-family="Helvetica,sans-Serif" font-size="10.00" fill="#000000">compute_phi_from_j</text>
<text text-anchor="middle" x="231.5" y="-7.5" font-family="Helvetica,sans-Serif" font-size="10.00" fill="#000000">_1d_ps</text>
</a>
</g>
</g>
<!-- Node1&#45;&gt;Node14 -->
<g id="edge13" class="edge">
<title>Node1&#45;&gt;Node14</title>
<path fill="none" stroke="#191970" d="M65.0337,-263.4074C71.875,-217.4443 94.8929,-103.7394 161,-40.5 165.0351,-36.6399 169.7038,-33.3712 174.6792,-30.6042"/>
<polygon fill="#191970" stroke="#191970" points="61.5325,-263.1756 63.6266,-273.5614 68.4662,-264.1365 61.5325,-263.1756"/>
</g>
</g>
</svg>
