<?xml version="1.0" encoding="UTF-8" standalone="no"?>
<!DOCTYPE svg PUBLIC "-//W3C//DTD SVG 1.1//EN"
 "http://www.w3.org/Graphics/SVG/1.1/DTD/svg11.dtd">
<!-- Generated by graphviz version 2.40.1 (20161225.0304)
 -->
<!-- Title: initialize_sll_t_advector_1d_non_uniform_cubic_splines Pages: 1 -->
<svg width="346pt" height="50pt"
 viewBox="0.00 0.00 346.00 50.00" xmlns="http://www.w3.org/2000/svg" xmlns:xlink="http://www.w3.org/1999/xlink">
<g id="graph0" class="graph" transform="scale(1 1) rotate(0) translate(4 46)">
<title>initialize_sll_t_advector_1d_non_uniform_cubic_splines</title>
<polygon fill="#ffffff" stroke="transparent" points="-4,4 -4,-46 342,-46 342,4 -4,4"/>
<!-- Node10 -->
<g id="node1" class="node">
<title>Node10</title>
<polygon fill="#bfbfbf" stroke="#000000" points="0,-6 0,-36 171,-36 171,-6 0,-6"/>
<text text-anchor="start" x="8" y="-24" font-family="Helvetica,sans-Serif" font-size="10.00" fill="#000000">initialize_sll_t_advector</text>
<text text-anchor="middle" x="85.5" y="-13" font-family="Helvetica,sans-Serif" font-size="10.00" fill="#000000">_1d_non_uniform_cubic_splines</text>
</g>
<!-- Node11 -->
<g id="node2" class="node">
<title>Node11</title>
<g id="a_node2"><a xlink:href="namespacesll__m__advection__1d__non__uniform__cubic__splines.html#acc49f9cb45ee80ca8099bf0d34200efd" target="_top" xlink:title="sll_f_new_advector\l_1d_non_uniform_cubic\l_splines">
<polygon fill="#ffffff" stroke="#000000" points="207,-.5 207,-41.5 338,-41.5 338,-.5 207,-.5"/>
<text text-anchor="start" x="215" y="-29.5" font-family="Helvetica,sans-Serif" font-size="10.00" fill="#000000">sll_f_new_advector</text>
<text text-anchor="start" x="215" y="-18.5" font-family="Helvetica,sans-Serif" font-size="10.00" fill="#000000">_1d_non_uniform_cubic</text>
<text text-anchor="middle" x="272.5" y="-7.5" font-family="Helvetica,sans-Serif" font-size="10.00" fill="#000000">_splines</text>
</a>
</g>
</g>
<!-- Node10&#45;&gt;Node11 -->
<g id="edge1" class="edge">
<title>Node10&#45;&gt;Node11</title>
<path fill="none" stroke="#191970" d="M181.2316,-21C189.8976,-21 198.538,-21 206.8548,-21"/>
<polygon fill="#191970" stroke="#191970" points="181.0647,-17.5001 171.0646,-21 181.0646,-24.5001 181.0647,-17.5001"/>
</g>
</g>
</svg>
