<?xml version="1.0" encoding="UTF-8" standalone="no"?>
<!DOCTYPE svg PUBLIC "-//W3C//DTD SVG 1.1//EN"
 "http://www.w3.org/Graphics/SVG/1.1/DTD/svg11.dtd">
<!-- Generated by graphviz version 2.43.0 (0)
 -->
<!-- Title: sll_s_spline_pp_b_to_pp_3d_cella Pages: 1 -->
<svg width="464pt" height="39pt"
 viewBox="0.00 0.00 464.00 39.00" xmlns="http://www.w3.org/2000/svg" xmlns:xlink="http://www.w3.org/1999/xlink">
<g id="graph0" class="graph" transform="scale(1 1) rotate(0) translate(4 35)">
<title>sll_s_spline_pp_b_to_pp_3d_cella</title>
<polygon fill="white" stroke="transparent" points="-4,4 -4,-35 460,-35 460,4 -4,4"/>
<!-- Node1 -->
<g id="node1" class="node">
<title>Node1</title>
<g id="a_node1"><a xlink:title="Convert 3d spline in B form in a cell to spline in pp form with clamped boundary in first direction a...">
<polygon fill="#bfbfbf" stroke="black" points="340,-0.5 340,-30.5 456,-30.5 456,-0.5 340,-0.5"/>
<text text-anchor="start" x="348" y="-18.5" font-family="Helvetica,sans-Serif" font-size="10.00">sll_s_spline_pp_b_to</text>
<text text-anchor="middle" x="398" y="-7.5" font-family="Helvetica,sans-Serif" font-size="10.00">_pp_3d_cella</text>
</a>
</g>
</g>
<!-- Node2 -->
<g id="node2" class="node">
<title>Node2</title>
<g id="a_node2"><a xlink:href="namespacesll__m__splines__pp.html#a109b7091f4f1906d9806c109df6c7ac4" target="_top" xlink:title="Convert 3d spline in B form to spline in pp form for clamped spline.">
<polygon fill="white" stroke="black" points="188,-0.5 188,-30.5 304,-30.5 304,-0.5 188,-0.5"/>
<text text-anchor="start" x="196" y="-18.5" font-family="Helvetica,sans-Serif" font-size="10.00">sll_s_spline_pp_b_to</text>
<text text-anchor="middle" x="246" y="-7.5" font-family="Helvetica,sans-Serif" font-size="10.00">_pp_3d_clamped</text>
</a>
</g>
</g>
<!-- Node1&#45;&gt;Node2 -->
<g id="edge1" class="edge">
<title>Node1&#45;&gt;Node2</title>
<path fill="none" stroke="midnightblue" d="M329.69,-15.5C321.27,-15.5 312.72,-15.5 304.47,-15.5"/>
<polygon fill="midnightblue" stroke="midnightblue" points="329.86,-19 339.86,-15.5 329.86,-12 329.86,-19"/>
</g>
<!-- Node3 -->
<g id="node3" class="node">
<title>Node3</title>
<g id="a_node3"><a xlink:href="namespacesll__m__splines__pp.html#a382a523b8cbb98a4c148f5ba85ffb1e0" target="_top" xlink:title=" ">
<polygon fill="white" stroke="black" points="0,-0.5 0,-30.5 152,-30.5 152,-0.5 0,-0.5"/>
<text text-anchor="start" x="8" y="-18.5" font-family="Helvetica,sans-Serif" font-size="10.00">sll_s_spline_evaluate</text>
<text text-anchor="middle" x="76" y="-7.5" font-family="Helvetica,sans-Serif" font-size="10.00">_basis_b_form_3d_clamped</text>
</a>
</g>
</g>
<!-- Node2&#45;&gt;Node3 -->
<g id="edge2" class="edge">
<title>Node2&#45;&gt;Node3</title>
<path fill="none" stroke="midnightblue" d="M177.6,-15.5C169.25,-15.5 160.67,-15.5 152.21,-15.5"/>
<polygon fill="midnightblue" stroke="midnightblue" points="177.65,-19 187.65,-15.5 177.65,-12 177.65,-19"/>
</g>
</g>
</svg>
