<?xml version="1.0" encoding="UTF-8" standalone="no"?>
<!DOCTYPE svg PUBLIC "-//W3C//DTD SVG 1.1//EN"
 "http://www.w3.org/Graphics/SVG/1.1/DTD/svg11.dtd">
<!-- Generated by graphviz version 2.38.0 (20140413.2041)
 -->
<!-- Title: s_spline_interpolator_1d__init Pages: 1 -->
<svg width="272pt" height="225pt"
 viewBox="0.00 0.00 272.00 224.50" xmlns="http://www.w3.org/2000/svg" xmlns:xlink="http://www.w3.org/1999/xlink">
<g id="graph0" class="graph" transform="scale(1 1) rotate(0) translate(4 220.5)">
<title>s_spline_interpolator_1d__init</title>
<polygon fill="white" stroke="none" points="-4,4 -4,-220.5 268,-220.5 268,4 -4,4"/>
<!-- Node1 -->
<g id="node1" class="node"><title>Node1</title>
<polygon fill="#bfbfbf" stroke="black" points="0,-88 0,-118 106,-118 106,-88 0,-88"/>
<text text-anchor="start" x="8" y="-106" font-family="Helvetica,sans-Serif" font-size="10.00">s_spline_interpolator</text>
<text text-anchor="middle" x="53" y="-95" font-family="Helvetica,sans-Serif" font-size="10.00">_1d__init</text>
</g>
<!-- Node2 -->
<g id="node2" class="node"><title>Node2</title>
<g id="a_node2"><a xlink:href="namespacesll__m__spline__interpolator__1d.html#ae1a964f22558ed2e0c29369ed8b76eac" target="_top" xlink:title="s_compute_interpolation\l_points_uniform">
<polygon fill="white" stroke="black" points="142,-186 142,-216 264,-216 264,-186 142,-186"/>
<text text-anchor="start" x="150" y="-204" font-family="Helvetica,sans-Serif" font-size="10.00">s_compute_interpolation</text>
<text text-anchor="middle" x="203" y="-193" font-family="Helvetica,sans-Serif" font-size="10.00">_points_uniform</text>
</a>
</g>
</g>
<!-- Node1&#45;&gt;Node2 -->
<g id="edge1" class="edge"><title>Node1&#45;&gt;Node2</title>
<path fill="none" stroke="midnightblue" d="M69.0468,-118.283C85.7014,-134.536 113.919,-160.173 142,-177 144.657,-178.592 147.439,-180.12 150.288,-181.579"/>
<polygon fill="midnightblue" stroke="midnightblue" points="149.011,-184.848 159.543,-185.998 152.027,-178.531 149.011,-184.848"/>
</g>
<!-- Node3 -->
<g id="node3" class="node"><title>Node3</title>
<g id="a_node3"><a xlink:href="namespacesll__m__spline__interpolator__1d.html#a63699ed826b69cc20c68089f1e6e05d5" target="_top" xlink:title="s_compute_num_diags\l_uniform">
<polygon fill="white" stroke="black" points="144.5,-137 144.5,-167 261.5,-167 261.5,-137 144.5,-137"/>
<text text-anchor="start" x="152.5" y="-155" font-family="Helvetica,sans-Serif" font-size="10.00">s_compute_num_diags</text>
<text text-anchor="middle" x="203" y="-144" font-family="Helvetica,sans-Serif" font-size="10.00">_uniform</text>
</a>
</g>
</g>
<!-- Node1&#45;&gt;Node3 -->
<g id="edge2" class="edge"><title>Node1&#45;&gt;Node3</title>
<path fill="none" stroke="midnightblue" d="M99.6125,-118.101C114.594,-123.062 131.405,-128.627 147.007,-133.793"/>
<polygon fill="midnightblue" stroke="midnightblue" points="145.945,-137.128 156.538,-136.948 148.145,-130.483 145.945,-137.128"/>
</g>
<!-- Node4 -->
<g id="node4" class="node"><title>Node4</title>
<g id="a_node4"><a xlink:href="namespacesll__m__spline__interpolator__1d.html#a8321b611443b5c2e58e9b8a80248f1f3" target="_top" xlink:title="s_compute_interpolation\l_points_non_uniform">
<polygon fill="white" stroke="black" points="142,-88 142,-118 264,-118 264,-88 142,-88"/>
<text text-anchor="start" x="150" y="-106" font-family="Helvetica,sans-Serif" font-size="10.00">s_compute_interpolation</text>
<text text-anchor="middle" x="203" y="-95" font-family="Helvetica,sans-Serif" font-size="10.00">_points_non_uniform</text>
</a>
</g>
</g>
<!-- Node1&#45;&gt;Node4 -->
<g id="edge3" class="edge"><title>Node1&#45;&gt;Node4</title>
<path fill="none" stroke="midnightblue" d="M106.179,-103C114.494,-103 123.212,-103 131.859,-103"/>
<polygon fill="midnightblue" stroke="midnightblue" points="131.95,-106.5 141.95,-103 131.95,-99.5001 131.95,-106.5"/>
</g>
<!-- Node5 -->
<g id="node5" class="node"><title>Node5</title>
<g id="a_node5"><a xlink:href="namespacesll__m__spline__interpolator__1d.html#ab12b5820d8774cc514828be814d4ae93" target="_top" xlink:title="s_compute_num_diags\l_non_uniform">
<polygon fill="white" stroke="black" points="144.5,-39 144.5,-69 261.5,-69 261.5,-39 144.5,-39"/>
<text text-anchor="start" x="152.5" y="-57" font-family="Helvetica,sans-Serif" font-size="10.00">s_compute_num_diags</text>
<text text-anchor="middle" x="203" y="-46" font-family="Helvetica,sans-Serif" font-size="10.00">_non_uniform</text>
</a>
</g>
</g>
<!-- Node1&#45;&gt;Node5 -->
<g id="edge4" class="edge"><title>Node1&#45;&gt;Node5</title>
<path fill="none" stroke="midnightblue" d="M99.6125,-87.8986C114.594,-82.9385 131.405,-77.3726 147.007,-72.2071"/>
<polygon fill="midnightblue" stroke="midnightblue" points="148.145,-75.5173 156.538,-69.0516 145.945,-68.872 148.145,-75.5173"/>
</g>
<!-- Node6 -->
<g id="node6" class="node"><title>Node6</title>
<g id="a_node6"><a xlink:href="namespacesll__m__spline__interpolator__1d.html#a18976406340325515a922d4db04fadc6" target="_top" xlink:title="Private subroutine for assembling and factorizing linear system for any kind of boundary conditions a...">
<polygon fill="white" stroke="black" points="160.5,-0.5 160.5,-19.5 245.5,-19.5 245.5,-0.5 160.5,-0.5"/>
<text text-anchor="middle" x="203" y="-7.5" font-family="Helvetica,sans-Serif" font-size="10.00">s_build_system</text>
</a>
</g>
</g>
<!-- Node1&#45;&gt;Node6 -->
<g id="edge5" class="edge"><title>Node1&#45;&gt;Node6</title>
<path fill="none" stroke="midnightblue" d="M68.6001,-87.9153C85.0883,-71.6345 113.369,-45.9069 142,-30 146.562,-27.4653 151.499,-25.1824 156.513,-23.1451"/>
<polygon fill="midnightblue" stroke="midnightblue" points="158.036,-26.3123 166.174,-19.5285 155.582,-19.7565 158.036,-26.3123"/>
</g>
</g>
</svg>
