<?xml version="1.0" encoding="UTF-8" standalone="no"?>
<!DOCTYPE svg PUBLIC "-//W3C//DTD SVG 1.1//EN"
 "http://www.w3.org/Graphics/SVG/1.1/DTD/svg11.dtd">
<!-- Generated by graphviz version 2.38.0 (20140413.2041)
 -->
<!-- Title: spli2d_custom_der1 Pages: 1 -->
<svg width="209pt" height="66pt"
 viewBox="0.00 0.00 209.00 66.00" xmlns="http://www.w3.org/2000/svg" xmlns:xlink="http://www.w3.org/1999/xlink">
<g id="graph0" class="graph" transform="scale(1 1) rotate(0) translate(4 62)">
<title>spli2d_custom_der1</title>
<polygon fill="white" stroke="none" points="-4,4 -4,-62 205,-62 205,4 -4,4"/>
<!-- Node1 -->
<g id="node1" class="node"><title>Node1</title>
<polygon fill="#bfbfbf" stroke="black" points="0,-19.5 0,-38.5 104,-38.5 104,-19.5 0,-19.5"/>
<text text-anchor="middle" x="52" y="-26.5" font-family="Helvetica,sans-Serif" font-size="10.00">spli2d_custom_der1</text>
</g>
<!-- Node2 -->
<g id="node2" class="node"><title>Node2</title>
<g id="a_node2"><a xlink:href="namespacesll__m__deboor__splines__2d.html#afcf5f4b15f0986f624489224c943816b" target="_top" xlink:title="spli2d_der">
<polygon fill="white" stroke="black" points="140,-38.5 140,-57.5 201,-57.5 201,-38.5 140,-38.5"/>
<text text-anchor="middle" x="170.5" y="-45.5" font-family="Helvetica,sans-Serif" font-size="10.00">spli2d_der</text>
</a>
</g>
</g>
<!-- Node1&#45;&gt;Node2 -->
<g id="edge1" class="edge"><title>Node1&#45;&gt;Node2</title>
<path fill="none" stroke="midnightblue" d="M104.099,-37.3337C112.696,-38.7358 121.504,-40.1724 129.759,-41.5187"/>
<polygon fill="midnightblue" stroke="midnightblue" points="129.429,-45.011 139.862,-43.1663 130.556,-38.1023 129.429,-45.011"/>
</g>
<!-- Node3 -->
<g id="node3" class="node"><title>Node3</title>
<g id="a_node3"><a xlink:href="namespacesll__m__deboor__splines__2d.html#a118ffa580c340b0f9ffbb859fe35dcf7" target="_top" xlink:title="spli2d">
<polygon fill="white" stroke="black" points="149.5,-0.5 149.5,-19.5 191.5,-19.5 191.5,-0.5 149.5,-0.5"/>
<text text-anchor="middle" x="170.5" y="-7.5" font-family="Helvetica,sans-Serif" font-size="10.00">spli2d</text>
</a>
</g>
</g>
<!-- Node1&#45;&gt;Node3 -->
<g id="edge2" class="edge"><title>Node1&#45;&gt;Node3</title>
<path fill="none" stroke="midnightblue" d="M104.099,-20.6663C116.112,-18.7071 128.537,-16.6806 139.289,-14.9271"/>
<polygon fill="midnightblue" stroke="midnightblue" points="140.099,-18.3413 149.406,-13.2772 138.973,-11.4326 140.099,-18.3413"/>
</g>
</g>
</svg>
