<?xml version="1.0" encoding="UTF-8" standalone="no"?>
<!DOCTYPE svg PUBLIC "-//W3C//DTD SVG 1.1//EN"
 "http://www.w3.org/Graphics/SVG/1.1/DTD/svg11.dtd">
<!-- Generated by graphviz version 2.43.0 (0)
 -->
<!-- Title: sll_s_fft_filter Pages: 1 -->
<svg width="372pt" height="186pt"
 viewBox="0.00 0.00 372.00 186.00" xmlns="http://www.w3.org/2000/svg" xmlns:xlink="http://www.w3.org/1999/xlink">
<g id="graph0" class="graph" transform="scale(1 1) rotate(0) translate(4 182)">
<title>sll_s_fft_filter</title>
<polygon fill="white" stroke="transparent" points="-4,4 -4,-182 368,-182 368,4 -4,4"/>
<!-- Node1 -->
<g id="node1" class="node">
<title>Node1</title>
<g id="a_node1"><a xlink:title=" ">
<polygon fill="#bfbfbf" stroke="black" points="0,-79 0,-98 82,-98 82,-79 0,-79"/>
<text text-anchor="middle" x="41" y="-86" font-family="Helvetica,sans-Serif" font-size="10.00">sll_s_fft_filter</text>
</a>
</g>
</g>
<!-- Node2 -->
<g id="node2" class="node">
<title>Node2</title>
<g id="a_node2"><a xlink:href="namespacesll__m__fft.html#ac3f0bdd60b0eb75e936d13bf15f06ea2" target="_top" xlink:title="Compute fast Fourier transform in real to real mode.">
<polygon fill="white" stroke="black" points="118,-73.5 118,-103.5 220,-103.5 220,-73.5 118,-73.5"/>
<text text-anchor="start" x="126" y="-91.5" font-family="Helvetica,sans-Serif" font-size="10.00">sll_m_fft::sll_s_fft</text>
<text text-anchor="middle" x="169" y="-80.5" font-family="Helvetica,sans-Serif" font-size="10.00">_exec_r2r_1d</text>
</a>
</g>
</g>
<!-- Node1&#45;&gt;Node2 -->
<g id="edge1" class="edge">
<title>Node1&#45;&gt;Node2</title>
<path fill="none" stroke="midnightblue" d="M82.21,-88.5C90.39,-88.5 99.16,-88.5 107.86,-88.5"/>
<polygon fill="midnightblue" stroke="midnightblue" points="108,-92 118,-88.5 108,-85 108,-92"/>
</g>
<!-- Node3 -->
<g id="node3" class="node">
<title>Node3</title>
<g id="a_node3"><a xlink:href="namespacesll__m__fft.html#adc3b2920736c7691d7bf0f1e91574f82" target="_top" xlink:title="Function to reconstruct a complex FFT mode from the data of a r2r transform.">
<polygon fill="white" stroke="black" points="256,-147.5 256,-177.5 364,-177.5 364,-147.5 256,-147.5"/>
<text text-anchor="start" x="264" y="-165.5" font-family="Helvetica,sans-Serif" font-size="10.00">sll_m_fft::sll_f_fft</text>
<text text-anchor="middle" x="310" y="-154.5" font-family="Helvetica,sans-Serif" font-size="10.00">_get_mode_r2c_1d</text>
</a>
</g>
</g>
<!-- Node2&#45;&gt;Node3 -->
<g id="edge2" class="edge">
<title>Node2&#45;&gt;Node3</title>
<path fill="none" stroke="midnightblue" d="M194.47,-103.62C211.48,-113.9 234.82,-127.58 256,-138.5 258.92,-140 261.95,-141.51 265.02,-143"/>
<polygon fill="midnightblue" stroke="midnightblue" points="263.73,-146.26 274.26,-147.38 266.72,-139.94 263.73,-146.26"/>
</g>
<!-- Node4 -->
<g id="node4" class="node">
<title>Node4</title>
<g id="a_node4"><a xlink:href="namespacesll__m__fft.html#a293ae19515b20fa6d456ef2c52f99b23" target="_top" xlink:title="Compute fast Fourier transform in complex to real mode.">
<polygon fill="white" stroke="black" points="259,-98.5 259,-128.5 361,-128.5 361,-98.5 259,-98.5"/>
<text text-anchor="start" x="267" y="-116.5" font-family="Helvetica,sans-Serif" font-size="10.00">sll_m_fft::sll_s_fft</text>
<text text-anchor="middle" x="310" y="-105.5" font-family="Helvetica,sans-Serif" font-size="10.00">_exec_c2r_1d</text>
</a>
</g>
</g>
<!-- Node2&#45;&gt;Node4 -->
<g id="edge3" class="edge">
<title>Node2&#45;&gt;Node4</title>
<path fill="none" stroke="midnightblue" d="M220.18,-97.53C229.53,-99.21 239.39,-100.98 249,-102.71"/>
<polygon fill="midnightblue" stroke="midnightblue" points="248.43,-106.16 258.89,-104.49 249.67,-99.27 248.43,-106.16"/>
</g>
<!-- Node5 -->
<g id="node5" class="node">
<title>Node5</title>
<g id="a_node5"><a xlink:href="namespacesll__m__fft.html#a07ee4cd52316d2769eee6c35861d1482" target="_top" xlink:title="Compute fast Fourier transform in real to complex mode.">
<polygon fill="white" stroke="black" points="259,-49.5 259,-79.5 361,-79.5 361,-49.5 259,-49.5"/>
<text text-anchor="start" x="267" y="-67.5" font-family="Helvetica,sans-Serif" font-size="10.00">sll_m_fft::sll_s_fft</text>
<text text-anchor="middle" x="310" y="-56.5" font-family="Helvetica,sans-Serif" font-size="10.00">_exec_r2c_1d</text>
</a>
</g>
</g>
<!-- Node2&#45;&gt;Node5 -->
<g id="edge4" class="edge">
<title>Node2&#45;&gt;Node5</title>
<path fill="none" stroke="midnightblue" d="M220.18,-79.84C229.53,-78.22 239.39,-76.52 249,-74.86"/>
<polygon fill="midnightblue" stroke="midnightblue" points="249.63,-78.3 258.89,-73.15 248.44,-71.4 249.63,-78.3"/>
</g>
<!-- Node6 -->
<g id="node6" class="node">
<title>Node6</title>
<g id="a_node6"><a xlink:href="namespacesll__m__fft.html#a4b923cd83abdc837029b1eae8fe0d4ed" target="_top" xlink:title="Subroutine to set a complex mode to the real representation of r2r.">
<polygon fill="white" stroke="black" points="256.5,-0.5 256.5,-30.5 363.5,-30.5 363.5,-0.5 256.5,-0.5"/>
<text text-anchor="start" x="264.5" y="-18.5" font-family="Helvetica,sans-Serif" font-size="10.00">sll_m_fft::sll_s_fft</text>
<text text-anchor="middle" x="310" y="-7.5" font-family="Helvetica,sans-Serif" font-size="10.00">_set_mode_c2r_1d</text>
</a>
</g>
</g>
<!-- Node2&#45;&gt;Node6 -->
<g id="edge5" class="edge">
<title>Node2&#45;&gt;Node6</title>
<path fill="none" stroke="midnightblue" d="M196.1,-73.32C213.02,-63.64 235.62,-50.98 256,-40.5 259.51,-38.69 263.18,-36.86 266.87,-35.05"/>
<polygon fill="midnightblue" stroke="midnightblue" points="268.55,-38.13 276.03,-30.62 265.51,-31.82 268.55,-38.13"/>
</g>
</g>
</svg>
