<?xml version="1.0" encoding="UTF-8" standalone="no"?>
<!DOCTYPE svg PUBLIC "-//W3C//DTD SVG 1.1//EN"
 "http://www.w3.org/Graphics/SVG/1.1/DTD/svg11.dtd">
<!-- Generated by graphviz version 2.40.1 (20161225.0304)
 -->
<!-- Title: sll_f_bvalue Pages: 1 -->
<svg width="486pt" height="350pt"
 viewBox="0.00 0.00 486.00 350.00" xmlns="http://www.w3.org/2000/svg" xmlns:xlink="http://www.w3.org/1999/xlink">
<g id="graph0" class="graph" transform="scale(1 1) rotate(0) translate(4 346)">
<title>sll_f_bvalue</title>
<polygon fill="#ffffff" stroke="transparent" points="-4,4 -4,-346 482,-346 482,4 -4,4"/>
<!-- Node2 -->
<g id="node1" class="node">
<title>Node2</title>
<polygon fill="#bfbfbf" stroke="#000000" points="0,-161.5 0,-180.5 75,-180.5 75,-161.5 0,-161.5"/>
<text text-anchor="middle" x="37.5" y="-168.5" font-family="Helvetica,sans-Serif" font-size="10.00" fill="#000000">sll_f_bvalue</text>
</g>
<!-- Node3 -->
<g id="node2" class="node">
<title>Node3</title>
<g id="a_node2"><a xlink:href="namespacesll__m__arbitrary__degree__spline__interpolator__1d.html#a98bf539926694387a45ba0b7c2b87b17" target="_top" xlink:title="Interpolation on the points eta using the arbitrary degree splines interpolator 1d. ">
<polygon fill="#ffffff" stroke="#000000" points="125.5,-300.5 125.5,-341.5 262.5,-341.5 262.5,-300.5 125.5,-300.5"/>
<text text-anchor="start" x="133.5" y="-329.5" font-family="Helvetica,sans-Serif" font-size="10.00" fill="#000000">sll_m_arbitrary_degree</text>
<text text-anchor="start" x="133.5" y="-318.5" font-family="Helvetica,sans-Serif" font-size="10.00" fill="#000000">_spline_interpolator_1d</text>
<text text-anchor="middle" x="194" y="-307.5" font-family="Helvetica,sans-Serif" font-size="10.00" fill="#000000">::interpolate_value_ad1d</text>
</a>
</g>
</g>
<!-- Node2&#45;&gt;Node3 -->
<g id="edge1" class="edge">
<title>Node2&#45;&gt;Node3</title>
<path fill="none" stroke="#191970" d="M44.5074,-190.183C55.0437,-216.4838 77.384,-263.5909 111,-291 115.3938,-294.5825 120.2513,-297.7561 125.3467,-300.5642"/>
<polygon fill="#191970" stroke="#191970" points="47.6801,-188.6818 40.8259,-180.6028 41.1459,-191.1928 47.6801,-188.6818"/>
</g>
<!-- Node5 -->
<g id="node4" class="node">
<title>Node5</title>
<g id="a_node4"><a xlink:href="namespacesll__m__arbitrary__degree__spline__interpolator__1d.html#af4fa9cf44592512067c22943d4c12382" target="_top" xlink:title="First derivative interpolation on the point eta. ">
<polygon fill="#ffffff" stroke="#000000" points="114,-240.5 114,-281.5 274,-281.5 274,-240.5 114,-240.5"/>
<text text-anchor="start" x="122" y="-269.5" font-family="Helvetica,sans-Serif" font-size="10.00" fill="#000000">sll_m_arbitrary_degree</text>
<text text-anchor="start" x="122" y="-258.5" font-family="Helvetica,sans-Serif" font-size="10.00" fill="#000000">_spline_interpolator_1d</text>
<text text-anchor="middle" x="194" y="-247.5" font-family="Helvetica,sans-Serif" font-size="10.00" fill="#000000">::interpolate_derivative_ad1d</text>
</a>
</g>
</g>
<!-- Node2&#45;&gt;Node5 -->
<g id="edge3" class="edge">
<title>Node2&#45;&gt;Node5</title>
<path fill="none" stroke="#191970" d="M54.6349,-187.8411C68.7912,-201.0167 89.9173,-219.0482 111,-231 116.9982,-234.4004 123.4522,-237.5322 130.0165,-240.385"/>
<polygon fill="#191970" stroke="#191970" points="56.8156,-185.0848 47.1583,-180.7273 51.9904,-190.1561 56.8156,-185.0848"/>
</g>
<!-- Node7 -->
<g id="node6" class="node">
<title>Node7</title>
<g id="a_node6"><a xlink:href="namespacesll__m__arbitrary__degree__spline__interpolator__1d.html#aba3cb2e63c94f623f0deddf902d5e12f" target="_top" xlink:title="sll_m_arbitrary_degree\l_spline_interpolator_1d\l::interpolate_array_ad1d">
<polygon fill="#ffffff" stroke="#000000" points="126,-180.5 126,-221.5 262,-221.5 262,-180.5 126,-180.5"/>
<text text-anchor="start" x="134" y="-209.5" font-family="Helvetica,sans-Serif" font-size="10.00" fill="#000000">sll_m_arbitrary_degree</text>
<text text-anchor="start" x="134" y="-198.5" font-family="Helvetica,sans-Serif" font-size="10.00" fill="#000000">_spline_interpolator_1d</text>
<text text-anchor="middle" x="194" y="-187.5" font-family="Helvetica,sans-Serif" font-size="10.00" fill="#000000">::interpolate_array_ad1d</text>
</a>
</g>
</g>
<!-- Node2&#45;&gt;Node7 -->
<g id="edge5" class="edge">
<title>Node2&#45;&gt;Node7</title>
<path fill="none" stroke="#191970" d="M85.3424,-180.1711C98.1436,-182.625 112.2305,-185.3253 125.8974,-187.9452"/>
<polygon fill="#191970" stroke="#191970" points="85.8644,-176.7075 75.3843,-178.2622 84.5465,-183.5823 85.8644,-176.7075"/>
</g>
<!-- Node8 -->
<g id="node7" class="node">
<title>Node8</title>
<g id="a_node7"><a xlink:href="namespacesll__m__arbitrary__degree__spline__interpolator__2d.html#adf5f4757abda8410ff16c08741ad0bf5" target="_top" xlink:title="Interpolation on the points eta1 and eta2. ">
<polygon fill="#ffffff" stroke="#000000" points="125.5,-120.5 125.5,-161.5 262.5,-161.5 262.5,-120.5 125.5,-120.5"/>
<text text-anchor="start" x="133.5" y="-149.5" font-family="Helvetica,sans-Serif" font-size="10.00" fill="#000000">sll_m_arbitrary_degree</text>
<text text-anchor="start" x="133.5" y="-138.5" font-family="Helvetica,sans-Serif" font-size="10.00" fill="#000000">_spline_interpolator_2d</text>
<text text-anchor="middle" x="194" y="-127.5" font-family="Helvetica,sans-Serif" font-size="10.00" fill="#000000">::interpolate_value_ad2d</text>
</a>
</g>
</g>
<!-- Node2&#45;&gt;Node8 -->
<g id="edge6" class="edge">
<title>Node2&#45;&gt;Node8</title>
<path fill="none" stroke="#191970" d="M85.2202,-161.8524C97.8609,-159.4292 111.7622,-156.7644 125.2785,-154.1734"/>
<polygon fill="#191970" stroke="#191970" points="84.5465,-158.4177 75.3843,-163.7378 85.8644,-165.2925 84.5465,-158.4177"/>
</g>
<!-- Node9 -->
<g id="node8" class="node">
<title>Node9</title>
<g id="a_node8"><a xlink:href="namespacesll__m__arbitrary__degree__spline__interpolator__2d.html#a09b3ace0eaecf17c653d5f1991a7d8c0" target="_top" xlink:title="First derivative in eta1 interpolation on the points eta1 and eta2. ">
<polygon fill="#ffffff" stroke="#000000" points="111,-60.5 111,-101.5 277,-101.5 277,-60.5 111,-60.5"/>
<text text-anchor="start" x="119" y="-89.5" font-family="Helvetica,sans-Serif" font-size="10.00" fill="#000000">sll_m_arbitrary_degree</text>
<text text-anchor="start" x="119" y="-78.5" font-family="Helvetica,sans-Serif" font-size="10.00" fill="#000000">_spline_interpolator_2d</text>
<text text-anchor="middle" x="194" y="-67.5" font-family="Helvetica,sans-Serif" font-size="10.00" fill="#000000">::interpolate_derivative1_ad2d</text>
</a>
</g>
</g>
<!-- Node2&#45;&gt;Node9 -->
<g id="edge7" class="edge">
<title>Node2&#45;&gt;Node9</title>
<path fill="none" stroke="#191970" d="M54.6349,-154.1589C68.7912,-140.9833 89.9173,-122.9518 111,-111 116.9982,-107.5996 123.4522,-104.4678 130.0165,-101.615"/>
<polygon fill="#191970" stroke="#191970" points="51.9904,-151.8439 47.1583,-161.2727 56.8156,-156.9152 51.9904,-151.8439"/>
</g>
<!-- Node10 -->
<g id="node9" class="node">
<title>Node10</title>
<g id="a_node9"><a xlink:href="namespacesll__m__arbitrary__degree__spline__interpolator__2d.html#a36a4591db3ee6d3d644191fe0ca698f6" target="_top" xlink:title="First derivative in eta2 Interpolation on the points eta1 and eta2 using the arbitrary degree splines...">
<polygon fill="#ffffff" stroke="#000000" points="111,-.5 111,-41.5 277,-41.5 277,-.5 111,-.5"/>
<text text-anchor="start" x="119" y="-29.5" font-family="Helvetica,sans-Serif" font-size="10.00" fill="#000000">sll_m_arbitrary_degree</text>
<text text-anchor="start" x="119" y="-18.5" font-family="Helvetica,sans-Serif" font-size="10.00" fill="#000000">_spline_interpolator_2d</text>
<text text-anchor="middle" x="194" y="-7.5" font-family="Helvetica,sans-Serif" font-size="10.00" fill="#000000">::interpolate_derivative2_ad2d</text>
</a>
</g>
</g>
<!-- Node2&#45;&gt;Node10 -->
<g id="edge8" class="edge">
<title>Node2&#45;&gt;Node10</title>
<path fill="none" stroke="#191970" d="M44.5074,-151.817C55.0437,-125.5162 77.384,-78.4091 111,-51 115.275,-47.5143 119.9891,-44.4157 124.9341,-41.6643"/>
<polygon fill="#191970" stroke="#191970" points="41.1459,-150.8072 40.8259,-161.3972 47.6801,-153.3182 41.1459,-150.8072"/>
</g>
<!-- Node4 -->
<g id="node3" class="node">
<title>Node4</title>
<g id="a_node3"><a xlink:href="namespacesll__m__arbitrary__degree__spline__interpolator__1d.html#ab934804106a8ff3d2ccd9adf50e41c25" target="_top" xlink:title="sll_m_arbitrary_degree\l_spline_interpolator_1d\l::interpolate_values_ad1d">
<polygon fill="#ffffff" stroke="#000000" points="324,-300.5 324,-341.5 467,-341.5 467,-300.5 324,-300.5"/>
<text text-anchor="start" x="332" y="-329.5" font-family="Helvetica,sans-Serif" font-size="10.00" fill="#000000">sll_m_arbitrary_degree</text>
<text text-anchor="start" x="332" y="-318.5" font-family="Helvetica,sans-Serif" font-size="10.00" fill="#000000">_spline_interpolator_1d</text>
<text text-anchor="middle" x="395.5" y="-307.5" font-family="Helvetica,sans-Serif" font-size="10.00" fill="#000000">::interpolate_values_ad1d</text>
</a>
</g>
</g>
<!-- Node3&#45;&gt;Node4 -->
<g id="edge2" class="edge">
<title>Node3&#45;&gt;Node4</title>
<path fill="none" stroke="#191970" d="M273.0952,-321C289.8628,-321 307.4703,-321 323.939,-321"/>
<polygon fill="#191970" stroke="#191970" points="272.7813,-317.5001 262.7813,-321 272.7813,-324.5001 272.7813,-317.5001"/>
</g>
<!-- Node6 -->
<g id="node5" class="node">
<title>Node6</title>
<g id="a_node5"><a xlink:href="namespacesll__m__arbitrary__degree__spline__interpolator__1d.html#ab1f4b23872187ddf0843c1d414759b35" target="_top" xlink:title="sll_m_arbitrary_degree\l_spline_interpolator_1d\l::interpolate_derivatives_ad1d">
<polygon fill="#ffffff" stroke="#000000" points="313,-240.5 313,-281.5 478,-281.5 478,-240.5 313,-240.5"/>
<text text-anchor="start" x="321" y="-269.5" font-family="Helvetica,sans-Serif" font-size="10.00" fill="#000000">sll_m_arbitrary_degree</text>
<text text-anchor="start" x="321" y="-258.5" font-family="Helvetica,sans-Serif" font-size="10.00" fill="#000000">_spline_interpolator_1d</text>
<text text-anchor="middle" x="395.5" y="-247.5" font-family="Helvetica,sans-Serif" font-size="10.00" fill="#000000">::interpolate_derivatives_ad1d</text>
</a>
</g>
</g>
<!-- Node5&#45;&gt;Node6 -->
<g id="edge4" class="edge">
<title>Node5&#45;&gt;Node6</title>
<path fill="none" stroke="#191970" d="M284.4427,-261C293.9256,-261 303.5316,-261 312.9199,-261"/>
<polygon fill="#191970" stroke="#191970" points="284.2171,-257.5001 274.2171,-261 284.2171,-264.5001 284.2171,-257.5001"/>
</g>
</g>
</svg>
