<?xml version="1.0" encoding="UTF-8" standalone="no"?>
<!DOCTYPE svg PUBLIC "-//W3C//DTD SVG 1.1//EN"
 "http://www.w3.org/Graphics/SVG/1.1/DTD/svg11.dtd">
<!-- Generated by graphviz version 2.38.0 (20140413.2041)
 -->
<!-- Title: compute_gyroaverage_2d_polar_splines Pages: 1 -->
<!--zoomable 579 -->
<svg id="main" version="1.1" xmlns="http://www.w3.org/2000/svg" xmlns:xlink="http://www.w3.org/1999/xlink" xml:space="preserve" onload="init(evt)">
<style type="text/css"><![CDATA[
.edge:hover path { stroke: red; }
.edge:hover polygon { stroke: red; fill: red; }
]]></style>
<script type="text/javascript"><![CDATA[
var edges = document.getElementsByTagName('g');
if (edges && edges.length) {
  for (var i=0;i<edges.length;i++) {
    if (edges[i].id.substr(0,4)=='edge') {
      edges[i].setAttribute('class','edge');
    }
  }
}
]]></script>
        <defs>
                <circle id="rim" cx="0" cy="0" r="7"/>
                <circle id="rim2" cx="0" cy="0" r="3.5"/>
                <g id="zoomPlus">
                        <use xlink:href="#rim" fill="#404040">
                                <set attributeName="fill" to="#808080" begin="zoomplus.mouseover" end="zoomplus.mouseout"/>
                        </use>
                        <path d="M-4,0h8M0,-4v8" fill="none" stroke="white" stroke-width="1.5" pointer-events="none"/>
                </g>
                <g id="zoomMin">
                        <use xlink:href="#rim" fill="#404040">
                                <set attributeName="fill" to="#808080" begin="zoomminus.mouseover" end="zoomminus.mouseout"/>
                        </use>
                        <path d="M-4,0h8" fill="none" stroke="white" stroke-width="1.5" pointer-events="none"/>
                </g>
                <g id="dirArrow">
                        <path fill="none" stroke="white" stroke-width="1.5" d="M0,-3.0v7 M-2.5,-0.5L0,-3.0L2.5,-0.5"/>
                </g>
               <g id="resetDef">
                       <use xlink:href="#rim2" fill="#404040">
                               <set attributeName="fill" to="#808080" begin="reset.mouseover" end="reset.mouseout"/>
                       </use>
               </g>
        </defs>

<script type="text/javascript">
var viewWidth = 619;
var viewHeight = 579;
var sectionId = 'dynsection-0';
</script>
<script xlink:href="svgpan.js"/>
<svg id="graph" class="graph">
<g id="viewport">
<title>compute_gyroaverage_2d_polar_splines</title>
<polygon fill="white" stroke="none" points="-4,4 -4,-575 615,-575 615,4 -4,4"/>
<!-- Node1 -->
<g id="node1" class="node"><title>Node1</title>
<polygon fill="#bfbfbf" stroke="black" points="0,-318.5 0,-348.5 113,-348.5 113,-318.5 0,-318.5"/>
<text text-anchor="start" x="8" y="-336.5" font-family="Helvetica,sans-Serif" font-size="10.00">compute_gyroaverage</text>
<text text-anchor="middle" x="56.5" y="-325.5" font-family="Helvetica,sans-Serif" font-size="10.00">_2d_polar_splines</text>
</g>
<!-- Node2 -->
<g id="node2" class="node"><title>Node2</title>
<g id="a_node2"><a xlink:href="namespacesll__m__gyroaverage__2d__polar.html#a2179cb107521617ad7f43d8150ee7ea9" target="_top" xlink:title="sll_m_gyroaverage_2d\l_polar::sll_s_compute\l_gyroaverage_points_polar_spl">
<polygon fill="white" stroke="black" points="149,-387 149,-428 300,-428 300,-387 149,-387"/>
<text text-anchor="start" x="157" y="-416" font-family="Helvetica,sans-Serif" font-size="10.00">sll_m_gyroaverage_2d</text>
<text text-anchor="start" x="157" y="-405" font-family="Helvetica,sans-Serif" font-size="10.00">_polar::sll_s_compute</text>
<text text-anchor="middle" x="224.5" y="-394" font-family="Helvetica,sans-Serif" font-size="10.00">_gyroaverage_points_polar_spl</text>
</a>
</g>
</g>
<!-- Node1&#45;&gt;Node2 -->
<g id="edge1" class="edge"><title>Node1&#45;&gt;Node2</title>
<path fill="none" stroke="midnightblue" d="M91.4931,-348.654C113.542,-358.483 142.78,-371.517 168.135,-382.819"/>
<polygon fill="midnightblue" stroke="midnightblue" points="166.721,-386.021 177.28,-386.896 169.571,-379.627 166.721,-386.021"/>
</g>
<!-- Node9 -->
<g id="node9" class="node"><title>Node9</title>
<g id="a_node9"><a xlink:href="namespacesll__m__gyroaverage__2d__polar.html#abfe531013e6b7c94702be5712e45bf20" target="_top" xlink:title="sll_m_gyroaverage_2d\l_polar::sll_s_compute\l_gyroaverage_points_polar\l_with_invar_spl">
<polygon fill="white" stroke="black" points="158,-234.5 158,-286.5 291,-286.5 291,-234.5 158,-234.5"/>
<text text-anchor="start" x="166" y="-274.5" font-family="Helvetica,sans-Serif" font-size="10.00">sll_m_gyroaverage_2d</text>
<text text-anchor="start" x="166" y="-263.5" font-family="Helvetica,sans-Serif" font-size="10.00">_polar::sll_s_compute</text>
<text text-anchor="start" x="166" y="-252.5" font-family="Helvetica,sans-Serif" font-size="10.00">_gyroaverage_points_polar</text>
<text text-anchor="middle" x="224.5" y="-241.5" font-family="Helvetica,sans-Serif" font-size="10.00">_with_invar_spl</text>
</a>
</g>
</g>
<!-- Node1&#45;&gt;Node9 -->
<g id="edge8" class="edge"><title>Node1&#45;&gt;Node9</title>
<path fill="none" stroke="midnightblue" d="M91.8953,-318.374C110.176,-310.335 133.314,-300.16 155.073,-290.592"/>
<polygon fill="midnightblue" stroke="midnightblue" points="156.55,-293.765 164.295,-286.536 153.732,-287.358 156.55,-293.765"/>
</g>
<!-- Node16 -->
<g id="node16" class="node"><title>Node16</title>
<g id="a_node16"><a xlink:href="namespacesll__m__gyroaverage__2d__polar.html#a30a5d229d04d2f50183b935ace028438" target="_top" xlink:title="sll_m_gyroaverage_2d\l_polar::sll_s_pre_compute\l_gyroaverage_polar_spl">
<polygon fill="white" stroke="black" points="159,-80 159,-121 290,-121 290,-80 159,-80"/>
<text text-anchor="start" x="167" y="-109" font-family="Helvetica,sans-Serif" font-size="10.00">sll_m_gyroaverage_2d</text>
<text text-anchor="start" x="167" y="-98" font-family="Helvetica,sans-Serif" font-size="10.00">_polar::sll_s_pre_compute</text>
<text text-anchor="middle" x="224.5" y="-87" font-family="Helvetica,sans-Serif" font-size="10.00">_gyroaverage_polar_spl</text>
</a>
</g>
</g>
<!-- Node1&#45;&gt;Node16 -->
<g id="edge15" class="edge"><title>Node1&#45;&gt;Node16</title>
<path fill="none" stroke="midnightblue" d="M68.3917,-318.212C95.6776,-279.913 167.315,-179.362 202.872,-129.454"/>
<polygon fill="midnightblue" stroke="midnightblue" points="205.917,-131.212 208.869,-121.037 200.216,-127.15 205.917,-131.212"/>
</g>
<!-- Node21 -->
<g id="node21" class="node"><title>Node21</title>
<g id="a_node21"><a xlink:href="namespacesll__m__gyroaverage__2d__polar.html#a4e89056071a65026b5e8816c6764df4f" target="_top" xlink:title="sll_m_gyroaverage_2d\l_polar::sll_s_compute\l_gyroaverage_pre_compute\l_polar_spl">
<polygon fill="white" stroke="black" points="156,-518.5 156,-570.5 293,-570.5 293,-518.5 156,-518.5"/>
<text text-anchor="start" x="164" y="-558.5" font-family="Helvetica,sans-Serif" font-size="10.00">sll_m_gyroaverage_2d</text>
<text text-anchor="start" x="164" y="-547.5" font-family="Helvetica,sans-Serif" font-size="10.00">_polar::sll_s_compute</text>
<text text-anchor="start" x="164" y="-536.5" font-family="Helvetica,sans-Serif" font-size="10.00">_gyroaverage_pre_compute</text>
<text text-anchor="middle" x="224.5" y="-525.5" font-family="Helvetica,sans-Serif" font-size="10.00">_polar_spl</text>
</a>
</g>
</g>
<!-- Node1&#45;&gt;Node21 -->
<g id="edge20" class="edge"><title>Node1&#45;&gt;Node21</title>
<path fill="none" stroke="midnightblue" d="M61.7378,-348.73C71.7006,-382.009 99.5756,-462.025 149,-509.5 149.928,-510.391 150.882,-511.263 151.86,-512.115"/>
<polygon fill="midnightblue" stroke="midnightblue" points="149.736,-514.897 159.776,-518.28 154.037,-509.374 149.736,-514.897"/>
</g>
<!-- Node22 -->
<g id="node22" class="node"><title>Node22</title>
<g id="a_node22"><a xlink:href="namespacesll__m__gyroaverage__2d__polar.html#a46ed1c8f5b1c864caaef928162bac84d" target="_top" xlink:title="sll_m_gyroaverage_2d\l_polar::sll_s_pre_compute\l_gyroaverage_polar_spl_fft">
<polygon fill="white" stroke="black" points="157.5,-20 157.5,-61 291.5,-61 291.5,-20 157.5,-20"/>
<text text-anchor="start" x="165.5" y="-49" font-family="Helvetica,sans-Serif" font-size="10.00">sll_m_gyroaverage_2d</text>
<text text-anchor="start" x="165.5" y="-38" font-family="Helvetica,sans-Serif" font-size="10.00">_polar::sll_s_pre_compute</text>
<text text-anchor="middle" x="224.5" y="-27" font-family="Helvetica,sans-Serif" font-size="10.00">_gyroaverage_polar_spl_fft</text>
</a>
</g>
</g>
<!-- Node1&#45;&gt;Node22 -->
<g id="edge24" class="edge"><title>Node1&#45;&gt;Node22</title>
<path fill="none" stroke="midnightblue" d="M58.5166,-318.195C62.2565,-273.886 78.9563,-143.99 149,-70.5 150.052,-69.3961 151.15,-68.3317 152.289,-67.3055"/>
<polygon fill="midnightblue" stroke="midnightblue" points="154.568,-69.9673 160.325,-61.0729 150.278,-64.4361 154.568,-69.9673"/>
</g>
<!-- Node23 -->
<g id="node23" class="node"><title>Node23</title>
<g id="a_node23"><a xlink:href="namespacesll__m__gyroaverage__2d__polar.html#adf408663e066fc8c157b546629468f80" target="_top" xlink:title="sll_m_gyroaverage_2d\l_polar::sll_s_compute\l_gyroaverage_pre_compute\l_polar_spl_fft">
<polygon fill="white" stroke="black" points="156,-447.5 156,-499.5 293,-499.5 293,-447.5 156,-447.5"/>
<text text-anchor="start" x="164" y="-487.5" font-family="Helvetica,sans-Serif" font-size="10.00">sll_m_gyroaverage_2d</text>
<text text-anchor="start" x="164" y="-476.5" font-family="Helvetica,sans-Serif" font-size="10.00">_polar::sll_s_compute</text>
<text text-anchor="start" x="164" y="-465.5" font-family="Helvetica,sans-Serif" font-size="10.00">_gyroaverage_pre_compute</text>
<text text-anchor="middle" x="224.5" y="-454.5" font-family="Helvetica,sans-Serif" font-size="10.00">_polar_spl_fft</text>
</a>
</g>
</g>
<!-- Node1&#45;&gt;Node23 -->
<g id="edge27" class="edge"><title>Node1&#45;&gt;Node23</title>
<path fill="none" stroke="midnightblue" d="M67.7911,-348.632C83.2979,-370.536 114.531,-411.313 149,-437.5 150.859,-438.912 152.782,-440.29 154.753,-441.632"/>
<polygon fill="midnightblue" stroke="midnightblue" points="153.341,-444.882 163.66,-447.286 157.093,-438.972 153.341,-444.882"/>
</g>
<!-- Node3 -->
<g id="node3" class="node"><title>Node3</title>
<g id="a_node3"><a xlink:href="namespacesll__m__gyroaverage__2d__polar.html#a6d7b2c34d4c4ef7a19e807363cc8e387" target="_top" xlink:title="sll_m_gyroaverage_2d\l_polar::splcoefnat1d0old">
<polygon fill="white" stroke="black" points="336,-539.5 336,-569.5 458,-569.5 458,-539.5 336,-539.5"/>
<text text-anchor="start" x="344" y="-557.5" font-family="Helvetica,sans-Serif" font-size="10.00">sll_m_gyroaverage_2d</text>
<text text-anchor="middle" x="397" y="-546.5" font-family="Helvetica,sans-Serif" font-size="10.00">_polar::splcoefnat1d0old</text>
</a>
</g>
</g>
<!-- Node2&#45;&gt;Node3 -->
<g id="edge2" class="edge"><title>Node2&#45;&gt;Node3</title>
<path fill="none" stroke="midnightblue" d="M287.101,-428.145C291.792,-431.162 296.178,-434.596 300,-438.5 330.715,-469.877 305.069,-499.336 336,-530.5 337.062,-531.57 338.178,-532.594 339.339,-533.573"/>
<polygon fill="midnightblue" stroke="midnightblue" points="337.387,-536.48 347.568,-539.415 341.44,-530.772 337.387,-536.48"/>
</g>
<!-- Node4 -->
<g id="node4" class="node"><title>Node4</title>
<g id="a_node4"><a xlink:href="namespacesll__m__gyroaverage__2d__polar.html#a1c0d94974a949f99061b69c739accff1" target="_top" xlink:title="sll_m_gyroaverage_2d\l_polar::splcoefper1d0old">
<polygon fill="white" stroke="black" points="336,-490.5 336,-520.5 458,-520.5 458,-490.5 336,-490.5"/>
<text text-anchor="start" x="344" y="-508.5" font-family="Helvetica,sans-Serif" font-size="10.00">sll_m_gyroaverage_2d</text>
<text text-anchor="middle" x="397" y="-497.5" font-family="Helvetica,sans-Serif" font-size="10.00">_polar::splcoefper1d0old</text>
</a>
</g>
</g>
<!-- Node2&#45;&gt;Node4 -->
<g id="edge3" class="edge"><title>Node2&#45;&gt;Node4</title>
<path fill="none" stroke="midnightblue" d="M283.168,-428.15C289.077,-431.236 294.808,-434.682 300,-438.5 320.08,-453.266 315.818,-466.873 336,-481.5 337.882,-482.864 339.853,-484.165 341.885,-485.403"/>
<polygon fill="midnightblue" stroke="midnightblue" points="340.653,-488.718 351.108,-490.437 344.007,-482.574 340.653,-488.718"/>
</g>
<!-- Node5 -->
<g id="node5" class="node"><title>Node5</title>
<g id="a_node5"><a xlink:href="namespacesll__m__gyroaverage__2d__polar.html#aa3be680ae583d97a373f0e422866a37b" target="_top" xlink:title="sll_m_gyroaverage_2d\l_polar::splcoefnatper2d">
<polygon fill="white" stroke="black" points="338,-441.5 338,-471.5 456,-471.5 456,-441.5 338,-441.5"/>
<text text-anchor="start" x="346" y="-459.5" font-family="Helvetica,sans-Serif" font-size="10.00">sll_m_gyroaverage_2d</text>
<text text-anchor="middle" x="397" y="-448.5" font-family="Helvetica,sans-Serif" font-size="10.00">_polar::splcoefnatper2d</text>
</a>
</g>
</g>
<!-- Node2&#45;&gt;Node5 -->
<g id="edge4" class="edge"><title>Node2&#45;&gt;Node5</title>
<path fill="none" stroke="midnightblue" d="M297.313,-428.138C309.471,-431.633 322.004,-435.234 333.887,-438.649"/>
<polygon fill="midnightblue" stroke="midnightblue" points="333.116,-442.069 343.694,-441.468 335.05,-435.342 333.116,-442.069"/>
</g>
<!-- Node8 -->
<g id="node8" class="node"><title>Node8</title>
<g id="a_node8"><a xlink:href="namespacesll__m__gyroaverage__2d__polar.html#aff0e677148b4323194ed071081347f91" target="_top" xlink:title="sll_m_gyroaverage_2d\l_polar::splnatper2d">
<polygon fill="white" stroke="black" points="340,-392.5 340,-422.5 454,-422.5 454,-392.5 340,-392.5"/>
<text text-anchor="start" x="348" y="-410.5" font-family="Helvetica,sans-Serif" font-size="10.00">sll_m_gyroaverage_2d</text>
<text text-anchor="middle" x="397" y="-399.5" font-family="Helvetica,sans-Serif" font-size="10.00">_polar::splnatper2d</text>
</a>
</g>
</g>
<!-- Node2&#45;&gt;Node8 -->
<g id="edge7" class="edge"><title>Node2&#45;&gt;Node8</title>
<path fill="none" stroke="midnightblue" d="M300.284,-407.5C310.074,-407.5 320.052,-407.5 329.689,-407.5"/>
<polygon fill="midnightblue" stroke="midnightblue" points="329.988,-411 339.988,-407.5 329.988,-404 329.988,-411"/>
</g>
<!-- Node6 -->
<g id="node6" class="node"><title>Node6</title>
<g id="a_node6"><a xlink:href="namespacesll__m__gyroaverage__2d__polar.html#a22bddd3eca8b7623ef7406570fabb19c" target="_top" xlink:title="sll_m_gyroaverage_2d\l_polar::splcoefnat1dold">
<polygon fill="white" stroke="black" points="494,-465.5 494,-495.5 611,-495.5 611,-465.5 494,-465.5"/>
<text text-anchor="start" x="502" y="-483.5" font-family="Helvetica,sans-Serif" font-size="10.00">sll_m_gyroaverage_2d</text>
<text text-anchor="middle" x="552.5" y="-472.5" font-family="Helvetica,sans-Serif" font-size="10.00">_polar::splcoefnat1dold</text>
</a>
</g>
</g>
<!-- Node5&#45;&gt;Node6 -->
<g id="edge5" class="edge"><title>Node5&#45;&gt;Node6</title>
<path fill="none" stroke="midnightblue" d="M456.032,-465.573C465.135,-466.997 474.612,-468.478 483.907,-469.932"/>
<polygon fill="midnightblue" stroke="midnightblue" points="483.475,-473.407 493.895,-471.493 484.556,-466.491 483.475,-473.407"/>
</g>
<!-- Node7 -->
<g id="node7" class="node"><title>Node7</title>
<g id="a_node7"><a xlink:href="namespacesll__m__gyroaverage__2d__polar.html#a39670e7a4c0db9bf46259b8cf1e0e2c6" target="_top" xlink:title="sll_m_gyroaverage_2d\l_polar::splcoefper1dold">
<polygon fill="white" stroke="black" points="494,-416.5 494,-446.5 611,-446.5 611,-416.5 494,-416.5"/>
<text text-anchor="start" x="502" y="-434.5" font-family="Helvetica,sans-Serif" font-size="10.00">sll_m_gyroaverage_2d</text>
<text text-anchor="middle" x="552.5" y="-423.5" font-family="Helvetica,sans-Serif" font-size="10.00">_polar::splcoefper1dold</text>
</a>
</g>
</g>
<!-- Node5&#45;&gt;Node7 -->
<g id="edge6" class="edge"><title>Node5&#45;&gt;Node7</title>
<path fill="none" stroke="midnightblue" d="M456.032,-447.049C465.135,-445.566 474.612,-444.023 483.907,-442.509"/>
<polygon fill="midnightblue" stroke="midnightblue" points="484.588,-445.944 493.895,-440.882 483.463,-439.035 484.588,-445.944"/>
</g>
<!-- Node10 -->
<g id="node10" class="node"><title>Node10</title>
<g id="a_node10"><a xlink:href="namespacesll__m__gyroaverage__2d__polar.html#a0b77bbcf93e241d1bb9fb8a5dddf03a5" target="_top" xlink:title="sll_m_gyroaverage_2d\l_polar::splcoefnat1d0">
<polygon fill="white" stroke="black" points="340,-343.5 340,-373.5 454,-373.5 454,-343.5 340,-343.5"/>
<text text-anchor="start" x="348" y="-361.5" font-family="Helvetica,sans-Serif" font-size="10.00">sll_m_gyroaverage_2d</text>
<text text-anchor="middle" x="397" y="-350.5" font-family="Helvetica,sans-Serif" font-size="10.00">_polar::splcoefnat1d0</text>
</a>
</g>
</g>
<!-- Node9&#45;&gt;Node10 -->
<g id="edge9" class="edge"><title>Node9&#45;&gt;Node10</title>
<path fill="none" stroke="midnightblue" d="M261.267,-286.626C282.398,-301.418 310.023,-319.668 336,-333.5 339.698,-335.469 343.585,-337.393 347.529,-339.243"/>
<polygon fill="midnightblue" stroke="midnightblue" points="346.217,-342.491 356.771,-343.413 349.096,-336.11 346.217,-342.491"/>
</g>
<!-- Node11 -->
<g id="node11" class="node"><title>Node11</title>
<g id="a_node11"><a xlink:href="namespacesll__m__gyroaverage__2d__polar.html#ad924c833e92890d454d4b28998a13ea9" target="_top" xlink:title="sll_m_gyroaverage_2d\l_polar::splcoefper1d0">
<polygon fill="white" stroke="black" points="340,-294.5 340,-324.5 454,-324.5 454,-294.5 340,-294.5"/>
<text text-anchor="start" x="348" y="-312.5" font-family="Helvetica,sans-Serif" font-size="10.00">sll_m_gyroaverage_2d</text>
<text text-anchor="middle" x="397" y="-301.5" font-family="Helvetica,sans-Serif" font-size="10.00">_polar::splcoefper1d0</text>
</a>
</g>
</g>
<!-- Node9&#45;&gt;Node11 -->
<g id="edge10" class="edge"><title>Node9&#45;&gt;Node11</title>
<path fill="none" stroke="midnightblue" d="M291.42,-279.445C305.37,-283.454 320.049,-287.672 333.854,-291.64"/>
<polygon fill="midnightblue" stroke="midnightblue" points="333.151,-295.079 343.728,-294.478 335.084,-288.352 333.151,-295.079"/>
</g>
<!-- Node12 -->
<g id="node12" class="node"><title>Node12</title>
<g id="a_node12"><a xlink:href="namespacesll__m__gyroaverage__2d__polar.html#a63ca46edb7da1710f2e53b2b4804d005" target="_top" xlink:title="sll_m_gyroaverage_2d\l_polar::splcoefnat1d">
<polygon fill="white" stroke="black" points="340,-245.5 340,-275.5 454,-275.5 454,-245.5 340,-245.5"/>
<text text-anchor="start" x="348" y="-263.5" font-family="Helvetica,sans-Serif" font-size="10.00">sll_m_gyroaverage_2d</text>
<text text-anchor="middle" x="397" y="-252.5" font-family="Helvetica,sans-Serif" font-size="10.00">_polar::splcoefnat1d</text>
</a>
</g>
</g>
<!-- Node9&#45;&gt;Node12 -->
<g id="edge11" class="edge"><title>Node9&#45;&gt;Node12</title>
<path fill="none" stroke="midnightblue" d="M291.42,-260.5C303.939,-260.5 317.045,-260.5 329.579,-260.5"/>
<polygon fill="midnightblue" stroke="midnightblue" points="329.948,-264 339.948,-260.5 329.948,-257 329.948,-264"/>
</g>
<!-- Node13 -->
<g id="node13" class="node"><title>Node13</title>
<g id="a_node13"><a xlink:href="namespacesll__m__gyroaverage__2d__polar.html#a0bdd57d58dd93a801e576e3ee68f99a1" target="_top" xlink:title="sll_m_gyroaverage_2d\l_polar::splcoefper1d">
<polygon fill="white" stroke="black" points="340,-196.5 340,-226.5 454,-226.5 454,-196.5 340,-196.5"/>
<text text-anchor="start" x="348" y="-214.5" font-family="Helvetica,sans-Serif" font-size="10.00">sll_m_gyroaverage_2d</text>
<text text-anchor="middle" x="397" y="-203.5" font-family="Helvetica,sans-Serif" font-size="10.00">_polar::splcoefper1d</text>
</a>
</g>
</g>
<!-- Node9&#45;&gt;Node13 -->
<g id="edge12" class="edge"><title>Node9&#45;&gt;Node13</title>
<path fill="none" stroke="midnightblue" d="M291.42,-241.555C305.37,-237.546 320.049,-233.328 333.854,-229.36"/>
<polygon fill="midnightblue" stroke="midnightblue" points="335.084,-232.648 343.728,-226.522 333.151,-225.921 335.084,-232.648"/>
</g>
<!-- Node14 -->
<g id="node14" class="node"><title>Node14</title>
<g id="a_node14"><a xlink:href="namespacesll__m__gyroaverage__2d__polar.html#aebbac8dab2fbc806ef2e904ccd5f46f9" target="_top" xlink:title="sll_m_gyroaverage_2d\l_polar::splnat1d">
<polygon fill="white" stroke="black" points="340,-147.5 340,-177.5 454,-177.5 454,-147.5 340,-147.5"/>
<text text-anchor="start" x="348" y="-165.5" font-family="Helvetica,sans-Serif" font-size="10.00">sll_m_gyroaverage_2d</text>
<text text-anchor="middle" x="397" y="-154.5" font-family="Helvetica,sans-Serif" font-size="10.00">_polar::splnat1d</text>
</a>
</g>
</g>
<!-- Node9&#45;&gt;Node14 -->
<g id="edge13" class="edge"><title>Node9&#45;&gt;Node14</title>
<path fill="none" stroke="midnightblue" d="M260.651,-234.191C281.802,-219.075 309.655,-200.393 336,-186.5 339.121,-184.854 342.381,-183.25 345.699,-181.703"/>
<polygon fill="midnightblue" stroke="midnightblue" points="347.42,-184.768 355.133,-177.505 344.574,-178.373 347.42,-184.768"/>
</g>
<!-- Node15 -->
<g id="node15" class="node"><title>Node15</title>
<g id="a_node15"><a xlink:href="namespacesll__m__gyroaverage__2d__polar.html#a531916b73ee13ebc86f9f49caf9c7d46" target="_top" xlink:title="sll_m_gyroaverage_2d\l_polar::splper1d">
<polygon fill="white" stroke="black" points="340,-98.5 340,-128.5 454,-128.5 454,-98.5 340,-98.5"/>
<text text-anchor="start" x="348" y="-116.5" font-family="Helvetica,sans-Serif" font-size="10.00">sll_m_gyroaverage_2d</text>
<text text-anchor="middle" x="397" y="-105.5" font-family="Helvetica,sans-Serif" font-size="10.00">_polar::splper1d</text>
</a>
</g>
</g>
<!-- Node9&#45;&gt;Node15 -->
<g id="edge14" class="edge"><title>Node9&#45;&gt;Node15</title>
<path fill="none" stroke="midnightblue" d="M243.284,-234.455C263.121,-207.093 297.522,-164.375 336,-137.5 338.092,-136.038 340.287,-134.647 342.549,-133.325"/>
<polygon fill="midnightblue" stroke="midnightblue" points="344.333,-136.341 351.532,-128.568 341.057,-130.155 344.333,-136.341"/>
</g>
<!-- Node17 -->
<g id="node17" class="node"><title>Node17</title>
<g id="a_node17"><a xlink:href="namespacesll__m__gyroaverage__2d__polar.html#a286786970fc94c7e62732e2f3883c034" target="_top" xlink:title="sll_m_gyroaverage_2d\l_polar::localize_polar">
<polygon fill="white" stroke="black" points="340,-49.5 340,-79.5 454,-79.5 454,-49.5 340,-49.5"/>
<text text-anchor="start" x="348" y="-67.5" font-family="Helvetica,sans-Serif" font-size="10.00">sll_m_gyroaverage_2d</text>
<text text-anchor="middle" x="397" y="-56.5" font-family="Helvetica,sans-Serif" font-size="10.00">_polar::localize_polar</text>
</a>
</g>
</g>
<!-- Node16&#45;&gt;Node17 -->
<g id="edge16" class="edge"><title>Node16&#45;&gt;Node17</title>
<path fill="none" stroke="midnightblue" d="M290.445,-86.7872C303.419,-84.0479 317.059,-81.168 330.065,-78.4217"/>
<polygon fill="midnightblue" stroke="midnightblue" points="330.805,-81.8427 339.867,-76.3522 329.359,-74.9937 330.805,-81.8427"/>
</g>
<!-- Node20 -->
<g id="node20" class="node"><title>Node20</title>
<g id="a_node20"><a xlink:href="namespacesll__m__gyroaverage__2d__polar.html#af00450918660a74ebe32447e6326da3e" target="_top" xlink:title="sll_m_gyroaverage_2d\l_polar::contribution_spl">
<polygon fill="white" stroke="black" points="338.5,-0.5 338.5,-30.5 455.5,-30.5 455.5,-0.5 338.5,-0.5"/>
<text text-anchor="start" x="346.5" y="-18.5" font-family="Helvetica,sans-Serif" font-size="10.00">sll_m_gyroaverage_2d</text>
<text text-anchor="middle" x="397" y="-7.5" font-family="Helvetica,sans-Serif" font-size="10.00">_polar::contribution_spl</text>
</a>
</g>
</g>
<!-- Node16&#45;&gt;Node20 -->
<g id="edge19" class="edge"><title>Node16&#45;&gt;Node20</title>
<path fill="none" stroke="midnightblue" d="M282.196,-79.9764C288.349,-77.0755 294.402,-73.9078 300,-70.5 318.035,-59.5202 317.952,-50.459 336,-39.5 338.601,-37.9205 341.325,-36.4063 344.116,-34.9613"/>
<polygon fill="midnightblue" stroke="midnightblue" points="345.702,-38.0818 353.19,-30.5863 342.662,-31.7763 345.702,-38.0818"/>
</g>
<!-- Node18 -->
<g id="node18" class="node"><title>Node18</title>
<g id="a_node18"><a xlink:href="namespacesll__m__gyroaverage__2d__polar.html#a4f0e92fea34e0d1352d4d6326dd1eb94" target="_top" xlink:title="sll_m_gyroaverage_2d\l_polar::localize_nat">
<polygon fill="white" stroke="black" points="495.5,-74.5 495.5,-104.5 609.5,-104.5 609.5,-74.5 495.5,-74.5"/>
<text text-anchor="start" x="503.5" y="-92.5" font-family="Helvetica,sans-Serif" font-size="10.00">sll_m_gyroaverage_2d</text>
<text text-anchor="middle" x="552.5" y="-81.5" font-family="Helvetica,sans-Serif" font-size="10.00">_polar::localize_nat</text>
</a>
</g>
</g>
<!-- Node17&#45;&gt;Node18 -->
<g id="edge17" class="edge"><title>Node17&#45;&gt;Node18</title>
<path fill="none" stroke="midnightblue" d="M454.286,-73.6671C464.466,-75.3251 475.165,-77.0675 485.591,-78.7656"/>
<polygon fill="midnightblue" stroke="midnightblue" points="485.045,-82.2227 495.477,-80.3758 486.17,-75.3137 485.045,-82.2227"/>
</g>
<!-- Node19 -->
<g id="node19" class="node"><title>Node19</title>
<g id="a_node19"><a xlink:href="namespacesll__m__gyroaverage__2d__polar.html#af1effd049b177ea89d86d58f6cb1ced6" target="_top" xlink:title="sll_m_gyroaverage_2d\l_polar::localize_per">
<polygon fill="white" stroke="black" points="495.5,-25.5 495.5,-55.5 609.5,-55.5 609.5,-25.5 495.5,-25.5"/>
<text text-anchor="start" x="503.5" y="-43.5" font-family="Helvetica,sans-Serif" font-size="10.00">sll_m_gyroaverage_2d</text>
<text text-anchor="middle" x="552.5" y="-32.5" font-family="Helvetica,sans-Serif" font-size="10.00">_polar::localize_per</text>
</a>
</g>
</g>
<!-- Node17&#45;&gt;Node19 -->
<g id="edge18" class="edge"><title>Node17&#45;&gt;Node19</title>
<path fill="none" stroke="midnightblue" d="M454.286,-55.6996C464.466,-54.1079 475.165,-52.4352 485.591,-50.8051"/>
<polygon fill="midnightblue" stroke="midnightblue" points="486.138,-54.2621 495.477,-49.2593 485.057,-47.3461 486.138,-54.2621"/>
</g>
<!-- Node21&#45;&gt;Node3 -->
<g id="edge21" class="edge"><title>Node21&#45;&gt;Node3</title>
<path fill="none" stroke="midnightblue" d="M293.376,-548.481C304.003,-549.104 315.005,-549.75 325.685,-550.376"/>
<polygon fill="midnightblue" stroke="midnightblue" points="325.615,-553.878 335.803,-550.969 326.025,-546.89 325.615,-553.878"/>
</g>
<!-- Node21&#45;&gt;Node4 -->
<g id="edge22" class="edge"><title>Node21&#45;&gt;Node4</title>
<path fill="none" stroke="midnightblue" d="M293.376,-528.974C304.112,-526.518 315.232,-523.975 326.015,-521.508"/>
<polygon fill="midnightblue" stroke="midnightblue" points="326.835,-524.911 335.803,-519.269 325.274,-518.087 326.835,-524.911"/>
</g>
<!-- Node21&#45;&gt;Node5 -->
<g id="edge23" class="edge"><title>Node21&#45;&gt;Node5</title>
<path fill="none" stroke="midnightblue" d="M284.311,-518.387C289.7,-515.543 295.005,-512.563 300,-509.5 317.279,-498.903 318.49,-491.711 336,-481.5 339.359,-479.542 342.9,-477.657 346.514,-475.863"/>
<polygon fill="midnightblue" stroke="midnightblue" points="348.025,-479.02 355.585,-471.597 345.046,-472.686 348.025,-479.02"/>
</g>
<!-- Node22&#45;&gt;Node17 -->
<g id="edge25" class="edge"><title>Node22&#45;&gt;Node17</title>
<path fill="none" stroke="midnightblue" d="M291.908,-49.8477C304.326,-51.5958 317.306,-53.4229 329.721,-55.1704"/>
<polygon fill="midnightblue" stroke="midnightblue" points="329.601,-58.6879 339.991,-56.6161 330.577,-51.7563 329.601,-58.6879"/>
</g>
<!-- Node22&#45;&gt;Node20 -->
<g id="edge26" class="edge"><title>Node22&#45;&gt;Node20</title>
<path fill="none" stroke="midnightblue" d="M291.908,-30.7628C303.888,-29.0062 316.391,-27.1729 328.404,-25.4114"/>
<polygon fill="midnightblue" stroke="midnightblue" points="328.972,-28.8657 338.358,-23.9519 327.956,-21.9398 328.972,-28.8657"/>
</g>
<!-- Node23&#45;&gt;Node3 -->
<g id="edge28" class="edge"><title>Node23&#45;&gt;Node3</title>
<path fill="none" stroke="midnightblue" d="M280.669,-499.561C287.222,-502.833 293.786,-506.193 300,-509.5 316.351,-518.203 319.356,-522.372 336,-530.5 339.374,-532.148 342.891,-533.775 346.457,-535.359"/>
<polygon fill="midnightblue" stroke="midnightblue" points="345.373,-538.702 355.942,-539.434 348.136,-532.27 345.373,-538.702"/>
</g>
<!-- Node23&#45;&gt;Node4 -->
<g id="edge29" class="edge"><title>Node23&#45;&gt;Node4</title>
<path fill="none" stroke="midnightblue" d="M293.376,-486.239C304.003,-488.234 315.005,-490.299 325.685,-492.303"/>
<polygon fill="midnightblue" stroke="midnightblue" points="325.329,-495.797 335.803,-494.202 326.62,-488.917 325.329,-495.797"/>
</g>
<!-- Node23&#45;&gt;Node5 -->
<g id="edge30" class="edge"><title>Node23&#45;&gt;Node5</title>
<path fill="none" stroke="midnightblue" d="M293.376,-466.732C304.681,-465.605 316.411,-464.436 327.726,-463.307"/>
<polygon fill="midnightblue" stroke="midnightblue" points="328.373,-466.76 337.976,-462.285 327.678,-459.795 328.373,-466.76"/>
</g>
</g>
</svg>
        <g id="navigator" transform="translate(0 0)" fill="#404254">
                <rect fill="#f2f5e9" fill-opacity="0.5" stroke="#606060" stroke-width=".5" x="0" y="0" width="60" height="60"/>
                <use id="zoomplus" xlink:href="#zoomPlus" x="17" y="9" onmousedown="handleZoom(evt,'in')"/>
                <use id="zoomminus" xlink:href="#zoomMin" x="42" y="9" onmousedown="handleZoom(evt,'out')"/>
                <use id="reset" xlink:href="#resetDef" x="30" y="36" onmousedown="handleReset()"/>
                <g id="arrowUp" xlink:href="#dirArrow" transform="translate(30 24)" onmousedown="handlePan(0,-1)">
                  <use xlink:href="#rim" fill="#404040">
                        <set attributeName="fill" to="#808080" begin="arrowUp.mouseover" end="arrowUp.mouseout"/>
                  </use>
                  <path fill="none" stroke="white" stroke-width="1.5" d="M0,-3.0v7 M-2.5,-0.5L0,-3.0L2.5,-0.5"/>
                </g>
                <g id="arrowRight" xlink:href="#dirArrow" transform="rotate(90) translate(36 -43)" onmousedown="handlePan(1,0)">
                  <use xlink:href="#rim" fill="#404040">
                        <set attributeName="fill" to="#808080" begin="arrowRight.mouseover" end="arrowRight.mouseout"/>
                  </use>
                  <path fill="none" stroke="white" stroke-width="1.5" d="M0,-3.0v7 M-2.5,-0.5L0,-3.0L2.5,-0.5"/>
                </g>
                <g id="arrowDown" xlink:href="#dirArrow" transform="rotate(180) translate(-30 -48)" onmousedown="handlePan(0,1)">
                  <use xlink:href="#rim" fill="#404040">
                        <set attributeName="fill" to="#808080" begin="arrowDown.mouseover" end="arrowDown.mouseout"/>
                  </use>
                  <path fill="none" stroke="white" stroke-width="1.5" d="M0,-3.0v7 M-2.5,-0.5L0,-3.0L2.5,-0.5"/>
                </g>
                <g id="arrowLeft" xlink:href="#dirArrow" transform="rotate(270) translate(-36 17)" onmousedown="handlePan(-1,0)">
                  <use xlink:href="#rim" fill="#404040">
                        <set attributeName="fill" to="#808080" begin="arrowLeft.mouseover" end="arrowLeft.mouseout"/>
                  </use>
                  <path fill="none" stroke="white" stroke-width="1.5" d="M0,-3.0v7 M-2.5,-0.5L0,-3.0L2.5,-0.5"/>
                </g>
        </g>
        <svg viewBox="0 0 15 15" width="100%" height="30px" preserveAspectRatio="xMaxYMin meet">
         <g id="arrow_out" transform="scale(0.3 0.3)">
          <a xlink:href="namespacesll__m__gyroaverage__2d__polar__splines__solver_a2027a05dfe7a379899c5e06c046d0a95_cgraph_org.svg" target="_base">
           <rect id="button" ry="5" rx="5" y="6" x="6" height="38" width="38"
                fill="#f2f5e9" fill-opacity="0.5" stroke="#606060" stroke-width="1.0"/>
           <path id="arrow"
             d="M 11.500037,31.436501 C 11.940474,20.09759 22.043105,11.32322 32.158766,21.979434 L 37.068811,17.246167 C 37.068811,17.246167 37.088388,32 37.088388,32 L 22.160133,31.978069 C 22.160133,31.978069 26.997745,27.140456 26.997745,27.140456 C 18.528582,18.264221 13.291696,25.230495 11.500037,31.436501 z"
             style="fill:#404040;"/>
          </a>
         </g>
        </svg>
</svg>
