<?xml version="1.0" encoding="UTF-8" standalone="no"?>
<!DOCTYPE svg PUBLIC "-//W3C//DTD SVG 1.1//EN"
 "http://www.w3.org/Graphics/SVG/1.1/DTD/svg11.dtd">
<!-- Generated by graphviz version 2.40.1 (20161225.0304)
 -->
<!-- Title: sll_s_spline_pp_horner_m_1d Pages: 1 -->
<svg width="375pt" height="860pt"
 viewBox="0.00 0.00 375.00 860.00" xmlns="http://www.w3.org/2000/svg" xmlns:xlink="http://www.w3.org/1999/xlink">
<g id="graph0" class="graph" transform="scale(1 1) rotate(0) translate(4 856)">
<title>sll_s_spline_pp_horner_m_1d</title>
<polygon fill="#ffffff" stroke="transparent" points="-4,4 -4,-856 371,-856 371,4 -4,4"/>
<!-- Node323 -->
<g id="node1" class="node">
<title>Node323</title>
<polygon fill="#bfbfbf" stroke="#000000" points="0,-405.5 0,-424.5 159,-424.5 159,-405.5 0,-405.5"/>
<text text-anchor="middle" x="79.5" y="-412.5" font-family="Helvetica,sans-Serif" font-size="10.00" fill="#000000">sll_s_spline_pp_horner_m_1d</text>
</g>
<!-- Node324 -->
<g id="node2" class="node">
<title>Node324</title>
<g id="a_node2"><a xlink:href="namespacesll__m__particle__mesh__coupling__spline__2d__feec.html#a68f1753a024244e80779dea373d4e03e" target="_top" xlink:title="Add current for one particle and update v (according to H_p1 part in Hamiltonian splitting) ...">
<polygon fill="#ffffff" stroke="#000000" points="208,-788.5 208,-851.5 354,-851.5 354,-788.5 208,-788.5"/>
<text text-anchor="start" x="216" y="-839.5" font-family="Helvetica,sans-Serif" font-size="10.00" fill="#000000">sll_m_particle_mesh</text>
<text text-anchor="start" x="216" y="-828.5" font-family="Helvetica,sans-Serif" font-size="10.00" fill="#000000">_coupling_spline_2d</text>
<text text-anchor="start" x="216" y="-817.5" font-family="Helvetica,sans-Serif" font-size="10.00" fill="#000000">_feec::add_current_update</text>
<text text-anchor="start" x="216" y="-806.5" font-family="Helvetica,sans-Serif" font-size="10.00" fill="#000000">_v_primitive_component1</text>
<text text-anchor="middle" x="281" y="-795.5" font-family="Helvetica,sans-Serif" font-size="10.00" fill="#000000">_spline_2d_feec</text>
</a>
</g>
</g>
<!-- Node323&#45;&gt;Node324 -->
<g id="edge1" class="edge">
<title>Node323&#45;&gt;Node324</title>
<path fill="none" stroke="#191970" d="M80.4379,-435.0625C84.245,-494.7428 103.1435,-673.546 195,-779 198.8024,-783.3653 203.1727,-787.3034 207.8843,-790.8494"/>
<polygon fill="#191970" stroke="#191970" points="83.9153,-434.56 79.8605,-424.7718 76.9263,-434.9521 83.9153,-434.56"/>
</g>
<!-- Node325 -->
<g id="node3" class="node">
<title>Node325</title>
<g id="a_node3"><a xlink:href="namespacesll__m__particle__mesh__coupling__spline__2d__feec.html#a5406f8d57e7c4b51adcf7601f4fd4b59" target="_top" xlink:title="sll_m_particle_mesh\l_coupling_spline_2d\l_feec::add_current_update\l_v_primitive_component2\l_spline_2d_feec">
<polygon fill="#ffffff" stroke="#000000" points="208,-706.5 208,-769.5 354,-769.5 354,-706.5 208,-706.5"/>
<text text-anchor="start" x="216" y="-757.5" font-family="Helvetica,sans-Serif" font-size="10.00" fill="#000000">sll_m_particle_mesh</text>
<text text-anchor="start" x="216" y="-746.5" font-family="Helvetica,sans-Serif" font-size="10.00" fill="#000000">_coupling_spline_2d</text>
<text text-anchor="start" x="216" y="-735.5" font-family="Helvetica,sans-Serif" font-size="10.00" fill="#000000">_feec::add_current_update</text>
<text text-anchor="start" x="216" y="-724.5" font-family="Helvetica,sans-Serif" font-size="10.00" fill="#000000">_v_primitive_component2</text>
<text text-anchor="middle" x="281" y="-713.5" font-family="Helvetica,sans-Serif" font-size="10.00" fill="#000000">_spline_2d_feec</text>
</a>
</g>
</g>
<!-- Node323&#45;&gt;Node325 -->
<g id="edge2" class="edge">
<title>Node323&#45;&gt;Node325</title>
<path fill="none" stroke="#191970" d="M82.5506,-434.7116C91.2405,-484.7274 120.4815,-618.1763 195,-697 198.8634,-701.0866 203.2176,-704.811 207.864,-708.1972"/>
<polygon fill="#191970" stroke="#191970" points="85.9647,-433.9039 80.8823,-424.6077 79.0582,-435.0443 85.9647,-433.9039"/>
</g>
<!-- Node326 -->
<g id="node4" class="node">
<title>Node326</title>
<g id="a_node4"><a xlink:href="namespacesll__m__particle__mesh__coupling__spline__3d__feec.html#a22ae487537ad43f177353d21e1a64c40" target="_top" xlink:title="Add current for one particle and update v (according to H_p1 part in Hamiltonian splitting), version based on primitive function. ">
<polygon fill="#ffffff" stroke="#000000" points="208,-624.5 208,-687.5 354,-687.5 354,-624.5 208,-624.5"/>
<text text-anchor="start" x="216" y="-675.5" font-family="Helvetica,sans-Serif" font-size="10.00" fill="#000000">sll_m_particle_mesh</text>
<text text-anchor="start" x="216" y="-664.5" font-family="Helvetica,sans-Serif" font-size="10.00" fill="#000000">_coupling_spline_3d</text>
<text text-anchor="start" x="216" y="-653.5" font-family="Helvetica,sans-Serif" font-size="10.00" fill="#000000">_feec::add_current_update</text>
<text text-anchor="start" x="216" y="-642.5" font-family="Helvetica,sans-Serif" font-size="10.00" fill="#000000">_v_primitive_component1</text>
<text text-anchor="middle" x="281" y="-631.5" font-family="Helvetica,sans-Serif" font-size="10.00" fill="#000000">_spline_3d_feec</text>
</a>
</g>
</g>
<!-- Node323&#45;&gt;Node326 -->
<g id="edge3" class="edge">
<title>Node323&#45;&gt;Node326</title>
<path fill="none" stroke="#191970" d="M86.1333,-434.2516C100.3886,-473.1159 137.3974,-561.7688 195,-615 198.8873,-618.5923 203.1465,-621.9271 207.6239,-625.0127"/>
<polygon fill="#191970" stroke="#191970" points="89.3754,-432.9228 82.7178,-424.681 82.7826,-435.2756 89.3754,-432.9228"/>
</g>
<!-- Node327 -->
<g id="node5" class="node">
<title>Node327</title>
<g id="a_node5"><a xlink:href="namespacesll__m__particle__mesh__coupling__spline__3d__feec.html#a5b784241af06ce752db04d2c2e120736" target="_top" xlink:title="Add current for one particle and update v (according to H_p2 part in Hamiltonian splitting), version based on primitive function. ">
<polygon fill="#ffffff" stroke="#000000" points="208,-542.5 208,-605.5 354,-605.5 354,-542.5 208,-542.5"/>
<text text-anchor="start" x="216" y="-593.5" font-family="Helvetica,sans-Serif" font-size="10.00" fill="#000000">sll_m_particle_mesh</text>
<text text-anchor="start" x="216" y="-582.5" font-family="Helvetica,sans-Serif" font-size="10.00" fill="#000000">_coupling_spline_3d</text>
<text text-anchor="start" x="216" y="-571.5" font-family="Helvetica,sans-Serif" font-size="10.00" fill="#000000">_feec::add_current_update</text>
<text text-anchor="start" x="216" y="-560.5" font-family="Helvetica,sans-Serif" font-size="10.00" fill="#000000">_v_primitive_component2</text>
<text text-anchor="middle" x="281" y="-549.5" font-family="Helvetica,sans-Serif" font-size="10.00" fill="#000000">_spline_3d_feec</text>
</a>
</g>
</g>
<!-- Node323&#45;&gt;Node327 -->
<g id="edge4" class="edge">
<title>Node323&#45;&gt;Node327</title>
<path fill="none" stroke="#191970" d="M93.2628,-432.5459C113.459,-457.4093 153.2739,-503.1806 195,-533 199.5755,-536.2698 204.4526,-539.3943 209.4704,-542.3544"/>
<polygon fill="#191970" stroke="#191970" points="95.9493,-430.3013 86.9663,-424.6837 90.4855,-434.677 95.9493,-430.3013"/>
</g>
<!-- Node328 -->
<g id="node6" class="node">
<title>Node328</title>
<g id="a_node6"><a xlink:href="namespacesll__m__particle__mesh__coupling__spline__3d__feec.html#a20bf338104ac141fd28d6f8fab376230" target="_top" xlink:title="Add current for one particle and update v (according to H_p3 part in Hamiltonian splitting), version based on primitive function. ">
<polygon fill="#ffffff" stroke="#000000" points="208,-460.5 208,-523.5 354,-523.5 354,-460.5 208,-460.5"/>
<text text-anchor="start" x="216" y="-511.5" font-family="Helvetica,sans-Serif" font-size="10.00" fill="#000000">sll_m_particle_mesh</text>
<text text-anchor="start" x="216" y="-500.5" font-family="Helvetica,sans-Serif" font-size="10.00" fill="#000000">_coupling_spline_3d</text>
<text text-anchor="start" x="216" y="-489.5" font-family="Helvetica,sans-Serif" font-size="10.00" fill="#000000">_feec::add_current_update</text>
<text text-anchor="start" x="216" y="-478.5" font-family="Helvetica,sans-Serif" font-size="10.00" fill="#000000">_v_primitive_component3</text>
<text text-anchor="middle" x="281" y="-467.5" font-family="Helvetica,sans-Serif" font-size="10.00" fill="#000000">_spline_3d_feec</text>
</a>
</g>
</g>
<!-- Node323&#45;&gt;Node328 -->
<g id="edge5" class="edge">
<title>Node323&#45;&gt;Node328</title>
<path fill="none" stroke="#191970" d="M114.2689,-428.2864C139.956,-438.1023 175.8569,-451.8212 207.7685,-464.0158"/>
<polygon fill="#191970" stroke="#191970" points="115.2033,-424.8966 104.6127,-424.5964 112.7045,-431.4355 115.2033,-424.8966"/>
</g>
<!-- Node329 -->
<g id="node7" class="node">
<title>Node329</title>
<g id="a_node7"><a xlink:href="namespacesll__m__particle__mesh__coupling__spline__3d__feec.html#aa4424dde1a396ef50ec3fcb4e9bbbd29" target="_top" xlink:title="Add current for one particle and update v (according to H_p1 part in Hamiltonian splitting), version based on quadrature. ">
<polygon fill="#ffffff" stroke="#000000" points="195,-389 195,-441 367,-441 367,-389 195,-389"/>
<text text-anchor="start" x="203" y="-429" font-family="Helvetica,sans-Serif" font-size="10.00" fill="#000000">sll_m_particle_mesh</text>
<text text-anchor="start" x="203" y="-418" font-family="Helvetica,sans-Serif" font-size="10.00" fill="#000000">_coupling_spline_3d</text>
<text text-anchor="start" x="203" y="-407" font-family="Helvetica,sans-Serif" font-size="10.00" fill="#000000">_feec::add_current_update</text>
<text text-anchor="middle" x="281" y="-396" font-family="Helvetica,sans-Serif" font-size="10.00" fill="#000000">_v_component1_spline_3d_feec</text>
</a>
</g>
</g>
<!-- Node323&#45;&gt;Node329 -->
<g id="edge6" class="edge">
<title>Node323&#45;&gt;Node329</title>
<path fill="none" stroke="#191970" d="M169.1499,-415C177.7339,-415 186.4268,-415 194.9751,-415"/>
<polygon fill="#191970" stroke="#191970" points="169.1382,-411.5001 159.1381,-415 169.1381,-418.5001 169.1382,-411.5001"/>
</g>
<!-- Node330 -->
<g id="node8" class="node">
<title>Node330</title>
<g id="a_node8"><a xlink:href="namespacesll__m__particle__mesh__coupling__spline__3d__feec.html#a3ed502ad3a148ff26d92b7332b2ebfb0" target="_top" xlink:title="Add current for one particle and update v (according to H_p2 part in Hamiltonian splitting), version based on quadrature. ">
<polygon fill="#ffffff" stroke="#000000" points="195,-318 195,-370 367,-370 367,-318 195,-318"/>
<text text-anchor="start" x="203" y="-358" font-family="Helvetica,sans-Serif" font-size="10.00" fill="#000000">sll_m_particle_mesh</text>
<text text-anchor="start" x="203" y="-347" font-family="Helvetica,sans-Serif" font-size="10.00" fill="#000000">_coupling_spline_3d</text>
<text text-anchor="start" x="203" y="-336" font-family="Helvetica,sans-Serif" font-size="10.00" fill="#000000">_feec::add_current_update</text>
<text text-anchor="middle" x="281" y="-325" font-family="Helvetica,sans-Serif" font-size="10.00" fill="#000000">_v_component2_spline_3d_feec</text>
</a>
</g>
</g>
<!-- Node323&#45;&gt;Node330 -->
<g id="edge7" class="edge">
<title>Node323&#45;&gt;Node330</title>
<path fill="none" stroke="#191970" d="M116.2487,-402.0513C141.5878,-393.1229 176.1443,-380.9467 207.0661,-370.0511"/>
<polygon fill="#191970" stroke="#191970" points="114.9436,-398.8002 106.6752,-405.4246 117.27,-405.4023 114.9436,-398.8002"/>
</g>
<!-- Node331 -->
<g id="node9" class="node">
<title>Node331</title>
<g id="a_node9"><a xlink:href="namespacesll__m__particle__mesh__coupling__spline__3d__feec.html#a4fd7d7b3daffb8d0be8ae656ef479b8c" target="_top" xlink:title="Add current for one particle and update v (according to H_p3 part in Hamiltonian splitting), version based on quadrature. ">
<polygon fill="#ffffff" stroke="#000000" points="195,-247 195,-299 367,-299 367,-247 195,-247"/>
<text text-anchor="start" x="203" y="-287" font-family="Helvetica,sans-Serif" font-size="10.00" fill="#000000">sll_m_particle_mesh</text>
<text text-anchor="start" x="203" y="-276" font-family="Helvetica,sans-Serif" font-size="10.00" fill="#000000">_coupling_spline_3d</text>
<text text-anchor="start" x="203" y="-265" font-family="Helvetica,sans-Serif" font-size="10.00" fill="#000000">_feec::add_current_update</text>
<text text-anchor="middle" x="281" y="-254" font-family="Helvetica,sans-Serif" font-size="10.00" fill="#000000">_v_component3_spline_3d_feec</text>
</a>
</g>
</g>
<!-- Node323&#45;&gt;Node331 -->
<g id="edge8" class="edge">
<title>Node323&#45;&gt;Node331</title>
<path fill="none" stroke="#191970" d="M94.6633,-397.7695C115.4401,-374.9933 154.7839,-334.7482 195,-309 200.4526,-305.509 206.3008,-302.2301 212.288,-299.1821"/>
<polygon fill="#191970" stroke="#191970" points="91.9656,-395.5351 87.8815,-405.3112 97.1706,-400.2157 91.9656,-395.5351"/>
</g>
<!-- Node332 -->
<g id="node10" class="node">
<title>Node332</title>
<g id="a_node10"><a xlink:href="namespacesll__m__particle__mesh__coupling__spline__cl__3d__feec.html#a536563b4882cbfed512dd5f81ffbfcdc" target="_top" xlink:title="Add current for one particle and update v (according to H_p1 part in Hamiltonian splitting) ...">
<polygon fill="#ffffff" stroke="#000000" points="197.5,-164.5 197.5,-227.5 364.5,-227.5 364.5,-164.5 197.5,-164.5"/>
<text text-anchor="start" x="205.5" y="-215.5" font-family="Helvetica,sans-Serif" font-size="10.00" fill="#000000">sll_m_particle_mesh</text>
<text text-anchor="start" x="205.5" y="-204.5" font-family="Helvetica,sans-Serif" font-size="10.00" fill="#000000">_coupling_spline_cl</text>
<text text-anchor="start" x="205.5" y="-193.5" font-family="Helvetica,sans-Serif" font-size="10.00" fill="#000000">_3d_feec::add_current</text>
<text text-anchor="start" x="205.5" y="-182.5" font-family="Helvetica,sans-Serif" font-size="10.00" fill="#000000">_update_v_component1_spline</text>
<text text-anchor="middle" x="281" y="-171.5" font-family="Helvetica,sans-Serif" font-size="10.00" fill="#000000">_3d_feec</text>
</a>
</g>
</g>
<!-- Node323&#45;&gt;Node332 -->
<g id="edge9" class="edge">
<title>Node323&#45;&gt;Node332</title>
<path fill="none" stroke="#191970" d="M87.6355,-396.1119C103.6122,-360.9153 142.1847,-284.6478 195,-238 199.2343,-234.2601 203.8609,-230.7728 208.7008,-227.537"/>
<polygon fill="#191970" stroke="#191970" points="84.4302,-394.7062 83.5727,-405.2663 90.8284,-397.5458 84.4302,-394.7062"/>
</g>
<!-- Node333 -->
<g id="node11" class="node">
<title>Node333</title>
<g id="a_node11"><a xlink:href="namespacesll__m__particle__mesh__coupling__spline__cl__3d__feec.html#a21aa41ea14ca5a4093045fa5114ecd00" target="_top" xlink:title="Add current for one particle and update v (according to H_p1 part in Hamiltonian splitting) ...">
<polygon fill="#ffffff" stroke="#000000" points="197.5,-82.5 197.5,-145.5 364.5,-145.5 364.5,-82.5 197.5,-82.5"/>
<text text-anchor="start" x="205.5" y="-133.5" font-family="Helvetica,sans-Serif" font-size="10.00" fill="#000000">sll_m_particle_mesh</text>
<text text-anchor="start" x="205.5" y="-122.5" font-family="Helvetica,sans-Serif" font-size="10.00" fill="#000000">_coupling_spline_cl</text>
<text text-anchor="start" x="205.5" y="-111.5" font-family="Helvetica,sans-Serif" font-size="10.00" fill="#000000">_3d_feec::add_current</text>
<text text-anchor="start" x="205.5" y="-100.5" font-family="Helvetica,sans-Serif" font-size="10.00" fill="#000000">_update_v_component2_spline</text>
<text text-anchor="middle" x="281" y="-89.5" font-family="Helvetica,sans-Serif" font-size="10.00" fill="#000000">_3d_feec</text>
</a>
</g>
</g>
<!-- Node323&#45;&gt;Node333 -->
<g id="edge10" class="edge">
<title>Node323&#45;&gt;Node333</title>
<path fill="none" stroke="#191970" d="M83.2772,-395.5656C93.3483,-348.4856 124.9861,-226.9176 195,-155 198.2306,-151.6815 201.7834,-148.5985 205.5491,-145.7391"/>
<polygon fill="#191970" stroke="#191970" points="79.8431,-394.8891 81.2622,-405.3885 86.7003,-396.2958 79.8431,-394.8891"/>
</g>
<!-- Node334 -->
<g id="node12" class="node">
<title>Node334</title>
<g id="a_node12"><a xlink:href="namespacesll__m__particle__mesh__coupling__spline__cl__3d__feec.html#ad22243ca464ca4758024da8aa083a688" target="_top" xlink:title="Add current for one particle and update v (according to H_p1 part in Hamiltonian splitting) ...">
<polygon fill="#ffffff" stroke="#000000" points="197.5,-.5 197.5,-63.5 364.5,-63.5 364.5,-.5 197.5,-.5"/>
<text text-anchor="start" x="205.5" y="-51.5" font-family="Helvetica,sans-Serif" font-size="10.00" fill="#000000">sll_m_particle_mesh</text>
<text text-anchor="start" x="205.5" y="-40.5" font-family="Helvetica,sans-Serif" font-size="10.00" fill="#000000">_coupling_spline_cl</text>
<text text-anchor="start" x="205.5" y="-29.5" font-family="Helvetica,sans-Serif" font-size="10.00" fill="#000000">_3d_feec::add_current</text>
<text text-anchor="start" x="205.5" y="-18.5" font-family="Helvetica,sans-Serif" font-size="10.00" fill="#000000">_update_v_component3_spline</text>
<text text-anchor="middle" x="281" y="-7.5" font-family="Helvetica,sans-Serif" font-size="10.00" fill="#000000">_3d_feec</text>
</a>
</g>
</g>
<!-- Node323&#45;&gt;Node334 -->
<g id="edge11" class="edge">
<title>Node323&#45;&gt;Node334</title>
<path fill="none" stroke="#191970" d="M80.9177,-395.0193C85.9773,-337.8159 107.8296,-171.2314 195,-73 197.9642,-69.6596 201.2598,-66.5678 204.7839,-63.7093"/>
<polygon fill="#191970" stroke="#191970" points="77.4098,-394.9777 80.0953,-405.2265 84.3872,-395.54 77.4098,-394.9777"/>
</g>
</g>
</svg>
