<?xml version="1.0" encoding="UTF-8" standalone="no"?>
<!DOCTYPE svg PUBLIC "-//W3C//DTD SVG 1.1//EN"
 "http://www.w3.org/Graphics/SVG/1.1/DTD/svg11.dtd">
<!-- Generated by graphviz version 2.40.1 (20161225.0304)
 -->
<!-- Title: sll_s_distribution_tsc_gnuplot Pages: 1 -->
<svg width="245pt" height="78pt"
 viewBox="0.00 0.00 245.00 77.50" xmlns="http://www.w3.org/2000/svg" xmlns:xlink="http://www.w3.org/1999/xlink">
<g id="graph0" class="graph" transform="scale(1 1) rotate(0) translate(4 73.5)">
<title>sll_s_distribution_tsc_gnuplot</title>
<polygon fill="#ffffff" stroke="transparent" points="-4,4 -4,-73.5 241,-73.5 241,4 -4,4"/>
<!-- Node41 -->
<g id="node1" class="node">
<title>Node41</title>
<polygon fill="#bfbfbf" stroke="#000000" points="0,-17 0,-47 99,-47 99,-17 0,-17"/>
<text text-anchor="start" x="8" y="-35" font-family="Helvetica,sans-Serif" font-size="10.00" fill="#000000">sll_s_distribution</text>
<text text-anchor="middle" x="49.5" y="-24" font-family="Helvetica,sans-Serif" font-size="10.00" fill="#000000">_tsc_gnuplot</text>
</g>
<!-- Node42 -->
<g id="node2" class="node">
<title>Node42</title>
<g id="a_node2"><a xlink:href="namespacesll__m__utilities.html#a4d45f033e67c39369da8b297302793cb" target="_top" xlink:title="Convert an integer &lt; 9999 to a 4 characters string. ">
<polygon fill="#ffffff" stroke="#000000" points="135,-39 135,-69 237,-69 237,-39 135,-39"/>
<text text-anchor="start" x="143" y="-57" font-family="Helvetica,sans-Serif" font-size="10.00" fill="#000000">sll_m_utilities::sll</text>
<text text-anchor="middle" x="186" y="-46" font-family="Helvetica,sans-Serif" font-size="10.00" fill="#000000">_s_int2string</text>
</a>
</g>
</g>
<!-- Node41&#45;&gt;Node42 -->
<g id="edge1" class="edge">
<title>Node41&#45;&gt;Node42</title>
<path fill="none" stroke="#191970" d="M99.1658,-40.0047C107.4937,-41.347 116.2212,-42.7536 124.7986,-44.136"/>
<polygon fill="#191970" stroke="#191970" points="124.3363,-47.6066 134.7659,-45.7425 125.4502,-40.6958 124.3363,-47.6066"/>
</g>
<!-- Node43 -->
<g id="node3" class="node">
<title>Node43</title>
<g id="a_node3"><a xlink:href="namespacesll__m__pic__visu.html#ade5c2cf830ba34553d4c165b14cb8f7c" target="_top" xlink:title="compute_df_tsc">
<polygon fill="#ffffff" stroke="#000000" points="139,-.5 139,-19.5 233,-19.5 233,-.5 139,-.5"/>
<text text-anchor="middle" x="186" y="-7.5" font-family="Helvetica,sans-Serif" font-size="10.00" fill="#000000">compute_df_tsc</text>
</a>
</g>
</g>
<!-- Node41&#45;&gt;Node43 -->
<g id="edge2" class="edge">
<title>Node41&#45;&gt;Node43</title>
<path fill="none" stroke="#191970" d="M99.1658,-23.9953C108.7836,-22.4451 118.9344,-20.8091 128.7715,-19.2236"/>
<polygon fill="#191970" stroke="#191970" points="129.558,-22.6421 138.8736,-17.5955 128.4441,-15.7313 129.558,-22.6421"/>
</g>
</g>
</svg>
