<?xml version="1.0" encoding="UTF-8" standalone="no"?>
<!DOCTYPE svg PUBLIC "-//W3C//DTD SVG 1.1//EN"
 "http://www.w3.org/Graphics/SVG/1.1/DTD/svg11.dtd">
<!-- Generated by graphviz version 2.43.0 (0)
 -->
<!-- Title: sll_f_process_outside_point_set_to_limit Pages: 1 -->
<svg width="573pt" height="314pt"
 viewBox="0.00 0.00 573.00 313.50" xmlns="http://www.w3.org/2000/svg" xmlns:xlink="http://www.w3.org/1999/xlink">
<g id="graph0" class="graph" transform="scale(1 1) rotate(0) translate(4 309.5)">
<title>sll_f_process_outside_point_set_to_limit</title>
<polygon fill="white" stroke="transparent" points="-4,4 -4,-309.5 569,-309.5 569,4 -4,4"/>
<!-- Node1 -->
<g id="node1" class="node">
<title>Node1</title>
<g id="a_node1"><a xlink:title=" ">
<polygon fill="#bfbfbf" stroke="black" points="444,-143.5 444,-173.5 565,-173.5 565,-143.5 444,-143.5"/>
<text text-anchor="start" x="452" y="-161.5" font-family="Helvetica,sans-Serif" font-size="10.00">sll_f_process_outside</text>
<text text-anchor="middle" x="504.5" y="-150.5" font-family="Helvetica,sans-Serif" font-size="10.00">_point_set_to_limit</text>
</a>
</g>
</g>
<!-- Node2 -->
<g id="node2" class="node">
<title>Node2</title>
<g id="a_node2"><a xlink:href="namespacesll__m__characteristics__1d__explicit__euler.html#a63bf9e59a0d230d96d852ebb7d5189ad" target="_top" xlink:title=" ">
<polygon fill="white" stroke="black" points="239.5,-264 239.5,-305 392.5,-305 392.5,-264 239.5,-264"/>
<text text-anchor="start" x="247.5" y="-293" font-family="Helvetica,sans-Serif" font-size="10.00">sll_m_characteristics</text>
<text text-anchor="start" x="247.5" y="-282" font-family="Helvetica,sans-Serif" font-size="10.00">_1d_explicit_euler::initialize</text>
<text text-anchor="middle" x="316" y="-271" font-family="Helvetica,sans-Serif" font-size="10.00">_charac_1d_explicit_euler</text>
</a>
</g>
</g>
<!-- Node1&#45;&gt;Node2 -->
<g id="edge1" class="edge">
<title>Node1&#45;&gt;Node2</title>
<path fill="none" stroke="midnightblue" d="M485.84,-181.71C468.26,-203.34 439.43,-235.09 408,-254.5 402.34,-258 396.22,-261.13 389.94,-263.94"/>
<polygon fill="midnightblue" stroke="midnightblue" points="488.73,-183.69 492.22,-173.68 483.26,-179.33 488.73,-183.69"/>
</g>
<!-- Node4 -->
<g id="node4" class="node">
<title>Node4</title>
<g id="a_node4"><a xlink:href="namespacesll__m__advection__1d__csl.html#adff7afe9f62205bd3d84abed6dd2809e" target="_top" xlink:title=" ">
<polygon fill="white" stroke="black" points="259.5,-204 259.5,-245 372.5,-245 372.5,-204 259.5,-204"/>
<text text-anchor="start" x="267.5" y="-233" font-family="Helvetica,sans-Serif" font-size="10.00">sll_m_advection_1d</text>
<text text-anchor="start" x="267.5" y="-222" font-family="Helvetica,sans-Serif" font-size="10.00">_csl::initialize_csl</text>
<text text-anchor="middle" x="316" y="-211" font-family="Helvetica,sans-Serif" font-size="10.00">_1d_advector</text>
</a>
</g>
</g>
<!-- Node1&#45;&gt;Node4 -->
<g id="edge3" class="edge">
<title>Node1&#45;&gt;Node4</title>
<path fill="none" stroke="midnightblue" d="M455,-177.23C439.98,-182.91 423.35,-189.08 408,-194.5 396.71,-198.49 384.57,-202.61 372.95,-206.47"/>
<polygon fill="midnightblue" stroke="midnightblue" points="456.5,-180.41 464.61,-173.58 454.01,-173.86 456.5,-180.41"/>
</g>
<!-- Node6 -->
<g id="node6" class="node">
<title>Node6</title>
<g id="a_node6"><a xlink:href="namespacesll__m__characteristics__1d__explicit__euler__conservative.html#a00c7588a0827eb86b9046f3cfaba1efe" target="_top" xlink:title=" ">
<polygon fill="white" stroke="black" points="229.5,-132.5 229.5,-184.5 402.5,-184.5 402.5,-132.5 229.5,-132.5"/>
<text text-anchor="start" x="237.5" y="-172.5" font-family="Helvetica,sans-Serif" font-size="10.00">sll_m_characteristics</text>
<text text-anchor="start" x="237.5" y="-161.5" font-family="Helvetica,sans-Serif" font-size="10.00">_1d_explicit_euler_conservative</text>
<text text-anchor="start" x="237.5" y="-150.5" font-family="Helvetica,sans-Serif" font-size="10.00">::initialize_explicit_euler</text>
<text text-anchor="middle" x="316" y="-139.5" font-family="Helvetica,sans-Serif" font-size="10.00">_conservative_1d_charac</text>
</a>
</g>
</g>
<!-- Node1&#45;&gt;Node6 -->
<g id="edge5" class="edge">
<title>Node1&#45;&gt;Node6</title>
<path fill="none" stroke="midnightblue" d="M433.97,-158.5C423.81,-158.5 413.25,-158.5 402.81,-158.5"/>
<polygon fill="midnightblue" stroke="midnightblue" points="433.98,-162 443.98,-158.5 433.98,-155 433.98,-162"/>
</g>
<!-- Node8 -->
<g id="node8" class="node">
<title>Node8</title>
<g id="a_node8"><a xlink:href="namespacesll__m__characteristics__1d__trapezoid.html#a469ca7d418f12b41cf3d50a2a0732152" target="_top" xlink:title=" ">
<polygon fill="white" stroke="black" points="249.5,-72 249.5,-113 382.5,-113 382.5,-72 249.5,-72"/>
<text text-anchor="start" x="257.5" y="-101" font-family="Helvetica,sans-Serif" font-size="10.00">sll_m_characteristics</text>
<text text-anchor="start" x="257.5" y="-90" font-family="Helvetica,sans-Serif" font-size="10.00">_1d_trapezoid::initialize</text>
<text text-anchor="middle" x="316" y="-79" font-family="Helvetica,sans-Serif" font-size="10.00">_trapezoid_1d_charac</text>
</a>
</g>
</g>
<!-- Node1&#45;&gt;Node8 -->
<g id="edge7" class="edge">
<title>Node1&#45;&gt;Node8</title>
<path fill="none" stroke="midnightblue" d="M453.72,-140.01C439.02,-134.62 422.89,-128.76 408,-123.5 398.4,-120.11 388.21,-116.57 378.25,-113.15"/>
<polygon fill="midnightblue" stroke="midnightblue" points="452.55,-143.31 463.15,-143.48 454.97,-136.74 452.55,-143.31"/>
</g>
<!-- Node10 -->
<g id="node10" class="node">
<title>Node10</title>
<g id="a_node10"><a xlink:href="namespacesll__m__characteristics__1d__trapezoid__conservative.html#a77cd7909c72fd242134305d19521a44e" target="_top" xlink:title=" ">
<polygon fill="white" stroke="black" points="224,-0.5 224,-52.5 408,-52.5 408,-0.5 224,-0.5"/>
<text text-anchor="start" x="232" y="-40.5" font-family="Helvetica,sans-Serif" font-size="10.00">sll_m_characteristics</text>
<text text-anchor="start" x="232" y="-29.5" font-family="Helvetica,sans-Serif" font-size="10.00">_1d_trapezoid_conservative</text>
<text text-anchor="start" x="232" y="-18.5" font-family="Helvetica,sans-Serif" font-size="10.00">::initialize_trapezoid_conservative</text>
<text text-anchor="middle" x="316" y="-7.5" font-family="Helvetica,sans-Serif" font-size="10.00">_1d_charac</text>
</a>
</g>
</g>
<!-- Node1&#45;&gt;Node10 -->
<g id="edge9" class="edge">
<title>Node1&#45;&gt;Node10</title>
<path fill="none" stroke="midnightblue" d="M485.28,-135.34C467.49,-114.01 438.68,-82.7 408,-62.5 402.61,-58.95 396.81,-55.66 390.85,-52.63"/>
<polygon fill="midnightblue" stroke="midnightblue" points="482.72,-137.73 491.76,-143.25 488.13,-133.3 482.72,-137.73"/>
</g>
<!-- Node3 -->
<g id="node3" class="node">
<title>Node3</title>
<g id="a_node3"><a xlink:href="namespacesll__m__characteristics__1d__explicit__euler.html#a81255034a026a0d217ed2666dc34ac44" target="_top" xlink:title=" ">
<polygon fill="white" stroke="black" points="5.5,-264 5.5,-305 182.5,-305 182.5,-264 5.5,-264"/>
<text text-anchor="start" x="13.5" y="-293" font-family="Helvetica,sans-Serif" font-size="10.00">sll_m_characteristics</text>
<text text-anchor="start" x="13.5" y="-282" font-family="Helvetica,sans-Serif" font-size="10.00">_1d_explicit_euler::sll</text>
<text text-anchor="middle" x="94" y="-271" font-family="Helvetica,sans-Serif" font-size="10.00">_f_new_charac_1d_explicit_euler</text>
</a>
</g>
</g>
<!-- Node2&#45;&gt;Node3 -->
<g id="edge2" class="edge">
<title>Node2&#45;&gt;Node3</title>
<path fill="none" stroke="midnightblue" d="M228.88,-284.5C213.67,-284.5 197.83,-284.5 182.58,-284.5"/>
<polygon fill="midnightblue" stroke="midnightblue" points="229.29,-288 239.29,-284.5 229.29,-281 229.29,-288"/>
</g>
<!-- Node5 -->
<g id="node5" class="node">
<title>Node5</title>
<g id="a_node5"><a xlink:href="namespacesll__m__advection__1d__csl.html#a55fa500727e3f15cc3c449f20f776ff6" target="_top" xlink:title=" ">
<polygon fill="white" stroke="black" points="37.5,-204 37.5,-245 150.5,-245 150.5,-204 37.5,-204"/>
<text text-anchor="start" x="45.5" y="-233" font-family="Helvetica,sans-Serif" font-size="10.00">sll_m_advection_1d</text>
<text text-anchor="start" x="45.5" y="-222" font-family="Helvetica,sans-Serif" font-size="10.00">_csl::sll_f_new_csl</text>
<text text-anchor="middle" x="94" y="-211" font-family="Helvetica,sans-Serif" font-size="10.00">_1d_advector</text>
</a>
</g>
</g>
<!-- Node4&#45;&gt;Node5 -->
<g id="edge4" class="edge">
<title>Node4&#45;&gt;Node5</title>
<path fill="none" stroke="midnightblue" d="M249.11,-224.5C217.8,-224.5 180.79,-224.5 150.88,-224.5"/>
<polygon fill="midnightblue" stroke="midnightblue" points="249.48,-228 259.48,-224.5 249.48,-221 249.48,-228"/>
</g>
<!-- Node7 -->
<g id="node7" class="node">
<title>Node7</title>
<g id="a_node7"><a xlink:href="namespacesll__m__characteristics__1d__explicit__euler__conservative.html#a2ec29c93a0c3d87bbb8e93ea11374830" target="_top" xlink:title=" ">
<polygon fill="white" stroke="black" points="7.5,-132.5 7.5,-184.5 180.5,-184.5 180.5,-132.5 7.5,-132.5"/>
<text text-anchor="start" x="15.5" y="-172.5" font-family="Helvetica,sans-Serif" font-size="10.00">sll_m_characteristics</text>
<text text-anchor="start" x="15.5" y="-161.5" font-family="Helvetica,sans-Serif" font-size="10.00">_1d_explicit_euler_conservative</text>
<text text-anchor="start" x="15.5" y="-150.5" font-family="Helvetica,sans-Serif" font-size="10.00">::sll_f_new_explicit_euler</text>
<text text-anchor="middle" x="94" y="-139.5" font-family="Helvetica,sans-Serif" font-size="10.00">_conservative_1d_charac</text>
</a>
</g>
</g>
<!-- Node6&#45;&gt;Node7 -->
<g id="edge6" class="edge">
<title>Node6&#45;&gt;Node7</title>
<path fill="none" stroke="midnightblue" d="M219.15,-158.5C206.4,-158.5 193.39,-158.5 180.82,-158.5"/>
<polygon fill="midnightblue" stroke="midnightblue" points="219.31,-162 229.31,-158.5 219.31,-155 219.31,-162"/>
</g>
<!-- Node9 -->
<g id="node9" class="node">
<title>Node9</title>
<g id="a_node9"><a xlink:href="namespacesll__m__characteristics__1d__trapezoid.html#a9910a9a1b0a4c7fc0c5a775c30f7ac4a" target="_top" xlink:title=" ">
<polygon fill="white" stroke="black" points="20,-72 20,-113 168,-113 168,-72 20,-72"/>
<text text-anchor="start" x="28" y="-101" font-family="Helvetica,sans-Serif" font-size="10.00">sll_m_characteristics</text>
<text text-anchor="start" x="28" y="-90" font-family="Helvetica,sans-Serif" font-size="10.00">_1d_trapezoid::sll_f</text>
<text text-anchor="middle" x="94" y="-79" font-family="Helvetica,sans-Serif" font-size="10.00">_new_trapezoid_1d_charac</text>
</a>
</g>
</g>
<!-- Node8&#45;&gt;Node9 -->
<g id="edge8" class="edge">
<title>Node8&#45;&gt;Node9</title>
<path fill="none" stroke="midnightblue" d="M239.22,-92.5C216.18,-92.5 190.92,-92.5 168.06,-92.5"/>
<polygon fill="midnightblue" stroke="midnightblue" points="239.29,-96 249.29,-92.5 239.29,-89 239.29,-96"/>
</g>
<!-- Node11 -->
<g id="node11" class="node">
<title>Node11</title>
<g id="a_node11"><a xlink:href="namespacesll__m__characteristics__1d__trapezoid__conservative.html#ab739d084574a02720dc383063d6822fd" target="_top" xlink:title=" ">
<polygon fill="white" stroke="black" points="0,-0.5 0,-52.5 188,-52.5 188,-0.5 0,-0.5"/>
<text text-anchor="start" x="8" y="-40.5" font-family="Helvetica,sans-Serif" font-size="10.00">sll_m_characteristics</text>
<text text-anchor="start" x="8" y="-29.5" font-family="Helvetica,sans-Serif" font-size="10.00">_1d_trapezoid_conservative</text>
<text text-anchor="start" x="8" y="-18.5" font-family="Helvetica,sans-Serif" font-size="10.00">::sll_f_new_trapezoid_conservative</text>
<text text-anchor="middle" x="94" y="-7.5" font-family="Helvetica,sans-Serif" font-size="10.00">_1d_charac</text>
</a>
</g>
</g>
<!-- Node10&#45;&gt;Node11 -->
<g id="edge10" class="edge">
<title>Node10&#45;&gt;Node11</title>
<path fill="none" stroke="midnightblue" d="M213.9,-26.5C205.31,-26.5 196.65,-26.5 188.13,-26.5"/>
<polygon fill="midnightblue" stroke="midnightblue" points="213.93,-30 223.93,-26.5 213.93,-23 213.93,-30"/>
</g>
</g>
</svg>
