<?xml version="1.0" encoding="UTF-8" standalone="no"?>
<!DOCTYPE svg PUBLIC "-//W3C//DTD SVG 1.1//EN"
 "http://www.w3.org/Graphics/SVG/1.1/DTD/svg11.dtd">
<!-- Generated by graphviz version 2.38.0 (20140413.2041)
 -->
<!-- Title: sll_f_new_poisson_2d_mudpack_curvilinear Pages: 1 -->
<svg width="963pt" height="300pt"
 viewBox="0.00 0.00 963.00 300.00" xmlns="http://www.w3.org/2000/svg" xmlns:xlink="http://www.w3.org/1999/xlink">
<g id="graph0" class="graph" transform="scale(1 1) rotate(0) translate(4 296)">
<title>sll_f_new_poisson_2d_mudpack_curvilinear</title>
<polygon fill="white" stroke="none" points="-4,4 -4,-296 959,-296 959,4 -4,4"/>
<!-- Node1 -->
<g id="node1" class="node"><title>Node1</title>
<polygon fill="#bfbfbf" stroke="black" points="0,-131 0,-161 113,-161 113,-131 0,-131"/>
<text text-anchor="start" x="8" y="-149" font-family="Helvetica,sans-Serif" font-size="10.00">sll_f_new_poisson_2d</text>
<text text-anchor="middle" x="56.5" y="-138" font-family="Helvetica,sans-Serif" font-size="10.00">_mudpack_curvilinear</text>
</g>
<!-- Node2 -->
<g id="node2" class="node"><title>Node2</title>
<g id="a_node2"><a xlink:href="namespacesll__m__poisson__2d__mudpack__curvilinear.html#aafe1b9a1d79ddc7a217d3a14a73c418d" target="_top" xlink:title="initialize_poisson\l_2d_mudpack_curvilinear">
<polygon fill="white" stroke="black" points="149,-131 149,-161 276,-161 276,-131 149,-131"/>
<text text-anchor="start" x="157" y="-149" font-family="Helvetica,sans-Serif" font-size="10.00">initialize_poisson</text>
<text text-anchor="middle" x="212.5" y="-138" font-family="Helvetica,sans-Serif" font-size="10.00">_2d_mudpack_curvilinear</text>
</a>
</g>
</g>
<!-- Node1&#45;&gt;Node2 -->
<g id="edge1" class="edge"><title>Node1&#45;&gt;Node2</title>
<path fill="none" stroke="midnightblue" d="M113.098,-146C121.457,-146 130.183,-146 138.835,-146"/>
<polygon fill="midnightblue" stroke="midnightblue" points="138.932,-149.5 148.932,-146 138.932,-142.5 138.932,-149.5"/>
</g>
<!-- Node3 -->
<g id="node3" class="node"><title>Node3</title>
<g id="a_node3"><a xlink:href="namespacesll__m__cubic__spline__interpolator__1d.html#ad719154e2d5d34641021bab462fbe00f" target="_top" xlink:title="PLEASE ADD DOCUMENTATION. ">
<polygon fill="white" stroke="black" points="312,-250.5 312,-291.5 488,-291.5 488,-250.5 312,-250.5"/>
<text text-anchor="start" x="320" y="-279.5" font-family="Helvetica,sans-Serif" font-size="10.00">sll_m_cubic_spline</text>
<text text-anchor="start" x="320" y="-268.5" font-family="Helvetica,sans-Serif" font-size="10.00">_interpolator_1d::sll</text>
<text text-anchor="middle" x="400" y="-257.5" font-family="Helvetica,sans-Serif" font-size="10.00">_f_new_cubic_spline_interpolator_1d</text>
</a>
</g>
</g>
<!-- Node2&#45;&gt;Node3 -->
<g id="edge2" class="edge"><title>Node2&#45;&gt;Node3</title>
<path fill="none" stroke="midnightblue" d="M225.607,-161.281C242.782,-182.027 276.143,-219.031 312,-241 314.793,-242.711 317.696,-244.34 320.675,-245.89"/>
<polygon fill="midnightblue" stroke="midnightblue" points="319.273,-249.1 329.799,-250.303 322.321,-242.798 319.273,-249.1"/>
</g>
<!-- Node7 -->
<g id="node7" class="node"><title>Node7</title>
<g id="a_node7"><a xlink:href="namespacesll__m__poisson__2d__mudpack__curvilinear.html#a8fcbe3e713a88ce5fd31ad942e6b2364" target="_top" xlink:title="input x dependent coefficients ">
<polygon fill="white" stroke="black" points="360,-212.5 360,-231.5 440,-231.5 440,-212.5 360,-212.5"/>
<text text-anchor="middle" x="400" y="-219.5" font-family="Helvetica,sans-Serif" font-size="10.00">mudpack_cofx</text>
</a>
</g>
</g>
<!-- Node2&#45;&gt;Node7 -->
<g id="edge6" class="edge"><title>Node2&#45;&gt;Node7</title>
<path fill="none" stroke="midnightblue" d="M235.197,-161.204C254.524,-174.086 283.999,-192.146 312,-203 323.943,-207.63 337.268,-211.253 349.83,-214.036"/>
<polygon fill="midnightblue" stroke="midnightblue" points="349.196,-217.479 359.699,-216.091 350.623,-210.626 349.196,-217.479"/>
</g>
<!-- Node8 -->
<g id="node8" class="node"><title>Node8</title>
<g id="a_node8"><a xlink:href="namespacesll__m__poisson__2d__mudpack__curvilinear.html#a74c987836aa011296b0d969385752efa" target="_top" xlink:title="input y dependent coefficients ">
<polygon fill="white" stroke="black" points="360,-174.5 360,-193.5 440,-193.5 440,-174.5 360,-174.5"/>
<text text-anchor="middle" x="400" y="-181.5" font-family="Helvetica,sans-Serif" font-size="10.00">mudpack_cofy</text>
</a>
</g>
</g>
<!-- Node2&#45;&gt;Node8 -->
<g id="edge7" class="edge"><title>Node2&#45;&gt;Node8</title>
<path fill="none" stroke="midnightblue" d="M276.043,-158.812C300.123,-163.745 327.252,-169.302 349.889,-173.94"/>
<polygon fill="midnightblue" stroke="midnightblue" points="349.448,-177.422 359.947,-176 350.853,-170.564 349.448,-177.422"/>
</g>
<!-- Node9 -->
<g id="node9" class="node"><title>Node9</title>
<g id="a_node9"><a xlink:href="namespacesll__m__poisson__2d__mudpack__curvilinear.html#aa3392036e040872f8df687cc1e1c00a9" target="_top" xlink:title="input mixed derivative b.c. to mud2sp ">
<polygon fill="white" stroke="black" points="356,-136.5 356,-155.5 444,-155.5 444,-136.5 356,-136.5"/>
<text text-anchor="middle" x="400" y="-143.5" font-family="Helvetica,sans-Serif" font-size="10.00">mudpack_bndsp</text>
</a>
</g>
</g>
<!-- Node2&#45;&gt;Node9 -->
<g id="edge8" class="edge"><title>Node2&#45;&gt;Node9</title>
<path fill="none" stroke="midnightblue" d="M276.043,-146C298.653,-146 323.95,-146 345.694,-146"/>
<polygon fill="midnightblue" stroke="midnightblue" points="345.732,-149.5 355.732,-146 345.732,-142.5 345.732,-149.5"/>
</g>
<!-- Node10 -->
<g id="node10" class="node"><title>Node10</title>
<g id="a_node10"><a xlink:href="namespacesll__m__cubic__spline__interpolator__2d.html#a8f2467961852b2d7c6dfd68a3ea60f20" target="_top" xlink:title="Function that return a pointer to a cubic spline interpolator 2d object. The result can be the target...">
<polygon fill="white" stroke="black" points="312,-76.5 312,-117.5 488,-117.5 488,-76.5 312,-76.5"/>
<text text-anchor="start" x="320" y="-105.5" font-family="Helvetica,sans-Serif" font-size="10.00">sll_m_cubic_spline</text>
<text text-anchor="start" x="320" y="-94.5" font-family="Helvetica,sans-Serif" font-size="10.00">_interpolator_2d::sll</text>
<text text-anchor="middle" x="400" y="-83.5" font-family="Helvetica,sans-Serif" font-size="10.00">_f_new_cubic_spline_interpolator_2d</text>
</a>
</g>
</g>
<!-- Node2&#45;&gt;Node10 -->
<g id="edge9" class="edge"><title>Node2&#45;&gt;Node10</title>
<path fill="none" stroke="midnightblue" d="M270.417,-130.965C283.357,-127.547 297.398,-123.838 311.287,-120.169"/>
<polygon fill="midnightblue" stroke="midnightblue" points="312.582,-123.448 321.356,-117.51 310.794,-116.68 312.582,-123.448"/>
</g>
<!-- Node11 -->
<g id="node11" class="node"><title>Node11</title>
<g id="a_node11"><a xlink:href="namespacesll__m__poisson__2d__mudpack__curvilinear.html#a6b17a07b1bc292c383375890b2d84d16" target="_top" xlink:title="mudpack_cof">
<polygon fill="white" stroke="black" points="362.5,-38.5 362.5,-57.5 437.5,-57.5 437.5,-38.5 362.5,-38.5"/>
<text text-anchor="middle" x="400" y="-45.5" font-family="Helvetica,sans-Serif" font-size="10.00">mudpack_cof</text>
</a>
</g>
</g>
<!-- Node2&#45;&gt;Node11 -->
<g id="edge10" class="edge"><title>Node2&#45;&gt;Node11</title>
<path fill="none" stroke="midnightblue" d="M227.679,-130.998C245.588,-112.975 278.173,-83.1527 312,-67 324.451,-61.0543 338.795,-56.9449 352.199,-54.1142"/>
<polygon fill="midnightblue" stroke="midnightblue" points="353.058,-57.5133 362.218,-52.1896 351.737,-50.6389 353.058,-57.5133"/>
</g>
<!-- Node12 -->
<g id="node12" class="node"><title>Node12</title>
<g id="a_node12"><a xlink:href="namespacesll__m__poisson__2d__mudpack__curvilinear.html#a87f0cbe4bbcf678b1d11c4033e9c65d9" target="_top" xlink:title="mudpack_cofcr">
<polygon fill="white" stroke="black" points="358.5,-0.5 358.5,-19.5 441.5,-19.5 441.5,-0.5 358.5,-0.5"/>
<text text-anchor="middle" x="400" y="-7.5" font-family="Helvetica,sans-Serif" font-size="10.00">mudpack_cofcr</text>
</a>
</g>
</g>
<!-- Node2&#45;&gt;Node12 -->
<g id="edge11" class="edge"><title>Node2&#45;&gt;Node12</title>
<path fill="none" stroke="midnightblue" d="M221.845,-130.674C236.526,-105.26 269.49,-54.6571 312,-29 322.966,-22.3812 335.947,-18.0565 348.49,-15.2343"/>
<polygon fill="midnightblue" stroke="midnightblue" points="349.274,-18.6471 358.408,-13.2779 347.919,-11.7794 349.274,-18.6471"/>
</g>
<!-- Node4 -->
<g id="node4" class="node"><title>Node4</title>
<g id="a_node4"><a xlink:href="namespacesll__m__cubic__spline__interpolator__1d.html#ab4aeb5dca8bc5be6fb404ac5e1ae7365" target="_top" xlink:title="initialize cubic spline interpolator ">
<polygon fill="white" stroke="black" points="524,-250.5 524,-291.5 651,-291.5 651,-250.5 524,-250.5"/>
<text text-anchor="start" x="532" y="-279.5" font-family="Helvetica,sans-Serif" font-size="10.00">sll_m_cubic_spline</text>
<text text-anchor="start" x="532" y="-268.5" font-family="Helvetica,sans-Serif" font-size="10.00">_interpolator_1d::initialize</text>
<text text-anchor="middle" x="587.5" y="-257.5" font-family="Helvetica,sans-Serif" font-size="10.00">_cs1d_interpolator</text>
</a>
</g>
</g>
<!-- Node3&#45;&gt;Node4 -->
<g id="edge3" class="edge"><title>Node3&#45;&gt;Node4</title>
<path fill="none" stroke="midnightblue" d="M488.047,-271C496.613,-271 505.244,-271 513.647,-271"/>
<polygon fill="midnightblue" stroke="midnightblue" points="513.763,-274.5 523.763,-271 513.763,-267.5 513.763,-274.5"/>
</g>
<!-- Node5 -->
<g id="node5" class="node"><title>Node5</title>
<g id="a_node5"><a xlink:href="namespacesll__m__cubic__splines.html#a987fec37aa6a4bc8e01a954be0a3f922" target="_top" xlink:title="Returns a pointer to a heap&#45;allocated cubic spline object. ">
<polygon fill="white" stroke="black" points="687,-250.5 687,-291.5 791,-291.5 791,-250.5 687,-250.5"/>
<text text-anchor="start" x="695" y="-279.5" font-family="Helvetica,sans-Serif" font-size="10.00">sll_m_cubic_splines</text>
<text text-anchor="start" x="695" y="-268.5" font-family="Helvetica,sans-Serif" font-size="10.00">::sll_s_cubic_spline</text>
<text text-anchor="middle" x="739" y="-257.5" font-family="Helvetica,sans-Serif" font-size="10.00">_1d_init</text>
</a>
</g>
</g>
<!-- Node4&#45;&gt;Node5 -->
<g id="edge4" class="edge"><title>Node4&#45;&gt;Node5</title>
<path fill="none" stroke="midnightblue" d="M651.035,-271C659.454,-271 668.086,-271 676.487,-271"/>
<polygon fill="midnightblue" stroke="midnightblue" points="676.59,-274.5 686.59,-271 676.59,-267.5 676.59,-274.5"/>
</g>
<!-- Node6 -->
<g id="node6" class="node"><title>Node6</title>
<g id="a_node6"><a xlink:href="namespacesll__m__tridiagonal.html#a0eb4ec59f49ba01edaba9eca267d2a28" target="_top" xlink:title="Give the factorization of the matrix in argument. ">
<polygon fill="white" stroke="black" points="827,-256 827,-286 955,-286 955,-256 827,-256"/>
<text text-anchor="start" x="835" y="-274" font-family="Helvetica,sans-Serif" font-size="10.00">sll_m_tridiagonal::</text>
<text text-anchor="middle" x="891" y="-263" font-family="Helvetica,sans-Serif" font-size="10.00">sll_s_setup_cyclic_tridiag</text>
</a>
</g>
</g>
<!-- Node5&#45;&gt;Node6 -->
<g id="edge5" class="edge"><title>Node5&#45;&gt;Node6</title>
<path fill="none" stroke="midnightblue" d="M791.202,-271C799.437,-271 808.099,-271 816.731,-271"/>
<polygon fill="midnightblue" stroke="midnightblue" points="816.822,-274.5 826.822,-271 816.822,-267.5 816.822,-274.5"/>
</g>
</g>
</svg>
