<?xml version="1.0" encoding="UTF-8" standalone="no"?>
<!DOCTYPE svg PUBLIC "-//W3C//DTD SVG 1.1//EN"
 "http://www.w3.org/Graphics/SVG/1.1/DTD/svg11.dtd">
<!-- Generated by graphviz version 2.38.0 (20140413.2041)
 -->
<!-- Title: sll_s_ascii_file_create Pages: 1 -->
<svg width="276pt" height="306pt"
 viewBox="0.00 0.00 276.00 305.50" xmlns="http://www.w3.org/2000/svg" xmlns:xlink="http://www.w3.org/1999/xlink">
<g id="graph0" class="graph" transform="scale(1 1) rotate(0) translate(4 301.5)">
<title>sll_s_ascii_file_create</title>
<polygon fill="white" stroke="none" points="-4,4 -4,-301.5 272,-301.5 272,4 -4,4"/>
<!-- Node1 -->
<g id="node1" class="node"><title>Node1</title>
<polygon fill="#bfbfbf" stroke="black" points="0,-128 0,-147 113,-147 113,-128 0,-128"/>
<text text-anchor="middle" x="56.5" y="-135" font-family="Helvetica,sans-Serif" font-size="10.00">sll_s_ascii_file_create</text>
</g>
<!-- Node2 -->
<g id="node2" class="node"><title>Node2</title>
<g id="a_node2"><a xlink:href="namespacesll__m__gnuplot__parallel.html#a3060198853651f3d790aebaa1f488727" target="_top" xlink:title="write a data file plotable by gnuplot to visualize a 2d field ">
<polygon fill="white" stroke="black" points="149,-256 149,-297 268,-297 268,-256 149,-256"/>
<text text-anchor="start" x="157" y="-285" font-family="Helvetica,sans-Serif" font-size="10.00">sll_m_gnuplot_parallel</text>
<text text-anchor="start" x="157" y="-274" font-family="Helvetica,sans-Serif" font-size="10.00">::sll_s_gnuplot_curv_2d</text>
<text text-anchor="middle" x="208.5" y="-263" font-family="Helvetica,sans-Serif" font-size="10.00">_parallel</text>
</a>
</g>
</g>
<!-- Node1&#45;&gt;Node2 -->
<g id="edge1" class="edge"><title>Node1&#45;&gt;Node2</title>
<path fill="none" stroke="midnightblue" d="M69.2972,-155.627C85.1881,-178.963 115.383,-219.694 149,-246.5 153.194,-249.845 157.82,-252.972 162.578,-255.85"/>
<polygon fill="midnightblue" stroke="midnightblue" points="72.0362,-153.426 63.572,-147.053 66.2148,-157.313 72.0362,-153.426"/>
</g>
<!-- Node3 -->
<g id="node3" class="node"><title>Node3</title>
<g id="a_node3"><a xlink:href="namespacesll__m__gnuplot__parallel.html#af740178f10df27740a07f3b3ef67225d" target="_top" xlink:title="write a data file plotable by gnuplot to visualize a 2d field ">
<polygon fill="white" stroke="black" points="150,-196 150,-237 267,-237 267,-196 150,-196"/>
<text text-anchor="start" x="158" y="-225" font-family="Helvetica,sans-Serif" font-size="10.00">sll_m_gnuplot_parallel</text>
<text text-anchor="start" x="158" y="-214" font-family="Helvetica,sans-Serif" font-size="10.00">::sll_s_gnuplot_rect_2d</text>
<text text-anchor="middle" x="208.5" y="-203" font-family="Helvetica,sans-Serif" font-size="10.00">_parallel</text>
</a>
</g>
</g>
<!-- Node1&#45;&gt;Node3 -->
<g id="edge2" class="edge"><title>Node1&#45;&gt;Node3</title>
<path fill="none" stroke="midnightblue" d="M83.4595,-152.045C101.696,-162.174 126.714,-175.893 149,-187.5 154.329,-190.275 159.958,-193.144 165.536,-195.949"/>
<polygon fill="midnightblue" stroke="midnightblue" points="85.0311,-148.914 74.5917,-147.105 81.6248,-155.029 85.0311,-148.914"/>
</g>
<!-- Node4 -->
<g id="node4" class="node"><title>Node4</title>
<g id="a_node4"><a xlink:href="namespacesll__m__pic__visu.html#a9c32d92d7f8360d16d81f82009a31a52" target="_top" xlink:title="point3D format http://www.visitusers.org/index.php?title=Reading_point_data This format is designed t...">
<polygon fill="white" stroke="black" points="152,-147.5 152,-177.5 265,-177.5 265,-147.5 152,-147.5"/>
<text text-anchor="start" x="160" y="-165.5" font-family="Helvetica,sans-Serif" font-size="10.00">sll_m_pic_visu::pq</text>
<text text-anchor="middle" x="208.5" y="-154.5" font-family="Helvetica,sans-Serif" font-size="10.00">_plot_format_points3d</text>
</a>
</g>
</g>
<!-- Node1&#45;&gt;Node4 -->
<g id="edge3" class="edge"><title>Node1&#45;&gt;Node4</title>
<path fill="none" stroke="midnightblue" d="M123.511,-148.502C132.968,-150.078 142.618,-151.686 151.849,-153.225"/>
<polygon fill="midnightblue" stroke="midnightblue" points="123.794,-145.001 113.354,-146.809 122.643,-151.906 123.794,-145.001"/>
</g>
<!-- Node5 -->
<g id="node5" class="node"><title>Node5</title>
<g id="a_node5"><a xlink:href="namespacesll__m__pic__visu.html#a7536b86d88fdf3f2fb6d32306d466baa" target="_top" xlink:title="point3D format http://www.visitusers.org/index.php?title=Reading_point_data This format is designed t...">
<polygon fill="white" stroke="black" points="152,-98.5 152,-128.5 265,-128.5 265,-98.5 152,-98.5"/>
<text text-anchor="start" x="160" y="-116.5" font-family="Helvetica,sans-Serif" font-size="10.00">sll_m_pic_visu::pqr</text>
<text text-anchor="middle" x="208.5" y="-105.5" font-family="Helvetica,sans-Serif" font-size="10.00">_plot_format_points3d</text>
</a>
</g>
</g>
<!-- Node1&#45;&gt;Node5 -->
<g id="edge4" class="edge"><title>Node1&#45;&gt;Node5</title>
<path fill="none" stroke="midnightblue" d="M123.511,-126.938C132.968,-125.425 142.618,-123.881 151.849,-122.404"/>
<polygon fill="midnightblue" stroke="midnightblue" points="122.676,-123.527 113.354,-128.563 123.782,-130.439 122.676,-123.527"/>
</g>
<!-- Node6 -->
<g id="node6" class="node"><title>Node6</title>
<g id="a_node6"><a xlink:href="namespacesll__m__pic__visu.html#a09e282f951ed283cf63f78e6120638f3" target="_top" xlink:title="point3D format http://www.visitusers.org/index.php?title=Reading_point_data This format is designed t...">
<polygon fill="white" stroke="black" points="152,-49.5 152,-79.5 265,-79.5 265,-49.5 152,-49.5"/>
<text text-anchor="start" x="160" y="-67.5" font-family="Helvetica,sans-Serif" font-size="10.00">sll_m_pic_visu::pqrs</text>
<text text-anchor="middle" x="208.5" y="-56.5" font-family="Helvetica,sans-Serif" font-size="10.00">_plot_format_points3d</text>
</a>
</g>
</g>
<!-- Node1&#45;&gt;Node6 -->
<g id="edge5" class="edge"><title>Node1&#45;&gt;Node6</title>
<path fill="none" stroke="midnightblue" d="M83.6658,-123.067C101.815,-113.232 126.647,-100.119 149,-89.5 156.083,-86.1351 163.737,-82.7137 171.101,-79.5259"/>
<polygon fill="midnightblue" stroke="midnightblue" points="81.9386,-120.023 74.833,-127.881 85.2885,-126.169 81.9386,-120.023"/>
</g>
<!-- Node7 -->
<g id="node7" class="node"><title>Node7</title>
<g id="a_node7"><a xlink:href="namespacesll__m__pic__visu.html#a63830ab2b32d310226095f7a3fa6539a" target="_top" xlink:title="xmdv format http://davis.wpi.edu/xmdv/fileformats.html This format is designed for particles with a l...">
<polygon fill="white" stroke="black" points="153.5,-0.5 153.5,-30.5 263.5,-30.5 263.5,-0.5 153.5,-0.5"/>
<text text-anchor="start" x="161.5" y="-18.5" font-family="Helvetica,sans-Serif" font-size="10.00">sll_m_pic_visu::sll</text>
<text text-anchor="middle" x="208.5" y="-7.5" font-family="Helvetica,sans-Serif" font-size="10.00">_s_plot_format_xmdv</text>
</a>
</g>
</g>
<!-- Node1&#45;&gt;Node7 -->
<g id="edge6" class="edge"><title>Node1&#45;&gt;Node7</title>
<path fill="none" stroke="midnightblue" d="M70.6855,-119.545C87.0528,-98.3017 116.772,-62.9871 149,-40.5 154.344,-36.7712 160.332,-33.4332 166.384,-30.504"/>
<polygon fill="midnightblue" stroke="midnightblue" points="67.7533,-117.62 64.52,-127.71 73.3395,-121.839 67.7533,-117.62"/>
</g>
</g>
</svg>
