<?xml version="1.0" encoding="UTF-8" standalone="no"?>
<!DOCTYPE svg PUBLIC "-//W3C//DTD SVG 1.1//EN"
 "http://www.w3.org/Graphics/SVG/1.1/DTD/svg11.dtd">
<!-- Generated by graphviz version 2.40.1 (20161225.0304)
 -->
<!-- Title: sll_s_ad2d_interpolator_init Pages: 1 -->
<!--zoomable 100 -->
<svg id="main" version="1.1" xmlns="http://www.w3.org/2000/svg" xmlns:xlink="http://www.w3.org/1999/xlink" xml:space="preserve" onload="init(evt)">
<style type="text/css"><![CDATA[
.edge:hover path { stroke: red; }
.edge:hover polygon { stroke: red; fill: red; }
]]></style>
<script type="text/javascript"><![CDATA[
var edges = document.getElementsByTagName('g');
if (edges && edges.length) {
  for (var i=0;i<edges.length;i++) {
    if (edges[i].id.substr(0,4)=='edge') {
      edges[i].setAttribute('class','edge');
    }
  }
}
]]></script>
        <defs>
                <circle id="rim" cx="0" cy="0" r="7"/>
                <circle id="rim2" cx="0" cy="0" r="3.5"/>
                <g id="zoomPlus">
                        <use xlink:href="#rim" fill="#404040">
                                <set attributeName="fill" to="#808080" begin="zoomplus.mouseover" end="zoomplus.mouseout"/>
                        </use>
                        <path d="M-4,0h8M0,-4v8" fill="none" stroke="white" stroke-width="1.5" pointer-events="none"/>
                </g>
                <g id="zoomMin">
                        <use xlink:href="#rim" fill="#404040">
                                <set attributeName="fill" to="#808080" begin="zoomminus.mouseover" end="zoomminus.mouseout"/>
                        </use>
                        <path d="M-4,0h8" fill="none" stroke="white" stroke-width="1.5" pointer-events="none"/>
                </g>
                <g id="dirArrow">
                        <path fill="none" stroke="white" stroke-width="1.5" d="M0,-3.0v7 M-2.5,-0.5L0,-3.0L2.5,-0.5"/>
                </g>
               <g id="resetDef">
                       <use xlink:href="#rim2" fill="#404040">
                               <set attributeName="fill" to="#808080" begin="reset.mouseover" end="reset.mouseout"/>
                       </use>
               </g>
        </defs>

<script type="text/javascript">
var viewWidth = 550;
var viewHeight = 100;
var sectionId = 'dynsection-9';
</script>
<script xlink:href="svgpan.js"/>
<svg id="graph" class="graph">
<g id="viewport">
<title>sll_s_ad2d_interpolator_init</title>
<polygon fill="#ffffff" stroke="transparent" points="-4,4 -4,-95.5 546,-95.5 546,4 -4,4"/>
<!-- Node51 -->
<g id="node1" class="node">
<title>Node51</title>
<polygon fill="#bfbfbf" stroke="#000000" points="0,-33 0,-52 151,-52 151,-33 0,-33"/>
<text text-anchor="middle" x="75.5" y="-40" font-family="Helvetica,sans-Serif" font-size="10.00" fill="#000000">sll_s_ad2d_interpolator_init</text>
</g>
<!-- Node52 -->
<g id="node2" class="node">
<title>Node52</title>
<g id="a_node2"><a xlink:href="namespacesll__m__arbitrary__degree__spline__interpolator__2d.html#a94723d635bdbaad8fb8fd863b4b7bd07" target="_top" xlink:title="Initialization of a pointer interpolator arbitrary degree splines 2d. ">
<polygon fill="#ffffff" stroke="#000000" points="187,-27.5 187,-57.5 323,-57.5 323,-27.5 187,-27.5"/>
<text text-anchor="start" x="195" y="-45.5" font-family="Helvetica,sans-Serif" font-size="10.00" fill="#000000">sll_f_new_arbitrary</text>
<text text-anchor="middle" x="255" y="-34.5" font-family="Helvetica,sans-Serif" font-size="10.00" fill="#000000">_degree_spline_interp2d</text>
</a>
</g>
</g>
<!-- Node51&#45;&gt;Node52 -->
<g id="edge1" class="edge">
<title>Node51&#45;&gt;Node52</title>
<path fill="none" stroke="#191970" d="M161.1897,-42.5C169.8172,-42.5 178.4948,-42.5 186.9028,-42.5"/>
<polygon fill="#191970" stroke="#191970" points="161.104,-39.0001 151.1039,-42.5 161.1039,-46.0001 161.104,-39.0001"/>
</g>
<!-- Node53 -->
<g id="node3" class="node">
<title>Node53</title>
<g id="a_node3"><a xlink:href="namespacesll__m__scalar__field__2d__multipatch.html#a8ea864138c82e8e8b66b75f3026c0a1c" target="_top" xlink:title="sll_m_scalar_field\l_2d_multipatch::initialize\l_scalar_field_sfmp2d">
<polygon fill="#ffffff" stroke="#000000" points="380.5,-50 380.5,-91 520.5,-91 520.5,-50 380.5,-50"/>
<text text-anchor="start" x="388.5" y="-79" font-family="Helvetica,sans-Serif" font-size="10.00" fill="#000000">sll_m_scalar_field</text>
<text text-anchor="start" x="388.5" y="-68" font-family="Helvetica,sans-Serif" font-size="10.00" fill="#000000">_2d_multipatch::initialize</text>
<text text-anchor="middle" x="450.5" y="-57" font-family="Helvetica,sans-Serif" font-size="10.00" fill="#000000">_scalar_field_sfmp2d</text>
</a>
</g>
</g>
<!-- Node52&#45;&gt;Node53 -->
<g id="edge2" class="edge">
<title>Node52&#45;&gt;Node53</title>
<path fill="none" stroke="#191970" d="M333.216,-53.7023C348.7846,-55.9321 365.0423,-58.2605 380.3213,-60.4488"/>
<polygon fill="#191970" stroke="#191970" points="333.4972,-50.2069 323.102,-52.2537 332.5047,-57.1362 333.4972,-50.2069"/>
</g>
<!-- Node54 -->
<g id="node4" class="node">
<title>Node54</title>
<g id="a_node4"><a xlink:href="namespacesll__m__coordinate__transformations__2d.html#af092a7689bceb4039d222e5f2a03c6e7" target="_top" xlink:title="sll_m_coordinate_transformations\l_2d::read_from_file_2d_discrete">
<polygon fill="#ffffff" stroke="#000000" points="359,-.5 359,-30.5 542,-30.5 542,-.5 359,-.5"/>
<text text-anchor="start" x="367" y="-18.5" font-family="Helvetica,sans-Serif" font-size="10.00" fill="#000000">sll_m_coordinate_transformations</text>
<text text-anchor="middle" x="450.5" y="-7.5" font-family="Helvetica,sans-Serif" font-size="10.00" fill="#000000">_2d::read_from_file_2d_discrete</text>
</a>
</g>
</g>
<!-- Node52&#45;&gt;Node54 -->
<g id="edge3" class="edge">
<title>Node52&#45;&gt;Node54</title>
<path fill="none" stroke="#191970" d="M333.2716,-31.6901C341.7055,-30.5253 350.3409,-29.3327 358.913,-28.1488"/>
<polygon fill="#191970" stroke="#191970" points="332.5291,-28.2593 323.102,-33.0946 333.4868,-35.1935 332.5291,-28.2593"/>
</g>
</g>
</svg>
        <g id="navigator" transform="translate(0 0)" fill="#404254">
                <rect fill="#f2f5e9" fill-opacity="0.5" stroke="#606060" stroke-width=".5" x="0" y="0" width="60" height="60"/>
                <use id="zoomplus" xlink:href="#zoomPlus" x="17" y="9" onmousedown="handleZoom(evt,'in')"/>
                <use id="zoomminus" xlink:href="#zoomMin" x="42" y="9" onmousedown="handleZoom(evt,'out')"/>
                <use id="reset" xlink:href="#resetDef" x="30" y="36" onmousedown="handleReset()"/>
                <g id="arrowUp" xlink:href="#dirArrow" transform="translate(30 24)" onmousedown="handlePan(0,-1)">
                  <use xlink:href="#rim" fill="#404040">
                        <set attributeName="fill" to="#808080" begin="arrowUp.mouseover" end="arrowUp.mouseout"/>
                  </use>
                  <path fill="none" stroke="white" stroke-width="1.5" d="M0,-3.0v7 M-2.5,-0.5L0,-3.0L2.5,-0.5"/>
                </g>
                <g id="arrowRight" xlink:href="#dirArrow" transform="rotate(90) translate(36 -43)" onmousedown="handlePan(1,0)">
                  <use xlink:href="#rim" fill="#404040">
                        <set attributeName="fill" to="#808080" begin="arrowRight.mouseover" end="arrowRight.mouseout"/>
                  </use>
                  <path fill="none" stroke="white" stroke-width="1.5" d="M0,-3.0v7 M-2.5,-0.5L0,-3.0L2.5,-0.5"/>
                </g>
                <g id="arrowDown" xlink:href="#dirArrow" transform="rotate(180) translate(-30 -48)" onmousedown="handlePan(0,1)">
                  <use xlink:href="#rim" fill="#404040">
                        <set attributeName="fill" to="#808080" begin="arrowDown.mouseover" end="arrowDown.mouseout"/>
                  </use>
                  <path fill="none" stroke="white" stroke-width="1.5" d="M0,-3.0v7 M-2.5,-0.5L0,-3.0L2.5,-0.5"/>
                </g>
                <g id="arrowLeft" xlink:href="#dirArrow" transform="rotate(270) translate(-36 17)" onmousedown="handlePan(-1,0)">
                  <use xlink:href="#rim" fill="#404040">
                        <set attributeName="fill" to="#808080" begin="arrowLeft.mouseover" end="arrowLeft.mouseout"/>
                  </use>
                  <path fill="none" stroke="white" stroke-width="1.5" d="M0,-3.0v7 M-2.5,-0.5L0,-3.0L2.5,-0.5"/>
                </g>
        </g>
        <svg viewBox="0 0 15 15" width="100%" height="30px" preserveAspectRatio="xMaxYMin meet">
         <g id="arrow_out" transform="scale(0.3 0.3)">
          <a xlink:href="namespacesll__m__arbitrary__degree__spline__interpolator__2d_a994776d04ed7b9ec4faa194f04da5eec_icgraph_org.svg" target="_base">
           <rect id="button" ry="5" rx="5" y="6" x="6" height="38" width="38"
                fill="#f2f5e9" fill-opacity="0.5" stroke="#606060" stroke-width="1.0"/>
           <path id="arrow"
             d="M 11.500037,31.436501 C 11.940474,20.09759 22.043105,11.32322 32.158766,21.979434 L 37.068811,17.246167 C 37.068811,17.246167 37.088388,32 37.088388,32 L 22.160133,31.978069 C 22.160133,31.978069 26.997745,27.140456 26.997745,27.140456 C 18.528582,18.264221 13.291696,25.230495 11.500037,31.436501 z"
             style="fill:#404040;"/>
          </a>
         </g>
        </svg>
</svg>
