<?xml version="1.0" encoding="UTF-8" standalone="no"?>
<!DOCTYPE svg PUBLIC "-//W3C//DTD SVG 1.1//EN"
 "http://www.w3.org/Graphics/SVG/1.1/DTD/svg11.dtd">
<!-- Generated by graphviz version 2.43.0 (0)
 -->
<!-- Title: sll_s_multiply_gt_clamped_1d Pages: 1 -->
<svg width="533pt" height="285pt"
 viewBox="0.00 0.00 533.00 285.00" xmlns="http://www.w3.org/2000/svg" xmlns:xlink="http://www.w3.org/1999/xlink">
<g id="graph0" class="graph" transform="scale(1 1) rotate(0) translate(4 281)">
<title>sll_s_multiply_gt_clamped_1d</title>
<polygon fill="white" stroke="transparent" points="-4,4 -4,-281 529,-281 529,4 -4,4"/>
<!-- Node1 -->
<g id="node1" class="node">
<title>Node1</title>
<g id="a_node1"><a xlink:title="Multiplication of the input vector in by the transposed clamped derivative matrix G^T.">
<polygon fill="#bfbfbf" stroke="black" points="361,-158.5 361,-177.5 525,-177.5 525,-158.5 361,-158.5"/>
<text text-anchor="middle" x="443" y="-165.5" font-family="Helvetica,sans-Serif" font-size="10.00">sll_s_multiply_gt_clamped_1d</text>
</a>
</g>
</g>
<!-- Node2 -->
<g id="node2" class="node">
<title>Node2</title>
<g id="a_node2"><a xlink:href="namespacesll__m__linear__operator__poisson__clamped__1d.html#a29a7daa8197e83b1974a90488639ad1c" target="_top" xlink:title=" ">
<polygon fill="white" stroke="black" points="185,-235.5 185,-276.5 325,-276.5 325,-235.5 185,-235.5"/>
<text text-anchor="start" x="193" y="-264.5" font-family="Helvetica,sans-Serif" font-size="10.00">sll_m_linear_operator</text>
<text text-anchor="start" x="193" y="-253.5" font-family="Helvetica,sans-Serif" font-size="10.00">_poisson_clamped_1d::</text>
<text text-anchor="middle" x="255" y="-242.5" font-family="Helvetica,sans-Serif" font-size="10.00">dot_poisson_clamped_1d</text>
</a>
</g>
</g>
<!-- Node1&#45;&gt;Node2 -->
<g id="edge1" class="edge">
<title>Node1&#45;&gt;Node2</title>
<path fill="none" stroke="midnightblue" d="M414.43,-182.15C390.84,-194.15 355.9,-211.64 325,-226 318.25,-229.14 311.08,-232.37 304.02,-235.49"/>
<polygon fill="midnightblue" stroke="midnightblue" points="416.18,-185.19 423.5,-177.53 413,-178.96 416.18,-185.19"/>
</g>
<!-- Node3 -->
<g id="node3" class="node">
<title>Node3</title>
<g id="a_node3"><a xlink:href="namespacesll__m__linear__operator__schur__eb__cl__1d.html#a785da40b164e9064091e65e77c068dec" target="_top" xlink:title=" ">
<polygon fill="white" stroke="black" points="194,-175.5 194,-216.5 316,-216.5 316,-175.5 194,-175.5"/>
<text text-anchor="start" x="202" y="-204.5" font-family="Helvetica,sans-Serif" font-size="10.00">sll_m_linear_operator</text>
<text text-anchor="start" x="202" y="-193.5" font-family="Helvetica,sans-Serif" font-size="10.00">_schur_eb_cl_1d::dot</text>
<text text-anchor="middle" x="255" y="-182.5" font-family="Helvetica,sans-Serif" font-size="10.00">_schur_eb_cl_1d</text>
</a>
</g>
</g>
<!-- Node1&#45;&gt;Node3 -->
<g id="edge2" class="edge">
<title>Node1&#45;&gt;Node3</title>
<path fill="none" stroke="midnightblue" d="M368.67,-179.04C351.29,-181.66 332.95,-184.42 316.23,-186.93"/>
<polygon fill="midnightblue" stroke="midnightblue" points="369.4,-182.47 378.77,-177.52 368.36,-175.55 369.4,-182.47"/>
</g>
<!-- Node4 -->
<g id="node4" class="node">
<title>Node4</title>
<g id="a_node4"><a xlink:href="namespacesll__m__maxwell__clamped__1d__fem__sm.html#a295adaa51397d56b8d34d4e8f95ef5fb" target="_top" xlink:title="Multiply by transpose of dicrete gradient matrix.">
<polygon fill="white" stroke="black" points="185,-126 185,-156 325,-156 325,-126 185,-126"/>
<text text-anchor="start" x="193" y="-144" font-family="Helvetica,sans-Serif" font-size="10.00">sll_m_maxwell_clamped</text>
<text text-anchor="middle" x="255" y="-133" font-family="Helvetica,sans-Serif" font-size="10.00">_1d_fem_sm::multiply_gt</text>
</a>
</g>
</g>
<!-- Node1&#45;&gt;Node4 -->
<g id="edge3" class="edge">
<title>Node1&#45;&gt;Node4</title>
<path fill="none" stroke="midnightblue" d="M366.15,-156.99C352.56,-155.02 338.47,-152.97 325.08,-151.03"/>
<polygon fill="midnightblue" stroke="midnightblue" points="366.02,-160.51 376.42,-158.48 367.03,-153.58 366.02,-160.51"/>
</g>
<!-- Node7 -->
<g id="node7" class="node">
<title>Node7</title>
<g id="a_node7"><a xlink:href="namespacesll__m__maxwell__clamped__1d__trafo.html#af80d8382e5e69b6521296cd7ea11e8d9" target="_top" xlink:title="Multiply by transpose of dicrete gradient matrix.">
<polygon fill="white" stroke="black" points="186.5,-66 186.5,-96 323.5,-96 323.5,-66 186.5,-66"/>
<text text-anchor="start" x="194.5" y="-84" font-family="Helvetica,sans-Serif" font-size="10.00">sll_m_maxwell_clamped</text>
<text text-anchor="middle" x="255" y="-73" font-family="Helvetica,sans-Serif" font-size="10.00">_1d_trafo::multiply_gt</text>
</a>
</g>
</g>
<!-- Node1&#45;&gt;Node7 -->
<g id="edge6" class="edge">
<title>Node1&#45;&gt;Node7</title>
<path fill="none" stroke="midnightblue" d="M411.99,-153.97C378.07,-138.1 323.04,-112.36 288.23,-96.07"/>
<polygon fill="midnightblue" stroke="midnightblue" points="410.84,-157.29 421.38,-158.36 413.81,-150.95 410.84,-157.29"/>
</g>
<!-- Node5 -->
<g id="node5" class="node">
<title>Node5</title>
<g id="a_node5"><a xlink:href="namespacesll__m__maxwell__clamped__1d__fem__sm.html#a9e1faa2161ee4c44036241b83a4b2ce2" target="_top" xlink:title="For model with adiabatic electrons.">
<polygon fill="white" stroke="black" points="0.5,-180.5 0.5,-221.5 148.5,-221.5 148.5,-180.5 0.5,-180.5"/>
<text text-anchor="start" x="8.5" y="-209.5" font-family="Helvetica,sans-Serif" font-size="10.00">sll_m_maxwell_clamped</text>
<text text-anchor="start" x="8.5" y="-198.5" font-family="Helvetica,sans-Serif" font-size="10.00">_1d_fem_sm::compute_phi</text>
<text text-anchor="middle" x="74.5" y="-187.5" font-family="Helvetica,sans-Serif" font-size="10.00">_from_j_1d_fem_sm</text>
</a>
</g>
</g>
<!-- Node4&#45;&gt;Node5 -->
<g id="edge4" class="edge">
<title>Node4&#45;&gt;Node5</title>
<path fill="none" stroke="midnightblue" d="M199.46,-159.33C179.63,-166 157.08,-173.58 136.71,-180.42"/>
<polygon fill="midnightblue" stroke="midnightblue" points="200.59,-162.64 208.96,-156.14 198.36,-156.01 200.59,-162.64"/>
</g>
<!-- Node6 -->
<g id="node6" class="node">
<title>Node6</title>
<g id="a_node6"><a xlink:href="namespacesll__m__maxwell__clamped__1d__fem__sm.html#a16cbd5837030c919150d86c19097f010" target="_top" xlink:title="Compute rho from Gauss law for given efield.">
<polygon fill="white" stroke="black" points="0,-120.5 0,-161.5 149,-161.5 149,-120.5 0,-120.5"/>
<text text-anchor="start" x="8" y="-149.5" font-family="Helvetica,sans-Serif" font-size="10.00">sll_m_maxwell_clamped</text>
<text text-anchor="start" x="8" y="-138.5" font-family="Helvetica,sans-Serif" font-size="10.00">_1d_fem_sm::compute_rho</text>
<text text-anchor="middle" x="74.5" y="-127.5" font-family="Helvetica,sans-Serif" font-size="10.00">_from_e_1d_fem_sm</text>
</a>
</g>
</g>
<!-- Node4&#45;&gt;Node6 -->
<g id="edge5" class="edge">
<title>Node4&#45;&gt;Node6</title>
<path fill="none" stroke="midnightblue" d="M174.96,-141C166.34,-141 157.6,-141 149.06,-141"/>
<polygon fill="midnightblue" stroke="midnightblue" points="174.99,-144.5 184.99,-141 174.99,-137.5 174.99,-144.5"/>
</g>
<!-- Node8 -->
<g id="node8" class="node">
<title>Node8</title>
<g id="a_node8"><a xlink:href="namespacesll__m__maxwell__clamped__1d__trafo.html#ac3d65f4752c853b5e2e06ca78dd4abe1" target="_top" xlink:title="For model with adiabatic electrons.">
<polygon fill="white" stroke="black" points="6,-60.5 6,-101.5 143,-101.5 143,-60.5 6,-60.5"/>
<text text-anchor="start" x="14" y="-89.5" font-family="Helvetica,sans-Serif" font-size="10.00">sll_m_maxwell_clamped</text>
<text text-anchor="start" x="14" y="-78.5" font-family="Helvetica,sans-Serif" font-size="10.00">_1d_trafo::compute_phi</text>
<text text-anchor="middle" x="74.5" y="-67.5" font-family="Helvetica,sans-Serif" font-size="10.00">_from_j_1d_trafo</text>
</a>
</g>
</g>
<!-- Node7&#45;&gt;Node8 -->
<g id="edge7" class="edge">
<title>Node7&#45;&gt;Node8</title>
<path fill="none" stroke="midnightblue" d="M176.24,-81C165.23,-81 153.99,-81 143.19,-81"/>
<polygon fill="midnightblue" stroke="midnightblue" points="176.26,-84.5 186.26,-81 176.26,-77.5 176.26,-84.5"/>
</g>
<!-- Node9 -->
<g id="node9" class="node">
<title>Node9</title>
<g id="a_node9"><a xlink:href="namespacesll__m__maxwell__clamped__1d__trafo.html#ad95f42db0b196af187241167195cd45a" target="_top" xlink:title="Compute rho from Gauss law for given efield.">
<polygon fill="white" stroke="black" points="6,-0.5 6,-41.5 143,-41.5 143,-0.5 6,-0.5"/>
<text text-anchor="start" x="14" y="-29.5" font-family="Helvetica,sans-Serif" font-size="10.00">sll_m_maxwell_clamped</text>
<text text-anchor="start" x="14" y="-18.5" font-family="Helvetica,sans-Serif" font-size="10.00">_1d_trafo::compute_rho</text>
<text text-anchor="middle" x="74.5" y="-7.5" font-family="Helvetica,sans-Serif" font-size="10.00">_from_e_1d_trafo</text>
</a>
</g>
</g>
<!-- Node7&#45;&gt;Node9 -->
<g id="edge8" class="edge">
<title>Node7&#45;&gt;Node9</title>
<path fill="none" stroke="midnightblue" d="M199.46,-62.67C179.63,-56 157.08,-48.42 136.71,-41.58"/>
<polygon fill="midnightblue" stroke="midnightblue" points="198.36,-65.99 208.96,-65.86 200.59,-59.36 198.36,-65.99"/>
</g>
</g>
</svg>
