<?xml version="1.0" encoding="UTF-8" standalone="no"?>
<!DOCTYPE svg PUBLIC "-//W3C//DTD SVG 1.1//EN"
 "http://www.w3.org/Graphics/SVG/1.1/DTD/svg11.dtd">
<!-- Generated by graphviz version 2.38.0 (20140413.2041)
 -->
<!-- Title: sll_s_splint_der Pages: 1 -->
<svg width="448pt" height="110pt"
 viewBox="0.00 0.00 448.00 110.00" xmlns="http://www.w3.org/2000/svg" xmlns:xlink="http://www.w3.org/1999/xlink">
<g id="graph0" class="graph" transform="scale(1 1) rotate(0) translate(4 106)">
<title>sll_s_splint_der</title>
<polygon fill="white" stroke="none" points="-4,4 -4,-106 444,-106 444,4 -4,4"/>
<!-- Node1 -->
<g id="node1" class="node"><title>Node1</title>
<polygon fill="#bfbfbf" stroke="black" points="0,-41.5 0,-60.5 84,-60.5 84,-41.5 0,-41.5"/>
<text text-anchor="middle" x="42" y="-48.5" font-family="Helvetica,sans-Serif" font-size="10.00">sll_s_splint_der</text>
</g>
<!-- Node2 -->
<g id="node2" class="node"><title>Node2</title>
<g id="a_node2"><a xlink:href="namespacesll__m__arbitrary__degree__spline__interpolator__1d.html#aced91e0600d4237678d1e908a6fce316" target="_top" xlink:title="computing the coefficients spline with a given data_array 1D cooresponding at the values of a functio...">
<polygon fill="white" stroke="black" points="120,-60.5 120,-101.5 262,-101.5 262,-60.5 120,-60.5"/>
<text text-anchor="start" x="128" y="-89.5" font-family="Helvetica,sans-Serif" font-size="10.00">sll_m_arbitrary_degree</text>
<text text-anchor="start" x="128" y="-78.5" font-family="Helvetica,sans-Serif" font-size="10.00">_spline_interpolator_1d</text>
<text text-anchor="middle" x="191" y="-67.5" font-family="Helvetica,sans-Serif" font-size="10.00">::compute_interpolants_ad1d</text>
</a>
</g>
</g>
<!-- Node1&#45;&gt;Node2 -->
<g id="edge1" class="edge"><title>Node1&#45;&gt;Node2</title>
<path fill="none" stroke="midnightblue" d="M94.1825,-61.4454C102.448,-63.1322 111.129,-64.9039 119.751,-66.6635"/>
<polygon fill="midnightblue" stroke="midnightblue" points="94.8368,-58.0069 84.3389,-59.4365 93.437,-64.8655 94.8368,-58.0069"/>
</g>
<!-- Node3 -->
<g id="node3" class="node"><title>Node3</title>
<g id="a_node3"><a xlink:href="namespacesll__m__arbitrary__degree__spline__interpolator__2d.html#a2669828a9f3df49eaa5f5a0098b10286" target="_top" xlink:title="sll_m_arbitrary_degree\l_spline_interpolator_2d\l::spli2d_custom_derder">
<polygon fill="white" stroke="black" points="132,-0.5 132,-41.5 250,-41.5 250,-0.5 132,-0.5"/>
<text text-anchor="start" x="140" y="-29.5" font-family="Helvetica,sans-Serif" font-size="10.00">sll_m_arbitrary_degree</text>
<text text-anchor="start" x="140" y="-18.5" font-family="Helvetica,sans-Serif" font-size="10.00">_spline_interpolator_2d</text>
<text text-anchor="middle" x="191" y="-7.5" font-family="Helvetica,sans-Serif" font-size="10.00">::spli2d_custom_derder</text>
</a>
</g>
</g>
<!-- Node1&#45;&gt;Node3 -->
<g id="edge2" class="edge"><title>Node1&#45;&gt;Node3</title>
<path fill="none" stroke="midnightblue" d="M94.3125,-40.5281C106.476,-38.0457 119.534,-35.3808 131.973,-32.8423"/>
<polygon fill="midnightblue" stroke="midnightblue" points="93.437,-37.1345 84.3389,-42.5635 94.8368,-43.9931 93.437,-37.1345"/>
</g>
<!-- Node4 -->
<g id="node4" class="node"><title>Node4</title>
<g id="a_node4"><a xlink:href="namespacesll__m__arbitrary__degree__spline__interpolator__2d.html#a182b98b934adfa66fa9cff5a7ea2c763" target="_top" xlink:title="computing the coefficients spline with a given data_array 2D cooresponding at the values of a functio...">
<polygon fill="white" stroke="black" points="298,-0.5 298,-41.5 440,-41.5 440,-0.5 298,-0.5"/>
<text text-anchor="start" x="306" y="-29.5" font-family="Helvetica,sans-Serif" font-size="10.00">sll_m_arbitrary_degree</text>
<text text-anchor="start" x="306" y="-18.5" font-family="Helvetica,sans-Serif" font-size="10.00">_spline_interpolator_2d</text>
<text text-anchor="middle" x="369" y="-7.5" font-family="Helvetica,sans-Serif" font-size="10.00">::compute_interpolants_ad2d</text>
</a>
</g>
</g>
<!-- Node3&#45;&gt;Node4 -->
<g id="edge3" class="edge"><title>Node3&#45;&gt;Node4</title>
<path fill="none" stroke="midnightblue" d="M260.276,-21C272.549,-21 285.361,-21 297.689,-21"/>
<polygon fill="midnightblue" stroke="midnightblue" points="260.117,-17.5001 250.117,-21 260.117,-24.5001 260.117,-17.5001"/>
</g>
</g>
</svg>
