<?xml version="1.0" encoding="UTF-8" standalone="no"?>
<!DOCTYPE svg PUBLIC "-//W3C//DTD SVG 1.1//EN"
 "http://www.w3.org/Graphics/SVG/1.1/DTD/svg11.dtd">
<!-- Generated by graphviz version 2.43.0 (0)
 -->
<!-- Title: sll_s_get_triangle_index Pages: 1 -->
<svg width="384pt" height="66pt"
 viewBox="0.00 0.00 384.00 66.00" xmlns="http://www.w3.org/2000/svg" xmlns:xlink="http://www.w3.org/1999/xlink">
<g id="graph0" class="graph" transform="scale(1 1) rotate(0) translate(4 62)">
<title>sll_s_get_triangle_index</title>
<polygon fill="white" stroke="transparent" points="-4,4 -4,-62 380,-62 380,4 -4,4"/>
<!-- Node1 -->
<g id="node1" class="node">
<title>Node1</title>
<g id="a_node1"><a xlink:title="Given a mesh point and the first cartesian coordinate of a point (that is not on the mesh) we return ...">
<polygon fill="#bfbfbf" stroke="black" points="0,-14 0,-44 102,-44 102,-14 0,-14"/>
<text text-anchor="start" x="8" y="-32" font-family="Helvetica,sans-Serif" font-size="10.00">sll_s_get_triangle</text>
<text text-anchor="middle" x="51" y="-21" font-family="Helvetica,sans-Serif" font-size="10.00">_index</text>
</a>
</g>
</g>
<!-- Node2 -->
<g id="node2" class="node">
<title>Node2</title>
<g id="a_node2"><a xlink:href="namespacesll__m__hexagonal__meshes.html#a4f66e0c718eda16377ca26d5c95b419f" target="_top" xlink:title="Transform hexagonal coordinates to global index.">
<polygon fill="white" stroke="black" points="138,-19.5 138,-38.5 223,-38.5 223,-19.5 138,-19.5"/>
<text text-anchor="middle" x="180.5" y="-26.5" font-family="Helvetica,sans-Serif" font-size="10.00">hex_to_global</text>
</a>
</g>
</g>
<!-- Node1&#45;&gt;Node2 -->
<g id="edge1" class="edge">
<title>Node1&#45;&gt;Node2</title>
<path fill="none" stroke="midnightblue" d="M102.03,-29C110.46,-29 119.23,-29 127.7,-29"/>
<polygon fill="midnightblue" stroke="midnightblue" points="127.85,-32.5 137.85,-29 127.85,-25.5 127.85,-32.5"/>
</g>
<!-- Node3 -->
<g id="node3" class="node">
<title>Node3</title>
<g id="a_node3"><a xlink:href="namespacesll__m__hexagonal__meshes.html#a47f7a419f8f8904d408ad3a630612ee4" target="_top" xlink:title="Finds the index in the global array of the point which coordinates where passed as parameter.">
<polygon fill="white" stroke="black" points="259,-38.5 259,-57.5 376,-57.5 376,-38.5 259,-38.5"/>
<text text-anchor="middle" x="317.5" y="-45.5" font-family="Helvetica,sans-Serif" font-size="10.00">index_hex_to_global</text>
</a>
</g>
</g>
<!-- Node2&#45;&gt;Node3 -->
<g id="edge2" class="edge">
<title>Node2&#45;&gt;Node3</title>
<path fill="none" stroke="midnightblue" d="M223.11,-34.86C231.32,-36.01 240.15,-37.25 248.97,-38.5"/>
<polygon fill="midnightblue" stroke="midnightblue" points="248.51,-41.97 258.9,-39.89 249.48,-35.03 248.51,-41.97"/>
</g>
<!-- Node4 -->
<g id="node4" class="node">
<title>Node4</title>
<g id="a_node4"><a xlink:href="namespacesll__m__hexagonal__meshes.html#a8bed234b81efa9e2e353c3f594c104e3" target="_top" xlink:title="Computes the number of cell from point to origin.">
<polygon fill="white" stroke="black" points="261,-0.5 261,-19.5 374,-19.5 374,-0.5 261,-0.5"/>
<text text-anchor="middle" x="317.5" y="-7.5" font-family="Helvetica,sans-Serif" font-size="10.00">sll_f_cells_to_origin</text>
</a>
</g>
</g>
<!-- Node2&#45;&gt;Node4 -->
<g id="edge3" class="edge">
<title>Node2&#45;&gt;Node4</title>
<path fill="none" stroke="midnightblue" d="M223.11,-23.14C231.87,-21.91 241.32,-20.58 250.72,-19.26"/>
<polygon fill="midnightblue" stroke="midnightblue" points="251.46,-22.69 260.87,-17.83 250.48,-15.76 251.46,-22.69"/>
</g>
</g>
</svg>
