<?xml version="1.0" encoding="UTF-8" standalone="no"?>
<!DOCTYPE svg PUBLIC "-//W3C//DTD SVG 1.1//EN"
 "http://www.w3.org/Graphics/SVG/1.1/DTD/svg11.dtd">
<!-- Generated by graphviz version 2.38.0 (20140413.2041)
 -->
<!-- Title: sll_s_fft_init_c2c_1d Pages: 1 -->
<svg width="484pt" height="219pt"
 viewBox="0.00 0.00 484.00 218.50" xmlns="http://www.w3.org/2000/svg" xmlns:xlink="http://www.w3.org/1999/xlink">
<g id="graph0" class="graph" transform="scale(1 1) rotate(0) translate(4 214.5)">
<title>sll_s_fft_init_c2c_1d</title>
<polygon fill="white" stroke="none" points="-4,4 -4,-214.5 480,-214.5 480,4 -4,4"/>
<!-- Node1 -->
<g id="node1" class="node"><title>Node1</title>
<polygon fill="#bfbfbf" stroke="black" points="0,-101.5 0,-120.5 106,-120.5 106,-101.5 0,-101.5"/>
<text text-anchor="middle" x="53" y="-108.5" font-family="Helvetica,sans-Serif" font-size="10.00">sll_s_fft_init_c2c_1d</text>
</g>
<!-- Node2 -->
<g id="node2" class="node"><title>Node2</title>
<g id="a_node2"><a xlink:href="namespacesll__m__sparse__grid__interpolator.html#aba310a580506ebd76f00591da61f21f6" target="_top" xlink:title="sll_m_sparse_grid_interpolator\l::fft_initialize">
<polygon fill="white" stroke="black" points="142,-180 142,-210 291,-210 291,-180 142,-180"/>
<text text-anchor="start" x="150" y="-198" font-family="Helvetica,sans-Serif" font-size="10.00">sll_m_sparse_grid_interpolator</text>
<text text-anchor="middle" x="216.5" y="-187" font-family="Helvetica,sans-Serif" font-size="10.00">::fft_initialize</text>
</a>
</g>
</g>
<!-- Node1&#45;&gt;Node2 -->
<g id="edge1" class="edge"><title>Node1&#45;&gt;Node2</title>
<path fill="none" stroke="midnightblue" d="M74.009,-127.08C91.2188,-140.296 117.131,-158.771 142,-171 148.625,-174.258 155.796,-177.224 162.973,-179.873"/>
<polygon fill="midnightblue" stroke="midnightblue" points="75.8893,-124.107 65.8542,-120.709 71.5798,-129.623 75.8893,-124.107"/>
</g>
<!-- Node4 -->
<g id="node4" class="node"><title>Node4</title>
<g id="a_node4"><a xlink:href="namespacesll__m__poisson__2d__periodic__par.html#ad41fe715bd84e1d002bbb219f4d68b46" target="_top" xlink:title="Presently, this function receives the geometric information as individual arguments. We should consider passing the &#39;simple geometry&#39; object that we have for the cartesian cases. ">
<polygon fill="white" stroke="black" points="149.5,-120.5 149.5,-161.5 283.5,-161.5 283.5,-120.5 149.5,-120.5"/>
<text text-anchor="start" x="157.5" y="-149.5" font-family="Helvetica,sans-Serif" font-size="10.00">sll_m_poisson_2d_periodic</text>
<text text-anchor="start" x="157.5" y="-138.5" font-family="Helvetica,sans-Serif" font-size="10.00">_par::sll_s_poisson_2d</text>
<text text-anchor="middle" x="216.5" y="-127.5" font-family="Helvetica,sans-Serif" font-size="10.00">_periodic_par_init</text>
</a>
</g>
</g>
<!-- Node1&#45;&gt;Node4 -->
<g id="edge3" class="edge"><title>Node1&#45;&gt;Node4</title>
<path fill="none" stroke="midnightblue" d="M115.54,-122.432C126.61,-124.488 138.19,-126.639 149.383,-128.718"/>
<polygon fill="midnightblue" stroke="midnightblue" points="116.015,-118.96 105.544,-120.575 114.736,-125.842 116.015,-118.96"/>
</g>
<!-- Node5 -->
<g id="node5" class="node"><title>Node5</title>
<g id="a_node5"><a xlink:href="namespacesll__m__poisson__2d__periodic__par.html#aee4e39c0cd0cf732b793a92c368019bb" target="_top" xlink:title="Presently, this function receives the geometric information as individual arguments. We should consider passing the &#39;simple geometry&#39; object that we have for the cartesian cases. The &#39;alt&#39; version does not consider the last point in the problem, the arrays involved and the layout that represents them should also not include this last point. ">
<polygon fill="white" stroke="black" points="149.5,-60.5 149.5,-101.5 283.5,-101.5 283.5,-60.5 149.5,-60.5"/>
<text text-anchor="start" x="157.5" y="-89.5" font-family="Helvetica,sans-Serif" font-size="10.00">sll_m_poisson_2d_periodic</text>
<text text-anchor="start" x="157.5" y="-78.5" font-family="Helvetica,sans-Serif" font-size="10.00">_par::sll_s_poisson_2d</text>
<text text-anchor="middle" x="216.5" y="-67.5" font-family="Helvetica,sans-Serif" font-size="10.00">_periodic_par_init_alt</text>
</a>
</g>
</g>
<!-- Node1&#45;&gt;Node5 -->
<g id="edge4" class="edge"><title>Node1&#45;&gt;Node5</title>
<path fill="none" stroke="midnightblue" d="M115.54,-99.5684C126.61,-97.5122 138.19,-95.3609 149.383,-93.2818"/>
<polygon fill="midnightblue" stroke="midnightblue" points="114.736,-96.1578 105.544,-101.425 116.015,-103.04 114.736,-96.1578"/>
</g>
<!-- Node6 -->
<g id="node6" class="node"><title>Node6</title>
<g id="a_node6"><a xlink:href="namespacesll__m__poisson__3d__periodic__par.html#a709ec42fd1d3c83d3c036b4be76eadab" target="_top" xlink:title="Allocate the structure for the 3d parallel Poisson solver. ">
<polygon fill="white" stroke="black" points="149.5,-0.5 149.5,-41.5 283.5,-41.5 283.5,-0.5 149.5,-0.5"/>
<text text-anchor="start" x="157.5" y="-29.5" font-family="Helvetica,sans-Serif" font-size="10.00">sll_m_poisson_3d_periodic</text>
<text text-anchor="start" x="157.5" y="-18.5" font-family="Helvetica,sans-Serif" font-size="10.00">_par::sll_s_poisson_3d</text>
<text text-anchor="middle" x="216.5" y="-7.5" font-family="Helvetica,sans-Serif" font-size="10.00">_periodic_par_init</text>
</a>
</g>
</g>
<!-- Node1&#45;&gt;Node6 -->
<g id="edge5" class="edge"><title>Node1&#45;&gt;Node6</title>
<path fill="none" stroke="midnightblue" d="M74.5405,-95.1562C91.8919,-82.2309 117.725,-64.0407 142,-51 148.192,-47.6735 154.834,-44.4818 161.501,-41.5032"/>
<polygon fill="midnightblue" stroke="midnightblue" points="72.1669,-92.5626 66.2932,-101.38 76.3837,-98.15 72.1669,-92.5626"/>
</g>
<!-- Node3 -->
<g id="node3" class="node"><title>Node3</title>
<g id="a_node3"><a xlink:href="namespacesll__m__sparse__grid__interpolator.html#a3fb5a2dabbb9b367be8955e16118eebc" target="_top" xlink:title="sll_m_sparse_grid_interpolator\l::initialize_sg">
<polygon fill="white" stroke="black" points="327,-180 327,-210 476,-210 476,-180 327,-180"/>
<text text-anchor="start" x="335" y="-198" font-family="Helvetica,sans-Serif" font-size="10.00">sll_m_sparse_grid_interpolator</text>
<text text-anchor="middle" x="401.5" y="-187" font-family="Helvetica,sans-Serif" font-size="10.00">::initialize_sg</text>
</a>
</g>
</g>
<!-- Node2&#45;&gt;Node3 -->
<g id="edge2" class="edge"><title>Node2&#45;&gt;Node3</title>
<path fill="none" stroke="midnightblue" d="M301.387,-195C309.838,-195 318.376,-195 326.711,-195"/>
<polygon fill="midnightblue" stroke="midnightblue" points="301.142,-191.5 291.142,-195 301.142,-198.5 301.142,-191.5"/>
</g>
</g>
</svg>
