<?xml version="1.0" encoding="UTF-8" standalone="no"?>
<!DOCTYPE svg PUBLIC "-//W3C//DTD SVG 1.1//EN"
 "http://www.w3.org/Graphics/SVG/1.1/DTD/svg11.dtd">
<!-- Generated by graphviz version 2.43.0 (0)
 -->
<!-- Title: lagrange_poly_opt Pages: 1 -->
<svg width="320pt" height="209pt"
 viewBox="0.00 0.00 320.00 208.50" xmlns="http://www.w3.org/2000/svg" xmlns:xlink="http://www.w3.org/1999/xlink">
<g id="graph0" class="graph" transform="scale(1 1) rotate(0) translate(4 204.5)">
<title>lagrange_poly_opt</title>
<polygon fill="white" stroke="transparent" points="-4,4 -4,-204.5 316,-204.5 316,4 -4,4"/>
<!-- Node1 -->
<g id="node1" class="node">
<title>Node1</title>
<g id="a_node1"><a xlink:title="Evaluate Lagrange polynomial, optimized version.">
<polygon fill="#bfbfbf" stroke="black" points="205,-98.5 205,-117.5 312,-117.5 312,-98.5 205,-98.5"/>
<text text-anchor="middle" x="258.5" y="-105.5" font-family="Helvetica,sans-Serif" font-size="10.00">lagrange_poly_opt</text>
</a>
</g>
</g>
<!-- Node2 -->
<g id="node2" class="node">
<title>Node2</title>
<g id="a_node2"><a xlink:href="namespacesll__m__dg__interpolator__1d.html#a4baa34e5b08c224f23662a276a8508f7" target="_top" xlink:title=" ">
<polygon fill="white" stroke="black" points="25.5,-170 25.5,-200 143.5,-200 143.5,-170 25.5,-170"/>
<text text-anchor="start" x="33.5" y="-188" font-family="Helvetica,sans-Serif" font-size="10.00">sll_s_dg_interpolator</text>
<text text-anchor="middle" x="84.5" y="-177" font-family="Helvetica,sans-Serif" font-size="10.00">_1d_dg_to_equi_cell</text>
</a>
</g>
</g>
<!-- Node1&#45;&gt;Node2 -->
<g id="edge1" class="edge">
<title>Node1&#45;&gt;Node2</title>
<path fill="none" stroke="midnightblue" d="M235.67,-123.27C218.26,-134.89 192.92,-150.61 169,-161 160.98,-164.49 152.3,-167.62 143.68,-170.39"/>
<polygon fill="midnightblue" stroke="midnightblue" points="237.69,-126.13 244,-117.61 233.76,-120.34 237.69,-126.13"/>
</g>
<!-- Node3 -->
<g id="node3" class="node">
<title>Node3</title>
<g id="a_node3"><a xlink:href="namespacesll__m__dg__interpolator__1d.html#a33a48ed8bf593db6f25ce472f80b4993" target="_top" xlink:title=" ">
<polygon fill="white" stroke="black" points="0,-121 0,-151 169,-151 169,-121 0,-121"/>
<text text-anchor="start" x="8" y="-139" font-family="Helvetica,sans-Serif" font-size="10.00">sll_s_dg_interpolator</text>
<text text-anchor="middle" x="84.5" y="-128" font-family="Helvetica,sans-Serif" font-size="10.00">_1d_dg_to_equi_cell_staggered</text>
</a>
</g>
</g>
<!-- Node1&#45;&gt;Node3 -->
<g id="edge2" class="edge">
<title>Node1&#45;&gt;Node3</title>
<path fill="none" stroke="midnightblue" d="M194.9,-118.19C186.5,-119.56 177.78,-120.98 169.09,-122.39"/>
<polygon fill="midnightblue" stroke="midnightblue" points="195.65,-121.61 204.96,-116.55 194.53,-114.71 195.65,-121.61"/>
</g>
<!-- Node4 -->
<g id="node4" class="node">
<title>Node4</title>
<g id="a_node4"><a xlink:href="namespacesll__m__dg__interpolator__1d.html#a2bb3436077a6dfccfff328728175ad54" target="_top" xlink:title="Interpolation routine with halo cells.">
<polygon fill="white" stroke="black" points="23,-60.5 23,-101.5 146,-101.5 146,-60.5 23,-60.5"/>
<text text-anchor="start" x="31" y="-89.5" font-family="Helvetica,sans-Serif" font-size="10.00">sll_s_dg_interpolator</text>
<text text-anchor="start" x="31" y="-78.5" font-family="Helvetica,sans-Serif" font-size="10.00">_1d_interpolate_array</text>
<text text-anchor="middle" x="84.5" y="-67.5" font-family="Helvetica,sans-Serif" font-size="10.00">_disp_halo</text>
</a>
</g>
</g>
<!-- Node1&#45;&gt;Node4 -->
<g id="edge3" class="edge">
<title>Node1&#45;&gt;Node4</title>
<path fill="none" stroke="midnightblue" d="M194.73,-98.15C178.89,-95.66 161.9,-92.99 146.16,-90.52"/>
<polygon fill="midnightblue" stroke="midnightblue" points="194.54,-101.66 204.96,-99.75 195.62,-94.74 194.54,-101.66"/>
</g>
<!-- Node5 -->
<g id="node5" class="node">
<title>Node5</title>
<g id="a_node5"><a xlink:href="namespacesll__m__dg__interpolator__1d.html#a403e74593bbca07739abe643989243a3" target="_top" xlink:title=" ">
<polygon fill="white" stroke="black" points="23,-0.5 23,-41.5 146,-41.5 146,-0.5 23,-0.5"/>
<text text-anchor="start" x="31" y="-29.5" font-family="Helvetica,sans-Serif" font-size="10.00">sll_s_dg_interpolator</text>
<text text-anchor="start" x="31" y="-18.5" font-family="Helvetica,sans-Serif" font-size="10.00">_1d_interpolate_array</text>
<text text-anchor="middle" x="84.5" y="-7.5" font-family="Helvetica,sans-Serif" font-size="10.00">_disp_periodic</text>
</a>
</g>
</g>
<!-- Node1&#45;&gt;Node5 -->
<g id="edge4" class="edge">
<title>Node1&#45;&gt;Node5</title>
<path fill="none" stroke="midnightblue" d="M236.25,-92.35C218.81,-80 193.14,-62.92 169,-51 161.82,-47.45 154.11,-44.11 146.38,-41.03"/>
<polygon fill="midnightblue" stroke="midnightblue" points="234.4,-95.33 244.56,-98.32 238.48,-89.65 234.4,-95.33"/>
</g>
</g>
</svg>
