<?xml version="1.0" encoding="UTF-8" standalone="no"?>
<!DOCTYPE svg PUBLIC "-//W3C//DTD SVG 1.1//EN"
 "http://www.w3.org/Graphics/SVG/1.1/DTD/svg11.dtd">
<!-- Generated by graphviz version 2.38.0 (20140413.2041)
 -->
<!-- Title: sll_s_setup_cyclic_tridiag Pages: 1 -->
<svg width="1108pt" height="290pt"
 viewBox="0.00 0.00 1108.00 289.50" xmlns="http://www.w3.org/2000/svg" xmlns:xlink="http://www.w3.org/1999/xlink">
<g id="graph0" class="graph" transform="scale(1 1) rotate(0) translate(4 285.5)">
<title>sll_s_setup_cyclic_tridiag</title>
<polygon fill="white" stroke="none" points="-4,4 -4,-285.5 1104,-285.5 1104,4 -4,4"/>
<!-- Node1 -->
<g id="node1" class="node"><title>Node1</title>
<polygon fill="#bfbfbf" stroke="black" points="0,-162 0,-192 97,-192 97,-162 0,-162"/>
<text text-anchor="start" x="8" y="-180" font-family="Helvetica,sans-Serif" font-size="10.00">sll_s_setup_cyclic</text>
<text text-anchor="middle" x="48.5" y="-169" font-family="Helvetica,sans-Serif" font-size="10.00">_tridiag</text>
</g>
<!-- Node2 -->
<g id="node2" class="node"><title>Node2</title>
<g id="a_node2"><a xlink:href="namespacesll__m__cubic__non__uniform__splines.html#aefb9225983b59769f7adbf24dbdb47ff" target="_top" xlink:title="PLEASE ADD DOCUMENTATION. ">
<polygon fill="white" stroke="black" points="133,-216.5 133,-257.5 293,-257.5 293,-216.5 133,-216.5"/>
<text text-anchor="start" x="141" y="-245.5" font-family="Helvetica,sans-Serif" font-size="10.00">sll_m_cubic_non_uniform</text>
<text text-anchor="start" x="141" y="-234.5" font-family="Helvetica,sans-Serif" font-size="10.00">_splines::sll_s_setup</text>
<text text-anchor="middle" x="213" y="-223.5" font-family="Helvetica,sans-Serif" font-size="10.00">_spline_nonunif_1d_periodic_aux</text>
</a>
</g>
</g>
<!-- Node1&#45;&gt;Node2 -->
<g id="edge1" class="edge"><title>Node1&#45;&gt;Node2</title>
<path fill="none" stroke="midnightblue" d="M100.139,-195.697C117.953,-202.275 138.066,-209.701 156.276,-216.425"/>
<polygon fill="midnightblue" stroke="midnightblue" points="101.099,-192.321 90.5056,-192.141 98.6743,-198.888 101.099,-192.321"/>
</g>
<!-- Node6 -->
<g id="node6" class="node"><title>Node6</title>
<g id="a_node6"><a xlink:href="namespacesll__m__cubic__non__uniform__splines.html#a337ef4f96d615272c1fba3d8ae50a003" target="_top" xlink:title="sll_m_cubic_non_uniform\l_splines::setup_spline\l_nonunif_1d_hermite_aux">
<polygon fill="white" stroke="black" points="149,-156.5 149,-197.5 277,-197.5 277,-156.5 149,-156.5"/>
<text text-anchor="start" x="157" y="-185.5" font-family="Helvetica,sans-Serif" font-size="10.00">sll_m_cubic_non_uniform</text>
<text text-anchor="start" x="157" y="-174.5" font-family="Helvetica,sans-Serif" font-size="10.00">_splines::setup_spline</text>
<text text-anchor="middle" x="213" y="-163.5" font-family="Helvetica,sans-Serif" font-size="10.00">_nonunif_1d_hermite_aux</text>
</a>
</g>
</g>
<!-- Node1&#45;&gt;Node6 -->
<g id="edge5" class="edge"><title>Node1&#45;&gt;Node6</title>
<path fill="none" stroke="midnightblue" d="M107.424,-177C120.834,-177 135.171,-177 148.795,-177"/>
<polygon fill="midnightblue" stroke="midnightblue" points="107.376,-173.5 97.3765,-177 107.376,-180.5 107.376,-173.5"/>
</g>
<!-- Node7 -->
<g id="node7" class="node"><title>Node7</title>
<g id="a_node7"><a xlink:href="namespacesll__m__cubic__splines.html#a987fec37aa6a4bc8e01a954be0a3f922" target="_top" xlink:title="Returns a pointer to a heap&#45;allocated cubic spline object. ">
<polygon fill="white" stroke="black" points="161,-72.5 161,-113.5 265,-113.5 265,-72.5 161,-72.5"/>
<text text-anchor="start" x="169" y="-101.5" font-family="Helvetica,sans-Serif" font-size="10.00">sll_m_cubic_splines</text>
<text text-anchor="start" x="169" y="-90.5" font-family="Helvetica,sans-Serif" font-size="10.00">::sll_s_cubic_spline</text>
<text text-anchor="middle" x="213" y="-79.5" font-family="Helvetica,sans-Serif" font-size="10.00">_1d_init</text>
</a>
</g>
</g>
<!-- Node1&#45;&gt;Node7 -->
<g id="edge7" class="edge"><title>Node1&#45;&gt;Node7</title>
<path fill="none" stroke="midnightblue" d="M87.5375,-157.338C112.985,-144.183 146.409,-126.905 172.212,-113.567"/>
<polygon fill="midnightblue" stroke="midnightblue" points="85.8279,-154.281 78.5517,-161.982 89.0423,-160.5 85.8279,-154.281"/>
</g>
<!-- Node3 -->
<g id="node3" class="node"><title>Node3</title>
<g id="a_node3"><a xlink:href="namespacesll__m__advection__1d__non__uniform__cubic__splines.html#a3764758795ef56e4229ab7dca94b1ef6" target="_top" xlink:title="sll_m_advection_1d\l_non_uniform_cubic_splines\l::initialize_sll_t_advector\l_1d_non_uniform_cubic_splines">
<polygon fill="white" stroke="black" points="329,-229 329,-281 484,-281 484,-229 329,-229"/>
<text text-anchor="start" x="337" y="-269" font-family="Helvetica,sans-Serif" font-size="10.00">sll_m_advection_1d</text>
<text text-anchor="start" x="337" y="-258" font-family="Helvetica,sans-Serif" font-size="10.00">_non_uniform_cubic_splines</text>
<text text-anchor="start" x="337" y="-247" font-family="Helvetica,sans-Serif" font-size="10.00">::initialize_sll_t_advector</text>
<text text-anchor="middle" x="406.5" y="-236" font-family="Helvetica,sans-Serif" font-size="10.00">_1d_non_uniform_cubic_splines</text>
</a>
</g>
</g>
<!-- Node2&#45;&gt;Node3 -->
<g id="edge2" class="edge"><title>Node2&#45;&gt;Node3</title>
<path fill="none" stroke="midnightblue" d="M303.234,-245.388C311.761,-246.189 320.358,-246.997 328.751,-247.786"/>
<polygon fill="midnightblue" stroke="midnightblue" points="303.556,-241.902 293.273,-244.451 302.901,-248.872 303.556,-241.902"/>
</g>
<!-- Node5 -->
<g id="node5" class="node"><title>Node5</title>
<g id="a_node5"><a xlink:href="namespacesll__m__cubic__non__uniform__splines.html#a0ca31c6377a98e37ce755d8bdd55517e" target="_top" xlink:title="compute splines coefficients ">
<polygon fill="white" stroke="black" points="343,-168.5 343,-209.5 470,-209.5 470,-168.5 343,-168.5"/>
<text text-anchor="start" x="351" y="-197.5" font-family="Helvetica,sans-Serif" font-size="10.00">sll_m_cubic_non_uniform</text>
<text text-anchor="start" x="351" y="-186.5" font-family="Helvetica,sans-Serif" font-size="10.00">_splines::sll_s_compute</text>
<text text-anchor="middle" x="406.5" y="-175.5" font-family="Helvetica,sans-Serif" font-size="10.00">_spline_nonunif</text>
</a>
</g>
</g>
<!-- Node2&#45;&gt;Node5 -->
<g id="edge4" class="edge"><title>Node2&#45;&gt;Node5</title>
<path fill="none" stroke="midnightblue" d="M303.042,-214.681C316.522,-211.302 330.181,-207.879 342.942,-204.68"/>
<polygon fill="midnightblue" stroke="midnightblue" points="302.122,-211.304 293.273,-217.13 303.824,-218.094 302.122,-211.304"/>
</g>
<!-- Node4 -->
<g id="node4" class="node"><title>Node4</title>
<g id="a_node4"><a xlink:href="namespacesll__m__advection__1d__non__uniform__cubic__splines.html#acc49f9cb45ee80ca8099bf0d34200efd" target="_top" xlink:title="sll_m_advection_1d\l_non_uniform_cubic_splines\l::sll_f_new_advector_1d\l_non_uniform_cubic_splines">
<polygon fill="white" stroke="black" points="538,-229 538,-281 678,-281 678,-229 538,-229"/>
<text text-anchor="start" x="546" y="-269" font-family="Helvetica,sans-Serif" font-size="10.00">sll_m_advection_1d</text>
<text text-anchor="start" x="546" y="-258" font-family="Helvetica,sans-Serif" font-size="10.00">_non_uniform_cubic_splines</text>
<text text-anchor="start" x="546" y="-247" font-family="Helvetica,sans-Serif" font-size="10.00">::sll_f_new_advector_1d</text>
<text text-anchor="middle" x="608" y="-236" font-family="Helvetica,sans-Serif" font-size="10.00">_non_uniform_cubic_splines</text>
</a>
</g>
</g>
<!-- Node3&#45;&gt;Node4 -->
<g id="edge3" class="edge"><title>Node3&#45;&gt;Node4</title>
<path fill="none" stroke="midnightblue" d="M494.105,-255C508.725,-255 523.728,-255 537.828,-255"/>
<polygon fill="midnightblue" stroke="midnightblue" points="494.061,-251.5 484.061,-255 494.061,-258.5 494.061,-251.5"/>
</g>
<!-- Node6&#45;&gt;Node5 -->
<g id="edge6" class="edge"><title>Node6&#45;&gt;Node5</title>
<path fill="none" stroke="midnightblue" d="M287.299,-181.593C305.665,-182.744 325.198,-183.968 342.984,-185.083"/>
<polygon fill="midnightblue" stroke="midnightblue" points="287.434,-178.095 277.235,-180.963 286.996,-185.081 287.434,-178.095"/>
</g>
<!-- Node8 -->
<g id="node8" class="node"><title>Node8</title>
<g id="a_node8"><a xlink:href="namespacesll__m__fdistribu4d__dk.html#ad019b52770477f636c8115bc5ad20475" target="_top" xlink:title="sll_m_fdistribu4d_dk\l::function_xy_from_r">
<polygon fill="white" stroke="black" points="353.5,-120 353.5,-150 459.5,-150 459.5,-120 353.5,-120"/>
<text text-anchor="start" x="361.5" y="-138" font-family="Helvetica,sans-Serif" font-size="10.00">sll_m_fdistribu4d_dk</text>
<text text-anchor="middle" x="406.5" y="-127" font-family="Helvetica,sans-Serif" font-size="10.00">::function_xy_from_r</text>
</a>
</g>
</g>
<!-- Node7&#45;&gt;Node8 -->
<g id="edge8" class="edge"><title>Node7&#45;&gt;Node8</title>
<path fill="none" stroke="midnightblue" d="M274.886,-106.354C300.088,-111.881 329.022,-118.227 353.242,-123.539"/>
<polygon fill="midnightblue" stroke="midnightblue" points="275.585,-102.924 265.067,-104.2 274.085,-109.761 275.585,-102.924"/>
</g>
<!-- Node9 -->
<g id="node9" class="node"><title>Node9</title>
<g id="a_node9"><a xlink:href="namespacesll__m__cubic__spline__interpolator__1d.html#ab4aeb5dca8bc5be6fb404ac5e1ae7365" target="_top" xlink:title="initialize cubic spline interpolator ">
<polygon fill="white" stroke="black" points="343,-60.5 343,-101.5 470,-101.5 470,-60.5 343,-60.5"/>
<text text-anchor="start" x="351" y="-89.5" font-family="Helvetica,sans-Serif" font-size="10.00">sll_m_cubic_spline</text>
<text text-anchor="start" x="351" y="-78.5" font-family="Helvetica,sans-Serif" font-size="10.00">_interpolator_1d::initialize</text>
<text text-anchor="middle" x="406.5" y="-67.5" font-family="Helvetica,sans-Serif" font-size="10.00">_cs1d_interpolator</text>
</a>
</g>
</g>
<!-- Node7&#45;&gt;Node9 -->
<g id="edge9" class="edge"><title>Node7&#45;&gt;Node9</title>
<path fill="none" stroke="midnightblue" d="M275.131,-89.1693C296.791,-87.8121 321.182,-86.2837 342.957,-84.9191"/>
<polygon fill="midnightblue" stroke="midnightblue" points="274.828,-85.6813 265.067,-89.8 275.266,-92.6676 274.828,-85.6813"/>
</g>
<!-- Node13 -->
<g id="node13" class="node"><title>Node13</title>
<g id="a_node13"><a xlink:href="namespacesll__m__cubic__spline__interpolator__1d__nonuniform.html#a949072be71d85ad42efeb69878a0fc14" target="_top" xlink:title="initialize cubic spline interpolator ">
<polygon fill="white" stroke="black" points="335,-0.5 335,-41.5 478,-41.5 478,-0.5 335,-0.5"/>
<text text-anchor="start" x="343" y="-29.5" font-family="Helvetica,sans-Serif" font-size="10.00">sll_m_cubic_spline</text>
<text text-anchor="start" x="343" y="-18.5" font-family="Helvetica,sans-Serif" font-size="10.00">_interpolator_1d_nonuniform</text>
<text text-anchor="middle" x="406.5" y="-7.5" font-family="Helvetica,sans-Serif" font-size="10.00">::initialize_cs1d_interpolator2</text>
</a>
</g>
</g>
<!-- Node7&#45;&gt;Node13 -->
<g id="edge13" class="edge"><title>Node7&#45;&gt;Node13</title>
<path fill="none" stroke="midnightblue" d="M274.601,-70.2154C299.058,-61.0199 327.068,-50.4887 350.886,-41.5339"/>
<polygon fill="midnightblue" stroke="midnightblue" points="273.195,-67.0045 265.067,-73.7999 275.659,-73.5567 273.195,-67.0045"/>
</g>
<!-- Node10 -->
<g id="node10" class="node"><title>Node10</title>
<g id="a_node10"><a xlink:href="namespacesll__m__cubic__spline__interpolator__1d.html#ad719154e2d5d34641021bab462fbe00f" target="_top" xlink:title="PLEASE ADD DOCUMENTATION. ">
<polygon fill="white" stroke="black" points="520,-60.5 520,-101.5 696,-101.5 696,-60.5 520,-60.5"/>
<text text-anchor="start" x="528" y="-89.5" font-family="Helvetica,sans-Serif" font-size="10.00">sll_m_cubic_spline</text>
<text text-anchor="start" x="528" y="-78.5" font-family="Helvetica,sans-Serif" font-size="10.00">_interpolator_1d::sll</text>
<text text-anchor="middle" x="608" y="-67.5" font-family="Helvetica,sans-Serif" font-size="10.00">_f_new_cubic_spline_interpolator_1d</text>
</a>
</g>
</g>
<!-- Node9&#45;&gt;Node10 -->
<g id="edge10" class="edge"><title>Node9&#45;&gt;Node10</title>
<path fill="none" stroke="midnightblue" d="M480.23,-81C493.087,-81 506.591,-81 519.798,-81"/>
<polygon fill="midnightblue" stroke="midnightblue" points="480.076,-77.5001 470.076,-81 480.076,-84.5001 480.076,-77.5001"/>
</g>
<!-- Node11 -->
<g id="node11" class="node"><title>Node11</title>
<g id="a_node11"><a xlink:href="namespacesll__m__poisson__2d__mudpack__curvilinear.html#aafe1b9a1d79ddc7a217d3a14a73c418d" target="_top" xlink:title="sll_m_poisson_2d_mudpack\l_curvilinear::initialize\l_poisson_2d_mudpack_curvilinear">
<polygon fill="white" stroke="black" points="732,-60.5 732,-101.5 898,-101.5 898,-60.5 732,-60.5"/>
<text text-anchor="start" x="740" y="-89.5" font-family="Helvetica,sans-Serif" font-size="10.00">sll_m_poisson_2d_mudpack</text>
<text text-anchor="start" x="740" y="-78.5" font-family="Helvetica,sans-Serif" font-size="10.00">_curvilinear::initialize</text>
<text text-anchor="middle" x="815" y="-67.5" font-family="Helvetica,sans-Serif" font-size="10.00">_poisson_2d_mudpack_curvilinear</text>
</a>
</g>
</g>
<!-- Node10&#45;&gt;Node11 -->
<g id="edge11" class="edge"><title>Node10&#45;&gt;Node11</title>
<path fill="none" stroke="midnightblue" d="M706.495,-81C714.938,-81 723.425,-81 731.728,-81"/>
<polygon fill="midnightblue" stroke="midnightblue" points="706.236,-77.5001 696.236,-81 706.236,-84.5001 706.236,-77.5001"/>
</g>
<!-- Node12 -->
<g id="node12" class="node"><title>Node12</title>
<g id="a_node12"><a xlink:href="namespacesll__m__poisson__2d__mudpack__curvilinear.html#a030b51f0e3782ea9c0e5dc2c0c27f035" target="_top" xlink:title="PLEASE ADD DOCUMENTATION. ">
<polygon fill="white" stroke="black" points="934,-60.5 934,-101.5 1100,-101.5 1100,-60.5 934,-60.5"/>
<text text-anchor="start" x="942" y="-89.5" font-family="Helvetica,sans-Serif" font-size="10.00">sll_m_poisson_2d_mudpack</text>
<text text-anchor="start" x="942" y="-78.5" font-family="Helvetica,sans-Serif" font-size="10.00">_curvilinear::sll_f_new</text>
<text text-anchor="middle" x="1017" y="-67.5" font-family="Helvetica,sans-Serif" font-size="10.00">_poisson_2d_mudpack_curvilinear</text>
</a>
</g>
</g>
<!-- Node11&#45;&gt;Node12 -->
<g id="edge12" class="edge"><title>Node11&#45;&gt;Node12</title>
<path fill="none" stroke="midnightblue" d="M908.466,-81C916.914,-81 925.434,-81 933.783,-81"/>
<polygon fill="midnightblue" stroke="midnightblue" points="908.213,-77.5001 898.213,-81 908.213,-84.5001 908.213,-77.5001"/>
</g>
</g>
</svg>
