<?xml version="1.0" encoding="UTF-8" standalone="no"?>
<!DOCTYPE svg PUBLIC "-//W3C//DTD SVG 1.1//EN"
 "http://www.w3.org/Graphics/SVG/1.1/DTD/svg11.dtd">
<!-- Generated by graphviz version 2.43.0 (0)
 -->
<!-- Title: fourier1dper Pages: 1 -->
<svg width="425pt" height="160pt"
 viewBox="0.00 0.00 425.00 159.50" xmlns="http://www.w3.org/2000/svg" xmlns:xlink="http://www.w3.org/1999/xlink">
<g id="graph0" class="graph" transform="scale(1 1) rotate(0) translate(4 155.5)">
<title>fourier1dper</title>
<polygon fill="white" stroke="transparent" points="-4,4 -4,-155.5 421,-155.5 421,4 -4,4"/>
<!-- Node1 -->
<g id="node1" class="node">
<title>Node1</title>
<g id="a_node1"><a xlink:title=" ">
<polygon fill="#bfbfbf" stroke="black" points="340,-71.5 340,-90.5 417,-90.5 417,-71.5 340,-71.5"/>
<text text-anchor="middle" x="378.5" y="-78.5" font-family="Helvetica,sans-Serif" font-size="10.00">fourier1dper</text>
</a>
</g>
</g>
<!-- Node2 -->
<g id="node2" class="node">
<title>Node2</title>
<g id="a_node2"><a xlink:href="namespacesll__m__periodic__interp.html#af13c2d535538f2d6ca1e3e7b40b38139" target="_top" xlink:title=" ">
<polygon fill="white" stroke="black" points="188,-71.5 188,-90.5 304,-90.5 304,-71.5 188,-71.5"/>
<text text-anchor="middle" x="246" y="-78.5" font-family="Helvetica,sans-Serif" font-size="10.00">sll_s_periodic_interp</text>
</a>
</g>
</g>
<!-- Node1&#45;&gt;Node2 -->
<g id="edge1" class="edge">
<title>Node1&#45;&gt;Node2</title>
<path fill="none" stroke="midnightblue" d="M329.53,-81C321.25,-81 312.58,-81 304.09,-81"/>
<polygon fill="midnightblue" stroke="midnightblue" points="329.75,-84.5 339.75,-81 329.75,-77.5 329.75,-84.5"/>
</g>
<!-- Node3 -->
<g id="node3" class="node">
<title>Node3</title>
<g id="a_node3"><a xlink:href="namespacesll__m__periodic__interpolator__1d.html#ae6f0cb5c46ddb52e2ab53c9c1e65792b" target="_top" xlink:title=" ">
<polygon fill="white" stroke="black" points="0,-121 0,-151 152,-151 152,-121 0,-121"/>
<text text-anchor="start" x="8" y="-139" font-family="Helvetica,sans-Serif" font-size="10.00">sll_m_periodic_interpolator</text>
<text text-anchor="middle" x="76" y="-128" font-family="Helvetica,sans-Serif" font-size="10.00">_1d::per_interpolate1d_disp</text>
</a>
</g>
</g>
<!-- Node2&#45;&gt;Node3 -->
<g id="edge2" class="edge">
<title>Node2&#45;&gt;Node3</title>
<path fill="none" stroke="midnightblue" d="M205.96,-93.78C181.19,-101.89 149.03,-112.42 123.02,-120.93"/>
<polygon fill="midnightblue" stroke="midnightblue" points="207.32,-97.02 215.74,-90.58 205.14,-90.37 207.32,-97.02"/>
</g>
<!-- Node4 -->
<g id="node4" class="node">
<title>Node4</title>
<g id="a_node4"><a xlink:href="namespacesll__m__periodic__interpolator__1d.html#afddf771cf26aba1439b7c9068626b0a2" target="_top" xlink:title=" ">
<polygon fill="white" stroke="black" points="0,-60.5 0,-101.5 152,-101.5 152,-60.5 0,-60.5"/>
<text text-anchor="start" x="8" y="-89.5" font-family="Helvetica,sans-Serif" font-size="10.00">sll_m_periodic_interpolator</text>
<text text-anchor="start" x="8" y="-78.5" font-family="Helvetica,sans-Serif" font-size="10.00">_1d::per_interpolate1d_disp</text>
<text text-anchor="middle" x="76" y="-67.5" font-family="Helvetica,sans-Serif" font-size="10.00">_inplace</text>
</a>
</g>
</g>
<!-- Node2&#45;&gt;Node4 -->
<g id="edge3" class="edge">
<title>Node2&#45;&gt;Node4</title>
<path fill="none" stroke="midnightblue" d="M177.6,-81C169.25,-81 160.67,-81 152.21,-81"/>
<polygon fill="midnightblue" stroke="midnightblue" points="177.65,-84.5 187.65,-81 177.65,-77.5 177.65,-84.5"/>
</g>
<!-- Node5 -->
<g id="node5" class="node">
<title>Node5</title>
<g id="a_node5"><a xlink:href="namespacesll__m__advection__1d__periodic.html#a83e408dd2f8ef25942506b71256ab110" target="_top" xlink:title=" ">
<polygon fill="white" stroke="black" points="16.5,-0.5 16.5,-41.5 135.5,-41.5 135.5,-0.5 16.5,-0.5"/>
<text text-anchor="start" x="24.5" y="-29.5" font-family="Helvetica,sans-Serif" font-size="10.00">sll_m_advection_1d</text>
<text text-anchor="start" x="24.5" y="-18.5" font-family="Helvetica,sans-Serif" font-size="10.00">_periodic::periodic</text>
<text text-anchor="middle" x="76" y="-7.5" font-family="Helvetica,sans-Serif" font-size="10.00">_advect_1d_constant</text>
</a>
</g>
</g>
<!-- Node2&#45;&gt;Node5 -->
<g id="edge4" class="edge">
<title>Node2&#45;&gt;Node5</title>
<path fill="none" stroke="midnightblue" d="M208.9,-68.11C187.21,-60.36 159.13,-50.33 134.45,-41.52"/>
<polygon fill="midnightblue" stroke="midnightblue" points="207.79,-71.43 218.38,-71.49 210.14,-64.83 207.79,-71.43"/>
</g>
</g>
</svg>
