<?xml version="1.0" encoding="UTF-8" standalone="no"?>
<!DOCTYPE svg PUBLIC "-//W3C//DTD SVG 1.1//EN"
 "http://www.w3.org/Graphics/SVG/1.1/DTD/svg11.dtd">
<!-- Generated by graphviz version 2.38.0 (20140413.2041)
 -->
<!-- Title: spline_interpolate2d Pages: 1 -->
<svg width="558pt" height="230pt"
 viewBox="0.00 0.00 558.00 230.00" xmlns="http://www.w3.org/2000/svg" xmlns:xlink="http://www.w3.org/1999/xlink">
<g id="graph0" class="graph" transform="scale(1 1) rotate(0) translate(4 226)">
<title>spline_interpolate2d</title>
<polygon fill="white" stroke="none" points="-4,4 -4,-226 554,-226 554,4 -4,4"/>
<!-- Node1 -->
<g id="node1" class="node"><title>Node1</title>
<polygon fill="#bfbfbf" stroke="black" points="0,-101.5 0,-120.5 103,-120.5 103,-101.5 0,-101.5"/>
<text text-anchor="middle" x="51.5" y="-108.5" font-family="Helvetica,sans-Serif" font-size="10.00">spline_interpolate2d</text>
</g>
<!-- Node2 -->
<g id="node2" class="node"><title>Node2</title>
<g id="a_node2"><a xlink:href="namespacesll__m__cubic__splines.html#afedd5ff961baf6a1f10ecfd6c8e353b7" target="_top" xlink:title="Computes the spline coefficients for the given data. The coeffcients are first computed in the second...">
<polygon fill="white" stroke="black" points="139,-90.5 139,-131.5 264,-131.5 264,-90.5 139,-90.5"/>
<text text-anchor="start" x="147" y="-119.5" font-family="Helvetica,sans-Serif" font-size="10.00">sll_m_cubic_splines</text>
<text text-anchor="start" x="147" y="-108.5" font-family="Helvetica,sans-Serif" font-size="10.00">::sll_s_cubic_spline</text>
<text text-anchor="middle" x="201.5" y="-97.5" font-family="Helvetica,sans-Serif" font-size="10.00">_2d_compute_interpolant</text>
</a>
</g>
</g>
<!-- Node1&#45;&gt;Node2 -->
<g id="edge1" class="edge"><title>Node1&#45;&gt;Node2</title>
<path fill="none" stroke="midnightblue" d="M103.019,-111C111.325,-111 120.071,-111 128.775,-111"/>
<polygon fill="midnightblue" stroke="midnightblue" points="128.945,-114.5 138.945,-111 128.945,-107.5 128.945,-114.5"/>
</g>
<!-- Node3 -->
<g id="node3" class="node"><title>Node3</title>
<g id="a_node3"><a xlink:href="namespacesll__m__cubic__splines.html#a90ddea961b2a3fdbe5b6710fe9e115aa" target="_top" xlink:title="sll_m_cubic_splines\l::compute_spline_2d\l_prdc_prdc">
<polygon fill="white" stroke="black" points="300,-180.5 300,-221.5 407,-221.5 407,-180.5 300,-180.5"/>
<text text-anchor="start" x="308" y="-209.5" font-family="Helvetica,sans-Serif" font-size="10.00">sll_m_cubic_splines</text>
<text text-anchor="start" x="308" y="-198.5" font-family="Helvetica,sans-Serif" font-size="10.00">::compute_spline_2d</text>
<text text-anchor="middle" x="353.5" y="-187.5" font-family="Helvetica,sans-Serif" font-size="10.00">_prdc_prdc</text>
</a>
</g>
</g>
<!-- Node2&#45;&gt;Node3 -->
<g id="edge2" class="edge"><title>Node2&#45;&gt;Node3</title>
<path fill="none" stroke="midnightblue" d="M235.284,-131.542C254.125,-143.255 278.29,-158.122 300,-171 302.455,-172.456 304.98,-173.941 307.534,-175.433"/>
<polygon fill="midnightblue" stroke="midnightblue" points="305.855,-178.506 316.261,-180.497 309.368,-172.451 305.855,-178.506"/>
</g>
<!-- Node5 -->
<g id="node5" class="node"><title>Node5</title>
<g id="a_node5"><a xlink:href="namespacesll__m__cubic__splines.html#a735701443ea806b5f792c6cc9547752e" target="_top" xlink:title="sll_m_cubic_splines\l::compute_spline_2d\l_hrmt_prdc">
<polygon fill="white" stroke="black" points="300,-120.5 300,-161.5 407,-161.5 407,-120.5 300,-120.5"/>
<text text-anchor="start" x="308" y="-149.5" font-family="Helvetica,sans-Serif" font-size="10.00">sll_m_cubic_splines</text>
<text text-anchor="start" x="308" y="-138.5" font-family="Helvetica,sans-Serif" font-size="10.00">::compute_spline_2d</text>
<text text-anchor="middle" x="353.5" y="-127.5" font-family="Helvetica,sans-Serif" font-size="10.00">_hrmt_prdc</text>
</a>
</g>
</g>
<!-- Node2&#45;&gt;Node5 -->
<g id="edge4" class="edge"><title>Node2&#45;&gt;Node5</title>
<path fill="none" stroke="midnightblue" d="M264.377,-123.375C272.845,-125.069 281.544,-126.809 290.024,-128.505"/>
<polygon fill="midnightblue" stroke="midnightblue" points="289.357,-131.941 299.85,-130.47 290.73,-125.077 289.357,-131.941"/>
</g>
<!-- Node7 -->
<g id="node7" class="node"><title>Node7</title>
<g id="a_node7"><a xlink:href="namespacesll__m__cubic__splines.html#aee0b7670b3ea0984872ebfe5ddc01b27" target="_top" xlink:title="sll_m_cubic_splines\l::compute_spline_2d\l_prdc_hrmt">
<polygon fill="white" stroke="black" points="300,-60.5 300,-101.5 407,-101.5 407,-60.5 300,-60.5"/>
<text text-anchor="start" x="308" y="-89.5" font-family="Helvetica,sans-Serif" font-size="10.00">sll_m_cubic_splines</text>
<text text-anchor="start" x="308" y="-78.5" font-family="Helvetica,sans-Serif" font-size="10.00">::compute_spline_2d</text>
<text text-anchor="middle" x="353.5" y="-67.5" font-family="Helvetica,sans-Serif" font-size="10.00">_prdc_hrmt</text>
</a>
</g>
</g>
<!-- Node2&#45;&gt;Node7 -->
<g id="edge7" class="edge"><title>Node2&#45;&gt;Node7</title>
<path fill="none" stroke="midnightblue" d="M264.377,-98.6246C272.845,-96.9309 281.544,-95.1911 290.024,-93.4953"/>
<polygon fill="midnightblue" stroke="midnightblue" points="290.73,-96.9234 299.85,-91.5301 289.357,-90.0593 290.73,-96.9234"/>
</g>
<!-- Node8 -->
<g id="node8" class="node"><title>Node8</title>
<g id="a_node8"><a xlink:href="namespacesll__m__cubic__splines.html#a29cb8396fd20358727d21d1ae39b83a2" target="_top" xlink:title="sll_m_cubic_splines\l::compute_spline_2d\l_hrmt_hrmt">
<polygon fill="white" stroke="black" points="300,-0.5 300,-41.5 407,-41.5 407,-0.5 300,-0.5"/>
<text text-anchor="start" x="308" y="-29.5" font-family="Helvetica,sans-Serif" font-size="10.00">sll_m_cubic_splines</text>
<text text-anchor="start" x="308" y="-18.5" font-family="Helvetica,sans-Serif" font-size="10.00">::compute_spline_2d</text>
<text text-anchor="middle" x="353.5" y="-7.5" font-family="Helvetica,sans-Serif" font-size="10.00">_hrmt_hrmt</text>
</a>
</g>
</g>
<!-- Node2&#45;&gt;Node8 -->
<g id="edge10" class="edge"><title>Node2&#45;&gt;Node8</title>
<path fill="none" stroke="midnightblue" d="M235.284,-90.4585C254.125,-78.7452 278.29,-63.878 300,-51 302.455,-49.5439 304.98,-48.0587 307.534,-46.567"/>
<polygon fill="midnightblue" stroke="midnightblue" points="309.368,-49.5491 316.261,-41.5033 305.855,-43.4944 309.368,-49.5491"/>
</g>
<!-- Node4 -->
<g id="node4" class="node"><title>Node4</title>
<g id="a_node4"><a xlink:href="namespacesll__m__cubic__splines.html#a908d8f64cc3a4c32d9bdc5afc4077948" target="_top" xlink:title="sll_m_cubic_splines\l::compute_spline_1d\l_periodic_aux">
<polygon fill="white" stroke="black" points="443,-120.5 443,-161.5 550,-161.5 550,-120.5 443,-120.5"/>
<text text-anchor="start" x="451" y="-149.5" font-family="Helvetica,sans-Serif" font-size="10.00">sll_m_cubic_splines</text>
<text text-anchor="start" x="451" y="-138.5" font-family="Helvetica,sans-Serif" font-size="10.00">::compute_spline_1d</text>
<text text-anchor="middle" x="496.5" y="-127.5" font-family="Helvetica,sans-Serif" font-size="10.00">_periodic_aux</text>
</a>
</g>
</g>
<!-- Node3&#45;&gt;Node4 -->
<g id="edge3" class="edge"><title>Node3&#45;&gt;Node4</title>
<path fill="none" stroke="midnightblue" d="M403.024,-180.351C414.102,-175.637 425.984,-170.581 437.417,-165.716"/>
<polygon fill="midnightblue" stroke="midnightblue" points="439.055,-168.823 446.886,-161.687 436.314,-162.382 439.055,-168.823"/>
</g>
<!-- Node5&#45;&gt;Node4 -->
<g id="edge5" class="edge"><title>Node5&#45;&gt;Node4</title>
<path fill="none" stroke="midnightblue" d="M407.003,-141C415.445,-141 424.255,-141 432.905,-141"/>
<polygon fill="midnightblue" stroke="midnightblue" points="432.953,-144.5 442.953,-141 432.953,-137.5 432.953,-144.5"/>
</g>
<!-- Node6 -->
<g id="node6" class="node"><title>Node6</title>
<g id="a_node6"><a xlink:href="namespacesll__m__cubic__splines.html#a3f3f1aa98bfbb8c05458a1eb30941d6d" target="_top" xlink:title="sll_m_cubic_splines\l::compute_spline_1d\l_hermite_aux">
<polygon fill="white" stroke="black" points="443,-60.5 443,-101.5 550,-101.5 550,-60.5 443,-60.5"/>
<text text-anchor="start" x="451" y="-89.5" font-family="Helvetica,sans-Serif" font-size="10.00">sll_m_cubic_splines</text>
<text text-anchor="start" x="451" y="-78.5" font-family="Helvetica,sans-Serif" font-size="10.00">::compute_spline_1d</text>
<text text-anchor="middle" x="496.5" y="-67.5" font-family="Helvetica,sans-Serif" font-size="10.00">_hermite_aux</text>
</a>
</g>
</g>
<!-- Node5&#45;&gt;Node6 -->
<g id="edge6" class="edge"><title>Node5&#45;&gt;Node6</title>
<path fill="none" stroke="midnightblue" d="M403.024,-120.351C414.102,-115.637 425.984,-110.581 437.417,-105.716"/>
<polygon fill="midnightblue" stroke="midnightblue" points="439.055,-108.823 446.886,-101.687 436.314,-102.382 439.055,-108.823"/>
</g>
<!-- Node7&#45;&gt;Node4 -->
<g id="edge9" class="edge"><title>Node7&#45;&gt;Node4</title>
<path fill="none" stroke="midnightblue" d="M403.024,-101.649C414.102,-106.363 425.984,-111.419 437.417,-116.284"/>
<polygon fill="midnightblue" stroke="midnightblue" points="436.314,-119.618 446.886,-120.313 439.055,-113.177 436.314,-119.618"/>
</g>
<!-- Node7&#45;&gt;Node6 -->
<g id="edge8" class="edge"><title>Node7&#45;&gt;Node6</title>
<path fill="none" stroke="midnightblue" d="M407.003,-81C415.445,-81 424.255,-81 432.905,-81"/>
<polygon fill="midnightblue" stroke="midnightblue" points="432.953,-84.5001 442.953,-81 432.953,-77.5001 432.953,-84.5001"/>
</g>
<!-- Node8&#45;&gt;Node6 -->
<g id="edge11" class="edge"><title>Node8&#45;&gt;Node6</title>
<path fill="none" stroke="midnightblue" d="M403.024,-41.6486C414.102,-46.3626 425.984,-51.4188 437.417,-56.2836"/>
<polygon fill="midnightblue" stroke="midnightblue" points="436.314,-59.6183 446.886,-60.3133 439.055,-53.1772 436.314,-59.6183"/>
</g>
</g>
</svg>
