<?xml version="1.0" encoding="UTF-8" standalone="no"?>
<!DOCTYPE svg PUBLIC "-//W3C//DTD SVG 1.1//EN"
 "http://www.w3.org/Graphics/SVG/1.1/DTD/svg11.dtd">
<!-- Generated by graphviz version 2.40.1 (20161225.0304)
 -->
<!-- Title: sll_s_multiply_ct_clamped Pages: 1 -->
<svg width="327pt" height="149pt"
 viewBox="0.00 0.00 327.00 148.50" xmlns="http://www.w3.org/2000/svg" xmlns:xlink="http://www.w3.org/1999/xlink">
<g id="graph0" class="graph" transform="scale(1 1) rotate(0) translate(4 144.5)">
<title>sll_s_multiply_ct_clamped</title>
<polygon fill="#ffffff" stroke="transparent" points="-4,4 -4,-144.5 323,-144.5 323,4 -4,4"/>
<!-- Node6 -->
<g id="node1" class="node">
<title>Node6</title>
<polygon fill="#bfbfbf" stroke="#000000" points="0,-55 0,-74 146,-74 146,-55 0,-55"/>
<text text-anchor="middle" x="73" y="-62" font-family="Helvetica,sans-Serif" font-size="10.00" fill="#000000">sll_s_multiply_ct_clamped</text>
</g>
<!-- Node7 -->
<g id="node2" class="node">
<title>Node7</title>
<g id="a_node2"><a xlink:href="namespacesll__m__linear__operator__schur__eb__cl__3d.html#a04eedcc204a78788d8f0d72633aa7054" target="_top" xlink:title="sll_m_linear_operator\l_schur_eb_cl_3d::dot\l_schur_eb_cl_3d">
<polygon fill="#ffffff" stroke="#000000" points="189.5,-99 189.5,-140 311.5,-140 311.5,-99 189.5,-99"/>
<text text-anchor="start" x="197.5" y="-128" font-family="Helvetica,sans-Serif" font-size="10.00" fill="#000000">sll_m_linear_operator</text>
<text text-anchor="start" x="197.5" y="-117" font-family="Helvetica,sans-Serif" font-size="10.00" fill="#000000">_schur_eb_cl_3d::dot</text>
<text text-anchor="middle" x="250.5" y="-106" font-family="Helvetica,sans-Serif" font-size="10.00" fill="#000000">_schur_eb_cl_3d</text>
</a>
</g>
</g>
<!-- Node6&#45;&gt;Node7 -->
<g id="edge1" class="edge">
<title>Node6&#45;&gt;Node7</title>
<path fill="none" stroke="#191970" d="M113.471,-77.0403C135.9342,-84.0007 164.329,-92.7991 189.4379,-100.5793"/>
<polygon fill="#191970" stroke="#191970" points="114.506,-73.6969 103.9181,-74.0803 112.4342,-80.3833 114.506,-73.6969"/>
</g>
<!-- Node8 -->
<g id="node3" class="node">
<title>Node8</title>
<g id="a_node3"><a xlink:href="namespacesll__m__maxwell__clamped__3d__fem.html#ae66ee27299326fe5918b5f1eb19a602e" target="_top" xlink:title="Multiply by transpose of discrete curl matrix. ">
<polygon fill="#ffffff" stroke="#000000" points="182,-49.5 182,-79.5 319,-79.5 319,-49.5 182,-49.5"/>
<text text-anchor="start" x="190" y="-67.5" font-family="Helvetica,sans-Serif" font-size="10.00" fill="#000000">sll_m_maxwell_clamped</text>
<text text-anchor="middle" x="250.5" y="-56.5" font-family="Helvetica,sans-Serif" font-size="10.00" fill="#000000">_3d_fem::multiply_ct</text>
</a>
</g>
</g>
<!-- Node6&#45;&gt;Node8 -->
<g id="edge2" class="edge">
<title>Node6&#45;&gt;Node8</title>
<path fill="none" stroke="#191970" d="M156.4801,-64.5C164.9338,-64.5 173.4516,-64.5 181.725,-64.5"/>
<polygon fill="#191970" stroke="#191970" points="156.2209,-61.0001 146.2208,-64.5 156.2208,-68.0001 156.2209,-61.0001"/>
</g>
<!-- Node9 -->
<g id="node4" class="node">
<title>Node9</title>
<g id="a_node4"><a xlink:href="namespacesll__m__maxwell__clamped__3d__trafo.html#afe6919f5a3217c1bb88eed51d84aa8cc" target="_top" xlink:title="Multiply by transpose of discrete curl matrix. ">
<polygon fill="#ffffff" stroke="#000000" points="182,-.5 182,-30.5 319,-30.5 319,-.5 182,-.5"/>
<text text-anchor="start" x="190" y="-18.5" font-family="Helvetica,sans-Serif" font-size="10.00" fill="#000000">sll_m_maxwell_clamped</text>
<text text-anchor="middle" x="250.5" y="-7.5" font-family="Helvetica,sans-Serif" font-size="10.00" fill="#000000">_3d_trafo::multiply_ct</text>
</a>
</g>
</g>
<!-- Node6&#45;&gt;Node9 -->
<g id="edge3" class="edge">
<title>Node6&#45;&gt;Node9</title>
<path fill="none" stroke="#191970" d="M117.4748,-52.2224C141.2965,-45.6463 170.8396,-37.4908 196.0294,-30.537"/>
<polygon fill="#191970" stroke="#191970" points="116.3532,-48.9011 107.6452,-54.936 118.216,-55.6487 116.3532,-48.9011"/>
</g>
</g>
</svg>
