<?xml version="1.0" encoding="UTF-8" standalone="no"?>
<!DOCTYPE svg PUBLIC "-//W3C//DTD SVG 1.1//EN"
 "http://www.w3.org/Graphics/SVG/1.1/DTD/svg11.dtd">
<!-- Generated by graphviz version 2.43.0 (0)
 -->
<!-- Title: sll_f_new_cubic_spline_interpolator_2d Pages: 1 -->
<svg width="576pt" height="50pt"
 viewBox="0.00 0.00 576.00 50.00" xmlns="http://www.w3.org/2000/svg" xmlns:xlink="http://www.w3.org/1999/xlink">
<g id="graph0" class="graph" transform="scale(1 1) rotate(0) translate(4 46)">
<title>sll_f_new_cubic_spline_interpolator_2d</title>
<polygon fill="white" stroke="transparent" points="-4,4 -4,-46 572,-46 572,4 -4,4"/>
<!-- Node1 -->
<g id="node1" class="node">
<title>Node1</title>
<g id="a_node1"><a xlink:title="Function that return a pointer to a cubic spline interpolator 2d object. The result can be the target...">
<polygon fill="#bfbfbf" stroke="black" points="440,-6 440,-36 568,-36 568,-6 440,-6"/>
<text text-anchor="start" x="448" y="-24" font-family="Helvetica,sans-Serif" font-size="10.00">sll_f_new_cubic_spline</text>
<text text-anchor="middle" x="504" y="-13" font-family="Helvetica,sans-Serif" font-size="10.00">_interpolator_2d</text>
</a>
</g>
</g>
<!-- Node2 -->
<g id="node2" class="node">
<title>Node2</title>
<g id="a_node2"><a xlink:href="namespacesll__m__poisson__2d__mudpack__curvilinear.html#aafe1b9a1d79ddc7a217d3a14a73c418d" target="_top" xlink:title=" ">
<polygon fill="white" stroke="black" points="220,-0.5 220,-41.5 404,-41.5 404,-0.5 220,-0.5"/>
<text text-anchor="start" x="228" y="-29.5" font-family="Helvetica,sans-Serif" font-size="10.00">sll_m_poisson_2d_mudpack</text>
<text text-anchor="start" x="228" y="-18.5" font-family="Helvetica,sans-Serif" font-size="10.00">_curvilinear::initialize</text>
<text text-anchor="middle" x="312" y="-7.5" font-family="Helvetica,sans-Serif" font-size="10.00">_poisson_2d_mudpack_curvilinear</text>
</a>
</g>
</g>
<!-- Node1&#45;&gt;Node2 -->
<g id="edge1" class="edge">
<title>Node1&#45;&gt;Node2</title>
<path fill="none" stroke="midnightblue" d="M429.91,-21C421.53,-21 412.9,-21 404.32,-21"/>
<polygon fill="midnightblue" stroke="midnightblue" points="430,-24.5 440,-21 430,-17.5 430,-24.5"/>
</g>
<!-- Node3 -->
<g id="node3" class="node">
<title>Node3</title>
<g id="a_node3"><a xlink:href="namespacesll__m__poisson__2d__mudpack__curvilinear.html#a030b51f0e3782ea9c0e5dc2c0c27f035" target="_top" xlink:title="PLEASE ADD DOCUMENTATION.">
<polygon fill="white" stroke="black" points="0,-0.5 0,-41.5 184,-41.5 184,-0.5 0,-0.5"/>
<text text-anchor="start" x="8" y="-29.5" font-family="Helvetica,sans-Serif" font-size="10.00">sll_m_poisson_2d_mudpack</text>
<text text-anchor="start" x="8" y="-18.5" font-family="Helvetica,sans-Serif" font-size="10.00">_curvilinear::sll_f_new</text>
<text text-anchor="middle" x="92" y="-7.5" font-family="Helvetica,sans-Serif" font-size="10.00">_poisson_2d_mudpack_curvilinear</text>
</a>
</g>
</g>
<!-- Node2&#45;&gt;Node3 -->
<g id="edge2" class="edge">
<title>Node2&#45;&gt;Node3</title>
<path fill="none" stroke="midnightblue" d="M209.53,-21C201.07,-21 192.55,-21 184.17,-21"/>
<polygon fill="midnightblue" stroke="midnightblue" points="209.81,-24.5 219.81,-21 209.81,-17.5 209.81,-24.5"/>
</g>
</g>
</svg>
