<?xml version="1.0" encoding="UTF-8" standalone="no"?>
<!DOCTYPE svg PUBLIC "-//W3C//DTD SVG 1.1//EN"
 "http://www.w3.org/Graphics/SVG/1.1/DTD/svg11.dtd">
<!-- Generated by graphviz version 2.43.0 (0)
 -->
<!-- Title: sll_s_choles Pages: 1 -->
<svg width="452pt" height="100pt"
 viewBox="0.00 0.00 452.00 99.50" xmlns="http://www.w3.org/2000/svg" xmlns:xlink="http://www.w3.org/1999/xlink">
<g id="graph0" class="graph" transform="scale(1 1) rotate(0) translate(4 95.5)">
<title>sll_s_choles</title>
<polygon fill="white" stroke="transparent" points="-4,4 -4,-95.5 448,-95.5 448,4 -4,4"/>
<!-- Node1 -->
<g id="node1" class="node">
<title>Node1</title>
<g id="a_node1"><a xlink:title=" ">
<polygon fill="#bfbfbf" stroke="black" points="369,-33 369,-52 444,-52 444,-33 369,-33"/>
<text text-anchor="middle" x="406.5" y="-40" font-family="Helvetica,sans-Serif" font-size="10.00">sll_s_choles</text>
</a>
</g>
</g>
<!-- Node2 -->
<g id="node2" class="node">
<title>Node2</title>
<g id="a_node2"><a xlink:href="namespacesll__m__poisson__2d__tri.html#a528485ff3e256621e633c498bd0d4f11" target="_top" xlink:title=" ">
<polygon fill="white" stroke="black" points="214,-22 214,-63 333,-63 333,-22 214,-22"/>
<text text-anchor="start" x="222" y="-51" font-family="Helvetica,sans-Serif" font-size="10.00">sll_m_poisson_2d_tri</text>
<text text-anchor="start" x="222" y="-40" font-family="Helvetica,sans-Serif" font-size="10.00">::initialize_poisson</text>
<text text-anchor="middle" x="273.5" y="-29" font-family="Helvetica,sans-Serif" font-size="10.00">_solver</text>
</a>
</g>
</g>
<!-- Node1&#45;&gt;Node2 -->
<g id="edge1" class="edge">
<title>Node1&#45;&gt;Node2</title>
<path fill="none" stroke="midnightblue" d="M358.51,-42.5C350.27,-42.5 341.62,-42.5 333.12,-42.5"/>
<polygon fill="midnightblue" stroke="midnightblue" points="358.66,-46 368.66,-42.5 358.66,-39 358.66,-46"/>
</g>
<!-- Node3 -->
<g id="node3" class="node">
<title>Node3</title>
<g id="a_node3"><a xlink:href="namespacesll__m__poisson__2d__tri.html#a7177a22a26838aee55ca4c7a9c36ebc7" target="_top" xlink:title=" ">
<polygon fill="white" stroke="black" points="29.5,-50 29.5,-91 148.5,-91 148.5,-50 29.5,-50"/>
<text text-anchor="start" x="37.5" y="-79" font-family="Helvetica,sans-Serif" font-size="10.00">sll_m_poisson_2d_tri</text>
<text text-anchor="start" x="37.5" y="-68" font-family="Helvetica,sans-Serif" font-size="10.00">::initialize_poisson</text>
<text text-anchor="middle" x="89" y="-57" font-family="Helvetica,sans-Serif" font-size="10.00">_solver_from_file</text>
</a>
</g>
</g>
<!-- Node2&#45;&gt;Node3 -->
<g id="edge2" class="edge">
<title>Node2&#45;&gt;Node3</title>
<path fill="none" stroke="midnightblue" d="M203.81,-53.04C185.65,-55.83 166.21,-58.81 148.64,-61.5"/>
<polygon fill="midnightblue" stroke="midnightblue" points="204.4,-56.49 213.75,-51.51 203.34,-49.57 204.4,-56.49"/>
</g>
<!-- Node4 -->
<g id="node4" class="node">
<title>Node4</title>
<g id="a_node4"><a xlink:href="namespacesll__m__poisson__2d__tri.html#aa53d2590e2d41cb21a8d905da8cab8d3" target="_top" xlink:title=" ">
<polygon fill="white" stroke="black" points="0,-0.5 0,-30.5 178,-30.5 178,-0.5 0,-0.5"/>
<text text-anchor="start" x="8" y="-18.5" font-family="Helvetica,sans-Serif" font-size="10.00">sll_m_poisson_2d_tri</text>
<text text-anchor="middle" x="89" y="-7.5" font-family="Helvetica,sans-Serif" font-size="10.00">::sll_s_poisson_2d_triangular_init</text>
</a>
</g>
</g>
<!-- Node2&#45;&gt;Node4 -->
<g id="edge3" class="edge">
<title>Node2&#45;&gt;Node4</title>
<path fill="none" stroke="midnightblue" d="M203.73,-32.33C195.39,-31.09 186.78,-29.82 178.2,-28.55"/>
<polygon fill="midnightblue" stroke="midnightblue" points="203.35,-35.81 213.75,-33.81 204.37,-28.88 203.35,-35.81"/>
</g>
</g>
</svg>
