<?xml version="1.0" encoding="UTF-8" standalone="no"?>
<!DOCTYPE svg PUBLIC "-//W3C//DTD SVG 1.1//EN"
 "http://www.w3.org/Graphics/SVG/1.1/DTD/svg11.dtd">
<!-- Generated by graphviz version 2.43.0 (0)
 -->
<!-- Title: sll_s_set_slope2d Pages: 1 -->
<svg width="494pt" height="61pt"
 viewBox="0.00 0.00 494.00 61.00" xmlns="http://www.w3.org/2000/svg" xmlns:xlink="http://www.w3.org/1999/xlink">
<g id="graph0" class="graph" transform="scale(1 1) rotate(0) translate(4 57)">
<title>sll_s_set_slope2d</title>
<polygon fill="white" stroke="transparent" points="-4,4 -4,-57 490,-57 490,4 -4,4"/>
<!-- Node1 -->
<g id="node1" class="node">
<title>Node1</title>
<g id="a_node1"><a xlink:title="Initialization of the boundary for interpolator arbitrary degree splines 2d. The parameters are.">
<polygon fill="#bfbfbf" stroke="black" points="0,-17 0,-36 102,-36 102,-17 0,-17"/>
<text text-anchor="middle" x="51" y="-24" font-family="Helvetica,sans-Serif" font-size="10.00">sll_s_set_slope2d</text>
</a>
</g>
</g>
<!-- Node2 -->
<g id="node2" class="node">
<title>Node2</title>
<g id="a_node2"><a xlink:href="namespacesll__m__arbitrary__degree__spline__interpolator__1d.html#a75cc31edcb1a843e541b2ff765af5b77" target="_top" xlink:title="Initialization of a pointer interpolator arbitrary degree splines 1d.">
<polygon fill="white" stroke="black" points="138,-0.5 138,-52.5 293,-52.5 293,-0.5 138,-0.5"/>
<text text-anchor="start" x="146" y="-40.5" font-family="Helvetica,sans-Serif" font-size="10.00">sll_m_arbitrary_degree</text>
<text text-anchor="start" x="146" y="-29.5" font-family="Helvetica,sans-Serif" font-size="10.00">_spline_interpolator_1d</text>
<text text-anchor="start" x="146" y="-18.5" font-family="Helvetica,sans-Serif" font-size="10.00">::sll_f_new_arbitrary_degree</text>
<text text-anchor="middle" x="215.5" y="-7.5" font-family="Helvetica,sans-Serif" font-size="10.00">_1d_interpolator</text>
</a>
</g>
</g>
<!-- Node1&#45;&gt;Node2 -->
<g id="edge1" class="edge">
<title>Node1&#45;&gt;Node2</title>
<path fill="none" stroke="midnightblue" d="M102.08,-26.5C110.35,-26.5 119.12,-26.5 127.98,-26.5"/>
<polygon fill="midnightblue" stroke="midnightblue" points="127.99,-30 137.99,-26.5 127.99,-23 127.99,-30"/>
</g>
<!-- Node3 -->
<g id="node3" class="node">
<title>Node3</title>
<g id="a_node3"><a xlink:href="namespacesll__m__arbitrary__degree__spline__interpolator__1d.html#aee31c662f95bb95d7ebd777e3ed6403c" target="_top" xlink:title="Initialization of interpolator arbitrary degree splines 1d.">
<polygon fill="white" stroke="black" points="329,-6 329,-47 486,-47 486,-6 329,-6"/>
<text text-anchor="start" x="337" y="-35" font-family="Helvetica,sans-Serif" font-size="10.00">sll_m_arbitrary_degree</text>
<text text-anchor="start" x="337" y="-24" font-family="Helvetica,sans-Serif" font-size="10.00">_spline_interpolator_1d</text>
<text text-anchor="middle" x="407.5" y="-13" font-family="Helvetica,sans-Serif" font-size="10.00">::sll_s_ad1d_interpolator_init</text>
</a>
</g>
</g>
<!-- Node2&#45;&gt;Node3 -->
<g id="edge2" class="edge">
<title>Node2&#45;&gt;Node3</title>
<path fill="none" stroke="midnightblue" d="M293.23,-26.5C301.58,-26.5 310.12,-26.5 318.59,-26.5"/>
<polygon fill="midnightblue" stroke="midnightblue" points="318.86,-30 328.86,-26.5 318.86,-23 318.86,-30"/>
</g>
</g>
</svg>
