<?xml version="1.0" encoding="UTF-8" standalone="no"?>
<!DOCTYPE svg PUBLIC "-//W3C//DTD SVG 1.1//EN"
 "http://www.w3.org/Graphics/SVG/1.1/DTD/svg11.dtd">
<!-- Generated by graphviz version 2.40.1 (20161225.0304)
 -->
<!-- Title: sll_f_suite_hamm Pages: 1 -->
<svg width="308pt" height="50pt"
 viewBox="0.00 0.00 308.00 50.00" xmlns="http://www.w3.org/2000/svg" xmlns:xlink="http://www.w3.org/1999/xlink">
<g id="graph0" class="graph" transform="scale(1 1) rotate(0) translate(4 46)">
<title>sll_f_suite_hamm</title>
<polygon fill="#ffffff" stroke="transparent" points="-4,4 -4,-46 304,-46 304,4 -4,4"/>
<!-- Node1 -->
<g id="node1" class="node">
<title>Node1</title>
<polygon fill="#bfbfbf" stroke="#000000" points="0,-11.5 0,-30.5 103,-30.5 103,-11.5 0,-11.5"/>
<text text-anchor="middle" x="51.5" y="-18.5" font-family="Helvetica,sans-Serif" font-size="10.00" fill="#000000">sll_f_suite_hamm</text>
</g>
<!-- Node2 -->
<g id="node2" class="node">
<title>Node2</title>
<g id="a_node2"><a xlink:href="namespacesll__m__particle__initializers__4d.html#a1a13920751651fba155b40e2077ae4be" target="_top" xlink:title="Initialize particles in a 2d+2v phase space using pseudo&#45;random generators. The Landau damping case w...">
<polygon fill="#ffffff" stroke="#000000" points="139,-.5 139,-41.5 300,-41.5 300,-.5 139,-.5"/>
<text text-anchor="start" x="147" y="-29.5" font-family="Helvetica,sans-Serif" font-size="10.00" fill="#000000">sll_m_particle_initializers</text>
<text text-anchor="start" x="147" y="-18.5" font-family="Helvetica,sans-Serif" font-size="10.00" fill="#000000">_4d::sll_s_initial_hammersley</text>
<text text-anchor="middle" x="219.5" y="-7.5" font-family="Helvetica,sans-Serif" font-size="10.00" fill="#000000">_particles_4d</text>
</a>
</g>
</g>
<!-- Node1&#45;&gt;Node2 -->
<g id="edge1" class="edge">
<title>Node1&#45;&gt;Node2</title>
<path fill="none" stroke="#191970" d="M113.538,-21C121.7884,-21 130.3428,-21 138.8513,-21"/>
<polygon fill="#191970" stroke="#191970" points="113.2764,-17.5001 103.2764,-21 113.2763,-24.5001 113.2764,-17.5001"/>
</g>
</g>
</svg>
