<?xml version="1.0" encoding="UTF-8" standalone="no"?>
<!DOCTYPE svg PUBLIC "-//W3C//DTD SVG 1.1//EN"
 "http://www.w3.org/Graphics/SVG/1.1/DTD/svg11.dtd">
<!-- Generated by graphviz version 2.38.0 (20140413.2041)
 -->
<!-- Title: sll_f_new_field_accumulator_cs_2d Pages: 1 -->
<svg width="485pt" height="39pt"
 viewBox="0.00 0.00 485.00 39.00" xmlns="http://www.w3.org/2000/svg" xmlns:xlink="http://www.w3.org/1999/xlink">
<g id="graph0" class="graph" transform="scale(1 1) rotate(0) translate(4 35)">
<title>sll_f_new_field_accumulator_cs_2d</title>
<polygon fill="white" stroke="none" points="-4,4 -4,-35 481,-35 481,4 -4,4"/>
<!-- Node1 -->
<g id="node1" class="node"><title>Node1</title>
<polygon fill="#bfbfbf" stroke="black" points="0,-0.5 0,-30.5 140,-30.5 140,-0.5 0,-0.5"/>
<text text-anchor="start" x="8" y="-18.5" font-family="Helvetica,sans-Serif" font-size="10.00">sll_f_new_field_accumulator</text>
<text text-anchor="middle" x="70" y="-7.5" font-family="Helvetica,sans-Serif" font-size="10.00">_cs_2d</text>
</g>
<!-- Node2 -->
<g id="node2" class="node"><title>Node2</title>
<g id="a_node2"><a xlink:href="namespacesll__m__accumulators.html#afef14555e4b860911cc373bb27d0fc89" target="_top" xlink:title="sll_s_field_accumulator\l_cs_2d_init">
<polygon fill="white" stroke="black" points="176,-0.5 176,-30.5 295,-30.5 295,-0.5 176,-0.5"/>
<text text-anchor="start" x="184" y="-18.5" font-family="Helvetica,sans-Serif" font-size="10.00">sll_s_field_accumulator</text>
<text text-anchor="middle" x="235.5" y="-7.5" font-family="Helvetica,sans-Serif" font-size="10.00">_cs_2d_init</text>
</a>
</g>
</g>
<!-- Node1&#45;&gt;Node2 -->
<g id="edge1" class="edge"><title>Node1&#45;&gt;Node2</title>
<path fill="none" stroke="midnightblue" d="M140.339,-15.5C148.754,-15.5 157.349,-15.5 165.755,-15.5"/>
<polygon fill="midnightblue" stroke="midnightblue" points="165.891,-19.0001 175.891,-15.5 165.891,-12.0001 165.891,-19.0001"/>
</g>
<!-- Node3 -->
<g id="node3" class="node"><title>Node3</title>
<g id="a_node3"><a xlink:href="namespacesll__m__accumulators.html#a410c2056984c5fef69988ae9dfb2012d" target="_top" xlink:title="sll_s_reset_field_accumulator\l_cs_to_zero">
<polygon fill="white" stroke="black" points="331,-0.5 331,-30.5 477,-30.5 477,-0.5 331,-0.5"/>
<text text-anchor="start" x="339" y="-18.5" font-family="Helvetica,sans-Serif" font-size="10.00">sll_s_reset_field_accumulator</text>
<text text-anchor="middle" x="404" y="-7.5" font-family="Helvetica,sans-Serif" font-size="10.00">_cs_to_zero</text>
</a>
</g>
</g>
<!-- Node2&#45;&gt;Node3 -->
<g id="edge2" class="edge"><title>Node2&#45;&gt;Node3</title>
<path fill="none" stroke="midnightblue" d="M295.202,-15.5C303.479,-15.5 312.111,-15.5 320.73,-15.5"/>
<polygon fill="midnightblue" stroke="midnightblue" points="320.819,-19.0001 330.819,-15.5 320.819,-12.0001 320.819,-19.0001"/>
</g>
</g>
</svg>
