<?xml version="1.0" encoding="UTF-8" standalone="no"?>
<!DOCTYPE svg PUBLIC "-//W3C//DTD SVG 1.1//EN"
 "http://www.w3.org/Graphics/SVG/1.1/DTD/svg11.dtd">
<!-- Generated by graphviz version 2.43.0 (0)
 -->
<!-- Title: sll_s_compute_gyroaverage_points_polar_hermite Pages: 1 -->
<svg width="329pt" height="61pt"
 viewBox="0.00 0.00 329.00 61.00" xmlns="http://www.w3.org/2000/svg" xmlns:xlink="http://www.w3.org/1999/xlink">
<g id="graph0" class="graph" transform="scale(1 1) rotate(0) translate(4 57)">
<title>sll_s_compute_gyroaverage_points_polar_hermite</title>
<polygon fill="white" stroke="transparent" points="-4,4 -4,-57 325,-57 325,4 -4,4"/>
<!-- Node1 -->
<g id="node1" class="node">
<title>Node1</title>
<g id="a_node1"><a xlink:title=" ">
<polygon fill="#bfbfbf" stroke="black" points="168,-11.5 168,-41.5 321,-41.5 321,-11.5 168,-11.5"/>
<text text-anchor="start" x="176" y="-29.5" font-family="Helvetica,sans-Serif" font-size="10.00">sll_s_compute_gyroaverage</text>
<text text-anchor="middle" x="244.5" y="-18.5" font-family="Helvetica,sans-Serif" font-size="10.00">_points_polar_hermite</text>
</a>
</g>
</g>
<!-- Node2 -->
<g id="node2" class="node">
<title>Node2</title>
<g id="a_node2"><a xlink:href="namespacesll__m__gyroaverage__2d__polar__hermite__solver.html#afd578efdda5cfc4e19d981df4c069d6b" target="_top" xlink:title=" ">
<polygon fill="white" stroke="black" points="0,-0.5 0,-52.5 132,-52.5 132,-0.5 0,-0.5"/>
<text text-anchor="start" x="8" y="-40.5" font-family="Helvetica,sans-Serif" font-size="10.00">sll_m_gyroaverage_2d</text>
<text text-anchor="start" x="8" y="-29.5" font-family="Helvetica,sans-Serif" font-size="10.00">_polar_hermite_solver</text>
<text text-anchor="start" x="8" y="-18.5" font-family="Helvetica,sans-Serif" font-size="10.00">::compute_gyroaverage</text>
<text text-anchor="middle" x="66" y="-7.5" font-family="Helvetica,sans-Serif" font-size="10.00">_2d_polar_hermite</text>
</a>
</g>
</g>
<!-- Node1&#45;&gt;Node2 -->
<g id="edge1" class="edge">
<title>Node1&#45;&gt;Node2</title>
<path fill="none" stroke="midnightblue" d="M157.8,-26.5C149.18,-26.5 140.53,-26.5 132.18,-26.5"/>
<polygon fill="midnightblue" stroke="midnightblue" points="157.88,-30 167.88,-26.5 157.88,-23 157.88,-30"/>
</g>
</g>
</svg>
