<?xml version="1.0" encoding="UTF-8" standalone="no"?>
<!DOCTYPE svg PUBLIC "-//W3C//DTD SVG 1.1//EN"
 "http://www.w3.org/Graphics/SVG/1.1/DTD/svg11.dtd">
<!-- Generated by graphviz version 2.43.0 (0)
 -->
<!-- Title: compute_vec_size Pages: 1 -->
<svg width="455pt" height="149pt"
 viewBox="0.00 0.00 455.00 148.50" xmlns="http://www.w3.org/2000/svg" xmlns:xlink="http://www.w3.org/1999/xlink">
<g id="graph0" class="graph" transform="scale(1 1) rotate(0) translate(4 144.5)">
<title>compute_vec_size</title>
<polygon fill="white" stroke="transparent" points="-4,4 -4,-144.5 451,-144.5 451,4 -4,4"/>
<!-- Node1 -->
<g id="node1" class="node">
<title>Node1</title>
<g id="a_node1"><a xlink:title=" ">
<polygon fill="#bfbfbf" stroke="black" points="340,-66.5 340,-85.5 447,-85.5 447,-66.5 340,-66.5"/>
<text text-anchor="middle" x="393.5" y="-73.5" font-family="Helvetica,sans-Serif" font-size="10.00">compute_vec_size</text>
</a>
</g>
</g>
<!-- Node2 -->
<g id="node2" class="node">
<title>Node2</title>
<g id="a_node2"><a xlink:href="namespacesll__m__general__coordinate__elliptic__solver.html#a2c7a0e952c10e71709680a8ea4bd548d" target="_top" xlink:title=" ">
<polygon fill="white" stroke="black" points="186,-110 186,-140 297,-140 297,-110 186,-110"/>
<text text-anchor="start" x="194" y="-128" font-family="Helvetica,sans-Serif" font-size="10.00">sll_s_factorize_mat</text>
<text text-anchor="middle" x="241.5" y="-117" font-family="Helvetica,sans-Serif" font-size="10.00">_es_prototype</text>
</a>
</g>
</g>
<!-- Node1&#45;&gt;Node2 -->
<g id="edge1" class="edge">
<title>Node1&#45;&gt;Node2</title>
<path fill="none" stroke="midnightblue" d="M353.56,-88.72C333.67,-95.22 309.34,-103.16 288.53,-109.96"/>
<polygon fill="midnightblue" stroke="midnightblue" points="354.8,-92 363.22,-85.56 352.63,-85.34 354.8,-92"/>
</g>
<!-- Node3 -->
<g id="node3" class="node">
<title>Node3</title>
<g id="a_node3"><a xlink:href="namespacesll__m__general__coordinate__elliptic__solver.html#a1530444505e15898adb13de4fd54458c" target="_top" xlink:title=" ">
<polygon fill="white" stroke="black" points="179,-61 179,-91 304,-91 304,-61 179,-61"/>
<text text-anchor="start" x="187" y="-79" font-family="Helvetica,sans-Serif" font-size="10.00">sll_s_general_elliptic</text>
<text text-anchor="middle" x="241.5" y="-68" font-family="Helvetica,sans-Serif" font-size="10.00">_solver_prototype_init</text>
</a>
</g>
</g>
<!-- Node1&#45;&gt;Node3 -->
<g id="edge2" class="edge">
<title>Node1&#45;&gt;Node3</title>
<path fill="none" stroke="midnightblue" d="M329.51,-76C321.11,-76 312.51,-76 304.14,-76"/>
<polygon fill="midnightblue" stroke="midnightblue" points="329.62,-79.5 339.62,-76 329.62,-72.5 329.62,-79.5"/>
</g>
<!-- Node5 -->
<g id="node5" class="node">
<title>Node5</title>
<g id="a_node5"><a xlink:href="namespacesll__m__general__coordinate__elliptic__solver.html#a0ce6a0461db99993037089fbea818c46" target="_top" xlink:title=" ">
<polygon fill="white" stroke="black" points="183,-0.5 183,-41.5 300,-41.5 300,-0.5 183,-0.5"/>
<text text-anchor="start" x="191" y="-29.5" font-family="Helvetica,sans-Serif" font-size="10.00">sll_s_solve_general</text>
<text text-anchor="start" x="191" y="-18.5" font-family="Helvetica,sans-Serif" font-size="10.00">_coordinates_elliptic</text>
<text text-anchor="middle" x="241.5" y="-7.5" font-family="Helvetica,sans-Serif" font-size="10.00">_eq_prototype</text>
</a>
</g>
</g>
<!-- Node1&#45;&gt;Node5 -->
<g id="edge4" class="edge">
<title>Node1&#45;&gt;Node5</title>
<path fill="none" stroke="midnightblue" d="M356.62,-62.84C339.22,-56.46 317.92,-48.65 298.45,-41.52"/>
<polygon fill="midnightblue" stroke="midnightblue" points="355.78,-66.26 366.37,-66.42 358.19,-59.69 355.78,-66.26"/>
</g>
<!-- Node4 -->
<g id="node4" class="node">
<title>Node4</title>
<g id="a_node4"><a xlink:href="namespacesll__m__general__coordinate__elliptic__solver.html#a1019a5ae673b7ffeca510a34500c59b5" target="_top" xlink:title=" ">
<polygon fill="white" stroke="black" points="0,-61 0,-91 143,-91 143,-61 0,-61"/>
<text text-anchor="start" x="8" y="-79" font-family="Helvetica,sans-Serif" font-size="10.00">sll_f_new_general_elliptic</text>
<text text-anchor="middle" x="71.5" y="-68" font-family="Helvetica,sans-Serif" font-size="10.00">_solver_prototype</text>
</a>
</g>
</g>
<!-- Node3&#45;&gt;Node4 -->
<g id="edge3" class="edge">
<title>Node3&#45;&gt;Node4</title>
<path fill="none" stroke="midnightblue" d="M168.7,-76C160.25,-76 151.63,-76 143.19,-76"/>
<polygon fill="midnightblue" stroke="midnightblue" points="168.9,-79.5 178.9,-76 168.9,-72.5 168.9,-79.5"/>
</g>
</g>
</svg>
