<?xml version="1.0" encoding="UTF-8" standalone="no"?>
<!DOCTYPE svg PUBLIC "-//W3C//DTD SVG 1.1//EN"
 "http://www.w3.org/Graphics/SVG/1.1/DTD/svg11.dtd">
<!-- Generated by graphviz version 2.43.0 (0)
 -->
<!-- Title: sll_s_spline_pp_free_3d Pages: 1 -->
<svg width="322pt" height="122pt"
 viewBox="0.00 0.00 322.00 121.50" xmlns="http://www.w3.org/2000/svg" xmlns:xlink="http://www.w3.org/1999/xlink">
<g id="graph0" class="graph" transform="scale(1 1) rotate(0) translate(4 117.5)">
<title>sll_s_spline_pp_free_3d</title>
<polygon fill="white" stroke="transparent" points="-4,4 -4,-117.5 318,-117.5 318,4 -4,4"/>
<!-- Node1 -->
<g id="node1" class="node">
<title>Node1</title>
<g id="a_node1"><a xlink:title="Destructor 3d.">
<polygon fill="#bfbfbf" stroke="black" points="182,-50 182,-69 314,-69 314,-50 182,-50"/>
<text text-anchor="middle" x="248" y="-57" font-family="Helvetica,sans-Serif" font-size="10.00">sll_s_spline_pp_free_3d</text>
</a>
</g>
</g>
<!-- Node2 -->
<g id="node2" class="node">
<title>Node2</title>
<g id="a_node2"><a xlink:href="namespacesll__m__particle__mesh__coupling__spline__3d__feec.html#a4b1d3a2cc5275fb671c6dd233eaf7667" target="_top" xlink:title="Destructor.">
<polygon fill="white" stroke="black" points="0,-72 0,-113 146,-113 146,-72 0,-72"/>
<text text-anchor="start" x="8" y="-101" font-family="Helvetica,sans-Serif" font-size="10.00">sll_m_particle_mesh</text>
<text text-anchor="start" x="8" y="-90" font-family="Helvetica,sans-Serif" font-size="10.00">_coupling_spline_3d</text>
<text text-anchor="middle" x="73" y="-79" font-family="Helvetica,sans-Serif" font-size="10.00">_feec::free_spline_3d_feec</text>
</a>
</g>
</g>
<!-- Node1&#45;&gt;Node2 -->
<g id="edge1" class="edge">
<title>Node1&#45;&gt;Node2</title>
<path fill="none" stroke="midnightblue" d="M187.07,-70.93C173.87,-73.45 159.75,-76.14 146.12,-78.74"/>
<polygon fill="midnightblue" stroke="midnightblue" points="187.79,-74.36 196.96,-69.04 186.48,-67.48 187.79,-74.36"/>
</g>
<!-- Node3 -->
<g id="node3" class="node">
<title>Node3</title>
<g id="a_node3"><a xlink:href="namespacesll__m__particle__mesh__coupling__spline__cl__3d__feec.html#af6660b4f90db07314cfdb129b5862ae2" target="_top" xlink:title="Finalizer.">
<polygon fill="white" stroke="black" points="13,-0.5 13,-52.5 133,-52.5 133,-0.5 13,-0.5"/>
<text text-anchor="start" x="21" y="-40.5" font-family="Helvetica,sans-Serif" font-size="10.00">sll_m_particle_mesh</text>
<text text-anchor="start" x="21" y="-29.5" font-family="Helvetica,sans-Serif" font-size="10.00">_coupling_spline_cl</text>
<text text-anchor="start" x="21" y="-18.5" font-family="Helvetica,sans-Serif" font-size="10.00">_3d_feec::free_spline</text>
<text text-anchor="middle" x="73" y="-7.5" font-family="Helvetica,sans-Serif" font-size="10.00">_cl_3d_feec</text>
</a>
</g>
</g>
<!-- Node1&#45;&gt;Node3 -->
<g id="edge2" class="edge">
<title>Node1&#45;&gt;Node3</title>
<path fill="none" stroke="midnightblue" d="M186.91,-48.04C169.48,-44.71 150.47,-41.09 133.1,-37.77"/>
<polygon fill="midnightblue" stroke="midnightblue" points="186.48,-51.52 196.96,-49.96 187.79,-44.64 186.48,-51.52"/>
</g>
</g>
</svg>
