<?xml version="1.0" encoding="UTF-8" standalone="no"?>
<!DOCTYPE svg PUBLIC "-//W3C//DTD SVG 1.1//EN"
 "http://www.w3.org/Graphics/SVG/1.1/DTD/svg11.dtd">
<!-- Generated by graphviz version 2.43.0 (0)
 -->
<!-- Title: l2projection_1d_trafo Pages: 1 -->
<svg width="502pt" height="100pt"
 viewBox="0.00 0.00 502.00 99.50" xmlns="http://www.w3.org/2000/svg" xmlns:xlink="http://www.w3.org/1999/xlink">
<g id="graph0" class="graph" transform="scale(1 1) rotate(0) translate(4 95.5)">
<title>l2projection_1d_trafo</title>
<polygon fill="white" stroke="transparent" points="-4,4 -4,-95.5 498,-95.5 498,4 -4,4"/>
<!-- Node1 -->
<g id="node1" class="node">
<title>Node1</title>
<g id="a_node1"><a xlink:title="Compute the L2 projection of a given function f on periodic splines of given degree.">
<polygon fill="#bfbfbf" stroke="black" points="0,-33 0,-52 120,-52 120,-33 0,-33"/>
<text text-anchor="middle" x="60" y="-40" font-family="Helvetica,sans-Serif" font-size="10.00">l2projection_1d_trafo</text>
</a>
</g>
</g>
<!-- Node2 -->
<g id="node2" class="node">
<title>Node2</title>
<g id="a_node2"><a xlink:href="namespacesll__m__maxwell__clamped__1d__trafo.html#ab986817050b6cdd5d74964707ba00f28" target="_top" xlink:title="Compute the FEM right&#45;hand&#45;side for a given function f and clamped splines of given degree Its compon...">
<polygon fill="white" stroke="black" points="156,-33 156,-52 291,-52 291,-33 156,-33"/>
<text text-anchor="middle" x="223.5" y="-40" font-family="Helvetica,sans-Serif" font-size="10.00">sll_s_compute_rhs_trafo</text>
</a>
</g>
</g>
<!-- Node1&#45;&gt;Node2 -->
<g id="edge1" class="edge">
<title>Node1&#45;&gt;Node2</title>
<path fill="none" stroke="midnightblue" d="M120.22,-42.5C128.57,-42.5 137.24,-42.5 145.86,-42.5"/>
<polygon fill="midnightblue" stroke="midnightblue" points="145.92,-46 155.92,-42.5 145.92,-39 145.92,-46"/>
</g>
<!-- Node3 -->
<g id="node3" class="node">
<title>Node3</title>
<g id="a_node3"><a xlink:href="namespacesll__m__gauss__legendre__integration.html#a0df63a9e8ee884c2d4a0d1f53602a949" target="_top" xlink:title="Returns a 2d array of size (2,npoints) containing gauss&#45;legendre points and weights in the interval [...">
<polygon fill="white" stroke="black" points="327,-50 327,-91 494,-91 494,-50 327,-50"/>
<text text-anchor="start" x="335" y="-79" font-family="Helvetica,sans-Serif" font-size="10.00">sll_m_gauss_legendre</text>
<text text-anchor="start" x="335" y="-68" font-family="Helvetica,sans-Serif" font-size="10.00">_integration::sll_f_gauss</text>
<text text-anchor="middle" x="410.5" y="-57" font-family="Helvetica,sans-Serif" font-size="10.00">_legendre_points_and_weights</text>
</a>
</g>
</g>
<!-- Node2&#45;&gt;Node3 -->
<g id="edge2" class="edge">
<title>Node2&#45;&gt;Node3</title>
<path fill="none" stroke="midnightblue" d="M287.39,-52.02C296.9,-53.46 306.87,-54.97 316.84,-56.48"/>
<polygon fill="midnightblue" stroke="midnightblue" points="316.39,-59.95 326.8,-57.98 317.44,-53.03 316.39,-59.95"/>
</g>
<!-- Node4 -->
<g id="node4" class="node">
<title>Node4</title>
<g id="a_node4"><a xlink:href="namespacesll__m__splines__pp.html#ab63c3a25b861ed9b8701ae2f65942bcf" target="_top" xlink:title="Perform a 1d hornerschema on the pp_coeffs at index.">
<polygon fill="white" stroke="black" points="345,-0.5 345,-30.5 476,-30.5 476,-0.5 345,-0.5"/>
<text text-anchor="start" x="353" y="-18.5" font-family="Helvetica,sans-Serif" font-size="10.00">sll_m_splines_pp::sll</text>
<text text-anchor="middle" x="410.5" y="-7.5" font-family="Helvetica,sans-Serif" font-size="10.00">_f_spline_pp_horner_1d</text>
</a>
</g>
</g>
<!-- Node2&#45;&gt;Node4 -->
<g id="edge3" class="edge">
<title>Node2&#45;&gt;Node4</title>
<path fill="none" stroke="midnightblue" d="M289.72,-32.98C304.26,-30.86 319.79,-28.59 334.68,-26.42"/>
<polygon fill="midnightblue" stroke="midnightblue" points="335.48,-29.84 344.86,-24.93 334.46,-22.91 335.48,-29.84"/>
</g>
</g>
</svg>
