<?xml version="1.0" encoding="UTF-8" standalone="no"?>
<!DOCTYPE svg PUBLIC "-//W3C//DTD SVG 1.1//EN"
 "http://www.w3.org/Graphics/SVG/1.1/DTD/svg11.dtd">
<!-- Generated by graphviz version 2.43.0 (0)
 -->
<!-- Title: sll_f_cells_to_origin Pages: 1 -->
<svg width="1026pt" height="662pt"
 viewBox="0.00 0.00 1026.00 661.50" xmlns="http://www.w3.org/2000/svg" xmlns:xlink="http://www.w3.org/1999/xlink">
<g id="graph0" class="graph" transform="scale(1 1) rotate(0) translate(4 657.5)">
<title>sll_f_cells_to_origin</title>
<polygon fill="white" stroke="transparent" points="-4,4 -4,-657.5 1022,-657.5 1022,4 -4,4"/>
<!-- Node1 -->
<g id="node1" class="node">
<title>Node1</title>
<g id="a_node1"><a xlink:title="Computes the number of cell from point to origin.">
<polygon fill="#bfbfbf" stroke="black" points="905,-126 905,-145 1018,-145 1018,-126 905,-126"/>
<text text-anchor="middle" x="961.5" y="-133" font-family="Helvetica,sans-Serif" font-size="10.00">sll_f_cells_to_origin</text>
</a>
</g>
</g>
<!-- Node2 -->
<g id="node2" class="node">
<title>Node2</title>
<g id="a_node2"><a xlink:href="namespacesll__m__hexagonal__meshes.html#a9500c710f1292a6d8caca2f486e6c338" target="_top" xlink:title="Computes the type of triangle of a given cell.">
<polygon fill="white" stroke="black" points="588.5,-623 588.5,-642 649.5,-642 649.5,-623 588.5,-623"/>
<text text-anchor="middle" x="619" y="-630" font-family="Helvetica,sans-Serif" font-size="10.00">cell_type</text>
</a>
</g>
</g>
<!-- Node1&#45;&gt;Node2 -->
<g id="edge1" class="edge">
<title>Node1&#45;&gt;Node2</title>
<path fill="none" stroke="midnightblue" d="M959.04,-155.5C953.02,-232.5 927.61,-508.5 869,-569.5 810.46,-630.43 702.15,-635.68 649.83,-634.29"/>
<polygon fill="midnightblue" stroke="midnightblue" points="962.55,-155.51 959.82,-145.27 955.57,-154.98 962.55,-155.51"/>
</g>
<!-- Node3 -->
<g id="node3" class="node">
<title>Node3</title>
<g id="a_node3"><a xlink:href="namespacesll__m__hexagonal__meshes.html#a02d44843f8880a39c5acc7c70bb7c628" target="_top" xlink:title="Computes the coordinate transformation hex&#45;&gt;aligned for a point.">
<polygon fill="white" stroke="black" points="740.5,-88 740.5,-107 846.5,-107 846.5,-88 740.5,-88"/>
<text text-anchor="middle" x="793.5" y="-95" font-family="Helvetica,sans-Serif" font-size="10.00">hex_to_aligned_pt</text>
</a>
</g>
</g>
<!-- Node1&#45;&gt;Node3 -->
<g id="edge2" class="edge">
<title>Node1&#45;&gt;Node3</title>
<path fill="none" stroke="midnightblue" d="M908.85,-123.68C885.44,-118.32 858.14,-112.07 836.09,-107.02"/>
<polygon fill="midnightblue" stroke="midnightblue" points="908.08,-127.09 918.61,-125.91 909.64,-120.27 908.08,-127.09"/>
</g>
<!-- Node4 -->
<g id="node4" class="node">
<title>Node4</title>
<g id="a_node4"><a xlink:href="namespacesll__m__hexagonal__meshes.html#a4f66e0c718eda16377ca26d5c95b419f" target="_top" xlink:title="Transform hexagonal coordinates to global index.">
<polygon fill="white" stroke="black" points="751,-541 751,-560 836,-560 836,-541 751,-541"/>
<text text-anchor="middle" x="793.5" y="-548" font-family="Helvetica,sans-Serif" font-size="10.00">hex_to_global</text>
</a>
</g>
</g>
<!-- Node1&#45;&gt;Node4 -->
<g id="edge3" class="edge">
<title>Node1&#45;&gt;Node4</title>
<path fill="none" stroke="midnightblue" d="M952.8,-154.75C923.51,-227.98 819.62,-487.7 798.33,-540.93"/>
<polygon fill="midnightblue" stroke="midnightblue" points="956.1,-155.93 956.56,-145.35 949.6,-153.33 956.1,-155.93"/>
</g>
<!-- Node14 -->
<g id="node14" class="node">
<title>Node14</title>
<g id="a_node14"><a xlink:href="namespacesll__m__hexagonal__meshes.html#a8a40f8d23b9b32726f74fe4ff6d89043" target="_top" xlink:title="Function that allows to change from the current element notation to one more intuitive.">
<polygon fill="white" stroke="black" points="376.5,-164.5 376.5,-194.5 504.5,-194.5 504.5,-164.5 376.5,-164.5"/>
<text text-anchor="start" x="384.5" y="-182.5" font-family="Helvetica,sans-Serif" font-size="10.00">sll_f_change_elements</text>
<text text-anchor="middle" x="440.5" y="-171.5" font-family="Helvetica,sans-Serif" font-size="10.00">_notation</text>
</a>
</g>
</g>
<!-- Node1&#45;&gt;Node14 -->
<g id="edge28" class="edge">
<title>Node1&#45;&gt;Node14</title>
<path fill="none" stroke="midnightblue" d="M894.85,-146.21C886.17,-147.43 877.38,-148.57 869,-149.5 739.97,-163.87 588.21,-172.59 504.66,-176.68"/>
<polygon fill="midnightblue" stroke="midnightblue" points="895.56,-149.64 904.95,-144.74 894.55,-142.71 895.56,-149.64"/>
</g>
<!-- Node15 -->
<g id="node15" class="node">
<title>Node15</title>
<g id="a_node15"><a xlink:href="namespacesll__m__hexagonal__meshes.html#a99a1f6a0f986b08021d2c0f336ba4aef" target="_top" xlink:title="Writes files for CAID.">
<polygon fill="white" stroke="black" points="198.5,-170 198.5,-189 317.5,-189 317.5,-170 198.5,-170"/>
<text text-anchor="middle" x="258" y="-177" font-family="Helvetica,sans-Serif" font-size="10.00">sll_s_write_caid_files</text>
</a>
</g>
</g>
<!-- Node1&#45;&gt;Node15 -->
<g id="edge30" class="edge">
<title>Node1&#45;&gt;Node15</title>
<path fill="none" stroke="midnightblue" d="M894.79,-133.13C784.08,-130.12 553.59,-128.14 361,-154.5 337.16,-157.76 310.78,-164.31 290.83,-169.88"/>
<polygon fill="midnightblue" stroke="midnightblue" points="894.71,-136.63 904.8,-133.41 894.9,-129.63 894.71,-136.63"/>
</g>
<!-- Node21 -->
<g id="node21" class="node">
<title>Node21</title>
<g id="a_node21"><a xlink:href="namespacesll__m__hexagonal__meshes.html#a573eb27f8227cab55d6d15f438232e44" target="_top" xlink:title="Same as sll_f_local_to_global but taking hexagonal coordinates as reference indexing.">
<polygon fill="white" stroke="black" points="737,-50 737,-69 850,-69 850,-50 737,-50"/>
<text text-anchor="middle" x="793.5" y="-57" font-family="Helvetica,sans-Serif" font-size="10.00">local_hex_to_global</text>
</a>
</g>
</g>
<!-- Node1&#45;&gt;Node21 -->
<g id="edge27" class="edge">
<title>Node1&#45;&gt;Node21</title>
<path fill="none" stroke="midnightblue" d="M939.36,-119.69C921.44,-106.97 894.65,-89.45 869,-78.5 860.28,-74.78 850.67,-71.66 841.33,-69.1"/>
<polygon fill="midnightblue" stroke="midnightblue" points="937.71,-122.82 947.86,-125.85 941.82,-117.15 937.71,-122.82"/>
</g>
<!-- Node22 -->
<g id="node22" class="node">
<title>Node22</title>
<g id="a_node22"><a xlink:href="namespacesll__m__box__splines.html#a22194490adc78c1d67ab8345417700f8" target="_top" xlink:title="Interpolates on point of cartesian coordinates (x1, x2)">
<polygon fill="white" stroke="black" points="718,-0.5 718,-30.5 869,-30.5 869,-0.5 718,-0.5"/>
<text text-anchor="start" x="726" y="-18.5" font-family="Helvetica,sans-Serif" font-size="10.00">sll_m_box_splines::</text>
<text text-anchor="middle" x="793.5" y="-7.5" font-family="Helvetica,sans-Serif" font-size="10.00">sll_f_hex_interpolate_value</text>
</a>
</g>
</g>
<!-- Node1&#45;&gt;Node22 -->
<g id="edge29" class="edge">
<title>Node1&#45;&gt;Node22</title>
<path fill="none" stroke="midnightblue" d="M947.78,-117.82C931.67,-96.63 902.02,-61.39 869,-40.5 863,-36.71 856.37,-33.42 849.61,-30.6"/>
<polygon fill="midnightblue" stroke="midnightblue" points="945.05,-120.01 953.82,-125.95 950.67,-115.84 945.05,-120.01"/>
</g>
<!-- Node4&#45;&gt;Node2 -->
<g id="edge4" class="edge">
<title>Node4&#45;&gt;Node2</title>
<path fill="none" stroke="midnightblue" d="M769.46,-565.64C747.63,-579.5 713.57,-599.86 682,-613.5 671.77,-617.92 660.18,-621.76 649.81,-624.81"/>
<polygon fill="midnightblue" stroke="midnightblue" points="771.5,-568.49 778.03,-560.14 767.72,-562.6 771.5,-568.49"/>
</g>
<!-- Node5 -->
<g id="node5" class="node">
<title>Node5</title>
<g id="a_node5"><a xlink:href="namespacesll__m__hexagonal__meshes.html#aa579f5999884452ce000e206a88dc6b7" target="_top" xlink:title="Returns indices of the edges of a given cell.">
<polygon fill="white" stroke="black" points="556,-432.5 556,-462.5 682,-462.5 682,-432.5 556,-432.5"/>
<text text-anchor="start" x="564" y="-450.5" font-family="Helvetica,sans-Serif" font-size="10.00">sll_s_get_cell_vertices</text>
<text text-anchor="middle" x="619" y="-439.5" font-family="Helvetica,sans-Serif" font-size="10.00">_index</text>
</a>
</g>
</g>
<!-- Node4&#45;&gt;Node5 -->
<g id="edge5" class="edge">
<title>Node4&#45;&gt;Node5</title>
<path fill="none" stroke="midnightblue" d="M767.68,-535.68C735.07,-516.21 678.1,-482.19 645.27,-462.59"/>
<polygon fill="midnightblue" stroke="midnightblue" points="766.2,-538.87 776.58,-540.99 769.79,-532.86 766.2,-538.87"/>
</g>
<!-- Node19 -->
<g id="node19" class="node">
<title>Node19</title>
<g id="a_node19"><a xlink:href="namespacesll__m__hexagonal__meshes.html#af2731e5fc29368fa0de959f672507c5a" target="_top" xlink:title="&lt;BRIEF_DESCRIPTION&gt;">
<polygon fill="white" stroke="black" points="558.5,-585 558.5,-604 679.5,-604 679.5,-585 558.5,-585"/>
<text text-anchor="middle" x="619" y="-592" font-family="Helvetica,sans-Serif" font-size="10.00">sll_s_get_edge_index</text>
</a>
</g>
</g>
<!-- Node4&#45;&gt;Node19 -->
<g id="edge22" class="edge">
<title>Node4&#45;&gt;Node19</title>
<path fill="none" stroke="midnightblue" d="M745.21,-562.56C717.55,-569.62 683.11,-578.4 657.36,-584.97"/>
<polygon fill="midnightblue" stroke="midnightblue" points="746.25,-565.91 755.07,-560.05 744.52,-559.13 746.25,-565.91"/>
</g>
<!-- Node20 -->
<g id="node20" class="node">
<title>Node20</title>
<g id="a_node20"><a xlink:href="namespacesll__m__hexagonal__meshes.html#a0770cf59d8b43bdb276ef0be796ad405" target="_top" xlink:title="Given a mesh point and the first cartesian coordinate of a point (that is not on the mesh) we return ...">
<polygon fill="white" stroke="black" points="568,-535.5 568,-565.5 670,-565.5 670,-535.5 568,-535.5"/>
<text text-anchor="start" x="576" y="-553.5" font-family="Helvetica,sans-Serif" font-size="10.00">sll_s_get_triangle</text>
<text text-anchor="middle" x="619" y="-542.5" font-family="Helvetica,sans-Serif" font-size="10.00">_index</text>
</a>
</g>
</g>
<!-- Node4&#45;&gt;Node20 -->
<g id="edge24" class="edge">
<title>Node4&#45;&gt;Node20</title>
<path fill="none" stroke="midnightblue" d="M740.47,-550.5C718.22,-550.5 692.34,-550.5 670.28,-550.5"/>
<polygon fill="midnightblue" stroke="midnightblue" points="740.74,-554 750.74,-550.5 740.74,-547 740.74,-554"/>
</g>
<!-- Node6 -->
<g id="node6" class="node">
<title>Node6</title>
<g id="a_node6"><a xlink:href="namespacesll__m__hexagonal__meshes.html#a5f174ae37e2084780d052402428340f8" target="_top" xlink:title="returns the indices of the neighbouring cells/triangles">
<polygon fill="white" stroke="black" points="394.5,-574 394.5,-593 486.5,-593 486.5,-574 394.5,-574"/>
<text text-anchor="middle" x="440.5" y="-581" font-family="Helvetica,sans-Serif" font-size="10.00">get_neighbours</text>
</a>
</g>
</g>
<!-- Node5&#45;&gt;Node6 -->
<g id="edge6" class="edge">
<title>Node5&#45;&gt;Node6</title>
<path fill="none" stroke="midnightblue" d="M599.86,-470.69C574.43,-502.97 530.13,-558.21 520,-564.5 509.99,-570.71 498.1,-574.89 486.64,-577.71"/>
<polygon fill="midnightblue" stroke="midnightblue" points="602.76,-472.66 606.19,-462.64 597.26,-468.34 602.76,-472.66"/>
</g>
<!-- Node7 -->
<g id="node7" class="node">
<title>Node7</title>
<g id="a_node7"><a xlink:href="namespacesll__m__hexagonal__meshes.html#a848cd2dc313a3701da4517ca97a4ae37" target="_top" xlink:title="Computes the coordinate transformation hex&#45;&gt;aligned for an element.">
<polygon fill="white" stroke="black" points="381,-372 381,-391 500,-391 500,-372 381,-372"/>
<text text-anchor="middle" x="440.5" y="-379" font-family="Helvetica,sans-Serif" font-size="10.00">hex_to_aligned_elmt</text>
</a>
</g>
</g>
<!-- Node5&#45;&gt;Node7 -->
<g id="edge7" class="edge">
<title>Node5&#45;&gt;Node7</title>
<path fill="none" stroke="midnightblue" d="M580.46,-427.83C562.5,-418.96 540.49,-408.84 520,-401.5 508.88,-397.51 496.6,-393.99 485.13,-391.06"/>
<polygon fill="midnightblue" stroke="midnightblue" points="578.94,-430.99 589.45,-432.34 582.08,-424.73 578.94,-430.99"/>
</g>
<!-- Node8 -->
<g id="node8" class="node">
<title>Node8</title>
<g id="a_node8"><a xlink:href="namespacesll__m__triangular__meshes.html#a360e0a6483af779b0c50e4b84bfc377b" target="_top" xlink:title="allocates the memory space for a new 2D triangular mesh on the heap, initializes it with the given he...">
<polygon fill="white" stroke="black" points="371,-312 371,-353 510,-353 510,-312 371,-312"/>
<text text-anchor="start" x="379" y="-341" font-family="Helvetica,sans-Serif" font-size="10.00">sll_m_triangular_meshes</text>
<text text-anchor="start" x="379" y="-330" font-family="Helvetica,sans-Serif" font-size="10.00">::new_triangular_mesh</text>
<text text-anchor="middle" x="440.5" y="-319" font-family="Helvetica,sans-Serif" font-size="10.00">_2d_from_hex_mesh</text>
</a>
</g>
</g>
<!-- Node5&#45;&gt;Node8 -->
<g id="edge8" class="edge">
<title>Node5&#45;&gt;Node8</title>
<path fill="none" stroke="midnightblue" d="M596.6,-424.97C577.84,-406.24 549.08,-379.92 520,-362.5 514.37,-359.13 508.29,-356.01 502.1,-353.17"/>
<polygon fill="midnightblue" stroke="midnightblue" points="594.49,-427.81 604,-432.48 599.48,-422.9 594.49,-427.81"/>
</g>
<!-- Node9 -->
<g id="node9" class="node">
<title>Node9</title>
<g id="a_node9"><a xlink:href="namespacesll__m__box__splines.html#a9ac06b8c624fbc68a93fe53f82402001" target="_top" xlink:title="Computes indices of non null splines on a given cell.">
<polygon fill="white" stroke="black" points="384.5,-410.5 384.5,-440.5 496.5,-440.5 496.5,-410.5 384.5,-410.5"/>
<text text-anchor="start" x="392.5" y="-428.5" font-family="Helvetica,sans-Serif" font-size="10.00">sll_m_box_splines::</text>
<text text-anchor="middle" x="440.5" y="-417.5" font-family="Helvetica,sans-Serif" font-size="10.00">non_zeros_splines</text>
</a>
</g>
</g>
<!-- Node5&#45;&gt;Node9 -->
<g id="edge9" class="edge">
<title>Node5&#45;&gt;Node9</title>
<path fill="none" stroke="midnightblue" d="M545.7,-438.49C529.34,-436.45 512.23,-434.32 496.7,-432.38"/>
<polygon fill="midnightblue" stroke="midnightblue" points="545.42,-441.98 555.77,-439.74 546.28,-435.03 545.42,-441.98"/>
</g>
<!-- Node12 -->
<g id="node12" class="node">
<title>Node12</title>
<g id="a_node12"><a xlink:href="namespacesll__m__interpolation__hex__hermite.html#a9798c5acbe2996e930f4e51dee4b41ad" target="_top" xlink:title=" ">
<polygon fill="white" stroke="black" points="361,-252 361,-293 520,-293 520,-252 361,-252"/>
<text text-anchor="start" x="369" y="-281" font-family="Helvetica,sans-Serif" font-size="10.00">sll_m_interpolation</text>
<text text-anchor="start" x="369" y="-270" font-family="Helvetica,sans-Serif" font-size="10.00">_hex_hermite::reconstruction</text>
<text text-anchor="middle" x="440.5" y="-259" font-family="Helvetica,sans-Serif" font-size="10.00">_center_values</text>
</a>
</g>
</g>
<!-- Node5&#45;&gt;Node12 -->
<g id="edge12" class="edge">
<title>Node5&#45;&gt;Node12</title>
<path fill="none" stroke="midnightblue" d="M607.26,-423.01C592.12,-391.11 561.63,-335.53 520,-302.5 515.66,-299.05 510.87,-295.97 505.88,-293.22"/>
<polygon fill="midnightblue" stroke="midnightblue" points="604.09,-424.49 611.46,-432.1 610.44,-421.55 604.09,-424.49"/>
</g>
<!-- Node13 -->
<g id="node13" class="node">
<title>Node13</title>
<g id="a_node13"><a xlink:href="namespacesll__m__hexagonal__meshes.html#a8fe8a1166a36d227d208c7badbc73cf6" target="_top" xlink:title="Computes the coordinate transformation ref&#45;&gt;hex for an element.">
<polygon fill="white" stroke="black" points="392.5,-536 392.5,-555 488.5,-555 488.5,-536 392.5,-536"/>
<text text-anchor="middle" x="440.5" y="-543" font-family="Helvetica,sans-Serif" font-size="10.00">ref_to_hex_elmt</text>
</a>
</g>
</g>
<!-- Node5&#45;&gt;Node13 -->
<g id="edge13" class="edge">
<title>Node5&#45;&gt;Node13</title>
<path fill="none" stroke="midnightblue" d="M596.16,-469.91C577.52,-487.79 549.16,-512.13 520,-526.5 510.32,-531.27 499.36,-534.89 488.76,-537.62"/>
<polygon fill="midnightblue" stroke="midnightblue" points="598.84,-472.19 603.53,-462.7 593.94,-467.19 598.84,-472.19"/>
</g>
<!-- Node5&#45;&gt;Node14 -->
<g id="edge14" class="edge">
<title>Node5&#45;&gt;Node14</title>
<path fill="none" stroke="midnightblue" d="M614.33,-422.27C606.09,-374.37 581.75,-269.69 520,-209.5 513.73,-203.39 506.09,-198.5 498.06,-194.58"/>
<polygon fill="midnightblue" stroke="midnightblue" points="610.92,-423.07 615.98,-432.38 617.83,-421.95 610.92,-423.07"/>
</g>
<!-- Node5&#45;&gt;Node15 -->
<g id="edge19" class="edge">
<title>Node5&#45;&gt;Node15</title>
<path fill="none" stroke="midnightblue" d="M613.29,-422.34C603.76,-378.75 577.98,-289.36 520,-242.5 463.49,-196.83 431.62,-221.59 361,-204.5 340.09,-199.44 316.78,-193.73 297.74,-189.05"/>
<polygon fill="midnightblue" stroke="midnightblue" points="609.91,-423.3 615.37,-432.39 616.77,-421.88 609.91,-423.3"/>
</g>
<!-- Node16 -->
<g id="node16" class="node">
<title>Node16</title>
<g id="a_node16"><a xlink:href="namespacesll__m__interpolation__hex__hermite.html#a9c14ed4e8a770ba4a9e08cad03cc614f" target="_top" xlink:title=" ">
<polygon fill="white" stroke="black" points="376.5,-612 376.5,-653 504.5,-653 504.5,-612 376.5,-612"/>
<text text-anchor="start" x="384.5" y="-641" font-family="Helvetica,sans-Serif" font-size="10.00">sll_m_interpolation</text>
<text text-anchor="start" x="384.5" y="-630" font-family="Helvetica,sans-Serif" font-size="10.00">_hex_hermite::sll_s</text>
<text text-anchor="middle" x="440.5" y="-619" font-family="Helvetica,sans-Serif" font-size="10.00">_hermite_interpolation</text>
</a>
</g>
</g>
<!-- Node5&#45;&gt;Node16 -->
<g id="edge18" class="edge">
<title>Node5&#45;&gt;Node16</title>
<path fill="none" stroke="midnightblue" d="M597.6,-470.63C584.74,-485.87 568.3,-506.61 556,-526.5 536.34,-558.29 547.43,-577.11 520,-602.5 515.4,-606.76 510.12,-610.44 504.54,-613.6"/>
<polygon fill="midnightblue" stroke="midnightblue" points="600.48,-472.65 604.32,-462.78 595.16,-468.1 600.48,-472.65"/>
</g>
<!-- Node17 -->
<g id="node17" class="node">
<title>Node17</title>
<g id="a_node17"><a xlink:href="namespacesll__m__hexagonal__meshes.html#ad56d527a56b58b123d7351fec84cfd30" target="_top" xlink:title="Same as write_field_hex_mesh but output in xmf.">
<polygon fill="white" stroke="black" points="366.5,-498 366.5,-517 514.5,-517 514.5,-498 366.5,-498"/>
<text text-anchor="middle" x="440.5" y="-505" font-family="Helvetica,sans-Serif" font-size="10.00">write_field_hex_mesh_xmf</text>
</a>
</g>
</g>
<!-- Node5&#45;&gt;Node17 -->
<g id="edge20" class="edge">
<title>Node5&#45;&gt;Node17</title>
<path fill="none" stroke="midnightblue" d="M576.18,-466.72C559.01,-474.16 538.78,-482.34 520,-488.5 509.21,-492.04 497.39,-495.24 486.27,-497.96"/>
<polygon fill="midnightblue" stroke="midnightblue" points="577.63,-469.9 585.38,-462.68 574.82,-463.5 577.63,-469.9"/>
</g>
<!-- Node18 -->
<g id="node18" class="node">
<title>Node18</title>
<g id="a_node18"><a xlink:href="namespacesll__m__hexagonal__meshes.html#a28202f1cd07426e9c2b838e2d30281ec" target="_top" xlink:title="Same as write_hex_mesh but output is mtv file.">
<polygon fill="white" stroke="black" points="379.5,-460 379.5,-479 501.5,-479 501.5,-460 379.5,-460"/>
<text text-anchor="middle" x="440.5" y="-467" font-family="Helvetica,sans-Serif" font-size="10.00">write_hex_mesh_mtv</text>
</a>
</g>
</g>
<!-- Node5&#45;&gt;Node18 -->
<g id="edge21" class="edge">
<title>Node5&#45;&gt;Node18</title>
<path fill="none" stroke="midnightblue" d="M545.75,-456.51C531.11,-458.33 515.86,-460.23 501.68,-462"/>
<polygon fill="midnightblue" stroke="midnightblue" points="546.28,-459.97 555.77,-455.26 545.42,-453.02 546.28,-459.97"/>
</g>
<!-- Node10 -->
<g id="node10" class="node">
<title>Node10</title>
<g id="a_node10"><a xlink:href="namespacesll__m__box__splines.html#a0c9a0bd0c7da4d792500caf130c3ddd0" target="_top" xlink:title="Writes connectivity for CAID / DJANGO.">
<polygon fill="white" stroke="black" points="191,-208.5 191,-238.5 325,-238.5 325,-208.5 191,-208.5"/>
<text text-anchor="start" x="199" y="-226.5" font-family="Helvetica,sans-Serif" font-size="10.00">sll_m_box_splines::</text>
<text text-anchor="middle" x="258" y="-215.5" font-family="Helvetica,sans-Serif" font-size="10.00">sll_s_write_connectivity</text>
</a>
</g>
</g>
<!-- Node9&#45;&gt;Node10 -->
<g id="edge10" class="edge">
<title>Node9&#45;&gt;Node10</title>
<path fill="none" stroke="midnightblue" d="M375.18,-409.56C370.12,-406.97 365.32,-403.98 361,-400.5 305.62,-355.89 274.42,-272.58 263.5,-238.56"/>
<polygon fill="midnightblue" stroke="midnightblue" points="373.93,-412.83 384.48,-413.77 376.82,-406.46 373.93,-412.83"/>
</g>
<!-- Node11 -->
<g id="node11" class="node">
<title>Node11</title>
<g id="a_node11"><a xlink:href="namespacesll__m__fekete__integration.html#adceb8456a1011a2bb4dcecfd28374463" target="_top" xlink:title="This function is supposed to write all django input files needed for a Django/Jorek simulation.">
<polygon fill="white" stroke="black" points="0,-186.5 0,-216.5 155,-216.5 155,-186.5 0,-186.5"/>
<text text-anchor="start" x="8" y="-204.5" font-family="Helvetica,sans-Serif" font-size="10.00">sll_m_fekete_integration</text>
<text text-anchor="middle" x="77.5" y="-193.5" font-family="Helvetica,sans-Serif" font-size="10.00">::sll_s_write_all_django_files</text>
</a>
</g>
</g>
<!-- Node10&#45;&gt;Node11 -->
<g id="edge11" class="edge">
<title>Node10&#45;&gt;Node11</title>
<path fill="none" stroke="midnightblue" d="M180.6,-214.08C172.17,-213.04 163.58,-211.99 155.15,-210.95"/>
<polygon fill="midnightblue" stroke="midnightblue" points="180.43,-217.59 190.79,-215.34 181.29,-210.64 180.43,-217.59"/>
</g>
<!-- Node14&#45;&gt;Node10 -->
<g id="edge17" class="edge">
<title>Node14&#45;&gt;Node10</title>
<path fill="none" stroke="midnightblue" d="M367.77,-196.99C352.17,-200.79 335.81,-204.78 320.64,-208.47"/>
<polygon fill="midnightblue" stroke="midnightblue" points="369,-200.29 377.89,-194.52 367.34,-193.49 369,-200.29"/>
</g>
<!-- Node14&#45;&gt;Node15 -->
<g id="edge15" class="edge">
<title>Node14&#45;&gt;Node15</title>
<path fill="none" stroke="midnightblue" d="M365.92,-179.5C349.81,-179.5 332.98,-179.5 317.56,-179.5"/>
<polygon fill="midnightblue" stroke="midnightblue" points="366.37,-183 376.37,-179.5 366.37,-176 366.37,-183"/>
</g>
<!-- Node15&#45;&gt;Node11 -->
<g id="edge16" class="edge">
<title>Node15&#45;&gt;Node11</title>
<path fill="none" stroke="midnightblue" d="M187.93,-188.01C177.21,-189.33 166.08,-190.71 155.21,-192.05"/>
<polygon fill="midnightblue" stroke="midnightblue" points="188.56,-191.46 198.06,-186.76 187.7,-184.51 188.56,-191.46"/>
</g>
<!-- Node19&#45;&gt;Node16 -->
<g id="edge23" class="edge">
<title>Node19&#45;&gt;Node16</title>
<path fill="none" stroke="midnightblue" d="M563.66,-606.2C545.01,-610.21 523.98,-614.74 504.69,-618.9"/>
<polygon fill="midnightblue" stroke="midnightblue" points="564.42,-609.62 573.46,-604.09 562.95,-602.77 564.42,-609.62"/>
</g>
<!-- Node20&#45;&gt;Node6 -->
<g id="edge25" class="edge">
<title>Node20&#45;&gt;Node6</title>
<path fill="none" stroke="midnightblue" d="M557.76,-561.76C534.45,-566.12 508.24,-571.02 486.61,-575.07"/>
<polygon fill="midnightblue" stroke="midnightblue" points="558.71,-565.15 567.89,-559.87 557.42,-558.27 558.71,-565.15"/>
</g>
<!-- Node20&#45;&gt;Node16 -->
<g id="edge26" class="edge">
<title>Node20&#45;&gt;Node16</title>
<path fill="none" stroke="midnightblue" d="M566.89,-569.85C563.15,-571.65 559.48,-573.54 556,-575.5 538.58,-585.32 537.51,-592.84 520,-602.5 513.87,-605.88 507.28,-609.05 500.61,-611.97"/>
<polygon fill="midnightblue" stroke="midnightblue" points="568.63,-572.91 576.28,-565.58 565.73,-566.54 568.63,-572.91"/>
</g>
</g>
</svg>
