<?xml version="1.0" encoding="UTF-8" standalone="no"?>
<!DOCTYPE svg PUBLIC "-//W3C//DTD SVG 1.1//EN"
 "http://www.w3.org/Graphics/SVG/1.1/DTD/svg11.dtd">
<!-- Generated by graphviz version 2.40.1 (20161225.0304)
 -->
<!-- Title: sll_s_compute_rhs_trafo Pages: 1 -->
<svg width="463pt" height="104pt"
 viewBox="0.00 0.00 463.00 104.00" xmlns="http://www.w3.org/2000/svg" xmlns:xlink="http://www.w3.org/1999/xlink">
<g id="graph0" class="graph" transform="scale(1 1) rotate(0) translate(4 100)">
<title>sll_s_compute_rhs_trafo</title>
<polygon fill="#ffffff" stroke="transparent" points="-4,4 -4,-100 459,-100 459,4 -4,4"/>
<!-- Node120 -->
<g id="node1" class="node">
<title>Node120</title>
<polygon fill="#bfbfbf" stroke="#000000" points="0,-38.5 0,-57.5 135,-57.5 135,-38.5 0,-38.5"/>
<text text-anchor="middle" x="67.5" y="-45.5" font-family="Helvetica,sans-Serif" font-size="10.00" fill="#000000">sll_s_compute_rhs_trafo</text>
</g>
<!-- Node121 -->
<g id="node2" class="node">
<title>Node121</title>
<g id="a_node2"><a xlink:href="namespacesll__m__maxwell__clamped__3d__trafo.html#af2653553d1afd8da9f26a8c3a5b2951b" target="_top" xlink:title="Compute $ f(F()) N_i() J_F() d$ for scalar function f, where $N_i$ is the B&#45;spline starting at $$...">
<polygon fill="#ffffff" stroke="#000000" points="171,-76.5 171,-95.5 252,-95.5 252,-76.5 171,-76.5"/>
<text text-anchor="middle" x="211.5" y="-83.5" font-family="Helvetica,sans-Serif" font-size="10.00" fill="#000000">rhs_zeroform</text>
</a>
</g>
</g>
<!-- Node120&#45;&gt;Node121 -->
<g id="edge1" class="edge">
<title>Node120&#45;&gt;Node121</title>
<path fill="none" stroke="#191970" d="M103.8373,-57.589C122.5829,-62.5358 145.6432,-68.6211 165.6066,-73.8892"/>
<polygon fill="#191970" stroke="#191970" points="164.8619,-77.3125 175.424,-76.4799 166.6481,-70.5442 164.8619,-77.3125"/>
</g>
<!-- Node124 -->
<g id="node5" class="node">
<title>Node124</title>
<g id="a_node5"><a xlink:href="namespacesll__m__maxwell__clamped__3d__trafo.html#a71a524ca70b999780b92f0dda27a513a" target="_top" xlink:title="Compute $ f(F()) DF^{&#45;T}() N_i() J_F() d$ for vector function f, where $N_i$ is the B&#45;spline starting...">
<polygon fill="#ffffff" stroke="#000000" points="172.5,-38.5 172.5,-57.5 250.5,-57.5 250.5,-38.5 172.5,-38.5"/>
<text text-anchor="middle" x="211.5" y="-45.5" font-family="Helvetica,sans-Serif" font-size="10.00" fill="#000000">rhs_oneform</text>
</a>
</g>
</g>
<!-- Node120&#45;&gt;Node124 -->
<g id="edge4" class="edge">
<title>Node120&#45;&gt;Node124</title>
<path fill="none" stroke="#191970" d="M135.2834,-48C144.3072,-48 153.4197,-48 162.0512,-48"/>
<polygon fill="#191970" stroke="#191970" points="162.303,-51.5001 172.303,-48 162.3029,-44.5001 162.303,-51.5001"/>
</g>
<!-- Node125 -->
<g id="node6" class="node">
<title>Node125</title>
<g id="a_node6"><a xlink:href="namespacesll__m__maxwell__clamped__3d__trafo.html#a4e38d2b8074e7fff32088f015ce48e4f" target="_top" xlink:title="Compute $ f(F()) DF() N_i() d$ for vector function f, where $N_i$ is the B&#45;spline starting at $$...">
<polygon fill="#ffffff" stroke="#000000" points="172.5,-.5 172.5,-19.5 250.5,-19.5 250.5,-.5 172.5,-.5"/>
<text text-anchor="middle" x="211.5" y="-7.5" font-family="Helvetica,sans-Serif" font-size="10.00" fill="#000000">rhs_twoform</text>
</a>
</g>
</g>
<!-- Node120&#45;&gt;Node125 -->
<g id="edge7" class="edge">
<title>Node120&#45;&gt;Node125</title>
<path fill="none" stroke="#191970" d="M103.8373,-38.411C122.5829,-33.4642 145.6432,-27.3789 165.6066,-22.1108"/>
<polygon fill="#191970" stroke="#191970" points="166.6481,-25.4558 175.424,-19.5201 164.8619,-18.6875 166.6481,-25.4558"/>
</g>
<!-- Node122 -->
<g id="node3" class="node">
<title>Node122</title>
<g id="a_node3"><a xlink:href="namespacesll__m__gauss__legendre__integration.html#a0df63a9e8ee884c2d4a0d1f53602a949" target="_top" xlink:title="Returns a 2d array of size (2,npoints) containing gauss&#45;legendre points and weights in the interval [...">
<polygon fill="#ffffff" stroke="#000000" points="288,-54.5 288,-95.5 455,-95.5 455,-54.5 288,-54.5"/>
<text text-anchor="start" x="296" y="-83.5" font-family="Helvetica,sans-Serif" font-size="10.00" fill="#000000">sll_m_gauss_legendre</text>
<text text-anchor="start" x="296" y="-72.5" font-family="Helvetica,sans-Serif" font-size="10.00" fill="#000000">_integration::sll_f_gauss</text>
<text text-anchor="middle" x="371.5" y="-61.5" font-family="Helvetica,sans-Serif" font-size="10.00" fill="#000000">_legendre_points_and_weights</text>
</a>
</g>
</g>
<!-- Node121&#45;&gt;Node122 -->
<g id="edge2" class="edge">
<title>Node121&#45;&gt;Node122</title>
<path fill="none" stroke="#191970" d="M252.2887,-83.1958C260.2265,-82.6501 268.8486,-82.0573 277.7032,-81.4485"/>
<polygon fill="#191970" stroke="#191970" points="278.0386,-84.9338 287.775,-80.7561 277.5585,-77.9503 278.0386,-84.9338"/>
</g>
<!-- Node123 -->
<g id="node4" class="node">
<title>Node123</title>
<g id="a_node4"><a xlink:href="namespacesll__m__splines__pp.html#ab63c3a25b861ed9b8701ae2f65942bcf" target="_top" xlink:title="Perform a 1d hornerschema on the pp_coeffs at index. ">
<polygon fill="#ffffff" stroke="#000000" points="306,-5 306,-35 437,-35 437,-5 306,-5"/>
<text text-anchor="start" x="314" y="-23" font-family="Helvetica,sans-Serif" font-size="10.00" fill="#000000">sll_m_splines_pp::sll</text>
<text text-anchor="middle" x="371.5" y="-12" font-family="Helvetica,sans-Serif" font-size="10.00" fill="#000000">_f_spline_pp_horner_1d</text>
</a>
</g>
</g>
<!-- Node121&#45;&gt;Node123 -->
<g id="edge3" class="edge">
<title>Node121&#45;&gt;Node123</title>
<path fill="none" stroke="#191970" d="M233.157,-76.3756C239.3148,-73.4953 245.9813,-70.2382 252,-67 268.5129,-58.1157 270.8765,-52.6413 288,-45 293.3116,-42.6297 298.9106,-40.4076 304.5909,-38.3426"/>
<polygon fill="#191970" stroke="#191970" points="305.8874,-41.5977 314.1909,-35.0173 303.5962,-34.9832 305.8874,-41.5977"/>
</g>
<!-- Node124&#45;&gt;Node122 -->
<g id="edge5" class="edge">
<title>Node124&#45;&gt;Node122</title>
<path fill="none" stroke="#191970" d="M250.6404,-54.6049C259.086,-56.0301 268.3621,-57.5955 277.9041,-59.2057"/>
<polygon fill="#191970" stroke="#191970" points="277.4774,-62.6831 287.9204,-60.8959 278.6423,-55.7807 277.4774,-62.6831"/>
</g>
<!-- Node124&#45;&gt;Node123 -->
<g id="edge6" class="edge">
<title>Node124&#45;&gt;Node123</title>
<path fill="none" stroke="#191970" d="M250.6404,-41.1504C264.3008,-38.7599 280.134,-35.989 295.7506,-33.2561"/>
<polygon fill="#191970" stroke="#191970" points="296.7097,-36.6416 305.9566,-31.4701 295.5029,-29.7464 296.7097,-36.6416"/>
</g>
<!-- Node125&#45;&gt;Node122 -->
<g id="edge8" class="edge">
<title>Node125&#45;&gt;Node122</title>
<path fill="none" stroke="#191970" d="M232.1291,-19.5899C247.4401,-26.6043 268.887,-36.2137 288,-44 293.5045,-46.2424 299.2384,-48.5103 305.0088,-50.7455"/>
<polygon fill="#191970" stroke="#191970" points="304.13,-54.1569 314.7204,-54.466 306.6343,-47.6201 304.13,-54.1569"/>
</g>
<!-- Node125&#45;&gt;Node123 -->
<g id="edge9" class="edge">
<title>Node125&#45;&gt;Node123</title>
<path fill="none" stroke="#191970" d="M250.6404,-12.4463C264.3008,-13.3001 280.134,-14.2896 295.7506,-15.2657"/>
<polygon fill="#191970" stroke="#191970" points="295.7577,-18.7728 305.9566,-15.9035 296.1944,-11.7865 295.7577,-18.7728"/>
</g>
</g>
</svg>
