<?xml version="1.0" encoding="UTF-8" standalone="no"?>
<!DOCTYPE svg PUBLIC "-//W3C//DTD SVG 1.1//EN"
 "http://www.w3.org/Graphics/SVG/1.1/DTD/svg11.dtd">
<!-- Generated by graphviz version 2.38.0 (20140413.2041)
 -->
<!-- Title: todehi1d Pages: 1 -->
<svg width="336pt" height="104pt"
 viewBox="0.00 0.00 336.00 104.00" xmlns="http://www.w3.org/2000/svg" xmlns:xlink="http://www.w3.org/1999/xlink">
<g id="graph0" class="graph" transform="scale(1 1) rotate(0) translate(4 100)">
<title>todehi1d</title>
<polygon fill="white" stroke="none" points="-4,4 -4,-100 332,-100 332,4 -4,4"/>
<!-- Node1 -->
<g id="node1" class="node"><title>Node1</title>
<polygon fill="#bfbfbf" stroke="black" points="0,-38.5 0,-57.5 53,-57.5 53,-38.5 0,-38.5"/>
<text text-anchor="middle" x="26.5" y="-45.5" font-family="Helvetica,sans-Serif" font-size="10.00">todehi1d</text>
</g>
<!-- Node2 -->
<g id="node2" class="node"><title>Node2</title>
<g id="a_node2"><a xlink:href="namespacesll__m__sparse__grid__interpolator.html#a43519e208322b3650a80b3263d4489bd" target="_top" xlink:title="extract_fourier">
<polygon fill="white" stroke="black" points="89,-76.5 89,-95.5 168,-95.5 168,-76.5 89,-76.5"/>
<text text-anchor="middle" x="128.5" y="-83.5" font-family="Helvetica,sans-Serif" font-size="10.00">extract_fourier</text>
</a>
</g>
</g>
<!-- Node1&#45;&gt;Node2 -->
<g id="edge1" class="edge"><title>Node1&#45;&gt;Node2</title>
<path fill="none" stroke="midnightblue" d="M52.7342,-57.589C64.8142,-62.1794 79.4745,-67.7503 92.602,-72.7388"/>
<polygon fill="midnightblue" stroke="midnightblue" points="91.6827,-76.1336 102.274,-76.4141 94.1693,-69.5901 91.6827,-76.1336"/>
</g>
<!-- Node4 -->
<g id="node4" class="node"><title>Node4</title>
<g id="a_node4"><a xlink:href="namespacesll__m__sparse__grid__interpolator.html#a27cde87b7c5bbc4e69a304f0460c9c34" target="_top" xlink:title="dehi">
<polygon fill="white" stroke="black" points="111,-38.5 111,-57.5 146,-57.5 146,-38.5 111,-38.5"/>
<text text-anchor="middle" x="128.5" y="-45.5" font-family="Helvetica,sans-Serif" font-size="10.00">dehi</text>
</a>
</g>
</g>
<!-- Node1&#45;&gt;Node4 -->
<g id="edge3" class="edge"><title>Node1&#45;&gt;Node4</title>
<path fill="none" stroke="midnightblue" d="M53.2525,-48C67.8745,-48 86.147,-48 100.906,-48"/>
<polygon fill="midnightblue" stroke="midnightblue" points="100.929,-51.5001 110.929,-48 100.929,-44.5001 100.929,-51.5001"/>
</g>
<!-- Node5 -->
<g id="node5" class="node"><title>Node5</title>
<g id="a_node5"><a xlink:href="namespacesll__m__sparse__grid__interpolator.html#aad904cb37ec386510d3f63b8818ba2a1" target="_top" xlink:title="insert_fourier">
<polygon fill="white" stroke="black" points="92,-0.5 92,-19.5 165,-19.5 165,-0.5 92,-0.5"/>
<text text-anchor="middle" x="128.5" y="-7.5" font-family="Helvetica,sans-Serif" font-size="10.00">insert_fourier</text>
</a>
</g>
</g>
<!-- Node1&#45;&gt;Node5 -->
<g id="edge4" class="edge"><title>Node1&#45;&gt;Node5</title>
<path fill="none" stroke="midnightblue" d="M52.7342,-38.411C64.8142,-33.8206 79.4745,-28.2497 92.602,-23.2612"/>
<polygon fill="midnightblue" stroke="midnightblue" points="94.1693,-26.4099 102.274,-19.5859 91.6827,-19.8664 94.1693,-26.4099"/>
</g>
<!-- Node3 -->
<g id="node3" class="node"><title>Node3</title>
<g id="a_node3"><a xlink:href="namespacesll__m__sparse__grid__interpolator.html#af7efccbf9f9a03918fea841de55ae8e8" target="_top" xlink:title="extract_recursive_fourier">
<polygon fill="white" stroke="black" points="204,-76.5 204,-95.5 328,-95.5 328,-76.5 204,-76.5"/>
<text text-anchor="middle" x="266" y="-83.5" font-family="Helvetica,sans-Serif" font-size="10.00">extract_recursive_fourier</text>
</a>
</g>
</g>
<!-- Node2&#45;&gt;Node3 -->
<g id="edge2" class="edge"><title>Node2&#45;&gt;Node3</title>
<path fill="none" stroke="midnightblue" d="M168.329,-86C176.31,-86 184.951,-86 193.672,-86"/>
<polygon fill="midnightblue" stroke="midnightblue" points="193.91,-89.5001 203.91,-86 193.91,-82.5001 193.91,-89.5001"/>
</g>
<!-- Node6 -->
<g id="node6" class="node"><title>Node6</title>
<g id="a_node6"><a xlink:href="namespacesll__m__sparse__grid__interpolator.html#a330e536e8349fd8ad5f0d92b18d34bb1" target="_top" xlink:title="insert_recursive_fourier">
<polygon fill="white" stroke="black" points="207,-0.5 207,-19.5 325,-19.5 325,-0.5 207,-0.5"/>
<text text-anchor="middle" x="266" y="-7.5" font-family="Helvetica,sans-Serif" font-size="10.00">insert_recursive_fourier</text>
</a>
</g>
</g>
<!-- Node5&#45;&gt;Node6 -->
<g id="edge5" class="edge"><title>Node5&#45;&gt;Node6</title>
<path fill="none" stroke="midnightblue" d="M165.101,-10C174.886,-10 185.837,-10 196.803,-10"/>
<polygon fill="midnightblue" stroke="midnightblue" points="196.845,-13.5001 206.845,-10 196.845,-6.5001 196.845,-13.5001"/>
</g>
</g>
</svg>
