<?xml version="1.0" encoding="UTF-8" standalone="no"?>
<!DOCTYPE svg PUBLIC "-//W3C//DTD SVG 1.1//EN"
 "http://www.w3.org/Graphics/SVG/1.1/DTD/svg11.dtd">
<!-- Generated by graphviz version 2.40.1 (20161225.0304)
 -->
<!-- Title: sll_f_tensor_product_1d_1d Pages: 1 -->
<svg width="429pt" height="39pt"
 viewBox="0.00 0.00 429.00 39.00" xmlns="http://www.w3.org/2000/svg" xmlns:xlink="http://www.w3.org/1999/xlink">
<g id="graph0" class="graph" transform="scale(1 1) rotate(0) translate(4 35)">
<title>sll_f_tensor_product_1d_1d</title>
<polygon fill="#ffffff" stroke="transparent" points="-4,4 -4,-35 425,-35 425,4 -4,4"/>
<!-- Node101 -->
<g id="node1" class="node">
<title>Node101</title>
<polygon fill="#bfbfbf" stroke="#000000" points="0,-.5 0,-30.5 115,-30.5 115,-.5 0,-.5"/>
<text text-anchor="start" x="8" y="-18.5" font-family="Helvetica,sans-Serif" font-size="10.00" fill="#000000">sll_f_tensor_product</text>
<text text-anchor="middle" x="57.5" y="-7.5" font-family="Helvetica,sans-Serif" font-size="10.00" fill="#000000">_1d_1d</text>
</g>
<!-- Node102 -->
<g id="node2" class="node">
<title>Node102</title>
<g id="a_node2"><a xlink:href="namespacesll__m__cartesian__meshes.html#a47fb939f257f84c12cc40b86a9d0fe11" target="_top" xlink:title="allocates the memory space for a new 2D cartesian mesh on the heap, initializes it with the given arg...">
<polygon fill="#ffffff" stroke="#000000" points="151,-.5 151,-30.5 264,-30.5 264,-.5 151,-.5"/>
<text text-anchor="start" x="159" y="-18.5" font-family="Helvetica,sans-Serif" font-size="10.00" fill="#000000">sll_f_new_cartesian</text>
<text text-anchor="middle" x="207.5" y="-7.5" font-family="Helvetica,sans-Serif" font-size="10.00" fill="#000000">_mesh_2d</text>
</a>
</g>
</g>
<!-- Node101&#45;&gt;Node102 -->
<g id="edge1" class="edge">
<title>Node101&#45;&gt;Node102</title>
<path fill="none" stroke="#191970" d="M115.0649,-15.5C123.4055,-15.5 132.0507,-15.5 140.5561,-15.5"/>
<polygon fill="#191970" stroke="#191970" points="140.8316,-19.0001 150.8315,-15.5 140.8315,-12.0001 140.8316,-19.0001"/>
</g>
<!-- Node103 -->
<g id="node3" class="node">
<title>Node103</title>
<g id="a_node3"><a xlink:href="namespacesll__m__cartesian__meshes.html#ab2d0d888cbfa10e6b2a37a5bcf427ef3" target="_top" xlink:title="initializes a cartesian mesh 2D object that has been already allocated. ">
<polygon fill="#ffffff" stroke="#000000" points="300,-.5 300,-30.5 421,-30.5 421,-.5 300,-.5"/>
<text text-anchor="start" x="308" y="-18.5" font-family="Helvetica,sans-Serif" font-size="10.00" fill="#000000">sll_s_cartesian_mesh</text>
<text text-anchor="middle" x="360.5" y="-7.5" font-family="Helvetica,sans-Serif" font-size="10.00" fill="#000000">_2d_init</text>
</a>
</g>
</g>
<!-- Node102&#45;&gt;Node103 -->
<g id="edge2" class="edge">
<title>Node102&#45;&gt;Node103</title>
<path fill="none" stroke="#191970" d="M264.0369,-15.5C272.419,-15.5 281.145,-15.5 289.7724,-15.5"/>
<polygon fill="#191970" stroke="#191970" points="289.8287,-19.0001 299.8286,-15.5 289.8286,-12.0001 289.8287,-19.0001"/>
</g>
</g>
</svg>
