<?xml version="1.0" encoding="UTF-8" standalone="no"?>
<!DOCTYPE svg PUBLIC "-//W3C//DTD SVG 1.1//EN"
 "http://www.w3.org/Graphics/SVG/1.1/DTD/svg11.dtd">
<!-- Generated by graphviz version 2.40.1 (20161225.0304)
 -->
<!-- Title: assemble_mass Pages: 1 -->
<svg width="479pt" height="284pt"
 viewBox="0.00 0.00 479.00 284.00" xmlns="http://www.w3.org/2000/svg" xmlns:xlink="http://www.w3.org/1999/xlink">
<g id="graph0" class="graph" transform="scale(1 1) rotate(0) translate(4 280)">
<title>assemble_mass</title>
<polygon fill="#ffffff" stroke="transparent" points="-4,4 -4,-280 475,-280 475,4 -4,4"/>
<!-- Node1 -->
<g id="node1" class="node">
<title>Node1</title>
<polygon fill="#bfbfbf" stroke="#000000" points="0,-128 0,-147 95,-147 95,-128 0,-128"/>
<text text-anchor="middle" x="47.5" y="-135" font-family="Helvetica,sans-Serif" font-size="10.00" fill="#000000">assemble_mass</text>
</g>
<!-- Node2 -->
<g id="node2" class="node">
<title>Node2</title>
<g id="a_node2"><a xlink:href="namespacesll__m__spline__fem__utilities__sparse.html#a2003f09f29c8034b9cb433328afaef6b" target="_top" xlink:title="Set up 1d mass matrix (sparsity pattern and values) ">
<polygon fill="#ffffff" stroke="#000000" points="131,-128 131,-147 272,-147 272,-128 131,-128"/>
<text text-anchor="middle" x="201.5" y="-135" font-family="Helvetica,sans-Serif" font-size="10.00" fill="#000000">sll_s_spline_fem_mass1d</text>
</a>
</g>
</g>
<!-- Node1&#45;&gt;Node2 -->
<g id="edge1" class="edge">
<title>Node1&#45;&gt;Node2</title>
<path fill="none" stroke="#191970" d="M105.5943,-137.5C113.8096,-137.5 122.3311,-137.5 130.7521,-137.5"/>
<polygon fill="#191970" stroke="#191970" points="105.3824,-134.0001 95.3824,-137.5 105.3824,-141.0001 105.3824,-134.0001"/>
</g>
<!-- Node3 -->
<g id="node3" class="node">
<title>Node3</title>
<g id="a_node3"><a xlink:href="namespacesll__m__maxwell__1d__fem.html#a5b82c557e498ae59986631d0aea7ed63" target="_top" xlink:title="sll_m_maxwell_1d_fem\l::init_1d_fem">
<polygon fill="#ffffff" stroke="#000000" points="323.5,-245.5 323.5,-275.5 455.5,-275.5 455.5,-245.5 323.5,-245.5"/>
<text text-anchor="start" x="331.5" y="-263.5" font-family="Helvetica,sans-Serif" font-size="10.00" fill="#000000">sll_m_maxwell_1d_fem</text>
<text text-anchor="middle" x="389.5" y="-252.5" font-family="Helvetica,sans-Serif" font-size="10.00" fill="#000000">::init_1d_fem</text>
</a>
</g>
</g>
<!-- Node2&#45;&gt;Node3 -->
<g id="edge2" class="edge">
<title>Node2&#45;&gt;Node3</title>
<path fill="none" stroke="#191970" d="M215.8477,-155.1448C234.7421,-177.2617 270.0423,-214.8851 308,-236.5 314.0243,-239.9305 320.5836,-242.9103 327.2784,-245.4893"/>
<polygon fill="#191970" stroke="#191970" points="218.3255,-152.6521 209.2228,-147.2307 212.9579,-157.1453 218.3255,-152.6521"/>
</g>
<!-- Node4 -->
<g id="node4" class="node">
<title>Node4</title>
<g id="a_node4"><a xlink:href="namespacesll__m__maxwell__1d__fem__sm.html#a45e52ba17b5b5af73732917939909d67" target="_top" xlink:title="Initialization. ">
<polygon fill="#ffffff" stroke="#000000" points="323.5,-196.5 323.5,-226.5 455.5,-226.5 455.5,-196.5 323.5,-196.5"/>
<text text-anchor="start" x="331.5" y="-214.5" font-family="Helvetica,sans-Serif" font-size="10.00" fill="#000000">sll_m_maxwell_1d_fem</text>
<text text-anchor="middle" x="389.5" y="-203.5" font-family="Helvetica,sans-Serif" font-size="10.00" fill="#000000">_sm::init_1d_fem_sm</text>
</a>
</g>
</g>
<!-- Node2&#45;&gt;Node4 -->
<g id="edge3" class="edge">
<title>Node2&#45;&gt;Node4</title>
<path fill="none" stroke="#191970" d="M228.6649,-151.6625C249.8953,-162.3838 280.3432,-177.0058 308,-187.5 316.4123,-190.692 325.443,-193.7255 334.3198,-196.4947"/>
<polygon fill="#191970" stroke="#191970" points="230.1006,-148.4659 219.6021,-147.0399 226.9199,-154.7015 230.1006,-148.4659"/>
</g>
<!-- Node5 -->
<g id="node5" class="node">
<title>Node5</title>
<g id="a_node5"><a xlink:href="namespacesll__m__maxwell__3d__fem.html#ab814bfc0f843c1a2b8fe485351798ca0" target="_top" xlink:title="Initialization. ">
<polygon fill="#ffffff" stroke="#000000" points="323.5,-147.5 323.5,-177.5 455.5,-177.5 455.5,-147.5 323.5,-147.5"/>
<text text-anchor="start" x="331.5" y="-165.5" font-family="Helvetica,sans-Serif" font-size="10.00" fill="#000000">sll_m_maxwell_3d_fem</text>
<text text-anchor="middle" x="389.5" y="-154.5" font-family="Helvetica,sans-Serif" font-size="10.00" fill="#000000">::init_3d_fem</text>
</a>
</g>
</g>
<!-- Node2&#45;&gt;Node5 -->
<g id="edge4" class="edge">
<title>Node2&#45;&gt;Node5</title>
<path fill="none" stroke="#191970" d="M281.9726,-148.2011C295.7343,-150.0312 309.891,-151.9137 323.2296,-153.6874"/>
<polygon fill="#191970" stroke="#191970" points="282.4133,-144.729 272.0391,-146.8802 281.4905,-151.6679 282.4133,-144.729"/>
</g>
<!-- Node6 -->
<g id="node6" class="node">
<title>Node6</title>
<g id="a_node6"><a xlink:href="namespacesll__m__maxwell__3d__fem__fft.html#a8a58004064950f3f15cada7e7c4fb56b" target="_top" xlink:title="Initialization. ">
<polygon fill="#ffffff" stroke="#000000" points="323.5,-98.5 323.5,-128.5 455.5,-128.5 455.5,-98.5 323.5,-98.5"/>
<text text-anchor="start" x="331.5" y="-116.5" font-family="Helvetica,sans-Serif" font-size="10.00" fill="#000000">sll_m_maxwell_3d_fem</text>
<text text-anchor="middle" x="389.5" y="-105.5" font-family="Helvetica,sans-Serif" font-size="10.00" fill="#000000">_fft::init_3d_fem_fft</text>
</a>
</g>
</g>
<!-- Node2&#45;&gt;Node6 -->
<g id="edge5" class="edge">
<title>Node2&#45;&gt;Node6</title>
<path fill="none" stroke="#191970" d="M281.9726,-127.2269C295.7343,-125.4701 309.891,-123.6628 323.2296,-121.9601"/>
<polygon fill="#191970" stroke="#191970" points="281.5154,-123.7568 272.0391,-128.495 282.4019,-130.7004 281.5154,-123.7568"/>
</g>
<!-- Node7 -->
<g id="node7" class="node">
<title>Node7</title>
<g id="a_node7"><a xlink:href="namespacesll__m__maxwell__clamped__1d__fem__sm.html#a400fe28b25203e207ad0786874c32912" target="_top" xlink:title="Initialization. ">
<polygon fill="#ffffff" stroke="#000000" points="308,-49.5 308,-79.5 471,-79.5 471,-49.5 308,-49.5"/>
<text text-anchor="start" x="316" y="-67.5" font-family="Helvetica,sans-Serif" font-size="10.00" fill="#000000">sll_m_maxwell_clamped</text>
<text text-anchor="middle" x="389.5" y="-56.5" font-family="Helvetica,sans-Serif" font-size="10.00" fill="#000000">_1d_fem_sm::init_1d_fem_sm</text>
</a>
</g>
</g>
<!-- Node2&#45;&gt;Node7 -->
<g id="edge6" class="edge">
<title>Node2&#45;&gt;Node7</title>
<path fill="none" stroke="#191970" d="M229.9194,-123.5127C251.1406,-113.359 281.0114,-99.6752 308,-89.5 317.2785,-86.0018 327.2828,-82.6223 336.9973,-79.539"/>
<polygon fill="#191970" stroke="#191970" points="228.3042,-120.4058 220.8192,-127.9042 231.3466,-126.7102 228.3042,-120.4058"/>
</g>
<!-- Node8 -->
<g id="node8" class="node">
<title>Node8</title>
<g id="a_node8"><a xlink:href="namespacesll__m__maxwell__clamped__3d__fem.html#afadba212d3f01a688b12c751068d1707" target="_top" xlink:title="Initialization. ">
<polygon fill="#ffffff" stroke="#000000" points="321,-.5 321,-30.5 458,-30.5 458,-.5 321,-.5"/>
<text text-anchor="start" x="329" y="-18.5" font-family="Helvetica,sans-Serif" font-size="10.00" fill="#000000">sll_m_maxwell_clamped</text>
<text text-anchor="middle" x="389.5" y="-7.5" font-family="Helvetica,sans-Serif" font-size="10.00" fill="#000000">_3d_fem::init_3d_fem</text>
</a>
</g>
</g>
<!-- Node2&#45;&gt;Node8 -->
<g id="edge7" class="edge">
<title>Node2&#45;&gt;Node8</title>
<path fill="none" stroke="#191970" d="M216.2551,-119.9606C235.3403,-98.3325 270.5992,-61.8246 308,-40.5 314.6856,-36.6881 322.0179,-33.3933 329.4583,-30.5627"/>
<polygon fill="#191970" stroke="#191970" points="213.4402,-117.8648 209.5426,-127.7167 218.7332,-122.4457 213.4402,-117.8648"/>
</g>
</g>
</svg>
