<?xml version="1.0" encoding="UTF-8" standalone="no"?>
<!DOCTYPE svg PUBLIC "-//W3C//DTD SVG 1.1//EN"
 "http://www.w3.org/Graphics/SVG/1.1/DTD/svg11.dtd">
<!-- Generated by graphviz version 2.40.1 (20161225.0304)
 -->
<!-- Title: ifft3d Pages: 1 -->
<svg width="231pt" height="66pt"
 viewBox="0.00 0.00 231.00 66.00" xmlns="http://www.w3.org/2000/svg" xmlns:xlink="http://www.w3.org/1999/xlink">
<g id="graph0" class="graph" transform="scale(1 1) rotate(0) translate(4 62)">
<title>ifft3d</title>
<polygon fill="#ffffff" stroke="transparent" points="-4,4 -4,-62 227,-62 227,4 -4,4"/>
<!-- Node16 -->
<g id="node1" class="node">
<title>Node16</title>
<polygon fill="#bfbfbf" stroke="#000000" points="0,-19.5 0,-38.5 42,-38.5 42,-19.5 0,-19.5"/>
<text text-anchor="middle" x="21" y="-26.5" font-family="Helvetica,sans-Serif" font-size="10.00" fill="#000000">ifft3d</text>
</g>
<!-- Node17 -->
<g id="node2" class="node">
<title>Node17</title>
<g id="a_node2"><a xlink:href="namespacesll__m__poisson__3d__fem__fft.html#aff8f1ac9f22f6ddccb4d0f90a99d5ad8" target="_top" xlink:title="compute_e_from_rho_fft">
<polygon fill="#ffffff" stroke="#000000" points="82.5,-38.5 82.5,-57.5 218.5,-57.5 218.5,-38.5 82.5,-38.5"/>
<text text-anchor="middle" x="150.5" y="-45.5" font-family="Helvetica,sans-Serif" font-size="10.00" fill="#000000">compute_e_from_rho_fft</text>
</a>
</g>
</g>
<!-- Node16&#45;&gt;Node17 -->
<g id="edge1" class="edge">
<title>Node16&#45;&gt;Node17</title>
<path fill="none" stroke="#191970" d="M52.0312,-33.5528C62.1574,-35.0385 73.8095,-36.7481 85.4736,-38.4594"/>
<polygon fill="#191970" stroke="#191970" points="52.4968,-30.0838 42.0946,-32.095 51.4806,-37.0096 52.4968,-30.0838"/>
</g>
<!-- Node18 -->
<g id="node3" class="node">
<title>Node18</title>
<g id="a_node3"><a xlink:href="namespacesll__m__poisson__3d__fem__fft.html#a1c969aca508ba6d97a35d0956cca6077" target="_top" xlink:title="compute_phi_from_rho_fft">
<polygon fill="#ffffff" stroke="#000000" points="78,-.5 78,-19.5 223,-19.5 223,-.5 78,-.5"/>
<text text-anchor="middle" x="150.5" y="-7.5" font-family="Helvetica,sans-Serif" font-size="10.00" fill="#000000">compute_phi_from_rho_fft</text>
</a>
</g>
</g>
<!-- Node16&#45;&gt;Node18 -->
<g id="edge2" class="edge">
<title>Node16&#45;&gt;Node18</title>
<path fill="none" stroke="#191970" d="M52.0312,-24.4472C62.1574,-22.9615 73.8095,-21.2519 85.4736,-19.5406"/>
<polygon fill="#191970" stroke="#191970" points="51.4806,-20.9904 42.0946,-25.905 52.4968,-27.9162 51.4806,-20.9904"/>
</g>
</g>
</svg>
