<?xml version="1.0" encoding="UTF-8" standalone="no"?>
<!DOCTYPE svg PUBLIC "-//W3C//DTD SVG 1.1//EN"
 "http://www.w3.org/Graphics/SVG/1.1/DTD/svg11.dtd">
<!-- Generated by graphviz version 2.43.0 (0)
 -->
<!-- Title: sll_s_new_file_id Pages: 1 -->
<!--zoomable 635 -->
<svg id="main" version="1.1" xmlns="http://www.w3.org/2000/svg" xmlns:xlink="http://www.w3.org/1999/xlink" xml:space="preserve" onload="init(evt)">
<style type="text/css"><![CDATA[
.edge:hover path { stroke: red; }
.edge:hover polygon { stroke: red; fill: red; }
]]></style>
<script type="text/javascript"><![CDATA[
var edges = document.getElementsByTagName('g');
if (edges && edges.length) {
  for (var i=0;i<edges.length;i++) {
    if (edges[i].id.substr(0,4)=='edge') {
      edges[i].setAttribute('class','edge');
    }
  }
}
]]></script>
        <defs>
                <circle id="rim" cx="0" cy="0" r="7"/>
                <circle id="rim2" cx="0" cy="0" r="3.5"/>
                <g id="zoomPlus">
                        <use xlink:href="#rim" fill="#404040">
                                <set attributeName="fill" to="#808080" begin="zoomplus.mouseover" end="zoomplus.mouseout"/>
                        </use>
                        <path d="M-4,0h8M0,-4v8" fill="none" stroke="white" stroke-width="1.5" pointer-events="none"/>
                </g>
                <g id="zoomMin">
                        <use xlink:href="#rim" fill="#404040">
                                <set attributeName="fill" to="#808080" begin="zoomminus.mouseover" end="zoomminus.mouseout"/>
                        </use>
                        <path d="M-4,0h8" fill="none" stroke="white" stroke-width="1.5" pointer-events="none"/>
                </g>
                <g id="dirArrow">
                        <path fill="none" stroke="white" stroke-width="1.5" d="M0,-3.0v7 M-2.5,-0.5L0,-3.0L2.5,-0.5"/>
                </g>
               <g id="resetDef">
                       <use xlink:href="#rim2" fill="#404040">
                               <set attributeName="fill" to="#808080" begin="reset.mouseover" end="reset.mouseout"/>
                       </use>
               </g>
        </defs>

<script type="text/javascript">
var viewWidth = 554;
var viewHeight = 635;
var sectionId = 'dynsection-6';
</script>
<script xlink:href="svgpan.js"/>
<svg id="graph" class="graph">
<g id="viewport">
<title>sll_s_new_file_id</title>
<polygon fill="white" stroke="transparent" points="-4,4 -4,-631 550,-631 550,4 -4,4"/>
<!-- Node1 -->
<g id="node1" class="node">
<title>Node1</title>
<g id="a_node1"><a xlink:title="Get a file unit number free before creating a file.">
<polygon fill="#bfbfbf" stroke="black" points="448,-331.5 448,-350.5 546,-350.5 546,-331.5 448,-331.5"/>
<text text-anchor="middle" x="497" y="-338.5" font-family="Helvetica,sans-Serif" font-size="10.00">sll_s_new_file_id</text>
</a>
</g>
</g>
<!-- Node2 -->
<g id="node2" class="node">
<title>Node2</title>
<g id="a_node2"><a xlink:href="namespacesll__m__utilities.html#a57d96657cb4df6bc63828e5147624dfc" target="_top" xlink:title="Subroutine to open data file for slv2d and create the thf.dat file to write results.">
<polygon fill="white" stroke="black" points="276,-607.5 276,-626.5 355,-626.5 355,-607.5 276,-607.5"/>
<text text-anchor="middle" x="315.5" y="-614.5" font-family="Helvetica,sans-Serif" font-size="10.00">initialize_file</text>
</a>
</g>
</g>
<!-- Node1&#45;&gt;Node2 -->
<g id="edge1" class="edge">
<title>Node1&#45;&gt;Node2</title>
<path fill="none" stroke="midnightblue" d="M495.87,-360.87C494.41,-409.39 483.52,-534.55 412,-598 396.7,-611.57 374.53,-616.56 355.4,-618.05"/>
<polygon fill="midnightblue" stroke="midnightblue" points="499.37,-360.82 496.07,-350.75 492.37,-360.68 499.37,-360.82"/>
</g>
<!-- Node3 -->
<g id="node3" class="node">
<title>Node3</title>
<g id="a_node3"><a xlink:href="namespacesll__m__coordinate__transformations__2d.html#af092a7689bceb4039d222e5f2a03c6e7" target="_top" xlink:title=" ">
<polygon fill="white" stroke="black" points="224,-558 224,-588 407,-588 407,-558 224,-558"/>
<text text-anchor="start" x="232" y="-576" font-family="Helvetica,sans-Serif" font-size="10.00">sll_m_coordinate_transformations</text>
<text text-anchor="middle" x="315.5" y="-565" font-family="Helvetica,sans-Serif" font-size="10.00">_2d::read_from_file_2d_discrete</text>
</a>
</g>
</g>
<!-- Node1&#45;&gt;Node3 -->
<g id="edge2" class="edge">
<title>Node1&#45;&gt;Node3</title>
<path fill="none" stroke="midnightblue" d="M493.93,-360.75C488.49,-402.17 469.98,-498.5 412,-549 408.13,-552.37 403.86,-555.28 399.33,-557.79"/>
<polygon fill="midnightblue" stroke="midnightblue" points="497.43,-360.94 495.13,-350.6 490.48,-360.12 497.43,-360.94"/>
</g>
<!-- Node4 -->
<g id="node4" class="node">
<title>Node4</title>
<g id="a_node4"><a xlink:href="namespacesll__m__coordinate__transformations__2d__nurbs.html#a1ac1b0807542ac77efb925992c0d681e" target="_top" xlink:title=" ">
<polygon fill="white" stroke="black" points="219.5,-509 219.5,-539 411.5,-539 411.5,-509 219.5,-509"/>
<text text-anchor="start" x="227.5" y="-527" font-family="Helvetica,sans-Serif" font-size="10.00">sll_m_coordinate_transformations</text>
<text text-anchor="middle" x="315.5" y="-516" font-family="Helvetica,sans-Serif" font-size="10.00">_2d_nurbs::read_from_file_2d_nurbs</text>
</a>
</g>
</g>
<!-- Node1&#45;&gt;Node4 -->
<g id="edge3" class="edge">
<title>Node1&#45;&gt;Node4</title>
<path fill="none" stroke="midnightblue" d="M491.24,-360.66C482,-394.51 458.33,-463.63 412,-500 407.7,-503.38 402.98,-506.29 398.01,-508.79"/>
<polygon fill="midnightblue" stroke="midnightblue" points="494.72,-361.19 493.83,-350.64 487.94,-359.44 494.72,-361.19"/>
</g>
<!-- Node6 -->
<g id="node6" class="node">
<title>Node6</title>
<g id="a_node6"><a xlink:href="namespacesll__m__coordinate__transformation__multipatch.html#afc9504317548413bb5e05846cdf53fbb" target="_top" xlink:title=" ">
<polygon fill="white" stroke="black" points="219,-460 219,-490 412,-490 412,-460 219,-460"/>
<text text-anchor="start" x="227" y="-478" font-family="Helvetica,sans-Serif" font-size="10.00">sll_m_coordinate_transformation</text>
<text text-anchor="middle" x="315.5" y="-467" font-family="Helvetica,sans-Serif" font-size="10.00">_multipatch::read_from_file_ctmp2d</text>
</a>
</g>
</g>
<!-- Node1&#45;&gt;Node6 -->
<g id="edge5" class="edge">
<title>Node1&#45;&gt;Node6</title>
<path fill="none" stroke="midnightblue" d="M486.82,-359.79C473.71,-384.58 447.27,-427.77 412,-451 406.72,-454.48 400.97,-457.45 394.99,-460"/>
<polygon fill="midnightblue" stroke="midnightblue" points="490.03,-361.19 491.46,-350.69 483.8,-358.01 490.03,-361.19"/>
</g>
<!-- Node7 -->
<g id="node7" class="node">
<title>Node7</title>
<g id="a_node7"><a xlink:href="namespacesll__m__nml__mesh__1d__cart.html#a80ef0f781196f323955f013a4f92a47c" target="_top" xlink:title="print namelist info">
<polygon fill="white" stroke="black" points="239,-411 239,-441 392,-441 392,-411 239,-411"/>
<text text-anchor="start" x="247" y="-429" font-family="Helvetica,sans-Serif" font-size="10.00">sll_m_nml_mesh_1d_cart</text>
<text text-anchor="middle" x="315.5" y="-418" font-family="Helvetica,sans-Serif" font-size="10.00">::s_nml_mesh_1d_cart_print</text>
</a>
</g>
</g>
<!-- Node1&#45;&gt;Node7 -->
<g id="edge6" class="edge">
<title>Node1&#45;&gt;Node7</title>
<path fill="none" stroke="midnightblue" d="M477.75,-357.05C461.52,-370.56 436.6,-389.47 412,-401 403.85,-404.82 395.03,-408.12 386.15,-410.96"/>
<polygon fill="midnightblue" stroke="midnightblue" points="480.05,-359.69 485.4,-350.55 475.52,-354.36 480.05,-359.69"/>
</g>
<!-- Node8 -->
<g id="node8" class="node">
<title>Node8</title>
<g id="a_node8"><a xlink:href="namespacesll__m__nml__mesh__1d__landau__cart.html#a4148d1e45bc41436e9fcc2590678e342" target="_top" xlink:title="print namelist info">
<polygon fill="white" stroke="black" points="233.5,-350.5 233.5,-391.5 397.5,-391.5 397.5,-350.5 233.5,-350.5"/>
<text text-anchor="start" x="241.5" y="-379.5" font-family="Helvetica,sans-Serif" font-size="10.00">sll_m_nml_mesh_1d_landau</text>
<text text-anchor="start" x="241.5" y="-368.5" font-family="Helvetica,sans-Serif" font-size="10.00">_cart::s_nml_mesh_1d_landau</text>
<text text-anchor="middle" x="315.5" y="-357.5" font-family="Helvetica,sans-Serif" font-size="10.00">_cart_print</text>
</a>
</g>
</g>
<!-- Node1&#45;&gt;Node8 -->
<g id="edge7" class="edge">
<title>Node1&#45;&gt;Node8</title>
<path fill="none" stroke="midnightblue" d="M437.85,-350.72C425.02,-352.86 411.21,-355.17 397.66,-357.44"/>
<polygon fill="midnightblue" stroke="midnightblue" points="438.61,-354.14 447.9,-349.04 437.46,-347.24 438.61,-354.14"/>
</g>
<!-- Node9 -->
<g id="node9" class="node">
<title>Node9</title>
<g id="a_node9"><a xlink:href="namespacesll__m__nml__mesh__1d__two__grid__cart.html#ae532a2c149adef11df2f14ad0aaa5142" target="_top" xlink:title="print namelist info">
<polygon fill="white" stroke="black" points="245.5,-290.5 245.5,-331.5 385.5,-331.5 385.5,-290.5 245.5,-290.5"/>
<text text-anchor="start" x="253.5" y="-319.5" font-family="Helvetica,sans-Serif" font-size="10.00">sll_m_nml_mesh_1d_two</text>
<text text-anchor="start" x="253.5" y="-308.5" font-family="Helvetica,sans-Serif" font-size="10.00">_grid_cart::s_nml_mesh</text>
<text text-anchor="middle" x="315.5" y="-297.5" font-family="Helvetica,sans-Serif" font-size="10.00">_1d_two_grid_cart_print</text>
</a>
</g>
</g>
<!-- Node1&#45;&gt;Node9 -->
<g id="edge8" class="edge">
<title>Node1&#45;&gt;Node9</title>
<path fill="none" stroke="midnightblue" d="M437.78,-331.27C421.15,-328.49 402.87,-325.44 385.66,-322.56"/>
<polygon fill="midnightblue" stroke="midnightblue" points="437.46,-334.76 447.9,-332.96 438.61,-327.86 437.46,-334.76"/>
</g>
<!-- Node10 -->
<g id="node10" class="node">
<title>Node10</title>
<g id="a_node10"><a xlink:href="namespacesll__m__nml__mesh__1d__unif__cart.html#a4cffd6dbec5d74b0fbc05a6a623d79e6" target="_top" xlink:title="print namelist info">
<polygon fill="white" stroke="black" points="241,-230.5 241,-271.5 390,-271.5 390,-230.5 241,-230.5"/>
<text text-anchor="start" x="249" y="-259.5" font-family="Helvetica,sans-Serif" font-size="10.00">sll_m_nml_mesh_1d_unif</text>
<text text-anchor="start" x="249" y="-248.5" font-family="Helvetica,sans-Serif" font-size="10.00">_cart::s_nml_mesh_1d_unif</text>
<text text-anchor="middle" x="315.5" y="-237.5" font-family="Helvetica,sans-Serif" font-size="10.00">_cart_print</text>
</a>
</g>
</g>
<!-- Node1&#45;&gt;Node10 -->
<g id="edge9" class="edge">
<title>Node1&#45;&gt;Node10</title>
<path fill="none" stroke="midnightblue" d="M477.33,-325.02C461,-311.71 436.18,-293.05 412,-281 405.08,-277.55 397.68,-274.39 390.17,-271.53"/>
<polygon fill="midnightblue" stroke="midnightblue" points="475.12,-327.73 485.05,-331.43 479.59,-322.35 475.12,-327.73"/>
</g>
<!-- Node11 -->
<g id="node11" class="node">
<title>Node11</title>
<g id="a_node11"><a xlink:href="namespacesll__m__gnuplot__parallel.html#a3060198853651f3d790aebaa1f488727" target="_top" xlink:title="write a data file plotable by gnuplot to visualize a 2d field">
<polygon fill="white" stroke="black" points="250.5,-170.5 250.5,-211.5 380.5,-211.5 380.5,-170.5 250.5,-170.5"/>
<text text-anchor="start" x="258.5" y="-199.5" font-family="Helvetica,sans-Serif" font-size="10.00">sll_m_gnuplot_parallel</text>
<text text-anchor="start" x="258.5" y="-188.5" font-family="Helvetica,sans-Serif" font-size="10.00">::sll_s_gnuplot_curv_2d</text>
<text text-anchor="middle" x="315.5" y="-177.5" font-family="Helvetica,sans-Serif" font-size="10.00">_parallel</text>
</a>
</g>
</g>
<!-- Node1&#45;&gt;Node11 -->
<g id="edge10" class="edge">
<title>Node1&#45;&gt;Node11</title>
<path fill="none" stroke="midnightblue" d="M487.6,-321.96C474.96,-295.49 448.58,-247.8 412,-221 402.75,-214.22 391.92,-208.94 380.94,-204.85"/>
<polygon fill="midnightblue" stroke="midnightblue" points="484.53,-323.67 491.9,-331.29 490.89,-320.74 484.53,-323.67"/>
</g>
<!-- Node12 -->
<g id="node12" class="node">
<title>Node12</title>
<g id="a_node12"><a xlink:href="namespacesll__m__gnuplot__parallel.html#af740178f10df27740a07f3b3ef67225d" target="_top" xlink:title="write a data file plotable by gnuplot to visualize a 2d field">
<polygon fill="white" stroke="black" points="251.5,-110.5 251.5,-151.5 379.5,-151.5 379.5,-110.5 251.5,-110.5"/>
<text text-anchor="start" x="259.5" y="-139.5" font-family="Helvetica,sans-Serif" font-size="10.00">sll_m_gnuplot_parallel</text>
<text text-anchor="start" x="259.5" y="-128.5" font-family="Helvetica,sans-Serif" font-size="10.00">::sll_s_gnuplot_rect_2d</text>
<text text-anchor="middle" x="315.5" y="-117.5" font-family="Helvetica,sans-Serif" font-size="10.00">_parallel</text>
</a>
</g>
</g>
<!-- Node1&#45;&gt;Node12 -->
<g id="edge11" class="edge">
<title>Node1&#45;&gt;Node12</title>
<path fill="none" stroke="midnightblue" d="M492.23,-321.13C484.18,-284.16 461.84,-204.65 412,-161 402.85,-152.99 391.56,-147.11 379.99,-142.8"/>
<polygon fill="midnightblue" stroke="midnightblue" points="488.85,-322.05 494.28,-331.14 495.7,-320.65 488.85,-322.05"/>
</g>
<!-- Node13 -->
<g id="node13" class="node">
<title>Node13</title>
<g id="a_node13"><a xlink:href="namespacesll__m__dk__curv__mesh.html#a4c65d8244e6f18bd6fb5cff4c5c5ee74" target="_top" xlink:title="Initialize simulation from input file.">
<polygon fill="white" stroke="black" points="245,-61 245,-91 386,-91 386,-61 245,-61"/>
<text text-anchor="start" x="253" y="-79" font-family="Helvetica,sans-Serif" font-size="10.00">sll_m_dk_curv_mesh</text>
<text text-anchor="middle" x="315.5" y="-68" font-family="Helvetica,sans-Serif" font-size="10.00">::sll_s_init_dk_curv_mesh</text>
</a>
</g>
</g>
<!-- Node1&#45;&gt;Node13 -->
<g id="edge12" class="edge">
<title>Node1&#45;&gt;Node13</title>
<path fill="none" stroke="midnightblue" d="M495.06,-320.84C491.8,-274.77 477.21,-161.15 412,-101 404.69,-94.26 395.8,-89.29 386.4,-85.64"/>
<polygon fill="midnightblue" stroke="midnightblue" points="491.58,-321.25 495.67,-331.02 498.57,-320.83 491.58,-321.25"/>
</g>
<!-- Node14 -->
<g id="node14" class="node">
<title>Node14</title>
<g id="a_node14"><a xlink:href="namespacesll__m__scalar__field__2d__multipatch.html#a86cccdf6b60c1174129c0e0dc8bdb08e" target="_top" xlink:title=" ">
<polygon fill="white" stroke="black" points="254.5,-0.5 254.5,-41.5 376.5,-41.5 376.5,-0.5 254.5,-0.5"/>
<text text-anchor="start" x="262.5" y="-29.5" font-family="Helvetica,sans-Serif" font-size="10.00">sll_m_scalar_field</text>
<text text-anchor="start" x="262.5" y="-18.5" font-family="Helvetica,sans-Serif" font-size="10.00">_2d_multipatch::write</text>
<text text-anchor="middle" x="315.5" y="-7.5" font-family="Helvetica,sans-Serif" font-size="10.00">_to_file_sfmp2d</text>
</a>
</g>
</g>
<!-- Node1&#45;&gt;Node14 -->
<g id="edge13" class="edge">
<title>Node1&#45;&gt;Node14</title>
<path fill="none" stroke="midnightblue" d="M496.22,-321.37C495.69,-269.85 487.06,-129.43 412,-52 402.41,-42.11 389.65,-35.38 376.58,-30.79"/>
<polygon fill="midnightblue" stroke="midnightblue" points="492.72,-321.47 496.22,-331.47 499.72,-321.47 492.72,-321.47"/>
</g>
<!-- Node5 -->
<g id="node5" class="node">
<title>Node5</title>
<g id="a_node5"><a xlink:href="namespacesll__m__coordinate__transformations__2d__nurbs.html#a85ac2598975dd0e977cf92f9e02837d6" target="_top" xlink:title=" ">
<polygon fill="white" stroke="black" points="0,-503.5 0,-544.5 183,-544.5 183,-503.5 0,-503.5"/>
<text text-anchor="start" x="8" y="-532.5" font-family="Helvetica,sans-Serif" font-size="10.00">sll_m_coordinate_transformations</text>
<text text-anchor="start" x="8" y="-521.5" font-family="Helvetica,sans-Serif" font-size="10.00">_2d_nurbs::sll_f_new_nurbs</text>
<text text-anchor="middle" x="91.5" y="-510.5" font-family="Helvetica,sans-Serif" font-size="10.00">_2d_transformation_from_file</text>
</a>
</g>
</g>
<!-- Node4&#45;&gt;Node5 -->
<g id="edge4" class="edge">
<title>Node4&#45;&gt;Node5</title>
<path fill="none" stroke="midnightblue" d="M209.21,-524C200.51,-524 191.77,-524 183.19,-524"/>
<polygon fill="midnightblue" stroke="midnightblue" points="209.39,-527.5 219.39,-524 209.39,-520.5 209.39,-527.5"/>
</g>
</g>
</svg>
        <g id="navigator" transform="translate(0 0)" fill="#404254">
                <rect fill="#f2f5e9" fill-opacity="0.5" stroke="#606060" stroke-width=".5" x="0" y="0" width="60" height="60"/>
                <use id="zoomplus" xlink:href="#zoomPlus" x="17" y="9" onmousedown="handleZoom(evt,'in')"/>
                <use id="zoomminus" xlink:href="#zoomMin" x="42" y="9" onmousedown="handleZoom(evt,'out')"/>
                <use id="reset" xlink:href="#resetDef" x="30" y="36" onmousedown="handleReset()"/>
                <g id="arrowUp" xlink:href="#dirArrow" transform="translate(30 24)" onmousedown="handlePan(0,-1)">
                  <use xlink:href="#rim" fill="#404040">
                        <set attributeName="fill" to="#808080" begin="arrowUp.mouseover" end="arrowUp.mouseout"/>
                  </use>
                  <path fill="none" stroke="white" stroke-width="1.5" d="M0,-3.0v7 M-2.5,-0.5L0,-3.0L2.5,-0.5"/>
                </g>
                <g id="arrowRight" xlink:href="#dirArrow" transform="rotate(90) translate(36 -43)" onmousedown="handlePan(1,0)">
                  <use xlink:href="#rim" fill="#404040">
                        <set attributeName="fill" to="#808080" begin="arrowRight.mouseover" end="arrowRight.mouseout"/>
                  </use>
                  <path fill="none" stroke="white" stroke-width="1.5" d="M0,-3.0v7 M-2.5,-0.5L0,-3.0L2.5,-0.5"/>
                </g>
                <g id="arrowDown" xlink:href="#dirArrow" transform="rotate(180) translate(-30 -48)" onmousedown="handlePan(0,1)">
                  <use xlink:href="#rim" fill="#404040">
                        <set attributeName="fill" to="#808080" begin="arrowDown.mouseover" end="arrowDown.mouseout"/>
                  </use>
                  <path fill="none" stroke="white" stroke-width="1.5" d="M0,-3.0v7 M-2.5,-0.5L0,-3.0L2.5,-0.5"/>
                </g>
                <g id="arrowLeft" xlink:href="#dirArrow" transform="rotate(270) translate(-36 17)" onmousedown="handlePan(-1,0)">
                  <use xlink:href="#rim" fill="#404040">
                        <set attributeName="fill" to="#808080" begin="arrowLeft.mouseover" end="arrowLeft.mouseout"/>
                  </use>
                  <path fill="none" stroke="white" stroke-width="1.5" d="M0,-3.0v7 M-2.5,-0.5L0,-3.0L2.5,-0.5"/>
                </g>
        </g>
        <svg viewBox="0 0 15 15" width="100%" height="30px" preserveAspectRatio="xMaxYMin meet">
         <g id="arrow_out" transform="scale(0.3 0.3)">
          <a xlink:href="namespacesll__m__utilities_afa513cebb464773e58d9364a6e231924_icgraph_org.svg" target="_base">
           <rect id="button" ry="5" rx="5" y="6" x="6" height="38" width="38"
                fill="#f2f5e9" fill-opacity="0.5" stroke="#606060" stroke-width="1.0"/>
           <path id="arrow"
             d="M 11.500037,31.436501 C 11.940474,20.09759 22.043105,11.32322 32.158766,21.979434 L 37.068811,17.246167 C 37.068811,17.246167 37.088388,32 37.088388,32 L 22.160133,31.978069 C 22.160133,31.978069 26.997745,27.140456 26.997745,27.140456 C 18.528582,18.264221 13.291696,25.230495 11.500037,31.436501 z"
             style="fill:#404040;"/>
          </a>
         </g>
        </svg>
</svg>
