<?xml version="1.0" encoding="UTF-8" standalone="no"?>
<!DOCTYPE svg PUBLIC "-//W3C//DTD SVG 1.1//EN"
 "http://www.w3.org/Graphics/SVG/1.1/DTD/svg11.dtd">
<!-- Generated by graphviz version 2.40.1 (20161225.0304)
 -->
<!-- Title: init_1d_trafo Pages: 1 -->
<svg width="727pt" height="520pt"
 viewBox="0.00 0.00 727.00 519.50" xmlns="http://www.w3.org/2000/svg" xmlns:xlink="http://www.w3.org/1999/xlink">
<g id="graph0" class="graph" transform="scale(1 1) rotate(0) translate(4 515.5)">
<title>init_1d_trafo</title>
<polygon fill="#ffffff" stroke="transparent" points="-4,4 -4,-515.5 723,-515.5 723,4 -4,4"/>
<!-- Node21 -->
<g id="node1" class="node">
<title>Node21</title>
<polygon fill="#bfbfbf" stroke="#000000" points="0,-166.5 0,-185.5 78,-185.5 78,-166.5 0,-166.5"/>
<text text-anchor="middle" x="39" y="-173.5" font-family="Helvetica,sans-Serif" font-size="10.00" fill="#000000">init_1d_trafo</text>
</g>
<!-- Node22 -->
<g id="node2" class="node">
<title>Node22</title>
<g id="a_node2"><a xlink:href="namespacesll__m__splines__pp.html#a7e2a3943e2c330a0a9597b535ce259b3" target="_top" xlink:title="Initialize sll_t_spline_pp_1d object (Set poly_coeffs depending on degree) ">
<polygon fill="#ffffff" stroke="#000000" points="135,-391 135,-421 252,-421 252,-391 135,-391"/>
<text text-anchor="start" x="143" y="-409" font-family="Helvetica,sans-Serif" font-size="10.00" fill="#000000">sll_m_splines_pp::sll</text>
<text text-anchor="middle" x="193.5" y="-398" font-family="Helvetica,sans-Serif" font-size="10.00" fill="#000000">_s_spline_pp_init_1d</text>
</a>
</g>
</g>
<!-- Node21&#45;&gt;Node22 -->
<g id="edge1" class="edge">
<title>Node21&#45;&gt;Node22</title>
<path fill="none" stroke="#191970" d="M39.6207,-185.7603C42.225,-218.3809 55.0741,-324.7273 114,-381 117.5413,-384.3818 121.5357,-387.3064 125.8015,-389.8356"/>
<polygon fill="#191970" stroke="#191970" points="124.3853,-393.0427 134.8806,-394.4914 127.5795,-386.8139 124.3853,-393.0427"/>
</g>
<!-- Node23 -->
<g id="node3" class="node">
<title>Node23</title>
<g id="a_node3"><a xlink:href="namespacesll__m__spline__fem__utilities__sparse.html#a3fcb7d2b9d5aadd6a42eb295cc25b3b6" target="_top" xlink:title="Set up 1d mass matrix for specific spline degree and profile function. ">
<polygon fill="#ffffff" stroke="#000000" points="121.5,-330.5 121.5,-371.5 265.5,-371.5 265.5,-330.5 121.5,-330.5"/>
<text text-anchor="start" x="129.5" y="-359.5" font-family="Helvetica,sans-Serif" font-size="10.00" fill="#000000">sll_m_spline_fem_utilities</text>
<text text-anchor="start" x="129.5" y="-348.5" font-family="Helvetica,sans-Serif" font-size="10.00" fill="#000000">_sparse::sll_s_spline_fem</text>
<text text-anchor="middle" x="193.5" y="-337.5" font-family="Helvetica,sans-Serif" font-size="10.00" fill="#000000">_mass1d_clamped_full</text>
</a>
</g>
</g>
<!-- Node21&#45;&gt;Node23 -->
<g id="edge2" class="edge">
<title>Node21&#45;&gt;Node23</title>
<path fill="none" stroke="#191970" d="M47.5267,-185.658C70.3003,-211.4535 133.2155,-282.7166 168.5643,-322.7556"/>
<polygon fill="#191970" stroke="#191970" points="166.0042,-325.1443 175.2464,-330.3244 171.2518,-320.5114 166.0042,-325.1443"/>
</g>
<!-- Node30 -->
<g id="node10" class="node">
<title>Node30</title>
<g id="a_node10"><a xlink:href="sll__m__maxwell__1d__trafo_8_f90.html#a84da6f16f6cb045957fef43d185b23db" target="_top" xlink:title="profile_0">
<polygon fill="#ffffff" stroke="#000000" points="164,-142.5 164,-161.5 223,-161.5 223,-142.5 164,-142.5"/>
<text text-anchor="middle" x="193.5" y="-149.5" font-family="Helvetica,sans-Serif" font-size="10.00" fill="#000000">profile_0</text>
</a>
</g>
</g>
<!-- Node21&#45;&gt;Node30 -->
<g id="edge10" class="edge">
<title>Node21&#45;&gt;Node30</title>
<path fill="none" stroke="#191970" d="M78.3866,-169.8817C101.4904,-166.2928 130.5973,-161.7713 153.7616,-158.173"/>
<polygon fill="#191970" stroke="#191970" points="154.5994,-161.5849 163.9436,-156.5913 153.5248,-154.6678 154.5994,-161.5849"/>
</g>
<!-- Node31 -->
<g id="node11" class="node">
<title>Node31</title>
<g id="a_node11"><a xlink:href="sll__m__maxwell__1d__trafo_8_f90.html#aec56488ee66c0e30e7fd74f20e9d921f" target="_top" xlink:title="profile_1">
<polygon fill="#ffffff" stroke="#000000" points="164,-104.5 164,-123.5 223,-123.5 223,-104.5 164,-104.5"/>
<text text-anchor="middle" x="193.5" y="-111.5" font-family="Helvetica,sans-Serif" font-size="10.00" fill="#000000">profile_1</text>
</a>
</g>
</g>
<!-- Node21&#45;&gt;Node31 -->
<g id="edge11" class="edge">
<title>Node21&#45;&gt;Node31</title>
<path fill="none" stroke="#191970" d="M52.768,-166.4908C67.3679,-156.8026 91.3981,-141.9643 114,-133 126.5944,-128.0048 140.8527,-124.0928 153.7818,-121.1508"/>
<polygon fill="#191970" stroke="#191970" points="154.7666,-124.5191 163.8086,-118.9971 153.2966,-117.6752 154.7666,-124.5191"/>
</g>
<!-- Node32 -->
<g id="node12" class="node">
<title>Node32</title>
<g id="a_node12"><a xlink:href="namespacesll__m__spline__fem__utilities__sparse.html#a58ea8913e3f0590a3a20406f15b23c11" target="_top" xlink:title="Set up 1d mixed mass matrix for specific spline degrees and profile function. ">
<polygon fill="#ffffff" stroke="#000000" points="114,-180.5 114,-221.5 273,-221.5 273,-180.5 114,-180.5"/>
<text text-anchor="start" x="122" y="-209.5" font-family="Helvetica,sans-Serif" font-size="10.00" fill="#000000">sll_m_spline_fem_utilities</text>
<text text-anchor="start" x="122" y="-198.5" font-family="Helvetica,sans-Serif" font-size="10.00" fill="#000000">_sparse::sll_s_spline_fem</text>
<text text-anchor="middle" x="193.5" y="-187.5" font-family="Helvetica,sans-Serif" font-size="10.00" fill="#000000">_mixedmass1d_clamped_full</text>
</a>
</g>
</g>
<!-- Node21&#45;&gt;Node32 -->
<g id="edge12" class="edge">
<title>Node21&#45;&gt;Node32</title>
<path fill="none" stroke="#191970" d="M78.3866,-182.3732C86.3114,-183.6556 94.9424,-185.0522 103.7977,-186.4851"/>
<polygon fill="#191970" stroke="#191970" points="103.4345,-189.9717 113.8652,-188.1141 104.5527,-183.0616 103.4345,-189.9717"/>
</g>
<!-- Node38 -->
<g id="node18" class="node">
<title>Node38</title>
<g id="a_node18"><a xlink:href="sll__m__maxwell__1d__trafo_8_f90.html#a9c311415a09c7e5c6d5c7dc66b773bc9" target="_top" xlink:title="profile_m0">
<polygon fill="#ffffff" stroke="#000000" points="159.5,-66.5 159.5,-85.5 227.5,-85.5 227.5,-66.5 159.5,-66.5"/>
<text text-anchor="middle" x="193.5" y="-73.5" font-family="Helvetica,sans-Serif" font-size="10.00" fill="#000000">profile_m0</text>
</a>
</g>
</g>
<!-- Node21&#45;&gt;Node38 -->
<g id="edge21" class="edge">
<title>Node21&#45;&gt;Node38</title>
<path fill="none" stroke="#191970" d="M45.1171,-166.2902C56.4796,-149.0973 82.5678,-113.3836 114,-95 124.7183,-88.7312 137.3973,-84.5281 149.4444,-81.7108"/>
<polygon fill="#191970" stroke="#191970" points="150.2772,-85.1127 159.3585,-79.6554 148.8561,-78.2584 150.2772,-85.1127"/>
</g>
<!-- Node24 -->
<g id="node4" class="node">
<title>Node24</title>
<g id="a_node4"><a xlink:href="namespacesll__m__spline__fem__utilities__sparse.html#aa5108c957c08993cf92fe2dd4c340bef" target="_top" xlink:title="Helper function to create sparsity pattern of the clamped mass matrix. ">
<polygon fill="#ffffff" stroke="#000000" points="340.5,-420.5 340.5,-461.5 484.5,-461.5 484.5,-420.5 340.5,-420.5"/>
<text text-anchor="start" x="348.5" y="-449.5" font-family="Helvetica,sans-Serif" font-size="10.00" fill="#000000">sll_m_spline_fem_utilities</text>
<text text-anchor="start" x="348.5" y="-438.5" font-family="Helvetica,sans-Serif" font-size="10.00" fill="#000000">_sparse::sll_s_spline_fem</text>
<text text-anchor="middle" x="412.5" y="-427.5" font-family="Helvetica,sans-Serif" font-size="10.00" fill="#000000">_sparsity_mass_clamped</text>
</a>
</g>
</g>
<!-- Node23&#45;&gt;Node24 -->
<g id="edge3" class="edge">
<title>Node23&#45;&gt;Node24</title>
<path fill="none" stroke="#191970" d="M252.2142,-371.5148C259.3739,-374.7053 266.4621,-378.2135 273,-382 290.779,-392.297 290.7773,-401.5102 309,-411 315.8836,-414.5847 323.2541,-417.7954 330.7729,-420.6592"/>
<polygon fill="#191970" stroke="#191970" points="329.7562,-424.013 340.3507,-424.1032 332.1249,-417.4259 329.7562,-424.013"/>
</g>
<!-- Node25 -->
<g id="node5" class="node">
<title>Node25</title>
<g id="a_node5"><a xlink:href="namespacesll__m__spline__fem__utilities.html#a6e211d167a3e75ec1bc08389b7b254dc" target="_top" xlink:title="Function computing the boundary part for a mass matrix with clamped splines of degree (full version w...">
<polygon fill="#ffffff" stroke="#000000" points="340.5,-360.5 340.5,-401.5 484.5,-401.5 484.5,-360.5 340.5,-360.5"/>
<text text-anchor="start" x="348.5" y="-389.5" font-family="Helvetica,sans-Serif" font-size="10.00" fill="#000000">sll_m_spline_fem_utilities</text>
<text text-anchor="start" x="348.5" y="-378.5" font-family="Helvetica,sans-Serif" font-size="10.00" fill="#000000">::sll_s_spline_fem_mass</text>
<text text-anchor="middle" x="412.5" y="-367.5" font-family="Helvetica,sans-Serif" font-size="10.00" fill="#000000">_line_boundary_full</text>
</a>
</g>
</g>
<!-- Node23&#45;&gt;Node25 -->
<g id="edge4" class="edge">
<title>Node23&#45;&gt;Node25</title>
<path fill="none" stroke="#191970" d="M265.5121,-360.8647C286.2835,-363.7101 309.1016,-366.8358 330.4347,-369.7582"/>
<polygon fill="#191970" stroke="#191970" points="330.0621,-373.2397 340.4446,-371.1294 331.0122,-366.3045 330.0621,-373.2397"/>
</g>
<!-- Node28 -->
<g id="node8" class="node">
<title>Node28</title>
<g id="a_node8"><a xlink:href="namespacesll__m__spline__fem__utilities__sparse.html#ab9300692ab0bf900dfec4f4af0b73c24" target="_top" xlink:title="Assemble the given row of a sparse matrix for a full mass line. ">
<polygon fill="#ffffff" stroke="#000000" points="309,-481 309,-511 516,-511 516,-481 309,-481"/>
<text text-anchor="start" x="317" y="-499" font-family="Helvetica,sans-Serif" font-size="10.00" fill="#000000">sll_m_spline_fem_utilities</text>
<text text-anchor="middle" x="412.5" y="-488" font-family="Helvetica,sans-Serif" font-size="10.00" fill="#000000">_sparse::assemble_mass_clamped_full</text>
</a>
</g>
</g>
<!-- Node23&#45;&gt;Node28 -->
<g id="edge7" class="edge">
<title>Node23&#45;&gt;Node28</title>
<path fill="none" stroke="#191970" d="M259.551,-371.5485C264.4264,-374.5802 268.9944,-378.0445 273,-382 303.3606,-411.9813 276.6892,-443.1315 309,-471 310.9597,-472.6903 313.0146,-474.2705 315.1485,-475.7475"/>
<polygon fill="#191970" stroke="#191970" points="313.3691,-478.7617 323.7358,-480.9482 316.9953,-472.7741 313.3691,-478.7617"/>
</g>
<!-- Node29 -->
<g id="node9" class="node">
<title>Node29</title>
<g id="a_node9"><a xlink:href="namespacesll__m__spline__fem__utilities.html#ae7d30abb6637e536e1904d1ae44ed287" target="_top" xlink:title="Helper function to find line of mass matrix (full version without symmetry part) ">
<polygon fill="#ffffff" stroke="#000000" points="340.5,-300.5 340.5,-341.5 484.5,-341.5 484.5,-300.5 340.5,-300.5"/>
<text text-anchor="start" x="348.5" y="-329.5" font-family="Helvetica,sans-Serif" font-size="10.00" fill="#000000">sll_m_spline_fem_utilities</text>
<text text-anchor="start" x="348.5" y="-318.5" font-family="Helvetica,sans-Serif" font-size="10.00" fill="#000000">::sll_s_spline_fem_mass</text>
<text text-anchor="middle" x="412.5" y="-307.5" font-family="Helvetica,sans-Serif" font-size="10.00" fill="#000000">_line_full</text>
</a>
</g>
</g>
<!-- Node23&#45;&gt;Node29 -->
<g id="edge8" class="edge">
<title>Node23&#45;&gt;Node29</title>
<path fill="none" stroke="#191970" d="M265.5121,-341.1353C286.2835,-338.2899 309.1016,-335.1642 330.4347,-332.2418"/>
<polygon fill="#191970" stroke="#191970" points="331.0122,-335.6955 340.4446,-330.8706 330.0621,-328.7603 331.0122,-335.6955"/>
</g>
<!-- Node26 -->
<g id="node6" class="node">
<title>Node26</title>
<g id="a_node6"><a xlink:href="namespacesll__m__gauss__legendre__integration.html#a0df63a9e8ee884c2d4a0d1f53602a949" target="_top" xlink:title="Returns a 2d array of size (2,npoints) containing gauss&#45;legendre points and weights in the interval [...">
<polygon fill="#ffffff" stroke="#000000" points="552,-270.5 552,-311.5 719,-311.5 719,-270.5 552,-270.5"/>
<text text-anchor="start" x="560" y="-299.5" font-family="Helvetica,sans-Serif" font-size="10.00" fill="#000000">sll_m_gauss_legendre</text>
<text text-anchor="start" x="560" y="-288.5" font-family="Helvetica,sans-Serif" font-size="10.00" fill="#000000">_integration::sll_f_gauss</text>
<text text-anchor="middle" x="635.5" y="-277.5" font-family="Helvetica,sans-Serif" font-size="10.00" fill="#000000">_legendre_points_and_weights</text>
</a>
</g>
</g>
<!-- Node25&#45;&gt;Node26 -->
<g id="edge5" class="edge">
<title>Node25&#45;&gt;Node26</title>
<path fill="none" stroke="#191970" d="M484.6175,-361.9442C495.2478,-358.6039 505.9852,-354.9273 516,-351 541.0568,-341.1739 567.9277,-327.9419 589.8304,-316.4042"/>
<polygon fill="#191970" stroke="#191970" points="591.7119,-319.3677 598.8933,-311.5781 588.4216,-313.1891 591.7119,-319.3677"/>
</g>
<!-- Node27 -->
<g id="node7" class="node">
<title>Node27</title>
<g id="a_node7"><a xlink:href="namespacesll__m__splines__pp.html#ab63c3a25b861ed9b8701ae2f65942bcf" target="_top" xlink:title="Perform a 1d hornerschema on the pp_coeffs at index. ">
<polygon fill="#ffffff" stroke="#000000" points="570,-348 570,-378 701,-378 701,-348 570,-348"/>
<text text-anchor="start" x="578" y="-366" font-family="Helvetica,sans-Serif" font-size="10.00" fill="#000000">sll_m_splines_pp::sll</text>
<text text-anchor="middle" x="635.5" y="-355" font-family="Helvetica,sans-Serif" font-size="10.00" fill="#000000">_f_spline_pp_horner_1d</text>
</a>
</g>
</g>
<!-- Node25&#45;&gt;Node27 -->
<g id="edge6" class="edge">
<title>Node25&#45;&gt;Node27</title>
<path fill="none" stroke="#191970" d="M484.5937,-375.1808C508.5329,-373.2485 535.2533,-371.0917 559.4792,-369.1362"/>
<polygon fill="#191970" stroke="#191970" points="560.0076,-372.605 569.6936,-368.3117 559.4444,-365.6277 560.0076,-372.605"/>
</g>
<!-- Node29&#45;&gt;Node26 -->
<g id="edge9" class="edge">
<title>Node29&#45;&gt;Node26</title>
<path fill="none" stroke="#191970" d="M484.5937,-311.3013C502.7986,-308.8522 522.6119,-306.1867 541.7135,-303.617"/>
<polygon fill="#191970" stroke="#191970" points="542.1811,-307.0857 551.6252,-302.2836 541.2478,-300.1482 542.1811,-307.0857"/>
</g>
<!-- Node33 -->
<g id="node13" class="node">
<title>Node33</title>
<g id="a_node13"><a xlink:href="namespacesll__m__spline__fem__utilities__sparse.html#a1e5c3e23523e669b11f0b8178168a425" target="_top" xlink:title="Helper function to create sparsity pattern of the mass matrix with mixed degree deg1 and deg2...">
<polygon fill="#ffffff" stroke="#000000" points="315,-180.5 315,-221.5 510,-221.5 510,-180.5 315,-180.5"/>
<text text-anchor="start" x="323" y="-209.5" font-family="Helvetica,sans-Serif" font-size="10.00" fill="#000000">sll_m_spline_fem_utilities</text>
<text text-anchor="start" x="323" y="-198.5" font-family="Helvetica,sans-Serif" font-size="10.00" fill="#000000">_sparse::sll_s_maxwell_spline</text>
<text text-anchor="middle" x="412.5" y="-187.5" font-family="Helvetica,sans-Serif" font-size="10.00" fill="#000000">_fem_sparsity_mixedmass_clamped</text>
</a>
</g>
</g>
<!-- Node32&#45;&gt;Node33 -->
<g id="edge13" class="edge">
<title>Node32&#45;&gt;Node33</title>
<path fill="none" stroke="#191970" d="M273.1835,-201C283.4711,-201 294.1387,-201 304.7838,-201"/>
<polygon fill="#191970" stroke="#191970" points="304.9699,-204.5001 314.9699,-201 304.9698,-197.5001 304.9699,-204.5001"/>
</g>
<!-- Node34 -->
<g id="node14" class="node">
<title>Node34</title>
<g id="a_node14"><a xlink:href="namespacesll__m__spline__fem__utilities.html#acacc152220bf5c870311d9bb0e63937f" target="_top" xlink:title="Function computing the boundary part for a mass matrix with clamped splines of degree (full version w...">
<polygon fill="#ffffff" stroke="#000000" points="329.5,-240.5 329.5,-281.5 495.5,-281.5 495.5,-240.5 329.5,-240.5"/>
<text text-anchor="start" x="337.5" y="-269.5" font-family="Helvetica,sans-Serif" font-size="10.00" fill="#000000">sll_m_spline_fem_utilities</text>
<text text-anchor="start" x="337.5" y="-258.5" font-family="Helvetica,sans-Serif" font-size="10.00" fill="#000000">::sll_s_spline_fem_mixedmass</text>
<text text-anchor="middle" x="412.5" y="-247.5" font-family="Helvetica,sans-Serif" font-size="10.00" fill="#000000">_line_boundary</text>
</a>
</g>
</g>
<!-- Node32&#45;&gt;Node34 -->
<g id="edge14" class="edge">
<title>Node32&#45;&gt;Node34</title>
<path fill="none" stroke="#191970" d="M268.561,-221.5647C287.6274,-226.7883 308.2448,-232.4369 327.7556,-237.7824"/>
<polygon fill="#191970" stroke="#191970" points="326.9677,-241.1954 337.5371,-240.4622 328.8174,-234.4442 326.9677,-241.1954"/>
</g>
<!-- Node35 -->
<g id="node15" class="node">
<title>Node35</title>
<g id="a_node15"><a xlink:href="namespacesll__m__spline__fem__utilities__sparse.html#adc62b0f3674def694192b1c6272cc317" target="_top" xlink:title="Assemble the boundary part of a mixed mass matrix. ">
<polygon fill="#ffffff" stroke="#000000" points="327.5,-120.5 327.5,-161.5 497.5,-161.5 497.5,-120.5 327.5,-120.5"/>
<text text-anchor="start" x="335.5" y="-149.5" font-family="Helvetica,sans-Serif" font-size="10.00" fill="#000000">sll_m_spline_fem_utilities</text>
<text text-anchor="start" x="335.5" y="-138.5" font-family="Helvetica,sans-Serif" font-size="10.00" fill="#000000">_sparse::assemble_mixedmass</text>
<text text-anchor="middle" x="412.5" y="-127.5" font-family="Helvetica,sans-Serif" font-size="10.00" fill="#000000">_clamped_boundary</text>
</a>
</g>
</g>
<!-- Node32&#45;&gt;Node35 -->
<g id="edge17" class="edge">
<title>Node32&#45;&gt;Node35</title>
<path fill="none" stroke="#191970" d="M268.561,-180.4353C287.6274,-175.2117 308.2448,-169.5631 327.7556,-164.2176"/>
<polygon fill="#191970" stroke="#191970" points="328.8174,-167.5558 337.5371,-161.5378 326.9677,-160.8046 328.8174,-167.5558"/>
</g>
<!-- Node36 -->
<g id="node16" class="node">
<title>Node36</title>
<g id="a_node16"><a xlink:href="namespacesll__m__spline__fem__utilities.html#a927979382ec5177a15fee8c6d92f1bf8" target="_top" xlink:title="Helper function to find line of mass matrix ( N_i^p N_j^{p&#45;1})) ">
<polygon fill="#ffffff" stroke="#000000" points="329.5,-.5 329.5,-41.5 495.5,-41.5 495.5,-.5 329.5,-.5"/>
<text text-anchor="start" x="337.5" y="-29.5" font-family="Helvetica,sans-Serif" font-size="10.00" fill="#000000">sll_m_spline_fem_utilities</text>
<text text-anchor="start" x="337.5" y="-18.5" font-family="Helvetica,sans-Serif" font-size="10.00" fill="#000000">::sll_s_spline_fem_mixedmass</text>
<text text-anchor="middle" x="412.5" y="-7.5" font-family="Helvetica,sans-Serif" font-size="10.00" fill="#000000">_line_full</text>
</a>
</g>
</g>
<!-- Node32&#45;&gt;Node36 -->
<g id="edge18" class="edge">
<title>Node32&#45;&gt;Node36</title>
<path fill="none" stroke="#191970" d="M261.8178,-180.4702C265.8934,-177.7001 269.6791,-174.5597 273,-171 310.9836,-130.2853 269.4438,-90.1887 309,-51 312.5116,-47.521 316.4008,-44.4407 320.5523,-41.7136"/>
<polygon fill="#191970" stroke="#191970" points="322.4982,-44.6316 329.4053,-36.5977 318.9958,-38.5707 322.4982,-44.6316"/>
</g>
<!-- Node37 -->
<g id="node17" class="node">
<title>Node37</title>
<g id="a_node17"><a xlink:href="namespacesll__m__spline__fem__utilities__sparse.html#af347360dcee0af16f16745e407adb9cd" target="_top" xlink:title="Assemble the given row of a mixed mass matrix for a full mass_line. ">
<polygon fill="#ffffff" stroke="#000000" points="327.5,-60.5 327.5,-101.5 497.5,-101.5 497.5,-60.5 327.5,-60.5"/>
<text text-anchor="start" x="335.5" y="-89.5" font-family="Helvetica,sans-Serif" font-size="10.00" fill="#000000">sll_m_spline_fem_utilities</text>
<text text-anchor="start" x="335.5" y="-78.5" font-family="Helvetica,sans-Serif" font-size="10.00" fill="#000000">_sparse::assemble_mixedmass</text>
<text text-anchor="middle" x="412.5" y="-67.5" font-family="Helvetica,sans-Serif" font-size="10.00" fill="#000000">_clamped_full</text>
</a>
</g>
</g>
<!-- Node32&#45;&gt;Node37 -->
<g id="edge20" class="edge">
<title>Node32&#45;&gt;Node37</title>
<path fill="none" stroke="#191970" d="M259.2986,-180.3786C264.1703,-177.6114 268.8099,-174.4979 273,-171 296.8732,-151.0705 284.3612,-129.9747 309,-111 311.9923,-108.6956 315.1562,-106.5681 318.4462,-104.6039"/>
<polygon fill="#191970" stroke="#191970" points="320.27,-107.5972 327.4178,-99.7767 316.9532,-101.4328 320.27,-107.5972"/>
</g>
<!-- Node34&#45;&gt;Node26 -->
<g id="edge15" class="edge">
<title>Node34&#45;&gt;Node26</title>
<path fill="none" stroke="#191970" d="M495.537,-272.1709C510.571,-274.1934 526.3448,-276.3154 541.6624,-278.3761"/>
<polygon fill="#191970" stroke="#191970" points="541.2726,-281.8551 551.65,-279.7197 542.2059,-274.9176 541.2726,-281.8551"/>
</g>
<!-- Node34&#45;&gt;Node27 -->
<g id="edge16" class="edge">
<title>Node34&#45;&gt;Node27</title>
<path fill="none" stroke="#191970" d="M495.0954,-281.532C502.3216,-284.3419 509.3917,-287.4885 516,-291 534.392,-300.773 534.5832,-309.5793 552,-321 564.4482,-329.1626 578.697,-336.8683 591.8575,-343.3965"/>
<polygon fill="#191970" stroke="#191970" points="590.6818,-346.7162 601.2067,-347.9315 593.7369,-340.418 590.6818,-346.7162"/>
</g>
<!-- Node36&#45;&gt;Node26 -->
<g id="edge19" class="edge">
<title>Node36&#45;&gt;Node26</title>
<path fill="none" stroke="#191970" d="M495.6519,-38.1637C502.9654,-41.6755 509.8956,-45.9054 516,-51 583.0322,-106.9434 615.9899,-209.7567 628.8189,-260.7195"/>
<polygon fill="#191970" stroke="#191970" points="625.4284,-261.5897 631.1884,-270.482 632.2309,-259.9386 625.4284,-261.5897"/>
</g>
</g>
</svg>
