<?xml version="1.0" encoding="UTF-8" standalone="no"?>
<!DOCTYPE svg PUBLIC "-//W3C//DTD SVG 1.1//EN"
 "http://www.w3.org/Graphics/SVG/1.1/DTD/svg11.dtd">
<!-- Generated by graphviz version 2.38.0 (20140413.2041)
 -->
<!-- Title: sll_collective_reduce_comp64 Pages: 1 -->
<svg width="442pt" height="39pt"
 viewBox="0.00 0.00 442.00 39.00" xmlns="http://www.w3.org/2000/svg" xmlns:xlink="http://www.w3.org/1999/xlink">
<g id="graph0" class="graph" transform="scale(1 1) rotate(0) translate(4 35)">
<title>sll_collective_reduce_comp64</title>
<polygon fill="white" stroke="none" points="-4,4 -4,-35 438,-35 438,4 -4,4"/>
<!-- Node1 -->
<g id="node1" class="node"><title>Node1</title>
<polygon fill="#bfbfbf" stroke="black" points="0,-0.5 0,-30.5 107,-30.5 107,-0.5 0,-0.5"/>
<text text-anchor="start" x="8" y="-18.5" font-family="Helvetica,sans-Serif" font-size="10.00">sll_collective_reduce</text>
<text text-anchor="middle" x="53.5" y="-7.5" font-family="Helvetica,sans-Serif" font-size="10.00">_comp64</text>
</g>
<!-- Node2 -->
<g id="node2" class="node"><title>Node2</title>
<g id="a_node2"><a xlink:href="namespacesll__m__collective.html#af068426dbec67186132d5acaefd50d75" target="_top" xlink:title="Performs a global sum over an array and writes the result in the given node If no node in root_rank i...">
<polygon fill="white" stroke="black" points="143,-0.5 143,-30.5 276,-30.5 276,-0.5 143,-0.5"/>
<text text-anchor="start" x="151" y="-18.5" font-family="Helvetica,sans-Serif" font-size="10.00">sll_s_collective_globalsum</text>
<text text-anchor="middle" x="209.5" y="-7.5" font-family="Helvetica,sans-Serif" font-size="10.00">_array_comp64</text>
</a>
</g>
</g>
<!-- Node1&#45;&gt;Node2 -->
<g id="edge1" class="edge"><title>Node1&#45;&gt;Node2</title>
<path fill="none" stroke="midnightblue" d="M117.216,-15.5C125.656,-15.5 134.334,-15.5 142.824,-15.5"/>
<polygon fill="midnightblue" stroke="midnightblue" points="117.067,-12.0001 107.067,-15.5 117.067,-19.0001 117.067,-12.0001"/>
</g>
<!-- Node3 -->
<g id="node3" class="node"><title>Node3</title>
<g id="a_node3"><a xlink:href="namespacesll__m__collective.html#a9116799d41502615ecd359453e90a1be" target="_top" xlink:title="Performs a global sum and writes the result in the given node. ">
<polygon fill="white" stroke="black" points="312,-0.5 312,-30.5 434,-30.5 434,-0.5 312,-0.5"/>
<text text-anchor="start" x="320" y="-18.5" font-family="Helvetica,sans-Serif" font-size="10.00">sll_collective_globalsum</text>
<text text-anchor="middle" x="373" y="-7.5" font-family="Helvetica,sans-Serif" font-size="10.00">_comp64</text>
</a>
</g>
</g>
<!-- Node2&#45;&gt;Node3 -->
<g id="edge2" class="edge"><title>Node2&#45;&gt;Node3</title>
<path fill="none" stroke="midnightblue" d="M286.217,-15.5C294.811,-15.5 303.48,-15.5 311.835,-15.5"/>
<polygon fill="midnightblue" stroke="midnightblue" points="286.188,-12.0001 276.188,-15.5 286.188,-19.0001 286.188,-12.0001"/>
</g>
</g>
</svg>
