<?xml version="1.0" encoding="UTF-8" standalone="no"?>
<!DOCTYPE svg PUBLIC "-//W3C//DTD SVG 1.1//EN"
 "http://www.w3.org/Graphics/SVG/1.1/DTD/svg11.dtd">
<!-- Generated by graphviz version 2.43.0 (0)
 -->
<!-- Title: compute_interpolants_cs2d Pages: 1 -->
<!--zoomable 230 -->
<svg id="main" version="1.1" xmlns="http://www.w3.org/2000/svg" xmlns:xlink="http://www.w3.org/1999/xlink" xml:space="preserve" onload="init(evt)">
<style type="text/css"><![CDATA[
.edge:hover path { stroke: red; }
.edge:hover polygon { stroke: red; fill: red; }
]]></style>
<script type="text/javascript"><![CDATA[
var edges = document.getElementsByTagName('g');
if (edges && edges.length) {
  for (var i=0;i<edges.length;i++) {
    if (edges[i].id.substr(0,4)=='edge') {
      edges[i].setAttribute('class','edge');
    }
  }
}
]]></script>
        <defs>
                <circle id="rim" cx="0" cy="0" r="7"/>
                <circle id="rim2" cx="0" cy="0" r="3.5"/>
                <g id="zoomPlus">
                        <use xlink:href="#rim" fill="#404040">
                                <set attributeName="fill" to="#808080" begin="zoomplus.mouseover" end="zoomplus.mouseout"/>
                        </use>
                        <path d="M-4,0h8M0,-4v8" fill="none" stroke="white" stroke-width="1.5" pointer-events="none"/>
                </g>
                <g id="zoomMin">
                        <use xlink:href="#rim" fill="#404040">
                                <set attributeName="fill" to="#808080" begin="zoomminus.mouseover" end="zoomminus.mouseout"/>
                        </use>
                        <path d="M-4,0h8" fill="none" stroke="white" stroke-width="1.5" pointer-events="none"/>
                </g>
                <g id="dirArrow">
                        <path fill="none" stroke="white" stroke-width="1.5" d="M0,-3.0v7 M-2.5,-0.5L0,-3.0L2.5,-0.5"/>
                </g>
               <g id="resetDef">
                       <use xlink:href="#rim2" fill="#404040">
                               <set attributeName="fill" to="#808080" begin="reset.mouseover" end="reset.mouseout"/>
                       </use>
               </g>
        </defs>

<script type="text/javascript">
var viewWidth = 641;
var viewHeight = 230;
var sectionId = 'dynsection-0';
</script>
<script xlink:href="svgpan.js"/>
<svg id="graph" class="graph">
<g id="viewport">
<title>compute_interpolants_cs2d</title>
<polygon fill="white" stroke="transparent" points="-4,4 -4,-226 637,-226 637,4 -4,4"/>
<!-- Node1 -->
<g id="node1" class="node">
<title>Node1</title>
<g id="a_node1"><a xlink:title=" ">
<polygon fill="#bfbfbf" stroke="black" points="0,-101.5 0,-120.5 151,-120.5 151,-101.5 0,-101.5"/>
<text text-anchor="middle" x="75.5" y="-108.5" font-family="Helvetica,sans-Serif" font-size="10.00">compute_interpolants_cs2d</text>
</a>
</g>
</g>
<!-- Node2 -->
<g id="node2" class="node">
<title>Node2</title>
<g id="a_node2"><a xlink:href="namespacesll__m__cubic__splines.html#a0d1f3cee9f161c208e409c998ab66713" target="_top" xlink:title="Computes the spline coefficients for the given data. The coeffcients are first computed in the second...">
<polygon fill="white" stroke="black" points="187,-90.5 187,-131.5 327,-131.5 327,-90.5 187,-90.5"/>
<text text-anchor="start" x="195" y="-119.5" font-family="Helvetica,sans-Serif" font-size="10.00">sll_m_cubic_splines</text>
<text text-anchor="start" x="195" y="-108.5" font-family="Helvetica,sans-Serif" font-size="10.00">::sll_s_cubic_spline</text>
<text text-anchor="middle" x="257" y="-97.5" font-family="Helvetica,sans-Serif" font-size="10.00">_2d_compute_interpolant</text>
</a>
</g>
</g>
<!-- Node1&#45;&gt;Node2 -->
<g id="edge1" class="edge">
<title>Node1&#45;&gt;Node2</title>
<path fill="none" stroke="midnightblue" d="M151.06,-111C159.49,-111 168.09,-111 176.58,-111"/>
<polygon fill="midnightblue" stroke="midnightblue" points="176.84,-114.5 186.84,-111 176.84,-107.5 176.84,-114.5"/>
</g>
<!-- Node3 -->
<g id="node3" class="node">
<title>Node3</title>
<g id="a_node3"><a xlink:href="namespacesll__m__cubic__splines.html#a29cb8396fd20358727d21d1ae39b83a2" target="_top" xlink:title=" ">
<polygon fill="white" stroke="black" points="363,-180.5 363,-221.5 480,-221.5 480,-180.5 363,-180.5"/>
<text text-anchor="start" x="371" y="-209.5" font-family="Helvetica,sans-Serif" font-size="10.00">sll_m_cubic_splines</text>
<text text-anchor="start" x="371" y="-198.5" font-family="Helvetica,sans-Serif" font-size="10.00">::compute_spline_2d</text>
<text text-anchor="middle" x="421.5" y="-187.5" font-family="Helvetica,sans-Serif" font-size="10.00">_hrmt_hrmt</text>
</a>
</g>
</g>
<!-- Node2&#45;&gt;Node3 -->
<g id="edge2" class="edge">
<title>Node2&#45;&gt;Node3</title>
<path fill="none" stroke="midnightblue" d="M293.29,-131.61C313.58,-143.35 339.6,-158.22 363,-171 365.82,-172.54 368.72,-174.11 371.65,-175.68"/>
<polygon fill="midnightblue" stroke="midnightblue" points="370.02,-178.77 380.49,-180.38 373.31,-172.59 370.02,-178.77"/>
</g>
<!-- Node5 -->
<g id="node5" class="node">
<title>Node5</title>
<g id="a_node5"><a xlink:href="namespacesll__m__cubic__splines.html#a735701443ea806b5f792c6cc9547752e" target="_top" xlink:title=" ">
<polygon fill="white" stroke="black" points="363,-120.5 363,-161.5 480,-161.5 480,-120.5 363,-120.5"/>
<text text-anchor="start" x="371" y="-149.5" font-family="Helvetica,sans-Serif" font-size="10.00">sll_m_cubic_splines</text>
<text text-anchor="start" x="371" y="-138.5" font-family="Helvetica,sans-Serif" font-size="10.00">::compute_spline_2d</text>
<text text-anchor="middle" x="421.5" y="-127.5" font-family="Helvetica,sans-Serif" font-size="10.00">_hrmt_prdc</text>
</a>
</g>
</g>
<!-- Node2&#45;&gt;Node5 -->
<g id="edge4" class="edge">
<title>Node2&#45;&gt;Node5</title>
<path fill="none" stroke="midnightblue" d="M327.39,-123.81C335.79,-125.36 344.36,-126.94 352.74,-128.49"/>
<polygon fill="midnightblue" stroke="midnightblue" points="352.37,-131.98 362.84,-130.35 353.64,-125.1 352.37,-131.98"/>
</g>
<!-- Node7 -->
<g id="node7" class="node">
<title>Node7</title>
<g id="a_node7"><a xlink:href="namespacesll__m__cubic__splines.html#aee0b7670b3ea0984872ebfe5ddc01b27" target="_top" xlink:title=" ">
<polygon fill="white" stroke="black" points="363,-60.5 363,-101.5 480,-101.5 480,-60.5 363,-60.5"/>
<text text-anchor="start" x="371" y="-89.5" font-family="Helvetica,sans-Serif" font-size="10.00">sll_m_cubic_splines</text>
<text text-anchor="start" x="371" y="-78.5" font-family="Helvetica,sans-Serif" font-size="10.00">::compute_spline_2d</text>
<text text-anchor="middle" x="421.5" y="-67.5" font-family="Helvetica,sans-Serif" font-size="10.00">_prdc_hrmt</text>
</a>
</g>
</g>
<!-- Node2&#45;&gt;Node7 -->
<g id="edge7" class="edge">
<title>Node2&#45;&gt;Node7</title>
<path fill="none" stroke="midnightblue" d="M327.39,-98.19C335.79,-96.64 344.36,-95.06 352.74,-93.51"/>
<polygon fill="midnightblue" stroke="midnightblue" points="353.64,-96.9 362.84,-91.65 352.37,-90.02 353.64,-96.9"/>
</g>
<!-- Node8 -->
<g id="node8" class="node">
<title>Node8</title>
<g id="a_node8"><a xlink:href="namespacesll__m__cubic__splines.html#a90ddea961b2a3fdbe5b6710fe9e115aa" target="_top" xlink:title=" ">
<polygon fill="white" stroke="black" points="363,-0.5 363,-41.5 480,-41.5 480,-0.5 363,-0.5"/>
<text text-anchor="start" x="371" y="-29.5" font-family="Helvetica,sans-Serif" font-size="10.00">sll_m_cubic_splines</text>
<text text-anchor="start" x="371" y="-18.5" font-family="Helvetica,sans-Serif" font-size="10.00">::compute_spline_2d</text>
<text text-anchor="middle" x="421.5" y="-7.5" font-family="Helvetica,sans-Serif" font-size="10.00">_prdc_prdc</text>
</a>
</g>
</g>
<!-- Node2&#45;&gt;Node8 -->
<g id="edge10" class="edge">
<title>Node2&#45;&gt;Node8</title>
<path fill="none" stroke="midnightblue" d="M293.29,-90.39C313.58,-78.65 339.6,-63.78 363,-51 365.82,-49.46 368.72,-47.89 371.65,-46.32"/>
<polygon fill="midnightblue" stroke="midnightblue" points="373.31,-49.41 380.49,-41.62 370.02,-43.23 373.31,-49.41"/>
</g>
<!-- Node4 -->
<g id="node4" class="node">
<title>Node4</title>
<g id="a_node4"><a xlink:href="namespacesll__m__cubic__splines.html#a3f3f1aa98bfbb8c05458a1eb30941d6d" target="_top" xlink:title=" ">
<polygon fill="white" stroke="black" points="516,-120.5 516,-161.5 633,-161.5 633,-120.5 516,-120.5"/>
<text text-anchor="start" x="524" y="-149.5" font-family="Helvetica,sans-Serif" font-size="10.00">sll_m_cubic_splines</text>
<text text-anchor="start" x="524" y="-138.5" font-family="Helvetica,sans-Serif" font-size="10.00">::compute_spline_1d</text>
<text text-anchor="middle" x="574.5" y="-127.5" font-family="Helvetica,sans-Serif" font-size="10.00">_hermite_aux</text>
</a>
</g>
</g>
<!-- Node3&#45;&gt;Node4 -->
<g id="edge3" class="edge">
<title>Node3&#45;&gt;Node4</title>
<path fill="none" stroke="midnightblue" d="M474.47,-180.35C486.63,-175.52 499.71,-170.32 512.24,-165.34"/>
<polygon fill="midnightblue" stroke="midnightblue" points="513.69,-168.53 521.69,-161.58 511.11,-162.03 513.69,-168.53"/>
</g>
<!-- Node5&#45;&gt;Node4 -->
<g id="edge5" class="edge">
<title>Node5&#45;&gt;Node4</title>
<path fill="none" stroke="midnightblue" d="M480.02,-141C488.46,-141 497.23,-141 505.86,-141"/>
<polygon fill="midnightblue" stroke="midnightblue" points="505.89,-144.5 515.89,-141 505.89,-137.5 505.89,-144.5"/>
</g>
<!-- Node6 -->
<g id="node6" class="node">
<title>Node6</title>
<g id="a_node6"><a xlink:href="namespacesll__m__cubic__splines.html#a908d8f64cc3a4c32d9bdc5afc4077948" target="_top" xlink:title=" ">
<polygon fill="white" stroke="black" points="516,-60.5 516,-101.5 633,-101.5 633,-60.5 516,-60.5"/>
<text text-anchor="start" x="524" y="-89.5" font-family="Helvetica,sans-Serif" font-size="10.00">sll_m_cubic_splines</text>
<text text-anchor="start" x="524" y="-78.5" font-family="Helvetica,sans-Serif" font-size="10.00">::compute_spline_1d</text>
<text text-anchor="middle" x="574.5" y="-67.5" font-family="Helvetica,sans-Serif" font-size="10.00">_periodic_aux</text>
</a>
</g>
</g>
<!-- Node5&#45;&gt;Node6 -->
<g id="edge6" class="edge">
<title>Node5&#45;&gt;Node6</title>
<path fill="none" stroke="midnightblue" d="M474.47,-120.35C486.63,-115.52 499.71,-110.32 512.24,-105.34"/>
<polygon fill="midnightblue" stroke="midnightblue" points="513.69,-108.53 521.69,-101.58 511.11,-102.03 513.69,-108.53"/>
</g>
<!-- Node7&#45;&gt;Node4 -->
<g id="edge8" class="edge">
<title>Node7&#45;&gt;Node4</title>
<path fill="none" stroke="midnightblue" d="M474.47,-101.65C486.63,-106.48 499.71,-111.68 512.24,-116.66"/>
<polygon fill="midnightblue" stroke="midnightblue" points="511.11,-119.97 521.69,-120.42 513.69,-113.47 511.11,-119.97"/>
</g>
<!-- Node7&#45;&gt;Node6 -->
<g id="edge9" class="edge">
<title>Node7&#45;&gt;Node6</title>
<path fill="none" stroke="midnightblue" d="M480.02,-81C488.46,-81 497.23,-81 505.86,-81"/>
<polygon fill="midnightblue" stroke="midnightblue" points="505.89,-84.5 515.89,-81 505.89,-77.5 505.89,-84.5"/>
</g>
<!-- Node8&#45;&gt;Node6 -->
<g id="edge11" class="edge">
<title>Node8&#45;&gt;Node6</title>
<path fill="none" stroke="midnightblue" d="M474.47,-41.65C486.63,-46.48 499.71,-51.68 512.24,-56.66"/>
<polygon fill="midnightblue" stroke="midnightblue" points="511.11,-59.97 521.69,-60.42 513.69,-53.47 511.11,-59.97"/>
</g>
</g>
</svg>
        <g id="navigator" transform="translate(0 0)" fill="#404254">
                <rect fill="#f2f5e9" fill-opacity="0.5" stroke="#606060" stroke-width=".5" x="0" y="0" width="60" height="60"/>
                <use id="zoomplus" xlink:href="#zoomPlus" x="17" y="9" onmousedown="handleZoom(evt,'in')"/>
                <use id="zoomminus" xlink:href="#zoomMin" x="42" y="9" onmousedown="handleZoom(evt,'out')"/>
                <use id="reset" xlink:href="#resetDef" x="30" y="36" onmousedown="handleReset()"/>
                <g id="arrowUp" xlink:href="#dirArrow" transform="translate(30 24)" onmousedown="handlePan(0,-1)">
                  <use xlink:href="#rim" fill="#404040">
                        <set attributeName="fill" to="#808080" begin="arrowUp.mouseover" end="arrowUp.mouseout"/>
                  </use>
                  <path fill="none" stroke="white" stroke-width="1.5" d="M0,-3.0v7 M-2.5,-0.5L0,-3.0L2.5,-0.5"/>
                </g>
                <g id="arrowRight" xlink:href="#dirArrow" transform="rotate(90) translate(36 -43)" onmousedown="handlePan(1,0)">
                  <use xlink:href="#rim" fill="#404040">
                        <set attributeName="fill" to="#808080" begin="arrowRight.mouseover" end="arrowRight.mouseout"/>
                  </use>
                  <path fill="none" stroke="white" stroke-width="1.5" d="M0,-3.0v7 M-2.5,-0.5L0,-3.0L2.5,-0.5"/>
                </g>
                <g id="arrowDown" xlink:href="#dirArrow" transform="rotate(180) translate(-30 -48)" onmousedown="handlePan(0,1)">
                  <use xlink:href="#rim" fill="#404040">
                        <set attributeName="fill" to="#808080" begin="arrowDown.mouseover" end="arrowDown.mouseout"/>
                  </use>
                  <path fill="none" stroke="white" stroke-width="1.5" d="M0,-3.0v7 M-2.5,-0.5L0,-3.0L2.5,-0.5"/>
                </g>
                <g id="arrowLeft" xlink:href="#dirArrow" transform="rotate(270) translate(-36 17)" onmousedown="handlePan(-1,0)">
                  <use xlink:href="#rim" fill="#404040">
                        <set attributeName="fill" to="#808080" begin="arrowLeft.mouseover" end="arrowLeft.mouseout"/>
                  </use>
                  <path fill="none" stroke="white" stroke-width="1.5" d="M0,-3.0v7 M-2.5,-0.5L0,-3.0L2.5,-0.5"/>
                </g>
        </g>
        <svg viewBox="0 0 15 15" width="100%" height="30px" preserveAspectRatio="xMaxYMin meet">
         <g id="arrow_out" transform="scale(0.3 0.3)">
          <a xlink:href="namespacesll__m__cubic__spline__interpolator__2d_a10af8789e490412a3580fcd15040a9b6_cgraph_org.svg" target="_base">
           <rect id="button" ry="5" rx="5" y="6" x="6" height="38" width="38"
                fill="#f2f5e9" fill-opacity="0.5" stroke="#606060" stroke-width="1.0"/>
           <path id="arrow"
             d="M 11.500037,31.436501 C 11.940474,20.09759 22.043105,11.32322 32.158766,21.979434 L 37.068811,17.246167 C 37.068811,17.246167 37.088388,32 37.088388,32 L 22.160133,31.978069 C 22.160133,31.978069 26.997745,27.140456 26.997745,27.140456 C 18.528582,18.264221 13.291696,25.230495 11.500037,31.436501 z"
             style="fill:#404040;"/>
          </a>
         </g>
        </svg>
</svg>
