<?xml version="1.0" encoding="UTF-8" standalone="no"?>
<!DOCTYPE svg PUBLIC "-//W3C//DTD SVG 1.1//EN"
 "http://www.w3.org/Graphics/SVG/1.1/DTD/svg11.dtd">
<!-- Generated by graphviz version 2.40.1 (20161225.0304)
 -->
<!-- Title: function_xy_from_r Pages: 1 -->
<!--zoomable 290 -->
<svg id="main" version="1.1" xmlns="http://www.w3.org/2000/svg" xmlns:xlink="http://www.w3.org/1999/xlink" xml:space="preserve" onload="init(evt)">
<style type="text/css"><![CDATA[
.edge:hover path { stroke: red; }
.edge:hover polygon { stroke: red; fill: red; }
]]></style>
<script type="text/javascript"><![CDATA[
var edges = document.getElementsByTagName('g');
if (edges && edges.length) {
  for (var i=0;i<edges.length;i++) {
    if (edges[i].id.substr(0,4)=='edge') {
      edges[i].setAttribute('class','edge');
    }
  }
}
]]></script>
        <defs>
                <circle id="rim" cx="0" cy="0" r="7"/>
                <circle id="rim2" cx="0" cy="0" r="3.5"/>
                <g id="zoomPlus">
                        <use xlink:href="#rim" fill="#404040">
                                <set attributeName="fill" to="#808080" begin="zoomplus.mouseover" end="zoomplus.mouseout"/>
                        </use>
                        <path d="M-4,0h8M0,-4v8" fill="none" stroke="white" stroke-width="1.5" pointer-events="none"/>
                </g>
                <g id="zoomMin">
                        <use xlink:href="#rim" fill="#404040">
                                <set attributeName="fill" to="#808080" begin="zoomminus.mouseover" end="zoomminus.mouseout"/>
                        </use>
                        <path d="M-4,0h8" fill="none" stroke="white" stroke-width="1.5" pointer-events="none"/>
                </g>
                <g id="dirArrow">
                        <path fill="none" stroke="white" stroke-width="1.5" d="M0,-3.0v7 M-2.5,-0.5L0,-3.0L2.5,-0.5"/>
                </g>
               <g id="resetDef">
                       <use xlink:href="#rim2" fill="#404040">
                               <set attributeName="fill" to="#808080" begin="reset.mouseover" end="reset.mouseout"/>
                       </use>
               </g>
        </defs>

<script type="text/javascript">
var viewWidth = 655;
var viewHeight = 290;
var sectionId = 'dynsection-1';
</script>
<script xlink:href="svgpan.js"/>
<svg id="graph" class="graph">
<g id="viewport">
<title>function_xy_from_r</title>
<polygon fill="#ffffff" stroke="transparent" points="-4,4 -4,-286 651,-286 651,4 -4,4"/>
<!-- Node3 -->
<g id="node1" class="node">
<title>Node3</title>
<polygon fill="#bfbfbf" stroke="#000000" points="0,-131.5 0,-150.5 111,-150.5 111,-131.5 0,-131.5"/>
<text text-anchor="middle" x="55.5" y="-138.5" font-family="Helvetica,sans-Serif" font-size="10.00" fill="#000000">function_xy_from_r</text>
</g>
<!-- Node4 -->
<g id="node2" class="node">
<title>Node4</title>
<g id="a_node2"><a xlink:href="namespacesll__m__cubic__splines.html#a35f9f53695f916944ed2f72a49531560" target="_top" xlink:title="Returns a pointer to a heap&#45;allocated cubic spline object. ">
<polygon fill="#ffffff" stroke="#000000" points="164.5,-240.5 164.5,-281.5 277.5,-281.5 277.5,-240.5 164.5,-240.5"/>
<text text-anchor="start" x="172.5" y="-269.5" font-family="Helvetica,sans-Serif" font-size="10.00" fill="#000000">sll_m_cubic_splines</text>
<text text-anchor="start" x="172.5" y="-258.5" font-family="Helvetica,sans-Serif" font-size="10.00" fill="#000000">::sll_s_cubic_spline</text>
<text text-anchor="middle" x="221" y="-247.5" font-family="Helvetica,sans-Serif" font-size="10.00" fill="#000000">_1d_init</text>
</a>
</g>
</g>
<!-- Node3&#45;&gt;Node4 -->
<g id="edge1" class="edge">
<title>Node3&#45;&gt;Node4</title>
<path fill="none" stroke="#191970" d="M63.0922,-150.6588C77.6522,-168.6319 111.2418,-207.5138 147,-231 149.723,-232.7885 152.5696,-234.5014 155.4942,-236.1375"/>
<polygon fill="#191970" stroke="#191970" points="153.9717,-239.2909 164.4564,-240.8145 157.2103,-233.0851 153.9717,-239.2909"/>
</g>
<!-- Node6 -->
<g id="node4" class="node">
<title>Node6</title>
<g id="a_node4"><a xlink:href="namespacesll__m__cubic__splines.html#a35d6c430ac300c5ca47c04adeb9a6db3" target="_top" xlink:title="Computes the cubic spline coefficients corresponding to the 1D data array &#39;f&#39;. ">
<polygon fill="#ffffff" stroke="#000000" points="151,-180.5 151,-221.5 291,-221.5 291,-180.5 151,-180.5"/>
<text text-anchor="start" x="159" y="-209.5" font-family="Helvetica,sans-Serif" font-size="10.00" fill="#000000">sll_m_cubic_splines</text>
<text text-anchor="start" x="159" y="-198.5" font-family="Helvetica,sans-Serif" font-size="10.00" fill="#000000">::sll_s_cubic_spline</text>
<text text-anchor="middle" x="221" y="-187.5" font-family="Helvetica,sans-Serif" font-size="10.00" fill="#000000">_1d_compute_interpolant</text>
</a>
</g>
</g>
<!-- Node3&#45;&gt;Node6 -->
<g id="edge3" class="edge">
<title>Node3&#45;&gt;Node6</title>
<path fill="none" stroke="#191970" d="M81.724,-150.5072C101.3633,-157.6272 129.1397,-167.6972 154.7259,-176.9731"/>
<polygon fill="#191970" stroke="#191970" points="153.8091,-180.3636 164.4033,-180.4816 156.195,-173.7827 153.8091,-180.3636"/>
</g>
<!-- Node12 -->
<g id="node10" class="node">
<title>Node12</title>
<g id="a_node10"><a xlink:href="namespacesll__m__common__coordinate__transformations.html#a8f8791e81ffb52413cb04019f12be400" target="_top" xlink:title="inverse mapping ">
<polygon fill="#ffffff" stroke="#000000" points="147,-120.5 147,-161.5 295,-161.5 295,-120.5 147,-120.5"/>
<text text-anchor="start" x="155" y="-149.5" font-family="Helvetica,sans-Serif" font-size="10.00" fill="#000000">sll_m_common_coordinate</text>
<text text-anchor="start" x="155" y="-138.5" font-family="Helvetica,sans-Serif" font-size="10.00" fill="#000000">_transformations::sll</text>
<text text-anchor="middle" x="221" y="-127.5" font-family="Helvetica,sans-Serif" font-size="10.00" fill="#000000">_f_polar_eta1</text>
</a>
</g>
</g>
<!-- Node3&#45;&gt;Node12 -->
<g id="edge10" class="edge">
<title>Node3&#45;&gt;Node12</title>
<path fill="none" stroke="#191970" d="M111.0695,-141C119.3038,-141 127.9421,-141 136.6044,-141"/>
<polygon fill="#191970" stroke="#191970" points="136.7615,-144.5001 146.7615,-141 136.7614,-137.5001 136.7615,-144.5001"/>
</g>
<!-- Node13 -->
<g id="node11" class="node">
<title>Node13</title>
<g id="a_node11"><a xlink:href="namespacesll__m__cubic__splines.html#a947f143aa0ed2c77f72b5b527802929a" target="_top" xlink:title="returns the value of the interpolated image of the abscissa x, using the spline coefficients stored i...">
<polygon fill="#ffffff" stroke="#000000" points="164.5,-60.5 164.5,-101.5 277.5,-101.5 277.5,-60.5 164.5,-60.5"/>
<text text-anchor="start" x="172.5" y="-89.5" font-family="Helvetica,sans-Serif" font-size="10.00" fill="#000000">sll_m_cubic_splines</text>
<text text-anchor="start" x="172.5" y="-78.5" font-family="Helvetica,sans-Serif" font-size="10.00" fill="#000000">::sll_f_cubic_spline</text>
<text text-anchor="middle" x="221" y="-67.5" font-family="Helvetica,sans-Serif" font-size="10.00" fill="#000000">_1d_eval</text>
</a>
</g>
</g>
<!-- Node3&#45;&gt;Node13 -->
<g id="edge11" class="edge">
<title>Node3&#45;&gt;Node13</title>
<path fill="none" stroke="#191970" d="M81.724,-131.4928C101.3633,-124.3728 129.1397,-114.3028 154.7259,-105.0269"/>
<polygon fill="#191970" stroke="#191970" points="156.195,-108.2173 164.4033,-101.5184 153.8091,-101.6364 156.195,-108.2173"/>
</g>
<!-- Node15 -->
<g id="node13" class="node">
<title>Node15</title>
<g id="a_node13"><a xlink:href="namespacesll__m__cubic__splines.html#abb1cb3b12640d9c845fa02b992384953" target="_top" xlink:title="deallocate the sll_t_cubic_spline_1d object ">
<polygon fill="#ffffff" stroke="#000000" points="164.5,-.5 164.5,-41.5 277.5,-41.5 277.5,-.5 164.5,-.5"/>
<text text-anchor="start" x="172.5" y="-29.5" font-family="Helvetica,sans-Serif" font-size="10.00" fill="#000000">sll_m_cubic_splines</text>
<text text-anchor="start" x="172.5" y="-18.5" font-family="Helvetica,sans-Serif" font-size="10.00" fill="#000000">::sll_s_cubic_spline</text>
<text text-anchor="middle" x="221" y="-7.5" font-family="Helvetica,sans-Serif" font-size="10.00" fill="#000000">_1d_free</text>
</a>
</g>
</g>
<!-- Node3&#45;&gt;Node15 -->
<g id="edge13" class="edge">
<title>Node3&#45;&gt;Node15</title>
<path fill="none" stroke="#191970" d="M63.0922,-131.3412C77.6522,-113.3681 111.2418,-74.4862 147,-51 149.723,-49.2115 152.5696,-47.4986 155.4942,-45.8625"/>
<polygon fill="#191970" stroke="#191970" points="157.2103,-48.9149 164.4564,-41.1855 153.9717,-42.7091 157.2103,-48.9149"/>
</g>
<!-- Node5 -->
<g id="node3" class="node">
<title>Node5</title>
<g id="a_node3"><a xlink:href="namespacesll__m__tridiagonal.html#a0eb4ec59f49ba01edaba9eca267d2a28" target="_top" xlink:title="Give the factorization of the matrix in argument. ">
<polygon fill="#ffffff" stroke="#000000" points="331,-246 331,-276 471,-276 471,-246 331,-246"/>
<text text-anchor="start" x="339" y="-264" font-family="Helvetica,sans-Serif" font-size="10.00" fill="#000000">sll_m_tridiagonal::</text>
<text text-anchor="middle" x="401" y="-253" font-family="Helvetica,sans-Serif" font-size="10.00" fill="#000000">sll_s_setup_cyclic_tridiag</text>
</a>
</g>
</g>
<!-- Node4&#45;&gt;Node5 -->
<g id="edge2" class="edge">
<title>Node4&#45;&gt;Node5</title>
<path fill="none" stroke="#191970" d="M277.9531,-261C291.4626,-261 306.1257,-261 320.4648,-261"/>
<polygon fill="#191970" stroke="#191970" points="320.8274,-264.5001 330.8274,-261 320.8274,-257.5001 320.8274,-264.5001"/>
</g>
<!-- Node7 -->
<g id="node5" class="node">
<title>Node7</title>
<g id="a_node5"><a xlink:href="namespacesll__m__cubic__splines.html#a78c2f7524989143dc18bfbe96f7667fb" target="_top" xlink:title="sll_m_cubic_splines\l::compute_spline_1d\l_periodic">
<polygon fill="#ffffff" stroke="#000000" points="342.5,-182.5 342.5,-223.5 459.5,-223.5 459.5,-182.5 342.5,-182.5"/>
<text text-anchor="start" x="350.5" y="-211.5" font-family="Helvetica,sans-Serif" font-size="10.00" fill="#000000">sll_m_cubic_splines</text>
<text text-anchor="start" x="350.5" y="-200.5" font-family="Helvetica,sans-Serif" font-size="10.00" fill="#000000">::compute_spline_1d</text>
<text text-anchor="middle" x="401" y="-189.5" font-family="Helvetica,sans-Serif" font-size="10.00" fill="#000000">_periodic</text>
</a>
</g>
</g>
<!-- Node6&#45;&gt;Node7 -->
<g id="edge4" class="edge">
<title>Node6&#45;&gt;Node7</title>
<path fill="none" stroke="#191970" d="M291.1081,-201.779C304.6379,-201.9293 318.7991,-202.0867 332.284,-202.2365"/>
<polygon fill="#191970" stroke="#191970" points="332.4042,-205.7379 342.4426,-202.3494 332.4821,-198.7384 332.4042,-205.7379"/>
</g>
<!-- Node10 -->
<g id="node8" class="node">
<title>Node10</title>
<g id="a_node8"><a xlink:href="namespacesll__m__cubic__splines.html#a813ec77055a7936e0c4697d0098178a2" target="_top" xlink:title="sll_m_cubic_splines\l::compute_spline_1d\l_hermite">
<polygon fill="#ffffff" stroke="#000000" points="342.5,-122.5 342.5,-163.5 459.5,-163.5 459.5,-122.5 342.5,-122.5"/>
<text text-anchor="start" x="350.5" y="-151.5" font-family="Helvetica,sans-Serif" font-size="10.00" fill="#000000">sll_m_cubic_splines</text>
<text text-anchor="start" x="350.5" y="-140.5" font-family="Helvetica,sans-Serif" font-size="10.00" fill="#000000">::compute_spline_1d</text>
<text text-anchor="middle" x="401" y="-129.5" font-family="Helvetica,sans-Serif" font-size="10.00" fill="#000000">_hermite</text>
</a>
</g>
</g>
<!-- Node6&#45;&gt;Node10 -->
<g id="edge7" class="edge">
<title>Node6&#45;&gt;Node10</title>
<path fill="none" stroke="#191970" d="M284.7146,-180.4697C300.2923,-175.4503 317.0217,-170.0597 332.7999,-164.9756"/>
<polygon fill="#191970" stroke="#191970" points="334.0378,-168.254 342.4824,-161.8557 331.8909,-161.5913 334.0378,-168.254"/>
</g>
<!-- Node8 -->
<g id="node6" class="node">
<title>Node8</title>
<g id="a_node6"><a xlink:href="namespacesll__m__tridiagonal.html#a7760525c99ca03ee433e5d536d72db38" target="_top" xlink:title="Solves tridiagonal system. ">
<polygon fill="#ffffff" stroke="#000000" points="507,-152.5 507,-193.5 647,-193.5 647,-152.5 507,-152.5"/>
<text text-anchor="start" x="515" y="-181.5" font-family="Helvetica,sans-Serif" font-size="10.00" fill="#000000">sll_m_tridiagonal::</text>
<text text-anchor="start" x="515" y="-170.5" font-family="Helvetica,sans-Serif" font-size="10.00" fill="#000000">sll_s_solve_cyclic_tridiag</text>
<text text-anchor="middle" x="577" y="-159.5" font-family="Helvetica,sans-Serif" font-size="10.00" fill="#000000">_double</text>
</a>
</g>
</g>
<!-- Node7&#45;&gt;Node8 -->
<g id="edge5" class="edge">
<title>Node7&#45;&gt;Node8</title>
<path fill="none" stroke="#191970" d="M459.6055,-193.0104C471.5199,-190.9796 484.2466,-188.8102 496.7623,-186.6769"/>
<polygon fill="#191970" stroke="#191970" points="497.4651,-190.1077 506.7348,-184.977 496.2888,-183.2072 497.4651,-190.1077"/>
</g>
<!-- Node9 -->
<g id="node7" class="node">
<title>Node9</title>
<g id="a_node7"><a xlink:href="namespacesll__m__cubic__splines.html#a908d8f64cc3a4c32d9bdc5afc4077948" target="_top" xlink:title="sll_m_cubic_splines\l::compute_spline_1d\l_periodic_aux">
<polygon fill="#ffffff" stroke="#000000" points="518.5,-212.5 518.5,-253.5 635.5,-253.5 635.5,-212.5 518.5,-212.5"/>
<text text-anchor="start" x="526.5" y="-241.5" font-family="Helvetica,sans-Serif" font-size="10.00" fill="#000000">sll_m_cubic_splines</text>
<text text-anchor="start" x="526.5" y="-230.5" font-family="Helvetica,sans-Serif" font-size="10.00" fill="#000000">::compute_spline_1d</text>
<text text-anchor="middle" x="577" y="-219.5" font-family="Helvetica,sans-Serif" font-size="10.00" fill="#000000">_periodic_aux</text>
</a>
</g>
</g>
<!-- Node7&#45;&gt;Node9 -->
<g id="edge6" class="edge">
<title>Node7&#45;&gt;Node9</title>
<path fill="none" stroke="#191970" d="M459.6055,-212.9896C475.2566,-215.6574 492.3092,-218.5641 508.4438,-221.3143"/>
<polygon fill="#191970" stroke="#191970" points="507.9046,-224.7728 518.3506,-223.0029 509.0809,-217.8723 507.9046,-224.7728"/>
</g>
<!-- Node10&#45;&gt;Node8 -->
<g id="edge8" class="edge">
<title>Node10&#45;&gt;Node8</title>
<path fill="none" stroke="#191970" d="M459.6055,-152.9896C471.5199,-155.0204 484.2466,-157.1898 496.7623,-159.3231"/>
<polygon fill="#191970" stroke="#191970" points="496.2888,-162.7928 506.7348,-161.023 497.4651,-155.8923 496.2888,-162.7928"/>
</g>
<!-- Node11 -->
<g id="node9" class="node">
<title>Node11</title>
<g id="a_node9"><a xlink:href="namespacesll__m__cubic__splines.html#a3f3f1aa98bfbb8c05458a1eb30941d6d" target="_top" xlink:title="sll_m_cubic_splines\l::compute_spline_1d\l_hermite_aux">
<polygon fill="#ffffff" stroke="#000000" points="518.5,-92.5 518.5,-133.5 635.5,-133.5 635.5,-92.5 518.5,-92.5"/>
<text text-anchor="start" x="526.5" y="-121.5" font-family="Helvetica,sans-Serif" font-size="10.00" fill="#000000">sll_m_cubic_splines</text>
<text text-anchor="start" x="526.5" y="-110.5" font-family="Helvetica,sans-Serif" font-size="10.00" fill="#000000">::compute_spline_1d</text>
<text text-anchor="middle" x="577" y="-99.5" font-family="Helvetica,sans-Serif" font-size="10.00" fill="#000000">_hermite_aux</text>
</a>
</g>
</g>
<!-- Node10&#45;&gt;Node11 -->
<g id="edge9" class="edge">
<title>Node10&#45;&gt;Node11</title>
<path fill="none" stroke="#191970" d="M459.6055,-133.0104C475.2566,-130.3426 492.3092,-127.4359 508.4438,-124.6857"/>
<polygon fill="#191970" stroke="#191970" points="509.0809,-128.1277 518.3506,-122.9971 507.9046,-121.2272 509.0809,-128.1277"/>
</g>
<!-- Node14 -->
<g id="node12" class="node">
<title>Node14</title>
<g id="a_node12"><a xlink:href="namespacesll__m__cubic__splines.html#ab80965fe0af03954be7883b621079a50" target="_top" xlink:title="sll_m_cubic_splines\l::interpolate_value_aux">
<polygon fill="#ffffff" stroke="#000000" points="335.5,-66 335.5,-96 466.5,-96 466.5,-66 335.5,-66"/>
<text text-anchor="start" x="343.5" y="-84" font-family="Helvetica,sans-Serif" font-size="10.00" fill="#000000">sll_m_cubic_splines</text>
<text text-anchor="middle" x="401" y="-73" font-family="Helvetica,sans-Serif" font-size="10.00" fill="#000000">::interpolate_value_aux</text>
</a>
</g>
</g>
<!-- Node13&#45;&gt;Node14 -->
<g id="edge12" class="edge">
<title>Node13&#45;&gt;Node14</title>
<path fill="none" stroke="#191970" d="M277.9531,-81C292.9078,-81 309.2761,-81 325.0536,-81"/>
<polygon fill="#191970" stroke="#191970" points="325.3156,-84.5001 335.3155,-81 325.3155,-77.5001 325.3156,-84.5001"/>
</g>
</g>
</svg>
        <g id="navigator" transform="translate(0 0)" fill="#404254">
                <rect fill="#f2f5e9" fill-opacity="0.5" stroke="#606060" stroke-width=".5" x="0" y="0" width="60" height="60"/>
                <use id="zoomplus" xlink:href="#zoomPlus" x="17" y="9" onmousedown="handleZoom(evt,'in')"/>
                <use id="zoomminus" xlink:href="#zoomMin" x="42" y="9" onmousedown="handleZoom(evt,'out')"/>
                <use id="reset" xlink:href="#resetDef" x="30" y="36" onmousedown="handleReset()"/>
                <g id="arrowUp" xlink:href="#dirArrow" transform="translate(30 24)" onmousedown="handlePan(0,-1)">
                  <use xlink:href="#rim" fill="#404040">
                        <set attributeName="fill" to="#808080" begin="arrowUp.mouseover" end="arrowUp.mouseout"/>
                  </use>
                  <path fill="none" stroke="white" stroke-width="1.5" d="M0,-3.0v7 M-2.5,-0.5L0,-3.0L2.5,-0.5"/>
                </g>
                <g id="arrowRight" xlink:href="#dirArrow" transform="rotate(90) translate(36 -43)" onmousedown="handlePan(1,0)">
                  <use xlink:href="#rim" fill="#404040">
                        <set attributeName="fill" to="#808080" begin="arrowRight.mouseover" end="arrowRight.mouseout"/>
                  </use>
                  <path fill="none" stroke="white" stroke-width="1.5" d="M0,-3.0v7 M-2.5,-0.5L0,-3.0L2.5,-0.5"/>
                </g>
                <g id="arrowDown" xlink:href="#dirArrow" transform="rotate(180) translate(-30 -48)" onmousedown="handlePan(0,1)">
                  <use xlink:href="#rim" fill="#404040">
                        <set attributeName="fill" to="#808080" begin="arrowDown.mouseover" end="arrowDown.mouseout"/>
                  </use>
                  <path fill="none" stroke="white" stroke-width="1.5" d="M0,-3.0v7 M-2.5,-0.5L0,-3.0L2.5,-0.5"/>
                </g>
                <g id="arrowLeft" xlink:href="#dirArrow" transform="rotate(270) translate(-36 17)" onmousedown="handlePan(-1,0)">
                  <use xlink:href="#rim" fill="#404040">
                        <set attributeName="fill" to="#808080" begin="arrowLeft.mouseover" end="arrowLeft.mouseout"/>
                  </use>
                  <path fill="none" stroke="white" stroke-width="1.5" d="M0,-3.0v7 M-2.5,-0.5L0,-3.0L2.5,-0.5"/>
                </g>
        </g>
        <svg viewBox="0 0 15 15" width="100%" height="30px" preserveAspectRatio="xMaxYMin meet">
         <g id="arrow_out" transform="scale(0.3 0.3)">
          <a xlink:href="namespacesll__m__fdistribu4d__dk_ad019b52770477f636c8115bc5ad20475_cgraph_org.svg" target="_base">
           <rect id="button" ry="5" rx="5" y="6" x="6" height="38" width="38"
                fill="#f2f5e9" fill-opacity="0.5" stroke="#606060" stroke-width="1.0"/>
           <path id="arrow"
             d="M 11.500037,31.436501 C 11.940474,20.09759 22.043105,11.32322 32.158766,21.979434 L 37.068811,17.246167 C 37.068811,17.246167 37.088388,32 37.088388,32 L 22.160133,31.978069 C 22.160133,31.978069 26.997745,27.140456 26.997745,27.140456 C 18.528582,18.264221 13.291696,25.230495 11.500037,31.436501 z"
             style="fill:#404040;"/>
          </a>
         </g>
        </svg>
</svg>
