<?xml version="1.0" encoding="UTF-8" standalone="no"?>
<!DOCTYPE svg PUBLIC "-//W3C//DTD SVG 1.1//EN"
 "http://www.w3.org/Graphics/SVG/1.1/DTD/svg11.dtd">
<!-- Generated by graphviz version 2.40.1 (20161225.0304)
 -->
<!-- Title: sll_s_spline_fem_mass_line_full Pages: 1 -->
<svg width="490pt" height="110pt"
 viewBox="0.00 0.00 490.00 110.00" xmlns="http://www.w3.org/2000/svg" xmlns:xlink="http://www.w3.org/1999/xlink">
<g id="graph0" class="graph" transform="scale(1 1) rotate(0) translate(4 106)">
<title>sll_s_spline_fem_mass_line_full</title>
<polygon fill="#ffffff" stroke="transparent" points="-4,4 -4,-106 486,-106 486,4 -4,4"/>
<!-- Node109 -->
<g id="node1" class="node">
<title>Node109</title>
<polygon fill="#bfbfbf" stroke="#000000" points="0,-36 0,-66 129,-66 129,-36 0,-36"/>
<text text-anchor="start" x="8" y="-54" font-family="Helvetica,sans-Serif" font-size="10.00" fill="#000000">sll_s_spline_fem_mass</text>
<text text-anchor="middle" x="64.5" y="-43" font-family="Helvetica,sans-Serif" font-size="10.00" fill="#000000">_line_full</text>
</g>
<!-- Node110 -->
<g id="node2" class="node">
<title>Node110</title>
<g id="a_node2"><a xlink:href="namespacesll__m__spline__fem__utilities__sparse.html#af53327cdd86680d4562373cb2642979f" target="_top" xlink:title="Set up 1d mass matrix for specific spline degree and profile function. ">
<polygon fill="#ffffff" stroke="#000000" points="165,-60.5 165,-101.5 309,-101.5 309,-60.5 165,-60.5"/>
<text text-anchor="start" x="173" y="-89.5" font-family="Helvetica,sans-Serif" font-size="10.00" fill="#000000">sll_m_spline_fem_utilities</text>
<text text-anchor="start" x="173" y="-78.5" font-family="Helvetica,sans-Serif" font-size="10.00" fill="#000000">_sparse::sll_s_spline_fem</text>
<text text-anchor="middle" x="237" y="-67.5" font-family="Helvetica,sans-Serif" font-size="10.00" fill="#000000">_mass1d_full</text>
</a>
</g>
</g>
<!-- Node109&#45;&gt;Node110 -->
<g id="edge1" class="edge">
<title>Node109&#45;&gt;Node110</title>
<path fill="none" stroke="#191970" d="M139.1768,-63.9873C147.7337,-65.4754 156.4455,-66.9905 164.9668,-68.4725"/>
<polygon fill="#191970" stroke="#191970" points="139.6753,-60.5215 129.2234,-62.2562 138.4758,-67.418 139.6753,-60.5215"/>
</g>
<!-- Node112 -->
<g id="node4" class="node">
<title>Node112</title>
<g id="a_node4"><a xlink:href="namespacesll__m__spline__fem__utilities__sparse.html#a3fcb7d2b9d5aadd6a42eb295cc25b3b6" target="_top" xlink:title="Set up 1d mass matrix for specific spline degree and profile function. ">
<polygon fill="#ffffff" stroke="#000000" points="165,-.5 165,-41.5 309,-41.5 309,-.5 165,-.5"/>
<text text-anchor="start" x="173" y="-29.5" font-family="Helvetica,sans-Serif" font-size="10.00" fill="#000000">sll_m_spline_fem_utilities</text>
<text text-anchor="start" x="173" y="-18.5" font-family="Helvetica,sans-Serif" font-size="10.00" fill="#000000">_sparse::sll_s_spline_fem</text>
<text text-anchor="middle" x="237" y="-7.5" font-family="Helvetica,sans-Serif" font-size="10.00" fill="#000000">_mass1d_clamped_full</text>
</a>
</g>
</g>
<!-- Node109&#45;&gt;Node112 -->
<g id="edge3" class="edge">
<title>Node109&#45;&gt;Node112</title>
<path fill="none" stroke="#191970" d="M139.1768,-38.0127C147.7337,-36.5246 156.4455,-35.0095 164.9668,-33.5275"/>
<polygon fill="#191970" stroke="#191970" points="138.4758,-34.582 129.2234,-39.7438 139.6753,-41.4785 138.4758,-34.582"/>
</g>
<!-- Node111 -->
<g id="node3" class="node">
<title>Node111</title>
<g id="a_node3"><a xlink:href="namespacesll__m__maxwell__1d__trafo.html#a379870fb13734539528b6b4fd558963f" target="_top" xlink:title="Initialization. ">
<polygon fill="#ffffff" stroke="#000000" points="345.5,-66 345.5,-96 481.5,-96 481.5,-66 345.5,-66"/>
<text text-anchor="start" x="353.5" y="-84" font-family="Helvetica,sans-Serif" font-size="10.00" fill="#000000">sll_m_maxwell_1d_trafo</text>
<text text-anchor="middle" x="413.5" y="-73" font-family="Helvetica,sans-Serif" font-size="10.00" fill="#000000">::init_1d_trafo</text>
</a>
</g>
</g>
<!-- Node110&#45;&gt;Node111 -->
<g id="edge2" class="edge">
<title>Node110&#45;&gt;Node111</title>
<path fill="none" stroke="#191970" d="M319.2553,-81C328.0025,-81 336.8286,-81 345.3877,-81"/>
<polygon fill="#191970" stroke="#191970" points="319.0439,-77.5001 309.0439,-81 319.0438,-84.5001 319.0439,-77.5001"/>
</g>
<!-- Node113 -->
<g id="node5" class="node">
<title>Node113</title>
<g id="a_node5"><a xlink:href="namespacesll__m__maxwell__clamped__1d__trafo.html#a800127433401043caf9d2b00dfa7e79f" target="_top" xlink:title="Initialization. ">
<polygon fill="#ffffff" stroke="#000000" points="345,-6 345,-36 482,-36 482,-6 345,-6"/>
<text text-anchor="start" x="353" y="-24" font-family="Helvetica,sans-Serif" font-size="10.00" fill="#000000">sll_m_maxwell_clamped</text>
<text text-anchor="middle" x="413.5" y="-13" font-family="Helvetica,sans-Serif" font-size="10.00" fill="#000000">_1d_trafo::init_1d_trafo</text>
</a>
</g>
</g>
<!-- Node112&#45;&gt;Node113 -->
<g id="edge4" class="edge">
<title>Node112&#45;&gt;Node113</title>
<path fill="none" stroke="#191970" d="M319.0924,-21C327.6997,-21 336.3856,-21 344.8203,-21"/>
<polygon fill="#191970" stroke="#191970" points="319.0439,-17.5001 309.0439,-21 319.0438,-24.5001 319.0439,-17.5001"/>
</g>
</g>
</svg>
