<?xml version="1.0" encoding="UTF-8" standalone="no"?>
<!DOCTYPE svg PUBLIC "-//W3C//DTD SVG 1.1//EN"
 "http://www.w3.org/Graphics/SVG/1.1/DTD/svg11.dtd">
<!-- Generated by graphviz version 2.43.0 (0)
 -->
<!-- Title: sll_s_compute_gyroaverage_points_polar_spl Pages: 1 -->
<svg width="429pt" height="142pt"
 viewBox="0.00 0.00 429.00 142.00" xmlns="http://www.w3.org/2000/svg" xmlns:xlink="http://www.w3.org/1999/xlink">
<g id="graph0" class="graph" transform="scale(1 1) rotate(0) translate(4 138)">
<title>sll_s_compute_gyroaverage_points_polar_spl</title>
<polygon fill="white" stroke="transparent" points="-4,4 -4,-138 425,-138 425,4 -4,4"/>
<!-- Node1 -->
<g id="node1" class="node">
<title>Node1</title>
<g id="a_node1"><a xlink:title=" ">
<polygon fill="#bfbfbf" stroke="black" points="0,-52 0,-82 153,-82 153,-52 0,-52"/>
<text text-anchor="start" x="8" y="-70" font-family="Helvetica,sans-Serif" font-size="10.00">sll_s_compute_gyroaverage</text>
<text text-anchor="middle" x="76.5" y="-59" font-family="Helvetica,sans-Serif" font-size="10.00">_points_polar_spl</text>
</a>
</g>
</g>
<!-- Node2 -->
<g id="node2" class="node">
<title>Node2</title>
<g id="a_node2"><a xlink:href="namespacesll__m__gyroaverage__2d__polar.html#a6d7b2c34d4c4ef7a19e807363cc8e387" target="_top" xlink:title=" ">
<polygon fill="white" stroke="black" points="189,-114.5 189,-133.5 290,-133.5 290,-114.5 189,-114.5"/>
<text text-anchor="middle" x="239.5" y="-121.5" font-family="Helvetica,sans-Serif" font-size="10.00">splcoefnat1d0old</text>
</a>
</g>
</g>
<!-- Node1&#45;&gt;Node2 -->
<g id="edge1" class="edge">
<title>Node1&#45;&gt;Node2</title>
<path fill="none" stroke="midnightblue" d="M120.22,-82.13C145.6,-91.11 177.47,-102.39 201.72,-110.98"/>
<polygon fill="midnightblue" stroke="midnightblue" points="200.69,-114.33 211.28,-114.36 203.02,-107.73 200.69,-114.33"/>
</g>
<!-- Node3 -->
<g id="node3" class="node">
<title>Node3</title>
<g id="a_node3"><a xlink:href="namespacesll__m__gyroaverage__2d__polar.html#aa3be680ae583d97a373f0e422866a37b" target="_top" xlink:title=" ">
<polygon fill="white" stroke="black" points="192,-76.5 192,-95.5 287,-95.5 287,-76.5 192,-76.5"/>
<text text-anchor="middle" x="239.5" y="-83.5" font-family="Helvetica,sans-Serif" font-size="10.00">splcoefnatper2d</text>
</a>
</g>
</g>
<!-- Node1&#45;&gt;Node3 -->
<g id="edge2" class="edge">
<title>Node1&#45;&gt;Node3</title>
<path fill="none" stroke="midnightblue" d="M153.29,-75.94C162.77,-77.06 172.34,-78.19 181.46,-79.27"/>
<polygon fill="midnightblue" stroke="midnightblue" points="181.21,-82.76 191.55,-80.46 182.03,-75.81 181.21,-82.76"/>
</g>
<!-- Node6 -->
<g id="node6" class="node">
<title>Node6</title>
<g id="a_node6"><a xlink:href="namespacesll__m__gyroaverage__2d__polar.html#a1c0d94974a949f99061b69c739accff1" target="_top" xlink:title=" ">
<polygon fill="white" stroke="black" points="189,-38.5 189,-57.5 290,-57.5 290,-38.5 189,-38.5"/>
<text text-anchor="middle" x="239.5" y="-45.5" font-family="Helvetica,sans-Serif" font-size="10.00">splcoefper1d0old</text>
</a>
</g>
</g>
<!-- Node1&#45;&gt;Node6 -->
<g id="edge5" class="edge">
<title>Node1&#45;&gt;Node6</title>
<path fill="none" stroke="midnightblue" d="M153.29,-58.06C161.87,-57.04 170.52,-56.02 178.85,-55.04"/>
<polygon fill="midnightblue" stroke="midnightblue" points="179.31,-58.51 188.83,-53.86 178.49,-51.56 179.31,-58.51"/>
</g>
<!-- Node7 -->
<g id="node7" class="node">
<title>Node7</title>
<g id="a_node7"><a xlink:href="namespacesll__m__gyroaverage__2d__polar.html#aff0e677148b4323194ed071081347f91" target="_top" xlink:title=" ">
<polygon fill="white" stroke="black" points="202.5,-0.5 202.5,-19.5 276.5,-19.5 276.5,-0.5 202.5,-0.5"/>
<text text-anchor="middle" x="239.5" y="-7.5" font-family="Helvetica,sans-Serif" font-size="10.00">splnatper2d</text>
</a>
</g>
</g>
<!-- Node1&#45;&gt;Node7 -->
<g id="edge6" class="edge">
<title>Node1&#45;&gt;Node7</title>
<path fill="none" stroke="midnightblue" d="M120.22,-51.87C145.6,-42.89 177.47,-31.61 201.72,-23.02"/>
<polygon fill="midnightblue" stroke="midnightblue" points="203.02,-26.27 211.28,-19.64 200.69,-19.67 203.02,-26.27"/>
</g>
<!-- Node4 -->
<g id="node4" class="node">
<title>Node4</title>
<g id="a_node4"><a xlink:href="namespacesll__m__gyroaverage__2d__polar.html#a22bddd3eca8b7623ef7406570fabb19c" target="_top" xlink:title=" ">
<polygon fill="white" stroke="black" points="326,-95.5 326,-114.5 421,-114.5 421,-95.5 326,-95.5"/>
<text text-anchor="middle" x="373.5" y="-102.5" font-family="Helvetica,sans-Serif" font-size="10.00">splcoefnat1dold</text>
</a>
</g>
</g>
<!-- Node3&#45;&gt;Node4 -->
<g id="edge3" class="edge">
<title>Node3&#45;&gt;Node4</title>
<path fill="none" stroke="midnightblue" d="M287.04,-92.7C296.4,-94.05 306.34,-95.48 316,-96.87"/>
<polygon fill="midnightblue" stroke="midnightblue" points="315.54,-100.34 325.94,-98.3 316.54,-93.41 315.54,-100.34"/>
</g>
<!-- Node5 -->
<g id="node5" class="node">
<title>Node5</title>
<g id="a_node5"><a xlink:href="namespacesll__m__gyroaverage__2d__polar.html#a39670e7a4c0db9bf46259b8cf1e0e2c6" target="_top" xlink:title=" ">
<polygon fill="white" stroke="black" points="326,-57.5 326,-76.5 421,-76.5 421,-57.5 326,-57.5"/>
<text text-anchor="middle" x="373.5" y="-64.5" font-family="Helvetica,sans-Serif" font-size="10.00">splcoefper1dold</text>
</a>
</g>
</g>
<!-- Node3&#45;&gt;Node5 -->
<g id="edge4" class="edge">
<title>Node3&#45;&gt;Node5</title>
<path fill="none" stroke="midnightblue" d="M287.04,-79.3C296.4,-77.95 306.34,-76.52 316,-75.13"/>
<polygon fill="midnightblue" stroke="midnightblue" points="316.54,-78.59 325.94,-73.7 315.54,-71.66 316.54,-78.59"/>
</g>
</g>
</svg>
