<?xml version="1.0" encoding="UTF-8" standalone="no"?>
<!DOCTYPE svg PUBLIC "-//W3C//DTD SVG 1.1//EN"
 "http://www.w3.org/Graphics/SVG/1.1/DTD/svg11.dtd">
<!-- Generated by graphviz version 2.38.0 (20140413.2041)
 -->
<!-- Title: sll_s_compute_gyroaverage_points_polar_spl Pages: 1 -->
<svg width="393pt" height="142pt"
 viewBox="0.00 0.00 393.00 142.00" xmlns="http://www.w3.org/2000/svg" xmlns:xlink="http://www.w3.org/1999/xlink">
<g id="graph0" class="graph" transform="scale(1 1) rotate(0) translate(4 138)">
<title>sll_s_compute_gyroaverage_points_polar_spl</title>
<polygon fill="white" stroke="none" points="-4,4 -4,-138 389,-138 389,4 -4,4"/>
<!-- Node1 -->
<g id="node1" class="node"><title>Node1</title>
<polygon fill="#bfbfbf" stroke="black" points="0,-52 0,-82 138,-82 138,-52 0,-52"/>
<text text-anchor="start" x="8" y="-70" font-family="Helvetica,sans-Serif" font-size="10.00">sll_s_compute_gyroaverage</text>
<text text-anchor="middle" x="69" y="-59" font-family="Helvetica,sans-Serif" font-size="10.00">_points_polar_spl</text>
</g>
<!-- Node2 -->
<g id="node2" class="node"><title>Node2</title>
<g id="a_node2"><a xlink:href="namespacesll__m__gyroaverage__2d__polar.html#a6d7b2c34d4c4ef7a19e807363cc8e387" target="_top" xlink:title="splcoefnat1d0old">
<polygon fill="white" stroke="black" points="174,-114.5 174,-133.5 264,-133.5 264,-114.5 174,-114.5"/>
<text text-anchor="middle" x="219" y="-121.5" font-family="Helvetica,sans-Serif" font-size="10.00">splcoefnat1d0old</text>
</a>
</g>
</g>
<!-- Node1&#45;&gt;Node2 -->
<g id="edge1" class="edge"><title>Node1&#45;&gt;Node2</title>
<path fill="none" stroke="midnightblue" d="M109.273,-82.1253C132.398,-91.0316 161.375,-102.192 183.598,-110.75"/>
<polygon fill="midnightblue" stroke="midnightblue" points="182.389,-114.036 192.979,-114.363 184.905,-107.503 182.389,-114.036"/>
</g>
<!-- Node3 -->
<g id="node3" class="node"><title>Node3</title>
<g id="a_node3"><a xlink:href="namespacesll__m__gyroaverage__2d__polar.html#a1c0d94974a949f99061b69c739accff1" target="_top" xlink:title="splcoefper1d0old">
<polygon fill="white" stroke="black" points="174,-76.5 174,-95.5 264,-95.5 264,-76.5 174,-76.5"/>
<text text-anchor="middle" x="219" y="-83.5" font-family="Helvetica,sans-Serif" font-size="10.00">splcoefper1d0old</text>
</a>
</g>
</g>
<!-- Node1&#45;&gt;Node3 -->
<g id="edge2" class="edge"><title>Node1&#45;&gt;Node3</title>
<path fill="none" stroke="midnightblue" d="M138.368,-75.777C146.782,-76.8572 155.294,-77.9499 163.465,-78.9989"/>
<polygon fill="midnightblue" stroke="midnightblue" points="163.236,-82.4981 173.6,-80.3 164.127,-75.555 163.236,-82.4981"/>
</g>
<!-- Node4 -->
<g id="node4" class="node"><title>Node4</title>
<g id="a_node4"><a xlink:href="namespacesll__m__gyroaverage__2d__polar.html#aa3be680ae583d97a373f0e422866a37b" target="_top" xlink:title="splcoefnatper2d">
<polygon fill="white" stroke="black" points="176,-38.5 176,-57.5 262,-57.5 262,-38.5 176,-38.5"/>
<text text-anchor="middle" x="219" y="-45.5" font-family="Helvetica,sans-Serif" font-size="10.00">splcoefnatper2d</text>
</a>
</g>
</g>
<!-- Node1&#45;&gt;Node4 -->
<g id="edge3" class="edge"><title>Node1&#45;&gt;Node4</title>
<path fill="none" stroke="midnightblue" d="M138.368,-58.223C147.514,-57.0489 156.775,-55.86 165.588,-54.7286"/>
<polygon fill="midnightblue" stroke="midnightblue" points="166.221,-58.1761 175.694,-53.4311 165.33,-51.233 166.221,-58.1761"/>
</g>
<!-- Node7 -->
<g id="node7" class="node"><title>Node7</title>
<g id="a_node7"><a xlink:href="namespacesll__m__gyroaverage__2d__polar.html#aff0e677148b4323194ed071081347f91" target="_top" xlink:title="splnatper2d">
<polygon fill="white" stroke="black" points="185.5,-0.5 185.5,-19.5 252.5,-19.5 252.5,-0.5 185.5,-0.5"/>
<text text-anchor="middle" x="219" y="-7.5" font-family="Helvetica,sans-Serif" font-size="10.00">splnatper2d</text>
</a>
</g>
</g>
<!-- Node1&#45;&gt;Node7 -->
<g id="edge6" class="edge"><title>Node1&#45;&gt;Node7</title>
<path fill="none" stroke="midnightblue" d="M109.273,-51.8747C132.398,-42.9684 161.375,-31.8085 183.598,-23.2496"/>
<polygon fill="midnightblue" stroke="midnightblue" points="184.905,-26.4967 192.979,-19.6365 182.389,-19.9645 184.905,-26.4967"/>
</g>
<!-- Node5 -->
<g id="node5" class="node"><title>Node5</title>
<g id="a_node5"><a xlink:href="namespacesll__m__gyroaverage__2d__polar.html#a22bddd3eca8b7623ef7406570fabb19c" target="_top" xlink:title="splcoefnat1dold">
<polygon fill="white" stroke="black" points="300,-57.5 300,-76.5 385,-76.5 385,-57.5 300,-57.5"/>
<text text-anchor="middle" x="342.5" y="-64.5" font-family="Helvetica,sans-Serif" font-size="10.00">splcoefnat1dold</text>
</a>
</g>
</g>
<!-- Node4&#45;&gt;Node5 -->
<g id="edge4" class="edge"><title>Node4&#45;&gt;Node5</title>
<path fill="none" stroke="midnightblue" d="M262.154,-54.592C271.113,-55.993 280.67,-57.4875 289.935,-58.9363"/>
<polygon fill="midnightblue" stroke="midnightblue" points="289.411,-62.3968 299.831,-60.4839 290.492,-55.4808 289.411,-62.3968"/>
</g>
<!-- Node6 -->
<g id="node6" class="node"><title>Node6</title>
<g id="a_node6"><a xlink:href="namespacesll__m__gyroaverage__2d__polar.html#a39670e7a4c0db9bf46259b8cf1e0e2c6" target="_top" xlink:title="splcoefper1dold">
<polygon fill="white" stroke="black" points="300,-19.5 300,-38.5 385,-38.5 385,-19.5 300,-19.5"/>
<text text-anchor="middle" x="342.5" y="-26.5" font-family="Helvetica,sans-Serif" font-size="10.00">splcoefper1dold</text>
</a>
</g>
</g>
<!-- Node4&#45;&gt;Node6 -->
<g id="edge5" class="edge"><title>Node4&#45;&gt;Node6</title>
<path fill="none" stroke="midnightblue" d="M262.154,-41.408C271.113,-40.007 280.67,-38.5125 289.935,-37.0637"/>
<polygon fill="midnightblue" stroke="midnightblue" points="290.492,-40.5192 299.831,-35.5161 289.411,-33.6032 290.492,-40.5192"/>
</g>
</g>
</svg>
