<?xml version="1.0" encoding="UTF-8" standalone="no"?>
<!DOCTYPE svg PUBLIC "-//W3C//DTD SVG 1.1//EN"
 "http://www.w3.org/Graphics/SVG/1.1/DTD/svg11.dtd">
<!-- Generated by graphviz version 2.40.1 (20161225.0304)
 -->
<!-- Title: sll_s_general_elliptic_solver_mp_init Pages: 1 -->
<!--zoomable 196 -->
<svg id="main" version="1.1" xmlns="http://www.w3.org/2000/svg" xmlns:xlink="http://www.w3.org/1999/xlink" xml:space="preserve" onload="init(evt)">
<style type="text/css"><![CDATA[
.edge:hover path { stroke: red; }
.edge:hover polygon { stroke: red; fill: red; }
]]></style>
<script type="text/javascript"><![CDATA[
var edges = document.getElementsByTagName('g');
if (edges && edges.length) {
  for (var i=0;i<edges.length;i++) {
    if (edges[i].id.substr(0,4)=='edge') {
      edges[i].setAttribute('class','edge');
    }
  }
}
]]></script>
        <defs>
                <circle id="rim" cx="0" cy="0" r="7"/>
                <circle id="rim2" cx="0" cy="0" r="3.5"/>
                <g id="zoomPlus">
                        <use xlink:href="#rim" fill="#404040">
                                <set attributeName="fill" to="#808080" begin="zoomplus.mouseover" end="zoomplus.mouseout"/>
                        </use>
                        <path d="M-4,0h8M0,-4v8" fill="none" stroke="white" stroke-width="1.5" pointer-events="none"/>
                </g>
                <g id="zoomMin">
                        <use xlink:href="#rim" fill="#404040">
                                <set attributeName="fill" to="#808080" begin="zoomminus.mouseover" end="zoomminus.mouseout"/>
                        </use>
                        <path d="M-4,0h8" fill="none" stroke="white" stroke-width="1.5" pointer-events="none"/>
                </g>
                <g id="dirArrow">
                        <path fill="none" stroke="white" stroke-width="1.5" d="M0,-3.0v7 M-2.5,-0.5L0,-3.0L2.5,-0.5"/>
                </g>
               <g id="resetDef">
                       <use xlink:href="#rim2" fill="#404040">
                               <set attributeName="fill" to="#808080" begin="reset.mouseover" end="reset.mouseout"/>
                       </use>
               </g>
        </defs>

<script type="text/javascript">
var viewWidth = 1013;
var viewHeight = 196;
var sectionId = 'dynsection-8';
</script>
<script xlink:href="svgpan.js"/>
<svg id="graph" class="graph">
<g id="viewport">
<title>sll_s_general_elliptic_solver_mp_init</title>
<polygon fill="#ffffff" stroke="transparent" points="-4,4 -4,-191.5 1009,-191.5 1009,4 -4,4"/>
<!-- Node38 -->
<g id="node1" class="node">
<title>Node38</title>
<polygon fill="#bfbfbf" stroke="#000000" points="0,-85.5 0,-115.5 119,-115.5 119,-85.5 0,-85.5"/>
<text text-anchor="start" x="8" y="-103.5" font-family="Helvetica,sans-Serif" font-size="10.00" fill="#000000">sll_s_general_elliptic</text>
<text text-anchor="middle" x="59.5" y="-92.5" font-family="Helvetica,sans-Serif" font-size="10.00" fill="#000000">_solver_mp_init</text>
</g>
<!-- Node39 -->
<g id="node2" class="node">
<title>Node39</title>
<g id="a_node2"><a xlink:href="namespacesll__m__gauss__legendre__integration.html#a0df63a9e8ee884c2d4a0d1f53602a949" target="_top" xlink:title="Returns a 2d array of size (2,npoints) containing gauss&#45;legendre points and weights in the interval [...">
<polygon fill="#ffffff" stroke="#000000" points="155,-146 155,-187 322,-187 322,-146 155,-146"/>
<text text-anchor="start" x="163" y="-175" font-family="Helvetica,sans-Serif" font-size="10.00" fill="#000000">sll_m_gauss_legendre</text>
<text text-anchor="start" x="163" y="-164" font-family="Helvetica,sans-Serif" font-size="10.00" fill="#000000">_integration::sll_f_gauss</text>
<text text-anchor="middle" x="238.5" y="-153" font-family="Helvetica,sans-Serif" font-size="10.00" fill="#000000">_legendre_points_and_weights</text>
</a>
</g>
</g>
<!-- Node38&#45;&gt;Node39 -->
<g id="edge1" class="edge">
<title>Node38&#45;&gt;Node39</title>
<path fill="none" stroke="#191970" d="M98.9428,-115.526C116.1372,-122.0355 136.5429,-129.706 155,-136.5 160.3711,-138.4771 165.9421,-140.5123 171.5418,-142.547"/>
<polygon fill="#191970" stroke="#191970" points="170.3684,-145.8444 180.9626,-145.9605 172.7531,-139.2631 170.3684,-145.8444"/>
</g>
<!-- Node40 -->
<g id="node3" class="node">
<title>Node40</title>
<g id="a_node3"><a xlink:href="namespacesll__m__gauss__lobatto__integration.html#abde325bec9e6c51c78f56ecc3bb075d5" target="_top" xlink:title="Returns a 2d array of size (2,n) containing gauss&#45;lobatto points and weights in the interval [a...">
<polygon fill="#ffffff" stroke="#000000" points="176,-74.5 176,-126.5 301,-126.5 301,-74.5 176,-74.5"/>
<text text-anchor="start" x="184" y="-114.5" font-family="Helvetica,sans-Serif" font-size="10.00" fill="#000000">sll_m_gauss_lobatto</text>
<text text-anchor="start" x="184" y="-103.5" font-family="Helvetica,sans-Serif" font-size="10.00" fill="#000000">_integration::sll_f</text>
<text text-anchor="start" x="184" y="-92.5" font-family="Helvetica,sans-Serif" font-size="10.00" fill="#000000">_gauss_lobatto_points</text>
<text text-anchor="middle" x="238.5" y="-81.5" font-family="Helvetica,sans-Serif" font-size="10.00" fill="#000000">_and_weights</text>
</a>
</g>
</g>
<!-- Node38&#45;&gt;Node40 -->
<g id="edge2" class="edge">
<title>Node38&#45;&gt;Node40</title>
<path fill="none" stroke="#191970" d="M119.1044,-100.5C134.0379,-100.5 150.2258,-100.5 165.7205,-100.5"/>
<polygon fill="#191970" stroke="#191970" points="165.7826,-104.0001 175.7825,-100.5 165.7825,-97.0001 165.7826,-104.0001"/>
</g>
<!-- Node45 -->
<g id="node8" class="node">
<title>Node45</title>
<g id="a_node8"><a xlink:href="namespacesll__m__sparse__matrix__mp.html#ab8ac37685dad402f808e43fd26578034" target="_top" xlink:title="allocates the memory space for a new CSR type on the heap, initializes it with the given arguments an...">
<polygon fill="#ffffff" stroke="#000000" points="155,-25.5 155,-55.5 322,-55.5 322,-25.5 155,-25.5"/>
<text text-anchor="start" x="163" y="-43.5" font-family="Helvetica,sans-Serif" font-size="10.00" fill="#000000">sll_m_sparse_matrix</text>
<text text-anchor="middle" x="238.5" y="-32.5" font-family="Helvetica,sans-Serif" font-size="10.00" fill="#000000">_mp::sll_f_new_csr_matrix_mp</text>
</a>
</g>
</g>
<!-- Node38&#45;&gt;Node45 -->
<g id="edge8" class="edge">
<title>Node38&#45;&gt;Node45</title>
<path fill="none" stroke="#191970" d="M98.8063,-85.488C115.9766,-79.0879 136.4011,-71.6862 155,-65.5 161.9102,-63.2016 169.1732,-60.8838 176.4121,-58.6352"/>
<polygon fill="#191970" stroke="#191970" points="177.7007,-61.901 186.2331,-55.6202 175.6462,-55.2092 177.7007,-61.901"/>
</g>
<!-- Node41 -->
<g id="node4" class="node">
<title>Node41</title>
<g id="a_node4"><a xlink:href="namespacesll__m__gauss__lobatto__integration.html#a43443dd7dd80f1289d964b572cd6ee2c" target="_top" xlink:title="Returns a 1d array of size (n) containing gauss&#45;lobatto points in the interval [a,b]. ">
<polygon fill="#ffffff" stroke="#000000" points="362.5,-140 362.5,-181 487.5,-181 487.5,-140 362.5,-140"/>
<text text-anchor="start" x="370.5" y="-169" font-family="Helvetica,sans-Serif" font-size="10.00" fill="#000000">sll_m_gauss_lobatto</text>
<text text-anchor="start" x="370.5" y="-158" font-family="Helvetica,sans-Serif" font-size="10.00" fill="#000000">_integration::sll_f</text>
<text text-anchor="middle" x="425" y="-147" font-family="Helvetica,sans-Serif" font-size="10.00" fill="#000000">_gauss_lobatto_points</text>
</a>
</g>
</g>
<!-- Node40&#45;&gt;Node41 -->
<g id="edge3" class="edge">
<title>Node40&#45;&gt;Node41</title>
<path fill="none" stroke="#191970" d="M301.1206,-120.646C317.5741,-125.9394 335.4587,-131.6932 352.388,-137.1396"/>
<polygon fill="#191970" stroke="#191970" points="351.6358,-140.5742 362.2272,-140.305 353.7796,-133.9105 351.6358,-140.5742"/>
</g>
<!-- Node44 -->
<g id="node7" class="node">
<title>Node44</title>
<g id="a_node7"><a xlink:href="namespacesll__m__gauss__lobatto__integration.html#ab2dd3e9cafb094226c63f629745b0654" target="_top" xlink:title="Returns a 1d array of size (n) containing gauss&#45;lobatto weights in the interval [a,b]. ">
<polygon fill="#ffffff" stroke="#000000" points="358,-80 358,-121 492,-121 492,-80 358,-80"/>
<text text-anchor="start" x="366" y="-109" font-family="Helvetica,sans-Serif" font-size="10.00" fill="#000000">sll_m_gauss_lobatto</text>
<text text-anchor="start" x="366" y="-98" font-family="Helvetica,sans-Serif" font-size="10.00" fill="#000000">_integration::sll_f</text>
<text text-anchor="middle" x="425" y="-87" font-family="Helvetica,sans-Serif" font-size="10.00" fill="#000000">_gauss_lobatto_weights</text>
</a>
</g>
</g>
<!-- Node40&#45;&gt;Node44 -->
<g id="edge6" class="edge">
<title>Node40&#45;&gt;Node44</title>
<path fill="none" stroke="#191970" d="M301.1206,-100.5C316.0513,-100.5 332.1604,-100.5 347.6647,-100.5"/>
<polygon fill="#191970" stroke="#191970" points="347.7475,-104.0001 357.7475,-100.5 347.7474,-97.0001 347.7475,-104.0001"/>
</g>
<!-- Node42 -->
<g id="node5" class="node">
<title>Node42</title>
<g id="a_node5"><a xlink:href="namespacesll__m__gauss__lobatto__integration.html#aef28cd44b846400f5133a0ee289babbc" target="_top" xlink:title="This comes from http://dl.acm.org, Algorithme 726 : ORTHPOL, appendices and supplements To use those ...">
<polygon fill="#ffffff" stroke="#000000" points="553.5,-127.5 553.5,-157.5 669.5,-157.5 669.5,-127.5 553.5,-127.5"/>
<text text-anchor="start" x="561.5" y="-145.5" font-family="Helvetica,sans-Serif" font-size="10.00" fill="#000000">sll_m_gauss_lobatto</text>
<text text-anchor="middle" x="611.5" y="-134.5" font-family="Helvetica,sans-Serif" font-size="10.00" fill="#000000">_integration::dlob</text>
</a>
</g>
</g>
<!-- Node41&#45;&gt;Node42 -->
<g id="edge4" class="edge">
<title>Node41&#45;&gt;Node42</title>
<path fill="none" stroke="#191970" d="M487.6206,-154.4562C505.5672,-152.7241 525.2164,-150.8276 543.4713,-149.0658"/>
<polygon fill="#191970" stroke="#191970" points="543.8323,-152.5473 553.4498,-148.1027 543.1598,-145.5797 543.8323,-152.5473"/>
</g>
<!-- Node43 -->
<g id="node6" class="node">
<title>Node43</title>
<g id="a_node6"><a xlink:href="namespacesll__m__gauss__lobatto__integration.html#a20a90d157ba32cd27c5d6f89eccf3735" target="_top" xlink:title="Given n and a measure dlambda, this routine generates the n&#45;point Gaussian quadrature formula...">
<polygon fill="#ffffff" stroke="#000000" points="732.5,-127.5 732.5,-157.5 848.5,-157.5 848.5,-127.5 732.5,-127.5"/>
<text text-anchor="start" x="740.5" y="-145.5" font-family="Helvetica,sans-Serif" font-size="10.00" fill="#000000">sll_m_gauss_lobatto</text>
<text text-anchor="middle" x="790.5" y="-134.5" font-family="Helvetica,sans-Serif" font-size="10.00" fill="#000000">_integration::dgauss</text>
</a>
</g>
</g>
<!-- Node42&#45;&gt;Node43 -->
<g id="edge5" class="edge">
<title>Node42&#45;&gt;Node43</title>
<path fill="none" stroke="#191970" d="M669.6162,-142.5C686.4273,-142.5 704.9298,-142.5 722.2966,-142.5"/>
<polygon fill="#191970" stroke="#191970" points="722.3694,-146.0001 732.3693,-142.5 722.3693,-139.0001 722.3694,-146.0001"/>
</g>
<!-- Node44&#45;&gt;Node42 -->
<g id="edge7" class="edge">
<title>Node44&#45;&gt;Node42</title>
<path fill="none" stroke="#191970" d="M492.0673,-115.6036C508.6715,-119.3429 526.481,-123.3536 543.1458,-127.1066"/>
<polygon fill="#191970" stroke="#191970" points="542.8285,-130.6227 553.3531,-129.4053 544.3664,-123.7937 542.8285,-130.6227"/>
</g>
<!-- Node46 -->
<g id="node9" class="node">
<title>Node46</title>
<g id="a_node9"><a xlink:href="namespacesll__m__sparse__matrix__mp.html#ad32ebfd00f8ef3065b6859eca129d87a" target="_top" xlink:title="initialization of CSR matrix type thanks to the global index of each local dof of each element param[...">
<polygon fill="#ffffff" stroke="#000000" points="364,-20 364,-61 486,-61 486,-20 364,-20"/>
<text text-anchor="start" x="372" y="-49" font-family="Helvetica,sans-Serif" font-size="10.00" fill="#000000">sll_m_sparse_matrix</text>
<text text-anchor="start" x="372" y="-38" font-family="Helvetica,sans-Serif" font-size="10.00" fill="#000000">_mp::sll_s_csr_matrix</text>
<text text-anchor="middle" x="425" y="-27" font-family="Helvetica,sans-Serif" font-size="10.00" fill="#000000">_mp_init</text>
</a>
</g>
</g>
<!-- Node45&#45;&gt;Node46 -->
<g id="edge9" class="edge">
<title>Node45&#45;&gt;Node46</title>
<path fill="none" stroke="#191970" d="M322.2031,-40.5C332.7339,-40.5 343.4288,-40.5 353.7431,-40.5"/>
<polygon fill="#191970" stroke="#191970" points="353.9103,-44.0001 363.9102,-40.5 353.9102,-37.0001 353.9103,-44.0001"/>
</g>
<!-- Node47 -->
<g id="node10" class="node">
<title>Node47</title>
<g id="a_node10"><a xlink:href="namespacesll__m__sparse__matrix__mp.html#a1fb3bbe4559d8215826da696a5986d54" target="_top" xlink:title="sll_m_sparse_matrix\l_mp::sll_count_non_zero\l_elts_mp">
<polygon fill="#ffffff" stroke="#000000" points="543,-50 543,-91 680,-91 680,-50 543,-50"/>
<text text-anchor="start" x="551" y="-79" font-family="Helvetica,sans-Serif" font-size="10.00" fill="#000000">sll_m_sparse_matrix</text>
<text text-anchor="start" x="551" y="-68" font-family="Helvetica,sans-Serif" font-size="10.00" fill="#000000">_mp::sll_count_non_zero</text>
<text text-anchor="middle" x="611.5" y="-57" font-family="Helvetica,sans-Serif" font-size="10.00" fill="#000000">_elts_mp</text>
</a>
</g>
</g>
<!-- Node46&#45;&gt;Node47 -->
<g id="edge10" class="edge">
<title>Node46&#45;&gt;Node47</title>
<path fill="none" stroke="#191970" d="M486.0671,-50.3231C500.9687,-52.7202 517.1202,-55.3183 532.7181,-57.8273"/>
<polygon fill="#191970" stroke="#191970" points="532.4405,-61.3276 542.8695,-59.4602 533.5523,-54.4164 532.4405,-61.3276"/>
</g>
<!-- Node48 -->
<g id="node11" class="node">
<title>Node48</title>
<g id="a_node11"><a xlink:href="namespacesll__m__sparse__matrix__mp.html#abc1c3727deb98451291669211b354eb0" target="_top" xlink:title="sll_m_sparse_matrix\l_mp::sll_init_sparsematrix_mp">
<polygon fill="#ffffff" stroke="#000000" points="528,-.5 528,-30.5 695,-30.5 695,-.5 528,-.5"/>
<text text-anchor="start" x="536" y="-18.5" font-family="Helvetica,sans-Serif" font-size="10.00" fill="#000000">sll_m_sparse_matrix</text>
<text text-anchor="middle" x="611.5" y="-7.5" font-family="Helvetica,sans-Serif" font-size="10.00" fill="#000000">_mp::sll_init_sparsematrix_mp</text>
</a>
</g>
</g>
<!-- Node46&#45;&gt;Node48 -->
<g id="edge11" class="edge">
<title>Node46&#45;&gt;Node48</title>
<path fill="none" stroke="#191970" d="M486.0671,-32.3141C496.3152,-30.9403 507.1545,-29.4873 517.9983,-28.0337"/>
<polygon fill="#191970" stroke="#191970" points="518.495,-31.4986 527.9413,-26.7009 517.5649,-24.5606 518.495,-31.4986"/>
</g>
<!-- Node49 -->
<g id="node12" class="node">
<title>Node49</title>
<g id="a_node12"><a xlink:href="namespacesll__m__qsort__partition.html#a2ce333a69b25b96185626ef494f55971" target="_top" xlink:title="sll_m_qsort_partition\l::sll_s_qsortc">
<polygon fill="#ffffff" stroke="#000000" points="731,-.5 731,-30.5 850,-30.5 850,-.5 731,-.5"/>
<text text-anchor="start" x="739" y="-18.5" font-family="Helvetica,sans-Serif" font-size="10.00" fill="#000000">sll_m_qsort_partition</text>
<text text-anchor="middle" x="790.5" y="-7.5" font-family="Helvetica,sans-Serif" font-size="10.00" fill="#000000">::sll_s_qsortc</text>
</a>
</g>
</g>
<!-- Node48&#45;&gt;Node49 -->
<g id="edge12" class="edge">
<title>Node48&#45;&gt;Node49</title>
<path fill="none" stroke="#191970" d="M695.235,-15.5C703.7738,-15.5 712.3829,-15.5 720.7496,-15.5"/>
<polygon fill="#191970" stroke="#191970" points="720.814,-19.0001 730.814,-15.5 720.8139,-12.0001 720.814,-19.0001"/>
</g>
<!-- Node50 -->
<g id="node13" class="node">
<title>Node50</title>
<g id="a_node13"><a xlink:href="namespacesll__m__qsort__partition.html#aa1ad128585a5c9195e5903a7bc8f478e" target="_top" xlink:title="sll_m_qsort_partition\l::partition">
<polygon fill="#ffffff" stroke="#000000" points="886,-.5 886,-30.5 1005,-30.5 1005,-.5 886,-.5"/>
<text text-anchor="start" x="894" y="-18.5" font-family="Helvetica,sans-Serif" font-size="10.00" fill="#000000">sll_m_qsort_partition</text>
<text text-anchor="middle" x="945.5" y="-7.5" font-family="Helvetica,sans-Serif" font-size="10.00" fill="#000000">::partition</text>
</a>
</g>
</g>
<!-- Node49&#45;&gt;Node50 -->
<g id="edge13" class="edge">
<title>Node49&#45;&gt;Node50</title>
<path fill="none" stroke="#191970" d="M850.427,-15.5C858.7244,-15.5 867.3054,-15.5 875.7618,-15.5"/>
<polygon fill="#191970" stroke="#191970" points="875.9877,-19.0001 885.9877,-15.5 875.9877,-12.0001 875.9877,-19.0001"/>
</g>
</g>
</svg>
        <g id="navigator" transform="translate(0 0)" fill="#404254">
                <rect fill="#f2f5e9" fill-opacity="0.5" stroke="#606060" stroke-width=".5" x="0" y="0" width="60" height="60"/>
                <use id="zoomplus" xlink:href="#zoomPlus" x="17" y="9" onmousedown="handleZoom(evt,'in')"/>
                <use id="zoomminus" xlink:href="#zoomMin" x="42" y="9" onmousedown="handleZoom(evt,'out')"/>
                <use id="reset" xlink:href="#resetDef" x="30" y="36" onmousedown="handleReset()"/>
                <g id="arrowUp" xlink:href="#dirArrow" transform="translate(30 24)" onmousedown="handlePan(0,-1)">
                  <use xlink:href="#rim" fill="#404040">
                        <set attributeName="fill" to="#808080" begin="arrowUp.mouseover" end="arrowUp.mouseout"/>
                  </use>
                  <path fill="none" stroke="white" stroke-width="1.5" d="M0,-3.0v7 M-2.5,-0.5L0,-3.0L2.5,-0.5"/>
                </g>
                <g id="arrowRight" xlink:href="#dirArrow" transform="rotate(90) translate(36 -43)" onmousedown="handlePan(1,0)">
                  <use xlink:href="#rim" fill="#404040">
                        <set attributeName="fill" to="#808080" begin="arrowRight.mouseover" end="arrowRight.mouseout"/>
                  </use>
                  <path fill="none" stroke="white" stroke-width="1.5" d="M0,-3.0v7 M-2.5,-0.5L0,-3.0L2.5,-0.5"/>
                </g>
                <g id="arrowDown" xlink:href="#dirArrow" transform="rotate(180) translate(-30 -48)" onmousedown="handlePan(0,1)">
                  <use xlink:href="#rim" fill="#404040">
                        <set attributeName="fill" to="#808080" begin="arrowDown.mouseover" end="arrowDown.mouseout"/>
                  </use>
                  <path fill="none" stroke="white" stroke-width="1.5" d="M0,-3.0v7 M-2.5,-0.5L0,-3.0L2.5,-0.5"/>
                </g>
                <g id="arrowLeft" xlink:href="#dirArrow" transform="rotate(270) translate(-36 17)" onmousedown="handlePan(-1,0)">
                  <use xlink:href="#rim" fill="#404040">
                        <set attributeName="fill" to="#808080" begin="arrowLeft.mouseover" end="arrowLeft.mouseout"/>
                  </use>
                  <path fill="none" stroke="white" stroke-width="1.5" d="M0,-3.0v7 M-2.5,-0.5L0,-3.0L2.5,-0.5"/>
                </g>
        </g>
        <svg viewBox="0 0 15 15" width="100%" height="30px" preserveAspectRatio="xMaxYMin meet">
         <g id="arrow_out" transform="scale(0.3 0.3)">
          <a xlink:href="namespacesll__m__general__coordinate__elliptic__solver__multipatch_ae9b2728b7fc567b24d783dc03390c489_cgraph_org.svg" target="_base">
           <rect id="button" ry="5" rx="5" y="6" x="6" height="38" width="38"
                fill="#f2f5e9" fill-opacity="0.5" stroke="#606060" stroke-width="1.0"/>
           <path id="arrow"
             d="M 11.500037,31.436501 C 11.940474,20.09759 22.043105,11.32322 32.158766,21.979434 L 37.068811,17.246167 C 37.068811,17.246167 37.088388,32 37.088388,32 L 22.160133,31.978069 C 22.160133,31.978069 26.997745,27.140456 26.997745,27.140456 C 18.528582,18.264221 13.291696,25.230495 11.500037,31.436501 z"
             style="fill:#404040;"/>
          </a>
         </g>
        </svg>
</svg>
