<?xml version="1.0" encoding="UTF-8" standalone="no"?>
<!DOCTYPE svg PUBLIC "-//W3C//DTD SVG 1.1//EN"
 "http://www.w3.org/Graphics/SVG/1.1/DTD/svg11.dtd">
<!-- Generated by graphviz version 2.40.1 (20161225.0304)
 -->
<!-- Title: add_current_evaluate Pages: 1 -->
<svg width="606pt" height="88pt"
 viewBox="0.00 0.00 606.00 88.00" xmlns="http://www.w3.org/2000/svg" xmlns:xlink="http://www.w3.org/1999/xlink">
<g id="graph0" class="graph" transform="scale(1 1) rotate(0) translate(4 84)">
<title>add_current_evaluate</title>
<polygon fill="#ffffff" stroke="transparent" points="-4,4 -4,-84 602,-84 602,4 -4,4"/>
<!-- Node21 -->
<g id="node1" class="node">
<title>Node21</title>
<polygon fill="#bfbfbf" stroke="#000000" points="0,-41.5 0,-60.5 122,-60.5 122,-41.5 0,-41.5"/>
<text text-anchor="middle" x="61" y="-48.5" font-family="Helvetica,sans-Serif" font-size="10.00" fill="#000000">add_current_evaluate</text>
</g>
<!-- Node22 -->
<g id="node2" class="node">
<title>Node22</title>
<g id="a_node2"><a xlink:href="namespacesll__m__particle__mesh__coupling__spline__cl__3d__feec.html#a2a502a1a64b84d05ddd5cdd7636f8337" target="_top" xlink:title="convert_x_to_xbox">
<polygon fill="#ffffff" stroke="#000000" points="158,-60.5 158,-79.5 267,-79.5 267,-60.5 158,-60.5"/>
<text text-anchor="middle" x="212.5" y="-67.5" font-family="Helvetica,sans-Serif" font-size="10.00" fill="#000000">convert_x_to_xbox</text>
</a>
</g>
</g>
<!-- Node21&#45;&gt;Node22 -->
<g id="edge1" class="edge">
<title>Node21&#45;&gt;Node22</title>
<path fill="none" stroke="#191970" d="M122.1842,-58.6733C130.6839,-59.7392 139.4378,-60.8371 147.9959,-61.9104"/>
<polygon fill="#191970" stroke="#191970" points="147.5676,-65.384 157.9254,-63.1557 148.4387,-58.4384 147.5676,-65.384"/>
</g>
<!-- Node23 -->
<g id="node3" class="node">
<title>Node23</title>
<g id="a_node3"><a xlink:href="namespacesll__m__particle__mesh__coupling__spline__cl__3d__feec.html#a3cf554b459625a1bcd9356eed42e4971" target="_top" xlink:title="Helper function for add_current_evaluate. ">
<polygon fill="#ffffff" stroke="#000000" points="167,-22.5 167,-41.5 258,-41.5 258,-22.5 167,-22.5"/>
<text text-anchor="middle" x="212.5" y="-29.5" font-family="Helvetica,sans-Serif" font-size="10.00" fill="#000000">point_add_eval</text>
</a>
</g>
</g>
<!-- Node21&#45;&gt;Node23 -->
<g id="edge2" class="edge">
<title>Node21&#45;&gt;Node23</title>
<path fill="none" stroke="#191970" d="M122.1842,-43.3267C133.6274,-41.8916 145.5316,-40.3987 156.7982,-38.9857"/>
<polygon fill="#191970" stroke="#191970" points="157.4476,-42.4318 166.9343,-37.7145 156.5764,-35.4862 157.4476,-42.4318"/>
</g>
<!-- Node24 -->
<g id="node4" class="node">
<title>Node24</title>
<g id="a_node4"><a xlink:href="namespacesll__m__particle__mesh__coupling__spline__cl__3d__feec.html#abece9d2a6c0b41af6dd14343cc66bfcd" target="_top" xlink:title="Helper function to evaluate uniform clamped basis splines. ">
<polygon fill="#ffffff" stroke="#000000" points="303,-39 303,-69 431,-69 431,-39 303,-39"/>
<text text-anchor="start" x="311" y="-57" font-family="Helvetica,sans-Serif" font-size="10.00" fill="#000000">sll_s_uniform_bsplines</text>
<text text-anchor="middle" x="367" y="-46" font-family="Helvetica,sans-Serif" font-size="10.00" fill="#000000">_eval_basis_clamped</text>
</a>
</g>
</g>
<!-- Node23&#45;&gt;Node24 -->
<g id="edge3" class="edge">
<title>Node23&#45;&gt;Node24</title>
<path fill="none" stroke="#191970" d="M258.0195,-38.4817C269.0068,-40.0463 281.0306,-41.7584 292.9526,-43.456"/>
<polygon fill="#191970" stroke="#191970" points="292.5245,-46.9303 302.918,-44.8751 293.5113,-40.0002 292.5245,-46.9303"/>
</g>
<!-- Node26 -->
<g id="node6" class="node">
<title>Node26</title>
<g id="a_node6"><a xlink:href="namespacesll__m__particle__mesh__coupling__spline__cl__3d__feec.html#a505e1d3333e1bb24418884219ef9e048" target="_top" xlink:title="box_index">
<polygon fill="#ffffff" stroke="#000000" points="333.5,-.5 333.5,-19.5 400.5,-19.5 400.5,-.5 333.5,-.5"/>
<text text-anchor="middle" x="367" y="-7.5" font-family="Helvetica,sans-Serif" font-size="10.00" fill="#000000">box_index</text>
</a>
</g>
</g>
<!-- Node23&#45;&gt;Node26 -->
<g id="edge5" class="edge">
<title>Node23&#45;&gt;Node26</title>
<path fill="none" stroke="#191970" d="M258.0195,-25.5183C278.5789,-22.5907 302.7677,-19.1463 323.1271,-16.2473"/>
<polygon fill="#191970" stroke="#191970" points="323.6757,-19.7046 333.0824,-14.8297 322.6888,-12.7745 323.6757,-19.7046"/>
</g>
<!-- Node25 -->
<g id="node5" class="node">
<title>Node25</title>
<g id="a_node5"><a xlink:href="namespacesll__m__splines__pp.html#ab63c3a25b861ed9b8701ae2f65942bcf" target="_top" xlink:title="Perform a 1d hornerschema on the pp_coeffs at index. ">
<polygon fill="#ffffff" stroke="#000000" points="467,-39 467,-69 598,-69 598,-39 467,-39"/>
<text text-anchor="start" x="475" y="-57" font-family="Helvetica,sans-Serif" font-size="10.00" fill="#000000">sll_m_splines_pp::sll</text>
<text text-anchor="middle" x="532.5" y="-46" font-family="Helvetica,sans-Serif" font-size="10.00" fill="#000000">_f_spline_pp_horner_1d</text>
</a>
</g>
</g>
<!-- Node24&#45;&gt;Node25 -->
<g id="edge4" class="edge">
<title>Node24&#45;&gt;Node25</title>
<path fill="none" stroke="#191970" d="M431.4605,-54C439.7198,-54 448.2349,-54 456.6541,-54"/>
<polygon fill="#191970" stroke="#191970" points="456.8523,-57.5001 466.8523,-54 456.8523,-50.5001 456.8523,-57.5001"/>
</g>
</g>
</svg>
