<?xml version="1.0" encoding="UTF-8" standalone="no"?>
<!DOCTYPE svg PUBLIC "-//W3C//DTD SVG 1.1//EN"
 "http://www.w3.org/Graphics/SVG/1.1/DTD/svg11.dtd">
<!-- Generated by graphviz version 2.40.1 (20161225.0304)
 -->
<!-- Title: extract_fourier Pages: 1 -->
<svg width="231pt" height="180pt"
 viewBox="0.00 0.00 231.00 180.00" xmlns="http://www.w3.org/2000/svg" xmlns:xlink="http://www.w3.org/1999/xlink">
<g id="graph0" class="graph" transform="scale(1 1) rotate(0) translate(4 176)">
<title>extract_fourier</title>
<polygon fill="#ffffff" stroke="transparent" points="-4,4 -4,-176 227,-176 227,4 -4,4"/>
<!-- Node108 -->
<g id="node1" class="node">
<title>Node108</title>
<polygon fill="#bfbfbf" stroke="#000000" points="0,-76.5 0,-95.5 89,-95.5 89,-76.5 0,-76.5"/>
<text text-anchor="middle" x="44.5" y="-83.5" font-family="Helvetica,sans-Serif" font-size="10.00" fill="#000000">extract_fourier</text>
</g>
<!-- Node109 -->
<g id="node2" class="node">
<title>Node109</title>
<g id="a_node2"><a xlink:href="namespacesll__m__sparse__grid__interpolator.html#a939b2cd02adba4b67a52b65dbb4a79ab" target="_top" xlink:title="tohira1d">
<polygon fill="#ffffff" stroke="#000000" points="145.5,-152.5 145.5,-171.5 202.5,-171.5 202.5,-152.5 145.5,-152.5"/>
<text text-anchor="middle" x="174" y="-159.5" font-family="Helvetica,sans-Serif" font-size="10.00" fill="#000000">tohira1d</text>
</a>
</g>
</g>
<!-- Node108&#45;&gt;Node109 -->
<g id="edge1" class="edge">
<title>Node108&#45;&gt;Node109</title>
<path fill="none" stroke="#191970" d="M64.1268,-101.9816C79.8996,-114.2987 102.9804,-131.1696 125,-143 131.5104,-146.4978 138.8064,-149.6843 145.7392,-152.4063"/>
<polygon fill="#191970" stroke="#191970" points="66.1784,-99.1416 56.169,-95.6683 61.8277,-104.6254 66.1784,-99.1416"/>
</g>
<!-- Node110 -->
<g id="node3" class="node">
<title>Node110</title>
<g id="a_node3"><a xlink:href="namespacesll__m__sparse__grid__interpolator.html#a584b25092b3857d8a22f375defd694c2" target="_top" xlink:title="tonodal1d">
<polygon fill="#ffffff" stroke="#000000" points="141.5,-114.5 141.5,-133.5 206.5,-133.5 206.5,-114.5 141.5,-114.5"/>
<text text-anchor="middle" x="174" y="-121.5" font-family="Helvetica,sans-Serif" font-size="10.00" fill="#000000">tonodal1d</text>
</a>
</g>
</g>
<!-- Node108&#45;&gt;Node110 -->
<g id="edge2" class="edge">
<title>Node108&#45;&gt;Node110</title>
<path fill="none" stroke="#191970" d="M87.219,-98.5353C104.836,-103.7048 124.9232,-109.5991 141.3321,-114.4141"/>
<polygon fill="#191970" stroke="#191970" points="87.7592,-95.0463 77.1783,-95.589 85.7882,-101.7631 87.7592,-95.0463"/>
</g>
<!-- Node111 -->
<g id="node4" class="node">
<title>Node111</title>
<g id="a_node4"><a xlink:href="namespacesll__m__sparse__grid__interpolator.html#a203d3670b00a16b747731fb1a8e370f0" target="_top" xlink:title="tonodal1d_comp">
<polygon fill="#ffffff" stroke="#000000" points="125,-76.5 125,-95.5 223,-95.5 223,-76.5 125,-76.5"/>
<text text-anchor="middle" x="174" y="-83.5" font-family="Helvetica,sans-Serif" font-size="10.00" fill="#000000">tonodal1d_comp</text>
</a>
</g>
</g>
<!-- Node108&#45;&gt;Node111 -->
<g id="edge3" class="edge">
<title>Node108&#45;&gt;Node111</title>
<path fill="none" stroke="#191970" d="M99.2893,-86C107.7993,-86 116.5444,-86 124.9176,-86"/>
<polygon fill="#191970" stroke="#191970" points="99.0666,-82.5001 89.0666,-86 99.0665,-89.5001 99.0666,-82.5001"/>
</g>
<!-- Node112 -->
<g id="node5" class="node">
<title>Node112</title>
<g id="a_node5"><a xlink:href="namespacesll__m__sparse__grid__interpolator.html#af0b2f6f3a60fd454f62ea1d2158da770" target="_top" xlink:title="todehi1d">
<polygon fill="#ffffff" stroke="#000000" points="144.5,-38.5 144.5,-57.5 203.5,-57.5 203.5,-38.5 144.5,-38.5"/>
<text text-anchor="middle" x="174" y="-45.5" font-family="Helvetica,sans-Serif" font-size="10.00" fill="#000000">todehi1d</text>
</a>
</g>
</g>
<!-- Node108&#45;&gt;Node112 -->
<g id="edge4" class="edge">
<title>Node108&#45;&gt;Node112</title>
<path fill="none" stroke="#191970" d="M86.9929,-73.531C105.7887,-68.0157 127.4333,-61.6644 144.4321,-56.6763"/>
<polygon fill="#191970" stroke="#191970" points="85.7882,-70.2369 77.1783,-76.411 87.7592,-76.9537 85.7882,-70.2369"/>
</g>
<!-- Node113 -->
<g id="node6" class="node">
<title>Node113</title>
<g id="a_node6"><a xlink:href="namespacesll__m__sparse__grid__interpolator.html#a906d1565abb9f4fc4d7f82d622d9f9b2" target="_top" xlink:title="displace1d">
<polygon fill="#ffffff" stroke="#000000" points="139.5,-.5 139.5,-19.5 208.5,-19.5 208.5,-.5 139.5,-.5"/>
<text text-anchor="middle" x="174" y="-7.5" font-family="Helvetica,sans-Serif" font-size="10.00" fill="#000000">displace1d</text>
</a>
</g>
</g>
<!-- Node108&#45;&gt;Node113 -->
<g id="edge5" class="edge">
<title>Node108&#45;&gt;Node113</title>
<path fill="none" stroke="#191970" d="M64.1268,-70.0184C79.8996,-57.7013 102.9804,-40.8304 125,-29 131.5104,-25.5022 138.8064,-22.3157 145.7392,-19.5937"/>
<polygon fill="#191970" stroke="#191970" points="61.8277,-67.3746 56.169,-76.3317 66.1784,-72.8584 61.8277,-67.3746"/>
</g>
</g>
</svg>
