<?xml version="1.0" encoding="UTF-8" standalone="no"?>
<!DOCTYPE svg PUBLIC "-//W3C//DTD SVG 1.1//EN"
 "http://www.w3.org/Graphics/SVG/1.1/DTD/svg11.dtd">
<!-- Generated by graphviz version 2.43.0 (0)
 -->
<!-- Title: sll_s_delete_comm_real64 Pages: 1 -->
<svg width="465pt" height="165pt"
 viewBox="0.00 0.00 465.00 164.50" xmlns="http://www.w3.org/2000/svg" xmlns:xlink="http://www.w3.org/1999/xlink">
<g id="graph0" class="graph" transform="scale(1 1) rotate(0) translate(4 160.5)">
<title>sll_s_delete_comm_real64</title>
<polygon fill="white" stroke="transparent" points="-4,4 -4,-160.5 461,-160.5 461,4 -4,4"/>
<!-- Node1 -->
<g id="node1" class="node">
<title>Node1</title>
<g id="a_node1"><a xlink:title=" ">
<polygon fill="#bfbfbf" stroke="black" points="0,-77 0,-96 146,-96 146,-77 0,-77"/>
<text text-anchor="middle" x="73" y="-84" font-family="Helvetica,sans-Serif" font-size="10.00">sll_s_delete_comm_real64</text>
</a>
</g>
</g>
<!-- Node2 -->
<g id="node2" class="node">
<title>Node2</title>
<g id="a_node2"><a xlink:href="namespacesll__m__point__to__point__comms.html#a649d95ce15846973ed2e19fcf54b02fe" target="_top" xlink:title=" ">
<polygon fill="white" stroke="black" points="208,-99 208,-118 273,-118 273,-99 208,-99"/>
<text text-anchor="middle" x="240.5" y="-106" font-family="Helvetica,sans-Serif" font-size="10.00">flip_buffer</text>
</a>
</g>
</g>
<!-- Node1&#45;&gt;Node2 -->
<g id="edge1" class="edge">
<title>Node1&#45;&gt;Node2</title>
<path fill="none" stroke="midnightblue" d="M145.63,-96.02C163.4,-98.38 181.87,-100.84 197.68,-102.94"/>
<polygon fill="midnightblue" stroke="midnightblue" points="197.27,-106.42 207.65,-104.27 198.19,-99.48 197.27,-106.42"/>
</g>
<!-- Node5 -->
<g id="node5" class="node">
<title>Node5</title>
<g id="a_node5"><a xlink:href="namespacesll__m__point__to__point__comms.html#ace7366fed79af3987767fde1b8184410" target="_top" xlink:title=" ">
<polygon fill="white" stroke="black" points="201.5,-137 201.5,-156 279.5,-156 279.5,-137 201.5,-137"/>
<text text-anchor="middle" x="240.5" y="-144" font-family="Helvetica,sans-Serif" font-size="10.00">port_is_busy</text>
</a>
</g>
</g>
<!-- Node1&#45;&gt;Node5 -->
<g id="edge4" class="edge">
<title>Node1&#45;&gt;Node5</title>
<path fill="none" stroke="midnightblue" d="M98.34,-96.09C120.15,-104.6 153.08,-117.24 182,-127.5 187.92,-129.6 194.2,-131.75 200.36,-133.82"/>
<polygon fill="midnightblue" stroke="midnightblue" points="199.27,-137.15 209.87,-136.98 201.48,-130.51 199.27,-137.15"/>
</g>
<!-- Node6 -->
<g id="node6" class="node">
<title>Node6</title>
<g id="a_node6"><a xlink:href="namespacesll__m__collective.html#a9998b96a7386b82ea7cf47ab2062e05b" target="_top" xlink:title="Blocks until all processes in the communicator have reached this routine.">
<polygon fill="white" stroke="black" points="182,-49.5 182,-79.5 299,-79.5 299,-49.5 182,-49.5"/>
<text text-anchor="start" x="190" y="-67.5" font-family="Helvetica,sans-Serif" font-size="10.00">sll_m_collective::sll</text>
<text text-anchor="middle" x="240.5" y="-56.5" font-family="Helvetica,sans-Serif" font-size="10.00">_s_collective_barrier</text>
</a>
</g>
</g>
<!-- Node1&#45;&gt;Node6 -->
<g id="edge6" class="edge">
<title>Node1&#45;&gt;Node6</title>
<path fill="none" stroke="midnightblue" d="M145.63,-76.98C154.36,-75.82 163.25,-74.64 171.92,-73.48"/>
<polygon fill="midnightblue" stroke="midnightblue" points="172.51,-76.94 181.96,-72.15 171.59,-70 172.51,-76.94"/>
</g>
<!-- Node8 -->
<g id="node8" class="node">
<title>Node8</title>
<g id="a_node8"><a xlink:href="namespacesll__m__collective.html#a9a5729d7ca2e55890195f76c8a5cbd62" target="_top" xlink:title="Checks the good execution of collective instruction.">
<polygon fill="white" stroke="black" points="339.5,-0.5 339.5,-30.5 452.5,-30.5 452.5,-0.5 339.5,-0.5"/>
<text text-anchor="start" x="347.5" y="-18.5" font-family="Helvetica,sans-Serif" font-size="10.00">sll_m_collective::sll</text>
<text text-anchor="middle" x="396" y="-7.5" font-family="Helvetica,sans-Serif" font-size="10.00">_s_test_mpi_error</text>
</a>
</g>
</g>
<!-- Node1&#45;&gt;Node8 -->
<g id="edge9" class="edge">
<title>Node1&#45;&gt;Node8</title>
<path fill="none" stroke="midnightblue" d="M91.37,-77C112.24,-66.05 148.62,-48.43 182,-39.5 230.32,-26.58 286.62,-20.61 329.2,-17.85"/>
<polygon fill="midnightblue" stroke="midnightblue" points="329.67,-21.33 339.44,-17.24 329.25,-14.34 329.67,-21.33"/>
</g>
<!-- Node3 -->
<g id="node3" class="node">
<title>Node3</title>
<g id="a_node3"><a xlink:href="namespacesll__m__point__to__point__comms.html#a8b121863ece95e8dd94458f440835b18" target="_top" xlink:title=" ">
<polygon fill="white" stroke="black" points="361,-137 361,-156 431,-156 431,-137 361,-137"/>
<text text-anchor="middle" x="396" y="-144" font-family="Helvetica,sans-Serif" font-size="10.00">check_port</text>
</a>
</g>
</g>
<!-- Node2&#45;&gt;Node3 -->
<g id="edge2" class="edge">
<title>Node2&#45;&gt;Node3</title>
<path fill="none" stroke="midnightblue" d="M273.31,-116.37C295.76,-121.93 326.15,-129.46 350.94,-135.59"/>
<polygon fill="midnightblue" stroke="midnightblue" points="350.29,-139.04 360.84,-138.04 351.97,-132.24 350.29,-139.04"/>
</g>
<!-- Node4 -->
<g id="node4" class="node">
<title>Node4</title>
<g id="a_node4"><a xlink:href="namespacesll__m__point__to__point__comms.html#a2ec99c657fccfca4a2631c9408e2a9c1" target="_top" xlink:title=" ">
<polygon fill="white" stroke="black" points="371,-99 371,-118 421,-118 421,-99 371,-99"/>
<text text-anchor="middle" x="396" y="-106" font-family="Helvetica,sans-Serif" font-size="10.00">flip_bit</text>
</a>
</g>
</g>
<!-- Node2&#45;&gt;Node4 -->
<g id="edge3" class="edge">
<title>Node2&#45;&gt;Node4</title>
<path fill="none" stroke="midnightblue" d="M273.31,-108.5C298.77,-108.5 334.44,-108.5 360.58,-108.5"/>
<polygon fill="midnightblue" stroke="midnightblue" points="360.79,-112 370.79,-108.5 360.79,-105 360.79,-112"/>
</g>
<!-- Node5&#45;&gt;Node3 -->
<g id="edge5" class="edge">
<title>Node5&#45;&gt;Node3</title>
<path fill="none" stroke="midnightblue" d="M279.84,-146.5C301.3,-146.5 328.17,-146.5 350.55,-146.5"/>
<polygon fill="midnightblue" stroke="midnightblue" points="350.81,-150 360.81,-146.5 350.81,-143 350.81,-150"/>
</g>
<!-- Node7 -->
<g id="node7" class="node">
<title>Node7</title>
<g id="a_node7"><a xlink:href="namespacesll__m__collective.html#a37ea25f42a791be5a710a6cf0d1e1197" target="_top" xlink:title="Checks if the pointer ptr is associated to an object.">
<polygon fill="white" stroke="black" points="335,-49.5 335,-79.5 457,-79.5 457,-49.5 335,-49.5"/>
<text text-anchor="start" x="343" y="-67.5" font-family="Helvetica,sans-Serif" font-size="10.00">sll_m_collective::sll</text>
<text text-anchor="middle" x="396" y="-56.5" font-family="Helvetica,sans-Serif" font-size="10.00">_check_collective_ptr</text>
</a>
</g>
</g>
<!-- Node6&#45;&gt;Node7 -->
<g id="edge7" class="edge">
<title>Node6&#45;&gt;Node7</title>
<path fill="none" stroke="midnightblue" d="M299.09,-64.5C307.47,-64.5 316.17,-64.5 324.77,-64.5"/>
<polygon fill="midnightblue" stroke="midnightblue" points="324.78,-68 334.78,-64.5 324.78,-61 324.78,-68"/>
</g>
<!-- Node6&#45;&gt;Node8 -->
<g id="edge8" class="edge">
<title>Node6&#45;&gt;Node8</title>
<path fill="none" stroke="midnightblue" d="M288.81,-49.4C304.35,-44.44 321.78,-38.87 337.96,-33.71"/>
<polygon fill="midnightblue" stroke="midnightblue" points="339.39,-36.93 347.85,-30.55 337.26,-30.26 339.39,-36.93"/>
</g>
</g>
</svg>
