<?xml version="1.0" encoding="UTF-8" standalone="no"?>
<!DOCTYPE svg PUBLIC "-//W3C//DTD SVG 1.1//EN"
 "http://www.w3.org/Graphics/SVG/1.1/DTD/svg11.dtd">
<!-- Generated by graphviz version 2.43.0 (0)
 -->
<!-- Title: sll_s_reset_charge_accumulator_to_zero Pages: 1 -->
<svg width="531pt" height="39pt"
 viewBox="0.00 0.00 531.00 39.00" xmlns="http://www.w3.org/2000/svg" xmlns:xlink="http://www.w3.org/1999/xlink">
<g id="graph0" class="graph" transform="scale(1 1) rotate(0) translate(4 35)">
<title>sll_s_reset_charge_accumulator_to_zero</title>
<polygon fill="white" stroke="transparent" points="-4,4 -4,-35 527,-35 527,4 -4,4"/>
<!-- Node1 -->
<g id="node1" class="node">
<title>Node1</title>
<g id="a_node1"><a xlink:title=" ">
<polygon fill="#bfbfbf" stroke="black" points="399,-0.5 399,-30.5 523,-30.5 523,-0.5 399,-0.5"/>
<text text-anchor="start" x="407" y="-18.5" font-family="Helvetica,sans-Serif" font-size="10.00">sll_s_reset_charge</text>
<text text-anchor="middle" x="461" y="-7.5" font-family="Helvetica,sans-Serif" font-size="10.00">_accumulator_to_zero</text>
</a>
</g>
</g>
<!-- Node2 -->
<g id="node2" class="node">
<title>Node2</title>
<g id="a_node2"><a xlink:href="namespacesll__m__accumulators.html#a55e4905e01d70552adcc277c997f84de" target="_top" xlink:title=" ">
<polygon fill="white" stroke="black" points="220,-0.5 220,-30.5 363,-30.5 363,-0.5 220,-0.5"/>
<text text-anchor="start" x="228" y="-18.5" font-family="Helvetica,sans-Serif" font-size="10.00">sll_s_charge_accumulator</text>
<text text-anchor="middle" x="291.5" y="-7.5" font-family="Helvetica,sans-Serif" font-size="10.00">_2d_init</text>
</a>
</g>
</g>
<!-- Node1&#45;&gt;Node2 -->
<g id="edge1" class="edge">
<title>Node1&#45;&gt;Node2</title>
<path fill="none" stroke="midnightblue" d="M388.49,-15.5C380.14,-15.5 371.61,-15.5 363.27,-15.5"/>
<polygon fill="midnightblue" stroke="midnightblue" points="388.58,-19 398.58,-15.5 388.58,-12 388.58,-19"/>
</g>
<!-- Node3 -->
<g id="node3" class="node">
<title>Node3</title>
<g id="a_node3"><a xlink:href="namespacesll__m__accumulators.html#a4bd8c0969d625f86ed60b6aeb37c51e0" target="_top" xlink:title=" ">
<polygon fill="white" stroke="black" points="0,-6 0,-25 184,-25 184,-6 0,-6"/>
<text text-anchor="middle" x="92" y="-13" font-family="Helvetica,sans-Serif" font-size="10.00">sll_f_new_charge_accumulator_2d</text>
</a>
</g>
</g>
<!-- Node2&#45;&gt;Node3 -->
<g id="edge2" class="edge">
<title>Node2&#45;&gt;Node3</title>
<path fill="none" stroke="midnightblue" d="M209.65,-15.5C201.28,-15.5 192.73,-15.5 184.26,-15.5"/>
<polygon fill="midnightblue" stroke="midnightblue" points="209.76,-19 219.76,-15.5 209.76,-12 209.76,-19"/>
</g>
</g>
</svg>
