<?xml version="1.0" encoding="UTF-8" standalone="no"?>
<!DOCTYPE svg PUBLIC "-//W3C//DTD SVG 1.1//EN"
 "http://www.w3.org/Graphics/SVG/1.1/DTD/svg11.dtd">
<!-- Generated by graphviz version 2.40.1 (20161225.0304)
 -->
<!-- Title: mp_release_double_3d Pages: 1 -->
<svg width="431pt" height="28pt"
 viewBox="0.00 0.00 431.00 28.00" xmlns="http://www.w3.org/2000/svg" xmlns:xlink="http://www.w3.org/1999/xlink">
<g id="graph0" class="graph" transform="scale(1 1) rotate(0) translate(4 24)">
<title>mp_release_double_3d</title>
<polygon fill="#ffffff" stroke="transparent" points="-4,4 -4,-24 427,-24 427,4 -4,4"/>
<!-- Node161 -->
<g id="node1" class="node">
<title>Node161</title>
<polygon fill="#bfbfbf" stroke="#000000" points="0,-.5 0,-19.5 129,-19.5 129,-.5 0,-.5"/>
<text text-anchor="middle" x="64.5" y="-7.5" font-family="Helvetica,sans-Serif" font-size="10.00" fill="#000000">mp_release_double_3d</text>
</g>
<!-- Node162 -->
<g id="node2" class="node">
<title>Node162</title>
<g id="a_node2"><a xlink:href="namespacefmempool.html#a2f3e0ee61c79e962eccfc3cb3f077d40" target="_top" xlink:title="mp_release_bytes">
<polygon fill="#ffffff" stroke="#000000" points="165,-.5 165,-19.5 271,-19.5 271,-.5 165,-.5"/>
<text text-anchor="middle" x="218" y="-7.5" font-family="Helvetica,sans-Serif" font-size="10.00" fill="#000000">mp_release_bytes</text>
</a>
</g>
</g>
<!-- Node161&#45;&gt;Node162 -->
<g id="edge1" class="edge">
<title>Node161&#45;&gt;Node162</title>
<path fill="none" stroke="#191970" d="M129.1529,-10C137.541,-10 146.1268,-10 154.4959,-10"/>
<polygon fill="#191970" stroke="#191970" points="154.5691,-13.5001 164.569,-10 154.569,-6.5001 154.5691,-13.5001"/>
</g>
<!-- Node163 -->
<g id="node3" class="node">
<title>Node163</title>
<g id="a_node3"><a xlink:href="namespacefmempool.html#a01aa784ca8bcf6dab0816a16963db6dc" target="_top" xlink:title="get_omp_thread_idx">
<polygon fill="#ffffff" stroke="#000000" points="307,-.5 307,-19.5 423,-19.5 423,-.5 307,-.5"/>
<text text-anchor="middle" x="365" y="-7.5" font-family="Helvetica,sans-Serif" font-size="10.00" fill="#000000">get_omp_thread_idx</text>
</a>
</g>
</g>
<!-- Node162&#45;&gt;Node163 -->
<g id="edge2" class="edge">
<title>Node162&#45;&gt;Node163</title>
<path fill="none" stroke="#191970" d="M271.0704,-10C279.4048,-10 288.1199,-10 296.7385,-10"/>
<polygon fill="#191970" stroke="#191970" points="296.783,-13.5001 306.783,-10 296.7829,-6.5001 296.783,-13.5001"/>
</g>
</g>
</svg>
