<?xml version="1.0" encoding="UTF-8" standalone="no"?>
<!DOCTYPE svg PUBLIC "-//W3C//DTD SVG 1.1//EN"
 "http://www.w3.org/Graphics/SVG/1.1/DTD/svg11.dtd">
<!-- Generated by graphviz version 2.40.1 (20161225.0304)
 -->
<!-- Title: ampere_tm_2d_pstd Pages: 1 -->
<svg width="277pt" height="88pt"
 viewBox="0.00 0.00 277.00 88.00" xmlns="http://www.w3.org/2000/svg" xmlns:xlink="http://www.w3.org/1999/xlink">
<g id="graph0" class="graph" transform="scale(1 1) rotate(0) translate(4 84)">
<title>ampere_tm_2d_pstd</title>
<polygon fill="#ffffff" stroke="transparent" points="-4,4 -4,-84 273,-84 273,4 -4,4"/>
<!-- Node5 -->
<g id="node1" class="node">
<title>Node5</title>
<polygon fill="#bfbfbf" stroke="#000000" points="0,-30 0,-49 116,-49 116,-30 0,-30"/>
<text text-anchor="middle" x="58" y="-37" font-family="Helvetica,sans-Serif" font-size="10.00" fill="#000000">ampere_tm_2d_pstd</text>
</g>
<!-- Node6 -->
<g id="node2" class="node">
<title>Node6</title>
<g id="a_node2"><a xlink:href="namespacesll__m__maxwell__2d__pstd.html#ab9935225e97846f8c8fa2f1a97a8510b" target="_top" xlink:title="self routine exists only for testing purpose. Use ampere and faraday in your appication. ">
<polygon fill="#ffffff" stroke="#000000" points="152,-49.5 152,-79.5 269,-79.5 269,-49.5 152,-49.5"/>
<text text-anchor="start" x="160" y="-67.5" font-family="Helvetica,sans-Serif" font-size="10.00" fill="#000000">sll_s_solve_maxwell</text>
<text text-anchor="middle" x="210.5" y="-56.5" font-family="Helvetica,sans-Serif" font-size="10.00" fill="#000000">_2d_pstd</text>
</a>
</g>
</g>
<!-- Node5&#45;&gt;Node6 -->
<g id="edge1" class="edge">
<title>Node5&#45;&gt;Node6</title>
<path fill="none" stroke="#191970" d="M126.0779,-50.6603C134.6644,-52.0679 143.3908,-53.4985 151.8147,-54.8795"/>
<polygon fill="#191970" stroke="#191970" points="126.5233,-47.1867 116.0887,-49.0227 125.3908,-54.0945 126.5233,-47.1867"/>
</g>
<!-- Node7 -->
<g id="node3" class="node">
<title>Node7</title>
<g id="a_node3"><a xlink:href="namespacesll__m__maxwell__2d__pstd.html#adfa28f7eb64f0e698d7ed6d20ee154c6" target="_top" xlink:title="sll_s_solve_ampere\l_2d_pstd">
<polygon fill="#ffffff" stroke="#000000" points="154,-.5 154,-30.5 267,-30.5 267,-.5 154,-.5"/>
<text text-anchor="start" x="162" y="-18.5" font-family="Helvetica,sans-Serif" font-size="10.00" fill="#000000">sll_s_solve_ampere</text>
<text text-anchor="middle" x="210.5" y="-7.5" font-family="Helvetica,sans-Serif" font-size="10.00" fill="#000000">_2d_pstd</text>
</a>
</g>
</g>
<!-- Node5&#45;&gt;Node7 -->
<g id="edge2" class="edge">
<title>Node5&#45;&gt;Node7</title>
<path fill="none" stroke="#191970" d="M126.0658,-28.788C135.3438,-27.3279 144.7853,-25.842 153.8323,-24.4182"/>
<polygon fill="#191970" stroke="#191970" points="125.423,-25.346 116.0887,-30.3582 126.5113,-32.2609 125.423,-25.346"/>
</g>
</g>
</svg>
