<?xml version="1.0" encoding="UTF-8" standalone="no"?>
<!DOCTYPE svg PUBLIC "-//W3C//DTD SVG 1.1//EN"
 "http://www.w3.org/Graphics/SVG/1.1/DTD/svg11.dtd">
<!-- Generated by graphviz version 2.38.0 (20140413.2041)
 -->
<!-- Title: sll_s_dg_field_2d_init Pages: 1 -->
<!--zoomable 148 -->
<svg id="main" version="1.1" xmlns="http://www.w3.org/2000/svg" xmlns:xlink="http://www.w3.org/1999/xlink" xml:space="preserve" onload="init(evt)">
<style type="text/css"><![CDATA[
.edge:hover path { stroke: red; }
.edge:hover polygon { stroke: red; fill: red; }
]]></style>
<script type="text/javascript"><![CDATA[
var edges = document.getElementsByTagName('g');
if (edges && edges.length) {
  for (var i=0;i<edges.length;i++) {
    if (edges[i].id.substr(0,4)=='edge') {
      edges[i].setAttribute('class','edge');
    }
  }
}
]]></script>
        <defs>
                <circle id="rim" cx="0" cy="0" r="7"/>
                <circle id="rim2" cx="0" cy="0" r="3.5"/>
                <g id="zoomPlus">
                        <use xlink:href="#rim" fill="#404040">
                                <set attributeName="fill" to="#808080" begin="zoomplus.mouseover" end="zoomplus.mouseout"/>
                        </use>
                        <path d="M-4,0h8M0,-4v8" fill="none" stroke="white" stroke-width="1.5" pointer-events="none"/>
                </g>
                <g id="zoomMin">
                        <use xlink:href="#rim" fill="#404040">
                                <set attributeName="fill" to="#808080" begin="zoomminus.mouseover" end="zoomminus.mouseout"/>
                        </use>
                        <path d="M-4,0h8" fill="none" stroke="white" stroke-width="1.5" pointer-events="none"/>
                </g>
                <g id="dirArrow">
                        <path fill="none" stroke="white" stroke-width="1.5" d="M0,-3.0v7 M-2.5,-0.5L0,-3.0L2.5,-0.5"/>
                </g>
               <g id="resetDef">
                       <use xlink:href="#rim2" fill="#404040">
                               <set attributeName="fill" to="#808080" begin="reset.mouseover" end="reset.mouseout"/>
                       </use>
               </g>
        </defs>

<script type="text/javascript">
var viewWidth = 560;
var viewHeight = 148;
var sectionId = 'dynsection-6';
</script>
<script xlink:href="svgpan.js"/>
<svg id="graph" class="graph">
<g id="viewport">
<title>sll_s_dg_field_2d_init</title>
<polygon fill="white" stroke="none" points="-4,4 -4,-144 556,-144 556,4 -4,4"/>
<!-- Node1 -->
<g id="node1" class="node"><title>Node1</title>
<polygon fill="#bfbfbf" stroke="black" points="0,-49.5 0,-68.5 110,-68.5 110,-49.5 0,-49.5"/>
<text text-anchor="middle" x="55" y="-56.5" font-family="Helvetica,sans-Serif" font-size="10.00">sll_s_dg_field_2d_init</text>
</g>
<!-- Node2 -->
<g id="node2" class="node"><title>Node2</title>
<g id="a_node2"><a xlink:href="namespacesll__m__gauss__lobatto__integration.html#a43443dd7dd80f1289d964b572cd6ee2c" target="_top" xlink:title="Returns a 1d array of size (n) containing gauss&#45;lobatto points in the interval [a,b]. ">
<polygon fill="white" stroke="black" points="150,-98.5 150,-139.5 264,-139.5 264,-98.5 150,-98.5"/>
<text text-anchor="start" x="158" y="-127.5" font-family="Helvetica,sans-Serif" font-size="10.00">sll_m_gauss_lobatto</text>
<text text-anchor="start" x="158" y="-116.5" font-family="Helvetica,sans-Serif" font-size="10.00">_integration::sll_f</text>
<text text-anchor="middle" x="207" y="-105.5" font-family="Helvetica,sans-Serif" font-size="10.00">_gauss_lobatto_points</text>
</a>
</g>
</g>
<!-- Node1&#45;&gt;Node2 -->
<g id="edge1" class="edge"><title>Node1&#45;&gt;Node2</title>
<path fill="none" stroke="midnightblue" d="M79.7679,-68.5072C97.4112,-75.5645 122.3,-85.52 145.319,-94.7278"/>
<polygon fill="midnightblue" stroke="midnightblue" points="144.119,-98.0173 154.704,-98.4816 146.719,-91.5179 144.119,-98.0173"/>
</g>
<!-- Node5 -->
<g id="node5" class="node"><title>Node5</title>
<g id="a_node5"><a xlink:href="namespacesll__m__gauss__lobatto__integration.html#ab2dd3e9cafb094226c63f629745b0654" target="_top" xlink:title="Returns a 1d array of size (n) containing gauss&#45;lobatto weights in the interval [a,b]. ">
<polygon fill="white" stroke="black" points="146,-38.5 146,-79.5 268,-79.5 268,-38.5 146,-38.5"/>
<text text-anchor="start" x="154" y="-67.5" font-family="Helvetica,sans-Serif" font-size="10.00">sll_m_gauss_lobatto</text>
<text text-anchor="start" x="154" y="-56.5" font-family="Helvetica,sans-Serif" font-size="10.00">_integration::sll_f</text>
<text text-anchor="middle" x="207" y="-45.5" font-family="Helvetica,sans-Serif" font-size="10.00">_gauss_lobatto_weights</text>
</a>
</g>
</g>
<!-- Node1&#45;&gt;Node5 -->
<g id="edge4" class="edge"><title>Node1&#45;&gt;Node5</title>
<path fill="none" stroke="midnightblue" d="M110.153,-59C118.477,-59 127.173,-59 135.784,-59"/>
<polygon fill="midnightblue" stroke="midnightblue" points="135.827,-62.5001 145.827,-59 135.827,-55.5001 135.827,-62.5001"/>
</g>
<!-- Node6 -->
<g id="node6" class="node"><title>Node6</title>
<g id="a_node6"><a xlink:href="namespacesll__m__dg__fields.html#ac58a04f8b3973e610bedff7f58924085" target="_top" xlink:title="set_value_dg_field_2d">
<polygon fill="white" stroke="black" points="150.5,-0.5 150.5,-19.5 263.5,-19.5 263.5,-0.5 150.5,-0.5"/>
<text text-anchor="middle" x="207" y="-7.5" font-family="Helvetica,sans-Serif" font-size="10.00">set_value_dg_field_2d</text>
</a>
</g>
</g>
<!-- Node1&#45;&gt;Node6 -->
<g id="edge6" class="edge"><title>Node1&#45;&gt;Node6</title>
<path fill="none" stroke="midnightblue" d="M84.3382,-49.4324C102.042,-43.4854 125.324,-35.7194 146,-29 152.423,-26.9126 159.243,-24.7255 165.892,-22.6085"/>
<polygon fill="midnightblue" stroke="midnightblue" points="166.975,-25.9372 175.448,-19.577 164.858,-19.265 166.975,-25.9372"/>
</g>
<!-- Node3 -->
<g id="node3" class="node"><title>Node3</title>
<g id="a_node3"><a xlink:href="namespacesll__m__gauss__lobatto__integration.html#aef28cd44b846400f5133a0ee289babbc" target="_top" xlink:title="This comes from http://dl.acm.org, Algorithme 726 : ORTHPOL, appendices and supplements To use those ...">
<polygon fill="white" stroke="black" points="304,-74 304,-104 410,-104 410,-74 304,-74"/>
<text text-anchor="start" x="312" y="-92" font-family="Helvetica,sans-Serif" font-size="10.00">sll_m_gauss_lobatto</text>
<text text-anchor="middle" x="357" y="-81" font-family="Helvetica,sans-Serif" font-size="10.00">_integration::dlob</text>
</a>
</g>
</g>
<!-- Node2&#45;&gt;Node3 -->
<g id="edge2" class="edge"><title>Node2&#45;&gt;Node3</title>
<path fill="none" stroke="midnightblue" d="M264.375,-107.573C273.954,-105.631 283.952,-103.604 293.674,-101.634"/>
<polygon fill="midnightblue" stroke="midnightblue" points="294.571,-105.023 303.676,-99.6062 293.18,-98.1627 294.571,-105.023"/>
</g>
<!-- Node4 -->
<g id="node4" class="node"><title>Node4</title>
<g id="a_node4"><a xlink:href="namespacesll__m__gauss__lobatto__integration.html#a20a90d157ba32cd27c5d6f89eccf3735" target="_top" xlink:title="Given n and a measure dlambda, this routine generates the n&#45;point Gaussian quadrature formula...">
<polygon fill="white" stroke="black" points="446,-74 446,-104 552,-104 552,-74 446,-74"/>
<text text-anchor="start" x="454" y="-92" font-family="Helvetica,sans-Serif" font-size="10.00">sll_m_gauss_lobatto</text>
<text text-anchor="middle" x="499" y="-81" font-family="Helvetica,sans-Serif" font-size="10.00">_integration::dgauss</text>
</a>
</g>
</g>
<!-- Node3&#45;&gt;Node4 -->
<g id="edge3" class="edge"><title>Node3&#45;&gt;Node4</title>
<path fill="none" stroke="midnightblue" d="M410.131,-89C418.421,-89 427.07,-89 435.568,-89"/>
<polygon fill="midnightblue" stroke="midnightblue" points="435.826,-92.5001 445.826,-89 435.826,-85.5001 435.826,-92.5001"/>
</g>
<!-- Node5&#45;&gt;Node3 -->
<g id="edge5" class="edge"><title>Node5&#45;&gt;Node3</title>
<path fill="none" stroke="midnightblue" d="M268.197,-71.2021C276.71,-72.9278 285.476,-74.7046 294.022,-76.4369"/>
<polygon fill="midnightblue" stroke="midnightblue" points="293.429,-79.8878 303.925,-78.4442 294.819,-73.0273 293.429,-79.8878"/>
</g>
</g>
</svg>
        <g id="navigator" transform="translate(0 0)" fill="#404254">
                <rect fill="#f2f5e9" fill-opacity="0.5" stroke="#606060" stroke-width=".5" x="0" y="0" width="60" height="60"/>
                <use id="zoomplus" xlink:href="#zoomPlus" x="17" y="9" onmousedown="handleZoom(evt,'in')"/>
                <use id="zoomminus" xlink:href="#zoomMin" x="42" y="9" onmousedown="handleZoom(evt,'out')"/>
                <use id="reset" xlink:href="#resetDef" x="30" y="36" onmousedown="handleReset()"/>
                <g id="arrowUp" xlink:href="#dirArrow" transform="translate(30 24)" onmousedown="handlePan(0,-1)">
                  <use xlink:href="#rim" fill="#404040">
                        <set attributeName="fill" to="#808080" begin="arrowUp.mouseover" end="arrowUp.mouseout"/>
                  </use>
                  <path fill="none" stroke="white" stroke-width="1.5" d="M0,-3.0v7 M-2.5,-0.5L0,-3.0L2.5,-0.5"/>
                </g>
                <g id="arrowRight" xlink:href="#dirArrow" transform="rotate(90) translate(36 -43)" onmousedown="handlePan(1,0)">
                  <use xlink:href="#rim" fill="#404040">
                        <set attributeName="fill" to="#808080" begin="arrowRight.mouseover" end="arrowRight.mouseout"/>
                  </use>
                  <path fill="none" stroke="white" stroke-width="1.5" d="M0,-3.0v7 M-2.5,-0.5L0,-3.0L2.5,-0.5"/>
                </g>
                <g id="arrowDown" xlink:href="#dirArrow" transform="rotate(180) translate(-30 -48)" onmousedown="handlePan(0,1)">
                  <use xlink:href="#rim" fill="#404040">
                        <set attributeName="fill" to="#808080" begin="arrowDown.mouseover" end="arrowDown.mouseout"/>
                  </use>
                  <path fill="none" stroke="white" stroke-width="1.5" d="M0,-3.0v7 M-2.5,-0.5L0,-3.0L2.5,-0.5"/>
                </g>
                <g id="arrowLeft" xlink:href="#dirArrow" transform="rotate(270) translate(-36 17)" onmousedown="handlePan(-1,0)">
                  <use xlink:href="#rim" fill="#404040">
                        <set attributeName="fill" to="#808080" begin="arrowLeft.mouseover" end="arrowLeft.mouseout"/>
                  </use>
                  <path fill="none" stroke="white" stroke-width="1.5" d="M0,-3.0v7 M-2.5,-0.5L0,-3.0L2.5,-0.5"/>
                </g>
        </g>
        <svg viewBox="0 0 15 15" width="100%" height="30px" preserveAspectRatio="xMaxYMin meet">
         <g id="arrow_out" transform="scale(0.3 0.3)">
          <a xlink:href="namespacesll__m__dg__fields_a66ffd9f6cf3e20a707f967e4cb457d30_cgraph_org.svg" target="_base">
           <rect id="button" ry="5" rx="5" y="6" x="6" height="38" width="38"
                fill="#f2f5e9" fill-opacity="0.5" stroke="#606060" stroke-width="1.0"/>
           <path id="arrow"
             d="M 11.500037,31.436501 C 11.940474,20.09759 22.043105,11.32322 32.158766,21.979434 L 37.068811,17.246167 C 37.068811,17.246167 37.088388,32 37.088388,32 L 22.160133,31.978069 C 22.160133,31.978069 26.997745,27.140456 26.997745,27.140456 C 18.528582,18.264221 13.291696,25.230495 11.500037,31.436501 z"
             style="fill:#404040;"/>
          </a>
         </g>
        </svg>
</svg>
