<?xml version="1.0" encoding="UTF-8" standalone="no"?>
<!DOCTYPE svg PUBLIC "-//W3C//DTD SVG 1.1//EN"
 "http://www.w3.org/Graphics/SVG/1.1/DTD/svg11.dtd">
<!-- Generated by graphviz version 2.38.0 (20140413.2041)
 -->
<!-- Title: fft_to_inorder Pages: 1 -->
<svg width="206pt" height="66pt"
 viewBox="0.00 0.00 206.00 66.00" xmlns="http://www.w3.org/2000/svg" xmlns:xlink="http://www.w3.org/1999/xlink">
<g id="graph0" class="graph" transform="scale(1 1) rotate(0) translate(4 62)">
<title>fft_to_inorder</title>
<polygon fill="white" stroke="none" points="-4,4 -4,-62 202,-62 202,4 -4,4"/>
<!-- Node1 -->
<g id="node1" class="node"><title>Node1</title>
<polygon fill="#bfbfbf" stroke="black" points="0,-19.5 0,-38.5 74,-38.5 74,-19.5 0,-19.5"/>
<text text-anchor="middle" x="37" y="-26.5" font-family="Helvetica,sans-Serif" font-size="10.00">fft_to_inorder</text>
</g>
<!-- Node2 -->
<g id="node2" class="node"><title>Node2</title>
<g id="a_node2"><a xlink:href="namespacesll__m__sparse__grid__interpolator.html#a584b25092b3857d8a22f375defd694c2" target="_top" xlink:title="tonodal1d">
<polygon fill="white" stroke="black" points="124.5,-38.5 124.5,-57.5 183.5,-57.5 183.5,-38.5 124.5,-38.5"/>
<text text-anchor="middle" x="154" y="-45.5" font-family="Helvetica,sans-Serif" font-size="10.00">tonodal1d</text>
</a>
</g>
</g>
<!-- Node1&#45;&gt;Node2 -->
<g id="edge1" class="edge"><title>Node1&#45;&gt;Node2</title>
<path fill="none" stroke="midnightblue" d="M84.2209,-36.6365C97.7846,-38.8775 112.22,-41.2624 124.346,-43.2658"/>
<polygon fill="midnightblue" stroke="midnightblue" points="84.508,-33.1366 74.0712,-34.9596 83.3669,-40.0429 84.508,-33.1366"/>
</g>
<!-- Node3 -->
<g id="node3" class="node"><title>Node3</title>
<g id="a_node3"><a xlink:href="namespacesll__m__sparse__grid__interpolator.html#a203d3670b00a16b747731fb1a8e370f0" target="_top" xlink:title="tonodal1d_comp">
<polygon fill="white" stroke="black" points="110,-0.5 110,-19.5 198,-19.5 198,-0.5 110,-0.5"/>
<text text-anchor="middle" x="154" y="-7.5" font-family="Helvetica,sans-Serif" font-size="10.00">tonodal1d_comp</text>
</a>
</g>
</g>
<!-- Node1&#45;&gt;Node3 -->
<g id="edge2" class="edge"><title>Node1&#45;&gt;Node3</title>
<path fill="none" stroke="midnightblue" d="M84.169,-21.3721C92.6284,-19.9744 101.429,-18.5205 109.797,-17.1378"/>
<polygon fill="midnightblue" stroke="midnightblue" points="83.3669,-17.9571 74.0712,-23.0404 84.508,-24.8634 83.3669,-17.9571"/>
</g>
</g>
</svg>
