<?xml version="1.0" encoding="UTF-8" standalone="no"?>
<!DOCTYPE svg PUBLIC "-//W3C//DTD SVG 1.1//EN"
 "http://www.w3.org/Graphics/SVG/1.1/DTD/svg11.dtd">
<!-- Generated by graphviz version 2.40.1 (20161225.0304)
 -->
<!-- Title: sll_s_spline_pp_b_to_pp_3d_cella Pages: 1 -->
<svg width="464pt" height="39pt"
 viewBox="0.00 0.00 464.00 39.00" xmlns="http://www.w3.org/2000/svg" xmlns:xlink="http://www.w3.org/1999/xlink">
<g id="graph0" class="graph" transform="scale(1 1) rotate(0) translate(4 35)">
<title>sll_s_spline_pp_b_to_pp_3d_cella</title>
<polygon fill="#ffffff" stroke="transparent" points="-4,4 -4,-35 460,-35 460,4 -4,4"/>
<!-- Node173 -->
<g id="node1" class="node">
<title>Node173</title>
<polygon fill="#bfbfbf" stroke="#000000" points="0,-.5 0,-30.5 116,-30.5 116,-.5 0,-.5"/>
<text text-anchor="start" x="8" y="-18.5" font-family="Helvetica,sans-Serif" font-size="10.00" fill="#000000">sll_s_spline_pp_b_to</text>
<text text-anchor="middle" x="58" y="-7.5" font-family="Helvetica,sans-Serif" font-size="10.00" fill="#000000">_pp_3d_cella</text>
</g>
<!-- Node174 -->
<g id="node2" class="node">
<title>Node174</title>
<g id="a_node2"><a xlink:href="namespacesll__m__splines__pp.html#a109b7091f4f1906d9806c109df6c7ac4" target="_top" xlink:title="Convert 3d spline in B form to spline in pp form for clamped spline. ">
<polygon fill="#ffffff" stroke="#000000" points="152,-.5 152,-30.5 268,-30.5 268,-.5 152,-.5"/>
<text text-anchor="start" x="160" y="-18.5" font-family="Helvetica,sans-Serif" font-size="10.00" fill="#000000">sll_s_spline_pp_b_to</text>
<text text-anchor="middle" x="210" y="-7.5" font-family="Helvetica,sans-Serif" font-size="10.00" fill="#000000">_pp_3d_clamped</text>
</a>
</g>
</g>
<!-- Node173&#45;&gt;Node174 -->
<g id="edge1" class="edge">
<title>Node173&#45;&gt;Node174</title>
<path fill="none" stroke="#191970" d="M126.5423,-15.5C134.9862,-15.5 143.5541,-15.5 151.8236,-15.5"/>
<polygon fill="#191970" stroke="#191970" points="126.3325,-12.0001 116.3325,-15.5 126.3324,-19.0001 126.3325,-12.0001"/>
</g>
<!-- Node175 -->
<g id="node3" class="node">
<title>Node175</title>
<g id="a_node3"><a xlink:href="namespacesll__m__splines__pp.html#a382a523b8cbb98a4c148f5ba85ffb1e0" target="_top" xlink:title="sll_s_spline_evaluate\l_basis_b_form_3d_clamped">
<polygon fill="#ffffff" stroke="#000000" points="304,-.5 304,-30.5 456,-30.5 456,-.5 304,-.5"/>
<text text-anchor="start" x="312" y="-18.5" font-family="Helvetica,sans-Serif" font-size="10.00" fill="#000000">sll_s_spline_evaluate</text>
<text text-anchor="middle" x="380" y="-7.5" font-family="Helvetica,sans-Serif" font-size="10.00" fill="#000000">_basis_b_form_3d_clamped</text>
</a>
</g>
</g>
<!-- Node174&#45;&gt;Node175 -->
<g id="edge2" class="edge">
<title>Node174&#45;&gt;Node175</title>
<path fill="none" stroke="#191970" d="M278.2002,-15.5C286.6521,-15.5 295.3348,-15.5 303.8959,-15.5"/>
<polygon fill="#191970" stroke="#191970" points="278.0289,-12.0001 268.0289,-15.5 278.0288,-19.0001 278.0289,-12.0001"/>
</g>
</g>
</svg>
