<?xml version="1.0" encoding="UTF-8" standalone="no"?>
<!DOCTYPE svg PUBLIC "-//W3C//DTD SVG 1.1//EN"
 "http://www.w3.org/Graphics/SVG/1.1/DTD/svg11.dtd">
<!-- Generated by graphviz version 2.43.0 (0)
 -->
<!-- Title: sll_s_dg_field_2d_init Pages: 1 -->
<svg width="515pt" height="39pt"
 viewBox="0.00 0.00 515.00 39.00" xmlns="http://www.w3.org/2000/svg" xmlns:xlink="http://www.w3.org/1999/xlink">
<g id="graph0" class="graph" transform="scale(1 1) rotate(0) translate(4 35)">
<title>sll_s_dg_field_2d_init</title>
<polygon fill="white" stroke="transparent" points="-4,4 -4,-35 511,-35 511,4 -4,4"/>
<!-- Node1 -->
<g id="node1" class="node">
<title>Node1</title>
<g id="a_node1"><a xlink:title=" ">
<polygon fill="#bfbfbf" stroke="black" points="387,-6 387,-25 507,-25 507,-6 387,-6"/>
<text text-anchor="middle" x="447" y="-13" font-family="Helvetica,sans-Serif" font-size="10.00">sll_s_dg_field_2d_init</text>
</a>
</g>
</g>
<!-- Node2 -->
<g id="node2" class="node">
<title>Node2</title>
<g id="a_node2"><a xlink:href="namespacesll__m__maxwell__2d__diga.html#aea7962198b6305c1256087d5a9e5c8fe" target="_top" xlink:title="Initialize Maxwell solver object using DG method.">
<polygon fill="white" stroke="black" points="195,-0.5 195,-30.5 351,-30.5 351,-0.5 195,-0.5"/>
<text text-anchor="start" x="203" y="-18.5" font-family="Helvetica,sans-Serif" font-size="10.00">sll_m_maxwell_2d_diga</text>
<text text-anchor="middle" x="273" y="-7.5" font-family="Helvetica,sans-Serif" font-size="10.00">::sll_s_maxwell_2d_diga_init</text>
</a>
</g>
</g>
<!-- Node1&#45;&gt;Node2 -->
<g id="edge1" class="edge">
<title>Node1&#45;&gt;Node2</title>
<path fill="none" stroke="midnightblue" d="M376.71,-15.5C368.32,-15.5 359.71,-15.5 351.22,-15.5"/>
<polygon fill="midnightblue" stroke="midnightblue" points="376.81,-19 386.81,-15.5 376.81,-12 376.81,-19"/>
</g>
<!-- Node3 -->
<g id="node3" class="node">
<title>Node3</title>
<g id="a_node3"><a xlink:href="namespacesll__m__maxwell__2d__diga.html#a757b8a57dde51f462e899778a250a81d" target="_top" xlink:title=" ">
<polygon fill="white" stroke="black" points="0,-0.5 0,-30.5 159,-30.5 159,-0.5 0,-0.5"/>
<text text-anchor="start" x="8" y="-18.5" font-family="Helvetica,sans-Serif" font-size="10.00">sll_m_maxwell_2d_diga</text>
<text text-anchor="middle" x="79.5" y="-7.5" font-family="Helvetica,sans-Serif" font-size="10.00">::sll_f_new_maxwell_2d_diga</text>
</a>
</g>
</g>
<!-- Node2&#45;&gt;Node3 -->
<g id="edge2" class="edge">
<title>Node2&#45;&gt;Node3</title>
<path fill="none" stroke="midnightblue" d="M184.67,-15.5C176.21,-15.5 167.65,-15.5 159.28,-15.5"/>
<polygon fill="midnightblue" stroke="midnightblue" points="184.94,-19 194.94,-15.5 184.94,-12 184.94,-19"/>
</g>
</g>
</svg>
