<?xml version="1.0" encoding="UTF-8" standalone="no"?>
<!DOCTYPE svg PUBLIC "-//W3C//DTD SVG 1.1//EN"
 "http://www.w3.org/Graphics/SVG/1.1/DTD/svg11.dtd">
<!-- Generated by graphviz version 2.43.0 (0)
 -->
<!-- Title: sll_s_nufft_2d_interpolate_array_values_axi Pages: 1 -->
<svg width="471pt" height="39pt"
 viewBox="0.00 0.00 471.00 39.00" xmlns="http://www.w3.org/2000/svg" xmlns:xlink="http://www.w3.org/1999/xlink">
<g id="graph0" class="graph" transform="scale(1 1) rotate(0) translate(4 35)">
<title>sll_s_nufft_2d_interpolate_array_values_axi</title>
<polygon fill="white" stroke="transparent" points="-4,4 -4,-35 467,-35 467,4 -4,4"/>
<!-- Node1 -->
<g id="node1" class="node">
<title>Node1</title>
<g id="a_node1"><a xlink:title="Compute the fft and interpolate array values when x and y could be outside the domaine....">
<polygon fill="#bfbfbf" stroke="black" points="0,-0.5 0,-30.5 142,-30.5 142,-0.5 0,-0.5"/>
<text text-anchor="start" x="8" y="-18.5" font-family="Helvetica,sans-Serif" font-size="10.00">sll_s_nufft_2d_interpolate</text>
<text text-anchor="middle" x="71" y="-7.5" font-family="Helvetica,sans-Serif" font-size="10.00">_array_values_axi</text>
</a>
</g>
</g>
<!-- Node2 -->
<g id="node2" class="node">
<title>Node2</title>
<g id="a_node2"><a xlink:href="namespacesll__m__nufft__interpolation.html#a162b55abc00342f2e8676595c9427205" target="_top" xlink:title="Compute the fft and prepare data for nufft call.">
<polygon fill="white" stroke="black" points="178,-6 178,-25 325,-25 325,-6 178,-6"/>
<text text-anchor="middle" x="251.5" y="-13" font-family="Helvetica,sans-Serif" font-size="10.00">sll_s_nufft_2d_compute_fft</text>
</a>
</g>
</g>
<!-- Node1&#45;&gt;Node2 -->
<g id="edge1" class="edge">
<title>Node1&#45;&gt;Node2</title>
<path fill="none" stroke="midnightblue" d="M142.04,-15.5C150.46,-15.5 159.12,-15.5 167.71,-15.5"/>
<polygon fill="midnightblue" stroke="midnightblue" points="167.73,-19 177.73,-15.5 167.73,-12 167.73,-19"/>
</g>
<!-- Node3 -->
<g id="node3" class="node">
<title>Node3</title>
<g id="a_node3"><a xlink:href="namespacesll__m__fft.html#a1da210c56b980ae78e65f9a4a473c432" target="_top" xlink:title="Compute fast Fourier transform in complex to complex mode.">
<polygon fill="white" stroke="black" points="361,-0.5 361,-30.5 463,-30.5 463,-0.5 361,-0.5"/>
<text text-anchor="start" x="369" y="-18.5" font-family="Helvetica,sans-Serif" font-size="10.00">sll_m_fft::sll_s_fft</text>
<text text-anchor="middle" x="412" y="-7.5" font-family="Helvetica,sans-Serif" font-size="10.00">_exec_c2c_2d</text>
</a>
</g>
</g>
<!-- Node2&#45;&gt;Node3 -->
<g id="edge2" class="edge">
<title>Node2&#45;&gt;Node3</title>
<path fill="none" stroke="midnightblue" d="M325.26,-15.5C333.82,-15.5 342.48,-15.5 350.85,-15.5"/>
<polygon fill="midnightblue" stroke="midnightblue" points="350.87,-19 360.87,-15.5 350.87,-12 350.87,-19"/>
</g>
</g>
</svg>
