<?xml version="1.0" encoding="UTF-8" standalone="no"?>
<!DOCTYPE svg PUBLIC "-//W3C//DTD SVG 1.1//EN"
 "http://www.w3.org/Graphics/SVG/1.1/DTD/svg11.dtd">
<!-- Generated by graphviz version 2.38.0 (20140413.2041)
 -->
<!-- Title: sll_s_ints_to_string Pages: 1 -->
<svg width="264pt" height="88pt"
 viewBox="0.00 0.00 264.00 88.00" xmlns="http://www.w3.org/2000/svg" xmlns:xlink="http://www.w3.org/1999/xlink">
<g id="graph0" class="graph" transform="scale(1 1) rotate(0) translate(4 84)">
<title>sll_s_ints_to_string</title>
<polygon fill="white" stroke="none" points="-4,4 -4,-84 260,-84 260,4 -4,4"/>
<!-- Node1 -->
<g id="node1" class="node"><title>Node1</title>
<polygon fill="#bfbfbf" stroke="black" points="0,-30 0,-49 101,-49 101,-30 0,-30"/>
<text text-anchor="middle" x="50.5" y="-37" font-family="Helvetica,sans-Serif" font-size="10.00">sll_s_ints_to_string</text>
</g>
<!-- Node2 -->
<g id="node2" class="node"><title>Node2</title>
<g id="a_node2"><a xlink:href="namespacesll__m__xdmf__light__serial.html#acaa2d1c6211e3dde3e258f758b497cd0" target="_top" xlink:title="Add grid to file (new grid ID is returned) ">
<polygon fill="white" stroke="black" points="137,-49.5 137,-79.5 256,-79.5 256,-49.5 137,-49.5"/>
<text text-anchor="start" x="145" y="-67.5" font-family="Helvetica,sans-Serif" font-size="10.00">sll_m_xdmf_light_serial</text>
<text text-anchor="middle" x="196.5" y="-56.5" font-family="Helvetica,sans-Serif" font-size="10.00">::t_xdmf__add_grid</text>
</a>
</g>
</g>
<!-- Node1&#45;&gt;Node2 -->
<g id="edge1" class="edge"><title>Node1&#45;&gt;Node2</title>
<path fill="none" stroke="midnightblue" d="M110.977,-49.8259C119.549,-51.3141 128.366,-52.8447 136.92,-54.3299"/>
<polygon fill="midnightblue" stroke="midnightblue" points="111.508,-46.3658 101.057,-48.1036 110.311,-53.2626 111.508,-46.3658"/>
</g>
<!-- Node3 -->
<g id="node3" class="node"><title>Node3</title>
<g id="a_node3"><a xlink:href="namespacesll__m__xdmf__light__serial.html#ae7492113291a1a6e3ed86e9e0d335dad" target="_top" xlink:title="Add field to grid (selected by its grid ID) ">
<polygon fill="white" stroke="black" points="137,-0.5 137,-30.5 256,-30.5 256,-0.5 137,-0.5"/>
<text text-anchor="start" x="145" y="-18.5" font-family="Helvetica,sans-Serif" font-size="10.00">sll_m_xdmf_light_serial</text>
<text text-anchor="middle" x="196.5" y="-7.5" font-family="Helvetica,sans-Serif" font-size="10.00">::t_xdmf__add_field</text>
</a>
</g>
</g>
<!-- Node1&#45;&gt;Node3 -->
<g id="edge2" class="edge"><title>Node1&#45;&gt;Node3</title>
<path fill="none" stroke="midnightblue" d="M110.977,-29.5872C119.549,-28.1585 128.366,-26.6891 136.92,-25.2633"/>
<polygon fill="midnightblue" stroke="midnightblue" points="110.345,-26.1441 101.057,-31.2406 111.496,-33.0489 110.345,-26.1441"/>
</g>
</g>
</svg>
