<?xml version="1.0" encoding="UTF-8" standalone="no"?>
<!DOCTYPE svg PUBLIC "-//W3C//DTD SVG 1.1//EN"
 "http://www.w3.org/Graphics/SVG/1.1/DTD/svg11.dtd">
<!-- Generated by graphviz version 2.43.0 (0)
 -->
<!-- Title: multiply_mass_2form Pages: 1 -->
<svg width="313pt" height="127pt"
 viewBox="0.00 0.00 313.00 126.50" xmlns="http://www.w3.org/2000/svg" xmlns:xlink="http://www.w3.org/1999/xlink">
<g id="graph0" class="graph" transform="scale(1 1) rotate(0) translate(4 122.5)">
<title>multiply_mass_2form</title>
<polygon fill="white" stroke="transparent" points="-4,4 -4,-122.5 309,-122.5 309,4 -4,4"/>
<!-- Node1 -->
<g id="node1" class="node">
<title>Node1</title>
<g id="a_node1"><a xlink:title="Helper function for multiply_mass.">
<polygon fill="#bfbfbf" stroke="black" points="182,-55 182,-74 305,-74 305,-55 182,-55"/>
<text text-anchor="middle" x="243.5" y="-62" font-family="Helvetica,sans-Serif" font-size="10.00">multiply_mass_2form</text>
</a>
</g>
</g>
<!-- Node2 -->
<g id="node2" class="node">
<title>Node2</title>
<g id="a_node2"><a xlink:href="namespacesll__m__maxwell__3d__fem__fft.html#adf449c72634051c9778ba058092a3162" target="_top" xlink:title="Multiply by the mass matrix.">
<polygon fill="white" stroke="black" points="0,-99 0,-118 146,-118 146,-99 0,-99"/>
<text text-anchor="middle" x="73" y="-106" font-family="Helvetica,sans-Serif" font-size="10.00">multiply_mass_3d_fem_fft</text>
</a>
</g>
</g>
<!-- Node1&#45;&gt;Node2 -->
<g id="edge1" class="edge">
<title>Node1&#45;&gt;Node2</title>
<path fill="none" stroke="midnightblue" d="M195.95,-76.65C168.99,-83.7 135.54,-92.43 110.49,-98.97"/>
<polygon fill="midnightblue" stroke="midnightblue" points="197.15,-79.96 205.94,-74.05 195.38,-73.19 197.15,-79.96"/>
</g>
<!-- Node3 -->
<g id="node3" class="node">
<title>Node3</title>
<g id="a_node3"><a xlink:href="namespacesll__m__maxwell__3d__fem__fft.html#a92f3104e545181a21659fffd7bf3e6bd" target="_top" xlink:title="Solve curl part of Maxwell&#39;s equations.">
<polygon fill="white" stroke="black" points="18,-49.5 18,-79.5 128,-79.5 128,-49.5 18,-49.5"/>
<text text-anchor="start" x="26" y="-67.5" font-family="Helvetica,sans-Serif" font-size="10.00">sll_s_compute_curl</text>
<text text-anchor="middle" x="73" y="-56.5" font-family="Helvetica,sans-Serif" font-size="10.00">_part_3d_fem_fft</text>
</a>
</g>
</g>
<!-- Node1&#45;&gt;Node3 -->
<g id="edge2" class="edge">
<title>Node1&#45;&gt;Node3</title>
<path fill="none" stroke="midnightblue" d="M171.25,-64.5C156.78,-64.5 141.79,-64.5 128.04,-64.5"/>
<polygon fill="midnightblue" stroke="midnightblue" points="171.67,-68 181.67,-64.5 171.67,-61 171.67,-68"/>
</g>
<!-- Node4 -->
<g id="node4" class="node">
<title>Node4</title>
<g id="a_node4"><a xlink:href="namespacesll__m__maxwell__3d__fem__fft.html#a01c619d73d2b079d62d58e5d7b18f07a" target="_top" xlink:title="compute Ey from Bz using weak Ampere formulation">
<polygon fill="white" stroke="black" points="10,-0.5 10,-30.5 136,-30.5 136,-0.5 10,-0.5"/>
<text text-anchor="start" x="18" y="-18.5" font-family="Helvetica,sans-Serif" font-size="10.00">sll_s_compute_e_from</text>
<text text-anchor="middle" x="73" y="-7.5" font-family="Helvetica,sans-Serif" font-size="10.00">_b_3d_fem_fft</text>
</a>
</g>
</g>
<!-- Node1&#45;&gt;Node4 -->
<g id="edge3" class="edge">
<title>Node1&#45;&gt;Node4</title>
<path fill="none" stroke="midnightblue" d="M199.98,-52.13C177.42,-45.57 149.51,-37.46 125.71,-30.54"/>
<polygon fill="midnightblue" stroke="midnightblue" points="199.03,-55.5 209.61,-54.94 200.99,-48.78 199.03,-55.5"/>
</g>
</g>
</svg>
