<?xml version="1.0" encoding="UTF-8" standalone="no"?>
<!DOCTYPE svg PUBLIC "-//W3C//DTD SVG 1.1//EN"
 "http://www.w3.org/Graphics/SVG/1.1/DTD/svg11.dtd">
<!-- Generated by graphviz version 2.43.0 (0)
 -->
<!-- Title: add_particle_mass_mixed_spline_1d Pages: 1 -->
<svg width="318pt" height="39pt"
 viewBox="0.00 0.00 318.00 39.00" xmlns="http://www.w3.org/2000/svg" xmlns:xlink="http://www.w3.org/1999/xlink">
<g id="graph0" class="graph" transform="scale(1 1) rotate(0) translate(4 35)">
<title>add_particle_mass_mixed_spline_1d</title>
<polygon fill="white" stroke="transparent" points="-4,4 -4,-35 314,-35 314,4 -4,4"/>
<!-- Node1 -->
<g id="node1" class="node">
<title>Node1</title>
<g id="a_node1"><a xlink:title="Add charge of one particle for splines of different degrees.">
<polygon fill="#bfbfbf" stroke="black" points="167,-0.5 167,-30.5 310,-30.5 310,-0.5 167,-0.5"/>
<text text-anchor="start" x="175" y="-18.5" font-family="Helvetica,sans-Serif" font-size="10.00">add_particle_mass_mixed</text>
<text text-anchor="middle" x="238.5" y="-7.5" font-family="Helvetica,sans-Serif" font-size="10.00">_spline_1d</text>
</a>
</g>
</g>
<!-- Node2 -->
<g id="node2" class="node">
<title>Node2</title>
<g id="a_node2"><a xlink:href="namespacesll__m__time__propagator__pic__vm__1d2v__ecsim.html#adc68ec005def4d2740c89a91a3b6653b" target="_top" xlink:title=" ">
<polygon fill="white" stroke="black" points="0,-0.5 0,-30.5 131,-30.5 131,-0.5 0,-0.5"/>
<text text-anchor="start" x="8" y="-18.5" font-family="Helvetica,sans-Serif" font-size="10.00">advect_e_pic_vm_1d2v</text>
<text text-anchor="middle" x="65.5" y="-7.5" font-family="Helvetica,sans-Serif" font-size="10.00">_ecsim</text>
</a>
</g>
</g>
<!-- Node1&#45;&gt;Node2 -->
<g id="edge1" class="edge">
<title>Node1&#45;&gt;Node2</title>
<path fill="none" stroke="midnightblue" d="M156.87,-15.5C148.24,-15.5 139.53,-15.5 131.12,-15.5"/>
<polygon fill="midnightblue" stroke="midnightblue" points="156.96,-19 166.96,-15.5 156.96,-12 156.96,-19"/>
</g>
</g>
</svg>
