<?xml version="1.0" encoding="UTF-8" standalone="no"?>
<!DOCTYPE svg PUBLIC "-//W3C//DTD SVG 1.1//EN"
 "http://www.w3.org/Graphics/SVG/1.1/DTD/svg11.dtd">
<!-- Generated by graphviz version 2.38.0 (20140413.2041)
 -->
<!-- Title: sll_s_lagrange_interpolation_1d_fast_disp_centered_periodicl Pages: 1 -->
<svg width="391pt" height="142pt"
 viewBox="0.00 0.00 391.00 142.00" xmlns="http://www.w3.org/2000/svg" xmlns:xlink="http://www.w3.org/1999/xlink">
<g id="graph0" class="graph" transform="scale(1 1) rotate(0) translate(4 138)">
<title>sll_s_lagrange_interpolation_1d_fast_disp_centered_periodicl</title>
<polygon fill="white" stroke="none" points="-4,4 -4,-138 387,-138 387,4 -4,4"/>
<!-- Node1 -->
<g id="node1" class="node"><title>Node1</title>
<polygon fill="#bfbfbf" stroke="black" points="0,-52 0,-82 161,-82 161,-52 0,-52"/>
<text text-anchor="start" x="8" y="-70" font-family="Helvetica,sans-Serif" font-size="10.00">sll_s_lagrange_interpolation</text>
<text text-anchor="middle" x="80.5" y="-59" font-family="Helvetica,sans-Serif" font-size="10.00">_1d_fast_disp_centered_periodicl</text>
</g>
<!-- Node2 -->
<g id="node2" class="node"><title>Node2</title>
<g id="a_node2"><a xlink:href="namespacesll__m__lagrange__interpolation__1d__fast.html#a7f4d88f171a861b1efa88dc385690aad" target="_top" xlink:title="vectorizable 6&#45;pt&#45;lagrange interpolation ">
<polygon fill="white" stroke="black" points="197,-114.5 197,-133.5 269,-133.5 269,-114.5 197,-114.5"/>
<text text-anchor="middle" x="233" y="-121.5" font-family="Helvetica,sans-Serif" font-size="10.00">lagr_6pt_vec</text>
</a>
</g>
</g>
<!-- Node1&#45;&gt;Node2 -->
<g id="edge1" class="edge"><title>Node1&#45;&gt;Node2</title>
<path fill="none" stroke="midnightblue" d="M121.436,-82.1253C144.952,-91.0316 174.418,-102.192 197.016,-110.75"/>
<polygon fill="midnightblue" stroke="midnightblue" points="195.965,-114.095 206.556,-114.363 198.444,-107.548 195.965,-114.095"/>
</g>
<!-- Node4 -->
<g id="node4" class="node"><title>Node4</title>
<g id="a_node4"><a xlink:href="namespacesll__m__lagrange__interpolation__1d__fast.html#a4256739817750a8ef482115919ff3469" target="_top" xlink:title="single point 6&#45;pt&#45;lagrange interpolation ">
<polygon fill="white" stroke="black" points="207.5,-76.5 207.5,-95.5 258.5,-95.5 258.5,-76.5 207.5,-76.5"/>
<text text-anchor="middle" x="233" y="-83.5" font-family="Helvetica,sans-Serif" font-size="10.00">lagr_6pt</text>
</a>
</g>
</g>
<!-- Node1&#45;&gt;Node4 -->
<g id="edge3" class="edge"><title>Node1&#45;&gt;Node4</title>
<path fill="none" stroke="midnightblue" d="M161.157,-77.0564C173.874,-78.6618 186.422,-80.246 197.343,-81.6247"/>
<polygon fill="midnightblue" stroke="midnightblue" points="196.907,-85.0973 207.267,-82.8775 197.784,-78.1525 196.907,-85.0973"/>
</g>
<!-- Node5 -->
<g id="node5" class="node"><title>Node5</title>
<g id="a_node5"><a xlink:href="namespacesll__m__lagrange__interpolation__1d__fast.html#ac816afaf40d8b320cdd6fe0d60bd6381" target="_top" xlink:title="vectorizable 4&#45;pt&#45;lagrange interpolation ">
<polygon fill="white" stroke="black" points="197,-38.5 197,-57.5 269,-57.5 269,-38.5 197,-38.5"/>
<text text-anchor="middle" x="233" y="-45.5" font-family="Helvetica,sans-Serif" font-size="10.00">lagr_4pt_vec</text>
</a>
</g>
</g>
<!-- Node1&#45;&gt;Node5 -->
<g id="edge5" class="edge"><title>Node1&#45;&gt;Node5</title>
<path fill="none" stroke="midnightblue" d="M161.157,-56.9436C169.981,-55.8296 178.725,-54.7258 186.9,-53.6937"/>
<polygon fill="midnightblue" stroke="midnightblue" points="187.43,-57.1546 196.913,-52.4296 186.554,-50.2097 187.43,-57.1546"/>
</g>
<!-- Node7 -->
<g id="node7" class="node"><title>Node7</title>
<g id="a_node7"><a xlink:href="namespacesll__m__lagrange__interpolation__1d__fast.html#af837ccecbba2b8eece28c134d0302bb6" target="_top" xlink:title="single point 4&#45;pt&#45;lagrange interpolation ">
<polygon fill="white" stroke="black" points="207.5,-0.5 207.5,-19.5 258.5,-19.5 258.5,-0.5 207.5,-0.5"/>
<text text-anchor="middle" x="233" y="-7.5" font-family="Helvetica,sans-Serif" font-size="10.00">lagr_4pt</text>
</a>
</g>
</g>
<!-- Node1&#45;&gt;Node7 -->
<g id="edge7" class="edge"><title>Node1&#45;&gt;Node7</title>
<path fill="none" stroke="midnightblue" d="M121.436,-51.8747C145.255,-42.8535 175.179,-31.5201 197.888,-22.9196"/>
<polygon fill="midnightblue" stroke="midnightblue" points="199.34,-26.1124 207.452,-19.2973 196.86,-19.5661 199.34,-26.1124"/>
</g>
<!-- Node3 -->
<g id="node3" class="node"><title>Node3</title>
<g id="a_node3"><a xlink:href="namespacesll__m__lagrange__interpolation__1d__fast.html#ad9f17b7a010913e89f73a0be4351071c" target="_top" xlink:title="Compute coefficients for Lagrange interpolation for normalized displacement p. ">
<polygon fill="white" stroke="black" points="305,-85.5 305,-104.5 383,-104.5 383,-85.5 305,-85.5"/>
<text text-anchor="middle" x="344" y="-92.5" font-family="Helvetica,sans-Serif" font-size="10.00">lagr_6pt_coeff</text>
</a>
</g>
</g>
<!-- Node2&#45;&gt;Node3 -->
<g id="edge2" class="edge"><title>Node2&#45;&gt;Node3</title>
<path fill="none" stroke="midnightblue" d="M269.088,-114.665C278.141,-112.256 288.017,-109.629 297.516,-107.101"/>
<polygon fill="midnightblue" stroke="midnightblue" points="298.465,-110.471 307.229,-104.517 296.665,-103.706 298.465,-110.471"/>
</g>
<!-- Node4&#45;&gt;Node3 -->
<g id="edge4" class="edge"><title>Node4&#45;&gt;Node3</title>
<path fill="none" stroke="midnightblue" d="M258.734,-88.0422C269.333,-88.9174 282.1,-89.9715 294.453,-90.9915"/>
<polygon fill="midnightblue" stroke="midnightblue" points="294.422,-94.5008 304.676,-91.8356 294.998,-87.5245 294.422,-94.5008"/>
</g>
<!-- Node6 -->
<g id="node6" class="node"><title>Node6</title>
<g id="a_node6"><a xlink:href="namespacesll__m__lagrange__interpolation__1d__fast.html#a1e5686ba11a77c998f3a2e3925279956" target="_top" xlink:title="Compute coefficients for Lagrange interpolation for normalized displacement p. ">
<polygon fill="white" stroke="black" points="305,-28.5 305,-47.5 383,-47.5 383,-28.5 305,-28.5"/>
<text text-anchor="middle" x="344" y="-35.5" font-family="Helvetica,sans-Serif" font-size="10.00">lagr_4pt_coeff</text>
</a>
</g>
</g>
<!-- Node5&#45;&gt;Node6 -->
<g id="edge6" class="edge"><title>Node5&#45;&gt;Node6</title>
<path fill="none" stroke="midnightblue" d="M269.088,-44.7809C277.319,-44.0258 286.229,-43.2084 294.918,-42.4112"/>
<polygon fill="midnightblue" stroke="midnightblue" points="295.325,-45.8887 304.963,-41.4896 294.685,-38.9179 295.325,-45.8887"/>
</g>
<!-- Node7&#45;&gt;Node6 -->
<g id="edge8" class="edge"><title>Node7&#45;&gt;Node6</title>
<path fill="none" stroke="midnightblue" d="M258.734,-16.3536C269.846,-19.208 283.339,-22.6742 296.241,-25.9885"/>
<polygon fill="midnightblue" stroke="midnightblue" points="295.387,-29.3826 305.943,-28.4808 297.128,-22.6028 295.387,-29.3826"/>
</g>
</g>
</svg>
