<?xml version="1.0" encoding="UTF-8" standalone="no"?>
<!DOCTYPE svg PUBLIC "-//W3C//DTD SVG 1.1//EN"
 "http://www.w3.org/Graphics/SVG/1.1/DTD/svg11.dtd">
<!-- Generated by graphviz version 2.40.1 (20161225.0304)
 -->
<!-- Title: solve_circulant_system Pages: 1 -->
<svg width="278pt" height="28pt"
 viewBox="0.00 0.00 278.00 28.00" xmlns="http://www.w3.org/2000/svg" xmlns:xlink="http://www.w3.org/1999/xlink">
<g id="graph0" class="graph" transform="scale(1 1) rotate(0) translate(4 24)">
<title>solve_circulant_system</title>
<polygon fill="#ffffff" stroke="transparent" points="-4,4 -4,-24 274,-24 274,4 -4,4"/>
<!-- Node137 -->
<g id="node1" class="node">
<title>Node137</title>
<polygon fill="#bfbfbf" stroke="#000000" points="0,-.5 0,-19.5 131,-19.5 131,-.5 0,-.5"/>
<text text-anchor="middle" x="65.5" y="-7.5" font-family="Helvetica,sans-Serif" font-size="10.00" fill="#000000">solve_circulant_system</text>
</g>
<!-- Node138 -->
<g id="node2" class="node">
<title>Node138</title>
<g id="a_node2"><a xlink:href="sol_8f.html#a4145fac37257dc54fbe9cb58cba9e27d" target="_top" xlink:title="sol">
<polygon fill="#ffffff" stroke="#000000" points="167,-.5 167,-19.5 198,-19.5 198,-.5 167,-.5"/>
<text text-anchor="middle" x="182.5" y="-7.5" font-family="Helvetica,sans-Serif" font-size="10.00" fill="#000000">sol</text>
</a>
</g>
</g>
<!-- Node137&#45;&gt;Node138 -->
<g id="edge1" class="edge">
<title>Node137&#45;&gt;Node138</title>
<path fill="none" stroke="#191970" d="M131.1821,-10C140.2457,-10 149.0758,-10 156.7843,-10"/>
<polygon fill="#191970" stroke="#191970" points="156.8423,-13.5001 166.8423,-10 156.8422,-6.5001 156.8423,-13.5001"/>
</g>
<!-- Node139 -->
<g id="node3" class="node">
<title>Node139</title>
<g id="a_node3"><a xlink:href="sol_8f.html#af0ab570d99532a3735bed4c552583c95" target="_top" xlink:title="scal">
<polygon fill="#ffffff" stroke="#000000" points="234,-.5 234,-19.5 270,-19.5 270,-.5 234,-.5"/>
<text text-anchor="middle" x="252" y="-7.5" font-family="Helvetica,sans-Serif" font-size="10.00" fill="#000000">scal</text>
</a>
</g>
</g>
<!-- Node138&#45;&gt;Node139 -->
<g id="edge2" class="edge">
<title>Node138&#45;&gt;Node139</title>
<path fill="none" stroke="#191970" d="M198.2706,-10C205.7874,-10 215.0134,-10 223.6852,-10"/>
<polygon fill="#191970" stroke="#191970" points="223.8362,-13.5001 233.8361,-10 223.8361,-6.5001 223.8362,-13.5001"/>
</g>
</g>
</svg>
