<?xml version="1.0" encoding="UTF-8" standalone="no"?>
<!DOCTYPE svg PUBLIC "-//W3C//DTD SVG 1.1//EN"
 "http://www.w3.org/Graphics/SVG/1.1/DTD/svg11.dtd">
<!-- Generated by graphviz version 2.43.0 (0)
 -->
<!-- Title: errout Pages: 1 -->
<svg width="215pt" height="66pt"
 viewBox="0.00 0.00 215.00 66.00" xmlns="http://www.w3.org/2000/svg" xmlns:xlink="http://www.w3.org/1999/xlink">
<g id="graph0" class="graph" transform="scale(1 1) rotate(0) translate(4 62)">
<title>errout</title>
<polygon fill="white" stroke="transparent" points="-4,4 -4,-62 211,-62 211,4 -4,4"/>
<!-- Node1 -->
<g id="node1" class="node">
<title>Node1</title>
<g id="a_node1"><a xlink:title="Write error/warning message to a given unit.">
<polygon fill="#bfbfbf" stroke="black" points="161,-19.5 161,-38.5 207,-38.5 207,-19.5 161,-19.5"/>
<text text-anchor="middle" x="184" y="-26.5" font-family="Helvetica,sans-Serif" font-size="10.00">errout</text>
</a>
</g>
</g>
<!-- Node2 -->
<g id="node2" class="node">
<title>Node2</title>
<g id="a_node2"><a xlink:href="namespacesll__m__errors.html#ab2b2de7bae16e75f78282c61d5e58e57" target="_top" xlink:title="Print error message to standard&#45;error, stop execution and dump backtrace information.">
<polygon fill="white" stroke="black" points="8,-38.5 8,-57.5 117,-57.5 117,-38.5 8,-38.5"/>
<text text-anchor="middle" x="62.5" y="-45.5" font-family="Helvetica,sans-Serif" font-size="10.00">sll_s_error_handler</text>
</a>
</g>
</g>
<!-- Node1&#45;&gt;Node2 -->
<g id="edge1" class="edge">
<title>Node1&#45;&gt;Node2</title>
<path fill="none" stroke="midnightblue" d="M150.6,-34.15C140.26,-35.8 128.53,-37.66 117.1,-39.48"/>
<polygon fill="midnightblue" stroke="midnightblue" points="151.48,-37.56 160.8,-32.53 150.38,-30.64 151.48,-37.56"/>
</g>
<!-- Node3 -->
<g id="node3" class="node">
<title>Node3</title>
<g id="a_node3"><a xlink:href="namespacesll__m__errors.html#ad404dbc3701193c590ea4412c09d4b7f" target="_top" xlink:title="Print warning message to standard&#45;error and continue execution.">
<polygon fill="white" stroke="black" points="0,-0.5 0,-19.5 125,-19.5 125,-0.5 0,-0.5"/>
<text text-anchor="middle" x="62.5" y="-7.5" font-family="Helvetica,sans-Serif" font-size="10.00">sll_s_warning_handler</text>
</a>
</g>
</g>
<!-- Node1&#45;&gt;Node3 -->
<g id="edge2" class="edge">
<title>Node1&#45;&gt;Node3</title>
<path fill="none" stroke="midnightblue" d="M150.67,-23.86C142.21,-22.51 132.82,-21.02 123.43,-19.53"/>
<polygon fill="midnightblue" stroke="midnightblue" points="150.38,-27.36 160.8,-25.47 151.48,-20.44 150.38,-27.36"/>
</g>
</g>
</svg>
