<?xml version="1.0" encoding="UTF-8" standalone="no"?>
<!DOCTYPE svg PUBLIC "-//W3C//DTD SVG 1.1//EN"
 "http://www.w3.org/Graphics/SVG/1.1/DTD/svg11.dtd">
<!-- Generated by graphviz version 2.43.0 (0)
 -->
<!-- Title: fft_to_inorder Pages: 1 -->
<svg width="224pt" height="66pt"
 viewBox="0.00 0.00 224.00 66.00" xmlns="http://www.w3.org/2000/svg" xmlns:xlink="http://www.w3.org/1999/xlink">
<g id="graph0" class="graph" transform="scale(1 1) rotate(0) translate(4 62)">
<title>fft_to_inorder</title>
<polygon fill="white" stroke="transparent" points="-4,4 -4,-62 220,-62 220,4 -4,4"/>
<!-- Node1 -->
<g id="node1" class="node">
<title>Node1</title>
<g id="a_node1"><a xlink:title=" ">
<polygon fill="#bfbfbf" stroke="black" points="134,-19.5 134,-38.5 216,-38.5 216,-19.5 134,-19.5"/>
<text text-anchor="middle" x="175" y="-26.5" font-family="Helvetica,sans-Serif" font-size="10.00">fft_to_inorder</text>
</a>
</g>
</g>
<!-- Node2 -->
<g id="node2" class="node">
<title>Node2</title>
<g id="a_node2"><a xlink:href="namespacesll__m__sparse__grid__interpolator.html#a584b25092b3857d8a22f375defd694c2" target="_top" xlink:title=" ">
<polygon fill="white" stroke="black" points="16.5,-38.5 16.5,-57.5 81.5,-57.5 81.5,-38.5 16.5,-38.5"/>
<text text-anchor="middle" x="49" y="-45.5" font-family="Helvetica,sans-Serif" font-size="10.00">tonodal1d</text>
</a>
</g>
</g>
<!-- Node1&#45;&gt;Node2 -->
<g id="edge1" class="edge">
<title>Node1&#45;&gt;Node2</title>
<path fill="none" stroke="midnightblue" d="M123.64,-36.72C109.51,-38.88 94.54,-41.17 81.82,-43.12"/>
<polygon fill="midnightblue" stroke="midnightblue" points="124.39,-40.14 133.74,-35.17 123.33,-33.22 124.39,-40.14"/>
</g>
<!-- Node3 -->
<g id="node3" class="node">
<title>Node3</title>
<g id="a_node3"><a xlink:href="namespacesll__m__sparse__grid__interpolator.html#a203d3670b00a16b747731fb1a8e370f0" target="_top" xlink:title=" ">
<polygon fill="white" stroke="black" points="0,-0.5 0,-19.5 98,-19.5 98,-0.5 0,-0.5"/>
<text text-anchor="middle" x="49" y="-7.5" font-family="Helvetica,sans-Serif" font-size="10.00">tonodal1d_comp</text>
</a>
</g>
</g>
<!-- Node1&#45;&gt;Node3 -->
<g id="edge2" class="edge">
<title>Node1&#45;&gt;Node3</title>
<path fill="none" stroke="midnightblue" d="M123.69,-21.29C115.3,-20.01 106.61,-18.67 98.27,-17.4"/>
<polygon fill="midnightblue" stroke="midnightblue" points="123.33,-24.78 133.74,-22.83 124.39,-17.86 123.33,-24.78"/>
</g>
</g>
</svg>
