<?xml version="1.0" encoding="UTF-8" standalone="no"?>
<!DOCTYPE svg PUBLIC "-//W3C//DTD SVG 1.1//EN"
 "http://www.w3.org/Graphics/SVG/1.1/DTD/svg11.dtd">
<!-- Generated by graphviz version 2.40.1 (20161225.0304)
 -->
<!-- Title: index_1dto2d_column_major Pages: 1 -->
<svg width="327pt" height="166pt"
 viewBox="0.00 0.00 327.00 165.50" xmlns="http://www.w3.org/2000/svg" xmlns:xlink="http://www.w3.org/1999/xlink">
<g id="graph0" class="graph" transform="scale(1 1) rotate(0) translate(4 161.5)">
<title>index_1dto2d_column_major</title>
<polygon fill="#ffffff" stroke="transparent" points="-4,4 -4,-161.5 323,-161.5 323,4 -4,4"/>
<!-- Node35 -->
<g id="node1" class="node">
<title>Node35</title>
<polygon fill="#bfbfbf" stroke="#000000" points="0,-61 0,-91 124,-91 124,-61 0,-61"/>
<text text-anchor="start" x="8" y="-79" font-family="Helvetica,sans-Serif" font-size="10.00" fill="#000000">index_1dto2d_column</text>
<text text-anchor="middle" x="62" y="-68" font-family="Helvetica,sans-Serif" font-size="10.00" fill="#000000">_major</text>
</g>
<!-- Node36 -->
<g id="node2" class="node">
<title>Node36</title>
<g id="a_node2"><a xlink:href="namespacesll__m__particle__mesh__coupling__spline__2d.html#ad840c20f1d29c5eb5152487cf3787ea2" target="_top" xlink:title="Add charge of single particle. ">
<polygon fill="#ffffff" stroke="#000000" points="168.5,-127 168.5,-157 310.5,-157 310.5,-127 168.5,-127"/>
<text text-anchor="start" x="176.5" y="-145" font-family="Helvetica,sans-Serif" font-size="10.00" fill="#000000">add_charge_single_spline</text>
<text text-anchor="middle" x="239.5" y="-134" font-family="Helvetica,sans-Serif" font-size="10.00" fill="#000000">_pp_2d</text>
</a>
</g>
</g>
<!-- Node35&#45;&gt;Node36 -->
<g id="edge1" class="edge">
<title>Node35&#45;&gt;Node36</title>
<path fill="none" stroke="#191970" d="M105.3278,-95.1315C122.2486,-102.3377 141.9,-110.3836 160,-117 169.3764,-120.4275 179.4738,-123.8236 189.2223,-126.9561"/>
<polygon fill="#191970" stroke="#191970" points="106.2827,-91.7326 95.713,-91.0029 103.5207,-98.1646 106.2827,-91.7326"/>
</g>
<!-- Node37 -->
<g id="node3" class="node">
<title>Node37</title>
<g id="a_node3"><a xlink:href="namespacesll__m__particle__mesh__coupling__spline__2d.html#ad485fd57b16e1c5b4c34b9c40ee6ac3a" target="_top" xlink:title="Add charge of single particle. ">
<polygon fill="#ffffff" stroke="#000000" points="160,-88.5 160,-107.5 319,-107.5 319,-88.5 160,-88.5"/>
<text text-anchor="middle" x="239.5" y="-95.5" font-family="Helvetica,sans-Serif" font-size="10.00" fill="#000000">add_charge_single_spline_2d</text>
</a>
</g>
</g>
<!-- Node35&#45;&gt;Node37 -->
<g id="edge2" class="edge">
<title>Node35&#45;&gt;Node37</title>
<path fill="none" stroke="#191970" d="M134.1826,-84.9466C143.6049,-86.1144 153.2855,-87.3143 162.779,-88.4909"/>
<polygon fill="#191970" stroke="#191970" points="134.4355,-81.4512 124.0809,-83.6945 133.5744,-88.3981 134.4355,-81.4512"/>
</g>
<!-- Node38 -->
<g id="node4" class="node">
<title>Node38</title>
<g id="a_node4"><a xlink:href="namespacesll__m__particle__mesh__coupling__spline__2d.html#a35920d82ce67770021e257d41372538c" target="_top" xlink:title="Evaluate field with given dofs at position position. ">
<polygon fill="#ffffff" stroke="#000000" points="179.5,-39 179.5,-69 299.5,-69 299.5,-39 179.5,-39"/>
<text text-anchor="start" x="187.5" y="-57" font-family="Helvetica,sans-Serif" font-size="10.00" fill="#000000">evaluate_field_single</text>
<text text-anchor="middle" x="239.5" y="-46" font-family="Helvetica,sans-Serif" font-size="10.00" fill="#000000">_spline_2d</text>
</a>
</g>
</g>
<!-- Node35&#45;&gt;Node38 -->
<g id="edge3" class="edge">
<title>Node35&#45;&gt;Node38</title>
<path fill="none" stroke="#191970" d="M134.2933,-67.0397C149.2246,-65.1891 164.7999,-63.2586 179.248,-61.4679"/>
<polygon fill="#191970" stroke="#191970" points="133.5744,-63.6019 124.0809,-68.3055 134.4355,-70.5488 133.5744,-63.6019"/>
</g>
<!-- Node39 -->
<g id="node5" class="node">
<title>Node39</title>
<g id="a_node5"><a xlink:href="namespacesll__m__particle__mesh__coupling__spline__2d.html#a0e781d1106f613372d9c53175ad175df" target="_top" xlink:title="Evaluate multiple fields at position position. ">
<polygon fill="#ffffff" stroke="#000000" points="161,-.5 161,-19.5 318,-19.5 318,-.5 161,-.5"/>
<text text-anchor="middle" x="239.5" y="-7.5" font-family="Helvetica,sans-Serif" font-size="10.00" fill="#000000">evaluate_multiple_spline_2d</text>
</a>
</g>
</g>
<!-- Node35&#45;&gt;Node39 -->
<g id="edge4" class="edge">
<title>Node35&#45;&gt;Node39</title>
<path fill="none" stroke="#191970" d="M99.5336,-56.3044C117.4899,-47.4242 139.4985,-37.3135 160,-30 171.26,-25.9832 183.6901,-22.4491 195.31,-19.5134"/>
<polygon fill="#191970" stroke="#191970" points="97.9115,-53.2024 90.5424,-60.8147 101.0502,-59.4593 97.9115,-53.2024"/>
</g>
</g>
</svg>
