<?xml version="1.0" encoding="UTF-8" standalone="no"?>
<!DOCTYPE svg PUBLIC "-//W3C//DTD SVG 1.1//EN"
 "http://www.w3.org/Graphics/SVG/1.1/DTD/svg11.dtd">
<!-- Generated by graphviz version 2.38.0 (20140413.2041)
 -->
<!-- Title: sll_s_qn_solver_3d_polar_par_free Pages: 1 -->
<svg width="275pt" height="50pt"
 viewBox="0.00 0.00 275.00 50.00" xmlns="http://www.w3.org/2000/svg" xmlns:xlink="http://www.w3.org/1999/xlink">
<g id="graph0" class="graph" transform="scale(1 1) rotate(0) translate(4 46)">
<title>sll_s_qn_solver_3d_polar_par_free</title>
<polygon fill="white" stroke="none" points="-4,4 -4,-46 271,-46 271,4 -4,4"/>
<!-- Node1 -->
<g id="node1" class="node"><title>Node1</title>
<polygon fill="#bfbfbf" stroke="black" points="0,-6 0,-36 100,-36 100,-6 0,-6"/>
<text text-anchor="start" x="8" y="-24" font-family="Helvetica,sans-Serif" font-size="10.00">sll_s_qn_solver_3d</text>
<text text-anchor="middle" x="50" y="-13" font-family="Helvetica,sans-Serif" font-size="10.00">_polar_par_free</text>
</g>
<!-- Node2 -->
<g id="node2" class="node"><title>Node2</title>
<g id="a_node2"><a xlink:href="namespacesll__m__qn__solver__2d__polar__par.html#ac5604f56bab25a20ae07efe15cf12f95" target="_top" xlink:title="Delete contents (local storage) of quasi&#45;neutrality solver. ">
<polygon fill="white" stroke="black" points="136,-0.5 136,-41.5 267,-41.5 267,-0.5 136,-0.5"/>
<text text-anchor="start" x="144" y="-29.5" font-family="Helvetica,sans-Serif" font-size="10.00">sll_m_qn_solver_2d</text>
<text text-anchor="start" x="144" y="-18.5" font-family="Helvetica,sans-Serif" font-size="10.00">_polar_par::sll_s_qn</text>
<text text-anchor="middle" x="201.5" y="-7.5" font-family="Helvetica,sans-Serif" font-size="10.00">_solver_2d_polar_par_free</text>
</a>
</g>
</g>
<!-- Node1&#45;&gt;Node2 -->
<g id="edge1" class="edge"><title>Node1&#45;&gt;Node2</title>
<path fill="none" stroke="midnightblue" d="M100.366,-21C108.558,-21 117.211,-21 125.862,-21"/>
<polygon fill="midnightblue" stroke="midnightblue" points="125.988,-24.5001 135.988,-21 125.988,-17.5001 125.988,-24.5001"/>
</g>
</g>
</svg>
