<?xml version="1.0" encoding="UTF-8" standalone="no"?>
<!DOCTYPE svg PUBLIC "-//W3C//DTD SVG 1.1//EN"
 "http://www.w3.org/Graphics/SVG/1.1/DTD/svg11.dtd">
<!-- Generated by graphviz version 2.40.1 (20161225.0304)
 -->
<!-- Title: sll_s_maxwell_spline_fem_sparsity_mixedmass_clamped Pages: 1 -->
<svg width="563pt" height="137pt"
 viewBox="0.00 0.00 563.00 137.00" xmlns="http://www.w3.org/2000/svg" xmlns:xlink="http://www.w3.org/1999/xlink">
<g id="graph0" class="graph" transform="scale(1 1) rotate(0) translate(4 133)">
<title>sll_s_maxwell_spline_fem_sparsity_mixedmass_clamped</title>
<polygon fill="#ffffff" stroke="transparent" points="-4,4 -4,-133 559,-133 559,4 -4,4"/>
<!-- Node55 -->
<g id="node1" class="node">
<title>Node55</title>
<polygon fill="#bfbfbf" stroke="#000000" points="0,-44 0,-85 148,-85 148,-44 0,-44"/>
<text text-anchor="start" x="8" y="-73" font-family="Helvetica,sans-Serif" font-size="10.00" fill="#000000">sll_s_maxwell_spline</text>
<text text-anchor="start" x="8" y="-62" font-family="Helvetica,sans-Serif" font-size="10.00" fill="#000000">_fem_sparsity_mixedmass</text>
<text text-anchor="middle" x="74" y="-51" font-family="Helvetica,sans-Serif" font-size="10.00" fill="#000000">_clamped</text>
</g>
<!-- Node56 -->
<g id="node2" class="node">
<title>Node56</title>
<g id="a_node2"><a xlink:href="namespacesll__m__spline__fem__utilities__sparse.html#a58ea8913e3f0590a3a20406f15b23c11" target="_top" xlink:title="Set up 1d mixed mass matrix for specific spline degrees and profile function. ">
<polygon fill="#ffffff" stroke="#000000" points="184,-49.5 184,-79.5 356,-79.5 356,-49.5 184,-49.5"/>
<text text-anchor="start" x="192" y="-67.5" font-family="Helvetica,sans-Serif" font-size="10.00" fill="#000000">sll_s_spline_fem_mixedmass1d</text>
<text text-anchor="middle" x="270" y="-56.5" font-family="Helvetica,sans-Serif" font-size="10.00" fill="#000000">_clamped_full</text>
</a>
</g>
</g>
<!-- Node55&#45;&gt;Node56 -->
<g id="edge1" class="edge">
<title>Node55&#45;&gt;Node56</title>
<path fill="none" stroke="#191970" d="M158.3561,-64.5C166.8357,-64.5 175.4544,-64.5 183.9513,-64.5"/>
<polygon fill="#191970" stroke="#191970" points="158.0992,-61.0001 148.0992,-64.5 158.0992,-68.0001 158.0992,-61.0001"/>
</g>
<!-- Node57 -->
<g id="node3" class="node">
<title>Node57</title>
<g id="a_node3"><a xlink:href="namespacesll__m__maxwell__clamped__1d__fem__sm.html#a400fe28b25203e207ad0786874c32912" target="_top" xlink:title="Initialization. ">
<polygon fill="#ffffff" stroke="#000000" points="392,-98.5 392,-128.5 555,-128.5 555,-98.5 392,-98.5"/>
<text text-anchor="start" x="400" y="-116.5" font-family="Helvetica,sans-Serif" font-size="10.00" fill="#000000">sll_m_maxwell_clamped</text>
<text text-anchor="middle" x="473.5" y="-105.5" font-family="Helvetica,sans-Serif" font-size="10.00" fill="#000000">_1d_fem_sm::init_1d_fem_sm</text>
</a>
</g>
</g>
<!-- Node56&#45;&gt;Node57 -->
<g id="edge2" class="edge">
<title>Node56&#45;&gt;Node57</title>
<path fill="none" stroke="#191970" d="M342.2792,-81.9038C364.7909,-87.3243 389.4089,-93.252 411.1784,-98.4938"/>
<polygon fill="#191970" stroke="#191970" points="342.9812,-78.4729 332.4397,-79.5346 341.3425,-85.2784 342.9812,-78.4729"/>
</g>
<!-- Node58 -->
<g id="node4" class="node">
<title>Node58</title>
<g id="a_node4"><a xlink:href="namespacesll__m__maxwell__clamped__1d__trafo.html#a800127433401043caf9d2b00dfa7e79f" target="_top" xlink:title="Initialization. ">
<polygon fill="#ffffff" stroke="#000000" points="405,-49.5 405,-79.5 542,-79.5 542,-49.5 405,-49.5"/>
<text text-anchor="start" x="413" y="-67.5" font-family="Helvetica,sans-Serif" font-size="10.00" fill="#000000">sll_m_maxwell_clamped</text>
<text text-anchor="middle" x="473.5" y="-56.5" font-family="Helvetica,sans-Serif" font-size="10.00" fill="#000000">_1d_trafo::init_1d_trafo</text>
</a>
</g>
</g>
<!-- Node56&#45;&gt;Node58 -->
<g id="edge3" class="edge">
<title>Node56&#45;&gt;Node58</title>
<path fill="none" stroke="#191970" d="M366.3615,-64.5C379.3235,-64.5 392.4025,-64.5 404.7538,-64.5"/>
<polygon fill="#191970" stroke="#191970" points="366.0074,-61.0001 356.0074,-64.5 366.0073,-68.0001 366.0074,-61.0001"/>
</g>
<!-- Node59 -->
<g id="node5" class="node">
<title>Node59</title>
<g id="a_node5"><a xlink:href="namespacesll__m__maxwell__clamped__3d__fem.html#afadba212d3f01a688b12c751068d1707" target="_top" xlink:title="Initialization. ">
<polygon fill="#ffffff" stroke="#000000" points="405,-.5 405,-30.5 542,-30.5 542,-.5 405,-.5"/>
<text text-anchor="start" x="413" y="-18.5" font-family="Helvetica,sans-Serif" font-size="10.00" fill="#000000">sll_m_maxwell_clamped</text>
<text text-anchor="middle" x="473.5" y="-7.5" font-family="Helvetica,sans-Serif" font-size="10.00" fill="#000000">_3d_fem::init_3d_fem</text>
</a>
</g>
</g>
<!-- Node56&#45;&gt;Node59 -->
<g id="edge4" class="edge">
<title>Node56&#45;&gt;Node59</title>
<path fill="none" stroke="#191970" d="M342.2792,-47.0962C364.7909,-41.6757 389.4089,-35.748 411.1784,-30.5062"/>
<polygon fill="#191970" stroke="#191970" points="341.3425,-43.7216 332.4397,-49.4654 342.9812,-50.5271 341.3425,-43.7216"/>
</g>
</g>
</svg>
