<?xml version="1.0" encoding="UTF-8" standalone="no"?>
<!DOCTYPE svg PUBLIC "-//W3C//DTD SVG 1.1//EN"
 "http://www.w3.org/Graphics/SVG/1.1/DTD/svg11.dtd">
<!-- Generated by graphviz version 2.40.1 (20161225.0304)
 -->
<!-- Title: sll_s_spline_pp_b_to_pp_1d_cell Pages: 1 -->
<svg width="428pt" height="137pt"
 viewBox="0.00 0.00 428.00 137.00" xmlns="http://www.w3.org/2000/svg" xmlns:xlink="http://www.w3.org/1999/xlink">
<g id="graph0" class="graph" transform="scale(1 1) rotate(0) translate(4 133)">
<title>sll_s_spline_pp_b_to_pp_1d_cell</title>
<polygon fill="#ffffff" stroke="transparent" points="-4,4 -4,-133 424,-133 424,4 -4,4"/>
<!-- Node26 -->
<g id="node1" class="node">
<title>Node26</title>
<polygon fill="#bfbfbf" stroke="#000000" points="0,-49.5 0,-79.5 116,-79.5 116,-49.5 0,-49.5"/>
<text text-anchor="start" x="8" y="-67.5" font-family="Helvetica,sans-Serif" font-size="10.00" fill="#000000">sll_s_spline_pp_b_to</text>
<text text-anchor="middle" x="58" y="-56.5" font-family="Helvetica,sans-Serif" font-size="10.00" fill="#000000">_pp_1d_cell</text>
</g>
<!-- Node27 -->
<g id="node2" class="node">
<title>Node27</title>
<g id="a_node2"><a xlink:href="namespacesll__m__splines__pp.html#a9375e3f69bc194b10b4c9973e590a428" target="_top" xlink:title="Convert 1d spline in B form to spline in pp form with periodic boundary conditions. ">
<polygon fill="#ffffff" stroke="#000000" points="152,-98.5 152,-128.5 268,-128.5 268,-98.5 152,-98.5"/>
<text text-anchor="start" x="160" y="-116.5" font-family="Helvetica,sans-Serif" font-size="10.00" fill="#000000">sll_s_spline_pp_b_to</text>
<text text-anchor="middle" x="210" y="-105.5" font-family="Helvetica,sans-Serif" font-size="10.00" fill="#000000">_pp_1d</text>
</a>
</g>
</g>
<!-- Node26&#45;&gt;Node27 -->
<g id="edge1" class="edge">
<title>Node26&#45;&gt;Node27</title>
<path fill="none" stroke="#191970" d="M114.6404,-82.7591C130.6723,-87.9273 147.9357,-93.4924 163.3094,-98.4484"/>
<polygon fill="#191970" stroke="#191970" points="115.4369,-79.3385 104.8453,-79.6014 113.2891,-86.0009 115.4369,-79.3385"/>
</g>
<!-- Node28 -->
<g id="node3" class="node">
<title>Node28</title>
<g id="a_node3"><a xlink:href="namespacesll__m__splines__pp.html#ab15fd73674029fed73d3aad115a5348e" target="_top" xlink:title="Convert 2d spline in B form in a cell to spline in pp form with periodic boundary conditions...">
<polygon fill="#ffffff" stroke="#000000" points="152,-49.5 152,-79.5 268,-79.5 268,-49.5 152,-49.5"/>
<text text-anchor="start" x="160" y="-67.5" font-family="Helvetica,sans-Serif" font-size="10.00" fill="#000000">sll_s_spline_pp_b_to</text>
<text text-anchor="middle" x="210" y="-56.5" font-family="Helvetica,sans-Serif" font-size="10.00" fill="#000000">_pp_2d_cell</text>
</a>
</g>
</g>
<!-- Node26&#45;&gt;Node28 -->
<g id="edge2" class="edge">
<title>Node26&#45;&gt;Node28</title>
<path fill="none" stroke="#191970" d="M126.5423,-64.5C134.9862,-64.5 143.5541,-64.5 151.8236,-64.5"/>
<polygon fill="#191970" stroke="#191970" points="126.3325,-61.0001 116.3325,-64.5 126.3324,-68.0001 126.3325,-61.0001"/>
</g>
<!-- Node30 -->
<g id="node5" class="node">
<title>Node30</title>
<g id="a_node5"><a xlink:href="namespacesll__m__splines__pp.html#a840a12d2e58e2e3fe29b1f1296b24e25" target="_top" xlink:title="Convert 3d spline in B form in a cell to spline in pp form with periodic boundary conditions...">
<polygon fill="#ffffff" stroke="#000000" points="152,-.5 152,-30.5 268,-30.5 268,-.5 152,-.5"/>
<text text-anchor="start" x="160" y="-18.5" font-family="Helvetica,sans-Serif" font-size="10.00" fill="#000000">sll_s_spline_pp_b_to</text>
<text text-anchor="middle" x="210" y="-7.5" font-family="Helvetica,sans-Serif" font-size="10.00" fill="#000000">_pp_3d_cell</text>
</a>
</g>
</g>
<!-- Node26&#45;&gt;Node30 -->
<g id="edge4" class="edge">
<title>Node26&#45;&gt;Node30</title>
<path fill="none" stroke="#191970" d="M114.6404,-46.2409C130.6723,-41.0727 147.9357,-35.5076 163.3094,-30.5516"/>
<polygon fill="#191970" stroke="#191970" points="113.2891,-42.9991 104.8453,-49.3986 115.4369,-49.6615 113.2891,-42.9991"/>
</g>
<!-- Node29 -->
<g id="node4" class="node">
<title>Node29</title>
<g id="a_node4"><a xlink:href="namespacesll__m__splines__pp.html#ad9b7b9b7852ac7873a01d8480d15819a" target="_top" xlink:title="Convert 2d spline in B form to spline in pp form with periodic boundary conditions. ">
<polygon fill="#ffffff" stroke="#000000" points="304,-49.5 304,-79.5 420,-79.5 420,-49.5 304,-49.5"/>
<text text-anchor="start" x="312" y="-67.5" font-family="Helvetica,sans-Serif" font-size="10.00" fill="#000000">sll_s_spline_pp_b_to</text>
<text text-anchor="middle" x="362" y="-56.5" font-family="Helvetica,sans-Serif" font-size="10.00" fill="#000000">_pp_2d</text>
</a>
</g>
</g>
<!-- Node28&#45;&gt;Node29 -->
<g id="edge3" class="edge">
<title>Node28&#45;&gt;Node29</title>
<path fill="none" stroke="#191970" d="M278.5423,-64.5C286.9862,-64.5 295.5541,-64.5 303.8236,-64.5"/>
<polygon fill="#191970" stroke="#191970" points="278.3325,-61.0001 268.3325,-64.5 278.3324,-68.0001 278.3325,-61.0001"/>
</g>
<!-- Node31 -->
<g id="node6" class="node">
<title>Node31</title>
<g id="a_node6"><a xlink:href="namespacesll__m__splines__pp.html#a3e49717b4c10582e60662adb7cfd24d2" target="_top" xlink:title="Convert 3d spline in B form to spline in pp form with periodic boundary conditions. ">
<polygon fill="#ffffff" stroke="#000000" points="304,-.5 304,-30.5 420,-30.5 420,-.5 304,-.5"/>
<text text-anchor="start" x="312" y="-18.5" font-family="Helvetica,sans-Serif" font-size="10.00" fill="#000000">sll_s_spline_pp_b_to</text>
<text text-anchor="middle" x="362" y="-7.5" font-family="Helvetica,sans-Serif" font-size="10.00" fill="#000000">_pp_3d</text>
</a>
</g>
</g>
<!-- Node30&#45;&gt;Node31 -->
<g id="edge5" class="edge">
<title>Node30&#45;&gt;Node31</title>
<path fill="none" stroke="#191970" d="M278.5423,-15.5C286.9862,-15.5 295.5541,-15.5 303.8236,-15.5"/>
<polygon fill="#191970" stroke="#191970" points="278.3325,-12.0001 268.3325,-15.5 278.3324,-19.0001 278.3325,-12.0001"/>
</g>
</g>
</svg>
