<?xml version="1.0" encoding="UTF-8" standalone="no"?>
<!DOCTYPE svg PUBLIC "-//W3C//DTD SVG 1.1//EN"
 "http://www.w3.org/Graphics/SVG/1.1/DTD/svg11.dtd">
<!-- Generated by graphviz version 2.38.0 (20140413.2041)
 -->
<!-- Title: sll_s_coordinate_transformation_2d_analytic_init Pages: 1 -->
<svg width="656pt" height="39pt"
 viewBox="0.00 0.00 656.00 39.00" xmlns="http://www.w3.org/2000/svg" xmlns:xlink="http://www.w3.org/1999/xlink">
<g id="graph0" class="graph" transform="scale(1 1) rotate(0) translate(4 35)">
<title>sll_s_coordinate_transformation_2d_analytic_init</title>
<polygon fill="white" stroke="none" points="-4,4 -4,-35 652,-35 652,4 -4,4"/>
<!-- Node1 -->
<g id="node1" class="node"><title>Node1</title>
<polygon fill="#bfbfbf" stroke="black" points="0,-0.5 0,-30.5 155,-30.5 155,-0.5 0,-0.5"/>
<text text-anchor="start" x="8" y="-18.5" font-family="Helvetica,sans-Serif" font-size="10.00">sll_s_coordinate_transformation</text>
<text text-anchor="middle" x="77.5" y="-7.5" font-family="Helvetica,sans-Serif" font-size="10.00">_2d_analytic_init</text>
</g>
<!-- Node2 -->
<g id="node2" class="node"><title>Node2</title>
<g id="a_node2"><a xlink:href="namespacesll__m__coordinate__transformations__2d.html#a2811f406fc1559ec2c7b88b8182baaf2" target="_top" xlink:title="Create the analytic coordinate transformation. ">
<polygon fill="white" stroke="black" points="191,-0.5 191,-30.5 330,-30.5 330,-0.5 191,-0.5"/>
<text text-anchor="start" x="199" y="-18.5" font-family="Helvetica,sans-Serif" font-size="10.00">sll_f_new_coordinate</text>
<text text-anchor="middle" x="260.5" y="-7.5" font-family="Helvetica,sans-Serif" font-size="10.00">_transformation_2d_analytic</text>
</a>
</g>
</g>
<!-- Node1&#45;&gt;Node2 -->
<g id="edge1" class="edge"><title>Node1&#45;&gt;Node2</title>
<path fill="none" stroke="midnightblue" d="M165.317,-15.5C173.918,-15.5 182.563,-15.5 190.941,-15.5"/>
<polygon fill="midnightblue" stroke="midnightblue" points="165.26,-12.0001 155.26,-15.5 165.26,-19.0001 165.26,-12.0001"/>
</g>
<!-- Node3 -->
<g id="node3" class="node"><title>Node3</title>
<g id="a_node3"><a xlink:href="namespacesll__m__dk__curv__mesh.html#a6f315071892ebb64818730a4f493262f" target="_top" xlink:title="select transformation ">
<polygon fill="white" stroke="black" points="366,-0.5 366,-30.5 482,-30.5 482,-0.5 366,-0.5"/>
<text text-anchor="start" x="374" y="-18.5" font-family="Helvetica,sans-Serif" font-size="10.00">sll_m_dk_curv_mesh</text>
<text text-anchor="middle" x="424" y="-7.5" font-family="Helvetica,sans-Serif" font-size="10.00">::select_transformation</text>
</a>
</g>
</g>
<!-- Node2&#45;&gt;Node3 -->
<g id="edge2" class="edge"><title>Node2&#45;&gt;Node3</title>
<path fill="none" stroke="midnightblue" d="M340.5,-15.5C349.084,-15.5 357.694,-15.5 365.942,-15.5"/>
<polygon fill="midnightblue" stroke="midnightblue" points="340.459,-12.0001 330.459,-15.5 340.459,-19.0001 340.459,-12.0001"/>
</g>
<!-- Node4 -->
<g id="node4" class="node"><title>Node4</title>
<g id="a_node4"><a xlink:href="namespacesll__m__dk__curv__mesh.html#a4c65d8244e6f18bd6fb5cff4c5c5ee74" target="_top" xlink:title="Initialize simulation from input file. ">
<polygon fill="white" stroke="black" points="518,-0.5 518,-30.5 648,-30.5 648,-0.5 518,-0.5"/>
<text text-anchor="start" x="526" y="-18.5" font-family="Helvetica,sans-Serif" font-size="10.00">sll_m_dk_curv_mesh</text>
<text text-anchor="middle" x="583" y="-7.5" font-family="Helvetica,sans-Serif" font-size="10.00">::sll_s_init_dk_curv_mesh</text>
</a>
</g>
</g>
<!-- Node3&#45;&gt;Node4 -->
<g id="edge3" class="edge"><title>Node3&#45;&gt;Node4</title>
<path fill="none" stroke="midnightblue" d="M492.302,-15.5C500.74,-15.5 509.353,-15.5 517.742,-15.5"/>
<polygon fill="midnightblue" stroke="midnightblue" points="492.125,-12.0001 482.125,-15.5 492.125,-19.0001 492.125,-12.0001"/>
</g>
</g>
</svg>
