<?xml version="1.0" encoding="UTF-8" standalone="no"?>
<!DOCTYPE svg PUBLIC "-//W3C//DTD SVG 1.1//EN"
 "http://www.w3.org/Graphics/SVG/1.1/DTD/svg11.dtd">
<!-- Generated by graphviz version 2.40.1 (20161225.0304)
 -->
<!-- Title: sll_s_solve_poisson_1d_hmf Pages: 1 -->
<svg width="259pt" height="88pt"
 viewBox="0.00 0.00 259.00 88.00" xmlns="http://www.w3.org/2000/svg" xmlns:xlink="http://www.w3.org/1999/xlink">
<g id="graph0" class="graph" transform="scale(1 1) rotate(0) translate(4 84)">
<title>sll_s_solve_poisson_1d_hmf</title>
<polygon fill="#ffffff" stroke="transparent" points="-4,4 -4,-84 255,-84 255,4 -4,4"/>
<!-- Node13 -->
<g id="node1" class="node">
<title>Node13</title>
<polygon fill="#bfbfbf" stroke="#000000" points="0,-24.5 0,-54.5 113,-54.5 113,-24.5 0,-24.5"/>
<text text-anchor="start" x="8" y="-42.5" font-family="Helvetica,sans-Serif" font-size="10.00" fill="#000000">sll_s_solve_poisson</text>
<text text-anchor="middle" x="56.5" y="-31.5" font-family="Helvetica,sans-Serif" font-size="10.00" fill="#000000">_1d_hmf</text>
</g>
<!-- Node14 -->
<g id="node2" class="node">
<title>Node14</title>
<g id="a_node2"><a xlink:href="namespacesll__m__fft.html#a07ee4cd52316d2769eee6c35861d1482" target="_top" xlink:title="Compute fast Fourier transform in real to complex mode. ">
<polygon fill="#ffffff" stroke="#000000" points="149,-49.5 149,-79.5 251,-79.5 251,-49.5 149,-49.5"/>
<text text-anchor="start" x="157" y="-67.5" font-family="Helvetica,sans-Serif" font-size="10.00" fill="#000000">sll_m_fft::sll_s_fft</text>
<text text-anchor="middle" x="200" y="-56.5" font-family="Helvetica,sans-Serif" font-size="10.00" fill="#000000">_exec_r2c_1d</text>
</a>
</g>
</g>
<!-- Node13&#45;&gt;Node14 -->
<g id="edge1" class="edge">
<title>Node13&#45;&gt;Node14</title>
<path fill="none" stroke="#191970" d="M113.215,-49.3807C121.6612,-50.8521 130.3984,-52.3743 138.9295,-53.8605"/>
<polygon fill="#191970" stroke="#191970" points="138.3676,-57.3153 148.8199,-55.5836 139.569,-50.4192 138.3676,-57.3153"/>
</g>
<!-- Node15 -->
<g id="node3" class="node">
<title>Node15</title>
<g id="a_node3"><a xlink:href="namespacesll__m__fft.html#a293ae19515b20fa6d456ef2c52f99b23" target="_top" xlink:title="Compute fast Fourier transform in complex to real mode. ">
<polygon fill="#ffffff" stroke="#000000" points="149,-.5 149,-30.5 251,-30.5 251,-.5 149,-.5"/>
<text text-anchor="start" x="157" y="-18.5" font-family="Helvetica,sans-Serif" font-size="10.00" fill="#000000">sll_m_fft::sll_s_fft</text>
<text text-anchor="middle" x="200" y="-7.5" font-family="Helvetica,sans-Serif" font-size="10.00" fill="#000000">_exec_c2r_1d</text>
</a>
</g>
</g>
<!-- Node13&#45;&gt;Node15 -->
<g id="edge2" class="edge">
<title>Node13&#45;&gt;Node15</title>
<path fill="none" stroke="#191970" d="M113.215,-30.0146C121.6612,-28.602 130.3984,-27.1407 138.9295,-25.7139"/>
<polygon fill="#191970" stroke="#191970" points="139.5343,-29.1614 148.8199,-24.0597 138.3795,-22.2573 139.5343,-29.1614"/>
</g>
</g>
</svg>
