<?xml version="1.0" encoding="UTF-8" standalone="no"?>
<!DOCTYPE svg PUBLIC "-//W3C//DTD SVG 1.1//EN"
 "http://www.w3.org/Graphics/SVG/1.1/DTD/svg11.dtd">
<!-- Generated by graphviz version 2.40.1 (20161225.0304)
 -->
<!-- Title: sll_f_new_charge_accumulator_2d_cs Pages: 1 -->
<svg width="530pt" height="39pt"
 viewBox="0.00 0.00 530.00 39.00" xmlns="http://www.w3.org/2000/svg" xmlns:xlink="http://www.w3.org/1999/xlink">
<g id="graph0" class="graph" transform="scale(1 1) rotate(0) translate(4 35)">
<title>sll_f_new_charge_accumulator_2d_cs</title>
<polygon fill="#ffffff" stroke="transparent" points="-4,4 -4,-35 526,-35 526,4 -4,4"/>
<!-- Node12 -->
<g id="node1" class="node">
<title>Node12</title>
<polygon fill="#bfbfbf" stroke="#000000" points="0,-.5 0,-30.5 167,-30.5 167,-.5 0,-.5"/>
<text text-anchor="start" x="8" y="-18.5" font-family="Helvetica,sans-Serif" font-size="10.00" fill="#000000">sll_f_new_charge_accumulator</text>
<text text-anchor="middle" x="83.5" y="-7.5" font-family="Helvetica,sans-Serif" font-size="10.00" fill="#000000">_2d_cs</text>
</g>
<!-- Node13 -->
<g id="node2" class="node">
<title>Node13</title>
<g id="a_node2"><a xlink:href="namespacesll__m__accumulators.html#a9a600b96420930d3c71303a37be2f570" target="_top" xlink:title="sll_s_charge_accumulator\l_2d_cs_init">
<polygon fill="#ffffff" stroke="#000000" points="203,-.5 203,-30.5 346,-30.5 346,-.5 203,-.5"/>
<text text-anchor="start" x="211" y="-18.5" font-family="Helvetica,sans-Serif" font-size="10.00" fill="#000000">sll_s_charge_accumulator</text>
<text text-anchor="middle" x="274.5" y="-7.5" font-family="Helvetica,sans-Serif" font-size="10.00" fill="#000000">_2d_cs_init</text>
</a>
</g>
</g>
<!-- Node12&#45;&gt;Node13 -->
<g id="edge1" class="edge">
<title>Node12&#45;&gt;Node13</title>
<path fill="none" stroke="#191970" d="M167.2754,-15.5C175.684,-15.5 184.2157,-15.5 192.6045,-15.5"/>
<polygon fill="#191970" stroke="#191970" points="192.7482,-19.0001 202.7481,-15.5 192.7481,-12.0001 192.7482,-19.0001"/>
</g>
<!-- Node14 -->
<g id="node3" class="node">
<title>Node14</title>
<g id="a_node3"><a xlink:href="namespacesll__m__accumulators.html#adf93368128e5071d9ff67012f8d4e14c" target="_top" xlink:title="sll_s_reset_charge\l_accumulator_to_zero_cs">
<polygon fill="#ffffff" stroke="#000000" points="382,-.5 382,-30.5 522,-30.5 522,-.5 382,-.5"/>
<text text-anchor="start" x="390" y="-18.5" font-family="Helvetica,sans-Serif" font-size="10.00" fill="#000000">sll_s_reset_charge</text>
<text text-anchor="middle" x="452" y="-7.5" font-family="Helvetica,sans-Serif" font-size="10.00" fill="#000000">_accumulator_to_zero_cs</text>
</a>
</g>
</g>
<!-- Node13&#45;&gt;Node14 -->
<g id="edge2" class="edge">
<title>Node13&#45;&gt;Node14</title>
<path fill="none" stroke="#191970" d="M346.1844,-15.5C354.5297,-15.5 363.0841,-15.5 371.5375,-15.5"/>
<polygon fill="#191970" stroke="#191970" points="371.7776,-19.0001 381.7776,-15.5 371.7776,-12.0001 371.7776,-19.0001"/>
</g>
</g>
</svg>
