<?xml version="1.0" encoding="UTF-8" standalone="no"?>
<!DOCTYPE svg PUBLIC "-//W3C//DTD SVG 1.1//EN"
 "http://www.w3.org/Graphics/SVG/1.1/DTD/svg11.dtd">
<!-- Generated by graphviz version 2.43.0 (0)
 -->
<!-- Title: sll_f_gauss_lobatto_points Pages: 1 -->
<!--zoomable 389 -->
<svg id="main" version="1.1" xmlns="http://www.w3.org/2000/svg" xmlns:xlink="http://www.w3.org/1999/xlink" xml:space="preserve" onload="init(evt)">
<style type="text/css"><![CDATA[
.edge:hover path { stroke: red; }
.edge:hover polygon { stroke: red; fill: red; }
]]></style>
<script type="text/javascript"><![CDATA[
var edges = document.getElementsByTagName('g');
if (edges && edges.length) {
  for (var i=0;i<edges.length;i++) {
    if (edges[i].id.substr(0,4)=='edge') {
      edges[i].setAttribute('class','edge');
    }
  }
}
]]></script>
        <defs>
                <circle id="rim" cx="0" cy="0" r="7"/>
                <circle id="rim2" cx="0" cy="0" r="3.5"/>
                <g id="zoomPlus">
                        <use xlink:href="#rim" fill="#404040">
                                <set attributeName="fill" to="#808080" begin="zoomplus.mouseover" end="zoomplus.mouseout"/>
                        </use>
                        <path d="M-4,0h8M0,-4v8" fill="none" stroke="white" stroke-width="1.5" pointer-events="none"/>
                </g>
                <g id="zoomMin">
                        <use xlink:href="#rim" fill="#404040">
                                <set attributeName="fill" to="#808080" begin="zoomminus.mouseover" end="zoomminus.mouseout"/>
                        </use>
                        <path d="M-4,0h8" fill="none" stroke="white" stroke-width="1.5" pointer-events="none"/>
                </g>
                <g id="dirArrow">
                        <path fill="none" stroke="white" stroke-width="1.5" d="M0,-3.0v7 M-2.5,-0.5L0,-3.0L2.5,-0.5"/>
                </g>
               <g id="resetDef">
                       <use xlink:href="#rim2" fill="#404040">
                               <set attributeName="fill" to="#808080" begin="reset.mouseover" end="reset.mouseout"/>
                       </use>
               </g>
        </defs>

<script type="text/javascript">
var viewWidth = 739;
var viewHeight = 389;
var sectionId = 'dynsection-7';
</script>
<script xlink:href="svgpan.js"/>
<svg id="graph" class="graph">
<g id="viewport">
<title>sll_f_gauss_lobatto_points</title>
<polygon fill="white" stroke="transparent" points="-4,4 -4,-384.5 735,-384.5 735,4 -4,4"/>
<!-- Node1 -->
<g id="node1" class="node">
<title>Node1</title>
<g id="a_node1"><a xlink:title="Returns a 1d array of size (n) containing gauss&#45;lobatto points in the interval [a,...">
<polygon fill="#bfbfbf" stroke="black" points="621,-188 621,-218 731,-218 731,-188 621,-188"/>
<text text-anchor="start" x="629" y="-206" font-family="Helvetica,sans-Serif" font-size="10.00">sll_f_gauss_lobatto</text>
<text text-anchor="middle" x="676" y="-195" font-family="Helvetica,sans-Serif" font-size="10.00">_points</text>
</a>
</g>
</g>
<!-- Node2 -->
<g id="node2" class="node">
<title>Node2</title>
<g id="a_node2"><a xlink:href="namespacesll__m__maxwell__2d__diga.html#aaf2e3de1e3a109d93be64114e8abeb03" target="_top" xlink:title="Compute cell normals.">
<polygon fill="white" stroke="black" points="442,-350 442,-380 576,-380 576,-350 442,-350"/>
<text text-anchor="start" x="450" y="-368" font-family="Helvetica,sans-Serif" font-size="10.00">sll_m_maxwell_2d_diga</text>
<text text-anchor="middle" x="509" y="-357" font-family="Helvetica,sans-Serif" font-size="10.00">::compute_normals</text>
</a>
</g>
</g>
<!-- Node1&#45;&gt;Node2 -->
<g id="edge1" class="edge">
<title>Node1&#45;&gt;Node2</title>
<path fill="none" stroke="midnightblue" d="M663.98,-227.33C649.62,-256.56 621.92,-305.36 585,-335 577.56,-340.97 568.79,-345.88 559.9,-349.88"/>
<polygon fill="midnightblue" stroke="midnightblue" points="667.18,-228.75 668.33,-218.22 660.86,-225.73 667.18,-228.75"/>
</g>
<!-- Node3 -->
<g id="node3" class="node">
<title>Node3</title>
<g id="a_node3"><a xlink:href="namespacesll__m__maxwell__2d__diga.html#aea7962198b6305c1256087d5a9e5c8fe" target="_top" xlink:title="Initialize Maxwell solver object using DG method.">
<polygon fill="white" stroke="black" points="218,-284 218,-314 374,-314 374,-284 218,-284"/>
<text text-anchor="start" x="226" y="-302" font-family="Helvetica,sans-Serif" font-size="10.00">sll_m_maxwell_2d_diga</text>
<text text-anchor="middle" x="296" y="-291" font-family="Helvetica,sans-Serif" font-size="10.00">::sll_s_maxwell_2d_diga_init</text>
</a>
</g>
</g>
<!-- Node1&#45;&gt;Node3 -->
<g id="edge16" class="edge">
<title>Node1&#45;&gt;Node3</title>
<path fill="none" stroke="midnightblue" d="M661.5,-226.96C646.4,-251.06 619.47,-286.75 585,-302 512.75,-333.96 419.98,-325.33 359.54,-314.03"/>
<polygon fill="midnightblue" stroke="midnightblue" points="664.52,-228.73 666.7,-218.36 658.53,-225.11 664.52,-228.73"/>
</g>
<!-- Node5 -->
<g id="node5" class="node">
<title>Node5</title>
<g id="a_node5"><a xlink:href="namespacesll__m__gauss__lobatto__integration.html#a094e30fa9676b7845eb9d5bb58451496" target="_top" xlink:title="Construction of the derivative matrix for Gauss&#45;Lobatto, The matrix must be already allocated of size...">
<polygon fill="white" stroke="black" points="454,-262 454,-292 564,-292 564,-262 454,-262"/>
<text text-anchor="start" x="462" y="-280" font-family="Helvetica,sans-Serif" font-size="10.00">sll_f_gauss_lobatto</text>
<text text-anchor="middle" x="509" y="-269" font-family="Helvetica,sans-Serif" font-size="10.00">_derivative_matrix</text>
</a>
</g>
</g>
<!-- Node1&#45;&gt;Node5 -->
<g id="edge4" class="edge">
<title>Node1&#45;&gt;Node5</title>
<path fill="none" stroke="midnightblue" d="M642.02,-223.38C625.33,-233.16 604.52,-244.55 585,-253 577.6,-256.2 569.62,-259.2 561.73,-261.93"/>
<polygon fill="midnightblue" stroke="midnightblue" points="644.03,-226.26 650.83,-218.15 640.45,-220.24 644.03,-226.26"/>
</g>
<!-- Node6 -->
<g id="node6" class="node">
<title>Node6</title>
<g id="a_node6"><a xlink:href="namespacesll__m__gauss__lobatto__integration.html#abde325bec9e6c51c78f56ecc3bb075d5" target="_top" xlink:title="Returns a 2d array of size (2,n) containing gauss&#45;lobatto points and weights in the interval [a,...">
<polygon fill="white" stroke="black" points="449.5,-66 449.5,-96 568.5,-96 568.5,-66 449.5,-66"/>
<text text-anchor="start" x="457.5" y="-84" font-family="Helvetica,sans-Serif" font-size="10.00">sll_f_gauss_lobatto</text>
<text text-anchor="middle" x="509" y="-73" font-family="Helvetica,sans-Serif" font-size="10.00">_points_and_weights</text>
</a>
</g>
</g>
<!-- Node1&#45;&gt;Node6 -->
<g id="edge6" class="edge">
<title>Node1&#45;&gt;Node6</title>
<path fill="none" stroke="midnightblue" d="M658.95,-179.89C642.65,-158.01 615.52,-125.66 585,-106 579.12,-102.21 572.6,-98.94 565.94,-96.13"/>
<polygon fill="midnightblue" stroke="midnightblue" points="656.14,-181.97 664.85,-188 661.8,-177.85 656.14,-181.97"/>
</g>
<!-- Node11 -->
<g id="node11" class="node">
<title>Node11</title>
<g id="a_node11"><a xlink:href="namespacesll__m__dg__fields.html#afd907112b47b1a216f2bc3af0bdc9e44" target="_top" xlink:title=" ">
<polygon fill="white" stroke="black" points="453,-164 453,-194 565,-194 565,-164 453,-164"/>
<text text-anchor="start" x="461" y="-182" font-family="Helvetica,sans-Serif" font-size="10.00">sll_m_dg_fields::sll</text>
<text text-anchor="middle" x="509" y="-171" font-family="Helvetica,sans-Serif" font-size="10.00">_f_new_dg_field_2d</text>
</a>
</g>
</g>
<!-- Node1&#45;&gt;Node11 -->
<g id="edge11" class="edge">
<title>Node1&#45;&gt;Node11</title>
<path fill="none" stroke="midnightblue" d="M610.74,-193.65C595.73,-191.47 579.86,-189.16 565.28,-187.04"/>
<polygon fill="midnightblue" stroke="midnightblue" points="610.57,-197.17 620.97,-195.14 611.58,-190.24 610.57,-197.17"/>
</g>
<!-- Node12 -->
<g id="node12" class="node">
<title>Node12</title>
<g id="a_node12"><a xlink:href="namespacesll__m__gyroaverage__utilities.html#ace9ca74c71712dea32a595db9b2585fa" target="_top" xlink:title=" ">
<polygon fill="white" stroke="black" points="433,-115 433,-145 585,-145 585,-115 433,-115"/>
<text text-anchor="start" x="441" y="-133" font-family="Helvetica,sans-Serif" font-size="10.00">sll_m_gyroaverage_utilities</text>
<text text-anchor="middle" x="509" y="-122" font-family="Helvetica,sans-Serif" font-size="10.00">::sll_s_compute_mu</text>
</a>
</g>
</g>
<!-- Node1&#45;&gt;Node12 -->
<g id="edge12" class="edge">
<title>Node1&#45;&gt;Node12</title>
<path fill="none" stroke="midnightblue" d="M640.81,-183.02C624.27,-173.81 603.94,-163.14 585,-155 576.8,-151.48 567.93,-148.13 559.26,-145.1"/>
<polygon fill="midnightblue" stroke="midnightblue" points="639.14,-186.09 649.57,-187.96 642.58,-180 639.14,-186.09"/>
</g>
<!-- Node13 -->
<g id="node13" class="node">
<title>Node13</title>
<g id="a_node13"><a xlink:href="namespacesll__m__dg__fields.html#a66ffd9f6cf3e20a707f967e4cb457d30" target="_top" xlink:title=" ">
<polygon fill="white" stroke="black" points="454.5,-213 454.5,-243 563.5,-243 563.5,-213 454.5,-213"/>
<text text-anchor="start" x="462.5" y="-231" font-family="Helvetica,sans-Serif" font-size="10.00">sll_m_dg_fields::sll</text>
<text text-anchor="middle" x="509" y="-220" font-family="Helvetica,sans-Serif" font-size="10.00">_s_dg_field_2d_init</text>
</a>
</g>
</g>
<!-- Node1&#45;&gt;Node13 -->
<g id="edge13" class="edge">
<title>Node1&#45;&gt;Node13</title>
<path fill="none" stroke="midnightblue" d="M610.86,-212.72C595.23,-215.09 578.67,-217.6 563.59,-219.88"/>
<polygon fill="midnightblue" stroke="midnightblue" points="611.61,-216.14 620.97,-211.19 610.56,-209.22 611.61,-216.14"/>
</g>
<!-- Node14 -->
<g id="node14" class="node">
<title>Node14</title>
<g id="a_node14"><a xlink:href="namespacesll__m__dg__interpolator__1d.html#aab53d5893320fe81960e78fc061d7239" target="_top" xlink:title=" ">
<polygon fill="white" stroke="black" points="438.5,-5.5 438.5,-46.5 579.5,-46.5 579.5,-5.5 438.5,-5.5"/>
<text text-anchor="start" x="446.5" y="-34.5" font-family="Helvetica,sans-Serif" font-size="10.00">sll_m_dg_interpolator</text>
<text text-anchor="start" x="446.5" y="-23.5" font-family="Helvetica,sans-Serif" font-size="10.00">_1d::sll_s_dg_interpolator</text>
<text text-anchor="middle" x="509" y="-12.5" font-family="Helvetica,sans-Serif" font-size="10.00">_1d_init</text>
</a>
</g>
</g>
<!-- Node1&#45;&gt;Node14 -->
<g id="edge15" class="edge">
<title>Node1&#45;&gt;Node14</title>
<path fill="none" stroke="midnightblue" d="M665.39,-178.08C651.9,-146.06 624.49,-90.61 585,-57 580.39,-53.07 575.21,-49.59 569.78,-46.51"/>
<polygon fill="midnightblue" stroke="midnightblue" points="662.26,-179.66 669.28,-187.59 668.74,-177.01 662.26,-179.66"/>
</g>
<!-- Node2&#45;&gt;Node3 -->
<g id="edge2" class="edge">
<title>Node2&#45;&gt;Node3</title>
<path fill="none" stroke="midnightblue" d="M449.92,-346.83C417.05,-336.55 376.42,-323.84 345.3,-314.11"/>
<polygon fill="midnightblue" stroke="midnightblue" points="449.27,-350.3 459.86,-349.94 451.36,-343.62 449.27,-350.3"/>
</g>
<!-- Node4 -->
<g id="node4" class="node">
<title>Node4</title>
<g id="a_node4"><a xlink:href="namespacesll__m__maxwell__2d__diga.html#a757b8a57dde51f462e899778a250a81d" target="_top" xlink:title=" ">
<polygon fill="white" stroke="black" points="0,-284 0,-314 159,-314 159,-284 0,-284"/>
<text text-anchor="start" x="8" y="-302" font-family="Helvetica,sans-Serif" font-size="10.00">sll_m_maxwell_2d_diga</text>
<text text-anchor="middle" x="79.5" y="-291" font-family="Helvetica,sans-Serif" font-size="10.00">::sll_f_new_maxwell_2d_diga</text>
</a>
</g>
</g>
<!-- Node3&#45;&gt;Node4 -->
<g id="edge3" class="edge">
<title>Node3&#45;&gt;Node4</title>
<path fill="none" stroke="midnightblue" d="M207.45,-299C191.45,-299 174.84,-299 159.12,-299"/>
<polygon fill="midnightblue" stroke="midnightblue" points="207.86,-302.5 217.86,-299 207.86,-295.5 207.86,-302.5"/>
</g>
<!-- Node5&#45;&gt;Node3 -->
<g id="edge5" class="edge">
<title>Node5&#45;&gt;Node3</title>
<path fill="none" stroke="midnightblue" d="M443.77,-283.7C421.89,-285.98 397.2,-288.55 374.4,-290.93"/>
<polygon fill="midnightblue" stroke="midnightblue" points="444.35,-287.16 453.94,-282.64 443.63,-280.19 444.35,-287.16"/>
</g>
<!-- Node7 -->
<g id="node7" class="node">
<title>Node7</title>
<g id="a_node7"><a xlink:href="namespacesll__m__general__coordinate__elliptic__solver.html#a6a5dd9c906ada7725f3e185423b28f82" target="_top" xlink:title="Initialization for elliptic solver.">
<polygon fill="white" stroke="black" points="225,-60.5 225,-101.5 367,-101.5 367,-60.5 225,-60.5"/>
<text text-anchor="start" x="233" y="-89.5" font-family="Helvetica,sans-Serif" font-size="10.00">sll_m_general_coordinate</text>
<text text-anchor="start" x="233" y="-78.5" font-family="Helvetica,sans-Serif" font-size="10.00">_elliptic_solver::initialize</text>
<text text-anchor="middle" x="296" y="-67.5" font-family="Helvetica,sans-Serif" font-size="10.00">_general_elliptic_solver</text>
</a>
</g>
</g>
<!-- Node6&#45;&gt;Node7 -->
<g id="edge7" class="edge">
<title>Node6&#45;&gt;Node7</title>
<path fill="none" stroke="midnightblue" d="M439.16,-81C416.05,-81 390.26,-81 367.06,-81"/>
<polygon fill="midnightblue" stroke="midnightblue" points="439.22,-84.5 449.22,-81 439.22,-77.5 439.22,-84.5"/>
</g>
<!-- Node8 -->
<g id="node8" class="node">
<title>Node8</title>
<g id="a_node8"><a xlink:href="namespacesll__m__general__coordinate__elliptic__solver__multipatch.html#ae9b2728b7fc567b24d783dc03390c489" target="_top" xlink:title="Initialization for elleptic solver multipatch.">
<polygon fill="white" stroke="black" points="195,-0.5 195,-41.5 397,-41.5 397,-0.5 195,-0.5"/>
<text text-anchor="start" x="203" y="-29.5" font-family="Helvetica,sans-Serif" font-size="10.00">sll_m_general_coordinate</text>
<text text-anchor="start" x="203" y="-18.5" font-family="Helvetica,sans-Serif" font-size="10.00">_elliptic_solver_multipatch</text>
<text text-anchor="middle" x="296" y="-7.5" font-family="Helvetica,sans-Serif" font-size="10.00">::sll_s_general_elliptic_solver_mp_init</text>
</a>
</g>
</g>
<!-- Node6&#45;&gt;Node8 -->
<g id="edge8" class="edge">
<title>Node6&#45;&gt;Node8</title>
<path fill="none" stroke="midnightblue" d="M445.35,-63.18C421.4,-56.37 393.9,-48.55 369.13,-41.51"/>
<polygon fill="midnightblue" stroke="midnightblue" points="444.45,-66.57 455.03,-65.94 446.37,-59.84 444.45,-66.57"/>
</g>
<!-- Node9 -->
<g id="node9" class="node">
<title>Node9</title>
<g id="a_node9"><a xlink:href="namespacesll__m__general__coordinate__elliptic__solver.html#a1530444505e15898adb13de4fd54458c" target="_top" xlink:title=" ">
<polygon fill="white" stroke="black" points="225,-121 225,-173 367,-173 367,-121 225,-121"/>
<text text-anchor="start" x="233" y="-161" font-family="Helvetica,sans-Serif" font-size="10.00">sll_m_general_coordinate</text>
<text text-anchor="start" x="233" y="-150" font-family="Helvetica,sans-Serif" font-size="10.00">_elliptic_solver::sll_s</text>
<text text-anchor="start" x="233" y="-139" font-family="Helvetica,sans-Serif" font-size="10.00">_general_elliptic_solver</text>
<text text-anchor="middle" x="296" y="-128" font-family="Helvetica,sans-Serif" font-size="10.00">_prototype_init</text>
</a>
</g>
</g>
<!-- Node6&#45;&gt;Node9 -->
<g id="edge9" class="edge">
<title>Node6&#45;&gt;Node9</title>
<path fill="none" stroke="midnightblue" d="M450.29,-99.05C424.67,-107.07 394.28,-116.57 367.35,-124.99"/>
<polygon fill="midnightblue" stroke="midnightblue" points="451.36,-102.38 459.86,-96.06 449.27,-95.7 451.36,-102.38"/>
</g>
<!-- Node10 -->
<g id="node10" class="node">
<title>Node10</title>
<g id="a_node10"><a xlink:href="namespacesll__m__general__coordinate__elliptic__solver.html#a1019a5ae673b7ffeca510a34500c59b5" target="_top" xlink:title=" ">
<polygon fill="white" stroke="black" points="0.5,-121 0.5,-173 158.5,-173 158.5,-121 0.5,-121"/>
<text text-anchor="start" x="8.5" y="-161" font-family="Helvetica,sans-Serif" font-size="10.00">sll_m_general_coordinate</text>
<text text-anchor="start" x="8.5" y="-150" font-family="Helvetica,sans-Serif" font-size="10.00">_elliptic_solver::sll_f</text>
<text text-anchor="start" x="8.5" y="-139" font-family="Helvetica,sans-Serif" font-size="10.00">_new_general_elliptic_solver</text>
<text text-anchor="middle" x="79.5" y="-128" font-family="Helvetica,sans-Serif" font-size="10.00">_prototype</text>
</a>
</g>
</g>
<!-- Node9&#45;&gt;Node10 -->
<g id="edge10" class="edge">
<title>Node9&#45;&gt;Node10</title>
<path fill="none" stroke="midnightblue" d="M214.71,-147C196.38,-147 176.93,-147 158.68,-147"/>
<polygon fill="midnightblue" stroke="midnightblue" points="214.76,-150.5 224.76,-147 214.76,-143.5 214.76,-150.5"/>
</g>
<!-- Node13&#45;&gt;Node3 -->
<g id="edge14" class="edge">
<title>Node13&#45;&gt;Node3</title>
<path fill="none" stroke="midnightblue" d="M452.99,-246.31C446.25,-248.56 439.47,-250.83 433,-253 402.4,-263.27 367.96,-274.93 341.39,-283.93"/>
<polygon fill="midnightblue" stroke="midnightblue" points="454.4,-249.53 462.78,-243.04 452.18,-242.89 454.4,-249.53"/>
</g>
</g>
</svg>
        <g id="navigator" transform="translate(0 0)" fill="#404254">
                <rect fill="#f2f5e9" fill-opacity="0.5" stroke="#606060" stroke-width=".5" x="0" y="0" width="60" height="60"/>
                <use id="zoomplus" xlink:href="#zoomPlus" x="17" y="9" onmousedown="handleZoom(evt,'in')"/>
                <use id="zoomminus" xlink:href="#zoomMin" x="42" y="9" onmousedown="handleZoom(evt,'out')"/>
                <use id="reset" xlink:href="#resetDef" x="30" y="36" onmousedown="handleReset()"/>
                <g id="arrowUp" xlink:href="#dirArrow" transform="translate(30 24)" onmousedown="handlePan(0,-1)">
                  <use xlink:href="#rim" fill="#404040">
                        <set attributeName="fill" to="#808080" begin="arrowUp.mouseover" end="arrowUp.mouseout"/>
                  </use>
                  <path fill="none" stroke="white" stroke-width="1.5" d="M0,-3.0v7 M-2.5,-0.5L0,-3.0L2.5,-0.5"/>
                </g>
                <g id="arrowRight" xlink:href="#dirArrow" transform="rotate(90) translate(36 -43)" onmousedown="handlePan(1,0)">
                  <use xlink:href="#rim" fill="#404040">
                        <set attributeName="fill" to="#808080" begin="arrowRight.mouseover" end="arrowRight.mouseout"/>
                  </use>
                  <path fill="none" stroke="white" stroke-width="1.5" d="M0,-3.0v7 M-2.5,-0.5L0,-3.0L2.5,-0.5"/>
                </g>
                <g id="arrowDown" xlink:href="#dirArrow" transform="rotate(180) translate(-30 -48)" onmousedown="handlePan(0,1)">
                  <use xlink:href="#rim" fill="#404040">
                        <set attributeName="fill" to="#808080" begin="arrowDown.mouseover" end="arrowDown.mouseout"/>
                  </use>
                  <path fill="none" stroke="white" stroke-width="1.5" d="M0,-3.0v7 M-2.5,-0.5L0,-3.0L2.5,-0.5"/>
                </g>
                <g id="arrowLeft" xlink:href="#dirArrow" transform="rotate(270) translate(-36 17)" onmousedown="handlePan(-1,0)">
                  <use xlink:href="#rim" fill="#404040">
                        <set attributeName="fill" to="#808080" begin="arrowLeft.mouseover" end="arrowLeft.mouseout"/>
                  </use>
                  <path fill="none" stroke="white" stroke-width="1.5" d="M0,-3.0v7 M-2.5,-0.5L0,-3.0L2.5,-0.5"/>
                </g>
        </g>
        <svg viewBox="0 0 15 15" width="100%" height="30px" preserveAspectRatio="xMaxYMin meet">
         <g id="arrow_out" transform="scale(0.3 0.3)">
          <a xlink:href="namespacesll__m__gauss__lobatto__integration_a43443dd7dd80f1289d964b572cd6ee2c_icgraph_org.svg" target="_base">
           <rect id="button" ry="5" rx="5" y="6" x="6" height="38" width="38"
                fill="#f2f5e9" fill-opacity="0.5" stroke="#606060" stroke-width="1.0"/>
           <path id="arrow"
             d="M 11.500037,31.436501 C 11.940474,20.09759 22.043105,11.32322 32.158766,21.979434 L 37.068811,17.246167 C 37.068811,17.246167 37.088388,32 37.088388,32 L 22.160133,31.978069 C 22.160133,31.978069 26.997745,27.140456 26.997745,27.140456 C 18.528582,18.264221 13.291696,25.230495 11.500037,31.436501 z"
             style="fill:#404040;"/>
          </a>
         </g>
        </svg>
</svg>
