<?xml version="1.0" encoding="UTF-8" standalone="no"?>
<!DOCTYPE svg PUBLIC "-//W3C//DTD SVG 1.1//EN"
 "http://www.w3.org/Graphics/SVG/1.1/DTD/svg11.dtd">
<!-- Generated by graphviz version 2.43.0 (0)
 -->
<!-- Title: add_current_cl_3d Pages: 1 -->
<!--zoomable 94 -->
<svg id="main" version="1.1" xmlns="http://www.w3.org/2000/svg" xmlns:xlink="http://www.w3.org/1999/xlink" xml:space="preserve" onload="init(evt)">
<style type="text/css"><![CDATA[
.edge:hover path { stroke: red; }
.edge:hover polygon { stroke: red; fill: red; }
]]></style>
<script type="text/javascript"><![CDATA[
var edges = document.getElementsByTagName('g');
if (edges && edges.length) {
  for (var i=0;i<edges.length;i++) {
    if (edges[i].id.substr(0,4)=='edge') {
      edges[i].setAttribute('class','edge');
    }
  }
}
]]></script>
        <defs>
                <circle id="rim" cx="0" cy="0" r="7"/>
                <circle id="rim2" cx="0" cy="0" r="3.5"/>
                <g id="zoomPlus">
                        <use xlink:href="#rim" fill="#404040">
                                <set attributeName="fill" to="#808080" begin="zoomplus.mouseover" end="zoomplus.mouseout"/>
                        </use>
                        <path d="M-4,0h8M0,-4v8" fill="none" stroke="white" stroke-width="1.5" pointer-events="none"/>
                </g>
                <g id="zoomMin">
                        <use xlink:href="#rim" fill="#404040">
                                <set attributeName="fill" to="#808080" begin="zoomminus.mouseover" end="zoomminus.mouseout"/>
                        </use>
                        <path d="M-4,0h8" fill="none" stroke="white" stroke-width="1.5" pointer-events="none"/>
                </g>
                <g id="dirArrow">
                        <path fill="none" stroke="white" stroke-width="1.5" d="M0,-3.0v7 M-2.5,-0.5L0,-3.0L2.5,-0.5"/>
                </g>
               <g id="resetDef">
                       <use xlink:href="#rim2" fill="#404040">
                               <set attributeName="fill" to="#808080" begin="reset.mouseover" end="reset.mouseout"/>
                       </use>
               </g>
        </defs>

<script type="text/javascript">
var viewWidth = 606;
var viewHeight = 94;
var sectionId = 'dynsection-3';
</script>
<script xlink:href="svgpan.js"/>
<svg id="graph" class="graph">
<g id="viewport">
<title>add_current_cl_3d</title>
<polygon fill="white" stroke="transparent" points="-4,4 -4,-89.5 602,-89.5 602,4 -4,4"/>
<!-- Node1 -->
<g id="node1" class="node">
<title>Node1</title>
<g id="a_node1"><a xlink:title="Add current with integration over x.">
<polygon fill="#bfbfbf" stroke="black" points="0,-47 0,-66 105,-66 105,-47 0,-47"/>
<text text-anchor="middle" x="52.5" y="-54" font-family="Helvetica,sans-Serif" font-size="10.00">add_current_cl_3d</text>
</a>
</g>
</g>
<!-- Node2 -->
<g id="node2" class="node">
<title>Node2</title>
<g id="a_node2"><a xlink:href="namespacesll__m__particle__mesh__coupling__spline__cl__3d__feec.html#a2a502a1a64b84d05ddd5cdd7636f8337" target="_top" xlink:title=" ">
<polygon fill="white" stroke="black" points="149.5,-66 149.5,-85 258.5,-85 258.5,-66 149.5,-66"/>
<text text-anchor="middle" x="204" y="-73" font-family="Helvetica,sans-Serif" font-size="10.00">convert_x_to_xbox</text>
</a>
</g>
</g>
<!-- Node1&#45;&gt;Node2 -->
<g id="edge1" class="edge">
<title>Node1&#45;&gt;Node2</title>
<path fill="none" stroke="midnightblue" d="M105.37,-63.09C116.28,-64.48 127.91,-65.96 139.2,-67.39"/>
<polygon fill="midnightblue" stroke="midnightblue" points="139.09,-70.91 149.45,-68.69 139.97,-63.96 139.09,-70.91"/>
</g>
<!-- Node3 -->
<g id="node3" class="node">
<title>Node3</title>
<g id="a_node3"><a xlink:href="namespacesll__m__particle__mesh__coupling__spline__cl__3d__feec.html#add4465bdda1c90ae966f7f4537fdddaf" target="_top" xlink:title="Helper function for add_current.">
<polygon fill="white" stroke="black" points="141,-28 141,-47 267,-47 267,-28 141,-28"/>
<text text-anchor="middle" x="204" y="-35" font-family="Helvetica,sans-Serif" font-size="10.00">integrate_spline_cl_3d</text>
</a>
</g>
</g>
<!-- Node1&#45;&gt;Node3 -->
<g id="edge2" class="edge">
<title>Node1&#45;&gt;Node3</title>
<path fill="none" stroke="midnightblue" d="M105.37,-49.91C113.61,-48.86 122.27,-47.76 130.87,-46.67"/>
<polygon fill="midnightblue" stroke="midnightblue" points="131.45,-50.12 140.93,-45.39 130.57,-43.18 131.45,-50.12"/>
</g>
<!-- Node4 -->
<g id="node4" class="node">
<title>Node4</title>
<g id="a_node4"><a xlink:href="namespacesll__m__particle__mesh__coupling__spline__cl__3d__feec.html#a505e1d3333e1bb24418884219ef9e048" target="_top" xlink:title=" ">
<polygon fill="white" stroke="black" points="333.5,-50 333.5,-69 400.5,-69 400.5,-50 333.5,-50"/>
<text text-anchor="middle" x="367" y="-57" font-family="Helvetica,sans-Serif" font-size="10.00">box_index</text>
</a>
</g>
</g>
<!-- Node3&#45;&gt;Node4 -->
<g id="edge3" class="edge">
<title>Node3&#45;&gt;Node4</title>
<path fill="none" stroke="midnightblue" d="M267.25,-46.01C285.86,-48.55 305.85,-51.28 322.94,-53.62"/>
<polygon fill="midnightblue" stroke="midnightblue" points="322.78,-57.13 333.17,-55.01 323.73,-50.19 322.78,-57.13"/>
</g>
<!-- Node5 -->
<g id="node5" class="node">
<title>Node5</title>
<g id="a_node5"><a xlink:href="namespacesll__m__particle__mesh__coupling__spline__cl__3d__feec.html#abece9d2a6c0b41af6dd14343cc66bfcd" target="_top" xlink:title="Helper function to evaluate uniform clamped basis splines.">
<polygon fill="white" stroke="black" points="303,-0.5 303,-30.5 431,-30.5 431,-0.5 303,-0.5"/>
<text text-anchor="start" x="311" y="-18.5" font-family="Helvetica,sans-Serif" font-size="10.00">sll_s_uniform_bsplines</text>
<text text-anchor="middle" x="367" y="-7.5" font-family="Helvetica,sans-Serif" font-size="10.00">_eval_basis_clamped</text>
</a>
</g>
</g>
<!-- Node3&#45;&gt;Node5 -->
<g id="edge4" class="edge">
<title>Node3&#45;&gt;Node5</title>
<path fill="none" stroke="midnightblue" d="M267.25,-28.99C275.64,-27.85 284.32,-26.66 292.88,-25.49"/>
<polygon fill="midnightblue" stroke="midnightblue" points="293.42,-28.95 302.86,-24.13 292.47,-22.01 293.42,-28.95"/>
</g>
<!-- Node6 -->
<g id="node6" class="node">
<title>Node6</title>
<g id="a_node6"><a xlink:href="namespacesll__m__splines__pp.html#ab63c3a25b861ed9b8701ae2f65942bcf" target="_top" xlink:title="Perform a 1d hornerschema on the pp_coeffs at index.">
<polygon fill="white" stroke="black" points="467,-0.5 467,-30.5 598,-30.5 598,-0.5 467,-0.5"/>
<text text-anchor="start" x="475" y="-18.5" font-family="Helvetica,sans-Serif" font-size="10.00">sll_m_splines_pp::sll</text>
<text text-anchor="middle" x="532.5" y="-7.5" font-family="Helvetica,sans-Serif" font-size="10.00">_f_spline_pp_horner_1d</text>
</a>
</g>
</g>
<!-- Node5&#45;&gt;Node6 -->
<g id="edge5" class="edge">
<title>Node5&#45;&gt;Node6</title>
<path fill="none" stroke="midnightblue" d="M431.21,-15.5C439.52,-15.5 448.09,-15.5 456.57,-15.5"/>
<polygon fill="midnightblue" stroke="midnightblue" points="456.83,-19 466.83,-15.5 456.83,-12 456.83,-19"/>
</g>
</g>
</svg>
        <g id="navigator" transform="translate(0 0)" fill="#404254">
                <rect fill="#f2f5e9" fill-opacity="0.5" stroke="#606060" stroke-width=".5" x="0" y="0" width="60" height="60"/>
                <use id="zoomplus" xlink:href="#zoomPlus" x="17" y="9" onmousedown="handleZoom(evt,'in')"/>
                <use id="zoomminus" xlink:href="#zoomMin" x="42" y="9" onmousedown="handleZoom(evt,'out')"/>
                <use id="reset" xlink:href="#resetDef" x="30" y="36" onmousedown="handleReset()"/>
                <g id="arrowUp" xlink:href="#dirArrow" transform="translate(30 24)" onmousedown="handlePan(0,-1)">
                  <use xlink:href="#rim" fill="#404040">
                        <set attributeName="fill" to="#808080" begin="arrowUp.mouseover" end="arrowUp.mouseout"/>
                  </use>
                  <path fill="none" stroke="white" stroke-width="1.5" d="M0,-3.0v7 M-2.5,-0.5L0,-3.0L2.5,-0.5"/>
                </g>
                <g id="arrowRight" xlink:href="#dirArrow" transform="rotate(90) translate(36 -43)" onmousedown="handlePan(1,0)">
                  <use xlink:href="#rim" fill="#404040">
                        <set attributeName="fill" to="#808080" begin="arrowRight.mouseover" end="arrowRight.mouseout"/>
                  </use>
                  <path fill="none" stroke="white" stroke-width="1.5" d="M0,-3.0v7 M-2.5,-0.5L0,-3.0L2.5,-0.5"/>
                </g>
                <g id="arrowDown" xlink:href="#dirArrow" transform="rotate(180) translate(-30 -48)" onmousedown="handlePan(0,1)">
                  <use xlink:href="#rim" fill="#404040">
                        <set attributeName="fill" to="#808080" begin="arrowDown.mouseover" end="arrowDown.mouseout"/>
                  </use>
                  <path fill="none" stroke="white" stroke-width="1.5" d="M0,-3.0v7 M-2.5,-0.5L0,-3.0L2.5,-0.5"/>
                </g>
                <g id="arrowLeft" xlink:href="#dirArrow" transform="rotate(270) translate(-36 17)" onmousedown="handlePan(-1,0)">
                  <use xlink:href="#rim" fill="#404040">
                        <set attributeName="fill" to="#808080" begin="arrowLeft.mouseover" end="arrowLeft.mouseout"/>
                  </use>
                  <path fill="none" stroke="white" stroke-width="1.5" d="M0,-3.0v7 M-2.5,-0.5L0,-3.0L2.5,-0.5"/>
                </g>
        </g>
        <svg viewBox="0 0 15 15" width="100%" height="30px" preserveAspectRatio="xMaxYMin meet">
         <g id="arrow_out" transform="scale(0.3 0.3)">
          <a xlink:href="namespacesll__m__particle__mesh__coupling__spline__cl__3d__feec_aef517b0d273cd95396b2c83e284b03b6_cgraph_org.svg" target="_base">
           <rect id="button" ry="5" rx="5" y="6" x="6" height="38" width="38"
                fill="#f2f5e9" fill-opacity="0.5" stroke="#606060" stroke-width="1.0"/>
           <path id="arrow"
             d="M 11.500037,31.436501 C 11.940474,20.09759 22.043105,11.32322 32.158766,21.979434 L 37.068811,17.246167 C 37.068811,17.246167 37.088388,32 37.088388,32 L 22.160133,31.978069 C 22.160133,31.978069 26.997745,27.140456 26.997745,27.140456 C 18.528582,18.264221 13.291696,25.230495 11.500037,31.436501 z"
             style="fill:#404040;"/>
          </a>
         </g>
        </svg>
</svg>
