<?xml version="1.0" encoding="UTF-8" standalone="no"?>
<!DOCTYPE svg PUBLIC "-//W3C//DTD SVG 1.1//EN"
 "http://www.w3.org/Graphics/SVG/1.1/DTD/svg11.dtd">
<!-- Generated by graphviz version 2.38.0 (20140413.2041)
 -->
<!-- Title: sll_s_write_caid_files Pages: 1 -->
<svg width="695pt" height="154pt"
 viewBox="0.00 0.00 695.00 154.46" xmlns="http://www.w3.org/2000/svg" xmlns:xlink="http://www.w3.org/1999/xlink">
<g id="graph0" class="graph" transform="scale(1 1) rotate(0) translate(4 150.456)">
<title>sll_s_write_caid_files</title>
<polygon fill="white" stroke="none" points="-4,4 -4,-150.456 691,-150.456 691,4 -4,4"/>
<!-- Node1 -->
<g id="node1" class="node"><title>Node1</title>
<polygon fill="#bfbfbf" stroke="black" points="0,-108.5 0,-127.5 110,-127.5 110,-108.5 0,-108.5"/>
<text text-anchor="middle" x="55" y="-115.5" font-family="Helvetica,sans-Serif" font-size="10.00">sll_s_write_caid_files</text>
</g>
<!-- Node2 -->
<g id="node2" class="node"><title>Node2</title>
<g id="a_node2"><a xlink:href="namespacesll__m__hexagonal__meshes.html#a8bed234b81efa9e2e353c3f594c104e3" target="_top" xlink:title="Computes the number of cell from point to origin. ">
<polygon fill="white" stroke="black" points="583.5,-114.5 583.5,-133.5 685.5,-133.5 685.5,-114.5 583.5,-114.5"/>
<text text-anchor="middle" x="634.5" y="-121.5" font-family="Helvetica,sans-Serif" font-size="10.00">sll_f_cells_to_origin</text>
</a>
</g>
</g>
<!-- Node1&#45;&gt;Node2 -->
<g id="edge1" class="edge"><title>Node1&#45;&gt;Node2</title>
<path fill="none" stroke="midnightblue" d="M84.3947,-127.609C101.921,-133.027 124.996,-139.247 146,-142 201.189,-149.232 423.504,-147.135 546,-137 554.785,-136.273 564.029,-135.219 573.085,-134.02"/>
<polygon fill="midnightblue" stroke="midnightblue" points="573.772,-137.458 583.196,-132.615 572.809,-130.525 573.772,-137.458"/>
</g>
<!-- Node3 -->
<g id="node3" class="node"><title>Node3</title>
<g id="a_node3"><a xlink:href="namespacesll__m__hexagonal__meshes.html#a9740ccf22d4a4a8fea91fe99c7532387" target="_top" xlink:title="Function that allows to change from the current element notation to one more intuitive. ">
<polygon fill="white" stroke="black" points="146,-103 146,-133 262,-133 262,-103 146,-103"/>
<text text-anchor="start" x="154" y="-121" font-family="Helvetica,sans-Serif" font-size="10.00">sll_f_change_elements</text>
<text text-anchor="middle" x="204" y="-110" font-family="Helvetica,sans-Serif" font-size="10.00">_notation</text>
</a>
</g>
</g>
<!-- Node1&#45;&gt;Node3 -->
<g id="edge2" class="edge"><title>Node1&#45;&gt;Node3</title>
<path fill="none" stroke="midnightblue" d="M110.32,-118C118.576,-118 127.18,-118 135.673,-118"/>
<polygon fill="midnightblue" stroke="midnightblue" points="135.947,-121.5 145.947,-118 135.947,-114.5 135.947,-121.5"/>
</g>
<!-- Node4 -->
<g id="node4" class="node"><title>Node4</title>
<g id="a_node4"><a xlink:href="namespacesll__m__hexagonal__meshes.html#aa579f5999884452ce000e206a88dc6b7" target="_top" xlink:title="Returns indices of the edges of a given cell. ">
<polygon fill="white" stroke="black" points="298,-59 298,-89 414,-89 414,-59 298,-59"/>
<text text-anchor="start" x="306" y="-77" font-family="Helvetica,sans-Serif" font-size="10.00">sll_s_get_cell_vertices</text>
<text text-anchor="middle" x="356" y="-66" font-family="Helvetica,sans-Serif" font-size="10.00">_index</text>
</a>
</g>
</g>
<!-- Node1&#45;&gt;Node4 -->
<g id="edge10" class="edge"><title>Node1&#45;&gt;Node4</title>
<path fill="none" stroke="midnightblue" d="M85.279,-108.424C102.729,-103.08 125.422,-96.7617 146,-93 192.917,-84.4235 246.502,-79.6501 287.667,-77.0329"/>
<polygon fill="midnightblue" stroke="midnightblue" points="288.084,-80.5141 297.853,-76.413 287.659,-73.527 288.084,-80.5141"/>
</g>
<!-- Node3&#45;&gt;Node2 -->
<g id="edge9" class="edge"><title>Node3&#45;&gt;Node2</title>
<path fill="none" stroke="midnightblue" d="M262.345,-118.803C343.372,-119.938 490.679,-122 573.255,-123.156"/>
<polygon fill="midnightblue" stroke="midnightblue" points="573.436,-126.659 583.484,-123.3 573.534,-119.66 573.436,-126.659"/>
</g>
<!-- Node3&#45;&gt;Node4 -->
<g id="edge3" class="edge"><title>Node3&#45;&gt;Node4</title>
<path fill="none" stroke="midnightblue" d="M256.202,-102.981C268.323,-99.4252 281.37,-95.5982 293.882,-91.9279"/>
<polygon fill="midnightblue" stroke="midnightblue" points="295.164,-95.1995 303.774,-89.0262 293.193,-88.4825 295.164,-95.1995"/>
</g>
<!-- Node5 -->
<g id="node5" class="node"><title>Node5</title>
<g id="a_node5"><a xlink:href="namespacesll__m__hexagonal__meshes.html#a066138062e95dab8690eb6e889dfe769" target="_top" xlink:title="Transform cartesian coordinates to 1st hexagonal coordinates. ">
<polygon fill="white" stroke="black" points="450,-76.5 450,-95.5 546,-95.5 546,-76.5 450,-76.5"/>
<text text-anchor="middle" x="498" y="-83.5" font-family="Helvetica,sans-Serif" font-size="10.00">sll_f_cart_to_hex1</text>
</a>
</g>
</g>
<!-- Node4&#45;&gt;Node5 -->
<g id="edge4" class="edge"><title>Node4&#45;&gt;Node5</title>
<path fill="none" stroke="midnightblue" d="M414.347,-78.9155C422.722,-79.6333 431.347,-80.3726 439.721,-81.0903"/>
<polygon fill="midnightblue" stroke="midnightblue" points="439.514,-84.5854 449.776,-81.9522 440.112,-77.6109 439.514,-84.5854"/>
</g>
<!-- Node6 -->
<g id="node6" class="node"><title>Node6</title>
<g id="a_node6"><a xlink:href="namespacesll__m__hexagonal__meshes.html#aa108ce30c3a8af1414fbfeba3420d493" target="_top" xlink:title="Transform cartesian coordinates to 2ndst hexagonal coordinates. ">
<polygon fill="white" stroke="black" points="450,-38.5 450,-57.5 546,-57.5 546,-38.5 450,-38.5"/>
<text text-anchor="middle" x="498" y="-45.5" font-family="Helvetica,sans-Serif" font-size="10.00">sll_f_cart_to_hex2</text>
</a>
</g>
</g>
<!-- Node4&#45;&gt;Node6 -->
<g id="edge5" class="edge"><title>Node4&#45;&gt;Node6</title>
<path fill="none" stroke="midnightblue" d="M414.347,-63.3498C422.722,-61.7944 431.347,-60.1927 439.721,-58.6376"/>
<polygon fill="midnightblue" stroke="midnightblue" points="440.583,-62.0373 449.776,-56.7701 439.305,-55.155 440.583,-62.0373"/>
</g>
<!-- Node7 -->
<g id="node7" class="node"><title>Node7</title>
<g id="a_node7"><a xlink:href="namespacesll__m__hexagonal__meshes.html#af2ad9a5ed18f26e97513930ee9793370" target="_top" xlink:title="Transform hexagonal coordinates to global index. ">
<polygon fill="white" stroke="black" points="459.5,-0.5 459.5,-19.5 536.5,-19.5 536.5,-0.5 459.5,-0.5"/>
<text text-anchor="middle" x="498" y="-7.5" font-family="Helvetica,sans-Serif" font-size="10.00">hex_to_global</text>
</a>
</g>
</g>
<!-- Node4&#45;&gt;Node7 -->
<g id="edge6" class="edge"><title>Node4&#45;&gt;Node7</title>
<path fill="none" stroke="midnightblue" d="M386.919,-58.8972C405.035,-49.9096 428.684,-38.4529 450,-29 454.186,-27.1435 458.612,-25.2568 463.008,-23.4288"/>
<polygon fill="midnightblue" stroke="midnightblue" points="464.546,-26.5812 472.477,-19.5555 461.896,-20.1023 464.546,-26.5812"/>
</g>
<!-- Node7&#45;&gt;Node2 -->
<g id="edge7" class="edge"><title>Node7&#45;&gt;Node2</title>
<path fill="none" stroke="midnightblue" d="M528.368,-19.5356C534.458,-22.1429 540.644,-25.294 546,-29 577.16,-50.5621 605.311,-85.0545 620.846,-106.01"/>
<polygon fill="midnightblue" stroke="midnightblue" points="618.18,-108.296 626.884,-114.338 623.848,-104.187 618.18,-108.296"/>
</g>
<!-- Node8 -->
<g id="node8" class="node"><title>Node8</title>
<g id="a_node8"><a xlink:href="namespacesll__m__hexagonal__meshes.html#a47f7a419f8f8904d408ad3a630612ee4" target="_top" xlink:title="Finds the index in the global array of the point which coordinates where passed as parameter...">
<polygon fill="white" stroke="black" points="582,-0.5 582,-19.5 687,-19.5 687,-0.5 582,-0.5"/>
<text text-anchor="middle" x="634.5" y="-7.5" font-family="Helvetica,sans-Serif" font-size="10.00">index_hex_to_global</text>
</a>
</g>
</g>
<!-- Node7&#45;&gt;Node8 -->
<g id="edge8" class="edge"><title>Node7&#45;&gt;Node8</title>
<path fill="none" stroke="midnightblue" d="M536.824,-10C547.641,-10 559.723,-10 571.583,-10"/>
<polygon fill="midnightblue" stroke="midnightblue" points="571.911,-13.5001 581.91,-10 571.91,-6.5001 571.911,-13.5001"/>
</g>
</g>
</svg>
