<?xml version="1.0" encoding="UTF-8" standalone="no"?>
<!DOCTYPE svg PUBLIC "-//W3C//DTD SVG 1.1//EN"
 "http://www.w3.org/Graphics/SVG/1.1/DTD/svg11.dtd">
<!-- Generated by graphviz version 2.40.1 (20161225.0304)
 -->
<!-- Title: assemble2_clamped_boundary Pages: 1 -->
<!--zoomable 149 -->
<svg id="main" version="1.1" xmlns="http://www.w3.org/2000/svg" xmlns:xlink="http://www.w3.org/1999/xlink" xml:space="preserve" onload="init(evt)">
<style type="text/css"><![CDATA[
.edge:hover path { stroke: red; }
.edge:hover polygon { stroke: red; fill: red; }
]]></style>
<script type="text/javascript"><![CDATA[
var edges = document.getElementsByTagName('g');
if (edges && edges.length) {
  for (var i=0;i<edges.length;i++) {
    if (edges[i].id.substr(0,4)=='edge') {
      edges[i].setAttribute('class','edge');
    }
  }
}
]]></script>
        <defs>
                <circle id="rim" cx="0" cy="0" r="7"/>
                <circle id="rim2" cx="0" cy="0" r="3.5"/>
                <g id="zoomPlus">
                        <use xlink:href="#rim" fill="#404040">
                                <set attributeName="fill" to="#808080" begin="zoomplus.mouseover" end="zoomplus.mouseout"/>
                        </use>
                        <path d="M-4,0h8M0,-4v8" fill="none" stroke="white" stroke-width="1.5" pointer-events="none"/>
                </g>
                <g id="zoomMin">
                        <use xlink:href="#rim" fill="#404040">
                                <set attributeName="fill" to="#808080" begin="zoomminus.mouseover" end="zoomminus.mouseout"/>
                        </use>
                        <path d="M-4,0h8" fill="none" stroke="white" stroke-width="1.5" pointer-events="none"/>
                </g>
                <g id="dirArrow">
                        <path fill="none" stroke="white" stroke-width="1.5" d="M0,-3.0v7 M-2.5,-0.5L0,-3.0L2.5,-0.5"/>
                </g>
               <g id="resetDef">
                       <use xlink:href="#rim2" fill="#404040">
                               <set attributeName="fill" to="#808080" begin="reset.mouseover" end="reset.mouseout"/>
                       </use>
               </g>
        </defs>

<script type="text/javascript">
var viewWidth = 720;
var viewHeight = 149;
var sectionId = 'dynsection-8';
</script>
<script xlink:href="svgpan.js"/>
<svg id="graph" class="graph">
<g id="viewport">
<title>assemble2_clamped_boundary</title>
<polygon fill="#ffffff" stroke="transparent" points="-4,4 -4,-144.5 716,-144.5 716,4 -4,4"/>
<!-- Node46 -->
<g id="node1" class="node">
<title>Node46</title>
<polygon fill="#bfbfbf" stroke="#000000" points="0,-66.5 0,-85.5 168,-85.5 168,-66.5 0,-66.5"/>
<text text-anchor="middle" x="84" y="-73.5" font-family="Helvetica,sans-Serif" font-size="10.00" fill="#000000">assemble2_clamped_boundary</text>
</g>
<!-- Node47 -->
<g id="node2" class="node">
<title>Node47</title>
<g id="a_node2"><a xlink:href="namespacesll__m__spline__fem__utilities__3d__helper.html#a8bf61805b062829a837a69a883fa4580" target="_top" xlink:title="Assemble the boundary part of the clamped mass matrix. ">
<polygon fill="#ffffff" stroke="#000000" points="204,-61 204,-91 359,-91 359,-61 204,-61"/>
<text text-anchor="start" x="212" y="-79" font-family="Helvetica,sans-Serif" font-size="10.00" fill="#000000">assemble_mass3d_clamped</text>
<text text-anchor="middle" x="281.5" y="-68" font-family="Helvetica,sans-Serif" font-size="10.00" fill="#000000">_boundary</text>
</a>
</g>
</g>
<!-- Node46&#45;&gt;Node47 -->
<g id="edge1" class="edge">
<title>Node46&#45;&gt;Node47</title>
<path fill="none" stroke="#191970" d="M178.1073,-76C186.7114,-76 195.3625,-76 203.7988,-76"/>
<polygon fill="#191970" stroke="#191970" points="178.0442,-72.5001 168.0442,-76 178.0441,-79.5001 178.0442,-72.5001"/>
</g>
<!-- Node48 -->
<g id="node3" class="node">
<title>Node48</title>
<g id="a_node3"><a xlink:href="namespacesll__m__spline__fem__utilities__3d__clamped.html#a4fceedb527087eaedb3605232a9f1398" target="_top" xlink:title="Set up 3d clamped mass matrix for specific spline degrees and profile function. ">
<polygon fill="#ffffff" stroke="#000000" points="395,-55.5 395,-96.5 539,-96.5 539,-55.5 395,-55.5"/>
<text text-anchor="start" x="403" y="-84.5" font-family="Helvetica,sans-Serif" font-size="10.00" fill="#000000">sll_m_spline_fem_utilities</text>
<text text-anchor="start" x="403" y="-73.5" font-family="Helvetica,sans-Serif" font-size="10.00" fill="#000000">_3d_clamped::sll_s_spline</text>
<text text-anchor="middle" x="467" y="-62.5" font-family="Helvetica,sans-Serif" font-size="10.00" fill="#000000">_fem_mass3d_clamped</text>
</a>
</g>
</g>
<!-- Node47&#45;&gt;Node48 -->
<g id="edge2" class="edge">
<title>Node47&#45;&gt;Node48</title>
<path fill="none" stroke="#191970" d="M369.1246,-76C377.7074,-76 386.3489,-76 394.7538,-76"/>
<polygon fill="#191970" stroke="#191970" points="369.0939,-72.5001 359.0939,-76 369.0938,-79.5001 369.0939,-72.5001"/>
</g>
<!-- Node49 -->
<g id="node4" class="node">
<title>Node49</title>
<g id="a_node4"><a xlink:href="namespacesll__m__maxwell__clamped__3d__fem.html#afadba212d3f01a688b12c751068d1707" target="_top" xlink:title="Initialization. ">
<polygon fill="#ffffff" stroke="#000000" points="575,-110 575,-140 712,-140 712,-110 575,-110"/>
<text text-anchor="start" x="583" y="-128" font-family="Helvetica,sans-Serif" font-size="10.00" fill="#000000">sll_m_maxwell_clamped</text>
<text text-anchor="middle" x="643.5" y="-117" font-family="Helvetica,sans-Serif" font-size="10.00" fill="#000000">_3d_fem::init_3d_fem</text>
</a>
</g>
</g>
<!-- Node48&#45;&gt;Node49 -->
<g id="edge3" class="edge">
<title>Node48&#45;&gt;Node49</title>
<path fill="none" stroke="#191970" d="M548.9475,-98.7503C562.6237,-102.5471 576.5028,-106.4002 589.262,-109.9424"/>
<polygon fill="#191970" stroke="#191970" points="549.6157,-95.3035 539.0439,-96.0008 547.7432,-102.0484 549.6157,-95.3035"/>
</g>
<!-- Node50 -->
<g id="node5" class="node">
<title>Node50</title>
<g id="a_node5"><a xlink:href="namespacesll__m__maxwell__clamped__3d__trafo.html#ab614fb88d34d5e55292639d8db6b0353" target="_top" xlink:title="Initialization. ">
<polygon fill="#ffffff" stroke="#000000" points="575,-61 575,-91 712,-91 712,-61 575,-61"/>
<text text-anchor="start" x="583" y="-79" font-family="Helvetica,sans-Serif" font-size="10.00" fill="#000000">sll_m_maxwell_clamped</text>
<text text-anchor="middle" x="643.5" y="-68" font-family="Helvetica,sans-Serif" font-size="10.00" fill="#000000">_3d_trafo::init_3d_trafo</text>
</a>
</g>
</g>
<!-- Node48&#45;&gt;Node50 -->
<g id="edge4" class="edge">
<title>Node48&#45;&gt;Node50</title>
<path fill="none" stroke="#191970" d="M549.0924,-76C557.6997,-76 566.3856,-76 574.8203,-76"/>
<polygon fill="#191970" stroke="#191970" points="549.0439,-72.5001 539.0439,-76 549.0438,-79.5001 549.0439,-72.5001"/>
</g>
<!-- Node51 -->
<g id="node6" class="node">
<title>Node51</title>
<g id="a_node6"><a xlink:href="namespacesll__m__maxwell__clamped__3d__trafo__parallel.html#ae0872c3bfa3cc2f7b7f3aaca4fd8838e" target="_top" xlink:title="sll_m_maxwell_clamped\l_3d_trafo_parallel::init\l_3d_trafo_parallel">
<polygon fill="#ffffff" stroke="#000000" points="575,-.5 575,-41.5 712,-41.5 712,-.5 575,-.5"/>
<text text-anchor="start" x="583" y="-29.5" font-family="Helvetica,sans-Serif" font-size="10.00" fill="#000000">sll_m_maxwell_clamped</text>
<text text-anchor="start" x="583" y="-18.5" font-family="Helvetica,sans-Serif" font-size="10.00" fill="#000000">_3d_trafo_parallel::init</text>
<text text-anchor="middle" x="643.5" y="-7.5" font-family="Helvetica,sans-Serif" font-size="10.00" fill="#000000">_3d_trafo_parallel</text>
</a>
</g>
</g>
<!-- Node48&#45;&gt;Node51 -->
<g id="edge5" class="edge">
<title>Node48&#45;&gt;Node51</title>
<path fill="none" stroke="#191970" d="M542.6538,-52.4252C554.2837,-48.8011 566.2115,-45.0842 577.6068,-41.5333"/>
<polygon fill="#191970" stroke="#191970" points="541.479,-49.1252 532.9731,-55.4418 543.5616,-55.8082 541.479,-49.1252"/>
</g>
</g>
</svg>
        <g id="navigator" transform="translate(0 0)" fill="#404254">
                <rect fill="#f2f5e9" fill-opacity="0.5" stroke="#606060" stroke-width=".5" x="0" y="0" width="60" height="60"/>
                <use id="zoomplus" xlink:href="#zoomPlus" x="17" y="9" onmousedown="handleZoom(evt,'in')"/>
                <use id="zoomminus" xlink:href="#zoomMin" x="42" y="9" onmousedown="handleZoom(evt,'out')"/>
                <use id="reset" xlink:href="#resetDef" x="30" y="36" onmousedown="handleReset()"/>
                <g id="arrowUp" xlink:href="#dirArrow" transform="translate(30 24)" onmousedown="handlePan(0,-1)">
                  <use xlink:href="#rim" fill="#404040">
                        <set attributeName="fill" to="#808080" begin="arrowUp.mouseover" end="arrowUp.mouseout"/>
                  </use>
                  <path fill="none" stroke="white" stroke-width="1.5" d="M0,-3.0v7 M-2.5,-0.5L0,-3.0L2.5,-0.5"/>
                </g>
                <g id="arrowRight" xlink:href="#dirArrow" transform="rotate(90) translate(36 -43)" onmousedown="handlePan(1,0)">
                  <use xlink:href="#rim" fill="#404040">
                        <set attributeName="fill" to="#808080" begin="arrowRight.mouseover" end="arrowRight.mouseout"/>
                  </use>
                  <path fill="none" stroke="white" stroke-width="1.5" d="M0,-3.0v7 M-2.5,-0.5L0,-3.0L2.5,-0.5"/>
                </g>
                <g id="arrowDown" xlink:href="#dirArrow" transform="rotate(180) translate(-30 -48)" onmousedown="handlePan(0,1)">
                  <use xlink:href="#rim" fill="#404040">
                        <set attributeName="fill" to="#808080" begin="arrowDown.mouseover" end="arrowDown.mouseout"/>
                  </use>
                  <path fill="none" stroke="white" stroke-width="1.5" d="M0,-3.0v7 M-2.5,-0.5L0,-3.0L2.5,-0.5"/>
                </g>
                <g id="arrowLeft" xlink:href="#dirArrow" transform="rotate(270) translate(-36 17)" onmousedown="handlePan(-1,0)">
                  <use xlink:href="#rim" fill="#404040">
                        <set attributeName="fill" to="#808080" begin="arrowLeft.mouseover" end="arrowLeft.mouseout"/>
                  </use>
                  <path fill="none" stroke="white" stroke-width="1.5" d="M0,-3.0v7 M-2.5,-0.5L0,-3.0L2.5,-0.5"/>
                </g>
        </g>
        <svg viewBox="0 0 15 15" width="100%" height="30px" preserveAspectRatio="xMaxYMin meet">
         <g id="arrow_out" transform="scale(0.3 0.3)">
          <a xlink:href="namespacesll__m__spline__fem__utilities__3d__helper_a48122c3cd88685ee9f9f3becaa352521_icgraph_org.svg" target="_base">
           <rect id="button" ry="5" rx="5" y="6" x="6" height="38" width="38"
                fill="#f2f5e9" fill-opacity="0.5" stroke="#606060" stroke-width="1.0"/>
           <path id="arrow"
             d="M 11.500037,31.436501 C 11.940474,20.09759 22.043105,11.32322 32.158766,21.979434 L 37.068811,17.246167 C 37.068811,17.246167 37.088388,32 37.088388,32 L 22.160133,31.978069 C 22.160133,31.978069 26.997745,27.140456 26.997745,27.140456 C 18.528582,18.264221 13.291696,25.230495 11.500037,31.436501 z"
             style="fill:#404040;"/>
          </a>
         </g>
        </svg>
</svg>
