<?xml version="1.0" encoding="UTF-8" standalone="no"?>
<!DOCTYPE svg PUBLIC "-//W3C//DTD SVG 1.1//EN"
 "http://www.w3.org/Graphics/SVG/1.1/DTD/svg11.dtd">
<!-- Generated by graphviz version 2.43.0 (0)
 -->
<!-- Title: interpolate_derivative1_ad2d Pages: 1 -->
<svg width="484pt" height="61pt"
 viewBox="0.00 0.00 484.00 61.00" xmlns="http://www.w3.org/2000/svg" xmlns:xlink="http://www.w3.org/1999/xlink">
<g id="graph0" class="graph" transform="scale(1 1) rotate(0) translate(4 57)">
<title>interpolate_derivative1_ad2d</title>
<polygon fill="white" stroke="transparent" points="-4,4 -4,-57 480,-57 480,4 -4,4"/>
<!-- Node1 -->
<g id="node1" class="node">
<title>Node1</title>
<g id="a_node1"><a xlink:title="First derivative in eta1 interpolation on the points eta1 and eta2.">
<polygon fill="#bfbfbf" stroke="black" points="0,-6 0,-25 160,-25 160,-6 0,-6"/>
<text text-anchor="middle" x="80" y="-13" font-family="Helvetica,sans-Serif" font-size="10.00">interpolate_derivative1_ad2d</text>
</a>
</g>
</g>
<!-- Node2 -->
<g id="node2" class="node">
<title>Node2</title>
<g id="a_node2"><a xlink:href="namespacesll__m__deboor__splines__1d.html#a0ba47355c8f42851b8362a5ca411e7c0" target="_top" xlink:title="Evaluates a derivative of a spline from its B&#45;spline representation.">
<polygon fill="white" stroke="black" points="196,-22.5 196,-52.5 318,-52.5 318,-22.5 196,-22.5"/>
<text text-anchor="start" x="204" y="-40.5" font-family="Helvetica,sans-Serif" font-size="10.00">sll_m_deboor_splines</text>
<text text-anchor="middle" x="257" y="-29.5" font-family="Helvetica,sans-Serif" font-size="10.00">_1d::sll_f_bvalue</text>
</a>
</g>
</g>
<!-- Node1&#45;&gt;Node2 -->
<g id="edge1" class="edge">
<title>Node1&#45;&gt;Node2</title>
<path fill="none" stroke="midnightblue" d="M156.74,-25.02C166.37,-26.23 176.2,-27.47 185.74,-28.67"/>
<polygon fill="midnightblue" stroke="midnightblue" points="185.6,-32.18 195.96,-29.95 186.48,-25.23 185.6,-32.18"/>
</g>
<!-- Node3 -->
<g id="node3" class="node">
<title>Node3</title>
<g id="a_node3"><a xlink:href="namespacesll__m__deboor__splines__1d.html#a4f9fcaf3a83c7141df5d8a5299346c45" target="_top" xlink:title="Brackets a real value in an ascending vector of values.">
<polygon fill="white" stroke="black" points="354,-0.5 354,-30.5 476,-30.5 476,-0.5 354,-0.5"/>
<text text-anchor="start" x="362" y="-18.5" font-family="Helvetica,sans-Serif" font-size="10.00">sll_m_deboor_splines</text>
<text text-anchor="middle" x="415" y="-7.5" font-family="Helvetica,sans-Serif" font-size="10.00">_1d::sll_s_interv</text>
</a>
</g>
</g>
<!-- Node1&#45;&gt;Node3 -->
<g id="edge3" class="edge">
<title>Node1&#45;&gt;Node3</title>
<path fill="none" stroke="midnightblue" d="M160.18,-13.94C172.18,-13.76 184.42,-13.6 196,-13.5 250.22,-13.03 263.78,-12.94 318,-13.5 326.33,-13.59 335.06,-13.72 343.72,-13.87"/>
<polygon fill="midnightblue" stroke="midnightblue" points="343.77,-17.37 353.83,-14.05 343.9,-10.37 343.77,-17.37"/>
</g>
<!-- Node2&#45;&gt;Node3 -->
<g id="edge2" class="edge">
<title>Node2&#45;&gt;Node3</title>
<path fill="none" stroke="midnightblue" d="M318.31,-28.99C326.69,-27.81 335.36,-26.59 343.9,-25.39"/>
<polygon fill="midnightblue" stroke="midnightblue" points="344.43,-28.85 353.85,-23.98 343.46,-21.91 344.43,-28.85"/>
</g>
</g>
</svg>
