<?xml version="1.0" encoding="UTF-8" standalone="no"?>
<!DOCTYPE svg PUBLIC "-//W3C//DTD SVG 1.1//EN"
 "http://www.w3.org/Graphics/SVG/1.1/DTD/svg11.dtd">
<!-- Generated by graphviz version 2.40.1 (20161225.0304)
 -->
<!-- Title: sll_f_sharped_geo_x1 Pages: 1 -->
<svg width="473pt" height="39pt"
 viewBox="0.00 0.00 473.00 39.00" xmlns="http://www.w3.org/2000/svg" xmlns:xlink="http://www.w3.org/1999/xlink">
<g id="graph0" class="graph" transform="scale(1 1) rotate(0) translate(4 35)">
<title>sll_f_sharped_geo_x1</title>
<polygon fill="#ffffff" stroke="transparent" points="-4,4 -4,-35 469,-35 469,4 -4,4"/>
<!-- Node196 -->
<g id="node1" class="node">
<title>Node196</title>
<polygon fill="#bfbfbf" stroke="#000000" points="0,-6 0,-25 122,-25 122,-6 0,-6"/>
<text text-anchor="middle" x="61" y="-13" font-family="Helvetica,sans-Serif" font-size="10.00" fill="#000000">sll_f_sharped_geo_x1</text>
</g>
<!-- Node197 -->
<g id="node2" class="node">
<title>Node197</title>
<g id="a_node2"><a xlink:href="namespacesll__m__dk__curv__mesh.html#a6f315071892ebb64818730a4f493262f" target="_top" xlink:title="select transformation ">
<polygon fill="#ffffff" stroke="#000000" points="158,-.5 158,-30.5 288,-30.5 288,-.5 158,-.5"/>
<text text-anchor="start" x="166" y="-18.5" font-family="Helvetica,sans-Serif" font-size="10.00" fill="#000000">sll_m_dk_curv_mesh</text>
<text text-anchor="middle" x="223" y="-7.5" font-family="Helvetica,sans-Serif" font-size="10.00" fill="#000000">::select_transformation</text>
</a>
</g>
</g>
<!-- Node196&#45;&gt;Node197 -->
<g id="edge1" class="edge">
<title>Node196&#45;&gt;Node197</title>
<path fill="none" stroke="#191970" d="M132.4666,-15.5C140.9241,-15.5 149.5222,-15.5 157.8852,-15.5"/>
<polygon fill="#191970" stroke="#191970" points="132.2453,-12.0001 122.2453,-15.5 132.2452,-19.0001 132.2453,-12.0001"/>
</g>
<!-- Node198 -->
<g id="node3" class="node">
<title>Node198</title>
<g id="a_node3"><a xlink:href="namespacesll__m__dk__curv__mesh.html#a4c65d8244e6f18bd6fb5cff4c5c5ee74" target="_top" xlink:title="Initialize simulation from input file. ">
<polygon fill="#ffffff" stroke="#000000" points="324,-.5 324,-30.5 465,-30.5 465,-.5 324,-.5"/>
<text text-anchor="start" x="332" y="-18.5" font-family="Helvetica,sans-Serif" font-size="10.00" fill="#000000">sll_m_dk_curv_mesh</text>
<text text-anchor="middle" x="394.5" y="-7.5" font-family="Helvetica,sans-Serif" font-size="10.00" fill="#000000">::sll_s_init_dk_curv_mesh</text>
</a>
</g>
</g>
<!-- Node197&#45;&gt;Node198 -->
<g id="edge2" class="edge">
<title>Node197&#45;&gt;Node198</title>
<path fill="none" stroke="#191970" d="M298.5341,-15.5C306.9758,-15.5 315.5514,-15.5 323.9275,-15.5"/>
<polygon fill="#191970" stroke="#191970" points="298.3261,-12.0001 288.326,-15.5 298.326,-19.0001 298.3261,-12.0001"/>
</g>
</g>
</svg>
