<?xml version="1.0" encoding="UTF-8" standalone="no"?>
<!DOCTYPE svg PUBLIC "-//W3C//DTD SVG 1.1//EN"
 "http://www.w3.org/Graphics/SVG/1.1/DTD/svg11.dtd">
<!-- Generated by graphviz version 2.40.1 (20161225.0304)
 -->
<!-- Title: extract_periodic Pages: 1 -->
<!--zoomable 137 -->
<svg id="main" version="1.1" xmlns="http://www.w3.org/2000/svg" xmlns:xlink="http://www.w3.org/1999/xlink" xml:space="preserve" onload="init(evt)">
<style type="text/css"><![CDATA[
.edge:hover path { stroke: red; }
.edge:hover polygon { stroke: red; fill: red; }
]]></style>
<script type="text/javascript"><![CDATA[
var edges = document.getElementsByTagName('g');
if (edges && edges.length) {
  for (var i=0;i<edges.length;i++) {
    if (edges[i].id.substr(0,4)=='edge') {
      edges[i].setAttribute('class','edge');
    }
  }
}
]]></script>
        <defs>
                <circle id="rim" cx="0" cy="0" r="7"/>
                <circle id="rim2" cx="0" cy="0" r="3.5"/>
                <g id="zoomPlus">
                        <use xlink:href="#rim" fill="#404040">
                                <set attributeName="fill" to="#808080" begin="zoomplus.mouseover" end="zoomplus.mouseout"/>
                        </use>
                        <path d="M-4,0h8M0,-4v8" fill="none" stroke="white" stroke-width="1.5" pointer-events="none"/>
                </g>
                <g id="zoomMin">
                        <use xlink:href="#rim" fill="#404040">
                                <set attributeName="fill" to="#808080" begin="zoomminus.mouseover" end="zoomminus.mouseout"/>
                        </use>
                        <path d="M-4,0h8" fill="none" stroke="white" stroke-width="1.5" pointer-events="none"/>
                </g>
                <g id="dirArrow">
                        <path fill="none" stroke="white" stroke-width="1.5" d="M0,-3.0v7 M-2.5,-0.5L0,-3.0L2.5,-0.5"/>
                </g>
               <g id="resetDef">
                       <use xlink:href="#rim2" fill="#404040">
                               <set attributeName="fill" to="#808080" begin="reset.mouseover" end="reset.mouseout"/>
                       </use>
               </g>
        </defs>

<script type="text/javascript">
var viewWidth = 580;
var viewHeight = 137;
var sectionId = 'dynsection-29';
</script>
<script xlink:href="svgpan.js"/>
<svg id="graph" class="graph">
<g id="viewport">
<title>extract_periodic</title>
<polygon fill="#ffffff" stroke="transparent" points="-4,4 -4,-133 576,-133 576,4 -4,4"/>
<!-- Node116 -->
<g id="node1" class="node">
<title>Node116</title>
<polygon fill="#bfbfbf" stroke="#000000" points="0,-55 0,-74 95,-74 95,-55 0,-55"/>
<text text-anchor="middle" x="47.5" y="-62" font-family="Helvetica,sans-Serif" font-size="10.00" fill="#000000">extract_periodic</text>
</g>
<!-- Node117 -->
<g id="node2" class="node">
<title>Node117</title>
<g id="a_node2"><a xlink:href="namespacesll__m__sparse__grid__interpolator.html#abde63630cfb91242fb29f6d8919a9ef8" target="_top" xlink:title="interpolate_disp_1d\l_periodic">
<polygon fill="#ffffff" stroke="#000000" points="138.5,-98.5 138.5,-128.5 251.5,-128.5 251.5,-98.5 138.5,-98.5"/>
<text text-anchor="start" x="146.5" y="-116.5" font-family="Helvetica,sans-Serif" font-size="10.00" fill="#000000">interpolate_disp_1d</text>
<text text-anchor="middle" x="195" y="-105.5" font-family="Helvetica,sans-Serif" font-size="10.00" fill="#000000">_periodic</text>
</a>
</g>
</g>
<!-- Node116&#45;&gt;Node117 -->
<g id="edge1" class="edge">
<title>Node116&#45;&gt;Node117</title>
<path fill="none" stroke="#191970" d="M85.7905,-77.2202C105.3476,-83.7172 129.2706,-91.6645 149.7357,-98.463"/>
<polygon fill="#191970" stroke="#191970" points="86.8831,-73.8952 76.2896,-74.064 84.6762,-80.5382 86.8831,-73.8952"/>
</g>
<!-- Node120 -->
<g id="node5" class="node">
<title>Node120</title>
<g id="a_node5"><a xlink:href="namespacesll__m__sparse__grid__interpolator.html#aa2bcddb6284a4f2eb4f235b87bc7b38d" target="_top" xlink:title="interpolate_disp_1d\l_periodic_for_neighbor">
<polygon fill="#ffffff" stroke="#000000" points="131,-49.5 131,-79.5 259,-79.5 259,-49.5 131,-49.5"/>
<text text-anchor="start" x="139" y="-67.5" font-family="Helvetica,sans-Serif" font-size="10.00" fill="#000000">interpolate_disp_1d</text>
<text text-anchor="middle" x="195" y="-56.5" font-family="Helvetica,sans-Serif" font-size="10.00" fill="#000000">_periodic_for_neighbor</text>
</a>
</g>
</g>
<!-- Node116&#45;&gt;Node120 -->
<g id="edge4" class="edge">
<title>Node116&#45;&gt;Node120</title>
<path fill="none" stroke="#191970" d="M105.4407,-64.5C113.8229,-64.5 122.491,-64.5 130.9839,-64.5"/>
<polygon fill="#191970" stroke="#191970" points="105.3891,-61.0001 95.389,-64.5 105.389,-68.0001 105.3891,-61.0001"/>
</g>
<!-- Node121 -->
<g id="node6" class="node">
<title>Node121</title>
<g id="a_node6"><a xlink:href="namespacesll__m__sparse__grid__interpolator.html#a8b0c0e3ebd2c137d714e8d845b4595ca" target="_top" xlink:title="interpolate_disp_1d\l_periodic_self">
<polygon fill="#ffffff" stroke="#000000" points="138.5,-.5 138.5,-30.5 251.5,-30.5 251.5,-.5 138.5,-.5"/>
<text text-anchor="start" x="146.5" y="-18.5" font-family="Helvetica,sans-Serif" font-size="10.00" fill="#000000">interpolate_disp_1d</text>
<text text-anchor="middle" x="195" y="-7.5" font-family="Helvetica,sans-Serif" font-size="10.00" fill="#000000">_periodic_self</text>
</a>
</g>
</g>
<!-- Node116&#45;&gt;Node121 -->
<g id="edge5" class="edge">
<title>Node116&#45;&gt;Node121</title>
<path fill="none" stroke="#191970" d="M85.7905,-51.7798C105.3476,-45.2828 129.2706,-37.3355 149.7357,-30.537"/>
<polygon fill="#191970" stroke="#191970" points="84.6762,-48.4618 76.2896,-54.936 86.8831,-55.1048 84.6762,-48.4618"/>
</g>
<!-- Node118 -->
<g id="node3" class="node">
<title>Node118</title>
<g id="a_node3"><a xlink:href="namespacesll__m__sparse__grid__interpolator.html#a27497afcda9d0024745a848b26449a4d" target="_top" xlink:title="interpolate_disp_recursive">
<polygon fill="#ffffff" stroke="#000000" points="295,-104 295,-123 441,-123 441,-104 295,-104"/>
<text text-anchor="middle" x="368" y="-111" font-family="Helvetica,sans-Serif" font-size="10.00" fill="#000000">interpolate_disp_recursive</text>
</a>
</g>
</g>
<!-- Node117&#45;&gt;Node118 -->
<g id="edge2" class="edge">
<title>Node117&#45;&gt;Node118</title>
<path fill="none" stroke="#191970" d="M261.8499,-113.5C272.6547,-113.5 283.8914,-113.5 294.8362,-113.5"/>
<polygon fill="#191970" stroke="#191970" points="261.6467,-110.0001 251.6467,-113.5 261.6466,-117.0001 261.6467,-110.0001"/>
</g>
<!-- Node119 -->
<g id="node4" class="node">
<title>Node119</title>
<g id="a_node4"><a xlink:href="namespacesll__m__sparse__grid__interpolator.html#ada6560fddb123d6ef7b00b5397918de2" target="_top" xlink:title="interpolate_disp">
<polygon fill="#ffffff" stroke="#000000" points="477,-104 477,-123 572,-123 572,-104 477,-104"/>
<text text-anchor="middle" x="524.5" y="-111" font-family="Helvetica,sans-Serif" font-size="10.00" fill="#000000">interpolate_disp</text>
</a>
</g>
</g>
<!-- Node118&#45;&gt;Node119 -->
<g id="edge3" class="edge">
<title>Node118&#45;&gt;Node119</title>
<path fill="none" stroke="#191970" d="M451.4246,-113.5C460.1149,-113.5 468.7196,-113.5 476.8076,-113.5"/>
<polygon fill="#191970" stroke="#191970" points="451.2097,-110.0001 441.2096,-113.5 451.2096,-117.0001 451.2097,-110.0001"/>
</g>
</g>
</svg>
        <g id="navigator" transform="translate(0 0)" fill="#404254">
                <rect fill="#f2f5e9" fill-opacity="0.5" stroke="#606060" stroke-width=".5" x="0" y="0" width="60" height="60"/>
                <use id="zoomplus" xlink:href="#zoomPlus" x="17" y="9" onmousedown="handleZoom(evt,'in')"/>
                <use id="zoomminus" xlink:href="#zoomMin" x="42" y="9" onmousedown="handleZoom(evt,'out')"/>
                <use id="reset" xlink:href="#resetDef" x="30" y="36" onmousedown="handleReset()"/>
                <g id="arrowUp" xlink:href="#dirArrow" transform="translate(30 24)" onmousedown="handlePan(0,-1)">
                  <use xlink:href="#rim" fill="#404040">
                        <set attributeName="fill" to="#808080" begin="arrowUp.mouseover" end="arrowUp.mouseout"/>
                  </use>
                  <path fill="none" stroke="white" stroke-width="1.5" d="M0,-3.0v7 M-2.5,-0.5L0,-3.0L2.5,-0.5"/>
                </g>
                <g id="arrowRight" xlink:href="#dirArrow" transform="rotate(90) translate(36 -43)" onmousedown="handlePan(1,0)">
                  <use xlink:href="#rim" fill="#404040">
                        <set attributeName="fill" to="#808080" begin="arrowRight.mouseover" end="arrowRight.mouseout"/>
                  </use>
                  <path fill="none" stroke="white" stroke-width="1.5" d="M0,-3.0v7 M-2.5,-0.5L0,-3.0L2.5,-0.5"/>
                </g>
                <g id="arrowDown" xlink:href="#dirArrow" transform="rotate(180) translate(-30 -48)" onmousedown="handlePan(0,1)">
                  <use xlink:href="#rim" fill="#404040">
                        <set attributeName="fill" to="#808080" begin="arrowDown.mouseover" end="arrowDown.mouseout"/>
                  </use>
                  <path fill="none" stroke="white" stroke-width="1.5" d="M0,-3.0v7 M-2.5,-0.5L0,-3.0L2.5,-0.5"/>
                </g>
                <g id="arrowLeft" xlink:href="#dirArrow" transform="rotate(270) translate(-36 17)" onmousedown="handlePan(-1,0)">
                  <use xlink:href="#rim" fill="#404040">
                        <set attributeName="fill" to="#808080" begin="arrowLeft.mouseover" end="arrowLeft.mouseout"/>
                  </use>
                  <path fill="none" stroke="white" stroke-width="1.5" d="M0,-3.0v7 M-2.5,-0.5L0,-3.0L2.5,-0.5"/>
                </g>
        </g>
        <svg viewBox="0 0 15 15" width="100%" height="30px" preserveAspectRatio="xMaxYMin meet">
         <g id="arrow_out" transform="scale(0.3 0.3)">
          <a xlink:href="namespacesll__m__sparse__grid__interpolator_aa89226cc4257345b3f25fd8b49ed8cbf_icgraph_org.svg" target="_base">
           <rect id="button" ry="5" rx="5" y="6" x="6" height="38" width="38"
                fill="#f2f5e9" fill-opacity="0.5" stroke="#606060" stroke-width="1.0"/>
           <path id="arrow"
             d="M 11.500037,31.436501 C 11.940474,20.09759 22.043105,11.32322 32.158766,21.979434 L 37.068811,17.246167 C 37.068811,17.246167 37.088388,32 37.088388,32 L 22.160133,31.978069 C 22.160133,31.978069 26.997745,27.140456 26.997745,27.140456 C 18.528582,18.264221 13.291696,25.230495 11.500037,31.436501 z"
             style="fill:#404040;"/>
          </a>
         </g>
        </svg>
</svg>
