<?xml version="1.0" encoding="UTF-8" standalone="no"?>
<!DOCTYPE svg PUBLIC "-//W3C//DTD SVG 1.1//EN"
 "http://www.w3.org/Graphics/SVG/1.1/DTD/svg11.dtd">
<!-- Generated by graphviz version 2.43.0 (0)
 -->
<!-- Title: get_omp_world_size Pages: 1 -->
<svg width="408pt" height="148pt"
 viewBox="0.00 0.00 408.00 147.50" xmlns="http://www.w3.org/2000/svg" xmlns:xlink="http://www.w3.org/1999/xlink">
<g id="graph0" class="graph" transform="scale(1 1) rotate(0) translate(4 143.5)">
<title>get_omp_world_size</title>
<polygon fill="white" stroke="transparent" points="-4,4 -4,-143.5 404,-143.5 404,4 -4,4"/>
<!-- Node1 -->
<g id="node1" class="node">
<title>Node1</title>
<g id="a_node1"><a xlink:title=" ">
<polygon fill="#bfbfbf" stroke="black" points="284,-63 284,-82 400,-82 400,-63 284,-63"/>
<text text-anchor="middle" x="342" y="-70" font-family="Helvetica,sans-Serif" font-size="10.00">get_omp_world_size</text>
</a>
</g>
</g>
<!-- Node2 -->
<g id="node2" class="node">
<title>Node2</title>
<g id="a_node2"><a xlink:href="namespacefmempool.html#a23b26c974416200addfc443357e41ffe" target="_top" xlink:title=" ">
<polygon fill="white" stroke="black" points="156,-120 156,-139 248,-139 248,-120 156,-120"/>
<text text-anchor="middle" x="202" y="-127" font-family="Helvetica,sans-Serif" font-size="10.00">mp_compactify</text>
</a>
</g>
</g>
<!-- Node1&#45;&gt;Node2 -->
<g id="edge1" class="edge">
<title>Node1&#45;&gt;Node2</title>
<path fill="none" stroke="midnightblue" d="M308.37,-85.98C283.09,-96.42 248.69,-110.63 226.17,-119.93"/>
<polygon fill="midnightblue" stroke="midnightblue" points="310,-89.09 317.9,-82.04 307.32,-82.62 310,-89.09"/>
</g>
<!-- Node3 -->
<g id="node3" class="node">
<title>Node3</title>
<g id="a_node3"><a xlink:href="namespacefmempool.html#acaa47cfd5441f3e1cb2611a852dfea18" target="_top" xlink:title=" ">
<polygon fill="white" stroke="black" points="165.5,-82 165.5,-101 238.5,-101 238.5,-82 165.5,-82"/>
<text text-anchor="middle" x="202" y="-89" font-family="Helvetica,sans-Serif" font-size="10.00">mp_finalize</text>
</a>
</g>
</g>
<!-- Node1&#45;&gt;Node3 -->
<g id="edge2" class="edge">
<title>Node1&#45;&gt;Node3</title>
<path fill="none" stroke="midnightblue" d="M273.58,-81.78C261.51,-83.44 249.38,-85.11 238.66,-86.59"/>
<polygon fill="midnightblue" stroke="midnightblue" points="274.25,-85.22 283.67,-80.39 273.29,-78.29 274.25,-85.22"/>
</g>
<!-- Node4 -->
<g id="node4" class="node">
<title>Node4</title>
<g id="a_node4"><a xlink:href="namespacefmempool.html#a4707b24c669b90d37b91cf1b31104d60" target="_top" xlink:title=" ">
<polygon fill="white" stroke="black" points="175.5,-44 175.5,-63 228.5,-63 228.5,-44 175.5,-44"/>
<text text-anchor="middle" x="202" y="-51" font-family="Helvetica,sans-Serif" font-size="10.00">mp_init</text>
</a>
</g>
</g>
<!-- Node1&#45;&gt;Node4 -->
<g id="edge3" class="edge">
<title>Node1&#45;&gt;Node4</title>
<path fill="none" stroke="midnightblue" d="M273.74,-63.24C257.72,-61.03 241.57,-58.81 228.76,-57.05"/>
<polygon fill="midnightblue" stroke="midnightblue" points="273.29,-66.71 283.67,-64.61 274.25,-59.78 273.29,-66.71"/>
</g>
<!-- Node5 -->
<g id="node5" class="node">
<title>Node5</title>
<g id="a_node5"><a xlink:href="namespacefmempool.html#a5a4760ec9ec1446f3d541d7ddaa3ea0a" target="_top" xlink:title=" ">
<polygon fill="white" stroke="black" points="161,-6 161,-25 243,-25 243,-6 161,-6"/>
<text text-anchor="middle" x="202" y="-13" font-family="Helvetica,sans-Serif" font-size="10.00">mp_statistics</text>
</a>
</g>
</g>
<!-- Node1&#45;&gt;Node5 -->
<g id="edge4" class="edge">
<title>Node1&#45;&gt;Node5</title>
<path fill="none" stroke="midnightblue" d="M308.37,-59.02C283.09,-48.58 248.69,-34.37 226.17,-25.07"/>
<polygon fill="midnightblue" stroke="midnightblue" points="307.32,-62.38 317.9,-62.96 310,-55.91 307.32,-62.38"/>
</g>
<!-- Node6 -->
<g id="node6" class="node">
<title>Node6</title>
<g id="a_node6"><a xlink:href="namespacesll__m__decomposition.html#af111792955e22a96df12da1461589518" target="_top" xlink:title=" ">
<polygon fill="white" stroke="black" points="0,-0.5 0,-30.5 120,-30.5 120,-0.5 0,-0.5"/>
<text text-anchor="start" x="8" y="-18.5" font-family="Helvetica,sans-Serif" font-size="10.00">sll_m_decomposition</text>
<text text-anchor="middle" x="60" y="-7.5" font-family="Helvetica,sans-Serif" font-size="10.00">::dummy_mempool</text>
</a>
</g>
</g>
<!-- Node5&#45;&gt;Node6 -->
<g id="edge5" class="edge">
<title>Node5&#45;&gt;Node6</title>
<path fill="none" stroke="midnightblue" d="M150.79,-15.5C140.86,-15.5 130.36,-15.5 120.17,-15.5"/>
<polygon fill="midnightblue" stroke="midnightblue" points="150.88,-19 160.88,-15.5 150.88,-12 150.88,-19"/>
</g>
</g>
</svg>
