<?xml version="1.0" encoding="UTF-8" standalone="no"?>
<!DOCTYPE svg PUBLIC "-//W3C//DTD SVG 1.1//EN"
 "http://www.w3.org/Graphics/SVG/1.1/DTD/svg11.dtd">
<!-- Generated by graphviz version 2.40.1 (20161225.0304)
 -->
<!-- Title: compute_total_num_splines Pages: 1 -->
<svg width="503pt" height="78pt"
 viewBox="0.00 0.00 503.00 77.50" xmlns="http://www.w3.org/2000/svg" xmlns:xlink="http://www.w3.org/1999/xlink">
<g id="graph0" class="graph" transform="scale(1 1) rotate(0) translate(4 73.5)">
<title>compute_total_num_splines</title>
<polygon fill="#ffffff" stroke="transparent" points="-4,4 -4,-73.5 499,-73.5 499,4 -4,4"/>
<!-- Node95 -->
<g id="node1" class="node">
<title>Node95</title>
<polygon fill="#bfbfbf" stroke="#000000" points="0,-28 0,-47 154,-47 154,-28 0,-28"/>
<text text-anchor="middle" x="77" y="-35" font-family="Helvetica,sans-Serif" font-size="10.00" fill="#000000">compute_total_num_splines</text>
</g>
<!-- Node96 -->
<g id="node2" class="node">
<title>Node96</title>
<g id="a_node2"><a xlink:href="namespacesll__m__general__coordinate__elliptic__solver.html#a2371433254cb8dfeb5dabf61337f90bd" target="_top" xlink:title="compute_b_spline_at_x">
<polygon fill="#ffffff" stroke="#000000" points="190,-28 190,-47 321,-47 321,-28 190,-28"/>
<text text-anchor="middle" x="255.5" y="-35" font-family="Helvetica,sans-Serif" font-size="10.00" fill="#000000">compute_b_spline_at_x</text>
</a>
</g>
</g>
<!-- Node95&#45;&gt;Node96 -->
<g id="edge1" class="edge">
<title>Node95&#45;&gt;Node96</title>
<path fill="none" stroke="#191970" d="M154.2545,-37.5C162.6948,-37.5 171.2808,-37.5 179.7032,-37.5"/>
<polygon fill="#191970" stroke="#191970" points="179.8748,-41.0001 189.8747,-37.5 179.8747,-34.0001 179.8748,-41.0001"/>
</g>
<!-- Node97 -->
<g id="node3" class="node">
<title>Node97</title>
<g id="a_node3"><a xlink:href="namespacesll__m__general__coordinate__elliptic__solver.html#aa9ceef40154354e9427b67d594a0f821" target="_top" xlink:title="compute_index">
<polygon fill="#ffffff" stroke="#000000" points="380,-50 380,-69 472,-69 472,-50 380,-50"/>
<text text-anchor="middle" x="426" y="-57" font-family="Helvetica,sans-Serif" font-size="10.00" fill="#000000">compute_index</text>
</a>
</g>
</g>
<!-- Node96&#45;&gt;Node97 -->
<g id="edge2" class="edge">
<title>Node96&#45;&gt;Node97</title>
<path fill="none" stroke="#191970" d="M321.4198,-46.0058C337.4087,-48.0689 354.3554,-50.2555 369.8457,-52.2543"/>
<polygon fill="#191970" stroke="#191970" points="369.4243,-55.7288 379.79,-53.5374 370.3201,-48.7864 369.4243,-55.7288"/>
</g>
<!-- Node98 -->
<g id="node4" class="node">
<title>Node98</title>
<g id="a_node4"><a xlink:href="namespacesll__m__general__coordinate__elliptic__solver.html#a28d7b2c5dc102d89fd10040982029e00" target="_top" xlink:title="compute_local_to_global\l_splines_indices">
<polygon fill="#ffffff" stroke="#000000" points="357,-.5 357,-30.5 495,-30.5 495,-.5 357,-.5"/>
<text text-anchor="start" x="365" y="-18.5" font-family="Helvetica,sans-Serif" font-size="10.00" fill="#000000">compute_local_to_global</text>
<text text-anchor="middle" x="426" y="-7.5" font-family="Helvetica,sans-Serif" font-size="10.00" fill="#000000">_splines_indices</text>
</a>
</g>
</g>
<!-- Node96&#45;&gt;Node98 -->
<g id="edge3" class="edge">
<title>Node96&#45;&gt;Node98</title>
<path fill="none" stroke="#191970" d="M321.4198,-28.9942C329.7715,-27.9166 338.3845,-26.8052 346.9148,-25.7045"/>
<polygon fill="#191970" stroke="#191970" points="347.4002,-29.171 356.87,-24.42 346.5043,-22.2286 347.4002,-29.171"/>
</g>
</g>
</svg>
