<?xml version="1.0" encoding="UTF-8" standalone="no"?>
<!DOCTYPE svg PUBLIC "-//W3C//DTD SVG 1.1//EN"
 "http://www.w3.org/Graphics/SVG/1.1/DTD/svg11.dtd">
<!-- Generated by graphviz version 2.38.0 (20140413.2041)
 -->
<!-- Title: periodic_advect_1d_constant Pages: 1 -->
<svg width="535pt" height="210pt"
 viewBox="0.00 0.00 535.00 210.00" xmlns="http://www.w3.org/2000/svg" xmlns:xlink="http://www.w3.org/1999/xlink">
<g id="graph0" class="graph" transform="scale(1 1) rotate(0) translate(4 206)">
<title>periodic_advect_1d_constant</title>
<polygon fill="white" stroke="none" points="-4,4 -4,-206 531,-206 531,4 -4,4"/>
<!-- Node1 -->
<g id="node1" class="node"><title>Node1</title>
<polygon fill="#bfbfbf" stroke="black" points="0,-122.5 0,-152.5 101,-152.5 101,-122.5 0,-122.5"/>
<text text-anchor="start" x="8" y="-140.5" font-family="Helvetica,sans-Serif" font-size="10.00">periodic_advect_1d</text>
<text text-anchor="middle" x="50.5" y="-129.5" font-family="Helvetica,sans-Serif" font-size="10.00">_constant</text>
</g>
<!-- Node2 -->
<g id="node2" class="node"><title>Node2</title>
<g id="a_node2"><a xlink:href="namespacesll__m__periodic__interp.html#af13c2d535538f2d6ca1e3e7b40b38139" target="_top" xlink:title="sll_m_periodic_interp\l::sll_s_periodic_interp">
<polygon fill="white" stroke="black" points="137,-122.5 137,-152.5 248,-152.5 248,-122.5 137,-122.5"/>
<text text-anchor="start" x="145" y="-140.5" font-family="Helvetica,sans-Serif" font-size="10.00">sll_m_periodic_interp</text>
<text text-anchor="middle" x="192.5" y="-129.5" font-family="Helvetica,sans-Serif" font-size="10.00">::sll_s_periodic_interp</text>
</a>
</g>
</g>
<!-- Node1&#45;&gt;Node2 -->
<g id="edge1" class="edge"><title>Node1&#45;&gt;Node2</title>
<path fill="none" stroke="midnightblue" d="M101.253,-137.5C109.411,-137.5 117.97,-137.5 126.433,-137.5"/>
<polygon fill="midnightblue" stroke="midnightblue" points="126.674,-141 136.674,-137.5 126.674,-134 126.674,-141"/>
</g>
<!-- Node3 -->
<g id="node3" class="node"><title>Node3</title>
<g id="a_node3"><a xlink:href="namespacesll__m__periodic__interp.html#a20f44b165195c04435948cc82e4e6996" target="_top" xlink:title="sll_m_periodic_interp\l::fourier1dperlagodd">
<polygon fill="white" stroke="black" points="284,-171.5 284,-201.5 392,-201.5 392,-171.5 284,-171.5"/>
<text text-anchor="start" x="292" y="-189.5" font-family="Helvetica,sans-Serif" font-size="10.00">sll_m_periodic_interp</text>
<text text-anchor="middle" x="338" y="-178.5" font-family="Helvetica,sans-Serif" font-size="10.00">::fourier1dperlagodd</text>
</a>
</g>
</g>
<!-- Node2&#45;&gt;Node3 -->
<g id="edge2" class="edge"><title>Node2&#45;&gt;Node3</title>
<path fill="none" stroke="midnightblue" d="M237.726,-152.601C252.047,-157.492 268.093,-162.971 283.039,-168.074"/>
<polygon fill="midnightblue" stroke="midnightblue" points="282.079,-171.445 292.673,-171.364 284.341,-164.82 282.079,-171.445"/>
</g>
<!-- Node4 -->
<g id="node4" class="node"><title>Node4</title>
<g id="a_node4"><a xlink:href="namespacesll__m__periodic__interp.html#a50ad94252b4760e3b62e8c7bac5a27ec" target="_top" xlink:title="sll_m_periodic_interp\l::fourier1dper">
<polygon fill="white" stroke="black" points="284,-122.5 284,-152.5 392,-152.5 392,-122.5 284,-122.5"/>
<text text-anchor="start" x="292" y="-140.5" font-family="Helvetica,sans-Serif" font-size="10.00">sll_m_periodic_interp</text>
<text text-anchor="middle" x="338" y="-129.5" font-family="Helvetica,sans-Serif" font-size="10.00">::fourier1dper</text>
</a>
</g>
</g>
<!-- Node2&#45;&gt;Node4 -->
<g id="edge3" class="edge"><title>Node2&#45;&gt;Node4</title>
<path fill="none" stroke="midnightblue" d="M248.161,-137.5C256.494,-137.5 265.155,-137.5 273.656,-137.5"/>
<polygon fill="midnightblue" stroke="midnightblue" points="273.913,-141 283.913,-137.5 273.913,-134 273.913,-141"/>
</g>
<!-- Node5 -->
<g id="node5" class="node"><title>Node5</title>
<g id="a_node5"><a xlink:href="namespacesll__m__fft.html#ac3f0bdd60b0eb75e936d13bf15f06ea2" target="_top" xlink:title="Compute fast Fourier transform in real to real mode. ">
<polygon fill="white" stroke="black" points="290.5,-73.5 290.5,-103.5 385.5,-103.5 385.5,-73.5 290.5,-73.5"/>
<text text-anchor="start" x="298.5" y="-91.5" font-family="Helvetica,sans-Serif" font-size="10.00">sll_m_fft::sll_s_fft</text>
<text text-anchor="middle" x="338" y="-80.5" font-family="Helvetica,sans-Serif" font-size="10.00">_exec_r2r_1d</text>
</a>
</g>
</g>
<!-- Node2&#45;&gt;Node5 -->
<g id="edge4" class="edge"><title>Node2&#45;&gt;Node5</title>
<path fill="none" stroke="midnightblue" d="M237.726,-122.399C252.047,-117.508 268.093,-112.029 283.039,-106.926"/>
<polygon fill="midnightblue" stroke="midnightblue" points="284.341,-110.18 292.673,-103.636 282.079,-103.555 284.341,-110.18"/>
</g>
<!-- Node6 -->
<g id="node6" class="node"><title>Node6</title>
<g id="a_node6"><a xlink:href="namespacesll__m__fft.html#a07ee4cd52316d2769eee6c35861d1482" target="_top" xlink:title="Compute fast Fourier transform in real to complex mode. ">
<polygon fill="white" stroke="black" points="430,-147.5 430,-177.5 525,-177.5 525,-147.5 430,-147.5"/>
<text text-anchor="start" x="438" y="-165.5" font-family="Helvetica,sans-Serif" font-size="10.00">sll_m_fft::sll_s_fft</text>
<text text-anchor="middle" x="477.5" y="-154.5" font-family="Helvetica,sans-Serif" font-size="10.00">_exec_r2c_1d</text>
</a>
</g>
</g>
<!-- Node5&#45;&gt;Node6 -->
<g id="edge5" class="edge"><title>Node5&#45;&gt;Node6</title>
<path fill="none" stroke="midnightblue" d="M373.076,-103.546C379.462,-106.653 386.01,-110.039 392,-113.5 408.867,-123.244 411.225,-128.598 428,-138.5 430.346,-139.885 432.783,-141.264 435.26,-142.621"/>
<polygon fill="midnightblue" stroke="midnightblue" points="433.839,-145.829 444.316,-147.408 437.111,-139.64 433.839,-145.829"/>
</g>
<!-- Node7 -->
<g id="node7" class="node"><title>Node7</title>
<g id="a_node7"><a xlink:href="namespacesll__m__fft.html#a4b923cd83abdc837029b1eae8fe0d4ed" target="_top" xlink:title="Subroutine to set a complex mode to the real representation of r2r. ">
<polygon fill="white" stroke="black" points="428,-98.5 428,-128.5 527,-128.5 527,-98.5 428,-98.5"/>
<text text-anchor="start" x="436" y="-116.5" font-family="Helvetica,sans-Serif" font-size="10.00">sll_m_fft::sll_s_fft</text>
<text text-anchor="middle" x="477.5" y="-105.5" font-family="Helvetica,sans-Serif" font-size="10.00">_set_mode_c2r_1d</text>
</a>
</g>
</g>
<!-- Node5&#45;&gt;Node7 -->
<g id="edge6" class="edge"><title>Node5&#45;&gt;Node7</title>
<path fill="none" stroke="midnightblue" d="M385.551,-96.9639C395.824,-98.8317 406.838,-100.834 417.53,-102.778"/>
<polygon fill="midnightblue" stroke="midnightblue" points="417.183,-106.272 427.648,-104.618 418.435,-99.3853 417.183,-106.272"/>
</g>
<!-- Node8 -->
<g id="node8" class="node"><title>Node8</title>
<g id="a_node8"><a xlink:href="namespacesll__m__fft.html#af3511e8ad158957634b1fd7ee1d2e73b" target="_top" xlink:title="Function to reconstruct a complex FFT mode from the data of a r2r transform. ">
<polygon fill="white" stroke="black" points="428,-49.5 428,-79.5 527,-79.5 527,-49.5 428,-49.5"/>
<text text-anchor="start" x="436" y="-67.5" font-family="Helvetica,sans-Serif" font-size="10.00">sll_m_fft::sll_f_fft</text>
<text text-anchor="middle" x="477.5" y="-56.5" font-family="Helvetica,sans-Serif" font-size="10.00">_get_mode_r2c_1d</text>
</a>
</g>
</g>
<!-- Node5&#45;&gt;Node8 -->
<g id="edge7" class="edge"><title>Node5&#45;&gt;Node8</title>
<path fill="none" stroke="midnightblue" d="M385.551,-80.3747C395.824,-78.5816 406.838,-76.6591 417.53,-74.7929"/>
<polygon fill="midnightblue" stroke="midnightblue" points="418.398,-78.1944 427.648,-73.027 417.195,-71.2986 418.398,-78.1944"/>
</g>
<!-- Node9 -->
<g id="node9" class="node"><title>Node9</title>
<g id="a_node9"><a xlink:href="namespacesll__m__fft.html#a293ae19515b20fa6d456ef2c52f99b23" target="_top" xlink:title="Compute fast Fourier transform in complex to real mode. ">
<polygon fill="white" stroke="black" points="430,-0.5 430,-30.5 525,-30.5 525,-0.5 430,-0.5"/>
<text text-anchor="start" x="438" y="-18.5" font-family="Helvetica,sans-Serif" font-size="10.00">sll_m_fft::sll_s_fft</text>
<text text-anchor="middle" x="477.5" y="-7.5" font-family="Helvetica,sans-Serif" font-size="10.00">_exec_c2r_1d</text>
</a>
</g>
</g>
<!-- Node5&#45;&gt;Node9 -->
<g id="edge8" class="edge"><title>Node5&#45;&gt;Node9</title>
<path fill="none" stroke="midnightblue" d="M366.591,-73.4481C384.132,-63.9214 407.347,-51.391 428,-40.5 431.25,-38.7864 434.628,-37.0182 438.021,-35.2514"/>
<polygon fill="midnightblue" stroke="midnightblue" points="439.693,-38.3267 446.959,-30.6159 436.471,-32.1126 439.693,-38.3267"/>
</g>
</g>
</svg>
