<?xml version="1.0" encoding="UTF-8" standalone="no"?>
<!DOCTYPE svg PUBLIC "-//W3C//DTD SVG 1.1//EN"
 "http://www.w3.org/Graphics/SVG/1.1/DTD/svg11.dtd">
<!-- Generated by graphviz version 2.43.0 (0)
 -->
<!-- Title: inner_product_1d_fem Pages: 1 -->
<svg width="541pt" height="186pt"
 viewBox="0.00 0.00 541.00 186.00" xmlns="http://www.w3.org/2000/svg" xmlns:xlink="http://www.w3.org/1999/xlink">
<g id="graph0" class="graph" transform="scale(1 1) rotate(0) translate(4 182)">
<title>inner_product_1d_fem</title>
<polygon fill="white" stroke="transparent" points="-4,4 -4,-182 537,-182 537,4 -4,4"/>
<!-- Node1 -->
<g id="node1" class="node">
<title>Node1</title>
<g id="a_node1"><a xlink:title=" ">
<polygon fill="#bfbfbf" stroke="black" points="0,-79 0,-98 125,-98 125,-79 0,-79"/>
<text text-anchor="middle" x="62.5" y="-86" font-family="Helvetica,sans-Serif" font-size="10.00">inner_product_1d_fem</text>
</a>
</g>
</g>
<!-- Node2 -->
<g id="node2" class="node">
<title>Node2</title>
<g id="a_node2"><a xlink:href="namespacesll__m__maxwell__1d__fem.html#a0292d383eb02a02563a4a11367866848" target="_top" xlink:title=" ">
<polygon fill="white" stroke="black" points="161,-79 161,-98 251,-98 251,-79 161,-79"/>
<text text-anchor="middle" x="206" y="-86" font-family="Helvetica,sans-Serif" font-size="10.00">solve_circulant</text>
</a>
</g>
</g>
<!-- Node1&#45;&gt;Node2 -->
<g id="edge1" class="edge">
<title>Node1&#45;&gt;Node2</title>
<path fill="none" stroke="midnightblue" d="M125.15,-88.5C133.73,-88.5 142.49,-88.5 150.91,-88.5"/>
<polygon fill="midnightblue" stroke="midnightblue" points="150.99,-92 160.99,-88.5 150.99,-85 150.99,-92"/>
</g>
<!-- Node3 -->
<g id="node3" class="node">
<title>Node3</title>
<g id="a_node3"><a xlink:href="namespacesll__m__fft.html#ac3f0bdd60b0eb75e936d13bf15f06ea2" target="_top" xlink:title="Compute fast Fourier transform in real to real mode.">
<polygon fill="white" stroke="black" points="287,-73.5 287,-103.5 389,-103.5 389,-73.5 287,-73.5"/>
<text text-anchor="start" x="295" y="-91.5" font-family="Helvetica,sans-Serif" font-size="10.00">sll_m_fft::sll_s_fft</text>
<text text-anchor="middle" x="338" y="-80.5" font-family="Helvetica,sans-Serif" font-size="10.00">_exec_r2r_1d</text>
</a>
</g>
</g>
<!-- Node2&#45;&gt;Node3 -->
<g id="edge2" class="edge">
<title>Node2&#45;&gt;Node3</title>
<path fill="none" stroke="midnightblue" d="M251.01,-88.5C259.27,-88.5 268.04,-88.5 276.69,-88.5"/>
<polygon fill="midnightblue" stroke="midnightblue" points="276.76,-92 286.76,-88.5 276.76,-85 276.76,-92"/>
</g>
<!-- Node4 -->
<g id="node4" class="node">
<title>Node4</title>
<g id="a_node4"><a xlink:href="namespacesll__m__fft.html#af3511e8ad158957634b1fd7ee1d2e73b" target="_top" xlink:title="Function to reconstruct a complex FFT mode from the data of a r2r transform.">
<polygon fill="white" stroke="black" points="425,-147.5 425,-177.5 533,-177.5 533,-147.5 425,-147.5"/>
<text text-anchor="start" x="433" y="-165.5" font-family="Helvetica,sans-Serif" font-size="10.00">sll_m_fft::sll_f_fft</text>
<text text-anchor="middle" x="479" y="-154.5" font-family="Helvetica,sans-Serif" font-size="10.00">_get_mode_r2c_1d</text>
</a>
</g>
</g>
<!-- Node3&#45;&gt;Node4 -->
<g id="edge3" class="edge">
<title>Node3&#45;&gt;Node4</title>
<path fill="none" stroke="midnightblue" d="M363.47,-103.62C380.48,-113.9 403.82,-127.58 425,-138.5 427.92,-140 430.95,-141.51 434.02,-143"/>
<polygon fill="midnightblue" stroke="midnightblue" points="432.73,-146.26 443.26,-147.38 435.72,-139.94 432.73,-146.26"/>
</g>
<!-- Node5 -->
<g id="node5" class="node">
<title>Node5</title>
<g id="a_node5"><a xlink:href="namespacesll__m__fft.html#a293ae19515b20fa6d456ef2c52f99b23" target="_top" xlink:title="Compute fast Fourier transform in complex to real mode.">
<polygon fill="white" stroke="black" points="428,-98.5 428,-128.5 530,-128.5 530,-98.5 428,-98.5"/>
<text text-anchor="start" x="436" y="-116.5" font-family="Helvetica,sans-Serif" font-size="10.00">sll_m_fft::sll_s_fft</text>
<text text-anchor="middle" x="479" y="-105.5" font-family="Helvetica,sans-Serif" font-size="10.00">_exec_c2r_1d</text>
</a>
</g>
</g>
<!-- Node3&#45;&gt;Node5 -->
<g id="edge4" class="edge">
<title>Node3&#45;&gt;Node5</title>
<path fill="none" stroke="midnightblue" d="M389.18,-97.53C398.53,-99.21 408.39,-100.98 418,-102.71"/>
<polygon fill="midnightblue" stroke="midnightblue" points="417.43,-106.16 427.89,-104.49 418.67,-99.27 417.43,-106.16"/>
</g>
<!-- Node6 -->
<g id="node6" class="node">
<title>Node6</title>
<g id="a_node6"><a xlink:href="namespacesll__m__fft.html#a07ee4cd52316d2769eee6c35861d1482" target="_top" xlink:title="Compute fast Fourier transform in real to complex mode.">
<polygon fill="white" stroke="black" points="428,-49.5 428,-79.5 530,-79.5 530,-49.5 428,-49.5"/>
<text text-anchor="start" x="436" y="-67.5" font-family="Helvetica,sans-Serif" font-size="10.00">sll_m_fft::sll_s_fft</text>
<text text-anchor="middle" x="479" y="-56.5" font-family="Helvetica,sans-Serif" font-size="10.00">_exec_r2c_1d</text>
</a>
</g>
</g>
<!-- Node3&#45;&gt;Node6 -->
<g id="edge5" class="edge">
<title>Node3&#45;&gt;Node6</title>
<path fill="none" stroke="midnightblue" d="M389.18,-79.84C398.53,-78.22 408.39,-76.52 418,-74.86"/>
<polygon fill="midnightblue" stroke="midnightblue" points="418.63,-78.3 427.89,-73.15 417.44,-71.4 418.63,-78.3"/>
</g>
<!-- Node7 -->
<g id="node7" class="node">
<title>Node7</title>
<g id="a_node7"><a xlink:href="namespacesll__m__fft.html#a4b923cd83abdc837029b1eae8fe0d4ed" target="_top" xlink:title="Subroutine to set a complex mode to the real representation of r2r.">
<polygon fill="white" stroke="black" points="425.5,-0.5 425.5,-30.5 532.5,-30.5 532.5,-0.5 425.5,-0.5"/>
<text text-anchor="start" x="433.5" y="-18.5" font-family="Helvetica,sans-Serif" font-size="10.00">sll_m_fft::sll_s_fft</text>
<text text-anchor="middle" x="479" y="-7.5" font-family="Helvetica,sans-Serif" font-size="10.00">_set_mode_c2r_1d</text>
</a>
</g>
</g>
<!-- Node3&#45;&gt;Node7 -->
<g id="edge6" class="edge">
<title>Node3&#45;&gt;Node7</title>
<path fill="none" stroke="midnightblue" d="M365.1,-73.32C382.02,-63.64 404.62,-50.98 425,-40.5 428.51,-38.69 432.18,-36.86 435.87,-35.05"/>
<polygon fill="midnightblue" stroke="midnightblue" points="437.55,-38.13 445.03,-30.62 434.51,-31.82 437.55,-38.13"/>
</g>
</g>
</svg>
