<?xml version="1.0" encoding="UTF-8" standalone="no"?>
<!DOCTYPE svg PUBLIC "-//W3C//DTD SVG 1.1//EN"
 "http://www.w3.org/Graphics/SVG/1.1/DTD/svg11.dtd">
<!-- Generated by graphviz version 2.43.0 (0)
 -->
<!-- Title: sll_s_dg_interpolator_1d_init Pages: 1 -->
<svg width="601pt" height="230pt"
 viewBox="0.00 0.00 601.00 230.00" xmlns="http://www.w3.org/2000/svg" xmlns:xlink="http://www.w3.org/1999/xlink">
<g id="graph0" class="graph" transform="scale(1 1) rotate(0) translate(4 226)">
<title>sll_s_dg_interpolator_1d_init</title>
<polygon fill="white" stroke="transparent" points="-4,4 -4,-226 597,-226 597,4 -4,4"/>
<!-- Node1 -->
<g id="node1" class="node">
<title>Node1</title>
<g id="a_node1"><a xlink:title=" ">
<polygon fill="#bfbfbf" stroke="black" points="0,-96 0,-126 118,-126 118,-96 0,-96"/>
<text text-anchor="start" x="8" y="-114" font-family="Helvetica,sans-Serif" font-size="10.00">sll_s_dg_interpolator</text>
<text text-anchor="middle" x="59" y="-103" font-family="Helvetica,sans-Serif" font-size="10.00">_1d_init</text>
</a>
</g>
</g>
<!-- Node2 -->
<g id="node2" class="node">
<title>Node2</title>
<g id="a_node2"><a xlink:href="namespacesll__m__gauss__legendre__integration.html#a2b7c9ab61e7de446803fedecf4824099" target="_top" xlink:title=" ">
<polygon fill="white" stroke="black" points="154,-180.5 154,-221.5 289,-221.5 289,-180.5 154,-180.5"/>
<text text-anchor="start" x="162" y="-209.5" font-family="Helvetica,sans-Serif" font-size="10.00">sll_m_gauss_legendre</text>
<text text-anchor="start" x="162" y="-198.5" font-family="Helvetica,sans-Serif" font-size="10.00">_integration::sll_f_gauss</text>
<text text-anchor="middle" x="221.5" y="-187.5" font-family="Helvetica,sans-Serif" font-size="10.00">_legendre_points</text>
</a>
</g>
</g>
<!-- Node1&#45;&gt;Node2 -->
<g id="edge1" class="edge">
<title>Node1&#45;&gt;Node2</title>
<path fill="none" stroke="midnightblue" d="M81.86,-126.23C100.58,-138.96 128.46,-157.18 154,-171 157.04,-172.65 160.2,-174.28 163.4,-175.9"/>
<polygon fill="midnightblue" stroke="midnightblue" points="161.99,-179.1 172.51,-180.35 165.06,-172.81 161.99,-179.1"/>
</g>
<!-- Node3 -->
<g id="node3" class="node">
<title>Node3</title>
<g id="a_node3"><a xlink:href="namespacesll__m__gauss__legendre__integration.html#a47b7463159f1c9e00a9b4645bd122b6f" target="_top" xlink:title=" ">
<polygon fill="white" stroke="black" points="154,-120.5 154,-161.5 289,-161.5 289,-120.5 154,-120.5"/>
<text text-anchor="start" x="162" y="-149.5" font-family="Helvetica,sans-Serif" font-size="10.00">sll_m_gauss_legendre</text>
<text text-anchor="start" x="162" y="-138.5" font-family="Helvetica,sans-Serif" font-size="10.00">_integration::sll_f_gauss</text>
<text text-anchor="middle" x="221.5" y="-127.5" font-family="Helvetica,sans-Serif" font-size="10.00">_legendre_weights</text>
</a>
</g>
</g>
<!-- Node1&#45;&gt;Node3 -->
<g id="edge2" class="edge">
<title>Node1&#45;&gt;Node3</title>
<path fill="none" stroke="midnightblue" d="M118.4,-121.92C126.71,-123.47 135.36,-125.09 143.95,-126.69"/>
<polygon fill="midnightblue" stroke="midnightblue" points="143.51,-130.17 153.99,-128.57 144.8,-123.29 143.51,-130.17"/>
</g>
<!-- Node4 -->
<g id="node4" class="node">
<title>Node4</title>
<g id="a_node4"><a xlink:href="namespacesll__m__gauss__lobatto__integration.html#a43443dd7dd80f1289d964b572cd6ee2c" target="_top" xlink:title="Returns a 1d array of size (n) containing gauss&#45;lobatto points in the interval [a,...">
<polygon fill="white" stroke="black" points="159,-60.5 159,-101.5 284,-101.5 284,-60.5 159,-60.5"/>
<text text-anchor="start" x="167" y="-89.5" font-family="Helvetica,sans-Serif" font-size="10.00">sll_m_gauss_lobatto</text>
<text text-anchor="start" x="167" y="-78.5" font-family="Helvetica,sans-Serif" font-size="10.00">_integration::sll_f</text>
<text text-anchor="middle" x="221.5" y="-67.5" font-family="Helvetica,sans-Serif" font-size="10.00">_gauss_lobatto_points</text>
</a>
</g>
</g>
<!-- Node1&#45;&gt;Node4 -->
<g id="edge3" class="edge">
<title>Node1&#45;&gt;Node4</title>
<path fill="none" stroke="midnightblue" d="M118.4,-100.08C128.28,-98.24 138.64,-96.3 148.81,-94.4"/>
<polygon fill="midnightblue" stroke="midnightblue" points="149.72,-97.79 158.9,-92.51 148.43,-90.91 149.72,-97.79"/>
</g>
<!-- Node7 -->
<g id="node7" class="node">
<title>Node7</title>
<g id="a_node7"><a xlink:href="namespacesll__m__gauss__lobatto__integration.html#ab2dd3e9cafb094226c63f629745b0654" target="_top" xlink:title="Returns a 1d array of size (n) containing gauss&#45;lobatto weights in the interval [a,...">
<polygon fill="white" stroke="black" points="154.5,-0.5 154.5,-41.5 288.5,-41.5 288.5,-0.5 154.5,-0.5"/>
<text text-anchor="start" x="162.5" y="-29.5" font-family="Helvetica,sans-Serif" font-size="10.00">sll_m_gauss_lobatto</text>
<text text-anchor="start" x="162.5" y="-18.5" font-family="Helvetica,sans-Serif" font-size="10.00">_integration::sll_f</text>
<text text-anchor="middle" x="221.5" y="-7.5" font-family="Helvetica,sans-Serif" font-size="10.00">_gauss_lobatto_weights</text>
</a>
</g>
</g>
<!-- Node1&#45;&gt;Node7 -->
<g id="edge6" class="edge">
<title>Node1&#45;&gt;Node7</title>
<path fill="none" stroke="midnightblue" d="M81.86,-95.77C100.58,-83.04 128.46,-64.82 154,-51 157.04,-49.35 160.2,-47.72 163.4,-46.1"/>
<polygon fill="midnightblue" stroke="midnightblue" points="165.06,-49.19 172.51,-41.65 161.99,-42.9 165.06,-49.19"/>
</g>
<!-- Node5 -->
<g id="node5" class="node">
<title>Node5</title>
<g id="a_node5"><a xlink:href="namespacesll__m__gauss__lobatto__integration.html#aef28cd44b846400f5133a0ee289babbc" target="_top" xlink:title="This comes from http://dl.acm.org, Algorithme 726 : ORTHPOL, appendices and supplements To use those ...">
<polygon fill="white" stroke="black" points="325,-36 325,-66 441,-66 441,-36 325,-36"/>
<text text-anchor="start" x="333" y="-54" font-family="Helvetica,sans-Serif" font-size="10.00">sll_m_gauss_lobatto</text>
<text text-anchor="middle" x="383" y="-43" font-family="Helvetica,sans-Serif" font-size="10.00">_integration::dlob</text>
</a>
</g>
</g>
<!-- Node4&#45;&gt;Node5 -->
<g id="edge4" class="edge">
<title>Node4&#45;&gt;Node5</title>
<path fill="none" stroke="midnightblue" d="M284.17,-69.4C294.23,-67.51 304.69,-65.54 314.87,-63.63"/>
<polygon fill="midnightblue" stroke="midnightblue" points="315.76,-67.02 324.94,-61.73 314.46,-60.14 315.76,-67.02"/>
</g>
<!-- Node6 -->
<g id="node6" class="node">
<title>Node6</title>
<g id="a_node6"><a xlink:href="namespacesll__m__gauss__lobatto__integration.html#a20a90d157ba32cd27c5d6f89eccf3735" target="_top" xlink:title="Given n and a measure dlambda, this routine generates the n&#45;point Gaussian quadrature formula.">
<polygon fill="white" stroke="black" points="477,-36 477,-66 593,-66 593,-36 477,-36"/>
<text text-anchor="start" x="485" y="-54" font-family="Helvetica,sans-Serif" font-size="10.00">sll_m_gauss_lobatto</text>
<text text-anchor="middle" x="535" y="-43" font-family="Helvetica,sans-Serif" font-size="10.00">_integration::dgauss</text>
</a>
</g>
</g>
<!-- Node5&#45;&gt;Node6 -->
<g id="edge5" class="edge">
<title>Node5&#45;&gt;Node6</title>
<path fill="none" stroke="midnightblue" d="M441.14,-51C449.38,-51 457.92,-51 466.34,-51"/>
<polygon fill="midnightblue" stroke="midnightblue" points="466.53,-54.5 476.53,-51 466.53,-47.5 466.53,-54.5"/>
</g>
<!-- Node7&#45;&gt;Node5 -->
<g id="edge7" class="edge">
<title>Node7&#45;&gt;Node5</title>
<path fill="none" stroke="midnightblue" d="M288.76,-33.46C297.37,-35.08 306.2,-36.74 314.83,-38.37"/>
<polygon fill="midnightblue" stroke="midnightblue" points="314.36,-41.84 324.84,-40.25 315.66,-34.96 314.36,-41.84"/>
</g>
</g>
</svg>
