<?xml version="1.0" encoding="UTF-8" standalone="no"?>
<!DOCTYPE svg PUBLIC "-//W3C//DTD SVG 1.1//EN"
 "http://www.w3.org/Graphics/SVG/1.1/DTD/svg11.dtd">
<!-- Generated by graphviz version 2.43.0 (0)
 -->
<!-- Title: sll_s_compute_shape_circle Pages: 1 -->
<svg width="684pt" height="193pt"
 viewBox="0.00 0.00 684.00 192.50" xmlns="http://www.w3.org/2000/svg" xmlns:xlink="http://www.w3.org/1999/xlink">
<g id="graph0" class="graph" transform="scale(1 1) rotate(0) translate(4 188.5)">
<title>sll_s_compute_shape_circle</title>
<polygon fill="white" stroke="transparent" points="-4,4 -4,-188.5 680,-188.5 680,4 -4,4"/>
<!-- Node1 -->
<g id="node1" class="node">
<title>Node1</title>
<g id="a_node1"><a xlink:title=" ">
<polygon fill="#bfbfbf" stroke="black" points="555,-72 555,-102 676,-102 676,-72 555,-72"/>
<text text-anchor="start" x="563" y="-90" font-family="Helvetica,sans-Serif" font-size="10.00">sll_s_compute_shape</text>
<text text-anchor="middle" x="615.5" y="-79" font-family="Helvetica,sans-Serif" font-size="10.00">_circle</text>
</a>
</g>
</g>
<!-- Node2 -->
<g id="node2" class="node">
<title>Node2</title>
<g id="a_node2"><a xlink:href="namespacesll__m__gyroaverage__2d__polar.html#aa3c53d2fcbfe15d0aa3efa043836536e" target="_top" xlink:title=" ">
<polygon fill="white" stroke="black" points="362,-131.5 362,-172.5 519,-172.5 519,-131.5 362,-131.5"/>
<text text-anchor="start" x="370" y="-160.5" font-family="Helvetica,sans-Serif" font-size="10.00">sll_m_gyroaverage_2d</text>
<text text-anchor="start" x="370" y="-149.5" font-family="Helvetica,sans-Serif" font-size="10.00">_polar::sll_f_new_plan</text>
<text text-anchor="middle" x="440.5" y="-138.5" font-family="Helvetica,sans-Serif" font-size="10.00">_gyroaverage_polar_hermite</text>
</a>
</g>
</g>
<!-- Node1&#45;&gt;Node2 -->
<g id="edge1" class="edge">
<title>Node1&#45;&gt;Node2</title>
<path fill="none" stroke="midnightblue" d="M564.8,-105.67C543.33,-113.74 518.14,-123.2 496.15,-131.47"/>
<polygon fill="midnightblue" stroke="midnightblue" points="566.25,-108.87 574.38,-102.08 563.78,-102.32 566.25,-108.87"/>
</g>
<!-- Node5 -->
<g id="node5" class="node">
<title>Node5</title>
<g id="a_node5"><a xlink:href="namespacesll__m__gyroaverage__2d__polar.html#a023a2b6972a9bbce6a5ec88a8b2b5005" target="_top" xlink:title=" ">
<polygon fill="white" stroke="black" points="364,-66.5 364,-107.5 517,-107.5 517,-66.5 364,-66.5"/>
<text text-anchor="start" x="372" y="-95.5" font-family="Helvetica,sans-Serif" font-size="10.00">sll_m_gyroaverage_2d</text>
<text text-anchor="start" x="372" y="-84.5" font-family="Helvetica,sans-Serif" font-size="10.00">_polar::sll_f_new_plan</text>
<text text-anchor="middle" x="440.5" y="-73.5" font-family="Helvetica,sans-Serif" font-size="10.00">_gyroaverage_polar_splines</text>
</a>
</g>
</g>
<!-- Node1&#45;&gt;Node5 -->
<g id="edge4" class="edge">
<title>Node1&#45;&gt;Node5</title>
<path fill="none" stroke="midnightblue" d="M544.79,-87C535.65,-87 526.26,-87 517.04,-87"/>
<polygon fill="midnightblue" stroke="midnightblue" points="544.96,-90.5 554.96,-87 544.96,-83.5 544.96,-90.5"/>
</g>
<!-- Node8 -->
<g id="node8" class="node">
<title>Node8</title>
<g id="a_node8"><a xlink:href="namespacesll__m__qn__2d__polar.html#ab0e90107819c867b53b1f8e2ad44843e" target="_top" xlink:title=" ">
<polygon fill="white" stroke="black" points="378.5,-12 378.5,-42 502.5,-42 502.5,-12 378.5,-12"/>
<text text-anchor="start" x="386.5" y="-30" font-family="Helvetica,sans-Serif" font-size="10.00">sll_m_qn_2d_polar::</text>
<text text-anchor="middle" x="440.5" y="-19" font-family="Helvetica,sans-Serif" font-size="10.00">sll_s_qn_2d_polar_init</text>
</a>
</g>
</g>
<!-- Node1&#45;&gt;Node8 -->
<g id="edge7" class="edge">
<title>Node1&#45;&gt;Node8</title>
<path fill="none" stroke="midnightblue" d="M561.32,-68.56C536.79,-60.05 508.03,-50.07 484.84,-42.03"/>
<polygon fill="midnightblue" stroke="midnightblue" points="560.25,-71.89 570.84,-71.86 562.54,-65.28 560.25,-71.89"/>
</g>
<!-- Node3 -->
<g id="node3" class="node">
<title>Node3</title>
<g id="a_node3"><a xlink:href="namespacesll__m__gyroaverage__2d__polar__hermite__solver.html#afe968126a853c6bab9577236b11d84d3" target="_top" xlink:title=" ">
<polygon fill="white" stroke="black" points="181,-132 181,-184 324,-184 324,-132 181,-132"/>
<text text-anchor="start" x="189" y="-172" font-family="Helvetica,sans-Serif" font-size="10.00">sll_m_gyroaverage_2d</text>
<text text-anchor="start" x="189" y="-161" font-family="Helvetica,sans-Serif" font-size="10.00">_polar_hermite_solver</text>
<text text-anchor="start" x="189" y="-150" font-family="Helvetica,sans-Serif" font-size="10.00">::initialize_gyroaverage</text>
<text text-anchor="middle" x="252.5" y="-139" font-family="Helvetica,sans-Serif" font-size="10.00">_2d_polar_hermite_solver</text>
</a>
</g>
</g>
<!-- Node2&#45;&gt;Node3 -->
<g id="edge2" class="edge">
<title>Node2&#45;&gt;Node3</title>
<path fill="none" stroke="midnightblue" d="M351.89,-154.83C342.57,-155.13 333.17,-155.43 324.08,-155.72"/>
<polygon fill="midnightblue" stroke="midnightblue" points="352.08,-158.32 361.97,-154.5 351.86,-151.33 352.08,-158.32"/>
</g>
<!-- Node4 -->
<g id="node4" class="node">
<title>Node4</title>
<g id="a_node4"><a xlink:href="namespacesll__m__gyroaverage__2d__polar__hermite__solver.html#a42ac604e078262319d85f8fd436bd506" target="_top" xlink:title=" ">
<polygon fill="white" stroke="black" points="0,-132 0,-184 143,-184 143,-132 0,-132"/>
<text text-anchor="start" x="8" y="-172" font-family="Helvetica,sans-Serif" font-size="10.00">sll_m_gyroaverage_2d</text>
<text text-anchor="start" x="8" y="-161" font-family="Helvetica,sans-Serif" font-size="10.00">_polar_hermite_solver</text>
<text text-anchor="start" x="8" y="-150" font-family="Helvetica,sans-Serif" font-size="10.00">::sll_f_new_gyroaverage</text>
<text text-anchor="middle" x="71.5" y="-139" font-family="Helvetica,sans-Serif" font-size="10.00">_2d_polar_hermite_solver</text>
</a>
</g>
</g>
<!-- Node3&#45;&gt;Node4 -->
<g id="edge3" class="edge">
<title>Node3&#45;&gt;Node4</title>
<path fill="none" stroke="midnightblue" d="M170.48,-158C161.32,-158 152.04,-158 143.02,-158"/>
<polygon fill="midnightblue" stroke="midnightblue" points="170.75,-161.5 180.75,-158 170.75,-154.5 170.75,-161.5"/>
</g>
<!-- Node6 -->
<g id="node6" class="node">
<title>Node6</title>
<g id="a_node6"><a xlink:href="namespacesll__m__gyroaverage__2d__polar__splines__solver.html#aea907e260f9745d9b01b8c6233d6179a" target="_top" xlink:title=" ">
<polygon fill="white" stroke="black" points="183,-61 183,-113 322,-113 322,-61 183,-61"/>
<text text-anchor="start" x="191" y="-101" font-family="Helvetica,sans-Serif" font-size="10.00">sll_m_gyroaverage_2d</text>
<text text-anchor="start" x="191" y="-90" font-family="Helvetica,sans-Serif" font-size="10.00">_polar_splines_solver</text>
<text text-anchor="start" x="191" y="-79" font-family="Helvetica,sans-Serif" font-size="10.00">::initialize_gyroaverage</text>
<text text-anchor="middle" x="252.5" y="-68" font-family="Helvetica,sans-Serif" font-size="10.00">_2d_polar_splines_solver</text>
</a>
</g>
</g>
<!-- Node5&#45;&gt;Node6 -->
<g id="edge5" class="edge">
<title>Node5&#45;&gt;Node6</title>
<path fill="none" stroke="midnightblue" d="M353.76,-87C343.18,-87 332.48,-87 322.2,-87"/>
<polygon fill="midnightblue" stroke="midnightblue" points="353.85,-90.5 363.85,-87 353.85,-83.5 353.85,-90.5"/>
</g>
<!-- Node7 -->
<g id="node7" class="node">
<title>Node7</title>
<g id="a_node7"><a xlink:href="namespacesll__m__gyroaverage__2d__polar__splines__solver.html#aa396caacc6038680379fc980d91c9ebd" target="_top" xlink:title=" ">
<polygon fill="white" stroke="black" points="2,-61 2,-113 141,-113 141,-61 2,-61"/>
<text text-anchor="start" x="10" y="-101" font-family="Helvetica,sans-Serif" font-size="10.00">sll_m_gyroaverage_2d</text>
<text text-anchor="start" x="10" y="-90" font-family="Helvetica,sans-Serif" font-size="10.00">_polar_splines_solver</text>
<text text-anchor="start" x="10" y="-79" font-family="Helvetica,sans-Serif" font-size="10.00">::sll_f_new_gyroaverage</text>
<text text-anchor="middle" x="71.5" y="-68" font-family="Helvetica,sans-Serif" font-size="10.00">_2d_polar_splines_solver</text>
</a>
</g>
</g>
<!-- Node6&#45;&gt;Node7 -->
<g id="edge6" class="edge">
<title>Node6&#45;&gt;Node7</title>
<path fill="none" stroke="midnightblue" d="M172.75,-87C162.17,-87 151.39,-87 141.01,-87"/>
<polygon fill="midnightblue" stroke="midnightblue" points="172.81,-90.5 182.81,-87 172.81,-83.5 172.81,-90.5"/>
</g>
<!-- Node9 -->
<g id="node9" class="node">
<title>Node9</title>
<g id="a_node9"><a xlink:href="namespacesll__m__qn__2d__polar__splines__solver.html#a75fca43ef0956b6f4fcc345da0d9c16b" target="_top" xlink:title=" ">
<polygon fill="white" stroke="black" points="179,-0.5 179,-41.5 326,-41.5 326,-0.5 179,-0.5"/>
<text text-anchor="start" x="187" y="-29.5" font-family="Helvetica,sans-Serif" font-size="10.00">sll_m_qn_2d_polar_splines</text>
<text text-anchor="start" x="187" y="-18.5" font-family="Helvetica,sans-Serif" font-size="10.00">_solver::sll_s_qn_2d_polar</text>
<text text-anchor="middle" x="252.5" y="-7.5" font-family="Helvetica,sans-Serif" font-size="10.00">_splines_solver_init</text>
</a>
</g>
</g>
<!-- Node8&#45;&gt;Node9 -->
<g id="edge8" class="edge">
<title>Node8&#45;&gt;Node9</title>
<path fill="none" stroke="midnightblue" d="M367.97,-24.69C354.22,-24.25 339.8,-23.78 326.02,-23.34"/>
<polygon fill="midnightblue" stroke="midnightblue" points="368.23,-28.2 378.34,-25.03 368.46,-21.21 368.23,-28.2"/>
</g>
</g>
</svg>
