<?xml version="1.0" encoding="UTF-8" standalone="no"?>
<!DOCTYPE svg PUBLIC "-//W3C//DTD SVG 1.1//EN"
 "http://www.w3.org/Graphics/SVG/1.1/DTD/svg11.dtd">
<!-- Generated by graphviz version 2.38.0 (20140413.2041)
 -->
<!-- Title: ispfft Pages: 1 -->
<svg width="130pt" height="66pt"
 viewBox="0.00 0.00 130.00 66.00" xmlns="http://www.w3.org/2000/svg" xmlns:xlink="http://www.w3.org/1999/xlink">
<g id="graph0" class="graph" transform="scale(1 1) rotate(0) translate(4 62)">
<title>ispfft</title>
<polygon fill="white" stroke="none" points="-4,4 -4,-62 126,-62 126,4 -4,4"/>
<!-- Node1 -->
<g id="node1" class="node"><title>Node1</title>
<polygon fill="#bfbfbf" stroke="black" points="0,-19.5 0,-38.5 38,-38.5 38,-19.5 0,-19.5"/>
<text text-anchor="middle" x="19" y="-26.5" font-family="Helvetica,sans-Serif" font-size="10.00">ispfft</text>
</g>
<!-- Node2 -->
<g id="node2" class="node"><title>Node2</title>
<g id="a_node2"><a xlink:href="namespacesll__m__sparse__grid__3d.html#a6dccf1d1dc47f13005dbced4fd10c0d5" target="_top" xlink:title="tohira">
<polygon fill="white" stroke="black" points="77.5,-38.5 77.5,-57.5 118.5,-57.5 118.5,-38.5 77.5,-38.5"/>
<text text-anchor="middle" x="98" y="-45.5" font-family="Helvetica,sans-Serif" font-size="10.00">tohira</text>
</a>
</g>
</g>
<!-- Node1&#45;&gt;Node2 -->
<g id="edge1" class="edge"><title>Node1&#45;&gt;Node2</title>
<path fill="none" stroke="midnightblue" d="M38.2479,-33.5027C46.9618,-35.6529 57.6106,-38.2805 67.4372,-40.7053"/>
<polygon fill="midnightblue" stroke="midnightblue" points="66.717,-44.1325 77.2643,-43.1302 68.394,-37.3363 66.717,-44.1325"/>
</g>
<!-- Node3 -->
<g id="node3" class="node"><title>Node3</title>
<g id="a_node3"><a xlink:href="namespacesll__m__sparse__grid__3d.html#ae91093d5f7d227c6bc572b47b98a995a" target="_top" xlink:title="tonodal">
<polygon fill="white" stroke="black" points="74,-0.5 74,-19.5 122,-19.5 122,-0.5 74,-0.5"/>
<text text-anchor="middle" x="98" y="-7.5" font-family="Helvetica,sans-Serif" font-size="10.00">tonodal</text>
</a>
</g>
</g>
<!-- Node1&#45;&gt;Node3 -->
<g id="edge2" class="edge"><title>Node1&#45;&gt;Node3</title>
<path fill="none" stroke="midnightblue" d="M38.2479,-24.4973C46.0028,-22.5837 55.2902,-20.292 64.1668,-18.1017"/>
<polygon fill="midnightblue" stroke="midnightblue" points="65.0402,-21.4912 73.9105,-15.6974 63.3632,-14.6951 65.0402,-21.4912"/>
</g>
</g>
</svg>
