<?xml version="1.0" encoding="UTF-8" standalone="no"?>
<!DOCTYPE svg PUBLIC "-//W3C//DTD SVG 1.1//EN"
 "http://www.w3.org/Graphics/SVG/1.1/DTD/svg11.dtd">
<!-- Generated by graphviz version 2.38.0 (20140413.2041)
 -->
<!-- Title: sll_s_spline_pp_init_1d Pages: 1 -->
<svg width="420pt" height="126pt"
 viewBox="0.00 0.00 420.00 126.00" xmlns="http://www.w3.org/2000/svg" xmlns:xlink="http://www.w3.org/1999/xlink">
<g id="graph0" class="graph" transform="scale(1 1) rotate(0) translate(4 122)">
<title>sll_s_spline_pp_init_1d</title>
<polygon fill="white" stroke="none" points="-4,4 -4,-122 416,-122 416,4 -4,4"/>
<!-- Node1 -->
<g id="node1" class="node"><title>Node1</title>
<polygon fill="#bfbfbf" stroke="black" points="0,-38.5 0,-57.5 117,-57.5 117,-38.5 0,-38.5"/>
<text text-anchor="middle" x="58.5" y="-45.5" font-family="Helvetica,sans-Serif" font-size="10.00">sll_s_spline_pp_init_1d</text>
</g>
<!-- Node2 -->
<g id="node2" class="node"><title>Node2</title>
<g id="a_node2"><a xlink:href="namespacesll__m__particle__mesh__coupling__spline__1d.html#a8cd446ae4a4dc74bfc2c041c67e2e0cd" target="_top" xlink:title="Initializer. ">
<polygon fill="white" stroke="black" points="158.5,-76.5 158.5,-117.5 264.5,-117.5 264.5,-76.5 158.5,-76.5"/>
<text text-anchor="start" x="166.5" y="-105.5" font-family="Helvetica,sans-Serif" font-size="10.00">sll_m_particle_mesh</text>
<text text-anchor="start" x="166.5" y="-94.5" font-family="Helvetica,sans-Serif" font-size="10.00">_coupling_spline_1d</text>
<text text-anchor="middle" x="211.5" y="-83.5" font-family="Helvetica,sans-Serif" font-size="10.00">::init_spline_1d</text>
</a>
</g>
</g>
<!-- Node1&#45;&gt;Node2 -->
<g id="edge1" class="edge"><title>Node1&#45;&gt;Node2</title>
<path fill="none" stroke="midnightblue" d="M98.6848,-60.7156C116.923,-66.6339 138.872,-73.7566 158.477,-80.1182"/>
<polygon fill="midnightblue" stroke="midnightblue" points="99.5648,-57.3216 88.9728,-57.564 97.4042,-63.9798 99.5648,-57.3216"/>
</g>
<!-- Node3 -->
<g id="node3" class="node"><title>Node3</title>
<g id="a_node3"><a xlink:href="namespacesll__m__splines__pp.html#ab0bd290f1a3b06fd9211b341b3b8fa18" target="_top" xlink:title="Initialize sll_t_spline_pp_2d object. ">
<polygon fill="white" stroke="black" points="153,-38.5 153,-57.5 270,-57.5 270,-38.5 153,-38.5"/>
<text text-anchor="middle" x="211.5" y="-45.5" font-family="Helvetica,sans-Serif" font-size="10.00">sll_s_spline_pp_init_2d</text>
</a>
</g>
</g>
<!-- Node1&#45;&gt;Node3 -->
<g id="edge2" class="edge"><title>Node1&#45;&gt;Node3</title>
<path fill="none" stroke="midnightblue" d="M127.052,-48C135.678,-48 144.444,-48 152.893,-48"/>
<polygon fill="midnightblue" stroke="midnightblue" points="127.017,-44.5001 117.017,-48 127.017,-51.5001 127.017,-44.5001"/>
</g>
<!-- Node5 -->
<g id="node5" class="node"><title>Node5</title>
<g id="a_node5"><a xlink:href="namespacesll__m__splines__pp.html#aa89575bf1babec91a086cb0ad8dffeb5" target="_top" xlink:title="Initialize sll_t_spline_pp_3d object. ">
<polygon fill="white" stroke="black" points="153,-0.5 153,-19.5 270,-19.5 270,-0.5 153,-0.5"/>
<text text-anchor="middle" x="211.5" y="-7.5" font-family="Helvetica,sans-Serif" font-size="10.00">sll_s_spline_pp_init_3d</text>
</a>
</g>
</g>
<!-- Node1&#45;&gt;Node5 -->
<g id="edge4" class="edge"><title>Node1&#45;&gt;Node5</title>
<path fill="none" stroke="midnightblue" d="M107.343,-35.96C128.439,-30.6512 152.877,-24.5012 172.67,-19.5201"/>
<polygon fill="midnightblue" stroke="midnightblue" points="106.447,-32.5763 97.6037,-38.411 108.156,-39.3646 106.447,-32.5763"/>
</g>
<!-- Node4 -->
<g id="node4" class="node"><title>Node4</title>
<g id="a_node4"><a xlink:href="namespacesll__m__particle__mesh__coupling__spline__2d.html#a22514cb0cee8c41615a57e70aaba936d" target="_top" xlink:title="sll_m_particle_mesh\l_coupling_spline_2d\l::init_spline_2d">
<polygon fill="white" stroke="black" points="306,-27.5 306,-68.5 412,-68.5 412,-27.5 306,-27.5"/>
<text text-anchor="start" x="314" y="-56.5" font-family="Helvetica,sans-Serif" font-size="10.00">sll_m_particle_mesh</text>
<text text-anchor="start" x="314" y="-45.5" font-family="Helvetica,sans-Serif" font-size="10.00">_coupling_spline_2d</text>
<text text-anchor="middle" x="359" y="-34.5" font-family="Helvetica,sans-Serif" font-size="10.00">::init_spline_2d</text>
</a>
</g>
</g>
<!-- Node3&#45;&gt;Node4 -->
<g id="edge3" class="edge"><title>Node3&#45;&gt;Node4</title>
<path fill="none" stroke="midnightblue" d="M280.028,-48C288.628,-48 297.326,-48 305.638,-48"/>
<polygon fill="midnightblue" stroke="midnightblue" points="280.005,-44.5001 270.005,-48 280.005,-51.5001 280.005,-44.5001"/>
</g>
</g>
</svg>
