<?xml version="1.0" encoding="UTF-8" standalone="no"?>
<!DOCTYPE svg PUBLIC "-//W3C//DTD SVG 1.1//EN"
 "http://www.w3.org/Graphics/SVG/1.1/DTD/svg11.dtd">
<!-- Generated by graphviz version 2.40.1 (20161225.0304)
 -->
<!-- Title: sll_s_qn_solver_2d_polar_par_init Pages: 1 -->
<svg width="281pt" height="186pt"
 viewBox="0.00 0.00 281.00 186.00" xmlns="http://www.w3.org/2000/svg" xmlns:xlink="http://www.w3.org/1999/xlink">
<g id="graph0" class="graph" transform="scale(1 1) rotate(0) translate(4 182)">
<title>sll_s_qn_solver_2d_polar_par_init</title>
<polygon fill="#ffffff" stroke="transparent" points="-4,4 -4,-182 277,-182 277,4 -4,4"/>
<!-- Node3 -->
<g id="node1" class="node">
<title>Node3</title>
<polygon fill="#bfbfbf" stroke="#000000" points="0,-73.5 0,-103.5 108,-103.5 108,-73.5 0,-73.5"/>
<text text-anchor="start" x="8" y="-91.5" font-family="Helvetica,sans-Serif" font-size="10.00" fill="#000000">sll_s_qn_solver_2d</text>
<text text-anchor="middle" x="54" y="-80.5" font-family="Helvetica,sans-Serif" font-size="10.00" fill="#000000">_polar_par_init</text>
</g>
<!-- Node4 -->
<g id="node2" class="node">
<title>Node4</title>
<g id="a_node2"><a xlink:href="namespacesll__m__utilities.html#a597cd0038286f2ca1fbeb97af32ba146" target="_top" xlink:title="Equivalent to numpy.linspace &#160;Yaman Güçlü, IPP Garching. ">
<polygon fill="#ffffff" stroke="#000000" points="144,-147.5 144,-177.5 273,-177.5 273,-147.5 144,-147.5"/>
<text text-anchor="start" x="152" y="-165.5" font-family="Helvetica,sans-Serif" font-size="10.00" fill="#000000">sll_m_utilities::sll</text>
<text text-anchor="middle" x="208.5" y="-154.5" font-family="Helvetica,sans-Serif" font-size="10.00" fill="#000000">_s_new_array_linspace</text>
</a>
</g>
</g>
<!-- Node3&#45;&gt;Node4 -->
<g id="edge1" class="edge">
<title>Node3&#45;&gt;Node4</title>
<path fill="none" stroke="#191970" d="M78.6903,-103.5458C96.4856,-114.0584 121.2713,-128.0305 144,-138.5 147.7846,-140.2433 151.7352,-141.9571 155.7361,-143.6169"/>
<polygon fill="#191970" stroke="#191970" points="154.5249,-146.9022 165.1089,-147.3808 157.1335,-140.4063 154.5249,-146.9022"/>
</g>
<!-- Node5 -->
<g id="node3" class="node">
<title>Node5</title>
<g id="a_node3"><a xlink:href="namespacesll__m__fft.html#a57b954f8852bb5b19e1c312d1c9e72bb" target="_top" xlink:title="Function to allocate an aligned real array. ">
<polygon fill="#ffffff" stroke="#000000" points="145.5,-98.5 145.5,-128.5 271.5,-128.5 271.5,-98.5 145.5,-98.5"/>
<text text-anchor="start" x="153.5" y="-116.5" font-family="Helvetica,sans-Serif" font-size="10.00" fill="#000000">sll_m_fft::sll_f_fft</text>
<text text-anchor="middle" x="208.5" y="-105.5" font-family="Helvetica,sans-Serif" font-size="10.00" fill="#000000">_allocate_aligned_real</text>
</a>
</g>
</g>
<!-- Node3&#45;&gt;Node5 -->
<g id="edge2" class="edge">
<title>Node3&#45;&gt;Node5</title>
<path fill="none" stroke="#191970" d="M108.0366,-97.2438C116.9193,-98.6811 126.2533,-100.1915 135.5058,-101.6886"/>
<polygon fill="#191970" stroke="#191970" points="135.0576,-105.1616 145.4883,-103.3039 136.1758,-98.2514 135.0576,-105.1616"/>
</g>
<!-- Node6 -->
<g id="node4" class="node">
<title>Node6</title>
<g id="a_node4"><a xlink:href="namespacesll__m__fft.html#a928055b91495cdbe4e1fcfaca976a8bc" target="_top" xlink:title="Create new 1d real to real plan. ">
<polygon fill="#ffffff" stroke="#000000" points="157.5,-49.5 157.5,-79.5 259.5,-79.5 259.5,-49.5 157.5,-49.5"/>
<text text-anchor="start" x="165.5" y="-67.5" font-family="Helvetica,sans-Serif" font-size="10.00" fill="#000000">sll_m_fft::sll_s_fft</text>
<text text-anchor="middle" x="208.5" y="-56.5" font-family="Helvetica,sans-Serif" font-size="10.00" fill="#000000">_init_r2r_1d</text>
</a>
</g>
</g>
<!-- Node3&#45;&gt;Node6 -->
<g id="edge3" class="edge">
<title>Node3&#45;&gt;Node6</title>
<path fill="none" stroke="#191970" d="M108.0366,-80.106C120.6706,-78.1434 134.2177,-76.039 147.1443,-74.031"/>
<polygon fill="#191970" stroke="#191970" points="148.0045,-77.4394 157.3488,-72.4458 146.93,-70.5224 148.0045,-77.4394"/>
</g>
<!-- Node7 -->
<g id="node5" class="node">
<title>Node7</title>
<g id="a_node5"><a xlink:href="namespacesll__m__fft.html#a050e94ded8dfce9bd43e8f984d8a4282" target="_top" xlink:title="Get a list of the k modes in an r2r FFT k_list = [0, 1, 2, ..., n/2, (n+1)/2&#45;1, ..., 2, 1]. ">
<polygon fill="#ffffff" stroke="#000000" points="156,-.5 156,-30.5 261,-30.5 261,-.5 156,-.5"/>
<text text-anchor="start" x="164" y="-18.5" font-family="Helvetica,sans-Serif" font-size="10.00" fill="#000000">sll_m_fft::sll_s_fft</text>
<text text-anchor="middle" x="208.5" y="-7.5" font-family="Helvetica,sans-Serif" font-size="10.00" fill="#000000">_get_k_list_r2r_1d</text>
</a>
</g>
</g>
<!-- Node3&#45;&gt;Node7 -->
<g id="edge4" class="edge">
<title>Node3&#45;&gt;Node7</title>
<path fill="none" stroke="#191970" d="M80.3558,-73.363C98.0756,-63.4562 122.1077,-50.5366 144,-40.5 148.5903,-38.3956 153.4127,-36.308 158.2671,-34.2885"/>
<polygon fill="#191970" stroke="#191970" points="159.6414,-37.5081 167.5894,-30.5024 157.0073,-31.0226 159.6414,-37.5081"/>
</g>
</g>
</svg>
