<?xml version="1.0" encoding="UTF-8" standalone="no"?>
<!DOCTYPE svg PUBLIC "-//W3C//DTD SVG 1.1//EN"
 "http://www.w3.org/Graphics/SVG/1.1/DTD/svg11.dtd">
<!-- Generated by graphviz version 2.40.1 (20161225.0304)
 -->
<!-- Title: sll_s_spline_fem_mixedmass_line_full Pages: 1 -->
<svg width="562pt" height="186pt"
 viewBox="0.00 0.00 562.00 186.00" xmlns="http://www.w3.org/2000/svg" xmlns:xlink="http://www.w3.org/1999/xlink">
<g id="graph0" class="graph" transform="scale(1 1) rotate(0) translate(4 182)">
<title>sll_s_spline_fem_mixedmass_line_full</title>
<polygon fill="#ffffff" stroke="transparent" points="-4,4 -4,-182 558,-182 558,4 -4,4"/>
<!-- Node125 -->
<g id="node1" class="node">
<title>Node125</title>
<polygon fill="#bfbfbf" stroke="#000000" points="0,-98.5 0,-128.5 160,-128.5 160,-98.5 0,-98.5"/>
<text text-anchor="start" x="8" y="-116.5" font-family="Helvetica,sans-Serif" font-size="10.00" fill="#000000">sll_s_spline_fem_mixedmass</text>
<text text-anchor="middle" x="80" y="-105.5" font-family="Helvetica,sans-Serif" font-size="10.00" fill="#000000">_line_full</text>
</g>
<!-- Node126 -->
<g id="node2" class="node">
<title>Node126</title>
<g id="a_node2"><a xlink:href="namespacesll__m__spline__fem__utilities__sparse.html#a836d6dd47591a9908563b281f683ab2e" target="_top" xlink:title="sll_m_spline_fem_utilities\l_sparse::sll_s_spline_fem\l_mixedmass1d_full">
<polygon fill="#ffffff" stroke="#000000" points="203.5,-132 203.5,-173 347.5,-173 347.5,-132 203.5,-132"/>
<text text-anchor="start" x="211.5" y="-161" font-family="Helvetica,sans-Serif" font-size="10.00" fill="#000000">sll_m_spline_fem_utilities</text>
<text text-anchor="start" x="211.5" y="-150" font-family="Helvetica,sans-Serif" font-size="10.00" fill="#000000">_sparse::sll_s_spline_fem</text>
<text text-anchor="middle" x="275.5" y="-139" font-family="Helvetica,sans-Serif" font-size="10.00" fill="#000000">_mixedmass1d_full</text>
</a>
</g>
</g>
<!-- Node125&#45;&gt;Node126 -->
<g id="edge1" class="edge">
<title>Node125&#45;&gt;Node126</title>
<path fill="none" stroke="#191970" d="M165.4057,-130.5374C178.0956,-133.0689 191.0676,-135.6567 203.4476,-138.1264"/>
<polygon fill="#191970" stroke="#191970" points="165.7973,-127.0467 155.3058,-128.5226 164.4278,-133.9114 165.7973,-127.0467"/>
</g>
<!-- Node128 -->
<g id="node4" class="node">
<title>Node128</title>
<g id="a_node4"><a xlink:href="namespacesll__m__spline__fem__utilities__sparse.html#a58ea8913e3f0590a3a20406f15b23c11" target="_top" xlink:title="Set up 1d mixed mass matrix for specific spline degrees and profile function. ">
<polygon fill="#ffffff" stroke="#000000" points="196,-63 196,-104 355,-104 355,-63 196,-63"/>
<text text-anchor="start" x="204" y="-92" font-family="Helvetica,sans-Serif" font-size="10.00" fill="#000000">sll_m_spline_fem_utilities</text>
<text text-anchor="start" x="204" y="-81" font-family="Helvetica,sans-Serif" font-size="10.00" fill="#000000">_sparse::sll_s_spline_fem</text>
<text text-anchor="middle" x="275.5" y="-70" font-family="Helvetica,sans-Serif" font-size="10.00" fill="#000000">_mixedmass1d_clamped_full</text>
</a>
</g>
</g>
<!-- Node125&#45;&gt;Node128 -->
<g id="edge3" class="edge">
<title>Node125&#45;&gt;Node128</title>
<path fill="none" stroke="#191970" d="M170.1148,-99.6716C178.7064,-98.3532 187.3771,-97.0227 195.8593,-95.7211"/>
<polygon fill="#191970" stroke="#191970" points="169.4348,-96.2349 160.0814,-101.2113 170.4966,-103.1539 169.4348,-96.2349"/>
</g>
<!-- Node127 -->
<g id="node3" class="node">
<title>Node127</title>
<g id="a_node3"><a xlink:href="namespacesll__m__maxwell__1d__trafo.html#a379870fb13734539528b6b4fd558963f" target="_top" xlink:title="Initialization. ">
<polygon fill="#ffffff" stroke="#000000" points="404.5,-147.5 404.5,-177.5 540.5,-177.5 540.5,-147.5 404.5,-147.5"/>
<text text-anchor="start" x="412.5" y="-165.5" font-family="Helvetica,sans-Serif" font-size="10.00" fill="#000000">sll_m_maxwell_1d_trafo</text>
<text text-anchor="middle" x="472.5" y="-154.5" font-family="Helvetica,sans-Serif" font-size="10.00" fill="#000000">::init_1d_trafo</text>
</a>
</g>
</g>
<!-- Node126&#45;&gt;Node127 -->
<g id="edge2" class="edge">
<title>Node126&#45;&gt;Node127</title>
<path fill="none" stroke="#191970" d="M357.7936,-156.6773C373.2423,-157.4615 389.2379,-158.2735 404.2036,-159.0332"/>
<polygon fill="#191970" stroke="#191970" points="357.9015,-153.1784 347.7369,-156.1668 357.5466,-160.1694 357.9015,-153.1784"/>
</g>
<!-- Node129 -->
<g id="node5" class="node">
<title>Node129</title>
<g id="a_node5"><a xlink:href="namespacesll__m__maxwell__clamped__1d__fem__sm.html#a400fe28b25203e207ad0786874c32912" target="_top" xlink:title="Initialization. ">
<polygon fill="#ffffff" stroke="#000000" points="391,-98.5 391,-128.5 554,-128.5 554,-98.5 391,-98.5"/>
<text text-anchor="start" x="399" y="-116.5" font-family="Helvetica,sans-Serif" font-size="10.00" fill="#000000">sll_m_maxwell_clamped</text>
<text text-anchor="middle" x="472.5" y="-105.5" font-family="Helvetica,sans-Serif" font-size="10.00" fill="#000000">_1d_fem_sm::init_1d_fem_sm</text>
</a>
</g>
</g>
<!-- Node128&#45;&gt;Node129 -->
<g id="edge4" class="edge">
<title>Node128&#45;&gt;Node129</title>
<path fill="none" stroke="#191970" d="M365.0437,-97.1361C373.5976,-98.4387 382.2423,-99.7552 390.7169,-101.0457"/>
<polygon fill="#191970" stroke="#191970" points="365.4726,-93.6611 355.0596,-95.6157 364.4187,-100.5814 365.4726,-93.6611"/>
</g>
<!-- Node130 -->
<g id="node6" class="node">
<title>Node130</title>
<g id="a_node6"><a xlink:href="namespacesll__m__maxwell__clamped__1d__trafo.html#a800127433401043caf9d2b00dfa7e79f" target="_top" xlink:title="Initialization. ">
<polygon fill="#ffffff" stroke="#000000" points="404,-49.5 404,-79.5 541,-79.5 541,-49.5 404,-49.5"/>
<text text-anchor="start" x="412" y="-67.5" font-family="Helvetica,sans-Serif" font-size="10.00" fill="#000000">sll_m_maxwell_clamped</text>
<text text-anchor="middle" x="472.5" y="-56.5" font-family="Helvetica,sans-Serif" font-size="10.00" fill="#000000">_1d_trafo::init_1d_trafo</text>
</a>
</g>
</g>
<!-- Node128&#45;&gt;Node130 -->
<g id="edge5" class="edge">
<title>Node128&#45;&gt;Node130</title>
<path fill="none" stroke="#191970" d="M365.3404,-74.8352C378.2343,-73.5916 391.3277,-72.3288 403.7275,-71.1329"/>
<polygon fill="#191970" stroke="#191970" points="364.6774,-71.3828 355.0596,-75.8267 365.3494,-78.3505 364.6774,-71.3828"/>
</g>
<!-- Node131 -->
<g id="node7" class="node">
<title>Node131</title>
<g id="a_node7"><a xlink:href="namespacesll__m__maxwell__clamped__3d__fem.html#afadba212d3f01a688b12c751068d1707" target="_top" xlink:title="Initialization. ">
<polygon fill="#ffffff" stroke="#000000" points="404,-.5 404,-30.5 541,-30.5 541,-.5 404,-.5"/>
<text text-anchor="start" x="412" y="-18.5" font-family="Helvetica,sans-Serif" font-size="10.00" fill="#000000">sll_m_maxwell_clamped</text>
<text text-anchor="middle" x="472.5" y="-7.5" font-family="Helvetica,sans-Serif" font-size="10.00" fill="#000000">_3d_fem::init_3d_fem</text>
</a>
</g>
</g>
<!-- Node128&#45;&gt;Node131 -->
<g id="edge6" class="edge">
<title>Node128&#45;&gt;Node131</title>
<path fill="none" stroke="#191970" d="M338.5452,-59.2656C355.5059,-52.9552 373.8922,-46.3029 391,-40.5 400.9511,-37.1246 411.6515,-33.6985 421.92,-30.5095"/>
<polygon fill="#191970" stroke="#191970" points="336.8836,-56.1502 328.7441,-62.9325 339.3365,-62.7064 336.8836,-56.1502"/>
</g>
</g>
</svg>
