<?xml version="1.0" encoding="UTF-8" standalone="no"?>
<!DOCTYPE svg PUBLIC "-//W3C//DTD SVG 1.1//EN"
 "http://www.w3.org/Graphics/SVG/1.1/DTD/svg11.dtd">
<!-- Generated by graphviz version 2.40.1 (20161225.0304)
 -->
<!-- Title: sll_xdmf_close_parallel Pages: 1 -->
<svg width="459pt" height="88pt"
 viewBox="0.00 0.00 459.00 88.00" xmlns="http://www.w3.org/2000/svg" xmlns:xlink="http://www.w3.org/1999/xlink">
<g id="graph0" class="graph" transform="scale(1 1) rotate(0) translate(4 84)">
<title>sll_xdmf_close_parallel</title>
<polygon fill="#ffffff" stroke="transparent" points="-4,4 -4,-84 455,-84 455,4 -4,4"/>
<!-- Node12 -->
<g id="node1" class="node">
<title>Node12</title>
<polygon fill="#bfbfbf" stroke="#000000" points="0,-30 0,-49 131,-49 131,-30 0,-30"/>
<text text-anchor="middle" x="65.5" y="-37" font-family="Helvetica,sans-Serif" font-size="10.00" fill="#000000">sll_xdmf_close_parallel</text>
</g>
<!-- Node13 -->
<g id="node2" class="node">
<title>Node13</title>
<g id="a_node2"><a xlink:href="namespacesll__m__collective.html#a396122f49340f0778eb448430d865b4e" target="_top" xlink:title="Determines the rank of the calling process in the communicator. ">
<polygon fill="#ffffff" stroke="#000000" points="167,-49.5 167,-79.5 293,-79.5 293,-49.5 167,-49.5"/>
<text text-anchor="start" x="175" y="-67.5" font-family="Helvetica,sans-Serif" font-size="10.00" fill="#000000">sll_m_collective::sll</text>
<text text-anchor="middle" x="230" y="-56.5" font-family="Helvetica,sans-Serif" font-size="10.00" fill="#000000">_f_get_collective_rank</text>
</a>
</g>
</g>
<!-- Node12&#45;&gt;Node13 -->
<g id="edge1" class="edge">
<title>Node12&#45;&gt;Node13</title>
<path fill="none" stroke="#191970" d="M128.1597,-49.0227C137.594,-50.4565 147.3934,-51.9458 157.0211,-53.409"/>
<polygon fill="#191970" stroke="#191970" points="156.5572,-56.8786 166.9696,-54.9209 157.6091,-49.9581 156.5572,-56.8786"/>
</g>
<!-- Node15 -->
<g id="node4" class="node">
<title>Node15</title>
<g id="a_node4"><a xlink:href="namespacesll__m__xml__io.html#a214cc5ba4867ca81aa2551a414b4d2c2" target="_top" xlink:title="Close the XML file and finish to write last lines. You give the file unit number. ...">
<polygon fill="#ffffff" stroke="#000000" points="175.5,-.5 175.5,-30.5 284.5,-30.5 284.5,-.5 175.5,-.5"/>
<text text-anchor="start" x="183.5" y="-18.5" font-family="Helvetica,sans-Serif" font-size="10.00" fill="#000000">sll_m_xml_io::sll_s</text>
<text text-anchor="middle" x="230" y="-7.5" font-family="Helvetica,sans-Serif" font-size="10.00" fill="#000000">_xml_file_close</text>
</a>
</g>
</g>
<!-- Node12&#45;&gt;Node15 -->
<g id="edge3" class="edge">
<title>Node12&#45;&gt;Node15</title>
<path fill="none" stroke="#191970" d="M130.9874,-29.9456C142.2375,-28.3043 153.9244,-26.5992 165.1575,-24.9603"/>
<polygon fill="#191970" stroke="#191970" points="165.9304,-28.3847 175.3203,-23.4776 164.9197,-21.458 165.9304,-28.3847"/>
</g>
<!-- Node14 -->
<g id="node3" class="node">
<title>Node14</title>
<g id="a_node3"><a xlink:href="namespacesll__m__collective.html#a37ea25f42a791be5a710a6cf0d1e1197" target="_top" xlink:title="Checks if the pointer ptr is associated to an object. ">
<polygon fill="#ffffff" stroke="#000000" points="329,-49.5 329,-79.5 451,-79.5 451,-49.5 329,-49.5"/>
<text text-anchor="start" x="337" y="-67.5" font-family="Helvetica,sans-Serif" font-size="10.00" fill="#000000">sll_m_collective::sll</text>
<text text-anchor="middle" x="390" y="-56.5" font-family="Helvetica,sans-Serif" font-size="10.00" fill="#000000">_check_collective_ptr</text>
</a>
</g>
</g>
<!-- Node13&#45;&gt;Node14 -->
<g id="edge2" class="edge">
<title>Node13&#45;&gt;Node14</title>
<path fill="none" stroke="#191970" d="M293.2362,-64.5C301.5576,-64.5 310.1323,-64.5 318.5781,-64.5"/>
<polygon fill="#191970" stroke="#191970" points="318.7903,-68.0001 328.7903,-64.5 318.7903,-61.0001 318.7903,-68.0001"/>
</g>
</g>
</svg>
