<?xml version="1.0" encoding="UTF-8" standalone="no"?>
<!DOCTYPE svg PUBLIC "-//W3C//DTD SVG 1.1//EN"
 "http://www.w3.org/Graphics/SVG/1.1/DTD/svg11.dtd">
<!-- Generated by graphviz version 2.43.0 (0)
 -->
<!-- Title: init_spline_cl_1d Pages: 1 -->
<svg width="309pt" height="100pt"
 viewBox="0.00 0.00 309.00 99.50" xmlns="http://www.w3.org/2000/svg" xmlns:xlink="http://www.w3.org/1999/xlink">
<g id="graph0" class="graph" transform="scale(1 1) rotate(0) translate(4 95.5)">
<title>init_spline_cl_1d</title>
<polygon fill="white" stroke="transparent" points="-4,4 -4,-95.5 305,-95.5 305,4 -4,4"/>
<!-- Node1 -->
<g id="node1" class="node">
<title>Node1</title>
<g id="a_node1"><a xlink:title="Initializer.">
<polygon fill="#bfbfbf" stroke="black" points="0,-33 0,-52 98,-52 98,-33 0,-33"/>
<text text-anchor="middle" x="49" y="-40" font-family="Helvetica,sans-Serif" font-size="10.00">init_spline_cl_1d</text>
</a>
</g>
</g>
<!-- Node2 -->
<g id="node2" class="node">
<title>Node2</title>
<g id="a_node2"><a xlink:href="namespacesll__m__gauss__legendre__integration.html#a0df63a9e8ee884c2d4a0d1f53602a949" target="_top" xlink:title="Returns a 2d array of size (2,npoints) containing gauss&#45;legendre points and weights in the interval [...">
<polygon fill="white" stroke="black" points="134,-50 134,-91 301,-91 301,-50 134,-50"/>
<text text-anchor="start" x="142" y="-79" font-family="Helvetica,sans-Serif" font-size="10.00">sll_m_gauss_legendre</text>
<text text-anchor="start" x="142" y="-68" font-family="Helvetica,sans-Serif" font-size="10.00">_integration::sll_f_gauss</text>
<text text-anchor="middle" x="217.5" y="-57" font-family="Helvetica,sans-Serif" font-size="10.00">_legendre_points_and_weights</text>
</a>
</g>
</g>
<!-- Node1&#45;&gt;Node2 -->
<g id="edge1" class="edge">
<title>Node1&#45;&gt;Node2</title>
<path fill="none" stroke="midnightblue" d="M98.16,-50.6C106.32,-51.97 115.04,-53.44 123.9,-54.93"/>
<polygon fill="midnightblue" stroke="midnightblue" points="123.5,-58.41 133.94,-56.62 124.66,-51.51 123.5,-58.41"/>
</g>
<!-- Node3 -->
<g id="node3" class="node">
<title>Node3</title>
<g id="a_node3"><a xlink:href="namespacesll__m__splines__pp.html#a7e2a3943e2c330a0a9597b535ce259b3" target="_top" xlink:title="Initialize sll_t_spline_pp_1d object (Set poly_coeffs depending on degree)">
<polygon fill="white" stroke="black" points="159,-0.5 159,-30.5 276,-30.5 276,-0.5 159,-0.5"/>
<text text-anchor="start" x="167" y="-18.5" font-family="Helvetica,sans-Serif" font-size="10.00">sll_m_splines_pp::sll</text>
<text text-anchor="middle" x="217.5" y="-7.5" font-family="Helvetica,sans-Serif" font-size="10.00">_s_spline_pp_init_1d</text>
</a>
</g>
</g>
<!-- Node1&#45;&gt;Node3 -->
<g id="edge2" class="edge">
<title>Node1&#45;&gt;Node3</title>
<path fill="none" stroke="midnightblue" d="M98.16,-34.69C113.97,-32.13 131.86,-29.23 148.85,-26.47"/>
<polygon fill="midnightblue" stroke="midnightblue" points="149.41,-29.93 158.72,-24.87 148.29,-23.02 149.41,-29.93"/>
</g>
</g>
</svg>
