<?xml version="1.0" encoding="UTF-8" standalone="no"?>
<!DOCTYPE svg PUBLIC "-//W3C//DTD SVG 1.1//EN"
 "http://www.w3.org/Graphics/SVG/1.1/DTD/svg11.dtd">
<!-- Generated by graphviz version 2.38.0 (20140413.2041)
 -->
<!-- Title: sll_s_compute_mu Pages: 1 -->
<svg width="548pt" height="230pt"
 viewBox="0.00 0.00 548.00 230.00" xmlns="http://www.w3.org/2000/svg" xmlns:xlink="http://www.w3.org/1999/xlink">
<g id="graph0" class="graph" transform="scale(1 1) rotate(0) translate(4 226)">
<title>sll_s_compute_mu</title>
<polygon fill="white" stroke="none" points="-4,4 -4,-226 544,-226 544,4 -4,4"/>
<!-- Node1 -->
<g id="node1" class="node"><title>Node1</title>
<polygon fill="#bfbfbf" stroke="black" points="0,-101.5 0,-120.5 98,-120.5 98,-101.5 0,-101.5"/>
<text text-anchor="middle" x="49" y="-108.5" font-family="Helvetica,sans-Serif" font-size="10.00">sll_s_compute_mu</text>
</g>
<!-- Node2 -->
<g id="node2" class="node"><title>Node2</title>
<g id="a_node2"><a xlink:href="namespacesll__m__gauss__lobatto__integration.html#a43443dd7dd80f1289d964b572cd6ee2c" target="_top" xlink:title="Returns a 1d array of size (n) containing gauss&#45;lobatto points in the interval [a,b]. ">
<polygon fill="white" stroke="black" points="138,-180.5 138,-221.5 252,-221.5 252,-180.5 138,-180.5"/>
<text text-anchor="start" x="146" y="-209.5" font-family="Helvetica,sans-Serif" font-size="10.00">sll_m_gauss_lobatto</text>
<text text-anchor="start" x="146" y="-198.5" font-family="Helvetica,sans-Serif" font-size="10.00">_integration::sll_f</text>
<text text-anchor="middle" x="195" y="-187.5" font-family="Helvetica,sans-Serif" font-size="10.00">_gauss_lobatto_points</text>
</a>
</g>
</g>
<!-- Node1&#45;&gt;Node2 -->
<g id="edge1" class="edge"><title>Node1&#45;&gt;Node2</title>
<path fill="none" stroke="midnightblue" d="M62.1112,-120.573C78.0798,-132.977 107.285,-154.915 134,-171 136.479,-172.492 139.041,-173.978 141.649,-175.443"/>
<polygon fill="midnightblue" stroke="midnightblue" points="140.169,-178.623 150.626,-180.331 143.517,-172.475 140.169,-178.623"/>
</g>
<!-- Node5 -->
<g id="node5" class="node"><title>Node5</title>
<g id="a_node5"><a xlink:href="namespacesll__m__gauss__lobatto__integration.html#ab2dd3e9cafb094226c63f629745b0654" target="_top" xlink:title="Returns a 1d array of size (n) containing gauss&#45;lobatto weights in the interval [a,b]. ">
<polygon fill="white" stroke="black" points="134,-120.5 134,-161.5 256,-161.5 256,-120.5 134,-120.5"/>
<text text-anchor="start" x="142" y="-149.5" font-family="Helvetica,sans-Serif" font-size="10.00">sll_m_gauss_lobatto</text>
<text text-anchor="start" x="142" y="-138.5" font-family="Helvetica,sans-Serif" font-size="10.00">_integration::sll_f</text>
<text text-anchor="middle" x="195" y="-127.5" font-family="Helvetica,sans-Serif" font-size="10.00">_gauss_lobatto_weights</text>
</a>
</g>
</g>
<!-- Node1&#45;&gt;Node5 -->
<g id="edge4" class="edge"><title>Node1&#45;&gt;Node5</title>
<path fill="none" stroke="midnightblue" d="M95.9584,-120.575C104.877,-122.433 114.413,-124.419 123.904,-126.397"/>
<polygon fill="midnightblue" stroke="midnightblue" points="123.247,-129.835 133.751,-128.448 124.675,-122.982 123.247,-129.835"/>
</g>
<!-- Node6 -->
<g id="node6" class="node"><title>Node6</title>
<g id="a_node6"><a xlink:href="namespacesll__m__gauss__legendre__integration.html#a2b7c9ab61e7de446803fedecf4824099" target="_top" xlink:title="sll_m_gauss_legendre\l_integration::sll_f_gauss\l_legendre_points">
<polygon fill="white" stroke="black" points="134,-60.5 134,-101.5 256,-101.5 256,-60.5 134,-60.5"/>
<text text-anchor="start" x="142" y="-89.5" font-family="Helvetica,sans-Serif" font-size="10.00">sll_m_gauss_legendre</text>
<text text-anchor="start" x="142" y="-78.5" font-family="Helvetica,sans-Serif" font-size="10.00">_integration::sll_f_gauss</text>
<text text-anchor="middle" x="195" y="-67.5" font-family="Helvetica,sans-Serif" font-size="10.00">_legendre_points</text>
</a>
</g>
</g>
<!-- Node1&#45;&gt;Node6 -->
<g id="edge6" class="edge"><title>Node1&#45;&gt;Node6</title>
<path fill="none" stroke="midnightblue" d="M95.9584,-101.425C104.877,-99.5672 114.413,-97.5807 123.904,-95.6034"/>
<polygon fill="midnightblue" stroke="midnightblue" points="124.675,-99.018 133.751,-93.5519 123.247,-92.1651 124.675,-99.018"/>
</g>
<!-- Node7 -->
<g id="node7" class="node"><title>Node7</title>
<g id="a_node7"><a xlink:href="namespacesll__m__gauss__legendre__integration.html#a47b7463159f1c9e00a9b4645bd122b6f" target="_top" xlink:title="sll_m_gauss_legendre\l_integration::sll_f_gauss\l_legendre_weights">
<polygon fill="white" stroke="black" points="134,-0.5 134,-41.5 256,-41.5 256,-0.5 134,-0.5"/>
<text text-anchor="start" x="142" y="-29.5" font-family="Helvetica,sans-Serif" font-size="10.00">sll_m_gauss_legendre</text>
<text text-anchor="start" x="142" y="-18.5" font-family="Helvetica,sans-Serif" font-size="10.00">_integration::sll_f_gauss</text>
<text text-anchor="middle" x="195" y="-7.5" font-family="Helvetica,sans-Serif" font-size="10.00">_legendre_weights</text>
</a>
</g>
</g>
<!-- Node1&#45;&gt;Node7 -->
<g id="edge7" class="edge"><title>Node1&#45;&gt;Node7</title>
<path fill="none" stroke="midnightblue" d="M62.1112,-101.427C78.0798,-89.0227 107.285,-67.0846 134,-51 136.479,-49.5076 139.041,-48.0223 141.649,-46.5568"/>
<polygon fill="midnightblue" stroke="midnightblue" points="143.517,-49.5248 150.626,-41.6689 140.169,-43.3771 143.517,-49.5248"/>
</g>
<!-- Node3 -->
<g id="node3" class="node"><title>Node3</title>
<g id="a_node3"><a xlink:href="namespacesll__m__gauss__lobatto__integration.html#aef28cd44b846400f5133a0ee289babbc" target="_top" xlink:title="This comes from http://dl.acm.org, Algorithme 726 : ORTHPOL, appendices and supplements To use those ...">
<polygon fill="white" stroke="black" points="292,-156 292,-186 398,-186 398,-156 292,-156"/>
<text text-anchor="start" x="300" y="-174" font-family="Helvetica,sans-Serif" font-size="10.00">sll_m_gauss_lobatto</text>
<text text-anchor="middle" x="345" y="-163" font-family="Helvetica,sans-Serif" font-size="10.00">_integration::dlob</text>
</a>
</g>
</g>
<!-- Node2&#45;&gt;Node3 -->
<g id="edge2" class="edge"><title>Node2&#45;&gt;Node3</title>
<path fill="none" stroke="midnightblue" d="M252.375,-189.573C261.954,-187.631 271.952,-185.604 281.674,-183.634"/>
<polygon fill="midnightblue" stroke="midnightblue" points="282.571,-187.023 291.676,-181.606 281.18,-180.163 282.571,-187.023"/>
</g>
<!-- Node4 -->
<g id="node4" class="node"><title>Node4</title>
<g id="a_node4"><a xlink:href="namespacesll__m__gauss__lobatto__integration.html#a20a90d157ba32cd27c5d6f89eccf3735" target="_top" xlink:title="Given n and a measure dlambda, this routine generates the n&#45;point Gaussian quadrature formula...">
<polygon fill="white" stroke="black" points="434,-156 434,-186 540,-186 540,-156 434,-156"/>
<text text-anchor="start" x="442" y="-174" font-family="Helvetica,sans-Serif" font-size="10.00">sll_m_gauss_lobatto</text>
<text text-anchor="middle" x="487" y="-163" font-family="Helvetica,sans-Serif" font-size="10.00">_integration::dgauss</text>
</a>
</g>
</g>
<!-- Node3&#45;&gt;Node4 -->
<g id="edge3" class="edge"><title>Node3&#45;&gt;Node4</title>
<path fill="none" stroke="midnightblue" d="M398.131,-171C406.421,-171 415.07,-171 423.568,-171"/>
<polygon fill="midnightblue" stroke="midnightblue" points="423.826,-174.5 433.826,-171 423.826,-167.5 423.826,-174.5"/>
</g>
<!-- Node5&#45;&gt;Node3 -->
<g id="edge5" class="edge"><title>Node5&#45;&gt;Node3</title>
<path fill="none" stroke="midnightblue" d="M256.197,-153.202C264.71,-154.928 273.476,-156.705 282.022,-158.437"/>
<polygon fill="midnightblue" stroke="midnightblue" points="281.429,-161.888 291.925,-160.444 282.819,-155.027 281.429,-161.888"/>
</g>
</g>
</svg>
