<?xml version="1.0" encoding="UTF-8" standalone="no"?>
<!DOCTYPE svg PUBLIC "-//W3C//DTD SVG 1.1//EN"
 "http://www.w3.org/Graphics/SVG/1.1/DTD/svg11.dtd">
<!-- Generated by graphviz version 2.38.0 (20140413.2041)
 -->
<!-- Title: sll_f_process_outside_point_set_to_limit Pages: 1 -->
<!--zoomable 314 -->
<svg id="main" version="1.1" xmlns="http://www.w3.org/2000/svg" xmlns:xlink="http://www.w3.org/1999/xlink" xml:space="preserve" onload="init(evt)">
<style type="text/css"><![CDATA[
.edge:hover path { stroke: red; }
.edge:hover polygon { stroke: red; fill: red; }
]]></style>
<script type="text/javascript"><![CDATA[
var edges = document.getElementsByTagName('g');
if (edges && edges.length) {
  for (var i=0;i<edges.length;i++) {
    if (edges[i].id.substr(0,4)=='edge') {
      edges[i].setAttribute('class','edge');
    }
  }
}
]]></script>
        <defs>
                <circle id="rim" cx="0" cy="0" r="7"/>
                <circle id="rim2" cx="0" cy="0" r="3.5"/>
                <g id="zoomPlus">
                        <use xlink:href="#rim" fill="#404040">
                                <set attributeName="fill" to="#808080" begin="zoomplus.mouseover" end="zoomplus.mouseout"/>
                        </use>
                        <path d="M-4,0h8M0,-4v8" fill="none" stroke="white" stroke-width="1.5" pointer-events="none"/>
                </g>
                <g id="zoomMin">
                        <use xlink:href="#rim" fill="#404040">
                                <set attributeName="fill" to="#808080" begin="zoomminus.mouseover" end="zoomminus.mouseout"/>
                        </use>
                        <path d="M-4,0h8" fill="none" stroke="white" stroke-width="1.5" pointer-events="none"/>
                </g>
                <g id="dirArrow">
                        <path fill="none" stroke="white" stroke-width="1.5" d="M0,-3.0v7 M-2.5,-0.5L0,-3.0L2.5,-0.5"/>
                </g>
               <g id="resetDef">
                       <use xlink:href="#rim2" fill="#404040">
                               <set attributeName="fill" to="#808080" begin="reset.mouseover" end="reset.mouseout"/>
                       </use>
               </g>
        </defs>

<script type="text/javascript">
var viewWidth = 525;
var viewHeight = 314;
var sectionId = 'dynsection-1';
</script>
<script xlink:href="svgpan.js"/>
<svg id="graph" class="graph">
<g id="viewport">
<title>sll_f_process_outside_point_set_to_limit</title>
<polygon fill="white" stroke="none" points="-4,4 -4,-309.5 521,-309.5 521,4 -4,4"/>
<!-- Node1 -->
<g id="node1" class="node"><title>Node1</title>
<polygon fill="#bfbfbf" stroke="black" points="0,-143.5 0,-173.5 111,-173.5 111,-143.5 0,-143.5"/>
<text text-anchor="start" x="8" y="-161.5" font-family="Helvetica,sans-Serif" font-size="10.00">sll_f_process_outside</text>
<text text-anchor="middle" x="55.5" y="-150.5" font-family="Helvetica,sans-Serif" font-size="10.00">_point_set_to_limit</text>
</g>
<!-- Node2 -->
<g id="node2" class="node"><title>Node2</title>
<g id="a_node2"><a xlink:href="namespacesll__m__advection__1d__csl.html#adff7afe9f62205bd3d84abed6dd2809e" target="_top" xlink:title="sll_m_advection_1d\l_csl::initialize_csl\l_1d_advector">
<polygon fill="white" stroke="black" points="177.5,-264 177.5,-305 280.5,-305 280.5,-264 177.5,-264"/>
<text text-anchor="start" x="185.5" y="-293" font-family="Helvetica,sans-Serif" font-size="10.00">sll_m_advection_1d</text>
<text text-anchor="start" x="185.5" y="-282" font-family="Helvetica,sans-Serif" font-size="10.00">_csl::initialize_csl</text>
<text text-anchor="middle" x="229" y="-271" font-family="Helvetica,sans-Serif" font-size="10.00">_1d_advector</text>
</a>
</g>
</g>
<!-- Node1&#45;&gt;Node2 -->
<g id="edge1" class="edge"><title>Node1&#45;&gt;Node2</title>
<path fill="none" stroke="midnightblue" d="M73.3585,-181.788C89.9626,-203.263 117.121,-234.719 147,-254.5 156.253,-260.626 166.925,-265.717 177.422,-269.86"/>
<polygon fill="midnightblue" stroke="midnightblue" points="75.9412,-179.401 67.1169,-173.537 70.3586,-183.624 75.9412,-179.401"/>
</g>
<!-- Node4 -->
<g id="node4" class="node"><title>Node4</title>
<g id="a_node4"><a xlink:href="namespacesll__m__characteristics__1d__explicit__euler.html#a63bf9e59a0d230d96d852ebb7d5189ad" target="_top" xlink:title="sll_m_characteristics\l_1d_explicit_euler::initialize\l_charac_1d_explicit_euler">
<polygon fill="white" stroke="black" points="161,-204 161,-245 297,-245 297,-204 161,-204"/>
<text text-anchor="start" x="169" y="-233" font-family="Helvetica,sans-Serif" font-size="10.00">sll_m_characteristics</text>
<text text-anchor="start" x="169" y="-222" font-family="Helvetica,sans-Serif" font-size="10.00">_1d_explicit_euler::initialize</text>
<text text-anchor="middle" x="229" y="-211" font-family="Helvetica,sans-Serif" font-size="10.00">_charac_1d_explicit_euler</text>
</a>
</g>
</g>
<!-- Node1&#45;&gt;Node4 -->
<g id="edge3" class="edge"><title>Node1&#45;&gt;Node4</title>
<path fill="none" stroke="midnightblue" d="M104.908,-177.257C118.52,-182.522 133.336,-188.243 147,-193.5 155.713,-196.852 164.957,-200.399 173.963,-203.849"/>
<polygon fill="midnightblue" stroke="midnightblue" points="105.833,-173.862 95.2433,-173.518 103.307,-180.391 105.833,-173.862"/>
</g>
<!-- Node6 -->
<g id="node6" class="node"><title>Node6</title>
<g id="a_node6"><a xlink:href="namespacesll__m__characteristics__1d__explicit__euler__conservative.html#a00c7588a0827eb86b9046f3cfaba1efe" target="_top" xlink:title="sll_m_characteristics\l_1d_explicit_euler_conservative\l::initialize_explicit_euler\l_conservative_1d_charac">
<polygon fill="white" stroke="black" points="151.5,-132.5 151.5,-184.5 306.5,-184.5 306.5,-132.5 151.5,-132.5"/>
<text text-anchor="start" x="159.5" y="-172.5" font-family="Helvetica,sans-Serif" font-size="10.00">sll_m_characteristics</text>
<text text-anchor="start" x="159.5" y="-161.5" font-family="Helvetica,sans-Serif" font-size="10.00">_1d_explicit_euler_conservative</text>
<text text-anchor="start" x="159.5" y="-150.5" font-family="Helvetica,sans-Serif" font-size="10.00">::initialize_explicit_euler</text>
<text text-anchor="middle" x="229" y="-139.5" font-family="Helvetica,sans-Serif" font-size="10.00">_conservative_1d_charac</text>
</a>
</g>
</g>
<!-- Node1&#45;&gt;Node6 -->
<g id="edge5" class="edge"><title>Node1&#45;&gt;Node6</title>
<path fill="none" stroke="midnightblue" d="M121.279,-158.5C131.074,-158.5 141.259,-158.5 151.277,-158.5"/>
<polygon fill="midnightblue" stroke="midnightblue" points="121.235,-155 111.235,-158.5 121.235,-162 121.235,-155"/>
</g>
<!-- Node8 -->
<g id="node8" class="node"><title>Node8</title>
<g id="a_node8"><a xlink:href="namespacesll__m__characteristics__1d__trapezoid.html#a469ca7d418f12b41cf3d50a2a0732152" target="_top" xlink:title="sll_m_characteristics\l_1d_trapezoid::initialize\l_trapezoid_1d_charac">
<polygon fill="white" stroke="black" points="169.5,-72 169.5,-113 288.5,-113 288.5,-72 169.5,-72"/>
<text text-anchor="start" x="177.5" y="-101" font-family="Helvetica,sans-Serif" font-size="10.00">sll_m_characteristics</text>
<text text-anchor="start" x="177.5" y="-90" font-family="Helvetica,sans-Serif" font-size="10.00">_1d_trapezoid::initialize</text>
<text text-anchor="middle" x="229" y="-79" font-family="Helvetica,sans-Serif" font-size="10.00">_trapezoid_1d_charac</text>
</a>
</g>
</g>
<!-- Node1&#45;&gt;Node8 -->
<g id="edge7" class="edge"><title>Node1&#45;&gt;Node8</title>
<path fill="none" stroke="midnightblue" d="M103.3,-139.637C117.326,-134.05 132.764,-127.967 147,-122.5 154.98,-119.436 163.421,-116.249 171.724,-113.146"/>
<polygon fill="midnightblue" stroke="midnightblue" points="101.837,-136.452 93.8479,-143.411 104.433,-142.953 101.837,-136.452"/>
</g>
<!-- Node10 -->
<g id="node10" class="node"><title>Node10</title>
<g id="a_node10"><a xlink:href="namespacesll__m__characteristics__1d__trapezoid__conservative.html#a77cd7909c72fd242134305d19521a44e" target="_top" xlink:title="sll_m_characteristics\l_1d_trapezoid_conservative\l::initialize_trapezoid_conservative\l_1d_charac">
<polygon fill="white" stroke="black" points="147,-0.5 147,-52.5 311,-52.5 311,-0.5 147,-0.5"/>
<text text-anchor="start" x="155" y="-40.5" font-family="Helvetica,sans-Serif" font-size="10.00">sll_m_characteristics</text>
<text text-anchor="start" x="155" y="-29.5" font-family="Helvetica,sans-Serif" font-size="10.00">_1d_trapezoid_conservative</text>
<text text-anchor="start" x="155" y="-18.5" font-family="Helvetica,sans-Serif" font-size="10.00">::initialize_trapezoid_conservative</text>
<text text-anchor="middle" x="229" y="-7.5" font-family="Helvetica,sans-Serif" font-size="10.00">_1d_charac</text>
</a>
</g>
</g>
<!-- Node1&#45;&gt;Node10 -->
<g id="edge9" class="edge"><title>Node1&#45;&gt;Node10</title>
<path fill="none" stroke="midnightblue" d="M73.9346,-135.28C90.7697,-114.117 117.928,-83.1036 147,-62.5 152.022,-58.9407 157.452,-55.6148 163.041,-52.5362"/>
<polygon fill="midnightblue" stroke="midnightblue" points="70.9801,-133.377 67.586,-143.413 76.4981,-137.684 70.9801,-133.377"/>
</g>
<!-- Node3 -->
<g id="node3" class="node"><title>Node3</title>
<g id="a_node3"><a xlink:href="namespacesll__m__advection__1d__csl.html#a55fa500727e3f15cc3c449f20f776ff6" target="_top" xlink:title="sll_m_advection_1d\l_csl::sll_f_new_csl\l_1d_advector">
<polygon fill="white" stroke="black" points="380.5,-264 380.5,-305 483.5,-305 483.5,-264 380.5,-264"/>
<text text-anchor="start" x="388.5" y="-293" font-family="Helvetica,sans-Serif" font-size="10.00">sll_m_advection_1d</text>
<text text-anchor="start" x="388.5" y="-282" font-family="Helvetica,sans-Serif" font-size="10.00">_csl::sll_f_new_csl</text>
<text text-anchor="middle" x="432" y="-271" font-family="Helvetica,sans-Serif" font-size="10.00">_1d_advector</text>
</a>
</g>
</g>
<!-- Node2&#45;&gt;Node3 -->
<g id="edge2" class="edge"><title>Node2&#45;&gt;Node3</title>
<path fill="none" stroke="midnightblue" d="M290.991,-284.5C319.545,-284.5 353.161,-284.5 380.295,-284.5"/>
<polygon fill="midnightblue" stroke="midnightblue" points="290.721,-281 280.721,-284.5 290.721,-288 290.721,-281"/>
</g>
<!-- Node5 -->
<g id="node5" class="node"><title>Node5</title>
<g id="a_node5"><a xlink:href="namespacesll__m__characteristics__1d__explicit__euler.html#a81255034a026a0d217ed2666dc34ac44" target="_top" xlink:title="sll_m_characteristics\l_1d_explicit_euler::sll\l_f_new_charac_1d_explicit_euler">
<polygon fill="white" stroke="black" points="351.5,-204 351.5,-245 512.5,-245 512.5,-204 351.5,-204"/>
<text text-anchor="start" x="359.5" y="-233" font-family="Helvetica,sans-Serif" font-size="10.00">sll_m_characteristics</text>
<text text-anchor="start" x="359.5" y="-222" font-family="Helvetica,sans-Serif" font-size="10.00">_1d_explicit_euler::sll</text>
<text text-anchor="middle" x="432" y="-211" font-family="Helvetica,sans-Serif" font-size="10.00">_f_new_charac_1d_explicit_euler</text>
</a>
</g>
</g>
<!-- Node4&#45;&gt;Node5 -->
<g id="edge4" class="edge"><title>Node4&#45;&gt;Node5</title>
<path fill="none" stroke="midnightblue" d="M307.527,-224.5C321.88,-224.5 336.895,-224.5 351.311,-224.5"/>
<polygon fill="midnightblue" stroke="midnightblue" points="307.21,-221 297.21,-224.5 307.21,-228 307.21,-221"/>
</g>
<!-- Node7 -->
<g id="node7" class="node"><title>Node7</title>
<g id="a_node7"><a xlink:href="namespacesll__m__characteristics__1d__explicit__euler__conservative.html#a2ec29c93a0c3d87bbb8e93ea11374830" target="_top" xlink:title="sll_m_characteristics\l_1d_explicit_euler_conservative\l::sll_f_new_explicit_euler\l_conservative_1d_charac">
<polygon fill="white" stroke="black" points="354.5,-132.5 354.5,-184.5 509.5,-184.5 509.5,-132.5 354.5,-132.5"/>
<text text-anchor="start" x="362.5" y="-172.5" font-family="Helvetica,sans-Serif" font-size="10.00">sll_m_characteristics</text>
<text text-anchor="start" x="362.5" y="-161.5" font-family="Helvetica,sans-Serif" font-size="10.00">_1d_explicit_euler_conservative</text>
<text text-anchor="start" x="362.5" y="-150.5" font-family="Helvetica,sans-Serif" font-size="10.00">::sll_f_new_explicit_euler</text>
<text text-anchor="middle" x="432" y="-139.5" font-family="Helvetica,sans-Serif" font-size="10.00">_conservative_1d_charac</text>
</a>
</g>
</g>
<!-- Node6&#45;&gt;Node7 -->
<g id="edge6" class="edge"><title>Node6&#45;&gt;Node7</title>
<path fill="none" stroke="midnightblue" d="M316.929,-158.5C329.37,-158.5 342.093,-158.5 354.317,-158.5"/>
<polygon fill="midnightblue" stroke="midnightblue" points="316.563,-155 306.563,-158.5 316.563,-162 316.563,-155"/>
</g>
<!-- Node9 -->
<g id="node9" class="node"><title>Node9</title>
<g id="a_node9"><a xlink:href="namespacesll__m__characteristics__1d__trapezoid.html#a9910a9a1b0a4c7fc0c5a775c30f7ac4a" target="_top" xlink:title="sll_m_characteristics\l_1d_trapezoid::sll_f\l_new_trapezoid_1d_charac">
<polygon fill="white" stroke="black" points="364.5,-72 364.5,-113 499.5,-113 499.5,-72 364.5,-72"/>
<text text-anchor="start" x="372.5" y="-101" font-family="Helvetica,sans-Serif" font-size="10.00">sll_m_characteristics</text>
<text text-anchor="start" x="372.5" y="-90" font-family="Helvetica,sans-Serif" font-size="10.00">_1d_trapezoid::sll_f</text>
<text text-anchor="middle" x="432" y="-79" font-family="Helvetica,sans-Serif" font-size="10.00">_new_trapezoid_1d_charac</text>
</a>
</g>
</g>
<!-- Node8&#45;&gt;Node9 -->
<g id="edge8" class="edge"><title>Node8&#45;&gt;Node9</title>
<path fill="none" stroke="midnightblue" d="M298.905,-92.5C320.12,-92.5 343.425,-92.5 364.477,-92.5"/>
<polygon fill="midnightblue" stroke="midnightblue" points="298.678,-89.0001 288.678,-92.5 298.678,-96.0001 298.678,-89.0001"/>
</g>
<!-- Node11 -->
<g id="node11" class="node"><title>Node11</title>
<g id="a_node11"><a xlink:href="namespacesll__m__characteristics__1d__trapezoid__conservative.html#ab739d084574a02720dc383063d6822fd" target="_top" xlink:title="sll_m_characteristics\l_1d_trapezoid_conservative\l::sll_f_new_trapezoid_conservative\l_1d_charac">
<polygon fill="white" stroke="black" points="347,-0.5 347,-52.5 517,-52.5 517,-0.5 347,-0.5"/>
<text text-anchor="start" x="355" y="-40.5" font-family="Helvetica,sans-Serif" font-size="10.00">sll_m_characteristics</text>
<text text-anchor="start" x="355" y="-29.5" font-family="Helvetica,sans-Serif" font-size="10.00">_1d_trapezoid_conservative</text>
<text text-anchor="start" x="355" y="-18.5" font-family="Helvetica,sans-Serif" font-size="10.00">::sll_f_new_trapezoid_conservative</text>
<text text-anchor="middle" x="432" y="-7.5" font-family="Helvetica,sans-Serif" font-size="10.00">_1d_charac</text>
</a>
</g>
</g>
<!-- Node10&#45;&gt;Node11 -->
<g id="edge10" class="edge"><title>Node10&#45;&gt;Node11</title>
<path fill="none" stroke="midnightblue" d="M321.176,-26.5C329.743,-26.5 338.402,-26.5 346.9,-26.5"/>
<polygon fill="midnightblue" stroke="midnightblue" points="321.175,-23.0001 311.175,-26.5 321.175,-30.0001 321.175,-23.0001"/>
</g>
</g>
</svg>
        <g id="navigator" transform="translate(0 0)" fill="#404254">
                <rect fill="#f2f5e9" fill-opacity="0.5" stroke="#606060" stroke-width=".5" x="0" y="0" width="60" height="60"/>
                <use id="zoomplus" xlink:href="#zoomPlus" x="17" y="9" onmousedown="handleZoom(evt,'in')"/>
                <use id="zoomminus" xlink:href="#zoomMin" x="42" y="9" onmousedown="handleZoom(evt,'out')"/>
                <use id="reset" xlink:href="#resetDef" x="30" y="36" onmousedown="handleReset()"/>
                <g id="arrowUp" xlink:href="#dirArrow" transform="translate(30 24)" onmousedown="handlePan(0,-1)">
                  <use xlink:href="#rim" fill="#404040">
                        <set attributeName="fill" to="#808080" begin="arrowUp.mouseover" end="arrowUp.mouseout"/>
                  </use>
                  <path fill="none" stroke="white" stroke-width="1.5" d="M0,-3.0v7 M-2.5,-0.5L0,-3.0L2.5,-0.5"/>
                </g>
                <g id="arrowRight" xlink:href="#dirArrow" transform="rotate(90) translate(36 -43)" onmousedown="handlePan(1,0)">
                  <use xlink:href="#rim" fill="#404040">
                        <set attributeName="fill" to="#808080" begin="arrowRight.mouseover" end="arrowRight.mouseout"/>
                  </use>
                  <path fill="none" stroke="white" stroke-width="1.5" d="M0,-3.0v7 M-2.5,-0.5L0,-3.0L2.5,-0.5"/>
                </g>
                <g id="arrowDown" xlink:href="#dirArrow" transform="rotate(180) translate(-30 -48)" onmousedown="handlePan(0,1)">
                  <use xlink:href="#rim" fill="#404040">
                        <set attributeName="fill" to="#808080" begin="arrowDown.mouseover" end="arrowDown.mouseout"/>
                  </use>
                  <path fill="none" stroke="white" stroke-width="1.5" d="M0,-3.0v7 M-2.5,-0.5L0,-3.0L2.5,-0.5"/>
                </g>
                <g id="arrowLeft" xlink:href="#dirArrow" transform="rotate(270) translate(-36 17)" onmousedown="handlePan(-1,0)">
                  <use xlink:href="#rim" fill="#404040">
                        <set attributeName="fill" to="#808080" begin="arrowLeft.mouseover" end="arrowLeft.mouseout"/>
                  </use>
                  <path fill="none" stroke="white" stroke-width="1.5" d="M0,-3.0v7 M-2.5,-0.5L0,-3.0L2.5,-0.5"/>
                </g>
        </g>
        <svg viewBox="0 0 15 15" width="100%" height="30px" preserveAspectRatio="xMaxYMin meet">
         <g id="arrow_out" transform="scale(0.3 0.3)">
          <a xlink:href="namespacesll__m__characteristics__1d__base_a4a7a5de48e3a7f6f80c8dea9998610f9_icgraph_org.svg" target="_base">
           <rect id="button" ry="5" rx="5" y="6" x="6" height="38" width="38"
                fill="#f2f5e9" fill-opacity="0.5" stroke="#606060" stroke-width="1.0"/>
           <path id="arrow"
             d="M 11.500037,31.436501 C 11.940474,20.09759 22.043105,11.32322 32.158766,21.979434 L 37.068811,17.246167 C 37.068811,17.246167 37.088388,32 37.088388,32 L 22.160133,31.978069 C 22.160133,31.978069 26.997745,27.140456 26.997745,27.140456 C 18.528582,18.264221 13.291696,25.230495 11.500037,31.436501 z"
             style="fill:#404040;"/>
          </a>
         </g>
        </svg>
</svg>
