<?xml version="1.0" encoding="UTF-8" standalone="no"?>
<!DOCTYPE svg PUBLIC "-//W3C//DTD SVG 1.1//EN"
 "http://www.w3.org/Graphics/SVG/1.1/DTD/svg11.dtd">
<!-- Generated by graphviz version 2.40.1 (20161225.0304)
 -->
<!-- Title: sll_s_quintic_spline_interpolator_1d_init Pages: 1 -->
<svg width="271pt" height="39pt"
 viewBox="0.00 0.00 271.00 39.00" xmlns="http://www.w3.org/2000/svg" xmlns:xlink="http://www.w3.org/1999/xlink">
<g id="graph0" class="graph" transform="scale(1 1) rotate(0) translate(4 35)">
<title>sll_s_quintic_spline_interpolator_1d_init</title>
<polygon fill="#ffffff" stroke="transparent" points="-4,4 -4,-35 267,-35 267,4 -4,4"/>
<!-- Node36 -->
<g id="node1" class="node">
<title>Node36</title>
<polygon fill="#bfbfbf" stroke="#000000" points="0,-.5 0,-30.5 117,-30.5 117,-.5 0,-.5"/>
<text text-anchor="start" x="8" y="-18.5" font-family="Helvetica,sans-Serif" font-size="10.00" fill="#000000">sll_s_quintic_spline</text>
<text text-anchor="middle" x="58.5" y="-7.5" font-family="Helvetica,sans-Serif" font-size="10.00" fill="#000000">_interpolator_1d_init</text>
</g>
<!-- Node37 -->
<g id="node2" class="node">
<title>Node37</title>
<g id="a_node2"><a xlink:href="namespacesll__m__quintic__spline__interpolator__1d.html#a8da33806391cd7c77addc6f0bde9b960" target="_top" xlink:title="Create a new quintic splines interpolator. ">
<polygon fill="#ffffff" stroke="#000000" points="153,-.5 153,-30.5 263,-30.5 263,-.5 153,-.5"/>
<text text-anchor="start" x="161" y="-18.5" font-family="Helvetica,sans-Serif" font-size="10.00" fill="#000000">new_quintic_spline</text>
<text text-anchor="middle" x="208" y="-7.5" font-family="Helvetica,sans-Serif" font-size="10.00" fill="#000000">_interpolator_1d</text>
</a>
</g>
</g>
<!-- Node36&#45;&gt;Node37 -->
<g id="edge1" class="edge">
<title>Node36&#45;&gt;Node37</title>
<path fill="none" stroke="#191970" d="M127.2015,-15.5C135.8235,-15.5 144.5536,-15.5 152.9289,-15.5"/>
<polygon fill="#191970" stroke="#191970" points="127.1573,-12.0001 117.1573,-15.5 127.1572,-19.0001 127.1573,-12.0001"/>
</g>
</g>
</svg>
