<?xml version="1.0" encoding="UTF-8" standalone="no"?>
<!DOCTYPE svg PUBLIC "-//W3C//DTD SVG 1.1//EN"
 "http://www.w3.org/Graphics/SVG/1.1/DTD/svg11.dtd">
<!-- Generated by graphviz version 2.38.0 (20140413.2041)
 -->
<!-- Title: sll_f_cart_to_hex1 Pages: 1 -->
<!--zoomable 497 -->
<svg id="main" version="1.1" xmlns="http://www.w3.org/2000/svg" xmlns:xlink="http://www.w3.org/1999/xlink" xml:space="preserve" onload="init(evt)">
<style type="text/css"><![CDATA[
.edge:hover path { stroke: red; }
.edge:hover polygon { stroke: red; fill: red; }
]]></style>
<script type="text/javascript"><![CDATA[
var edges = document.getElementsByTagName('g');
if (edges && edges.length) {
  for (var i=0;i<edges.length;i++) {
    if (edges[i].id.substr(0,4)=='edge') {
      edges[i].setAttribute('class','edge');
    }
  }
}
]]></script>
        <defs>
                <circle id="rim" cx="0" cy="0" r="7"/>
                <circle id="rim2" cx="0" cy="0" r="3.5"/>
                <g id="zoomPlus">
                        <use xlink:href="#rim" fill="#404040">
                                <set attributeName="fill" to="#808080" begin="zoomplus.mouseover" end="zoomplus.mouseout"/>
                        </use>
                        <path d="M-4,0h8M0,-4v8" fill="none" stroke="white" stroke-width="1.5" pointer-events="none"/>
                </g>
                <g id="zoomMin">
                        <use xlink:href="#rim" fill="#404040">
                                <set attributeName="fill" to="#808080" begin="zoomminus.mouseover" end="zoomminus.mouseout"/>
                        </use>
                        <path d="M-4,0h8" fill="none" stroke="white" stroke-width="1.5" pointer-events="none"/>
                </g>
                <g id="dirArrow">
                        <path fill="none" stroke="white" stroke-width="1.5" d="M0,-3.0v7 M-2.5,-0.5L0,-3.0L2.5,-0.5"/>
                </g>
               <g id="resetDef">
                       <use xlink:href="#rim2" fill="#404040">
                               <set attributeName="fill" to="#808080" begin="reset.mouseover" end="reset.mouseout"/>
                       </use>
               </g>
        </defs>

<script type="text/javascript">
var viewWidth = 787;
var viewHeight = 497;
var sectionId = 'dynsection-11';
</script>
<script xlink:href="svgpan.js"/>
<svg id="graph" class="graph">
<g id="viewport">
<title>sll_f_cart_to_hex1</title>
<polygon fill="white" stroke="none" points="-4,4 -4,-492.5 783,-492.5 783,4 -4,4"/>
<!-- Node1 -->
<g id="node1" class="node"><title>Node1</title>
<polygon fill="#bfbfbf" stroke="black" points="0,-267 0,-286 96,-286 96,-267 0,-267"/>
<text text-anchor="middle" x="48" y="-274" font-family="Helvetica,sans-Serif" font-size="10.00">sll_f_cart_to_hex1</text>
</g>
<!-- Node2 -->
<g id="node2" class="node"><title>Node2</title>
<g id="a_node2"><a xlink:href="namespacesll__m__hexagonal__meshes.html#a9500c710f1292a6d8caca2f486e6c338" target="_top" xlink:title="Computes the type of triangle of a given cell. ">
<polygon fill="white" stroke="black" points="171,-327 171,-346 227,-346 227,-327 171,-327"/>
<text text-anchor="middle" x="199" y="-334" font-family="Helvetica,sans-Serif" font-size="10.00">cell_type</text>
</a>
</g>
</g>
<!-- Node1&#45;&gt;Node2 -->
<g id="edge1" class="edge"><title>Node1&#45;&gt;Node2</title>
<path fill="none" stroke="midnightblue" d="M79.207,-290.125C94.8657,-297.054 114.357,-305.474 132,-312.5 144.686,-317.553 158.905,-322.778 170.887,-327.058"/>
<polygon fill="midnightblue" stroke="midnightblue" points="80.5626,-286.897 70.0034,-286.028 77.7163,-293.292 80.5626,-286.897"/>
</g>
<!-- Node3 -->
<g id="node3" class="node"><title>Node3</title>
<g id="a_node3"><a xlink:href="namespacesll__m__hexagonal__meshes.html#aa579f5999884452ce000e206a88dc6b7" target="_top" xlink:title="Returns indices of the edges of a given cell. ">
<polygon fill="white" stroke="black" points="141,-239.5 141,-269.5 257,-269.5 257,-239.5 141,-239.5"/>
<text text-anchor="start" x="149" y="-257.5" font-family="Helvetica,sans-Serif" font-size="10.00">sll_s_get_cell_vertices</text>
<text text-anchor="middle" x="199" y="-246.5" font-family="Helvetica,sans-Serif" font-size="10.00">_index</text>
</a>
</g>
</g>
<!-- Node1&#45;&gt;Node3 -->
<g id="edge2" class="edge"><title>Node1&#45;&gt;Node3</title>
<path fill="none" stroke="midnightblue" d="M106.378,-268.028C117.729,-266.352 129.64,-264.593 140.979,-262.919"/>
<polygon fill="midnightblue" stroke="midnightblue" points="105.526,-264.616 96.1445,-269.539 106.549,-271.541 105.526,-264.616"/>
</g>
<!-- Node6 -->
<g id="node6" class="node"><title>Node6</title>
<g id="a_node6"><a xlink:href="namespacesll__m__hexagonal__meshes.html#a5f174ae37e2084780d052402428340f8" target="_top" xlink:title="returns the indices of the neighbouring cells/triangles ">
<polygon fill="white" stroke="black" points="332,-469 332,-488 415,-488 415,-469 332,-469"/>
<text text-anchor="middle" x="373.5" y="-476" font-family="Helvetica,sans-Serif" font-size="10.00">get_neighbours</text>
</a>
</g>
</g>
<!-- Node1&#45;&gt;Node6 -->
<g id="edge19" class="edge"><title>Node1&#45;&gt;Node6</title>
<path fill="none" stroke="midnightblue" d="M106.709,-280.471C163.034,-285.532 243.452,-296.299 266,-317.5 313.433,-362.1 256.308,-413.119 302,-459.5 309.918,-467.537 320.851,-472.282 331.746,-475.053"/>
<polygon fill="midnightblue" stroke="midnightblue" points="106.754,-276.962 96.491,-279.591 106.154,-283.936 106.754,-276.962"/>
</g>
<!-- Node17 -->
<g id="node17" class="node"><title>Node17</title>
<g id="a_node17"><a xlink:href="namespacesll__m__box__splines.html#a22194490adc78c1d67ab8345417700f8" target="_top" xlink:title="Interpolates on point of cartesian coordinates (x1, x2) ">
<polygon fill="white" stroke="black" points="132,-190.5 132,-220.5 266,-220.5 266,-190.5 132,-190.5"/>
<text text-anchor="start" x="140" y="-208.5" font-family="Helvetica,sans-Serif" font-size="10.00">sll_m_box_splines::</text>
<text text-anchor="middle" x="199" y="-197.5" font-family="Helvetica,sans-Serif" font-size="10.00">sll_f_hex_interpolate_value</text>
</a>
</g>
</g>
<!-- Node1&#45;&gt;Node17 -->
<g id="edge20" class="edge"><title>Node1&#45;&gt;Node17</title>
<path fill="none" stroke="midnightblue" d="M73.0404,-261.472C89.3175,-251.653 111.509,-238.947 132,-229.5 138.865,-226.335 146.276,-223.295 153.565,-220.506"/>
<polygon fill="midnightblue" stroke="midnightblue" points="70.9073,-258.673 64.1978,-266.873 74.5562,-264.647 70.9073,-258.673"/>
</g>
<!-- Node4 -->
<g id="node4" class="node"><title>Node4</title>
<g id="a_node4"><a xlink:href="namespacesll__m__interpolation__hex__hermite.html#a9c14ed4e8a770ba4a9e08cad03cc614f" target="_top" xlink:title="sll_m_interpolation\l_hex_hermite::sll_s\l_hermite_interpolation">
<polygon fill="white" stroke="black" points="317.5,-409 317.5,-450 429.5,-450 429.5,-409 317.5,-409"/>
<text text-anchor="start" x="325.5" y="-438" font-family="Helvetica,sans-Serif" font-size="10.00">sll_m_interpolation</text>
<text text-anchor="start" x="325.5" y="-427" font-family="Helvetica,sans-Serif" font-size="10.00">_hex_hermite::sll_s</text>
<text text-anchor="middle" x="373.5" y="-416" font-family="Helvetica,sans-Serif" font-size="10.00">_hermite_interpolation</text>
</a>
</g>
</g>
<!-- Node3&#45;&gt;Node4 -->
<g id="edge3" class="edge"><title>Node3&#45;&gt;Node4</title>
<path fill="none" stroke="midnightblue" d="M255.179,-274.917C259.151,-277.735 262.833,-280.916 266,-284.5 301.466,-324.631 266.049,-359.803 302,-399.5 306.375,-404.331 311.658,-408.412 317.342,-411.853"/>
<polygon fill="midnightblue" stroke="midnightblue" points="257.024,-271.943 246.686,-269.627 253.323,-277.885 257.024,-271.943"/>
</g>
<!-- Node5 -->
<g id="node5" class="node"><title>Node5</title>
<g id="a_node5"><a xlink:href="namespacesll__m__interpolation__hex__hermite.html#a9798c5acbe2996e930f4e51dee4b41ad" target="_top" xlink:title="sll_m_interpolation\l_hex_hermite::reconstruction\l_center_values">
<polygon fill="white" stroke="black" points="302,-349 302,-390 445,-390 445,-349 302,-349"/>
<text text-anchor="start" x="310" y="-378" font-family="Helvetica,sans-Serif" font-size="10.00">sll_m_interpolation</text>
<text text-anchor="start" x="310" y="-367" font-family="Helvetica,sans-Serif" font-size="10.00">_hex_hermite::reconstruction</text>
<text text-anchor="middle" x="373.5" y="-356" font-family="Helvetica,sans-Serif" font-size="10.00">_center_values</text>
</a>
</g>
</g>
<!-- Node3&#45;&gt;Node5 -->
<g id="edge4" class="edge"><title>Node3&#45;&gt;Node5</title>
<path fill="none" stroke="midnightblue" d="M251.075,-274.384C256.357,-277.399 261.448,-280.768 266,-284.5 287.176,-301.861 281.123,-316.78 302,-334.5 308.355,-339.894 315.684,-344.705 323.163,-348.904"/>
<polygon fill="midnightblue" stroke="midnightblue" points="252.547,-271.203 242.068,-269.643 249.287,-277.398 252.547,-271.203"/>
</g>
<!-- Node3&#45;&gt;Node6 -->
<g id="edge5" class="edge"><title>Node3&#45;&gt;Node6</title>
<path fill="none" stroke="midnightblue" d="M256.237,-275.076C259.866,-277.847 263.186,-280.974 266,-284.5 315.529,-346.566 247.571,-401.682 302,-459.5 309.82,-467.807 320.855,-472.621 331.878,-475.372"/>
<polygon fill="midnightblue" stroke="midnightblue" points="258.151,-272.146 247.876,-269.565 254.299,-277.991 258.151,-272.146"/>
</g>
<!-- Node7 -->
<g id="node7" class="node"><title>Node7</title>
<g id="a_node7"><a xlink:href="namespacesll__m__hexagonal__meshes.html#a9740ccf22d4a4a8fea91fe99c7532387" target="_top" xlink:title="Function that allows to change from the current element notation to one more intuitive. ">
<polygon fill="white" stroke="black" points="315.5,-261.5 315.5,-291.5 431.5,-291.5 431.5,-261.5 315.5,-261.5"/>
<text text-anchor="start" x="323.5" y="-279.5" font-family="Helvetica,sans-Serif" font-size="10.00">sll_f_change_elements</text>
<text text-anchor="middle" x="373.5" y="-268.5" font-family="Helvetica,sans-Serif" font-size="10.00">_notation</text>
</a>
</g>
</g>
<!-- Node3&#45;&gt;Node7 -->
<g id="edge6" class="edge"><title>Node3&#45;&gt;Node7</title>
<path fill="none" stroke="midnightblue" d="M267.651,-263.128C283.415,-265.138 300.05,-267.26 315.311,-269.206"/>
<polygon fill="midnightblue" stroke="midnightblue" points="267.802,-259.619 257.44,-261.826 266.917,-266.563 267.802,-259.619"/>
</g>
<!-- Node8 -->
<g id="node8" class="node"><title>Node8</title>
<g id="a_node8"><a xlink:href="namespacesll__m__hexagonal__meshes.html#a99a1f6a0f986b08021d2c0f336ba4aef" target="_top" xlink:title="Writes files for CAID. ">
<polygon fill="white" stroke="black" points="486.5,-289 486.5,-308 596.5,-308 596.5,-289 486.5,-289"/>
<text text-anchor="middle" x="541.5" y="-296" font-family="Helvetica,sans-Serif" font-size="10.00">sll_s_write_caid_files</text>
</a>
</g>
</g>
<!-- Node3&#45;&gt;Node8 -->
<g id="edge13" class="edge"><title>Node3&#45;&gt;Node8</title>
<path fill="none" stroke="midnightblue" d="M242.455,-273.765C270.085,-286.284 301.16,-300.319 302,-300.5 364.14,-313.864 437.509,-310.482 486.299,-305.632"/>
<polygon fill="midnightblue" stroke="midnightblue" points="243.819,-270.541 233.266,-269.6 240.929,-276.917 243.819,-270.541"/>
</g>
<!-- Node11 -->
<g id="node11" class="node"><title>Node11</title>
<g id="a_node11"><a xlink:href="namespacesll__m__hexagonal__meshes.html#a848cd2dc313a3701da4517ca97a4ae37" target="_top" xlink:title="Computes the coordinate transformation hex&#45;&gt;aligned for an element. ">
<polygon fill="white" stroke="black" points="320.5,-223 320.5,-242 426.5,-242 426.5,-223 320.5,-223"/>
<text text-anchor="middle" x="373.5" y="-230" font-family="Helvetica,sans-Serif" font-size="10.00">hex_to_aligned_elmt</text>
</a>
</g>
</g>
<!-- Node3&#45;&gt;Node11 -->
<g id="edge11" class="edge"><title>Node3&#45;&gt;Node11</title>
<path fill="none" stroke="midnightblue" d="M267.596,-245.879C285.096,-243.647 303.672,-241.278 320.252,-239.163"/>
<polygon fill="midnightblue" stroke="midnightblue" points="266.917,-242.437 257.44,-247.174 267.802,-249.381 266.917,-242.437"/>
</g>
<!-- Node12 -->
<g id="node12" class="node"><title>Node12</title>
<g id="a_node12"><a xlink:href="namespacesll__m__hexagonal__meshes.html#a8fe8a1166a36d227d208c7badbc73cf6" target="_top" xlink:title="Computes the coordinate transformation ref&#45;&gt;hex for an element. ">
<polygon fill="white" stroke="black" points="330.5,-185 330.5,-204 416.5,-204 416.5,-185 330.5,-185"/>
<text text-anchor="middle" x="373.5" y="-192" font-family="Helvetica,sans-Serif" font-size="10.00">ref_to_hex_elmt</text>
</a>
</g>
</g>
<!-- Node3&#45;&gt;Node12 -->
<g id="edge12" class="edge"><title>Node3&#45;&gt;Node12</title>
<path fill="none" stroke="midnightblue" d="M250.429,-235.733C255.703,-233.67 260.971,-231.568 266,-229.5 282.193,-222.841 285.498,-219.351 302,-213.5 311.797,-210.026 322.551,-206.829 332.644,-204.086"/>
<polygon fill="midnightblue" stroke="midnightblue" points="249.045,-232.515 240.981,-239.386 251.57,-239.044 249.045,-232.515"/>
</g>
<!-- Node13 -->
<g id="node13" class="node"><title>Node13</title>
<g id="a_node13"><a xlink:href="namespacesll__m__hexagonal__meshes.html#ad56d527a56b58b123d7351fec84cfd30" target="_top" xlink:title="Same as write_field_hex_mesh but output in xmf. ">
<polygon fill="white" stroke="black" points="307,-147 307,-166 440,-166 440,-147 307,-147"/>
<text text-anchor="middle" x="373.5" y="-154" font-family="Helvetica,sans-Serif" font-size="10.00">write_field_hex_mesh_xmf</text>
</a>
</g>
</g>
<!-- Node3&#45;&gt;Node13 -->
<g id="edge14" class="edge"><title>Node3&#45;&gt;Node13</title>
<path fill="none" stroke="midnightblue" d="M258.88,-234.519C261.365,-232.96 263.753,-231.289 266,-229.5 288.565,-211.533 278.575,-192.33 302,-175.5 307.353,-171.654 313.441,-168.586 319.743,-166.14"/>
<polygon fill="midnightblue" stroke="midnightblue" points="257.151,-231.476 250.12,-239.402 260.559,-237.59 257.151,-231.476"/>
</g>
<!-- Node14 -->
<g id="node14" class="node"><title>Node14</title>
<g id="a_node14"><a xlink:href="namespacesll__m__hexagonal__meshes.html#a28202f1cd07426e9c2b838e2d30281ec" target="_top" xlink:title="Same as write_hex_mesh but output is mtv file. ">
<polygon fill="white" stroke="black" points="318.5,-109 318.5,-128 428.5,-128 428.5,-109 318.5,-109"/>
<text text-anchor="middle" x="373.5" y="-116" font-family="Helvetica,sans-Serif" font-size="10.00">write_hex_mesh_mtv</text>
</a>
</g>
</g>
<!-- Node3&#45;&gt;Node14 -->
<g id="edge15" class="edge"><title>Node3&#45;&gt;Node14</title>
<path fill="none" stroke="midnightblue" d="M261.33,-233.618C262.967,-232.325 264.53,-230.954 266,-229.5 297.216,-198.622 269.296,-166.798 302,-137.5 306.721,-133.271 312.287,-129.969 318.188,-127.393"/>
<polygon fill="midnightblue" stroke="midnightblue" points="258.977,-230.98 252.61,-239.448 262.868,-236.799 258.977,-230.98"/>
</g>
<!-- Node15 -->
<g id="node15" class="node"><title>Node15</title>
<g id="a_node15"><a xlink:href="namespacesll__m__triangular__meshes.html#a360e0a6483af779b0c50e4b84bfc377b" target="_top" xlink:title="allocates the memory space for a new 2D triangular mesh on the heap, initializes it with the given he...">
<polygon fill="white" stroke="black" points="311,-49 311,-90 436,-90 436,-49 311,-49"/>
<text text-anchor="start" x="319" y="-78" font-family="Helvetica,sans-Serif" font-size="10.00">sll_m_triangular_meshes</text>
<text text-anchor="start" x="319" y="-67" font-family="Helvetica,sans-Serif" font-size="10.00">::new_triangular_mesh</text>
<text text-anchor="middle" x="373.5" y="-56" font-family="Helvetica,sans-Serif" font-size="10.00">_2d_from_hex_mesh</text>
</a>
</g>
</g>
<!-- Node3&#45;&gt;Node15 -->
<g id="edge16" class="edge"><title>Node3&#45;&gt;Node15</title>
<path fill="none" stroke="midnightblue" d="M262.115,-233.305C263.48,-232.105 264.78,-230.838 266,-229.5 306.4,-185.204 262.499,-144.6 302,-99.5 305.067,-95.9978 308.614,-92.8925 312.451,-90.141"/>
<polygon fill="midnightblue" stroke="midnightblue" points="259.685,-230.745 253.666,-239.464 263.808,-236.401 259.685,-230.745"/>
</g>
<!-- Node16 -->
<g id="node16" class="node"><title>Node16</title>
<g id="a_node16"><a xlink:href="namespacesll__m__box__splines.html#a9ac06b8c624fbc68a93fe53f82402001" target="_top" xlink:title="Computes indices of non null splines on a given cell. ">
<polygon fill="white" stroke="black" points="322,-0.5 322,-30.5 425,-30.5 425,-0.5 322,-0.5"/>
<text text-anchor="start" x="330" y="-18.5" font-family="Helvetica,sans-Serif" font-size="10.00">sll_m_box_splines::</text>
<text text-anchor="middle" x="373.5" y="-7.5" font-family="Helvetica,sans-Serif" font-size="10.00">non_zeros_splines</text>
</a>
</g>
</g>
<!-- Node3&#45;&gt;Node16 -->
<g id="edge17" class="edge"><title>Node3&#45;&gt;Node16</title>
<path fill="none" stroke="midnightblue" d="M262.789,-232.938C263.918,-231.848 264.991,-230.703 266,-229.5 321.236,-163.653 245.654,-104.4 302,-39.5 307.34,-33.3492 314.322,-28.7723 321.813,-25.367"/>
<polygon fill="midnightblue" stroke="midnightblue" points="260.322,-230.425 254.632,-239.363 264.653,-235.925 260.322,-230.425"/>
</g>
<!-- Node7&#45;&gt;Node8 -->
<g id="edge7" class="edge"><title>Node7&#45;&gt;Node8</title>
<path fill="none" stroke="midnightblue" d="M441.758,-285.414C456.587,-287.379 472.112,-289.437 486.345,-291.323"/>
<polygon fill="midnightblue" stroke="midnightblue" points="442.001,-281.915 431.628,-284.071 441.081,-288.855 442.001,-281.915"/>
</g>
<!-- Node10 -->
<g id="node10" class="node"><title>Node10</title>
<g id="a_node10"><a xlink:href="namespacesll__m__box__splines.html#a0c9a0bd0c7da4d792500caf130c3ddd0" target="_top" xlink:title="Writes connectivity for CAID / DJANGO. ">
<polygon fill="white" stroke="black" points="481,-239.5 481,-269.5 602,-269.5 602,-239.5 481,-239.5"/>
<text text-anchor="start" x="489" y="-257.5" font-family="Helvetica,sans-Serif" font-size="10.00">sll_m_box_splines::</text>
<text text-anchor="middle" x="541.5" y="-246.5" font-family="Helvetica,sans-Serif" font-size="10.00">sll_s_write_connectivity</text>
</a>
</g>
</g>
<!-- Node7&#45;&gt;Node10 -->
<g id="edge9" class="edge"><title>Node7&#45;&gt;Node10</title>
<path fill="none" stroke="midnightblue" d="M441.819,-267.578C454.698,-265.871 468.1,-264.095 480.722,-262.422"/>
<polygon fill="midnightblue" stroke="midnightblue" points="441.081,-264.145 431.628,-268.929 442.001,-271.085 441.081,-264.145"/>
</g>
<!-- Node9 -->
<g id="node9" class="node"><title>Node9</title>
<g id="a_node9"><a xlink:href="namespacesll__m__fekete__integration.html#adceb8456a1011a2bb4dcecfd28374463" target="_top" xlink:title="This function is supposed to write all django input files needed for a Django/Jorek simulation...">
<polygon fill="white" stroke="black" points="638,-261.5 638,-291.5 779,-291.5 779,-261.5 638,-261.5"/>
<text text-anchor="start" x="646" y="-279.5" font-family="Helvetica,sans-Serif" font-size="10.00">sll_m_fekete_integration</text>
<text text-anchor="middle" x="708.5" y="-268.5" font-family="Helvetica,sans-Serif" font-size="10.00">::sll_s_write_all_django_files</text>
</a>
</g>
</g>
<!-- Node8&#45;&gt;Node9 -->
<g id="edge8" class="edge"><title>Node8&#45;&gt;Node9</title>
<path fill="none" stroke="midnightblue" d="M606.577,-289.956C616.785,-288.595 627.388,-287.182 637.719,-285.804"/>
<polygon fill="midnightblue" stroke="midnightblue" points="605.977,-286.505 596.527,-291.296 606.902,-293.444 605.977,-286.505"/>
</g>
<!-- Node10&#45;&gt;Node9 -->
<g id="edge10" class="edge"><title>Node10&#45;&gt;Node9</title>
<path fill="none" stroke="midnightblue" d="M612.016,-263.769C620.585,-264.911 629.344,-266.079 637.914,-267.222"/>
<polygon fill="midnightblue" stroke="midnightblue" points="612.444,-260.295 602.069,-262.443 611.518,-267.234 612.444,-260.295"/>
</g>
<!-- Node16&#45;&gt;Node10 -->
<g id="edge18" class="edge"><title>Node16&#45;&gt;Node10</title>
<path fill="none" stroke="midnightblue" d="M434.045,-31.5138C437.982,-33.8281 441.689,-36.4744 445,-39.5 506.956,-96.1227 530.982,-200.382 538.05,-239.312"/>
<polygon fill="midnightblue" stroke="midnightblue" points="435.625,-28.3907 425.127,-26.9596 432.441,-34.6248 435.625,-28.3907"/>
</g>
</g>
</svg>
        <g id="navigator" transform="translate(0 0)" fill="#404254">
                <rect fill="#f2f5e9" fill-opacity="0.5" stroke="#606060" stroke-width=".5" x="0" y="0" width="60" height="60"/>
                <use id="zoomplus" xlink:href="#zoomPlus" x="17" y="9" onmousedown="handleZoom(evt,'in')"/>
                <use id="zoomminus" xlink:href="#zoomMin" x="42" y="9" onmousedown="handleZoom(evt,'out')"/>
                <use id="reset" xlink:href="#resetDef" x="30" y="36" onmousedown="handleReset()"/>
                <g id="arrowUp" xlink:href="#dirArrow" transform="translate(30 24)" onmousedown="handlePan(0,-1)">
                  <use xlink:href="#rim" fill="#404040">
                        <set attributeName="fill" to="#808080" begin="arrowUp.mouseover" end="arrowUp.mouseout"/>
                  </use>
                  <path fill="none" stroke="white" stroke-width="1.5" d="M0,-3.0v7 M-2.5,-0.5L0,-3.0L2.5,-0.5"/>
                </g>
                <g id="arrowRight" xlink:href="#dirArrow" transform="rotate(90) translate(36 -43)" onmousedown="handlePan(1,0)">
                  <use xlink:href="#rim" fill="#404040">
                        <set attributeName="fill" to="#808080" begin="arrowRight.mouseover" end="arrowRight.mouseout"/>
                  </use>
                  <path fill="none" stroke="white" stroke-width="1.5" d="M0,-3.0v7 M-2.5,-0.5L0,-3.0L2.5,-0.5"/>
                </g>
                <g id="arrowDown" xlink:href="#dirArrow" transform="rotate(180) translate(-30 -48)" onmousedown="handlePan(0,1)">
                  <use xlink:href="#rim" fill="#404040">
                        <set attributeName="fill" to="#808080" begin="arrowDown.mouseover" end="arrowDown.mouseout"/>
                  </use>
                  <path fill="none" stroke="white" stroke-width="1.5" d="M0,-3.0v7 M-2.5,-0.5L0,-3.0L2.5,-0.5"/>
                </g>
                <g id="arrowLeft" xlink:href="#dirArrow" transform="rotate(270) translate(-36 17)" onmousedown="handlePan(-1,0)">
                  <use xlink:href="#rim" fill="#404040">
                        <set attributeName="fill" to="#808080" begin="arrowLeft.mouseover" end="arrowLeft.mouseout"/>
                  </use>
                  <path fill="none" stroke="white" stroke-width="1.5" d="M0,-3.0v7 M-2.5,-0.5L0,-3.0L2.5,-0.5"/>
                </g>
        </g>
        <svg viewBox="0 0 15 15" width="100%" height="30px" preserveAspectRatio="xMaxYMin meet">
         <g id="arrow_out" transform="scale(0.3 0.3)">
          <a xlink:href="namespacesll__m__hexagonal__meshes_a066138062e95dab8690eb6e889dfe769_icgraph_org.svg" target="_base">
           <rect id="button" ry="5" rx="5" y="6" x="6" height="38" width="38"
                fill="#f2f5e9" fill-opacity="0.5" stroke="#606060" stroke-width="1.0"/>
           <path id="arrow"
             d="M 11.500037,31.436501 C 11.940474,20.09759 22.043105,11.32322 32.158766,21.979434 L 37.068811,17.246167 C 37.068811,17.246167 37.088388,32 37.088388,32 L 22.160133,31.978069 C 22.160133,31.978069 26.997745,27.140456 26.997745,27.140456 C 18.528582,18.264221 13.291696,25.230495 11.500037,31.436501 z"
             style="fill:#404040;"/>
          </a>
         </g>
        </svg>
</svg>
