<?xml version="1.0" encoding="UTF-8" standalone="no"?>
<!DOCTYPE svg PUBLIC "-//W3C//DTD SVG 1.1//EN"
 "http://www.w3.org/Graphics/SVG/1.1/DTD/svg11.dtd">
<!-- Generated by graphviz version 2.40.1 (20161225.0304)
 -->
<!-- Title: sll_s_cubic_spline_1d_init Pages: 1 -->
<svg width="981pt" height="160pt"
 viewBox="0.00 0.00 981.00 159.50" xmlns="http://www.w3.org/2000/svg" xmlns:xlink="http://www.w3.org/1999/xlink">
<g id="graph0" class="graph" transform="scale(1 1) rotate(0) translate(4 155.5)">
<title>sll_s_cubic_spline_1d_init</title>
<polygon fill="#ffffff" stroke="transparent" points="-4,4 -4,-155.5 977,-155.5 977,4 -4,4"/>
<!-- Node205 -->
<g id="node1" class="node">
<title>Node205</title>
<polygon fill="#bfbfbf" stroke="#000000" points="0,-66 0,-96 104,-96 104,-66 0,-66"/>
<text text-anchor="start" x="8" y="-84" font-family="Helvetica,sans-Serif" font-size="10.00" fill="#000000">sll_s_cubic_spline</text>
<text text-anchor="middle" x="52" y="-73" font-family="Helvetica,sans-Serif" font-size="10.00" fill="#000000">_1d_init</text>
</g>
<!-- Node206 -->
<g id="node2" class="node">
<title>Node206</title>
<g id="a_node2"><a xlink:href="namespacesll__m__fdistribu4d__dk.html#ad019b52770477f636c8115bc5ad20475" target="_top" xlink:title="sll_m_fdistribu4d_dk\l::function_xy_from_r">
<polygon fill="#ffffff" stroke="#000000" points="161.5,-121 161.5,-151 279.5,-151 279.5,-121 161.5,-121"/>
<text text-anchor="start" x="169.5" y="-139" font-family="Helvetica,sans-Serif" font-size="10.00" fill="#000000">sll_m_fdistribu4d_dk</text>
<text text-anchor="middle" x="220.5" y="-128" font-family="Helvetica,sans-Serif" font-size="10.00" fill="#000000">::function_xy_from_r</text>
</a>
</g>
</g>
<!-- Node205&#45;&gt;Node206 -->
<g id="edge1" class="edge">
<title>Node205&#45;&gt;Node206</title>
<path fill="none" stroke="#191970" d="M104.8685,-99.286C116.4264,-103.2101 128.6091,-107.2904 140,-111 150.0187,-114.2627 160.7695,-117.6677 171.0482,-120.8769"/>
<polygon fill="#191970" stroke="#191970" points="105.9325,-95.951 95.338,-96.038 103.6744,-102.5768 105.9325,-95.951"/>
</g>
<!-- Node207 -->
<g id="node3" class="node">
<title>Node207</title>
<g id="a_node3"><a xlink:href="namespacesll__m__cubic__spline__interpolator__1d.html#ab4aeb5dca8bc5be6fb404ac5e1ae7365" target="_top" xlink:title="initialize cubic spline interpolator ">
<polygon fill="#ffffff" stroke="#000000" points="148.5,-60.5 148.5,-101.5 292.5,-101.5 292.5,-60.5 148.5,-60.5"/>
<text text-anchor="start" x="156.5" y="-89.5" font-family="Helvetica,sans-Serif" font-size="10.00" fill="#000000">sll_m_cubic_spline</text>
<text text-anchor="start" x="156.5" y="-78.5" font-family="Helvetica,sans-Serif" font-size="10.00" fill="#000000">_interpolator_1d::initialize</text>
<text text-anchor="middle" x="220.5" y="-67.5" font-family="Helvetica,sans-Serif" font-size="10.00" fill="#000000">_cs1d_interpolator</text>
</a>
</g>
</g>
<!-- Node205&#45;&gt;Node207 -->
<g id="edge2" class="edge">
<title>Node205&#45;&gt;Node207</title>
<path fill="none" stroke="#191970" d="M114.7111,-81C125.6695,-81 137.1491,-81 148.3381,-81"/>
<polygon fill="#191970" stroke="#191970" points="114.3908,-77.5001 104.3908,-81 114.3908,-84.5001 114.3908,-77.5001"/>
</g>
<!-- Node211 -->
<g id="node7" class="node">
<title>Node211</title>
<g id="a_node7"><a xlink:href="namespacesll__m__cubic__spline__interpolator__1d__nonuniform.html#a949072be71d85ad42efeb69878a0fc14" target="_top" xlink:title="initialize cubic spline interpolator ">
<polygon fill="#ffffff" stroke="#000000" points="140,-.5 140,-41.5 301,-41.5 301,-.5 140,-.5"/>
<text text-anchor="start" x="148" y="-29.5" font-family="Helvetica,sans-Serif" font-size="10.00" fill="#000000">sll_m_cubic_spline</text>
<text text-anchor="start" x="148" y="-18.5" font-family="Helvetica,sans-Serif" font-size="10.00" fill="#000000">_interpolator_1d_nonuniform</text>
<text text-anchor="middle" x="220.5" y="-7.5" font-family="Helvetica,sans-Serif" font-size="10.00" fill="#000000">::initialize_cs1d_interpolator2</text>
</a>
</g>
</g>
<!-- Node205&#45;&gt;Node211 -->
<g id="edge6" class="edge">
<title>Node205&#45;&gt;Node211</title>
<path fill="none" stroke="#191970" d="M103.9963,-62.485C122.5941,-55.8627 143.6616,-48.3609 162.7181,-41.5751"/>
<polygon fill="#191970" stroke="#191970" points="102.7661,-59.2077 94.5197,-65.8595 105.1143,-65.8021 102.7661,-59.2077"/>
</g>
<!-- Node208 -->
<g id="node4" class="node">
<title>Node208</title>
<g id="a_node4"><a xlink:href="namespacesll__m__cubic__spline__interpolator__1d.html#ad719154e2d5d34641021bab462fbe00f" target="_top" xlink:title="PLEASE ADD DOCUMENTATION. ">
<polygon fill="#ffffff" stroke="#000000" points="337,-60.5 337,-101.5 533,-101.5 533,-60.5 337,-60.5"/>
<text text-anchor="start" x="345" y="-89.5" font-family="Helvetica,sans-Serif" font-size="10.00" fill="#000000">sll_m_cubic_spline</text>
<text text-anchor="start" x="345" y="-78.5" font-family="Helvetica,sans-Serif" font-size="10.00" fill="#000000">_interpolator_1d::sll</text>
<text text-anchor="middle" x="435" y="-67.5" font-family="Helvetica,sans-Serif" font-size="10.00" fill="#000000">_f_new_cubic_spline_interpolator_1d</text>
</a>
</g>
</g>
<!-- Node207&#45;&gt;Node208 -->
<g id="edge3" class="edge">
<title>Node207&#45;&gt;Node208</title>
<path fill="none" stroke="#191970" d="M302.673,-81C313.8607,-81 325.4341,-81 336.8682,-81"/>
<polygon fill="#191970" stroke="#191970" points="302.5221,-77.5001 292.5221,-81 302.5221,-84.5001 302.5221,-77.5001"/>
</g>
<!-- Node209 -->
<g id="node5" class="node">
<title>Node209</title>
<g id="a_node5"><a xlink:href="namespacesll__m__poisson__2d__mudpack__curvilinear.html#aafe1b9a1d79ddc7a217d3a14a73c418d" target="_top" xlink:title="sll_m_poisson_2d_mudpack\l_curvilinear::initialize\l_poisson_2d_mudpack_curvilinear">
<polygon fill="#ffffff" stroke="#000000" points="569,-60.5 569,-101.5 753,-101.5 753,-60.5 569,-60.5"/>
<text text-anchor="start" x="577" y="-89.5" font-family="Helvetica,sans-Serif" font-size="10.00" fill="#000000">sll_m_poisson_2d_mudpack</text>
<text text-anchor="start" x="577" y="-78.5" font-family="Helvetica,sans-Serif" font-size="10.00" fill="#000000">_curvilinear::initialize</text>
<text text-anchor="middle" x="661" y="-67.5" font-family="Helvetica,sans-Serif" font-size="10.00" fill="#000000">_poisson_2d_mudpack_curvilinear</text>
</a>
</g>
</g>
<!-- Node208&#45;&gt;Node209 -->
<g id="edge4" class="edge">
<title>Node208&#45;&gt;Node209</title>
<path fill="none" stroke="#191970" d="M543.4102,-81C551.8535,-81 560.331,-81 568.6537,-81"/>
<polygon fill="#191970" stroke="#191970" points="543.1409,-77.5001 533.1409,-81 543.1409,-84.5001 543.1409,-77.5001"/>
</g>
<!-- Node210 -->
<g id="node6" class="node">
<title>Node210</title>
<g id="a_node6"><a xlink:href="namespacesll__m__poisson__2d__mudpack__curvilinear.html#a030b51f0e3782ea9c0e5dc2c0c27f035" target="_top" xlink:title="PLEASE ADD DOCUMENTATION. ">
<polygon fill="#ffffff" stroke="#000000" points="789,-60.5 789,-101.5 973,-101.5 973,-60.5 789,-60.5"/>
<text text-anchor="start" x="797" y="-89.5" font-family="Helvetica,sans-Serif" font-size="10.00" fill="#000000">sll_m_poisson_2d_mudpack</text>
<text text-anchor="start" x="797" y="-78.5" font-family="Helvetica,sans-Serif" font-size="10.00" fill="#000000">_curvilinear::sll_f_new</text>
<text text-anchor="middle" x="881" y="-67.5" font-family="Helvetica,sans-Serif" font-size="10.00" fill="#000000">_poisson_2d_mudpack_curvilinear</text>
</a>
</g>
</g>
<!-- Node209&#45;&gt;Node210 -->
<g id="edge5" class="edge">
<title>Node209&#45;&gt;Node210</title>
<path fill="none" stroke="#191970" d="M763.1148,-81C771.746,-81 780.4424,-81 788.9898,-81"/>
<polygon fill="#191970" stroke="#191970" points="763.0251,-77.5001 753.0251,-81 763.0251,-84.5001 763.0251,-77.5001"/>
</g>
</g>
</svg>
