<?xml version="1.0" encoding="UTF-8" standalone="no"?>
<!DOCTYPE svg PUBLIC "-//W3C//DTD SVG 1.1//EN"
 "http://www.w3.org/Graphics/SVG/1.1/DTD/svg11.dtd">
<!-- Generated by graphviz version 2.40.1 (20161225.0304)
 -->
<!-- Title: compute_local_splines_indices Pages: 1 -->
<svg width="319pt" height="78pt"
 viewBox="0.00 0.00 319.00 77.50" xmlns="http://www.w3.org/2000/svg" xmlns:xlink="http://www.w3.org/1999/xlink">
<g id="graph0" class="graph" transform="scale(1 1) rotate(0) translate(4 73.5)">
<title>compute_local_splines_indices</title>
<polygon fill="#ffffff" stroke="transparent" points="-4,4 -4,-73.5 315,-73.5 315,4 -4,4"/>
<!-- Node63 -->
<g id="node1" class="node">
<title>Node63</title>
<polygon fill="#bfbfbf" stroke="#000000" points="0,-17 0,-47 128,-47 128,-17 0,-17"/>
<text text-anchor="start" x="8" y="-35" font-family="Helvetica,sans-Serif" font-size="10.00" fill="#000000">compute_local_splines</text>
<text text-anchor="middle" x="64" y="-24" font-family="Helvetica,sans-Serif" font-size="10.00" fill="#000000">_indices</text>
</g>
<!-- Node64 -->
<g id="node2" class="node">
<title>Node64</title>
<g id="a_node2"><a xlink:href="namespacesll__m__general__coordinate__elliptic__solver.html#a13e1428f9465e72bbf96682e92f305f8" target="_top" xlink:title="Assemble the matrix for elliptic solver. ">
<polygon fill="#ffffff" stroke="#000000" points="164,-39 164,-69 311,-69 311,-39 164,-39"/>
<text text-anchor="start" x="172" y="-57" font-family="Helvetica,sans-Serif" font-size="10.00" fill="#000000">solve_general_coordinates</text>
<text text-anchor="middle" x="237.5" y="-46" font-family="Helvetica,sans-Serif" font-size="10.00" fill="#000000">_elliptic_eq</text>
</a>
</g>
</g>
<!-- Node63&#45;&gt;Node64 -->
<g id="edge1" class="edge">
<title>Node63&#45;&gt;Node64</title>
<path fill="none" stroke="#191970" d="M138.0862,-41.3942C146.6665,-42.4822 155.4156,-43.5916 163.9882,-44.6786"/>
<polygon fill="#191970" stroke="#191970" points="138.4729,-37.9153 128.1121,-40.1295 137.5923,-44.8597 138.4729,-37.9153"/>
</g>
<!-- Node65 -->
<g id="node3" class="node">
<title>Node65</title>
<g id="a_node3"><a xlink:href="namespacesll__m__general__coordinate__elliptic__solver.html#a17eb78399c10cd0dcdd31c4bf2cb72e6" target="_top" xlink:title="initconnectivity_new">
<polygon fill="#ffffff" stroke="#000000" points="178.5,-.5 178.5,-19.5 296.5,-19.5 296.5,-.5 178.5,-.5"/>
<text text-anchor="middle" x="237.5" y="-7.5" font-family="Helvetica,sans-Serif" font-size="10.00" fill="#000000">initconnectivity_new</text>
</a>
</g>
</g>
<!-- Node63&#45;&gt;Node65 -->
<g id="edge2" class="edge">
<title>Node63&#45;&gt;Node65</title>
<path fill="none" stroke="#191970" d="M138.2342,-22.587C151.6024,-20.8919 165.3757,-19.1454 178.248,-17.5132"/>
<polygon fill="#191970" stroke="#191970" points="137.5923,-19.1403 128.1121,-23.8705 138.4729,-26.0847 137.5923,-19.1403"/>
</g>
</g>
</svg>
