<?xml version="1.0" encoding="UTF-8" standalone="no"?>
<!DOCTYPE svg PUBLIC "-//W3C//DTD SVG 1.1//EN"
 "http://www.w3.org/Graphics/SVG/1.1/DTD/svg11.dtd">
<!-- Generated by graphviz version 2.38.0 (20140413.2041)
 -->
<!-- Title: sll_s_poisson_3d_periodic_par_init Pages: 1 -->
<svg width="435pt" height="88pt"
 viewBox="0.00 0.00 435.00 88.00" xmlns="http://www.w3.org/2000/svg" xmlns:xlink="http://www.w3.org/1999/xlink">
<g id="graph0" class="graph" transform="scale(1 1) rotate(0) translate(4 84)">
<title>sll_s_poisson_3d_periodic_par_init</title>
<polygon fill="white" stroke="none" points="-4,4 -4,-84 431,-84 431,4 -4,4"/>
<!-- Node1 -->
<g id="node1" class="node"><title>Node1</title>
<polygon fill="#bfbfbf" stroke="black" points="0,-24.5 0,-54.5 131,-54.5 131,-24.5 0,-24.5"/>
<text text-anchor="start" x="8" y="-42.5" font-family="Helvetica,sans-Serif" font-size="10.00">sll_s_poisson_3d_periodic</text>
<text text-anchor="middle" x="65.5" y="-31.5" font-family="Helvetica,sans-Serif" font-size="10.00">_par_init</text>
</g>
<!-- Node2 -->
<g id="node2" class="node"><title>Node2</title>
<g id="a_node2"><a xlink:href="namespacesll__m__collective.html#af2d3c240d9dfe7e9c7d7f7c9e0529f17" target="_top" xlink:title="Determines the size of the group associated with a communicator. ">
<polygon fill="white" stroke="black" points="167,-49.5 167,-79.5 280,-79.5 280,-49.5 167,-49.5"/>
<text text-anchor="start" x="175" y="-67.5" font-family="Helvetica,sans-Serif" font-size="10.00">sll_m_collective::sll</text>
<text text-anchor="middle" x="223.5" y="-56.5" font-family="Helvetica,sans-Serif" font-size="10.00">_f_get_collective_size</text>
</a>
</g>
</g>
<!-- Node1&#45;&gt;Node2 -->
<g id="edge1" class="edge"><title>Node1&#45;&gt;Node2</title>
<path fill="none" stroke="midnightblue" d="M131.303,-49.8851C139.635,-51.2203 148.174,-52.5887 156.524,-53.927"/>
<polygon fill="midnightblue" stroke="midnightblue" points="156.162,-57.4135 166.59,-55.5401 157.27,-50.5017 156.162,-57.4135"/>
</g>
<!-- Node4 -->
<g id="node4" class="node"><title>Node4</title>
<g id="a_node4"><a xlink:href="namespacesll__m__fft.html#abd8e9cb4be235cbdce3b3f1c2ba1a9dd" target="_top" xlink:title="Create new 1d complex to complex plan. ">
<polygon fill="white" stroke="black" points="176,-0.5 176,-30.5 271,-30.5 271,-0.5 176,-0.5"/>
<text text-anchor="start" x="184" y="-18.5" font-family="Helvetica,sans-Serif" font-size="10.00">sll_m_fft::sll_s_fft</text>
<text text-anchor="middle" x="223.5" y="-7.5" font-family="Helvetica,sans-Serif" font-size="10.00">_init_c2c_1d</text>
</a>
</g>
</g>
<!-- Node1&#45;&gt;Node4 -->
<g id="edge3" class="edge"><title>Node1&#45;&gt;Node4</title>
<path fill="none" stroke="midnightblue" d="M131.303,-29.5303C142.711,-27.7752 154.508,-25.9604 165.677,-24.242"/>
<polygon fill="midnightblue" stroke="midnightblue" points="166.378,-27.6754 175.73,-22.6955 165.314,-20.7568 166.378,-27.6754"/>
</g>
<!-- Node3 -->
<g id="node3" class="node"><title>Node3</title>
<g id="a_node3"><a xlink:href="namespacesll__m__collective.html#a37ea25f42a791be5a710a6cf0d1e1197" target="_top" xlink:title="Checks if the pointer ptr is associated to an object. ">
<polygon fill="white" stroke="black" points="316,-49.5 316,-79.5 427,-79.5 427,-49.5 316,-49.5"/>
<text text-anchor="start" x="324" y="-67.5" font-family="Helvetica,sans-Serif" font-size="10.00">sll_m_collective::sll</text>
<text text-anchor="middle" x="371.5" y="-56.5" font-family="Helvetica,sans-Serif" font-size="10.00">_check_collective_ptr</text>
</a>
</g>
</g>
<!-- Node2&#45;&gt;Node3 -->
<g id="edge2" class="edge"><title>Node2&#45;&gt;Node3</title>
<path fill="none" stroke="midnightblue" d="M280.113,-64.5C288.363,-64.5 296.927,-64.5 305.351,-64.5"/>
<polygon fill="midnightblue" stroke="midnightblue" points="305.525,-68.0001 315.525,-64.5 305.525,-61.0001 305.525,-68.0001"/>
</g>
</g>
</svg>
