<?xml version="1.0" encoding="UTF-8" standalone="no"?>
<!DOCTYPE svg PUBLIC "-//W3C//DTD SVG 1.1//EN"
 "http://www.w3.org/Graphics/SVG/1.1/DTD/svg11.dtd">
<!-- Generated by graphviz version 2.40.1 (20161225.0304)
 -->
<!-- Title: massemble2_clamped_boundary Pages: 1 -->
<!--zoomable 100 -->
<svg id="main" version="1.1" xmlns="http://www.w3.org/2000/svg" xmlns:xlink="http://www.w3.org/1999/xlink" xml:space="preserve" onload="init(evt)">
<style type="text/css"><![CDATA[
.edge:hover path { stroke: red; }
.edge:hover polygon { stroke: red; fill: red; }
]]></style>
<script type="text/javascript"><![CDATA[
var edges = document.getElementsByTagName('g');
if (edges && edges.length) {
  for (var i=0;i<edges.length;i++) {
    if (edges[i].id.substr(0,4)=='edge') {
      edges[i].setAttribute('class','edge');
    }
  }
}
]]></script>
        <defs>
                <circle id="rim" cx="0" cy="0" r="7"/>
                <circle id="rim2" cx="0" cy="0" r="3.5"/>
                <g id="zoomPlus">
                        <use xlink:href="#rim" fill="#404040">
                                <set attributeName="fill" to="#808080" begin="zoomplus.mouseover" end="zoomplus.mouseout"/>
                        </use>
                        <path d="M-4,0h8M0,-4v8" fill="none" stroke="white" stroke-width="1.5" pointer-events="none"/>
                </g>
                <g id="zoomMin">
                        <use xlink:href="#rim" fill="#404040">
                                <set attributeName="fill" to="#808080" begin="zoomminus.mouseover" end="zoomminus.mouseout"/>
                        </use>
                        <path d="M-4,0h8" fill="none" stroke="white" stroke-width="1.5" pointer-events="none"/>
                </g>
                <g id="dirArrow">
                        <path fill="none" stroke="white" stroke-width="1.5" d="M0,-3.0v7 M-2.5,-0.5L0,-3.0L2.5,-0.5"/>
                </g>
               <g id="resetDef">
                       <use xlink:href="#rim2" fill="#404040">
                               <set attributeName="fill" to="#808080" begin="reset.mouseover" end="reset.mouseout"/>
                       </use>
               </g>
        </defs>

<script type="text/javascript">
var viewWidth = 681;
var viewHeight = 100;
var sectionId = 'dynsection-35';
</script>
<script xlink:href="svgpan.js"/>
<svg id="graph" class="graph">
<g id="viewport">
<title>massemble2_clamped_boundary</title>
<polygon fill="#ffffff" stroke="transparent" points="-4,4 -4,-95.5 677,-95.5 677,4 -4,4"/>
<!-- Node178 -->
<g id="node1" class="node">
<title>Node178</title>
<polygon fill="#bfbfbf" stroke="#000000" points="0,-33 0,-63 127,-63 127,-33 0,-33"/>
<text text-anchor="start" x="8" y="-51" font-family="Helvetica,sans-Serif" font-size="10.00" fill="#000000">massemble2_clamped</text>
<text text-anchor="middle" x="63.5" y="-40" font-family="Helvetica,sans-Serif" font-size="10.00" fill="#000000">_boundary</text>
</g>
<!-- Node179 -->
<g id="node2" class="node">
<title>Node179</title>
<g id="a_node2"><a xlink:href="namespacesll__m__spline__fem__utilities__3d__helper.html#ad64c5d3b4c64e82d9b91b18890d16bcf" target="_top" xlink:title="Assemble the boundary part of the clamped mixed mass matrix. ">
<polygon fill="#ffffff" stroke="#000000" points="163,-33 163,-63 301,-63 301,-33 163,-33"/>
<text text-anchor="start" x="171" y="-51" font-family="Helvetica,sans-Serif" font-size="10.00" fill="#000000">assemble_mixedmass3d</text>
<text text-anchor="middle" x="232" y="-40" font-family="Helvetica,sans-Serif" font-size="10.00" fill="#000000">_clamped_boundary</text>
</a>
</g>
</g>
<!-- Node178&#45;&gt;Node179 -->
<g id="edge1" class="edge">
<title>Node178&#45;&gt;Node179</title>
<path fill="none" stroke="#191970" d="M137.4215,-48C145.8755,-48 154.4704,-48 162.8587,-48"/>
<polygon fill="#191970" stroke="#191970" points="137.2027,-44.5001 127.2026,-48 137.2026,-51.5001 137.2027,-44.5001"/>
</g>
<!-- Node180 -->
<g id="node3" class="node">
<title>Node180</title>
<g id="a_node3"><a xlink:href="namespacesll__m__spline__fem__utilities__3d__clamped.html#a3dde494ad1a44d9b1a8a00fd74c4864d" target="_top" xlink:title="Set up 3d clamped mixed mass matrix for specific spline degree and profile function. ">
<polygon fill="#ffffff" stroke="#000000" points="337,-27.5 337,-68.5 500,-68.5 500,-27.5 337,-27.5"/>
<text text-anchor="start" x="345" y="-56.5" font-family="Helvetica,sans-Serif" font-size="10.00" fill="#000000">sll_m_spline_fem_utilities</text>
<text text-anchor="start" x="345" y="-45.5" font-family="Helvetica,sans-Serif" font-size="10.00" fill="#000000">_3d_clamped::sll_s_spline</text>
<text text-anchor="middle" x="418.5" y="-34.5" font-family="Helvetica,sans-Serif" font-size="10.00" fill="#000000">_fem_mixedmass3d_clamped</text>
</a>
</g>
</g>
<!-- Node179&#45;&gt;Node180 -->
<g id="edge2" class="edge">
<title>Node179&#45;&gt;Node180</title>
<path fill="none" stroke="#191970" d="M311.3639,-48C319.7909,-48 328.3727,-48 336.8256,-48"/>
<polygon fill="#191970" stroke="#191970" points="311.1807,-44.5001 301.1807,-48 311.1807,-51.5001 311.1807,-44.5001"/>
</g>
<!-- Node181 -->
<g id="node4" class="node">
<title>Node181</title>
<g id="a_node4"><a xlink:href="namespacesll__m__maxwell__clamped__3d__trafo.html#ab614fb88d34d5e55292639d8db6b0353" target="_top" xlink:title="Initialization. ">
<polygon fill="#ffffff" stroke="#000000" points="536,-61 536,-91 673,-91 673,-61 536,-61"/>
<text text-anchor="start" x="544" y="-79" font-family="Helvetica,sans-Serif" font-size="10.00" fill="#000000">sll_m_maxwell_clamped</text>
<text text-anchor="middle" x="604.5" y="-68" font-family="Helvetica,sans-Serif" font-size="10.00" fill="#000000">_3d_trafo::init_3d_trafo</text>
</a>
</g>
</g>
<!-- Node180&#45;&gt;Node181 -->
<g id="edge3" class="edge">
<title>Node180&#45;&gt;Node181</title>
<path fill="none" stroke="#191970" d="M510.1724,-61.8001C518.7887,-63.0972 527.4202,-64.3966 535.771,-65.6537"/>
<polygon fill="#191970" stroke="#191970" points="510.4919,-58.3089 500.0823,-60.2812 509.4499,-65.2309 510.4919,-58.3089"/>
</g>
<!-- Node182 -->
<g id="node5" class="node">
<title>Node182</title>
<g id="a_node5"><a xlink:href="namespacesll__m__maxwell__clamped__3d__trafo__parallel.html#ae0872c3bfa3cc2f7b7f3aaca4fd8838e" target="_top" xlink:title="sll_m_maxwell_clamped\l_3d_trafo_parallel::init\l_3d_trafo_parallel">
<polygon fill="#ffffff" stroke="#000000" points="536,-.5 536,-41.5 673,-41.5 673,-.5 536,-.5"/>
<text text-anchor="start" x="544" y="-29.5" font-family="Helvetica,sans-Serif" font-size="10.00" fill="#000000">sll_m_maxwell_clamped</text>
<text text-anchor="start" x="544" y="-18.5" font-family="Helvetica,sans-Serif" font-size="10.00" fill="#000000">_3d_trafo_parallel::init</text>
<text text-anchor="middle" x="604.5" y="-7.5" font-family="Helvetica,sans-Serif" font-size="10.00" fill="#000000">_3d_trafo_parallel</text>
</a>
</g>
</g>
<!-- Node180&#45;&gt;Node182 -->
<g id="edge4" class="edge">
<title>Node180&#45;&gt;Node182</title>
<path fill="none" stroke="#191970" d="M510.1724,-34.6927C518.7887,-33.442 527.4202,-32.189 535.771,-30.9768"/>
<polygon fill="#191970" stroke="#191970" points="509.4758,-31.2571 500.0823,-36.1574 510.4814,-38.1845 509.4758,-31.2571"/>
</g>
</g>
</svg>
        <g id="navigator" transform="translate(0 0)" fill="#404254">
                <rect fill="#f2f5e9" fill-opacity="0.5" stroke="#606060" stroke-width=".5" x="0" y="0" width="60" height="60"/>
                <use id="zoomplus" xlink:href="#zoomPlus" x="17" y="9" onmousedown="handleZoom(evt,'in')"/>
                <use id="zoomminus" xlink:href="#zoomMin" x="42" y="9" onmousedown="handleZoom(evt,'out')"/>
                <use id="reset" xlink:href="#resetDef" x="30" y="36" onmousedown="handleReset()"/>
                <g id="arrowUp" xlink:href="#dirArrow" transform="translate(30 24)" onmousedown="handlePan(0,-1)">
                  <use xlink:href="#rim" fill="#404040">
                        <set attributeName="fill" to="#808080" begin="arrowUp.mouseover" end="arrowUp.mouseout"/>
                  </use>
                  <path fill="none" stroke="white" stroke-width="1.5" d="M0,-3.0v7 M-2.5,-0.5L0,-3.0L2.5,-0.5"/>
                </g>
                <g id="arrowRight" xlink:href="#dirArrow" transform="rotate(90) translate(36 -43)" onmousedown="handlePan(1,0)">
                  <use xlink:href="#rim" fill="#404040">
                        <set attributeName="fill" to="#808080" begin="arrowRight.mouseover" end="arrowRight.mouseout"/>
                  </use>
                  <path fill="none" stroke="white" stroke-width="1.5" d="M0,-3.0v7 M-2.5,-0.5L0,-3.0L2.5,-0.5"/>
                </g>
                <g id="arrowDown" xlink:href="#dirArrow" transform="rotate(180) translate(-30 -48)" onmousedown="handlePan(0,1)">
                  <use xlink:href="#rim" fill="#404040">
                        <set attributeName="fill" to="#808080" begin="arrowDown.mouseover" end="arrowDown.mouseout"/>
                  </use>
                  <path fill="none" stroke="white" stroke-width="1.5" d="M0,-3.0v7 M-2.5,-0.5L0,-3.0L2.5,-0.5"/>
                </g>
                <g id="arrowLeft" xlink:href="#dirArrow" transform="rotate(270) translate(-36 17)" onmousedown="handlePan(-1,0)">
                  <use xlink:href="#rim" fill="#404040">
                        <set attributeName="fill" to="#808080" begin="arrowLeft.mouseover" end="arrowLeft.mouseout"/>
                  </use>
                  <path fill="none" stroke="white" stroke-width="1.5" d="M0,-3.0v7 M-2.5,-0.5L0,-3.0L2.5,-0.5"/>
                </g>
        </g>
        <svg viewBox="0 0 15 15" width="100%" height="30px" preserveAspectRatio="xMaxYMin meet">
         <g id="arrow_out" transform="scale(0.3 0.3)">
          <a xlink:href="namespacesll__m__spline__fem__utilities__3d__helper_a01baa7e908059a828a18483080b7f672_icgraph_org.svg" target="_base">
           <rect id="button" ry="5" rx="5" y="6" x="6" height="38" width="38"
                fill="#f2f5e9" fill-opacity="0.5" stroke="#606060" stroke-width="1.0"/>
           <path id="arrow"
             d="M 11.500037,31.436501 C 11.940474,20.09759 22.043105,11.32322 32.158766,21.979434 L 37.068811,17.246167 C 37.068811,17.246167 37.088388,32 37.088388,32 L 22.160133,31.978069 C 22.160133,31.978069 26.997745,27.140456 26.997745,27.140456 C 18.528582,18.264221 13.291696,25.230495 11.500037,31.436501 z"
             style="fill:#404040;"/>
          </a>
         </g>
        </svg>
</svg>
