<?xml version="1.0" encoding="UTF-8" standalone="no"?>
<!DOCTYPE svg PUBLIC "-//W3C//DTD SVG 1.1//EN"
 "http://www.w3.org/Graphics/SVG/1.1/DTD/svg11.dtd">
<!-- Generated by graphviz version 2.38.0 (20140413.2041)
 -->
<!-- Title: get_n_elem Pages: 1 -->
<svg width="227pt" height="446pt"
 viewBox="0.00 0.00 227.00 446.00" xmlns="http://www.w3.org/2000/svg" xmlns:xlink="http://www.w3.org/1999/xlink">
<g id="graph0" class="graph" transform="scale(1 1) rotate(0) translate(4 442)">
<title>get_n_elem</title>
<polygon fill="white" stroke="none" points="-4,4 -4,-442 223,-442 223,4 -4,4"/>
<!-- Node1 -->
<g id="node1" class="node"><title>Node1</title>
<polygon fill="#bfbfbf" stroke="black" points="0,-209.5 0,-228.5 67,-228.5 67,-209.5 0,-209.5"/>
<text text-anchor="middle" x="33.5" y="-216.5" font-family="Helvetica,sans-Serif" font-size="10.00">get_n_elem</text>
</g>
<!-- Node2 -->
<g id="node2" class="node"><title>Node2</title>
<g id="a_node2"><a xlink:href="namespacefmempool.html#aac7c0d2790983b4a5c6f1312d80e215a" target="_top" xlink:title="mp_acquire_double_1d">
<polygon fill="white" stroke="black" points="103,-418.5 103,-437.5 219,-437.5 219,-418.5 103,-418.5"/>
<text text-anchor="middle" x="161" y="-425.5" font-family="Helvetica,sans-Serif" font-size="10.00">mp_acquire_double_1d</text>
</a>
</g>
</g>
<!-- Node1&#45;&gt;Node2 -->
<g id="edge1" class="edge"><title>Node1&#45;&gt;Node2</title>
<path fill="none" stroke="midnightblue" d="M36.1026,-239.25C40.225,-277.717 54.562,-361.724 103,-409 106.956,-412.862 111.718,-415.938 116.781,-418.39"/>
<polygon fill="midnightblue" stroke="midnightblue" points="39.5469,-238.493 35.1247,-228.865 32.5777,-239.15 39.5469,-238.493"/>
</g>
<!-- Node3 -->
<g id="node3" class="node"><title>Node3</title>
<g id="a_node3"><a xlink:href="namespacefmempool.html#a24b8c0ff147db1fb2e22dc1677dab274" target="_top" xlink:title="mp_acquire_double_2d">
<polygon fill="white" stroke="black" points="103,-380.5 103,-399.5 219,-399.5 219,-380.5 103,-380.5"/>
<text text-anchor="middle" x="161" y="-387.5" font-family="Helvetica,sans-Serif" font-size="10.00">mp_acquire_double_2d</text>
</a>
</g>
</g>
<!-- Node1&#45;&gt;Node3 -->
<g id="edge2" class="edge"><title>Node1&#45;&gt;Node3</title>
<path fill="none" stroke="midnightblue" d="M38.0953,-238.753C44.9776,-270.983 63.033,-334.902 103,-371 107.335,-374.915 112.501,-378.027 117.927,-380.499"/>
<polygon fill="midnightblue" stroke="midnightblue" points="41.4935,-237.896 36.1093,-228.771 34.6281,-239.262 41.4935,-237.896"/>
</g>
<!-- Node4 -->
<g id="node4" class="node"><title>Node4</title>
<g id="a_node4"><a xlink:href="namespacefmempool.html#a938dbeac2fdfdd53c49ac139afdd73e4" target="_top" xlink:title="mp_acquire_double_3d">
<polygon fill="white" stroke="black" points="103,-342.5 103,-361.5 219,-361.5 219,-342.5 103,-342.5"/>
<text text-anchor="middle" x="161" y="-349.5" font-family="Helvetica,sans-Serif" font-size="10.00">mp_acquire_double_3d</text>
</a>
</g>
</g>
<!-- Node1&#45;&gt;Node4 -->
<g id="edge3" class="edge"><title>Node1&#45;&gt;Node4</title>
<path fill="none" stroke="midnightblue" d="M41.1188,-238.048C50.8349,-263.294 71.315,-307.6 103,-333 107.802,-336.849 113.418,-339.934 119.218,-342.401"/>
<polygon fill="midnightblue" stroke="midnightblue" points="44.3469,-236.684 37.6125,-228.505 37.7764,-239.099 44.3469,-236.684"/>
</g>
<!-- Node5 -->
<g id="node5" class="node"><title>Node5</title>
<g id="a_node5"><a xlink:href="namespacefmempool.html#ab11f2c5d11505ecb529007d4b1a76439" target="_top" xlink:title="mp_acquire_double_6d">
<polygon fill="white" stroke="black" points="103,-304.5 103,-323.5 219,-323.5 219,-304.5 103,-304.5"/>
<text text-anchor="middle" x="161" y="-311.5" font-family="Helvetica,sans-Serif" font-size="10.00">mp_acquire_double_6d</text>
</a>
</g>
</g>
<!-- Node1&#45;&gt;Node5 -->
<g id="edge4" class="edge"><title>Node1&#45;&gt;Node5</title>
<path fill="none" stroke="midnightblue" d="M46.6566,-237.2C58.9845,-254.353 79.5492,-279.652 103,-295 108.848,-298.827 115.539,-301.952 122.231,-304.481"/>
<polygon fill="midnightblue" stroke="midnightblue" points="49.2734,-234.833 40.6891,-228.623 43.5274,-238.831 49.2734,-234.833"/>
</g>
<!-- Node6 -->
<g id="node6" class="node"><title>Node6</title>
<g id="a_node6"><a xlink:href="namespacefmempool.html#a27033f05fb0be62edd6f625bd0bc8535" target="_top" xlink:title="mp_acquire_real_1d">
<polygon fill="white" stroke="black" points="109,-266.5 109,-285.5 213,-285.5 213,-266.5 109,-266.5"/>
<text text-anchor="middle" x="161" y="-273.5" font-family="Helvetica,sans-Serif" font-size="10.00">mp_acquire_real_1d</text>
</a>
</g>
</g>
<!-- Node1&#45;&gt;Node6 -->
<g id="edge5" class="edge"><title>Node1&#45;&gt;Node6</title>
<path fill="none" stroke="midnightblue" d="M58.5727,-233.79C71.4583,-241.335 87.7719,-250.307 103,-257 110.926,-260.484 119.704,-263.706 127.949,-266.469"/>
<polygon fill="midnightblue" stroke="midnightblue" points="60.243,-230.711 49.8604,-228.601 56.661,-236.725 60.243,-230.711"/>
</g>
<!-- Node7 -->
<g id="node7" class="node"><title>Node7</title>
<g id="a_node7"><a xlink:href="namespacefmempool.html#ac082404ee20cbe5dfe80d25e637420de" target="_top" xlink:title="mp_acquire_real_2d">
<polygon fill="white" stroke="black" points="109,-228.5 109,-247.5 213,-247.5 213,-228.5 109,-228.5"/>
<text text-anchor="middle" x="161" y="-235.5" font-family="Helvetica,sans-Serif" font-size="10.00">mp_acquire_real_2d</text>
</a>
</g>
</g>
<!-- Node1&#45;&gt;Node7 -->
<g id="edge6" class="edge"><title>Node1&#45;&gt;Node7</title>
<path fill="none" stroke="midnightblue" d="M77.2959,-225.479C87.3483,-227.001 98.1634,-228.638 108.551,-230.211"/>
<polygon fill="midnightblue" stroke="midnightblue" points="77.5573,-221.979 67.146,-223.942 76.5094,-228.9 77.5573,-221.979"/>
</g>
<!-- Node8 -->
<g id="node8" class="node"><title>Node8</title>
<g id="a_node8"><a xlink:href="namespacefmempool.html#a7482238bd6d1742a9856c4dcbce45695" target="_top" xlink:title="mp_acquire_real_3d">
<polygon fill="white" stroke="black" points="109,-190.5 109,-209.5 213,-209.5 213,-190.5 109,-190.5"/>
<text text-anchor="middle" x="161" y="-197.5" font-family="Helvetica,sans-Serif" font-size="10.00">mp_acquire_real_3d</text>
</a>
</g>
</g>
<!-- Node1&#45;&gt;Node8 -->
<g id="edge7" class="edge"><title>Node1&#45;&gt;Node8</title>
<path fill="none" stroke="midnightblue" d="M77.2959,-212.521C87.3483,-210.999 98.1634,-209.362 108.551,-207.789"/>
<polygon fill="midnightblue" stroke="midnightblue" points="76.5094,-209.1 67.146,-214.058 77.5573,-216.021 76.5094,-209.1"/>
</g>
<!-- Node9 -->
<g id="node9" class="node"><title>Node9</title>
<g id="a_node9"><a xlink:href="namespacefmempool.html#ab4163e49b73eac46dde5755035adb6a8" target="_top" xlink:title="mp_acquire_real_6d">
<polygon fill="white" stroke="black" points="109,-152.5 109,-171.5 213,-171.5 213,-152.5 109,-152.5"/>
<text text-anchor="middle" x="161" y="-159.5" font-family="Helvetica,sans-Serif" font-size="10.00">mp_acquire_real_6d</text>
</a>
</g>
</g>
<!-- Node1&#45;&gt;Node9 -->
<g id="edge8" class="edge"><title>Node1&#45;&gt;Node9</title>
<path fill="none" stroke="midnightblue" d="M58.5727,-204.21C71.4583,-196.665 87.7719,-187.693 103,-181 110.926,-177.516 119.704,-174.294 127.949,-171.531"/>
<polygon fill="midnightblue" stroke="midnightblue" points="56.661,-201.275 49.8604,-209.399 60.243,-207.289 56.661,-201.275"/>
</g>
<!-- Node10 -->
<g id="node10" class="node"><title>Node10</title>
<g id="a_node10"><a xlink:href="namespacefmempool.html#aab47fbb85c006c6b92ea85ce68687115" target="_top" xlink:title="mp_acquire_int_1d">
<polygon fill="white" stroke="black" points="112,-114.5 112,-133.5 210,-133.5 210,-114.5 112,-114.5"/>
<text text-anchor="middle" x="161" y="-121.5" font-family="Helvetica,sans-Serif" font-size="10.00">mp_acquire_int_1d</text>
</a>
</g>
</g>
<!-- Node1&#45;&gt;Node10 -->
<g id="edge9" class="edge"><title>Node1&#45;&gt;Node10</title>
<path fill="none" stroke="midnightblue" d="M46.6566,-200.8C58.9845,-183.647 79.5492,-158.348 103,-143 108.848,-139.173 115.539,-136.048 122.231,-133.519"/>
<polygon fill="midnightblue" stroke="midnightblue" points="43.5274,-199.169 40.6891,-209.377 49.2734,-203.167 43.5274,-199.169"/>
</g>
<!-- Node11 -->
<g id="node11" class="node"><title>Node11</title>
<g id="a_node11"><a xlink:href="namespacefmempool.html#a57fc94a0bc6327960b500e38366e1eb7" target="_top" xlink:title="mp_acquire_int_2d">
<polygon fill="white" stroke="black" points="112,-76.5 112,-95.5 210,-95.5 210,-76.5 112,-76.5"/>
<text text-anchor="middle" x="161" y="-83.5" font-family="Helvetica,sans-Serif" font-size="10.00">mp_acquire_int_2d</text>
</a>
</g>
</g>
<!-- Node1&#45;&gt;Node11 -->
<g id="edge10" class="edge"><title>Node1&#45;&gt;Node11</title>
<path fill="none" stroke="midnightblue" d="M41.1188,-199.952C50.8349,-174.706 71.315,-130.4 103,-105 107.802,-101.151 113.418,-98.0663 119.218,-95.599"/>
<polygon fill="midnightblue" stroke="midnightblue" points="37.7764,-198.901 37.6125,-209.495 44.3469,-201.316 37.7764,-198.901"/>
</g>
<!-- Node12 -->
<g id="node12" class="node"><title>Node12</title>
<g id="a_node12"><a xlink:href="namespacefmempool.html#a2556e29874a2d59184a969549c0103a2" target="_top" xlink:title="mp_acquire_int_3d">
<polygon fill="white" stroke="black" points="112,-38.5 112,-57.5 210,-57.5 210,-38.5 112,-38.5"/>
<text text-anchor="middle" x="161" y="-45.5" font-family="Helvetica,sans-Serif" font-size="10.00">mp_acquire_int_3d</text>
</a>
</g>
</g>
<!-- Node1&#45;&gt;Node12 -->
<g id="edge11" class="edge"><title>Node1&#45;&gt;Node12</title>
<path fill="none" stroke="midnightblue" d="M38.0953,-199.247C44.9776,-167.017 63.033,-103.098 103,-67 107.335,-63.0847 112.501,-59.9731 117.927,-57.501"/>
<polygon fill="midnightblue" stroke="midnightblue" points="34.6281,-198.738 36.1093,-209.229 41.4935,-200.104 34.6281,-198.738"/>
</g>
<!-- Node13 -->
<g id="node13" class="node"><title>Node13</title>
<g id="a_node13"><a xlink:href="namespacefmempool.html#a7575c591016193d0bae59c1a9ecc5eb3" target="_top" xlink:title="mp_acquire_int_6d">
<polygon fill="white" stroke="black" points="112,-0.5 112,-19.5 210,-19.5 210,-0.5 112,-0.5"/>
<text text-anchor="middle" x="161" y="-7.5" font-family="Helvetica,sans-Serif" font-size="10.00">mp_acquire_int_6d</text>
</a>
</g>
</g>
<!-- Node1&#45;&gt;Node13 -->
<g id="edge12" class="edge"><title>Node1&#45;&gt;Node13</title>
<path fill="none" stroke="midnightblue" d="M36.1026,-198.75C40.225,-160.283 54.562,-76.2764 103,-29 106.956,-25.1385 111.718,-22.0615 116.781,-19.6097"/>
<polygon fill="midnightblue" stroke="midnightblue" points="32.5777,-198.85 35.1247,-209.135 39.5469,-199.507 32.5777,-198.85"/>
</g>
</g>
</svg>
