<?xml version="1.0" encoding="UTF-8" standalone="no"?>
<!DOCTYPE svg PUBLIC "-//W3C//DTD SVG 1.1//EN"
 "http://www.w3.org/Graphics/SVG/1.1/DTD/svg11.dtd">
<!-- Generated by graphviz version 2.43.0 (0)
 -->
<!-- Title: sll_s_triangular_mesh_2d_init_from_square Pages: 1 -->
<svg width="278pt" height="78pt"
 viewBox="0.00 0.00 278.00 77.50" xmlns="http://www.w3.org/2000/svg" xmlns:xlink="http://www.w3.org/1999/xlink">
<g id="graph0" class="graph" transform="scale(1 1) rotate(0) translate(4 73.5)">
<title>sll_s_triangular_mesh_2d_init_from_square</title>
<polygon fill="white" stroke="transparent" points="-4,4 -4,-73.5 274,-73.5 274,4 -4,4"/>
<!-- Node1 -->
<g id="node1" class="node">
<title>Node1</title>
<g id="a_node1"><a xlink:title="Initialize a new 2D triangular mesh.">
<polygon fill="#bfbfbf" stroke="black" points="0,-22.5 0,-52.5 123,-52.5 123,-22.5 0,-22.5"/>
<text text-anchor="start" x="8" y="-40.5" font-family="Helvetica,sans-Serif" font-size="10.00">sll_s_triangular_mesh</text>
<text text-anchor="middle" x="61.5" y="-29.5" font-family="Helvetica,sans-Serif" font-size="10.00">_2d_init_from_square</text>
</a>
</g>
</g>
<!-- Node2 -->
<g id="node2" class="node">
<title>Node2</title>
<g id="a_node2"><a xlink:href="namespacesll__m__triangular__meshes.html#a90f335b44591b8b71485a91db8dcd317" target="_top" xlink:title=" ">
<polygon fill="white" stroke="black" points="168.5,-50 168.5,-69 260.5,-69 260.5,-50 168.5,-50"/>
<text text-anchor="middle" x="214.5" y="-57" font-family="Helvetica,sans-Serif" font-size="10.00">compute_areas</text>
</a>
</g>
</g>
<!-- Node1&#45;&gt;Node2 -->
<g id="edge1" class="edge">
<title>Node1&#45;&gt;Node2</title>
<path fill="none" stroke="midnightblue" d="M123.05,-46.32C134.61,-48.01 146.65,-49.76 158.04,-51.42"/>
<polygon fill="midnightblue" stroke="midnightblue" points="157.88,-54.93 168.28,-52.91 158.89,-48.01 157.88,-54.93"/>
</g>
<!-- Node3 -->
<g id="node3" class="node">
<title>Node3</title>
<g id="a_node3"><a xlink:href="namespacesll__m__triangular__meshes.html#a63d3ec0d8f7ffa20844f888e41034a60" target="_top" xlink:title=" ">
<polygon fill="white" stroke="black" points="159,-0.5 159,-30.5 270,-30.5 270,-0.5 159,-0.5"/>
<text text-anchor="start" x="167" y="-18.5" font-family="Helvetica,sans-Serif" font-size="10.00">initialize_triangular</text>
<text text-anchor="middle" x="214.5" y="-7.5" font-family="Helvetica,sans-Serif" font-size="10.00">_mesh_2d</text>
</a>
</g>
</g>
<!-- Node1&#45;&gt;Node3 -->
<g id="edge2" class="edge">
<title>Node1&#45;&gt;Node3</title>
<path fill="none" stroke="midnightblue" d="M123.05,-28.68C131.54,-27.44 140.29,-26.17 148.86,-24.92"/>
<polygon fill="midnightblue" stroke="midnightblue" points="149.41,-28.37 158.8,-23.47 148.4,-21.45 149.41,-28.37"/>
</g>
</g>
</svg>
