<?xml version="1.0" encoding="UTF-8" standalone="no"?>
<!DOCTYPE svg PUBLIC "-//W3C//DTD SVG 1.1//EN"
 "http://www.w3.org/Graphics/SVG/1.1/DTD/svg11.dtd">
<!-- Generated by graphviz version 2.40.1 (20161225.0304)
 -->
<!-- Title: compute_vec_size Pages: 1 -->
<svg width="413pt" height="88pt"
 viewBox="0.00 0.00 413.00 88.00" xmlns="http://www.w3.org/2000/svg" xmlns:xlink="http://www.w3.org/1999/xlink">
<g id="graph0" class="graph" transform="scale(1 1) rotate(0) translate(4 84)">
<title>compute_vec_size</title>
<polygon fill="#ffffff" stroke="transparent" points="-4,4 -4,-84 409,-84 409,4 -4,4"/>
<!-- Node106 -->
<g id="node1" class="node">
<title>Node106</title>
<polygon fill="#bfbfbf" stroke="#000000" points="0,-30 0,-49 107,-49 107,-30 0,-30"/>
<text text-anchor="middle" x="53.5" y="-37" font-family="Helvetica,sans-Serif" font-size="10.00" fill="#000000">compute_vec_size</text>
</g>
<!-- Node107 -->
<g id="node2" class="node">
<title>Node107</title>
<g id="a_node2"><a xlink:href="namespacesll__m__general__coordinate__elliptic__solver.html#a1530444505e15898adb13de4fd54458c" target="_top" xlink:title="sll_s_general_elliptic\l_solver_prototype_init">
<polygon fill="#ffffff" stroke="#000000" points="143,-49.5 143,-79.5 268,-79.5 268,-49.5 143,-49.5"/>
<text text-anchor="start" x="151" y="-67.5" font-family="Helvetica,sans-Serif" font-size="10.00" fill="#000000">sll_s_general_elliptic</text>
<text text-anchor="middle" x="205.5" y="-56.5" font-family="Helvetica,sans-Serif" font-size="10.00" fill="#000000">_solver_prototype_init</text>
</a>
</g>
</g>
<!-- Node106&#45;&gt;Node107 -->
<g id="edge1" class="edge">
<title>Node106&#45;&gt;Node107</title>
<path fill="none" stroke="#191970" d="M116.9782,-49.9405C125.5094,-51.3436 134.257,-52.7824 142.7751,-54.1834"/>
<polygon fill="#191970" stroke="#191970" points="117.525,-46.4835 107.0895,-48.3141 116.3889,-53.3907 117.525,-46.4835"/>
</g>
<!-- Node109 -->
<g id="node4" class="node">
<title>Node109</title>
<g id="a_node4"><a xlink:href="namespacesll__m__general__coordinate__elliptic__solver.html#a2c7a0e952c10e71709680a8ea4bd548d" target="_top" xlink:title="sll_s_factorize_mat\l_es_prototype">
<polygon fill="#ffffff" stroke="#000000" points="150,-.5 150,-30.5 261,-30.5 261,-.5 150,-.5"/>
<text text-anchor="start" x="158" y="-18.5" font-family="Helvetica,sans-Serif" font-size="10.00" fill="#000000">sll_s_factorize_mat</text>
<text text-anchor="middle" x="205.5" y="-7.5" font-family="Helvetica,sans-Serif" font-size="10.00" fill="#000000">_es_prototype</text>
</a>
</g>
</g>
<!-- Node106&#45;&gt;Node109 -->
<g id="edge3" class="edge">
<title>Node106&#45;&gt;Node109</title>
<path fill="none" stroke="#191970" d="M116.9782,-29.4771C127.8833,-27.7553 139.142,-25.9776 149.8228,-24.2911"/>
<polygon fill="#191970" stroke="#191970" points="116.4212,-26.0216 107.0895,-31.0385 117.513,-32.936 116.4212,-26.0216"/>
</g>
<!-- Node108 -->
<g id="node3" class="node">
<title>Node108</title>
<g id="a_node3"><a xlink:href="namespacesll__m__general__coordinate__elliptic__solver.html#a6a5dd9c906ada7725f3e185423b28f82" target="_top" xlink:title="Initialization for elliptic solver. ">
<polygon fill="#ffffff" stroke="#000000" points="304,-49.5 304,-79.5 405,-79.5 405,-49.5 304,-49.5"/>
<text text-anchor="start" x="312" y="-67.5" font-family="Helvetica,sans-Serif" font-size="10.00" fill="#000000">initialize_general</text>
<text text-anchor="middle" x="354.5" y="-56.5" font-family="Helvetica,sans-Serif" font-size="10.00" fill="#000000">_elliptic_solver</text>
</a>
</g>
</g>
<!-- Node107&#45;&gt;Node108 -->
<g id="edge2" class="edge">
<title>Node107&#45;&gt;Node108</title>
<path fill="none" stroke="#191970" d="M278.5363,-64.5C286.9973,-64.5 295.4834,-64.5 303.5581,-64.5"/>
<polygon fill="#191970" stroke="#191970" points="278.2576,-61.0001 268.2576,-64.5 278.2575,-68.0001 278.2576,-61.0001"/>
</g>
</g>
</svg>
