<?xml version="1.0" encoding="UTF-8" standalone="no"?>
<!DOCTYPE svg PUBLIC "-//W3C//DTD SVG 1.1//EN"
 "http://www.w3.org/Graphics/SVG/1.1/DTD/svg11.dtd">
<!-- Generated by graphviz version 2.40.1 (20161225.0304)
 -->
<!-- Title: compute_b_spline_and_deriv_at_x Pages: 1 -->
<svg width="489pt" height="78pt"
 viewBox="0.00 0.00 489.00 77.50" xmlns="http://www.w3.org/2000/svg" xmlns:xlink="http://www.w3.org/1999/xlink">
<g id="graph0" class="graph" transform="scale(1 1) rotate(0) translate(4 73.5)">
<title>compute_b_spline_and_deriv_at_x</title>
<polygon fill="#ffffff" stroke="transparent" points="-4,4 -4,-73.5 485,-73.5 485,4 -4,4"/>
<!-- Node8 -->
<g id="node1" class="node">
<title>Node8</title>
<polygon fill="#bfbfbf" stroke="#000000" points="0,-17 0,-47 128,-47 128,-17 0,-17"/>
<text text-anchor="start" x="8" y="-35" font-family="Helvetica,sans-Serif" font-size="10.00" fill="#000000">compute_b_spline_and</text>
<text text-anchor="middle" x="64" y="-24" font-family="Helvetica,sans-Serif" font-size="10.00" fill="#000000">_deriv_at_x</text>
</g>
<!-- Node9 -->
<g id="node2" class="node">
<title>Node9</title>
<g id="a_node2"><a xlink:href="namespacesll__m__general__coordinate__elliptic__solver.html#a27d90b4a6ca26e6014ca4db59a27eda1" target="_top" xlink:title="compute_global_splines\l_indices">
<polygon fill="#ffffff" stroke="#000000" points="164,-17 164,-47 298,-47 298,-17 164,-17"/>
<text text-anchor="start" x="172" y="-35" font-family="Helvetica,sans-Serif" font-size="10.00" fill="#000000">compute_global_splines</text>
<text text-anchor="middle" x="231" y="-24" font-family="Helvetica,sans-Serif" font-size="10.00" fill="#000000">_indices</text>
</a>
</g>
</g>
<!-- Node8&#45;&gt;Node9 -->
<g id="edge1" class="edge">
<title>Node8&#45;&gt;Node9</title>
<path fill="none" stroke="#191970" d="M138.3299,-32C146.797,-32 155.3913,-32 163.759,-32"/>
<polygon fill="#191970" stroke="#191970" points="138.089,-28.5001 128.089,-32 138.0889,-35.5001 138.089,-28.5001"/>
</g>
<!-- Node10 -->
<g id="node3" class="node">
<title>Node10</title>
<g id="a_node3"><a xlink:href="namespacesll__m__general__coordinate__elliptic__solver.html#a13e1428f9465e72bbf96682e92f305f8" target="_top" xlink:title="Assemble the matrix for elliptic solver. ">
<polygon fill="#ffffff" stroke="#000000" points="334,-39 334,-69 481,-69 481,-39 334,-39"/>
<text text-anchor="start" x="342" y="-57" font-family="Helvetica,sans-Serif" font-size="10.00" fill="#000000">solve_general_coordinates</text>
<text text-anchor="middle" x="407.5" y="-46" font-family="Helvetica,sans-Serif" font-size="10.00" fill="#000000">_elliptic_eq</text>
</a>
</g>
</g>
<!-- Node9&#45;&gt;Node10 -->
<g id="edge2" class="edge">
<title>Node9&#45;&gt;Node10</title>
<path fill="none" stroke="#191970" d="M308.1986,-41.6225C316.7618,-42.6899 325.4661,-43.7748 333.982,-44.8363"/>
<polygon fill="#191970" stroke="#191970" points="308.5867,-38.1439 298.2306,-40.38 307.7209,-45.0901 308.5867,-38.1439"/>
</g>
<!-- Node11 -->
<g id="node4" class="node">
<title>Node11</title>
<g id="a_node4"><a xlink:href="namespacesll__m__general__coordinate__elliptic__solver.html#a17eb78399c10cd0dcdd31c4bf2cb72e6" target="_top" xlink:title="initconnectivity_new">
<polygon fill="#ffffff" stroke="#000000" points="348.5,-.5 348.5,-19.5 466.5,-19.5 466.5,-.5 348.5,-.5"/>
<text text-anchor="middle" x="407.5" y="-7.5" font-family="Helvetica,sans-Serif" font-size="10.00" fill="#000000">initconnectivity_new</text>
</a>
</g>
</g>
<!-- Node9&#45;&gt;Node11 -->
<g id="edge3" class="edge">
<title>Node9&#45;&gt;Node11</title>
<path fill="none" stroke="#191970" d="M308.3708,-22.356C321.7445,-20.6891 335.4566,-18.9799 348.2534,-17.3848"/>
<polygon fill="#191970" stroke="#191970" points="307.7209,-18.9099 298.2306,-23.62 308.5867,-25.8561 307.7209,-18.9099"/>
</g>
</g>
</svg>
