<?xml version="1.0" encoding="UTF-8" standalone="no"?>
<!DOCTYPE svg PUBLIC "-//W3C//DTD SVG 1.1//EN"
 "http://www.w3.org/Graphics/SVG/1.1/DTD/svg11.dtd">
<!-- Generated by graphviz version 2.40.1 (20161225.0304)
 -->
<!-- Title: spline_interpolate2d_disp Pages: 1 -->
<!--zoomable 230 -->
<svg id="main" version="1.1" xmlns="http://www.w3.org/2000/svg" xmlns:xlink="http://www.w3.org/1999/xlink" xml:space="preserve" onload="init(evt)">
<style type="text/css"><![CDATA[
.edge:hover path { stroke: red; }
.edge:hover polygon { stroke: red; fill: red; }
]]></style>
<script type="text/javascript"><![CDATA[
var edges = document.getElementsByTagName('g');
if (edges && edges.length) {
  for (var i=0;i<edges.length;i++) {
    if (edges[i].id.substr(0,4)=='edge') {
      edges[i].setAttribute('class','edge');
    }
  }
}
]]></script>
        <defs>
                <circle id="rim" cx="0" cy="0" r="7"/>
                <circle id="rim2" cx="0" cy="0" r="3.5"/>
                <g id="zoomPlus">
                        <use xlink:href="#rim" fill="#404040">
                                <set attributeName="fill" to="#808080" begin="zoomplus.mouseover" end="zoomplus.mouseout"/>
                        </use>
                        <path d="M-4,0h8M0,-4v8" fill="none" stroke="white" stroke-width="1.5" pointer-events="none"/>
                </g>
                <g id="zoomMin">
                        <use xlink:href="#rim" fill="#404040">
                                <set attributeName="fill" to="#808080" begin="zoomminus.mouseover" end="zoomminus.mouseout"/>
                        </use>
                        <path d="M-4,0h8" fill="none" stroke="white" stroke-width="1.5" pointer-events="none"/>
                </g>
                <g id="dirArrow">
                        <path fill="none" stroke="white" stroke-width="1.5" d="M0,-3.0v7 M-2.5,-0.5L0,-3.0L2.5,-0.5"/>
                </g>
               <g id="resetDef">
                       <use xlink:href="#rim2" fill="#404040">
                               <set attributeName="fill" to="#808080" begin="reset.mouseover" end="reset.mouseout"/>
                       </use>
               </g>
        </defs>

<script type="text/javascript">
var viewWidth = 632;
var viewHeight = 230;
var sectionId = 'dynsection-8';
</script>
<script xlink:href="svgpan.js"/>
<svg id="graph" class="graph">
<g id="viewport">
<title>spline_interpolate2d_disp</title>
<polygon fill="#ffffff" stroke="transparent" points="-4,4 -4,-226 628,-226 628,4 -4,4"/>
<!-- Node46 -->
<g id="node1" class="node">
<title>Node46</title>
<polygon fill="#bfbfbf" stroke="#000000" points="0,-101.5 0,-120.5 142,-120.5 142,-101.5 0,-101.5"/>
<text text-anchor="middle" x="71" y="-108.5" font-family="Helvetica,sans-Serif" font-size="10.00" fill="#000000">spline_interpolate2d_disp</text>
</g>
<!-- Node47 -->
<g id="node2" class="node">
<title>Node47</title>
<g id="a_node2"><a xlink:href="namespacesll__m__cubic__splines.html#a0d1f3cee9f161c208e409c998ab66713" target="_top" xlink:title="Computes the spline coefficients for the given data. The coeffcients are first computed in the second...">
<polygon fill="#ffffff" stroke="#000000" points="178,-90.5 178,-131.5 318,-131.5 318,-90.5 178,-90.5"/>
<text text-anchor="start" x="186" y="-119.5" font-family="Helvetica,sans-Serif" font-size="10.00" fill="#000000">sll_m_cubic_splines</text>
<text text-anchor="start" x="186" y="-108.5" font-family="Helvetica,sans-Serif" font-size="10.00" fill="#000000">::sll_s_cubic_spline</text>
<text text-anchor="middle" x="248" y="-97.5" font-family="Helvetica,sans-Serif" font-size="10.00" fill="#000000">_2d_compute_interpolant</text>
</a>
</g>
</g>
<!-- Node46&#45;&gt;Node47 -->
<g id="edge1" class="edge">
<title>Node46&#45;&gt;Node47</title>
<path fill="none" stroke="#191970" d="M142.2276,-111C150.5594,-111 159.1038,-111 167.5496,-111"/>
<polygon fill="#191970" stroke="#191970" points="167.7818,-114.5001 177.7818,-111 167.7817,-107.5001 167.7818,-114.5001"/>
</g>
<!-- Node48 -->
<g id="node3" class="node">
<title>Node48</title>
<g id="a_node3"><a xlink:href="namespacesll__m__cubic__splines.html#a90ddea961b2a3fdbe5b6710fe9e115aa" target="_top" xlink:title="sll_m_cubic_splines\l::compute_spline_2d\l_prdc_prdc">
<polygon fill="#ffffff" stroke="#000000" points="354,-180.5 354,-221.5 471,-221.5 471,-180.5 354,-180.5"/>
<text text-anchor="start" x="362" y="-209.5" font-family="Helvetica,sans-Serif" font-size="10.00" fill="#000000">sll_m_cubic_splines</text>
<text text-anchor="start" x="362" y="-198.5" font-family="Helvetica,sans-Serif" font-size="10.00" fill="#000000">::compute_spline_2d</text>
<text text-anchor="middle" x="412.5" y="-187.5" font-family="Helvetica,sans-Serif" font-size="10.00" fill="#000000">_prdc_prdc</text>
</a>
</g>
</g>
<!-- Node47&#45;&gt;Node48 -->
<g id="edge2" class="edge">
<title>Node47&#45;&gt;Node48</title>
<path fill="none" stroke="#191970" d="M283.6136,-131.6431C304.0886,-143.3892 330.3608,-158.2553 354,-171 356.8633,-172.5437 359.8142,-174.1155 362.7975,-175.6901"/>
<polygon fill="#191970" stroke="#191970" points="361.3073,-178.8605 371.7903,-180.3964 364.5532,-172.6585 361.3073,-178.8605"/>
</g>
<!-- Node50 -->
<g id="node5" class="node">
<title>Node50</title>
<g id="a_node5"><a xlink:href="namespacesll__m__cubic__splines.html#a735701443ea806b5f792c6cc9547752e" target="_top" xlink:title="sll_m_cubic_splines\l::compute_spline_2d\l_hrmt_prdc">
<polygon fill="#ffffff" stroke="#000000" points="354,-120.5 354,-161.5 471,-161.5 471,-120.5 354,-120.5"/>
<text text-anchor="start" x="362" y="-149.5" font-family="Helvetica,sans-Serif" font-size="10.00" fill="#000000">sll_m_cubic_splines</text>
<text text-anchor="start" x="362" y="-138.5" font-family="Helvetica,sans-Serif" font-size="10.00" fill="#000000">::compute_spline_2d</text>
<text text-anchor="middle" x="412.5" y="-127.5" font-family="Helvetica,sans-Serif" font-size="10.00" fill="#000000">_hrmt_prdc</text>
</a>
</g>
</g>
<!-- Node47&#45;&gt;Node50 -->
<g id="edge4" class="edge">
<title>Node47&#45;&gt;Node50</title>
<path fill="none" stroke="#191970" d="M318.24,-123.8097C326.776,-125.3664 335.4885,-126.9553 343.9988,-128.5074"/>
<polygon fill="#191970" stroke="#191970" points="343.4079,-131.9573 353.8736,-130.3083 344.6639,-125.0709 343.4079,-131.9573"/>
</g>
<!-- Node52 -->
<g id="node7" class="node">
<title>Node52</title>
<g id="a_node7"><a xlink:href="namespacesll__m__cubic__splines.html#aee0b7670b3ea0984872ebfe5ddc01b27" target="_top" xlink:title="sll_m_cubic_splines\l::compute_spline_2d\l_prdc_hrmt">
<polygon fill="#ffffff" stroke="#000000" points="354,-60.5 354,-101.5 471,-101.5 471,-60.5 354,-60.5"/>
<text text-anchor="start" x="362" y="-89.5" font-family="Helvetica,sans-Serif" font-size="10.00" fill="#000000">sll_m_cubic_splines</text>
<text text-anchor="start" x="362" y="-78.5" font-family="Helvetica,sans-Serif" font-size="10.00" fill="#000000">::compute_spline_2d</text>
<text text-anchor="middle" x="412.5" y="-67.5" font-family="Helvetica,sans-Serif" font-size="10.00" fill="#000000">_prdc_hrmt</text>
</a>
</g>
</g>
<!-- Node47&#45;&gt;Node52 -->
<g id="edge7" class="edge">
<title>Node47&#45;&gt;Node52</title>
<path fill="none" stroke="#191970" d="M318.24,-98.1903C326.776,-96.6336 335.4885,-95.0447 343.9988,-93.4926"/>
<polygon fill="#191970" stroke="#191970" points="344.6639,-96.9291 353.8736,-91.6917 343.4079,-90.0427 344.6639,-96.9291"/>
</g>
<!-- Node53 -->
<g id="node8" class="node">
<title>Node53</title>
<g id="a_node8"><a xlink:href="namespacesll__m__cubic__splines.html#a29cb8396fd20358727d21d1ae39b83a2" target="_top" xlink:title="sll_m_cubic_splines\l::compute_spline_2d\l_hrmt_hrmt">
<polygon fill="#ffffff" stroke="#000000" points="354,-.5 354,-41.5 471,-41.5 471,-.5 354,-.5"/>
<text text-anchor="start" x="362" y="-29.5" font-family="Helvetica,sans-Serif" font-size="10.00" fill="#000000">sll_m_cubic_splines</text>
<text text-anchor="start" x="362" y="-18.5" font-family="Helvetica,sans-Serif" font-size="10.00" fill="#000000">::compute_spline_2d</text>
<text text-anchor="middle" x="412.5" y="-7.5" font-family="Helvetica,sans-Serif" font-size="10.00" fill="#000000">_hrmt_hrmt</text>
</a>
</g>
</g>
<!-- Node47&#45;&gt;Node53 -->
<g id="edge10" class="edge">
<title>Node47&#45;&gt;Node53</title>
<path fill="none" stroke="#191970" d="M283.6136,-90.3569C304.0886,-78.6108 330.3608,-63.7447 354,-51 356.8633,-49.4563 359.8142,-47.8845 362.7975,-46.3099"/>
<polygon fill="#191970" stroke="#191970" points="364.5532,-49.3415 371.7903,-41.6036 361.3073,-43.1395 364.5532,-49.3415"/>
</g>
<!-- Node49 -->
<g id="node4" class="node">
<title>Node49</title>
<g id="a_node4"><a xlink:href="namespacesll__m__cubic__splines.html#a908d8f64cc3a4c32d9bdc5afc4077948" target="_top" xlink:title="sll_m_cubic_splines\l::compute_spline_1d\l_periodic_aux">
<polygon fill="#ffffff" stroke="#000000" points="507,-120.5 507,-161.5 624,-161.5 624,-120.5 507,-120.5"/>
<text text-anchor="start" x="515" y="-149.5" font-family="Helvetica,sans-Serif" font-size="10.00" fill="#000000">sll_m_cubic_splines</text>
<text text-anchor="start" x="515" y="-138.5" font-family="Helvetica,sans-Serif" font-size="10.00" fill="#000000">::compute_spline_1d</text>
<text text-anchor="middle" x="565.5" y="-127.5" font-family="Helvetica,sans-Serif" font-size="10.00" fill="#000000">_periodic_aux</text>
</a>
</g>
</g>
<!-- Node48&#45;&gt;Node49 -->
<g id="edge3" class="edge">
<title>Node48&#45;&gt;Node49</title>
<path fill="none" stroke="#191970" d="M465.1539,-180.3514C477.4838,-175.5161 490.732,-170.3208 503.4298,-165.3412"/>
<polygon fill="#191970" stroke="#191970" points="504.9764,-168.4943 513.0083,-161.585 502.4207,-161.9775 504.9764,-168.4943"/>
</g>
<!-- Node50&#45;&gt;Node49 -->
<g id="edge5" class="edge">
<title>Node50&#45;&gt;Node49</title>
<path fill="none" stroke="#191970" d="M471.2162,-141C479.5439,-141 488.1693,-141 496.6671,-141"/>
<polygon fill="#191970" stroke="#191970" points="496.9409,-144.5001 506.9409,-141 496.9409,-137.5001 496.9409,-144.5001"/>
</g>
<!-- Node51 -->
<g id="node6" class="node">
<title>Node51</title>
<g id="a_node6"><a xlink:href="namespacesll__m__cubic__splines.html#a3f3f1aa98bfbb8c05458a1eb30941d6d" target="_top" xlink:title="sll_m_cubic_splines\l::compute_spline_1d\l_hermite_aux">
<polygon fill="#ffffff" stroke="#000000" points="507,-60.5 507,-101.5 624,-101.5 624,-60.5 507,-60.5"/>
<text text-anchor="start" x="515" y="-89.5" font-family="Helvetica,sans-Serif" font-size="10.00" fill="#000000">sll_m_cubic_splines</text>
<text text-anchor="start" x="515" y="-78.5" font-family="Helvetica,sans-Serif" font-size="10.00" fill="#000000">::compute_spline_1d</text>
<text text-anchor="middle" x="565.5" y="-67.5" font-family="Helvetica,sans-Serif" font-size="10.00" fill="#000000">_hermite_aux</text>
</a>
</g>
</g>
<!-- Node50&#45;&gt;Node51 -->
<g id="edge6" class="edge">
<title>Node50&#45;&gt;Node51</title>
<path fill="none" stroke="#191970" d="M465.1539,-120.3514C477.4838,-115.5161 490.732,-110.3208 503.4298,-105.3412"/>
<polygon fill="#191970" stroke="#191970" points="504.9764,-108.4943 513.0083,-101.585 502.4207,-101.9775 504.9764,-108.4943"/>
</g>
<!-- Node52&#45;&gt;Node49 -->
<g id="edge9" class="edge">
<title>Node52&#45;&gt;Node49</title>
<path fill="none" stroke="#191970" d="M465.1539,-101.6486C477.4838,-106.4839 490.732,-111.6792 503.4298,-116.6588"/>
<polygon fill="#191970" stroke="#191970" points="502.4207,-120.0225 513.0083,-120.415 504.9764,-113.5057 502.4207,-120.0225"/>
</g>
<!-- Node52&#45;&gt;Node51 -->
<g id="edge8" class="edge">
<title>Node52&#45;&gt;Node51</title>
<path fill="none" stroke="#191970" d="M471.2162,-81C479.5439,-81 488.1693,-81 496.6671,-81"/>
<polygon fill="#191970" stroke="#191970" points="496.9409,-84.5001 506.9409,-81 496.9409,-77.5001 496.9409,-84.5001"/>
</g>
<!-- Node53&#45;&gt;Node51 -->
<g id="edge11" class="edge">
<title>Node53&#45;&gt;Node51</title>
<path fill="none" stroke="#191970" d="M465.1539,-41.6486C477.4838,-46.4839 490.732,-51.6792 503.4298,-56.6588"/>
<polygon fill="#191970" stroke="#191970" points="502.4207,-60.0225 513.0083,-60.415 504.9764,-53.5057 502.4207,-60.0225"/>
</g>
</g>
</svg>
        <g id="navigator" transform="translate(0 0)" fill="#404254">
                <rect fill="#f2f5e9" fill-opacity="0.5" stroke="#606060" stroke-width=".5" x="0" y="0" width="60" height="60"/>
                <use id="zoomplus" xlink:href="#zoomPlus" x="17" y="9" onmousedown="handleZoom(evt,'in')"/>
                <use id="zoomminus" xlink:href="#zoomMin" x="42" y="9" onmousedown="handleZoom(evt,'out')"/>
                <use id="reset" xlink:href="#resetDef" x="30" y="36" onmousedown="handleReset()"/>
                <g id="arrowUp" xlink:href="#dirArrow" transform="translate(30 24)" onmousedown="handlePan(0,-1)">
                  <use xlink:href="#rim" fill="#404040">
                        <set attributeName="fill" to="#808080" begin="arrowUp.mouseover" end="arrowUp.mouseout"/>
                  </use>
                  <path fill="none" stroke="white" stroke-width="1.5" d="M0,-3.0v7 M-2.5,-0.5L0,-3.0L2.5,-0.5"/>
                </g>
                <g id="arrowRight" xlink:href="#dirArrow" transform="rotate(90) translate(36 -43)" onmousedown="handlePan(1,0)">
                  <use xlink:href="#rim" fill="#404040">
                        <set attributeName="fill" to="#808080" begin="arrowRight.mouseover" end="arrowRight.mouseout"/>
                  </use>
                  <path fill="none" stroke="white" stroke-width="1.5" d="M0,-3.0v7 M-2.5,-0.5L0,-3.0L2.5,-0.5"/>
                </g>
                <g id="arrowDown" xlink:href="#dirArrow" transform="rotate(180) translate(-30 -48)" onmousedown="handlePan(0,1)">
                  <use xlink:href="#rim" fill="#404040">
                        <set attributeName="fill" to="#808080" begin="arrowDown.mouseover" end="arrowDown.mouseout"/>
                  </use>
                  <path fill="none" stroke="white" stroke-width="1.5" d="M0,-3.0v7 M-2.5,-0.5L0,-3.0L2.5,-0.5"/>
                </g>
                <g id="arrowLeft" xlink:href="#dirArrow" transform="rotate(270) translate(-36 17)" onmousedown="handlePan(-1,0)">
                  <use xlink:href="#rim" fill="#404040">
                        <set attributeName="fill" to="#808080" begin="arrowLeft.mouseover" end="arrowLeft.mouseout"/>
                  </use>
                  <path fill="none" stroke="white" stroke-width="1.5" d="M0,-3.0v7 M-2.5,-0.5L0,-3.0L2.5,-0.5"/>
                </g>
        </g>
        <svg viewBox="0 0 15 15" width="100%" height="30px" preserveAspectRatio="xMaxYMin meet">
         <g id="arrow_out" transform="scale(0.3 0.3)">
          <a xlink:href="namespacesll__m__cubic__spline__interpolator__2d_af3b769e5f47945e7de14ba1272defea0_cgraph_org.svg" target="_base">
           <rect id="button" ry="5" rx="5" y="6" x="6" height="38" width="38"
                fill="#f2f5e9" fill-opacity="0.5" stroke="#606060" stroke-width="1.0"/>
           <path id="arrow"
             d="M 11.500037,31.436501 C 11.940474,20.09759 22.043105,11.32322 32.158766,21.979434 L 37.068811,17.246167 C 37.068811,17.246167 37.088388,32 37.088388,32 L 22.160133,31.978069 C 22.160133,31.978069 26.997745,27.140456 26.997745,27.140456 C 18.528582,18.264221 13.291696,25.230495 11.500037,31.436501 z"
             style="fill:#404040;"/>
          </a>
         </g>
        </svg>
</svg>
