<?xml version="1.0" encoding="UTF-8" standalone="no"?>
<!DOCTYPE svg PUBLIC "-//W3C//DTD SVG 1.1//EN"
 "http://www.w3.org/Graphics/SVG/1.1/DTD/svg11.dtd">
<!-- Generated by graphviz version 2.40.1 (20161225.0304)
 -->
<!-- Title: sll_s_add_to_csr_matrix Pages: 1 -->
<!--zoomable 194 -->
<svg id="main" version="1.1" xmlns="http://www.w3.org/2000/svg" xmlns:xlink="http://www.w3.org/1999/xlink" xml:space="preserve" onload="init(evt)">
<style type="text/css"><![CDATA[
.edge:hover path { stroke: red; }
.edge:hover polygon { stroke: red; fill: red; }
]]></style>
<script type="text/javascript"><![CDATA[
var edges = document.getElementsByTagName('g');
if (edges && edges.length) {
  for (var i=0;i<edges.length;i++) {
    if (edges[i].id.substr(0,4)=='edge') {
      edges[i].setAttribute('class','edge');
    }
  }
}
]]></script>
        <defs>
                <circle id="rim" cx="0" cy="0" r="7"/>
                <circle id="rim2" cx="0" cy="0" r="3.5"/>
                <g id="zoomPlus">
                        <use xlink:href="#rim" fill="#404040">
                                <set attributeName="fill" to="#808080" begin="zoomplus.mouseover" end="zoomplus.mouseout"/>
                        </use>
                        <path d="M-4,0h8M0,-4v8" fill="none" stroke="white" stroke-width="1.5" pointer-events="none"/>
                </g>
                <g id="zoomMin">
                        <use xlink:href="#rim" fill="#404040">
                                <set attributeName="fill" to="#808080" begin="zoomminus.mouseover" end="zoomminus.mouseout"/>
                        </use>
                        <path d="M-4,0h8" fill="none" stroke="white" stroke-width="1.5" pointer-events="none"/>
                </g>
                <g id="dirArrow">
                        <path fill="none" stroke="white" stroke-width="1.5" d="M0,-3.0v7 M-2.5,-0.5L0,-3.0L2.5,-0.5"/>
                </g>
               <g id="resetDef">
                       <use xlink:href="#rim2" fill="#404040">
                               <set attributeName="fill" to="#808080" begin="reset.mouseover" end="reset.mouseout"/>
                       </use>
               </g>
        </defs>

<script type="text/javascript">
var viewWidth = 536;
var viewHeight = 194;
var sectionId = 'dynsection-8';
</script>
<script xlink:href="svgpan.js"/>
<svg id="graph" class="graph">
<g id="viewport">
<title>sll_s_add_to_csr_matrix</title>
<polygon fill="#ffffff" stroke="transparent" points="-4,4 -4,-190 532,-190 532,4 -4,4"/>
<!-- Node33 -->
<g id="node1" class="node">
<title>Node33</title>
<polygon fill="#bfbfbf" stroke="#000000" points="0,-101.5 0,-120.5 134,-120.5 134,-101.5 0,-101.5"/>
<text text-anchor="middle" x="67" y="-108.5" font-family="Helvetica,sans-Serif" font-size="10.00" fill="#000000">sll_s_add_to_csr_matrix</text>
</g>
<!-- Node34 -->
<g id="node2" class="node">
<title>Node34</title>
<g id="a_node2"><a xlink:href="namespacesll__m__general__coordinate__elliptic__solver__multipatch.html#ad5dcba50d55d23e36b6b7d9fbaae1da9" target="_top" xlink:title="Assemble the matrix for elliptic solver. ">
<polygon fill="#ffffff" stroke="#000000" points="373,-144.5 373,-185.5 528,-185.5 528,-144.5 373,-144.5"/>
<text text-anchor="start" x="381" y="-173.5" font-family="Helvetica,sans-Serif" font-size="10.00" fill="#000000">sll_m_general_coordinate</text>
<text text-anchor="start" x="381" y="-162.5" font-family="Helvetica,sans-Serif" font-size="10.00" fill="#000000">_elliptic_solver_multipatch</text>
<text text-anchor="middle" x="450.5" y="-151.5" font-family="Helvetica,sans-Serif" font-size="10.00" fill="#000000">::sll_s_factorize_mat_es_mp</text>
</a>
</g>
</g>
<!-- Node33&#45;&gt;Node34 -->
<g id="edge1" class="edge">
<title>Node33&#45;&gt;Node34</title>
<path fill="none" stroke="#191970" d="M86.9125,-126.9469C106.6659,-141.664 138.4673,-162.4854 170,-171 236.7753,-189.031 315.7755,-185.2128 372.8933,-178.2366"/>
<polygon fill="#191970" stroke="#191970" points="88.7963,-123.9811 78.7287,-120.6806 84.5407,-129.539 88.7963,-123.9811"/>
</g>
<!-- Node35 -->
<g id="node3" class="node">
<title>Node35</title>
<g id="a_node3"><a xlink:href="namespacesll__m__general__coordinate__elliptic__solver__multipatch.html#aa6645afc75d579c8f56897871f0cce27" target="_top" xlink:title="sll_m_general_coordinate\l_elliptic_solver_multipatch\l::compute_source_matrice_mp">
<polygon fill="#ffffff" stroke="#000000" points="170,-120.5 170,-161.5 337,-161.5 337,-120.5 170,-120.5"/>
<text text-anchor="start" x="178" y="-149.5" font-family="Helvetica,sans-Serif" font-size="10.00" fill="#000000">sll_m_general_coordinate</text>
<text text-anchor="start" x="178" y="-138.5" font-family="Helvetica,sans-Serif" font-size="10.00" fill="#000000">_elliptic_solver_multipatch</text>
<text text-anchor="middle" x="253.5" y="-127.5" font-family="Helvetica,sans-Serif" font-size="10.00" fill="#000000">::compute_source_matrice_mp</text>
</a>
</g>
</g>
<!-- Node33&#45;&gt;Node35 -->
<g id="edge2" class="edge">
<title>Node33&#45;&gt;Node35</title>
<path fill="none" stroke="#191970" d="M136.1877,-122.1294C147.1581,-123.8941 158.6054,-125.7355 169.8638,-127.5465"/>
<polygon fill="#191970" stroke="#191970" points="136.695,-118.6661 126.266,-120.5334 135.5832,-125.5772 136.695,-118.6661"/>
</g>
<!-- Node36 -->
<g id="node4" class="node">
<title>Node36</title>
<g id="a_node4"><a xlink:href="namespacesll__m__general__coordinate__elliptic__solver.html#a4f7fd26755a4faa1a8bdf94ff493eff1" target="_top" xlink:title="Assemble the matrix for elliptic solver. ">
<polygon fill="#ffffff" stroke="#000000" points="182.5,-60.5 182.5,-101.5 324.5,-101.5 324.5,-60.5 182.5,-60.5"/>
<text text-anchor="start" x="190.5" y="-89.5" font-family="Helvetica,sans-Serif" font-size="10.00" fill="#000000">sll_m_general_coordinate</text>
<text text-anchor="start" x="190.5" y="-78.5" font-family="Helvetica,sans-Serif" font-size="10.00" fill="#000000">_elliptic_solver::sll_s</text>
<text text-anchor="middle" x="253.5" y="-67.5" font-family="Helvetica,sans-Serif" font-size="10.00" fill="#000000">_factorize_mat_es</text>
</a>
</g>
</g>
<!-- Node33&#45;&gt;Node36 -->
<g id="edge4" class="edge">
<title>Node33&#45;&gt;Node36</title>
<path fill="none" stroke="#191970" d="M136.4668,-99.8257C151.4333,-97.4182 167.2757,-94.8699 182.3069,-92.452"/>
<polygon fill="#191970" stroke="#191970" points="135.5832,-96.4228 126.266,-101.4666 136.695,-103.3339 135.5832,-96.4228"/>
</g>
<!-- Node37 -->
<g id="node5" class="node">
<title>Node37</title>
<g id="a_node5"><a xlink:href="namespacesll__m__general__coordinate__elliptic__solver.html#a2c7a0e952c10e71709680a8ea4bd548d" target="_top" xlink:title="sll_m_general_coordinate\l_elliptic_solver::sll_s\l_factorize_mat_es_prototype">
<polygon fill="#ffffff" stroke="#000000" points="174.5,-.5 174.5,-41.5 332.5,-41.5 332.5,-.5 174.5,-.5"/>
<text text-anchor="start" x="182.5" y="-29.5" font-family="Helvetica,sans-Serif" font-size="10.00" fill="#000000">sll_m_general_coordinate</text>
<text text-anchor="start" x="182.5" y="-18.5" font-family="Helvetica,sans-Serif" font-size="10.00" fill="#000000">_elliptic_solver::sll_s</text>
<text text-anchor="middle" x="253.5" y="-7.5" font-family="Helvetica,sans-Serif" font-size="10.00" fill="#000000">_factorize_mat_es_prototype</text>
</a>
</g>
</g>
<!-- Node33&#45;&gt;Node37 -->
<g id="edge5" class="edge">
<title>Node33&#45;&gt;Node37</title>
<path fill="none" stroke="#191970" d="M90.1671,-95.8567C110.6223,-82.891 141.5348,-64.2688 170,-51 177.1203,-47.6809 184.7176,-44.4936 192.3192,-41.5174"/>
<polygon fill="#191970" stroke="#191970" points="88.0834,-93.0349 81.551,-101.3763 91.8594,-98.9292 88.0834,-93.0349"/>
</g>
<!-- Node35&#45;&gt;Node34 -->
<g id="edge3" class="edge">
<title>Node35&#45;&gt;Node34</title>
<path fill="none" stroke="#191970" d="M347.0986,-152.4029C355.6952,-153.4502 364.3416,-154.5035 372.7752,-155.531"/>
<polygon fill="#191970" stroke="#191970" points="347.3956,-148.9133 337.0457,-151.1782 346.549,-155.8619 347.3956,-148.9133"/>
</g>
</g>
</svg>
        <g id="navigator" transform="translate(0 0)" fill="#404254">
                <rect fill="#f2f5e9" fill-opacity="0.5" stroke="#606060" stroke-width=".5" x="0" y="0" width="60" height="60"/>
                <use id="zoomplus" xlink:href="#zoomPlus" x="17" y="9" onmousedown="handleZoom(evt,'in')"/>
                <use id="zoomminus" xlink:href="#zoomMin" x="42" y="9" onmousedown="handleZoom(evt,'out')"/>
                <use id="reset" xlink:href="#resetDef" x="30" y="36" onmousedown="handleReset()"/>
                <g id="arrowUp" xlink:href="#dirArrow" transform="translate(30 24)" onmousedown="handlePan(0,-1)">
                  <use xlink:href="#rim" fill="#404040">
                        <set attributeName="fill" to="#808080" begin="arrowUp.mouseover" end="arrowUp.mouseout"/>
                  </use>
                  <path fill="none" stroke="white" stroke-width="1.5" d="M0,-3.0v7 M-2.5,-0.5L0,-3.0L2.5,-0.5"/>
                </g>
                <g id="arrowRight" xlink:href="#dirArrow" transform="rotate(90) translate(36 -43)" onmousedown="handlePan(1,0)">
                  <use xlink:href="#rim" fill="#404040">
                        <set attributeName="fill" to="#808080" begin="arrowRight.mouseover" end="arrowRight.mouseout"/>
                  </use>
                  <path fill="none" stroke="white" stroke-width="1.5" d="M0,-3.0v7 M-2.5,-0.5L0,-3.0L2.5,-0.5"/>
                </g>
                <g id="arrowDown" xlink:href="#dirArrow" transform="rotate(180) translate(-30 -48)" onmousedown="handlePan(0,1)">
                  <use xlink:href="#rim" fill="#404040">
                        <set attributeName="fill" to="#808080" begin="arrowDown.mouseover" end="arrowDown.mouseout"/>
                  </use>
                  <path fill="none" stroke="white" stroke-width="1.5" d="M0,-3.0v7 M-2.5,-0.5L0,-3.0L2.5,-0.5"/>
                </g>
                <g id="arrowLeft" xlink:href="#dirArrow" transform="rotate(270) translate(-36 17)" onmousedown="handlePan(-1,0)">
                  <use xlink:href="#rim" fill="#404040">
                        <set attributeName="fill" to="#808080" begin="arrowLeft.mouseover" end="arrowLeft.mouseout"/>
                  </use>
                  <path fill="none" stroke="white" stroke-width="1.5" d="M0,-3.0v7 M-2.5,-0.5L0,-3.0L2.5,-0.5"/>
                </g>
        </g>
        <svg viewBox="0 0 15 15" width="100%" height="30px" preserveAspectRatio="xMaxYMin meet">
         <g id="arrow_out" transform="scale(0.3 0.3)">
          <a xlink:href="namespacesll__m__sparse__matrix_a086124a863995323abefd9c047954380_icgraph_org.svg" target="_base">
           <rect id="button" ry="5" rx="5" y="6" x="6" height="38" width="38"
                fill="#f2f5e9" fill-opacity="0.5" stroke="#606060" stroke-width="1.0"/>
           <path id="arrow"
             d="M 11.500037,31.436501 C 11.940474,20.09759 22.043105,11.32322 32.158766,21.979434 L 37.068811,17.246167 C 37.068811,17.246167 37.088388,32 37.088388,32 L 22.160133,31.978069 C 22.160133,31.978069 26.997745,27.140456 26.997745,27.140456 C 18.528582,18.264221 13.291696,25.230495 11.500037,31.436501 z"
             style="fill:#404040;"/>
          </a>
         </g>
        </svg>
</svg>
