<?xml version="1.0" encoding="UTF-8" standalone="no"?>
<!DOCTYPE svg PUBLIC "-//W3C//DTD SVG 1.1//EN"
 "http://www.w3.org/Graphics/SVG/1.1/DTD/svg11.dtd">
<!-- Generated by graphviz version 2.43.0 (0)
 -->
<!-- Title: sll_s_spline_fem_mixedmass1d Pages: 1 -->
<svg width="352pt" height="186pt"
 viewBox="0.00 0.00 352.00 186.00" xmlns="http://www.w3.org/2000/svg" xmlns:xlink="http://www.w3.org/1999/xlink">
<g id="graph0" class="graph" transform="scale(1 1) rotate(0) translate(4 182)">
<title>sll_s_spline_fem_mixedmass1d</title>
<polygon fill="white" stroke="transparent" points="-4,4 -4,-182 348,-182 348,4 -4,4"/>
<!-- Node1 -->
<g id="node1" class="node">
<title>Node1</title>
<g id="a_node1"><a xlink:title=" ">
<polygon fill="#bfbfbf" stroke="black" points="173,-79 173,-98 344,-98 344,-79 173,-79"/>
<text text-anchor="middle" x="258.5" y="-86" font-family="Helvetica,sans-Serif" font-size="10.00">sll_s_spline_fem_mixedmass1d</text>
</a>
</g>
</g>
<!-- Node2 -->
<g id="node2" class="node">
<title>Node2</title>
<g id="a_node2"><a xlink:href="namespacesll__m__maxwell__1d__fem.html#a5b82c557e498ae59986631d0aea7ed63" target="_top" xlink:title=" ">
<polygon fill="white" stroke="black" points="2.5,-147.5 2.5,-177.5 134.5,-177.5 134.5,-147.5 2.5,-147.5"/>
<text text-anchor="start" x="10.5" y="-165.5" font-family="Helvetica,sans-Serif" font-size="10.00">sll_m_maxwell_1d_fem</text>
<text text-anchor="middle" x="68.5" y="-154.5" font-family="Helvetica,sans-Serif" font-size="10.00">::init_1d_fem</text>
</a>
</g>
</g>
<!-- Node1&#45;&gt;Node2 -->
<g id="edge1" class="edge">
<title>Node1&#45;&gt;Node2</title>
<path fill="none" stroke="midnightblue" d="M226.04,-102.08C201.83,-112.4 167.47,-126.77 137,-138.5 129.22,-141.49 120.89,-144.56 112.83,-147.47"/>
<polygon fill="midnightblue" stroke="midnightblue" points="227.61,-105.21 235.43,-98.06 224.86,-98.78 227.61,-105.21"/>
</g>
<!-- Node3 -->
<g id="node3" class="node">
<title>Node3</title>
<g id="a_node3"><a xlink:href="namespacesll__m__maxwell__1d__fem__sm.html#a45e52ba17b5b5af73732917939909d67" target="_top" xlink:title="Initialization.">
<polygon fill="white" stroke="black" points="2.5,-98.5 2.5,-128.5 134.5,-128.5 134.5,-98.5 2.5,-98.5"/>
<text text-anchor="start" x="10.5" y="-116.5" font-family="Helvetica,sans-Serif" font-size="10.00">sll_m_maxwell_1d_fem</text>
<text text-anchor="middle" x="68.5" y="-105.5" font-family="Helvetica,sans-Serif" font-size="10.00">_sm::init_1d_fem_sm</text>
</a>
</g>
</g>
<!-- Node1&#45;&gt;Node3 -->
<g id="edge2" class="edge">
<title>Node1&#45;&gt;Node3</title>
<path fill="none" stroke="midnightblue" d="M175.94,-99.35C162.17,-101.18 148.03,-103.06 134.74,-104.82"/>
<polygon fill="midnightblue" stroke="midnightblue" points="176.44,-102.81 185.89,-98.02 175.51,-95.87 176.44,-102.81"/>
</g>
<!-- Node4 -->
<g id="node4" class="node">
<title>Node4</title>
<g id="a_node4"><a xlink:href="namespacesll__m__maxwell__clamped__3d__fem.html#afadba212d3f01a688b12c751068d1707" target="_top" xlink:title="Initialization.">
<polygon fill="white" stroke="black" points="0,-49.5 0,-79.5 137,-79.5 137,-49.5 0,-49.5"/>
<text text-anchor="start" x="8" y="-67.5" font-family="Helvetica,sans-Serif" font-size="10.00">sll_m_maxwell_clamped</text>
<text text-anchor="middle" x="68.5" y="-56.5" font-family="Helvetica,sans-Serif" font-size="10.00">_3d_fem::init_3d_fem</text>
</a>
</g>
</g>
<!-- Node1&#45;&gt;Node4 -->
<g id="edge3" class="edge">
<title>Node1&#45;&gt;Node4</title>
<path fill="none" stroke="midnightblue" d="M172.95,-77.71C161,-76.18 148.85,-74.63 137.27,-73.15"/>
<polygon fill="midnightblue" stroke="midnightblue" points="172.56,-81.19 182.93,-78.98 173.45,-74.24 172.56,-81.19"/>
</g>
<!-- Node5 -->
<g id="node5" class="node">
<title>Node5</title>
<g id="a_node5"><a xlink:href="namespacesll__m__maxwell__3d__fem.html#ab814bfc0f843c1a2b8fe485351798ca0" target="_top" xlink:title="Initialization.">
<polygon fill="white" stroke="black" points="2.5,-0.5 2.5,-30.5 134.5,-30.5 134.5,-0.5 2.5,-0.5"/>
<text text-anchor="start" x="10.5" y="-18.5" font-family="Helvetica,sans-Serif" font-size="10.00">sll_m_maxwell_3d_fem</text>
<text text-anchor="middle" x="68.5" y="-7.5" font-family="Helvetica,sans-Serif" font-size="10.00">::init_3d_fem</text>
</a>
</g>
</g>
<!-- Node1&#45;&gt;Node5 -->
<g id="edge4" class="edge">
<title>Node1&#45;&gt;Node5</title>
<path fill="none" stroke="midnightblue" d="M224.6,-75.14C200.42,-65.39 166.74,-51.93 137,-40.5 128.48,-37.23 119.34,-33.79 110.61,-30.54"/>
<polygon fill="midnightblue" stroke="midnightblue" points="223.43,-78.45 234.01,-78.95 226.05,-71.96 223.43,-78.45"/>
</g>
</g>
</svg>
