<?xml version="1.0" encoding="UTF-8" standalone="no"?>
<!DOCTYPE svg PUBLIC "-//W3C//DTD SVG 1.1//EN"
 "http://www.w3.org/Graphics/SVG/1.1/DTD/svg11.dtd">
<!-- Generated by graphviz version 2.40.1 (20161225.0304)
 -->
<!-- Title: hierarchical_stripe Pages: 1 -->
<svg width="577pt" height="39pt"
 viewBox="0.00 0.00 577.00 39.00" xmlns="http://www.w3.org/2000/svg" xmlns:xlink="http://www.w3.org/1999/xlink">
<g id="graph0" class="graph" transform="scale(1 1) rotate(0) translate(4 35)">
<title>hierarchical_stripe</title>
<polygon fill="#ffffff" stroke="transparent" points="-4,4 -4,-35 573,-35 573,4 -4,4"/>
<!-- Node193 -->
<g id="node1" class="node">
<title>Node193</title>
<polygon fill="#bfbfbf" stroke="#000000" points="0,-6 0,-25 107,-25 107,-6 0,-6"/>
<text text-anchor="middle" x="53.5" y="-13" font-family="Helvetica,sans-Serif" font-size="10.00" fill="#000000">hierarchical_stripe</text>
</g>
<!-- Node194 -->
<g id="node2" class="node">
<title>Node194</title>
<g id="a_node2"><a xlink:href="namespacesll__m__sparse__grid__interpolator.html#abde63630cfb91242fb29f6d8919a9ef8" target="_top" xlink:title="interpolate_disp_1d\l_periodic">
<polygon fill="#ffffff" stroke="#000000" points="143,-.5 143,-30.5 256,-30.5 256,-.5 143,-.5"/>
<text text-anchor="start" x="151" y="-18.5" font-family="Helvetica,sans-Serif" font-size="10.00" fill="#000000">interpolate_disp_1d</text>
<text text-anchor="middle" x="199.5" y="-7.5" font-family="Helvetica,sans-Serif" font-size="10.00" fill="#000000">_periodic</text>
</a>
</g>
</g>
<!-- Node193&#45;&gt;Node194 -->
<g id="edge1" class="edge">
<title>Node193&#45;&gt;Node194</title>
<path fill="none" stroke="#191970" d="M117.2027,-15.5C125.6312,-15.5 134.2279,-15.5 142.5332,-15.5"/>
<polygon fill="#191970" stroke="#191970" points="117.036,-12.0001 107.036,-15.5 117.0359,-19.0001 117.036,-12.0001"/>
</g>
<!-- Node195 -->
<g id="node3" class="node">
<title>Node195</title>
<g id="a_node3"><a xlink:href="namespacesll__m__sparse__grid__interpolator.html#a27497afcda9d0024745a848b26449a4d" target="_top" xlink:title="interpolate_disp_recursive">
<polygon fill="#ffffff" stroke="#000000" points="292,-6 292,-25 438,-25 438,-6 292,-6"/>
<text text-anchor="middle" x="365" y="-13" font-family="Helvetica,sans-Serif" font-size="10.00" fill="#000000">interpolate_disp_recursive</text>
</a>
</g>
</g>
<!-- Node194&#45;&gt;Node195 -->
<g id="edge2" class="edge">
<title>Node194&#45;&gt;Node195</title>
<path fill="none" stroke="#191970" d="M266.5061,-15.5C274.8556,-15.5 283.4271,-15.5 291.8635,-15.5"/>
<polygon fill="#191970" stroke="#191970" points="266.4557,-12.0001 256.4557,-15.5 266.4557,-19.0001 266.4557,-12.0001"/>
</g>
<!-- Node196 -->
<g id="node4" class="node">
<title>Node196</title>
<g id="a_node4"><a xlink:href="namespacesll__m__sparse__grid__interpolator.html#ada6560fddb123d6ef7b00b5397918de2" target="_top" xlink:title="interpolate_disp">
<polygon fill="#ffffff" stroke="#000000" points="474,-6 474,-25 569,-25 569,-6 474,-6"/>
<text text-anchor="middle" x="521.5" y="-13" font-family="Helvetica,sans-Serif" font-size="10.00" fill="#000000">interpolate_disp</text>
</a>
</g>
</g>
<!-- Node195&#45;&gt;Node196 -->
<g id="edge3" class="edge">
<title>Node195&#45;&gt;Node196</title>
<path fill="none" stroke="#191970" d="M448.4246,-15.5C457.1149,-15.5 465.7196,-15.5 473.8076,-15.5"/>
<polygon fill="#191970" stroke="#191970" points="448.2097,-12.0001 438.2096,-15.5 448.2096,-19.0001 448.2097,-12.0001"/>
</g>
</g>
</svg>
