<?xml version="1.0" encoding="UTF-8" standalone="no"?>
<!DOCTYPE svg PUBLIC "-//W3C//DTD SVG 1.1//EN"
 "http://www.w3.org/Graphics/SVG/1.1/DTD/svg11.dtd">
<!-- Generated by graphviz version 2.38.0 (20140413.2041)
 -->
<!-- Title: read_from_file_2d_nurbs Pages: 1 -->
<svg width="453pt" height="99pt"
 viewBox="0.00 0.00 453.00 98.50" xmlns="http://www.w3.org/2000/svg" xmlns:xlink="http://www.w3.org/1999/xlink">
<g id="graph0" class="graph" transform="scale(1 1) rotate(0) translate(4 94.5)">
<title>read_from_file_2d_nurbs</title>
<polygon fill="white" stroke="none" points="-4,4 -4,-94.5 449,-94.5 449,4 -4,4"/>
<!-- Node1 -->
<g id="node1" class="node"><title>Node1</title>
<polygon fill="#bfbfbf" stroke="black" points="0,-38.5 0,-57.5 123,-57.5 123,-38.5 0,-38.5"/>
<text text-anchor="middle" x="61.5" y="-45.5" font-family="Helvetica,sans-Serif" font-size="10.00">read_from_file_2d_nurbs</text>
</g>
<!-- Node2 -->
<g id="node2" class="node"><title>Node2</title>
<g id="a_node2"><a xlink:href="namespacesll__m__utilities.html#afa513cebb464773e58d9364a6e231924" target="_top" xlink:title="Get a file unit number free before creating a file. ">
<polygon fill="white" stroke="black" points="175.5,-60 175.5,-90 267.5,-90 267.5,-60 175.5,-60"/>
<text text-anchor="start" x="183.5" y="-78" font-family="Helvetica,sans-Serif" font-size="10.00">sll_m_utilities::sll</text>
<text text-anchor="middle" x="221.5" y="-67" font-family="Helvetica,sans-Serif" font-size="10.00">_s_new_file_id</text>
</a>
</g>
</g>
<!-- Node1&#45;&gt;Node2 -->
<g id="edge1" class="edge"><title>Node1&#45;&gt;Node2</title>
<path fill="none" stroke="midnightblue" d="M118.205,-57.5192C133.436,-60.122 149.937,-62.9417 165.149,-65.5412"/>
<polygon fill="midnightblue" stroke="midnightblue" points="164.996,-69.0658 175.442,-67.3003 166.175,-62.1658 164.996,-69.0658"/>
</g>
<!-- Node3 -->
<g id="node3" class="node"><title>Node3</title>
<g id="a_node3"><a xlink:href="namespacesll__m__cartesian__meshes.html#a47fb939f257f84c12cc40b86a9d0fe11" target="_top" xlink:title="allocates the memory space for a new 2D cartesian mesh on the heap, initializes it with the given arg...">
<polygon fill="white" stroke="black" points="159,-0.5 159,-41.5 284,-41.5 284,-0.5 159,-0.5"/>
<text text-anchor="start" x="167" y="-29.5" font-family="Helvetica,sans-Serif" font-size="10.00">sll_m_cartesian_meshes</text>
<text text-anchor="start" x="167" y="-18.5" font-family="Helvetica,sans-Serif" font-size="10.00">::sll_f_new_cartesian</text>
<text text-anchor="middle" x="221.5" y="-7.5" font-family="Helvetica,sans-Serif" font-size="10.00">_mesh_2d</text>
</a>
</g>
</g>
<!-- Node1&#45;&gt;Node3 -->
<g id="edge2" class="edge"><title>Node1&#45;&gt;Node3</title>
<path fill="none" stroke="midnightblue" d="M118.205,-38.4808C128.067,-36.7955 138.461,-35.0194 148.692,-33.271"/>
<polygon fill="midnightblue" stroke="midnightblue" points="149.576,-36.6707 158.844,-31.5362 148.397,-29.7707 149.576,-36.6707"/>
</g>
<!-- Node4 -->
<g id="node4" class="node"><title>Node4</title>
<g id="a_node4"><a xlink:href="namespacesll__m__cartesian__meshes.html#ab2d0d888cbfa10e6b2a37a5bcf427ef3" target="_top" xlink:title="initializes a cartesian mesh 2D object that has been already allocated. ">
<polygon fill="white" stroke="black" points="320,-0.5 320,-41.5 445,-41.5 445,-0.5 320,-0.5"/>
<text text-anchor="start" x="328" y="-29.5" font-family="Helvetica,sans-Serif" font-size="10.00">sll_m_cartesian_meshes</text>
<text text-anchor="start" x="328" y="-18.5" font-family="Helvetica,sans-Serif" font-size="10.00">::sll_s_cartesian_mesh</text>
<text text-anchor="middle" x="382.5" y="-7.5" font-family="Helvetica,sans-Serif" font-size="10.00">_2d_init</text>
</a>
</g>
</g>
<!-- Node3&#45;&gt;Node4 -->
<g id="edge3" class="edge"><title>Node3&#45;&gt;Node4</title>
<path fill="none" stroke="midnightblue" d="M284.429,-21C292.674,-21 301.184,-21 309.58,-21"/>
<polygon fill="midnightblue" stroke="midnightblue" points="309.74,-24.5001 319.74,-21 309.74,-17.5001 309.74,-24.5001"/>
</g>
</g>
</svg>
