<?xml version="1.0" encoding="UTF-8" standalone="no"?>
<!DOCTYPE svg PUBLIC "-//W3C//DTD SVG 1.1//EN"
 "http://www.w3.org/Graphics/SVG/1.1/DTD/svg11.dtd">
<!-- Generated by graphviz version 2.43.0 (0)
 -->
<!-- Title: sll_s_compute_electric_field Pages: 1 -->
<svg width="299pt" height="39pt"
 viewBox="0.00 0.00 299.00 39.00" xmlns="http://www.w3.org/2000/svg" xmlns:xlink="http://www.w3.org/1999/xlink">
<g id="graph0" class="graph" transform="scale(1 1) rotate(0) translate(4 35)">
<title>sll_s_compute_electric_field</title>
<polygon fill="white" stroke="transparent" points="-4,4 -4,-35 295,-35 295,4 -4,4"/>
<!-- Node1 -->
<g id="node1" class="node">
<title>Node1</title>
<g id="a_node1"><a xlink:title=" ">
<polygon fill="#bfbfbf" stroke="black" points="0,-0.5 0,-30.5 128,-30.5 128,-0.5 0,-0.5"/>
<text text-anchor="start" x="8" y="-18.5" font-family="Helvetica,sans-Serif" font-size="10.00">sll_s_compute_electric</text>
<text text-anchor="middle" x="64" y="-7.5" font-family="Helvetica,sans-Serif" font-size="10.00">_field</text>
</a>
</g>
</g>
<!-- Node2 -->
<g id="node2" class="node">
<title>Node2</title>
<g id="a_node2"><a xlink:href="namespacesll__m__lobalap.html#ae1abc937c80845119fe8339415a7263f" target="_top" xlink:title=" ">
<polygon fill="white" stroke="black" points="164,-6 164,-25 214,-25 214,-6 164,-6"/>
<text text-anchor="middle" x="189" y="-13" font-family="Helvetica,sans-Serif" font-size="10.00">gradpg</text>
</a>
</g>
</g>
<!-- Node1&#45;&gt;Node2 -->
<g id="edge1" class="edge">
<title>Node1&#45;&gt;Node2</title>
<path fill="none" stroke="midnightblue" d="M128.3,-15.5C137.14,-15.5 145.93,-15.5 153.94,-15.5"/>
<polygon fill="midnightblue" stroke="midnightblue" points="153.96,-19 163.96,-15.5 153.96,-12 153.96,-19"/>
</g>
<!-- Node3 -->
<g id="node3" class="node">
<title>Node3</title>
<g id="a_node3"><a xlink:href="namespacesll__m__lobalap.html#a4d7c3e5f280a8db5cdd1c1aa0bc20b52" target="_top" xlink:title=" ">
<polygon fill="white" stroke="black" points="250,-6 250,-25 291,-25 291,-6 250,-6"/>
<text text-anchor="middle" x="270.5" y="-13" font-family="Helvetica,sans-Serif" font-size="10.00">delta</text>
</a>
</g>
</g>
<!-- Node2&#45;&gt;Node3 -->
<g id="edge2" class="edge">
<title>Node2&#45;&gt;Node3</title>
<path fill="none" stroke="midnightblue" d="M214.28,-15.5C222.31,-15.5 231.33,-15.5 239.72,-15.5"/>
<polygon fill="midnightblue" stroke="midnightblue" points="239.89,-19 249.89,-15.5 239.89,-12 239.89,-19"/>
</g>
</g>
</svg>
