<?xml version="1.0" encoding="UTF-8" standalone="no"?>
<!DOCTYPE svg PUBLIC "-//W3C//DTD SVG 1.1//EN"
 "http://www.w3.org/Graphics/SVG/1.1/DTD/svg11.dtd">
<!-- Generated by graphviz version 2.40.1 (20161225.0304)
 -->
<!-- Title: initialize_scalar_field_sfmp2d Pages: 1 -->
<svg width="511pt" height="61pt"
 viewBox="0.00 0.00 511.00 61.00" xmlns="http://www.w3.org/2000/svg" xmlns:xlink="http://www.w3.org/1999/xlink">
<g id="graph0" class="graph" transform="scale(1 1) rotate(0) translate(4 57)">
<title>initialize_scalar_field_sfmp2d</title>
<polygon fill="#ffffff" stroke="transparent" points="-4,4 -4,-57 507,-57 507,4 -4,4"/>
<!-- Node27 -->
<g id="node1" class="node">
<title>Node27</title>
<polygon fill="#bfbfbf" stroke="#000000" points="0,-11.5 0,-41.5 119,-41.5 119,-11.5 0,-11.5"/>
<text text-anchor="start" x="8" y="-29.5" font-family="Helvetica,sans-Serif" font-size="10.00" fill="#000000">initialize_scalar_field</text>
<text text-anchor="middle" x="59.5" y="-18.5" font-family="Helvetica,sans-Serif" font-size="10.00" fill="#000000">_sfmp2d</text>
</g>
<!-- Node28 -->
<g id="node2" class="node">
<title>Node28</title>
<g id="a_node2"><a xlink:href="namespacesll__m__arbitrary__degree__spline__interpolator__2d.html#a94723d635bdbaad8fb8fd863b4b7bd07" target="_top" xlink:title="Initialization of a pointer interpolator arbitrary degree splines 2d. ">
<polygon fill="#ffffff" stroke="#000000" points="155,-.5 155,-52.5 310,-52.5 310,-.5 155,-.5"/>
<text text-anchor="start" x="163" y="-40.5" font-family="Helvetica,sans-Serif" font-size="10.00" fill="#000000">sll_m_arbitrary_degree</text>
<text text-anchor="start" x="163" y="-29.5" font-family="Helvetica,sans-Serif" font-size="10.00" fill="#000000">_spline_interpolator_2d</text>
<text text-anchor="start" x="163" y="-18.5" font-family="Helvetica,sans-Serif" font-size="10.00" fill="#000000">::sll_f_new_arbitrary_degree</text>
<text text-anchor="middle" x="232.5" y="-7.5" font-family="Helvetica,sans-Serif" font-size="10.00" fill="#000000">_spline_interp2d</text>
</a>
</g>
</g>
<!-- Node27&#45;&gt;Node28 -->
<g id="edge1" class="edge">
<title>Node27&#45;&gt;Node28</title>
<path fill="none" stroke="#191970" d="M119.0368,-26.5C127.3263,-26.5 135.983,-26.5 144.6576,-26.5"/>
<polygon fill="#191970" stroke="#191970" points="144.8283,-30.0001 154.8282,-26.5 144.8282,-23.0001 144.8283,-30.0001"/>
</g>
<!-- Node29 -->
<g id="node3" class="node">
<title>Node29</title>
<g id="a_node3"><a xlink:href="namespacesll__m__arbitrary__degree__spline__interpolator__2d.html#a994776d04ed7b9ec4faa194f04da5eec" target="_top" xlink:title="Initialization of an interpolator arbitrary degree splines 2d. The parameters are. ">
<polygon fill="#ffffff" stroke="#000000" points="346,-6 346,-47 503,-47 503,-6 346,-6"/>
<text text-anchor="start" x="354" y="-35" font-family="Helvetica,sans-Serif" font-size="10.00" fill="#000000">sll_m_arbitrary_degree</text>
<text text-anchor="start" x="354" y="-24" font-family="Helvetica,sans-Serif" font-size="10.00" fill="#000000">_spline_interpolator_2d</text>
<text text-anchor="middle" x="424.5" y="-13" font-family="Helvetica,sans-Serif" font-size="10.00" fill="#000000">::sll_s_ad2d_interpolator_init</text>
</a>
</g>
</g>
<!-- Node28&#45;&gt;Node29 -->
<g id="edge2" class="edge">
<title>Node28&#45;&gt;Node29</title>
<path fill="none" stroke="#191970" d="M310.0403,-26.5C318.4933,-26.5 327.1446,-26.5 335.7188,-26.5"/>
<polygon fill="#191970" stroke="#191970" points="335.7321,-30.0001 345.7321,-26.5 335.7321,-23.0001 335.7321,-30.0001"/>
</g>
</g>
</svg>
