<?xml version="1.0" encoding="UTF-8" standalone="no"?>
<!DOCTYPE svg PUBLIC "-//W3C//DTD SVG 1.1//EN"
 "http://www.w3.org/Graphics/SVG/1.1/DTD/svg11.dtd">
<!-- Generated by graphviz version 2.38.0 (20140413.2041)
 -->
<!-- Title: compute_b_spline_at_x Pages: 1 -->
<!--zoomable 154 -->
<svg id="main" version="1.1" xmlns="http://www.w3.org/2000/svg" xmlns:xlink="http://www.w3.org/1999/xlink" xml:space="preserve" onload="init(evt)">
<style type="text/css"><![CDATA[
.edge:hover path { stroke: red; }
.edge:hover polygon { stroke: red; fill: red; }
]]></style>
<script type="text/javascript"><![CDATA[
var edges = document.getElementsByTagName('g');
if (edges && edges.length) {
  for (var i=0;i<edges.length;i++) {
    if (edges[i].id.substr(0,4)=='edge') {
      edges[i].setAttribute('class','edge');
    }
  }
}
]]></script>
        <defs>
                <circle id="rim" cx="0" cy="0" r="7"/>
                <circle id="rim2" cx="0" cy="0" r="3.5"/>
                <g id="zoomPlus">
                        <use xlink:href="#rim" fill="#404040">
                                <set attributeName="fill" to="#808080" begin="zoomplus.mouseover" end="zoomplus.mouseout"/>
                        </use>
                        <path d="M-4,0h8M0,-4v8" fill="none" stroke="white" stroke-width="1.5" pointer-events="none"/>
                </g>
                <g id="zoomMin">
                        <use xlink:href="#rim" fill="#404040">
                                <set attributeName="fill" to="#808080" begin="zoomminus.mouseover" end="zoomminus.mouseout"/>
                        </use>
                        <path d="M-4,0h8" fill="none" stroke="white" stroke-width="1.5" pointer-events="none"/>
                </g>
                <g id="dirArrow">
                        <path fill="none" stroke="white" stroke-width="1.5" d="M0,-3.0v7 M-2.5,-0.5L0,-3.0L2.5,-0.5"/>
                </g>
               <g id="resetDef">
                       <use xlink:href="#rim2" fill="#404040">
                               <set attributeName="fill" to="#808080" begin="reset.mouseover" end="reset.mouseout"/>
                       </use>
               </g>
        </defs>

<script type="text/javascript">
var viewWidth = 574;
var viewHeight = 154;
var sectionId = 'dynsection-3';
</script>
<script xlink:href="svgpan.js"/>
<svg id="graph" class="graph">
<g id="viewport">
<title>compute_b_spline_at_x</title>
<polygon fill="white" stroke="none" points="-4,4 -4,-149.5 570,-149.5 570,4 -4,4"/>
<!-- Node1 -->
<g id="node1" class="node"><title>Node1</title>
<polygon fill="#bfbfbf" stroke="black" points="0,-55 0,-74 119,-74 119,-55 0,-55"/>
<text text-anchor="middle" x="59.5" y="-62" font-family="Helvetica,sans-Serif" font-size="10.00">compute_b_spline_at_x</text>
</g>
<!-- Node2 -->
<g id="node2" class="node"><title>Node2</title>
<g id="a_node2"><a xlink:href="namespacesll__m__general__coordinate__elliptic__solver.html#ad3cd8986caf344e128bfc0894c2d68b9" target="_top" xlink:title="compute_local_to_global\l_splines_indices_from\l_bc_indices">
<polygon fill="white" stroke="black" points="162,-104 162,-145 286,-145 286,-104 162,-104"/>
<text text-anchor="start" x="170" y="-133" font-family="Helvetica,sans-Serif" font-size="10.00">compute_local_to_global</text>
<text text-anchor="start" x="170" y="-122" font-family="Helvetica,sans-Serif" font-size="10.00">_splines_indices_from</text>
<text text-anchor="middle" x="224" y="-111" font-family="Helvetica,sans-Serif" font-size="10.00">_bc_indices</text>
</a>
</g>
</g>
<!-- Node1&#45;&gt;Node2 -->
<g id="edge1" class="edge"><title>Node1&#45;&gt;Node2</title>
<path fill="none" stroke="midnightblue" d="M95.7009,-77.4972C116.638,-85.228 143.667,-95.2078 167.429,-103.982"/>
<polygon fill="midnightblue" stroke="midnightblue" points="96.8419,-74.1876 86.2486,-74.0072 94.4172,-80.7543 96.8419,-74.1876"/>
</g>
<!-- Node4 -->
<g id="node4" class="node"><title>Node4</title>
<g id="a_node4"><a xlink:href="namespacesll__m__general__coordinate__elliptic__solver.html#a0ce6a0461db99993037089fbea818c46" target="_top" xlink:title="sll_s_solve_general\l_coordinates_elliptic\l_eq_prototype">
<polygon fill="white" stroke="black" points="171.5,-44 171.5,-85 276.5,-85 276.5,-44 171.5,-44"/>
<text text-anchor="start" x="179.5" y="-73" font-family="Helvetica,sans-Serif" font-size="10.00">sll_s_solve_general</text>
<text text-anchor="start" x="179.5" y="-62" font-family="Helvetica,sans-Serif" font-size="10.00">_coordinates_elliptic</text>
<text text-anchor="middle" x="224" y="-51" font-family="Helvetica,sans-Serif" font-size="10.00">_eq_prototype</text>
</a>
</g>
</g>
<!-- Node1&#45;&gt;Node4 -->
<g id="edge3" class="edge"><title>Node1&#45;&gt;Node4</title>
<path fill="none" stroke="midnightblue" d="M129.321,-64.5C143.426,-64.5 158.043,-64.5 171.417,-64.5"/>
<polygon fill="midnightblue" stroke="midnightblue" points="129.166,-61.0001 119.166,-64.5 129.166,-68.0001 129.166,-61.0001"/>
</g>
<!-- Node5 -->
<g id="node5" class="node"><title>Node5</title>
<g id="a_node5"><a xlink:href="namespacesll__m__general__coordinate__elliptic__solver.html#af5e8d40d1650bab4953a450f4696a5f1" target="_top" xlink:title="compute_total_num_splines">
<polygon fill="white" stroke="black" points="155,-6 155,-25 293,-25 293,-6 155,-6"/>
<text text-anchor="middle" x="224" y="-13" font-family="Helvetica,sans-Serif" font-size="10.00">compute_total_num_splines</text>
</a>
</g>
</g>
<!-- Node1&#45;&gt;Node5 -->
<g id="edge4" class="edge"><title>Node1&#45;&gt;Node5</title>
<path fill="none" stroke="midnightblue" d="M99.4036,-51.813C116.427,-46.3485 136.661,-39.9711 155,-34.5 165.689,-31.3111 177.371,-27.9885 187.99,-25.0302"/>
<polygon fill="midnightblue" stroke="midnightblue" points="98.2341,-48.5125 89.7897,-54.9111 100.381,-55.1751 98.2341,-48.5125"/>
</g>
<!-- Node3 -->
<g id="node3" class="node"><title>Node3</title>
<g id="a_node3"><a xlink:href="namespacesll__m__general__coordinate__elliptic__solver.html#a4eb2859ab5b79961c18f78bbe6e87404" target="_top" xlink:title="initconnectivity">
<polygon fill="white" stroke="black" points="344,-115 344,-134 426,-134 426,-115 344,-115"/>
<text text-anchor="middle" x="385" y="-122" font-family="Helvetica,sans-Serif" font-size="10.00">initconnectivity</text>
</a>
</g>
</g>
<!-- Node2&#45;&gt;Node3 -->
<g id="edge2" class="edge"><title>Node2&#45;&gt;Node3</title>
<path fill="none" stroke="midnightblue" d="M296.064,-124.5C312.337,-124.5 329.086,-124.5 343.543,-124.5"/>
<polygon fill="midnightblue" stroke="midnightblue" points="296.019,-121 286.019,-124.5 296.019,-128 296.019,-121"/>
</g>
<!-- Node6 -->
<g id="node6" class="node"><title>Node6</title>
<g id="a_node6"><a xlink:href="namespacesll__m__general__coordinate__elliptic__solver.html#a1530444505e15898adb13de4fd54458c" target="_top" xlink:title="sll_s_general_elliptic\l_solver_prototype_init">
<polygon fill="white" stroke="black" points="329,-0.5 329,-30.5 441,-30.5 441,-0.5 329,-0.5"/>
<text text-anchor="start" x="337" y="-18.5" font-family="Helvetica,sans-Serif" font-size="10.00">sll_s_general_elliptic</text>
<text text-anchor="middle" x="385" y="-7.5" font-family="Helvetica,sans-Serif" font-size="10.00">_solver_prototype_init</text>
</a>
</g>
</g>
<!-- Node5&#45;&gt;Node6 -->
<g id="edge5" class="edge"><title>Node5&#45;&gt;Node6</title>
<path fill="none" stroke="midnightblue" d="M303.63,-15.5C312.081,-15.5 320.545,-15.5 328.641,-15.5"/>
<polygon fill="midnightblue" stroke="midnightblue" points="303.353,-12.0001 293.353,-15.5 303.353,-19.0001 303.353,-12.0001"/>
</g>
<!-- Node7 -->
<g id="node7" class="node"><title>Node7</title>
<g id="a_node7"><a xlink:href="namespacesll__m__general__coordinate__elliptic__solver.html#a6a5dd9c906ada7725f3e185423b28f82" target="_top" xlink:title="Initialization for elliptic solver. ">
<polygon fill="white" stroke="black" points="477,-0.5 477,-30.5 566,-30.5 566,-0.5 477,-0.5"/>
<text text-anchor="start" x="485" y="-18.5" font-family="Helvetica,sans-Serif" font-size="10.00">initialize_general</text>
<text text-anchor="middle" x="521.5" y="-7.5" font-family="Helvetica,sans-Serif" font-size="10.00">_elliptic_solver</text>
</a>
</g>
</g>
<!-- Node6&#45;&gt;Node7 -->
<g id="edge6" class="edge"><title>Node6&#45;&gt;Node7</title>
<path fill="none" stroke="midnightblue" d="M451.223,-15.5C459.898,-15.5 468.618,-15.5 476.806,-15.5"/>
<polygon fill="midnightblue" stroke="midnightblue" points="451.094,-12.0001 441.094,-15.5 451.094,-19.0001 451.094,-12.0001"/>
</g>
</g>
</svg>
        <g id="navigator" transform="translate(0 0)" fill="#404254">
                <rect fill="#f2f5e9" fill-opacity="0.5" stroke="#606060" stroke-width=".5" x="0" y="0" width="60" height="60"/>
                <use id="zoomplus" xlink:href="#zoomPlus" x="17" y="9" onmousedown="handleZoom(evt,'in')"/>
                <use id="zoomminus" xlink:href="#zoomMin" x="42" y="9" onmousedown="handleZoom(evt,'out')"/>
                <use id="reset" xlink:href="#resetDef" x="30" y="36" onmousedown="handleReset()"/>
                <g id="arrowUp" xlink:href="#dirArrow" transform="translate(30 24)" onmousedown="handlePan(0,-1)">
                  <use xlink:href="#rim" fill="#404040">
                        <set attributeName="fill" to="#808080" begin="arrowUp.mouseover" end="arrowUp.mouseout"/>
                  </use>
                  <path fill="none" stroke="white" stroke-width="1.5" d="M0,-3.0v7 M-2.5,-0.5L0,-3.0L2.5,-0.5"/>
                </g>
                <g id="arrowRight" xlink:href="#dirArrow" transform="rotate(90) translate(36 -43)" onmousedown="handlePan(1,0)">
                  <use xlink:href="#rim" fill="#404040">
                        <set attributeName="fill" to="#808080" begin="arrowRight.mouseover" end="arrowRight.mouseout"/>
                  </use>
                  <path fill="none" stroke="white" stroke-width="1.5" d="M0,-3.0v7 M-2.5,-0.5L0,-3.0L2.5,-0.5"/>
                </g>
                <g id="arrowDown" xlink:href="#dirArrow" transform="rotate(180) translate(-30 -48)" onmousedown="handlePan(0,1)">
                  <use xlink:href="#rim" fill="#404040">
                        <set attributeName="fill" to="#808080" begin="arrowDown.mouseover" end="arrowDown.mouseout"/>
                  </use>
                  <path fill="none" stroke="white" stroke-width="1.5" d="M0,-3.0v7 M-2.5,-0.5L0,-3.0L2.5,-0.5"/>
                </g>
                <g id="arrowLeft" xlink:href="#dirArrow" transform="rotate(270) translate(-36 17)" onmousedown="handlePan(-1,0)">
                  <use xlink:href="#rim" fill="#404040">
                        <set attributeName="fill" to="#808080" begin="arrowLeft.mouseover" end="arrowLeft.mouseout"/>
                  </use>
                  <path fill="none" stroke="white" stroke-width="1.5" d="M0,-3.0v7 M-2.5,-0.5L0,-3.0L2.5,-0.5"/>
                </g>
        </g>
        <svg viewBox="0 0 15 15" width="100%" height="30px" preserveAspectRatio="xMaxYMin meet">
         <g id="arrow_out" transform="scale(0.3 0.3)">
          <a xlink:href="namespacesll__m__general__coordinate__elliptic__solver_a2371433254cb8dfeb5dabf61337f90bd_icgraph_org.svg" target="_base">
           <rect id="button" ry="5" rx="5" y="6" x="6" height="38" width="38"
                fill="#f2f5e9" fill-opacity="0.5" stroke="#606060" stroke-width="1.0"/>
           <path id="arrow"
             d="M 11.500037,31.436501 C 11.940474,20.09759 22.043105,11.32322 32.158766,21.979434 L 37.068811,17.246167 C 37.068811,17.246167 37.088388,32 37.088388,32 L 22.160133,31.978069 C 22.160133,31.978069 26.997745,27.140456 26.997745,27.140456 C 18.528582,18.264221 13.291696,25.230495 11.500037,31.436501 z"
             style="fill:#404040;"/>
          </a>
         </g>
        </svg>
</svg>
