<?xml version="1.0" encoding="UTF-8" standalone="no"?>
<!DOCTYPE svg PUBLIC "-//W3C//DTD SVG 1.1//EN"
 "http://www.w3.org/Graphics/SVG/1.1/DTD/svg11.dtd">
<!-- Generated by graphviz version 2.40.1 (20161225.0304)
 -->
<!-- Title: compute_w_hermite Pages: 1 -->
<svg width="300pt" height="66pt"
 viewBox="0.00 0.00 300.00 66.00" xmlns="http://www.w3.org/2000/svg" xmlns:xlink="http://www.w3.org/1999/xlink">
<g id="graph0" class="graph" transform="scale(1 1) rotate(0) translate(4 62)">
<title>compute_w_hermite</title>
<polygon fill="#ffffff" stroke="transparent" points="-4,4 -4,-62 296,-62 296,4 -4,4"/>
<!-- Node9 -->
<g id="node1" class="node">
<title>Node9</title>
<polygon fill="#bfbfbf" stroke="#000000" points="0,-19.5 0,-38.5 116,-38.5 116,-19.5 0,-19.5"/>
<text text-anchor="middle" x="58" y="-26.5" font-family="Helvetica,sans-Serif" font-size="10.00" fill="#000000">compute_w_hermite</text>
</g>
<!-- Node10 -->
<g id="node2" class="node">
<title>Node10</title>
<g id="a_node2"><a xlink:href="namespacesll__m__qn__2d__polar.html#aadcd84abd4490ba625dd53c78b8fc482" target="_top" xlink:title="hermite_coef_nat_per">
<polygon fill="#ffffff" stroke="#000000" points="160.5,-38.5 160.5,-57.5 283.5,-57.5 283.5,-38.5 160.5,-38.5"/>
<text text-anchor="middle" x="222" y="-45.5" font-family="Helvetica,sans-Serif" font-size="10.00" fill="#000000">hermite_coef_nat_per</text>
</a>
</g>
</g>
<!-- Node9&#45;&gt;Node10 -->
<g id="edge1" class="edge">
<title>Node9&#45;&gt;Node10</title>
<path fill="none" stroke="#191970" d="M126.4637,-36.9318C137.6841,-38.2317 149.2522,-39.5719 160.2962,-40.8514"/>
<polygon fill="#191970" stroke="#191970" points="126.6184,-33.4264 116.282,-35.7522 125.8128,-40.3799 126.6184,-33.4264"/>
</g>
<!-- Node11 -->
<g id="node3" class="node">
<title>Node11</title>
<g id="a_node3"><a xlink:href="namespacesll__m__qn__2d__polar.html#aea3e28d07ddc00a16c7176218c003591" target="_top" xlink:title="hermite_c1_coef_nat_per">
<polygon fill="#ffffff" stroke="#000000" points="152,-.5 152,-19.5 292,-19.5 292,-.5 152,-.5"/>
<text text-anchor="middle" x="222" y="-7.5" font-family="Helvetica,sans-Serif" font-size="10.00" fill="#000000">hermite_c1_coef_nat_per</text>
</a>
</g>
</g>
<!-- Node9&#45;&gt;Node11 -->
<g id="edge2" class="edge">
<title>Node9&#45;&gt;Node11</title>
<path fill="none" stroke="#191970" d="M126.4083,-21.0746C134.8098,-20.1013 143.4071,-19.1053 151.8341,-18.129"/>
<polygon fill="#191970" stroke="#191970" points="125.8128,-17.6201 116.282,-22.2478 126.6184,-24.5736 125.8128,-17.6201"/>
</g>
</g>
</svg>
