<?xml version="1.0" encoding="UTF-8" standalone="no"?>
<!DOCTYPE svg PUBLIC "-//W3C//DTD SVG 1.1//EN"
 "http://www.w3.org/Graphics/SVG/1.1/DTD/svg11.dtd">
<!-- Generated by graphviz version 2.38.0 (20140413.2041)
 -->
<!-- Title: sll_s_collective_alltoallv_int_simple Pages: 1 -->
<svg width="455pt" height="100pt"
 viewBox="0.00 0.00 455.00 99.64" xmlns="http://www.w3.org/2000/svg" xmlns:xlink="http://www.w3.org/1999/xlink">
<g id="graph0" class="graph" transform="scale(1 1) rotate(0) translate(4 95.6402)">
<title>sll_s_collective_alltoallv_int_simple</title>
<polygon fill="white" stroke="none" points="-4,4 -4,-95.6402 451,-95.6402 451,4 -4,4"/>
<!-- Node1 -->
<g id="node1" class="node"><title>Node1</title>
<polygon fill="#bfbfbf" stroke="black" points="0,-33 0,-63 122,-63 122,-33 0,-33"/>
<text text-anchor="start" x="8" y="-51" font-family="Helvetica,sans-Serif" font-size="10.00">sll_s_collective_alltoallv</text>
<text text-anchor="middle" x="61" y="-40" font-family="Helvetica,sans-Serif" font-size="10.00">_int_simple</text>
</g>
<!-- Node2 -->
<g id="node2" class="node"><title>Node2</title>
<g id="a_node2"><a xlink:href="namespacesll__m__collective.html#a37ea25f42a791be5a710a6cf0d1e1197" target="_top" xlink:title="Checks if the pointer ptr is associated to an object. ">
<polygon fill="white" stroke="black" points="326,-57.5 326,-76.5 447,-76.5 447,-57.5 326,-57.5"/>
<text text-anchor="middle" x="386.5" y="-64.5" font-family="Helvetica,sans-Serif" font-size="10.00">sll_check_collective_ptr</text>
</a>
</g>
</g>
<!-- Node1&#45;&gt;Node2 -->
<g id="edge1" class="edge"><title>Node1&#45;&gt;Node2</title>
<path fill="none" stroke="midnightblue" d="M91.8148,-63.1857C110.337,-71.7535 134.934,-81.6009 158,-86 218.988,-97.6316 290.524,-87.9133 336.861,-78.6187"/>
<polygon fill="midnightblue" stroke="midnightblue" points="337.848,-81.9884 346.927,-76.5266 336.424,-75.1349 337.848,-81.9884"/>
</g>
<!-- Node3 -->
<g id="node3" class="node"><title>Node3</title>
<g id="a_node3"><a xlink:href="namespacesll__m__collective.html#af2d3c240d9dfe7e9c7d7f7c9e0529f17" target="_top" xlink:title="Determines the size of the group associated with a communicator. ">
<polygon fill="white" stroke="black" points="162.5,-57.5 162.5,-76.5 285.5,-76.5 285.5,-57.5 162.5,-57.5"/>
<text text-anchor="middle" x="224" y="-64.5" font-family="Helvetica,sans-Serif" font-size="10.00">sll_f_get_collective_size</text>
</a>
</g>
</g>
<!-- Node1&#45;&gt;Node3 -->
<g id="edge2" class="edge"><title>Node1&#45;&gt;Node3</title>
<path fill="none" stroke="midnightblue" d="M122.409,-55.129C132.077,-56.27 142.159,-57.4597 152.046,-58.6265"/>
<polygon fill="midnightblue" stroke="midnightblue" points="151.912,-62.1349 162.253,-59.8311 152.732,-55.1831 151.912,-62.1349"/>
</g>
<!-- Node4 -->
<g id="node4" class="node"><title>Node4</title>
<g id="a_node4"><a xlink:href="namespacesll__m__collective.html#aa66cb9d644105795e81bb937f540ef8f" target="_top" xlink:title="Sends integer data from all to all processes. ">
<polygon fill="white" stroke="black" points="158,-19.5 158,-38.5 290,-38.5 290,-19.5 158,-19.5"/>
<text text-anchor="middle" x="224" y="-26.5" font-family="Helvetica,sans-Serif" font-size="10.00">sll_s_collective_alltoall_int</text>
</a>
</g>
</g>
<!-- Node1&#45;&gt;Node4 -->
<g id="edge4" class="edge"><title>Node1&#45;&gt;Node4</title>
<path fill="none" stroke="midnightblue" d="M122.409,-40.871C130.746,-39.8872 139.39,-38.867 147.952,-37.8566"/>
<polygon fill="midnightblue" stroke="midnightblue" points="148.42,-41.3257 157.941,-36.6778 147.6,-34.374 148.42,-41.3257"/>
</g>
<!-- Node5 -->
<g id="node5" class="node"><title>Node5</title>
<g id="a_node5"><a xlink:href="namespacesll__m__collective.html#a9a5729d7ca2e55890195f76c8a5cbd62" target="_top" xlink:title="Checks the good execution of collective instruction. ">
<polygon fill="white" stroke="black" points="334.5,-0.5 334.5,-19.5 438.5,-19.5 438.5,-0.5 334.5,-0.5"/>
<text text-anchor="middle" x="386.5" y="-7.5" font-family="Helvetica,sans-Serif" font-size="10.00">sll_s_test_mpi_error</text>
</a>
</g>
</g>
<!-- Node1&#45;&gt;Node5 -->
<g id="edge7" class="edge"><title>Node1&#45;&gt;Node5</title>
<path fill="none" stroke="midnightblue" d="M91.8148,-32.8143C110.337,-24.2465 134.934,-14.3991 158,-10 213.547,0.59375 278.12,-0.66193 324.249,-3.82658"/>
<polygon fill="midnightblue" stroke="midnightblue" points="324.157,-7.32918 334.387,-4.57307 324.671,-0.348083 324.157,-7.32918"/>
</g>
<!-- Node3&#45;&gt;Node2 -->
<g id="edge3" class="edge"><title>Node3&#45;&gt;Node2</title>
<path fill="none" stroke="midnightblue" d="M285.678,-67C295.429,-67 305.591,-67 315.538,-67"/>
<polygon fill="midnightblue" stroke="midnightblue" points="315.8,-70.5001 325.8,-67 315.8,-63.5001 315.8,-70.5001"/>
</g>
<!-- Node4&#45;&gt;Node2 -->
<g id="edge5" class="edge"><title>Node4&#45;&gt;Node2</title>
<path fill="none" stroke="midnightblue" d="M265.501,-38.589C286.681,-43.6035 312.802,-49.7881 335.26,-55.1053"/>
<polygon fill="midnightblue" stroke="midnightblue" points="334.753,-58.5818 345.29,-57.4799 336.366,-51.7701 334.753,-58.5818"/>
</g>
<!-- Node4&#45;&gt;Node5 -->
<g id="edge6" class="edge"><title>Node4&#45;&gt;Node5</title>
<path fill="none" stroke="midnightblue" d="M290.281,-21.272C301.445,-19.9505 313.008,-18.5816 324.067,-17.2725"/>
<polygon fill="midnightblue" stroke="midnightblue" points="324.535,-20.7415 334.055,-16.0901 323.712,-13.7901 324.535,-20.7415"/>
</g>
</g>
</svg>
