<?xml version="1.0" encoding="UTF-8" standalone="no"?>
<!DOCTYPE svg PUBLIC "-//W3C//DTD SVG 1.1//EN"
 "http://www.w3.org/Graphics/SVG/1.1/DTD/svg11.dtd">
<!-- Generated by graphviz version 2.38.0 (20140413.2041)
 -->
<!-- Title: sll_f_fekete_points_and_weights Pages: 1 -->
<svg width="394pt" height="104pt"
 viewBox="0.00 0.00 394.00 104.00" xmlns="http://www.w3.org/2000/svg" xmlns:xlink="http://www.w3.org/1999/xlink">
<g id="graph0" class="graph" transform="scale(1 1) rotate(0) translate(4 100)">
<title>sll_f_fekete_points_and_weights</title>
<polygon fill="white" stroke="none" points="-4,4 -4,-100 390,-100 390,4 -4,4"/>
<!-- Node1 -->
<g id="node1" class="node"><title>Node1</title>
<polygon fill="#bfbfbf" stroke="black" points="0,-33 0,-63 98,-63 98,-33 0,-33"/>
<text text-anchor="start" x="8" y="-51" font-family="Helvetica,sans-Serif" font-size="10.00">sll_f_fekete_points</text>
<text text-anchor="middle" x="49" y="-40" font-family="Helvetica,sans-Serif" font-size="10.00">_and_weights</text>
</g>
<!-- Node2 -->
<g id="node2" class="node"><title>Node2</title>
<g id="a_node2"><a xlink:href="namespacesll__m__fekete__integration.html#a965046179c23cc4266786eb3e10c3b43" target="_top" xlink:title="Fekete quadrature rule over a triangle. ">
<polygon fill="white" stroke="black" points="134,-76.5 134,-95.5 238,-95.5 238,-76.5 134,-76.5"/>
<text text-anchor="middle" x="186" y="-83.5" font-family="Helvetica,sans-Serif" font-size="10.00">sll_f_fekete_integral</text>
</a>
</g>
</g>
<!-- Node1&#45;&gt;Node2 -->
<g id="edge1" class="edge"><title>Node1&#45;&gt;Node2</title>
<path fill="none" stroke="midnightblue" d="M108.306,-64.4121C122.861,-68.5089 137.996,-72.7693 150.938,-76.4121"/>
<polygon fill="midnightblue" stroke="midnightblue" points="108.931,-60.9521 98.3568,-61.6115 107.034,-67.6902 108.931,-60.9521"/>
</g>
<!-- Node3 -->
<g id="node3" class="node"><title>Node3</title>
<g id="a_node3"><a xlink:href="namespacesll__m__fekete__integration.html#acac4a2483e951c19928f9c4de14738d5" target="_top" xlink:title="Writes fekete points coordinates of a hex&#45;mesh reference triangle. ">
<polygon fill="white" stroke="black" points="141.5,-38.5 141.5,-57.5 230.5,-57.5 230.5,-38.5 141.5,-38.5"/>
<text text-anchor="middle" x="186" y="-45.5" font-family="Helvetica,sans-Serif" font-size="10.00">write_quadrature</text>
</a>
</g>
</g>
<!-- Node1&#45;&gt;Node3 -->
<g id="edge2" class="edge"><title>Node1&#45;&gt;Node3</title>
<path fill="none" stroke="midnightblue" d="M108.416,-48C119.509,-48 130.936,-48 141.468,-48"/>
<polygon fill="midnightblue" stroke="midnightblue" points="108.357,-44.5001 98.3568,-48 108.357,-51.5001 108.357,-44.5001"/>
</g>
<!-- Node5 -->
<g id="node5" class="node"><title>Node5</title>
<g id="a_node5"><a xlink:href="namespacesll__m__fekete__integration.html#ac7c05ae36ac69d55d2c022d71e82cae9" target="_top" xlink:title="Writes on a file values of boxsplines on fekete points. ">
<polygon fill="white" stroke="black" points="136,-0.5 136,-19.5 236,-19.5 236,-0.5 136,-0.5"/>
<text text-anchor="middle" x="186" y="-7.5" font-family="Helvetica,sans-Serif" font-size="10.00">write_basis_values</text>
</a>
</g>
</g>
<!-- Node1&#45;&gt;Node5 -->
<g id="edge4" class="edge"><title>Node1&#45;&gt;Node5</title>
<path fill="none" stroke="midnightblue" d="M108.306,-31.5879C122.861,-27.4911 137.996,-23.2307 150.938,-19.5879"/>
<polygon fill="midnightblue" stroke="midnightblue" points="107.034,-28.3098 98.3568,-34.3885 108.931,-35.0479 107.034,-28.3098"/>
</g>
<!-- Node4 -->
<g id="node4" class="node"><title>Node4</title>
<g id="a_node4"><a xlink:href="namespacesll__m__fekete__integration.html#adceb8456a1011a2bb4dcecfd28374463" target="_top" xlink:title="This function is supposed to write all django input files needed for a Django/Jorek simulation...">
<polygon fill="white" stroke="black" points="274,-14 274,-44 386,-44 386,-14 274,-14"/>
<text text-anchor="start" x="282" y="-32" font-family="Helvetica,sans-Serif" font-size="10.00">sll_s_write_all_django</text>
<text text-anchor="middle" x="330" y="-21" font-family="Helvetica,sans-Serif" font-size="10.00">_files</text>
</a>
</g>
</g>
<!-- Node3&#45;&gt;Node4 -->
<g id="edge3" class="edge"><title>Node3&#45;&gt;Node4</title>
<path fill="none" stroke="midnightblue" d="M240.893,-40.789C251.673,-39.3465 263.013,-37.8292 273.836,-36.3811"/>
<polygon fill="midnightblue" stroke="midnightblue" points="240.211,-37.349 230.763,-42.1443 241.139,-44.2871 240.211,-37.349"/>
</g>
<!-- Node5&#45;&gt;Node4 -->
<g id="edge5" class="edge"><title>Node5&#45;&gt;Node4</title>
<path fill="none" stroke="midnightblue" d="M246.432,-17.9522C255.565,-19.1742 264.96,-20.4313 273.991,-21.6397"/>
<polygon fill="midnightblue" stroke="midnightblue" points="246.642,-14.4492 236.266,-16.592 245.714,-21.3873 246.642,-14.4492"/>
</g>
</g>
</svg>
