<?xml version="1.0" encoding="UTF-8" standalone="no"?>
<!DOCTYPE svg PUBLIC "-//W3C//DTD SVG 1.1//EN"
 "http://www.w3.org/Graphics/SVG/1.1/DTD/svg11.dtd">
<!-- Generated by graphviz version 2.40.1 (20161225.0304)
 -->
<!-- Title: sll_f_spline_pp_horner_3d Pages: 1 -->
<!--zoomable 287 -->
<svg id="main" version="1.1" xmlns="http://www.w3.org/2000/svg" xmlns:xlink="http://www.w3.org/1999/xlink" xml:space="preserve" onload="init(evt)">
<style type="text/css"><![CDATA[
.edge:hover path { stroke: red; }
.edge:hover polygon { stroke: red; fill: red; }
]]></style>
<script type="text/javascript"><![CDATA[
var edges = document.getElementsByTagName('g');
if (edges && edges.length) {
  for (var i=0;i<edges.length;i++) {
    if (edges[i].id.substr(0,4)=='edge') {
      edges[i].setAttribute('class','edge');
    }
  }
}
]]></script>
        <defs>
                <circle id="rim" cx="0" cy="0" r="7"/>
                <circle id="rim2" cx="0" cy="0" r="3.5"/>
                <g id="zoomPlus">
                        <use xlink:href="#rim" fill="#404040">
                                <set attributeName="fill" to="#808080" begin="zoomplus.mouseover" end="zoomplus.mouseout"/>
                        </use>
                        <path d="M-4,0h8M0,-4v8" fill="none" stroke="white" stroke-width="1.5" pointer-events="none"/>
                </g>
                <g id="zoomMin">
                        <use xlink:href="#rim" fill="#404040">
                                <set attributeName="fill" to="#808080" begin="zoomminus.mouseover" end="zoomminus.mouseout"/>
                        </use>
                        <path d="M-4,0h8" fill="none" stroke="white" stroke-width="1.5" pointer-events="none"/>
                </g>
                <g id="dirArrow">
                        <path fill="none" stroke="white" stroke-width="1.5" d="M0,-3.0v7 M-2.5,-0.5L0,-3.0L2.5,-0.5"/>
                </g>
               <g id="resetDef">
                       <use xlink:href="#rim2" fill="#404040">
                               <set attributeName="fill" to="#808080" begin="reset.mouseover" end="reset.mouseout"/>
                       </use>
               </g>
        </defs>

<script type="text/javascript">
var viewWidth = 522;
var viewHeight = 287;
var sectionId = 'dynsection-4';
</script>
<script xlink:href="svgpan.js"/>
<svg id="graph" class="graph">
<g id="viewport">
<title>sll_f_spline_pp_horner_3d</title>
<polygon fill="#ffffff" stroke="transparent" points="-4,4 -4,-282.5 518,-282.5 518,4 -4,4"/>
<!-- Node121 -->
<g id="node1" class="node">
<title>Node121</title>
<polygon fill="#bfbfbf" stroke="#000000" points="0,-164 0,-183 143,-183 143,-164 0,-164"/>
<text text-anchor="middle" x="71.5" y="-171" font-family="Helvetica,sans-Serif" font-size="10.00" fill="#000000">sll_f_spline_pp_horner_3d</text>
</g>
<!-- Node122 -->
<g id="node2" class="node">
<title>Node122</title>
<g id="a_node2"><a xlink:href="namespacesll__m__mapping__3d.html#a9b77ddf5f6d651a4fd371f95b8c16541" target="_top" xlink:title="Compute x1. ">
<polygon fill="#ffffff" stroke="#000000" points="179,-259 179,-278 326,-278 326,-259 179,-259"/>
<text text-anchor="middle" x="252.5" y="-266" font-family="Helvetica,sans-Serif" font-size="10.00" fill="#000000">sll_m_mapping_3d::get_x1</text>
</a>
</g>
</g>
<!-- Node121&#45;&gt;Node122 -->
<g id="edge1" class="edge">
<title>Node121&#45;&gt;Node122</title>
<path fill="none" stroke="#191970" d="M90.1368,-189.9001C110.598,-207.0984 145.0715,-233.7677 179,-249.5 187.1308,-253.2701 196.128,-256.378 204.9576,-258.9093"/>
<polygon fill="#191970" stroke="#191970" points="92.1422,-187.0097 82.2681,-183.1687 87.5918,-192.3289 92.1422,-187.0097"/>
</g>
<!-- Node123 -->
<g id="node3" class="node">
<title>Node123</title>
<g id="a_node3"><a xlink:href="namespacesll__m__mapping__3d.html#ac55b460daa4a75164aacf351bd054d8b" target="_top" xlink:title="Compute x2. ">
<polygon fill="#ffffff" stroke="#000000" points="179,-221 179,-240 326,-240 326,-221 179,-221"/>
<text text-anchor="middle" x="252.5" y="-228" font-family="Helvetica,sans-Serif" font-size="10.00" fill="#000000">sll_m_mapping_3d::get_x2</text>
</a>
</g>
</g>
<!-- Node121&#45;&gt;Node123 -->
<g id="edge2" class="edge">
<title>Node121&#45;&gt;Node123</title>
<path fill="none" stroke="#191970" d="M105.9324,-186.5297C126.9022,-194.2498 154.3212,-203.9639 179,-211.5 189.9666,-214.8488 201.9681,-218.1159 213.0346,-220.97"/>
<polygon fill="#191970" stroke="#191970" points="107.0842,-183.2239 96.4911,-183.0284 104.6501,-189.7871 107.0842,-183.2239"/>
</g>
<!-- Node124 -->
<g id="node4" class="node">
<title>Node124</title>
<g id="a_node4"><a xlink:href="namespacesll__m__mapping__3d.html#a7992bcbc7643223b4adfb48876170f14" target="_top" xlink:title="Compute x3. ">
<polygon fill="#ffffff" stroke="#000000" points="179,-183 179,-202 326,-202 326,-183 179,-183"/>
<text text-anchor="middle" x="252.5" y="-190" font-family="Helvetica,sans-Serif" font-size="10.00" fill="#000000">sll_m_mapping_3d::get_x3</text>
</a>
</g>
</g>
<!-- Node121&#45;&gt;Node124 -->
<g id="edge3" class="edge">
<title>Node121&#45;&gt;Node124</title>
<path fill="none" stroke="#191970" d="M153.0449,-182.06C161.6294,-182.9611 170.3225,-183.8736 178.811,-184.7647"/>
<polygon fill="#191970" stroke="#191970" points="153.3468,-178.5725 143.036,-181.0093 152.6159,-185.5343 153.3468,-178.5725"/>
</g>
<!-- Node125 -->
<g id="node5" class="node">
<title>Node125</title>
<g id="a_node5"><a xlink:href="namespacesll__m__mapping__3d.html#a619a73523172da6c34512d16484ea6eb" target="_top" xlink:title="Compute all three components of X. ">
<polygon fill="#ffffff" stroke="#000000" points="182,-145 182,-164 323,-164 323,-145 182,-145"/>
<text text-anchor="middle" x="252.5" y="-152" font-family="Helvetica,sans-Serif" font-size="10.00" fill="#000000">sll_m_mapping_3d::get_x</text>
</a>
</g>
</g>
<!-- Node121&#45;&gt;Node125 -->
<g id="edge4" class="edge">
<title>Node121&#45;&gt;Node125</title>
<path fill="none" stroke="#191970" d="M152.9814,-164.9467C162.5901,-163.9381 172.3359,-162.915 181.7795,-161.9237"/>
<polygon fill="#191970" stroke="#191970" points="152.6159,-161.4657 143.036,-165.9907 153.3468,-168.4275 152.6159,-161.4657"/>
</g>
<!-- Node126 -->
<g id="node6" class="node">
<title>Node126</title>
<g id="a_node6"><a xlink:href="namespacesll__m__particle__mesh__coupling__spline__3d__feec.html#ae85b6d04c8bea48f32bbcc769f216620" target="_top" xlink:title="Evaluate field at at position position. ">
<polygon fill="#ffffff" stroke="#000000" points="179.5,-73.5 179.5,-125.5 325.5,-125.5 325.5,-73.5 179.5,-73.5"/>
<text text-anchor="start" x="187.5" y="-113.5" font-family="Helvetica,sans-Serif" font-size="10.00" fill="#000000">sll_m_particle_mesh</text>
<text text-anchor="start" x="187.5" y="-102.5" font-family="Helvetica,sans-Serif" font-size="10.00" fill="#000000">_coupling_spline_3d</text>
<text text-anchor="start" x="187.5" y="-91.5" font-family="Helvetica,sans-Serif" font-size="10.00" fill="#000000">_feec::evaluate_field</text>
<text text-anchor="middle" x="252.5" y="-80.5" font-family="Helvetica,sans-Serif" font-size="10.00" fill="#000000">_single_spline_pp_3d_feec</text>
</a>
</g>
</g>
<!-- Node121&#45;&gt;Node126 -->
<g id="edge5" class="edge">
<title>Node121&#45;&gt;Node126</title>
<path fill="none" stroke="#191970" d="M104.2933,-160.0928C127.8262,-150.4716 160.2902,-137.199 188.8373,-125.5278"/>
<polygon fill="#191970" stroke="#191970" points="102.7238,-156.9532 94.792,-163.9773 105.3729,-163.4326 102.7238,-156.9532"/>
</g>
<!-- Node127 -->
<g id="node7" class="node">
<title>Node127</title>
<g id="a_node7"><a xlink:href="namespacesll__m__splines__pp.html#affc792b409c5d6d87a1e217fe304fa22" target="_top" xlink:title="sll_s_spline_evaluate\l_basis_pp_form_3d">
<polygon fill="#ffffff" stroke="#000000" points="192,-24.5 192,-54.5 313,-54.5 313,-24.5 192,-24.5"/>
<text text-anchor="start" x="200" y="-42.5" font-family="Helvetica,sans-Serif" font-size="10.00" fill="#000000">sll_s_spline_evaluate</text>
<text text-anchor="middle" x="252.5" y="-31.5" font-family="Helvetica,sans-Serif" font-size="10.00" fill="#000000">_basis_pp_form_3d</text>
</a>
</g>
</g>
<!-- Node121&#45;&gt;Node127 -->
<g id="edge6" class="edge">
<title>Node121&#45;&gt;Node127</title>
<path fill="none" stroke="#191970" d="M84.6778,-155.6862C103.2336,-131.7711 139.2663,-89.4162 179,-64.5 185.052,-60.7049 191.7485,-57.4096 198.5632,-54.57"/>
<polygon fill="#191970" stroke="#191970" points="81.7182,-153.7959 78.4505,-163.8742 87.2899,-158.0333 81.7182,-153.7959"/>
</g>
<!-- Node128 -->
<g id="node8" class="node">
<title>Node128</title>
<g id="a_node8"><a xlink:href="namespacesll__m__splines__pp.html#a382a523b8cbb98a4c148f5ba85ffb1e0" target="_top" xlink:title="sll_s_spline_evaluate\l_basis_b_form_3d_clamped">
<polygon fill="#ffffff" stroke="#000000" points="362,-49.5 362,-79.5 514,-79.5 514,-49.5 362,-49.5"/>
<text text-anchor="start" x="370" y="-67.5" font-family="Helvetica,sans-Serif" font-size="10.00" fill="#000000">sll_s_spline_evaluate</text>
<text text-anchor="middle" x="438" y="-56.5" font-family="Helvetica,sans-Serif" font-size="10.00" fill="#000000">_basis_b_form_3d_clamped</text>
</a>
</g>
</g>
<!-- Node127&#45;&gt;Node128 -->
<g id="edge7" class="edge">
<title>Node127&#45;&gt;Node128</title>
<path fill="none" stroke="#191970" d="M323.2317,-49.0326C335.8697,-50.7358 349.0867,-52.5171 361.8684,-54.2397"/>
<polygon fill="#191970" stroke="#191970" points="323.6175,-45.553 313.2396,-47.6859 322.6825,-52.4903 323.6175,-45.553"/>
</g>
<!-- Node129 -->
<g id="node9" class="node">
<title>Node129</title>
<g id="a_node9"><a xlink:href="namespacesll__m__splines__pp.html#a70fb277ea5af3f97a33262915023e427" target="_top" xlink:title="sll_s_spline_evaluate\l_basis_b_form_3d_periodic">
<polygon fill="#ffffff" stroke="#000000" points="363.5,-.5 363.5,-30.5 512.5,-30.5 512.5,-.5 363.5,-.5"/>
<text text-anchor="start" x="371.5" y="-18.5" font-family="Helvetica,sans-Serif" font-size="10.00" fill="#000000">sll_s_spline_evaluate</text>
<text text-anchor="middle" x="438" y="-7.5" font-family="Helvetica,sans-Serif" font-size="10.00" fill="#000000">_basis_b_form_3d_periodic</text>
</a>
</g>
</g>
<!-- Node127&#45;&gt;Node129 -->
<g id="edge8" class="edge">
<title>Node127&#45;&gt;Node129</title>
<path fill="none" stroke="#191970" d="M323.5075,-30.313C336.4981,-28.6323 350.0917,-26.8736 363.1891,-25.179"/>
<polygon fill="#191970" stroke="#191970" points="322.7079,-26.8872 313.2396,-31.6415 323.6061,-33.8294 322.7079,-26.8872"/>
</g>
</g>
</svg>
        <g id="navigator" transform="translate(0 0)" fill="#404254">
                <rect fill="#f2f5e9" fill-opacity="0.5" stroke="#606060" stroke-width=".5" x="0" y="0" width="60" height="60"/>
                <use id="zoomplus" xlink:href="#zoomPlus" x="17" y="9" onmousedown="handleZoom(evt,'in')"/>
                <use id="zoomminus" xlink:href="#zoomMin" x="42" y="9" onmousedown="handleZoom(evt,'out')"/>
                <use id="reset" xlink:href="#resetDef" x="30" y="36" onmousedown="handleReset()"/>
                <g id="arrowUp" xlink:href="#dirArrow" transform="translate(30 24)" onmousedown="handlePan(0,-1)">
                  <use xlink:href="#rim" fill="#404040">
                        <set attributeName="fill" to="#808080" begin="arrowUp.mouseover" end="arrowUp.mouseout"/>
                  </use>
                  <path fill="none" stroke="white" stroke-width="1.5" d="M0,-3.0v7 M-2.5,-0.5L0,-3.0L2.5,-0.5"/>
                </g>
                <g id="arrowRight" xlink:href="#dirArrow" transform="rotate(90) translate(36 -43)" onmousedown="handlePan(1,0)">
                  <use xlink:href="#rim" fill="#404040">
                        <set attributeName="fill" to="#808080" begin="arrowRight.mouseover" end="arrowRight.mouseout"/>
                  </use>
                  <path fill="none" stroke="white" stroke-width="1.5" d="M0,-3.0v7 M-2.5,-0.5L0,-3.0L2.5,-0.5"/>
                </g>
                <g id="arrowDown" xlink:href="#dirArrow" transform="rotate(180) translate(-30 -48)" onmousedown="handlePan(0,1)">
                  <use xlink:href="#rim" fill="#404040">
                        <set attributeName="fill" to="#808080" begin="arrowDown.mouseover" end="arrowDown.mouseout"/>
                  </use>
                  <path fill="none" stroke="white" stroke-width="1.5" d="M0,-3.0v7 M-2.5,-0.5L0,-3.0L2.5,-0.5"/>
                </g>
                <g id="arrowLeft" xlink:href="#dirArrow" transform="rotate(270) translate(-36 17)" onmousedown="handlePan(-1,0)">
                  <use xlink:href="#rim" fill="#404040">
                        <set attributeName="fill" to="#808080" begin="arrowLeft.mouseover" end="arrowLeft.mouseout"/>
                  </use>
                  <path fill="none" stroke="white" stroke-width="1.5" d="M0,-3.0v7 M-2.5,-0.5L0,-3.0L2.5,-0.5"/>
                </g>
        </g>
        <svg viewBox="0 0 15 15" width="100%" height="30px" preserveAspectRatio="xMaxYMin meet">
         <g id="arrow_out" transform="scale(0.3 0.3)">
          <a xlink:href="namespacesll__m__splines__pp_a44b8b762ad5f936a42a8f989718bb48c_icgraph_org.svg" target="_base">
           <rect id="button" ry="5" rx="5" y="6" x="6" height="38" width="38"
                fill="#f2f5e9" fill-opacity="0.5" stroke="#606060" stroke-width="1.0"/>
           <path id="arrow"
             d="M 11.500037,31.436501 C 11.940474,20.09759 22.043105,11.32322 32.158766,21.979434 L 37.068811,17.246167 C 37.068811,17.246167 37.088388,32 37.088388,32 L 22.160133,31.978069 C 22.160133,31.978069 26.997745,27.140456 26.997745,27.140456 C 18.528582,18.264221 13.291696,25.230495 11.500037,31.436501 z"
             style="fill:#404040;"/>
          </a>
         </g>
        </svg>
</svg>
