<?xml version="1.0" encoding="UTF-8" standalone="no"?>
<!DOCTYPE svg PUBLIC "-//W3C//DTD SVG 1.1//EN"
 "http://www.w3.org/Graphics/SVG/1.1/DTD/svg11.dtd">
<!-- Generated by graphviz version 2.40.1 (20161225.0304)
 -->
<!-- Title: sll_s_nufft_2d_interpolate_array_values_axi Pages: 1 -->
<svg width="471pt" height="39pt"
 viewBox="0.00 0.00 471.00 39.00" xmlns="http://www.w3.org/2000/svg" xmlns:xlink="http://www.w3.org/1999/xlink">
<g id="graph0" class="graph" transform="scale(1 1) rotate(0) translate(4 35)">
<title>sll_s_nufft_2d_interpolate_array_values_axi</title>
<polygon fill="#ffffff" stroke="transparent" points="-4,4 -4,-35 467,-35 467,4 -4,4"/>
<!-- Node30 -->
<g id="node1" class="node">
<title>Node30</title>
<polygon fill="#bfbfbf" stroke="#000000" points="0,-.5 0,-30.5 142,-30.5 142,-.5 0,-.5"/>
<text text-anchor="start" x="8" y="-18.5" font-family="Helvetica,sans-Serif" font-size="10.00" fill="#000000">sll_s_nufft_2d_interpolate</text>
<text text-anchor="middle" x="71" y="-7.5" font-family="Helvetica,sans-Serif" font-size="10.00" fill="#000000">_array_values_axi</text>
</g>
<!-- Node31 -->
<g id="node2" class="node">
<title>Node31</title>
<g id="a_node2"><a xlink:href="namespacesll__m__nufft__interpolation.html#a162b55abc00342f2e8676595c9427205" target="_top" xlink:title="Compute the fft and prepare data for nufft call. ">
<polygon fill="#ffffff" stroke="#000000" points="178,-6 178,-25 325,-25 325,-6 178,-6"/>
<text text-anchor="middle" x="251.5" y="-13" font-family="Helvetica,sans-Serif" font-size="10.00" fill="#000000">sll_s_nufft_2d_compute_fft</text>
</a>
</g>
</g>
<!-- Node30&#45;&gt;Node31 -->
<g id="edge1" class="edge">
<title>Node30&#45;&gt;Node31</title>
<path fill="none" stroke="#191970" d="M142.0793,-15.5C150.5173,-15.5 159.1896,-15.5 167.7826,-15.5"/>
<polygon fill="#191970" stroke="#191970" points="167.8148,-19.0001 177.8148,-15.5 167.8147,-12.0001 167.8148,-19.0001"/>
</g>
<!-- Node32 -->
<g id="node3" class="node">
<title>Node32</title>
<g id="a_node3"><a xlink:href="namespacesll__m__fft.html#a1da210c56b980ae78e65f9a4a473c432" target="_top" xlink:title="Compute fast Fourier transform in complex to complex mode. ">
<polygon fill="#ffffff" stroke="#000000" points="361,-.5 361,-30.5 463,-30.5 463,-.5 361,-.5"/>
<text text-anchor="start" x="369" y="-18.5" font-family="Helvetica,sans-Serif" font-size="10.00" fill="#000000">sll_m_fft::sll_s_fft</text>
<text text-anchor="middle" x="412" y="-7.5" font-family="Helvetica,sans-Serif" font-size="10.00" fill="#000000">_exec_c2c_2d</text>
</a>
</g>
</g>
<!-- Node31&#45;&gt;Node32 -->
<g id="edge2" class="edge">
<title>Node31&#45;&gt;Node32</title>
<path fill="none" stroke="#191970" d="M325.1736,-15.5C333.7272,-15.5 342.3812,-15.5 350.7433,-15.5"/>
<polygon fill="#191970" stroke="#191970" points="350.7721,-19.0001 360.7721,-15.5 350.772,-12.0001 350.7721,-19.0001"/>
</g>
</g>
</svg>
