<?xml version="1.0" encoding="UTF-8" standalone="no"?>
<!DOCTYPE svg PUBLIC "-//W3C//DTD SVG 1.1//EN"
 "http://www.w3.org/Graphics/SVG/1.1/DTD/svg11.dtd">
<!-- Generated by graphviz version 2.43.0 (0)
 -->
<!-- Title: sll_s_compute_rhs_fem_sm Pages: 1 -->
<svg width="363pt" height="50pt"
 viewBox="0.00 0.00 363.00 50.00" xmlns="http://www.w3.org/2000/svg" xmlns:xlink="http://www.w3.org/1999/xlink">
<g id="graph0" class="graph" transform="scale(1 1) rotate(0) translate(4 46)">
<title>sll_s_compute_rhs_fem_sm</title>
<polygon fill="white" stroke="transparent" points="-4,4 -4,-46 359,-46 359,4 -4,4"/>
<!-- Node1 -->
<g id="node1" class="node">
<title>Node1</title>
<g id="a_node1"><a xlink:title="Compute the FEM right&#45;hand&#45;side for a given function f and periodic splines of given degree Its compo...">
<polygon fill="#bfbfbf" stroke="black" points="0,-11.5 0,-30.5 152,-30.5 152,-11.5 0,-11.5"/>
<text text-anchor="middle" x="76" y="-18.5" font-family="Helvetica,sans-Serif" font-size="10.00">sll_s_compute_rhs_fem_sm</text>
</a>
</g>
</g>
<!-- Node2 -->
<g id="node2" class="node">
<title>Node2</title>
<g id="a_node2"><a xlink:href="namespacesll__m__gauss__legendre__integration.html#a0df63a9e8ee884c2d4a0d1f53602a949" target="_top" xlink:title="Returns a 2d array of size (2,npoints) containing gauss&#45;legendre points and weights in the interval [...">
<polygon fill="white" stroke="black" points="188,-0.5 188,-41.5 355,-41.5 355,-0.5 188,-0.5"/>
<text text-anchor="start" x="196" y="-29.5" font-family="Helvetica,sans-Serif" font-size="10.00">sll_m_gauss_legendre</text>
<text text-anchor="start" x="196" y="-18.5" font-family="Helvetica,sans-Serif" font-size="10.00">_integration::sll_f_gauss</text>
<text text-anchor="middle" x="271.5" y="-7.5" font-family="Helvetica,sans-Serif" font-size="10.00">_legendre_points_and_weights</text>
</a>
</g>
</g>
<!-- Node1&#45;&gt;Node2 -->
<g id="edge1" class="edge">
<title>Node1&#45;&gt;Node2</title>
<path fill="none" stroke="midnightblue" d="M152.09,-21C160.49,-21 169.12,-21 177.7,-21"/>
<polygon fill="midnightblue" stroke="midnightblue" points="177.75,-24.5 187.75,-21 177.75,-17.5 177.75,-24.5"/>
</g>
</g>
</svg>
