<?xml version="1.0" encoding="UTF-8" standalone="no"?>
<!DOCTYPE svg PUBLIC "-//W3C//DTD SVG 1.1//EN"
 "http://www.w3.org/Graphics/SVG/1.1/DTD/svg11.dtd">
<!-- Generated by graphviz version 2.43.0 (0)
 -->
<!-- Title: sll_s_fft_exec_c2r_2d Pages: 1 -->
<svg width="310pt" height="110pt"
 viewBox="0.00 0.00 310.00 110.00" xmlns="http://www.w3.org/2000/svg" xmlns:xlink="http://www.w3.org/1999/xlink">
<g id="graph0" class="graph" transform="scale(1 1) rotate(0) translate(4 106)">
<title>sll_s_fft_exec_c2r_2d</title>
<polygon fill="white" stroke="transparent" points="-4,4 -4,-106 306,-106 306,4 -4,4"/>
<!-- Node1 -->
<g id="node1" class="node">
<title>Node1</title>
<g id="a_node1"><a xlink:title="Compute fast Fourier transform in complex to real mode.">
<polygon fill="#bfbfbf" stroke="black" points="183,-41.5 183,-60.5 302,-60.5 302,-41.5 183,-41.5"/>
<text text-anchor="middle" x="242.5" y="-48.5" font-family="Helvetica,sans-Serif" font-size="10.00">sll_s_fft_exec_c2r_2d</text>
</a>
</g>
</g>
<!-- Node2 -->
<g id="node2" class="node">
<title>Node2</title>
<g id="a_node2"><a xlink:href="namespacesll__m__poisson__2d__periodic.html#a43066911ecf78310ffe0768a9f7204ca" target="_top" xlink:title="sll_o_solve Poisson equation on 2D mesh with periodic boundary conditions. return electric fields.">
<polygon fill="white" stroke="black" points="0,-60.5 0,-101.5 147,-101.5 147,-60.5 0,-60.5"/>
<text text-anchor="start" x="8" y="-89.5" font-family="Helvetica,sans-Serif" font-size="10.00">sll_m_poisson_2d_periodic</text>
<text text-anchor="start" x="8" y="-78.5" font-family="Helvetica,sans-Serif" font-size="10.00">::solve_e_fields_poisson</text>
<text text-anchor="middle" x="73.5" y="-67.5" font-family="Helvetica,sans-Serif" font-size="10.00">_2d_periodic_fft</text>
</a>
</g>
</g>
<!-- Node1&#45;&gt;Node2 -->
<g id="edge1" class="edge">
<title>Node1&#45;&gt;Node2</title>
<path fill="none" stroke="midnightblue" d="M178.2,-62.37C168.04,-64.2 157.45,-66.1 147.09,-67.96"/>
<polygon fill="midnightblue" stroke="midnightblue" points="178.98,-65.79 188.2,-60.57 177.74,-58.9 178.98,-65.79"/>
</g>
<!-- Node3 -->
<g id="node3" class="node">
<title>Node3</title>
<g id="a_node3"><a xlink:href="namespacesll__m__poisson__2d__periodic.html#ad856faa6b680bb81e84cb8ddd506f428" target="_top" xlink:title="sll_o_solve Poisson equation on 2D mesh with periodic boundary conditions. return potential.">
<polygon fill="white" stroke="black" points="0,-0.5 0,-41.5 147,-41.5 147,-0.5 0,-0.5"/>
<text text-anchor="start" x="8" y="-29.5" font-family="Helvetica,sans-Serif" font-size="10.00">sll_m_poisson_2d_periodic</text>
<text text-anchor="start" x="8" y="-18.5" font-family="Helvetica,sans-Serif" font-size="10.00">::solve_potential_poisson</text>
<text text-anchor="middle" x="73.5" y="-7.5" font-family="Helvetica,sans-Serif" font-size="10.00">_2d_periodic_fft</text>
</a>
</g>
</g>
<!-- Node1&#45;&gt;Node3 -->
<g id="edge2" class="edge">
<title>Node1&#45;&gt;Node3</title>
<path fill="none" stroke="midnightblue" d="M178.2,-39.63C168.04,-37.8 157.45,-35.9 147.09,-34.04"/>
<polygon fill="midnightblue" stroke="midnightblue" points="177.74,-43.1 188.2,-41.43 178.98,-36.21 177.74,-43.1"/>
</g>
</g>
</svg>
