<?xml version="1.0" encoding="UTF-8" standalone="no"?>
<!DOCTYPE svg PUBLIC "-//W3C//DTD SVG 1.1//EN"
 "http://www.w3.org/Graphics/SVG/1.1/DTD/svg11.dtd">
<!-- Generated by graphviz version 2.38.0 (20140413.2041)
 -->
<!-- Title: interpolate_from_interpolant_derivatives_eta1 Pages: 1 -->
<svg width="291pt" height="88pt"
 viewBox="0.00 0.00 291.00 88.00" xmlns="http://www.w3.org/2000/svg" xmlns:xlink="http://www.w3.org/1999/xlink">
<g id="graph0" class="graph" transform="scale(1 1) rotate(0) translate(4 84)">
<title>interpolate_from_interpolant_derivatives_eta1</title>
<polygon fill="white" stroke="none" points="-4,4 -4,-84 287,-84 287,4 -4,4"/>
<!-- Node1 -->
<g id="node1" class="node"><title>Node1</title>
<polygon fill="#bfbfbf" stroke="black" points="0,-24.5 0,-54.5 137,-54.5 137,-24.5 0,-24.5"/>
<text text-anchor="start" x="8" y="-42.5" font-family="Helvetica,sans-Serif" font-size="10.00">interpolate_from_interpolant</text>
<text text-anchor="middle" x="68.5" y="-31.5" font-family="Helvetica,sans-Serif" font-size="10.00">_derivatives_eta1</text>
</g>
<!-- Node2 -->
<g id="node2" class="node"><title>Node2</title>
<g id="a_node2"><a xlink:href="namespacesll__m__quintic__splines.html#a08737a908192cfd5c28a4bc84bdbde0d" target="_top" xlink:title="Calculation of the parameters of an interpolating quintic splines. ">
<polygon fill="white" stroke="black" points="173,-49.5 173,-79.5 283,-79.5 283,-49.5 173,-49.5"/>
<text text-anchor="start" x="181" y="-67.5" font-family="Helvetica,sans-Serif" font-size="10.00">sll_m_quintic_splines</text>
<text text-anchor="middle" x="228" y="-56.5" font-family="Helvetica,sans-Serif" font-size="10.00">::sll_s_inspl5</text>
</a>
</g>
</g>
<!-- Node1&#45;&gt;Node2 -->
<g id="edge1" class="edge"><title>Node1&#45;&gt;Node2</title>
<path fill="none" stroke="midnightblue" d="M137.208,-50.2473C145.625,-51.5834 154.214,-52.9466 162.579,-54.2745"/>
<polygon fill="midnightblue" stroke="midnightblue" points="162.221,-57.7613 172.646,-55.8724 163.318,-50.8479 162.221,-57.7613"/>
</g>
<!-- Node3 -->
<g id="node3" class="node"><title>Node3</title>
<g id="a_node3"><a xlink:href="namespacesll__m__quintic__splines.html#a8d8d24e20f35303910d640147f661bb5" target="_top" xlink:title="Calculation of the values of an interpolating quintic pline and of its first and second derivatives a...">
<polygon fill="white" stroke="black" points="173,-0.5 173,-30.5 283,-30.5 283,-0.5 173,-0.5"/>
<text text-anchor="start" x="181" y="-18.5" font-family="Helvetica,sans-Serif" font-size="10.00">sll_m_quintic_splines</text>
<text text-anchor="middle" x="228" y="-7.5" font-family="Helvetica,sans-Serif" font-size="10.00">::sll_s_splin5</text>
</a>
</g>
</g>
<!-- Node1&#45;&gt;Node3 -->
<g id="edge2" class="edge"><title>Node1&#45;&gt;Node3</title>
<path fill="none" stroke="midnightblue" d="M137.208,-29.1826C145.625,-27.9 154.214,-26.5912 162.579,-25.3165"/>
<polygon fill="midnightblue" stroke="midnightblue" points="163.287,-28.7491 172.646,-23.7825 162.233,-21.829 163.287,-28.7491"/>
</g>
</g>
</svg>
