<?xml version="1.0" encoding="UTF-8" standalone="no"?>
<!DOCTYPE svg PUBLIC "-//W3C//DTD SVG 1.1//EN"
 "http://www.w3.org/Graphics/SVG/1.1/DTD/svg11.dtd">
<!-- Generated by graphviz version 2.43.0 (0)
 -->
<!-- Title: sll_s_populate_weights Pages: 1 -->
<svg width="621pt" height="50pt"
 viewBox="0.00 0.00 621.00 50.00" xmlns="http://www.w3.org/2000/svg" xmlns:xlink="http://www.w3.org/1999/xlink">
<g id="graph0" class="graph" transform="scale(1 1) rotate(0) translate(4 46)">
<title>sll_s_populate_weights</title>
<polygon fill="white" stroke="transparent" points="-4,4 -4,-46 617,-46 617,4 -4,4"/>
<!-- Node1 -->
<g id="node1" class="node">
<title>Node1</title>
<g id="a_node1"><a xlink:title=" ">
<polygon fill="#bfbfbf" stroke="black" points="483,-11.5 483,-30.5 613,-30.5 613,-11.5 483,-11.5"/>
<text text-anchor="middle" x="548" y="-18.5" font-family="Helvetica,sans-Serif" font-size="10.00">sll_s_populate_weights</text>
</a>
</g>
</g>
<!-- Node2 -->
<g id="node2" class="node">
<title>Node2</title>
<g id="a_node2"><a xlink:href="namespacesll__m__fornberg.html#a8c30422f89d4b1e746ae7959b2eba62f" target="_top" xlink:title="Apply finite difference formula to compute derivative.">
<polygon fill="white" stroke="black" points="361,-11.5 361,-30.5 447,-30.5 447,-11.5 361,-11.5"/>
<text text-anchor="middle" x="404" y="-18.5" font-family="Helvetica,sans-Serif" font-size="10.00">sll_s_apply_fd</text>
</a>
</g>
</g>
<!-- Node1&#45;&gt;Node2 -->
<g id="edge1" class="edge">
<title>Node1&#45;&gt;Node2</title>
<path fill="none" stroke="midnightblue" d="M472.46,-21C463.79,-21 455.19,-21 447.17,-21"/>
<polygon fill="midnightblue" stroke="midnightblue" points="472.65,-24.5 482.65,-21 472.65,-17.5 472.65,-24.5"/>
</g>
<!-- Node3 -->
<g id="node3" class="node">
<title>Node3</title>
<g id="a_node3"><a xlink:href="namespacesll__m__arbitrary__degree__spline__interpolator__1d.html#a21219bee7615ea3541b36b15663b223e" target="_top" xlink:title=" ">
<polygon fill="white" stroke="black" points="194,-0.5 194,-41.5 325,-41.5 325,-0.5 194,-0.5"/>
<text text-anchor="start" x="202" y="-29.5" font-family="Helvetica,sans-Serif" font-size="10.00">sll_m_arbitrary_degree</text>
<text text-anchor="start" x="202" y="-18.5" font-family="Helvetica,sans-Serif" font-size="10.00">_spline_interpolator_1d</text>
<text text-anchor="middle" x="259.5" y="-7.5" font-family="Helvetica,sans-Serif" font-size="10.00">::forward_fd_5pt</text>
</a>
</g>
</g>
<!-- Node2&#45;&gt;Node3 -->
<g id="edge2" class="edge">
<title>Node2&#45;&gt;Node3</title>
<path fill="none" stroke="midnightblue" d="M350.43,-21C342.2,-21 333.6,-21 325.14,-21"/>
<polygon fill="midnightblue" stroke="midnightblue" points="350.63,-24.5 360.63,-21 350.63,-17.5 350.63,-24.5"/>
</g>
<!-- Node4 -->
<g id="node4" class="node">
<title>Node4</title>
<g id="a_node4"><a xlink:href="namespacesll__m__arbitrary__degree__spline__interpolator__1d.html#aced91e0600d4237678d1e908a6fce316" target="_top" xlink:title="computing the coefficients spline with a given data_array 1D cooresponding at the values of a functio...">
<polygon fill="white" stroke="black" points="0,-0.5 0,-41.5 158,-41.5 158,-0.5 0,-0.5"/>
<text text-anchor="start" x="8" y="-29.5" font-family="Helvetica,sans-Serif" font-size="10.00">sll_m_arbitrary_degree</text>
<text text-anchor="start" x="8" y="-18.5" font-family="Helvetica,sans-Serif" font-size="10.00">_spline_interpolator_1d</text>
<text text-anchor="middle" x="79" y="-7.5" font-family="Helvetica,sans-Serif" font-size="10.00">::compute_interpolants_ad1d</text>
</a>
</g>
</g>
<!-- Node3&#45;&gt;Node4 -->
<g id="edge3" class="edge">
<title>Node3&#45;&gt;Node4</title>
<path fill="none" stroke="midnightblue" d="M183.64,-21C175.22,-21 166.62,-21 158.16,-21"/>
<polygon fill="midnightblue" stroke="midnightblue" points="183.81,-24.5 193.81,-21 183.8,-17.5 183.81,-24.5"/>
</g>
</g>
</svg>
