<?xml version="1.0" encoding="UTF-8" standalone="no"?>
<!DOCTYPE svg PUBLIC "-//W3C//DTD SVG 1.1//EN"
 "http://www.w3.org/Graphics/SVG/1.1/DTD/svg11.dtd">
<!-- Generated by graphviz version 2.43.0 (0)
 -->
<!-- Title: lagr_6pt_coeff Pages: 1 -->
<!--zoomable 345 -->
<svg id="main" version="1.1" xmlns="http://www.w3.org/2000/svg" xmlns:xlink="http://www.w3.org/1999/xlink" xml:space="preserve" onload="init(evt)">
<style type="text/css"><![CDATA[
.edge:hover path { stroke: red; }
.edge:hover polygon { stroke: red; fill: red; }
]]></style>
<script type="text/javascript"><![CDATA[
var edges = document.getElementsByTagName('g');
if (edges && edges.length) {
  for (var i=0;i<edges.length;i++) {
    if (edges[i].id.substr(0,4)=='edge') {
      edges[i].setAttribute('class','edge');
    }
  }
}
]]></script>
        <defs>
                <circle id="rim" cx="0" cy="0" r="7"/>
                <circle id="rim2" cx="0" cy="0" r="3.5"/>
                <g id="zoomPlus">
                        <use xlink:href="#rim" fill="#404040">
                                <set attributeName="fill" to="#808080" begin="zoomplus.mouseover" end="zoomplus.mouseout"/>
                        </use>
                        <path d="M-4,0h8M0,-4v8" fill="none" stroke="white" stroke-width="1.5" pointer-events="none"/>
                </g>
                <g id="zoomMin">
                        <use xlink:href="#rim" fill="#404040">
                                <set attributeName="fill" to="#808080" begin="zoomminus.mouseover" end="zoomminus.mouseout"/>
                        </use>
                        <path d="M-4,0h8" fill="none" stroke="white" stroke-width="1.5" pointer-events="none"/>
                </g>
                <g id="dirArrow">
                        <path fill="none" stroke="white" stroke-width="1.5" d="M0,-3.0v7 M-2.5,-0.5L0,-3.0L2.5,-0.5"/>
                </g>
               <g id="resetDef">
                       <use xlink:href="#rim2" fill="#404040">
                               <set attributeName="fill" to="#808080" begin="reset.mouseover" end="reset.mouseout"/>
                       </use>
               </g>
        </defs>

<script type="text/javascript">
var viewWidth = 800;
var viewHeight = 345;
var sectionId = 'dynsection-22';
</script>
<script xlink:href="svgpan.js"/>
<svg id="graph" class="graph">
<g id="viewport">
<title>lagr_6pt_coeff</title>
<polygon fill="white" stroke="transparent" points="-4,4 -4,-341 796,-341 796,4 -4,4"/>
<!-- Node1 -->
<g id="node1" class="node">
<title>Node1</title>
<g id="a_node1"><a xlink:title="Compute coefficients for Lagrange interpolation for normalized displacement p.">
<polygon fill="#bfbfbf" stroke="black" points="706,-218 706,-237 792,-237 792,-218 706,-218"/>
<text text-anchor="middle" x="749" y="-225" font-family="Helvetica,sans-Serif" font-size="10.00">lagr_6pt_coeff</text>
</a>
</g>
</g>
<!-- Node2 -->
<g id="node2" class="node">
<title>Node2</title>
<g id="a_node2"><a xlink:href="namespacesll__m__lagrange__interpolation__1d__fast.html#a4256739817750a8ef482115919ff3469" target="_top" xlink:title="single point 6&#45;pt&#45;lagrange interpolation">
<polygon fill="white" stroke="black" points="602.5,-240 602.5,-259 658.5,-259 658.5,-240 602.5,-240"/>
<text text-anchor="middle" x="630.5" y="-247" font-family="Helvetica,sans-Serif" font-size="10.00">lagr_6pt</text>
</a>
</g>
</g>
<!-- Node1&#45;&gt;Node2 -->
<g id="edge1" class="edge">
<title>Node1&#45;&gt;Node2</title>
<path fill="none" stroke="midnightblue" d="M695.78,-237.36C682.94,-239.79 669.71,-242.28 658.61,-244.38"/>
<polygon fill="midnightblue" stroke="midnightblue" points="696.76,-240.74 705.94,-235.44 695.47,-233.86 696.76,-240.74"/>
</g>
<!-- Node4 -->
<g id="node4" class="node">
<title>Node4</title>
<g id="a_node4"><a xlink:href="namespacesll__m__lagrange__interpolation__1d__fast.html#a7f4d88f171a861b1efa88dc385690aad" target="_top" xlink:title="vectorizable 6&#45;pt&#45;lagrange interpolation">
<polygon fill="white" stroke="black" points="591,-199 591,-218 670,-218 670,-199 591,-199"/>
<text text-anchor="middle" x="630.5" y="-206" font-family="Helvetica,sans-Serif" font-size="10.00">lagr_6pt_vec</text>
</a>
</g>
</g>
<!-- Node1&#45;&gt;Node4 -->
<g id="edge3" class="edge">
<title>Node1&#45;&gt;Node4</title>
<path fill="none" stroke="midnightblue" d="M695.86,-219C687.17,-217.58 678.29,-216.13 670.01,-214.78"/>
<polygon fill="midnightblue" stroke="midnightblue" points="695.51,-222.49 705.94,-220.64 696.63,-215.58 695.51,-222.49"/>
</g>
<!-- Node3 -->
<g id="node3" class="node">
<title>Node3</title>
<g id="a_node3"><a xlink:href="namespacesll__m__lagrange__interpolation__1d__fast.html#aab46cfc77da4bbd363a86cdef3998b39" target="_top" xlink:title="Lagrange interpolation centered around the interval of displacement, periodic boundary condtions,...">
<polygon fill="white" stroke="black" points="373,-237.5 373,-267.5 552,-267.5 552,-237.5 373,-237.5"/>
<text text-anchor="start" x="381" y="-255.5" font-family="Helvetica,sans-Serif" font-size="10.00">sll_s_lagrange_interpolation</text>
<text text-anchor="middle" x="462.5" y="-244.5" font-family="Helvetica,sans-Serif" font-size="10.00">_1d_fast_disp_centered_periodicl</text>
</a>
</g>
</g>
<!-- Node2&#45;&gt;Node3 -->
<g id="edge2" class="edge">
<title>Node2&#45;&gt;Node3</title>
<path fill="none" stroke="midnightblue" d="M592.4,-250.17C580.36,-250.39 566.43,-250.64 552.28,-250.9"/>
<polygon fill="midnightblue" stroke="midnightblue" points="592.52,-253.67 602.46,-249.99 592.4,-246.67 592.52,-253.67"/>
</g>
<!-- Node4&#45;&gt;Node3 -->
<g id="edge11" class="edge">
<title>Node4&#45;&gt;Node3</title>
<path fill="none" stroke="midnightblue" d="M584.39,-220.65C574.7,-223.25 564.51,-225.98 555,-228.5 544.05,-231.41 532.35,-234.49 521.11,-237.44"/>
<polygon fill="midnightblue" stroke="midnightblue" points="585.52,-223.98 594.27,-218 583.7,-217.22 585.52,-223.98"/>
</g>
<!-- Node5 -->
<g id="node5" class="node">
<title>Node5</title>
<g id="a_node5"><a xlink:href="namespacesll__m__lagrange__interpolation__1d__fast.html#acf928f88f9fe7cad7c9ee88b7526444d" target="_top" xlink:title=" ">
<polygon fill="white" stroke="black" points="370,-188.5 370,-218.5 555,-218.5 555,-188.5 370,-188.5"/>
<text text-anchor="start" x="378" y="-206.5" font-family="Helvetica,sans-Serif" font-size="10.00">sll_s_lagrange_interpolation</text>
<text text-anchor="middle" x="462.5" y="-195.5" font-family="Helvetica,sans-Serif" font-size="10.00">_1d_fast_disp_centered_halo_cells</text>
</a>
</g>
</g>
<!-- Node4&#45;&gt;Node5 -->
<g id="edge4" class="edge">
<title>Node4&#45;&gt;Node5</title>
<path fill="none" stroke="midnightblue" d="M580.92,-207.04C572.71,-206.79 563.95,-206.53 555.06,-206.26"/>
<polygon fill="midnightblue" stroke="midnightblue" points="580.9,-210.54 591,-207.34 581.11,-203.54 580.9,-210.54"/>
</g>
<!-- Node12 -->
<g id="node12" class="node">
<title>Node12</title>
<g id="a_node12"><a xlink:href="namespacesll__m__lagrange__interpolation__1d__fast.html#a69a39cf6e3124d0623dc09ab168e7bfc" target="_top" xlink:title="Even Lagrange interpolation with halo cells and no interval shift, i.e. p must be between zero and on...">
<polygon fill="white" stroke="black" points="379,-82.5 379,-112.5 546,-112.5 546,-82.5 379,-82.5"/>
<text text-anchor="start" x="387" y="-100.5" font-family="Helvetica,sans-Serif" font-size="10.00">sll_s_lagrange_interpolation</text>
<text text-anchor="middle" x="462.5" y="-89.5" font-family="Helvetica,sans-Serif" font-size="10.00">_1d_fast_disp_even_halo_cells</text>
</a>
</g>
</g>
<!-- Node4&#45;&gt;Node12 -->
<g id="edge12" class="edge">
<title>Node4&#45;&gt;Node12</title>
<path fill="none" stroke="midnightblue" d="M606.42,-193.07C574.62,-171.8 517.68,-133.73 486.12,-112.62"/>
<polygon fill="midnightblue" stroke="midnightblue" points="604.8,-196.19 615.06,-198.84 608.69,-190.38 604.8,-196.19"/>
</g>
<!-- Node6 -->
<g id="node6" class="node">
<title>Node6</title>
<g id="a_node6"><a xlink:href="namespacesll__m__advection__6d__lagrange__dd__slim.html#a62cbea517fa78fb9692a0e2709736b61" target="_top" xlink:title="Advection along eta1 with displacement dependent on eta4.">
<polygon fill="white" stroke="black" points="182,-284.5 182,-336.5 334,-336.5 334,-284.5 182,-284.5"/>
<text text-anchor="start" x="190" y="-324.5" font-family="Helvetica,sans-Serif" font-size="10.00">sll_m_advection_6d</text>
<text text-anchor="start" x="190" y="-313.5" font-family="Helvetica,sans-Serif" font-size="10.00">_lagrange_dd_slim::sll</text>
<text text-anchor="start" x="190" y="-302.5" font-family="Helvetica,sans-Serif" font-size="10.00">_s_advection_6d_lagrange</text>
<text text-anchor="middle" x="258" y="-291.5" font-family="Helvetica,sans-Serif" font-size="10.00">_dd_slim_advect_eta1_core</text>
</a>
</g>
</g>
<!-- Node5&#45;&gt;Node6 -->
<g id="edge5" class="edge">
<title>Node5&#45;&gt;Node6</title>
<path fill="none" stroke="midnightblue" d="M379.29,-222.99C376.07,-224.68 372.96,-226.51 370,-228.5 348.16,-243.18 354.51,-259.02 334,-275.5 330.08,-278.65 325.83,-281.59 321.41,-284.33"/>
<polygon fill="midnightblue" stroke="midnightblue" points="381.05,-226.03 388.61,-218.61 378.07,-219.7 381.05,-226.03"/>
</g>
<!-- Node8 -->
<g id="node8" class="node">
<title>Node8</title>
<g id="a_node8"><a xlink:href="namespacesll__m__advection__6d__lagrange__dd__slim.html#a0904cd60998879cd173a09d56872f9a8" target="_top" xlink:title="Advection along eta2 with displacement dependent on eta5.">
<polygon fill="white" stroke="black" points="182,-213.5 182,-265.5 334,-265.5 334,-213.5 182,-213.5"/>
<text text-anchor="start" x="190" y="-253.5" font-family="Helvetica,sans-Serif" font-size="10.00">sll_m_advection_6d</text>
<text text-anchor="start" x="190" y="-242.5" font-family="Helvetica,sans-Serif" font-size="10.00">_lagrange_dd_slim::sll</text>
<text text-anchor="start" x="190" y="-231.5" font-family="Helvetica,sans-Serif" font-size="10.00">_s_advection_6d_lagrange</text>
<text text-anchor="middle" x="258" y="-220.5" font-family="Helvetica,sans-Serif" font-size="10.00">_dd_slim_advect_eta2_core</text>
</a>
</g>
</g>
<!-- Node5&#45;&gt;Node8 -->
<g id="edge7" class="edge">
<title>Node5&#45;&gt;Node8</title>
<path fill="none" stroke="midnightblue" d="M367.03,-220.29C356.03,-222.25 344.93,-224.22 334.24,-226.12"/>
<polygon fill="midnightblue" stroke="midnightblue" points="367.86,-223.7 377.09,-218.51 366.63,-216.81 367.86,-223.7"/>
</g>
<!-- Node10 -->
<g id="node10" class="node">
<title>Node10</title>
<g id="a_node10"><a xlink:href="namespacesll__m__advection__6d__lagrange__dd__slim.html#aade1dba92473114f13078d5d3e64cbc4" target="_top" xlink:title="Advection along eta3 with displacement dependent on eta6.">
<polygon fill="white" stroke="black" points="182,-142.5 182,-194.5 334,-194.5 334,-142.5 182,-142.5"/>
<text text-anchor="start" x="190" y="-182.5" font-family="Helvetica,sans-Serif" font-size="10.00">sll_m_advection_6d</text>
<text text-anchor="start" x="190" y="-171.5" font-family="Helvetica,sans-Serif" font-size="10.00">_lagrange_dd_slim::sll</text>
<text text-anchor="start" x="190" y="-160.5" font-family="Helvetica,sans-Serif" font-size="10.00">_s_advection_6d_lagrange</text>
<text text-anchor="middle" x="258" y="-149.5" font-family="Helvetica,sans-Serif" font-size="10.00">_dd_slim_advect_eta3_core</text>
</a>
</g>
</g>
<!-- Node5&#45;&gt;Node10 -->
<g id="edge9" class="edge">
<title>Node5&#45;&gt;Node10</title>
<path fill="none" stroke="midnightblue" d="M364.35,-186.71C354.22,-184.96 344.03,-183.2 334.2,-181.5"/>
<polygon fill="midnightblue" stroke="midnightblue" points="364,-190.2 374.45,-188.45 365.19,-183.3 364,-190.2"/>
</g>
<!-- Node7 -->
<g id="node7" class="node">
<title>Node7</title>
<g id="a_node7"><a xlink:href="namespacesll__m__advection__6d__lagrange__dd__slim.html#aac270d7c18a9013ff3f9001a4070abf6" target="_top" xlink:title="Advection along eta1 with displacement dependent on eta4.">
<polygon fill="white" stroke="black" points="0,-284.5 0,-336.5 146,-336.5 146,-284.5 0,-284.5"/>
<text text-anchor="start" x="8" y="-324.5" font-family="Helvetica,sans-Serif" font-size="10.00">sll_m_advection_6d</text>
<text text-anchor="start" x="8" y="-313.5" font-family="Helvetica,sans-Serif" font-size="10.00">_lagrange_dd_slim::sll</text>
<text text-anchor="start" x="8" y="-302.5" font-family="Helvetica,sans-Serif" font-size="10.00">_s_advection_6d_lagrange</text>
<text text-anchor="middle" x="73" y="-291.5" font-family="Helvetica,sans-Serif" font-size="10.00">_dd_slim_fadvect_eta1</text>
</a>
</g>
</g>
<!-- Node6&#45;&gt;Node7 -->
<g id="edge6" class="edge">
<title>Node6&#45;&gt;Node7</title>
<path fill="none" stroke="midnightblue" d="M171.53,-310.5C163.08,-310.5 154.57,-310.5 146.28,-310.5"/>
<polygon fill="midnightblue" stroke="midnightblue" points="171.77,-314 181.77,-310.5 171.77,-307 171.77,-314"/>
</g>
<!-- Node9 -->
<g id="node9" class="node">
<title>Node9</title>
<g id="a_node9"><a xlink:href="namespacesll__m__advection__6d__lagrange__dd__slim.html#ae540c5e85b1700905246d2bdeff8d2d8" target="_top" xlink:title="Advection along eta2 with displacement dependent on eta5.">
<polygon fill="white" stroke="black" points="0,-213.5 0,-265.5 146,-265.5 146,-213.5 0,-213.5"/>
<text text-anchor="start" x="8" y="-253.5" font-family="Helvetica,sans-Serif" font-size="10.00">sll_m_advection_6d</text>
<text text-anchor="start" x="8" y="-242.5" font-family="Helvetica,sans-Serif" font-size="10.00">_lagrange_dd_slim::sll</text>
<text text-anchor="start" x="8" y="-231.5" font-family="Helvetica,sans-Serif" font-size="10.00">_s_advection_6d_lagrange</text>
<text text-anchor="middle" x="73" y="-220.5" font-family="Helvetica,sans-Serif" font-size="10.00">_dd_slim_fadvect_eta2</text>
</a>
</g>
</g>
<!-- Node8&#45;&gt;Node9 -->
<g id="edge8" class="edge">
<title>Node8&#45;&gt;Node9</title>
<path fill="none" stroke="midnightblue" d="M171.53,-239.5C163.08,-239.5 154.57,-239.5 146.28,-239.5"/>
<polygon fill="midnightblue" stroke="midnightblue" points="171.77,-243 181.77,-239.5 171.77,-236 171.77,-243"/>
</g>
<!-- Node11 -->
<g id="node11" class="node">
<title>Node11</title>
<g id="a_node11"><a xlink:href="namespacesll__m__advection__6d__lagrange__dd__slim.html#a8e7657eabf3e2b64a4c1402e8a4dc8d3" target="_top" xlink:title="Advection along eta3 with displacement dependent on eta6.">
<polygon fill="white" stroke="black" points="0,-142.5 0,-194.5 146,-194.5 146,-142.5 0,-142.5"/>
<text text-anchor="start" x="8" y="-182.5" font-family="Helvetica,sans-Serif" font-size="10.00">sll_m_advection_6d</text>
<text text-anchor="start" x="8" y="-171.5" font-family="Helvetica,sans-Serif" font-size="10.00">_lagrange_dd_slim::sll</text>
<text text-anchor="start" x="8" y="-160.5" font-family="Helvetica,sans-Serif" font-size="10.00">_s_advection_6d_lagrange</text>
<text text-anchor="middle" x="73" y="-149.5" font-family="Helvetica,sans-Serif" font-size="10.00">_dd_slim_fadvect_eta3</text>
</a>
</g>
</g>
<!-- Node10&#45;&gt;Node11 -->
<g id="edge10" class="edge">
<title>Node10&#45;&gt;Node11</title>
<path fill="none" stroke="midnightblue" d="M171.53,-168.5C163.08,-168.5 154.57,-168.5 146.28,-168.5"/>
<polygon fill="midnightblue" stroke="midnightblue" points="171.77,-172 181.77,-168.5 171.77,-165 171.77,-172"/>
</g>
<!-- Node13 -->
<g id="node13" class="node">
<title>Node13</title>
<g id="a_node13"><a xlink:href="namespacesll__m__advection__6d__lagrange__dd__slim.html#aefb7f2423e3da917aea1b449c3a67bc0" target="_top" xlink:title="Advection along eta1 with displacement dependent on eta4&#45;5.">
<polygon fill="white" stroke="black" points="182.5,-71.5 182.5,-123.5 333.5,-123.5 333.5,-71.5 182.5,-71.5"/>
<text text-anchor="start" x="190.5" y="-111.5" font-family="Helvetica,sans-Serif" font-size="10.00">sll_m_advection_6d</text>
<text text-anchor="start" x="190.5" y="-100.5" font-family="Helvetica,sans-Serif" font-size="10.00">_lagrange_dd_slim::sll</text>
<text text-anchor="start" x="190.5" y="-89.5" font-family="Helvetica,sans-Serif" font-size="10.00">_s_advection_6d_clagrange</text>
<text text-anchor="middle" x="258" y="-78.5" font-family="Helvetica,sans-Serif" font-size="10.00">_dd_slim_advect_eta1_d45</text>
</a>
</g>
</g>
<!-- Node12&#45;&gt;Node13 -->
<g id="edge13" class="edge">
<title>Node12&#45;&gt;Node13</title>
<path fill="none" stroke="midnightblue" d="M368.59,-97.5C356.86,-97.5 344.98,-97.5 333.58,-97.5"/>
<polygon fill="midnightblue" stroke="midnightblue" points="368.84,-101 378.84,-97.5 368.84,-94 368.84,-101"/>
</g>
<!-- Node14 -->
<g id="node14" class="node">
<title>Node14</title>
<g id="a_node14"><a xlink:href="namespacesll__m__advection__6d__lagrange__dd__slim.html#a70497b17d553f0ed66104b1230592120" target="_top" xlink:title="Advection along eta2 with displacement dependent on eta4&#45;5.">
<polygon fill="white" stroke="black" points="182.5,-0.5 182.5,-52.5 333.5,-52.5 333.5,-0.5 182.5,-0.5"/>
<text text-anchor="start" x="190.5" y="-40.5" font-family="Helvetica,sans-Serif" font-size="10.00">sll_m_advection_6d</text>
<text text-anchor="start" x="190.5" y="-29.5" font-family="Helvetica,sans-Serif" font-size="10.00">_lagrange_dd_slim::sll</text>
<text text-anchor="start" x="190.5" y="-18.5" font-family="Helvetica,sans-Serif" font-size="10.00">_s_advection_6d_clagrange</text>
<text text-anchor="middle" x="258" y="-7.5" font-family="Helvetica,sans-Serif" font-size="10.00">_dd_slim_advect_eta2_d45</text>
</a>
</g>
</g>
<!-- Node12&#45;&gt;Node14 -->
<g id="edge14" class="edge">
<title>Node12&#45;&gt;Node14</title>
<path fill="none" stroke="midnightblue" d="M408.97,-79.08C385.93,-71 358.47,-61.38 333.39,-52.58"/>
<polygon fill="midnightblue" stroke="midnightblue" points="407.96,-82.44 418.55,-82.44 410.28,-75.83 407.96,-82.44"/>
</g>
</g>
</svg>
        <g id="navigator" transform="translate(0 0)" fill="#404254">
                <rect fill="#f2f5e9" fill-opacity="0.5" stroke="#606060" stroke-width=".5" x="0" y="0" width="60" height="60"/>
                <use id="zoomplus" xlink:href="#zoomPlus" x="17" y="9" onmousedown="handleZoom(evt,'in')"/>
                <use id="zoomminus" xlink:href="#zoomMin" x="42" y="9" onmousedown="handleZoom(evt,'out')"/>
                <use id="reset" xlink:href="#resetDef" x="30" y="36" onmousedown="handleReset()"/>
                <g id="arrowUp" xlink:href="#dirArrow" transform="translate(30 24)" onmousedown="handlePan(0,-1)">
                  <use xlink:href="#rim" fill="#404040">
                        <set attributeName="fill" to="#808080" begin="arrowUp.mouseover" end="arrowUp.mouseout"/>
                  </use>
                  <path fill="none" stroke="white" stroke-width="1.5" d="M0,-3.0v7 M-2.5,-0.5L0,-3.0L2.5,-0.5"/>
                </g>
                <g id="arrowRight" xlink:href="#dirArrow" transform="rotate(90) translate(36 -43)" onmousedown="handlePan(1,0)">
                  <use xlink:href="#rim" fill="#404040">
                        <set attributeName="fill" to="#808080" begin="arrowRight.mouseover" end="arrowRight.mouseout"/>
                  </use>
                  <path fill="none" stroke="white" stroke-width="1.5" d="M0,-3.0v7 M-2.5,-0.5L0,-3.0L2.5,-0.5"/>
                </g>
                <g id="arrowDown" xlink:href="#dirArrow" transform="rotate(180) translate(-30 -48)" onmousedown="handlePan(0,1)">
                  <use xlink:href="#rim" fill="#404040">
                        <set attributeName="fill" to="#808080" begin="arrowDown.mouseover" end="arrowDown.mouseout"/>
                  </use>
                  <path fill="none" stroke="white" stroke-width="1.5" d="M0,-3.0v7 M-2.5,-0.5L0,-3.0L2.5,-0.5"/>
                </g>
                <g id="arrowLeft" xlink:href="#dirArrow" transform="rotate(270) translate(-36 17)" onmousedown="handlePan(-1,0)">
                  <use xlink:href="#rim" fill="#404040">
                        <set attributeName="fill" to="#808080" begin="arrowLeft.mouseover" end="arrowLeft.mouseout"/>
                  </use>
                  <path fill="none" stroke="white" stroke-width="1.5" d="M0,-3.0v7 M-2.5,-0.5L0,-3.0L2.5,-0.5"/>
                </g>
        </g>
        <svg viewBox="0 0 15 15" width="100%" height="30px" preserveAspectRatio="xMaxYMin meet">
         <g id="arrow_out" transform="scale(0.3 0.3)">
          <a xlink:href="namespacesll__m__lagrange__interpolation__1d__fast_ad9f17b7a010913e89f73a0be4351071c_icgraph_org.svg" target="_base">
           <rect id="button" ry="5" rx="5" y="6" x="6" height="38" width="38"
                fill="#f2f5e9" fill-opacity="0.5" stroke="#606060" stroke-width="1.0"/>
           <path id="arrow"
             d="M 11.500037,31.436501 C 11.940474,20.09759 22.043105,11.32322 32.158766,21.979434 L 37.068811,17.246167 C 37.068811,17.246167 37.088388,32 37.088388,32 L 22.160133,31.978069 C 22.160133,31.978069 26.997745,27.140456 26.997745,27.140456 C 18.528582,18.264221 13.291696,25.230495 11.500037,31.436501 z"
             style="fill:#404040;"/>
          </a>
         </g>
        </svg>
</svg>
