<?xml version="1.0" encoding="UTF-8" standalone="no"?>
<!DOCTYPE svg PUBLIC "-//W3C//DTD SVG 1.1//EN"
 "http://www.w3.org/Graphics/SVG/1.1/DTD/svg11.dtd">
<!-- Generated by graphviz version 2.43.0 (0)
 -->
<!-- Title: box_index Pages: 1 -->
<!--zoomable 760 -->
<svg id="main" version="1.1" xmlns="http://www.w3.org/2000/svg" xmlns:xlink="http://www.w3.org/1999/xlink" xml:space="preserve" onload="init(evt)">
<style type="text/css"><![CDATA[
.edge:hover path { stroke: red; }
.edge:hover polygon { stroke: red; fill: red; }
]]></style>
<script type="text/javascript"><![CDATA[
var edges = document.getElementsByTagName('g');
if (edges && edges.length) {
  for (var i=0;i<edges.length;i++) {
    if (edges[i].id.substr(0,4)=='edge') {
      edges[i].setAttribute('class','edge');
    }
  }
}
]]></script>
        <defs>
                <circle id="rim" cx="0" cy="0" r="7"/>
                <circle id="rim2" cx="0" cy="0" r="3.5"/>
                <g id="zoomPlus">
                        <use xlink:href="#rim" fill="#404040">
                                <set attributeName="fill" to="#808080" begin="zoomplus.mouseover" end="zoomplus.mouseout"/>
                        </use>
                        <path d="M-4,0h8M0,-4v8" fill="none" stroke="white" stroke-width="1.5" pointer-events="none"/>
                </g>
                <g id="zoomMin">
                        <use xlink:href="#rim" fill="#404040">
                                <set attributeName="fill" to="#808080" begin="zoomminus.mouseover" end="zoomminus.mouseout"/>
                        </use>
                        <path d="M-4,0h8" fill="none" stroke="white" stroke-width="1.5" pointer-events="none"/>
                </g>
                <g id="dirArrow">
                        <path fill="none" stroke="white" stroke-width="1.5" d="M0,-3.0v7 M-2.5,-0.5L0,-3.0L2.5,-0.5"/>
                </g>
               <g id="resetDef">
                       <use xlink:href="#rim2" fill="#404040">
                               <set attributeName="fill" to="#808080" begin="reset.mouseover" end="reset.mouseout"/>
                       </use>
               </g>
        </defs>

<script type="text/javascript">
var viewWidth = 430;
var viewHeight = 760;
var sectionId = 'dynsection-16';
</script>
<script xlink:href="svgpan.js"/>
<svg id="graph" class="graph">
<g id="viewport">
<title>box_index</title>
<polygon fill="white" stroke="transparent" points="-4,4 -4,-755.5 426,-755.5 426,4 -4,4"/>
<!-- Node1 -->
<g id="node1" class="node">
<title>Node1</title>
<g id="a_node1"><a xlink:title="Sets the index of the splines that are involved in computations that concern splines from index box.">
<polygon fill="#bfbfbf" stroke="black" points="355,-333.5 355,-352.5 422,-352.5 422,-333.5 355,-333.5"/>
<text text-anchor="middle" x="388.5" y="-340.5" font-family="Helvetica,sans-Serif" font-size="10.00">box_index</text>
</a>
</g>
</g>
<!-- Node2 -->
<g id="node2" class="node">
<title>Node2</title>
<g id="a_node2"><a xlink:href="namespacesll__m__particle__mesh__coupling__spline__3d__feec.html#a3d59a9681d805422897243480292b311" target="_top" xlink:title="Add charge of one particle.">
<polygon fill="white" stroke="black" points="176.5,-721 176.5,-751 318.5,-751 318.5,-721 176.5,-721"/>
<text text-anchor="start" x="184.5" y="-739" font-family="Helvetica,sans-Serif" font-size="10.00">add_charge_single_spline</text>
<text text-anchor="middle" x="247.5" y="-728" font-family="Helvetica,sans-Serif" font-size="10.00">_3d_feec</text>
</a>
</g>
</g>
<!-- Node1&#45;&gt;Node2 -->
<g id="edge1" class="edge">
<title>Node1&#45;&gt;Node2</title>
<path fill="none" stroke="midnightblue" d="M386.41,-362.86C382.23,-431.67 365.14,-658.66 319,-712 316.04,-715.42 312.57,-718.36 308.79,-720.88"/>
<polygon fill="midnightblue" stroke="midnightblue" points="389.92,-362.75 387,-352.57 382.93,-362.34 389.92,-362.75"/>
</g>
<!-- Node3 -->
<g id="node3" class="node">
<title>Node3</title>
<g id="a_node3"><a xlink:href="namespacesll__m__particle__mesh__coupling__spline__3d__feec.html#a0a55d8ef4a6d5c04308d60a9811b12e2" target="_top" xlink:title="Add charge of one particle.">
<polygon fill="white" stroke="black" points="176.5,-672 176.5,-702 318.5,-702 318.5,-672 176.5,-672"/>
<text text-anchor="start" x="184.5" y="-690" font-family="Helvetica,sans-Serif" font-size="10.00">add_charge_single_spline</text>
<text text-anchor="middle" x="247.5" y="-679" font-family="Helvetica,sans-Serif" font-size="10.00">_pp_3d_feec</text>
</a>
</g>
</g>
<!-- Node1&#45;&gt;Node3 -->
<g id="edge2" class="edge">
<title>Node1&#45;&gt;Node3</title>
<path fill="none" stroke="midnightblue" d="M385.81,-362.61C380.06,-425.02 359.34,-617.63 319,-663 315.91,-666.48 312.29,-669.45 308.36,-672"/>
<polygon fill="midnightblue" stroke="midnightblue" points="389.31,-362.81 386.71,-352.53 382.34,-362.18 389.31,-362.81"/>
</g>
<!-- Node4 -->
<g id="node4" class="node">
<title>Node4</title>
<g id="a_node4"><a xlink:href="namespacesll__m__particle__mesh__coupling__spline__3d__feec.html#a2fa5107d9eae20c0154025b87489af98" target="_top" xlink:title="Add current for one particle.">
<polygon fill="white" stroke="black" points="193,-623 193,-653 302,-653 302,-623 193,-623"/>
<text text-anchor="start" x="201" y="-641" font-family="Helvetica,sans-Serif" font-size="10.00">add_current_spline</text>
<text text-anchor="middle" x="247.5" y="-630" font-family="Helvetica,sans-Serif" font-size="10.00">_3d_feec</text>
</a>
</g>
</g>
<!-- Node1&#45;&gt;Node4 -->
<g id="edge3" class="edge">
<title>Node1&#45;&gt;Node4</title>
<path fill="none" stroke="midnightblue" d="M384.93,-362.73C377.29,-418.48 353.14,-575.55 319,-613 314.28,-618.18 308.41,-622.29 302.09,-625.55"/>
<polygon fill="midnightblue" stroke="midnightblue" points="388.41,-363.1 386.27,-352.73 381.47,-362.17 388.41,-363.1"/>
</g>
<!-- Node5 -->
<g id="node5" class="node">
<title>Node5</title>
<g id="a_node5"><a xlink:href="namespacesll__m__particle__mesh__coupling__spline__3d__feec.html#aa4424dde1a396ef50ec3fcb4e9bbbd29" target="_top" xlink:title="Add current for one particle and update v (according to H_p1 part in Hamiltonian splitting),...">
<polygon fill="white" stroke="black" points="183.5,-562.5 183.5,-603.5 311.5,-603.5 311.5,-562.5 183.5,-562.5"/>
<text text-anchor="start" x="191.5" y="-591.5" font-family="Helvetica,sans-Serif" font-size="10.00">add_current_update</text>
<text text-anchor="start" x="191.5" y="-580.5" font-family="Helvetica,sans-Serif" font-size="10.00">_v_component1_spline</text>
<text text-anchor="middle" x="247.5" y="-569.5" font-family="Helvetica,sans-Serif" font-size="10.00">_3d_feec</text>
</a>
</g>
</g>
<!-- Node1&#45;&gt;Node5 -->
<g id="edge4" class="edge">
<title>Node1&#45;&gt;Node5</title>
<path fill="none" stroke="midnightblue" d="M386.37,-362.74C383.03,-403.43 369.92,-497.44 319,-553 315.76,-556.53 312.04,-559.66 308.04,-562.43"/>
<polygon fill="midnightblue" stroke="midnightblue" points="389.86,-362.98 387.08,-352.76 382.88,-362.48 389.86,-362.98"/>
</g>
<!-- Node6 -->
<g id="node6" class="node">
<title>Node6</title>
<g id="a_node6"><a xlink:href="namespacesll__m__particle__mesh__coupling__spline__3d__feec.html#a3ed502ad3a148ff26d92b7332b2ebfb0" target="_top" xlink:title="Add current for one particle and update v (according to H_p2 part in Hamiltonian splitting),...">
<polygon fill="white" stroke="black" points="183.5,-502.5 183.5,-543.5 311.5,-543.5 311.5,-502.5 183.5,-502.5"/>
<text text-anchor="start" x="191.5" y="-531.5" font-family="Helvetica,sans-Serif" font-size="10.00">add_current_update</text>
<text text-anchor="start" x="191.5" y="-520.5" font-family="Helvetica,sans-Serif" font-size="10.00">_v_component2_spline</text>
<text text-anchor="middle" x="247.5" y="-509.5" font-family="Helvetica,sans-Serif" font-size="10.00">_3d_feec</text>
</a>
</g>
</g>
<!-- Node1&#45;&gt;Node6 -->
<g id="edge5" class="edge">
<title>Node1&#45;&gt;Node6</title>
<path fill="none" stroke="midnightblue" d="M383.39,-362.6C375.85,-394.05 356.97,-456.01 319,-493 315.38,-496.53 311.28,-499.67 306.92,-502.46"/>
<polygon fill="midnightblue" stroke="midnightblue" points="386.81,-363.36 385.6,-352.84 379.98,-361.82 386.81,-363.36"/>
</g>
<!-- Node7 -->
<g id="node7" class="node">
<title>Node7</title>
<g id="a_node7"><a xlink:href="namespacesll__m__particle__mesh__coupling__spline__3d__feec.html#a4fd7d7b3daffb8d0be8ae656ef479b8c" target="_top" xlink:title="Add current for one particle and update v (according to H_p3 part in Hamiltonian splitting),...">
<polygon fill="white" stroke="black" points="183.5,-442.5 183.5,-483.5 311.5,-483.5 311.5,-442.5 183.5,-442.5"/>
<text text-anchor="start" x="191.5" y="-471.5" font-family="Helvetica,sans-Serif" font-size="10.00">add_current_update</text>
<text text-anchor="start" x="191.5" y="-460.5" font-family="Helvetica,sans-Serif" font-size="10.00">_v_component3_spline</text>
<text text-anchor="middle" x="247.5" y="-449.5" font-family="Helvetica,sans-Serif" font-size="10.00">_3d_feec</text>
</a>
</g>
</g>
<!-- Node1&#45;&gt;Node7 -->
<g id="edge6" class="edge">
<title>Node1&#45;&gt;Node7</title>
<path fill="none" stroke="midnightblue" d="M377.38,-361.49C365.63,-381.47 344.57,-413.1 319,-433 314.59,-436.43 309.73,-439.54 304.69,-442.35"/>
<polygon fill="midnightblue" stroke="midnightblue" points="380.47,-363.14 382.38,-352.72 374.38,-359.68 380.47,-363.14"/>
</g>
<!-- Node8 -->
<g id="node8" class="node">
<title>Node8</title>
<g id="a_node8"><a xlink:href="namespacesll__m__particle__mesh__coupling__spline__3d__feec.html#a22ae487537ad43f177353d21e1a64c40" target="_top" xlink:title="Add current for one particle and update v (according to H_p1 part in Hamiltonian splitting),...">
<polygon fill="white" stroke="black" points="176,-382.5 176,-423.5 319,-423.5 319,-382.5 176,-382.5"/>
<text text-anchor="start" x="184" y="-411.5" font-family="Helvetica,sans-Serif" font-size="10.00">add_current_update</text>
<text text-anchor="start" x="184" y="-400.5" font-family="Helvetica,sans-Serif" font-size="10.00">_v_primitive_component1</text>
<text text-anchor="middle" x="247.5" y="-389.5" font-family="Helvetica,sans-Serif" font-size="10.00">_spline_3d_feec</text>
</a>
</g>
</g>
<!-- Node1&#45;&gt;Node8 -->
<g id="edge7" class="edge">
<title>Node1&#45;&gt;Node8</title>
<path fill="none" stroke="midnightblue" d="M356.54,-356.64C344.8,-361.79 331.29,-367.69 319,-373 311.92,-376.06 304.42,-379.27 297.07,-382.41"/>
<polygon fill="midnightblue" stroke="midnightblue" points="358.18,-359.74 365.93,-352.52 355.37,-353.33 358.18,-359.74"/>
</g>
<!-- Node9 -->
<g id="node9" class="node">
<title>Node9</title>
<g id="a_node9"><a xlink:href="namespacesll__m__particle__mesh__coupling__spline__3d__feec.html#a5b784241af06ce752db04d2c2e120736" target="_top" xlink:title="Add current for one particle and update v (according to H_p2 part in Hamiltonian splitting),...">
<polygon fill="white" stroke="black" points="176,-322.5 176,-363.5 319,-363.5 319,-322.5 176,-322.5"/>
<text text-anchor="start" x="184" y="-351.5" font-family="Helvetica,sans-Serif" font-size="10.00">add_current_update</text>
<text text-anchor="start" x="184" y="-340.5" font-family="Helvetica,sans-Serif" font-size="10.00">_v_primitive_component2</text>
<text text-anchor="middle" x="247.5" y="-329.5" font-family="Helvetica,sans-Serif" font-size="10.00">_spline_3d_feec</text>
</a>
</g>
</g>
<!-- Node1&#45;&gt;Node9 -->
<g id="edge8" class="edge">
<title>Node1&#45;&gt;Node9</title>
<path fill="none" stroke="midnightblue" d="M344.67,-343C336.59,-343 327.95,-343 319.28,-343"/>
<polygon fill="midnightblue" stroke="midnightblue" points="344.91,-346.5 354.91,-343 344.91,-339.5 344.91,-346.5"/>
</g>
<!-- Node10 -->
<g id="node10" class="node">
<title>Node10</title>
<g id="a_node10"><a xlink:href="namespacesll__m__particle__mesh__coupling__spline__3d__feec.html#a20bf338104ac141fd28d6f8fab376230" target="_top" xlink:title="Add current for one particle and update v (according to H_p3 part in Hamiltonian splitting),...">
<polygon fill="white" stroke="black" points="176,-262.5 176,-303.5 319,-303.5 319,-262.5 176,-262.5"/>
<text text-anchor="start" x="184" y="-291.5" font-family="Helvetica,sans-Serif" font-size="10.00">add_current_update</text>
<text text-anchor="start" x="184" y="-280.5" font-family="Helvetica,sans-Serif" font-size="10.00">_v_primitive_component3</text>
<text text-anchor="middle" x="247.5" y="-269.5" font-family="Helvetica,sans-Serif" font-size="10.00">_spline_3d_feec</text>
</a>
</g>
</g>
<!-- Node1&#45;&gt;Node10 -->
<g id="edge9" class="edge">
<title>Node1&#45;&gt;Node10</title>
<path fill="none" stroke="midnightblue" d="M356.54,-329.36C344.8,-324.21 331.29,-318.31 319,-313 311.92,-309.94 304.42,-306.73 297.07,-303.59"/>
<polygon fill="midnightblue" stroke="midnightblue" points="355.37,-332.67 365.93,-333.48 358.18,-326.26 355.37,-332.67"/>
</g>
<!-- Node11 -->
<g id="node11" class="node">
<title>Node11</title>
<g id="a_node11"><a xlink:href="namespacesll__m__particle__mesh__coupling__spline__3d__feec.html#a6e5cdba87db27bf8200f27471b1ac4b8" target="_top" xlink:title="Add charge of one particle.">
<polygon fill="white" stroke="black" points="185,-213 185,-243 310,-243 310,-213 185,-213"/>
<text text-anchor="start" x="193" y="-231" font-family="Helvetica,sans-Serif" font-size="10.00">add_particle_mass_od</text>
<text text-anchor="middle" x="247.5" y="-220" font-family="Helvetica,sans-Serif" font-size="10.00">_spline_3d_feec</text>
</a>
</g>
</g>
<!-- Node1&#45;&gt;Node11 -->
<g id="edge10" class="edge">
<title>Node1&#45;&gt;Node11</title>
<path fill="none" stroke="midnightblue" d="M377.79,-324.52C366.28,-304.3 345.31,-272.2 319,-253 313.76,-249.17 307.87,-245.89 301.79,-243.08"/>
<polygon fill="midnightblue" stroke="midnightblue" points="374.78,-326.31 382.66,-333.39 380.91,-322.94 374.78,-326.31"/>
</g>
<!-- Node12 -->
<g id="node12" class="node">
<title>Node12</title>
<g id="a_node12"><a xlink:href="namespacesll__m__particle__mesh__coupling__spline__3d__feec.html#aa140b0df1d596e28212370cb43bc13b9" target="_top" xlink:title="Add charge of one particle.">
<polygon fill="white" stroke="black" points="176,-164 176,-194 319,-194 319,-164 176,-164"/>
<text text-anchor="start" x="184" y="-182" font-family="Helvetica,sans-Serif" font-size="10.00">add_particle_mass_spline</text>
<text text-anchor="middle" x="247.5" y="-171" font-family="Helvetica,sans-Serif" font-size="10.00">_3d_feec</text>
</a>
</g>
</g>
<!-- Node1&#45;&gt;Node12 -->
<g id="edge11" class="edge">
<title>Node1&#45;&gt;Node12</title>
<path fill="none" stroke="midnightblue" d="M382.9,-323.35C374.92,-293.48 355.72,-236.66 319,-204 314.63,-200.12 309.62,-196.83 304.33,-194.04"/>
<polygon fill="midnightblue" stroke="midnightblue" points="379.59,-324.54 385.42,-333.38 386.37,-322.83 379.59,-324.54"/>
</g>
<!-- Node13 -->
<g id="node13" class="node">
<title>Node13</title>
<g id="a_node13"><a xlink:href="namespacesll__m__particle__mesh__coupling__spline__3d__feec.html#a6fe5546e2b08b0ee109be5768ae6fbf7" target="_top" xlink:title="Evaluate field at at position position.">
<polygon fill="white" stroke="black" points="187.5,-115 187.5,-145 307.5,-145 307.5,-115 187.5,-115"/>
<text text-anchor="start" x="195.5" y="-133" font-family="Helvetica,sans-Serif" font-size="10.00">evaluate_field_single</text>
<text text-anchor="middle" x="247.5" y="-122" font-family="Helvetica,sans-Serif" font-size="10.00">_spline_3d_feec</text>
</a>
</g>
</g>
<!-- Node1&#45;&gt;Node13 -->
<g id="edge12" class="edge">
<title>Node1&#45;&gt;Node13</title>
<path fill="none" stroke="midnightblue" d="M385.75,-323.04C381.37,-285.11 366.62,-202.21 319,-155 315.13,-151.16 310.63,-147.91 305.81,-145.15"/>
<polygon fill="midnightblue" stroke="midnightblue" points="382.3,-323.69 386.8,-333.28 389.26,-322.97 382.3,-323.69"/>
</g>
<!-- Node14 -->
<g id="node14" class="node">
<title>Node14</title>
<g id="a_node14"><a xlink:href="namespacesll__m__particle__mesh__coupling__spline__3d__feec.html#a22b4a15e45a35cda93472d3bc8576718" target="_top" xlink:title="Helper function for add_current_3d, takes care of the per box computations.">
<polygon fill="white" stroke="black" points="191,-76.5 191,-95.5 304,-95.5 304,-76.5 191,-76.5"/>
<text text-anchor="middle" x="247.5" y="-83.5" font-family="Helvetica,sans-Serif" font-size="10.00">integrate_spline_3d</text>
</a>
</g>
</g>
<!-- Node1&#45;&gt;Node14 -->
<g id="edge13" class="edge">
<title>Node1&#45;&gt;Node14</title>
<path fill="none" stroke="midnightblue" d="M387.82,-322.98C387.42,-277.69 379.88,-166.59 319,-106 314.67,-101.69 309.49,-98.3 303.92,-95.62"/>
<polygon fill="midnightblue" stroke="midnightblue" points="384.32,-323.23 387.8,-333.24 391.32,-323.25 384.32,-323.23"/>
</g>
<!-- Node16 -->
<g id="node16" class="node">
<title>Node16</title>
<g id="a_node16"><a xlink:href="namespacesll__m__particle__mesh__coupling__spline__3d__feec.html#abb34c56e9e82a9162516ac57ad2d2f69" target="_top" xlink:title="Helper function for add_current_evaluate that takes care of the per&#45;cell computations.">
<polygon fill="white" stroke="black" points="202,-38.5 202,-57.5 293,-57.5 293,-38.5 202,-38.5"/>
<text text-anchor="middle" x="247.5" y="-45.5" font-family="Helvetica,sans-Serif" font-size="10.00">point_add_eval</text>
</a>
</g>
</g>
<!-- Node1&#45;&gt;Node16 -->
<g id="edge15" class="edge">
<title>Node1&#45;&gt;Node16</title>
<path fill="none" stroke="midnightblue" d="M385.18,-323.08C378.14,-266.07 355.29,-104.03 319,-67 312.08,-59.94 302.83,-55.42 293.32,-52.54"/>
<polygon fill="midnightblue" stroke="midnightblue" points="381.74,-323.78 386.41,-333.29 388.69,-322.94 381.74,-323.78"/>
</g>
<!-- Node18 -->
<g id="node18" class="node">
<title>Node18</title>
<g id="a_node18"><a xlink:href="namespacesll__m__particle__mesh__coupling__spline__3d__feec.html#a8f9df7b6f3935c1b71082899f51d7419" target="_top" xlink:title="Helper function for add_current_evaluate_int, takes care of per cell computations.">
<polygon fill="white" stroke="black" points="182.5,-0.5 182.5,-19.5 312.5,-19.5 312.5,-0.5 182.5,-0.5"/>
<text text-anchor="middle" x="247.5" y="-7.5" font-family="Helvetica,sans-Serif" font-size="10.00">point_add_eval_subcyc</text>
</a>
</g>
</g>
<!-- Node1&#45;&gt;Node18 -->
<g id="edge17" class="edge">
<title>Node1&#45;&gt;Node18</title>
<path fill="none" stroke="midnightblue" d="M385.84,-323.24C380.23,-261.23 360.03,-72.07 319,-29 315.33,-25.15 310.96,-22.04 306.23,-19.55"/>
<polygon fill="midnightblue" stroke="midnightblue" points="382.36,-323.62 386.72,-333.27 389.33,-323.01 382.36,-323.62"/>
</g>
<!-- Node15 -->
<g id="node15" class="node">
<title>Node15</title>
<g id="a_node15"><a xlink:href="namespacesll__m__particle__mesh__coupling__spline__3d__feec.html#a1faf5f4d06b04318dbe2466e86636fb6" target="_top" xlink:title="Add current via line integral (when x changes along all three directions)">
<polygon fill="white" stroke="black" points="24,-76.5 24,-95.5 116,-95.5 116,-76.5 24,-76.5"/>
<text text-anchor="middle" x="70" y="-83.5" font-family="Helvetica,sans-Serif" font-size="10.00">add_current_3d</text>
</a>
</g>
</g>
<!-- Node14&#45;&gt;Node15 -->
<g id="edge14" class="edge">
<title>Node14&#45;&gt;Node15</title>
<path fill="none" stroke="midnightblue" d="M180.9,-86C159.34,-86 135.88,-86 116.2,-86"/>
<polygon fill="midnightblue" stroke="midnightblue" points="180.97,-89.5 190.97,-86 180.97,-82.5 180.97,-89.5"/>
</g>
<!-- Node17 -->
<g id="node17" class="node">
<title>Node17</title>
<g id="a_node17"><a xlink:href="namespacesll__m__particle__mesh__coupling__spline__3d__feec.html#ac7566abd69c5bb038009fab3e9939984" target="_top" xlink:title="Add current via line integral and evaluate spline.">
<polygon fill="white" stroke="black" points="9,-38.5 9,-57.5 131,-57.5 131,-38.5 9,-38.5"/>
<text text-anchor="middle" x="70" y="-45.5" font-family="Helvetica,sans-Serif" font-size="10.00">add_current_evaluate</text>
</a>
</g>
</g>
<!-- Node16&#45;&gt;Node17 -->
<g id="edge16" class="edge">
<title>Node16&#45;&gt;Node17</title>
<path fill="none" stroke="midnightblue" d="M191.68,-48C172.48,-48 150.83,-48 131.22,-48"/>
<polygon fill="midnightblue" stroke="midnightblue" points="191.76,-51.5 201.76,-48 191.76,-44.5 191.76,-51.5"/>
</g>
<!-- Node19 -->
<g id="node19" class="node">
<title>Node19</title>
<g id="a_node19"><a xlink:href="namespacesll__m__particle__mesh__coupling__spline__3d__feec.html#a66b7b42c89a2949f004571f1deef0161" target="_top" xlink:title="Evaluates the integral int_{poisition_old}^{position_new} field(x) d x and the integrated current.">
<polygon fill="white" stroke="black" points="0,-0.5 0,-19.5 140,-19.5 140,-0.5 0,-0.5"/>
<text text-anchor="middle" x="70" y="-7.5" font-family="Helvetica,sans-Serif" font-size="10.00">add_current_evaluate_int</text>
</a>
</g>
</g>
<!-- Node18&#45;&gt;Node19 -->
<g id="edge18" class="edge">
<title>Node18&#45;&gt;Node19</title>
<path fill="none" stroke="midnightblue" d="M172.07,-10C161.46,-10 150.58,-10 140.07,-10"/>
<polygon fill="midnightblue" stroke="midnightblue" points="172.15,-13.5 182.15,-10 172.15,-6.5 172.15,-13.5"/>
</g>
</g>
</svg>
        <g id="navigator" transform="translate(0 0)" fill="#404254">
                <rect fill="#f2f5e9" fill-opacity="0.5" stroke="#606060" stroke-width=".5" x="0" y="0" width="60" height="60"/>
                <use id="zoomplus" xlink:href="#zoomPlus" x="17" y="9" onmousedown="handleZoom(evt,'in')"/>
                <use id="zoomminus" xlink:href="#zoomMin" x="42" y="9" onmousedown="handleZoom(evt,'out')"/>
                <use id="reset" xlink:href="#resetDef" x="30" y="36" onmousedown="handleReset()"/>
                <g id="arrowUp" xlink:href="#dirArrow" transform="translate(30 24)" onmousedown="handlePan(0,-1)">
                  <use xlink:href="#rim" fill="#404040">
                        <set attributeName="fill" to="#808080" begin="arrowUp.mouseover" end="arrowUp.mouseout"/>
                  </use>
                  <path fill="none" stroke="white" stroke-width="1.5" d="M0,-3.0v7 M-2.5,-0.5L0,-3.0L2.5,-0.5"/>
                </g>
                <g id="arrowRight" xlink:href="#dirArrow" transform="rotate(90) translate(36 -43)" onmousedown="handlePan(1,0)">
                  <use xlink:href="#rim" fill="#404040">
                        <set attributeName="fill" to="#808080" begin="arrowRight.mouseover" end="arrowRight.mouseout"/>
                  </use>
                  <path fill="none" stroke="white" stroke-width="1.5" d="M0,-3.0v7 M-2.5,-0.5L0,-3.0L2.5,-0.5"/>
                </g>
                <g id="arrowDown" xlink:href="#dirArrow" transform="rotate(180) translate(-30 -48)" onmousedown="handlePan(0,1)">
                  <use xlink:href="#rim" fill="#404040">
                        <set attributeName="fill" to="#808080" begin="arrowDown.mouseover" end="arrowDown.mouseout"/>
                  </use>
                  <path fill="none" stroke="white" stroke-width="1.5" d="M0,-3.0v7 M-2.5,-0.5L0,-3.0L2.5,-0.5"/>
                </g>
                <g id="arrowLeft" xlink:href="#dirArrow" transform="rotate(270) translate(-36 17)" onmousedown="handlePan(-1,0)">
                  <use xlink:href="#rim" fill="#404040">
                        <set attributeName="fill" to="#808080" begin="arrowLeft.mouseover" end="arrowLeft.mouseout"/>
                  </use>
                  <path fill="none" stroke="white" stroke-width="1.5" d="M0,-3.0v7 M-2.5,-0.5L0,-3.0L2.5,-0.5"/>
                </g>
        </g>
        <svg viewBox="0 0 15 15" width="100%" height="30px" preserveAspectRatio="xMaxYMin meet">
         <g id="arrow_out" transform="scale(0.3 0.3)">
          <a xlink:href="namespacesll__m__particle__mesh__coupling__spline__3d__feec_abfee33f2a32f4155838f54794a32b78b_icgraph_org.svg" target="_base">
           <rect id="button" ry="5" rx="5" y="6" x="6" height="38" width="38"
                fill="#f2f5e9" fill-opacity="0.5" stroke="#606060" stroke-width="1.0"/>
           <path id="arrow"
             d="M 11.500037,31.436501 C 11.940474,20.09759 22.043105,11.32322 32.158766,21.979434 L 37.068811,17.246167 C 37.068811,17.246167 37.088388,32 37.088388,32 L 22.160133,31.978069 C 22.160133,31.978069 26.997745,27.140456 26.997745,27.140456 C 18.528582,18.264221 13.291696,25.230495 11.500037,31.436501 z"
             style="fill:#404040;"/>
          </a>
         </g>
        </svg>
</svg>
