<?xml version="1.0" encoding="UTF-8" standalone="no"?>
<!DOCTYPE svg PUBLIC "-//W3C//DTD SVG 1.1//EN"
 "http://www.w3.org/Graphics/SVG/1.1/DTD/svg11.dtd">
<!-- Generated by graphviz version 2.43.0 (0)
 -->
<!-- Title: s_poisson_2d_fem_sps_dense__init Pages: 1 -->
<svg width="307pt" height="110pt"
 viewBox="0.00 0.00 307.00 110.00" xmlns="http://www.w3.org/2000/svg" xmlns:xlink="http://www.w3.org/1999/xlink">
<g id="graph0" class="graph" transform="scale(1 1) rotate(0) translate(4 106)">
<title>s_poisson_2d_fem_sps_dense__init</title>
<polygon fill="white" stroke="transparent" points="-4,4 -4,-106 303,-106 303,4 -4,4"/>
<!-- Node1 -->
<g id="node1" class="node">
<title>Node1</title>
<g id="a_node1"><a xlink:title=" ">
<polygon fill="#bfbfbf" stroke="black" points="0,-36 0,-66 128,-66 128,-36 0,-36"/>
<text text-anchor="start" x="8" y="-54" font-family="Helvetica,sans-Serif" font-size="10.00">s_poisson_2d_fem_sps</text>
<text text-anchor="middle" x="64" y="-43" font-family="Helvetica,sans-Serif" font-size="10.00">_dense__init</text>
</a>
</g>
</g>
<!-- Node2 -->
<g id="node2" class="node">
<title>Node2</title>
<g id="a_node2"><a xlink:href="namespacesll__m__gauss__legendre__integration.html#a2b7c9ab61e7de446803fedecf4824099" target="_top" xlink:title=" ">
<polygon fill="white" stroke="black" points="164,-60.5 164,-101.5 299,-101.5 299,-60.5 164,-60.5"/>
<text text-anchor="start" x="172" y="-89.5" font-family="Helvetica,sans-Serif" font-size="10.00">sll_m_gauss_legendre</text>
<text text-anchor="start" x="172" y="-78.5" font-family="Helvetica,sans-Serif" font-size="10.00">_integration::sll_f_gauss</text>
<text text-anchor="middle" x="231.5" y="-67.5" font-family="Helvetica,sans-Serif" font-size="10.00">_legendre_points</text>
</a>
</g>
</g>
<!-- Node1&#45;&gt;Node2 -->
<g id="edge1" class="edge">
<title>Node1&#45;&gt;Node2</title>
<path fill="none" stroke="midnightblue" d="M128.04,-62.43C136.44,-63.95 145.14,-65.53 153.74,-67.09"/>
<polygon fill="midnightblue" stroke="midnightblue" points="153.32,-70.57 163.78,-68.91 154.57,-63.68 153.32,-70.57"/>
</g>
<!-- Node3 -->
<g id="node3" class="node">
<title>Node3</title>
<g id="a_node3"><a xlink:href="namespacesll__m__gauss__legendre__integration.html#a47b7463159f1c9e00a9b4645bd122b6f" target="_top" xlink:title=" ">
<polygon fill="white" stroke="black" points="164,-0.5 164,-41.5 299,-41.5 299,-0.5 164,-0.5"/>
<text text-anchor="start" x="172" y="-29.5" font-family="Helvetica,sans-Serif" font-size="10.00">sll_m_gauss_legendre</text>
<text text-anchor="start" x="172" y="-18.5" font-family="Helvetica,sans-Serif" font-size="10.00">_integration::sll_f_gauss</text>
<text text-anchor="middle" x="231.5" y="-7.5" font-family="Helvetica,sans-Serif" font-size="10.00">_legendre_weights</text>
</a>
</g>
</g>
<!-- Node1&#45;&gt;Node3 -->
<g id="edge2" class="edge">
<title>Node1&#45;&gt;Node3</title>
<path fill="none" stroke="midnightblue" d="M128.04,-39.57C136.44,-38.05 145.14,-36.47 153.74,-34.91"/>
<polygon fill="midnightblue" stroke="midnightblue" points="154.57,-38.32 163.78,-33.09 153.32,-31.43 154.57,-38.32"/>
</g>
</g>
</svg>
