<?xml version="1.0" encoding="UTF-8" standalone="no"?>
<!DOCTYPE svg PUBLIC "-//W3C//DTD SVG 1.1//EN"
 "http://www.w3.org/Graphics/SVG/1.1/DTD/svg11.dtd">
<!-- Generated by graphviz version 2.43.0 (0)
 -->
<!-- Title: compute_size_hermite1d Pages: 1 -->
<svg width="307pt" height="137pt"
 viewBox="0.00 0.00 307.00 137.00" xmlns="http://www.w3.org/2000/svg" xmlns:xlink="http://www.w3.org/1999/xlink">
<g id="graph0" class="graph" transform="scale(1 1) rotate(0) translate(4 133)">
<title>compute_size_hermite1d</title>
<polygon fill="white" stroke="transparent" points="-4,4 -4,-133 303,-133 303,4 -4,4"/>
<!-- Node1 -->
<g id="node1" class="node">
<title>Node1</title>
<g id="a_node1"><a xlink:title=" ">
<polygon fill="#bfbfbf" stroke="black" points="159,-55 159,-74 299,-74 299,-55 159,-55"/>
<text text-anchor="middle" x="229" y="-62" font-family="Helvetica,sans-Serif" font-size="10.00">compute_size_hermite1d</text>
</a>
</g>
</g>
<!-- Node2 -->
<g id="node2" class="node">
<title>Node2</title>
<g id="a_node2"><a xlink:href="namespacesll__m__lagrange__interpolation.html#af35615b1645decdb973369f391cf2945" target="_top" xlink:title=" ">
<polygon fill="white" stroke="black" points="0,-98.5 0,-128.5 123,-128.5 123,-98.5 0,-98.5"/>
<text text-anchor="start" x="8" y="-116.5" font-family="Helvetica,sans-Serif" font-size="10.00">compute_interpolants</text>
<text text-anchor="middle" x="61.5" y="-105.5" font-family="Helvetica,sans-Serif" font-size="10.00">_hermite2d</text>
</a>
</g>
</g>
<!-- Node1&#45;&gt;Node2 -->
<g id="edge1" class="edge">
<title>Node1&#45;&gt;Node2</title>
<path fill="none" stroke="midnightblue" d="M185.94,-76.95C163.83,-83.5 136.57,-91.57 113.29,-98.46"/>
<polygon fill="midnightblue" stroke="midnightblue" points="187.1,-80.26 195.7,-74.06 185.11,-73.55 187.1,-80.26"/>
</g>
<!-- Node3 -->
<g id="node3" class="node">
<title>Node3</title>
<g id="a_node3"><a xlink:href="namespacesll__m__lagrange__interpolation.html#a9bf3be21f8df23ee085c529c321dbe26" target="_top" xlink:title=" ">
<polygon fill="white" stroke="black" points="0.5,-49.5 0.5,-79.5 122.5,-79.5 122.5,-49.5 0.5,-49.5"/>
<text text-anchor="start" x="8.5" y="-67.5" font-family="Helvetica,sans-Serif" font-size="10.00">initialize_interpolants</text>
<text text-anchor="middle" x="61.5" y="-56.5" font-family="Helvetica,sans-Serif" font-size="10.00">_hermite1d</text>
</a>
</g>
</g>
<!-- Node1&#45;&gt;Node3 -->
<g id="edge2" class="edge">
<title>Node1&#45;&gt;Node3</title>
<path fill="none" stroke="midnightblue" d="M148.54,-64.5C139.78,-64.5 130.97,-64.5 122.51,-64.5"/>
<polygon fill="midnightblue" stroke="midnightblue" points="148.77,-68 158.77,-64.5 148.77,-61 148.77,-68"/>
</g>
<!-- Node4 -->
<g id="node4" class="node">
<title>Node4</title>
<g id="a_node4"><a xlink:href="namespacesll__m__lagrange__interpolation.html#abb96f73dc8b218eaf15ae864a456bf01" target="_top" xlink:title=" ">
<polygon fill="white" stroke="black" points="0.5,-0.5 0.5,-30.5 122.5,-30.5 122.5,-0.5 0.5,-0.5"/>
<text text-anchor="start" x="8.5" y="-18.5" font-family="Helvetica,sans-Serif" font-size="10.00">initialize_interpolants</text>
<text text-anchor="middle" x="61.5" y="-7.5" font-family="Helvetica,sans-Serif" font-size="10.00">_hermite2d</text>
</a>
</g>
</g>
<!-- Node1&#45;&gt;Node4 -->
<g id="edge3" class="edge">
<title>Node1&#45;&gt;Node4</title>
<path fill="none" stroke="midnightblue" d="M185.94,-52.05C163.83,-45.5 136.57,-37.43 113.29,-30.54"/>
<polygon fill="midnightblue" stroke="midnightblue" points="185.11,-55.45 195.7,-54.94 187.1,-48.74 185.11,-55.45"/>
</g>
</g>
</svg>
