<?xml version="1.0" encoding="UTF-8" standalone="no"?>
<!DOCTYPE svg PUBLIC "-//W3C//DTD SVG 1.1//EN"
 "http://www.w3.org/Graphics/SVG/1.1/DTD/svg11.dtd">
<!-- Generated by graphviz version 2.40.1 (20161225.0304)
 -->
<!-- Title: sll_f_new_distribution_function_4d_multipatch Pages: 1 -->
<svg width="465pt" height="88pt"
 viewBox="0.00 0.00 465.00 88.00" xmlns="http://www.w3.org/2000/svg" xmlns:xlink="http://www.w3.org/1999/xlink">
<g id="graph0" class="graph" transform="scale(1 1) rotate(0) translate(4 84)">
<title>sll_f_new_distribution_function_4d_multipatch</title>
<polygon fill="#ffffff" stroke="transparent" points="-4,4 -4,-84 461,-84 461,4 -4,4"/>
<!-- Node39 -->
<g id="node1" class="node">
<title>Node39</title>
<polygon fill="#bfbfbf" stroke="#000000" points="0,-24.5 0,-54.5 137,-54.5 137,-24.5 0,-24.5"/>
<text text-anchor="start" x="8" y="-42.5" font-family="Helvetica,sans-Serif" font-size="10.00" fill="#000000">sll_f_new_distribution</text>
<text text-anchor="middle" x="68.5" y="-31.5" font-family="Helvetica,sans-Serif" font-size="10.00" fill="#000000">_function_4d_multipatch</text>
</g>
<!-- Node40 -->
<g id="node2" class="node">
<title>Node40</title>
<g id="a_node2"><a xlink:href="namespacesll__m__collective.html#af2d3c240d9dfe7e9c7d7f7c9e0529f17" target="_top" xlink:title="Determines the size of the group associated with a communicator. ">
<polygon fill="#ffffff" stroke="#000000" points="174,-49.5 174,-79.5 298,-79.5 298,-49.5 174,-49.5"/>
<text text-anchor="start" x="182" y="-67.5" font-family="Helvetica,sans-Serif" font-size="10.00" fill="#000000">sll_m_collective::sll</text>
<text text-anchor="middle" x="236" y="-56.5" font-family="Helvetica,sans-Serif" font-size="10.00" fill="#000000">_f_get_collective_size</text>
</a>
</g>
</g>
<!-- Node39&#45;&gt;Node40 -->
<g id="edge1" class="edge">
<title>Node39&#45;&gt;Node40</title>
<path fill="none" stroke="#191970" d="M137.112,-49.7406C145.9737,-51.0632 155.0693,-52.4208 163.984,-53.7513"/>
<polygon fill="#191970" stroke="#191970" points="163.5428,-57.2242 173.9499,-55.2388 164.5762,-50.3009 163.5428,-57.2242"/>
</g>
<!-- Node42 -->
<g id="node4" class="node">
<title>Node42</title>
<g id="a_node4"><a xlink:href="namespacesll__m__collective.html#a396122f49340f0778eb448430d865b4e" target="_top" xlink:title="Determines the rank of the calling process in the communicator. ">
<polygon fill="#ffffff" stroke="#000000" points="173,-.5 173,-30.5 299,-30.5 299,-.5 173,-.5"/>
<text text-anchor="start" x="181" y="-18.5" font-family="Helvetica,sans-Serif" font-size="10.00" fill="#000000">sll_m_collective::sll</text>
<text text-anchor="middle" x="236" y="-7.5" font-family="Helvetica,sans-Serif" font-size="10.00" fill="#000000">_f_get_collective_rank</text>
</a>
</g>
</g>
<!-- Node39&#45;&gt;Node42 -->
<g id="edge3" class="edge">
<title>Node39&#45;&gt;Node42</title>
<path fill="none" stroke="#191970" d="M137.112,-29.669C145.6186,-28.4502 154.3409,-27.2004 162.9117,-25.9724"/>
<polygon fill="#191970" stroke="#191970" points="163.479,-29.4269 172.8815,-24.5438 162.4861,-22.4977 163.479,-29.4269"/>
</g>
<!-- Node41 -->
<g id="node3" class="node">
<title>Node41</title>
<g id="a_node3"><a xlink:href="namespacesll__m__collective.html#a37ea25f42a791be5a710a6cf0d1e1197" target="_top" xlink:title="Checks if the pointer ptr is associated to an object. ">
<polygon fill="#ffffff" stroke="#000000" points="335,-24.5 335,-54.5 457,-54.5 457,-24.5 335,-24.5"/>
<text text-anchor="start" x="343" y="-42.5" font-family="Helvetica,sans-Serif" font-size="10.00" fill="#000000">sll_m_collective::sll</text>
<text text-anchor="middle" x="396" y="-31.5" font-family="Helvetica,sans-Serif" font-size="10.00" fill="#000000">_check_collective_ptr</text>
</a>
</g>
</g>
<!-- Node40&#45;&gt;Node41 -->
<g id="edge2" class="edge">
<title>Node40&#45;&gt;Node41</title>
<path fill="none" stroke="#191970" d="M298.3183,-54.7628C307.0524,-53.3981 316.0824,-51.9871 324.9632,-50.5995"/>
<polygon fill="#191970" stroke="#191970" points="325.563,-54.0483 334.9027,-49.0464 324.4823,-47.1323 325.563,-54.0483"/>
</g>
<!-- Node42&#45;&gt;Node41 -->
<g id="edge4" class="edge">
<title>Node42&#45;&gt;Node41</title>
<path fill="none" stroke="#191970" d="M299.2362,-24.9854C307.649,-26.2474 316.3208,-27.5481 324.8564,-28.8285"/>
<polygon fill="#191970" stroke="#191970" points="324.3817,-32.2963 334.7903,-30.3185 325.4201,-25.3738 324.3817,-32.2963"/>
</g>
</g>
</svg>
