<?xml version="1.0" encoding="UTF-8" standalone="no"?>
<!DOCTYPE svg PUBLIC "-//W3C//DTD SVG 1.1//EN"
 "http://www.w3.org/Graphics/SVG/1.1/DTD/svg11.dtd">
<!-- Generated by graphviz version 2.43.0 (0)
 -->
<!-- Title: interpolate_derivative_aux Pages: 1 -->
<!--zoomable 290 -->
<svg id="main" version="1.1" xmlns="http://www.w3.org/2000/svg" xmlns:xlink="http://www.w3.org/1999/xlink" xml:space="preserve" onload="init(evt)">
<style type="text/css"><![CDATA[
.edge:hover path { stroke: red; }
.edge:hover polygon { stroke: red; fill: red; }
]]></style>
<script type="text/javascript"><![CDATA[
var edges = document.getElementsByTagName('g');
if (edges && edges.length) {
  for (var i=0;i<edges.length;i++) {
    if (edges[i].id.substr(0,4)=='edge') {
      edges[i].setAttribute('class','edge');
    }
  }
}
]]></script>
        <defs>
                <circle id="rim" cx="0" cy="0" r="7"/>
                <circle id="rim2" cx="0" cy="0" r="3.5"/>
                <g id="zoomPlus">
                        <use xlink:href="#rim" fill="#404040">
                                <set attributeName="fill" to="#808080" begin="zoomplus.mouseover" end="zoomplus.mouseout"/>
                        </use>
                        <path d="M-4,0h8M0,-4v8" fill="none" stroke="white" stroke-width="1.5" pointer-events="none"/>
                </g>
                <g id="zoomMin">
                        <use xlink:href="#rim" fill="#404040">
                                <set attributeName="fill" to="#808080" begin="zoomminus.mouseover" end="zoomminus.mouseout"/>
                        </use>
                        <path d="M-4,0h8" fill="none" stroke="white" stroke-width="1.5" pointer-events="none"/>
                </g>
                <g id="dirArrow">
                        <path fill="none" stroke="white" stroke-width="1.5" d="M0,-3.0v7 M-2.5,-0.5L0,-3.0L2.5,-0.5"/>
                </g>
               <g id="resetDef">
                       <use xlink:href="#rim2" fill="#404040">
                               <set attributeName="fill" to="#808080" begin="reset.mouseover" end="reset.mouseout"/>
                       </use>
               </g>
        </defs>

<script type="text/javascript">
var viewWidth = 513;
var viewHeight = 290;
var sectionId = 'dynsection-14';
</script>
<script xlink:href="svgpan.js"/>
<svg id="graph" class="graph">
<g id="viewport">
<title>interpolate_derivative_aux</title>
<polygon fill="white" stroke="transparent" points="-4,4 -4,-286 509,-286 509,4 -4,4"/>
<!-- Node1 -->
<g id="node1" class="node">
<title>Node1</title>
<g id="a_node1"><a xlink:title=" ">
<polygon fill="#bfbfbf" stroke="black" points="357,-160.5 357,-179.5 505,-179.5 505,-160.5 357,-160.5"/>
<text text-anchor="middle" x="431" y="-167.5" font-family="Helvetica,sans-Serif" font-size="10.00">interpolate_derivative_aux</text>
</a>
</g>
</g>
<!-- Node2 -->
<g id="node2" class="node">
<title>Node2</title>
<g id="a_node2"><a xlink:href="namespacesll__m__cubic__splines.html#a4a4ca9e875e412121ae2d9b01eb5aa18" target="_top" xlink:title="analogous to the sll_s_cubic_spline_1d_eval_array_deriv() subroutine but its input and output arrays ...">
<polygon fill="white" stroke="black" points="205.5,-232 205.5,-262 315.5,-262 315.5,-232 205.5,-232"/>
<text text-anchor="start" x="213.5" y="-250" font-family="Helvetica,sans-Serif" font-size="10.00">interpolate_pointer</text>
<text text-anchor="middle" x="260.5" y="-239" font-family="Helvetica,sans-Serif" font-size="10.00">_derivatives</text>
</a>
</g>
</g>
<!-- Node1&#45;&gt;Node2 -->
<g id="edge1" class="edge">
<title>Node1&#45;&gt;Node2</title>
<path fill="none" stroke="midnightblue" d="M402.23,-184.16C380.35,-195.16 348.98,-210.57 321,-223 314.28,-225.98 307.07,-229.02 300.07,-231.89"/>
<polygon fill="midnightblue" stroke="midnightblue" points="403.93,-187.22 411.28,-179.59 400.78,-180.97 403.93,-187.22"/>
</g>
<!-- Node3 -->
<g id="node3" class="node">
<title>Node3</title>
<g id="a_node3"><a xlink:href="namespacesll__m__cubic__splines.html#a20d325fd04e034c8ddd6e5ba214db9d0" target="_top" xlink:title="returns the value of the derivative at the image of the abscissa &#39;x&#39;, using the spline coefficients s...">
<polygon fill="white" stroke="black" points="209.5,-183 209.5,-213 311.5,-213 311.5,-183 209.5,-183"/>
<text text-anchor="start" x="217.5" y="-201" font-family="Helvetica,sans-Serif" font-size="10.00">sll_f_cubic_spline</text>
<text text-anchor="middle" x="260.5" y="-190" font-family="Helvetica,sans-Serif" font-size="10.00">_1d_eval_deriv</text>
</a>
</g>
</g>
<!-- Node1&#45;&gt;Node3 -->
<g id="edge2" class="edge">
<title>Node1&#45;&gt;Node3</title>
<path fill="none" stroke="midnightblue" d="M362.62,-181.2C345.63,-184.02 327.69,-187 311.72,-189.65"/>
<polygon fill="midnightblue" stroke="midnightblue" points="363.19,-184.65 372.48,-179.56 362.04,-177.74 363.19,-184.65"/>
</g>
<!-- Node6 -->
<g id="node6" class="node">
<title>Node6</title>
<g id="a_node6"><a xlink:href="namespacesll__m__cubic__splines.html#a9f207e5c634fc68284cb6f28aee7cef8" target="_top" xlink:title="Returns the interpolated value of the derivative in the x1 direction at the point (x1,...">
<polygon fill="white" stroke="black" points="207,-131 207,-161 314,-161 314,-131 207,-131"/>
<text text-anchor="start" x="215" y="-149" font-family="Helvetica,sans-Serif" font-size="10.00">sll_f_cubic_spline</text>
<text text-anchor="middle" x="260.5" y="-138" font-family="Helvetica,sans-Serif" font-size="10.00">_2d_eval_deriv_x1</text>
</a>
</g>
</g>
<!-- Node1&#45;&gt;Node6 -->
<g id="edge5" class="edge">
<title>Node1&#45;&gt;Node6</title>
<path fill="none" stroke="midnightblue" d="M352.93,-159.02C339.78,-157.15 326.4,-155.24 314.08,-153.49"/>
<polygon fill="midnightblue" stroke="midnightblue" points="352.53,-162.5 362.92,-160.45 353.51,-155.57 352.53,-162.5"/>
</g>
<!-- Node8 -->
<g id="node8" class="node">
<title>Node8</title>
<g id="a_node8"><a xlink:href="namespacesll__m__cubic__splines.html#a872e8839340faa83e0513d849103b674" target="_top" xlink:title="returns the values of the derivatives evaluated at a collection of abscissae stored in the input 1D a...">
<polygon fill="white" stroke="black" points="200,-66 200,-96 321,-96 321,-66 200,-66"/>
<text text-anchor="start" x="208" y="-84" font-family="Helvetica,sans-Serif" font-size="10.00">sll_s_cubic_spline</text>
<text text-anchor="middle" x="260.5" y="-73" font-family="Helvetica,sans-Serif" font-size="10.00">_1d_eval_array_deriv</text>
</a>
</g>
</g>
<!-- Node1&#45;&gt;Node8 -->
<g id="edge7" class="edge">
<title>Node1&#45;&gt;Node8</title>
<path fill="none" stroke="midnightblue" d="M403.04,-155.76C372.11,-139.42 321.61,-112.75 290.04,-96.07"/>
<polygon fill="midnightblue" stroke="midnightblue" points="401.49,-158.9 411.97,-160.48 404.76,-152.71 401.49,-158.9"/>
</g>
<!-- Node4 -->
<g id="node4" class="node">
<title>Node4</title>
<g id="a_node4"><a xlink:href="namespacesll__m__cubic__spline__interpolator__1d.html#ab5170ffba89fc8d3da679aef50e65182" target="_top" xlink:title=" ">
<polygon fill="white" stroke="black" points="4.5,-240.5 4.5,-281.5 159.5,-281.5 159.5,-240.5 4.5,-240.5"/>
<text text-anchor="start" x="12.5" y="-269.5" font-family="Helvetica,sans-Serif" font-size="10.00">sll_m_cubic_spline</text>
<text text-anchor="start" x="12.5" y="-258.5" font-family="Helvetica,sans-Serif" font-size="10.00">_interpolator_1d::interpolate</text>
<text text-anchor="middle" x="82" y="-247.5" font-family="Helvetica,sans-Serif" font-size="10.00">_deriv1_cs1d</text>
</a>
</g>
</g>
<!-- Node3&#45;&gt;Node4 -->
<g id="edge3" class="edge">
<title>Node3&#45;&gt;Node4</title>
<path fill="none" stroke="midnightblue" d="M207.8,-216.45C186.72,-223.98 162.26,-232.71 140.61,-240.44"/>
<polygon fill="midnightblue" stroke="midnightblue" points="208.98,-219.75 217.22,-213.09 206.63,-213.16 208.98,-219.75"/>
</g>
<!-- Node5 -->
<g id="node5" class="node">
<title>Node5</title>
<g id="a_node5"><a xlink:href="namespacesll__m__cubic__spline__interpolator__1d__nonuniform.html#a4fca6d79277033808d7fcc14e9a5ea03" target="_top" xlink:title=" ">
<polygon fill="white" stroke="black" points="3,-180.5 3,-221.5 161,-221.5 161,-180.5 3,-180.5"/>
<text text-anchor="start" x="11" y="-209.5" font-family="Helvetica,sans-Serif" font-size="10.00">sll_m_cubic_spline</text>
<text text-anchor="start" x="11" y="-198.5" font-family="Helvetica,sans-Serif" font-size="10.00">_interpolator_1d_nonuniform</text>
<text text-anchor="middle" x="82" y="-187.5" font-family="Helvetica,sans-Serif" font-size="10.00">::interpolate_deriv1_cs1d</text>
</a>
</g>
</g>
<!-- Node3&#45;&gt;Node5 -->
<g id="edge4" class="edge">
<title>Node3&#45;&gt;Node5</title>
<path fill="none" stroke="midnightblue" d="M199.33,-199.02C187.09,-199.23 174.04,-199.45 161.28,-199.67"/>
<polygon fill="midnightblue" stroke="midnightblue" points="199.46,-202.52 209.39,-198.85 199.34,-195.52 199.46,-202.52"/>
</g>
<!-- Node7 -->
<g id="node7" class="node">
<title>Node7</title>
<g id="a_node7"><a xlink:href="namespacesll__m__cubic__spline__interpolator__2d.html#af1ede9ba198e76e41e590dec3402365b" target="_top" xlink:title=" ">
<polygon fill="white" stroke="black" points="4.5,-120.5 4.5,-161.5 159.5,-161.5 159.5,-120.5 4.5,-120.5"/>
<text text-anchor="start" x="12.5" y="-149.5" font-family="Helvetica,sans-Serif" font-size="10.00">sll_m_cubic_spline</text>
<text text-anchor="start" x="12.5" y="-138.5" font-family="Helvetica,sans-Serif" font-size="10.00">_interpolator_2d::interpolate</text>
<text text-anchor="middle" x="82" y="-127.5" font-family="Helvetica,sans-Serif" font-size="10.00">_deriv1_cs2d</text>
</a>
</g>
</g>
<!-- Node6&#45;&gt;Node7 -->
<g id="edge6" class="edge">
<title>Node6&#45;&gt;Node7</title>
<path fill="none" stroke="midnightblue" d="M196.32,-144.21C184.46,-143.87 171.95,-143.52 159.74,-143.17"/>
<polygon fill="midnightblue" stroke="midnightblue" points="196.45,-147.72 206.54,-144.5 196.65,-140.72 196.45,-147.72"/>
</g>
<!-- Node9 -->
<g id="node9" class="node">
<title>Node9</title>
<g id="a_node9"><a xlink:href="namespacesll__m__cubic__spline__interpolator__1d.html#af8b5d44a288bd78ca278dfd172bd1b6c" target="_top" xlink:title=" ">
<polygon fill="white" stroke="black" points="4.5,-60.5 4.5,-101.5 159.5,-101.5 159.5,-60.5 4.5,-60.5"/>
<text text-anchor="start" x="12.5" y="-89.5" font-family="Helvetica,sans-Serif" font-size="10.00">sll_m_cubic_spline</text>
<text text-anchor="start" x="12.5" y="-78.5" font-family="Helvetica,sans-Serif" font-size="10.00">_interpolator_1d::interpolate</text>
<text text-anchor="middle" x="82" y="-67.5" font-family="Helvetica,sans-Serif" font-size="10.00">_derivatives_cs1d</text>
</a>
</g>
</g>
<!-- Node8&#45;&gt;Node9 -->
<g id="edge8" class="edge">
<title>Node8&#45;&gt;Node9</title>
<path fill="none" stroke="midnightblue" d="M189.61,-81C179.75,-81 169.57,-81 159.59,-81"/>
<polygon fill="midnightblue" stroke="midnightblue" points="189.75,-84.5 199.75,-81 189.75,-77.5 189.75,-84.5"/>
</g>
<!-- Node10 -->
<g id="node10" class="node">
<title>Node10</title>
<g id="a_node10"><a xlink:href="namespacesll__m__cubic__spline__interpolator__1d__nonuniform.html#ad7577fa72d293954f9423564b5217274" target="_top" xlink:title=" ">
<polygon fill="white" stroke="black" points="0,-0.5 0,-41.5 164,-41.5 164,-0.5 0,-0.5"/>
<text text-anchor="start" x="8" y="-29.5" font-family="Helvetica,sans-Serif" font-size="10.00">sll_m_cubic_spline</text>
<text text-anchor="start" x="8" y="-18.5" font-family="Helvetica,sans-Serif" font-size="10.00">_interpolator_1d_nonuniform</text>
<text text-anchor="middle" x="82" y="-7.5" font-family="Helvetica,sans-Serif" font-size="10.00">::interpolate_derivatives_cs1d</text>
</a>
</g>
</g>
<!-- Node8&#45;&gt;Node10 -->
<g id="edge9" class="edge">
<title>Node8&#45;&gt;Node10</title>
<path fill="none" stroke="midnightblue" d="M205.3,-62.58C185.76,-55.93 163.58,-48.39 143.53,-41.58"/>
<polygon fill="midnightblue" stroke="midnightblue" points="204.37,-65.95 214.96,-65.86 206.62,-59.33 204.37,-65.95"/>
</g>
</g>
</svg>
        <g id="navigator" transform="translate(0 0)" fill="#404254">
                <rect fill="#f2f5e9" fill-opacity="0.5" stroke="#606060" stroke-width=".5" x="0" y="0" width="60" height="60"/>
                <use id="zoomplus" xlink:href="#zoomPlus" x="17" y="9" onmousedown="handleZoom(evt,'in')"/>
                <use id="zoomminus" xlink:href="#zoomMin" x="42" y="9" onmousedown="handleZoom(evt,'out')"/>
                <use id="reset" xlink:href="#resetDef" x="30" y="36" onmousedown="handleReset()"/>
                <g id="arrowUp" xlink:href="#dirArrow" transform="translate(30 24)" onmousedown="handlePan(0,-1)">
                  <use xlink:href="#rim" fill="#404040">
                        <set attributeName="fill" to="#808080" begin="arrowUp.mouseover" end="arrowUp.mouseout"/>
                  </use>
                  <path fill="none" stroke="white" stroke-width="1.5" d="M0,-3.0v7 M-2.5,-0.5L0,-3.0L2.5,-0.5"/>
                </g>
                <g id="arrowRight" xlink:href="#dirArrow" transform="rotate(90) translate(36 -43)" onmousedown="handlePan(1,0)">
                  <use xlink:href="#rim" fill="#404040">
                        <set attributeName="fill" to="#808080" begin="arrowRight.mouseover" end="arrowRight.mouseout"/>
                  </use>
                  <path fill="none" stroke="white" stroke-width="1.5" d="M0,-3.0v7 M-2.5,-0.5L0,-3.0L2.5,-0.5"/>
                </g>
                <g id="arrowDown" xlink:href="#dirArrow" transform="rotate(180) translate(-30 -48)" onmousedown="handlePan(0,1)">
                  <use xlink:href="#rim" fill="#404040">
                        <set attributeName="fill" to="#808080" begin="arrowDown.mouseover" end="arrowDown.mouseout"/>
                  </use>
                  <path fill="none" stroke="white" stroke-width="1.5" d="M0,-3.0v7 M-2.5,-0.5L0,-3.0L2.5,-0.5"/>
                </g>
                <g id="arrowLeft" xlink:href="#dirArrow" transform="rotate(270) translate(-36 17)" onmousedown="handlePan(-1,0)">
                  <use xlink:href="#rim" fill="#404040">
                        <set attributeName="fill" to="#808080" begin="arrowLeft.mouseover" end="arrowLeft.mouseout"/>
                  </use>
                  <path fill="none" stroke="white" stroke-width="1.5" d="M0,-3.0v7 M-2.5,-0.5L0,-3.0L2.5,-0.5"/>
                </g>
        </g>
        <svg viewBox="0 0 15 15" width="100%" height="30px" preserveAspectRatio="xMaxYMin meet">
         <g id="arrow_out" transform="scale(0.3 0.3)">
          <a xlink:href="namespacesll__m__cubic__splines_a575c8a1996272528d087f3a83f79fccb_icgraph_org.svg" target="_base">
           <rect id="button" ry="5" rx="5" y="6" x="6" height="38" width="38"
                fill="#f2f5e9" fill-opacity="0.5" stroke="#606060" stroke-width="1.0"/>
           <path id="arrow"
             d="M 11.500037,31.436501 C 11.940474,20.09759 22.043105,11.32322 32.158766,21.979434 L 37.068811,17.246167 C 37.068811,17.246167 37.088388,32 37.088388,32 L 22.160133,31.978069 C 22.160133,31.978069 26.997745,27.140456 26.997745,27.140456 C 18.528582,18.264221 13.291696,25.230495 11.500037,31.436501 z"
             style="fill:#404040;"/>
          </a>
         </g>
        </svg>
</svg>
