<?xml version="1.0" encoding="UTF-8" standalone="no"?>
<!DOCTYPE svg PUBLIC "-//W3C//DTD SVG 1.1//EN"
 "http://www.w3.org/Graphics/SVG/1.1/DTD/svg11.dtd">
<!-- Generated by graphviz version 2.43.0 (0)
 -->
<!-- Title: sll_f_new_cartesian_mesh_2d Pages: 1 -->
<svg width="568pt" height="247pt"
 viewBox="0.00 0.00 568.00 246.50" xmlns="http://www.w3.org/2000/svg" xmlns:xlink="http://www.w3.org/1999/xlink">
<g id="graph0" class="graph" transform="scale(1 1) rotate(0) translate(4 242.5)">
<title>sll_f_new_cartesian_mesh_2d</title>
<polygon fill="white" stroke="transparent" points="-4,4 -4,-242.5 564,-242.5 564,4 -4,4"/>
<!-- Node1 -->
<g id="node1" class="node">
<title>Node1</title>
<g id="a_node1"><a xlink:title="allocates the memory space for a new 2D cartesian mesh on the heap, initializes it with the given arg...">
<polygon fill="#bfbfbf" stroke="black" points="447,-98.5 447,-128.5 560,-128.5 560,-98.5 447,-98.5"/>
<text text-anchor="start" x="455" y="-116.5" font-family="Helvetica,sans-Serif" font-size="10.00">sll_f_new_cartesian</text>
<text text-anchor="middle" x="503.5" y="-105.5" font-family="Helvetica,sans-Serif" font-size="10.00">_mesh_2d</text>
</a>
</g>
</g>
<!-- Node2 -->
<g id="node2" class="node">
<title>Node2</title>
<g id="a_node2"><a xlink:href="namespacesll__m__cartesian__meshes__multipatch.html#a04c4cbd475a33dfae5f6798026de4eeb" target="_top" xlink:title="initializes a previously allocated multipatch 2d logical mesh.">
<polygon fill="white" stroke="black" points="246.5,-197 246.5,-238 383.5,-238 383.5,-197 246.5,-197"/>
<text text-anchor="start" x="254.5" y="-226" font-family="Helvetica,sans-Serif" font-size="10.00">sll_m_cartesian_meshes</text>
<text text-anchor="start" x="254.5" y="-215" font-family="Helvetica,sans-Serif" font-size="10.00">_multipatch::initialize</text>
<text text-anchor="middle" x="315" y="-204" font-family="Helvetica,sans-Serif" font-size="10.00">_patch_lmmp2d</text>
</a>
</g>
</g>
<!-- Node1&#45;&gt;Node2 -->
<g id="edge1" class="edge">
<title>Node1&#45;&gt;Node2</title>
<path fill="none" stroke="midnightblue" d="M480.15,-135.62C462.61,-151.92 436.91,-173.58 411,-187.5 402.47,-192.08 393.12,-196.1 383.73,-199.57"/>
<polygon fill="midnightblue" stroke="midnightblue" points="482.75,-137.98 487.6,-128.56 477.94,-132.89 482.75,-137.98"/>
</g>
<!-- Node3 -->
<g id="node3" class="node">
<title>Node3</title>
<g id="a_node3"><a xlink:href="namespacesll__m__coordinate__transformations__2d.html#af092a7689bceb4039d222e5f2a03c6e7" target="_top" xlink:title=" ">
<polygon fill="white" stroke="black" points="223.5,-147.5 223.5,-177.5 406.5,-177.5 406.5,-147.5 223.5,-147.5"/>
<text text-anchor="start" x="231.5" y="-165.5" font-family="Helvetica,sans-Serif" font-size="10.00">sll_m_coordinate_transformations</text>
<text text-anchor="middle" x="315" y="-154.5" font-family="Helvetica,sans-Serif" font-size="10.00">_2d::read_from_file_2d_discrete</text>
</a>
</g>
</g>
<!-- Node1&#45;&gt;Node3 -->
<g id="edge2" class="edge">
<title>Node1&#45;&gt;Node3</title>
<path fill="none" stroke="midnightblue" d="M438.09,-131.26C429,-133.72 419.77,-136.19 411,-138.5 399.81,-141.44 387.87,-144.51 376.35,-147.44"/>
<polygon fill="midnightblue" stroke="midnightblue" points="439.14,-134.61 447.87,-128.61 437.3,-127.85 439.14,-134.61"/>
</g>
<!-- Node4 -->
<g id="node4" class="node">
<title>Node4</title>
<g id="a_node4"><a xlink:href="namespacesll__m__coordinate__transformations__2d__nurbs.html#a1ac1b0807542ac77efb925992c0d681e" target="_top" xlink:title=" ">
<polygon fill="white" stroke="black" points="219,-98.5 219,-128.5 411,-128.5 411,-98.5 219,-98.5"/>
<text text-anchor="start" x="227" y="-116.5" font-family="Helvetica,sans-Serif" font-size="10.00">sll_m_coordinate_transformations</text>
<text text-anchor="middle" x="315" y="-105.5" font-family="Helvetica,sans-Serif" font-size="10.00">_2d_nurbs::read_from_file_2d_nurbs</text>
</a>
</g>
</g>
<!-- Node1&#45;&gt;Node4 -->
<g id="edge3" class="edge">
<title>Node1&#45;&gt;Node4</title>
<path fill="none" stroke="midnightblue" d="M436.55,-113.5C428.31,-113.5 419.76,-113.5 411.19,-113.5"/>
<polygon fill="midnightblue" stroke="midnightblue" points="436.8,-117 446.8,-113.5 436.8,-110 436.8,-117"/>
</g>
<!-- Node6 -->
<g id="node6" class="node">
<title>Node6</title>
<g id="a_node6"><a xlink:href="namespacesll__m__cartesian__meshes.html#ab5c7c7adab553e987f64394b4c61414f" target="_top" xlink:title="Create a 2d mesh from two 1d meshes.">
<polygon fill="white" stroke="black" points="257.5,-49.5 257.5,-79.5 372.5,-79.5 372.5,-49.5 257.5,-49.5"/>
<text text-anchor="start" x="265.5" y="-67.5" font-family="Helvetica,sans-Serif" font-size="10.00">sll_f_tensor_product</text>
<text text-anchor="middle" x="315" y="-56.5" font-family="Helvetica,sans-Serif" font-size="10.00">_1d_1d</text>
</a>
</g>
</g>
<!-- Node1&#45;&gt;Node6 -->
<g id="edge5" class="edge">
<title>Node1&#45;&gt;Node6</title>
<path fill="none" stroke="midnightblue" d="M437.01,-96.29C416.03,-90.78 393,-84.73 372.71,-79.4"/>
<polygon fill="midnightblue" stroke="midnightblue" points="436.24,-99.71 446.8,-98.86 438.01,-92.94 436.24,-99.71"/>
</g>
<!-- Node7 -->
<g id="node7" class="node">
<title>Node7</title>
<g id="a_node7"><a xlink:href="namespacesll__m__dk__curv__mesh.html#a4c65d8244e6f18bd6fb5cff4c5c5ee74" target="_top" xlink:title="Initialize simulation from input file.">
<polygon fill="white" stroke="black" points="244.5,-0.5 244.5,-30.5 385.5,-30.5 385.5,-0.5 244.5,-0.5"/>
<text text-anchor="start" x="252.5" y="-18.5" font-family="Helvetica,sans-Serif" font-size="10.00">sll_m_dk_curv_mesh</text>
<text text-anchor="middle" x="315" y="-7.5" font-family="Helvetica,sans-Serif" font-size="10.00">::sll_s_init_dk_curv_mesh</text>
</a>
</g>
</g>
<!-- Node1&#45;&gt;Node7 -->
<g id="edge6" class="edge">
<title>Node1&#45;&gt;Node7</title>
<path fill="none" stroke="midnightblue" d="M480.28,-91.33C462.82,-75.07 437.14,-53.63 411,-40.5 403.07,-36.52 394.45,-33.13 385.74,-30.24"/>
<polygon fill="midnightblue" stroke="midnightblue" points="478.04,-94.03 487.7,-98.39 482.87,-88.96 478.04,-94.03"/>
</g>
<!-- Node5 -->
<g id="node5" class="node">
<title>Node5</title>
<g id="a_node5"><a xlink:href="namespacesll__m__coordinate__transformations__2d__nurbs.html#a85ac2598975dd0e977cf92f9e02837d6" target="_top" xlink:title=" ">
<polygon fill="white" stroke="black" points="0,-93 0,-134 183,-134 183,-93 0,-93"/>
<text text-anchor="start" x="8" y="-122" font-family="Helvetica,sans-Serif" font-size="10.00">sll_m_coordinate_transformations</text>
<text text-anchor="start" x="8" y="-111" font-family="Helvetica,sans-Serif" font-size="10.00">_2d_nurbs::sll_f_new_nurbs</text>
<text text-anchor="middle" x="91.5" y="-100" font-family="Helvetica,sans-Serif" font-size="10.00">_2d_transformation_from_file</text>
</a>
</g>
</g>
<!-- Node4&#45;&gt;Node5 -->
<g id="edge4" class="edge">
<title>Node4&#45;&gt;Node5</title>
<path fill="none" stroke="midnightblue" d="M208.74,-113.5C200.16,-113.5 191.54,-113.5 183.08,-113.5"/>
<polygon fill="midnightblue" stroke="midnightblue" points="208.78,-117 218.78,-113.5 208.78,-110 208.78,-117"/>
</g>
</g>
</svg>
