<?xml version="1.0" encoding="UTF-8" standalone="no"?>
<!DOCTYPE svg PUBLIC "-//W3C//DTD SVG 1.1//EN"
 "http://www.w3.org/Graphics/SVG/1.1/DTD/svg11.dtd">
<!-- Generated by graphviz version 2.38.0 (20140413.2041)
 -->
<!-- Title: initialize_gyroaverage_2d_polar_pade_solver Pages: 1 -->
<svg width="288pt" height="50pt"
 viewBox="0.00 0.00 288.00 50.00" xmlns="http://www.w3.org/2000/svg" xmlns:xlink="http://www.w3.org/1999/xlink">
<g id="graph0" class="graph" transform="scale(1 1) rotate(0) translate(4 46)">
<title>initialize_gyroaverage_2d_polar_pade_solver</title>
<polygon fill="white" stroke="none" points="-4,4 -4,-46 284,-46 284,4 -4,4"/>
<!-- Node1 -->
<g id="node1" class="node"><title>Node1</title>
<polygon fill="#bfbfbf" stroke="black" points="0,-6 0,-36 116,-36 116,-6 0,-6"/>
<text text-anchor="start" x="8" y="-24" font-family="Helvetica,sans-Serif" font-size="10.00">initialize_gyroaverage</text>
<text text-anchor="middle" x="58" y="-13" font-family="Helvetica,sans-Serif" font-size="10.00">_2d_polar_pade_solver</text>
</g>
<!-- Node2 -->
<g id="node2" class="node"><title>Node2</title>
<g id="a_node2"><a xlink:href="namespacesll__m__gyroaverage__2d__polar.html#a6031de93d52484d85b09d02cf136c18d" target="_top" xlink:title="sll_m_gyroaverage_2d\l_polar::sll_f_new_plan\l_gyroaverage_polar_pade">
<polygon fill="white" stroke="black" points="152,-0.5 152,-41.5 280,-41.5 280,-0.5 152,-0.5"/>
<text text-anchor="start" x="160" y="-29.5" font-family="Helvetica,sans-Serif" font-size="10.00">sll_m_gyroaverage_2d</text>
<text text-anchor="start" x="160" y="-18.5" font-family="Helvetica,sans-Serif" font-size="10.00">_polar::sll_f_new_plan</text>
<text text-anchor="middle" x="216" y="-7.5" font-family="Helvetica,sans-Serif" font-size="10.00">_gyroaverage_polar_pade</text>
</a>
</g>
</g>
<!-- Node1&#45;&gt;Node2 -->
<g id="edge1" class="edge"><title>Node1&#45;&gt;Node2</title>
<path fill="none" stroke="midnightblue" d="M116.203,-21C124.515,-21 133.168,-21 141.744,-21"/>
<polygon fill="midnightblue" stroke="midnightblue" points="141.751,-24.5001 151.751,-21 141.751,-17.5001 141.751,-24.5001"/>
</g>
</g>
</svg>
