<?xml version="1.0" encoding="UTF-8" standalone="no"?>
<!DOCTYPE svg PUBLIC "-//W3C//DTD SVG 1.1//EN"
 "http://www.w3.org/Graphics/SVG/1.1/DTD/svg11.dtd">
<!-- Generated by graphviz version 2.43.0 (0)
 -->
<!-- Title: asblp Pages: 1 -->
<svg width="304pt" height="50pt"
 viewBox="0.00 0.00 304.00 50.00" xmlns="http://www.w3.org/2000/svg" xmlns:xlink="http://www.w3.org/1999/xlink">
<g id="graph0" class="graph" transform="scale(1 1) rotate(0) translate(4 46)">
<title>asblp</title>
<polygon fill="white" stroke="transparent" points="-4,4 -4,-46 300,-46 300,4 -4,4"/>
<!-- Node1 -->
<g id="node1" class="node">
<title>Node1</title>
<g id="a_node1"><a xlink:title=" ">
<polygon fill="#bfbfbf" stroke="black" points="253,-11.5 253,-30.5 296,-30.5 296,-11.5 253,-11.5"/>
<text text-anchor="middle" x="274.5" y="-18.5" font-family="Helvetica,sans-Serif" font-size="10.00">asblp</text>
</a>
</g>
</g>
<!-- Node2 -->
<g id="node2" class="node">
<title>Node2</title>
<g id="a_node2"><a xlink:href="namespacesll__m__poisson__2d__tri.html#a5806fd9163da9d11b6286801974cb41f" target="_top" xlink:title=" ">
<polygon fill="white" stroke="black" points="165,-11.5 165,-30.5 217,-30.5 217,-11.5 165,-11.5"/>
<text text-anchor="middle" x="191" y="-18.5" font-family="Helvetica,sans-Serif" font-size="10.00">poismc</text>
</a>
</g>
</g>
<!-- Node1&#45;&gt;Node2 -->
<g id="edge1" class="edge">
<title>Node1&#45;&gt;Node2</title>
<path fill="none" stroke="midnightblue" d="M242.72,-21C234.3,-21 225.29,-21 217.22,-21"/>
<polygon fill="midnightblue" stroke="midnightblue" points="242.93,-24.5 252.93,-21 242.93,-17.5 242.93,-24.5"/>
</g>
<!-- Node3 -->
<g id="node3" class="node">
<title>Node3</title>
<g id="a_node3"><a xlink:href="interfacesll__m__poisson__2d__tri_1_1sll__o__create.html#a9d629838a54ccb82e264d8c200ece861" target="_top" xlink:title=" ">
<polygon fill="white" stroke="black" points="0,-0.5 0,-41.5 129,-41.5 129,-0.5 0,-0.5"/>
<text text-anchor="start" x="8" y="-29.5" font-family="Helvetica,sans-Serif" font-size="10.00">sll_m_poisson_2d_tri</text>
<text text-anchor="start" x="8" y="-18.5" font-family="Helvetica,sans-Serif" font-size="10.00">::sll_o_create::initialize</text>
<text text-anchor="middle" x="64.5" y="-7.5" font-family="Helvetica,sans-Serif" font-size="10.00">_poisson_solver</text>
</a>
</g>
</g>
<!-- Node2&#45;&gt;Node3 -->
<g id="edge2" class="edge">
<title>Node2&#45;&gt;Node3</title>
<path fill="none" stroke="midnightblue" d="M154.71,-21C146.66,-21 137.86,-21 129.02,-21"/>
<polygon fill="midnightblue" stroke="midnightblue" points="154.81,-24.5 164.81,-21 154.81,-17.5 154.81,-24.5"/>
</g>
</g>
</svg>
