<?xml version="1.0" encoding="UTF-8" standalone="no"?>
<!DOCTYPE svg PUBLIC "-//W3C//DTD SVG 1.1//EN"
 "http://www.w3.org/Graphics/SVG/1.1/DTD/svg11.dtd">
<!-- Generated by graphviz version 2.43.0 (0)
 -->
<!-- Title: dehierarchical_order_d_dimension Pages: 1 -->
<svg width="446pt" height="78pt"
 viewBox="0.00 0.00 446.00 77.50" xmlns="http://www.w3.org/2000/svg" xmlns:xlink="http://www.w3.org/1999/xlink">
<g id="graph0" class="graph" transform="scale(1 1) rotate(0) translate(4 73.5)">
<title>dehierarchical_order_d_dimension</title>
<polygon fill="white" stroke="transparent" points="-4,4 -4,-73.5 442,-73.5 442,4 -4,4"/>
<!-- Node1 -->
<g id="node1" class="node">
<title>Node1</title>
<g id="a_node1"><a xlink:title=" ">
<polygon fill="#bfbfbf" stroke="black" points="322,-22.5 322,-52.5 438,-52.5 438,-22.5 322,-22.5"/>
<text text-anchor="start" x="330" y="-40.5" font-family="Helvetica,sans-Serif" font-size="10.00">dehierarchical_order</text>
<text text-anchor="middle" x="380" y="-29.5" font-family="Helvetica,sans-Serif" font-size="10.00">_d_dimension</text>
</a>
</g>
</g>
<!-- Node2 -->
<g id="node2" class="node">
<title>Node2</title>
<g id="a_node2"><a xlink:href="namespacesll__m__sparse__grid__interpolator.html#a49d1d06bbd974667a9ac4c977dec9f66" target="_top" xlink:title=" ">
<polygon fill="white" stroke="black" points="170,-48 170,-67 286,-67 286,-48 170,-48"/>
<text text-anchor="middle" x="228" y="-55" font-family="Helvetica,sans-Serif" font-size="10.00">dehierarchical_order</text>
</a>
</g>
</g>
<!-- Node1&#45;&gt;Node2 -->
<g id="edge1" class="edge">
<title>Node1&#45;&gt;Node2</title>
<path fill="none" stroke="midnightblue" d="M311.69,-46.47C303.27,-47.6 294.72,-48.74 286.47,-49.84"/>
<polygon fill="midnightblue" stroke="midnightblue" points="312.41,-49.91 321.86,-45.12 311.49,-42.97 312.41,-49.91"/>
</g>
<!-- Node4 -->
<g id="node4" class="node">
<title>Node4</title>
<g id="a_node4"><a xlink:href="namespacesll__m__sparse__grid__interpolator.html#a43b4046ed1ac974e2dfd27f19f00b751" target="_top" xlink:title=" ">
<polygon fill="white" stroke="black" points="176,-9 176,-28 280,-28 280,-9 176,-9"/>
<text text-anchor="middle" x="228" y="-16" font-family="Helvetica,sans-Serif" font-size="10.00">hierarchical_order</text>
</a>
</g>
</g>
<!-- Node1&#45;&gt;Node4 -->
<g id="edge3" class="edge">
<title>Node1&#45;&gt;Node4</title>
<path fill="none" stroke="midnightblue" d="M311.76,-28.98C301.12,-27.64 290.27,-26.26 280.08,-24.97"/>
<polygon fill="midnightblue" stroke="midnightblue" points="311.5,-32.48 321.86,-30.26 312.38,-25.53 311.5,-32.48"/>
</g>
<!-- Node3 -->
<g id="node3" class="node">
<title>Node3</title>
<g id="a_node3"><a xlink:href="namespacesll__m__sparse__grid__interpolator.html#a883077583cdbfbb223a3d5ce55fac984" target="_top" xlink:title=" ">
<polygon fill="white" stroke="black" points="0,-50 0,-69 134,-69 134,-50 0,-50"/>
<text text-anchor="middle" x="67" y="-57" font-family="Helvetica,sans-Serif" font-size="10.00">compute_dehierarchical</text>
</a>
</g>
</g>
<!-- Node2&#45;&gt;Node3 -->
<g id="edge2" class="edge">
<title>Node2&#45;&gt;Node3</title>
<path fill="none" stroke="midnightblue" d="M159.5,-58.35C151.14,-58.45 142.59,-58.56 134.24,-58.67"/>
<polygon fill="midnightblue" stroke="midnightblue" points="159.64,-61.85 169.6,-58.22 159.55,-54.85 159.64,-61.85"/>
</g>
<!-- Node5 -->
<g id="node5" class="node">
<title>Node5</title>
<g id="a_node5"><a xlink:href="namespacesll__m__sparse__grid__interpolator.html#a648a776ea927eabfeb25b6bfa1522939" target="_top" xlink:title=" ">
<polygon fill="white" stroke="black" points="6,-0.5 6,-30.5 128,-30.5 128,-0.5 6,-0.5"/>
<text text-anchor="start" x="14" y="-18.5" font-family="Helvetica,sans-Serif" font-size="10.00">compute_hierarchical</text>
<text text-anchor="middle" x="67" y="-7.5" font-family="Helvetica,sans-Serif" font-size="10.00">_surplus</text>
</a>
</g>
</g>
<!-- Node4&#45;&gt;Node5 -->
<g id="edge4" class="edge">
<title>Node4&#45;&gt;Node5</title>
<path fill="none" stroke="midnightblue" d="M165.67,-17.34C153.38,-17.11 140.48,-16.87 128.24,-16.64"/>
<polygon fill="midnightblue" stroke="midnightblue" points="165.75,-20.84 175.82,-17.53 165.88,-13.85 165.75,-20.84"/>
</g>
</g>
</svg>
