<?xml version="1.0" encoding="UTF-8" standalone="no"?>
<!DOCTYPE svg PUBLIC "-//W3C//DTD SVG 1.1//EN"
 "http://www.w3.org/Graphics/SVG/1.1/DTD/svg11.dtd">
<!-- Generated by graphviz version 2.38.0 (20140413.2041)
 -->
<!-- Title: sll_collective_globalsum_array_int32 Pages: 1 -->
<svg width="457pt" height="78pt"
 viewBox="0.00 0.00 457.00 77.50" xmlns="http://www.w3.org/2000/svg" xmlns:xlink="http://www.w3.org/1999/xlink">
<g id="graph0" class="graph" transform="scale(1 1) rotate(0) translate(4 73.5)">
<title>sll_collective_globalsum_array_int32</title>
<polygon fill="white" stroke="none" points="-4,4 -4,-73.5 453,-73.5 453,4 -4,4"/>
<!-- Node1 -->
<g id="node1" class="node"><title>Node1</title>
<polygon fill="#bfbfbf" stroke="black" points="0,-22.5 0,-52.5 122,-52.5 122,-22.5 0,-22.5"/>
<text text-anchor="start" x="8" y="-40.5" font-family="Helvetica,sans-Serif" font-size="10.00">sll_collective_globalsum</text>
<text text-anchor="middle" x="61" y="-29.5" font-family="Helvetica,sans-Serif" font-size="10.00">_array_int32</text>
</g>
<!-- Node2 -->
<g id="node2" class="node"><title>Node2</title>
<g id="a_node2"><a xlink:href="namespacesll__m__collective.html#a4a8c68ed0dcd8da51dd472a30ec1e996" target="_top" xlink:title="Reduces integer values on all processes to a single value. ">
<polygon fill="white" stroke="black" points="158,-50 158,-69 292,-69 292,-50 158,-50"/>
<text text-anchor="middle" x="225" y="-57" font-family="Helvetica,sans-Serif" font-size="10.00">sll_s_collective_reduce_int</text>
</a>
</g>
</g>
<!-- Node1&#45;&gt;Node2 -->
<g id="edge1" class="edge"><title>Node1&#45;&gt;Node2</title>
<path fill="none" stroke="midnightblue" d="M122.323,-45.692C130.664,-46.8247 139.318,-48 147.899,-49.1653"/>
<polygon fill="midnightblue" stroke="midnightblue" points="147.535,-52.6479 157.915,-50.5255 148.477,-45.7116 147.535,-52.6479"/>
</g>
<!-- Node4 -->
<g id="node4" class="node"><title>Node4</title>
<g id="a_node4"><a xlink:href="namespacesll__m__collective.html#a9c298f006bc891c360f347330868b9c7" target="_top" xlink:title="Combines complex values from all processes and distributes the result back to all processes...">
<polygon fill="white" stroke="black" points="166.5,-0.5 166.5,-30.5 283.5,-30.5 283.5,-0.5 166.5,-0.5"/>
<text text-anchor="start" x="174.5" y="-18.5" font-family="Helvetica,sans-Serif" font-size="10.00">sll_collective_allreduce</text>
<text text-anchor="middle" x="225" y="-7.5" font-family="Helvetica,sans-Serif" font-size="10.00">_int32</text>
</a>
</g>
</g>
<!-- Node1&#45;&gt;Node4 -->
<g id="edge3" class="edge"><title>Node1&#45;&gt;Node4</title>
<path fill="none" stroke="midnightblue" d="M122.323,-29.308C133.343,-27.8115 144.91,-26.2406 156.132,-24.7167"/>
<polygon fill="midnightblue" stroke="midnightblue" points="156.877,-28.1477 166.315,-23.3338 155.935,-21.2114 156.877,-28.1477"/>
</g>
<!-- Node3 -->
<g id="node3" class="node"><title>Node3</title>
<g id="a_node3"><a xlink:href="namespacesll__m__collective.html#a9a5729d7ca2e55890195f76c8a5cbd62" target="_top" xlink:title="Checks the good execution of collective instruction. ">
<polygon fill="white" stroke="black" points="336.5,-47 336.5,-66 440.5,-66 440.5,-47 336.5,-47"/>
<text text-anchor="middle" x="388.5" y="-54" font-family="Helvetica,sans-Serif" font-size="10.00">sll_s_test_mpi_error</text>
</a>
</g>
</g>
<!-- Node2&#45;&gt;Node3 -->
<g id="edge2" class="edge"><title>Node2&#45;&gt;Node3</title>
<path fill="none" stroke="midnightblue" d="M292.154,-58.2711C303.359,-58.063 314.951,-57.8477 326.029,-57.6419"/>
<polygon fill="midnightblue" stroke="midnightblue" points="326.1,-61.1413 336.033,-57.456 325.969,-54.1425 326.1,-61.1413"/>
</g>
<!-- Node4&#45;&gt;Node3 -->
<g id="edge5" class="edge"><title>Node4&#45;&gt;Node3</title>
<path fill="none" stroke="midnightblue" d="M283.849,-30.1861C302.159,-34.8344 322.181,-39.9175 339.704,-44.366"/>
<polygon fill="midnightblue" stroke="midnightblue" points="339.147,-47.8356 349.701,-46.9039 340.869,-41.0508 339.147,-47.8356"/>
</g>
<!-- Node5 -->
<g id="node5" class="node"><title>Node5</title>
<g id="a_node5"><a xlink:href="namespacesll__m__collective.html#a37ea25f42a791be5a710a6cf0d1e1197" target="_top" xlink:title="Checks if the pointer ptr is associated to an object. ">
<polygon fill="white" stroke="black" points="328,-6 328,-25 449,-25 449,-6 328,-6"/>
<text text-anchor="middle" x="388.5" y="-13" font-family="Helvetica,sans-Serif" font-size="10.00">sll_check_collective_ptr</text>
</a>
</g>
</g>
<!-- Node4&#45;&gt;Node5 -->
<g id="edge4" class="edge"><title>Node4&#45;&gt;Node5</title>
<path fill="none" stroke="midnightblue" d="M283.849,-15.5C294.798,-15.5 306.359,-15.5 317.632,-15.5"/>
<polygon fill="midnightblue" stroke="midnightblue" points="317.878,-19.0001 327.878,-15.5 317.878,-12.0001 317.878,-19.0001"/>
</g>
</g>
</svg>
