<?xml version="1.0" encoding="UTF-8" standalone="no"?>
<!DOCTYPE svg PUBLIC "-//W3C//DTD SVG 1.1//EN"
 "http://www.w3.org/Graphics/SVG/1.1/DTD/svg11.dtd">
<!-- Generated by graphviz version 2.43.0 (0)
 -->
<!-- Title: sll_s_post_halo_exchange_real64 Pages: 1 -->
<!--zoomable 321 -->
<svg id="main" version="1.1" xmlns="http://www.w3.org/2000/svg" xmlns:xlink="http://www.w3.org/1999/xlink" xml:space="preserve" onload="init(evt)">
<style type="text/css"><![CDATA[
.edge:hover path { stroke: red; }
.edge:hover polygon { stroke: red; fill: red; }
]]></style>
<script type="text/javascript"><![CDATA[
var edges = document.getElementsByTagName('g');
if (edges && edges.length) {
  for (var i=0;i<edges.length;i++) {
    if (edges[i].id.substr(0,4)=='edge') {
      edges[i].setAttribute('class','edge');
    }
  }
}
]]></script>
        <defs>
                <circle id="rim" cx="0" cy="0" r="7"/>
                <circle id="rim2" cx="0" cy="0" r="3.5"/>
                <g id="zoomPlus">
                        <use xlink:href="#rim" fill="#404040">
                                <set attributeName="fill" to="#808080" begin="zoomplus.mouseover" end="zoomplus.mouseout"/>
                        </use>
                        <path d="M-4,0h8M0,-4v8" fill="none" stroke="white" stroke-width="1.5" pointer-events="none"/>
                </g>
                <g id="zoomMin">
                        <use xlink:href="#rim" fill="#404040">
                                <set attributeName="fill" to="#808080" begin="zoomminus.mouseover" end="zoomminus.mouseout"/>
                        </use>
                        <path d="M-4,0h8" fill="none" stroke="white" stroke-width="1.5" pointer-events="none"/>
                </g>
                <g id="dirArrow">
                        <path fill="none" stroke="white" stroke-width="1.5" d="M0,-3.0v7 M-2.5,-0.5L0,-3.0L2.5,-0.5"/>
                </g>
               <g id="resetDef">
                       <use xlink:href="#rim2" fill="#404040">
                               <set attributeName="fill" to="#808080" begin="reset.mouseover" end="reset.mouseout"/>
                       </use>
               </g>
        </defs>

<script type="text/javascript">
var viewWidth = 504;
var viewHeight = 321;
var sectionId = 'dynsection-19';
</script>
<script xlink:href="svgpan.js"/>
<svg id="graph" class="graph">
<g id="viewport">
<title>sll_s_post_halo_exchange_real64</title>
<polygon fill="white" stroke="transparent" points="-4,4 -4,-317 500,-317 500,4 -4,4"/>
<!-- Node1 -->
<g id="node1" class="node">
<title>Node1</title>
<g id="a_node1"><a xlink:title=" ">
<polygon fill="#bfbfbf" stroke="black" points="0,-134 0,-164 143,-164 143,-134 0,-134"/>
<text text-anchor="start" x="8" y="-152" font-family="Helvetica,sans-Serif" font-size="10.00">sll_s_post_halo_exchange</text>
<text text-anchor="middle" x="71.5" y="-141" font-family="Helvetica,sans-Serif" font-size="10.00">_real64</text>
</a>
</g>
</g>
<!-- Node2 -->
<g id="node2" class="node">
<title>Node2</title>
<g id="a_node2"><a xlink:href="namespacesll__m__compression.html#a6d61e5384cf55387f7f96cdccb330951" target="_top" xlink:title="compress buffer">
<polygon fill="white" stroke="black" points="193.5,-247 193.5,-277 313.5,-277 313.5,-247 193.5,-247"/>
<text text-anchor="start" x="201.5" y="-265" font-family="Helvetica,sans-Serif" font-size="10.00">sll_m_compression::</text>
<text text-anchor="middle" x="253.5" y="-254" font-family="Helvetica,sans-Serif" font-size="10.00">deflate_buffer_real64</text>
</a>
</g>
</g>
<!-- Node1&#45;&gt;Node2 -->
<g id="edge1" class="edge">
<title>Node1&#45;&gt;Node2</title>
<path fill="none" stroke="midnightblue" d="M87.06,-164.04C106.46,-183.31 142.56,-216.66 179,-237 182.88,-239.17 186.98,-241.19 191.17,-243.07"/>
<polygon fill="midnightblue" stroke="midnightblue" points="189.89,-246.33 200.47,-246.96 192.59,-239.87 189.89,-246.33"/>
</g>
<!-- Node5 -->
<g id="node5" class="node">
<title>Node5</title>
<g id="a_node5"><a xlink:href="namespacesll__m__decomposition__advanced.html#aa61050cc66924254364ed3c02a8376f0" target="_top" xlink:title=" ">
<polygon fill="white" stroke="black" points="207.5,-208.5 207.5,-227.5 299.5,-227.5 299.5,-208.5 207.5,-208.5"/>
<text text-anchor="middle" x="253.5" y="-215.5" font-family="Helvetica,sans-Serif" font-size="10.00">get_buffer_side</text>
</a>
</g>
</g>
<!-- Node1&#45;&gt;Node5 -->
<g id="edge4" class="edge">
<title>Node1&#45;&gt;Node5</title>
<path fill="none" stroke="midnightblue" d="M101.79,-164.07C122.88,-174.53 152.22,-188.27 179,-198 186.69,-200.79 194.95,-203.4 203.06,-205.76"/>
<polygon fill="midnightblue" stroke="midnightblue" points="202.26,-209.17 212.83,-208.5 204.15,-202.43 202.26,-209.17"/>
</g>
<!-- Node6 -->
<g id="node6" class="node">
<title>Node6</title>
<g id="a_node6"><a xlink:href="namespacesll__m__compression.html#a34d9cb6eb93439c6e09584f52f6a6eb6" target="_top" xlink:title=" ">
<polygon fill="white" stroke="black" points="179,-159 179,-189 328,-189 328,-159 179,-159"/>
<text text-anchor="start" x="187" y="-177" font-family="Helvetica,sans-Serif" font-size="10.00">sll_m_compression::</text>
<text text-anchor="middle" x="253.5" y="-166" font-family="Helvetica,sans-Serif" font-size="10.00">set_compression_precision</text>
</a>
</g>
</g>
<!-- Node1&#45;&gt;Node6 -->
<g id="edge5" class="edge">
<title>Node1&#45;&gt;Node6</title>
<path fill="none" stroke="midnightblue" d="M143.12,-158.81C151.55,-159.98 160.21,-161.18 168.8,-162.37"/>
<polygon fill="midnightblue" stroke="midnightblue" points="168.43,-165.86 178.82,-163.77 169.4,-158.92 168.43,-165.86"/>
</g>
<!-- Node7 -->
<g id="node7" class="node">
<title>Node7</title>
<g id="a_node7"><a xlink:href="namespacesll__m__decomposition__advanced.html#a7a25f720a657df4d5c03f9673b44be23" target="_top" xlink:title=" ">
<polygon fill="white" stroke="black" points="186.5,-110 186.5,-140 320.5,-140 320.5,-110 186.5,-110"/>
<text text-anchor="start" x="194.5" y="-128" font-family="Helvetica,sans-Serif" font-size="10.00">sll_f_get_mem_6d_from</text>
<text text-anchor="middle" x="253.5" y="-117" font-family="Helvetica,sans-Serif" font-size="10.00">_buffer_obj</text>
</a>
</g>
</g>
<!-- Node1&#45;&gt;Node7 -->
<g id="edge6" class="edge">
<title>Node1&#45;&gt;Node7</title>
<path fill="none" stroke="midnightblue" d="M143.12,-139.58C154.06,-138.13 165.39,-136.61 176.44,-135.14"/>
<polygon fill="midnightblue" stroke="midnightblue" points="177.04,-138.59 186.49,-133.8 176.11,-131.65 177.04,-138.59"/>
</g>
<!-- Node8 -->
<g id="node8" class="node">
<title>Node8</title>
<g id="a_node8"><a xlink:href="namespacesll__m__utilities.html#afcf11388209164fd953278e87874c167" target="_top" xlink:title="Query an environment variable for the values on,off,1,0,true,false and return the result as a logical...">
<polygon fill="white" stroke="black" points="190.5,-61 190.5,-91 316.5,-91 316.5,-61 190.5,-61"/>
<text text-anchor="start" x="198.5" y="-79" font-family="Helvetica,sans-Serif" font-size="10.00">sll_m_utilities::sll</text>
<text text-anchor="middle" x="253.5" y="-68" font-family="Helvetica,sans-Serif" font-size="10.00">_f_query_environment</text>
</a>
</g>
</g>
<!-- Node1&#45;&gt;Node8 -->
<g id="edge7" class="edge">
<title>Node1&#45;&gt;Node8</title>
<path fill="none" stroke="midnightblue" d="M102.85,-133.9C123.94,-123.68 152.85,-110.25 179,-100 183.8,-98.12 188.81,-96.26 193.86,-94.47"/>
<polygon fill="midnightblue" stroke="midnightblue" points="195.29,-97.68 203.59,-91.09 192.99,-91.06 195.29,-97.68"/>
</g>
<!-- Node9 -->
<g id="node9" class="node">
<title>Node9</title>
<g id="a_node9"><a xlink:href="namespacesll__m__decomposition.html#ad76aa09ff99124cef036bdd082a77c51" target="_top" xlink:title=" ">
<polygon fill="white" stroke="black" points="193.5,-0.5 193.5,-41.5 313.5,-41.5 313.5,-0.5 193.5,-0.5"/>
<text text-anchor="start" x="201.5" y="-29.5" font-family="Helvetica,sans-Serif" font-size="10.00">sll_m_decomposition</text>
<text text-anchor="start" x="201.5" y="-18.5" font-family="Helvetica,sans-Serif" font-size="10.00">::sll_s_copy_array_to</text>
<text text-anchor="middle" x="253.5" y="-7.5" font-family="Helvetica,sans-Serif" font-size="10.00">_buffer_6d_real64</text>
</a>
</g>
</g>
<!-- Node1&#45;&gt;Node9 -->
<g id="edge8" class="edge">
<title>Node1&#45;&gt;Node9</title>
<path fill="none" stroke="midnightblue" d="M85.62,-133.93C104.5,-112.99 141.24,-74.97 179,-51 181.59,-49.35 184.29,-47.77 187.06,-46.24"/>
<polygon fill="midnightblue" stroke="midnightblue" points="188.79,-49.28 196.07,-41.58 185.58,-43.06 188.79,-49.28"/>
</g>
<!-- Node3 -->
<g id="node3" class="node">
<title>Node3</title>
<g id="a_node3"><a xlink:href="namespacesll__m__compression.html#a1410384a8d836b838c8d16fa65cb4cbb" target="_top" xlink:title=" ">
<polygon fill="white" stroke="black" points="370,-271.5 370,-312.5 490,-312.5 490,-271.5 370,-271.5"/>
<text text-anchor="start" x="378" y="-300.5" font-family="Helvetica,sans-Serif" font-size="10.00">sll_m_compression::</text>
<text text-anchor="start" x="378" y="-289.5" font-family="Helvetica,sans-Serif" font-size="10.00">allocate_compressed</text>
<text text-anchor="middle" x="430" y="-278.5" font-family="Helvetica,sans-Serif" font-size="10.00">_buffer_index_arrays</text>
</a>
</g>
</g>
<!-- Node2&#45;&gt;Node3 -->
<g id="edge2" class="edge">
<title>Node2&#45;&gt;Node3</title>
<path fill="none" stroke="midnightblue" d="M313.58,-272.16C328.5,-274.72 344.66,-277.5 360.02,-280.14"/>
<polygon fill="midnightblue" stroke="midnightblue" points="359.53,-283.61 369.98,-281.85 360.72,-276.71 359.53,-283.61"/>
</g>
<!-- Node4 -->
<g id="node4" class="node">
<title>Node4</title>
<g id="a_node4"><a xlink:href="namespacesll__m__compression.html#a373084b7e662cac613eabf1ece27a827" target="_top" xlink:title=" ">
<polygon fill="white" stroke="black" points="364,-211.5 364,-252.5 496,-252.5 496,-211.5 364,-211.5"/>
<text text-anchor="start" x="372" y="-240.5" font-family="Helvetica,sans-Serif" font-size="10.00">sll_m_compression::</text>
<text text-anchor="start" x="372" y="-229.5" font-family="Helvetica,sans-Serif" font-size="10.00">deallocate_compressed</text>
<text text-anchor="middle" x="430" y="-218.5" font-family="Helvetica,sans-Serif" font-size="10.00">_buffer_obj</text>
</a>
</g>
</g>
<!-- Node2&#45;&gt;Node4 -->
<g id="edge3" class="edge">
<title>Node2&#45;&gt;Node4</title>
<path fill="none" stroke="midnightblue" d="M313.58,-251.84C326.5,-249.62 340.34,-247.24 353.8,-244.93"/>
<polygon fill="midnightblue" stroke="midnightblue" points="354.73,-248.32 363.99,-243.18 353.54,-241.42 354.73,-248.32"/>
</g>
</g>
</svg>
        <g id="navigator" transform="translate(0 0)" fill="#404254">
                <rect fill="#f2f5e9" fill-opacity="0.5" stroke="#606060" stroke-width=".5" x="0" y="0" width="60" height="60"/>
                <use id="zoomplus" xlink:href="#zoomPlus" x="17" y="9" onmousedown="handleZoom(evt,'in')"/>
                <use id="zoomminus" xlink:href="#zoomMin" x="42" y="9" onmousedown="handleZoom(evt,'out')"/>
                <use id="reset" xlink:href="#resetDef" x="30" y="36" onmousedown="handleReset()"/>
                <g id="arrowUp" xlink:href="#dirArrow" transform="translate(30 24)" onmousedown="handlePan(0,-1)">
                  <use xlink:href="#rim" fill="#404040">
                        <set attributeName="fill" to="#808080" begin="arrowUp.mouseover" end="arrowUp.mouseout"/>
                  </use>
                  <path fill="none" stroke="white" stroke-width="1.5" d="M0,-3.0v7 M-2.5,-0.5L0,-3.0L2.5,-0.5"/>
                </g>
                <g id="arrowRight" xlink:href="#dirArrow" transform="rotate(90) translate(36 -43)" onmousedown="handlePan(1,0)">
                  <use xlink:href="#rim" fill="#404040">
                        <set attributeName="fill" to="#808080" begin="arrowRight.mouseover" end="arrowRight.mouseout"/>
                  </use>
                  <path fill="none" stroke="white" stroke-width="1.5" d="M0,-3.0v7 M-2.5,-0.5L0,-3.0L2.5,-0.5"/>
                </g>
                <g id="arrowDown" xlink:href="#dirArrow" transform="rotate(180) translate(-30 -48)" onmousedown="handlePan(0,1)">
                  <use xlink:href="#rim" fill="#404040">
                        <set attributeName="fill" to="#808080" begin="arrowDown.mouseover" end="arrowDown.mouseout"/>
                  </use>
                  <path fill="none" stroke="white" stroke-width="1.5" d="M0,-3.0v7 M-2.5,-0.5L0,-3.0L2.5,-0.5"/>
                </g>
                <g id="arrowLeft" xlink:href="#dirArrow" transform="rotate(270) translate(-36 17)" onmousedown="handlePan(-1,0)">
                  <use xlink:href="#rim" fill="#404040">
                        <set attributeName="fill" to="#808080" begin="arrowLeft.mouseover" end="arrowLeft.mouseout"/>
                  </use>
                  <path fill="none" stroke="white" stroke-width="1.5" d="M0,-3.0v7 M-2.5,-0.5L0,-3.0L2.5,-0.5"/>
                </g>
        </g>
        <svg viewBox="0 0 15 15" width="100%" height="30px" preserveAspectRatio="xMaxYMin meet">
         <g id="arrow_out" transform="scale(0.3 0.3)">
          <a xlink:href="namespacesll__m__decomposition__advanced_af42d554bcb19c7ec7d9f6de8acc48397_cgraph_org.svg" target="_base">
           <rect id="button" ry="5" rx="5" y="6" x="6" height="38" width="38"
                fill="#f2f5e9" fill-opacity="0.5" stroke="#606060" stroke-width="1.0"/>
           <path id="arrow"
             d="M 11.500037,31.436501 C 11.940474,20.09759 22.043105,11.32322 32.158766,21.979434 L 37.068811,17.246167 C 37.068811,17.246167 37.088388,32 37.088388,32 L 22.160133,31.978069 C 22.160133,31.978069 26.997745,27.140456 26.997745,27.140456 C 18.528582,18.264221 13.291696,25.230495 11.500037,31.436501 z"
             style="fill:#404040;"/>
          </a>
         </g>
        </svg>
</svg>
