<?xml version="1.0" encoding="UTF-8" standalone="no"?>
<!DOCTYPE svg PUBLIC "-//W3C//DTD SVG 1.1//EN"
 "http://www.w3.org/Graphics/SVG/1.1/DTD/svg11.dtd">
<!-- Generated by graphviz version 2.38.0 (20140413.2041)
 -->
<!-- Title: compute_spline_2d_hrmt_prdc Pages: 1 -->
<svg width="497pt" height="290pt"
 viewBox="0.00 0.00 497.00 290.00" xmlns="http://www.w3.org/2000/svg" xmlns:xlink="http://www.w3.org/1999/xlink">
<g id="graph0" class="graph" transform="scale(1 1) rotate(0) translate(4 286)">
<title>compute_spline_2d_hrmt_prdc</title>
<polygon fill="white" stroke="none" points="-4,4 -4,-286 493,-286 493,4 -4,4"/>
<!-- Node1 -->
<g id="node1" class="node"><title>Node1</title>
<polygon fill="#bfbfbf" stroke="black" points="0,-131.5 0,-150.5 149,-150.5 149,-131.5 0,-131.5"/>
<text text-anchor="middle" x="74.5" y="-138.5" font-family="Helvetica,sans-Serif" font-size="10.00">compute_spline_2d_hrmt_prdc</text>
</g>
<!-- Node2 -->
<g id="node2" class="node"><title>Node2</title>
<g id="a_node2"><a xlink:href="namespacesll__m__cubic__splines.html#afedd5ff961baf6a1f10ecfd6c8e353b7" target="_top" xlink:title="Computes the spline coefficients for the given data. The coeffcients are first computed in the second...">
<polygon fill="white" stroke="black" points="185,-126 185,-156 310,-156 310,-126 185,-126"/>
<text text-anchor="start" x="193" y="-144" font-family="Helvetica,sans-Serif" font-size="10.00">sll_s_cubic_spline</text>
<text text-anchor="middle" x="247.5" y="-133" font-family="Helvetica,sans-Serif" font-size="10.00">_2d_compute_interpolant</text>
</a>
</g>
</g>
<!-- Node1&#45;&gt;Node2 -->
<g id="edge1" class="edge"><title>Node1&#45;&gt;Node2</title>
<path fill="none" stroke="midnightblue" d="M159.148,-141C167.81,-141 176.498,-141 184.856,-141"/>
<polygon fill="midnightblue" stroke="midnightblue" points="159.012,-137.5 149.012,-141 159.012,-144.5 159.012,-137.5"/>
</g>
<!-- Node3 -->
<g id="node3" class="node"><title>Node3</title>
<g id="a_node3"><a xlink:href="namespacesll__m__fdistribu4d__dk.html#adf8cc4ba8aba42290c788f697de79f42" target="_top" xlink:title="sll_m_fdistribu4d_dk\l::sll_s_function_xy_from\l_rtheta">
<polygon fill="white" stroke="black" points="356,-240.5 356,-281.5 479,-281.5 479,-240.5 356,-240.5"/>
<text text-anchor="start" x="364" y="-269.5" font-family="Helvetica,sans-Serif" font-size="10.00">sll_m_fdistribu4d_dk</text>
<text text-anchor="start" x="364" y="-258.5" font-family="Helvetica,sans-Serif" font-size="10.00">::sll_s_function_xy_from</text>
<text text-anchor="middle" x="417.5" y="-247.5" font-family="Helvetica,sans-Serif" font-size="10.00">_rtheta</text>
</a>
</g>
</g>
<!-- Node2&#45;&gt;Node3 -->
<g id="edge2" class="edge"><title>Node2&#45;&gt;Node3</title>
<path fill="none" stroke="midnightblue" d="M268.553,-163.456C287.124,-183.229 316.283,-211.79 346,-231 351.25,-234.394 356.949,-237.553 362.755,-240.449"/>
<polygon fill="midnightblue" stroke="midnightblue" points="271.1,-161.055 261.741,-156.089 265.96,-165.807 271.1,-161.055"/>
</g>
<!-- Node4 -->
<g id="node4" class="node"><title>Node4</title>
<g id="a_node4"><a xlink:href="namespacesll__m__general__coordinate__elliptic__solver.html#a2c7a0e952c10e71709680a8ea4bd548d" target="_top" xlink:title="sll_m_general_coordinate\l_elliptic_solver::sll_s\l_factorize_mat_es_prototype">
<polygon fill="white" stroke="black" points="346,-180.5 346,-221.5 489,-221.5 489,-180.5 346,-180.5"/>
<text text-anchor="start" x="354" y="-209.5" font-family="Helvetica,sans-Serif" font-size="10.00">sll_m_general_coordinate</text>
<text text-anchor="start" x="354" y="-198.5" font-family="Helvetica,sans-Serif" font-size="10.00">_elliptic_solver::sll_s</text>
<text text-anchor="middle" x="417.5" y="-187.5" font-family="Helvetica,sans-Serif" font-size="10.00">_factorize_mat_es_prototype</text>
</a>
</g>
</g>
<!-- Node2&#45;&gt;Node4 -->
<g id="edge3" class="edge"><title>Node2&#45;&gt;Node4</title>
<path fill="none" stroke="midnightblue" d="M300.342,-159.515C318.885,-166.137 339.89,-173.639 358.89,-180.425"/>
<polygon fill="midnightblue" stroke="midnightblue" points="301.488,-156.208 290.893,-156.141 299.134,-162.8 301.488,-156.208"/>
</g>
<!-- Node5 -->
<g id="node5" class="node"><title>Node5</title>
<g id="a_node5"><a xlink:href="namespacesll__m__cubic__spline__interpolator__2d.html#a10af8789e490412a3580fcd15040a9b6" target="_top" xlink:title="sll_m_cubic_spline\l_interpolator_2d::compute\l_interpolants_cs2d">
<polygon fill="white" stroke="black" points="353,-120.5 353,-161.5 482,-161.5 482,-120.5 353,-120.5"/>
<text text-anchor="start" x="361" y="-149.5" font-family="Helvetica,sans-Serif" font-size="10.00">sll_m_cubic_spline</text>
<text text-anchor="start" x="361" y="-138.5" font-family="Helvetica,sans-Serif" font-size="10.00">_interpolator_2d::compute</text>
<text text-anchor="middle" x="417.5" y="-127.5" font-family="Helvetica,sans-Serif" font-size="10.00">_interpolants_cs2d</text>
</a>
</g>
</g>
<!-- Node2&#45;&gt;Node5 -->
<g id="edge4" class="edge"><title>Node2&#45;&gt;Node5</title>
<path fill="none" stroke="midnightblue" d="M320.373,-141C331.198,-141 342.298,-141 352.932,-141"/>
<polygon fill="midnightblue" stroke="midnightblue" points="320.103,-137.5 310.103,-141 320.103,-144.5 320.103,-137.5"/>
</g>
<!-- Node6 -->
<g id="node6" class="node"><title>Node6</title>
<g id="a_node6"><a xlink:href="namespacesll__m__cubic__spline__interpolator__2d.html#a44c6e00989e48621fd373f2a8d0526fa" target="_top" xlink:title="sll_m_cubic_spline\l_interpolator_2d::spline\l_interpolate2d">
<polygon fill="white" stroke="black" points="359,-60.5 359,-101.5 476,-101.5 476,-60.5 359,-60.5"/>
<text text-anchor="start" x="367" y="-89.5" font-family="Helvetica,sans-Serif" font-size="10.00">sll_m_cubic_spline</text>
<text text-anchor="start" x="367" y="-78.5" font-family="Helvetica,sans-Serif" font-size="10.00">_interpolator_2d::spline</text>
<text text-anchor="middle" x="417.5" y="-67.5" font-family="Helvetica,sans-Serif" font-size="10.00">_interpolate2d</text>
</a>
</g>
</g>
<!-- Node2&#45;&gt;Node6 -->
<g id="edge5" class="edge"><title>Node2&#45;&gt;Node6</title>
<path fill="none" stroke="midnightblue" d="M300.342,-122.485C318.885,-115.863 339.89,-108.361 358.89,-101.575"/>
<polygon fill="midnightblue" stroke="midnightblue" points="299.134,-119.2 290.893,-125.859 301.488,-125.792 299.134,-119.2"/>
</g>
<!-- Node7 -->
<g id="node7" class="node"><title>Node7</title>
<g id="a_node7"><a xlink:href="namespacesll__m__cubic__spline__interpolator__2d.html#af3b769e5f47945e7de14ba1272defea0" target="_top" xlink:title="sll_m_cubic_spline\l_interpolator_2d::spline\l_interpolate2d_disp">
<polygon fill="white" stroke="black" points="359,-0.5 359,-41.5 476,-41.5 476,-0.5 359,-0.5"/>
<text text-anchor="start" x="367" y="-29.5" font-family="Helvetica,sans-Serif" font-size="10.00">sll_m_cubic_spline</text>
<text text-anchor="start" x="367" y="-18.5" font-family="Helvetica,sans-Serif" font-size="10.00">_interpolator_2d::spline</text>
<text text-anchor="middle" x="417.5" y="-7.5" font-family="Helvetica,sans-Serif" font-size="10.00">_interpolate2d_disp</text>
</a>
</g>
</g>
<!-- Node2&#45;&gt;Node7 -->
<g id="edge6" class="edge"><title>Node2&#45;&gt;Node7</title>
<path fill="none" stroke="midnightblue" d="M268.553,-118.544C287.124,-98.7709 316.283,-70.2105 346,-51 351.25,-47.606 356.949,-44.447 362.755,-41.5512"/>
<polygon fill="midnightblue" stroke="midnightblue" points="265.96,-116.193 261.741,-125.911 271.1,-120.945 265.96,-116.193"/>
</g>
</g>
</svg>
