<?xml version="1.0" encoding="UTF-8" standalone="no"?>
<!DOCTYPE svg PUBLIC "-//W3C//DTD SVG 1.1//EN"
 "http://www.w3.org/Graphics/SVG/1.1/DTD/svg11.dtd">
<!-- Generated by graphviz version 2.40.1 (20161225.0304)
 -->
<!-- Title: mp_acquire_double_3d Pages: 1 -->
<svg width="431pt" height="66pt"
 viewBox="0.00 0.00 431.00 66.00" xmlns="http://www.w3.org/2000/svg" xmlns:xlink="http://www.w3.org/1999/xlink">
<g id="graph0" class="graph" transform="scale(1 1) rotate(0) translate(4 62)">
<title>mp_acquire_double_3d</title>
<polygon fill="#ffffff" stroke="transparent" points="-4,4 -4,-62 427,-62 427,4 -4,4"/>
<!-- Node75 -->
<g id="node1" class="node">
<title>Node75</title>
<polygon fill="#bfbfbf" stroke="#000000" points="0,-19.5 0,-38.5 129,-38.5 129,-19.5 0,-19.5"/>
<text text-anchor="middle" x="64.5" y="-26.5" font-family="Helvetica,sans-Serif" font-size="10.00" fill="#000000">mp_acquire_double_3d</text>
</g>
<!-- Node76 -->
<g id="node2" class="node">
<title>Node76</title>
<g id="a_node2"><a xlink:href="namespacefmempool.html#a04ed54d0c65f6226369b350cfaa124f4" target="_top" xlink:title="get_n_elem">
<polygon fill="#ffffff" stroke="#000000" points="181,-38.5 181,-57.5 255,-57.5 255,-38.5 181,-38.5"/>
<text text-anchor="middle" x="218" y="-45.5" font-family="Helvetica,sans-Serif" font-size="10.00" fill="#000000">get_n_elem</text>
</a>
</g>
</g>
<!-- Node75&#45;&gt;Node76 -->
<g id="edge1" class="edge">
<title>Node75&#45;&gt;Node76</title>
<path fill="none" stroke="#191970" d="M129.1529,-37.0026C143.1176,-38.7312 157.6305,-40.5275 170.779,-42.1551"/>
<polygon fill="#191970" stroke="#191970" points="170.6406,-45.6646 180.9948,-43.4196 171.5005,-38.7176 170.6406,-45.6646"/>
</g>
<!-- Node77 -->
<g id="node3" class="node">
<title>Node77</title>
<g id="a_node3"><a xlink:href="namespacefmempool.html#a7d6d7b60f6147c50c872e4d81f5d02fd" target="_top" xlink:title="mp_acquire_bytes">
<polygon fill="#ffffff" stroke="#000000" points="165,-.5 165,-19.5 271,-19.5 271,-.5 165,-.5"/>
<text text-anchor="middle" x="218" y="-7.5" font-family="Helvetica,sans-Serif" font-size="10.00" fill="#000000">mp_acquire_bytes</text>
</a>
</g>
</g>
<!-- Node75&#45;&gt;Node77 -->
<g id="edge2" class="edge">
<title>Node75&#45;&gt;Node77</title>
<path fill="none" stroke="#191970" d="M129.1529,-20.9974C137.541,-19.9591 146.1268,-18.8964 154.4959,-17.8604"/>
<polygon fill="#191970" stroke="#191970" points="155.0747,-21.3156 164.569,-16.6136 154.2148,-14.3686 155.0747,-21.3156"/>
</g>
<!-- Node78 -->
<g id="node4" class="node">
<title>Node78</title>
<g id="a_node4"><a xlink:href="namespacefmempool.html#a01aa784ca8bcf6dab0816a16963db6dc" target="_top" xlink:title="get_omp_thread_idx">
<polygon fill="#ffffff" stroke="#000000" points="307,-.5 307,-19.5 423,-19.5 423,-.5 307,-.5"/>
<text text-anchor="middle" x="365" y="-7.5" font-family="Helvetica,sans-Serif" font-size="10.00" fill="#000000">get_omp_thread_idx</text>
</a>
</g>
</g>
<!-- Node77&#45;&gt;Node78 -->
<g id="edge3" class="edge">
<title>Node77&#45;&gt;Node78</title>
<path fill="none" stroke="#191970" d="M271.0704,-10C279.4048,-10 288.1199,-10 296.7385,-10"/>
<polygon fill="#191970" stroke="#191970" points="296.783,-13.5001 306.783,-10 296.7829,-6.5001 296.783,-13.5001"/>
</g>
</g>
</svg>
