<?xml version="1.0" encoding="UTF-8" standalone="no"?>
<!DOCTYPE svg PUBLIC "-//W3C//DTD SVG 1.1//EN"
 "http://www.w3.org/Graphics/SVG/1.1/DTD/svg11.dtd">
<!-- Generated by graphviz version 2.40.1 (20161225.0304)
 -->
<!-- Title: splcoefper1dold Pages: 1 -->
<!--zoomable 137 -->
<svg id="main" version="1.1" xmlns="http://www.w3.org/2000/svg" xmlns:xlink="http://www.w3.org/1999/xlink" xml:space="preserve" onload="init(evt)">
<style type="text/css"><![CDATA[
.edge:hover path { stroke: red; }
.edge:hover polygon { stroke: red; fill: red; }
]]></style>
<script type="text/javascript"><![CDATA[
var edges = document.getElementsByTagName('g');
if (edges && edges.length) {
  for (var i=0;i<edges.length;i++) {
    if (edges[i].id.substr(0,4)=='edge') {
      edges[i].setAttribute('class','edge');
    }
  }
}
]]></script>
        <defs>
                <circle id="rim" cx="0" cy="0" r="7"/>
                <circle id="rim2" cx="0" cy="0" r="3.5"/>
                <g id="zoomPlus">
                        <use xlink:href="#rim" fill="#404040">
                                <set attributeName="fill" to="#808080" begin="zoomplus.mouseover" end="zoomplus.mouseout"/>
                        </use>
                        <path d="M-4,0h8M0,-4v8" fill="none" stroke="white" stroke-width="1.5" pointer-events="none"/>
                </g>
                <g id="zoomMin">
                        <use xlink:href="#rim" fill="#404040">
                                <set attributeName="fill" to="#808080" begin="zoomminus.mouseover" end="zoomminus.mouseout"/>
                        </use>
                        <path d="M-4,0h8" fill="none" stroke="white" stroke-width="1.5" pointer-events="none"/>
                </g>
                <g id="dirArrow">
                        <path fill="none" stroke="white" stroke-width="1.5" d="M0,-3.0v7 M-2.5,-0.5L0,-3.0L2.5,-0.5"/>
                </g>
               <g id="resetDef">
                       <use xlink:href="#rim2" fill="#404040">
                               <set attributeName="fill" to="#808080" begin="reset.mouseover" end="reset.mouseout"/>
                       </use>
               </g>
        </defs>

<script type="text/javascript">
var viewWidth = 591;
var viewHeight = 137;
var sectionId = 'dynsection-55';
</script>
<script xlink:href="svgpan.js"/>
<svg id="graph" class="graph">
<g id="viewport">
<title>splcoefper1dold</title>
<polygon fill="#ffffff" stroke="transparent" points="-4,4 -4,-133 587,-133 587,4 -4,4"/>
<!-- Node240 -->
<g id="node1" class="node">
<title>Node240</title>
<polygon fill="#bfbfbf" stroke="#000000" points="0,-55 0,-74 95,-74 95,-55 0,-55"/>
<text text-anchor="middle" x="47.5" y="-62" font-family="Helvetica,sans-Serif" font-size="10.00" fill="#000000">splcoefper1dold</text>
</g>
<!-- Node241 -->
<g id="node2" class="node">
<title>Node241</title>
<g id="a_node2"><a xlink:href="namespacesll__m__gyroaverage__2d__polar.html#aa3be680ae583d97a373f0e422866a37b" target="_top" xlink:title="splcoefnatper2d">
<polygon fill="#ffffff" stroke="#000000" points="131,-55 131,-74 226,-74 226,-55 131,-55"/>
<text text-anchor="middle" x="178.5" y="-62" font-family="Helvetica,sans-Serif" font-size="10.00" fill="#000000">splcoefnatper2d</text>
</a>
</g>
</g>
<!-- Node240&#45;&gt;Node241 -->
<g id="edge1" class="edge">
<title>Node240&#45;&gt;Node241</title>
<path fill="none" stroke="#191970" d="M105.3507,-64.5C113.8031,-64.5 122.4278,-64.5 130.6514,-64.5"/>
<polygon fill="#191970" stroke="#191970" points="105.1646,-61.0001 95.1646,-64.5 105.1645,-68.0001 105.1646,-61.0001"/>
</g>
<!-- Node242 -->
<g id="node3" class="node">
<title>Node242</title>
<g id="a_node3"><a xlink:href="namespacesll__m__gyroaverage__2d__polar.html#a2179cb107521617ad7f43d8150ee7ea9" target="_top" xlink:title="sll_s_compute_gyroaverage\l_points_polar_spl">
<polygon fill="#ffffff" stroke="#000000" points="262,-98.5 262,-128.5 415,-128.5 415,-98.5 262,-98.5"/>
<text text-anchor="start" x="270" y="-116.5" font-family="Helvetica,sans-Serif" font-size="10.00" fill="#000000">sll_s_compute_gyroaverage</text>
<text text-anchor="middle" x="338.5" y="-105.5" font-family="Helvetica,sans-Serif" font-size="10.00" fill="#000000">_points_polar_spl</text>
</a>
</g>
</g>
<!-- Node241&#45;&gt;Node242 -->
<g id="edge2" class="edge">
<title>Node241&#45;&gt;Node242</title>
<path fill="none" stroke="#191970" d="M219.4555,-77.0426C240.7757,-83.5719 266.9975,-91.6024 289.3997,-98.463"/>
<polygon fill="#191970" stroke="#191970" points="220.316,-73.6458 209.7294,-74.064 218.2662,-80.3389 220.316,-73.6458"/>
</g>
<!-- Node244 -->
<g id="node5" class="node">
<title>Node244</title>
<g id="a_node5"><a xlink:href="namespacesll__m__gyroaverage__2d__polar.html#a4e89056071a65026b5e8816c6764df4f" target="_top" xlink:title="sll_s_compute_gyroaverage\l_pre_compute_polar_spl">
<polygon fill="#ffffff" stroke="#000000" points="262,-49.5 262,-79.5 415,-79.5 415,-49.5 262,-49.5"/>
<text text-anchor="start" x="270" y="-67.5" font-family="Helvetica,sans-Serif" font-size="10.00" fill="#000000">sll_s_compute_gyroaverage</text>
<text text-anchor="middle" x="338.5" y="-56.5" font-family="Helvetica,sans-Serif" font-size="10.00" fill="#000000">_pre_compute_polar_spl</text>
</a>
</g>
</g>
<!-- Node241&#45;&gt;Node244 -->
<g id="edge4" class="edge">
<title>Node241&#45;&gt;Node244</title>
<path fill="none" stroke="#191970" d="M236.3233,-64.5C244.5844,-64.5 253.1879,-64.5 261.742,-64.5"/>
<polygon fill="#191970" stroke="#191970" points="236.0721,-61.0001 226.0721,-64.5 236.072,-68.0001 236.0721,-61.0001"/>
</g>
<!-- Node245 -->
<g id="node6" class="node">
<title>Node245</title>
<g id="a_node6"><a xlink:href="namespacesll__m__gyroaverage__2d__polar.html#adf408663e066fc8c157b546629468f80" target="_top" xlink:title="sll_s_compute_gyroaverage\l_pre_compute_polar_spl_fft">
<polygon fill="#ffffff" stroke="#000000" points="262,-.5 262,-30.5 415,-30.5 415,-.5 262,-.5"/>
<text text-anchor="start" x="270" y="-18.5" font-family="Helvetica,sans-Serif" font-size="10.00" fill="#000000">sll_s_compute_gyroaverage</text>
<text text-anchor="middle" x="338.5" y="-7.5" font-family="Helvetica,sans-Serif" font-size="10.00" fill="#000000">_pre_compute_polar_spl_fft</text>
</a>
</g>
</g>
<!-- Node241&#45;&gt;Node245 -->
<g id="edge6" class="edge">
<title>Node241&#45;&gt;Node245</title>
<path fill="none" stroke="#191970" d="M219.4555,-51.9574C240.7757,-45.4281 266.9975,-37.3976 289.3997,-30.537"/>
<polygon fill="#191970" stroke="#191970" points="218.2662,-48.6611 209.7294,-54.936 220.316,-55.3542 218.2662,-48.6611"/>
</g>
<!-- Node243 -->
<g id="node4" class="node">
<title>Node243</title>
<g id="a_node4"><a xlink:href="namespacesll__m__gyroaverage__2d__polar__splines__solver.html#a2027a05dfe7a379899c5e06c046d0a95" target="_top" xlink:title="sll_m_gyroaverage_2d\l_polar_splines_solver\l::compute_gyroaverage\l_2d_polar_splines">
<polygon fill="#ffffff" stroke="#000000" points="451,-38.5 451,-90.5 583,-90.5 583,-38.5 451,-38.5"/>
<text text-anchor="start" x="459" y="-78.5" font-family="Helvetica,sans-Serif" font-size="10.00" fill="#000000">sll_m_gyroaverage_2d</text>
<text text-anchor="start" x="459" y="-67.5" font-family="Helvetica,sans-Serif" font-size="10.00" fill="#000000">_polar_splines_solver</text>
<text text-anchor="start" x="459" y="-56.5" font-family="Helvetica,sans-Serif" font-size="10.00" fill="#000000">::compute_gyroaverage</text>
<text text-anchor="middle" x="517" y="-45.5" font-family="Helvetica,sans-Serif" font-size="10.00" fill="#000000">_2d_polar_splines</text>
</a>
</g>
</g>
<!-- Node242&#45;&gt;Node243 -->
<g id="edge3" class="edge">
<title>Node242&#45;&gt;Node243</title>
<path fill="none" stroke="#191970" d="M403.48,-95.6623C418.9103,-91.4266 435.388,-86.9033 450.8691,-82.6536"/>
<polygon fill="#191970" stroke="#191970" points="402.2291,-92.3762 393.5124,-98.3986 404.0822,-99.1265 402.2291,-92.3762"/>
</g>
<!-- Node244&#45;&gt;Node243 -->
<g id="edge5" class="edge">
<title>Node244&#45;&gt;Node243</title>
<path fill="none" stroke="#191970" d="M425.3342,-64.5C433.9646,-64.5 442.6252,-64.5 450.9928,-64.5"/>
<polygon fill="#191970" stroke="#191970" points="425.236,-61.0001 415.236,-64.5 425.236,-68.0001 425.236,-61.0001"/>
</g>
<!-- Node245&#45;&gt;Node243 -->
<g id="edge7" class="edge">
<title>Node245&#45;&gt;Node243</title>
<path fill="none" stroke="#191970" d="M403.48,-33.3377C418.9103,-37.5734 435.388,-42.0967 450.8691,-46.3464"/>
<polygon fill="#191970" stroke="#191970" points="404.0822,-29.8735 393.5124,-30.6014 402.2291,-36.6238 404.0822,-29.8735"/>
</g>
</g>
</svg>
        <g id="navigator" transform="translate(0 0)" fill="#404254">
                <rect fill="#f2f5e9" fill-opacity="0.5" stroke="#606060" stroke-width=".5" x="0" y="0" width="60" height="60"/>
                <use id="zoomplus" xlink:href="#zoomPlus" x="17" y="9" onmousedown="handleZoom(evt,'in')"/>
                <use id="zoomminus" xlink:href="#zoomMin" x="42" y="9" onmousedown="handleZoom(evt,'out')"/>
                <use id="reset" xlink:href="#resetDef" x="30" y="36" onmousedown="handleReset()"/>
                <g id="arrowUp" xlink:href="#dirArrow" transform="translate(30 24)" onmousedown="handlePan(0,-1)">
                  <use xlink:href="#rim" fill="#404040">
                        <set attributeName="fill" to="#808080" begin="arrowUp.mouseover" end="arrowUp.mouseout"/>
                  </use>
                  <path fill="none" stroke="white" stroke-width="1.5" d="M0,-3.0v7 M-2.5,-0.5L0,-3.0L2.5,-0.5"/>
                </g>
                <g id="arrowRight" xlink:href="#dirArrow" transform="rotate(90) translate(36 -43)" onmousedown="handlePan(1,0)">
                  <use xlink:href="#rim" fill="#404040">
                        <set attributeName="fill" to="#808080" begin="arrowRight.mouseover" end="arrowRight.mouseout"/>
                  </use>
                  <path fill="none" stroke="white" stroke-width="1.5" d="M0,-3.0v7 M-2.5,-0.5L0,-3.0L2.5,-0.5"/>
                </g>
                <g id="arrowDown" xlink:href="#dirArrow" transform="rotate(180) translate(-30 -48)" onmousedown="handlePan(0,1)">
                  <use xlink:href="#rim" fill="#404040">
                        <set attributeName="fill" to="#808080" begin="arrowDown.mouseover" end="arrowDown.mouseout"/>
                  </use>
                  <path fill="none" stroke="white" stroke-width="1.5" d="M0,-3.0v7 M-2.5,-0.5L0,-3.0L2.5,-0.5"/>
                </g>
                <g id="arrowLeft" xlink:href="#dirArrow" transform="rotate(270) translate(-36 17)" onmousedown="handlePan(-1,0)">
                  <use xlink:href="#rim" fill="#404040">
                        <set attributeName="fill" to="#808080" begin="arrowLeft.mouseover" end="arrowLeft.mouseout"/>
                  </use>
                  <path fill="none" stroke="white" stroke-width="1.5" d="M0,-3.0v7 M-2.5,-0.5L0,-3.0L2.5,-0.5"/>
                </g>
        </g>
        <svg viewBox="0 0 15 15" width="100%" height="30px" preserveAspectRatio="xMaxYMin meet">
         <g id="arrow_out" transform="scale(0.3 0.3)">
          <a xlink:href="namespacesll__m__gyroaverage__2d__polar_a39670e7a4c0db9bf46259b8cf1e0e2c6_icgraph_org.svg" target="_base">
           <rect id="button" ry="5" rx="5" y="6" x="6" height="38" width="38"
                fill="#f2f5e9" fill-opacity="0.5" stroke="#606060" stroke-width="1.0"/>
           <path id="arrow"
             d="M 11.500037,31.436501 C 11.940474,20.09759 22.043105,11.32322 32.158766,21.979434 L 37.068811,17.246167 C 37.068811,17.246167 37.088388,32 37.088388,32 L 22.160133,31.978069 C 22.160133,31.978069 26.997745,27.140456 26.997745,27.140456 C 18.528582,18.264221 13.291696,25.230495 11.500037,31.436501 z"
             style="fill:#404040;"/>
          </a>
         </g>
        </svg>
</svg>
