<?xml version="1.0" encoding="UTF-8" standalone="no"?>
<!DOCTYPE svg PUBLIC "-//W3C//DTD SVG 1.1//EN"
 "http://www.w3.org/Graphics/SVG/1.1/DTD/svg11.dtd">
<!-- Generated by graphviz version 2.40.1 (20161225.0304)
 -->
<!-- Title: sll_f_spline_pp_horner_1d Pages: 1 -->
<svg width="564pt" height="319pt"
 viewBox="0.00 0.00 564.00 318.50" xmlns="http://www.w3.org/2000/svg" xmlns:xlink="http://www.w3.org/1999/xlink">
<g id="graph0" class="graph" transform="scale(1 1) rotate(0) translate(4 314.5)">
<title>sll_f_spline_pp_horner_1d</title>
<polygon fill="#ffffff" stroke="transparent" points="-4,4 -4,-314.5 560,-314.5 560,4 -4,4"/>
<!-- Node1 -->
<g id="node1" class="node">
<title>Node1</title>
<polygon fill="#bfbfbf" stroke="#000000" points="0,-143.5 0,-162.5 143,-162.5 143,-143.5 0,-143.5"/>
<text text-anchor="middle" x="71.5" y="-150.5" font-family="Helvetica,sans-Serif" font-size="10.00" fill="#000000">sll_f_spline_pp_horner_1d</text>
</g>
<!-- Node2 -->
<g id="node2" class="node">
<title>Node2</title>
<g id="a_node2"><a xlink:href="namespacesll__m__particle__mesh__coupling__spline__1d.html#a366dc5d4647b221c4d819c70e07750af" target="_top" xlink:title="Evaluate field at at position position using horner scheme. ">
<polygon fill="#ffffff" stroke="#000000" points="195.5,-258 195.5,-310 321.5,-310 321.5,-258 195.5,-258"/>
<text text-anchor="start" x="203.5" y="-298" font-family="Helvetica,sans-Serif" font-size="10.00" fill="#000000">sll_m_particle_mesh</text>
<text text-anchor="start" x="203.5" y="-287" font-family="Helvetica,sans-Serif" font-size="10.00" fill="#000000">_coupling_spline_1d</text>
<text text-anchor="start" x="203.5" y="-276" font-family="Helvetica,sans-Serif" font-size="10.00" fill="#000000">::evaluate_field_single</text>
<text text-anchor="middle" x="258.5" y="-265" font-family="Helvetica,sans-Serif" font-size="10.00" fill="#000000">_spline_pp_1d</text>
</a>
</g>
</g>
<!-- Node1&#45;&gt;Node2 -->
<g id="edge1" class="edge">
<title>Node1&#45;&gt;Node2</title>
<path fill="none" stroke="#191970" d="M87.5755,-170.0324C107.5524,-190.4938 143.3756,-224.9402 179,-248 184.342,-251.4579 190.0711,-254.7502 195.9163,-257.8381"/>
<polygon fill="#191970" stroke="#191970" points="89.9538,-167.4563 80.4953,-162.6827 84.9124,-172.3128 89.9538,-167.4563"/>
</g>
<!-- Node3 -->
<g id="node3" class="node">
<title>Node3</title>
<g id="a_node3"><a xlink:href="namespacesll__m__splines__pp.html#a9c41e0d7f233767c475e68b606091447" target="_top" xlink:title="Perform a 1d hornerschema on the poly_coeffs. ">
<polygon fill="#ffffff" stroke="#000000" points="179,-219.5 179,-238.5 338,-238.5 338,-219.5 179,-219.5"/>
<text text-anchor="middle" x="258.5" y="-226.5" font-family="Helvetica,sans-Serif" font-size="10.00" fill="#000000">sll_s_spline_pp_horner_m_1d</text>
</a>
</g>
</g>
<!-- Node1&#45;&gt;Node3 -->
<g id="edge2" class="edge">
<title>Node1&#45;&gt;Node3</title>
<path fill="none" stroke="#191970" d="M95.2523,-167.8513C116.5081,-180.5844 148.874,-198.6238 179,-210 188.8241,-213.7098 199.6114,-216.8624 209.9842,-219.4701"/>
<polygon fill="#191970" stroke="#191970" points="96.9523,-164.7888 86.589,-162.5859 93.3166,-170.7706 96.9523,-164.7888"/>
</g>
<!-- Node5 -->
<g id="node5" class="node">
<title>Node5</title>
<g id="a_node5"><a xlink:href="namespacesll__m__splines__pp.html#a5d3d77aa2097ac2999d1f65da83ecf8a" target="_top" xlink:title="Perform two times a 1d hornerschema on the poly_coeffs. ">
<polygon fill="#ffffff" stroke="#000000" points="179,-181.5 179,-200.5 338,-200.5 338,-181.5 179,-181.5"/>
<text text-anchor="middle" x="258.5" y="-188.5" font-family="Helvetica,sans-Serif" font-size="10.00" fill="#000000">sll_s_spline_pp_horner_m_2d</text>
</a>
</g>
</g>
<!-- Node1&#45;&gt;Node5 -->
<g id="edge4" class="edge">
<title>Node1&#45;&gt;Node5</title>
<path fill="none" stroke="#191970" d="M128.631,-164.6095C155.2267,-170.014 186.4731,-176.3635 211.6513,-181.4799"/>
<polygon fill="#191970" stroke="#191970" points="129.1847,-161.1506 118.688,-162.589 127.7907,-168.0104 129.1847,-161.1506"/>
</g>
<!-- Node7 -->
<g id="node7" class="node">
<title>Node7</title>
<g id="a_node7"><a xlink:href="namespacesll__m__splines__pp.html#a20303ffd9d75974d5c214becf3230be7" target="_top" xlink:title="Perform three times a 1d hornerschema on the poly_coeffs. ">
<polygon fill="#ffffff" stroke="#000000" points="179,-143.5 179,-162.5 338,-162.5 338,-143.5 179,-143.5"/>
<text text-anchor="middle" x="258.5" y="-150.5" font-family="Helvetica,sans-Serif" font-size="10.00" fill="#000000">sll_s_spline_pp_horner_m_3d</text>
</a>
</g>
</g>
<!-- Node1&#45;&gt;Node7 -->
<g id="edge6" class="edge">
<title>Node1&#45;&gt;Node7</title>
<path fill="none" stroke="#191970" d="M153.4578,-153C161.8816,-153 170.4323,-153 178.8308,-153"/>
<polygon fill="#191970" stroke="#191970" points="153.2643,-149.5001 143.2643,-153 153.2642,-156.5001 153.2643,-149.5001"/>
</g>
<!-- Node8 -->
<g id="node8" class="node">
<title>Node8</title>
<g id="a_node8"><a xlink:href="namespacesll__m__splines__pp.html#a5a7f10f3cdf461f4729d5f0782908cd8" target="_top" xlink:title="Perform a 1d hornerschema on the pp_coeffs evaluate at x. ">
<polygon fill="#ffffff" stroke="#000000" points="195,-94 195,-124 322,-124 322,-94 195,-94"/>
<text text-anchor="start" x="203" y="-112" font-family="Helvetica,sans-Serif" font-size="10.00" fill="#000000">sll_s_spline_pp_horner</text>
<text text-anchor="middle" x="258.5" y="-101" font-family="Helvetica,sans-Serif" font-size="10.00" fill="#000000">_primitive_1d</text>
</a>
</g>
</g>
<!-- Node1&#45;&gt;Node8 -->
<g id="edge7" class="edge">
<title>Node1&#45;&gt;Node8</title>
<path fill="none" stroke="#191970" d="M122.0529,-141.1052C144.4666,-135.8314 171.0868,-129.5678 194.8376,-123.9794"/>
<polygon fill="#191970" stroke="#191970" points="121.0087,-137.7552 112.0762,-143.4527 122.6121,-144.5691 121.0087,-137.7552"/>
</g>
<!-- Node10 -->
<g id="node10" class="node">
<title>Node10</title>
<g id="a_node10"><a xlink:href="namespacesll__m__splines__pp.html#a0e728b131757d9606adbb1227354c22a" target="_top" xlink:title="Perform a 2d hornerschema on the pp_coeffs at the indices. ">
<polygon fill="#ffffff" stroke="#000000" points="187,-55.5 187,-74.5 330,-74.5 330,-55.5 187,-55.5"/>
<text text-anchor="middle" x="258.5" y="-62.5" font-family="Helvetica,sans-Serif" font-size="10.00" fill="#000000">sll_f_spline_pp_horner_2d</text>
</a>
</g>
</g>
<!-- Node1&#45;&gt;Node10 -->
<g id="edge9" class="edge">
<title>Node1&#45;&gt;Node10</title>
<path fill="none" stroke="#191970" d="M91.7657,-137.397C112.6008,-122.046 146.5026,-98.9407 179,-85 188.8096,-80.7919 199.6949,-77.3328 210.1837,-74.5452"/>
<polygon fill="#191970" stroke="#191970" points="89.5858,-134.6568 83.6785,-143.4519 93.7812,-140.2603 89.5858,-134.6568"/>
</g>
<!-- Node12 -->
<g id="node12" class="node">
<title>Node12</title>
<g id="a_node12"><a xlink:href="namespacesll__m__splines__pp.html#a44b8b762ad5f936a42a8f989718bb48c" target="_top" xlink:title="Perform a 3d hornerschema on the pp_coeffs at the indices. ">
<polygon fill="#ffffff" stroke="#000000" points="393.5,-.5 393.5,-19.5 536.5,-19.5 536.5,-.5 393.5,-.5"/>
<text text-anchor="middle" x="465" y="-7.5" font-family="Helvetica,sans-Serif" font-size="10.00" fill="#000000">sll_f_spline_pp_horner_3d</text>
</a>
</g>
</g>
<!-- Node1&#45;&gt;Node12 -->
<g id="edge12" class="edge">
<title>Node1&#45;&gt;Node12</title>
<path fill="none" stroke="#191970" d="M83.8238,-134.7057C101.6228,-109.9384 137.0346,-66.4864 179,-46 246.458,-13.0688 333.0539,-6.3693 393.2007,-6.4672"/>
<polygon fill="#191970" stroke="#191970" points="80.7491,-132.9952 77.8876,-143.1963 86.4861,-137.0062 80.7491,-132.9952"/>
</g>
<!-- Node4 -->
<g id="node4" class="node">
<title>Node4</title>
<g id="a_node4"><a xlink:href="namespacesll__m__particle__mesh__coupling__spline__1d.html#a9202c6d02ce159ccc91fa2a695ac4901" target="_top" xlink:title="Destructor. ">
<polygon fill="#ffffff" stroke="#000000" points="374,-230.5 374,-271.5 556,-271.5 556,-230.5 374,-230.5"/>
<text text-anchor="start" x="382" y="-259.5" font-family="Helvetica,sans-Serif" font-size="10.00" fill="#000000">sll_m_particle_mesh</text>
<text text-anchor="start" x="382" y="-248.5" font-family="Helvetica,sans-Serif" font-size="10.00" fill="#000000">_coupling_spline_1d</text>
<text text-anchor="middle" x="465" y="-237.5" font-family="Helvetica,sans-Serif" font-size="10.00" fill="#000000">::add_charge_single_spline_pp_1d</text>
</a>
</g>
</g>
<!-- Node3&#45;&gt;Node4 -->
<g id="edge3" class="edge">
<title>Node3&#45;&gt;Node4</title>
<path fill="none" stroke="#191970" d="M348.0045,-238.5356C356.5526,-239.4463 365.2287,-240.3706 373.7927,-241.283"/>
<polygon fill="#191970" stroke="#191970" points="348.3575,-235.0535 338.0429,-237.4743 347.6158,-242.0141 348.3575,-235.0535"/>
</g>
<!-- Node6 -->
<g id="node6" class="node">
<title>Node6</title>
<g id="a_node6"><a xlink:href="namespacesll__m__particle__mesh__coupling__spline__2d.html#ad840c20f1d29c5eb5152487cf3787ea2" target="_top" xlink:title="Add charge of single particle. ">
<polygon fill="#ffffff" stroke="#000000" points="374,-170.5 374,-211.5 556,-211.5 556,-170.5 374,-170.5"/>
<text text-anchor="start" x="382" y="-199.5" font-family="Helvetica,sans-Serif" font-size="10.00" fill="#000000">sll_m_particle_mesh</text>
<text text-anchor="start" x="382" y="-188.5" font-family="Helvetica,sans-Serif" font-size="10.00" fill="#000000">_coupling_spline_2d</text>
<text text-anchor="middle" x="465" y="-177.5" font-family="Helvetica,sans-Serif" font-size="10.00" fill="#000000">::add_charge_single_spline_pp_2d</text>
</a>
</g>
</g>
<!-- Node5&#45;&gt;Node6 -->
<g id="edge5" class="edge">
<title>Node5&#45;&gt;Node6</title>
<path fill="none" stroke="#191970" d="M348.2833,-191C356.7412,-191 365.3218,-191 373.7927,-191"/>
<polygon fill="#191970" stroke="#191970" points="348.0429,-187.5001 338.0429,-191 348.0429,-194.5001 348.0429,-187.5001"/>
</g>
<!-- Node9 -->
<g id="node9" class="node">
<title>Node9</title>
<g id="a_node9"><a xlink:href="namespacesll__m__particle__mesh__coupling__spline__1d.html#a92e471387d403a8ea29430c0b18a5656" target="_top" xlink:title="Helper function for add_current_update_v. ">
<polygon fill="#ffffff" stroke="#000000" points="406.5,-110.5 406.5,-151.5 523.5,-151.5 523.5,-110.5 406.5,-110.5"/>
<text text-anchor="start" x="414.5" y="-139.5" font-family="Helvetica,sans-Serif" font-size="10.00" fill="#000000">sll_m_particle_mesh</text>
<text text-anchor="start" x="414.5" y="-128.5" font-family="Helvetica,sans-Serif" font-size="10.00" fill="#000000">_coupling_spline_1d</text>
<text text-anchor="middle" x="465" y="-117.5" font-family="Helvetica,sans-Serif" font-size="10.00" fill="#000000">::update_jv_pp</text>
</a>
</g>
</g>
<!-- Node8&#45;&gt;Node9 -->
<g id="edge8" class="edge">
<title>Node8&#45;&gt;Node9</title>
<path fill="none" stroke="#191970" d="M332.4101,-116.8742C356.7495,-119.4673 383.461,-122.313 406.4909,-124.7666"/>
<polygon fill="#191970" stroke="#191970" points="332.4563,-113.3594 322.1418,-115.7802 331.7147,-120.32 332.4563,-113.3594"/>
</g>
<!-- Node11 -->
<g id="node11" class="node">
<title>Node11</title>
<g id="a_node11"><a xlink:href="namespacesll__m__particle__mesh__coupling__spline__2d.html#a179195d2ab68d6c31d1265b1cefc7df5" target="_top" xlink:title="Evaluate field at at position position using horner scheme. ">
<polygon fill="#ffffff" stroke="#000000" points="402,-39 402,-91 528,-91 528,-39 402,-39"/>
<text text-anchor="start" x="410" y="-79" font-family="Helvetica,sans-Serif" font-size="10.00" fill="#000000">sll_m_particle_mesh</text>
<text text-anchor="start" x="410" y="-68" font-family="Helvetica,sans-Serif" font-size="10.00" fill="#000000">_coupling_spline_2d</text>
<text text-anchor="start" x="410" y="-57" font-family="Helvetica,sans-Serif" font-size="10.00" fill="#000000">::evaluate_field_single</text>
<text text-anchor="middle" x="465" y="-46" font-family="Helvetica,sans-Serif" font-size="10.00" fill="#000000">_spline_pp_2d</text>
</a>
</g>
</g>
<!-- Node10&#45;&gt;Node11 -->
<g id="edge10" class="edge">
<title>Node10&#45;&gt;Node11</title>
<path fill="none" stroke="#191970" d="M340.3784,-65C360.7998,-65 382.3876,-65 401.7541,-65"/>
<polygon fill="#191970" stroke="#191970" points="340.1442,-61.5001 330.1441,-65 340.1441,-68.5001 340.1442,-61.5001"/>
</g>
<!-- Node10&#45;&gt;Node12 -->
<g id="edge11" class="edge">
<title>Node10&#45;&gt;Node12</title>
<path fill="none" stroke="#191970" d="M297.5194,-52.3488C319.802,-45.3326 348.3319,-36.6989 374,-30 388.2428,-26.2829 403.8584,-22.6812 418.0712,-19.5827"/>
<polygon fill="#191970" stroke="#191970" points="296.2278,-49.0865 287.7538,-55.4458 298.344,-55.759 296.2278,-49.0865"/>
</g>
</g>
</svg>
