<?xml version="1.0" encoding="UTF-8" standalone="no"?>
<!DOCTYPE svg PUBLIC "-//W3C//DTD SVG 1.1//EN"
 "http://www.w3.org/Graphics/SVG/1.1/DTD/svg11.dtd">
<!-- Generated by graphviz version 2.43.0 (0)
 -->
<!-- Title: sll_s_interpolate_array_value_nonunif_aux Pages: 1 -->
<svg width="517pt" height="61pt"
 viewBox="0.00 0.00 517.00 61.00" xmlns="http://www.w3.org/2000/svg" xmlns:xlink="http://www.w3.org/1999/xlink">
<g id="graph0" class="graph" transform="scale(1 1) rotate(0) translate(4 57)">
<title>sll_s_interpolate_array_value_nonunif_aux</title>
<polygon fill="white" stroke="transparent" points="-4,4 -4,-57 513,-57 513,4 -4,4"/>
<!-- Node1 -->
<g id="node1" class="node">
<title>Node1</title>
<g id="a_node1"><a xlink:title="PLEASE ADD DOCUMENTATION.">
<polygon fill="#bfbfbf" stroke="black" points="381,-11.5 381,-41.5 509,-41.5 509,-11.5 381,-11.5"/>
<text text-anchor="start" x="389" y="-29.5" font-family="Helvetica,sans-Serif" font-size="10.00">sll_s_interpolate_array</text>
<text text-anchor="middle" x="445" y="-18.5" font-family="Helvetica,sans-Serif" font-size="10.00">_value_nonunif_aux</text>
</a>
</g>
</g>
<!-- Node2 -->
<g id="node2" class="node">
<title>Node2</title>
<g id="a_node2"><a xlink:href="namespacesll__m__advection__1d__non__uniform__cubic__splines.html#a4648fb05ac2de7c1162af19e585f6026" target="_top" xlink:title=" ">
<polygon fill="white" stroke="black" points="191,-0.5 191,-52.5 345,-52.5 345,-0.5 191,-0.5"/>
<text text-anchor="start" x="199" y="-40.5" font-family="Helvetica,sans-Serif" font-size="10.00">sll_m_advection_1d</text>
<text text-anchor="start" x="199" y="-29.5" font-family="Helvetica,sans-Serif" font-size="10.00">_non_uniform_cubic_splines</text>
<text text-anchor="start" x="199" y="-18.5" font-family="Helvetica,sans-Serif" font-size="10.00">::constant_advection_spl</text>
<text text-anchor="middle" x="268" y="-7.5" font-family="Helvetica,sans-Serif" font-size="10.00">_non_unif_per</text>
</a>
</g>
</g>
<!-- Node1&#45;&gt;Node2 -->
<g id="edge1" class="edge">
<title>Node1&#45;&gt;Node2</title>
<path fill="none" stroke="midnightblue" d="M370.67,-26.5C362.26,-26.5 353.67,-26.5 345.22,-26.5"/>
<polygon fill="midnightblue" stroke="midnightblue" points="370.82,-30 380.82,-26.5 370.82,-23 370.82,-30"/>
</g>
<!-- Node3 -->
<g id="node3" class="node">
<title>Node3</title>
<g id="a_node3"><a xlink:href="namespacesll__m__advection__1d__non__uniform__cubic__splines.html#ae86862fc01358354fb6c78195a7f2acc" target="_top" xlink:title=" ">
<polygon fill="white" stroke="black" points="0,-0.5 0,-52.5 155,-52.5 155,-0.5 0,-0.5"/>
<text text-anchor="start" x="8" y="-40.5" font-family="Helvetica,sans-Serif" font-size="10.00">sll_m_advection_1d</text>
<text text-anchor="start" x="8" y="-29.5" font-family="Helvetica,sans-Serif" font-size="10.00">_non_uniform_cubic_splines</text>
<text text-anchor="start" x="8" y="-18.5" font-family="Helvetica,sans-Serif" font-size="10.00">::non_uniform_cubic_splines</text>
<text text-anchor="middle" x="77.5" y="-7.5" font-family="Helvetica,sans-Serif" font-size="10.00">_advect_1d_constant</text>
</a>
</g>
</g>
<!-- Node2&#45;&gt;Node3 -->
<g id="edge2" class="edge">
<title>Node2&#45;&gt;Node3</title>
<path fill="none" stroke="midnightblue" d="M180.6,-26.5C172.14,-26.5 163.58,-26.5 155.22,-26.5"/>
<polygon fill="midnightblue" stroke="midnightblue" points="180.87,-30 190.87,-26.5 180.87,-23 180.87,-30"/>
</g>
</g>
</svg>
