<?xml version="1.0" encoding="UTF-8" standalone="no"?>
<!DOCTYPE svg PUBLIC "-//W3C//DTD SVG 1.1//EN"
 "http://www.w3.org/Graphics/SVG/1.1/DTD/svg11.dtd">
<!-- Generated by graphviz version 2.40.1 (20161225.0304)
 -->
<!-- Title: sll_s_collective_reduce_int Pages: 1 -->
<svg width="501pt" height="39pt"
 viewBox="0.00 0.00 501.00 39.00" xmlns="http://www.w3.org/2000/svg" xmlns:xlink="http://www.w3.org/1999/xlink">
<g id="graph0" class="graph" transform="scale(1 1) rotate(0) translate(4 35)">
<title>sll_s_collective_reduce_int</title>
<polygon fill="#ffffff" stroke="transparent" points="-4,4 -4,-35 497,-35 497,4 -4,4"/>
<!-- Node381 -->
<g id="node1" class="node">
<title>Node381</title>
<polygon fill="#bfbfbf" stroke="#000000" points="0,-6 0,-25 147,-25 147,-6 0,-6"/>
<text text-anchor="middle" x="73.5" y="-13" font-family="Helvetica,sans-Serif" font-size="10.00" fill="#000000">sll_s_collective_reduce_int</text>
</g>
<!-- Node382 -->
<g id="node2" class="node">
<title>Node382</title>
<g id="a_node2"><a xlink:href="namespacesll__m__collective.html#acd47e0720544a6b163abed3635482e8d" target="_top" xlink:title="Performs a global sum over an array and writes the result in the given node If no node in root_rank i...">
<polygon fill="#ffffff" stroke="#000000" points="183,-.5 183,-30.5 320,-30.5 320,-.5 183,-.5"/>
<text text-anchor="start" x="191" y="-18.5" font-family="Helvetica,sans-Serif" font-size="10.00" fill="#000000">sll_collective_globalsum</text>
<text text-anchor="middle" x="251.5" y="-7.5" font-family="Helvetica,sans-Serif" font-size="10.00" fill="#000000">_array_int32</text>
</a>
</g>
</g>
<!-- Node381&#45;&gt;Node382 -->
<g id="edge1" class="edge">
<title>Node381&#45;&gt;Node382</title>
<path fill="none" stroke="#191970" d="M157.4575,-15.5C165.9214,-15.5 174.4464,-15.5 182.7248,-15.5"/>
<polygon fill="#191970" stroke="#191970" points="157.1843,-12.0001 147.1843,-15.5 157.1843,-19.0001 157.1843,-12.0001"/>
</g>
<!-- Node383 -->
<g id="node3" class="node">
<title>Node383</title>
<g id="a_node3"><a xlink:href="namespacesll__m__collective.html#ae8aae91f97b429d2093d51c9e0a2cbfd" target="_top" xlink:title="Performs a global sum and writes the result in the given node. ">
<polygon fill="#ffffff" stroke="#000000" points="356,-.5 356,-30.5 493,-30.5 493,-.5 356,-.5"/>
<text text-anchor="start" x="364" y="-18.5" font-family="Helvetica,sans-Serif" font-size="10.00" fill="#000000">sll_collective_globalsum</text>
<text text-anchor="middle" x="424.5" y="-7.5" font-family="Helvetica,sans-Serif" font-size="10.00" fill="#000000">_int32</text>
</a>
</g>
</g>
<!-- Node382&#45;&gt;Node383 -->
<g id="edge2" class="edge">
<title>Node382&#45;&gt;Node383</title>
<path fill="none" stroke="#191970" d="M330.5941,-15.5C339.0314,-15.5 347.5633,-15.5 355.8657,-15.5"/>
<polygon fill="#191970" stroke="#191970" points="330.3713,-12.0001 320.3713,-15.5 330.3712,-19.0001 330.3713,-12.0001"/>
</g>
</g>
</svg>
