<?xml version="1.0" encoding="UTF-8" standalone="no"?>
<!DOCTYPE svg PUBLIC "-//W3C//DTD SVG 1.1//EN"
 "http://www.w3.org/Graphics/SVG/1.1/DTD/svg11.dtd">
<!-- Generated by graphviz version 2.40.1 (20161225.0304)
 -->
<!-- Title: hira Pages: 1 -->
<svg width="207pt" height="104pt"
 viewBox="0.00 0.00 207.00 104.00" xmlns="http://www.w3.org/2000/svg" xmlns:xlink="http://www.w3.org/1999/xlink">
<g id="graph0" class="graph" transform="scale(1 1) rotate(0) translate(4 100)">
<title>hira</title>
<polygon fill="#ffffff" stroke="transparent" points="-4,4 -4,-100 203,-100 203,4 -4,4"/>
<!-- Node198 -->
<g id="node1" class="node">
<title>Node198</title>
<polygon fill="#bfbfbf" stroke="#000000" points="0,-38.5 0,-57.5 35,-57.5 35,-38.5 0,-38.5"/>
<text text-anchor="middle" x="17.5" y="-45.5" font-family="Helvetica,sans-Serif" font-size="10.00" fill="#000000">hira</text>
</g>
<!-- Node199 -->
<g id="node2" class="node">
<title>Node199</title>
<g id="a_node2"><a xlink:href="namespacesll__m__sparse__grid__interpolator.html#aed35bcf2b06e817253fd75cdeeb0f63e" target="_top" xlink:title="Compute Fourier coefficients on sparse grid along dimension dim. ">
<polygon fill="#ffffff" stroke="#000000" points="87.5,-76.5 87.5,-95.5 182.5,-95.5 182.5,-76.5 87.5,-76.5"/>
<text text-anchor="middle" x="135" y="-83.5" font-family="Helvetica,sans-Serif" font-size="10.00" fill="#000000">tohierarchical1d</text>
</a>
</g>
</g>
<!-- Node198&#45;&gt;Node199 -->
<g id="edge1" class="edge">
<title>Node198&#45;&gt;Node199</title>
<path fill="none" stroke="#191970" d="M44.897,-58.0421C53.2463,-61.018 62.4716,-64.2218 71,-67 80.9184,-70.231 91.7731,-73.5385 101.6798,-76.4694"/>
<polygon fill="#191970" stroke="#191970" points="45.8475,-54.6644 35.2531,-54.5692 43.4757,-61.2504 45.8475,-54.6644"/>
</g>
<!-- Node200 -->
<g id="node3" class="node">
<title>Node200</title>
<g id="a_node3"><a xlink:href="namespacesll__m__sparse__grid__interpolator.html#a756b07ef8bb7237d4ba19d1532a8fa26" target="_top" xlink:title="Complex version of ToHierarchical1d_comp. ">
<polygon fill="#ffffff" stroke="#000000" points="71,-38.5 71,-57.5 199,-57.5 199,-38.5 71,-38.5"/>
<text text-anchor="middle" x="135" y="-45.5" font-family="Helvetica,sans-Serif" font-size="10.00" fill="#000000">tohierarchical1d_comp</text>
</a>
</g>
</g>
<!-- Node198&#45;&gt;Node200 -->
<g id="edge2" class="edge">
<title>Node198&#45;&gt;Node200</title>
<path fill="none" stroke="#191970" d="M45.3587,-48C53.1632,-48 61.9841,-48 70.9711,-48"/>
<polygon fill="#191970" stroke="#191970" points="45.091,-44.5001 35.0909,-48 45.0909,-51.5001 45.091,-44.5001"/>
</g>
<!-- Node201 -->
<g id="node4" class="node">
<title>Node201</title>
<g id="a_node4"><a xlink:href="namespacesll__m__sparse__grid__interpolator.html#a939b2cd02adba4b67a52b65dbb4a79ab" target="_top" xlink:title="tohira1d">
<polygon fill="#ffffff" stroke="#000000" points="106.5,-.5 106.5,-19.5 163.5,-19.5 163.5,-.5 106.5,-.5"/>
<text text-anchor="middle" x="135" y="-7.5" font-family="Helvetica,sans-Serif" font-size="10.00" fill="#000000">tohira1d</text>
</a>
</g>
</g>
<!-- Node198&#45;&gt;Node201 -->
<g id="edge3" class="edge">
<title>Node198&#45;&gt;Node201</title>
<path fill="none" stroke="#191970" d="M44.897,-37.9579C53.2463,-34.982 62.4716,-31.7782 71,-29 82.4612,-25.2664 95.1727,-21.4306 106.2271,-18.1919"/>
<polygon fill="#191970" stroke="#191970" points="43.4757,-34.7496 35.2531,-41.4308 45.8475,-41.3356 43.4757,-34.7496"/>
</g>
</g>
</svg>
