<?xml version="1.0" encoding="UTF-8" standalone="no"?>
<!DOCTYPE svg PUBLIC "-//W3C//DTD SVG 1.1//EN"
 "http://www.w3.org/Graphics/SVG/1.1/DTD/svg11.dtd">
<!-- Generated by graphviz version 2.38.0 (20140413.2041)
 -->
<!-- Title: write_hex_mesh_mtv Pages: 1 -->
<svg width="543pt" height="123pt"
 viewBox="0.00 0.00 543.00 123.00" xmlns="http://www.w3.org/2000/svg" xmlns:xlink="http://www.w3.org/1999/xlink">
<g id="graph0" class="graph" transform="scale(1 1) rotate(0) translate(4 119)">
<title>write_hex_mesh_mtv</title>
<polygon fill="white" stroke="none" points="-4,4 -4,-119 539,-119 539,4 -4,4"/>
<!-- Node1 -->
<g id="node1" class="node"><title>Node1</title>
<polygon fill="#bfbfbf" stroke="black" points="0,-57.5 0,-76.5 110,-76.5 110,-57.5 0,-57.5"/>
<text text-anchor="middle" x="55" y="-64.5" font-family="Helvetica,sans-Serif" font-size="10.00">write_hex_mesh_mtv</text>
</g>
<!-- Node2 -->
<g id="node2" class="node"><title>Node2</title>
<g id="a_node2"><a xlink:href="namespacesll__m__hexagonal__meshes.html#aa579f5999884452ce000e206a88dc6b7" target="_top" xlink:title="Returns indices of the edges of a given cell. ">
<polygon fill="white" stroke="black" points="146,-52 146,-82 262,-82 262,-52 146,-52"/>
<text text-anchor="start" x="154" y="-70" font-family="Helvetica,sans-Serif" font-size="10.00">sll_s_get_cell_vertices</text>
<text text-anchor="middle" x="204" y="-59" font-family="Helvetica,sans-Serif" font-size="10.00">_index</text>
</a>
</g>
</g>
<!-- Node1&#45;&gt;Node2 -->
<g id="edge1" class="edge"><title>Node1&#45;&gt;Node2</title>
<path fill="none" stroke="midnightblue" d="M110.32,-67C118.576,-67 127.18,-67 135.673,-67"/>
<polygon fill="midnightblue" stroke="midnightblue" points="135.947,-70.5001 145.947,-67 135.947,-63.5001 135.947,-70.5001"/>
</g>
<!-- Node3 -->
<g id="node3" class="node"><title>Node3</title>
<g id="a_node3"><a xlink:href="namespacesll__m__hexagonal__meshes.html#a066138062e95dab8690eb6e889dfe769" target="_top" xlink:title="Transform cartesian coordinates to 1st hexagonal coordinates. ">
<polygon fill="white" stroke="black" points="298,-95.5 298,-114.5 394,-114.5 394,-95.5 298,-95.5"/>
<text text-anchor="middle" x="346" y="-102.5" font-family="Helvetica,sans-Serif" font-size="10.00">sll_f_cart_to_hex1</text>
</a>
</g>
</g>
<!-- Node2&#45;&gt;Node3 -->
<g id="edge2" class="edge"><title>Node2&#45;&gt;Node3</title>
<path fill="none" stroke="midnightblue" d="M260.332,-82.0186C273.479,-85.5871 287.349,-89.3519 299.972,-92.7781"/>
<polygon fill="midnightblue" stroke="midnightblue" points="299.223,-96.2014 309.791,-95.4432 301.057,-89.4458 299.223,-96.2014"/>
</g>
<!-- Node4 -->
<g id="node4" class="node"><title>Node4</title>
<g id="a_node4"><a xlink:href="namespacesll__m__hexagonal__meshes.html#aa108ce30c3a8af1414fbfeba3420d493" target="_top" xlink:title="Transform cartesian coordinates to 2ndst hexagonal coordinates. ">
<polygon fill="white" stroke="black" points="298,-57.5 298,-76.5 394,-76.5 394,-57.5 298,-57.5"/>
<text text-anchor="middle" x="346" y="-64.5" font-family="Helvetica,sans-Serif" font-size="10.00">sll_f_cart_to_hex2</text>
</a>
</g>
</g>
<!-- Node2&#45;&gt;Node4 -->
<g id="edge3" class="edge"><title>Node2&#45;&gt;Node4</title>
<path fill="none" stroke="midnightblue" d="M262.347,-67C270.722,-67 279.347,-67 287.721,-67"/>
<polygon fill="midnightblue" stroke="midnightblue" points="287.776,-70.5001 297.776,-67 287.776,-63.5001 287.776,-70.5001"/>
</g>
<!-- Node5 -->
<g id="node5" class="node"><title>Node5</title>
<g id="a_node5"><a xlink:href="namespacesll__m__hexagonal__meshes.html#af2ad9a5ed18f26e97513930ee9793370" target="_top" xlink:title="Transform hexagonal coordinates to global index. ">
<polygon fill="white" stroke="black" points="307.5,-19.5 307.5,-38.5 384.5,-38.5 384.5,-19.5 307.5,-19.5"/>
<text text-anchor="middle" x="346" y="-26.5" font-family="Helvetica,sans-Serif" font-size="10.00">hex_to_global</text>
</a>
</g>
</g>
<!-- Node2&#45;&gt;Node5 -->
<g id="edge4" class="edge"><title>Node2&#45;&gt;Node5</title>
<path fill="none" stroke="midnightblue" d="M260.332,-51.9814C273.479,-48.4129 287.349,-44.6481 299.972,-41.2219"/>
<polygon fill="midnightblue" stroke="midnightblue" points="301.057,-44.5542 309.791,-38.5568 299.223,-37.7986 301.057,-44.5542"/>
</g>
<!-- Node6 -->
<g id="node6" class="node"><title>Node6</title>
<g id="a_node6"><a xlink:href="namespacesll__m__hexagonal__meshes.html#a8bed234b81efa9e2e353c3f594c104e3" target="_top" xlink:title="Computes the number of cell from point to origin. ">
<polygon fill="white" stroke="black" points="431.5,-38.5 431.5,-57.5 533.5,-57.5 533.5,-38.5 431.5,-38.5"/>
<text text-anchor="middle" x="482.5" y="-45.5" font-family="Helvetica,sans-Serif" font-size="10.00">sll_f_cells_to_origin</text>
</a>
</g>
</g>
<!-- Node5&#45;&gt;Node6 -->
<g id="edge5" class="edge"><title>Node5&#45;&gt;Node6</title>
<path fill="none" stroke="midnightblue" d="M384.824,-34.3431C396.114,-35.9381 408.783,-37.7278 421.139,-39.4732"/>
<polygon fill="midnightblue" stroke="midnightblue" points="421.015,-42.9904 431.407,-40.9236 421.995,-36.0592 421.015,-42.9904"/>
</g>
<!-- Node7 -->
<g id="node7" class="node"><title>Node7</title>
<g id="a_node7"><a xlink:href="namespacesll__m__hexagonal__meshes.html#a47f7a419f8f8904d408ad3a630612ee4" target="_top" xlink:title="Finds the index in the global array of the point which coordinates where passed as parameter...">
<polygon fill="white" stroke="black" points="430,-0.5 430,-19.5 535,-19.5 535,-0.5 430,-0.5"/>
<text text-anchor="middle" x="482.5" y="-7.5" font-family="Helvetica,sans-Serif" font-size="10.00">index_hex_to_global</text>
</a>
</g>
</g>
<!-- Node5&#45;&gt;Node7 -->
<g id="edge6" class="edge"><title>Node5&#45;&gt;Node7</title>
<path fill="none" stroke="midnightblue" d="M384.824,-23.6569C395.75,-22.1134 407.967,-20.3875 419.942,-18.6959"/>
<polygon fill="midnightblue" stroke="midnightblue" points="420.498,-22.1522 429.91,-17.2877 419.519,-15.221 420.498,-22.1522"/>
</g>
</g>
</svg>
