<?xml version="1.0" encoding="UTF-8" standalone="no"?>
<!DOCTYPE svg PUBLIC "-//W3C//DTD SVG 1.1//EN"
 "http://www.w3.org/Graphics/SVG/1.1/DTD/svg11.dtd">
<!-- Generated by graphviz version 2.40.1 (20161225.0304)
 -->
<!-- Title: sll_s_configure_comm_real64_torus_2d Pages: 1 -->
<!--zoomable 230 -->
<svg id="main" version="1.1" xmlns="http://www.w3.org/2000/svg" xmlns:xlink="http://www.w3.org/1999/xlink" xml:space="preserve" onload="init(evt)">
<style type="text/css"><![CDATA[
.edge:hover path { stroke: red; }
.edge:hover polygon { stroke: red; fill: red; }
]]></style>
<script type="text/javascript"><![CDATA[
var edges = document.getElementsByTagName('g');
if (edges && edges.length) {
  for (var i=0;i<edges.length;i++) {
    if (edges[i].id.substr(0,4)=='edge') {
      edges[i].setAttribute('class','edge');
    }
  }
}
]]></script>
        <defs>
                <circle id="rim" cx="0" cy="0" r="7"/>
                <circle id="rim2" cx="0" cy="0" r="3.5"/>
                <g id="zoomPlus">
                        <use xlink:href="#rim" fill="#404040">
                                <set attributeName="fill" to="#808080" begin="zoomplus.mouseover" end="zoomplus.mouseout"/>
                        </use>
                        <path d="M-4,0h8M0,-4v8" fill="none" stroke="white" stroke-width="1.5" pointer-events="none"/>
                </g>
                <g id="zoomMin">
                        <use xlink:href="#rim" fill="#404040">
                                <set attributeName="fill" to="#808080" begin="zoomminus.mouseover" end="zoomminus.mouseout"/>
                        </use>
                        <path d="M-4,0h8" fill="none" stroke="white" stroke-width="1.5" pointer-events="none"/>
                </g>
                <g id="dirArrow">
                        <path fill="none" stroke="white" stroke-width="1.5" d="M0,-3.0v7 M-2.5,-0.5L0,-3.0L2.5,-0.5"/>
                </g>
               <g id="resetDef">
                       <use xlink:href="#rim2" fill="#404040">
                               <set attributeName="fill" to="#808080" begin="reset.mouseover" end="reset.mouseout"/>
                       </use>
               </g>
        </defs>

<script type="text/javascript">
var viewWidth = 559;
var viewHeight = 230;
var sectionId = 'dynsection-22';
</script>
<script xlink:href="svgpan.js"/>
<svg id="graph" class="graph">
<g id="viewport">
<title>sll_s_configure_comm_real64_torus_2d</title>
<polygon fill="#ffffff" stroke="transparent" points="-4,4 -4,-225.5 555,-225.5 555,4 -4,4"/>
<!-- Node114 -->
<g id="node1" class="node">
<title>Node114</title>
<polygon fill="#bfbfbf" stroke="#000000" points="0,-99 0,-129 125,-129 125,-99 0,-99"/>
<text text-anchor="start" x="8" y="-117" font-family="Helvetica,sans-Serif" font-size="10.00" fill="#000000">sll_s_configure_comm</text>
<text text-anchor="middle" x="62.5" y="-106" font-family="Helvetica,sans-Serif" font-size="10.00" fill="#000000">_real64_torus_2d</text>
</g>
<!-- Node115 -->
<g id="node2" class="node">
<title>Node115</title>
<g id="a_node2"><a xlink:href="namespacesll__m__collective.html#a396122f49340f0778eb448430d865b4e" target="_top" xlink:title="Determines the rank of the calling process in the communicator. ">
<polygon fill="#ffffff" stroke="#000000" points="161,-181 161,-211 287,-211 287,-181 161,-181"/>
<text text-anchor="start" x="169" y="-199" font-family="Helvetica,sans-Serif" font-size="10.00" fill="#000000">sll_m_collective::sll</text>
<text text-anchor="middle" x="224" y="-188" font-family="Helvetica,sans-Serif" font-size="10.00" fill="#000000">_f_get_collective_rank</text>
</a>
</g>
</g>
<!-- Node114&#45;&gt;Node115 -->
<g id="edge1" class="edge">
<title>Node114&#45;&gt;Node115</title>
<path fill="none" stroke="#191970" d="M92.1216,-129.0401C118.3335,-142.3489 156.7557,-161.8574 185.3739,-176.388"/>
<polygon fill="#191970" stroke="#191970" points="183.7921,-179.5101 194.2932,-180.9167 186.9612,-173.2686 183.7921,-179.5101"/>
</g>
<!-- Node117 -->
<g id="node4" class="node">
<title>Node117</title>
<g id="a_node4"><a xlink:href="namespacesll__m__point__to__point__comms.html#a2427e2779cffe9158b3fbcccf6ea7ff3" target="_top" xlink:title="find_ij">
<polygon fill="#ffffff" stroke="#000000" points="201,-123.5 201,-142.5 247,-142.5 247,-123.5 201,-123.5"/>
<text text-anchor="middle" x="224" y="-130.5" font-family="Helvetica,sans-Serif" font-size="10.00" fill="#000000">find_ij</text>
</a>
</g>
</g>
<!-- Node114&#45;&gt;Node117 -->
<g id="edge3" class="edge">
<title>Node114&#45;&gt;Node117</title>
<path fill="none" stroke="#191970" d="M125.4026,-121.4003C147.7174,-124.0256 171.9463,-126.876 190.8018,-129.0943"/>
<polygon fill="#191970" stroke="#191970" points="190.6117,-132.596 200.9522,-130.2885 191.4296,-125.644 190.6117,-132.596"/>
</g>
<!-- Node118 -->
<g id="node5" class="node">
<title>Node118</title>
<g id="a_node5"><a xlink:href="namespacesll__m__point__to__point__comms.html#a6848a4501521376f77d25cbcc09eb298" target="_top" xlink:title="connect_ports">
<polygon fill="#ffffff" stroke="#000000" points="181.5,-85.5 181.5,-104.5 266.5,-104.5 266.5,-85.5 181.5,-85.5"/>
<text text-anchor="middle" x="224" y="-92.5" font-family="Helvetica,sans-Serif" font-size="10.00" fill="#000000">connect_ports</text>
</a>
</g>
</g>
<!-- Node114&#45;&gt;Node118 -->
<g id="edge4" class="edge">
<title>Node114&#45;&gt;Node118</title>
<path fill="none" stroke="#191970" d="M125.4026,-106.5997C140.5116,-104.8222 156.4982,-102.9414 171.1001,-101.2235"/>
<polygon fill="#191970" stroke="#191970" points="171.9331,-104.6497 181.4556,-100.0052 171.1151,-97.6977 171.9331,-104.6497"/>
</g>
<!-- Node125 -->
<g id="node12" class="node">
<title>Node125</title>
<g id="a_node12"><a xlink:href="namespacesll__m__point__to__point__comms.html#a68f5bcd7b19730d7ef13abc9ae08407b" target="_top" xlink:title="rank_index">
<polygon fill="#ffffff" stroke="#000000" points="188.5,-47.5 188.5,-66.5 259.5,-66.5 259.5,-47.5 188.5,-47.5"/>
<text text-anchor="middle" x="224" y="-54.5" font-family="Helvetica,sans-Serif" font-size="10.00" fill="#000000">rank_index</text>
</a>
</g>
</g>
<!-- Node114&#45;&gt;Node125 -->
<g id="edge14" class="edge">
<title>Node114&#45;&gt;Node125</title>
<path fill="none" stroke="#191970" d="M99.6756,-98.8976C118.0166,-91.6419 140.5425,-83.0198 161,-76 167.3888,-73.8077 174.1871,-71.6146 180.8648,-69.538"/>
<polygon fill="#191970" stroke="#191970" points="181.9605,-72.863 190.5005,-66.5925 179.9142,-66.1688 181.9605,-72.863"/>
</g>
<!-- Node116 -->
<g id="node3" class="node">
<title>Node116</title>
<g id="a_node3"><a xlink:href="namespacesll__m__collective.html#a37ea25f42a791be5a710a6cf0d1e1197" target="_top" xlink:title="Checks if the pointer ptr is associated to an object. ">
<polygon fill="#ffffff" stroke="#000000" points="323,-191 323,-221 445,-221 445,-191 323,-191"/>
<text text-anchor="start" x="331" y="-209" font-family="Helvetica,sans-Serif" font-size="10.00" fill="#000000">sll_m_collective::sll</text>
<text text-anchor="middle" x="384" y="-198" font-family="Helvetica,sans-Serif" font-size="10.00" fill="#000000">_check_collective_ptr</text>
</a>
</g>
</g>
<!-- Node115&#45;&gt;Node116 -->
<g id="edge2" class="edge">
<title>Node115&#45;&gt;Node116</title>
<path fill="none" stroke="#191970" d="M287.2362,-199.9523C295.5576,-200.4724 304.1323,-201.0083 312.5781,-201.5361"/>
<polygon fill="#191970" stroke="#191970" points="312.5914,-205.0437 322.7903,-202.1744 313.0281,-198.0573 312.5914,-205.0437"/>
</g>
<!-- Node119 -->
<g id="node6" class="node">
<title>Node119</title>
<g id="a_node6"><a xlink:href="namespacesll__m__point__to__point__comms.html#a8b121863ece95e8dd94458f440835b18" target="_top" xlink:title="check_port">
<polygon fill="#ffffff" stroke="#000000" points="481,-76.5 481,-95.5 551,-95.5 551,-76.5 481,-76.5"/>
<text text-anchor="middle" x="516" y="-83.5" font-family="Helvetica,sans-Serif" font-size="10.00" fill="#000000">check_port</text>
</a>
</g>
</g>
<!-- Node118&#45;&gt;Node119 -->
<g id="edge5" class="edge">
<title>Node118&#45;&gt;Node119</title>
<path fill="none" stroke="#191970" d="M264.2439,-104.6051C272.0121,-107.1566 279.9273,-110.2681 287,-114 305.1713,-123.5879 303.6241,-136.1665 323,-143 374.1352,-161.0343 393.8498,-160.9918 445,-143 467.4373,-135.1078 488.0273,-116.8013 501.19,-103.0494"/>
<polygon fill="#191970" stroke="#191970" points="503.8527,-105.3244 508.0396,-95.592 498.6973,-100.5892 503.8527,-105.3244"/>
</g>
<!-- Node120 -->
<g id="node7" class="node">
<title>Node120</title>
<g id="a_node7"><a xlink:href="namespacesll__m__point__to__point__comms.html#aec6d99aac06fc524a627fb7e72df31c6" target="_top" xlink:title="check_other_rank">
<polygon fill="#ffffff" stroke="#000000" points="332.5,-114.5 332.5,-133.5 435.5,-133.5 435.5,-114.5 332.5,-114.5"/>
<text text-anchor="middle" x="384" y="-121.5" font-family="Helvetica,sans-Serif" font-size="10.00" fill="#000000">check_other_rank</text>
</a>
</g>
</g>
<!-- Node118&#45;&gt;Node120 -->
<g id="edge6" class="edge">
<title>Node118&#45;&gt;Node120</title>
<path fill="none" stroke="#191970" d="M266.8771,-102.7715C283.9823,-105.8718 303.9969,-109.4994 322.5927,-112.8699"/>
<polygon fill="#191970" stroke="#191970" points="321.9924,-116.3181 332.4564,-114.6577 323.2409,-109.4303 321.9924,-116.3181"/>
</g>
<!-- Node121 -->
<g id="node8" class="node">
<title>Node121</title>
<g id="a_node8"><a xlink:href="namespacesll__m__point__to__point__comms.html#ace7366fed79af3987767fde1b8184410" target="_top" xlink:title="port_is_busy">
<polygon fill="#ffffff" stroke="#000000" points="345,-76.5 345,-95.5 423,-95.5 423,-76.5 345,-76.5"/>
<text text-anchor="middle" x="384" y="-83.5" font-family="Helvetica,sans-Serif" font-size="10.00" fill="#000000">port_is_busy</text>
</a>
</g>
</g>
<!-- Node118&#45;&gt;Node121 -->
<g id="edge7" class="edge">
<title>Node118&#45;&gt;Node121</title>
<path fill="none" stroke="#191970" d="M266.8771,-92.5882C287.8137,-91.4105 313.109,-89.9876 334.8262,-88.766"/>
<polygon fill="#191970" stroke="#191970" points="335.056,-92.2587 344.8436,-88.2025 334.6628,-85.2698 335.056,-92.2587"/>
</g>
<!-- Node122 -->
<g id="node9" class="node">
<title>Node122</title>
<g id="a_node9"><a xlink:href="namespacesll__m__point__to__point__comms.html#a419cb5e1f63300697382a581bc8c7862" target="_top" xlink:title="receive_tag">
<polygon fill="#ffffff" stroke="#000000" points="347,-.5 347,-19.5 421,-19.5 421,-.5 347,-.5"/>
<text text-anchor="middle" x="384" y="-7.5" font-family="Helvetica,sans-Serif" font-size="10.00" fill="#000000">receive_tag</text>
</a>
</g>
</g>
<!-- Node118&#45;&gt;Node122 -->
<g id="edge9" class="edge">
<title>Node118&#45;&gt;Node122</title>
<path fill="none" stroke="#191970" d="M266.6787,-86.106C273.825,-83.5274 280.8925,-80.2237 287,-76 308.6415,-61.0337 301.4263,-44.064 323,-29 327.3227,-25.9816 332.1431,-23.4291 337.1273,-21.2735"/>
<polygon fill="#191970" stroke="#191970" points="338.7148,-24.4149 346.8264,-17.5993 336.235,-17.8689 338.7148,-24.4149"/>
</g>
<!-- Node124 -->
<g id="node11" class="node">
<title>Node124</title>
<g id="a_node11"><a xlink:href="namespacesll__m__point__to__point__comms.html#a649d95ce15846973ed2e19fcf54b02fe" target="_top" xlink:title="flip_buffer">
<polygon fill="#ffffff" stroke="#000000" points="351.5,-38.5 351.5,-57.5 416.5,-57.5 416.5,-38.5 351.5,-38.5"/>
<text text-anchor="middle" x="384" y="-45.5" font-family="Helvetica,sans-Serif" font-size="10.00" fill="#000000">flip_buffer</text>
</a>
</g>
</g>
<!-- Node118&#45;&gt;Node124 -->
<g id="edge11" class="edge">
<title>Node118&#45;&gt;Node124</title>
<path fill="none" stroke="#191970" d="M256.3784,-85.4888C280.9121,-78.2821 314.8405,-68.3156 341.5479,-60.4703"/>
<polygon fill="#191970" stroke="#191970" points="342.7874,-63.7542 351.3956,-57.5776 340.8145,-57.0379 342.7874,-63.7542"/>
</g>
<!-- Node121&#45;&gt;Node119 -->
<g id="edge8" class="edge">
<title>Node121&#45;&gt;Node119</title>
<path fill="none" stroke="#191970" d="M423.247,-86C438.0662,-86 455.0515,-86 470.4034,-86"/>
<polygon fill="#191970" stroke="#191970" points="470.724,-89.5001 480.724,-86 470.724,-82.5001 470.724,-89.5001"/>
</g>
<!-- Node123 -->
<g id="node10" class="node">
<title>Node123</title>
<g id="a_node10"><a xlink:href="namespacesll__m__point__to__point__comms.html#a2ec99c657fccfca4a2631c9408e2a9c1" target="_top" xlink:title="flip_bit">
<polygon fill="#ffffff" stroke="#000000" points="491,-19.5 491,-38.5 541,-38.5 541,-19.5 491,-19.5"/>
<text text-anchor="middle" x="516" y="-26.5" font-family="Helvetica,sans-Serif" font-size="10.00" fill="#000000">flip_bit</text>
</a>
</g>
</g>
<!-- Node122&#45;&gt;Node123 -->
<g id="edge10" class="edge">
<title>Node122&#45;&gt;Node123</title>
<path fill="none" stroke="#191970" d="M421.1206,-15.3431C439.8209,-18.0348 462.3741,-21.2811 480.7992,-23.9332"/>
<polygon fill="#191970" stroke="#191970" points="480.4377,-27.4172 490.8343,-25.3777 481.435,-20.4886 480.4377,-27.4172"/>
</g>
<!-- Node124&#45;&gt;Node119 -->
<g id="edge12" class="edge">
<title>Node124&#45;&gt;Node119</title>
<path fill="none" stroke="#191970" d="M416.6292,-57.3933C433.6352,-62.2889 454.6525,-68.3394 472.972,-73.6131"/>
<polygon fill="#191970" stroke="#191970" points="472.2513,-77.0478 482.8293,-76.4509 474.1878,-70.3209 472.2513,-77.0478"/>
</g>
<!-- Node124&#45;&gt;Node123 -->
<g id="edge13" class="edge">
<title>Node124&#45;&gt;Node123</title>
<path fill="none" stroke="#191970" d="M416.6292,-43.3034C436.1332,-40.496 460.9133,-36.9291 480.8487,-34.0597"/>
<polygon fill="#191970" stroke="#191970" points="481.379,-37.5195 490.7784,-32.6304 480.3817,-30.5909 481.379,-37.5195"/>
</g>
</g>
</svg>
        <g id="navigator" transform="translate(0 0)" fill="#404254">
                <rect fill="#f2f5e9" fill-opacity="0.5" stroke="#606060" stroke-width=".5" x="0" y="0" width="60" height="60"/>
                <use id="zoomplus" xlink:href="#zoomPlus" x="17" y="9" onmousedown="handleZoom(evt,'in')"/>
                <use id="zoomminus" xlink:href="#zoomMin" x="42" y="9" onmousedown="handleZoom(evt,'out')"/>
                <use id="reset" xlink:href="#resetDef" x="30" y="36" onmousedown="handleReset()"/>
                <g id="arrowUp" xlink:href="#dirArrow" transform="translate(30 24)" onmousedown="handlePan(0,-1)">
                  <use xlink:href="#rim" fill="#404040">
                        <set attributeName="fill" to="#808080" begin="arrowUp.mouseover" end="arrowUp.mouseout"/>
                  </use>
                  <path fill="none" stroke="white" stroke-width="1.5" d="M0,-3.0v7 M-2.5,-0.5L0,-3.0L2.5,-0.5"/>
                </g>
                <g id="arrowRight" xlink:href="#dirArrow" transform="rotate(90) translate(36 -43)" onmousedown="handlePan(1,0)">
                  <use xlink:href="#rim" fill="#404040">
                        <set attributeName="fill" to="#808080" begin="arrowRight.mouseover" end="arrowRight.mouseout"/>
                  </use>
                  <path fill="none" stroke="white" stroke-width="1.5" d="M0,-3.0v7 M-2.5,-0.5L0,-3.0L2.5,-0.5"/>
                </g>
                <g id="arrowDown" xlink:href="#dirArrow" transform="rotate(180) translate(-30 -48)" onmousedown="handlePan(0,1)">
                  <use xlink:href="#rim" fill="#404040">
                        <set attributeName="fill" to="#808080" begin="arrowDown.mouseover" end="arrowDown.mouseout"/>
                  </use>
                  <path fill="none" stroke="white" stroke-width="1.5" d="M0,-3.0v7 M-2.5,-0.5L0,-3.0L2.5,-0.5"/>
                </g>
                <g id="arrowLeft" xlink:href="#dirArrow" transform="rotate(270) translate(-36 17)" onmousedown="handlePan(-1,0)">
                  <use xlink:href="#rim" fill="#404040">
                        <set attributeName="fill" to="#808080" begin="arrowLeft.mouseover" end="arrowLeft.mouseout"/>
                  </use>
                  <path fill="none" stroke="white" stroke-width="1.5" d="M0,-3.0v7 M-2.5,-0.5L0,-3.0L2.5,-0.5"/>
                </g>
        </g>
        <svg viewBox="0 0 15 15" width="100%" height="30px" preserveAspectRatio="xMaxYMin meet">
         <g id="arrow_out" transform="scale(0.3 0.3)">
          <a xlink:href="namespacesll__m__point__to__point__comms_a7dcb12c869cca4261dda441bbf9fea98_cgraph_org.svg" target="_base">
           <rect id="button" ry="5" rx="5" y="6" x="6" height="38" width="38"
                fill="#f2f5e9" fill-opacity="0.5" stroke="#606060" stroke-width="1.0"/>
           <path id="arrow"
             d="M 11.500037,31.436501 C 11.940474,20.09759 22.043105,11.32322 32.158766,21.979434 L 37.068811,17.246167 C 37.068811,17.246167 37.088388,32 37.088388,32 L 22.160133,31.978069 C 22.160133,31.978069 26.997745,27.140456 26.997745,27.140456 C 18.528582,18.264221 13.291696,25.230495 11.500037,31.436501 z"
             style="fill:#404040;"/>
          </a>
         </g>
        </svg>
</svg>
