<?xml version="1.0" encoding="UTF-8" standalone="no"?>
<!DOCTYPE svg PUBLIC "-//W3C//DTD SVG 1.1//EN"
 "http://www.w3.org/Graphics/SVG/1.1/DTD/svg11.dtd">
<!-- Generated by graphviz version 2.40.1 (20161225.0304)
 -->
<!-- Title: sll_s_spline_pp_init_1d Pages: 1 -->
<svg width="453pt" height="126pt"
 viewBox="0.00 0.00 453.00 126.00" xmlns="http://www.w3.org/2000/svg" xmlns:xlink="http://www.w3.org/1999/xlink">
<g id="graph0" class="graph" transform="scale(1 1) rotate(0) translate(4 122)">
<title>sll_s_spline_pp_init_1d</title>
<polygon fill="#ffffff" stroke="transparent" points="-4,4 -4,-122 449,-122 449,4 -4,4"/>
<!-- Node77 -->
<g id="node1" class="node">
<title>Node77</title>
<polygon fill="#bfbfbf" stroke="#000000" points="0,-38.5 0,-57.5 128,-57.5 128,-38.5 0,-38.5"/>
<text text-anchor="middle" x="64" y="-45.5" font-family="Helvetica,sans-Serif" font-size="10.00" fill="#000000">sll_s_spline_pp_init_1d</text>
</g>
<!-- Node78 -->
<g id="node2" class="node">
<title>Node78</title>
<g id="a_node2"><a xlink:href="namespacesll__m__particle__mesh__coupling__spline__1d.html#a8cd446ae4a4dc74bfc2c041c67e2e0cd" target="_top" xlink:title="Initializer. ">
<polygon fill="#ffffff" stroke="#000000" points="169.5,-76.5 169.5,-117.5 286.5,-117.5 286.5,-76.5 169.5,-76.5"/>
<text text-anchor="start" x="177.5" y="-105.5" font-family="Helvetica,sans-Serif" font-size="10.00" fill="#000000">sll_m_particle_mesh</text>
<text text-anchor="start" x="177.5" y="-94.5" font-family="Helvetica,sans-Serif" font-size="10.00" fill="#000000">_coupling_spline_1d</text>
<text text-anchor="middle" x="228" y="-83.5" font-family="Helvetica,sans-Serif" font-size="10.00" fill="#000000">::init_spline_1d</text>
</a>
</g>
</g>
<!-- Node77&#45;&gt;Node78 -->
<g id="edge1" class="edge">
<title>Node77&#45;&gt;Node78</title>
<path fill="none" stroke="#191970" d="M105.6925,-60.4569C124.9592,-66.2134 148.1774,-73.1506 169.184,-79.4269"/>
<polygon fill="#191970" stroke="#191970" points="106.5936,-57.0733 96.0102,-57.564 104.5897,-63.7804 106.5936,-57.0733"/>
</g>
<!-- Node79 -->
<g id="node3" class="node">
<title>Node79</title>
<g id="a_node3"><a xlink:href="namespacesll__m__splines__pp.html#ab0bd290f1a3b06fd9211b341b3b8fa18" target="_top" xlink:title="Initialize sll_t_spline_pp_2d object. ">
<polygon fill="#ffffff" stroke="#000000" points="164,-38.5 164,-57.5 292,-57.5 292,-38.5 164,-38.5"/>
<text text-anchor="middle" x="228" y="-45.5" font-family="Helvetica,sans-Serif" font-size="10.00" fill="#000000">sll_s_spline_pp_init_2d</text>
</a>
</g>
</g>
<!-- Node77&#45;&gt;Node79 -->
<g id="edge2" class="edge">
<title>Node77&#45;&gt;Node79</title>
<path fill="none" stroke="#191970" d="M138.5641,-48C147.0037,-48 155.5492,-48 163.8391,-48"/>
<polygon fill="#191970" stroke="#191970" points="138.3465,-44.5001 128.3464,-48 138.3464,-51.5001 138.3465,-44.5001"/>
</g>
<!-- Node81 -->
<g id="node5" class="node">
<title>Node81</title>
<g id="a_node5"><a xlink:href="namespacesll__m__splines__pp.html#aa89575bf1babec91a086cb0ad8dffeb5" target="_top" xlink:title="Initialize sll_t_spline_pp_3d object. ">
<polygon fill="#ffffff" stroke="#000000" points="164,-.5 164,-19.5 292,-19.5 292,-.5 164,-.5"/>
<text text-anchor="middle" x="228" y="-7.5" font-family="Helvetica,sans-Serif" font-size="10.00" fill="#000000">sll_s_spline_pp_init_3d</text>
</a>
</g>
</g>
<!-- Node77&#45;&gt;Node81 -->
<g id="edge4" class="edge">
<title>Node77&#45;&gt;Node81</title>
<path fill="none" stroke="#191970" d="M115.341,-36.1039C138.3929,-30.7626 165.2211,-24.5463 186.9135,-19.5201"/>
<polygon fill="#191970" stroke="#191970" points="114.336,-32.744 105.3841,-38.411 115.9161,-39.5633 114.336,-32.744"/>
</g>
<!-- Node80 -->
<g id="node4" class="node">
<title>Node80</title>
<g id="a_node4"><a xlink:href="namespacesll__m__particle__mesh__coupling__spline__2d.html#a22514cb0cee8c41615a57e70aaba936d" target="_top" xlink:title="sll_m_particle_mesh\l_coupling_spline_2d\l::init_spline_2d">
<polygon fill="#ffffff" stroke="#000000" points="328,-27.5 328,-68.5 445,-68.5 445,-27.5 328,-27.5"/>
<text text-anchor="start" x="336" y="-56.5" font-family="Helvetica,sans-Serif" font-size="10.00" fill="#000000">sll_m_particle_mesh</text>
<text text-anchor="start" x="336" y="-45.5" font-family="Helvetica,sans-Serif" font-size="10.00" fill="#000000">_coupling_spline_2d</text>
<text text-anchor="middle" x="386.5" y="-34.5" font-family="Helvetica,sans-Serif" font-size="10.00" fill="#000000">::init_spline_2d</text>
</a>
</g>
</g>
<!-- Node79&#45;&gt;Node80 -->
<g id="edge3" class="edge">
<title>Node79&#45;&gt;Node80</title>
<path fill="none" stroke="#191970" d="M302.1025,-48C310.7522,-48 319.4839,-48 327.8833,-48"/>
<polygon fill="#191970" stroke="#191970" points="302.0112,-44.5001 292.0111,-48 302.0111,-51.5001 302.0112,-44.5001"/>
</g>
</g>
</svg>
