<?xml version="1.0" encoding="UTF-8" standalone="no"?>
<!DOCTYPE svg PUBLIC "-//W3C//DTD SVG 1.1//EN"
 "http://www.w3.org/Graphics/SVG/1.1/DTD/svg11.dtd">
<!-- Generated by graphviz version 2.40.1 (20161225.0304)
 -->
<!-- Title: spline_interpolate_from_interpolant_cell_dx Pages: 1 -->
<svg width="458pt" height="50pt"
 viewBox="0.00 0.00 458.00 50.00" xmlns="http://www.w3.org/2000/svg" xmlns:xlink="http://www.w3.org/1999/xlink">
<g id="graph0" class="graph" transform="scale(1 1) rotate(0) translate(4 46)">
<title>spline_interpolate_from_interpolant_cell_dx</title>
<polygon fill="#ffffff" stroke="transparent" points="-4,4 -4,-46 454,-46 454,4 -4,4"/>
<!-- Node243 -->
<g id="node1" class="node">
<title>Node243</title>
<polygon fill="#bfbfbf" stroke="#000000" points="0,-6 0,-36 143,-36 143,-6 0,-6"/>
<text text-anchor="start" x="8" y="-24" font-family="Helvetica,sans-Serif" font-size="10.00" fill="#000000">spline_interpolate</text>
<text text-anchor="middle" x="71.5" y="-13" font-family="Helvetica,sans-Serif" font-size="10.00" fill="#000000">_from_interpolant_cell_dx</text>
</g>
<!-- Node244 -->
<g id="node2" class="node">
<title>Node244</title>
<g id="a_node2"><a xlink:href="namespacesll__m__cubic__splines.html#a4a35991c4014fcd1d97ec7f5caaa4310" target="_top" xlink:title="Computes the interpolated values at each grid point replaced by alpha for the precomputed spline coef...">
<polygon fill="#ffffff" stroke="#000000" points="179,-6 179,-36 283,-36 283,-6 179,-6"/>
<text text-anchor="start" x="187" y="-24" font-family="Helvetica,sans-Serif" font-size="10.00" fill="#000000">sll_s_cubic_spline</text>
<text text-anchor="middle" x="231" y="-13" font-family="Helvetica,sans-Serif" font-size="10.00" fill="#000000">_1d_eval_disp</text>
</a>
</g>
</g>
<!-- Node243&#45;&gt;Node244 -->
<g id="edge1" class="edge">
<title>Node243&#45;&gt;Node244</title>
<path fill="none" stroke="#191970" d="M153.3968,-21C161.99,-21 170.5499,-21 178.6771,-21"/>
<polygon fill="#191970" stroke="#191970" points="153.3179,-17.5001 143.3178,-21 153.3178,-24.5001 153.3179,-17.5001"/>
</g>
<!-- Node245 -->
<g id="node3" class="node">
<title>Node245</title>
<g id="a_node3"><a xlink:href="namespacesll__m__cubic__spline__interpolator__1d.html#abe4c9e034ac1540b8d94dc4ace1a6f70" target="_top" xlink:title="Computes the interpolated values at each grid point replaced by alpha using cubic spline interpolatio...">
<polygon fill="#ffffff" stroke="#000000" points="319,-.5 319,-41.5 450,-41.5 450,-.5 319,-.5"/>
<text text-anchor="start" x="327" y="-29.5" font-family="Helvetica,sans-Serif" font-size="10.00" fill="#000000">sll_m_cubic_spline</text>
<text text-anchor="start" x="327" y="-18.5" font-family="Helvetica,sans-Serif" font-size="10.00" fill="#000000">_interpolator_1d::spline</text>
<text text-anchor="middle" x="384.5" y="-7.5" font-family="Helvetica,sans-Serif" font-size="10.00" fill="#000000">_interpolate1d_disp</text>
</a>
</g>
</g>
<!-- Node244&#45;&gt;Node245 -->
<g id="edge2" class="edge">
<title>Node244&#45;&gt;Node245</title>
<path fill="none" stroke="#191970" d="M293.4349,-21C301.7825,-21 310.3644,-21 318.7664,-21"/>
<polygon fill="#191970" stroke="#191970" points="293.3967,-17.5001 283.3967,-21 293.3966,-24.5001 293.3967,-17.5001"/>
</g>
</g>
</svg>
