<?xml version="1.0" encoding="UTF-8" standalone="no"?>
<!DOCTYPE svg PUBLIC "-//W3C//DTD SVG 1.1//EN"
 "http://www.w3.org/Graphics/SVG/1.1/DTD/svg11.dtd">
<!-- Generated by graphviz version 2.43.0 (0)
 -->
<!-- Title: sll_s_spline_fem_multiply_mass Pages: 1 -->
<!--zoomable 470 -->
<svg id="main" version="1.1" xmlns="http://www.w3.org/2000/svg" xmlns:xlink="http://www.w3.org/1999/xlink" xml:space="preserve" onload="init(evt)">
<style type="text/css"><![CDATA[
.edge:hover path { stroke: red; }
.edge:hover polygon { stroke: red; fill: red; }
]]></style>
<script type="text/javascript"><![CDATA[
var edges = document.getElementsByTagName('g');
if (edges && edges.length) {
  for (var i=0;i<edges.length;i++) {
    if (edges[i].id.substr(0,4)=='edge') {
      edges[i].setAttribute('class','edge');
    }
  }
}
]]></script>
        <defs>
                <circle id="rim" cx="0" cy="0" r="7"/>
                <circle id="rim2" cx="0" cy="0" r="3.5"/>
                <g id="zoomPlus">
                        <use xlink:href="#rim" fill="#404040">
                                <set attributeName="fill" to="#808080" begin="zoomplus.mouseover" end="zoomplus.mouseout"/>
                        </use>
                        <path d="M-4,0h8M0,-4v8" fill="none" stroke="white" stroke-width="1.5" pointer-events="none"/>
                </g>
                <g id="zoomMin">
                        <use xlink:href="#rim" fill="#404040">
                                <set attributeName="fill" to="#808080" begin="zoomminus.mouseover" end="zoomminus.mouseout"/>
                        </use>
                        <path d="M-4,0h8" fill="none" stroke="white" stroke-width="1.5" pointer-events="none"/>
                </g>
                <g id="dirArrow">
                        <path fill="none" stroke="white" stroke-width="1.5" d="M0,-3.0v7 M-2.5,-0.5L0,-3.0L2.5,-0.5"/>
                </g>
               <g id="resetDef">
                       <use xlink:href="#rim2" fill="#404040">
                               <set attributeName="fill" to="#808080" begin="reset.mouseover" end="reset.mouseout"/>
                       </use>
               </g>
        </defs>

<script type="text/javascript">
var viewWidth = 719;
var viewHeight = 470;
var sectionId = 'dynsection-22';
</script>
<script xlink:href="svgpan.js"/>
<svg id="graph" class="graph">
<g id="viewport">
<title>sll_s_spline_fem_multiply_mass</title>
<polygon fill="white" stroke="transparent" points="-4,4 -4,-466 715,-466 715,4 -4,4"/>
<!-- Node1 -->
<g id="node1" class="node">
<title>Node1</title>
<g id="a_node1"><a xlink:title="Multiply the vector invec with the spline FEM mass matrix with mass line mass.">
<polygon fill="#bfbfbf" stroke="black" points="536,-154.5 536,-173.5 711,-173.5 711,-154.5 536,-154.5"/>
<text text-anchor="middle" x="623.5" y="-161.5" font-family="Helvetica,sans-Serif" font-size="10.00">sll_s_spline_fem_multiply_mass</text>
</a>
</g>
</g>
<!-- Node2 -->
<g id="node2" class="node">
<title>Node2</title>
<g id="a_node2"><a xlink:href="namespacesll__m__maxwell__2d__fem__fft.html#aa50fa038089df0d0bd86994241630dcb" target="_top" xlink:title="Multiply by the mass matrix.">
<polygon fill="white" stroke="black" points="351,-336 351,-366 500,-366 500,-336 351,-336"/>
<text text-anchor="start" x="359" y="-354" font-family="Helvetica,sans-Serif" font-size="10.00">sll_m_maxwell_2d_fem</text>
<text text-anchor="middle" x="425.5" y="-343" font-family="Helvetica,sans-Serif" font-size="10.00">_fft::multiply_mass_2dkron</text>
</a>
</g>
</g>
<!-- Node1&#45;&gt;Node2 -->
<g id="edge1" class="edge">
<title>Node1&#45;&gt;Node2</title>
<path fill="none" stroke="midnightblue" d="M604.84,-180.85C567.03,-216.93 478.72,-301.18 442.47,-335.77"/>
<polygon fill="midnightblue" stroke="midnightblue" points="607.69,-182.97 612.51,-173.53 602.86,-177.9 607.69,-182.97"/>
</g>
<!-- Node9 -->
<g id="node9" class="node">
<title>Node9</title>
<g id="a_node9"><a xlink:href="namespacesll__m__maxwell__3d__fem__fft.html#af661de8498b97c6bb3b0549168a27a7e" target="_top" xlink:title="Multiply by the mass matrix.">
<polygon fill="white" stroke="black" points="351,-174 351,-204 500,-204 500,-174 351,-174"/>
<text text-anchor="start" x="359" y="-192" font-family="Helvetica,sans-Serif" font-size="10.00">sll_m_maxwell_3d_fem</text>
<text text-anchor="middle" x="425.5" y="-181" font-family="Helvetica,sans-Serif" font-size="10.00">_fft::multiply_mass_3dkron</text>
</a>
</g>
</g>
<!-- Node1&#45;&gt;Node9 -->
<g id="edge8" class="edge">
<title>Node1&#45;&gt;Node9</title>
<path fill="none" stroke="midnightblue" d="M537.89,-174.79C525.38,-176.39 512.57,-178.02 500.3,-179.59"/>
<polygon fill="midnightblue" stroke="midnightblue" points="538.36,-178.26 547.84,-173.52 537.48,-171.32 538.36,-178.26"/>
</g>
<!-- Node18 -->
<g id="node18" class="node">
<title>Node18</title>
<g id="a_node18"><a xlink:href="namespacesll__m__maxwell__2d__fem__fft.html#af393207108f2821b4bc4b6482d08af00" target="_top" xlink:title="Multiply by the mass matrix.">
<polygon fill="white" stroke="black" points="359.5,-76 359.5,-106 491.5,-106 491.5,-76 359.5,-76"/>
<text text-anchor="start" x="367.5" y="-94" font-family="Helvetica,sans-Serif" font-size="10.00">sll_m_maxwell_2d_fem</text>
<text text-anchor="middle" x="425.5" y="-83" font-family="Helvetica,sans-Serif" font-size="10.00">_fft::multiply_mass_all</text>
</a>
</g>
</g>
<!-- Node1&#45;&gt;Node18 -->
<g id="edge19" class="edge">
<title>Node1&#45;&gt;Node18</title>
<path fill="none" stroke="midnightblue" d="M589.58,-150.63C565.01,-140.76 530.54,-127.17 500,-116 490.89,-112.67 481.08,-109.23 471.7,-106.01"/>
<polygon fill="midnightblue" stroke="midnightblue" points="588.55,-153.99 599.14,-154.48 591.17,-147.5 588.55,-153.99"/>
</g>
<!-- Node19 -->
<g id="node19" class="node">
<title>Node19</title>
<g id="a_node19"><a xlink:href="namespacesll__m__maxwell__3d__fem__fft.html#adfe47ed1031ee66fcc5fd98c5a939447" target="_top" xlink:title="Multiply by the mass matrix.">
<polygon fill="white" stroke="black" points="359.5,-125 359.5,-155 491.5,-155 491.5,-125 359.5,-125"/>
<text text-anchor="start" x="367.5" y="-143" font-family="Helvetica,sans-Serif" font-size="10.00">sll_m_maxwell_3d_fem</text>
<text text-anchor="middle" x="425.5" y="-132" font-family="Helvetica,sans-Serif" font-size="10.00">_fft::multiply_mass_all</text>
</a>
</g>
</g>
<!-- Node1&#45;&gt;Node19 -->
<g id="edge20" class="edge">
<title>Node1&#45;&gt;Node19</title>
<path fill="none" stroke="midnightblue" d="M534.75,-153.26C520.22,-151.48 505.37,-149.66 491.53,-147.96"/>
<polygon fill="midnightblue" stroke="midnightblue" points="534.4,-156.74 544.75,-154.48 535.25,-149.79 534.4,-156.74"/>
</g>
<!-- Node3 -->
<g id="node3" class="node">
<title>Node3</title>
<g id="a_node3"><a xlink:href="namespacesll__m__maxwell__2d__fem__fft.html#aa51ed5a01418cd3e1b624e1ebce8b256" target="_top" xlink:title=" ">
<polygon fill="white" stroke="black" points="168,-420 168,-450 315,-450 315,-420 168,-420"/>
<text text-anchor="start" x="176" y="-438" font-family="Helvetica,sans-Serif" font-size="10.00">sll_m_maxwell_2d_fem</text>
<text text-anchor="middle" x="241.5" y="-427" font-family="Helvetica,sans-Serif" font-size="10.00">_fft::inner_product_2d_fem</text>
</a>
</g>
</g>
<!-- Node2&#45;&gt;Node3 -->
<g id="edge2" class="edge">
<title>Node2&#45;&gt;Node3</title>
<path fill="none" stroke="midnightblue" d="M384.34,-370.4C363.68,-380.29 338.06,-392.44 315,-403 302.74,-408.61 289.24,-414.62 277.25,-419.89"/>
<polygon fill="midnightblue" stroke="midnightblue" points="385.95,-373.51 393.46,-366.02 382.93,-367.19 385.95,-373.51"/>
</g>
<!-- Node5 -->
<g id="node5" class="node">
<title>Node5</title>
<g id="a_node5"><a xlink:href="namespacesll__m__maxwell__2d__fem__fft.html#a006fdf650e785cedeb1d16b07c90465b" target="_top" xlink:title=" ">
<polygon fill="white" stroke="black" points="169,-363 169,-393 314,-393 314,-363 169,-363"/>
<text text-anchor="start" x="177" y="-381" font-family="Helvetica,sans-Serif" font-size="10.00">sll_m_maxwell_2d_fem</text>
<text text-anchor="middle" x="241.5" y="-370" font-family="Helvetica,sans-Serif" font-size="10.00">_fft::multiply_mass_1form</text>
</a>
</g>
</g>
<!-- Node2&#45;&gt;Node5 -->
<g id="edge4" class="edge">
<title>Node2&#45;&gt;Node5</title>
<path fill="none" stroke="midnightblue" d="M340.97,-363.39C332.03,-364.72 322.99,-366.06 314.21,-367.36"/>
<polygon fill="midnightblue" stroke="midnightblue" points="341.62,-366.83 351,-361.9 340.59,-359.91 341.62,-366.83"/>
</g>
<!-- Node7 -->
<g id="node7" class="node">
<title>Node7</title>
<g id="a_node7"><a xlink:href="namespacesll__m__maxwell__2d__fem__fft.html#af6f5c8ce2e047a477749e729b4560c97" target="_top" xlink:title=" ">
<polygon fill="white" stroke="black" points="169,-309 169,-339 314,-339 314,-309 169,-309"/>
<text text-anchor="start" x="177" y="-327" font-family="Helvetica,sans-Serif" font-size="10.00">sll_m_maxwell_2d_fem</text>
<text text-anchor="middle" x="241.5" y="-316" font-family="Helvetica,sans-Serif" font-size="10.00">_fft::multiply_mass_2form</text>
</a>
</g>
</g>
<!-- Node2&#45;&gt;Node7 -->
<g id="edge6" class="edge">
<title>Node2&#45;&gt;Node7</title>
<path fill="none" stroke="midnightblue" d="M340.97,-338.61C332.03,-337.28 322.99,-335.94 314.21,-334.64"/>
<polygon fill="midnightblue" stroke="midnightblue" points="340.59,-342.09 351,-340.1 341.62,-335.17 340.59,-342.09"/>
</g>
<!-- Node4 -->
<g id="node4" class="node">
<title>Node4</title>
<g id="a_node4"><a xlink:href="namespacesll__m__maxwell__2d__fem__fft.html#ae5ef6b42145027447666df57a376d2ac" target="_top" xlink:title="Compute square of the L2norm.">
<polygon fill="white" stroke="black" points="0,-420.5 0,-461.5 132,-461.5 132,-420.5 0,-420.5"/>
<text text-anchor="start" x="8" y="-449.5" font-family="Helvetica,sans-Serif" font-size="10.00">sll_m_maxwell_2d_fem</text>
<text text-anchor="start" x="8" y="-438.5" font-family="Helvetica,sans-Serif" font-size="10.00">_fft::l2norm_squared</text>
<text text-anchor="middle" x="66" y="-427.5" font-family="Helvetica,sans-Serif" font-size="10.00">_2d_fem</text>
</a>
</g>
</g>
<!-- Node3&#45;&gt;Node4 -->
<g id="edge3" class="edge">
<title>Node3&#45;&gt;Node4</title>
<path fill="none" stroke="midnightblue" d="M157.83,-437.86C149.19,-438.16 140.5,-438.46 132.1,-438.75"/>
<polygon fill="midnightblue" stroke="midnightblue" points="158.05,-441.35 167.93,-437.51 157.81,-434.36 158.05,-441.35"/>
</g>
<!-- Node6 -->
<g id="node6" class="node">
<title>Node6</title>
<g id="a_node6"><a xlink:href="namespacesll__m__maxwell__2d__fem__fft.html#a05723424fae2c505c4a6848f2ae0008a" target="_top" xlink:title="compute rho from e using weak Gauss law ( rho = G^T M_1 e )">
<polygon fill="white" stroke="black" points="0,-360.5 0,-401.5 132,-401.5 132,-360.5 0,-360.5"/>
<text text-anchor="start" x="8" y="-389.5" font-family="Helvetica,sans-Serif" font-size="10.00">sll_m_maxwell_2d_fem</text>
<text text-anchor="start" x="8" y="-378.5" font-family="Helvetica,sans-Serif" font-size="10.00">_fft::compute_rho_from</text>
<text text-anchor="middle" x="66" y="-367.5" font-family="Helvetica,sans-Serif" font-size="10.00">_e_2d_fem</text>
</a>
</g>
</g>
<!-- Node5&#45;&gt;Node6 -->
<g id="edge5" class="edge">
<title>Node5&#45;&gt;Node6</title>
<path fill="none" stroke="midnightblue" d="M158.83,-379.41C149.83,-379.57 140.76,-379.72 132.01,-379.88"/>
<polygon fill="midnightblue" stroke="midnightblue" points="158.99,-382.91 168.93,-379.24 158.87,-375.91 158.99,-382.91"/>
</g>
<!-- Node8 -->
<g id="node8" class="node">
<title>Node8</title>
<g id="a_node8"><a xlink:href="namespacesll__m__maxwell__2d__fem__fft.html#a782c4f37c0d356fc5af8b524636b8c7e" target="_top" xlink:title="compute Ey from Bz using weak Ampere formulation">
<polygon fill="white" stroke="black" points="0,-300.5 0,-341.5 132,-341.5 132,-300.5 0,-300.5"/>
<text text-anchor="start" x="8" y="-329.5" font-family="Helvetica,sans-Serif" font-size="10.00">sll_m_maxwell_2d_fem</text>
<text text-anchor="start" x="8" y="-318.5" font-family="Helvetica,sans-Serif" font-size="10.00">_fft::sll_s_compute_e</text>
<text text-anchor="middle" x="66" y="-307.5" font-family="Helvetica,sans-Serif" font-size="10.00">_from_b_2d_fem</text>
</a>
</g>
</g>
<!-- Node7&#45;&gt;Node8 -->
<g id="edge7" class="edge">
<title>Node7&#45;&gt;Node8</title>
<path fill="none" stroke="midnightblue" d="M158.83,-322.59C149.83,-322.43 140.76,-322.28 132.01,-322.12"/>
<polygon fill="midnightblue" stroke="midnightblue" points="158.87,-326.09 168.93,-322.76 158.99,-319.09 158.87,-326.09"/>
</g>
<!-- Node10 -->
<g id="node10" class="node">
<title>Node10</title>
<g id="a_node10"><a xlink:href="namespacesll__m__maxwell__3d__fem__fft.html#adea1bfe8cb9efebd4413b03e46082a41" target="_top" xlink:title="Compute inner product.">
<polygon fill="white" stroke="black" points="175.5,-240.5 175.5,-281.5 307.5,-281.5 307.5,-240.5 175.5,-240.5"/>
<text text-anchor="start" x="183.5" y="-269.5" font-family="Helvetica,sans-Serif" font-size="10.00">sll_m_maxwell_3d_fem</text>
<text text-anchor="start" x="183.5" y="-258.5" font-family="Helvetica,sans-Serif" font-size="10.00">_fft::inner_product_3d</text>
<text text-anchor="middle" x="241.5" y="-247.5" font-family="Helvetica,sans-Serif" font-size="10.00">_fem_fft</text>
</a>
</g>
</g>
<!-- Node9&#45;&gt;Node10 -->
<g id="edge9" class="edge">
<title>Node9&#45;&gt;Node10</title>
<path fill="none" stroke="midnightblue" d="M376.94,-207.81C351.6,-217.84 320.38,-230.19 294.41,-240.46"/>
<polygon fill="midnightblue" stroke="midnightblue" points="378.34,-211.03 386.35,-204.09 375.76,-204.52 378.34,-211.03"/>
</g>
<!-- Node12 -->
<g id="node12" class="node">
<title>Node12</title>
<g id="a_node12"><a xlink:href="namespacesll__m__maxwell__3d__fem__fft.html#ae07f9ed77d53f2f362a890d1023c22cf" target="_top" xlink:title="Helper function for multiply_mass.">
<polygon fill="white" stroke="black" points="169,-191 169,-221 314,-221 314,-191 169,-191"/>
<text text-anchor="start" x="177" y="-209" font-family="Helvetica,sans-Serif" font-size="10.00">sll_m_maxwell_3d_fem</text>
<text text-anchor="middle" x="241.5" y="-198" font-family="Helvetica,sans-Serif" font-size="10.00">_fft::multiply_mass_1form</text>
</a>
</g>
</g>
<!-- Node9&#45;&gt;Node12 -->
<g id="edge11" class="edge">
<title>Node9&#45;&gt;Node12</title>
<path fill="none" stroke="midnightblue" d="M340.97,-196.8C332.03,-197.64 322.99,-198.48 314.21,-199.3"/>
<polygon fill="midnightblue" stroke="midnightblue" points="341.37,-200.28 351,-195.87 340.72,-193.31 341.37,-200.28"/>
</g>
<!-- Node13 -->
<g id="node13" class="node">
<title>Node13</title>
<g id="a_node13"><a xlink:href="namespacesll__m__maxwell__3d__fem__fft.html#adf449c72634051c9778ba058092a3162" target="_top" xlink:title="Multiply by the mass matrix.">
<polygon fill="white" stroke="black" points="0,-120.5 0,-161.5 132,-161.5 132,-120.5 0,-120.5"/>
<text text-anchor="start" x="8" y="-149.5" font-family="Helvetica,sans-Serif" font-size="10.00">sll_m_maxwell_3d_fem</text>
<text text-anchor="start" x="8" y="-138.5" font-family="Helvetica,sans-Serif" font-size="10.00">_fft::multiply_mass_3d</text>
<text text-anchor="middle" x="66" y="-127.5" font-family="Helvetica,sans-Serif" font-size="10.00">_fem_fft</text>
</a>
</g>
</g>
<!-- Node9&#45;&gt;Node13 -->
<g id="edge18" class="edge">
<title>Node9&#45;&gt;Node13</title>
<path fill="none" stroke="midnightblue" d="M340.84,-177.77C277.15,-169.22 190.73,-157.61 132.14,-149.75"/>
<polygon fill="midnightblue" stroke="midnightblue" points="340.48,-181.25 350.86,-179.11 341.41,-174.31 340.48,-181.25"/>
</g>
<!-- Node15 -->
<g id="node15" class="node">
<title>Node15</title>
<g id="a_node15"><a xlink:href="namespacesll__m__maxwell__3d__fem__fft.html#a13ab31c6639d576f0086381c07ea33f5" target="_top" xlink:title="Helper function for multiply_mass.">
<polygon fill="white" stroke="black" points="169,-65 169,-95 314,-95 314,-65 169,-65"/>
<text text-anchor="start" x="177" y="-83" font-family="Helvetica,sans-Serif" font-size="10.00">sll_m_maxwell_3d_fem</text>
<text text-anchor="middle" x="241.5" y="-72" font-family="Helvetica,sans-Serif" font-size="10.00">_fft::multiply_mass_2form</text>
</a>
</g>
</g>
<!-- Node9&#45;&gt;Node15 -->
<g id="edge14" class="edge">
<title>Node9&#45;&gt;Node15</title>
<path fill="none" stroke="midnightblue" d="M361.71,-170.17C358.03,-168.56 354.43,-166.83 351,-165 314.69,-145.63 278.19,-113.92 258.15,-95.19"/>
<polygon fill="midnightblue" stroke="midnightblue" points="360.41,-173.42 370.99,-173.98 363.06,-166.94 360.41,-173.42"/>
</g>
<!-- Node11 -->
<g id="node11" class="node">
<title>Node11</title>
<g id="a_node11"><a xlink:href="namespacesll__m__maxwell__3d__fem__fft.html#ae7e382ae93d590b8fa62b3af5c0d8df1" target="_top" xlink:title="Compute square of the L2norm.">
<polygon fill="white" stroke="black" points="0,-240.5 0,-281.5 132,-281.5 132,-240.5 0,-240.5"/>
<text text-anchor="start" x="8" y="-269.5" font-family="Helvetica,sans-Serif" font-size="10.00">sll_m_maxwell_3d_fem</text>
<text text-anchor="start" x="8" y="-258.5" font-family="Helvetica,sans-Serif" font-size="10.00">_fft::l2norm_squared</text>
<text text-anchor="middle" x="66" y="-247.5" font-family="Helvetica,sans-Serif" font-size="10.00">_3d_fem_fft</text>
</a>
</g>
</g>
<!-- Node10&#45;&gt;Node11 -->
<g id="edge10" class="edge">
<title>Node10&#45;&gt;Node11</title>
<path fill="none" stroke="midnightblue" d="M165.35,-261C154.3,-261 143,-261 132.17,-261"/>
<polygon fill="midnightblue" stroke="midnightblue" points="165.4,-264.5 175.4,-261 165.4,-257.5 165.4,-264.5"/>
</g>
<!-- Node12&#45;&gt;Node13 -->
<g id="edge12" class="edge">
<title>Node12&#45;&gt;Node13</title>
<path fill="none" stroke="midnightblue" d="M190.65,-187.33C169.12,-179.26 143.86,-169.8 121.81,-161.53"/>
<polygon fill="midnightblue" stroke="midnightblue" points="189.67,-190.69 200.26,-190.92 192.12,-184.14 189.67,-190.69"/>
</g>
<!-- Node14 -->
<g id="node14" class="node">
<title>Node14</title>
<g id="a_node14"><a xlink:href="namespacesll__m__maxwell__3d__fem__fft.html#a3aaf003e9993faa41ebfc6d5b81fd5ca" target="_top" xlink:title="compute rho from e using weak Gauss law ( rho = G^T M_1 e )">
<polygon fill="white" stroke="black" points="0,-180.5 0,-221.5 132,-221.5 132,-180.5 0,-180.5"/>
<text text-anchor="start" x="8" y="-209.5" font-family="Helvetica,sans-Serif" font-size="10.00">sll_m_maxwell_3d_fem</text>
<text text-anchor="start" x="8" y="-198.5" font-family="Helvetica,sans-Serif" font-size="10.00">_fft::sll_s_compute_rho</text>
<text text-anchor="middle" x="66" y="-187.5" font-family="Helvetica,sans-Serif" font-size="10.00">_from_e_3d_fem_fft</text>
</a>
</g>
</g>
<!-- Node12&#45;&gt;Node14 -->
<g id="edge13" class="edge">
<title>Node12&#45;&gt;Node14</title>
<path fill="none" stroke="midnightblue" d="M158.83,-203.65C149.83,-203.39 140.76,-203.13 132.01,-202.87"/>
<polygon fill="midnightblue" stroke="midnightblue" points="158.83,-207.15 168.93,-203.94 159.03,-200.15 158.83,-207.15"/>
</g>
<!-- Node15&#45;&gt;Node13 -->
<g id="edge15" class="edge">
<title>Node15&#45;&gt;Node13</title>
<path fill="none" stroke="midnightblue" d="M188.15,-98.4C168.37,-105.36 145.73,-113.32 125.43,-120.46"/>
<polygon fill="midnightblue" stroke="midnightblue" points="189.34,-101.7 197.61,-95.08 187.02,-95.09 189.34,-101.7"/>
</g>
<!-- Node16 -->
<g id="node16" class="node">
<title>Node16</title>
<g id="a_node16"><a xlink:href="namespacesll__m__maxwell__3d__fem__fft.html#a92f3104e545181a21659fffd7bf3e6bd" target="_top" xlink:title="Solve curl part of Maxwell&#39;s equations.">
<polygon fill="white" stroke="black" points="0,-60.5 0,-101.5 132,-101.5 132,-60.5 0,-60.5"/>
<text text-anchor="start" x="8" y="-89.5" font-family="Helvetica,sans-Serif" font-size="10.00">sll_m_maxwell_3d_fem</text>
<text text-anchor="start" x="8" y="-78.5" font-family="Helvetica,sans-Serif" font-size="10.00">_fft::sll_s_compute_curl</text>
<text text-anchor="middle" x="66" y="-67.5" font-family="Helvetica,sans-Serif" font-size="10.00">_part_3d_fem_fft</text>
</a>
</g>
</g>
<!-- Node15&#45;&gt;Node16 -->
<g id="edge16" class="edge">
<title>Node15&#45;&gt;Node16</title>
<path fill="none" stroke="midnightblue" d="M158.83,-80.47C149.83,-80.52 140.76,-80.57 132.01,-80.63"/>
<polygon fill="midnightblue" stroke="midnightblue" points="158.95,-83.97 168.93,-80.41 158.91,-76.97 158.95,-83.97"/>
</g>
<!-- Node17 -->
<g id="node17" class="node">
<title>Node17</title>
<g id="a_node17"><a xlink:href="namespacesll__m__maxwell__3d__fem__fft.html#a01c619d73d2b079d62d58e5d7b18f07a" target="_top" xlink:title="compute Ey from Bz using weak Ampere formulation">
<polygon fill="white" stroke="black" points="0,-0.5 0,-41.5 132,-41.5 132,-0.5 0,-0.5"/>
<text text-anchor="start" x="8" y="-29.5" font-family="Helvetica,sans-Serif" font-size="10.00">sll_m_maxwell_3d_fem</text>
<text text-anchor="start" x="8" y="-18.5" font-family="Helvetica,sans-Serif" font-size="10.00">_fft::sll_s_compute_e</text>
<text text-anchor="middle" x="66" y="-7.5" font-family="Helvetica,sans-Serif" font-size="10.00">_from_b_3d_fem_fft</text>
</a>
</g>
</g>
<!-- Node15&#45;&gt;Node17 -->
<g id="edge17" class="edge">
<title>Node15&#45;&gt;Node17</title>
<path fill="none" stroke="midnightblue" d="M186.7,-61.71C167.95,-55.33 146.78,-48.13 127.51,-41.58"/>
<polygon fill="midnightblue" stroke="midnightblue" points="185.68,-65.05 196.27,-64.96 187.93,-58.43 185.68,-65.05"/>
</g>
<!-- Node19&#45;&gt;Node13 -->
<g id="edge21" class="edge">
<title>Node19&#45;&gt;Node13</title>
<path fill="none" stroke="midnightblue" d="M349.26,-140.21C284.9,-140.39 193.23,-140.65 132.01,-140.82"/>
<polygon fill="midnightblue" stroke="midnightblue" points="349.35,-143.71 359.34,-140.18 349.33,-136.71 349.35,-143.71"/>
</g>
</g>
</svg>
        <g id="navigator" transform="translate(0 0)" fill="#404254">
                <rect fill="#f2f5e9" fill-opacity="0.5" stroke="#606060" stroke-width=".5" x="0" y="0" width="60" height="60"/>
                <use id="zoomplus" xlink:href="#zoomPlus" x="17" y="9" onmousedown="handleZoom(evt,'in')"/>
                <use id="zoomminus" xlink:href="#zoomMin" x="42" y="9" onmousedown="handleZoom(evt,'out')"/>
                <use id="reset" xlink:href="#resetDef" x="30" y="36" onmousedown="handleReset()"/>
                <g id="arrowUp" xlink:href="#dirArrow" transform="translate(30 24)" onmousedown="handlePan(0,-1)">
                  <use xlink:href="#rim" fill="#404040">
                        <set attributeName="fill" to="#808080" begin="arrowUp.mouseover" end="arrowUp.mouseout"/>
                  </use>
                  <path fill="none" stroke="white" stroke-width="1.5" d="M0,-3.0v7 M-2.5,-0.5L0,-3.0L2.5,-0.5"/>
                </g>
                <g id="arrowRight" xlink:href="#dirArrow" transform="rotate(90) translate(36 -43)" onmousedown="handlePan(1,0)">
                  <use xlink:href="#rim" fill="#404040">
                        <set attributeName="fill" to="#808080" begin="arrowRight.mouseover" end="arrowRight.mouseout"/>
                  </use>
                  <path fill="none" stroke="white" stroke-width="1.5" d="M0,-3.0v7 M-2.5,-0.5L0,-3.0L2.5,-0.5"/>
                </g>
                <g id="arrowDown" xlink:href="#dirArrow" transform="rotate(180) translate(-30 -48)" onmousedown="handlePan(0,1)">
                  <use xlink:href="#rim" fill="#404040">
                        <set attributeName="fill" to="#808080" begin="arrowDown.mouseover" end="arrowDown.mouseout"/>
                  </use>
                  <path fill="none" stroke="white" stroke-width="1.5" d="M0,-3.0v7 M-2.5,-0.5L0,-3.0L2.5,-0.5"/>
                </g>
                <g id="arrowLeft" xlink:href="#dirArrow" transform="rotate(270) translate(-36 17)" onmousedown="handlePan(-1,0)">
                  <use xlink:href="#rim" fill="#404040">
                        <set attributeName="fill" to="#808080" begin="arrowLeft.mouseover" end="arrowLeft.mouseout"/>
                  </use>
                  <path fill="none" stroke="white" stroke-width="1.5" d="M0,-3.0v7 M-2.5,-0.5L0,-3.0L2.5,-0.5"/>
                </g>
        </g>
        <svg viewBox="0 0 15 15" width="100%" height="30px" preserveAspectRatio="xMaxYMin meet">
         <g id="arrow_out" transform="scale(0.3 0.3)">
          <a xlink:href="namespacesll__m__spline__fem__utilities_a528fc7241e39fd979bd521f0c2d7b350_icgraph_org.svg" target="_base">
           <rect id="button" ry="5" rx="5" y="6" x="6" height="38" width="38"
                fill="#f2f5e9" fill-opacity="0.5" stroke="#606060" stroke-width="1.0"/>
           <path id="arrow"
             d="M 11.500037,31.436501 C 11.940474,20.09759 22.043105,11.32322 32.158766,21.979434 L 37.068811,17.246167 C 37.068811,17.246167 37.088388,32 37.088388,32 L 22.160133,31.978069 C 22.160133,31.978069 26.997745,27.140456 26.997745,27.140456 C 18.528582,18.264221 13.291696,25.230495 11.500037,31.436501 z"
             style="fill:#404040;"/>
          </a>
         </g>
        </svg>
</svg>
