<?xml version="1.0" encoding="UTF-8" standalone="no"?>
<!DOCTYPE svg PUBLIC "-//W3C//DTD SVG 1.1//EN"
 "http://www.w3.org/Graphics/SVG/1.1/DTD/svg11.dtd">
<!-- Generated by graphviz version 2.40.1 (20161225.0304)
 -->
<!-- Title: faraday_te_2d_pstd Pages: 1 -->
<svg width="274pt" height="88pt"
 viewBox="0.00 0.00 274.00 88.00" xmlns="http://www.w3.org/2000/svg" xmlns:xlink="http://www.w3.org/1999/xlink">
<g id="graph0" class="graph" transform="scale(1 1) rotate(0) translate(4 84)">
<title>faraday_te_2d_pstd</title>
<polygon fill="#ffffff" stroke="transparent" points="-4,4 -4,-84 270,-84 270,4 -4,4"/>
<!-- Node9 -->
<g id="node1" class="node">
<title>Node9</title>
<polygon fill="#bfbfbf" stroke="#000000" points="0,-30 0,-49 113,-49 113,-30 0,-30"/>
<text text-anchor="middle" x="56.5" y="-37" font-family="Helvetica,sans-Serif" font-size="10.00" fill="#000000">faraday_te_2d_pstd</text>
</g>
<!-- Node10 -->
<g id="node2" class="node">
<title>Node10</title>
<g id="a_node2"><a xlink:href="namespacesll__m__maxwell__2d__pstd.html#ab9935225e97846f8c8fa2f1a97a8510b" target="_top" xlink:title="self routine exists only for testing purpose. Use ampere and faraday in your appication. ">
<polygon fill="#ffffff" stroke="#000000" points="149,-49.5 149,-79.5 266,-79.5 266,-49.5 149,-49.5"/>
<text text-anchor="start" x="157" y="-67.5" font-family="Helvetica,sans-Serif" font-size="10.00" fill="#000000">sll_s_solve_maxwell</text>
<text text-anchor="middle" x="207.5" y="-56.5" font-family="Helvetica,sans-Serif" font-size="10.00" fill="#000000">_2d_pstd</text>
</a>
</g>
</g>
<!-- Node9&#45;&gt;Node10 -->
<g id="edge1" class="edge">
<title>Node9&#45;&gt;Node10</title>
<path fill="none" stroke="#191970" d="M123.0957,-50.5258C131.6457,-51.9413 140.3502,-53.3825 148.7623,-54.7752"/>
<polygon fill="#191970" stroke="#191970" points="123.5939,-47.0607 113.1564,-48.8802 122.4504,-53.9667 123.5939,-47.0607"/>
</g>
<!-- Node11 -->
<g id="node3" class="node">
<title>Node11</title>
<g id="a_node3"><a xlink:href="namespacesll__m__maxwell__2d__pstd.html#a1805b4de085d66fa0a7569c8092f4a59" target="_top" xlink:title="Solve Faraday equation. ">
<polygon fill="#ffffff" stroke="#000000" points="151,-.5 151,-30.5 264,-30.5 264,-.5 151,-.5"/>
<text text-anchor="start" x="159" y="-18.5" font-family="Helvetica,sans-Serif" font-size="10.00" fill="#000000">sll_s_solve_faraday</text>
<text text-anchor="middle" x="207.5" y="-7.5" font-family="Helvetica,sans-Serif" font-size="10.00" fill="#000000">_2d_pstd</text>
</a>
</g>
</g>
<!-- Node9&#45;&gt;Node11 -->
<g id="edge2" class="edge">
<title>Node9&#45;&gt;Node11</title>
<path fill="none" stroke="#191970" d="M123.0836,-28.9172C132.3221,-27.4488 141.7413,-25.9517 150.7772,-24.5155"/>
<polygon fill="#191970" stroke="#191970" points="122.483,-25.4686 113.1564,-30.495 123.5819,-32.3818 122.483,-25.4686"/>
</g>
</g>
</svg>
