<?xml version="1.0" encoding="UTF-8" standalone="no"?>
<!DOCTYPE svg PUBLIC "-//W3C//DTD SVG 1.1//EN"
 "http://www.w3.org/Graphics/SVG/1.1/DTD/svg11.dtd">
<!-- Generated by graphviz version 2.43.0 (0)
 -->
<!-- Title: operator_all Pages: 1 -->
<svg width="262pt" height="127pt"
 viewBox="0.00 0.00 262.00 127.00" xmlns="http://www.w3.org/2000/svg" xmlns:xlink="http://www.w3.org/1999/xlink">
<g id="graph0" class="graph" transform="scale(1 1) rotate(0) translate(4 123)">
<title>operator_all</title>
<polygon fill="white" stroke="transparent" points="-4,4 -4,-123 258,-123 258,4 -4,4"/>
<!-- Node1 -->
<g id="node1" class="node">
<title>Node1</title>
<g id="a_node1"><a xlink:title=" ">
<polygon fill="#bfbfbf" stroke="black" points="179,-50 179,-69 254,-69 254,-50 179,-50"/>
<text text-anchor="middle" x="216.5" y="-57" font-family="Helvetica,sans-Serif" font-size="10.00">operator_all</text>
</a>
</g>
</g>
<!-- Node2 -->
<g id="node2" class="node">
<title>Node2</title>
<g id="a_node2"><a xlink:href="namespacesll__m__time__propagator__pic__vm__1d2v__zigsub.html#a1d5fbced7b7975637847ca0b79466806" target="_top" xlink:title="Lie splitting (oposite ordering)">
<polygon fill="white" stroke="black" points="20.5,-88.5 20.5,-118.5 122.5,-118.5 122.5,-88.5 20.5,-88.5"/>
<text text-anchor="start" x="28.5" y="-106.5" font-family="Helvetica,sans-Serif" font-size="10.00">lie_splitting_back</text>
<text text-anchor="middle" x="71.5" y="-95.5" font-family="Helvetica,sans-Serif" font-size="10.00">_pic_vm_1d2v</text>
</a>
</g>
</g>
<!-- Node1&#45;&gt;Node2 -->
<g id="edge1" class="edge">
<title>Node1&#45;&gt;Node2</title>
<path fill="none" stroke="midnightblue" d="M174.55,-72.1C158,-77.19 138.75,-83.12 121.46,-88.43"/>
<polygon fill="midnightblue" stroke="midnightblue" points="175.94,-75.33 184.47,-69.05 173.88,-68.64 175.94,-75.33"/>
</g>
<!-- Node3 -->
<g id="node3" class="node">
<title>Node3</title>
<g id="a_node3"><a xlink:href="namespacesll__m__time__propagator__pic__vm__1d2v__zigsub.html#a720febe48d3b089e544e3585824d8a94" target="_top" xlink:title="Lie splitting.">
<polygon fill="white" stroke="black" points="0,-50 0,-69 143,-69 143,-50 0,-50"/>
<text text-anchor="middle" x="71.5" y="-57" font-family="Helvetica,sans-Serif" font-size="10.00">lie_splitting_pic_vm_1d2v</text>
</a>
</g>
</g>
<!-- Node1&#45;&gt;Node3 -->
<g id="edge2" class="edge">
<title>Node1&#45;&gt;Node3</title>
<path fill="none" stroke="midnightblue" d="M168.61,-59.5C160.42,-59.5 151.75,-59.5 143.09,-59.5"/>
<polygon fill="midnightblue" stroke="midnightblue" points="168.67,-63 178.67,-59.5 168.67,-56 168.67,-63"/>
</g>
<!-- Node4 -->
<g id="node4" class="node">
<title>Node4</title>
<g id="a_node4"><a xlink:href="namespacesll__m__time__propagator__pic__vm__1d2v__zigsub.html#a772c9c88f9bd9d3b9eba9d4c02b23028" target="_top" xlink:title="Strang splitting.">
<polygon fill="white" stroke="black" points="15.5,-0.5 15.5,-30.5 127.5,-30.5 127.5,-0.5 15.5,-0.5"/>
<text text-anchor="start" x="23.5" y="-18.5" font-family="Helvetica,sans-Serif" font-size="10.00">strang_splitting_pic</text>
<text text-anchor="middle" x="71.5" y="-7.5" font-family="Helvetica,sans-Serif" font-size="10.00">_vm_1d2v</text>
</a>
</g>
</g>
<!-- Node1&#45;&gt;Node4 -->
<g id="edge3" class="edge">
<title>Node1&#45;&gt;Node4</title>
<path fill="none" stroke="midnightblue" d="M174.55,-46.9C158,-41.81 138.75,-35.88 121.46,-30.57"/>
<polygon fill="midnightblue" stroke="midnightblue" points="173.88,-50.36 184.47,-49.95 175.94,-43.67 173.88,-50.36"/>
</g>
</g>
</svg>
