<?xml version="1.0" encoding="UTF-8" standalone="no"?>
<!DOCTYPE svg PUBLIC "-//W3C//DTD SVG 1.1//EN"
 "http://www.w3.org/Graphics/SVG/1.1/DTD/svg11.dtd">
<!-- Generated by graphviz version 2.43.0 (0)
 -->
<!-- Title: sll_s_cubic_spline_halo_1d_finish_boundary_conditions Pages: 1 -->
<svg width="366pt" height="558pt"
 viewBox="0.00 0.00 366.00 558.00" xmlns="http://www.w3.org/2000/svg" xmlns:xlink="http://www.w3.org/1999/xlink">
<g id="graph0" class="graph" transform="scale(1 1) rotate(0) translate(4 554)">
<title>sll_s_cubic_spline_halo_1d_finish_boundary_conditions</title>
<polygon fill="white" stroke="transparent" points="-4,4 -4,-554 362,-554 362,4 -4,4"/>
<!-- Node1 -->
<g id="node1" class="node">
<title>Node1</title>
<g id="a_node1"><a xlink:title="Complete d(0) and c(num_points+2) with local data after their values have been received from the neig...">
<polygon fill="#bfbfbf" stroke="black" points="215,-254 215,-295 358,-295 358,-254 215,-254"/>
<text text-anchor="start" x="223" y="-283" font-family="Helvetica,sans-Serif" font-size="10.00">sll_s_cubic_spline</text>
<text text-anchor="start" x="223" y="-272" font-family="Helvetica,sans-Serif" font-size="10.00">_halo_1d_finish_boundary</text>
<text text-anchor="middle" x="286.5" y="-261" font-family="Helvetica,sans-Serif" font-size="10.00">_conditions</text>
</a>
</g>
</g>
<!-- Node2 -->
<g id="node2" class="node">
<title>Node2</title>
<g id="a_node2"><a xlink:href="namespacesll__m__advection__6d__spline__dd__slim.html#aaeb24947b93f20e498309985a5cc30bc" target="_top" xlink:title="Advection along eta1 with displacement dependent on eta4 and eta5.">
<polygon fill="white" stroke="black" points="0,-497.5 0,-549.5 179,-549.5 179,-497.5 0,-497.5"/>
<text text-anchor="start" x="8" y="-537.5" font-family="Helvetica,sans-Serif" font-size="10.00">sll_m_advection_6d</text>
<text text-anchor="start" x="8" y="-526.5" font-family="Helvetica,sans-Serif" font-size="10.00">_spline_dd_slim::sll</text>
<text text-anchor="start" x="8" y="-515.5" font-family="Helvetica,sans-Serif" font-size="10.00">_s_advection_6d_spline</text>
<text text-anchor="middle" x="89.5" y="-504.5" font-family="Helvetica,sans-Serif" font-size="10.00">_dd_slim_advect_eta1_dispeta45</text>
</a>
</g>
</g>
<!-- Node1&#45;&gt;Node2 -->
<g id="edge1" class="edge">
<title>Node1&#45;&gt;Node2</title>
<path fill="none" stroke="midnightblue" d="M277.86,-305.12C264.94,-350.96 234.58,-437.46 179,-488.5 175.47,-491.74 171.61,-494.7 167.53,-497.39"/>
<polygon fill="midnightblue" stroke="midnightblue" points="281.31,-305.76 280.56,-295.19 274.56,-303.92 281.31,-305.76"/>
</g>
<!-- Node3 -->
<g id="node3" class="node">
<title>Node3</title>
<g id="a_node3"><a xlink:href="namespacesll__m__advection__6d__spline__dd__slim.html#a9b1e9c81bb2fd0411da46c3f27636b5d" target="_top" xlink:title="Advection along eta2 with displacement dependent on eta4 and eta5.">
<polygon fill="white" stroke="black" points="0,-426.5 0,-478.5 179,-478.5 179,-426.5 0,-426.5"/>
<text text-anchor="start" x="8" y="-466.5" font-family="Helvetica,sans-Serif" font-size="10.00">sll_m_advection_6d</text>
<text text-anchor="start" x="8" y="-455.5" font-family="Helvetica,sans-Serif" font-size="10.00">_spline_dd_slim::sll</text>
<text text-anchor="start" x="8" y="-444.5" font-family="Helvetica,sans-Serif" font-size="10.00">_s_advection_6d_spline</text>
<text text-anchor="middle" x="89.5" y="-433.5" font-family="Helvetica,sans-Serif" font-size="10.00">_dd_slim_advect_eta2_dispeta45</text>
</a>
</g>
</g>
<!-- Node1&#45;&gt;Node3 -->
<g id="edge2" class="edge">
<title>Node1&#45;&gt;Node3</title>
<path fill="none" stroke="midnightblue" d="M270.13,-303.98C252.15,-335.9 219.6,-386.41 179,-417.5 174.8,-420.72 170.27,-423.67 165.56,-426.39"/>
<polygon fill="midnightblue" stroke="midnightblue" points="273.26,-305.55 275.02,-295.1 267.13,-302.17 273.26,-305.55"/>
</g>
<!-- Node4 -->
<g id="node4" class="node">
<title>Node4</title>
<g id="a_node4"><a xlink:href="namespacesll__m__advection__6d__spline__dd__slim.html#ad47a4896a9136b1b84f2690615ee72f4" target="_top" xlink:title="Advection along eta1 with displacement dependent on eta4.">
<polygon fill="white" stroke="black" points="23.5,-355.5 23.5,-407.5 155.5,-407.5 155.5,-355.5 23.5,-355.5"/>
<text text-anchor="start" x="31.5" y="-395.5" font-family="Helvetica,sans-Serif" font-size="10.00">sll_m_advection_6d</text>
<text text-anchor="start" x="31.5" y="-384.5" font-family="Helvetica,sans-Serif" font-size="10.00">_spline_dd_slim::sll</text>
<text text-anchor="start" x="31.5" y="-373.5" font-family="Helvetica,sans-Serif" font-size="10.00">_s_advection_6d_spline</text>
<text text-anchor="middle" x="89.5" y="-362.5" font-family="Helvetica,sans-Serif" font-size="10.00">_dd_slim_advect_eta4</text>
</a>
</g>
</g>
<!-- Node1&#45;&gt;Node4 -->
<g id="edge3" class="edge">
<title>Node1&#45;&gt;Node4</title>
<path fill="none" stroke="midnightblue" d="M250.24,-301.19C230.06,-315.73 203.87,-333.38 179,-346.5 171.55,-350.43 163.55,-354.19 155.53,-357.68"/>
<polygon fill="midnightblue" stroke="midnightblue" points="252.48,-303.89 258.5,-295.17 248.36,-298.23 252.48,-303.89"/>
</g>
<!-- Node5 -->
<g id="node5" class="node">
<title>Node5</title>
<g id="a_node5"><a xlink:href="namespacesll__m__advection__6d__spline__dd__slim.html#a199b83edbf651fcff0cdbb2dcc96788e" target="_top" xlink:title="Advection along eta4 with displacement dependent on eta1&#45;eta3.">
<polygon fill="white" stroke="black" points="23.5,-284.5 23.5,-336.5 155.5,-336.5 155.5,-284.5 23.5,-284.5"/>
<text text-anchor="start" x="31.5" y="-324.5" font-family="Helvetica,sans-Serif" font-size="10.00">sll_m_advection_6d</text>
<text text-anchor="start" x="31.5" y="-313.5" font-family="Helvetica,sans-Serif" font-size="10.00">_spline_dd_slim::sll</text>
<text text-anchor="start" x="31.5" y="-302.5" font-family="Helvetica,sans-Serif" font-size="10.00">_s_advection_6d_spline</text>
<text text-anchor="middle" x="89.5" y="-291.5" font-family="Helvetica,sans-Serif" font-size="10.00">_dd_slim_advect_eta5</text>
</a>
</g>
</g>
<!-- Node1&#45;&gt;Node5 -->
<g id="edge4" class="edge">
<title>Node1&#45;&gt;Node5</title>
<path fill="none" stroke="midnightblue" d="M204.76,-289.41C188.43,-292.42 171.46,-295.55 155.75,-298.45"/>
<polygon fill="midnightblue" stroke="midnightblue" points="205.63,-292.81 214.82,-287.55 204.36,-285.92 205.63,-292.81"/>
</g>
<!-- Node6 -->
<g id="node6" class="node">
<title>Node6</title>
<g id="a_node6"><a xlink:href="namespacesll__m__advection__6d__spline__dd__slim.html#a603663b6026a63e8f3470fe3dd4531d0" target="_top" xlink:title="Advection along eta5 with displacement dependent on eta1&#45;eta3.">
<polygon fill="white" stroke="black" points="23.5,-213.5 23.5,-265.5 155.5,-265.5 155.5,-213.5 23.5,-213.5"/>
<text text-anchor="start" x="31.5" y="-253.5" font-family="Helvetica,sans-Serif" font-size="10.00">sll_m_advection_6d</text>
<text text-anchor="start" x="31.5" y="-242.5" font-family="Helvetica,sans-Serif" font-size="10.00">_spline_dd_slim::sll</text>
<text text-anchor="start" x="31.5" y="-231.5" font-family="Helvetica,sans-Serif" font-size="10.00">_s_advection_6d_spline</text>
<text text-anchor="middle" x="89.5" y="-220.5" font-family="Helvetica,sans-Serif" font-size="10.00">_dd_slim_advect_eta6</text>
</a>
</g>
</g>
<!-- Node1&#45;&gt;Node6 -->
<g id="edge5" class="edge">
<title>Node1&#45;&gt;Node6</title>
<path fill="none" stroke="midnightblue" d="M204.76,-260.01C188.43,-257.08 171.46,-254.03 155.75,-251.21"/>
<polygon fill="midnightblue" stroke="midnightblue" points="204.36,-263.49 214.82,-261.81 205.6,-256.6 204.36,-263.49"/>
</g>
<!-- Node7 -->
<g id="node7" class="node">
<title>Node7</title>
<g id="a_node7"><a xlink:href="namespacesll__m__advection__6d__spline__dd__slim.html#afccaa23c4f010b5ba110b5cc7508dea9" target="_top" xlink:title="Advection along eta1 with displacement dependent on eta4.">
<polygon fill="white" stroke="black" points="23.5,-142.5 23.5,-194.5 155.5,-194.5 155.5,-142.5 23.5,-142.5"/>
<text text-anchor="start" x="31.5" y="-182.5" font-family="Helvetica,sans-Serif" font-size="10.00">sll_m_advection_6d</text>
<text text-anchor="start" x="31.5" y="-171.5" font-family="Helvetica,sans-Serif" font-size="10.00">_spline_dd_slim::sll</text>
<text text-anchor="start" x="31.5" y="-160.5" font-family="Helvetica,sans-Serif" font-size="10.00">_s_advection_6d_spline</text>
<text text-anchor="middle" x="89.5" y="-149.5" font-family="Helvetica,sans-Serif" font-size="10.00">_dd_slim_fadvect_eta1</text>
</a>
</g>
</g>
<!-- Node1&#45;&gt;Node7 -->
<g id="edge6" class="edge">
<title>Node1&#45;&gt;Node7</title>
<path fill="none" stroke="midnightblue" d="M249.25,-248.13C229.14,-234.15 203.33,-217.29 179,-204.5 171.66,-200.64 163.81,-196.92 155.93,-193.42"/>
<polygon fill="midnightblue" stroke="midnightblue" points="247.3,-251.04 257.5,-253.92 251.32,-245.31 247.3,-251.04"/>
</g>
<!-- Node8 -->
<g id="node8" class="node">
<title>Node8</title>
<g id="a_node8"><a xlink:href="namespacesll__m__advection__6d__spline__dd__slim.html#acddf111f0e25c75533fafad5aa1bdaa6" target="_top" xlink:title="Advection along eta1 with displacement dependent on eta4.">
<polygon fill="white" stroke="black" points="23.5,-71.5 23.5,-123.5 155.5,-123.5 155.5,-71.5 23.5,-71.5"/>
<text text-anchor="start" x="31.5" y="-111.5" font-family="Helvetica,sans-Serif" font-size="10.00">sll_m_advection_6d</text>
<text text-anchor="start" x="31.5" y="-100.5" font-family="Helvetica,sans-Serif" font-size="10.00">_spline_dd_slim::sll</text>
<text text-anchor="start" x="31.5" y="-89.5" font-family="Helvetica,sans-Serif" font-size="10.00">_s_advection_6d_spline</text>
<text text-anchor="middle" x="89.5" y="-78.5" font-family="Helvetica,sans-Serif" font-size="10.00">_dd_slim_fadvect_eta2</text>
</a>
</g>
</g>
<!-- Node1&#45;&gt;Node8 -->
<g id="edge7" class="edge">
<title>Node1&#45;&gt;Node8</title>
<path fill="none" stroke="midnightblue" d="M269.82,-245.26C251.67,-213.84 219.07,-164.29 179,-133.5 171.9,-128.04 163.85,-123.29 155.58,-119.18"/>
<polygon fill="midnightblue" stroke="midnightblue" points="266.8,-247.02 274.77,-254 272.89,-243.57 266.8,-247.02"/>
</g>
<!-- Node9 -->
<g id="node9" class="node">
<title>Node9</title>
<g id="a_node9"><a xlink:href="namespacesll__m__advection__6d__spline__dd__slim.html#a5ae4362009a951b243d607423cbd250b" target="_top" xlink:title="Advection along eta1 with displacement dependent on eta4.">
<polygon fill="white" stroke="black" points="23.5,-0.5 23.5,-52.5 155.5,-52.5 155.5,-0.5 23.5,-0.5"/>
<text text-anchor="start" x="31.5" y="-40.5" font-family="Helvetica,sans-Serif" font-size="10.00">sll_m_advection_6d</text>
<text text-anchor="start" x="31.5" y="-29.5" font-family="Helvetica,sans-Serif" font-size="10.00">_spline_dd_slim::sll</text>
<text text-anchor="start" x="31.5" y="-18.5" font-family="Helvetica,sans-Serif" font-size="10.00">_s_advection_6d_spline</text>
<text text-anchor="middle" x="89.5" y="-7.5" font-family="Helvetica,sans-Serif" font-size="10.00">_dd_slim_fadvect_eta3</text>
</a>
</g>
</g>
<!-- Node1&#45;&gt;Node9 -->
<g id="edge8" class="edge">
<title>Node1&#45;&gt;Node9</title>
<path fill="none" stroke="midnightblue" d="M277.62,-243.88C264.45,-198.47 233.87,-113.19 179,-62.5 172.18,-56.2 164.1,-50.93 155.65,-46.54"/>
<polygon fill="midnightblue" stroke="midnightblue" points="274.31,-245.05 280.38,-253.73 281.05,-243.16 274.31,-245.05"/>
</g>
</g>
</svg>
