<?xml version="1.0" encoding="UTF-8" standalone="no"?>
<!DOCTYPE svg PUBLIC "-//W3C//DTD SVG 1.1//EN"
 "http://www.w3.org/Graphics/SVG/1.1/DTD/svg11.dtd">
<!-- Generated by graphviz version 2.38.0 (20140413.2041)
 -->
<!-- Title: morse Pages: 1 -->
<svg width="370pt" height="78pt"
 viewBox="0.00 0.00 370.00 77.50" xmlns="http://www.w3.org/2000/svg" xmlns:xlink="http://www.w3.org/1999/xlink">
<g id="graph0" class="graph" transform="scale(1 1) rotate(0) translate(4 73.5)">
<title>morse</title>
<polygon fill="white" stroke="none" points="-4,4 -4,-73.5 366,-73.5 366,4 -4,4"/>
<!-- Node1 -->
<g id="node1" class="node"><title>Node1</title>
<polygon fill="#bfbfbf" stroke="black" points="0,-28 0,-47 44,-47 44,-28 0,-28"/>
<text text-anchor="middle" x="22" y="-35" font-family="Helvetica,sans-Serif" font-size="10.00">morse</text>
</g>
<!-- Node2 -->
<g id="node2" class="node"><title>Node2</title>
<g id="a_node2"><a xlink:href="namespacesll__m__poisson__2d__tri.html#a528485ff3e256621e633c498bd0d4f11" target="_top" xlink:title="initialize_poisson\l_solver">
<polygon fill="white" stroke="black" points="80,-22.5 80,-52.5 171,-52.5 171,-22.5 80,-22.5"/>
<text text-anchor="start" x="88" y="-40.5" font-family="Helvetica,sans-Serif" font-size="10.00">initialize_poisson</text>
<text text-anchor="middle" x="125.5" y="-29.5" font-family="Helvetica,sans-Serif" font-size="10.00">_solver</text>
</a>
</g>
</g>
<!-- Node1&#45;&gt;Node2 -->
<g id="edge1" class="edge"><title>Node1&#45;&gt;Node2</title>
<path fill="none" stroke="midnightblue" d="M54.1004,-37.5C62.1683,-37.5 71.0197,-37.5 79.6413,-37.5"/>
<polygon fill="midnightblue" stroke="midnightblue" points="54.0309,-34.0001 44.0309,-37.5 54.0308,-41.0001 54.0309,-34.0001"/>
</g>
<!-- Node3 -->
<g id="node3" class="node"><title>Node3</title>
<g id="a_node3"><a xlink:href="namespacesll__m__poisson__2d__tri.html#aa53d2590e2d41cb21a8d905da8cab8d3" target="_top" xlink:title="sll_s_poisson_2d_triangular_init">
<polygon fill="white" stroke="black" points="207,-50 207,-69 362,-69 362,-50 207,-50"/>
<text text-anchor="middle" x="284.5" y="-57" font-family="Helvetica,sans-Serif" font-size="10.00">sll_s_poisson_2d_triangular_init</text>
</a>
</g>
</g>
<!-- Node2&#45;&gt;Node3 -->
<g id="edge2" class="edge"><title>Node2&#45;&gt;Node3</title>
<path fill="none" stroke="midnightblue" d="M181.082,-45.1484C192.233,-46.711 204.097,-48.3734 215.647,-49.9919"/>
<polygon fill="midnightblue" stroke="midnightblue" points="181.459,-41.6671 171.07,-43.7455 180.487,-48.5994 181.459,-41.6671"/>
</g>
<!-- Node4 -->
<g id="node4" class="node"><title>Node4</title>
<g id="a_node4"><a xlink:href="namespacesll__m__poisson__2d__tri.html#a7177a22a26838aee55ca4c7a9c36ebc7" target="_top" xlink:title="initialize_poisson\l_solver_from_file">
<polygon fill="white" stroke="black" points="239,-0.5 239,-30.5 330,-30.5 330,-0.5 239,-0.5"/>
<text text-anchor="start" x="247" y="-18.5" font-family="Helvetica,sans-Serif" font-size="10.00">initialize_poisson</text>
<text text-anchor="middle" x="284.5" y="-7.5" font-family="Helvetica,sans-Serif" font-size="10.00">_solver_from_file</text>
</a>
</g>
</g>
<!-- Node2&#45;&gt;Node4 -->
<g id="edge3" class="edge"><title>Node2&#45;&gt;Node4</title>
<path fill="none" stroke="midnightblue" d="M181.021,-29.8601C199.9,-27.2147 220.825,-24.2825 238.819,-21.7611"/>
<polygon fill="midnightblue" stroke="midnightblue" points="180.487,-26.4006 171.07,-31.2545 181.459,-33.3329 180.487,-26.4006"/>
</g>
</g>
</svg>
