<?xml version="1.0" encoding="UTF-8" standalone="no"?>
<!DOCTYPE svg PUBLIC "-//W3C//DTD SVG 1.1//EN"
 "http://www.w3.org/Graphics/SVG/1.1/DTD/svg11.dtd">
<!-- Generated by graphviz version 2.40.1 (20161225.0304)
 -->
<!-- Title: displace_on_stripe_periodic_for_neighbor Pages: 1 -->
<svg width="279pt" height="39pt"
 viewBox="0.00 0.00 279.00 39.00" xmlns="http://www.w3.org/2000/svg" xmlns:xlink="http://www.w3.org/1999/xlink">
<g id="graph0" class="graph" transform="scale(1 1) rotate(0) translate(4 35)">
<title>displace_on_stripe_periodic_for_neighbor</title>
<polygon fill="#ffffff" stroke="transparent" points="-4,4 -4,-35 275,-35 275,4 -4,4"/>
<!-- Node98 -->
<g id="node1" class="node">
<title>Node98</title>
<polygon fill="#bfbfbf" stroke="#000000" points="0,-.5 0,-30.5 128,-30.5 128,-.5 0,-.5"/>
<text text-anchor="start" x="8" y="-18.5" font-family="Helvetica,sans-Serif" font-size="10.00" fill="#000000">displace_on_stripe</text>
<text text-anchor="middle" x="64" y="-7.5" font-family="Helvetica,sans-Serif" font-size="10.00" fill="#000000">_periodic_for_neighbor</text>
</g>
<!-- Node99 -->
<g id="node2" class="node">
<title>Node99</title>
<g id="a_node2"><a xlink:href="namespacesll__m__sparse__grid__interpolator.html#a2a6e7c82c896d91b90a3cc7376c43ee8" target="_top" xlink:title="displace_on_stripe\l_periodic">
<polygon fill="#ffffff" stroke="#000000" points="164,-.5 164,-30.5 271,-30.5 271,-.5 164,-.5"/>
<text text-anchor="start" x="172" y="-18.5" font-family="Helvetica,sans-Serif" font-size="10.00" fill="#000000">displace_on_stripe</text>
<text text-anchor="middle" x="217.5" y="-7.5" font-family="Helvetica,sans-Serif" font-size="10.00" fill="#000000">_periodic</text>
</a>
</g>
</g>
<!-- Node98&#45;&gt;Node99 -->
<g id="edge1" class="edge">
<title>Node98&#45;&gt;Node99</title>
<path fill="none" stroke="#191970" d="M128.2084,-15.5C136.619,-15.5 145.236,-15.5 153.6408,-15.5"/>
<polygon fill="#191970" stroke="#191970" points="153.7593,-19.0001 163.7592,-15.5 153.7592,-12.0001 153.7593,-19.0001"/>
</g>
</g>
</svg>
