<?xml version="1.0" encoding="UTF-8" standalone="no"?>
<!DOCTYPE svg PUBLIC "-//W3C//DTD SVG 1.1//EN"
 "http://www.w3.org/Graphics/SVG/1.1/DTD/svg11.dtd">
<!-- Generated by graphviz version 2.40.1 (20161225.0304)
 -->
<!-- Title: initialize_gyroaverage_2d_polar_splines_solver Pages: 1 -->
<svg width="322pt" height="39pt"
 viewBox="0.00 0.00 322.00 39.00" xmlns="http://www.w3.org/2000/svg" xmlns:xlink="http://www.w3.org/1999/xlink">
<g id="graph0" class="graph" transform="scale(1 1) rotate(0) translate(4 35)">
<title>initialize_gyroaverage_2d_polar_splines_solver</title>
<polygon fill="#ffffff" stroke="transparent" points="-4,4 -4,-35 318,-35 318,4 -4,4"/>
<!-- Node27 -->
<g id="node1" class="node">
<title>Node27</title>
<polygon fill="#bfbfbf" stroke="#000000" points="0,-.5 0,-30.5 139,-30.5 139,-.5 0,-.5"/>
<text text-anchor="start" x="8" y="-18.5" font-family="Helvetica,sans-Serif" font-size="10.00" fill="#000000">initialize_gyroaverage</text>
<text text-anchor="middle" x="69.5" y="-7.5" font-family="Helvetica,sans-Serif" font-size="10.00" fill="#000000">_2d_polar_splines_solver</text>
</g>
<!-- Node28 -->
<g id="node2" class="node">
<title>Node28</title>
<g id="a_node2"><a xlink:href="namespacesll__m__gyroaverage__2d__polar__splines__solver.html#aa396caacc6038680379fc980d91c9ebd" target="_top" xlink:title="sll_f_new_gyroaverage\l_2d_polar_splines_solver">
<polygon fill="#ffffff" stroke="#000000" points="175,-.5 175,-30.5 314,-30.5 314,-.5 175,-.5"/>
<text text-anchor="start" x="183" y="-18.5" font-family="Helvetica,sans-Serif" font-size="10.00" fill="#000000">sll_f_new_gyroaverage</text>
<text text-anchor="middle" x="244.5" y="-7.5" font-family="Helvetica,sans-Serif" font-size="10.00" fill="#000000">_2d_polar_splines_solver</text>
</a>
</g>
</g>
<!-- Node27&#45;&gt;Node28 -->
<g id="edge1" class="edge">
<title>Node27&#45;&gt;Node28</title>
<path fill="none" stroke="#191970" d="M149.4246,-15.5C157.8899,-15.5 166.4506,-15.5 174.7863,-15.5"/>
<polygon fill="#191970" stroke="#191970" points="149.1675,-12.0001 139.1675,-15.5 149.1674,-19.0001 149.1675,-12.0001"/>
</g>
</g>
</svg>
