<?xml version="1.0" encoding="UTF-8" standalone="no"?>
<!DOCTYPE svg PUBLIC "-//W3C//DTD SVG 1.1//EN"
 "http://www.w3.org/Graphics/SVG/1.1/DTD/svg11.dtd">
<!-- Generated by graphviz version 2.38.0 (20140413.2041)
 -->
<!-- Title: initialize_poisson_2d_periodic Pages: 1 -->
<svg width="248pt" height="39pt"
 viewBox="0.00 0.00 248.00 39.00" xmlns="http://www.w3.org/2000/svg" xmlns:xlink="http://www.w3.org/1999/xlink">
<g id="graph0" class="graph" transform="scale(1 1) rotate(0) translate(4 35)">
<title>initialize_poisson_2d_periodic</title>
<polygon fill="white" stroke="none" points="-4,4 -4,-35 244,-35 244,4 -4,4"/>
<!-- Node1 -->
<g id="node1" class="node"><title>Node1</title>
<polygon fill="#bfbfbf" stroke="black" points="0,-0.5 0,-30.5 91,-30.5 91,-0.5 0,-0.5"/>
<text text-anchor="start" x="8" y="-18.5" font-family="Helvetica,sans-Serif" font-size="10.00">initialize_poisson</text>
<text text-anchor="middle" x="45.5" y="-7.5" font-family="Helvetica,sans-Serif" font-size="10.00">_2d_periodic</text>
</g>
<!-- Node2 -->
<g id="node2" class="node"><title>Node2</title>
<g id="a_node2"><a xlink:href="namespacesll__m__poisson__2d__periodic.html#a09e3b475bc4df67a09ca4a896b852d63" target="_top" xlink:title="sll_f_new_poisson_2d\l_periodic">
<polygon fill="white" stroke="black" points="127,-0.5 127,-30.5 240,-30.5 240,-0.5 127,-0.5"/>
<text text-anchor="start" x="135" y="-18.5" font-family="Helvetica,sans-Serif" font-size="10.00">sll_f_new_poisson_2d</text>
<text text-anchor="middle" x="183.5" y="-7.5" font-family="Helvetica,sans-Serif" font-size="10.00">_periodic</text>
</a>
</g>
</g>
<!-- Node1&#45;&gt;Node2 -->
<g id="edge1" class="edge"><title>Node1&#45;&gt;Node2</title>
<path fill="none" stroke="midnightblue" d="M101.191,-15.5C109.667,-15.5 118.431,-15.5 126.926,-15.5"/>
<polygon fill="midnightblue" stroke="midnightblue" points="101.032,-12.0001 91.0315,-15.5 101.031,-19.0001 101.032,-12.0001"/>
</g>
</g>
</svg>
