<?xml version="1.0" encoding="UTF-8" standalone="no"?>
<!DOCTYPE svg PUBLIC "-//W3C//DTD SVG 1.1//EN"
 "http://www.w3.org/Graphics/SVG/1.1/DTD/svg11.dtd">
<!-- Generated by graphviz version 2.40.1 (20161225.0304)
 -->
<!-- Title: sll_s_csr_matrix_mp_init Pages: 1 -->
<svg width="559pt" height="110pt"
 viewBox="0.00 0.00 559.00 110.00" xmlns="http://www.w3.org/2000/svg" xmlns:xlink="http://www.w3.org/1999/xlink">
<g id="graph0" class="graph" transform="scale(1 1) rotate(0) translate(4 106)">
<title>sll_s_csr_matrix_mp_init</title>
<polygon fill="#ffffff" stroke="transparent" points="-4,4 -4,-106 555,-106 555,4 -4,4"/>
<!-- Node28 -->
<g id="node1" class="node">
<title>Node28</title>
<polygon fill="#bfbfbf" stroke="#000000" points="0,-41.5 0,-60.5 137,-60.5 137,-41.5 0,-41.5"/>
<text text-anchor="middle" x="68.5" y="-48.5" font-family="Helvetica,sans-Serif" font-size="10.00" fill="#000000">sll_s_csr_matrix_mp_init</text>
</g>
<!-- Node29 -->
<g id="node2" class="node">
<title>Node29</title>
<g id="a_node2"><a xlink:href="namespacesll__m__sparse__matrix__mp.html#ab8ac37685dad402f808e43fd26578034" target="_top" xlink:title="allocates the memory space for a new CSR type on the heap, initializes it with the given arguments an...">
<polygon fill="#ffffff" stroke="#000000" points="173,-41.5 173,-60.5 313,-60.5 313,-41.5 173,-41.5"/>
<text text-anchor="middle" x="243" y="-48.5" font-family="Helvetica,sans-Serif" font-size="10.00" fill="#000000">sll_f_new_csr_matrix_mp</text>
</a>
</g>
</g>
<!-- Node28&#45;&gt;Node29 -->
<g id="edge1" class="edge">
<title>Node28&#45;&gt;Node29</title>
<path fill="none" stroke="#191970" d="M147.4852,-51C155.9643,-51 164.5484,-51 172.9134,-51"/>
<polygon fill="#191970" stroke="#191970" points="147.2166,-47.5001 137.2165,-51 147.2165,-54.5001 147.2166,-47.5001"/>
</g>
<!-- Node30 -->
<g id="node3" class="node">
<title>Node30</title>
<g id="a_node3"><a xlink:href="namespacesll__m__general__coordinate__elliptic__solver__multipatch.html#ae9b2728b7fc567b24d783dc03390c489" target="_top" xlink:title="Initialization for elleptic solver multipatch. ">
<polygon fill="#ffffff" stroke="#000000" points="349,-60.5 349,-101.5 551,-101.5 551,-60.5 349,-60.5"/>
<text text-anchor="start" x="357" y="-89.5" font-family="Helvetica,sans-Serif" font-size="10.00" fill="#000000">sll_m_general_coordinate</text>
<text text-anchor="start" x="357" y="-78.5" font-family="Helvetica,sans-Serif" font-size="10.00" fill="#000000">_elliptic_solver_multipatch</text>
<text text-anchor="middle" x="450" y="-67.5" font-family="Helvetica,sans-Serif" font-size="10.00" fill="#000000">::sll_s_general_elliptic_solver_mp_init</text>
</a>
</g>
</g>
<!-- Node29&#45;&gt;Node30 -->
<g id="edge2" class="edge">
<title>Node29&#45;&gt;Node30</title>
<path fill="none" stroke="#191970" d="M318.8305,-61.9899C328.6136,-63.4078 338.7526,-64.8772 348.8616,-66.3423"/>
<polygon fill="#191970" stroke="#191970" points="319.1792,-58.504 308.7805,-60.5334 318.1751,-65.4316 319.1792,-58.504"/>
</g>
<!-- Node31 -->
<g id="node4" class="node">
<title>Node31</title>
<g id="a_node4"><a xlink:href="namespacesll__m__general__coordinate__elliptic__solver__multipatch.html#ad5dcba50d55d23e36b6b7d9fbaae1da9" target="_top" xlink:title="Assemble the matrix for elliptic solver. ">
<polygon fill="#ffffff" stroke="#000000" points="372.5,-.5 372.5,-41.5 527.5,-41.5 527.5,-.5 372.5,-.5"/>
<text text-anchor="start" x="380.5" y="-29.5" font-family="Helvetica,sans-Serif" font-size="10.00" fill="#000000">sll_m_general_coordinate</text>
<text text-anchor="start" x="380.5" y="-18.5" font-family="Helvetica,sans-Serif" font-size="10.00" fill="#000000">_elliptic_solver_multipatch</text>
<text text-anchor="middle" x="450" y="-7.5" font-family="Helvetica,sans-Serif" font-size="10.00" fill="#000000">::sll_s_factorize_mat_es_mp</text>
</a>
</g>
</g>
<!-- Node29&#45;&gt;Node31 -->
<g id="edge3" class="edge">
<title>Node29&#45;&gt;Node31</title>
<path fill="none" stroke="#191970" d="M318.9077,-39.9989C336.3576,-37.4699 354.9363,-34.7774 372.4545,-32.2385"/>
<polygon fill="#191970" stroke="#191970" points="318.1751,-36.5684 308.7805,-41.4666 319.1792,-43.496 318.1751,-36.5684"/>
</g>
</g>
</svg>
