<?xml version="1.0" encoding="UTF-8" standalone="no"?>
<!DOCTYPE svg PUBLIC "-//W3C//DTD SVG 1.1//EN"
 "http://www.w3.org/Graphics/SVG/1.1/DTD/svg11.dtd">
<!-- Generated by graphviz version 2.40.1 (20161225.0304)
 -->
<!-- Title: interpolate_derivative2_ad2d Pages: 1 -->
<svg width="484pt" height="61pt"
 viewBox="0.00 0.00 484.00 61.00" xmlns="http://www.w3.org/2000/svg" xmlns:xlink="http://www.w3.org/1999/xlink">
<g id="graph0" class="graph" transform="scale(1 1) rotate(0) translate(4 57)">
<title>interpolate_derivative2_ad2d</title>
<polygon fill="#ffffff" stroke="transparent" points="-4,4 -4,-57 480,-57 480,4 -4,4"/>
<!-- Node23 -->
<g id="node1" class="node">
<title>Node23</title>
<polygon fill="#bfbfbf" stroke="#000000" points="0,-28 0,-47 160,-47 160,-28 0,-28"/>
<text text-anchor="middle" x="80" y="-35" font-family="Helvetica,sans-Serif" font-size="10.00" fill="#000000">interpolate_derivative2_ad2d</text>
</g>
<!-- Node24 -->
<g id="node2" class="node">
<title>Node24</title>
<g id="a_node2"><a xlink:href="namespacesll__m__deboor__splines__1d.html#a4f9fcaf3a83c7141df5d8a5299346c45" target="_top" xlink:title="Brackets a real value in an ascending vector of values. ">
<polygon fill="#ffffff" stroke="#000000" points="354,-22.5 354,-52.5 476,-52.5 476,-22.5 354,-22.5"/>
<text text-anchor="start" x="362" y="-40.5" font-family="Helvetica,sans-Serif" font-size="10.00" fill="#000000">sll_m_deboor_splines</text>
<text text-anchor="middle" x="415" y="-29.5" font-family="Helvetica,sans-Serif" font-size="10.00" fill="#000000">_1d::sll_s_interv</text>
</a>
</g>
</g>
<!-- Node23&#45;&gt;Node24 -->
<g id="edge1" class="edge">
<title>Node23&#45;&gt;Node24</title>
<path fill="none" stroke="#191970" d="M160.1808,-39.8438C172.1855,-40.1164 184.4172,-40.3502 196,-40.5 250.2177,-41.201 263.7843,-41.3382 318,-40.5 326.3547,-40.3708 335.1128,-40.1791 343.8043,-39.954"/>
<polygon fill="#191970" stroke="#191970" points="344.0484,-43.4487 353.9488,-39.676 343.8566,-36.4513 344.0484,-43.4487"/>
</g>
<!-- Node25 -->
<g id="node3" class="node">
<title>Node25</title>
<g id="a_node3"><a xlink:href="namespacesll__m__deboor__splines__1d.html#a0ba47355c8f42851b8362a5ca411e7c0" target="_top" xlink:title="Evaluates a derivative of a spline from its B&#45;spline representation. ">
<polygon fill="#ffffff" stroke="#000000" points="196,-.5 196,-30.5 318,-30.5 318,-.5 196,-.5"/>
<text text-anchor="start" x="204" y="-18.5" font-family="Helvetica,sans-Serif" font-size="10.00" fill="#000000">sll_m_deboor_splines</text>
<text text-anchor="middle" x="257" y="-7.5" font-family="Helvetica,sans-Serif" font-size="10.00" fill="#000000">_1d::sll_f_bvalue</text>
</a>
</g>
</g>
<!-- Node23&#45;&gt;Node25 -->
<g id="edge2" class="edge">
<title>Node23&#45;&gt;Node25</title>
<path fill="none" stroke="#191970" d="M156.6053,-27.9784C166.2111,-26.7845 176.0073,-25.5669 185.5302,-24.3833"/>
<polygon fill="#191970" stroke="#191970" points="186.2423,-27.8218 195.7342,-23.115 185.3788,-20.8752 186.2423,-27.8218"/>
</g>
<!-- Node25&#45;&gt;Node24 -->
<g id="edge3" class="edge">
<title>Node25&#45;&gt;Node24</title>
<path fill="none" stroke="#191970" d="M318.0869,-24.0058C326.5129,-25.179 335.226,-26.3922 343.8146,-27.5881"/>
<polygon fill="#191970" stroke="#191970" points="343.4279,-31.0679 353.815,-28.9806 344.3933,-24.1348 343.4279,-31.0679"/>
</g>
</g>
</svg>
