<?xml version="1.0" encoding="UTF-8" standalone="no"?>
<!DOCTYPE svg PUBLIC "-//W3C//DTD SVG 1.1//EN"
 "http://www.w3.org/Graphics/SVG/1.1/DTD/svg11.dtd">
<!-- Generated by graphviz version 2.43.0 (0)
 -->
<!-- Title: convert_x_to_xbox Pages: 1 -->
<!--zoomable 809 -->
<svg id="main" version="1.1" xmlns="http://www.w3.org/2000/svg" xmlns:xlink="http://www.w3.org/1999/xlink" xml:space="preserve" onload="init(evt)">
<style type="text/css"><![CDATA[
.edge:hover path { stroke: red; }
.edge:hover polygon { stroke: red; fill: red; }
]]></style>
<script type="text/javascript"><![CDATA[
var edges = document.getElementsByTagName('g');
if (edges && edges.length) {
  for (var i=0;i<edges.length;i++) {
    if (edges[i].id.substr(0,4)=='edge') {
      edges[i].setAttribute('class','edge');
    }
  }
}
]]></script>
        <defs>
                <circle id="rim" cx="0" cy="0" r="7"/>
                <circle id="rim2" cx="0" cy="0" r="3.5"/>
                <g id="zoomPlus">
                        <use xlink:href="#rim" fill="#404040">
                                <set attributeName="fill" to="#808080" begin="zoomplus.mouseover" end="zoomplus.mouseout"/>
                        </use>
                        <path d="M-4,0h8M0,-4v8" fill="none" stroke="white" stroke-width="1.5" pointer-events="none"/>
                </g>
                <g id="zoomMin">
                        <use xlink:href="#rim" fill="#404040">
                                <set attributeName="fill" to="#808080" begin="zoomminus.mouseover" end="zoomminus.mouseout"/>
                        </use>
                        <path d="M-4,0h8" fill="none" stroke="white" stroke-width="1.5" pointer-events="none"/>
                </g>
                <g id="dirArrow">
                        <path fill="none" stroke="white" stroke-width="1.5" d="M0,-3.0v7 M-2.5,-0.5L0,-3.0L2.5,-0.5"/>
                </g>
               <g id="resetDef">
                       <use xlink:href="#rim2" fill="#404040">
                               <set attributeName="fill" to="#808080" begin="reset.mouseover" end="reset.mouseout"/>
                       </use>
               </g>
        </defs>

<script type="text/javascript">
var viewWidth = 296;
var viewHeight = 809;
var sectionId = 'dynsection-18';
</script>
<script xlink:href="svgpan.js"/>
<svg id="graph" class="graph">
<g id="viewport">
<title>convert_x_to_xbox</title>
<polygon fill="white" stroke="transparent" points="-4,4 -4,-805 292,-805 292,4 -4,4"/>
<!-- Node1 -->
<g id="node1" class="node">
<title>Node1</title>
<g id="a_node1"><a xlink:title="Identify the box in which the particle is located and its normalized position within the box.">
<polygon fill="#bfbfbf" stroke="black" points="179,-418 179,-437 288,-437 288,-418 179,-418"/>
<text text-anchor="middle" x="233.5" y="-425" font-family="Helvetica,sans-Serif" font-size="10.00">convert_x_to_xbox</text>
</a>
</g>
</g>
<!-- Node2 -->
<g id="node2" class="node">
<title>Node2</title>
<g id="a_node2"><a xlink:href="namespacesll__m__particle__mesh__coupling__spline__3d__feec.html#a3d59a9681d805422897243480292b311" target="_top" xlink:title="Add charge of one particle.">
<polygon fill="white" stroke="black" points="0.5,-770.5 0.5,-800.5 142.5,-800.5 142.5,-770.5 0.5,-770.5"/>
<text text-anchor="start" x="8.5" y="-788.5" font-family="Helvetica,sans-Serif" font-size="10.00">add_charge_single_spline</text>
<text text-anchor="middle" x="71.5" y="-777.5" font-family="Helvetica,sans-Serif" font-size="10.00">_3d_feec</text>
</a>
</g>
</g>
<!-- Node1&#45;&gt;Node2 -->
<g id="edge1" class="edge">
<title>Node1&#45;&gt;Node2</title>
<path fill="none" stroke="midnightblue" d="M233.22,-447.42C234.16,-504.36 228.96,-669.64 143,-761.5 139.82,-764.9 136.14,-767.82 132.16,-770.32"/>
<polygon fill="midnightblue" stroke="midnightblue" points="236.71,-447.16 232.96,-437.25 229.72,-447.33 236.71,-447.16"/>
</g>
<!-- Node3 -->
<g id="node3" class="node">
<title>Node3</title>
<g id="a_node3"><a xlink:href="namespacesll__m__particle__mesh__coupling__spline__3d__feec.html#a0a55d8ef4a6d5c04308d60a9811b12e2" target="_top" xlink:title="Add charge of one particle.">
<polygon fill="white" stroke="black" points="0.5,-721.5 0.5,-751.5 142.5,-751.5 142.5,-721.5 0.5,-721.5"/>
<text text-anchor="start" x="8.5" y="-739.5" font-family="Helvetica,sans-Serif" font-size="10.00">add_charge_single_spline</text>
<text text-anchor="middle" x="71.5" y="-728.5" font-family="Helvetica,sans-Serif" font-size="10.00">_pp_3d_feec</text>
</a>
</g>
</g>
<!-- Node1&#45;&gt;Node3 -->
<g id="edge2" class="edge">
<title>Node1&#45;&gt;Node3</title>
<path fill="none" stroke="midnightblue" d="M232.04,-447.38C229.78,-498.35 216.77,-635.06 143,-711.5 139.3,-715.33 134.98,-718.58 130.33,-721.33"/>
<polygon fill="midnightblue" stroke="midnightblue" points="235.55,-447.21 232.39,-437.09 228.55,-446.97 235.55,-447.21"/>
</g>
<!-- Node4 -->
<g id="node4" class="node">
<title>Node4</title>
<g id="a_node4"><a xlink:href="namespacesll__m__particle__mesh__coupling__spline__3d__feec.html#a1faf5f4d06b04318dbe2466e86636fb6" target="_top" xlink:title="Add current via line integral (when x changes along all three directions)">
<polygon fill="white" stroke="black" points="25.5,-683 25.5,-702 117.5,-702 117.5,-683 25.5,-683"/>
<text text-anchor="middle" x="71.5" y="-690" font-family="Helvetica,sans-Serif" font-size="10.00">add_current_3d</text>
</a>
</g>
</g>
<!-- Node1&#45;&gt;Node4 -->
<g id="edge3" class="edge">
<title>Node1&#45;&gt;Node4</title>
<path fill="none" stroke="midnightblue" d="M231.28,-447.21C227.31,-493.78 210.74,-611.33 143,-673.5 135.9,-680.01 126.81,-684.34 117.52,-687.19"/>
<polygon fill="midnightblue" stroke="midnightblue" points="234.77,-447.45 232.03,-437.21 227.79,-446.92 234.77,-447.45"/>
</g>
<!-- Node5 -->
<g id="node5" class="node">
<title>Node5</title>
<g id="a_node5"><a xlink:href="namespacesll__m__particle__mesh__coupling__spline__3d__feec.html#ac7566abd69c5bb038009fab3e9939984" target="_top" xlink:title="Add current via line integral and evaluate spline.">
<polygon fill="white" stroke="black" points="10.5,-645 10.5,-664 132.5,-664 132.5,-645 10.5,-645"/>
<text text-anchor="middle" x="71.5" y="-652" font-family="Helvetica,sans-Serif" font-size="10.00">add_current_evaluate</text>
</a>
</g>
</g>
<!-- Node1&#45;&gt;Node5 -->
<g id="edge4" class="edge">
<title>Node1&#45;&gt;Node5</title>
<path fill="none" stroke="midnightblue" d="M229.8,-447.2C223.08,-488.53 201.67,-584.68 143,-635.5 138.5,-639.4 133.27,-642.51 127.74,-644.99"/>
<polygon fill="midnightblue" stroke="midnightblue" points="233.3,-447.49 231.33,-437.08 226.38,-446.44 233.3,-447.49"/>
</g>
<!-- Node6 -->
<g id="node6" class="node">
<title>Node6</title>
<g id="a_node6"><a xlink:href="namespacesll__m__particle__mesh__coupling__spline__3d__feec.html#a66b7b42c89a2949f004571f1deef0161" target="_top" xlink:title="Evaluates the integral int_{poisition_old}^{position_new} field(x) d x and the integrated current.">
<polygon fill="white" stroke="black" points="1.5,-607 1.5,-626 141.5,-626 141.5,-607 1.5,-607"/>
<text text-anchor="middle" x="71.5" y="-614" font-family="Helvetica,sans-Serif" font-size="10.00">add_current_evaluate_int</text>
</a>
</g>
</g>
<!-- Node1&#45;&gt;Node6 -->
<g id="edge5" class="edge">
<title>Node1&#45;&gt;Node6</title>
<path fill="none" stroke="midnightblue" d="M227.65,-447.46C217.92,-483.13 192.59,-557.83 143,-597.5 138.15,-601.38 132.57,-604.47 126.73,-606.93"/>
<polygon fill="midnightblue" stroke="midnightblue" points="231.15,-447.89 230.27,-437.34 224.37,-446.14 231.15,-447.89"/>
</g>
<!-- Node7 -->
<g id="node7" class="node">
<title>Node7</title>
<g id="a_node7"><a xlink:href="namespacesll__m__particle__mesh__coupling__spline__3d__feec.html#a2fa5107d9eae20c0154025b87489af98" target="_top" xlink:title="Add current for one particle.">
<polygon fill="white" stroke="black" points="17,-557.5 17,-587.5 126,-587.5 126,-557.5 17,-557.5"/>
<text text-anchor="start" x="25" y="-575.5" font-family="Helvetica,sans-Serif" font-size="10.00">add_current_spline</text>
<text text-anchor="middle" x="71.5" y="-564.5" font-family="Helvetica,sans-Serif" font-size="10.00">_3d_feec</text>
</a>
</g>
</g>
<!-- Node1&#45;&gt;Node7 -->
<g id="edge6" class="edge">
<title>Node1&#45;&gt;Node7</title>
<path fill="none" stroke="midnightblue" d="M223.27,-445.99C209.32,-472.16 180.47,-519.87 143,-547.5 137.77,-551.35 131.9,-554.66 125.83,-557.47"/>
<polygon fill="midnightblue" stroke="midnightblue" points="226.38,-447.6 227.87,-437.11 220.17,-444.38 226.38,-447.6"/>
</g>
<!-- Node8 -->
<g id="node8" class="node">
<title>Node8</title>
<g id="a_node8"><a xlink:href="namespacesll__m__particle__mesh__coupling__spline__3d__feec.html#aa4424dde1a396ef50ec3fcb4e9bbbd29" target="_top" xlink:title="Add current for one particle and update v (according to H_p1 part in Hamiltonian splitting),...">
<polygon fill="white" stroke="black" points="7.5,-497 7.5,-538 135.5,-538 135.5,-497 7.5,-497"/>
<text text-anchor="start" x="15.5" y="-526" font-family="Helvetica,sans-Serif" font-size="10.00">add_current_update</text>
<text text-anchor="start" x="15.5" y="-515" font-family="Helvetica,sans-Serif" font-size="10.00">_v_component1_spline</text>
<text text-anchor="middle" x="71.5" y="-504" font-family="Helvetica,sans-Serif" font-size="10.00">_3d_feec</text>
</a>
</g>
</g>
<!-- Node1&#45;&gt;Node8 -->
<g id="edge7" class="edge">
<title>Node1&#45;&gt;Node8</title>
<path fill="none" stroke="midnightblue" d="M211.52,-443.22C193.81,-456.07 167.51,-474.22 143,-487.5 136.92,-490.79 130.4,-493.99 123.87,-496.99"/>
<polygon fill="midnightblue" stroke="midnightblue" points="213.95,-445.78 219.93,-437.04 209.8,-440.14 213.95,-445.78"/>
</g>
<!-- Node9 -->
<g id="node9" class="node">
<title>Node9</title>
<g id="a_node9"><a xlink:href="namespacesll__m__particle__mesh__coupling__spline__3d__feec.html#a3ed502ad3a148ff26d92b7332b2ebfb0" target="_top" xlink:title="Add current for one particle and update v (according to H_p2 part in Hamiltonian splitting),...">
<polygon fill="white" stroke="black" points="7.5,-437 7.5,-478 135.5,-478 135.5,-437 7.5,-437"/>
<text text-anchor="start" x="15.5" y="-466" font-family="Helvetica,sans-Serif" font-size="10.00">add_current_update</text>
<text text-anchor="start" x="15.5" y="-455" font-family="Helvetica,sans-Serif" font-size="10.00">_v_component2_spline</text>
<text text-anchor="middle" x="71.5" y="-444" font-family="Helvetica,sans-Serif" font-size="10.00">_3d_feec</text>
</a>
</g>
</g>
<!-- Node1&#45;&gt;Node9 -->
<g id="edge8" class="edge">
<title>Node1&#45;&gt;Node9</title>
<path fill="none" stroke="midnightblue" d="M171.35,-438.97C159.68,-441.15 147.44,-443.45 135.71,-445.65"/>
<polygon fill="midnightblue" stroke="midnightblue" points="172.25,-442.36 181.44,-437.07 170.96,-435.48 172.25,-442.36"/>
</g>
<!-- Node10 -->
<g id="node10" class="node">
<title>Node10</title>
<g id="a_node10"><a xlink:href="namespacesll__m__particle__mesh__coupling__spline__3d__feec.html#a4fd7d7b3daffb8d0be8ae656ef479b8c" target="_top" xlink:title="Add current for one particle and update v (according to H_p3 part in Hamiltonian splitting),...">
<polygon fill="white" stroke="black" points="7.5,-377 7.5,-418 135.5,-418 135.5,-377 7.5,-377"/>
<text text-anchor="start" x="15.5" y="-406" font-family="Helvetica,sans-Serif" font-size="10.00">add_current_update</text>
<text text-anchor="start" x="15.5" y="-395" font-family="Helvetica,sans-Serif" font-size="10.00">_v_component3_spline</text>
<text text-anchor="middle" x="71.5" y="-384" font-family="Helvetica,sans-Serif" font-size="10.00">_3d_feec</text>
</a>
</g>
</g>
<!-- Node1&#45;&gt;Node10 -->
<g id="edge9" class="edge">
<title>Node1&#45;&gt;Node10</title>
<path fill="none" stroke="midnightblue" d="M171.35,-416.03C159.68,-413.85 147.44,-411.55 135.71,-409.35"/>
<polygon fill="midnightblue" stroke="midnightblue" points="170.96,-419.52 181.44,-417.93 172.25,-412.64 170.96,-419.52"/>
</g>
<!-- Node11 -->
<g id="node11" class="node">
<title>Node11</title>
<g id="a_node11"><a xlink:href="namespacesll__m__particle__mesh__coupling__spline__3d__feec.html#a22ae487537ad43f177353d21e1a64c40" target="_top" xlink:title="Add current for one particle and update v (according to H_p1 part in Hamiltonian splitting),...">
<polygon fill="white" stroke="black" points="0,-317 0,-358 143,-358 143,-317 0,-317"/>
<text text-anchor="start" x="8" y="-346" font-family="Helvetica,sans-Serif" font-size="10.00">add_current_update</text>
<text text-anchor="start" x="8" y="-335" font-family="Helvetica,sans-Serif" font-size="10.00">_v_primitive_component1</text>
<text text-anchor="middle" x="71.5" y="-324" font-family="Helvetica,sans-Serif" font-size="10.00">_spline_3d_feec</text>
</a>
</g>
</g>
<!-- Node1&#45;&gt;Node11 -->
<g id="edge10" class="edge">
<title>Node1&#45;&gt;Node11</title>
<path fill="none" stroke="midnightblue" d="M211.52,-411.78C193.81,-398.93 167.51,-380.78 143,-367.5 136.92,-364.21 130.4,-361.01 123.87,-358.01"/>
<polygon fill="midnightblue" stroke="midnightblue" points="209.8,-414.86 219.93,-417.96 213.95,-409.22 209.8,-414.86"/>
</g>
<!-- Node12 -->
<g id="node12" class="node">
<title>Node12</title>
<g id="a_node12"><a xlink:href="namespacesll__m__particle__mesh__coupling__spline__3d__feec.html#a5b784241af06ce752db04d2c2e120736" target="_top" xlink:title="Add current for one particle and update v (according to H_p2 part in Hamiltonian splitting),...">
<polygon fill="white" stroke="black" points="0,-257 0,-298 143,-298 143,-257 0,-257"/>
<text text-anchor="start" x="8" y="-286" font-family="Helvetica,sans-Serif" font-size="10.00">add_current_update</text>
<text text-anchor="start" x="8" y="-275" font-family="Helvetica,sans-Serif" font-size="10.00">_v_primitive_component2</text>
<text text-anchor="middle" x="71.5" y="-264" font-family="Helvetica,sans-Serif" font-size="10.00">_spline_3d_feec</text>
</a>
</g>
</g>
<!-- Node1&#45;&gt;Node12 -->
<g id="edge11" class="edge">
<title>Node1&#45;&gt;Node12</title>
<path fill="none" stroke="midnightblue" d="M222.82,-408.93C208.51,-383.06 179.42,-336.12 143,-307.5 138.61,-304.05 133.76,-300.92 128.72,-298.11"/>
<polygon fill="midnightblue" stroke="midnightblue" points="219.74,-410.59 227.57,-417.73 225.9,-407.27 219.74,-410.59"/>
</g>
<!-- Node13 -->
<g id="node13" class="node">
<title>Node13</title>
<g id="a_node13"><a xlink:href="namespacesll__m__particle__mesh__coupling__spline__3d__feec.html#a20bf338104ac141fd28d6f8fab376230" target="_top" xlink:title="Add current for one particle and update v (according to H_p3 part in Hamiltonian splitting),...">
<polygon fill="white" stroke="black" points="0,-197 0,-238 143,-238 143,-197 0,-197"/>
<text text-anchor="start" x="8" y="-226" font-family="Helvetica,sans-Serif" font-size="10.00">add_current_update</text>
<text text-anchor="start" x="8" y="-215" font-family="Helvetica,sans-Serif" font-size="10.00">_v_primitive_component3</text>
<text text-anchor="middle" x="71.5" y="-204" font-family="Helvetica,sans-Serif" font-size="10.00">_spline_3d_feec</text>
</a>
</g>
</g>
<!-- Node1&#45;&gt;Node13 -->
<g id="edge12" class="edge">
<title>Node1&#45;&gt;Node13</title>
<path fill="none" stroke="midnightblue" d="M227.68,-408.06C217.76,-371.83 191.79,-293.49 143,-247.5 139.32,-244.03 135.18,-240.93 130.8,-238.17"/>
<polygon fill="midnightblue" stroke="midnightblue" points="224.33,-409.09 230.25,-417.87 231.1,-407.31 224.33,-409.09"/>
</g>
<!-- Node14 -->
<g id="node14" class="node">
<title>Node14</title>
<g id="a_node14"><a xlink:href="namespacesll__m__particle__mesh__coupling__spline__3d__feec.html#a6e5cdba87db27bf8200f27471b1ac4b8" target="_top" xlink:title="Add charge of one particle.">
<polygon fill="white" stroke="black" points="9,-147.5 9,-177.5 134,-177.5 134,-147.5 9,-147.5"/>
<text text-anchor="start" x="17" y="-165.5" font-family="Helvetica,sans-Serif" font-size="10.00">add_particle_mass_od</text>
<text text-anchor="middle" x="71.5" y="-154.5" font-family="Helvetica,sans-Serif" font-size="10.00">_spline_3d_feec</text>
</a>
</g>
</g>
<!-- Node1&#45;&gt;Node14 -->
<g id="edge13" class="edge">
<title>Node1&#45;&gt;Node14</title>
<path fill="none" stroke="midnightblue" d="M230.7,-407.69C225.54,-362.36 206.7,-250.18 143,-187.5 139.11,-183.67 134.6,-180.43 129.78,-177.68"/>
<polygon fill="midnightblue" stroke="midnightblue" points="227.23,-408.11 231.74,-417.7 234.19,-407.39 227.23,-408.11"/>
</g>
<!-- Node15 -->
<g id="node15" class="node">
<title>Node15</title>
<g id="a_node15"><a xlink:href="namespacesll__m__particle__mesh__coupling__spline__3d__feec.html#aa140b0df1d596e28212370cb43bc13b9" target="_top" xlink:title="Add charge of one particle.">
<polygon fill="white" stroke="black" points="0,-98.5 0,-128.5 143,-128.5 143,-98.5 0,-98.5"/>
<text text-anchor="start" x="8" y="-116.5" font-family="Helvetica,sans-Serif" font-size="10.00">add_particle_mass_spline</text>
<text text-anchor="middle" x="71.5" y="-105.5" font-family="Helvetica,sans-Serif" font-size="10.00">_3d_feec</text>
</a>
</g>
</g>
<!-- Node1&#45;&gt;Node15 -->
<g id="edge14" class="edge">
<title>Node1&#45;&gt;Node15</title>
<path fill="none" stroke="midnightblue" d="M232.17,-407.61C230.22,-356.02 217.92,-216.51 143,-138.5 139.31,-134.66 135,-131.41 130.35,-128.66"/>
<polygon fill="midnightblue" stroke="midnightblue" points="228.67,-407.84 232.45,-417.74 235.67,-407.65 228.67,-407.84"/>
</g>
<!-- Node16 -->
<g id="node16" class="node">
<title>Node16</title>
<g id="a_node16"><a xlink:href="namespacesll__m__particle__mesh__coupling__spline__3d__feec.html#a6fe5546e2b08b0ee109be5768ae6fbf7" target="_top" xlink:title="Evaluate field at at position position.">
<polygon fill="white" stroke="black" points="11.5,-49.5 11.5,-79.5 131.5,-79.5 131.5,-49.5 11.5,-49.5"/>
<text text-anchor="start" x="19.5" y="-67.5" font-family="Helvetica,sans-Serif" font-size="10.00">evaluate_field_single</text>
<text text-anchor="middle" x="71.5" y="-56.5" font-family="Helvetica,sans-Serif" font-size="10.00">_spline_3d_feec</text>
</a>
</g>
</g>
<!-- Node1&#45;&gt;Node16 -->
<g id="edge15" class="edge">
<title>Node1&#45;&gt;Node16</title>
<path fill="none" stroke="midnightblue" d="M233.24,-407.79C234.27,-350.69 229.38,-183.27 143,-89.5 139.48,-85.68 135.34,-82.44 130.86,-79.7"/>
<polygon fill="midnightblue" stroke="midnightblue" points="229.73,-407.87 232.96,-417.96 236.73,-408.06 229.73,-407.87"/>
</g>
<!-- Node17 -->
<g id="node17" class="node">
<title>Node17</title>
<g id="a_node17"><a xlink:href="namespacesll__m__particle__mesh__coupling__spline__3d__feec.html#ae85b6d04c8bea48f32bbcc769f216620" target="_top" xlink:title="Evaluate field at at position position.">
<polygon fill="white" stroke="black" points="11.5,-0.5 11.5,-30.5 131.5,-30.5 131.5,-0.5 11.5,-0.5"/>
<text text-anchor="start" x="19.5" y="-18.5" font-family="Helvetica,sans-Serif" font-size="10.00">evaluate_field_single</text>
<text text-anchor="middle" x="71.5" y="-7.5" font-family="Helvetica,sans-Serif" font-size="10.00">_spline_pp_3d_feec</text>
</a>
</g>
</g>
<!-- Node1&#45;&gt;Node17 -->
<g id="edge16" class="edge">
<title>Node1&#45;&gt;Node17</title>
<path fill="none" stroke="midnightblue" d="M230.41,-407.57C222.6,-336.45 192.91,-96.43 143,-40.5 139.54,-36.62 135.44,-33.35 130.99,-30.58"/>
<polygon fill="midnightblue" stroke="midnightblue" points="226.97,-408.25 231.52,-417.82 233.93,-407.5 226.97,-408.25"/>
</g>
</g>
</svg>
        <g id="navigator" transform="translate(0 0)" fill="#404254">
                <rect fill="#f2f5e9" fill-opacity="0.5" stroke="#606060" stroke-width=".5" x="0" y="0" width="60" height="60"/>
                <use id="zoomplus" xlink:href="#zoomPlus" x="17" y="9" onmousedown="handleZoom(evt,'in')"/>
                <use id="zoomminus" xlink:href="#zoomMin" x="42" y="9" onmousedown="handleZoom(evt,'out')"/>
                <use id="reset" xlink:href="#resetDef" x="30" y="36" onmousedown="handleReset()"/>
                <g id="arrowUp" xlink:href="#dirArrow" transform="translate(30 24)" onmousedown="handlePan(0,-1)">
                  <use xlink:href="#rim" fill="#404040">
                        <set attributeName="fill" to="#808080" begin="arrowUp.mouseover" end="arrowUp.mouseout"/>
                  </use>
                  <path fill="none" stroke="white" stroke-width="1.5" d="M0,-3.0v7 M-2.5,-0.5L0,-3.0L2.5,-0.5"/>
                </g>
                <g id="arrowRight" xlink:href="#dirArrow" transform="rotate(90) translate(36 -43)" onmousedown="handlePan(1,0)">
                  <use xlink:href="#rim" fill="#404040">
                        <set attributeName="fill" to="#808080" begin="arrowRight.mouseover" end="arrowRight.mouseout"/>
                  </use>
                  <path fill="none" stroke="white" stroke-width="1.5" d="M0,-3.0v7 M-2.5,-0.5L0,-3.0L2.5,-0.5"/>
                </g>
                <g id="arrowDown" xlink:href="#dirArrow" transform="rotate(180) translate(-30 -48)" onmousedown="handlePan(0,1)">
                  <use xlink:href="#rim" fill="#404040">
                        <set attributeName="fill" to="#808080" begin="arrowDown.mouseover" end="arrowDown.mouseout"/>
                  </use>
                  <path fill="none" stroke="white" stroke-width="1.5" d="M0,-3.0v7 M-2.5,-0.5L0,-3.0L2.5,-0.5"/>
                </g>
                <g id="arrowLeft" xlink:href="#dirArrow" transform="rotate(270) translate(-36 17)" onmousedown="handlePan(-1,0)">
                  <use xlink:href="#rim" fill="#404040">
                        <set attributeName="fill" to="#808080" begin="arrowLeft.mouseover" end="arrowLeft.mouseout"/>
                  </use>
                  <path fill="none" stroke="white" stroke-width="1.5" d="M0,-3.0v7 M-2.5,-0.5L0,-3.0L2.5,-0.5"/>
                </g>
        </g>
        <svg viewBox="0 0 15 15" width="100%" height="30px" preserveAspectRatio="xMaxYMin meet">
         <g id="arrow_out" transform="scale(0.3 0.3)">
          <a xlink:href="namespacesll__m__particle__mesh__coupling__spline__3d__feec_a39a81ff368618dfab16433c68acc90ee_icgraph_org.svg" target="_base">
           <rect id="button" ry="5" rx="5" y="6" x="6" height="38" width="38"
                fill="#f2f5e9" fill-opacity="0.5" stroke="#606060" stroke-width="1.0"/>
           <path id="arrow"
             d="M 11.500037,31.436501 C 11.940474,20.09759 22.043105,11.32322 32.158766,21.979434 L 37.068811,17.246167 C 37.068811,17.246167 37.088388,32 37.088388,32 L 22.160133,31.978069 C 22.160133,31.978069 26.997745,27.140456 26.997745,27.140456 C 18.528582,18.264221 13.291696,25.230495 11.500037,31.436501 z"
             style="fill:#404040;"/>
          </a>
         </g>
        </svg>
</svg>
