<?xml version="1.0" encoding="UTF-8" standalone="no"?>
<!DOCTYPE svg PUBLIC "-//W3C//DTD SVG 1.1//EN"
 "http://www.w3.org/Graphics/SVG/1.1/DTD/svg11.dtd">
<!-- Generated by graphviz version 2.40.1 (20161225.0304)
 -->
<!-- Title: sll_s_fft_init_c2c_1d Pages: 1 -->
<!--zoomable 220 -->
<svg id="main" version="1.1" xmlns="http://www.w3.org/2000/svg" xmlns:xlink="http://www.w3.org/1999/xlink" xml:space="preserve" onload="init(evt)">
<style type="text/css"><![CDATA[
.edge:hover path { stroke: red; }
.edge:hover polygon { stroke: red; fill: red; }
]]></style>
<script type="text/javascript"><![CDATA[
var edges = document.getElementsByTagName('g');
if (edges && edges.length) {
  for (var i=0;i<edges.length;i++) {
    if (edges[i].id.substr(0,4)=='edge') {
      edges[i].setAttribute('class','edge');
    }
  }
}
]]></script>
        <defs>
                <circle id="rim" cx="0" cy="0" r="7"/>
                <circle id="rim2" cx="0" cy="0" r="3.5"/>
                <g id="zoomPlus">
                        <use xlink:href="#rim" fill="#404040">
                                <set attributeName="fill" to="#808080" begin="zoomplus.mouseover" end="zoomplus.mouseout"/>
                        </use>
                        <path d="M-4,0h8M0,-4v8" fill="none" stroke="white" stroke-width="1.5" pointer-events="none"/>
                </g>
                <g id="zoomMin">
                        <use xlink:href="#rim" fill="#404040">
                                <set attributeName="fill" to="#808080" begin="zoomminus.mouseover" end="zoomminus.mouseout"/>
                        </use>
                        <path d="M-4,0h8" fill="none" stroke="white" stroke-width="1.5" pointer-events="none"/>
                </g>
                <g id="dirArrow">
                        <path fill="none" stroke="white" stroke-width="1.5" d="M0,-3.0v7 M-2.5,-0.5L0,-3.0L2.5,-0.5"/>
                </g>
               <g id="resetDef">
                       <use xlink:href="#rim2" fill="#404040">
                               <set attributeName="fill" to="#808080" begin="reset.mouseover" end="reset.mouseout"/>
                       </use>
               </g>
        </defs>

<script type="text/javascript">
var viewWidth = 528;
var viewHeight = 220;
var sectionId = 'dynsection-14';
</script>
<script xlink:href="svgpan.js"/>
<svg id="graph" class="graph">
<g id="viewport">
<title>sll_s_fft_init_c2c_1d</title>
<polygon fill="#ffffff" stroke="transparent" points="-4,4 -4,-215.5 524,-215.5 524,4 -4,4"/>
<!-- Node140 -->
<g id="node1" class="node">
<title>Node140</title>
<polygon fill="#bfbfbf" stroke="#000000" points="0,-101.5 0,-120.5 114,-120.5 114,-101.5 0,-101.5"/>
<text text-anchor="middle" x="57" y="-108.5" font-family="Helvetica,sans-Serif" font-size="10.00" fill="#000000">sll_s_fft_init_c2c_1d</text>
</g>
<!-- Node141 -->
<g id="node2" class="node">
<title>Node141</title>
<g id="a_node2"><a xlink:href="namespacesll__m__sparse__grid__interpolator.html#aba310a580506ebd76f00591da61f21f6" target="_top" xlink:title="sll_m_sparse_grid_interpolator\l::fft_initialize">
<polygon fill="#ffffff" stroke="#000000" points="150,-181 150,-211 317,-211 317,-181 150,-181"/>
<text text-anchor="start" x="158" y="-199" font-family="Helvetica,sans-Serif" font-size="10.00" fill="#000000">sll_m_sparse_grid_interpolator</text>
<text text-anchor="middle" x="233.5" y="-188" font-family="Helvetica,sans-Serif" font-size="10.00" fill="#000000">::fft_initialize</text>
</a>
</g>
</g>
<!-- Node140&#45;&gt;Node141 -->
<g id="edge1" class="edge">
<title>Node140&#45;&gt;Node141</title>
<path fill="none" stroke="#191970" d="M77.4035,-126.5791C95.6234,-139.8865 123.4573,-158.7647 150,-171 157.9707,-174.6742 166.6157,-177.9668 175.2205,-180.8621"/>
<polygon fill="#191970" stroke="#191970" points="79.3948,-123.6983 69.2793,-120.5474 75.222,-129.3187 79.3948,-123.6983"/>
</g>
<!-- Node143 -->
<g id="node4" class="node">
<title>Node143</title>
<g id="a_node4"><a xlink:href="namespacesll__m__poisson__2d__periodic__par.html#ad41fe715bd84e1d002bbb219f4d68b46" target="_top" xlink:title="Presently, this function receives the geometric information as individual arguments. We should consider passing the &#39;simple geometry&#39; object that we have for the cartesian cases. ">
<polygon fill="#ffffff" stroke="#000000" points="160,-120.5 160,-161.5 307,-161.5 307,-120.5 160,-120.5"/>
<text text-anchor="start" x="168" y="-149.5" font-family="Helvetica,sans-Serif" font-size="10.00" fill="#000000">sll_m_poisson_2d_periodic</text>
<text text-anchor="start" x="168" y="-138.5" font-family="Helvetica,sans-Serif" font-size="10.00" fill="#000000">_par::sll_s_poisson_2d</text>
<text text-anchor="middle" x="233.5" y="-127.5" font-family="Helvetica,sans-Serif" font-size="10.00" fill="#000000">_periodic_par_init</text>
</a>
</g>
</g>
<!-- Node140&#45;&gt;Node143 -->
<g id="edge3" class="edge">
<title>Node140&#45;&gt;Node143</title>
<path fill="none" stroke="#191970" d="M123.2418,-122.2592C135.2275,-124.2965 147.7917,-126.432 159.9711,-128.5022"/>
<polygon fill="#191970" stroke="#191970" points="123.7761,-118.7999 113.331,-120.5747 122.6031,-125.7009 123.7761,-118.7999"/>
</g>
<!-- Node144 -->
<g id="node5" class="node">
<title>Node144</title>
<g id="a_node5"><a xlink:href="namespacesll__m__poisson__2d__periodic__par.html#aee4e39c0cd0cf732b793a92c368019bb" target="_top" xlink:title="Presently, this function receives the geometric information as individual arguments. We should consider passing the &#39;simple geometry&#39; object that we have for the cartesian cases. The &#39;alt&#39; version does not consider the last point in the problem, the arrays involved and the layout that represents them should also not include this last point. ">
<polygon fill="#ffffff" stroke="#000000" points="160,-60.5 160,-101.5 307,-101.5 307,-60.5 160,-60.5"/>
<text text-anchor="start" x="168" y="-89.5" font-family="Helvetica,sans-Serif" font-size="10.00" fill="#000000">sll_m_poisson_2d_periodic</text>
<text text-anchor="start" x="168" y="-78.5" font-family="Helvetica,sans-Serif" font-size="10.00" fill="#000000">_par::sll_s_poisson_2d</text>
<text text-anchor="middle" x="233.5" y="-67.5" font-family="Helvetica,sans-Serif" font-size="10.00" fill="#000000">_periodic_par_init_alt</text>
</a>
</g>
</g>
<!-- Node140&#45;&gt;Node144 -->
<g id="edge4" class="edge">
<title>Node140&#45;&gt;Node144</title>
<path fill="none" stroke="#191970" d="M123.2418,-99.7408C135.2275,-97.7035 147.7917,-95.568 159.9711,-93.4978"/>
<polygon fill="#191970" stroke="#191970" points="122.6031,-96.2991 113.331,-101.4253 123.7761,-103.2001 122.6031,-96.2991"/>
</g>
<!-- Node145 -->
<g id="node6" class="node">
<title>Node145</title>
<g id="a_node6"><a xlink:href="namespacesll__m__poisson__3d__periodic__par.html#a709ec42fd1d3c83d3c036b4be76eadab" target="_top" xlink:title="Allocate the structure for the 3d parallel Poisson solver. ">
<polygon fill="#ffffff" stroke="#000000" points="160,-.5 160,-41.5 307,-41.5 307,-.5 160,-.5"/>
<text text-anchor="start" x="168" y="-29.5" font-family="Helvetica,sans-Serif" font-size="10.00" fill="#000000">sll_m_poisson_3d_periodic</text>
<text text-anchor="start" x="168" y="-18.5" font-family="Helvetica,sans-Serif" font-size="10.00" fill="#000000">_par::sll_s_poisson_3d</text>
<text text-anchor="middle" x="233.5" y="-7.5" font-family="Helvetica,sans-Serif" font-size="10.00" fill="#000000">_periodic_par_init</text>
</a>
</g>
</g>
<!-- Node140&#45;&gt;Node145 -->
<g id="edge5" class="edge">
<title>Node140&#45;&gt;Node145</title>
<path fill="none" stroke="#191970" d="M77.8831,-95.5505C96.2146,-82.48 123.9454,-63.8744 150,-51 156.7668,-47.6563 164.0023,-44.4935 171.2792,-41.5649"/>
<polygon fill="#191970" stroke="#191970" points="75.7428,-92.779 69.6876,-101.473 79.8428,-98.4526 75.7428,-92.779"/>
</g>
<!-- Node142 -->
<g id="node3" class="node">
<title>Node142</title>
<g id="a_node3"><a xlink:href="namespacesll__m__sparse__grid__interpolator.html#a3fb5a2dabbb9b367be8955e16118eebc" target="_top" xlink:title="sll_m_sparse_grid_interpolator\l::initialize_sg">
<polygon fill="#ffffff" stroke="#000000" points="353,-181 353,-211 520,-211 520,-181 353,-181"/>
<text text-anchor="start" x="361" y="-199" font-family="Helvetica,sans-Serif" font-size="10.00" fill="#000000">sll_m_sparse_grid_interpolator</text>
<text text-anchor="middle" x="436.5" y="-188" font-family="Helvetica,sans-Serif" font-size="10.00" fill="#000000">::initialize_sg</text>
</a>
</g>
</g>
<!-- Node141&#45;&gt;Node142 -->
<g id="edge2" class="edge">
<title>Node141&#45;&gt;Node142</title>
<path fill="none" stroke="#191970" d="M327.2558,-196C335.8295,-196 344.4773,-196 352.9526,-196"/>
<polygon fill="#191970" stroke="#191970" points="327.2399,-192.5001 317.2399,-196 327.2398,-199.5001 327.2399,-192.5001"/>
</g>
</g>
</svg>
        <g id="navigator" transform="translate(0 0)" fill="#404254">
                <rect fill="#f2f5e9" fill-opacity="0.5" stroke="#606060" stroke-width=".5" x="0" y="0" width="60" height="60"/>
                <use id="zoomplus" xlink:href="#zoomPlus" x="17" y="9" onmousedown="handleZoom(evt,'in')"/>
                <use id="zoomminus" xlink:href="#zoomMin" x="42" y="9" onmousedown="handleZoom(evt,'out')"/>
                <use id="reset" xlink:href="#resetDef" x="30" y="36" onmousedown="handleReset()"/>
                <g id="arrowUp" xlink:href="#dirArrow" transform="translate(30 24)" onmousedown="handlePan(0,-1)">
                  <use xlink:href="#rim" fill="#404040">
                        <set attributeName="fill" to="#808080" begin="arrowUp.mouseover" end="arrowUp.mouseout"/>
                  </use>
                  <path fill="none" stroke="white" stroke-width="1.5" d="M0,-3.0v7 M-2.5,-0.5L0,-3.0L2.5,-0.5"/>
                </g>
                <g id="arrowRight" xlink:href="#dirArrow" transform="rotate(90) translate(36 -43)" onmousedown="handlePan(1,0)">
                  <use xlink:href="#rim" fill="#404040">
                        <set attributeName="fill" to="#808080" begin="arrowRight.mouseover" end="arrowRight.mouseout"/>
                  </use>
                  <path fill="none" stroke="white" stroke-width="1.5" d="M0,-3.0v7 M-2.5,-0.5L0,-3.0L2.5,-0.5"/>
                </g>
                <g id="arrowDown" xlink:href="#dirArrow" transform="rotate(180) translate(-30 -48)" onmousedown="handlePan(0,1)">
                  <use xlink:href="#rim" fill="#404040">
                        <set attributeName="fill" to="#808080" begin="arrowDown.mouseover" end="arrowDown.mouseout"/>
                  </use>
                  <path fill="none" stroke="white" stroke-width="1.5" d="M0,-3.0v7 M-2.5,-0.5L0,-3.0L2.5,-0.5"/>
                </g>
                <g id="arrowLeft" xlink:href="#dirArrow" transform="rotate(270) translate(-36 17)" onmousedown="handlePan(-1,0)">
                  <use xlink:href="#rim" fill="#404040">
                        <set attributeName="fill" to="#808080" begin="arrowLeft.mouseover" end="arrowLeft.mouseout"/>
                  </use>
                  <path fill="none" stroke="white" stroke-width="1.5" d="M0,-3.0v7 M-2.5,-0.5L0,-3.0L2.5,-0.5"/>
                </g>
        </g>
        <svg viewBox="0 0 15 15" width="100%" height="30px" preserveAspectRatio="xMaxYMin meet">
         <g id="arrow_out" transform="scale(0.3 0.3)">
          <a xlink:href="namespacesll__m__fft_abd8e9cb4be235cbdce3b3f1c2ba1a9dd_icgraph_org.svg" target="_base">
           <rect id="button" ry="5" rx="5" y="6" x="6" height="38" width="38"
                fill="#f2f5e9" fill-opacity="0.5" stroke="#606060" stroke-width="1.0"/>
           <path id="arrow"
             d="M 11.500037,31.436501 C 11.940474,20.09759 22.043105,11.32322 32.158766,21.979434 L 37.068811,17.246167 C 37.068811,17.246167 37.088388,32 37.088388,32 L 22.160133,31.978069 C 22.160133,31.978069 26.997745,27.140456 26.997745,27.140456 C 18.528582,18.264221 13.291696,25.230495 11.500037,31.436501 z"
             style="fill:#404040;"/>
          </a>
         </g>
        </svg>
</svg>
