<?xml version="1.0" encoding="UTF-8" standalone="no"?>
<!DOCTYPE svg PUBLIC "-//W3C//DTD SVG 1.1//EN"
 "http://www.w3.org/Graphics/SVG/1.1/DTD/svg11.dtd">
<!-- Generated by graphviz version 2.43.0 (0)
 -->
<!-- Title: function_xy_from_r Pages: 1 -->
<!--zoomable 290 -->
<svg id="main" version="1.1" xmlns="http://www.w3.org/2000/svg" xmlns:xlink="http://www.w3.org/1999/xlink" xml:space="preserve" onload="init(evt)">
<style type="text/css"><![CDATA[
.edge:hover path { stroke: red; }
.edge:hover polygon { stroke: red; fill: red; }
]]></style>
<script type="text/javascript"><![CDATA[
var edges = document.getElementsByTagName('g');
if (edges && edges.length) {
  for (var i=0;i<edges.length;i++) {
    if (edges[i].id.substr(0,4)=='edge') {
      edges[i].setAttribute('class','edge');
    }
  }
}
]]></script>
        <defs>
                <circle id="rim" cx="0" cy="0" r="7"/>
                <circle id="rim2" cx="0" cy="0" r="3.5"/>
                <g id="zoomPlus">
                        <use xlink:href="#rim" fill="#404040">
                                <set attributeName="fill" to="#808080" begin="zoomplus.mouseover" end="zoomplus.mouseout"/>
                        </use>
                        <path d="M-4,0h8M0,-4v8" fill="none" stroke="white" stroke-width="1.5" pointer-events="none"/>
                </g>
                <g id="zoomMin">
                        <use xlink:href="#rim" fill="#404040">
                                <set attributeName="fill" to="#808080" begin="zoomminus.mouseover" end="zoomminus.mouseout"/>
                        </use>
                        <path d="M-4,0h8" fill="none" stroke="white" stroke-width="1.5" pointer-events="none"/>
                </g>
                <g id="dirArrow">
                        <path fill="none" stroke="white" stroke-width="1.5" d="M0,-3.0v7 M-2.5,-0.5L0,-3.0L2.5,-0.5"/>
                </g>
               <g id="resetDef">
                       <use xlink:href="#rim2" fill="#404040">
                               <set attributeName="fill" to="#808080" begin="reset.mouseover" end="reset.mouseout"/>
                       </use>
               </g>
        </defs>

<script type="text/javascript">
var viewWidth = 655;
var viewHeight = 290;
var sectionId = 'dynsection-1';
</script>
<script xlink:href="svgpan.js"/>
<svg id="graph" class="graph">
<g id="viewport">
<title>function_xy_from_r</title>
<polygon fill="white" stroke="transparent" points="-4,4 -4,-286 651,-286 651,4 -4,4"/>
<!-- Node1 -->
<g id="node1" class="node">
<title>Node1</title>
<g id="a_node1"><a xlink:title=" ">
<polygon fill="#bfbfbf" stroke="black" points="0,-131.5 0,-150.5 111,-150.5 111,-131.5 0,-131.5"/>
<text text-anchor="middle" x="55.5" y="-138.5" font-family="Helvetica,sans-Serif" font-size="10.00">function_xy_from_r</text>
</a>
</g>
</g>
<!-- Node2 -->
<g id="node2" class="node">
<title>Node2</title>
<g id="a_node2"><a xlink:href="namespacesll__m__cubic__splines.html#a947f143aa0ed2c77f72b5b527802929a" target="_top" xlink:title="returns the value of the interpolated image of the abscissa x, using the spline coefficients stored i...">
<polygon fill="white" stroke="black" points="164.5,-240.5 164.5,-281.5 277.5,-281.5 277.5,-240.5 164.5,-240.5"/>
<text text-anchor="start" x="172.5" y="-269.5" font-family="Helvetica,sans-Serif" font-size="10.00">sll_m_cubic_splines</text>
<text text-anchor="start" x="172.5" y="-258.5" font-family="Helvetica,sans-Serif" font-size="10.00">::sll_f_cubic_spline</text>
<text text-anchor="middle" x="221" y="-247.5" font-family="Helvetica,sans-Serif" font-size="10.00">_1d_eval</text>
</a>
</g>
</g>
<!-- Node1&#45;&gt;Node2 -->
<g id="edge1" class="edge">
<title>Node1&#45;&gt;Node2</title>
<path fill="none" stroke="midnightblue" d="M64,-150.65C78.37,-168.61 111.56,-207.46 147,-231 149.6,-232.73 152.31,-234.38 155.1,-235.97"/>
<polygon fill="midnightblue" stroke="midnightblue" points="153.73,-239.2 164.21,-240.79 157,-233.02 153.73,-239.2"/>
</g>
<!-- Node4 -->
<g id="node4" class="node">
<title>Node4</title>
<g id="a_node4"><a xlink:href="namespacesll__m__common__coordinate__transformations.html#a8f8791e81ffb52413cb04019f12be400" target="_top" xlink:title="inverse mapping">
<polygon fill="white" stroke="black" points="147,-180.5 147,-221.5 295,-221.5 295,-180.5 147,-180.5"/>
<text text-anchor="start" x="155" y="-209.5" font-family="Helvetica,sans-Serif" font-size="10.00">sll_m_common_coordinate</text>
<text text-anchor="start" x="155" y="-198.5" font-family="Helvetica,sans-Serif" font-size="10.00">_transformations::sll</text>
<text text-anchor="middle" x="221" y="-187.5" font-family="Helvetica,sans-Serif" font-size="10.00">_f_polar_eta1</text>
</a>
</g>
</g>
<!-- Node1&#45;&gt;Node4 -->
<g id="edge3" class="edge">
<title>Node1&#45;&gt;Node4</title>
<path fill="none" stroke="midnightblue" d="M82.41,-150.51C101.81,-157.63 129.25,-167.7 154.53,-176.97"/>
<polygon fill="midnightblue" stroke="midnightblue" points="153.49,-180.32 164.09,-180.48 155.91,-173.75 153.49,-180.32"/>
</g>
<!-- Node5 -->
<g id="node5" class="node">
<title>Node5</title>
<g id="a_node5"><a xlink:href="namespacesll__m__cubic__splines.html#a35d6c430ac300c5ca47c04adeb9a6db3" target="_top" xlink:title="Computes the cubic spline coefficients corresponding to the 1D data array &#39;f&#39;.">
<polygon fill="white" stroke="black" points="151,-120.5 151,-161.5 291,-161.5 291,-120.5 151,-120.5"/>
<text text-anchor="start" x="159" y="-149.5" font-family="Helvetica,sans-Serif" font-size="10.00">sll_m_cubic_splines</text>
<text text-anchor="start" x="159" y="-138.5" font-family="Helvetica,sans-Serif" font-size="10.00">::sll_s_cubic_spline</text>
<text text-anchor="middle" x="221" y="-127.5" font-family="Helvetica,sans-Serif" font-size="10.00">_1d_compute_interpolant</text>
</a>
</g>
</g>
<!-- Node1&#45;&gt;Node5 -->
<g id="edge4" class="edge">
<title>Node1&#45;&gt;Node5</title>
<path fill="none" stroke="midnightblue" d="M111.4,-141C120.76,-141 130.65,-141 140.5,-141"/>
<polygon fill="midnightblue" stroke="midnightblue" points="140.73,-144.5 150.73,-141 140.73,-137.5 140.73,-144.5"/>
</g>
<!-- Node11 -->
<g id="node11" class="node">
<title>Node11</title>
<g id="a_node11"><a xlink:href="namespacesll__m__cubic__splines.html#abb1cb3b12640d9c845fa02b992384953" target="_top" xlink:title="deallocate the sll_t_cubic_spline_1d object">
<polygon fill="white" stroke="black" points="164.5,-60.5 164.5,-101.5 277.5,-101.5 277.5,-60.5 164.5,-60.5"/>
<text text-anchor="start" x="172.5" y="-89.5" font-family="Helvetica,sans-Serif" font-size="10.00">sll_m_cubic_splines</text>
<text text-anchor="start" x="172.5" y="-78.5" font-family="Helvetica,sans-Serif" font-size="10.00">::sll_s_cubic_spline</text>
<text text-anchor="middle" x="221" y="-67.5" font-family="Helvetica,sans-Serif" font-size="10.00">_1d_free</text>
</a>
</g>
</g>
<!-- Node1&#45;&gt;Node11 -->
<g id="edge11" class="edge">
<title>Node1&#45;&gt;Node11</title>
<path fill="none" stroke="midnightblue" d="M82.41,-131.49C101.89,-124.34 129.48,-114.22 154.84,-104.91"/>
<polygon fill="midnightblue" stroke="midnightblue" points="156.25,-108.12 164.43,-101.39 153.84,-101.55 156.25,-108.12"/>
</g>
<!-- Node12 -->
<g id="node12" class="node">
<title>Node12</title>
<g id="a_node12"><a xlink:href="namespacesll__m__cubic__splines.html#a35f9f53695f916944ed2f72a49531560" target="_top" xlink:title="Returns a pointer to a heap&#45;allocated cubic spline object.">
<polygon fill="white" stroke="black" points="164.5,-0.5 164.5,-41.5 277.5,-41.5 277.5,-0.5 164.5,-0.5"/>
<text text-anchor="start" x="172.5" y="-29.5" font-family="Helvetica,sans-Serif" font-size="10.00">sll_m_cubic_splines</text>
<text text-anchor="start" x="172.5" y="-18.5" font-family="Helvetica,sans-Serif" font-size="10.00">::sll_s_cubic_spline</text>
<text text-anchor="middle" x="221" y="-7.5" font-family="Helvetica,sans-Serif" font-size="10.00">_1d_init</text>
</a>
</g>
</g>
<!-- Node1&#45;&gt;Node12 -->
<g id="edge12" class="edge">
<title>Node1&#45;&gt;Node12</title>
<path fill="none" stroke="midnightblue" d="M64,-131.35C78.37,-113.39 111.56,-74.54 147,-51 149.6,-49.27 152.31,-47.62 155.1,-46.03"/>
<polygon fill="midnightblue" stroke="midnightblue" points="157,-48.98 164.21,-41.21 153.73,-42.8 157,-48.98"/>
</g>
<!-- Node3 -->
<g id="node3" class="node">
<title>Node3</title>
<g id="a_node3"><a xlink:href="namespacesll__m__cubic__splines.html#ab80965fe0af03954be7883b621079a50" target="_top" xlink:title=" ">
<polygon fill="white" stroke="black" points="335.5,-246 335.5,-276 466.5,-276 466.5,-246 335.5,-246"/>
<text text-anchor="start" x="343.5" y="-264" font-family="Helvetica,sans-Serif" font-size="10.00">sll_m_cubic_splines</text>
<text text-anchor="middle" x="401" y="-253" font-family="Helvetica,sans-Serif" font-size="10.00">::interpolate_value_aux</text>
</a>
</g>
</g>
<!-- Node2&#45;&gt;Node3 -->
<g id="edge2" class="edge">
<title>Node2&#45;&gt;Node3</title>
<path fill="none" stroke="midnightblue" d="M277.83,-261C292.8,-261 309.23,-261 325.06,-261"/>
<polygon fill="midnightblue" stroke="midnightblue" points="325.35,-264.5 335.35,-261 325.35,-257.5 325.35,-264.5"/>
</g>
<!-- Node6 -->
<g id="node6" class="node">
<title>Node6</title>
<g id="a_node6"><a xlink:href="namespacesll__m__cubic__splines.html#a813ec77055a7936e0c4697d0098178a2" target="_top" xlink:title=" ">
<polygon fill="white" stroke="black" points="342.5,-150.5 342.5,-191.5 459.5,-191.5 459.5,-150.5 342.5,-150.5"/>
<text text-anchor="start" x="350.5" y="-179.5" font-family="Helvetica,sans-Serif" font-size="10.00">sll_m_cubic_splines</text>
<text text-anchor="start" x="350.5" y="-168.5" font-family="Helvetica,sans-Serif" font-size="10.00">::compute_spline_1d</text>
<text text-anchor="middle" x="401" y="-157.5" font-family="Helvetica,sans-Serif" font-size="10.00">_hermite</text>
</a>
</g>
</g>
<!-- Node5&#45;&gt;Node6 -->
<g id="edge5" class="edge">
<title>Node5&#45;&gt;Node6</title>
<path fill="none" stroke="midnightblue" d="M291.07,-152.64C304.62,-154.93 318.82,-157.32 332.33,-159.59"/>
<polygon fill="midnightblue" stroke="midnightblue" points="332.05,-163.1 342.5,-161.31 333.22,-156.19 332.05,-163.1"/>
</g>
<!-- Node9 -->
<g id="node9" class="node">
<title>Node9</title>
<g id="a_node9"><a xlink:href="namespacesll__m__cubic__splines.html#a78c2f7524989143dc18bfbe96f7667fb" target="_top" xlink:title=" ">
<polygon fill="white" stroke="black" points="342.5,-90.5 342.5,-131.5 459.5,-131.5 459.5,-90.5 342.5,-90.5"/>
<text text-anchor="start" x="350.5" y="-119.5" font-family="Helvetica,sans-Serif" font-size="10.00">sll_m_cubic_splines</text>
<text text-anchor="start" x="350.5" y="-108.5" font-family="Helvetica,sans-Serif" font-size="10.00">::compute_spline_1d</text>
<text text-anchor="middle" x="401" y="-97.5" font-family="Helvetica,sans-Serif" font-size="10.00">_periodic</text>
</a>
</g>
</g>
<!-- Node5&#45;&gt;Node9 -->
<g id="edge8" class="edge">
<title>Node5&#45;&gt;Node9</title>
<path fill="none" stroke="midnightblue" d="M291.07,-129.36C304.62,-127.07 318.82,-124.68 332.33,-122.41"/>
<polygon fill="midnightblue" stroke="midnightblue" points="333.22,-125.81 342.5,-120.69 332.05,-118.9 333.22,-125.81"/>
</g>
<!-- Node7 -->
<g id="node7" class="node">
<title>Node7</title>
<g id="a_node7"><a xlink:href="namespacesll__m__cubic__splines.html#a3f3f1aa98bfbb8c05458a1eb30941d6d" target="_top" xlink:title=" ">
<polygon fill="white" stroke="black" points="518.5,-180.5 518.5,-221.5 635.5,-221.5 635.5,-180.5 518.5,-180.5"/>
<text text-anchor="start" x="526.5" y="-209.5" font-family="Helvetica,sans-Serif" font-size="10.00">sll_m_cubic_splines</text>
<text text-anchor="start" x="526.5" y="-198.5" font-family="Helvetica,sans-Serif" font-size="10.00">::compute_spline_1d</text>
<text text-anchor="middle" x="577" y="-187.5" font-family="Helvetica,sans-Serif" font-size="10.00">_hermite_aux</text>
</a>
</g>
</g>
<!-- Node6&#45;&gt;Node7 -->
<g id="edge6" class="edge">
<title>Node6&#45;&gt;Node7</title>
<path fill="none" stroke="midnightblue" d="M459.94,-180.99C475.35,-183.65 492.13,-186.54 508.02,-189.28"/>
<polygon fill="midnightblue" stroke="midnightblue" points="507.86,-192.8 518.31,-191.05 509.05,-185.91 507.86,-192.8"/>
</g>
<!-- Node8 -->
<g id="node8" class="node">
<title>Node8</title>
<g id="a_node8"><a xlink:href="namespacesll__m__tridiagonal.html#a7760525c99ca03ee433e5d536d72db38" target="_top" xlink:title="Solves tridiagonal system.">
<polygon fill="white" stroke="black" points="507,-120.5 507,-161.5 647,-161.5 647,-120.5 507,-120.5"/>
<text text-anchor="start" x="515" y="-149.5" font-family="Helvetica,sans-Serif" font-size="10.00">sll_m_tridiagonal::</text>
<text text-anchor="start" x="515" y="-138.5" font-family="Helvetica,sans-Serif" font-size="10.00">sll_s_solve_cyclic_tridiag</text>
<text text-anchor="middle" x="577" y="-127.5" font-family="Helvetica,sans-Serif" font-size="10.00">_double</text>
</a>
</g>
</g>
<!-- Node6&#45;&gt;Node8 -->
<g id="edge7" class="edge">
<title>Node6&#45;&gt;Node8</title>
<path fill="none" stroke="midnightblue" d="M459.94,-161.01C471.8,-158.97 484.47,-156.78 496.92,-154.63"/>
<polygon fill="midnightblue" stroke="midnightblue" points="497.58,-158.07 506.84,-152.92 496.39,-151.17 497.58,-158.07"/>
</g>
<!-- Node9&#45;&gt;Node8 -->
<g id="edge10" class="edge">
<title>Node9&#45;&gt;Node8</title>
<path fill="none" stroke="midnightblue" d="M459.94,-120.99C471.8,-123.03 484.47,-125.22 496.92,-127.37"/>
<polygon fill="midnightblue" stroke="midnightblue" points="496.39,-130.83 506.84,-129.08 497.58,-123.93 496.39,-130.83"/>
</g>
<!-- Node10 -->
<g id="node10" class="node">
<title>Node10</title>
<g id="a_node10"><a xlink:href="namespacesll__m__cubic__splines.html#a908d8f64cc3a4c32d9bdc5afc4077948" target="_top" xlink:title=" ">
<polygon fill="white" stroke="black" points="518.5,-60.5 518.5,-101.5 635.5,-101.5 635.5,-60.5 518.5,-60.5"/>
<text text-anchor="start" x="526.5" y="-89.5" font-family="Helvetica,sans-Serif" font-size="10.00">sll_m_cubic_splines</text>
<text text-anchor="start" x="526.5" y="-78.5" font-family="Helvetica,sans-Serif" font-size="10.00">::compute_spline_1d</text>
<text text-anchor="middle" x="577" y="-67.5" font-family="Helvetica,sans-Serif" font-size="10.00">_periodic_aux</text>
</a>
</g>
</g>
<!-- Node9&#45;&gt;Node10 -->
<g id="edge9" class="edge">
<title>Node9&#45;&gt;Node10</title>
<path fill="none" stroke="midnightblue" d="M459.94,-101.01C475.35,-98.35 492.13,-95.46 508.02,-92.72"/>
<polygon fill="midnightblue" stroke="midnightblue" points="509.05,-96.09 518.31,-90.95 507.86,-89.2 509.05,-96.09"/>
</g>
<!-- Node13 -->
<g id="node13" class="node">
<title>Node13</title>
<g id="a_node13"><a xlink:href="namespacesll__m__tridiagonal.html#a0eb4ec59f49ba01edaba9eca267d2a28" target="_top" xlink:title="Give the factorization of the matrix in argument.">
<polygon fill="white" stroke="black" points="331,-6 331,-36 471,-36 471,-6 331,-6"/>
<text text-anchor="start" x="339" y="-24" font-family="Helvetica,sans-Serif" font-size="10.00">sll_m_tridiagonal::</text>
<text text-anchor="middle" x="401" y="-13" font-family="Helvetica,sans-Serif" font-size="10.00">sll_s_setup_cyclic_tridiag</text>
</a>
</g>
</g>
<!-- Node12&#45;&gt;Node13 -->
<g id="edge13" class="edge">
<title>Node12&#45;&gt;Node13</title>
<path fill="none" stroke="midnightblue" d="M277.83,-21C291.37,-21 306.1,-21 320.5,-21"/>
<polygon fill="midnightblue" stroke="midnightblue" points="320.9,-24.5 330.9,-21 320.9,-17.5 320.9,-24.5"/>
</g>
</g>
</svg>
        <g id="navigator" transform="translate(0 0)" fill="#404254">
                <rect fill="#f2f5e9" fill-opacity="0.5" stroke="#606060" stroke-width=".5" x="0" y="0" width="60" height="60"/>
                <use id="zoomplus" xlink:href="#zoomPlus" x="17" y="9" onmousedown="handleZoom(evt,'in')"/>
                <use id="zoomminus" xlink:href="#zoomMin" x="42" y="9" onmousedown="handleZoom(evt,'out')"/>
                <use id="reset" xlink:href="#resetDef" x="30" y="36" onmousedown="handleReset()"/>
                <g id="arrowUp" xlink:href="#dirArrow" transform="translate(30 24)" onmousedown="handlePan(0,-1)">
                  <use xlink:href="#rim" fill="#404040">
                        <set attributeName="fill" to="#808080" begin="arrowUp.mouseover" end="arrowUp.mouseout"/>
                  </use>
                  <path fill="none" stroke="white" stroke-width="1.5" d="M0,-3.0v7 M-2.5,-0.5L0,-3.0L2.5,-0.5"/>
                </g>
                <g id="arrowRight" xlink:href="#dirArrow" transform="rotate(90) translate(36 -43)" onmousedown="handlePan(1,0)">
                  <use xlink:href="#rim" fill="#404040">
                        <set attributeName="fill" to="#808080" begin="arrowRight.mouseover" end="arrowRight.mouseout"/>
                  </use>
                  <path fill="none" stroke="white" stroke-width="1.5" d="M0,-3.0v7 M-2.5,-0.5L0,-3.0L2.5,-0.5"/>
                </g>
                <g id="arrowDown" xlink:href="#dirArrow" transform="rotate(180) translate(-30 -48)" onmousedown="handlePan(0,1)">
                  <use xlink:href="#rim" fill="#404040">
                        <set attributeName="fill" to="#808080" begin="arrowDown.mouseover" end="arrowDown.mouseout"/>
                  </use>
                  <path fill="none" stroke="white" stroke-width="1.5" d="M0,-3.0v7 M-2.5,-0.5L0,-3.0L2.5,-0.5"/>
                </g>
                <g id="arrowLeft" xlink:href="#dirArrow" transform="rotate(270) translate(-36 17)" onmousedown="handlePan(-1,0)">
                  <use xlink:href="#rim" fill="#404040">
                        <set attributeName="fill" to="#808080" begin="arrowLeft.mouseover" end="arrowLeft.mouseout"/>
                  </use>
                  <path fill="none" stroke="white" stroke-width="1.5" d="M0,-3.0v7 M-2.5,-0.5L0,-3.0L2.5,-0.5"/>
                </g>
        </g>
        <svg viewBox="0 0 15 15" width="100%" height="30px" preserveAspectRatio="xMaxYMin meet">
         <g id="arrow_out" transform="scale(0.3 0.3)">
          <a xlink:href="namespacesll__m__fdistribu4d__dk_ad019b52770477f636c8115bc5ad20475_cgraph_org.svg" target="_base">
           <rect id="button" ry="5" rx="5" y="6" x="6" height="38" width="38"
                fill="#f2f5e9" fill-opacity="0.5" stroke="#606060" stroke-width="1.0"/>
           <path id="arrow"
             d="M 11.500037,31.436501 C 11.940474,20.09759 22.043105,11.32322 32.158766,21.979434 L 37.068811,17.246167 C 37.068811,17.246167 37.088388,32 37.088388,32 L 22.160133,31.978069 C 22.160133,31.978069 26.997745,27.140456 26.997745,27.140456 C 18.528582,18.264221 13.291696,25.230495 11.500037,31.436501 z"
             style="fill:#404040;"/>
          </a>
         </g>
        </svg>
</svg>
