<?xml version="1.0" encoding="UTF-8" standalone="no"?>
<!DOCTYPE svg PUBLIC "-//W3C//DTD SVG 1.1//EN"
 "http://www.w3.org/Graphics/SVG/1.1/DTD/svg11.dtd">
<!-- Generated by graphviz version 2.43.0 (0)
 -->
<!-- Title: sll_s_fekete_order_num Pages: 1 -->
<!--zoomable 104 -->
<svg id="main" version="1.1" xmlns="http://www.w3.org/2000/svg" xmlns:xlink="http://www.w3.org/1999/xlink" xml:space="preserve" onload="init(evt)">
<style type="text/css"><![CDATA[
.edge:hover path { stroke: red; }
.edge:hover polygon { stroke: red; fill: red; }
]]></style>
<script type="text/javascript"><![CDATA[
var edges = document.getElementsByTagName('g');
if (edges && edges.length) {
  for (var i=0;i<edges.length;i++) {
    if (edges[i].id.substr(0,4)=='edge') {
      edges[i].setAttribute('class','edge');
    }
  }
}
]]></script>
        <defs>
                <circle id="rim" cx="0" cy="0" r="7"/>
                <circle id="rim2" cx="0" cy="0" r="3.5"/>
                <g id="zoomPlus">
                        <use xlink:href="#rim" fill="#404040">
                                <set attributeName="fill" to="#808080" begin="zoomplus.mouseover" end="zoomplus.mouseout"/>
                        </use>
                        <path d="M-4,0h8M0,-4v8" fill="none" stroke="white" stroke-width="1.5" pointer-events="none"/>
                </g>
                <g id="zoomMin">
                        <use xlink:href="#rim" fill="#404040">
                                <set attributeName="fill" to="#808080" begin="zoomminus.mouseover" end="zoomminus.mouseout"/>
                        </use>
                        <path d="M-4,0h8" fill="none" stroke="white" stroke-width="1.5" pointer-events="none"/>
                </g>
                <g id="dirArrow">
                        <path fill="none" stroke="white" stroke-width="1.5" d="M0,-3.0v7 M-2.5,-0.5L0,-3.0L2.5,-0.5"/>
                </g>
               <g id="resetDef">
                       <use xlink:href="#rim2" fill="#404040">
                               <set attributeName="fill" to="#808080" begin="reset.mouseover" end="reset.mouseout"/>
                       </use>
               </g>
        </defs>

<script type="text/javascript">
var viewWidth = 596;
var viewHeight = 104;
var sectionId = 'dynsection-11';
</script>
<script xlink:href="svgpan.js"/>
<svg id="graph" class="graph">
<g id="viewport">
<title>sll_s_fekete_order_num</title>
<polygon fill="white" stroke="transparent" points="-4,4 -4,-100 592,-100 592,4 -4,4"/>
<!-- Node1 -->
<g id="node1" class="node">
<title>Node1</title>
<g id="a_node1"><a xlink:title="returns the order of a Fekete rule for the triangle.">
<polygon fill="#bfbfbf" stroke="black" points="456,-38.5 456,-57.5 588,-57.5 588,-38.5 456,-38.5"/>
<text text-anchor="middle" x="522" y="-45.5" font-family="Helvetica,sans-Serif" font-size="10.00">sll_s_fekete_order_num</text>
</a>
</g>
</g>
<!-- Node2 -->
<g id="node2" class="node">
<title>Node2</title>
<g id="a_node2"><a xlink:href="namespacesll__m__fekete__integration.html#a000587e1502ac1254502c6e3d3600f26" target="_top" xlink:title="Gives the fekete points coordinates and associated weights for a certain rule in a given triangle.">
<polygon fill="white" stroke="black" points="312,-33 312,-63 420,-63 420,-33 312,-33"/>
<text text-anchor="start" x="320" y="-51" font-family="Helvetica,sans-Serif" font-size="10.00">sll_f_fekete_points</text>
<text text-anchor="middle" x="366" y="-40" font-family="Helvetica,sans-Serif" font-size="10.00">_and_weights</text>
</a>
</g>
</g>
<!-- Node1&#45;&gt;Node2 -->
<g id="edge1" class="edge">
<title>Node1&#45;&gt;Node2</title>
<path fill="none" stroke="midnightblue" d="M445.67,-48C437.09,-48 428.5,-48 420.29,-48"/>
<polygon fill="midnightblue" stroke="midnightblue" points="445.69,-51.5 455.69,-48 445.69,-44.5 445.69,-51.5"/>
</g>
<!-- Node4 -->
<g id="node4" class="node">
<title>Node4</title>
<g id="a_node4"><a xlink:href="namespacesll__m__fekete__integration.html#ac7c05ae36ac69d55d2c022d71e82cae9" target="_top" xlink:title="Writes on a file values of boxsplines on fekete points.">
<polygon fill="white" stroke="black" points="163,-0.5 163,-19.5 273,-19.5 273,-0.5 163,-0.5"/>
<text text-anchor="middle" x="218" y="-7.5" font-family="Helvetica,sans-Serif" font-size="10.00">write_basis_values</text>
</a>
</g>
</g>
<!-- Node1&#45;&gt;Node4 -->
<g id="edge7" class="edge">
<title>Node1&#45;&gt;Node4</title>
<path fill="none" stroke="midnightblue" d="M478.67,-35.74C460.73,-31.01 439.49,-26.02 420,-23 370.58,-15.35 313.66,-12.19 273.03,-10.89"/>
<polygon fill="midnightblue" stroke="midnightblue" points="477.98,-39.18 488.55,-38.4 479.81,-32.42 477.98,-39.18"/>
</g>
<!-- Node6 -->
<g id="node6" class="node">
<title>Node6</title>
<g id="a_node6"><a xlink:href="namespacesll__m__fekete__integration.html#acac4a2483e951c19928f9c4de14738d5" target="_top" xlink:title="Writes fekete points coordinates of a hex&#45;mesh reference triangle.">
<polygon fill="white" stroke="black" points="168,-76.5 168,-95.5 268,-95.5 268,-76.5 168,-76.5"/>
<text text-anchor="middle" x="218" y="-83.5" font-family="Helvetica,sans-Serif" font-size="10.00">write_quadrature</text>
</a>
</g>
</g>
<!-- Node1&#45;&gt;Node6 -->
<g id="edge8" class="edge">
<title>Node1&#45;&gt;Node6</title>
<path fill="none" stroke="midnightblue" d="M477.14,-60.07C459.51,-64.49 438.91,-69.11 420,-72 368.65,-79.84 309.24,-83.29 268.4,-84.81"/>
<polygon fill="midnightblue" stroke="midnightblue" points="478.33,-63.38 487.14,-57.51 476.59,-56.6 478.33,-63.38"/>
</g>
<!-- Node3 -->
<g id="node3" class="node">
<title>Node3</title>
<g id="a_node3"><a xlink:href="namespacesll__m__fekete__integration.html#a965046179c23cc4266786eb3e10c3b43" target="_top" xlink:title="Fekete quadrature rule over a triangle.">
<polygon fill="white" stroke="black" points="160,-38.5 160,-57.5 276,-57.5 276,-38.5 160,-38.5"/>
<text text-anchor="middle" x="218" y="-45.5" font-family="Helvetica,sans-Serif" font-size="10.00">sll_f_fekete_integral</text>
</a>
</g>
</g>
<!-- Node2&#45;&gt;Node3 -->
<g id="edge2" class="edge">
<title>Node2&#45;&gt;Node3</title>
<path fill="none" stroke="midnightblue" d="M301.69,-48C293.24,-48 284.61,-48 276.27,-48"/>
<polygon fill="midnightblue" stroke="midnightblue" points="301.88,-51.5 311.88,-48 301.88,-44.5 301.88,-51.5"/>
</g>
<!-- Node2&#45;&gt;Node4 -->
<g id="edge3" class="edge">
<title>Node2&#45;&gt;Node4</title>
<path fill="none" stroke="midnightblue" d="M302.15,-31.64C286.36,-27.53 269.92,-23.25 255.87,-19.6"/>
<polygon fill="midnightblue" stroke="midnightblue" points="301.32,-35.04 311.88,-34.17 303.08,-28.27 301.32,-35.04"/>
</g>
<!-- Node2&#45;&gt;Node6 -->
<g id="edge5" class="edge">
<title>Node2&#45;&gt;Node6</title>
<path fill="none" stroke="midnightblue" d="M302.15,-64.36C286.36,-68.47 269.92,-72.75 255.87,-76.4"/>
<polygon fill="midnightblue" stroke="midnightblue" points="303.08,-67.73 311.88,-61.83 301.32,-60.96 303.08,-67.73"/>
</g>
<!-- Node5 -->
<g id="node5" class="node">
<title>Node5</title>
<g id="a_node5"><a xlink:href="namespacesll__m__fekete__integration.html#adceb8456a1011a2bb4dcecfd28374463" target="_top" xlink:title="This function is supposed to write all django input files needed for a Django/Jorek simulation.">
<polygon fill="white" stroke="black" points="0,-33 0,-63 124,-63 124,-33 0,-33"/>
<text text-anchor="start" x="8" y="-51" font-family="Helvetica,sans-Serif" font-size="10.00">sll_s_write_all_django</text>
<text text-anchor="middle" x="62" y="-40" font-family="Helvetica,sans-Serif" font-size="10.00">_files</text>
</a>
</g>
</g>
<!-- Node4&#45;&gt;Node5 -->
<g id="edge4" class="edge">
<title>Node4&#45;&gt;Node5</title>
<path fill="none" stroke="midnightblue" d="M168.21,-22.04C154.18,-25.5 138.7,-29.32 124.03,-32.94"/>
<polygon fill="midnightblue" stroke="midnightblue" points="169.27,-25.38 178.14,-19.59 167.59,-18.59 169.27,-25.38"/>
</g>
<!-- Node6&#45;&gt;Node5 -->
<g id="edge6" class="edge">
<title>Node6&#45;&gt;Node5</title>
<path fill="none" stroke="midnightblue" d="M168.21,-73.96C154.18,-70.5 138.7,-66.68 124.03,-63.06"/>
<polygon fill="midnightblue" stroke="midnightblue" points="167.59,-77.41 178.14,-76.41 169.27,-70.62 167.59,-77.41"/>
</g>
</g>
</svg>
        <g id="navigator" transform="translate(0 0)" fill="#404254">
                <rect fill="#f2f5e9" fill-opacity="0.5" stroke="#606060" stroke-width=".5" x="0" y="0" width="60" height="60"/>
                <use id="zoomplus" xlink:href="#zoomPlus" x="17" y="9" onmousedown="handleZoom(evt,'in')"/>
                <use id="zoomminus" xlink:href="#zoomMin" x="42" y="9" onmousedown="handleZoom(evt,'out')"/>
                <use id="reset" xlink:href="#resetDef" x="30" y="36" onmousedown="handleReset()"/>
                <g id="arrowUp" xlink:href="#dirArrow" transform="translate(30 24)" onmousedown="handlePan(0,-1)">
                  <use xlink:href="#rim" fill="#404040">
                        <set attributeName="fill" to="#808080" begin="arrowUp.mouseover" end="arrowUp.mouseout"/>
                  </use>
                  <path fill="none" stroke="white" stroke-width="1.5" d="M0,-3.0v7 M-2.5,-0.5L0,-3.0L2.5,-0.5"/>
                </g>
                <g id="arrowRight" xlink:href="#dirArrow" transform="rotate(90) translate(36 -43)" onmousedown="handlePan(1,0)">
                  <use xlink:href="#rim" fill="#404040">
                        <set attributeName="fill" to="#808080" begin="arrowRight.mouseover" end="arrowRight.mouseout"/>
                  </use>
                  <path fill="none" stroke="white" stroke-width="1.5" d="M0,-3.0v7 M-2.5,-0.5L0,-3.0L2.5,-0.5"/>
                </g>
                <g id="arrowDown" xlink:href="#dirArrow" transform="rotate(180) translate(-30 -48)" onmousedown="handlePan(0,1)">
                  <use xlink:href="#rim" fill="#404040">
                        <set attributeName="fill" to="#808080" begin="arrowDown.mouseover" end="arrowDown.mouseout"/>
                  </use>
                  <path fill="none" stroke="white" stroke-width="1.5" d="M0,-3.0v7 M-2.5,-0.5L0,-3.0L2.5,-0.5"/>
                </g>
                <g id="arrowLeft" xlink:href="#dirArrow" transform="rotate(270) translate(-36 17)" onmousedown="handlePan(-1,0)">
                  <use xlink:href="#rim" fill="#404040">
                        <set attributeName="fill" to="#808080" begin="arrowLeft.mouseover" end="arrowLeft.mouseout"/>
                  </use>
                  <path fill="none" stroke="white" stroke-width="1.5" d="M0,-3.0v7 M-2.5,-0.5L0,-3.0L2.5,-0.5"/>
                </g>
        </g>
        <svg viewBox="0 0 15 15" width="100%" height="30px" preserveAspectRatio="xMaxYMin meet">
         <g id="arrow_out" transform="scale(0.3 0.3)">
          <a xlink:href="namespacesll__m__fekete__integration_a0f14c18e1a21285d9a7d808077677951_icgraph_org.svg" target="_base">
           <rect id="button" ry="5" rx="5" y="6" x="6" height="38" width="38"
                fill="#f2f5e9" fill-opacity="0.5" stroke="#606060" stroke-width="1.0"/>
           <path id="arrow"
             d="M 11.500037,31.436501 C 11.940474,20.09759 22.043105,11.32322 32.158766,21.979434 L 37.068811,17.246167 C 37.068811,17.246167 37.088388,32 37.088388,32 L 22.160133,31.978069 C 22.160133,31.978069 26.997745,27.140456 26.997745,27.140456 C 18.528582,18.264221 13.291696,25.230495 11.500037,31.436501 z"
             style="fill:#404040;"/>
          </a>
         </g>
        </svg>
</svg>
