<?xml version="1.0" encoding="UTF-8" standalone="no"?>
<!DOCTYPE svg PUBLIC "-//W3C//DTD SVG 1.1//EN"
 "http://www.w3.org/Graphics/SVG/1.1/DTD/svg11.dtd">
<!-- Generated by graphviz version 2.40.1 (20161225.0304)
 -->
<!-- Title: sll_f_boxspline_x1_derivative Pages: 1 -->
<svg width="647pt" height="39pt"
 viewBox="0.00 0.00 647.00 39.00" xmlns="http://www.w3.org/2000/svg" xmlns:xlink="http://www.w3.org/1999/xlink">
<g id="graph0" class="graph" transform="scale(1 1) rotate(0) translate(4 35)">
<title>sll_f_boxspline_x1_derivative</title>
<polygon fill="#ffffff" stroke="transparent" points="-4,4 -4,-35 643,-35 643,4 -4,4"/>
<!-- Node75 -->
<g id="node1" class="node">
<title>Node75</title>
<polygon fill="#bfbfbf" stroke="#000000" points="0,-.5 0,-30.5 107,-30.5 107,-.5 0,-.5"/>
<text text-anchor="start" x="8" y="-18.5" font-family="Helvetica,sans-Serif" font-size="10.00" fill="#000000">sll_f_boxspline_x1</text>
<text text-anchor="middle" x="53.5" y="-7.5" font-family="Helvetica,sans-Serif" font-size="10.00" fill="#000000">_derivative</text>
</g>
<!-- Node76 -->
<g id="node2" class="node">
<title>Node76</title>
<g id="a_node2"><a xlink:href="namespacesll__m__box__splines.html#a0f40714993a4e4bdcf19d5798130ae75" target="_top" xlink:title="Computes the values or derivatives of box splines. ">
<polygon fill="#ffffff" stroke="#000000" points="143,-6 143,-25 274,-25 274,-6 143,-6"/>
<text text-anchor="middle" x="208.5" y="-13" font-family="Helvetica,sans-Serif" font-size="10.00" fill="#000000">sll_f_boxspline_val_der</text>
</a>
</g>
</g>
<!-- Node75&#45;&gt;Node76 -->
<g id="edge1" class="edge">
<title>Node75&#45;&gt;Node76</title>
<path fill="none" stroke="#191970" d="M117.3737,-15.5C125.7636,-15.5 134.3735,-15.5 142.7933,-15.5"/>
<polygon fill="#191970" stroke="#191970" points="117.2765,-12.0001 107.2765,-15.5 117.2764,-19.0001 117.2765,-12.0001"/>
</g>
<!-- Node77 -->
<g id="node3" class="node">
<title>Node77</title>
<g id="a_node3"><a xlink:href="namespacesll__m__fekete__integration.html#ac7c05ae36ac69d55d2c022d71e82cae9" target="_top" xlink:title="Writes on a file values of boxsplines on fekete points. ">
<polygon fill="#ffffff" stroke="#000000" points="310,-.5 310,-30.5 448,-30.5 448,-.5 310,-.5"/>
<text text-anchor="start" x="318" y="-18.5" font-family="Helvetica,sans-Serif" font-size="10.00" fill="#000000">sll_m_fekete_integration</text>
<text text-anchor="middle" x="379" y="-7.5" font-family="Helvetica,sans-Serif" font-size="10.00" fill="#000000">::write_basis_values</text>
</a>
</g>
</g>
<!-- Node76&#45;&gt;Node77 -->
<g id="edge2" class="edge">
<title>Node76&#45;&gt;Node77</title>
<path fill="none" stroke="#191970" d="M284.6007,-15.5C293.0145,-15.5 301.5486,-15.5 309.87,-15.5"/>
<polygon fill="#191970" stroke="#191970" points="284.4198,-12.0001 274.4198,-15.5 284.4197,-19.0001 284.4198,-12.0001"/>
</g>
<!-- Node78 -->
<g id="node4" class="node">
<title>Node78</title>
<g id="a_node4"><a xlink:href="namespacesll__m__fekete__integration.html#adceb8456a1011a2bb4dcecfd28374463" target="_top" xlink:title="This function is supposed to write all django input files needed for a Django/Jorek simulation...">
<polygon fill="#ffffff" stroke="#000000" points="484,-.5 484,-30.5 639,-30.5 639,-.5 484,-.5"/>
<text text-anchor="start" x="492" y="-18.5" font-family="Helvetica,sans-Serif" font-size="10.00" fill="#000000">sll_m_fekete_integration</text>
<text text-anchor="middle" x="561.5" y="-7.5" font-family="Helvetica,sans-Serif" font-size="10.00" fill="#000000">::sll_s_write_all_django_files</text>
</a>
</g>
</g>
<!-- Node77&#45;&gt;Node78 -->
<g id="edge3" class="edge">
<title>Node77&#45;&gt;Node78</title>
<path fill="none" stroke="#191970" d="M458.4184,-15.5C466.8214,-15.5 475.3606,-15.5 483.7443,-15.5"/>
<polygon fill="#191970" stroke="#191970" points="458.2557,-12.0001 448.2556,-15.5 458.2556,-19.0001 458.2557,-12.0001"/>
</g>
</g>
</svg>
