<?xml version="1.0" encoding="UTF-8" standalone="no"?>
<!DOCTYPE svg PUBLIC "-//W3C//DTD SVG 1.1//EN"
 "http://www.w3.org/Graphics/SVG/1.1/DTD/svg11.dtd">
<!-- Generated by graphviz version 2.40.1 (20161225.0304)
 -->
<!-- Title: add_current_update_v_spline_pp_1d Pages: 1 -->
<svg width="651pt" height="72pt"
 viewBox="0.00 0.00 651.00 71.50" xmlns="http://www.w3.org/2000/svg" xmlns:xlink="http://www.w3.org/1999/xlink">
<g id="graph0" class="graph" transform="scale(1 1) rotate(0) translate(4 67.5)">
<title>add_current_update_v_spline_pp_1d</title>
<polygon fill="#ffffff" stroke="transparent" points="-4,4 -4,-67.5 647,-67.5 647,4 -4,4"/>
<!-- Node21 -->
<g id="node1" class="node">
<title>Node21</title>
<polygon fill="#bfbfbf" stroke="#000000" points="0,-19.5 0,-49.5 113,-49.5 113,-19.5 0,-19.5"/>
<text text-anchor="start" x="8" y="-37.5" font-family="Helvetica,sans-Serif" font-size="10.00" fill="#000000">add_current_update</text>
<text text-anchor="middle" x="56.5" y="-26.5" font-family="Helvetica,sans-Serif" font-size="10.00" fill="#000000">_v_spline_pp_1d</text>
</g>
<!-- Node22 -->
<g id="node2" class="node">
<title>Node22</title>
<g id="a_node2"><a xlink:href="namespacesll__m__particle__mesh__coupling__spline__1d.html#acd3198a72571d1253f83aaa909e67031" target="_top" xlink:title="Helper function that identifies in which box the particle is found and its normalized poistion in the...">
<polygon fill="#ffffff" stroke="#000000" points="149,-44 149,-63 258,-63 258,-44 149,-44"/>
<text text-anchor="middle" x="203.5" y="-51" font-family="Helvetica,sans-Serif" font-size="10.00" fill="#000000">convert_x_to_xbox</text>
</a>
</g>
</g>
<!-- Node21&#45;&gt;Node22 -->
<g id="edge1" class="edge">
<title>Node21&#45;&gt;Node22</title>
<path fill="none" stroke="#191970" d="M113.334,-41.8459C121.6052,-42.915 130.1735,-44.0224 138.5896,-45.1102"/>
<polygon fill="#191970" stroke="#191970" points="138.3834,-48.6126 148.7496,-46.4234 139.2807,-41.6703 138.3834,-48.6126"/>
</g>
<!-- Node23 -->
<g id="node3" class="node">
<title>Node23</title>
<g id="a_node3"><a xlink:href="namespacesll__m__particle__mesh__coupling__spline__1d.html#a92e471387d403a8ea29430c0b18a5656" target="_top" xlink:title="Helper function for add_current_update_v. ">
<polygon fill="#ffffff" stroke="#000000" points="162.5,-6 162.5,-25 244.5,-25 244.5,-6 162.5,-6"/>
<text text-anchor="middle" x="203.5" y="-13" font-family="Helvetica,sans-Serif" font-size="10.00" fill="#000000">update_jv_pp</text>
</a>
</g>
</g>
<!-- Node21&#45;&gt;Node23 -->
<g id="edge2" class="edge">
<title>Node21&#45;&gt;Node23</title>
<path fill="none" stroke="#191970" d="M113.334,-27.1541C126.0841,-25.5061 139.5405,-23.7669 152.0564,-22.1492"/>
<polygon fill="#191970" stroke="#191970" points="152.8437,-25.5766 162.3125,-20.8236 151.9463,-18.6344 152.8437,-25.5766"/>
</g>
<!-- Node24 -->
<g id="node4" class="node">
<title>Node24</title>
<g id="a_node4"><a xlink:href="namespacesll__m__splines__pp.html#a5a7f10f3cdf461f4729d5f0782908cd8" target="_top" xlink:title="Perform a 1d hornerschema on the pp_coeffs evaluate at x. ">
<polygon fill="#ffffff" stroke="#000000" points="294,-.5 294,-30.5 476,-30.5 476,-.5 294,-.5"/>
<text text-anchor="start" x="302" y="-18.5" font-family="Helvetica,sans-Serif" font-size="10.00" fill="#000000">sll_m_splines_pp::sll</text>
<text text-anchor="middle" x="385" y="-7.5" font-family="Helvetica,sans-Serif" font-size="10.00" fill="#000000">_s_spline_pp_horner_primitive_1d</text>
</a>
</g>
</g>
<!-- Node23&#45;&gt;Node24 -->
<g id="edge3" class="edge">
<title>Node23&#45;&gt;Node24</title>
<path fill="none" stroke="#191970" d="M244.6852,-15.5C256.552,-15.5 270.05,-15.5 283.8735,-15.5"/>
<polygon fill="#191970" stroke="#191970" points="283.9779,-19.0001 293.9779,-15.5 283.9779,-12.0001 283.9779,-19.0001"/>
</g>
<!-- Node25 -->
<g id="node5" class="node">
<title>Node25</title>
<g id="a_node5"><a xlink:href="namespacesll__m__splines__pp.html#ab63c3a25b861ed9b8701ae2f65942bcf" target="_top" xlink:title="Perform a 1d hornerschema on the pp_coeffs at index. ">
<polygon fill="#ffffff" stroke="#000000" points="512,-.5 512,-30.5 643,-30.5 643,-.5 512,-.5"/>
<text text-anchor="start" x="520" y="-18.5" font-family="Helvetica,sans-Serif" font-size="10.00" fill="#000000">sll_m_splines_pp::sll</text>
<text text-anchor="middle" x="577.5" y="-7.5" font-family="Helvetica,sans-Serif" font-size="10.00" fill="#000000">_f_spline_pp_horner_1d</text>
</a>
</g>
</g>
<!-- Node24&#45;&gt;Node25 -->
<g id="edge4" class="edge">
<title>Node24&#45;&gt;Node25</title>
<path fill="none" stroke="#191970" d="M476.1764,-15.5C484.7433,-15.5 493.3639,-15.5 501.7658,-15.5"/>
<polygon fill="#191970" stroke="#191970" points="501.8875,-19.0001 511.8875,-15.5 501.8874,-12.0001 501.8875,-19.0001"/>
</g>
</g>
</svg>
