<?xml version="1.0" encoding="UTF-8" standalone="no"?>
<!DOCTYPE svg PUBLIC "-//W3C//DTD SVG 1.1//EN"
 "http://www.w3.org/Graphics/SVG/1.1/DTD/svg11.dtd">
<!-- Generated by graphviz version 2.40.1 (20161225.0304)
 -->
<!-- Title: loop1_clamped Pages: 1 -->
<!--zoomable 149 -->
<svg id="main" version="1.1" xmlns="http://www.w3.org/2000/svg" xmlns:xlink="http://www.w3.org/1999/xlink" xml:space="preserve" onload="init(evt)">
<style type="text/css"><![CDATA[
.edge:hover path { stroke: red; }
.edge:hover polygon { stroke: red; fill: red; }
]]></style>
<script type="text/javascript"><![CDATA[
var edges = document.getElementsByTagName('g');
if (edges && edges.length) {
  for (var i=0;i<edges.length;i++) {
    if (edges[i].id.substr(0,4)=='edge') {
      edges[i].setAttribute('class','edge');
    }
  }
}
]]></script>
        <defs>
                <circle id="rim" cx="0" cy="0" r="7"/>
                <circle id="rim2" cx="0" cy="0" r="3.5"/>
                <g id="zoomPlus">
                        <use xlink:href="#rim" fill="#404040">
                                <set attributeName="fill" to="#808080" begin="zoomplus.mouseover" end="zoomplus.mouseout"/>
                        </use>
                        <path d="M-4,0h8M0,-4v8" fill="none" stroke="white" stroke-width="1.5" pointer-events="none"/>
                </g>
                <g id="zoomMin">
                        <use xlink:href="#rim" fill="#404040">
                                <set attributeName="fill" to="#808080" begin="zoomminus.mouseover" end="zoomminus.mouseout"/>
                        </use>
                        <path d="M-4,0h8" fill="none" stroke="white" stroke-width="1.5" pointer-events="none"/>
                </g>
                <g id="dirArrow">
                        <path fill="none" stroke="white" stroke-width="1.5" d="M0,-3.0v7 M-2.5,-0.5L0,-3.0L2.5,-0.5"/>
                </g>
               <g id="resetDef">
                       <use xlink:href="#rim2" fill="#404040">
                               <set attributeName="fill" to="#808080" begin="reset.mouseover" end="reset.mouseout"/>
                       </use>
               </g>
        </defs>

<script type="text/javascript">
var viewWidth = 757;
var viewHeight = 149;
var sectionId = 'dynsection-22';
</script>
<script xlink:href="svgpan.js"/>
<svg id="graph" class="graph">
<g id="viewport">
<title>loop1_clamped</title>
<polygon fill="#ffffff" stroke="transparent" points="-4,4 -4,-144.5 753,-144.5 753,4 -4,4"/>
<!-- Node112 -->
<g id="node1" class="node">
<title>Node112</title>
<polygon fill="#bfbfbf" stroke="#000000" points="0,-38.5 0,-57.5 91,-57.5 91,-38.5 0,-38.5"/>
<text text-anchor="middle" x="45.5" y="-45.5" font-family="Helvetica,sans-Serif" font-size="10.00" fill="#000000">loop1_clamped</text>
</g>
<!-- Node113 -->
<g id="node2" class="node">
<title>Node113</title>
<g id="a_node2"><a xlink:href="namespacesll__m__spline__fem__utilities__3d__helper.html#abca14330dede016f8219ca37f8f1d538" target="_top" xlink:title="loop2_clamped">
<polygon fill="#ffffff" stroke="#000000" points="127,-38.5 127,-57.5 218,-57.5 218,-38.5 127,-38.5"/>
<text text-anchor="middle" x="172.5" y="-45.5" font-family="Helvetica,sans-Serif" font-size="10.00" fill="#000000">loop2_clamped</text>
</a>
</g>
</g>
<!-- Node112&#45;&gt;Node113 -->
<g id="edge1" class="edge">
<title>Node112&#45;&gt;Node113</title>
<path fill="none" stroke="#191970" d="M101.5013,-48C109.9297,-48 118.5368,-48 126.7174,-48"/>
<polygon fill="#191970" stroke="#191970" points="101.3499,-44.5001 91.3499,-48 101.3499,-51.5001 101.3499,-44.5001"/>
</g>
<!-- Node114 -->
<g id="node3" class="node">
<title>Node114</title>
<g id="a_node3"><a xlink:href="namespacesll__m__spline__fem__utilities__3d__helper.html#ae7066c91481b1377f78f61a0895ee406" target="_top" xlink:title="Helper function to create sparsity pattern of the 3d clamped mass matrix. ">
<polygon fill="#ffffff" stroke="#000000" points="254,-33 254,-63 396,-63 396,-33 254,-33"/>
<text text-anchor="start" x="262" y="-51" font-family="Helvetica,sans-Serif" font-size="10.00" fill="#000000">sll_s_spline_fem_sparsity</text>
<text text-anchor="middle" x="325" y="-40" font-family="Helvetica,sans-Serif" font-size="10.00" fill="#000000">_mass3d_clamped</text>
</a>
</g>
</g>
<!-- Node113&#45;&gt;Node114 -->
<g id="edge2" class="edge">
<title>Node113&#45;&gt;Node114</title>
<path fill="none" stroke="#191970" d="M228.5039,-48C236.7648,-48 245.3676,-48 253.8845,-48"/>
<polygon fill="#191970" stroke="#191970" points="228.2551,-44.5001 218.255,-48 228.255,-51.5001 228.2551,-44.5001"/>
</g>
<!-- Node115 -->
<g id="node4" class="node">
<title>Node115</title>
<g id="a_node4"><a xlink:href="namespacesll__m__spline__fem__utilities__3d__clamped.html#a4fceedb527087eaedb3605232a9f1398" target="_top" xlink:title="Set up 3d clamped mass matrix for specific spline degrees and profile function. ">
<polygon fill="#ffffff" stroke="#000000" points="432,-53.5 432,-94.5 576,-94.5 576,-53.5 432,-53.5"/>
<text text-anchor="start" x="440" y="-82.5" font-family="Helvetica,sans-Serif" font-size="10.00" fill="#000000">sll_m_spline_fem_utilities</text>
<text text-anchor="start" x="440" y="-71.5" font-family="Helvetica,sans-Serif" font-size="10.00" fill="#000000">_3d_clamped::sll_s_spline</text>
<text text-anchor="middle" x="504" y="-60.5" font-family="Helvetica,sans-Serif" font-size="10.00" fill="#000000">_fem_mass3d_clamped</text>
</a>
</g>
</g>
<!-- Node114&#45;&gt;Node115 -->
<g id="edge3" class="edge">
<title>Node114&#45;&gt;Node115</title>
<path fill="none" stroke="#191970" d="M406.0551,-59.7734C414.6761,-61.0256 423.4026,-62.2931 431.9107,-63.5289"/>
<polygon fill="#191970" stroke="#191970" points="406.4019,-56.2871 396.0026,-58.3132 405.3957,-63.2144 406.4019,-56.2871"/>
</g>
<!-- Node118 -->
<g id="node7" class="node">
<title>Node118</title>
<g id="a_node7"><a xlink:href="namespacesll__m__maxwell__clamped__3d__trafo__parallel.html#ae0872c3bfa3cc2f7b7f3aaca4fd8838e" target="_top" xlink:title="sll_m_maxwell_clamped\l_3d_trafo_parallel::init\l_3d_trafo_parallel">
<polygon fill="#ffffff" stroke="#000000" points="612,-.5 612,-41.5 749,-41.5 749,-.5 612,-.5"/>
<text text-anchor="start" x="620" y="-29.5" font-family="Helvetica,sans-Serif" font-size="10.00" fill="#000000">sll_m_maxwell_clamped</text>
<text text-anchor="start" x="620" y="-18.5" font-family="Helvetica,sans-Serif" font-size="10.00" fill="#000000">_3d_trafo_parallel::init</text>
<text text-anchor="middle" x="680.5" y="-7.5" font-family="Helvetica,sans-Serif" font-size="10.00" fill="#000000">_3d_trafo_parallel</text>
</a>
</g>
</g>
<!-- Node114&#45;&gt;Node118 -->
<g id="edge7" class="edge">
<title>Node114&#45;&gt;Node118</title>
<path fill="none" stroke="#191970" d="M406.2505,-41.8291C468.4186,-37.1074 553.1857,-30.6694 611.9527,-26.2061"/>
<polygon fill="#191970" stroke="#191970" points="405.7925,-38.3537 396.0863,-42.601 406.3227,-45.3336 405.7925,-38.3537"/>
</g>
<!-- Node116 -->
<g id="node5" class="node">
<title>Node116</title>
<g id="a_node5"><a xlink:href="namespacesll__m__maxwell__clamped__3d__fem.html#afadba212d3f01a688b12c751068d1707" target="_top" xlink:title="Initialization. ">
<polygon fill="#ffffff" stroke="#000000" points="612,-110 612,-140 749,-140 749,-110 612,-110"/>
<text text-anchor="start" x="620" y="-128" font-family="Helvetica,sans-Serif" font-size="10.00" fill="#000000">sll_m_maxwell_clamped</text>
<text text-anchor="middle" x="680.5" y="-117" font-family="Helvetica,sans-Serif" font-size="10.00" fill="#000000">_3d_fem::init_3d_fem</text>
</a>
</g>
</g>
<!-- Node115&#45;&gt;Node116 -->
<g id="edge4" class="edge">
<title>Node115&#45;&gt;Node116</title>
<path fill="none" stroke="#191970" d="M584.7075,-97.3206C599.5293,-101.6034 614.6369,-105.9687 628.3416,-109.9287"/>
<polygon fill="#191970" stroke="#191970" points="585.605,-93.9368 575.0264,-94.5232 583.6617,-100.6617 585.605,-93.9368"/>
</g>
<!-- Node117 -->
<g id="node6" class="node">
<title>Node117</title>
<g id="a_node6"><a xlink:href="namespacesll__m__maxwell__clamped__3d__trafo.html#ab614fb88d34d5e55292639d8db6b0353" target="_top" xlink:title="Initialization. ">
<polygon fill="#ffffff" stroke="#000000" points="612,-61 612,-91 749,-91 749,-61 612,-61"/>
<text text-anchor="start" x="620" y="-79" font-family="Helvetica,sans-Serif" font-size="10.00" fill="#000000">sll_m_maxwell_clamped</text>
<text text-anchor="middle" x="680.5" y="-68" font-family="Helvetica,sans-Serif" font-size="10.00" fill="#000000">_3d_trafo::init_3d_trafo</text>
</a>
</g>
</g>
<!-- Node115&#45;&gt;Node117 -->
<g id="edge5" class="edge">
<title>Node115&#45;&gt;Node117</title>
<path fill="none" stroke="#191970" d="M586.0924,-74.9302C594.6997,-75.0278 603.3856,-75.1262 611.8203,-75.2218"/>
<polygon fill="#191970" stroke="#191970" points="586.0829,-71.43 576.0439,-74.8164 586.0035,-78.4295 586.0829,-71.43"/>
</g>
<!-- Node115&#45;&gt;Node118 -->
<g id="edge6" class="edge">
<title>Node115&#45;&gt;Node118</title>
<path fill="none" stroke="#191970" d="M582.3246,-50.4804C592.2322,-47.5054 602.3088,-44.4795 612.0464,-41.5555"/>
<polygon fill="#191970" stroke="#191970" points="581.063,-47.2048 572.4921,-53.433 583.0763,-53.9091 581.063,-47.2048"/>
</g>
</g>
</svg>
        <g id="navigator" transform="translate(0 0)" fill="#404254">
                <rect fill="#f2f5e9" fill-opacity="0.5" stroke="#606060" stroke-width=".5" x="0" y="0" width="60" height="60"/>
                <use id="zoomplus" xlink:href="#zoomPlus" x="17" y="9" onmousedown="handleZoom(evt,'in')"/>
                <use id="zoomminus" xlink:href="#zoomMin" x="42" y="9" onmousedown="handleZoom(evt,'out')"/>
                <use id="reset" xlink:href="#resetDef" x="30" y="36" onmousedown="handleReset()"/>
                <g id="arrowUp" xlink:href="#dirArrow" transform="translate(30 24)" onmousedown="handlePan(0,-1)">
                  <use xlink:href="#rim" fill="#404040">
                        <set attributeName="fill" to="#808080" begin="arrowUp.mouseover" end="arrowUp.mouseout"/>
                  </use>
                  <path fill="none" stroke="white" stroke-width="1.5" d="M0,-3.0v7 M-2.5,-0.5L0,-3.0L2.5,-0.5"/>
                </g>
                <g id="arrowRight" xlink:href="#dirArrow" transform="rotate(90) translate(36 -43)" onmousedown="handlePan(1,0)">
                  <use xlink:href="#rim" fill="#404040">
                        <set attributeName="fill" to="#808080" begin="arrowRight.mouseover" end="arrowRight.mouseout"/>
                  </use>
                  <path fill="none" stroke="white" stroke-width="1.5" d="M0,-3.0v7 M-2.5,-0.5L0,-3.0L2.5,-0.5"/>
                </g>
                <g id="arrowDown" xlink:href="#dirArrow" transform="rotate(180) translate(-30 -48)" onmousedown="handlePan(0,1)">
                  <use xlink:href="#rim" fill="#404040">
                        <set attributeName="fill" to="#808080" begin="arrowDown.mouseover" end="arrowDown.mouseout"/>
                  </use>
                  <path fill="none" stroke="white" stroke-width="1.5" d="M0,-3.0v7 M-2.5,-0.5L0,-3.0L2.5,-0.5"/>
                </g>
                <g id="arrowLeft" xlink:href="#dirArrow" transform="rotate(270) translate(-36 17)" onmousedown="handlePan(-1,0)">
                  <use xlink:href="#rim" fill="#404040">
                        <set attributeName="fill" to="#808080" begin="arrowLeft.mouseover" end="arrowLeft.mouseout"/>
                  </use>
                  <path fill="none" stroke="white" stroke-width="1.5" d="M0,-3.0v7 M-2.5,-0.5L0,-3.0L2.5,-0.5"/>
                </g>
        </g>
        <svg viewBox="0 0 15 15" width="100%" height="30px" preserveAspectRatio="xMaxYMin meet">
         <g id="arrow_out" transform="scale(0.3 0.3)">
          <a xlink:href="namespacesll__m__spline__fem__utilities__3d__helper_a4d35e85f4e35c1fee94adab95f84bb46_icgraph_org.svg" target="_base">
           <rect id="button" ry="5" rx="5" y="6" x="6" height="38" width="38"
                fill="#f2f5e9" fill-opacity="0.5" stroke="#606060" stroke-width="1.0"/>
           <path id="arrow"
             d="M 11.500037,31.436501 C 11.940474,20.09759 22.043105,11.32322 32.158766,21.979434 L 37.068811,17.246167 C 37.068811,17.246167 37.088388,32 37.088388,32 L 22.160133,31.978069 C 22.160133,31.978069 26.997745,27.140456 26.997745,27.140456 C 18.528582,18.264221 13.291696,25.230495 11.500037,31.436501 z"
             style="fill:#404040;"/>
          </a>
         </g>
        </svg>
</svg>
