<?xml version="1.0" encoding="UTF-8" standalone="no"?>
<!DOCTYPE svg PUBLIC "-//W3C//DTD SVG 1.1//EN"
 "http://www.w3.org/Graphics/SVG/1.1/DTD/svg11.dtd">
<!-- Generated by graphviz version 2.40.1 (20161225.0304)
 -->
<!-- Title: sll_s_csr_matrix_mp_init Pages: 1 -->
<svg width="631pt" height="83pt"
 viewBox="0.00 0.00 631.00 83.00" xmlns="http://www.w3.org/2000/svg" xmlns:xlink="http://www.w3.org/1999/xlink">
<g id="graph0" class="graph" transform="scale(1 1) rotate(0) translate(4 79)">
<title>sll_s_csr_matrix_mp_init</title>
<polygon fill="#ffffff" stroke="transparent" points="-4,4 -4,-79 627,-79 627,4 -4,4"/>
<!-- Node23 -->
<g id="node1" class="node">
<title>Node23</title>
<polygon fill="#bfbfbf" stroke="#000000" points="0,-28 0,-47 137,-47 137,-28 0,-28"/>
<text text-anchor="middle" x="68.5" y="-35" font-family="Helvetica,sans-Serif" font-size="10.00" fill="#000000">sll_s_csr_matrix_mp_init</text>
</g>
<!-- Node24 -->
<g id="node2" class="node">
<title>Node24</title>
<g id="a_node2"><a xlink:href="namespacesll__m__sparse__matrix__mp.html#a1fb3bbe4559d8215826da696a5986d54" target="_top" xlink:title="sll_count_non_zero\l_elts_mp">
<polygon fill="#ffffff" stroke="#000000" points="188,-44.5 188,-74.5 298,-74.5 298,-44.5 188,-44.5"/>
<text text-anchor="start" x="196" y="-62.5" font-family="Helvetica,sans-Serif" font-size="10.00" fill="#000000">sll_count_non_zero</text>
<text text-anchor="middle" x="243" y="-51.5" font-family="Helvetica,sans-Serif" font-size="10.00" fill="#000000">_elts_mp</text>
</a>
</g>
</g>
<!-- Node23&#45;&gt;Node24 -->
<g id="edge1" class="edge">
<title>Node23&#45;&gt;Node24</title>
<path fill="none" stroke="#191970" d="M137.2165,-46.1634C150.5928,-47.8498 164.5783,-49.613 177.8357,-51.2844"/>
<polygon fill="#191970" stroke="#191970" points="177.4503,-54.7635 187.8096,-52.5419 178.3259,-47.8185 177.4503,-54.7635"/>
</g>
<!-- Node25 -->
<g id="node3" class="node">
<title>Node25</title>
<g id="a_node3"><a xlink:href="namespacesll__m__sparse__matrix__mp.html#abc1c3727deb98451291669211b354eb0" target="_top" xlink:title="sll_init_sparsematrix_mp">
<polygon fill="#ffffff" stroke="#000000" points="173,-6 173,-25 313,-25 313,-6 173,-6"/>
<text text-anchor="middle" x="243" y="-13" font-family="Helvetica,sans-Serif" font-size="10.00" fill="#000000">sll_init_sparsematrix_mp</text>
</a>
</g>
</g>
<!-- Node23&#45;&gt;Node25 -->
<g id="edge2" class="edge">
<title>Node23&#45;&gt;Node25</title>
<path fill="none" stroke="#191970" d="M137.2165,-28.8366C145.6482,-27.7736 154.322,-26.68 162.9029,-25.5982"/>
<polygon fill="#191970" stroke="#191970" points="163.4298,-29.0596 172.9134,-24.3361 162.5541,-22.1146 163.4298,-29.0596"/>
</g>
<!-- Node26 -->
<g id="node4" class="node">
<title>Node26</title>
<g id="a_node4"><a xlink:href="namespacesll__m__qsort__partition.html#a2ce333a69b25b96185626ef494f55971" target="_top" xlink:title="sll_m_qsort_partition\l::sll_s_qsortc">
<polygon fill="#ffffff" stroke="#000000" points="349,-.5 349,-30.5 468,-30.5 468,-.5 349,-.5"/>
<text text-anchor="start" x="357" y="-18.5" font-family="Helvetica,sans-Serif" font-size="10.00" fill="#000000">sll_m_qsort_partition</text>
<text text-anchor="middle" x="408.5" y="-7.5" font-family="Helvetica,sans-Serif" font-size="10.00" fill="#000000">::sll_s_qsortc</text>
</a>
</g>
</g>
<!-- Node25&#45;&gt;Node26 -->
<g id="edge3" class="edge">
<title>Node25&#45;&gt;Node26</title>
<path fill="none" stroke="#191970" d="M313.1869,-15.5C321.6424,-15.5 330.2771,-15.5 338.7266,-15.5"/>
<polygon fill="#191970" stroke="#191970" points="338.917,-19.0001 348.917,-15.5 338.9169,-12.0001 338.917,-19.0001"/>
</g>
<!-- Node27 -->
<g id="node5" class="node">
<title>Node27</title>
<g id="a_node5"><a xlink:href="namespacesll__m__qsort__partition.html#aa1ad128585a5c9195e5903a7bc8f478e" target="_top" xlink:title="sll_m_qsort_partition\l::partition">
<polygon fill="#ffffff" stroke="#000000" points="504,-.5 504,-30.5 623,-30.5 623,-.5 504,-.5"/>
<text text-anchor="start" x="512" y="-18.5" font-family="Helvetica,sans-Serif" font-size="10.00" fill="#000000">sll_m_qsort_partition</text>
<text text-anchor="middle" x="563.5" y="-7.5" font-family="Helvetica,sans-Serif" font-size="10.00" fill="#000000">::partition</text>
</a>
</g>
</g>
<!-- Node26&#45;&gt;Node27 -->
<g id="edge4" class="edge">
<title>Node26&#45;&gt;Node27</title>
<path fill="none" stroke="#191970" d="M468.427,-15.5C476.7244,-15.5 485.3054,-15.5 493.7618,-15.5"/>
<polygon fill="#191970" stroke="#191970" points="493.9877,-19.0001 503.9877,-15.5 493.9877,-12.0001 493.9877,-19.0001"/>
</g>
</g>
</svg>
