<?xml version="1.0" encoding="UTF-8" standalone="no"?>
<!DOCTYPE svg PUBLIC "-//W3C//DTD SVG 1.1//EN"
 "http://www.w3.org/Graphics/SVG/1.1/DTD/svg11.dtd">
<!-- Generated by graphviz version 2.43.0 (0)
 -->
<!-- Title: get_sub_triangle_hex Pages: 1 -->
<svg width="495pt" height="88pt"
 viewBox="0.00 0.00 495.00 88.00" xmlns="http://www.w3.org/2000/svg" xmlns:xlink="http://www.w3.org/1999/xlink">
<g id="graph0" class="graph" transform="scale(1 1) rotate(0) translate(4 84)">
<title>get_sub_triangle_hex</title>
<polygon fill="white" stroke="transparent" points="-4,4 -4,-84 491,-84 491,4 -4,4"/>
<!-- Node1 -->
<g id="node1" class="node">
<title>Node1</title>
<g id="a_node1"><a xlink:title=" ">
<polygon fill="#bfbfbf" stroke="black" points="366,-30 366,-49 487,-49 487,-30 366,-30"/>
<text text-anchor="middle" x="426.5" y="-37" font-family="Helvetica,sans-Serif" font-size="10.00">get_sub_triangle_hex</text>
</a>
</g>
</g>
<!-- Node2 -->
<g id="node2" class="node">
<title>Node2</title>
<g id="a_node2"><a xlink:href="namespacesll__m__interpolation__hex__hermite.html#acabd725d40798f1fec2229e4882041a6" target="_top" xlink:title=" ">
<polygon fill="white" stroke="black" points="185,-49.5 185,-79.5 330,-79.5 330,-49.5 185,-49.5"/>
<text text-anchor="start" x="193" y="-67.5" font-family="Helvetica,sans-Serif" font-size="10.00">base_hsieh_clough_tocher</text>
<text text-anchor="middle" x="257.5" y="-56.5" font-family="Helvetica,sans-Serif" font-size="10.00">_complete</text>
</a>
</g>
</g>
<!-- Node1&#45;&gt;Node2 -->
<g id="edge1" class="edge">
<title>Node1&#45;&gt;Node2</title>
<path fill="none" stroke="midnightblue" d="M355.56,-49.97C347.16,-51.23 338.58,-52.51 330.16,-53.77"/>
<polygon fill="midnightblue" stroke="midnightblue" points="356.31,-53.4 365.68,-48.45 355.27,-46.47 356.31,-53.4"/>
</g>
<!-- Node4 -->
<g id="node4" class="node">
<title>Node4</title>
<g id="a_node4"><a xlink:href="namespacesll__m__interpolation__hex__hermite.html#af4cfb42a75a2f3b731ab6b32acc908e2" target="_top" xlink:title=" ">
<polygon fill="white" stroke="black" points="185,-0.5 185,-30.5 330,-30.5 330,-0.5 185,-0.5"/>
<text text-anchor="start" x="193" y="-18.5" font-family="Helvetica,sans-Serif" font-size="10.00">base_hsieh_clough_tocher</text>
<text text-anchor="middle" x="257.5" y="-7.5" font-family="Helvetica,sans-Serif" font-size="10.00">_reduced</text>
</a>
</g>
</g>
<!-- Node1&#45;&gt;Node4 -->
<g id="edge3" class="edge">
<title>Node1&#45;&gt;Node4</title>
<path fill="none" stroke="midnightblue" d="M355.56,-29.45C347.16,-28.24 338.58,-27.01 330.16,-25.8"/>
<polygon fill="midnightblue" stroke="midnightblue" points="355.28,-32.95 365.68,-30.9 356.28,-26.02 355.28,-32.95"/>
</g>
<!-- Node3 -->
<g id="node3" class="node">
<title>Node3</title>
<g id="a_node3"><a xlink:href="namespacesll__m__interpolation__hex__hermite.html#a9c14ed4e8a770ba4a9e08cad03cc614f" target="_top" xlink:title=" ">
<polygon fill="white" stroke="black" points="0,-30 0,-49 149,-49 149,-30 0,-30"/>
<text text-anchor="middle" x="74.5" y="-37" font-family="Helvetica,sans-Serif" font-size="10.00">sll_s_hermite_interpolation</text>
</a>
</g>
</g>
<!-- Node2&#45;&gt;Node3 -->
<g id="edge2" class="edge">
<title>Node2&#45;&gt;Node3</title>
<path fill="none" stroke="midnightblue" d="M174.87,-53.23C164.71,-51.82 154.39,-50.4 144.45,-49.02"/>
<polygon fill="midnightblue" stroke="midnightblue" points="174.58,-56.72 184.96,-54.62 175.54,-49.78 174.58,-56.72"/>
</g>
<!-- Node4&#45;&gt;Node3 -->
<g id="edge4" class="edge">
<title>Node4&#45;&gt;Node3</title>
<path fill="none" stroke="midnightblue" d="M175.04,-26.3C165.82,-27.52 156.48,-28.76 147.41,-29.97"/>
<polygon fill="midnightblue" stroke="midnightblue" points="175.51,-29.77 184.96,-24.99 174.59,-22.83 175.51,-29.77"/>
</g>
</g>
</svg>
