<?xml version="1.0" encoding="UTF-8" standalone="no"?>
<!DOCTYPE svg PUBLIC "-//W3C//DTD SVG 1.1//EN"
 "http://www.w3.org/Graphics/SVG/1.1/DTD/svg11.dtd">
<!-- Generated by graphviz version 2.38.0 (20140413.2041)
 -->
<!-- Title: sll_f_fekete_points_and_weights Pages: 1 -->
<svg width="413pt" height="161pt"
 viewBox="0.00 0.00 413.00 161.00" xmlns="http://www.w3.org/2000/svg" xmlns:xlink="http://www.w3.org/1999/xlink">
<g id="graph0" class="graph" transform="scale(1 1) rotate(0) translate(4 157)">
<title>sll_f_fekete_points_and_weights</title>
<polygon fill="white" stroke="none" points="-4,4 -4,-157 409,-157 409,4 -4,4"/>
<!-- Node1 -->
<g id="node1" class="node"><title>Node1</title>
<polygon fill="#bfbfbf" stroke="black" points="0,-52 0,-82 98,-82 98,-52 0,-52"/>
<text text-anchor="start" x="8" y="-70" font-family="Helvetica,sans-Serif" font-size="10.00">sll_f_fekete_points</text>
<text text-anchor="middle" x="49" y="-59" font-family="Helvetica,sans-Serif" font-size="10.00">_and_weights</text>
</g>
<!-- Node2 -->
<g id="node2" class="node"><title>Node2</title>
<g id="a_node2"><a xlink:href="namespacesll__m__fekete__integration.html#a0f14c18e1a21285d9a7d808077677951" target="_top" xlink:title="returns the order of a Fekete rule for the triangle. ">
<polygon fill="white" stroke="black" points="136.5,-114.5 136.5,-133.5 256.5,-133.5 256.5,-114.5 136.5,-114.5"/>
<text text-anchor="middle" x="196.5" y="-121.5" font-family="Helvetica,sans-Serif" font-size="10.00">sll_s_fekete_order_num</text>
</a>
</g>
</g>
<!-- Node1&#45;&gt;Node2 -->
<g id="edge1" class="edge"><title>Node1&#45;&gt;Node2</title>
<path fill="none" stroke="midnightblue" d="M80.7252,-82.016C96.4595,-89.4185 116.039,-98.1935 134,-105 139.898,-107.235 146.184,-109.408 152.401,-111.438"/>
<polygon fill="midnightblue" stroke="midnightblue" points="151.457,-114.81 162.047,-114.497 153.574,-108.138 151.457,-114.81"/>
</g>
<!-- Node5 -->
<g id="node5" class="node"><title>Node5</title>
<g id="a_node5"><a xlink:href="namespacesll__m__fekete__integration.html#a27f642a490626a046858fb87eedff174" target="_top" xlink:title="returns the points and weights of a Fekete rule. ">
<polygon fill="white" stroke="black" points="164,-76.5 164,-95.5 229,-95.5 229,-76.5 164,-76.5"/>
<text text-anchor="middle" x="196.5" y="-83.5" font-family="Helvetica,sans-Serif" font-size="10.00">fekete_rule</text>
</a>
</g>
</g>
<!-- Node1&#45;&gt;Node5 -->
<g id="edge4" class="edge"><title>Node1&#45;&gt;Node5</title>
<path fill="none" stroke="midnightblue" d="M98.0454,-73.274C116.005,-75.6192 136.244,-78.2621 153.605,-80.5292"/>
<polygon fill="midnightblue" stroke="midnightblue" points="153.628,-84.0618 163.997,-81.8862 154.535,-77.1208 153.628,-84.0618"/>
</g>
<!-- Node8 -->
<g id="node8" class="node"><title>Node8</title>
<g id="a_node8"><a xlink:href="namespacesll__m__fekete__integration.html#aa74e57776217489a27f8c7ef355a3e14" target="_top" xlink:title="Re arranges the order of the quadrature point to go from lower&#45;left to top right. ...">
<polygon fill="white" stroke="black" points="141.5,-38.5 141.5,-57.5 251.5,-57.5 251.5,-38.5 141.5,-38.5"/>
<text text-anchor="middle" x="196.5" y="-45.5" font-family="Helvetica,sans-Serif" font-size="10.00">rearrange_fekete_rule</text>
</a>
</g>
</g>
<!-- Node1&#45;&gt;Node8 -->
<g id="edge9" class="edge"><title>Node1&#45;&gt;Node8</title>
<path fill="none" stroke="midnightblue" d="M98.0454,-60.726C108.692,-59.3357 120.14,-57.8408 131.315,-56.3815"/>
<polygon fill="midnightblue" stroke="midnightblue" points="132.007,-59.821 141.47,-55.0555 131.101,-52.8799 132.007,-59.821"/>
</g>
<!-- Node9 -->
<g id="node9" class="node"><title>Node9</title>
<g id="a_node9"><a xlink:href="namespacesll__m__fekete__integration.html#a51d156745cf92c12df4b41a477cd6c6a" target="_top" xlink:title="maps T3 reference points to physical points. ">
<polygon fill="white" stroke="black" points="134,-0.5 134,-19.5 259,-19.5 259,-0.5 134,-0.5"/>
<text text-anchor="middle" x="196.5" y="-7.5" font-family="Helvetica,sans-Serif" font-size="10.00">reference_to_physical_t3</text>
</a>
</g>
</g>
<!-- Node1&#45;&gt;Node9 -->
<g id="edge10" class="edge"><title>Node1&#45;&gt;Node9</title>
<path fill="none" stroke="midnightblue" d="M80.7252,-51.984C96.4595,-44.5815 116.039,-35.8065 134,-29 139.898,-26.765 146.184,-24.5921 152.401,-22.5624"/>
<polygon fill="midnightblue" stroke="midnightblue" points="153.574,-25.8623 162.047,-19.5025 151.457,-19.1899 153.574,-25.8623"/>
</g>
<!-- Node3 -->
<g id="node3" class="node"><title>Node3</title>
<g id="a_node3"><a xlink:href="namespacesll__m__fekete__integration.html#aa2915462263d3b13d58e9538bc87d2a8" target="_top" xlink:title="returns the number of suborders for a Fekete rule. ">
<polygon fill="white" stroke="black" points="295,-133.5 295,-152.5 405,-152.5 405,-133.5 295,-133.5"/>
<text text-anchor="middle" x="350" y="-140.5" font-family="Helvetica,sans-Serif" font-size="10.00">fekete_suborder_num</text>
</a>
</g>
</g>
<!-- Node2&#45;&gt;Node3 -->
<g id="edge2" class="edge"><title>Node2&#45;&gt;Node3</title>
<path fill="none" stroke="midnightblue" d="M256.508,-131.4C265.782,-132.563 275.408,-133.771 284.793,-134.948"/>
<polygon fill="midnightblue" stroke="midnightblue" points="284.495,-138.438 294.853,-136.209 285.366,-131.492 284.495,-138.438"/>
</g>
<!-- Node4 -->
<g id="node4" class="node"><title>Node4</title>
<g id="a_node4"><a xlink:href="namespacesll__m__fekete__integration.html#ac49d3ac7ddf882cf310aa5ec0e1cb251" target="_top" xlink:title="returns the suborders for a Fekete rule. ">
<polygon fill="white" stroke="black" points="307,-95.5 307,-114.5 393,-114.5 393,-95.5 307,-95.5"/>
<text text-anchor="middle" x="350" y="-102.5" font-family="Helvetica,sans-Serif" font-size="10.00">fekete_suborder</text>
</a>
</g>
</g>
<!-- Node2&#45;&gt;Node4 -->
<g id="edge3" class="edge"><title>Node2&#45;&gt;Node4</title>
<path fill="none" stroke="midnightblue" d="M256.508,-116.6C269.75,-114.939 283.712,-113.188 296.661,-111.564"/>
<polygon fill="midnightblue" stroke="midnightblue" points="297.309,-115.01 306.796,-110.293 296.438,-108.065 297.309,-115.01"/>
</g>
<!-- Node5&#45;&gt;Node3 -->
<g id="edge5" class="edge"><title>Node5&#45;&gt;Node3</title>
<path fill="none" stroke="midnightblue" d="M229.186,-94.5589C238.887,-97.506 249.501,-101.066 259,-105 275.715,-111.922 278.422,-116.756 295,-124 299.717,-126.061 304.736,-128.066 309.741,-129.953"/>
<polygon fill="midnightblue" stroke="midnightblue" points="308.674,-133.289 319.268,-133.421 311.068,-126.711 308.674,-133.289"/>
</g>
<!-- Node5&#45;&gt;Node4 -->
<g id="edge6" class="edge"><title>Node5&#45;&gt;Node4</title>
<path fill="none" stroke="midnightblue" d="M229.259,-89.983C248.823,-92.4365 274.376,-95.6413 296.851,-98.4598"/>
<polygon fill="midnightblue" stroke="midnightblue" points="296.57,-101.952 306.928,-99.7236 297.441,-95.0063 296.57,-101.952"/>
</g>
<!-- Node6 -->
<g id="node6" class="node"><title>Node6</title>
<g id="a_node6"><a xlink:href="namespacesll__m__fekete__integration.html#a6c628fc6b0e9e59bc5b196175ebd7851" target="_top" xlink:title="returns a compressed Fekete rule ">
<polygon fill="white" stroke="black" points="310,-57.5 310,-76.5 390,-76.5 390,-57.5 310,-57.5"/>
<text text-anchor="middle" x="350" y="-64.5" font-family="Helvetica,sans-Serif" font-size="10.00">fekete_subrule</text>
</a>
</g>
</g>
<!-- Node5&#45;&gt;Node6 -->
<g id="edge7" class="edge"><title>Node5&#45;&gt;Node6</title>
<path fill="none" stroke="midnightblue" d="M229.259,-82.017C249.667,-79.4577 276.592,-76.0808 299.742,-73.1776"/>
<polygon fill="midnightblue" stroke="midnightblue" points="300.25,-76.6413 309.737,-71.9241 299.379,-69.6957 300.25,-76.6413"/>
</g>
<!-- Node7 -->
<g id="node7" class="node"><title>Node7</title>
<g id="a_node7"><a xlink:href="namespacesll__m__fekete__integration.html#a00966f8455b0a2836270ef9831e95dff" target="_top" xlink:title="forces an I4 to lie between given limits by wrapping. ">
<polygon fill="white" stroke="black" points="322,-19.5 322,-38.5 378,-38.5 378,-19.5 322,-19.5"/>
<text text-anchor="middle" x="350" y="-26.5" font-family="Helvetica,sans-Serif" font-size="10.00">wrapping</text>
</a>
</g>
</g>
<!-- Node5&#45;&gt;Node7 -->
<g id="edge8" class="edge"><title>Node5&#45;&gt;Node7</title>
<path fill="none" stroke="midnightblue" d="M229.186,-77.4411C238.887,-74.494 249.501,-70.9337 259,-67 275.715,-60.0777 278.422,-55.2442 295,-48 300.484,-45.6036 306.376,-43.2833 312.181,-41.1358"/>
<polygon fill="midnightblue" stroke="midnightblue" points="313.543,-44.3659 321.779,-37.7022 311.185,-37.7749 313.543,-44.3659"/>
</g>
</g>
</svg>
