<?xml version="1.0" encoding="UTF-8" standalone="no"?>
<!DOCTYPE svg PUBLIC "-//W3C//DTD SVG 1.1//EN"
 "http://www.w3.org/Graphics/SVG/1.1/DTD/svg11.dtd">
<!-- Generated by graphviz version 2.40.1 (20161225.0304)
 -->
<!-- Title: check_port Pages: 1 -->
<!--zoomable 214 -->
<svg id="main" version="1.1" xmlns="http://www.w3.org/2000/svg" xmlns:xlink="http://www.w3.org/1999/xlink" xml:space="preserve" onload="init(evt)">
<style type="text/css"><![CDATA[
.edge:hover path { stroke: red; }
.edge:hover polygon { stroke: red; fill: red; }
]]></style>
<script type="text/javascript"><![CDATA[
var edges = document.getElementsByTagName('g');
if (edges && edges.length) {
  for (var i=0;i<edges.length;i++) {
    if (edges[i].id.substr(0,4)=='edge') {
      edges[i].setAttribute('class','edge');
    }
  }
}
]]></script>
        <defs>
                <circle id="rim" cx="0" cy="0" r="7"/>
                <circle id="rim2" cx="0" cy="0" r="3.5"/>
                <g id="zoomPlus">
                        <use xlink:href="#rim" fill="#404040">
                                <set attributeName="fill" to="#808080" begin="zoomplus.mouseover" end="zoomplus.mouseout"/>
                        </use>
                        <path d="M-4,0h8M0,-4v8" fill="none" stroke="white" stroke-width="1.5" pointer-events="none"/>
                </g>
                <g id="zoomMin">
                        <use xlink:href="#rim" fill="#404040">
                                <set attributeName="fill" to="#808080" begin="zoomminus.mouseover" end="zoomminus.mouseout"/>
                        </use>
                        <path d="M-4,0h8" fill="none" stroke="white" stroke-width="1.5" pointer-events="none"/>
                </g>
                <g id="dirArrow">
                        <path fill="none" stroke="white" stroke-width="1.5" d="M0,-3.0v7 M-2.5,-0.5L0,-3.0L2.5,-0.5"/>
                </g>
               <g id="resetDef">
                       <use xlink:href="#rim2" fill="#404040">
                               <set attributeName="fill" to="#808080" begin="reset.mouseover" end="reset.mouseout"/>
                       </use>
               </g>
        </defs>

<script type="text/javascript">
var viewWidth = 580;
var viewHeight = 214;
var sectionId = 'dynsection-1';
</script>
<script xlink:href="svgpan.js"/>
<svg id="graph" class="graph">
<g id="viewport">
<title>check_port</title>
<polygon fill="#ffffff" stroke="transparent" points="-4,4 -4,-210 576,-210 576,4 -4,4"/>
<!-- Node8 -->
<g id="node1" class="node">
<title>Node8</title>
<polygon fill="#bfbfbf" stroke="#000000" points="0,-78.5 0,-97.5 70,-97.5 70,-78.5 0,-78.5"/>
<text text-anchor="middle" x="35" y="-85.5" font-family="Helvetica,sans-Serif" font-size="10.00" fill="#000000">check_port</text>
</g>
<!-- Node9 -->
<g id="node2" class="node">
<title>Node9</title>
<g id="a_node2"><a xlink:href="namespacesll__m__point__to__point__comms.html#a649d95ce15846973ed2e19fcf54b02fe" target="_top" xlink:title="flip_buffer">
<polygon fill="#ffffff" stroke="#000000" points="112.5,-97.5 112.5,-116.5 177.5,-116.5 177.5,-97.5 112.5,-97.5"/>
<text text-anchor="middle" x="145" y="-104.5" font-family="Helvetica,sans-Serif" font-size="10.00" fill="#000000">flip_buffer</text>
</a>
</g>
</g>
<!-- Node8&#45;&gt;Node9 -->
<g id="edge1" class="edge">
<title>Node8&#45;&gt;Node9</title>
<path fill="none" stroke="#191970" d="M80.247,-95.8154C91.0479,-97.681 102.3671,-99.6361 112.4661,-101.3805"/>
<polygon fill="#191970" stroke="#191970" points="80.557,-92.3172 70.1071,-94.064 79.3655,-99.215 80.557,-92.3172"/>
</g>
<!-- Node10 -->
<g id="node3" class="node">
<title>Node10</title>
<g id="a_node3"><a xlink:href="namespacesll__m__point__to__point__comms.html#a6848a4501521376f77d25cbcc09eb298" target="_top" xlink:title="connect_ports">
<polygon fill="#ffffff" stroke="#000000" points="250.5,-164.5 250.5,-183.5 335.5,-183.5 335.5,-164.5 250.5,-164.5"/>
<text text-anchor="middle" x="293" y="-171.5" font-family="Helvetica,sans-Serif" font-size="10.00" fill="#000000">connect_ports</text>
</a>
</g>
</g>
<!-- Node8&#45;&gt;Node10 -->
<g id="edge14" class="edge">
<title>Node8&#45;&gt;Node10</title>
<path fill="none" stroke="#191970" d="M58.9146,-102.6629C72.3711,-110.4316 89.6988,-119.6522 106,-126 153.943,-144.6692 211.6243,-158.2075 250.1284,-166.0557"/>
<polygon fill="#191970" stroke="#191970" points="60.669,-99.6343 50.2772,-97.5697 57.1134,-105.6641 60.669,-99.6343"/>
</g>
<!-- Node16 -->
<g id="node9" class="node">
<title>Node16</title>
<g id="a_node9"><a xlink:href="namespacesll__m__point__to__point__comms.html#a9ab957ce92cafbb7e3e9c61c0cf5cdab" target="_top" xlink:title="sll_f_get_buffer">
<polygon fill="#ffffff" stroke="#000000" points="247,-.5 247,-19.5 339,-19.5 339,-.5 247,-.5"/>
<text text-anchor="middle" x="293" y="-7.5" font-family="Helvetica,sans-Serif" font-size="10.00" fill="#000000">sll_f_get_buffer</text>
</a>
</g>
</g>
<!-- Node8&#45;&gt;Node16 -->
<g id="edge8" class="edge">
<title>Node8&#45;&gt;Node16</title>
<path fill="none" stroke="#191970" d="M58.5553,-73.2297C72.0179,-65.3491 89.4669,-56.0552 106,-50 152.4502,-32.9878 208.1777,-22.2285 246.6476,-16.2063"/>
<polygon fill="#191970" stroke="#191970" points="56.707,-70.257 49.9322,-78.4026 60.308,-76.2597 56.707,-70.257"/>
</g>
<!-- Node17 -->
<g id="node10" class="node">
<title>Node17</title>
<g id="a_node10"><a xlink:href="namespacesll__m__point__to__point__comms.html#ace7366fed79af3987767fde1b8184410" target="_top" xlink:title="port_is_busy">
<polygon fill="#ffffff" stroke="#000000" points="106,-59.5 106,-78.5 184,-78.5 184,-59.5 106,-59.5"/>
<text text-anchor="middle" x="145" y="-66.5" font-family="Helvetica,sans-Serif" font-size="10.00" fill="#000000">port_is_busy</text>
</a>
</g>
</g>
<!-- Node8&#45;&gt;Node17 -->
<g id="edge9" class="edge">
<title>Node8&#45;&gt;Node17</title>
<path fill="none" stroke="#191970" d="M80.1913,-80.1942C88.6339,-78.736 97.3951,-77.2227 105.6443,-75.7978"/>
<polygon fill="#191970" stroke="#191970" points="79.3655,-76.785 70.1071,-81.936 80.557,-83.6828 79.3655,-76.785"/>
</g>
<!-- Node9&#45;&gt;Node10 -->
<g id="edge2" class="edge">
<title>Node9&#45;&gt;Node10</title>
<path fill="none" stroke="#191970" d="M165.5605,-122.6812C180.0971,-133.1197 200.4092,-146.4393 220,-155 229.4801,-159.1426 240.0611,-162.5378 250.1606,-165.2524"/>
<polygon fill="#191970" stroke="#191970" points="167.4449,-119.7226 157.3138,-116.6224 163.3004,-125.3638 167.4449,-119.7226"/>
</g>
<!-- Node13 -->
<g id="node6" class="node">
<title>Node13</title>
<g id="a_node6"><a xlink:href="namespacesll__m__point__to__point__comms.html#afbd46fb55887ffc3108f4889148bffaa" target="_top" xlink:title="sll_s_comm_send_real64">
<polygon fill="#ffffff" stroke="#000000" points="223.5,-126.5 223.5,-145.5 362.5,-145.5 362.5,-126.5 223.5,-126.5"/>
<text text-anchor="middle" x="293" y="-133.5" font-family="Helvetica,sans-Serif" font-size="10.00" fill="#000000">sll_s_comm_send_real64</text>
</a>
</g>
</g>
<!-- Node9&#45;&gt;Node13 -->
<g id="edge5" class="edge">
<title>Node9&#45;&gt;Node13</title>
<path fill="none" stroke="#191970" d="M187.902,-115.4065C205.6195,-118.8781 226.2442,-122.9195 244.5072,-126.498"/>
<polygon fill="#191970" stroke="#191970" points="188.3324,-111.9243 177.846,-113.436 186.9863,-118.7937 188.3324,-111.9243"/>
</g>
<!-- Node14 -->
<g id="node7" class="node">
<title>Node14</title>
<g id="a_node7"><a xlink:href="namespacesll__m__point__to__point__comms.html#ac3b701c44660ce387e7c0e50adfa8c8f" target="_top" xlink:title="sll_s_comm_receive\l_real64">
<polygon fill="#ffffff" stroke="#000000" points="235,-39 235,-69 351,-69 351,-39 235,-39"/>
<text text-anchor="start" x="243" y="-57" font-family="Helvetica,sans-Serif" font-size="10.00" fill="#000000">sll_s_comm_receive</text>
<text text-anchor="middle" x="293" y="-46" font-family="Helvetica,sans-Serif" font-size="10.00" fill="#000000">_real64</text>
</a>
</g>
</g>
<!-- Node9&#45;&gt;Node14 -->
<g id="edge6" class="edge">
<title>Node9&#45;&gt;Node14</title>
<path fill="none" stroke="#191970" d="M179.6535,-93.8372C192.3209,-89.0853 206.783,-83.7294 220,-79 229.2075,-75.7053 239.0998,-72.2568 248.5376,-69.0101"/>
<polygon fill="#191970" stroke="#191970" points="178.0628,-90.6962 169.9373,-97.4952 180.5293,-97.2473 178.0628,-90.6962"/>
</g>
<!-- Node15 -->
<g id="node8" class="node">
<title>Node15</title>
<g id="a_node8"><a xlink:href="namespacesll__m__point__to__point__comms.html#ab6f3256ff8c0bbee51626a7603f7ef6d" target="_top" xlink:title="sll_s_delete_comm_real64">
<polygon fill="#ffffff" stroke="#000000" points="220,-88.5 220,-107.5 366,-107.5 366,-88.5 220,-88.5"/>
<text text-anchor="middle" x="293" y="-95.5" font-family="Helvetica,sans-Serif" font-size="10.00" fill="#000000">sll_s_delete_comm_real64</text>
</a>
</g>
</g>
<!-- Node9&#45;&gt;Node15 -->
<g id="edge7" class="edge">
<title>Node9&#45;&gt;Node15</title>
<path fill="none" stroke="#191970" d="M187.9474,-104.3883C198.004,-103.7768 208.9953,-103.1084 219.9586,-102.4417"/>
<polygon fill="#191970" stroke="#191970" points="187.6151,-100.902 177.846,-105.0026 188.04,-107.8891 187.6151,-100.902"/>
</g>
<!-- Node11 -->
<g id="node4" class="node">
<title>Node11</title>
<g id="a_node4"><a xlink:href="namespacesll__m__point__to__point__comms.html#aa4b49425a11d8400f4c4e1009ccd7064" target="_top" xlink:title="sll_s_create_comm_real64_ring">
<polygon fill="#ffffff" stroke="#000000" points="402,-186.5 402,-205.5 572,-205.5 572,-186.5 402,-186.5"/>
<text text-anchor="middle" x="487" y="-193.5" font-family="Helvetica,sans-Serif" font-size="10.00" fill="#000000">sll_s_create_comm_real64_ring</text>
</a>
</g>
</g>
<!-- Node10&#45;&gt;Node11 -->
<g id="edge3" class="edge">
<title>Node10&#45;&gt;Node11</title>
<path fill="none" stroke="#191970" d="M345.6846,-179.9745C363.3903,-181.9824 383.6052,-184.2748 403.101,-186.4857"/>
<polygon fill="#191970" stroke="#191970" points="345.9048,-176.4772 335.5741,-178.828 345.116,-183.4326 345.9048,-176.4772"/>
</g>
<!-- Node12 -->
<g id="node5" class="node">
<title>Node12</title>
<g id="a_node5"><a xlink:href="namespacesll__m__point__to__point__comms.html#a7dcb12c869cca4261dda441bbf9fea98" target="_top" xlink:title="sll_s_configure_comm\l_real64_torus_2d">
<polygon fill="#ffffff" stroke="#000000" points="424.5,-137 424.5,-167 549.5,-167 549.5,-137 424.5,-137"/>
<text text-anchor="start" x="432.5" y="-155" font-family="Helvetica,sans-Serif" font-size="10.00" fill="#000000">sll_s_configure_comm</text>
<text text-anchor="middle" x="487" y="-144" font-family="Helvetica,sans-Serif" font-size="10.00" fill="#000000">_real64_torus_2d</text>
</a>
</g>
</g>
<!-- Node10&#45;&gt;Node12 -->
<g id="edge4" class="edge">
<title>Node10&#45;&gt;Node12</title>
<path fill="none" stroke="#191970" d="M345.6567,-168.0286C369.9127,-165.2779 398.8825,-161.9927 424.2618,-159.1146"/>
<polygon fill="#191970" stroke="#191970" points="345.116,-164.5674 335.5741,-169.172 345.9048,-171.5228 345.116,-164.5674"/>
</g>
<!-- Node17&#45;&gt;Node10 -->
<g id="edge11" class="edge">
<title>Node17&#45;&gt;Node10</title>
<path fill="none" stroke="#191970" d="M179.2704,-84.0279C180.9431,-85.2677 182.5338,-86.5909 184,-88 208.373,-111.4238 193.4237,-134.1094 220,-155 228.6484,-161.7982 239.481,-166.1808 250.1331,-169.001"/>
<polygon fill="#191970" stroke="#191970" points="180.759,-80.8316 170.4209,-78.5131 177.0567,-86.7725 180.759,-80.8316"/>
</g>
<!-- Node17&#45;&gt;Node14 -->
<g id="edge12" class="edge">
<title>Node17&#45;&gt;Node14</title>
<path fill="none" stroke="#191970" d="M194.3967,-63.9936C207.3692,-62.6788 221.4799,-61.2487 234.8641,-59.8922"/>
<polygon fill="#191970" stroke="#191970" points="193.8688,-60.5291 184.2727,-65.0197 194.5747,-67.4934 193.8688,-60.5291"/>
</g>
<!-- Node17&#45;&gt;Node15 -->
<g id="edge13" class="edge">
<title>Node17&#45;&gt;Node15</title>
<path fill="none" stroke="#191970" d="M194.5202,-78.7033C210.5486,-81.844 228.3039,-85.3231 244.2742,-88.4524"/>
<polygon fill="#191970" stroke="#191970" points="194.7591,-75.1836 184.2727,-76.6953 193.4131,-82.053 194.7591,-75.1836"/>
</g>
<!-- Node17&#45;&gt;Node16 -->
<g id="edge10" class="edge">
<title>Node17&#45;&gt;Node16</title>
<path fill="none" stroke="#191970" d="M169.0389,-54.3061C183.4239,-45.9943 202.2966,-35.9132 220,-29 229.271,-25.3796 239.4712,-22.2343 249.2318,-19.601"/>
<polygon fill="#191970" stroke="#191970" points="167.1293,-51.3688 160.2914,-59.4616 170.6836,-57.3994 167.1293,-51.3688"/>
</g>
</g>
</svg>
        <g id="navigator" transform="translate(0 0)" fill="#404254">
                <rect fill="#f2f5e9" fill-opacity="0.5" stroke="#606060" stroke-width=".5" x="0" y="0" width="60" height="60"/>
                <use id="zoomplus" xlink:href="#zoomPlus" x="17" y="9" onmousedown="handleZoom(evt,'in')"/>
                <use id="zoomminus" xlink:href="#zoomMin" x="42" y="9" onmousedown="handleZoom(evt,'out')"/>
                <use id="reset" xlink:href="#resetDef" x="30" y="36" onmousedown="handleReset()"/>
                <g id="arrowUp" xlink:href="#dirArrow" transform="translate(30 24)" onmousedown="handlePan(0,-1)">
                  <use xlink:href="#rim" fill="#404040">
                        <set attributeName="fill" to="#808080" begin="arrowUp.mouseover" end="arrowUp.mouseout"/>
                  </use>
                  <path fill="none" stroke="white" stroke-width="1.5" d="M0,-3.0v7 M-2.5,-0.5L0,-3.0L2.5,-0.5"/>
                </g>
                <g id="arrowRight" xlink:href="#dirArrow" transform="rotate(90) translate(36 -43)" onmousedown="handlePan(1,0)">
                  <use xlink:href="#rim" fill="#404040">
                        <set attributeName="fill" to="#808080" begin="arrowRight.mouseover" end="arrowRight.mouseout"/>
                  </use>
                  <path fill="none" stroke="white" stroke-width="1.5" d="M0,-3.0v7 M-2.5,-0.5L0,-3.0L2.5,-0.5"/>
                </g>
                <g id="arrowDown" xlink:href="#dirArrow" transform="rotate(180) translate(-30 -48)" onmousedown="handlePan(0,1)">
                  <use xlink:href="#rim" fill="#404040">
                        <set attributeName="fill" to="#808080" begin="arrowDown.mouseover" end="arrowDown.mouseout"/>
                  </use>
                  <path fill="none" stroke="white" stroke-width="1.5" d="M0,-3.0v7 M-2.5,-0.5L0,-3.0L2.5,-0.5"/>
                </g>
                <g id="arrowLeft" xlink:href="#dirArrow" transform="rotate(270) translate(-36 17)" onmousedown="handlePan(-1,0)">
                  <use xlink:href="#rim" fill="#404040">
                        <set attributeName="fill" to="#808080" begin="arrowLeft.mouseover" end="arrowLeft.mouseout"/>
                  </use>
                  <path fill="none" stroke="white" stroke-width="1.5" d="M0,-3.0v7 M-2.5,-0.5L0,-3.0L2.5,-0.5"/>
                </g>
        </g>
        <svg viewBox="0 0 15 15" width="100%" height="30px" preserveAspectRatio="xMaxYMin meet">
         <g id="arrow_out" transform="scale(0.3 0.3)">
          <a xlink:href="namespacesll__m__point__to__point__comms_a8b121863ece95e8dd94458f440835b18_icgraph_org.svg" target="_base">
           <rect id="button" ry="5" rx="5" y="6" x="6" height="38" width="38"
                fill="#f2f5e9" fill-opacity="0.5" stroke="#606060" stroke-width="1.0"/>
           <path id="arrow"
             d="M 11.500037,31.436501 C 11.940474,20.09759 22.043105,11.32322 32.158766,21.979434 L 37.068811,17.246167 C 37.068811,17.246167 37.088388,32 37.088388,32 L 22.160133,31.978069 C 22.160133,31.978069 26.997745,27.140456 26.997745,27.140456 C 18.528582,18.264221 13.291696,25.230495 11.500037,31.436501 z"
             style="fill:#404040;"/>
          </a>
         </g>
        </svg>
</svg>
