<?xml version="1.0" encoding="UTF-8" standalone="no"?>
<!DOCTYPE svg PUBLIC "-//W3C//DTD SVG 1.1//EN"
 "http://www.w3.org/Graphics/SVG/1.1/DTD/svg11.dtd">
<!-- Generated by graphviz version 2.43.0 (0)
 -->
<!-- Title: sll_f_new_trapezoid_conservative_1d_charac Pages: 1 -->
<svg width="511pt" height="110pt"
 viewBox="0.00 0.00 511.00 110.00" xmlns="http://www.w3.org/2000/svg" xmlns:xlink="http://www.w3.org/1999/xlink">
<g id="graph0" class="graph" transform="scale(1 1) rotate(0) translate(4 106)">
<title>sll_f_new_trapezoid_conservative_1d_charac</title>
<polygon fill="white" stroke="transparent" points="-4,4 -4,-106 507,-106 507,4 -4,4"/>
<!-- Node1 -->
<g id="node1" class="node">
<title>Node1</title>
<g id="a_node1"><a xlink:title=" ">
<polygon fill="#bfbfbf" stroke="black" points="0,-36 0,-66 140,-66 140,-36 0,-36"/>
<text text-anchor="start" x="8" y="-54" font-family="Helvetica,sans-Serif" font-size="10.00">sll_f_new_trapezoid</text>
<text text-anchor="middle" x="70" y="-43" font-family="Helvetica,sans-Serif" font-size="10.00">_conservative_1d_charac</text>
</a>
</g>
</g>
<!-- Node2 -->
<g id="node2" class="node">
<title>Node2</title>
<g id="a_node2"><a xlink:href="namespacesll__m__characteristics__1d__trapezoid__conservative.html#a77cd7909c72fd242134305d19521a44e" target="_top" xlink:title=" ">
<polygon fill="white" stroke="black" points="176,-36 176,-66 316,-66 316,-36 176,-36"/>
<text text-anchor="start" x="184" y="-54" font-family="Helvetica,sans-Serif" font-size="10.00">initialize_trapezoid</text>
<text text-anchor="middle" x="246" y="-43" font-family="Helvetica,sans-Serif" font-size="10.00">_conservative_1d_charac</text>
</a>
</g>
</g>
<!-- Node1&#45;&gt;Node2 -->
<g id="edge1" class="edge">
<title>Node1&#45;&gt;Node2</title>
<path fill="none" stroke="midnightblue" d="M140.02,-51C148.48,-51 157.17,-51 165.76,-51"/>
<polygon fill="midnightblue" stroke="midnightblue" points="165.78,-54.5 175.78,-51 165.78,-47.5 165.78,-54.5"/>
</g>
<!-- Node3 -->
<g id="node3" class="node">
<title>Node3</title>
<g id="a_node3"><a xlink:href="namespacesll__m__characteristics__1d__base.html#ad98c7d14825f9703cf4cd5bc33f0233b" target="_top" xlink:title=" ">
<polygon fill="white" stroke="black" points="361.5,-60.5 361.5,-101.5 493.5,-101.5 493.5,-60.5 361.5,-60.5"/>
<text text-anchor="start" x="369.5" y="-89.5" font-family="Helvetica,sans-Serif" font-size="10.00">sll_m_characteristics</text>
<text text-anchor="start" x="369.5" y="-78.5" font-family="Helvetica,sans-Serif" font-size="10.00">_1d_base::sll_f_process</text>
<text text-anchor="middle" x="427.5" y="-67.5" font-family="Helvetica,sans-Serif" font-size="10.00">_outside_point_periodic</text>
</a>
</g>
</g>
<!-- Node2&#45;&gt;Node3 -->
<g id="edge2" class="edge">
<title>Node2&#45;&gt;Node3</title>
<path fill="none" stroke="midnightblue" d="M316.14,-62.56C327.6,-64.47 339.53,-66.46 351.13,-68.4"/>
<polygon fill="midnightblue" stroke="midnightblue" points="350.79,-71.89 361.23,-70.09 351.94,-64.99 350.79,-71.89"/>
</g>
<!-- Node4 -->
<g id="node4" class="node">
<title>Node4</title>
<g id="a_node4"><a xlink:href="namespacesll__m__characteristics__1d__base.html#ad0b7c303f4769c0915a9137d2fc2934a" target="_top" xlink:title=" ">
<polygon fill="white" stroke="black" points="352,-0.5 352,-41.5 503,-41.5 503,-0.5 352,-0.5"/>
<text text-anchor="start" x="360" y="-29.5" font-family="Helvetica,sans-Serif" font-size="10.00">sll_m_characteristics</text>
<text text-anchor="start" x="360" y="-18.5" font-family="Helvetica,sans-Serif" font-size="10.00">_1d_base::sll_f_process</text>
<text text-anchor="middle" x="427.5" y="-7.5" font-family="Helvetica,sans-Serif" font-size="10.00">_outside_point_set_to_limit</text>
</a>
</g>
</g>
<!-- Node2&#45;&gt;Node4 -->
<g id="edge3" class="edge">
<title>Node2&#45;&gt;Node4</title>
<path fill="none" stroke="midnightblue" d="M316.14,-39.44C324.52,-38.04 333.15,-36.6 341.72,-35.17"/>
<polygon fill="midnightblue" stroke="midnightblue" points="342.44,-38.6 351.73,-33.5 341.29,-31.69 342.44,-38.6"/>
</g>
</g>
</svg>
