<?xml version="1.0" encoding="UTF-8" standalone="no"?>
<!DOCTYPE svg PUBLIC "-//W3C//DTD SVG 1.1//EN"
 "http://www.w3.org/Graphics/SVG/1.1/DTD/svg11.dtd">
<!-- Generated by graphviz version 2.40.1 (20161225.0304)
 -->
<!-- Title: sll_s_multiply_ct_clamped Pages: 1 -->
<svg width="336pt" height="198pt"
 viewBox="0.00 0.00 336.00 198.00" xmlns="http://www.w3.org/2000/svg" xmlns:xlink="http://www.w3.org/1999/xlink">
<g id="graph0" class="graph" transform="scale(1 1) rotate(0) translate(4 194)">
<title>sll_s_multiply_ct_clamped</title>
<polygon fill="#ffffff" stroke="transparent" points="-4,4 -4,-194 332,-194 332,4 -4,4"/>
<!-- Node7 -->
<g id="node1" class="node">
<title>Node7</title>
<polygon fill="#bfbfbf" stroke="#000000" points="0,-82 0,-101 146,-101 146,-82 0,-82"/>
<text text-anchor="middle" x="73" y="-89" font-family="Helvetica,sans-Serif" font-size="10.00" fill="#000000">sll_s_multiply_ct_clamped</text>
</g>
<!-- Node8 -->
<g id="node2" class="node">
<title>Node8</title>
<g id="a_node2"><a xlink:href="namespacesll__m__linear__operator__curl__cl__3d.html#a8e701a07de96c14937a04ca667d6e07a" target="_top" xlink:title="sll_m_linear_operator\l_curl_cl_3d::dot_curl_cl_3d">
<polygon fill="#ffffff" stroke="#000000" points="182,-159.5 182,-189.5 328,-189.5 328,-159.5 182,-159.5"/>
<text text-anchor="start" x="190" y="-177.5" font-family="Helvetica,sans-Serif" font-size="10.00" fill="#000000">sll_m_linear_operator</text>
<text text-anchor="middle" x="255" y="-166.5" font-family="Helvetica,sans-Serif" font-size="10.00" fill="#000000">_curl_cl_3d::dot_curl_cl_3d</text>
</a>
</g>
</g>
<!-- Node7&#45;&gt;Node8 -->
<g id="edge1" class="edge">
<title>Node7&#45;&gt;Node8</title>
<path fill="none" stroke="#191970" d="M98.1134,-106.3387C119.8501,-118.8209 152.3669,-136.639 182,-149.5 190.1106,-153.0201 198.8912,-156.3868 207.4574,-159.4452"/>
<polygon fill="#191970" stroke="#191970" points="99.6229,-103.1682 89.216,-101.1811 96.1123,-109.2243 99.6229,-103.1682"/>
</g>
<!-- Node9 -->
<g id="node3" class="node">
<title>Node9</title>
<g id="a_node3"><a xlink:href="namespacesll__m__linear__operator__schur__eb__cl__3d.html#a04eedcc204a78788d8f0d72633aa7054" target="_top" xlink:title="sll_m_linear_operator\l_schur_eb_cl_3d::dot\l_schur_eb_cl_3d">
<polygon fill="#ffffff" stroke="#000000" points="194,-99 194,-140 316,-140 316,-99 194,-99"/>
<text text-anchor="start" x="202" y="-128" font-family="Helvetica,sans-Serif" font-size="10.00" fill="#000000">sll_m_linear_operator</text>
<text text-anchor="start" x="202" y="-117" font-family="Helvetica,sans-Serif" font-size="10.00" fill="#000000">_schur_eb_cl_3d::dot</text>
<text text-anchor="middle" x="255" y="-106" font-family="Helvetica,sans-Serif" font-size="10.00" fill="#000000">_schur_eb_cl_3d</text>
</a>
</g>
</g>
<!-- Node7&#45;&gt;Node9 -->
<g id="edge2" class="edge">
<title>Node7&#45;&gt;Node9</title>
<path fill="none" stroke="#191970" d="M144.8503,-102.5539C161.0862,-105.0517 178.174,-107.6806 193.9176,-110.1027"/>
<polygon fill="#191970" stroke="#191970" points="145.2868,-99.0799 134.8709,-101.0186 144.2223,-105.9986 145.2868,-99.0799"/>
</g>
<!-- Node10 -->
<g id="node4" class="node">
<title>Node10</title>
<g id="a_node4"><a xlink:href="namespacesll__m__maxwell__clamped__3d__fem.html#ae66ee27299326fe5918b5f1eb19a602e" target="_top" xlink:title="Multiply by transpose of discrete curl matrix. ">
<polygon fill="#ffffff" stroke="#000000" points="186.5,-49.5 186.5,-79.5 323.5,-79.5 323.5,-49.5 186.5,-49.5"/>
<text text-anchor="start" x="194.5" y="-67.5" font-family="Helvetica,sans-Serif" font-size="10.00" fill="#000000">sll_m_maxwell_clamped</text>
<text text-anchor="middle" x="255" y="-56.5" font-family="Helvetica,sans-Serif" font-size="10.00" fill="#000000">_3d_fem::multiply_ct</text>
</a>
</g>
</g>
<!-- Node7&#45;&gt;Node10 -->
<g id="edge3" class="edge">
<title>Node7&#45;&gt;Node10</title>
<path fill="none" stroke="#191970" d="M147.4101,-80.4611C160.3327,-78.5441 173.7172,-76.5584 186.4732,-74.6661"/>
<polygon fill="#191970" stroke="#191970" points="146.5445,-77.0512 137.1664,-81.9808 147.5718,-83.9754 146.5445,-77.0512"/>
</g>
<!-- Node11 -->
<g id="node5" class="node">
<title>Node11</title>
<g id="a_node5"><a xlink:href="namespacesll__m__maxwell__clamped__3d__trafo.html#afe6919f5a3217c1bb88eed51d84aa8cc" target="_top" xlink:title="Multiply by transpose of discrete curl matrix. ">
<polygon fill="#ffffff" stroke="#000000" points="186.5,-.5 186.5,-30.5 323.5,-30.5 323.5,-.5 186.5,-.5"/>
<text text-anchor="start" x="194.5" y="-18.5" font-family="Helvetica,sans-Serif" font-size="10.00" fill="#000000">sll_m_maxwell_clamped</text>
<text text-anchor="middle" x="255" y="-7.5" font-family="Helvetica,sans-Serif" font-size="10.00" fill="#000000">_3d_trafo::multiply_ct</text>
</a>
</g>
</g>
<!-- Node7&#45;&gt;Node11 -->
<g id="edge4" class="edge">
<title>Node7&#45;&gt;Node11</title>
<path fill="none" stroke="#191970" d="M101.0431,-77.3592C122.8431,-66.6167 153.9868,-51.8121 182,-40.5 190.4467,-37.0891 199.5568,-33.7263 208.3818,-30.6268"/>
<polygon fill="#191970" stroke="#191970" points="99.4214,-74.2567 92.0194,-81.837 102.533,-80.5271 99.4214,-74.2567"/>
</g>
</g>
</svg>
