<?xml version="1.0" encoding="UTF-8" standalone="no"?>
<!DOCTYPE svg PUBLIC "-//W3C//DTD SVG 1.1//EN"
 "http://www.w3.org/Graphics/SVG/1.1/DTD/svg11.dtd">
<!-- Generated by graphviz version 2.40.1 (20161225.0304)
 -->
<!-- Title: compute_bc_indices Pages: 1 -->
<!--zoomable 105 -->
<svg id="main" version="1.1" xmlns="http://www.w3.org/2000/svg" xmlns:xlink="http://www.w3.org/1999/xlink" xml:space="preserve" onload="init(evt)">
<style type="text/css"><![CDATA[
.edge:hover path { stroke: red; }
.edge:hover polygon { stroke: red; fill: red; }
]]></style>
<script type="text/javascript"><![CDATA[
var edges = document.getElementsByTagName('g');
if (edges && edges.length) {
  for (var i=0;i<edges.length;i++) {
    if (edges[i].id.substr(0,4)=='edge') {
      edges[i].setAttribute('class','edge');
    }
  }
}
]]></script>
        <defs>
                <circle id="rim" cx="0" cy="0" r="7"/>
                <circle id="rim2" cx="0" cy="0" r="3.5"/>
                <g id="zoomPlus">
                        <use xlink:href="#rim" fill="#404040">
                                <set attributeName="fill" to="#808080" begin="zoomplus.mouseover" end="zoomplus.mouseout"/>
                        </use>
                        <path d="M-4,0h8M0,-4v8" fill="none" stroke="white" stroke-width="1.5" pointer-events="none"/>
                </g>
                <g id="zoomMin">
                        <use xlink:href="#rim" fill="#404040">
                                <set attributeName="fill" to="#808080" begin="zoomminus.mouseover" end="zoomminus.mouseout"/>
                        </use>
                        <path d="M-4,0h8" fill="none" stroke="white" stroke-width="1.5" pointer-events="none"/>
                </g>
                <g id="dirArrow">
                        <path fill="none" stroke="white" stroke-width="1.5" d="M0,-3.0v7 M-2.5,-0.5L0,-3.0L2.5,-0.5"/>
                </g>
               <g id="resetDef">
                       <use xlink:href="#rim2" fill="#404040">
                               <set attributeName="fill" to="#808080" begin="reset.mouseover" end="reset.mouseout"/>
                       </use>
               </g>
        </defs>

<script type="text/javascript">
var viewWidth = 605;
var viewHeight = 105;
var sectionId = 'dynsection-4';
</script>
<script xlink:href="svgpan.js"/>
<svg id="graph" class="graph">
<g id="viewport">
<title>compute_bc_indices</title>
<polygon fill="#ffffff" stroke="transparent" points="-4,4 -4,-101 601,-101 601,4 -4,4"/>
<!-- Node23 -->
<g id="node1" class="node">
<title>Node23</title>
<polygon fill="#bfbfbf" stroke="#000000" points="0,-50 0,-69 116,-69 116,-50 0,-50"/>
<text text-anchor="middle" x="58" y="-57" font-family="Helvetica,sans-Serif" font-size="10.00" fill="#000000">compute_bc_indices</text>
</g>
<!-- Node24 -->
<g id="node2" class="node">
<title>Node24</title>
<g id="a_node2"><a xlink:href="namespacesll__m__general__coordinate__elliptic__solver.html#a13e1428f9465e72bbf96682e92f305f8" target="_top" xlink:title="Assemble the matrix for elliptic solver. ">
<polygon fill="#ffffff" stroke="#000000" points="152,-66.5 152,-96.5 299,-96.5 299,-66.5 152,-66.5"/>
<text text-anchor="start" x="160" y="-84.5" font-family="Helvetica,sans-Serif" font-size="10.00" fill="#000000">solve_general_coordinates</text>
<text text-anchor="middle" x="225.5" y="-73.5" font-family="Helvetica,sans-Serif" font-size="10.00" fill="#000000">_elliptic_eq</text>
</a>
</g>
</g>
<!-- Node23&#45;&gt;Node24 -->
<g id="edge1" class="edge">
<title>Node23&#45;&gt;Node24</title>
<path fill="none" stroke="#191970" d="M126.2656,-68.4662C134.6965,-69.5736 143.3444,-70.7094 151.8512,-71.8267"/>
<polygon fill="#191970" stroke="#191970" points="126.484,-64.9649 116.1133,-67.1328 125.5723,-71.9053 126.484,-64.9649"/>
</g>
<!-- Node25 -->
<g id="node3" class="node">
<title>Node25</title>
<g id="a_node3"><a xlink:href="namespacesll__m__general__coordinate__elliptic__solver.html#a6178a8050ae7382ba5ffc63e0df2857b" target="_top" xlink:title="compute_global_knots">
<polygon fill="#ffffff" stroke="#000000" points="162,-28 162,-47 289,-47 289,-28 162,-28"/>
<text text-anchor="middle" x="225.5" y="-35" font-family="Helvetica,sans-Serif" font-size="10.00" fill="#000000">compute_global_knots</text>
</a>
</g>
</g>
<!-- Node23&#45;&gt;Node25 -->
<g id="edge2" class="edge">
<title>Node23&#45;&gt;Node25</title>
<path fill="none" stroke="#191970" d="M126.2883,-50.5308C138.0172,-48.9903 150.1652,-47.3947 161.7686,-45.8707"/>
<polygon fill="#191970" stroke="#191970" points="125.5723,-47.0947 116.1133,-51.8672 126.484,-54.0351 125.5723,-47.0947"/>
</g>
<!-- Node26 -->
<g id="node4" class="node">
<title>Node26</title>
<g id="a_node4"><a xlink:href="namespacesll__m__general__coordinate__elliptic__solver.html#a6a5dd9c906ada7725f3e185423b28f82" target="_top" xlink:title="Initialization for elliptic solver. ">
<polygon fill="#ffffff" stroke="#000000" points="496,-22.5 496,-52.5 597,-52.5 597,-22.5 496,-22.5"/>
<text text-anchor="start" x="504" y="-40.5" font-family="Helvetica,sans-Serif" font-size="10.00" fill="#000000">initialize_general</text>
<text text-anchor="middle" x="546.5" y="-29.5" font-family="Helvetica,sans-Serif" font-size="10.00" fill="#000000">_elliptic_solver</text>
</a>
</g>
</g>
<!-- Node25&#45;&gt;Node26 -->
<g id="edge3" class="edge">
<title>Node25&#45;&gt;Node26</title>
<path fill="none" stroke="#191970" d="M299.5168,-39.8033C311.3821,-40.0932 323.5281,-40.3429 335,-40.5 390.5503,-41.2608 404.4528,-41.463 460,-40.5 471.5686,-40.2994 484.0035,-39.9481 495.7371,-39.5549"/>
<polygon fill="#191970" stroke="#191970" points="299.2721,-36.296 289.186,-39.5396 299.0933,-43.2938 299.2721,-36.296"/>
</g>
<!-- Node27 -->
<g id="node5" class="node">
<title>Node27</title>
<g id="a_node5"><a xlink:href="namespacesll__m__general__coordinate__elliptic__solver.html#a1530444505e15898adb13de4fd54458c" target="_top" xlink:title="sll_s_general_elliptic\l_solver_prototype_init">
<polygon fill="#ffffff" stroke="#000000" points="335,-.5 335,-30.5 460,-30.5 460,-.5 335,-.5"/>
<text text-anchor="start" x="343" y="-18.5" font-family="Helvetica,sans-Serif" font-size="10.00" fill="#000000">sll_s_general_elliptic</text>
<text text-anchor="middle" x="397.5" y="-7.5" font-family="Helvetica,sans-Serif" font-size="10.00" fill="#000000">_solver_prototype_init</text>
</a>
</g>
</g>
<!-- Node25&#45;&gt;Node27 -->
<g id="edge4" class="edge">
<title>Node25&#45;&gt;Node27</title>
<path fill="none" stroke="#191970" d="M299.3309,-28.0565C311.1387,-26.5462 323.2589,-24.996 334.7767,-23.5227"/>
<polygon fill="#191970" stroke="#191970" points="298.5329,-24.63 289.0578,-29.3705 299.421,-31.5734 298.5329,-24.63"/>
</g>
<!-- Node27&#45;&gt;Node26 -->
<g id="edge5" class="edge">
<title>Node27&#45;&gt;Node26</title>
<path fill="none" stroke="#191970" d="M470.2574,-26.2427C478.8107,-27.5056 487.3947,-28.773 495.5581,-29.9784"/>
<polygon fill="#191970" stroke="#191970" points="470.6616,-22.7645 460.2576,-24.7662 469.6391,-29.6894 470.6616,-22.7645"/>
</g>
</g>
</svg>
        <g id="navigator" transform="translate(0 0)" fill="#404254">
                <rect fill="#f2f5e9" fill-opacity="0.5" stroke="#606060" stroke-width=".5" x="0" y="0" width="60" height="60"/>
                <use id="zoomplus" xlink:href="#zoomPlus" x="17" y="9" onmousedown="handleZoom(evt,'in')"/>
                <use id="zoomminus" xlink:href="#zoomMin" x="42" y="9" onmousedown="handleZoom(evt,'out')"/>
                <use id="reset" xlink:href="#resetDef" x="30" y="36" onmousedown="handleReset()"/>
                <g id="arrowUp" xlink:href="#dirArrow" transform="translate(30 24)" onmousedown="handlePan(0,-1)">
                  <use xlink:href="#rim" fill="#404040">
                        <set attributeName="fill" to="#808080" begin="arrowUp.mouseover" end="arrowUp.mouseout"/>
                  </use>
                  <path fill="none" stroke="white" stroke-width="1.5" d="M0,-3.0v7 M-2.5,-0.5L0,-3.0L2.5,-0.5"/>
                </g>
                <g id="arrowRight" xlink:href="#dirArrow" transform="rotate(90) translate(36 -43)" onmousedown="handlePan(1,0)">
                  <use xlink:href="#rim" fill="#404040">
                        <set attributeName="fill" to="#808080" begin="arrowRight.mouseover" end="arrowRight.mouseout"/>
                  </use>
                  <path fill="none" stroke="white" stroke-width="1.5" d="M0,-3.0v7 M-2.5,-0.5L0,-3.0L2.5,-0.5"/>
                </g>
                <g id="arrowDown" xlink:href="#dirArrow" transform="rotate(180) translate(-30 -48)" onmousedown="handlePan(0,1)">
                  <use xlink:href="#rim" fill="#404040">
                        <set attributeName="fill" to="#808080" begin="arrowDown.mouseover" end="arrowDown.mouseout"/>
                  </use>
                  <path fill="none" stroke="white" stroke-width="1.5" d="M0,-3.0v7 M-2.5,-0.5L0,-3.0L2.5,-0.5"/>
                </g>
                <g id="arrowLeft" xlink:href="#dirArrow" transform="rotate(270) translate(-36 17)" onmousedown="handlePan(-1,0)">
                  <use xlink:href="#rim" fill="#404040">
                        <set attributeName="fill" to="#808080" begin="arrowLeft.mouseover" end="arrowLeft.mouseout"/>
                  </use>
                  <path fill="none" stroke="white" stroke-width="1.5" d="M0,-3.0v7 M-2.5,-0.5L0,-3.0L2.5,-0.5"/>
                </g>
        </g>
        <svg viewBox="0 0 15 15" width="100%" height="30px" preserveAspectRatio="xMaxYMin meet">
         <g id="arrow_out" transform="scale(0.3 0.3)">
          <a xlink:href="namespacesll__m__general__coordinate__elliptic__solver_affbbc69434a49d65cbbd0a62f77c5dcd_icgraph_org.svg" target="_base">
           <rect id="button" ry="5" rx="5" y="6" x="6" height="38" width="38"
                fill="#f2f5e9" fill-opacity="0.5" stroke="#606060" stroke-width="1.0"/>
           <path id="arrow"
             d="M 11.500037,31.436501 C 11.940474,20.09759 22.043105,11.32322 32.158766,21.979434 L 37.068811,17.246167 C 37.068811,17.246167 37.088388,32 37.088388,32 L 22.160133,31.978069 C 22.160133,31.978069 26.997745,27.140456 26.997745,27.140456 C 18.528582,18.264221 13.291696,25.230495 11.500037,31.436501 z"
             style="fill:#404040;"/>
          </a>
         </g>
        </svg>
</svg>
