<?xml version="1.0" encoding="UTF-8" standalone="no"?>
<!DOCTYPE svg PUBLIC "-//W3C//DTD SVG 1.1//EN"
 "http://www.w3.org/Graphics/SVG/1.1/DTD/svg11.dtd">
<!-- Generated by graphviz version 2.43.0 (0)
 -->
<!-- Title: add_current_update_v_spline_pp_1d Pages: 1 -->
<svg width="651pt" height="72pt"
 viewBox="0.00 0.00 651.00 71.50" xmlns="http://www.w3.org/2000/svg" xmlns:xlink="http://www.w3.org/1999/xlink">
<g id="graph0" class="graph" transform="scale(1 1) rotate(0) translate(4 67.5)">
<title>add_current_update_v_spline_pp_1d</title>
<polygon fill="white" stroke="transparent" points="-4,4 -4,-67.5 647,-67.5 647,4 -4,4"/>
<!-- Node1 -->
<g id="node1" class="node">
<title>Node1</title>
<g id="a_node1"><a xlink:title="Add current for one particle and update v (according to H_p1 part in Hamiltonian splitting)">
<polygon fill="#bfbfbf" stroke="black" points="0,-19.5 0,-49.5 113,-49.5 113,-19.5 0,-19.5"/>
<text text-anchor="start" x="8" y="-37.5" font-family="Helvetica,sans-Serif" font-size="10.00">add_current_update</text>
<text text-anchor="middle" x="56.5" y="-26.5" font-family="Helvetica,sans-Serif" font-size="10.00">_v_spline_pp_1d</text>
</a>
</g>
</g>
<!-- Node2 -->
<g id="node2" class="node">
<title>Node2</title>
<g id="a_node2"><a xlink:href="namespacesll__m__particle__mesh__coupling__spline__1d.html#acd3198a72571d1253f83aaa909e67031" target="_top" xlink:title="Helper function that identifies in which box the particle is found and its normalized poistion in the...">
<polygon fill="white" stroke="black" points="149,-44 149,-63 258,-63 258,-44 149,-44"/>
<text text-anchor="middle" x="203.5" y="-51" font-family="Helvetica,sans-Serif" font-size="10.00">convert_x_to_xbox</text>
</a>
</g>
</g>
<!-- Node1&#45;&gt;Node2 -->
<g id="edge1" class="edge">
<title>Node1&#45;&gt;Node2</title>
<path fill="none" stroke="midnightblue" d="M113.15,-41.79C121.44,-42.88 130.04,-44 138.48,-45.11"/>
<polygon fill="midnightblue" stroke="midnightblue" points="138.3,-48.62 148.67,-46.45 139.21,-41.68 138.3,-48.62"/>
</g>
<!-- Node3 -->
<g id="node3" class="node">
<title>Node3</title>
<g id="a_node3"><a xlink:href="namespacesll__m__particle__mesh__coupling__spline__1d.html#a92e471387d403a8ea29430c0b18a5656" target="_top" xlink:title="Helper function for add_current_update_v.">
<polygon fill="white" stroke="black" points="162.5,-6 162.5,-25 244.5,-25 244.5,-6 162.5,-6"/>
<text text-anchor="middle" x="203.5" y="-13" font-family="Helvetica,sans-Serif" font-size="10.00">update_jv_pp</text>
</a>
</g>
</g>
<!-- Node1&#45;&gt;Node3 -->
<g id="edge2" class="edge">
<title>Node1&#45;&gt;Node3</title>
<path fill="none" stroke="midnightblue" d="M113.15,-27.21C125.87,-25.54 139.34,-23.78 151.84,-22.14"/>
<polygon fill="midnightblue" stroke="midnightblue" points="152.62,-25.57 162.09,-20.8 151.72,-18.62 152.62,-25.57"/>
</g>
<!-- Node4 -->
<g id="node4" class="node">
<title>Node4</title>
<g id="a_node4"><a xlink:href="namespacesll__m__splines__pp.html#a5a7f10f3cdf461f4729d5f0782908cd8" target="_top" xlink:title="Perform a 1d hornerschema on the pp_coeffs evaluate at x.">
<polygon fill="white" stroke="black" points="294,-0.5 294,-30.5 476,-30.5 476,-0.5 294,-0.5"/>
<text text-anchor="start" x="302" y="-18.5" font-family="Helvetica,sans-Serif" font-size="10.00">sll_m_splines_pp::sll</text>
<text text-anchor="middle" x="385" y="-7.5" font-family="Helvetica,sans-Serif" font-size="10.00">_s_spline_pp_horner_primitive_1d</text>
</a>
</g>
</g>
<!-- Node3&#45;&gt;Node4 -->
<g id="edge3" class="edge">
<title>Node3&#45;&gt;Node4</title>
<path fill="none" stroke="midnightblue" d="M244.78,-15.5C256.59,-15.5 270.07,-15.5 283.87,-15.5"/>
<polygon fill="midnightblue" stroke="midnightblue" points="283.96,-19 293.96,-15.5 283.96,-12 283.96,-19"/>
</g>
<!-- Node5 -->
<g id="node5" class="node">
<title>Node5</title>
<g id="a_node5"><a xlink:href="namespacesll__m__splines__pp.html#ab63c3a25b861ed9b8701ae2f65942bcf" target="_top" xlink:title="Perform a 1d hornerschema on the pp_coeffs at index.">
<polygon fill="white" stroke="black" points="512,-0.5 512,-30.5 643,-30.5 643,-0.5 512,-0.5"/>
<text text-anchor="start" x="520" y="-18.5" font-family="Helvetica,sans-Serif" font-size="10.00">sll_m_splines_pp::sll</text>
<text text-anchor="middle" x="577.5" y="-7.5" font-family="Helvetica,sans-Serif" font-size="10.00">_f_spline_pp_horner_1d</text>
</a>
</g>
</g>
<!-- Node4&#45;&gt;Node5 -->
<g id="edge4" class="edge">
<title>Node4&#45;&gt;Node5</title>
<path fill="none" stroke="midnightblue" d="M476.23,-15.5C484.78,-15.5 493.38,-15.5 501.75,-15.5"/>
<polygon fill="midnightblue" stroke="midnightblue" points="501.84,-19 511.84,-15.5 501.84,-12 501.84,-19"/>
</g>
</g>
</svg>
