<?xml version="1.0" encoding="UTF-8" standalone="no"?>
<!DOCTYPE svg PUBLIC "-//W3C//DTD SVG 1.1//EN"
 "http://www.w3.org/Graphics/SVG/1.1/DTD/svg11.dtd">
<!-- Generated by graphviz version 2.40.1 (20161225.0304)
 -->
<!-- Title: init_edge_center_triangle Pages: 1 -->
<svg width="1019pt" height="61pt"
 viewBox="0.00 0.00 1019.00 61.00" xmlns="http://www.w3.org/2000/svg" xmlns:xlink="http://www.w3.org/1999/xlink">
<g id="graph0" class="graph" transform="scale(1 1) rotate(0) translate(4 57)">
<title>init_edge_center_triangle</title>
<polygon fill="#ffffff" stroke="transparent" points="-4,4 -4,-57 1015,-57 1015,4 -4,4"/>
<!-- Node102 -->
<g id="node1" class="node">
<title>Node102</title>
<polygon fill="#bfbfbf" stroke="#000000" points="0,-28 0,-47 140,-47 140,-28 0,-28"/>
<text text-anchor="middle" x="70" y="-35" font-family="Helvetica,sans-Serif" font-size="10.00" fill="#000000">init_edge_center_triangle</text>
</g>
<!-- Node103 -->
<g id="node2" class="node">
<title>Node103</title>
<g id="a_node2"><a xlink:href="namespacesll__m__hexagonal__meshes.html#a9384fd0ae5d59bb61739f9814a391007" target="_top" xlink:title="initializes a previously allocated 2d hex&#45;mesh ">
<polygon fill="#ffffff" stroke="#000000" points="176,-28 176,-47 308,-47 308,-28 176,-28"/>
<text text-anchor="middle" x="242" y="-35" font-family="Helvetica,sans-Serif" font-size="10.00" fill="#000000">sll_s_hex_mesh_2d_init</text>
</a>
</g>
</g>
<!-- Node102&#45;&gt;Node103 -->
<g id="edge1" class="edge">
<title>Node102&#45;&gt;Node103</title>
<path fill="none" stroke="#191970" d="M150.6698,-37.5C159.0895,-37.5 167.5777,-37.5 175.8097,-37.5"/>
<polygon fill="#191970" stroke="#191970" points="150.4553,-34.0001 140.4553,-37.5 150.4552,-41.0001 150.4553,-34.0001"/>
</g>
<!-- Node104 -->
<g id="node3" class="node">
<title>Node104</title>
<g id="a_node3"><a xlink:href="namespacesll__m__hexagonal__meshes.html#aaa2262794e099a011cb267f899c82b15" target="_top" xlink:title="Creates and initializes a new hexagonal mesh. ">
<polygon fill="#ffffff" stroke="#000000" points="344,-28 344,-47 479,-47 479,-28 344,-28"/>
<text text-anchor="middle" x="411.5" y="-35" font-family="Helvetica,sans-Serif" font-size="10.00" fill="#000000">sll_f_new_hex_mesh_2d</text>
</a>
</g>
</g>
<!-- Node103&#45;&gt;Node104 -->
<g id="edge2" class="edge">
<title>Node103&#45;&gt;Node104</title>
<path fill="none" stroke="#191970" d="M318.0785,-37.5C326.7142,-37.5 335.4712,-37.5 343.9859,-37.5"/>
<polygon fill="#191970" stroke="#191970" points="318.0185,-34.0001 308.0185,-37.5 318.0184,-41.0001 318.0185,-34.0001"/>
</g>
<!-- Node105 -->
<g id="node4" class="node">
<title>Node105</title>
<g id="a_node4"><a xlink:href="namespacesll__m__fekete__integration.html#adceb8456a1011a2bb4dcecfd28374463" target="_top" xlink:title="This function is supposed to write all django input files needed for a Django/Jorek simulation...">
<polygon fill="#ffffff" stroke="#000000" points="856,-22.5 856,-52.5 1011,-52.5 1011,-22.5 856,-22.5"/>
<text text-anchor="start" x="864" y="-40.5" font-family="Helvetica,sans-Serif" font-size="10.00" fill="#000000">sll_m_fekete_integration</text>
<text text-anchor="middle" x="933.5" y="-29.5" font-family="Helvetica,sans-Serif" font-size="10.00" fill="#000000">::sll_s_write_all_django_files</text>
</a>
</g>
</g>
<!-- Node104&#45;&gt;Node105 -->
<g id="edge3" class="edge">
<title>Node104&#45;&gt;Node105</title>
<path fill="none" stroke="#191970" d="M489.2854,-39.1651C497.9606,-39.3026 506.6686,-39.4195 515,-39.5 650.5492,-40.8095 684.4497,-40.6942 820,-39.5 831.6272,-39.3976 843.9237,-39.2361 855.9633,-39.0483"/>
<polygon fill="#191970" stroke="#191970" points="489.1985,-35.6632 479.1413,-38.9951 489.0812,-42.6622 489.1985,-35.6632"/>
</g>
<!-- Node106 -->
<g id="node5" class="node">
<title>Node106</title>
<g id="a_node5"><a xlink:href="namespacesll__m__box__splines.html#a0f40714993a4e4bdcf19d5798130ae75" target="_top" xlink:title="Computes the values or derivatives of box splines. ">
<polygon fill="#ffffff" stroke="#000000" points="515,-.5 515,-30.5 646,-30.5 646,-.5 515,-.5"/>
<text text-anchor="start" x="523" y="-18.5" font-family="Helvetica,sans-Serif" font-size="10.00" fill="#000000">sll_m_box_splines::</text>
<text text-anchor="middle" x="580.5" y="-7.5" font-family="Helvetica,sans-Serif" font-size="10.00" fill="#000000">sll_f_boxspline_val_der</text>
</a>
</g>
</g>
<!-- Node104&#45;&gt;Node106 -->
<g id="edge4" class="edge">
<title>Node104&#45;&gt;Node106</title>
<path fill="none" stroke="#191970" d="M489.2681,-27.3763C497.8439,-26.26 506.5127,-25.1315 514.9183,-24.0373"/>
<polygon fill="#191970" stroke="#191970" points="488.7295,-23.9168 479.265,-28.6785 489.6332,-30.8583 488.7295,-23.9168"/>
</g>
<!-- Node107 -->
<g id="node6" class="node">
<title>Node107</title>
<g id="a_node6"><a xlink:href="namespacesll__m__fekete__integration.html#ac7c05ae36ac69d55d2c022d71e82cae9" target="_top" xlink:title="Writes on a file values of boxsplines on fekete points. ">
<polygon fill="#ffffff" stroke="#000000" points="682,-.5 682,-30.5 820,-30.5 820,-.5 682,-.5"/>
<text text-anchor="start" x="690" y="-18.5" font-family="Helvetica,sans-Serif" font-size="10.00" fill="#000000">sll_m_fekete_integration</text>
<text text-anchor="middle" x="751" y="-7.5" font-family="Helvetica,sans-Serif" font-size="10.00" fill="#000000">::write_basis_values</text>
</a>
</g>
</g>
<!-- Node106&#45;&gt;Node107 -->
<g id="edge5" class="edge">
<title>Node106&#45;&gt;Node107</title>
<path fill="none" stroke="#191970" d="M656.6007,-15.5C665.0145,-15.5 673.5486,-15.5 681.87,-15.5"/>
<polygon fill="#191970" stroke="#191970" points="656.4198,-12.0001 646.4198,-15.5 656.4197,-19.0001 656.4198,-12.0001"/>
</g>
<!-- Node107&#45;&gt;Node105 -->
<g id="edge6" class="edge">
<title>Node107&#45;&gt;Node105</title>
<path fill="none" stroke="#191970" d="M830.4184,-25.0737C838.8214,-26.0867 847.3606,-27.1161 855.7443,-28.1267"/>
<polygon fill="#191970" stroke="#191970" points="830.6027,-21.5707 820.2556,-23.8486 829.7649,-28.5204 830.6027,-21.5707"/>
</g>
</g>
</svg>
