<?xml version="1.0" encoding="UTF-8" standalone="no"?>
<!DOCTYPE svg PUBLIC "-//W3C//DTD SVG 1.1//EN"
 "http://www.w3.org/Graphics/SVG/1.1/DTD/svg11.dtd">
<!-- Generated by graphviz version 2.43.0 (0)
 -->
<!-- Title: dot_poisson_1d Pages: 1 -->
<svg width="280pt" height="88pt"
 viewBox="0.00 0.00 280.00 88.00" xmlns="http://www.w3.org/2000/svg" xmlns:xlink="http://www.w3.org/1999/xlink">
<g id="graph0" class="graph" transform="scale(1 1) rotate(0) translate(4 84)">
<title>dot_poisson_1d</title>
<polygon fill="white" stroke="transparent" points="-4,4 -4,-84 276,-84 276,4 -4,4"/>
<!-- Node1 -->
<g id="node1" class="node">
<title>Node1</title>
<g id="a_node1"><a xlink:title=" ">
<polygon fill="#bfbfbf" stroke="black" points="0,-30 0,-49 92,-49 92,-30 0,-30"/>
<text text-anchor="middle" x="46" y="-37" font-family="Helvetica,sans-Serif" font-size="10.00">dot_poisson_1d</text>
</a>
</g>
</g>
<!-- Node2 -->
<g id="node2" class="node">
<title>Node2</title>
<g id="a_node2"><a xlink:href="namespacesll__m__spline__fem__utilities.html#a249985cbe30c29c9e949f668c82d2e88" target="_top" xlink:title="Multiplication of the input vector in by the derivative matrix G.">
<polygon fill="white" stroke="black" points="128,-49.5 128,-79.5 272,-79.5 272,-49.5 128,-49.5"/>
<text text-anchor="start" x="136" y="-67.5" font-family="Helvetica,sans-Serif" font-size="10.00">sll_m_spline_fem_utilities</text>
<text text-anchor="middle" x="200" y="-56.5" font-family="Helvetica,sans-Serif" font-size="10.00">::sll_s_multiply_g_1d</text>
</a>
</g>
</g>
<!-- Node1&#45;&gt;Node2 -->
<g id="edge1" class="edge">
<title>Node1&#45;&gt;Node2</title>
<path fill="none" stroke="midnightblue" d="M92.19,-46.93C100.33,-48.27 109.04,-49.7 117.84,-51.15"/>
<polygon fill="midnightblue" stroke="midnightblue" points="117.35,-54.62 127.78,-52.79 118.48,-47.71 117.35,-54.62"/>
</g>
<!-- Node3 -->
<g id="node3" class="node">
<title>Node3</title>
<g id="a_node3"><a xlink:href="namespacesll__m__spline__fem__utilities.html#aba0cb18b680186b2cd8bf714527fe4a7" target="_top" xlink:title="Multiplication of the input vector in by the transposed derivative matrix G^T">
<polygon fill="white" stroke="black" points="128,-0.5 128,-30.5 272,-30.5 272,-0.5 128,-0.5"/>
<text text-anchor="start" x="136" y="-18.5" font-family="Helvetica,sans-Serif" font-size="10.00">sll_m_spline_fem_utilities</text>
<text text-anchor="middle" x="200" y="-7.5" font-family="Helvetica,sans-Serif" font-size="10.00">::sll_s_multiply_gt_1d</text>
</a>
</g>
</g>
<!-- Node1&#45;&gt;Node3 -->
<g id="edge2" class="edge">
<title>Node1&#45;&gt;Node3</title>
<path fill="none" stroke="midnightblue" d="M92.19,-32.36C100.33,-31.08 109.04,-29.7 117.84,-28.32"/>
<polygon fill="midnightblue" stroke="midnightblue" points="118.45,-31.76 127.78,-26.74 117.36,-24.85 118.45,-31.76"/>
</g>
</g>
</svg>
