<?xml version="1.0" encoding="UTF-8" standalone="no"?>
<!DOCTYPE svg PUBLIC "-//W3C//DTD SVG 1.1//EN"
 "http://www.w3.org/Graphics/SVG/1.1/DTD/svg11.dtd">
<!-- Generated by graphviz version 2.38.0 (20140413.2041)
 -->
<!-- Title: initialize_explicit_euler_2d_charac Pages: 1 -->
<svg width="272pt" height="110pt"
 viewBox="0.00 0.00 272.00 110.00" xmlns="http://www.w3.org/2000/svg" xmlns:xlink="http://www.w3.org/1999/xlink">
<g id="graph0" class="graph" transform="scale(1 1) rotate(0) translate(4 106)">
<title>initialize_explicit_euler_2d_charac</title>
<polygon fill="white" stroke="none" points="-4,4 -4,-106 268,-106 268,4 -4,4"/>
<!-- Node1 -->
<g id="node1" class="node"><title>Node1</title>
<polygon fill="#bfbfbf" stroke="black" points="0,-36 0,-66 93,-66 93,-36 0,-36"/>
<text text-anchor="start" x="8" y="-54" font-family="Helvetica,sans-Serif" font-size="10.00">initialize_explicit</text>
<text text-anchor="middle" x="46.5" y="-43" font-family="Helvetica,sans-Serif" font-size="10.00">_euler_2d_charac</text>
</g>
<!-- Node2 -->
<g id="node2" class="node"><title>Node2</title>
<g id="a_node2"><a xlink:href="namespacesll__m__characteristics__2d__base.html#a2c5e6a5c73925dd52b2b5d0c4bbabf78" target="_top" xlink:title="sll_m_characteristics\l_2d_base::sll_f_process\l_outside_point_periodic">
<polygon fill="white" stroke="black" points="135.5,-60.5 135.5,-101.5 257.5,-101.5 257.5,-60.5 135.5,-60.5"/>
<text text-anchor="start" x="143.5" y="-89.5" font-family="Helvetica,sans-Serif" font-size="10.00">sll_m_characteristics</text>
<text text-anchor="start" x="143.5" y="-78.5" font-family="Helvetica,sans-Serif" font-size="10.00">_2d_base::sll_f_process</text>
<text text-anchor="middle" x="196.5" y="-67.5" font-family="Helvetica,sans-Serif" font-size="10.00">_outside_point_periodic</text>
</a>
</g>
</g>
<!-- Node1&#45;&gt;Node2 -->
<g id="edge1" class="edge"><title>Node1&#45;&gt;Node2</title>
<path fill="none" stroke="midnightblue" d="M93.1125,-60.2458C103.322,-62.3152 114.381,-64.5569 125.328,-66.7759"/>
<polygon fill="midnightblue" stroke="midnightblue" points="124.826,-70.2453 135.322,-68.8017 126.217,-63.3848 124.826,-70.2453"/>
</g>
<!-- Node3 -->
<g id="node3" class="node"><title>Node3</title>
<g id="a_node3"><a xlink:href="namespacesll__m__characteristics__2d__base.html#acbf7214cdc138a1134771deab9353804" target="_top" xlink:title="sll_m_characteristics\l_2d_base::sll_f_process\l_outside_point_set_to_limit">
<polygon fill="white" stroke="black" points="129,-0.5 129,-41.5 264,-41.5 264,-0.5 129,-0.5"/>
<text text-anchor="start" x="137" y="-29.5" font-family="Helvetica,sans-Serif" font-size="10.00">sll_m_characteristics</text>
<text text-anchor="start" x="137" y="-18.5" font-family="Helvetica,sans-Serif" font-size="10.00">_2d_base::sll_f_process</text>
<text text-anchor="middle" x="196.5" y="-7.5" font-family="Helvetica,sans-Serif" font-size="10.00">_outside_point_set_to_limit</text>
</a>
</g>
</g>
<!-- Node1&#45;&gt;Node3 -->
<g id="edge2" class="edge"><title>Node1&#45;&gt;Node3</title>
<path fill="none" stroke="midnightblue" d="M93.1125,-41.7542C101.32,-40.0906 110.076,-38.3156 118.882,-36.5306"/>
<polygon fill="midnightblue" stroke="midnightblue" points="119.714,-39.9334 128.819,-34.5164 118.323,-33.0729 119.714,-39.9334"/>
</g>
</g>
</svg>
