<?xml version="1.0" encoding="UTF-8" standalone="no"?>
<!DOCTYPE svg PUBLIC "-//W3C//DTD SVG 1.1//EN"
 "http://www.w3.org/Graphics/SVG/1.1/DTD/svg11.dtd">
<!-- Generated by graphviz version 2.40.1 (20161225.0304)
 -->
<!-- Title: sll_f_new_box_spline_2d Pages: 1 -->
<svg width="677pt" height="39pt"
 viewBox="0.00 0.00 677.00 39.00" xmlns="http://www.w3.org/2000/svg" xmlns:xlink="http://www.w3.org/1999/xlink">
<g id="graph0" class="graph" transform="scale(1 1) rotate(0) translate(4 35)">
<title>sll_f_new_box_spline_2d</title>
<polygon fill="#ffffff" stroke="transparent" points="-4,4 -4,-35 673,-35 673,4 -4,4"/>
<!-- Node102 -->
<g id="node1" class="node">
<title>Node102</title>
<polygon fill="#bfbfbf" stroke="#000000" points="0,-6 0,-25 137,-25 137,-6 0,-6"/>
<text text-anchor="middle" x="68.5" y="-13" font-family="Helvetica,sans-Serif" font-size="10.00" fill="#000000">sll_f_new_box_spline_2d</text>
</g>
<!-- Node103 -->
<g id="node2" class="node">
<title>Node103</title>
<g id="a_node2"><a xlink:href="namespacesll__m__box__splines.html#a0f40714993a4e4bdcf19d5798130ae75" target="_top" xlink:title="Computes the values or derivatives of box splines. ">
<polygon fill="#ffffff" stroke="#000000" points="173,-6 173,-25 304,-25 304,-6 173,-6"/>
<text text-anchor="middle" x="238.5" y="-13" font-family="Helvetica,sans-Serif" font-size="10.00" fill="#000000">sll_f_boxspline_val_der</text>
</a>
</g>
</g>
<!-- Node102&#45;&gt;Node103 -->
<g id="edge1" class="edge">
<title>Node102&#45;&gt;Node103</title>
<path fill="none" stroke="#191970" d="M147.1901,-15.5C155.7901,-15.5 164.4767,-15.5 172.8952,-15.5"/>
<polygon fill="#191970" stroke="#191970" points="147.1555,-12.0001 137.1555,-15.5 147.1555,-19.0001 147.1555,-12.0001"/>
</g>
<!-- Node104 -->
<g id="node3" class="node">
<title>Node104</title>
<g id="a_node3"><a xlink:href="namespacesll__m__fekete__integration.html#ac7c05ae36ac69d55d2c022d71e82cae9" target="_top" xlink:title="Writes on a file values of boxsplines on fekete points. ">
<polygon fill="#ffffff" stroke="#000000" points="340,-.5 340,-30.5 478,-30.5 478,-.5 340,-.5"/>
<text text-anchor="start" x="348" y="-18.5" font-family="Helvetica,sans-Serif" font-size="10.00" fill="#000000">sll_m_fekete_integration</text>
<text text-anchor="middle" x="409" y="-7.5" font-family="Helvetica,sans-Serif" font-size="10.00" fill="#000000">::write_basis_values</text>
</a>
</g>
</g>
<!-- Node103&#45;&gt;Node104 -->
<g id="edge2" class="edge">
<title>Node103&#45;&gt;Node104</title>
<path fill="none" stroke="#191970" d="M314.6007,-15.5C323.0145,-15.5 331.5486,-15.5 339.87,-15.5"/>
<polygon fill="#191970" stroke="#191970" points="314.4198,-12.0001 304.4198,-15.5 314.4197,-19.0001 314.4198,-12.0001"/>
</g>
<!-- Node105 -->
<g id="node4" class="node">
<title>Node105</title>
<g id="a_node4"><a xlink:href="namespacesll__m__fekete__integration.html#adceb8456a1011a2bb4dcecfd28374463" target="_top" xlink:title="This function is supposed to write all django input files needed for a Django/Jorek simulation...">
<polygon fill="#ffffff" stroke="#000000" points="514,-.5 514,-30.5 669,-30.5 669,-.5 514,-.5"/>
<text text-anchor="start" x="522" y="-18.5" font-family="Helvetica,sans-Serif" font-size="10.00" fill="#000000">sll_m_fekete_integration</text>
<text text-anchor="middle" x="591.5" y="-7.5" font-family="Helvetica,sans-Serif" font-size="10.00" fill="#000000">::sll_s_write_all_django_files</text>
</a>
</g>
</g>
<!-- Node104&#45;&gt;Node105 -->
<g id="edge3" class="edge">
<title>Node104&#45;&gt;Node105</title>
<path fill="none" stroke="#191970" d="M488.4184,-15.5C496.8214,-15.5 505.3606,-15.5 513.7443,-15.5"/>
<polygon fill="#191970" stroke="#191970" points="488.2557,-12.0001 478.2556,-15.5 488.2556,-19.0001 488.2557,-12.0001"/>
</g>
</g>
</svg>
