<?xml version="1.0" encoding="UTF-8" standalone="no"?>
<!DOCTYPE svg PUBLIC "-//W3C//DTD SVG 1.1//EN"
 "http://www.w3.org/Graphics/SVG/1.1/DTD/svg11.dtd">
<!-- Generated by graphviz version 2.43.0 (0)
 -->
<!-- Title: index_hex_to_global Pages: 1 -->
<svg width="1023pt" height="577pt"
 viewBox="0.00 0.00 1023.00 577.28" xmlns="http://www.w3.org/2000/svg" xmlns:xlink="http://www.w3.org/1999/xlink">
<g id="graph0" class="graph" transform="scale(1 1) rotate(0) translate(4 573.28)">
<title>index_hex_to_global</title>
<polygon fill="white" stroke="transparent" points="-4,4 -4,-573.28 1019,-573.28 1019,4 -4,4"/>
<!-- Node1 -->
<g id="node1" class="node">
<title>Node1</title>
<g id="a_node1"><a xlink:title="Finds the index in the global array of the point which coordinates where passed as parameter.">
<polygon fill="#bfbfbf" stroke="black" points="898,-182.78 898,-201.78 1015,-201.78 1015,-182.78 898,-182.78"/>
<text text-anchor="middle" x="956.5" y="-189.78" font-family="Helvetica,sans-Serif" font-size="10.00">index_hex_to_global</text>
</a>
</g>
</g>
<!-- Node2 -->
<g id="node2" class="node">
<title>Node2</title>
<g id="a_node2"><a xlink:href="namespacesll__m__hexagonal__meshes.html#a4f66e0c718eda16377ca26d5c95b419f" target="_top" xlink:title="Transform hexagonal coordinates to global index.">
<polygon fill="white" stroke="black" points="753.5,-319.78 753.5,-338.78 838.5,-338.78 838.5,-319.78 753.5,-319.78"/>
<text text-anchor="middle" x="796" y="-326.78" font-family="Helvetica,sans-Serif" font-size="10.00">hex_to_global</text>
</a>
</g>
</g>
<!-- Node1&#45;&gt;Node2 -->
<g id="edge1" class="edge">
<title>Node1&#45;&gt;Node2</title>
<path fill="none" stroke="midnightblue" d="M936.71,-208.52C903.47,-237.24 835.31,-296.16 808.35,-319.47"/>
<polygon fill="midnightblue" stroke="midnightblue" points="939.08,-211.1 944.35,-201.91 934.5,-205.8 939.08,-211.1"/>
</g>
<!-- Node20 -->
<g id="node20" class="node">
<title>Node20</title>
<g id="a_node20"><a xlink:href="namespacesll__m__hexagonal__meshes.html#a9384fd0ae5d59bb61739f9814a391007" target="_top" xlink:title="initializes a previously allocated 2d hex&#45;mesh">
<polygon fill="white" stroke="black" points="730,-163.78 730,-182.78 862,-182.78 862,-163.78 730,-163.78"/>
<text text-anchor="middle" x="796" y="-170.78" font-family="Helvetica,sans-Serif" font-size="10.00">sll_s_hex_mesh_2d_init</text>
</a>
</g>
</g>
<!-- Node1&#45;&gt;Node20 -->
<g id="edge25" class="edge">
<title>Node1&#45;&gt;Node20</title>
<path fill="none" stroke="midnightblue" d="M887.63,-184.14C879.18,-183.13 870.55,-182.09 862.14,-181.08"/>
<polygon fill="midnightblue" stroke="midnightblue" points="887.48,-187.65 897.83,-185.36 888.32,-180.7 887.48,-187.65"/>
</g>
<!-- Node3 -->
<g id="node3" class="node">
<title>Node3</title>
<g id="a_node3"><a xlink:href="namespacesll__m__hexagonal__meshes.html#a9500c710f1292a6d8caca2f486e6c338" target="_top" xlink:title="Computes the type of triangle of a given cell.">
<polygon fill="white" stroke="black" points="596,-275.78 596,-294.78 657,-294.78 657,-275.78 596,-275.78"/>
<text text-anchor="middle" x="626.5" y="-282.78" font-family="Helvetica,sans-Serif" font-size="10.00">cell_type</text>
</a>
</g>
</g>
<!-- Node2&#45;&gt;Node3 -->
<g id="edge2" class="edge">
<title>Node2&#45;&gt;Node3</title>
<path fill="none" stroke="midnightblue" d="M748.65,-317.1C719.38,-309.41 682.43,-299.7 657.08,-293.05"/>
<polygon fill="midnightblue" stroke="midnightblue" points="748.09,-320.57 758.65,-319.73 749.87,-313.8 748.09,-320.57"/>
</g>
<!-- Node4 -->
<g id="node4" class="node">
<title>Node4</title>
<g id="a_node4"><a xlink:href="namespacesll__m__hexagonal__meshes.html#aa579f5999884452ce000e206a88dc6b7" target="_top" xlink:title="Returns indices of the edges of a given cell.">
<polygon fill="white" stroke="black" points="563.5,-314.28 563.5,-344.28 689.5,-344.28 689.5,-314.28 563.5,-314.28"/>
<text text-anchor="start" x="571.5" y="-332.28" font-family="Helvetica,sans-Serif" font-size="10.00">sll_s_get_cell_vertices</text>
<text text-anchor="middle" x="626.5" y="-321.28" font-family="Helvetica,sans-Serif" font-size="10.00">_index</text>
</a>
</g>
</g>
<!-- Node2&#45;&gt;Node4 -->
<g id="edge3" class="edge">
<title>Node2&#45;&gt;Node4</title>
<path fill="none" stroke="midnightblue" d="M742.95,-329.28C726.08,-329.28 707.2,-329.28 689.67,-329.28"/>
<polygon fill="midnightblue" stroke="midnightblue" points="743.16,-332.78 753.16,-329.28 743.16,-325.78 743.16,-332.78"/>
</g>
<!-- Node18 -->
<g id="node18" class="node">
<title>Node18</title>
<g id="a_node18"><a xlink:href="namespacesll__m__hexagonal__meshes.html#af2731e5fc29368fa0de959f672507c5a" target="_top" xlink:title="&lt;BRIEF_DESCRIPTION&gt;">
<polygon fill="white" stroke="black" points="566,-535.78 566,-554.78 687,-554.78 687,-535.78 566,-535.78"/>
<text text-anchor="middle" x="626.5" y="-542.78" font-family="Helvetica,sans-Serif" font-size="10.00">sll_s_get_edge_index</text>
</a>
</g>
</g>
<!-- Node2&#45;&gt;Node18 -->
<g id="edge20" class="edge">
<title>Node2&#45;&gt;Node18</title>
<path fill="none" stroke="midnightblue" d="M790.25,-348.95C779.77,-388.15 750.95,-476.37 694,-524.28 688.26,-529.11 681.39,-532.83 674.29,-535.7"/>
<polygon fill="midnightblue" stroke="midnightblue" points="793.69,-349.61 792.78,-339.06 786.91,-347.88 793.69,-349.61"/>
</g>
<!-- Node19 -->
<g id="node19" class="node">
<title>Node19</title>
<g id="a_node19"><a xlink:href="namespacesll__m__hexagonal__meshes.html#a0770cf59d8b43bdb276ef0be796ad405" target="_top" xlink:title="Given a mesh point and the first cartesian coordinate of a point (that is not on the mesh) we return ...">
<polygon fill="white" stroke="black" points="575.5,-484.28 575.5,-514.28 677.5,-514.28 677.5,-484.28 575.5,-484.28"/>
<text text-anchor="start" x="583.5" y="-502.28" font-family="Helvetica,sans-Serif" font-size="10.00">sll_s_get_triangle</text>
<text text-anchor="middle" x="626.5" y="-491.28" font-family="Helvetica,sans-Serif" font-size="10.00">_index</text>
</a>
</g>
</g>
<!-- Node2&#45;&gt;Node19 -->
<g id="edge22" class="edge">
<title>Node2&#45;&gt;Node19</title>
<path fill="none" stroke="midnightblue" d="M778.47,-346.05C745.85,-379.16 673.64,-452.44 642.39,-484.16"/>
<polygon fill="midnightblue" stroke="midnightblue" points="780.99,-348.48 785.51,-338.9 776,-343.57 780.99,-348.48"/>
</g>
<!-- Node5 -->
<g id="node5" class="node">
<title>Node5</title>
<g id="a_node5"><a xlink:href="namespacesll__m__hexagonal__meshes.html#a5f174ae37e2084780d052402428340f8" target="_top" xlink:title="returns the indices of the neighbouring cells/triangles">
<polygon fill="white" stroke="black" points="397.5,-489.78 397.5,-508.78 489.5,-508.78 489.5,-489.78 397.5,-489.78"/>
<text text-anchor="middle" x="443.5" y="-496.78" font-family="Helvetica,sans-Serif" font-size="10.00">get_neighbours</text>
</a>
</g>
</g>
<!-- Node4&#45;&gt;Node5 -->
<g id="edge4" class="edge">
<title>Node4&#45;&gt;Node5</title>
<path fill="none" stroke="midnightblue" d="M615.57,-354.06C600.67,-387.95 569.26,-448.22 523,-480.28 513.2,-487.06 501.26,-491.44 489.67,-494.26"/>
<polygon fill="midnightblue" stroke="midnightblue" points="618.96,-355.01 619.66,-344.44 612.52,-352.27 618.96,-355.01"/>
</g>
<!-- Node6 -->
<g id="node6" class="node">
<title>Node6</title>
<g id="a_node6"><a xlink:href="namespacesll__m__hexagonal__meshes.html#a848cd2dc313a3701da4517ca97a4ae37" target="_top" xlink:title="Computes the coordinate transformation hex&#45;&gt;aligned for an element.">
<polygon fill="white" stroke="black" points="384,-451.78 384,-470.78 503,-470.78 503,-451.78 384,-451.78"/>
<text text-anchor="middle" x="443.5" y="-458.78" font-family="Helvetica,sans-Serif" font-size="10.00">hex_to_aligned_elmt</text>
</a>
</g>
</g>
<!-- Node4&#45;&gt;Node6 -->
<g id="edge5" class="edge">
<title>Node4&#45;&gt;Node6</title>
<path fill="none" stroke="midnightblue" d="M610.54,-352.85C592.83,-378.79 560.89,-419.78 523,-442.28 516.49,-446.14 509.23,-449.22 501.83,-451.68"/>
<polygon fill="midnightblue" stroke="midnightblue" points="613.57,-354.62 616.2,-344.36 607.74,-350.74 613.57,-354.62"/>
</g>
<!-- Node7 -->
<g id="node7" class="node">
<title>Node7</title>
<g id="a_node7"><a xlink:href="interfacesll__m__triangular__meshes_1_1sll__o__new__triangular__mesh__2d.html#a5330a53e46d6e80b362891a36500ed0f" target="_top" xlink:title="allocates the memory space for a new 2D triangular mesh on the heap, initializes it with the given he...">
<polygon fill="white" stroke="black" points="368.5,-380.28 368.5,-432.28 518.5,-432.28 518.5,-380.28 368.5,-380.28"/>
<text text-anchor="start" x="376.5" y="-420.28" font-family="Helvetica,sans-Serif" font-size="10.00">sll_m_triangular_meshes</text>
<text text-anchor="start" x="376.5" y="-409.28" font-family="Helvetica,sans-Serif" font-size="10.00">::sll_o_new_triangular</text>
<text text-anchor="start" x="376.5" y="-398.28" font-family="Helvetica,sans-Serif" font-size="10.00">_mesh_2d::new_triangular</text>
<text text-anchor="middle" x="443.5" y="-387.28" font-family="Helvetica,sans-Serif" font-size="10.00">_mesh_2d_from_hex_mesh</text>
</a>
</g>
</g>
<!-- Node4&#45;&gt;Node7 -->
<g id="edge6" class="edge">
<title>Node4&#45;&gt;Node7</title>
<path fill="none" stroke="midnightblue" d="M580.82,-348.29C558.19,-357.91 530.37,-369.75 505.77,-380.21"/>
<polygon fill="midnightblue" stroke="midnightblue" points="582.34,-351.44 590.17,-344.3 579.6,-345 582.34,-351.44"/>
</g>
<!-- Node8 -->
<g id="node8" class="node">
<title>Node8</title>
<g id="a_node8"><a xlink:href="namespacesll__m__box__splines.html#a9ac06b8c624fbc68a93fe53f82402001" target="_top" xlink:title="Computes indices of non null splines on a given cell.">
<polygon fill="white" stroke="black" points="387.5,-144.28 387.5,-174.28 499.5,-174.28 499.5,-144.28 387.5,-144.28"/>
<text text-anchor="start" x="395.5" y="-162.28" font-family="Helvetica,sans-Serif" font-size="10.00">sll_m_box_splines::</text>
<text text-anchor="middle" x="443.5" y="-151.28" font-family="Helvetica,sans-Serif" font-size="10.00">non_zeros_splines</text>
</a>
</g>
</g>
<!-- Node4&#45;&gt;Node8 -->
<g id="edge7" class="edge">
<title>Node4&#45;&gt;Node8</title>
<path fill="none" stroke="midnightblue" d="M563.33,-308.39C561.81,-307.1 560.36,-305.73 559,-304.28 520.99,-263.58 562.04,-223.98 523,-184.28 516.48,-177.65 508.21,-172.77 499.5,-169.19"/>
<polygon fill="midnightblue" stroke="midnightblue" points="561.34,-311.26 571.52,-314.2 565.39,-305.56 561.34,-311.26"/>
</g>
<!-- Node11 -->
<g id="node11" class="node">
<title>Node11</title>
<g id="a_node11"><a xlink:href="namespacesll__m__interpolation__hex__hermite.html#a9798c5acbe2996e930f4e51dee4b41ad" target="_top" xlink:title=" ">
<polygon fill="white" stroke="black" points="364,-231.78 364,-272.78 523,-272.78 523,-231.78 364,-231.78"/>
<text text-anchor="start" x="372" y="-260.78" font-family="Helvetica,sans-Serif" font-size="10.00">sll_m_interpolation</text>
<text text-anchor="start" x="372" y="-249.78" font-family="Helvetica,sans-Serif" font-size="10.00">_hex_hermite::reconstruction</text>
<text text-anchor="middle" x="443.5" y="-238.78" font-family="Helvetica,sans-Serif" font-size="10.00">_center_values</text>
</a>
</g>
</g>
<!-- Node4&#45;&gt;Node11 -->
<g id="edge10" class="edge">
<title>Node4&#45;&gt;Node11</title>
<path fill="none" stroke="midnightblue" d="M572.59,-310.32C567.95,-308.38 563.37,-306.35 559,-304.28 542.27,-296.32 539.66,-291.37 523,-283.28 515.62,-279.69 507.71,-276.19 499.86,-272.91"/>
<polygon fill="midnightblue" stroke="midnightblue" points="571.55,-313.67 582.13,-314.18 574.17,-307.18 571.55,-313.67"/>
</g>
<!-- Node12 -->
<g id="node12" class="node">
<title>Node12</title>
<g id="a_node12"><a xlink:href="namespacesll__m__hexagonal__meshes.html#a8fe8a1166a36d227d208c7badbc73cf6" target="_top" xlink:title="Computes the coordinate transformation ref&#45;&gt;hex for an element.">
<polygon fill="white" stroke="black" points="395.5,-193.78 395.5,-212.78 491.5,-212.78 491.5,-193.78 395.5,-193.78"/>
<text text-anchor="middle" x="443.5" y="-200.78" font-family="Helvetica,sans-Serif" font-size="10.00">ref_to_hex_elmt</text>
</a>
</g>
</g>
<!-- Node4&#45;&gt;Node12 -->
<g id="edge11" class="edge">
<title>Node4&#45;&gt;Node12</title>
<path fill="none" stroke="midnightblue" d="M564.2,-308.65C562.38,-307.28 560.64,-305.83 559,-304.28 530.1,-276.9 553.51,-247.83 523,-222.28 514.19,-214.89 502.96,-210.29 491.78,-207.44"/>
<polygon fill="midnightblue" stroke="midnightblue" points="562.35,-311.62 572.65,-314.1 566.15,-305.74 562.35,-311.62"/>
</g>
<!-- Node13 -->
<g id="node13" class="node">
<title>Node13</title>
<g id="a_node13"><a xlink:href="namespacesll__m__hexagonal__meshes.html#a8a40f8d23b9b32726f74fe4ff6d89043" target="_top" xlink:title="Function that allows to change from the current element notation to one more intuitive.">
<polygon fill="white" stroke="black" points="379.5,-292.28 379.5,-322.28 507.5,-322.28 507.5,-292.28 379.5,-292.28"/>
<text text-anchor="start" x="387.5" y="-310.28" font-family="Helvetica,sans-Serif" font-size="10.00">sll_f_change_elements</text>
<text text-anchor="middle" x="443.5" y="-299.28" font-family="Helvetica,sans-Serif" font-size="10.00">_notation</text>
</a>
</g>
</g>
<!-- Node4&#45;&gt;Node13 -->
<g id="edge12" class="edge">
<title>Node4&#45;&gt;Node13</title>
<path fill="none" stroke="midnightblue" d="M553.18,-320.49C538.13,-318.66 522.38,-316.74 507.69,-314.96"/>
<polygon fill="midnightblue" stroke="midnightblue" points="553.11,-324 563.46,-321.74 553.96,-317.05 553.11,-324"/>
</g>
<!-- Node14 -->
<g id="node14" class="node">
<title>Node14</title>
<g id="a_node14"><a xlink:href="namespacesll__m__hexagonal__meshes.html#a99a1f6a0f986b08021d2c0f336ba4aef" target="_top" xlink:title="Writes files for CAID.">
<polygon fill="white" stroke="black" points="200,-297.78 200,-316.78 319,-316.78 319,-297.78 200,-297.78"/>
<text text-anchor="middle" x="259.5" y="-304.78" font-family="Helvetica,sans-Serif" font-size="10.00">sll_s_write_caid_files</text>
</a>
</g>
</g>
<!-- Node4&#45;&gt;Node14 -->
<g id="edge17" class="edge">
<title>Node4&#45;&gt;Node14</title>
<path fill="none" stroke="midnightblue" d="M553.19,-335.12C500.54,-338.16 427.61,-339.85 364,-332.28 339.4,-329.35 312.2,-322.63 291.86,-316.9"/>
<polygon fill="midnightblue" stroke="midnightblue" points="553.67,-338.6 563.44,-334.5 553.25,-331.61 553.67,-338.6"/>
</g>
<!-- Node15 -->
<g id="node15" class="node">
<title>Node15</title>
<g id="a_node15"><a xlink:href="namespacesll__m__interpolation__hex__hermite.html#a9c14ed4e8a770ba4a9e08cad03cc614f" target="_top" xlink:title=" ">
<polygon fill="white" stroke="black" points="379.5,-527.78 379.5,-568.78 507.5,-568.78 507.5,-527.78 379.5,-527.78"/>
<text text-anchor="start" x="387.5" y="-556.78" font-family="Helvetica,sans-Serif" font-size="10.00">sll_m_interpolation</text>
<text text-anchor="start" x="387.5" y="-545.78" font-family="Helvetica,sans-Serif" font-size="10.00">_hex_hermite::sll_s</text>
<text text-anchor="middle" x="443.5" y="-534.78" font-family="Helvetica,sans-Serif" font-size="10.00">_hermite_interpolation</text>
</a>
</g>
</g>
<!-- Node4&#45;&gt;Node15 -->
<g id="edge16" class="edge">
<title>Node4&#45;&gt;Node15</title>
<path fill="none" stroke="midnightblue" d="M614.83,-353.73C594.55,-399.26 550.08,-494.55 523,-518.28 518.39,-522.31 513.18,-525.83 507.69,-528.9"/>
<polygon fill="midnightblue" stroke="midnightblue" points="618.15,-354.87 618.99,-344.31 611.75,-352.04 618.15,-354.87"/>
</g>
<!-- Node16 -->
<g id="node16" class="node">
<title>Node16</title>
<g id="a_node16"><a xlink:href="namespacesll__m__hexagonal__meshes.html#ad56d527a56b58b123d7351fec84cfd30" target="_top" xlink:title="Same as write_field_hex_mesh but output in xmf.">
<polygon fill="white" stroke="black" points="369.5,-105.78 369.5,-124.78 517.5,-124.78 517.5,-105.78 369.5,-105.78"/>
<text text-anchor="middle" x="443.5" y="-112.78" font-family="Helvetica,sans-Serif" font-size="10.00">write_field_hex_mesh_xmf</text>
</a>
</g>
</g>
<!-- Node4&#45;&gt;Node16 -->
<g id="edge18" class="edge">
<title>Node4&#45;&gt;Node16</title>
<path fill="none" stroke="midnightblue" d="M562.27,-307.7C561.12,-306.61 560.03,-305.47 559,-304.28 508.91,-246.06 576.22,-190.64 523,-135.28 518.91,-131.02 514.04,-127.62 508.77,-124.91"/>
<polygon fill="midnightblue" stroke="midnightblue" points="560.5,-310.75 570.55,-314.11 564.78,-305.22 560.5,-310.75"/>
</g>
<!-- Node17 -->
<g id="node17" class="node">
<title>Node17</title>
<g id="a_node17"><a xlink:href="namespacesll__m__hexagonal__meshes.html#a28202f1cd07426e9c2b838e2d30281ec" target="_top" xlink:title="Same as write_hex_mesh but output is mtv file.">
<polygon fill="white" stroke="black" points="382.5,-67.78 382.5,-86.78 504.5,-86.78 504.5,-67.78 382.5,-67.78"/>
<text text-anchor="middle" x="443.5" y="-74.78" font-family="Helvetica,sans-Serif" font-size="10.00">write_hex_mesh_mtv</text>
</a>
</g>
</g>
<!-- Node4&#45;&gt;Node17 -->
<g id="edge19" class="edge">
<title>Node4&#45;&gt;Node17</title>
<path fill="none" stroke="midnightblue" d="M562.21,-307.75C561.08,-306.65 560.01,-305.49 559,-304.28 499.19,-232 587.11,-164.77 523,-96.28 517.92,-90.85 511.58,-86.86 504.72,-83.93"/>
<polygon fill="midnightblue" stroke="midnightblue" points="560.38,-310.77 570.39,-314.24 564.73,-305.28 560.38,-310.77"/>
</g>
<!-- Node9 -->
<g id="node9" class="node">
<title>Node9</title>
<g id="a_node9"><a xlink:href="namespacesll__m__box__splines.html#a0c9a0bd0c7da4d792500caf130c3ddd0" target="_top" xlink:title="Writes connectivity for CAID / DJANGO.">
<polygon fill="white" stroke="black" points="192.5,-144.28 192.5,-174.28 326.5,-174.28 326.5,-144.28 192.5,-144.28"/>
<text text-anchor="start" x="200.5" y="-162.28" font-family="Helvetica,sans-Serif" font-size="10.00">sll_m_box_splines::</text>
<text text-anchor="middle" x="259.5" y="-151.28" font-family="Helvetica,sans-Serif" font-size="10.00">sll_s_write_connectivity</text>
</a>
</g>
</g>
<!-- Node8&#45;&gt;Node9 -->
<g id="edge8" class="edge">
<title>Node8&#45;&gt;Node9</title>
<path fill="none" stroke="midnightblue" d="M377.33,-159.28C360.86,-159.28 343.15,-159.28 326.64,-159.28"/>
<polygon fill="midnightblue" stroke="midnightblue" points="377.4,-162.78 387.4,-159.28 377.4,-155.78 377.4,-162.78"/>
</g>
<!-- Node10 -->
<g id="node10" class="node">
<title>Node10</title>
<g id="a_node10"><a xlink:href="namespacesll__m__fekete__integration.html#adceb8456a1011a2bb4dcecfd28374463" target="_top" xlink:title="This function is supposed to write all django input files needed for a Django/Jorek simulation.">
<polygon fill="white" stroke="black" points="0,-81.28 0,-111.28 155,-111.28 155,-81.28 0,-81.28"/>
<text text-anchor="start" x="8" y="-99.28" font-family="Helvetica,sans-Serif" font-size="10.00">sll_m_fekete_integration</text>
<text text-anchor="middle" x="77.5" y="-88.28" font-family="Helvetica,sans-Serif" font-size="10.00">::sll_s_write_all_django_files</text>
</a>
</g>
</g>
<!-- Node9&#45;&gt;Node10 -->
<g id="edge9" class="edge">
<title>Node9&#45;&gt;Node10</title>
<path fill="none" stroke="midnightblue" d="M205.78,-140.82C178.99,-131.45 146.86,-120.2 121.57,-111.35"/>
<polygon fill="midnightblue" stroke="midnightblue" points="204.79,-144.19 215.39,-144.19 207.1,-137.58 204.79,-144.19"/>
</g>
<!-- Node13&#45;&gt;Node9 -->
<g id="edge15" class="edge">
<title>Node13&#45;&gt;Node9</title>
<path fill="none" stroke="midnightblue" d="M373.26,-287.75C370.05,-286.07 366.94,-284.24 364,-282.28 320.4,-253.09 285.02,-200.44 269.3,-174.52"/>
<polygon fill="midnightblue" stroke="midnightblue" points="372.01,-291.03 382.54,-292.15 375,-284.7 372.01,-291.03"/>
</g>
<!-- Node13&#45;&gt;Node14 -->
<g id="edge13" class="edge">
<title>Node13&#45;&gt;Node14</title>
<path fill="none" stroke="midnightblue" d="M369.15,-307.28C352.56,-307.28 335.15,-307.28 319.25,-307.28"/>
<polygon fill="midnightblue" stroke="midnightblue" points="369.36,-310.78 379.36,-307.28 369.36,-303.78 369.36,-310.78"/>
</g>
<!-- Node14&#45;&gt;Node10 -->
<g id="edge14" class="edge">
<title>Node14&#45;&gt;Node10</title>
<path fill="none" stroke="midnightblue" d="M243.75,-289.99C209.27,-249.56 123.84,-149.43 91.34,-111.32"/>
<polygon fill="midnightblue" stroke="midnightblue" points="241.15,-292.32 250.3,-297.66 246.47,-287.78 241.15,-292.32"/>
</g>
<!-- Node18&#45;&gt;Node15 -->
<g id="edge21" class="edge">
<title>Node18&#45;&gt;Node15</title>
<path fill="none" stroke="midnightblue" d="M555.76,-546.43C539.97,-546.69 523.29,-546.97 507.79,-547.23"/>
<polygon fill="midnightblue" stroke="midnightblue" points="556.04,-549.93 565.98,-546.26 555.93,-542.93 556.04,-549.93"/>
</g>
<!-- Node19&#45;&gt;Node5 -->
<g id="edge23" class="edge">
<title>Node19&#45;&gt;Node5</title>
<path fill="none" stroke="midnightblue" d="M564.79,-499.28C540.25,-499.28 512.41,-499.28 489.71,-499.28"/>
<polygon fill="midnightblue" stroke="midnightblue" points="565.08,-502.78 575.08,-499.28 565.08,-495.78 565.08,-502.78"/>
</g>
<!-- Node19&#45;&gt;Node15 -->
<g id="edge24" class="edge">
<title>Node19&#45;&gt;Node15</title>
<path fill="none" stroke="midnightblue" d="M565.29,-515.58C546.75,-520.59 526.29,-526.13 507.57,-531.2"/>
<polygon fill="midnightblue" stroke="midnightblue" points="566.34,-518.92 575.08,-512.92 564.51,-512.16 566.34,-518.92"/>
</g>
<!-- Node21 -->
<g id="node21" class="node">
<title>Node21</title>
<g id="a_node21"><a xlink:href="namespacesll__m__hexagonal__meshes.html#aaa2262794e099a011cb267f899c82b15" target="_top" xlink:title="Creates and initializes a new hexagonal mesh.">
<polygon fill="white" stroke="black" points="559,-23.78 559,-42.78 694,-42.78 694,-23.78 559,-23.78"/>
<text text-anchor="middle" x="626.5" y="-30.78" font-family="Helvetica,sans-Serif" font-size="10.00">sll_f_new_hex_mesh_2d</text>
</a>
</g>
</g>
<!-- Node20&#45;&gt;Node21 -->
<g id="edge26" class="edge">
<title>Node20&#45;&gt;Node21</title>
<path fill="none" stroke="midnightblue" d="M775.4,-156.9C740.22,-127.49 667.39,-66.61 639.09,-42.97"/>
<polygon fill="midnightblue" stroke="midnightblue" points="773.57,-159.93 783.49,-163.65 778.06,-154.55 773.57,-159.93"/>
</g>
<!-- Node21&#45;&gt;Node10 -->
<g id="edge30" class="edge">
<title>Node21&#45;&gt;Node10</title>
<path fill="none" stroke="midnightblue" d="M584.81,-20.98C566.16,-15.96 543.66,-10.76 523,-8.28 375.49,9.45 332.2,-1.07 191,-47.28 162.45,-56.62 131.22,-70.53 108.93,-81.15"/>
<polygon fill="midnightblue" stroke="midnightblue" points="583.88,-24.35 594.45,-23.65 585.75,-17.61 583.88,-24.35"/>
</g>
<!-- Node22 -->
<g id="node22" class="node">
<title>Node22</title>
<g id="a_node22"><a xlink:href="namespacesll__m__box__splines.html#a0f40714993a4e4bdcf19d5798130ae75" target="_top" xlink:title="Computes the values or derivatives of box splines.">
<polygon fill="white" stroke="black" points="378,-18.28 378,-48.28 509,-48.28 509,-18.28 378,-18.28"/>
<text text-anchor="start" x="386" y="-36.28" font-family="Helvetica,sans-Serif" font-size="10.00">sll_m_box_splines::</text>
<text text-anchor="middle" x="443.5" y="-25.28" font-family="Helvetica,sans-Serif" font-size="10.00">sll_f_boxspline_val_der</text>
</a>
</g>
</g>
<!-- Node21&#45;&gt;Node22 -->
<g id="edge27" class="edge">
<title>Node21&#45;&gt;Node22</title>
<path fill="none" stroke="midnightblue" d="M548.87,-33.28C535.65,-33.28 522.04,-33.28 509.18,-33.28"/>
<polygon fill="midnightblue" stroke="midnightblue" points="548.87,-36.78 558.87,-33.28 548.87,-29.78 548.87,-36.78"/>
</g>
<!-- Node23 -->
<g id="node23" class="node">
<title>Node23</title>
<g id="a_node23"><a xlink:href="namespacesll__m__fekete__integration.html#ac7c05ae36ac69d55d2c022d71e82cae9" target="_top" xlink:title="Writes on a file values of boxsplines on fekete points.">
<polygon fill="white" stroke="black" points="191,-57.28 191,-87.28 328,-87.28 328,-57.28 191,-57.28"/>
<text text-anchor="start" x="199" y="-75.28" font-family="Helvetica,sans-Serif" font-size="10.00">sll_m_fekete_integration</text>
<text text-anchor="middle" x="259.5" y="-64.28" font-family="Helvetica,sans-Serif" font-size="10.00">::write_basis_values</text>
</a>
</g>
</g>
<!-- Node22&#45;&gt;Node23 -->
<g id="edge28" class="edge">
<title>Node22&#45;&gt;Node23</title>
<path fill="none" stroke="midnightblue" d="M367.85,-49.27C354.67,-52.1 341.02,-55.02 328.05,-57.8"/>
<polygon fill="midnightblue" stroke="midnightblue" points="368.78,-52.65 377.82,-47.14 367.31,-45.81 368.78,-52.65"/>
</g>
<!-- Node23&#45;&gt;Node10 -->
<g id="edge29" class="edge">
<title>Node23&#45;&gt;Node10</title>
<path fill="none" stroke="midnightblue" d="M181.01,-82.61C172.45,-83.75 163.74,-84.91 155.19,-86.05"/>
<polygon fill="midnightblue" stroke="midnightblue" points="181.51,-86.07 190.96,-81.28 180.59,-79.13 181.51,-86.07"/>
</g>
</g>
</svg>
