<?xml version="1.0" encoding="UTF-8" standalone="no"?>
<!DOCTYPE svg PUBLIC "-//W3C//DTD SVG 1.1//EN"
 "http://www.w3.org/Graphics/SVG/1.1/DTD/svg11.dtd">
<!-- Generated by graphviz version 2.38.0 (20140413.2041)
 -->
<!-- Title: sll_s_localize_polar Pages: 1 -->
<svg width="213pt" height="66pt"
 viewBox="0.00 0.00 213.00 66.00" xmlns="http://www.w3.org/2000/svg" xmlns:xlink="http://www.w3.org/1999/xlink">
<g id="graph0" class="graph" transform="scale(1 1) rotate(0) translate(4 62)">
<title>sll_s_localize_polar</title>
<polygon fill="white" stroke="none" points="-4,4 -4,-62 209,-62 209,4 -4,4"/>
<!-- Node1 -->
<g id="node1" class="node"><title>Node1</title>
<polygon fill="#bfbfbf" stroke="black" points="0,-19.5 0,-38.5 101,-38.5 101,-19.5 0,-19.5"/>
<text text-anchor="middle" x="50.5" y="-26.5" font-family="Helvetica,sans-Serif" font-size="10.00">sll_s_localize_polar</text>
</g>
<!-- Node2 -->
<g id="node2" class="node"><title>Node2</title>
<g id="a_node2"><a xlink:href="namespacesll__m__qn__2d__polar.html#ac8958bfae3c2e033ec14c5713f986df9" target="_top" xlink:title="localize_nat">
<polygon fill="white" stroke="black" points="137,-38.5 137,-57.5 205,-57.5 205,-38.5 137,-38.5"/>
<text text-anchor="middle" x="171" y="-45.5" font-family="Helvetica,sans-Serif" font-size="10.00">localize_nat</text>
</a>
</g>
</g>
<!-- Node1&#45;&gt;Node2 -->
<g id="edge1" class="edge"><title>Node1&#45;&gt;Node2</title>
<path fill="none" stroke="midnightblue" d="M101.068,-36.9476C109.635,-38.3212 118.479,-39.7393 126.859,-41.0828"/>
<polygon fill="midnightblue" stroke="midnightblue" points="126.371,-44.5493 136.799,-42.6766 127.479,-37.6375 126.371,-44.5493"/>
</g>
<!-- Node3 -->
<g id="node3" class="node"><title>Node3</title>
<g id="a_node3"><a xlink:href="namespacesll__m__qn__2d__polar.html#ac5e7893325a119e6331af6209aa97560" target="_top" xlink:title="localize_per">
<polygon fill="white" stroke="black" points="137,-0.5 137,-19.5 205,-19.5 205,-0.5 137,-0.5"/>
<text text-anchor="middle" x="171" y="-7.5" font-family="Helvetica,sans-Serif" font-size="10.00">localize_per</text>
</a>
</g>
</g>
<!-- Node1&#45;&gt;Node3 -->
<g id="edge2" class="edge"><title>Node1&#45;&gt;Node3</title>
<path fill="none" stroke="midnightblue" d="M101.068,-21.0524C109.635,-19.6788 118.479,-18.2607 126.859,-16.9172"/>
<polygon fill="midnightblue" stroke="midnightblue" points="127.479,-20.3625 136.799,-15.3234 126.371,-13.4507 127.479,-20.3625"/>
</g>
</g>
</svg>
