<?xml version="1.0" encoding="UTF-8" standalone="no"?>
<!DOCTYPE svg PUBLIC "-//W3C//DTD SVG 1.1//EN"
 "http://www.w3.org/Graphics/SVG/1.1/DTD/svg11.dtd">
<!-- Generated by graphviz version 2.40.1 (20161225.0304)
 -->
<!-- Title: get_x2 Pages: 1 -->
<svg width="559pt" height="100pt"
 viewBox="0.00 0.00 559.00 99.50" xmlns="http://www.w3.org/2000/svg" xmlns:xlink="http://www.w3.org/1999/xlink">
<g id="graph0" class="graph" transform="scale(1 1) rotate(0) translate(4 95.5)">
<title>get_x2</title>
<polygon fill="#ffffff" stroke="transparent" points="-4,4 -4,-95.5 555,-95.5 555,4 -4,4"/>
<!-- Node29 -->
<g id="node1" class="node">
<title>Node29</title>
<polygon fill="#bfbfbf" stroke="#000000" points="0,-50 0,-69 50,-69 50,-50 0,-50"/>
<text text-anchor="middle" x="25" y="-57" font-family="Helvetica,sans-Serif" font-size="10.00" fill="#000000">get_x2</text>
</g>
<!-- Node30 -->
<g id="node2" class="node">
<title>Node30</title>
<g id="a_node2"><a xlink:href="namespacesll__m__mapping__3d.html#ad0b179bfe489b471a8a3c448e49d0db6" target="_top" xlink:title="Helper function to compute xbox. ">
<polygon fill="#ffffff" stroke="#000000" points="97,-72 97,-91 206,-91 206,-72 97,-72"/>
<text text-anchor="middle" x="151.5" y="-79" font-family="Helvetica,sans-Serif" font-size="10.00" fill="#000000">convert_x_to_xbox</text>
</a>
</g>
</g>
<!-- Node29&#45;&gt;Node30 -->
<g id="edge1" class="edge">
<title>Node29&#45;&gt;Node30</title>
<path fill="none" stroke="#191970" d="M50.2951,-63.8992C60.9819,-65.7577 73.9627,-68.0152 87.0136,-70.285"/>
<polygon fill="#191970" stroke="#191970" points="86.5188,-73.7514 96.9707,-72.0166 87.7183,-66.8549 86.5188,-73.7514"/>
</g>
<!-- Node31 -->
<g id="node3" class="node">
<title>Node31</title>
<g id="a_node3"><a xlink:href="namespacesll__m__splines__pp.html#a44b8b762ad5f936a42a8f989718bb48c" target="_top" xlink:title="Perform a 3d hornerschema on the pp_coeffs at the indices. ">
<polygon fill="#ffffff" stroke="#000000" points="86,-22.5 86,-52.5 217,-52.5 217,-22.5 86,-22.5"/>
<text text-anchor="start" x="94" y="-40.5" font-family="Helvetica,sans-Serif" font-size="10.00" fill="#000000">sll_m_splines_pp::sll</text>
<text text-anchor="middle" x="151.5" y="-29.5" font-family="Helvetica,sans-Serif" font-size="10.00" fill="#000000">_f_spline_pp_horner_3d</text>
</a>
</g>
</g>
<!-- Node29&#45;&gt;Node31 -->
<g id="edge2" class="edge">
<title>Node29&#45;&gt;Node31</title>
<path fill="none" stroke="#191970" d="M50.2951,-55.1008C57.9199,-53.7748 66.7123,-52.2457 75.8649,-50.6539"/>
<polygon fill="#191970" stroke="#191970" points="76.6471,-54.0705 85.8995,-48.9088 75.4476,-47.174 76.6471,-54.0705"/>
</g>
<!-- Node32 -->
<g id="node4" class="node">
<title>Node32</title>
<g id="a_node4"><a xlink:href="namespacesll__m__splines__pp.html#ab63c3a25b861ed9b8701ae2f65942bcf" target="_top" xlink:title="Perform a 1d hornerschema on the pp_coeffs at index. ">
<polygon fill="#ffffff" stroke="#000000" points="420,-22.5 420,-52.5 551,-52.5 551,-22.5 420,-22.5"/>
<text text-anchor="start" x="428" y="-40.5" font-family="Helvetica,sans-Serif" font-size="10.00" fill="#000000">sll_m_splines_pp::sll</text>
<text text-anchor="middle" x="485.5" y="-29.5" font-family="Helvetica,sans-Serif" font-size="10.00" fill="#000000">_f_spline_pp_horner_1d</text>
</a>
</g>
</g>
<!-- Node31&#45;&gt;Node32 -->
<g id="edge3" class="edge">
<title>Node31&#45;&gt;Node32</title>
<path fill="none" stroke="#191970" d="M217.0138,-39.7206C228.9843,-40.0454 241.366,-40.3281 253,-40.5 311.2159,-41.3601 325.7841,-41.3601 384,-40.5 392.362,-40.3765 401.1101,-40.1957 409.8143,-39.9831"/>
<polygon fill="#191970" stroke="#191970" points="410.0799,-43.4775 419.9862,-39.7206 409.8992,-36.4799 410.0799,-43.4775"/>
</g>
<!-- Node33 -->
<g id="node5" class="node">
<title>Node33</title>
<g id="a_node5"><a xlink:href="namespacesll__m__splines__pp.html#a0e728b131757d9606adbb1227354c22a" target="_top" xlink:title="Perform a 2d hornerschema on the pp_coeffs at the indices. ">
<polygon fill="#ffffff" stroke="#000000" points="253,-.5 253,-30.5 384,-30.5 384,-.5 253,-.5"/>
<text text-anchor="start" x="261" y="-18.5" font-family="Helvetica,sans-Serif" font-size="10.00" fill="#000000">sll_m_splines_pp::sll</text>
<text text-anchor="middle" x="318.5" y="-7.5" font-family="Helvetica,sans-Serif" font-size="10.00" fill="#000000">_f_spline_pp_horner_2d</text>
</a>
</g>
</g>
<!-- Node31&#45;&gt;Node33 -->
<g id="edge4" class="edge">
<title>Node31&#45;&gt;Node33</title>
<path fill="none" stroke="#191970" d="M217.0235,-28.8682C225.496,-27.752 234.2278,-26.6017 242.8471,-25.4663"/>
<polygon fill="#191970" stroke="#191970" points="243.4342,-28.9192 252.8913,-24.1431 242.5198,-21.9792 243.4342,-28.9192"/>
</g>
<!-- Node33&#45;&gt;Node32 -->
<g id="edge5" class="edge">
<title>Node33&#45;&gt;Node32</title>
<path fill="none" stroke="#191970" d="M384.0235,-24.1318C392.496,-25.248 401.2278,-26.3983 409.8471,-27.5337"/>
<polygon fill="#191970" stroke="#191970" points="409.5198,-31.0208 419.8913,-28.8569 410.4342,-24.0808 409.5198,-31.0208"/>
</g>
</g>
</svg>
