<?xml version="1.0" encoding="UTF-8" standalone="no"?>
<!DOCTYPE svg PUBLIC "-//W3C//DTD SVG 1.1//EN"
 "http://www.w3.org/Graphics/SVG/1.1/DTD/svg11.dtd">
<!-- Generated by graphviz version 2.40.1 (20161225.0304)
 -->
<!-- Title: lagr_11pt_vec Pages: 1 -->
<svg width="510pt" height="39pt"
 viewBox="0.00 0.00 510.00 39.00" xmlns="http://www.w3.org/2000/svg" xmlns:xlink="http://www.w3.org/1999/xlink">
<g id="graph0" class="graph" transform="scale(1 1) rotate(0) translate(4 35)">
<title>lagr_11pt_vec</title>
<polygon fill="#ffffff" stroke="transparent" points="-4,4 -4,-35 506,-35 506,4 -4,4"/>
<!-- Node13 -->
<g id="node1" class="node">
<title>Node13</title>
<polygon fill="#bfbfbf" stroke="#000000" points="0,-6 0,-25 85,-25 85,-6 0,-6"/>
<text text-anchor="middle" x="42.5" y="-13" font-family="Helvetica,sans-Serif" font-size="10.00" fill="#000000">lagr_11pt_vec</text>
</g>
<!-- Node14 -->
<g id="node2" class="node">
<title>Node14</title>
<g id="a_node2"><a xlink:href="namespacesll__m__lagrange__interpolation__1d__fast.html#ac26fc43ee907fcd29791154948c16dd3" target="_top" xlink:title="Lagrange interpolation with halo cell boundaries, where the input array already contains halo cells...">
<polygon fill="#ffffff" stroke="#000000" points="121,-.5 121,-30.5 293,-30.5 293,-.5 121,-.5"/>
<text text-anchor="start" x="129" y="-18.5" font-family="Helvetica,sans-Serif" font-size="10.00" fill="#000000">sll_s_lagrange_interpolation</text>
<text text-anchor="middle" x="207" y="-7.5" font-family="Helvetica,sans-Serif" font-size="10.00" fill="#000000">_1d_fast_disp_fixed_haloc_cells</text>
</a>
</g>
</g>
<!-- Node13&#45;&gt;Node14 -->
<g id="edge1" class="edge">
<title>Node13&#45;&gt;Node14</title>
<path fill="none" stroke="#191970" d="M95.3356,-15.5C103.4751,-15.5 112.0573,-15.5 120.6993,-15.5"/>
<polygon fill="#191970" stroke="#191970" points="95.291,-12.0001 85.291,-15.5 95.291,-19.0001 95.291,-12.0001"/>
</g>
<!-- Node15 -->
<g id="node3" class="node">
<title>Node15</title>
<g id="a_node3"><a xlink:href="namespacesll__m__lagrange__interpolator__1d.html#a666c93a77c57376c29a70b853ab02e44" target="_top" xlink:title="sll_m_lagrange_interpolator\l_1d::interpolate_array_disp_li1d">
<polygon fill="#ffffff" stroke="#000000" points="329,-.5 329,-30.5 502,-30.5 502,-.5 329,-.5"/>
<text text-anchor="start" x="337" y="-18.5" font-family="Helvetica,sans-Serif" font-size="10.00" fill="#000000">sll_m_lagrange_interpolator</text>
<text text-anchor="middle" x="415.5" y="-7.5" font-family="Helvetica,sans-Serif" font-size="10.00" fill="#000000">_1d::interpolate_array_disp_li1d</text>
</a>
</g>
</g>
<!-- Node14&#45;&gt;Node15 -->
<g id="edge2" class="edge">
<title>Node14&#45;&gt;Node15</title>
<path fill="none" stroke="#191970" d="M303.0089,-15.5C311.5686,-15.5 320.2028,-15.5 328.6789,-15.5"/>
<polygon fill="#191970" stroke="#191970" points="303.0087,-12.0001 293.0087,-15.5 303.0087,-19.0001 303.0087,-12.0001"/>
</g>
</g>
</svg>
