<?xml version="1.0" encoding="UTF-8" standalone="no"?>
<!DOCTYPE svg PUBLIC "-//W3C//DTD SVG 1.1//EN"
 "http://www.w3.org/Graphics/SVG/1.1/DTD/svg11.dtd">
<!-- Generated by graphviz version 2.43.0 (0)
 -->
<!-- Title: hermite_coef_nat_per Pages: 1 -->
<svg width="529pt" height="110pt"
 viewBox="0.00 0.00 529.00 110.00" xmlns="http://www.w3.org/2000/svg" xmlns:xlink="http://www.w3.org/1999/xlink">
<g id="graph0" class="graph" transform="scale(1 1) rotate(0) translate(4 106)">
<title>hermite_coef_nat_per</title>
<polygon fill="white" stroke="transparent" points="-4,4 -4,-106 525,-106 525,4 -4,4"/>
<!-- Node1 -->
<g id="node1" class="node">
<title>Node1</title>
<g id="a_node1"><a xlink:title=" ">
<polygon fill="#bfbfbf" stroke="black" points="398,-41.5 398,-60.5 521,-60.5 521,-41.5 398,-41.5"/>
<text text-anchor="middle" x="459.5" y="-48.5" font-family="Helvetica,sans-Serif" font-size="10.00">hermite_coef_nat_per</text>
</a>
</g>
</g>
<!-- Node2 -->
<g id="node2" class="node">
<title>Node2</title>
<g id="a_node2"><a xlink:href="namespacesll__m__hermite__interpolation__2d.html#a04292b17bd88dc36d294cd061c7b9851" target="_top" xlink:title=" ">
<polygon fill="white" stroke="black" points="212,-36 212,-66 362,-66 362,-36 212,-36"/>
<text text-anchor="start" x="220" y="-54" font-family="Helvetica,sans-Serif" font-size="10.00">sll_s_compute_interpolants</text>
<text text-anchor="middle" x="287" y="-43" font-family="Helvetica,sans-Serif" font-size="10.00">_hermite_2d</text>
</a>
</g>
</g>
<!-- Node1&#45;&gt;Node2 -->
<g id="edge1" class="edge">
<title>Node1&#45;&gt;Node2</title>
<path fill="none" stroke="midnightblue" d="M387.72,-51C379.27,-51 370.63,-51 362.13,-51"/>
<polygon fill="midnightblue" stroke="midnightblue" points="387.91,-54.5 397.91,-51 387.91,-47.5 387.91,-54.5"/>
</g>
<!-- Node3 -->
<g id="node3" class="node">
<title>Node3</title>
<g id="a_node3"><a xlink:href="namespacesll__m__hermite__interpolator__2d.html#a9e8877b63b148018043a2ff9ce5f4d41" target="_top" xlink:title=" ">
<polygon fill="white" stroke="black" points="0,-60.5 0,-101.5 176,-101.5 176,-60.5 0,-60.5"/>
<text text-anchor="start" x="8" y="-89.5" font-family="Helvetica,sans-Serif" font-size="10.00">sll_m_hermite_interpolator</text>
<text text-anchor="start" x="8" y="-78.5" font-family="Helvetica,sans-Serif" font-size="10.00">_2d::wrap_compute_interpolants</text>
<text text-anchor="middle" x="88" y="-67.5" font-family="Helvetica,sans-Serif" font-size="10.00">_hermite_2d</text>
</a>
</g>
</g>
<!-- Node2&#45;&gt;Node3 -->
<g id="edge2" class="edge">
<title>Node2&#45;&gt;Node3</title>
<path fill="none" stroke="midnightblue" d="M201.86,-63.81C193.31,-65.11 184.62,-66.44 176.05,-67.74"/>
<polygon fill="midnightblue" stroke="midnightblue" points="202.44,-67.26 211.8,-62.3 201.39,-60.34 202.44,-67.26"/>
</g>
<!-- Node4 -->
<g id="node4" class="node">
<title>Node4</title>
<g id="a_node4"><a xlink:href="namespacesll__m__hermite__interpolator__2d.html#ad53ebd1209155b3b27ea6ae1949d5e39" target="_top" xlink:title=" ">
<polygon fill="white" stroke="black" points="11.5,-0.5 11.5,-41.5 164.5,-41.5 164.5,-0.5 11.5,-0.5"/>
<text text-anchor="start" x="19.5" y="-29.5" font-family="Helvetica,sans-Serif" font-size="10.00">sll_m_hermite_interpolator</text>
<text text-anchor="start" x="19.5" y="-18.5" font-family="Helvetica,sans-Serif" font-size="10.00">_2d::wrap_interpolate_array</text>
<text text-anchor="middle" x="88" y="-7.5" font-family="Helvetica,sans-Serif" font-size="10.00">_hermite_2d</text>
</a>
</g>
</g>
<!-- Node2&#45;&gt;Node4 -->
<g id="edge3" class="edge">
<title>Node2&#45;&gt;Node4</title>
<path fill="none" stroke="midnightblue" d="M201.61,-38.15C189.37,-36.28 176.83,-34.37 164.77,-32.54"/>
<polygon fill="midnightblue" stroke="midnightblue" points="201.39,-41.66 211.8,-39.7 202.44,-34.74 201.39,-41.66"/>
</g>
</g>
</svg>
