<?xml version="1.0" encoding="UTF-8" standalone="no"?>
<!DOCTYPE svg PUBLIC "-//W3C//DTD SVG 1.1//EN"
 "http://www.w3.org/Graphics/SVG/1.1/DTD/svg11.dtd">
<!-- Generated by graphviz version 2.40.1 (20161225.0304)
 -->
<!-- Title: write_2d_field Pages: 1 -->
<svg width="272pt" height="247pt"
 viewBox="0.00 0.00 272.00 247.00" xmlns="http://www.w3.org/2000/svg" xmlns:xlink="http://www.w3.org/1999/xlink">
<g id="graph0" class="graph" transform="scale(1 1) rotate(0) translate(4 243)">
<title>write_2d_field</title>
<polygon fill="#ffffff" stroke="transparent" points="-4,4 -4,-243 268,-243 268,4 -4,4"/>
<!-- Node6 -->
<g id="node1" class="node">
<title>Node6</title>
<polygon fill="#bfbfbf" stroke="#000000" points="0,-116 0,-135 85,-135 85,-116 0,-116"/>
<text text-anchor="middle" x="42.5" y="-123" font-family="Helvetica,sans-Serif" font-size="10.00" fill="#000000">write_2d_field</text>
</g>
<!-- Node7 -->
<g id="node2" class="node">
<title>Node7</title>
<g id="a_node2"><a xlink:href="namespacesll__m__utilities.html#a4d45f033e67c39369da8b297302793cb" target="_top" xlink:title="Convert an integer &lt; 9999 to a 4 characters string. ">
<polygon fill="#ffffff" stroke="#000000" points="141.5,-208.5 141.5,-238.5 243.5,-238.5 243.5,-208.5 141.5,-208.5"/>
<text text-anchor="start" x="149.5" y="-226.5" font-family="Helvetica,sans-Serif" font-size="10.00" fill="#000000">sll_m_utilities::sll</text>
<text text-anchor="middle" x="192.5" y="-215.5" font-family="Helvetica,sans-Serif" font-size="10.00" fill="#000000">_s_int2string</text>
</a>
</g>
</g>
<!-- Node6&#45;&gt;Node7 -->
<g id="edge1" class="edge">
<title>Node6&#45;&gt;Node7</title>
<path fill="none" stroke="#191970" d="M50.1955,-135.0562C63.2188,-150.6431 91.1182,-181.5931 121,-199.5 124.4397,-201.5612 128.0796,-203.4728 131.8227,-205.2409"/>
<polygon fill="#191970" stroke="#191970" points="130.7171,-208.5764 141.284,-209.3443 133.5023,-202.1544 130.7171,-208.5764"/>
</g>
<!-- Node8 -->
<g id="node3" class="node">
<title>Node8</title>
<g id="a_node3"><a xlink:href="namespacesll__m__xml__io.html#aa79c90960210f0f247699f5c6559531a" target="_top" xlink:title="Create the XML file and begin to write first lines. You get the file unit number. ...">
<polygon fill="#ffffff" stroke="#000000" points="138,-159.5 138,-189.5 247,-189.5 247,-159.5 138,-159.5"/>
<text text-anchor="start" x="146" y="-177.5" font-family="Helvetica,sans-Serif" font-size="10.00" fill="#000000">sll_m_xml_io::sll_s</text>
<text text-anchor="middle" x="192.5" y="-166.5" font-family="Helvetica,sans-Serif" font-size="10.00" fill="#000000">_xml_file_create</text>
</a>
</g>
</g>
<!-- Node6&#45;&gt;Node8 -->
<g id="edge2" class="edge">
<title>Node6&#45;&gt;Node8</title>
<path fill="none" stroke="#191970" d="M71.7776,-135.064C90.2705,-141.105 114.7608,-149.1052 136.848,-156.3204"/>
<polygon fill="#191970" stroke="#191970" points="135.876,-159.6848 146.4685,-159.463 138.0496,-153.0308 135.876,-159.6848"/>
</g>
<!-- Node9 -->
<g id="node4" class="node">
<title>Node9</title>
<g id="a_node4"><a xlink:href="namespacesll__m__xml__io.html#a214cc5ba4867ca81aa2551a414b4d2c2" target="_top" xlink:title="Close the XML file and finish to write last lines. You give the file unit number. ...">
<polygon fill="#ffffff" stroke="#000000" points="138,-110.5 138,-140.5 247,-140.5 247,-110.5 138,-110.5"/>
<text text-anchor="start" x="146" y="-128.5" font-family="Helvetica,sans-Serif" font-size="10.00" fill="#000000">sll_m_xml_io::sll_s</text>
<text text-anchor="middle" x="192.5" y="-117.5" font-family="Helvetica,sans-Serif" font-size="10.00" fill="#000000">_xml_file_close</text>
</a>
</g>
</g>
<!-- Node6&#45;&gt;Node9 -->
<g id="edge3" class="edge">
<title>Node6&#45;&gt;Node9</title>
<path fill="none" stroke="#191970" d="M85.0828,-125.5C98.2556,-125.5 113.0805,-125.5 127.4138,-125.5"/>
<polygon fill="#191970" stroke="#191970" points="127.7331,-129.0001 137.7331,-125.5 127.733,-122.0001 127.7331,-129.0001"/>
</g>
<!-- Node10 -->
<g id="node5" class="node">
<title>Node10</title>
<g id="a_node5"><a xlink:href="namespacesll__m__hdf5__io__serial.html#a4ee38dc50c13e54d6b1e905ca852e49b" target="_top" xlink:title="Create new HDF5 file. ">
<polygon fill="#ffffff" stroke="#000000" points="134.5,-50 134.5,-91 250.5,-91 250.5,-50 134.5,-50"/>
<text text-anchor="start" x="142.5" y="-79" font-family="Helvetica,sans-Serif" font-size="10.00" fill="#000000">sll_m_hdf5_io_serial</text>
<text text-anchor="start" x="142.5" y="-68" font-family="Helvetica,sans-Serif" font-size="10.00" fill="#000000">::sll_s_hdf5_ser_file</text>
<text text-anchor="middle" x="192.5" y="-57" font-family="Helvetica,sans-Serif" font-size="10.00" fill="#000000">_create</text>
</a>
</g>
</g>
<!-- Node6&#45;&gt;Node10 -->
<g id="edge4" class="edge">
<title>Node6&#45;&gt;Node10</title>
<path fill="none" stroke="#191970" d="M68.628,-115.9197C84.8601,-109.968 106.5017,-102.0327 127.1509,-94.4613"/>
<polygon fill="#191970" stroke="#191970" points="128.3617,-97.7453 136.5456,-91.0166 125.9519,-91.1732 128.3617,-97.7453"/>
</g>
<!-- Node11 -->
<g id="node6" class="node">
<title>Node11</title>
<g id="a_node6"><a xlink:href="namespacesll__m__hdf5__io__serial.html#aad08ae9d9ee0157ed6f78f50717367f1" target="_top" xlink:title="Close existing HDF5 file. ">
<polygon fill="#ffffff" stroke="#000000" points="121,-.5 121,-30.5 264,-30.5 264,-.5 121,-.5"/>
<text text-anchor="start" x="129" y="-18.5" font-family="Helvetica,sans-Serif" font-size="10.00" fill="#000000">sll_m_hdf5_io_serial</text>
<text text-anchor="middle" x="192.5" y="-7.5" font-family="Helvetica,sans-Serif" font-size="10.00" fill="#000000">::sll_s_hdf5_ser_file_close</text>
</a>
</g>
</g>
<!-- Node6&#45;&gt;Node11 -->
<g id="edge5" class="edge">
<title>Node6&#45;&gt;Node11</title>
<path fill="none" stroke="#191970" d="M48.9086,-115.9145C61.0135,-98.5052 88.9233,-61.55 121,-40.5 124.0955,-38.4686 127.3751,-36.5816 130.7607,-34.8318"/>
<polygon fill="#191970" stroke="#191970" points="132.3638,-37.9456 139.9168,-30.5157 129.379,-31.6138 132.3638,-37.9456"/>
</g>
</g>
</svg>
