<?xml version="1.0" encoding="UTF-8" standalone="no"?>
<!DOCTYPE svg PUBLIC "-//W3C//DTD SVG 1.1//EN"
 "http://www.w3.org/Graphics/SVG/1.1/DTD/svg11.dtd">
<!-- Generated by graphviz version 2.43.0 (0)
 -->
<!-- Title: sll_s_multiply_g_clamped_1d Pages: 1 -->
<svg width="535pt" height="375pt"
 viewBox="0.00 0.00 535.00 375.00" xmlns="http://www.w3.org/2000/svg" xmlns:xlink="http://www.w3.org/1999/xlink">
<g id="graph0" class="graph" transform="scale(1 1) rotate(0) translate(4 371)">
<title>sll_s_multiply_g_clamped_1d</title>
<polygon fill="white" stroke="transparent" points="-4,4 -4,-371 531,-371 531,4 -4,4"/>
<!-- Node1 -->
<g id="node1" class="node">
<title>Node1</title>
<g id="a_node1"><a xlink:title="Multiplication of the input vector in by the clamped derivative matrix G.">
<polygon fill="#bfbfbf" stroke="black" points="367,-248.5 367,-267.5 527,-267.5 527,-248.5 367,-248.5"/>
<text text-anchor="middle" x="447" y="-255.5" font-family="Helvetica,sans-Serif" font-size="10.00">sll_s_multiply_g_clamped_1d</text>
</a>
</g>
</g>
<!-- Node2 -->
<g id="node2" class="node">
<title>Node2</title>
<g id="a_node2"><a xlink:href="namespacesll__m__linear__operator__poisson__clamped__1d.html#a29a7daa8197e83b1974a90488639ad1c" target="_top" xlink:title=" ">
<polygon fill="white" stroke="black" points="191,-325.5 191,-366.5 331,-366.5 331,-325.5 191,-325.5"/>
<text text-anchor="start" x="199" y="-354.5" font-family="Helvetica,sans-Serif" font-size="10.00">sll_m_linear_operator</text>
<text text-anchor="start" x="199" y="-343.5" font-family="Helvetica,sans-Serif" font-size="10.00">_poisson_clamped_1d::</text>
<text text-anchor="middle" x="261" y="-332.5" font-family="Helvetica,sans-Serif" font-size="10.00">dot_poisson_clamped_1d</text>
</a>
</g>
</g>
<!-- Node1&#45;&gt;Node2 -->
<g id="edge1" class="edge">
<title>Node1&#45;&gt;Node2</title>
<path fill="none" stroke="midnightblue" d="M418.93,-272.2C395.76,-284.22 361.43,-301.73 331,-316 324.38,-319.11 317.35,-322.29 310.41,-325.37"/>
<polygon fill="midnightblue" stroke="midnightblue" points="420.58,-275.29 427.83,-267.57 417.35,-269.08 420.58,-275.29"/>
</g>
<!-- Node3 -->
<g id="node3" class="node">
<title>Node3</title>
<g id="a_node3"><a xlink:href="namespacesll__m__linear__operator__schur__eb__cl__1d.html#a785da40b164e9064091e65e77c068dec" target="_top" xlink:title=" ">
<polygon fill="white" stroke="black" points="200,-265.5 200,-306.5 322,-306.5 322,-265.5 200,-265.5"/>
<text text-anchor="start" x="208" y="-294.5" font-family="Helvetica,sans-Serif" font-size="10.00">sll_m_linear_operator</text>
<text text-anchor="start" x="208" y="-283.5" font-family="Helvetica,sans-Serif" font-size="10.00">_schur_eb_cl_1d::dot</text>
<text text-anchor="middle" x="261" y="-272.5" font-family="Helvetica,sans-Serif" font-size="10.00">_schur_eb_cl_1d</text>
</a>
</g>
</g>
<!-- Node1&#45;&gt;Node3 -->
<g id="edge2" class="edge">
<title>Node1&#45;&gt;Node3</title>
<path fill="none" stroke="midnightblue" d="M373.56,-269.02C356.55,-271.61 338.61,-274.34 322.2,-276.84"/>
<polygon fill="midnightblue" stroke="midnightblue" points="374.09,-272.48 383.45,-267.52 373.04,-265.56 374.09,-272.48"/>
</g>
<!-- Node4 -->
<g id="node4" class="node">
<title>Node4</title>
<g id="a_node4"><a xlink:href="namespacesll__m__maxwell__clamped__1d__fem__sm.html#a0615d69c6c8cd94ddc01e9bf72a2c22a" target="_top" xlink:title="Multiply by dicrete gradient matrix.">
<polygon fill="white" stroke="black" points="192.5,-216 192.5,-246 329.5,-246 329.5,-216 192.5,-216"/>
<text text-anchor="start" x="200.5" y="-234" font-family="Helvetica,sans-Serif" font-size="10.00">sll_m_maxwell_clamped</text>
<text text-anchor="middle" x="261" y="-223" font-family="Helvetica,sans-Serif" font-size="10.00">_1d_fem_sm::multiply_g</text>
</a>
</g>
</g>
<!-- Node1&#45;&gt;Node4 -->
<g id="edge3" class="edge">
<title>Node1&#45;&gt;Node4</title>
<path fill="none" stroke="midnightblue" d="M370.84,-246.97C357.22,-244.97 343.1,-242.9 329.71,-240.94"/>
<polygon fill="midnightblue" stroke="midnightblue" points="370.73,-250.49 381.13,-248.48 371.74,-243.57 370.73,-250.49"/>
</g>
<!-- Node8 -->
<g id="node8" class="node">
<title>Node8</title>
<g id="a_node8"><a xlink:href="namespacesll__m__maxwell__clamped__1d__trafo.html#ad56588cf85e6fbd6f57d82403b1ed31c" target="_top" xlink:title="Multiply by dicrete gradient matrix.">
<polygon fill="white" stroke="black" points="192.5,-96 192.5,-126 329.5,-126 329.5,-96 192.5,-96"/>
<text text-anchor="start" x="200.5" y="-114" font-family="Helvetica,sans-Serif" font-size="10.00">sll_m_maxwell_clamped</text>
<text text-anchor="middle" x="261" y="-103" font-family="Helvetica,sans-Serif" font-size="10.00">_1d_trafo::multiply_g</text>
</a>
</g>
</g>
<!-- Node1&#45;&gt;Node8 -->
<g id="edge7" class="edge">
<title>Node1&#45;&gt;Node8</title>
<path fill="none" stroke="midnightblue" d="M425.69,-241.77C389.86,-213.15 315.93,-154.08 281.03,-126.2"/>
<polygon fill="midnightblue" stroke="midnightblue" points="423.93,-244.85 433.93,-248.35 428.3,-239.38 423.93,-244.85"/>
</g>
<!-- Node5 -->
<g id="node5" class="node">
<title>Node5</title>
<g id="a_node5"><a xlink:href="namespacesll__m__maxwell__clamped__1d__fem__sm.html#a9e1faa2161ee4c44036241b83a4b2ce2" target="_top" xlink:title="For model with adiabatic electrons.">
<polygon fill="white" stroke="black" points="3.5,-300.5 3.5,-341.5 151.5,-341.5 151.5,-300.5 3.5,-300.5"/>
<text text-anchor="start" x="11.5" y="-329.5" font-family="Helvetica,sans-Serif" font-size="10.00">sll_m_maxwell_clamped</text>
<text text-anchor="start" x="11.5" y="-318.5" font-family="Helvetica,sans-Serif" font-size="10.00">_1d_fem_sm::compute_phi</text>
<text text-anchor="middle" x="77.5" y="-307.5" font-family="Helvetica,sans-Serif" font-size="10.00">_from_j_1d_fem_sm</text>
</a>
</g>
</g>
<!-- Node4&#45;&gt;Node5 -->
<g id="edge4" class="edge">
<title>Node4&#45;&gt;Node5</title>
<path fill="none" stroke="midnightblue" d="M201.42,-250.2C197.81,-252 194.31,-253.93 191,-256 172.09,-267.84 173.76,-278.91 155,-291 149.72,-294.4 144,-297.52 138.14,-300.35"/>
<polygon fill="midnightblue" stroke="midnightblue" points="202.91,-253.36 210.53,-246 199.99,-247 202.91,-253.36"/>
</g>
<!-- Node6 -->
<g id="node6" class="node">
<title>Node6</title>
<g id="a_node6"><a xlink:href="namespacesll__m__maxwell__clamped__1d__fem__sm.html#a4f3c18afd895e955637bb71da95547c4" target="_top" xlink:title="For model with adiabatic electrons.">
<polygon fill="white" stroke="black" points="3.5,-240.5 3.5,-281.5 151.5,-281.5 151.5,-240.5 3.5,-240.5"/>
<text text-anchor="start" x="11.5" y="-269.5" font-family="Helvetica,sans-Serif" font-size="10.00">sll_m_maxwell_clamped</text>
<text text-anchor="start" x="11.5" y="-258.5" font-family="Helvetica,sans-Serif" font-size="10.00">_1d_fem_sm::compute_phi</text>
<text text-anchor="middle" x="77.5" y="-247.5" font-family="Helvetica,sans-Serif" font-size="10.00">_from_rho_1d_fem_sm</text>
</a>
</g>
</g>
<!-- Node4&#45;&gt;Node6 -->
<g id="edge5" class="edge">
<title>Node4&#45;&gt;Node6</title>
<path fill="none" stroke="midnightblue" d="M182.32,-243.84C172.14,-245.52 161.73,-247.24 151.62,-248.91"/>
<polygon fill="midnightblue" stroke="midnightblue" points="183.12,-247.25 192.42,-242.17 181.98,-240.35 183.12,-247.25"/>
</g>
<!-- Node7 -->
<g id="node7" class="node">
<title>Node7</title>
<g id="a_node7"><a xlink:href="namespacesll__m__maxwell__clamped__1d__fem__sm.html#a2b1803a492a64ce08866aa8fbeeb65a2" target="_top" xlink:title="compute e from rho using weak Poisson&#39;s equation ( rho = G^T M_1 G \phi, e = G \phi )">
<polygon fill="white" stroke="black" points="0,-180.5 0,-221.5 155,-221.5 155,-180.5 0,-180.5"/>
<text text-anchor="start" x="8" y="-209.5" font-family="Helvetica,sans-Serif" font-size="10.00">sll_m_maxwell_clamped</text>
<text text-anchor="start" x="8" y="-198.5" font-family="Helvetica,sans-Serif" font-size="10.00">_1d_fem_sm::sll_s_compute</text>
<text text-anchor="middle" x="77.5" y="-187.5" font-family="Helvetica,sans-Serif" font-size="10.00">_e_from_rho_1d_fem_sm</text>
</a>
</g>
</g>
<!-- Node4&#45;&gt;Node7 -->
<g id="edge6" class="edge">
<title>Node4&#45;&gt;Node7</title>
<path fill="none" stroke="midnightblue" d="M182.38,-218.17C173.41,-216.69 164.27,-215.18 155.31,-213.7"/>
<polygon fill="midnightblue" stroke="midnightblue" points="181.98,-221.65 192.42,-219.83 183.12,-214.75 181.98,-221.65"/>
</g>
<!-- Node9 -->
<g id="node9" class="node">
<title>Node9</title>
<g id="a_node9"><a xlink:href="namespacesll__m__maxwell__clamped__1d__trafo.html#ac3d65f4752c853b5e2e06ca78dd4abe1" target="_top" xlink:title="For model with adiabatic electrons.">
<polygon fill="white" stroke="black" points="9,-120.5 9,-161.5 146,-161.5 146,-120.5 9,-120.5"/>
<text text-anchor="start" x="17" y="-149.5" font-family="Helvetica,sans-Serif" font-size="10.00">sll_m_maxwell_clamped</text>
<text text-anchor="start" x="17" y="-138.5" font-family="Helvetica,sans-Serif" font-size="10.00">_1d_trafo::compute_phi</text>
<text text-anchor="middle" x="77.5" y="-127.5" font-family="Helvetica,sans-Serif" font-size="10.00">_from_j_1d_trafo</text>
</a>
</g>
</g>
<!-- Node8&#45;&gt;Node9 -->
<g id="edge8" class="edge">
<title>Node8&#45;&gt;Node9</title>
<path fill="none" stroke="midnightblue" d="M182.38,-123.83C170.33,-125.82 157.95,-127.87 146.14,-129.82"/>
<polygon fill="midnightblue" stroke="midnightblue" points="183.12,-127.25 192.42,-122.17 181.98,-120.35 183.12,-127.25"/>
</g>
<!-- Node10 -->
<g id="node10" class="node">
<title>Node10</title>
<g id="a_node10"><a xlink:href="namespacesll__m__maxwell__clamped__1d__trafo.html#a3ad88ce78b250bbb86234e3bc63d9ef2" target="_top" xlink:title="For model with adiabatic electrons.">
<polygon fill="white" stroke="black" points="9,-60.5 9,-101.5 146,-101.5 146,-60.5 9,-60.5"/>
<text text-anchor="start" x="17" y="-89.5" font-family="Helvetica,sans-Serif" font-size="10.00">sll_m_maxwell_clamped</text>
<text text-anchor="start" x="17" y="-78.5" font-family="Helvetica,sans-Serif" font-size="10.00">_1d_trafo::compute_phi</text>
<text text-anchor="middle" x="77.5" y="-67.5" font-family="Helvetica,sans-Serif" font-size="10.00">_from_rho_1d_trafo</text>
</a>
</g>
</g>
<!-- Node8&#45;&gt;Node10 -->
<g id="edge9" class="edge">
<title>Node8&#45;&gt;Node10</title>
<path fill="none" stroke="midnightblue" d="M182.38,-98.17C170.33,-96.18 157.95,-94.13 146.14,-92.18"/>
<polygon fill="midnightblue" stroke="midnightblue" points="181.98,-101.65 192.42,-99.83 183.12,-94.75 181.98,-101.65"/>
</g>
<!-- Node11 -->
<g id="node11" class="node">
<title>Node11</title>
<g id="a_node11"><a xlink:href="namespacesll__m__maxwell__clamped__1d__trafo.html#a5fe354bc9d66402eb0fd1794f5ff91cd" target="_top" xlink:title="compute e from rho using weak Poisson&#39;s equation ( rho = G^T M_1 G \phi, e = &#45;G \phi )">
<polygon fill="white" stroke="black" points="8.5,-0.5 8.5,-41.5 146.5,-41.5 146.5,-0.5 8.5,-0.5"/>
<text text-anchor="start" x="16.5" y="-29.5" font-family="Helvetica,sans-Serif" font-size="10.00">sll_m_maxwell_clamped</text>
<text text-anchor="start" x="16.5" y="-18.5" font-family="Helvetica,sans-Serif" font-size="10.00">_1d_trafo::sll_s_compute</text>
<text text-anchor="middle" x="77.5" y="-7.5" font-family="Helvetica,sans-Serif" font-size="10.00">_e_from_rho_1d_trafo</text>
</a>
</g>
</g>
<!-- Node8&#45;&gt;Node11 -->
<g id="edge10" class="edge">
<title>Node8&#45;&gt;Node11</title>
<path fill="none" stroke="midnightblue" d="M227.34,-90.7C206.94,-78.43 179.91,-62.92 155,-51 148.18,-47.74 140.91,-44.54 133.66,-41.52"/>
<polygon fill="midnightblue" stroke="midnightblue" points="225.56,-93.72 235.93,-95.91 229.19,-87.73 225.56,-93.72"/>
</g>
</g>
</svg>
