<?xml version="1.0" encoding="UTF-8" standalone="no"?>
<!DOCTYPE svg PUBLIC "-//W3C//DTD SVG 1.1//EN"
 "http://www.w3.org/Graphics/SVG/1.1/DTD/svg11.dtd">
<!-- Generated by graphviz version 2.43.0 (0)
 -->
<!-- Title: sll_s_advection_6d_spline_dd_slim_fadvect_eta3 Pages: 1 -->
<!--zoomable 521 -->
<svg id="main" version="1.1" xmlns="http://www.w3.org/2000/svg" xmlns:xlink="http://www.w3.org/1999/xlink" xml:space="preserve" onload="init(evt)">
<style type="text/css"><![CDATA[
.edge:hover path { stroke: red; }
.edge:hover polygon { stroke: red; fill: red; }
]]></style>
<script type="text/javascript"><![CDATA[
var edges = document.getElementsByTagName('g');
if (edges && edges.length) {
  for (var i=0;i<edges.length;i++) {
    if (edges[i].id.substr(0,4)=='edge') {
      edges[i].setAttribute('class','edge');
    }
  }
}
]]></script>
        <defs>
                <circle id="rim" cx="0" cy="0" r="7"/>
                <circle id="rim2" cx="0" cy="0" r="3.5"/>
                <g id="zoomPlus">
                        <use xlink:href="#rim" fill="#404040">
                                <set attributeName="fill" to="#808080" begin="zoomplus.mouseover" end="zoomplus.mouseout"/>
                        </use>
                        <path d="M-4,0h8M0,-4v8" fill="none" stroke="white" stroke-width="1.5" pointer-events="none"/>
                </g>
                <g id="zoomMin">
                        <use xlink:href="#rim" fill="#404040">
                                <set attributeName="fill" to="#808080" begin="zoomminus.mouseover" end="zoomminus.mouseout"/>
                        </use>
                        <path d="M-4,0h8" fill="none" stroke="white" stroke-width="1.5" pointer-events="none"/>
                </g>
                <g id="dirArrow">
                        <path fill="none" stroke="white" stroke-width="1.5" d="M0,-3.0v7 M-2.5,-0.5L0,-3.0L2.5,-0.5"/>
                </g>
               <g id="resetDef">
                       <use xlink:href="#rim2" fill="#404040">
                               <set attributeName="fill" to="#808080" begin="reset.mouseover" end="reset.mouseout"/>
                       </use>
               </g>
        </defs>

<script type="text/javascript">
var viewWidth = 519;
var viewHeight = 521;
var sectionId = 'dynsection-9';
</script>
<script xlink:href="svgpan.js"/>
<svg id="graph" class="graph">
<g id="viewport">
<title>sll_s_advection_6d_spline_dd_slim_fadvect_eta3</title>
<polygon fill="white" stroke="transparent" points="-4,4 -4,-516.5 515,-516.5 515,4 -4,4"/>
<!-- Node1 -->
<g id="node1" class="node">
<title>Node1</title>
<g id="a_node1"><a xlink:title="Advection along eta1 with displacement dependent on eta4.">
<polygon fill="#bfbfbf" stroke="black" points="0,-280.5 0,-310.5 164,-310.5 164,-280.5 0,-280.5"/>
<text text-anchor="start" x="8" y="-298.5" font-family="Helvetica,sans-Serif" font-size="10.00">sll_s_advection_6d</text>
<text text-anchor="middle" x="82" y="-287.5" font-family="Helvetica,sans-Serif" font-size="10.00">_spline_dd_slim_fadvect_eta3</text>
</a>
</g>
</g>
<!-- Node2 -->
<g id="node2" class="node">
<title>Node2</title>
<g id="a_node2"><a xlink:href="namespacesll__m__advection__6d__spline__dd__slim.html#ac95fc1a72ea34f132d11c1aa8162544b" target="_top" xlink:title=" ">
<polygon fill="white" stroke="black" points="251.5,-493 251.5,-512 303.5,-512 303.5,-493 251.5,-493"/>
<text text-anchor="middle" x="277.5" y="-500" font-family="Helvetica,sans-Serif" font-size="10.00">get_wx</text>
</a>
</g>
</g>
<!-- Node1&#45;&gt;Node2 -->
<g id="edge1" class="edge">
<title>Node1&#45;&gt;Node2</title>
<path fill="none" stroke="midnightblue" d="M87.94,-310.7C100.48,-346.73 137.04,-437.71 200,-483.5 211.91,-492.16 227.32,-496.9 241.18,-499.48"/>
<polygon fill="midnightblue" stroke="midnightblue" points="240.98,-502.99 251.4,-501.06 242.05,-496.07 240.98,-502.99"/>
</g>
<!-- Node3 -->
<g id="node3" class="node">
<title>Node3</title>
<g id="a_node3"><a xlink:href="namespacesll__m__decomposition.html#ad74d2f169a33e715f09b35a5ff0a6fcf" target="_top" xlink:title=" ">
<polygon fill="white" stroke="black" points="217.5,-433 217.5,-474 337.5,-474 337.5,-433 217.5,-433"/>
<text text-anchor="start" x="225.5" y="-462" font-family="Helvetica,sans-Serif" font-size="10.00">sll_m_decomposition</text>
<text text-anchor="start" x="225.5" y="-451" font-family="Helvetica,sans-Serif" font-size="10.00">::sll_s_allocate_bc</text>
<text text-anchor="middle" x="277.5" y="-440" font-family="Helvetica,sans-Serif" font-size="10.00">_buffers_6d_part</text>
</a>
</g>
</g>
<!-- Node1&#45;&gt;Node3 -->
<g id="edge2" class="edge">
<title>Node1&#45;&gt;Node3</title>
<path fill="none" stroke="midnightblue" d="M94.14,-310.51C113.39,-335.61 155.14,-386.49 200,-418.5 204.8,-421.92 209.99,-425.14 215.32,-428.12"/>
<polygon fill="midnightblue" stroke="midnightblue" points="213.92,-431.34 224.39,-432.93 217.19,-425.15 213.92,-431.34"/>
</g>
<!-- Node4 -->
<g id="node4" class="node">
<title>Node4</title>
<g id="a_node4"><a xlink:href="namespacesll__m__decomposition.html#aaf8a51b7f1f64829307cf57e50b3cf2c" target="_top" xlink:title=" ">
<polygon fill="white" stroke="black" points="391,-408 391,-449 511,-449 511,-408 391,-408"/>
<text text-anchor="start" x="399" y="-437" font-family="Helvetica,sans-Serif" font-size="10.00">sll_m_decomposition</text>
<text text-anchor="start" x="399" y="-426" font-family="Helvetica,sans-Serif" font-size="10.00">::sll_s_deallocate_bc</text>
<text text-anchor="middle" x="451" y="-415" font-family="Helvetica,sans-Serif" font-size="10.00">_buffers</text>
</a>
</g>
</g>
<!-- Node1&#45;&gt;Node4 -->
<g id="edge10" class="edge">
<title>Node1&#45;&gt;Node4</title>
<path fill="none" stroke="midnightblue" d="M97.68,-310.72C118.43,-331.24 158.45,-367.29 200,-385.5 257.76,-410.81 329.13,-421.26 380.81,-425.56"/>
<polygon fill="midnightblue" stroke="midnightblue" points="380.63,-429.05 390.87,-426.33 381.17,-422.07 380.63,-429.05"/>
</g>
<!-- Node5 -->
<g id="node5" class="node">
<title>Node5</title>
<g id="a_node5"><a xlink:href="namespacesll__m__decomposition.html#a82b127a6cd2af86a7069a008e51b6e25" target="_top" xlink:title=" ">
<polygon fill="white" stroke="black" points="204.5,-335 204.5,-376 350.5,-376 350.5,-335 204.5,-335"/>
<text text-anchor="start" x="212.5" y="-364" font-family="Helvetica,sans-Serif" font-size="10.00">sll_m_decomposition</text>
<text text-anchor="start" x="212.5" y="-353" font-family="Helvetica,sans-Serif" font-size="10.00">::sll_s_apply_bc_exchange</text>
<text text-anchor="middle" x="277.5" y="-342" font-family="Helvetica,sans-Serif" font-size="10.00">_slim_6d_real64</text>
</a>
</g>
</g>
<!-- Node1&#45;&gt;Node5 -->
<g id="edge4" class="edge">
<title>Node1&#45;&gt;Node5</title>
<path fill="none" stroke="midnightblue" d="M131.83,-310.64C152.6,-317.08 177.31,-324.74 200.38,-331.9"/>
<polygon fill="midnightblue" stroke="midnightblue" points="199.56,-335.31 210.15,-334.92 201.63,-328.62 199.56,-335.31"/>
</g>
<!-- Node6 -->
<g id="node6" class="node">
<title>Node6</title>
<g id="a_node6"><a xlink:href="namespacesll__m__decomposition.html#acaeca97773f908582479ba3cecbd717e" target="_top" xlink:title=" ">
<polygon fill="white" stroke="black" points="200,-275 200,-316 355,-316 355,-275 200,-275"/>
<text text-anchor="start" x="208" y="-304" font-family="Helvetica,sans-Serif" font-size="10.00">sll_m_decomposition</text>
<text text-anchor="start" x="208" y="-293" font-family="Helvetica,sans-Serif" font-size="10.00">::sll_s_apply_halo_exchange</text>
<text text-anchor="middle" x="277.5" y="-282" font-family="Helvetica,sans-Serif" font-size="10.00">_slim_6d_real64</text>
</a>
</g>
</g>
<!-- Node1&#45;&gt;Node6 -->
<g id="edge5" class="edge">
<title>Node1&#45;&gt;Node6</title>
<path fill="none" stroke="midnightblue" d="M164.22,-295.5C172.6,-295.5 181.14,-295.5 189.59,-295.5"/>
<polygon fill="midnightblue" stroke="midnightblue" points="189.81,-299 199.81,-295.5 189.81,-292 189.81,-299"/>
</g>
<!-- Node7 -->
<g id="node7" class="node">
<title>Node7</title>
<g id="a_node7"><a xlink:href="namespacesll__m__cubic__spline__halo__1d.html#a500969563f3536e8d9d81e11037d4b64" target="_top" xlink:title="Compute the coefficients of the local interpolating spline (after d(0) and c(num_points+2) have been ...">
<polygon fill="white" stroke="black" points="206,-203.5 206,-255.5 349,-255.5 349,-203.5 206,-203.5"/>
<text text-anchor="start" x="214" y="-243.5" font-family="Helvetica,sans-Serif" font-size="10.00">sll_m_cubic_spline</text>
<text text-anchor="start" x="214" y="-232.5" font-family="Helvetica,sans-Serif" font-size="10.00">_halo_1d::sll_s_cubic</text>
<text text-anchor="start" x="214" y="-221.5" font-family="Helvetica,sans-Serif" font-size="10.00">_spline_halo_1d_compute</text>
<text text-anchor="middle" x="277.5" y="-210.5" font-family="Helvetica,sans-Serif" font-size="10.00">_interpolant</text>
</a>
</g>
</g>
<!-- Node1&#45;&gt;Node7 -->
<g id="edge6" class="edge">
<title>Node1&#45;&gt;Node7</title>
<path fill="none" stroke="midnightblue" d="M127.39,-280.36C147.79,-273.4 172.63,-264.93 196.14,-256.91"/>
<polygon fill="midnightblue" stroke="midnightblue" points="197.43,-260.17 205.77,-253.63 195.17,-253.54 197.43,-260.17"/>
</g>
<!-- Node8 -->
<g id="node8" class="node">
<title>Node8</title>
<g id="a_node8"><a xlink:href="namespacesll__m__cubic__spline__halo__1d.html#ae8a5edad1b576ff935f0d7567bc5b40c" target="_top" xlink:title="This function corresponds to the interpolate_array_disp function of the interpolators but the displac...">
<polygon fill="white" stroke="black" points="204.5,-143 204.5,-184 350.5,-184 350.5,-143 204.5,-143"/>
<text text-anchor="start" x="212.5" y="-172" font-family="Helvetica,sans-Serif" font-size="10.00">sll_m_cubic_spline</text>
<text text-anchor="start" x="212.5" y="-161" font-family="Helvetica,sans-Serif" font-size="10.00">_halo_1d::sll_s_cubic</text>
<text text-anchor="middle" x="277.5" y="-150" font-family="Helvetica,sans-Serif" font-size="10.00">_spline_halo_1d_eval_disp</text>
</a>
</g>
</g>
<!-- Node1&#45;&gt;Node8 -->
<g id="edge7" class="edge">
<title>Node1&#45;&gt;Node8</title>
<path fill="none" stroke="midnightblue" d="M97.26,-280.38C118.14,-258.95 159.01,-219.55 200,-194.5 203.34,-192.46 206.85,-190.5 210.43,-188.62"/>
<polygon fill="midnightblue" stroke="midnightblue" points="212.07,-191.72 219.49,-184.16 208.97,-185.44 212.07,-191.72"/>
</g>
<!-- Node9 -->
<g id="node9" class="node">
<title>Node9</title>
<g id="a_node9"><a xlink:href="namespacesll__m__cubic__spline__halo__1d.html#a5afe1ac8ffcdaedc2907fbb00deb7f7c" target="_top" xlink:title="Complete d(0) and c(num_points+2) with local data after their values have been received from the neig...">
<polygon fill="white" stroke="black" points="214.5,-71.5 214.5,-123.5 340.5,-123.5 340.5,-71.5 214.5,-71.5"/>
<text text-anchor="start" x="222.5" y="-111.5" font-family="Helvetica,sans-Serif" font-size="10.00">sll_m_cubic_spline</text>
<text text-anchor="start" x="222.5" y="-100.5" font-family="Helvetica,sans-Serif" font-size="10.00">_halo_1d::sll_s_cubic</text>
<text text-anchor="start" x="222.5" y="-89.5" font-family="Helvetica,sans-Serif" font-size="10.00">_spline_halo_1d_finish</text>
<text text-anchor="middle" x="277.5" y="-78.5" font-family="Helvetica,sans-Serif" font-size="10.00">_boundary_conditions</text>
</a>
</g>
</g>
<!-- Node1&#45;&gt;Node9 -->
<g id="edge8" class="edge">
<title>Node1&#45;&gt;Node9</title>
<path fill="none" stroke="midnightblue" d="M90.64,-280.13C106.89,-248.81 147.67,-176.92 200,-133.5 201.79,-132.02 203.65,-130.58 205.57,-129.18"/>
<polygon fill="midnightblue" stroke="midnightblue" points="207.91,-131.83 214.28,-123.37 204.02,-126.01 207.91,-131.83"/>
</g>
<!-- Node10 -->
<g id="node10" class="node">
<title>Node10</title>
<g id="a_node10"><a xlink:href="namespacesll__m__cubic__spline__halo__1d.html#ae470334bfc83c9e145b84d5538f5964c" target="_top" xlink:title="Compute the part of d(0) and c(num_points+2) that need to be send to neighboring processors.">
<polygon fill="white" stroke="black" points="209,-0.5 209,-52.5 346,-52.5 346,-0.5 209,-0.5"/>
<text text-anchor="start" x="217" y="-40.5" font-family="Helvetica,sans-Serif" font-size="10.00">sll_m_cubic_spline</text>
<text text-anchor="start" x="217" y="-29.5" font-family="Helvetica,sans-Serif" font-size="10.00">_halo_1d::sll_s_cubic</text>
<text text-anchor="start" x="217" y="-18.5" font-family="Helvetica,sans-Serif" font-size="10.00">_spline_halo_1d_prepare</text>
<text text-anchor="middle" x="277.5" y="-7.5" font-family="Helvetica,sans-Serif" font-size="10.00">_exchange</text>
</a>
</g>
</g>
<!-- Node1&#45;&gt;Node10 -->
<g id="edge9" class="edge">
<title>Node1&#45;&gt;Node10</title>
<path fill="none" stroke="midnightblue" d="M86.84,-280.35C97.82,-239.88 132.91,-127.9 200,-62.5 201.26,-61.27 202.58,-60.07 203.94,-58.91"/>
<polygon fill="midnightblue" stroke="midnightblue" points="206.31,-61.5 212.12,-52.65 202.05,-55.94 206.31,-61.5"/>
</g>
<!-- Node3&#45;&gt;Node4 -->
<g id="edge3" class="edge">
<title>Node3&#45;&gt;Node4</title>
<path fill="none" stroke="midnightblue" d="M337.52,-444.9C351.4,-442.87 366.32,-440.7 380.6,-438.62"/>
<polygon fill="midnightblue" stroke="midnightblue" points="381.48,-442.03 390.87,-437.12 380.47,-435.1 381.48,-442.03"/>
</g>
</g>
</svg>
        <g id="navigator" transform="translate(0 0)" fill="#404254">
                <rect fill="#f2f5e9" fill-opacity="0.5" stroke="#606060" stroke-width=".5" x="0" y="0" width="60" height="60"/>
                <use id="zoomplus" xlink:href="#zoomPlus" x="17" y="9" onmousedown="handleZoom(evt,'in')"/>
                <use id="zoomminus" xlink:href="#zoomMin" x="42" y="9" onmousedown="handleZoom(evt,'out')"/>
                <use id="reset" xlink:href="#resetDef" x="30" y="36" onmousedown="handleReset()"/>
                <g id="arrowUp" xlink:href="#dirArrow" transform="translate(30 24)" onmousedown="handlePan(0,-1)">
                  <use xlink:href="#rim" fill="#404040">
                        <set attributeName="fill" to="#808080" begin="arrowUp.mouseover" end="arrowUp.mouseout"/>
                  </use>
                  <path fill="none" stroke="white" stroke-width="1.5" d="M0,-3.0v7 M-2.5,-0.5L0,-3.0L2.5,-0.5"/>
                </g>
                <g id="arrowRight" xlink:href="#dirArrow" transform="rotate(90) translate(36 -43)" onmousedown="handlePan(1,0)">
                  <use xlink:href="#rim" fill="#404040">
                        <set attributeName="fill" to="#808080" begin="arrowRight.mouseover" end="arrowRight.mouseout"/>
                  </use>
                  <path fill="none" stroke="white" stroke-width="1.5" d="M0,-3.0v7 M-2.5,-0.5L0,-3.0L2.5,-0.5"/>
                </g>
                <g id="arrowDown" xlink:href="#dirArrow" transform="rotate(180) translate(-30 -48)" onmousedown="handlePan(0,1)">
                  <use xlink:href="#rim" fill="#404040">
                        <set attributeName="fill" to="#808080" begin="arrowDown.mouseover" end="arrowDown.mouseout"/>
                  </use>
                  <path fill="none" stroke="white" stroke-width="1.5" d="M0,-3.0v7 M-2.5,-0.5L0,-3.0L2.5,-0.5"/>
                </g>
                <g id="arrowLeft" xlink:href="#dirArrow" transform="rotate(270) translate(-36 17)" onmousedown="handlePan(-1,0)">
                  <use xlink:href="#rim" fill="#404040">
                        <set attributeName="fill" to="#808080" begin="arrowLeft.mouseover" end="arrowLeft.mouseout"/>
                  </use>
                  <path fill="none" stroke="white" stroke-width="1.5" d="M0,-3.0v7 M-2.5,-0.5L0,-3.0L2.5,-0.5"/>
                </g>
        </g>
        <svg viewBox="0 0 15 15" width="100%" height="30px" preserveAspectRatio="xMaxYMin meet">
         <g id="arrow_out" transform="scale(0.3 0.3)">
          <a xlink:href="namespacesll__m__advection__6d__spline__dd__slim_a5ae4362009a951b243d607423cbd250b_cgraph_org.svg" target="_base">
           <rect id="button" ry="5" rx="5" y="6" x="6" height="38" width="38"
                fill="#f2f5e9" fill-opacity="0.5" stroke="#606060" stroke-width="1.0"/>
           <path id="arrow"
             d="M 11.500037,31.436501 C 11.940474,20.09759 22.043105,11.32322 32.158766,21.979434 L 37.068811,17.246167 C 37.068811,17.246167 37.088388,32 37.088388,32 L 22.160133,31.978069 C 22.160133,31.978069 26.997745,27.140456 26.997745,27.140456 C 18.528582,18.264221 13.291696,25.230495 11.500037,31.436501 z"
             style="fill:#404040;"/>
          </a>
         </g>
        </svg>
</svg>
