<?xml version="1.0" encoding="UTF-8" standalone="no"?>
<!DOCTYPE svg PUBLIC "-//W3C//DTD SVG 1.1//EN"
 "http://www.w3.org/Graphics/SVG/1.1/DTD/svg11.dtd">
<!-- Generated by graphviz version 2.40.1 (20161225.0304)
 -->
<!-- Title: compute_stencil_minus Pages: 1 -->
<svg width="458pt" height="39pt"
 viewBox="0.00 0.00 458.00 39.00" xmlns="http://www.w3.org/2000/svg" xmlns:xlink="http://www.w3.org/1999/xlink">
<g id="graph0" class="graph" transform="scale(1 1) rotate(0) translate(4 35)">
<title>compute_stencil_minus</title>
<polygon fill="#ffffff" stroke="transparent" points="-4,4 -4,-35 454,-35 454,4 -4,4"/>
<!-- Node19 -->
<g id="node1" class="node">
<title>Node19</title>
<polygon fill="#bfbfbf" stroke="#000000" points="0,-6 0,-25 132,-25 132,-6 0,-6"/>
<text text-anchor="middle" x="66" y="-13" font-family="Helvetica,sans-Serif" font-size="10.00" fill="#000000">compute_stencil_minus</text>
</g>
<!-- Node20 -->
<g id="node2" class="node">
<title>Node20</title>
<g id="a_node2"><a xlink:href="namespacesll__m__lagrange__interpolation.html#a27f51409cf832abd1cdaf75122c60dad" target="_top" xlink:title="compute_interpolants\l_hermite1d">
<polygon fill="#ffffff" stroke="#000000" points="168,-.5 168,-30.5 291,-30.5 291,-.5 168,-.5"/>
<text text-anchor="start" x="176" y="-18.5" font-family="Helvetica,sans-Serif" font-size="10.00" fill="#000000">compute_interpolants</text>
<text text-anchor="middle" x="229.5" y="-7.5" font-family="Helvetica,sans-Serif" font-size="10.00" fill="#000000">_hermite1d</text>
</a>
</g>
</g>
<!-- Node19&#45;&gt;Node20 -->
<g id="edge1" class="edge">
<title>Node19&#45;&gt;Node20</title>
<path fill="none" stroke="#191970" d="M142.1366,-15.5C150.7985,-15.5 159.5449,-15.5 167.9843,-15.5"/>
<polygon fill="#191970" stroke="#191970" points="142.0305,-12.0001 132.0304,-15.5 142.0304,-19.0001 142.0305,-12.0001"/>
</g>
<!-- Node21 -->
<g id="node3" class="node">
<title>Node21</title>
<g id="a_node3"><a xlink:href="namespacesll__m__lagrange__interpolation.html#af35615b1645decdb973369f391cf2945" target="_top" xlink:title="compute_interpolants\l_hermite2d">
<polygon fill="#ffffff" stroke="#000000" points="327,-.5 327,-30.5 450,-30.5 450,-.5 327,-.5"/>
<text text-anchor="start" x="335" y="-18.5" font-family="Helvetica,sans-Serif" font-size="10.00" fill="#000000">compute_interpolants</text>
<text text-anchor="middle" x="388.5" y="-7.5" font-family="Helvetica,sans-Serif" font-size="10.00" fill="#000000">_hermite2d</text>
</a>
</g>
</g>
<!-- Node20&#45;&gt;Node21 -->
<g id="edge2" class="edge">
<title>Node20&#45;&gt;Node21</title>
<path fill="none" stroke="#191970" d="M301.5919,-15.5C309.9898,-15.5 318.499,-15.5 326.7402,-15.5"/>
<polygon fill="#191970" stroke="#191970" points="301.4289,-12.0001 291.4288,-15.5 301.4288,-19.0001 301.4289,-12.0001"/>
</g>
</g>
</svg>
