<?xml version="1.0" encoding="UTF-8" standalone="no"?>
<!DOCTYPE svg PUBLIC "-//W3C//DTD SVG 1.1//EN"
 "http://www.w3.org/Graphics/SVG/1.1/DTD/svg11.dtd">
<!-- Generated by graphviz version 2.38.0 (20140413.2041)
 -->
<!-- Title: sll_f_polar_eta1 Pages: 1 -->
<svg width="252pt" height="99pt"
 viewBox="0.00 0.00 252.00 98.50" xmlns="http://www.w3.org/2000/svg" xmlns:xlink="http://www.w3.org/1999/xlink">
<g id="graph0" class="graph" transform="scale(1 1) rotate(0) translate(4 94.5)">
<title>sll_f_polar_eta1</title>
<polygon fill="white" stroke="none" points="-4,4 -4,-94.5 248,-94.5 248,4 -4,4"/>
<!-- Node1 -->
<g id="node1" class="node"><title>Node1</title>
<polygon fill="#bfbfbf" stroke="black" points="0,-38.5 0,-57.5 85,-57.5 85,-38.5 0,-38.5"/>
<text text-anchor="middle" x="42.5" y="-45.5" font-family="Helvetica,sans-Serif" font-size="10.00">sll_f_polar_eta1</text>
</g>
<!-- Node2 -->
<g id="node2" class="node"><title>Node2</title>
<g id="a_node2"><a xlink:href="namespacesll__m__fdistribu4d__dk.html#ad019b52770477f636c8115bc5ad20475" target="_top" xlink:title="sll_m_fdistribu4d_dk\l::function_xy_from_r">
<polygon fill="white" stroke="black" points="129.5,-60 129.5,-90 235.5,-90 235.5,-60 129.5,-60"/>
<text text-anchor="start" x="137.5" y="-78" font-family="Helvetica,sans-Serif" font-size="10.00">sll_m_fdistribu4d_dk</text>
<text text-anchor="middle" x="182.5" y="-67" font-family="Helvetica,sans-Serif" font-size="10.00">::function_xy_from_r</text>
</a>
</g>
</g>
<!-- Node1&#45;&gt;Node2 -->
<g id="edge1" class="edge"><title>Node1&#45;&gt;Node2</title>
<path fill="none" stroke="midnightblue" d="M95.2926,-58.1333C106.431,-60.3127 118.209,-62.617 129.361,-64.7989"/>
<polygon fill="midnightblue" stroke="midnightblue" points="95.765,-54.6595 85.279,-56.1742 94.4209,-61.5292 95.765,-54.6595"/>
</g>
<!-- Node3 -->
<g id="node3" class="node"><title>Node3</title>
<g id="a_node3"><a xlink:href="namespacesll__m__fdistribu4d__dk.html#adf8cc4ba8aba42290c788f697de79f42" target="_top" xlink:title="sll_m_fdistribu4d_dk\l::sll_s_function_xy_from\l_rtheta">
<polygon fill="white" stroke="black" points="121,-0.5 121,-41.5 244,-41.5 244,-0.5 121,-0.5"/>
<text text-anchor="start" x="129" y="-29.5" font-family="Helvetica,sans-Serif" font-size="10.00">sll_m_fdistribu4d_dk</text>
<text text-anchor="start" x="129" y="-18.5" font-family="Helvetica,sans-Serif" font-size="10.00">::sll_s_function_xy_from</text>
<text text-anchor="middle" x="182.5" y="-7.5" font-family="Helvetica,sans-Serif" font-size="10.00">_rtheta</text>
</a>
</g>
</g>
<!-- Node1&#45;&gt;Node3 -->
<g id="edge2" class="edge"><title>Node1&#45;&gt;Node3</title>
<path fill="none" stroke="midnightblue" d="M95.2283,-37.8792C103.56,-36.2491 112.251,-34.5487 120.771,-32.8817"/>
<polygon fill="midnightblue" stroke="midnightblue" points="94.4209,-34.4708 85.279,-39.8258 95.765,-41.3405 94.4209,-34.4708"/>
</g>
</g>
</svg>
