<?xml version="1.0" encoding="UTF-8" standalone="no"?>
<!DOCTYPE svg PUBLIC "-//W3C//DTD SVG 1.1//EN"
 "http://www.w3.org/Graphics/SVG/1.1/DTD/svg11.dtd">
<!-- Generated by graphviz version 2.38.0 (20140413.2041)
 -->
<!-- Title: fourier1dperlagodd Pages: 1 -->
<svg width="417pt" height="159pt"
 viewBox="0.00 0.00 417.00 158.50" xmlns="http://www.w3.org/2000/svg" xmlns:xlink="http://www.w3.org/1999/xlink">
<g id="graph0" class="graph" transform="scale(1 1) rotate(0) translate(4 154.5)">
<title>fourier1dperlagodd</title>
<polygon fill="white" stroke="none" points="-4,4 -4,-154.5 413,-154.5 413,4 -4,4"/>
<!-- Node1 -->
<g id="node1" class="node"><title>Node1</title>
<polygon fill="#bfbfbf" stroke="black" points="0,-71.5 0,-90.5 96,-90.5 96,-71.5 0,-71.5"/>
<text text-anchor="middle" x="48" y="-78.5" font-family="Helvetica,sans-Serif" font-size="10.00">fourier1dperlagodd</text>
</g>
<!-- Node2 -->
<g id="node2" class="node"><title>Node2</title>
<g id="a_node2"><a xlink:href="namespacesll__m__periodic__interp.html#af13c2d535538f2d6ca1e3e7b40b38139" target="_top" xlink:title="sll_s_periodic_interp">
<polygon fill="white" stroke="black" points="132,-71.5 132,-90.5 237,-90.5 237,-71.5 132,-71.5"/>
<text text-anchor="middle" x="184.5" y="-78.5" font-family="Helvetica,sans-Serif" font-size="10.00">sll_s_periodic_interp</text>
</a>
</g>
</g>
<!-- Node1&#45;&gt;Node2 -->
<g id="edge1" class="edge"><title>Node1&#45;&gt;Node2</title>
<path fill="none" stroke="midnightblue" d="M106.208,-81C114.662,-81 123.331,-81 131.667,-81"/>
<polygon fill="midnightblue" stroke="midnightblue" points="106.042,-77.5001 96.0416,-81 106.042,-84.5001 106.042,-77.5001"/>
</g>
<!-- Node3 -->
<g id="node3" class="node"><title>Node3</title>
<g id="a_node3"><a xlink:href="namespacesll__m__periodic__interpolator__1d.html#ae6f0cb5c46ddb52e2ab53c9c1e65792b" target="_top" xlink:title="sll_m_periodic_interpolator\l_1d::per_interpolate1d_disp">
<polygon fill="white" stroke="black" points="273,-120 273,-150 409,-150 409,-120 273,-120"/>
<text text-anchor="start" x="281" y="-138" font-family="Helvetica,sans-Serif" font-size="10.00">sll_m_periodic_interpolator</text>
<text text-anchor="middle" x="341" y="-127" font-family="Helvetica,sans-Serif" font-size="10.00">_1d::per_interpolate1d_disp</text>
</a>
</g>
</g>
<!-- Node2&#45;&gt;Node3 -->
<g id="edge2" class="edge"><title>Node2&#45;&gt;Node3</title>
<path fill="none" stroke="midnightblue" d="M222.27,-93.8517C244.703,-101.692 273.483,-111.751 296.972,-119.961"/>
<polygon fill="midnightblue" stroke="midnightblue" points="223.361,-90.5253 212.766,-90.5298 221.051,-97.1333 223.361,-90.5253"/>
</g>
<!-- Node4 -->
<g id="node4" class="node"><title>Node4</title>
<g id="a_node4"><a xlink:href="namespacesll__m__periodic__interpolator__1d.html#afddf771cf26aba1439b7c9068626b0a2" target="_top" xlink:title="sll_m_periodic_interpolator\l_1d::per_interpolate1d_disp\l_inplace">
<polygon fill="white" stroke="black" points="273,-60.5 273,-101.5 409,-101.5 409,-60.5 273,-60.5"/>
<text text-anchor="start" x="281" y="-89.5" font-family="Helvetica,sans-Serif" font-size="10.00">sll_m_periodic_interpolator</text>
<text text-anchor="start" x="281" y="-78.5" font-family="Helvetica,sans-Serif" font-size="10.00">_1d::per_interpolate1d_disp</text>
<text text-anchor="middle" x="341" y="-67.5" font-family="Helvetica,sans-Serif" font-size="10.00">_inplace</text>
</a>
</g>
</g>
<!-- Node2&#45;&gt;Node4 -->
<g id="edge3" class="edge"><title>Node2&#45;&gt;Node4</title>
<path fill="none" stroke="midnightblue" d="M247.439,-81C255.813,-81 264.437,-81 272.896,-81"/>
<polygon fill="midnightblue" stroke="midnightblue" points="247.376,-77.5001 237.376,-81 247.376,-84.5001 247.376,-77.5001"/>
</g>
<!-- Node5 -->
<g id="node5" class="node"><title>Node5</title>
<g id="a_node5"><a xlink:href="namespacesll__m__advection__1d__periodic.html#a83e408dd2f8ef25942506b71256ab110" target="_top" xlink:title="sll_m_advection_1d\l_periodic::periodic\l_advect_1d_constant">
<polygon fill="white" stroke="black" points="286,-0.5 286,-41.5 396,-41.5 396,-0.5 286,-0.5"/>
<text text-anchor="start" x="294" y="-29.5" font-family="Helvetica,sans-Serif" font-size="10.00">sll_m_advection_1d</text>
<text text-anchor="start" x="294" y="-18.5" font-family="Helvetica,sans-Serif" font-size="10.00">_periodic::periodic</text>
<text text-anchor="middle" x="341" y="-7.5" font-family="Helvetica,sans-Serif" font-size="10.00">_advect_1d_constant</text>
</a>
</g>
</g>
<!-- Node2&#45;&gt;Node5 -->
<g id="edge4" class="edge"><title>Node2&#45;&gt;Node5</title>
<path fill="none" stroke="midnightblue" d="M219.51,-67.7923C239.34,-60.0914 264.777,-50.2128 287.165,-41.5184"/>
<polygon fill="midnightblue" stroke="midnightblue" points="218.036,-64.6101 209.981,-71.4928 220.57,-71.1353 218.036,-64.6101"/>
</g>
</g>
</svg>
