<?xml version="1.0" encoding="UTF-8" standalone="no"?>
<!DOCTYPE svg PUBLIC "-//W3C//DTD SVG 1.1//EN"
 "http://www.w3.org/Graphics/SVG/1.1/DTD/svg11.dtd">
<!-- Generated by graphviz version 2.40.1 (20161225.0304)
 -->
<!-- Title: dot_schur_eb_cl_1d Pages: 1 -->
<svg width="311pt" height="110pt"
 viewBox="0.00 0.00 311.00 110.00" xmlns="http://www.w3.org/2000/svg" xmlns:xlink="http://www.w3.org/1999/xlink">
<g id="graph0" class="graph" transform="scale(1 1) rotate(0) translate(4 106)">
<title>dot_schur_eb_cl_1d</title>
<polygon fill="#ffffff" stroke="transparent" points="-4,4 -4,-106 307,-106 307,4 -4,4"/>
<!-- Node2 -->
<g id="node1" class="node">
<title>Node2</title>
<polygon fill="#bfbfbf" stroke="#000000" points="0,-41.5 0,-60.5 112,-60.5 112,-41.5 0,-41.5"/>
<text text-anchor="middle" x="56" y="-48.5" font-family="Helvetica,sans-Serif" font-size="10.00" fill="#000000">dot_schur_eb_cl_1d</text>
</g>
<!-- Node3 -->
<g id="node2" class="node">
<title>Node3</title>
<g id="a_node2"><a xlink:href="namespacesll__m__spline__fem__utilities__3d__clamped.html#ad4e7ae8afab3728922de98d2ce93989e" target="_top" xlink:title="Multiplication of the input vector in by the clamped derivative matrix G. ">
<polygon fill="#ffffff" stroke="#000000" points="148,-60.5 148,-101.5 303,-101.5 303,-60.5 148,-60.5"/>
<text text-anchor="start" x="156" y="-89.5" font-family="Helvetica,sans-Serif" font-size="10.00" fill="#000000">sll_m_spline_fem_utilities</text>
<text text-anchor="start" x="156" y="-78.5" font-family="Helvetica,sans-Serif" font-size="10.00" fill="#000000">_3d_clamped::sll_s_multiply</text>
<text text-anchor="middle" x="225.5" y="-67.5" font-family="Helvetica,sans-Serif" font-size="10.00" fill="#000000">_g_clamped_1d</text>
</a>
</g>
</g>
<!-- Node2&#45;&gt;Node3 -->
<g id="edge1" class="edge">
<title>Node2&#45;&gt;Node3</title>
<path fill="none" stroke="#191970" d="M110.0969,-60.5747C119.0134,-62.1528 128.453,-63.8235 137.9397,-65.5026"/>
<polygon fill="#191970" stroke="#191970" points="137.3659,-68.9554 147.8229,-67.2518 138.5859,-62.0625 137.3659,-68.9554"/>
</g>
<!-- Node4 -->
<g id="node3" class="node">
<title>Node4</title>
<g id="a_node3"><a xlink:href="namespacesll__m__spline__fem__utilities__3d__clamped.html#a6ae5272825c9bf38331b26ebffaa115f" target="_top" xlink:title="Multiplication of the input vector in by the transposed clamped derivative matrix G^T...">
<polygon fill="#ffffff" stroke="#000000" points="148,-.5 148,-41.5 303,-41.5 303,-.5 148,-.5"/>
<text text-anchor="start" x="156" y="-29.5" font-family="Helvetica,sans-Serif" font-size="10.00" fill="#000000">sll_m_spline_fem_utilities</text>
<text text-anchor="start" x="156" y="-18.5" font-family="Helvetica,sans-Serif" font-size="10.00" fill="#000000">_3d_clamped::sll_s_multiply</text>
<text text-anchor="middle" x="225.5" y="-7.5" font-family="Helvetica,sans-Serif" font-size="10.00" fill="#000000">_gt_clamped_1d</text>
</a>
</g>
</g>
<!-- Node2&#45;&gt;Node4 -->
<g id="edge2" class="edge">
<title>Node2&#45;&gt;Node4</title>
<path fill="none" stroke="#191970" d="M110.0969,-41.4253C119.0134,-39.8472 128.453,-38.1765 137.9397,-36.4974"/>
<polygon fill="#191970" stroke="#191970" points="138.5859,-39.9375 147.8229,-34.7482 137.3659,-33.0446 138.5859,-39.9375"/>
</g>
</g>
</svg>
