<?xml version="1.0" encoding="UTF-8" standalone="no"?>
<!DOCTYPE svg PUBLIC "-//W3C//DTD SVG 1.1//EN"
 "http://www.w3.org/Graphics/SVG/1.1/DTD/svg11.dtd">
<!-- Generated by graphviz version 2.43.0 (0)
 -->
<!-- Title: sll_s_hdf5_par_file_create Pages: 1 -->
<svg width="306pt" height="110pt"
 viewBox="0.00 0.00 306.00 110.00" xmlns="http://www.w3.org/2000/svg" xmlns:xlink="http://www.w3.org/1999/xlink">
<g id="graph0" class="graph" transform="scale(1 1) rotate(0) translate(4 106)">
<title>sll_s_hdf5_par_file_create</title>
<polygon fill="white" stroke="transparent" points="-4,4 -4,-106 302,-106 302,4 -4,4"/>
<!-- Node1 -->
<g id="node1" class="node">
<title>Node1</title>
<g id="a_node1"><a xlink:title="Create new HDF5 file.">
<polygon fill="#bfbfbf" stroke="black" points="191,-36 191,-66 298,-66 298,-36 191,-36"/>
<text text-anchor="start" x="199" y="-54" font-family="Helvetica,sans-Serif" font-size="10.00">sll_s_hdf5_par_file</text>
<text text-anchor="middle" x="244.5" y="-43" font-family="Helvetica,sans-Serif" font-size="10.00">_create</text>
</a>
</g>
</g>
<!-- Node2 -->
<g id="node2" class="node">
<title>Node2</title>
<g id="a_node2"><a xlink:href="interfacesll__m__xdmf__parallel_1_1sll__o__xdmf__write__array.html#aee84ada9b429bdea452828f60b68514e" target="_top" xlink:title="Write 2d array in parallel hdf5 file and the matching line in XDMF file.">
<polygon fill="white" stroke="black" points="0,-60.5 0,-101.5 155,-101.5 155,-60.5 0,-60.5"/>
<text text-anchor="start" x="8" y="-89.5" font-family="Helvetica,sans-Serif" font-size="10.00">sll_m_xdmf_parallel</text>
<text text-anchor="start" x="8" y="-78.5" font-family="Helvetica,sans-Serif" font-size="10.00">::sll_o_xdmf_write_array</text>
<text text-anchor="middle" x="77.5" y="-67.5" font-family="Helvetica,sans-Serif" font-size="10.00">::sll_xdmf_array_2d_parallel</text>
</a>
</g>
</g>
<!-- Node1&#45;&gt;Node2 -->
<g id="edge1" class="edge">
<title>Node1&#45;&gt;Node2</title>
<path fill="none" stroke="midnightblue" d="M180.75,-62.41C172.34,-63.94 163.63,-65.52 155.02,-67.09"/>
<polygon fill="midnightblue" stroke="midnightblue" points="181.63,-65.81 190.84,-60.57 180.37,-58.92 181.63,-65.81"/>
</g>
<!-- Node3 -->
<g id="node3" class="node">
<title>Node3</title>
<g id="a_node3"><a xlink:href="interfacesll__m__xdmf__parallel_1_1sll__o__xdmf__write__array.html#a9d6efc43d2a886caf11a6ca310b8e460" target="_top" xlink:title="Write 3d array in binary or hdf5 file and the matching line in XDMF file.">
<polygon fill="white" stroke="black" points="0,-0.5 0,-41.5 155,-41.5 155,-0.5 0,-0.5"/>
<text text-anchor="start" x="8" y="-29.5" font-family="Helvetica,sans-Serif" font-size="10.00">sll_m_xdmf_parallel</text>
<text text-anchor="start" x="8" y="-18.5" font-family="Helvetica,sans-Serif" font-size="10.00">::sll_o_xdmf_write_array</text>
<text text-anchor="middle" x="77.5" y="-7.5" font-family="Helvetica,sans-Serif" font-size="10.00">::sll_xdmf_array_3d_parallel</text>
</a>
</g>
</g>
<!-- Node1&#45;&gt;Node3 -->
<g id="edge2" class="edge">
<title>Node1&#45;&gt;Node3</title>
<path fill="none" stroke="midnightblue" d="M180.75,-39.59C172.34,-38.06 163.63,-36.48 155.02,-34.91"/>
<polygon fill="midnightblue" stroke="midnightblue" points="180.37,-43.08 190.84,-41.43 181.63,-36.19 180.37,-43.08"/>
</g>
</g>
</svg>
