<?xml version="1.0" encoding="UTF-8" standalone="no"?>
<!DOCTYPE svg PUBLIC "-//W3C//DTD SVG 1.1//EN"
 "http://www.w3.org/Graphics/SVG/1.1/DTD/svg11.dtd">
<!-- Generated by graphviz version 2.43.0 (0)
 -->
<!-- Title: sll_collective_reduce_comp64 Pages: 1 -->
<svg width="316pt" height="61pt"
 viewBox="0.00 0.00 316.00 61.00" xmlns="http://www.w3.org/2000/svg" xmlns:xlink="http://www.w3.org/1999/xlink">
<g id="graph0" class="graph" transform="scale(1 1) rotate(0) translate(4 57)">
<title>sll_collective_reduce_comp64</title>
<polygon fill="white" stroke="transparent" points="-4,4 -4,-57 312,-57 312,4 -4,4"/>
<!-- Node1 -->
<g id="node1" class="node">
<title>Node1</title>
<g id="a_node1"><a xlink:title="Reduces complex values on all processes to a single value.">
<polygon fill="#bfbfbf" stroke="black" points="189,-11.5 189,-41.5 308,-41.5 308,-11.5 189,-11.5"/>
<text text-anchor="start" x="197" y="-29.5" font-family="Helvetica,sans-Serif" font-size="10.00">sll_collective_reduce</text>
<text text-anchor="middle" x="248.5" y="-18.5" font-family="Helvetica,sans-Serif" font-size="10.00">_comp64</text>
</a>
</g>
</g>
<!-- Node2 -->
<g id="node2" class="node">
<title>Node2</title>
<g id="a_node2"><a xlink:href="interfacesll__m__collective_1_1sll__o__collective__globalsum.html#a390a70af288ea9cc71befcea4e323c0b" target="_top" xlink:title="Performs a global sum over an array and writes the result in the given node If no node in root_rank i...">
<polygon fill="white" stroke="black" points="0,-0.5 0,-52.5 153,-52.5 153,-0.5 0,-0.5"/>
<text text-anchor="start" x="8" y="-40.5" font-family="Helvetica,sans-Serif" font-size="10.00">sll_m_collective::sll</text>
<text text-anchor="start" x="8" y="-29.5" font-family="Helvetica,sans-Serif" font-size="10.00">_o_collective_globalsum</text>
<text text-anchor="start" x="8" y="-18.5" font-family="Helvetica,sans-Serif" font-size="10.00">::sll_s_collective_globalsum</text>
<text text-anchor="middle" x="76.5" y="-7.5" font-family="Helvetica,sans-Serif" font-size="10.00">_array_comp64</text>
</a>
</g>
</g>
<!-- Node1&#45;&gt;Node2 -->
<g id="edge1" class="edge">
<title>Node1&#45;&gt;Node2</title>
<path fill="none" stroke="midnightblue" d="M178.84,-26.5C170.41,-26.5 161.75,-26.5 153.22,-26.5"/>
<polygon fill="midnightblue" stroke="midnightblue" points="179,-30 189,-26.5 179,-23 179,-30"/>
</g>
</g>
</svg>
