<?xml version="1.0" encoding="UTF-8" standalone="no"?>
<!DOCTYPE svg PUBLIC "-//W3C//DTD SVG 1.1//EN"
 "http://www.w3.org/Graphics/SVG/1.1/DTD/svg11.dtd">
<!-- Generated by graphviz version 2.38.0 (20140413.2041)
 -->
<!-- Title: splnatper2d Pages: 1 -->
<svg width="404pt" height="61pt"
 viewBox="0.00 0.00 404.00 61.00" xmlns="http://www.w3.org/2000/svg" xmlns:xlink="http://www.w3.org/1999/xlink">
<g id="graph0" class="graph" transform="scale(1 1) rotate(0) translate(4 57)">
<title>splnatper2d</title>
<polygon fill="white" stroke="none" points="-4,4 -4,-57 400,-57 400,4 -4,4"/>
<!-- Node1 -->
<g id="node1" class="node"><title>Node1</title>
<polygon fill="#bfbfbf" stroke="black" points="0,-17 0,-36 67,-36 67,-17 0,-17"/>
<text text-anchor="middle" x="33.5" y="-24" font-family="Helvetica,sans-Serif" font-size="10.00">splnatper2d</text>
</g>
<!-- Node2 -->
<g id="node2" class="node"><title>Node2</title>
<g id="a_node2"><a xlink:href="namespacesll__m__gyroaverage__2d__polar.html#a2179cb107521617ad7f43d8150ee7ea9" target="_top" xlink:title="sll_s_compute_gyroaverage\l_points_polar_spl">
<polygon fill="white" stroke="black" points="103,-11.5 103,-41.5 241,-41.5 241,-11.5 103,-11.5"/>
<text text-anchor="start" x="111" y="-29.5" font-family="Helvetica,sans-Serif" font-size="10.00">sll_s_compute_gyroaverage</text>
<text text-anchor="middle" x="172" y="-18.5" font-family="Helvetica,sans-Serif" font-size="10.00">_points_polar_spl</text>
</a>
</g>
</g>
<!-- Node1&#45;&gt;Node2 -->
<g id="edge1" class="edge"><title>Node1&#45;&gt;Node2</title>
<path fill="none" stroke="midnightblue" d="M77.2116,-26.5C85.3952,-26.5 94.1512,-26.5 102.904,-26.5"/>
<polygon fill="midnightblue" stroke="midnightblue" points="77.1952,-23.0001 67.1952,-26.5 77.1951,-30.0001 77.1952,-23.0001"/>
</g>
<!-- Node3 -->
<g id="node3" class="node"><title>Node3</title>
<g id="a_node3"><a xlink:href="namespacesll__m__gyroaverage__2d__polar__splines__solver.html#a2027a05dfe7a379899c5e06c046d0a95" target="_top" xlink:title="sll_m_gyroaverage_2d\l_polar_splines_solver\l::compute_gyroaverage\l_2d_polar_splines">
<polygon fill="white" stroke="black" points="277,-0.5 277,-52.5 396,-52.5 396,-0.5 277,-0.5"/>
<text text-anchor="start" x="285" y="-40.5" font-family="Helvetica,sans-Serif" font-size="10.00">sll_m_gyroaverage_2d</text>
<text text-anchor="start" x="285" y="-29.5" font-family="Helvetica,sans-Serif" font-size="10.00">_polar_splines_solver</text>
<text text-anchor="start" x="285" y="-18.5" font-family="Helvetica,sans-Serif" font-size="10.00">::compute_gyroaverage</text>
<text text-anchor="middle" x="336.5" y="-7.5" font-family="Helvetica,sans-Serif" font-size="10.00">_2d_polar_splines</text>
</a>
</g>
</g>
<!-- Node2&#45;&gt;Node3 -->
<g id="edge2" class="edge"><title>Node2&#45;&gt;Node3</title>
<path fill="none" stroke="midnightblue" d="M251.462,-26.5C260.031,-26.5 268.642,-26.5 276.913,-26.5"/>
<polygon fill="midnightblue" stroke="midnightblue" points="251.444,-23.0001 241.444,-26.5 251.444,-30.0001 251.444,-23.0001"/>
</g>
</g>
</svg>
