<?xml version="1.0" encoding="UTF-8" standalone="no"?>
<!DOCTYPE svg PUBLIC "-//W3C//DTD SVG 1.1//EN"
 "http://www.w3.org/Graphics/SVG/1.1/DTD/svg11.dtd">
<!-- Generated by graphviz version 2.38.0 (20140413.2041)
 -->
<!-- Title: sll_s_csr_matrix_with_constraint_init Pages: 1 -->
<svg width="443pt" height="110pt"
 viewBox="0.00 0.00 443.00 110.00" xmlns="http://www.w3.org/2000/svg" xmlns:xlink="http://www.w3.org/1999/xlink">
<g id="graph0" class="graph" transform="scale(1 1) rotate(0) translate(4 106)">
<title>sll_s_csr_matrix_with_constraint_init</title>
<polygon fill="white" stroke="none" points="-4,4 -4,-106 439,-106 439,4 -4,4"/>
<!-- Node1 -->
<g id="node1" class="node"><title>Node1</title>
<polygon fill="#bfbfbf" stroke="black" points="0,-36 0,-66 111,-66 111,-36 0,-36"/>
<text text-anchor="start" x="8" y="-54" font-family="Helvetica,sans-Serif" font-size="10.00">sll_s_csr_matrix_with</text>
<text text-anchor="middle" x="55.5" y="-43" font-family="Helvetica,sans-Serif" font-size="10.00">_constraint_init</text>
</g>
<!-- Node2 -->
<g id="node2" class="node"><title>Node2</title>
<g id="a_node2"><a xlink:href="namespacesll__m__sparse__matrix.html#a17e284dc6f0e44a96b9013b9a020df44" target="_top" xlink:title="sll_f_new_csr_matrix\l_with_constraint">
<polygon fill="white" stroke="black" points="147,-36 147,-66 256,-66 256,-36 147,-36"/>
<text text-anchor="start" x="155" y="-54" font-family="Helvetica,sans-Serif" font-size="10.00">sll_f_new_csr_matrix</text>
<text text-anchor="middle" x="201.5" y="-43" font-family="Helvetica,sans-Serif" font-size="10.00">_with_constraint</text>
</a>
</g>
</g>
<!-- Node1&#45;&gt;Node2 -->
<g id="edge1" class="edge"><title>Node1&#45;&gt;Node2</title>
<path fill="none" stroke="midnightblue" d="M121.541,-51C129.973,-51 138.533,-51 146.753,-51"/>
<polygon fill="midnightblue" stroke="midnightblue" points="121.351,-47.5001 111.351,-51 121.351,-54.5001 121.351,-47.5001"/>
</g>
<!-- Node3 -->
<g id="node3" class="node"><title>Node3</title>
<g id="a_node3"><a xlink:href="namespacesll__m__general__coordinate__elliptic__solver.html#a4f7fd26755a4faa1a8bdf94ff493eff1" target="_top" xlink:title="Assemble the matrix for elliptic solver. ">
<polygon fill="white" stroke="black" points="300,-60.5 300,-101.5 427,-101.5 427,-60.5 300,-60.5"/>
<text text-anchor="start" x="308" y="-89.5" font-family="Helvetica,sans-Serif" font-size="10.00">sll_m_general_coordinate</text>
<text text-anchor="start" x="308" y="-78.5" font-family="Helvetica,sans-Serif" font-size="10.00">_elliptic_solver::sll_s</text>
<text text-anchor="middle" x="363.5" y="-67.5" font-family="Helvetica,sans-Serif" font-size="10.00">_factorize_mat_es</text>
</a>
</g>
</g>
<!-- Node2&#45;&gt;Node3 -->
<g id="edge2" class="edge"><title>Node2&#45;&gt;Node3</title>
<path fill="none" stroke="midnightblue" d="M266.226,-62.9486C277.279,-65.021 288.764,-67.1745 299.789,-69.2417"/>
<polygon fill="midnightblue" stroke="midnightblue" points="266.697,-59.4759 256.223,-61.073 265.406,-66.356 266.697,-59.4759"/>
</g>
<!-- Node4 -->
<g id="node4" class="node"><title>Node4</title>
<g id="a_node4"><a xlink:href="namespacesll__m__general__coordinate__elliptic__solver.html#a2c7a0e952c10e71709680a8ea4bd548d" target="_top" xlink:title="sll_m_general_coordinate\l_elliptic_solver::sll_s\l_factorize_mat_es_prototype">
<polygon fill="white" stroke="black" points="292,-0.5 292,-41.5 435,-41.5 435,-0.5 292,-0.5"/>
<text text-anchor="start" x="300" y="-29.5" font-family="Helvetica,sans-Serif" font-size="10.00">sll_m_general_coordinate</text>
<text text-anchor="start" x="300" y="-18.5" font-family="Helvetica,sans-Serif" font-size="10.00">_elliptic_solver::sll_s</text>
<text text-anchor="middle" x="363.5" y="-7.5" font-family="Helvetica,sans-Serif" font-size="10.00">_factorize_mat_es_prototype</text>
</a>
</g>
</g>
<!-- Node2&#45;&gt;Node4 -->
<g id="edge3" class="edge"><title>Node2&#45;&gt;Node4</title>
<path fill="none" stroke="midnightblue" d="M266.318,-39.0341C274.717,-37.4593 283.365,-35.8379 291.869,-34.2434"/>
<polygon fill="midnightblue" stroke="midnightblue" points="265.406,-35.644 256.223,-40.927 266.697,-42.5241 265.406,-35.644"/>
</g>
</g>
</svg>
