<?xml version="1.0" encoding="UTF-8" standalone="no"?>
<!DOCTYPE svg PUBLIC "-//W3C//DTD SVG 1.1//EN"
 "http://www.w3.org/Graphics/SVG/1.1/DTD/svg11.dtd">
<!-- Generated by graphviz version 2.40.1 (20161225.0304)
 -->
<!-- Title: loop1 Pages: 1 -->
<svg width="683pt" height="258pt"
 viewBox="0.00 0.00 683.00 257.50" xmlns="http://www.w3.org/2000/svg" xmlns:xlink="http://www.w3.org/1999/xlink">
<g id="graph0" class="graph" transform="scale(1 1) rotate(0) translate(4 253.5)">
<title>loop1</title>
<polygon fill="#ffffff" stroke="transparent" points="-4,4 -4,-253.5 679,-253.5 679,4 -4,4"/>
<!-- Node102 -->
<g id="node1" class="node">
<title>Node102</title>
<polygon fill="#bfbfbf" stroke="#000000" points="0,-68.5 0,-87.5 44,-87.5 44,-68.5 0,-68.5"/>
<text text-anchor="middle" x="22" y="-75.5" font-family="Helvetica,sans-Serif" font-size="10.00" fill="#000000">loop1</text>
</g>
<!-- Node103 -->
<g id="node2" class="node">
<title>Node103</title>
<g id="a_node2"><a xlink:href="namespacesll__m__spline__fem__utilities__3d__helper.html#a0ecb5b69702c19db85ec6fcf8f5cf530" target="_top" xlink:title="loop2">
<polygon fill="#ffffff" stroke="#000000" points="80,-68.5 80,-87.5 124,-87.5 124,-68.5 80,-68.5"/>
<text text-anchor="middle" x="102" y="-75.5" font-family="Helvetica,sans-Serif" font-size="10.00" fill="#000000">loop2</text>
</a>
</g>
</g>
<!-- Node102&#45;&gt;Node103 -->
<g id="edge1" class="edge">
<title>Node102&#45;&gt;Node103</title>
<path fill="none" stroke="#191970" d="M54.3676,-78C62.9211,-78 71.9582,-78 79.835,-78"/>
<polygon fill="#191970" stroke="#191970" points="54.2845,-74.5001 44.2845,-78 54.2844,-81.5001 54.2845,-74.5001"/>
</g>
<!-- Node104 -->
<g id="node3" class="node">
<title>Node104</title>
<g id="a_node3"><a xlink:href="namespacesll__m__spline__fem__utilities__3d__helper.html#ab61e8df08e3414cd54d1b85c91ddb4ad" target="_top" xlink:title="Helper function to create sparsity pattern of the 3d mass matrix. ">
<polygon fill="#ffffff" stroke="#000000" points="160,-63 160,-93 302,-93 302,-63 160,-63"/>
<text text-anchor="start" x="168" y="-81" font-family="Helvetica,sans-Serif" font-size="10.00" fill="#000000">sll_s_spline_fem_sparsity</text>
<text text-anchor="middle" x="231" y="-70" font-family="Helvetica,sans-Serif" font-size="10.00" fill="#000000">_mass3d</text>
</a>
</g>
</g>
<!-- Node103&#45;&gt;Node104 -->
<g id="edge2" class="edge">
<title>Node103&#45;&gt;Node104</title>
<path fill="none" stroke="#191970" d="M134.2906,-78C142.1449,-78 150.8564,-78 159.7408,-78"/>
<polygon fill="#191970" stroke="#191970" points="134.1759,-74.5001 124.1759,-78 134.1759,-81.5001 134.1759,-74.5001"/>
</g>
<!-- Node105 -->
<g id="node4" class="node">
<title>Node105</title>
<g id="a_node4"><a xlink:href="namespacesll__m__spline__fem__utilities__3d.html#a6057d494b129b97fd792aafe62fb6932" target="_top" xlink:title="Set up 3d mass matrix for specific spline degrees and profile function. ">
<polygon fill="#ffffff" stroke="#000000" points="338,-93 338,-123 502,-123 502,-93 338,-93"/>
<text text-anchor="start" x="346" y="-111" font-family="Helvetica,sans-Serif" font-size="10.00" fill="#000000">sll_m_spline_fem_utilities</text>
<text text-anchor="middle" x="420" y="-100" font-family="Helvetica,sans-Serif" font-size="10.00" fill="#000000">_3d::sll_s_spline_fem_mass3d</text>
</a>
</g>
</g>
<!-- Node104&#45;&gt;Node105 -->
<g id="edge3" class="edge">
<title>Node104&#45;&gt;Node105</title>
<path fill="none" stroke="#191970" d="M312.0857,-90.8707C320.5932,-92.2212 329.2489,-93.5951 337.7692,-94.9475"/>
<polygon fill="#191970" stroke="#191970" points="312.6086,-87.41 302.1835,-89.299 311.5111,-94.3234 312.6086,-87.41"/>
</g>
<!-- Node109 -->
<g id="node8" class="node">
<title>Node109</title>
<g id="a_node8"><a xlink:href="namespacesll__m__maxwell__3d__trafo__parallel.html#a994d8feec849ce52b5243b251decabbc" target="_top" xlink:title="sll_m_maxwell_3d_trafo\l_parallel::init_3d_trafo\l_parallel">
<polygon fill="#ffffff" stroke="#000000" points="538.5,-.5 538.5,-41.5 674.5,-41.5 674.5,-.5 538.5,-.5"/>
<text text-anchor="start" x="546.5" y="-29.5" font-family="Helvetica,sans-Serif" font-size="10.00" fill="#000000">sll_m_maxwell_3d_trafo</text>
<text text-anchor="start" x="546.5" y="-18.5" font-family="Helvetica,sans-Serif" font-size="10.00" fill="#000000">_parallel::init_3d_trafo</text>
<text text-anchor="middle" x="606.5" y="-7.5" font-family="Helvetica,sans-Serif" font-size="10.00" fill="#000000">_parallel</text>
</a>
</g>
</g>
<!-- Node104&#45;&gt;Node109 -->
<g id="edge9" class="edge">
<title>Node104&#45;&gt;Node109</title>
<path fill="none" stroke="#191970" d="M312.2383,-65.6682C379.7239,-55.4241 474.6455,-41.0152 538.2523,-31.3598"/>
<polygon fill="#191970" stroke="#191970" points="311.4316,-62.2505 302.0701,-67.2117 312.4822,-69.1712 311.4316,-62.2505"/>
</g>
<!-- Node106 -->
<g id="node5" class="node">
<title>Node106</title>
<g id="a_node5"><a xlink:href="namespacesll__m__maxwell__3d__fem.html#ab814bfc0f843c1a2b8fe485351798ca0" target="_top" xlink:title="Initialization. ">
<polygon fill="#ffffff" stroke="#000000" points="540.5,-219 540.5,-249 672.5,-249 672.5,-219 540.5,-219"/>
<text text-anchor="start" x="548.5" y="-237" font-family="Helvetica,sans-Serif" font-size="10.00" fill="#000000">sll_m_maxwell_3d_fem</text>
<text text-anchor="middle" x="606.5" y="-226" font-family="Helvetica,sans-Serif" font-size="10.00" fill="#000000">::init_3d_fem</text>
</a>
</g>
</g>
<!-- Node105&#45;&gt;Node106 -->
<g id="edge4" class="edge">
<title>Node105&#45;&gt;Node106</title>
<path fill="none" stroke="#191970" d="M440.8058,-130.3844C462.9974,-153.1315 500.1038,-188.0549 538,-210 543.7795,-213.3468 550.102,-216.3365 556.4949,-218.9736"/>
<polygon fill="#191970" stroke="#191970" points="443.3262,-127.9558 433.8722,-123.1733 438.2803,-132.8076 443.3262,-127.9558"/>
</g>
<!-- Node107 -->
<g id="node6" class="node">
<title>Node107</title>
<g id="a_node6"><a xlink:href="namespacesll__m__maxwell__3d__trafo.html#aaad1e5b0c976c17ca8c2276ab121313d" target="_top" xlink:title="Initialization. ">
<polygon fill="#ffffff" stroke="#000000" points="538.5,-170 538.5,-200 674.5,-200 674.5,-170 538.5,-170"/>
<text text-anchor="start" x="546.5" y="-188" font-family="Helvetica,sans-Serif" font-size="10.00" fill="#000000">sll_m_maxwell_3d_trafo</text>
<text text-anchor="middle" x="606.5" y="-177" font-family="Helvetica,sans-Serif" font-size="10.00" fill="#000000">::init_3d_trafo</text>
</a>
</g>
</g>
<!-- Node105&#45;&gt;Node107 -->
<g id="edge5" class="edge">
<title>Node105&#45;&gt;Node107</title>
<path fill="none" stroke="#191970" d="M460.9983,-127.449C483.5264,-137.8731 512.0825,-150.661 538,-161 545.6078,-164.0349 553.7683,-167.0759 561.7104,-169.9242"/>
<polygon fill="#191970" stroke="#191970" points="462.2808,-124.1855 451.7377,-123.1402 459.3278,-130.5321 462.2808,-124.1855"/>
</g>
<!-- Node108 -->
<g id="node7" class="node">
<title>Node108</title>
<g id="a_node7"><a xlink:href="namespacesll__m__maxwell__clamped__3d__trafo.html#ab614fb88d34d5e55292639d8db6b0353" target="_top" xlink:title="Initialization. ">
<polygon fill="#ffffff" stroke="#000000" points="538,-121 538,-151 675,-151 675,-121 538,-121"/>
<text text-anchor="start" x="546" y="-139" font-family="Helvetica,sans-Serif" font-size="10.00" fill="#000000">sll_m_maxwell_clamped</text>
<text text-anchor="middle" x="606.5" y="-128" font-family="Helvetica,sans-Serif" font-size="10.00" fill="#000000">_3d_trafo::init_3d_trafo</text>
</a>
</g>
</g>
<!-- Node105&#45;&gt;Node108 -->
<g id="edge6" class="edge">
<title>Node105&#45;&gt;Node108</title>
<path fill="none" stroke="#191970" d="M512.1737,-121.8384C520.7978,-123.1332 529.4343,-124.4298 537.7878,-125.684"/>
<polygon fill="#191970" stroke="#191970" points="512.4819,-118.3455 502.073,-120.322 511.4425,-125.2679 512.4819,-118.3455"/>
</g>
<!-- Node105&#45;&gt;Node109 -->
<g id="edge7" class="edge">
<title>Node105&#45;&gt;Node109</title>
<path fill="none" stroke="#191970" d="M463.0761,-88.5454C475.6848,-82.7142 489.4506,-76.2143 502,-70 518.2128,-61.9717 521.7032,-58.8563 538,-51 544.5491,-47.8428 551.5108,-44.6313 558.3912,-41.5404"/>
<polygon fill="#191970" stroke="#191970" points="461.3215,-85.4999 453.6989,-92.8583 464.2466,-91.8594 461.3215,-85.4999"/>
</g>
<!-- Node110 -->
<g id="node9" class="node">
<title>Node110</title>
<g id="a_node9"><a xlink:href="namespacesll__m__maxwell__clamped__3d__trafo__parallel.html#ae0872c3bfa3cc2f7b7f3aaca4fd8838e" target="_top" xlink:title="sll_m_maxwell_clamped\l_3d_trafo_parallel::init\l_3d_trafo_parallel">
<polygon fill="#ffffff" stroke="#000000" points="538,-60.5 538,-101.5 675,-101.5 675,-60.5 538,-60.5"/>
<text text-anchor="start" x="546" y="-89.5" font-family="Helvetica,sans-Serif" font-size="10.00" fill="#000000">sll_m_maxwell_clamped</text>
<text text-anchor="start" x="546" y="-78.5" font-family="Helvetica,sans-Serif" font-size="10.00" fill="#000000">_3d_trafo_parallel::init</text>
<text text-anchor="middle" x="606.5" y="-67.5" font-family="Helvetica,sans-Serif" font-size="10.00" fill="#000000">_3d_trafo_parallel</text>
</a>
</g>
</g>
<!-- Node105&#45;&gt;Node110 -->
<g id="edge8" class="edge">
<title>Node105&#45;&gt;Node110</title>
<path fill="none" stroke="#191970" d="M512.1737,-94.6558C520.7978,-93.4073 529.4343,-92.157 537.7878,-90.9476"/>
<polygon fill="#191970" stroke="#191970" points="511.4683,-91.2214 502.073,-96.1181 512.4713,-98.1491 511.4683,-91.2214"/>
</g>
</g>
</svg>
