<?xml version="1.0" encoding="UTF-8" standalone="no"?>
<!DOCTYPE svg PUBLIC "-//W3C//DTD SVG 1.1//EN"
 "http://www.w3.org/Graphics/SVG/1.1/DTD/svg11.dtd">
<!-- Generated by graphviz version 2.40.1 (20161225.0304)
 -->
<!-- Title: poifrc Pages: 1 -->
<svg width="235pt" height="66pt"
 viewBox="0.00 0.00 235.00 66.00" xmlns="http://www.w3.org/2000/svg" xmlns:xlink="http://www.w3.org/1999/xlink">
<g id="graph0" class="graph" transform="scale(1 1) rotate(0) translate(4 62)">
<title>poifrc</title>
<polygon fill="#ffffff" stroke="transparent" points="-4,4 -4,-62 231,-62 231,4 -4,4"/>
<!-- Node51 -->
<g id="node1" class="node">
<title>Node51</title>
<polygon fill="#bfbfbf" stroke="#000000" points="0,-19.5 0,-38.5 44,-38.5 44,-19.5 0,-19.5"/>
<text text-anchor="middle" x="22" y="-26.5" font-family="Helvetica,sans-Serif" font-size="10.00" fill="#000000">poifrc</text>
</g>
<!-- Node52 -->
<g id="node2" class="node">
<title>Node52</title>
<g id="a_node2"><a xlink:href="namespacesll__m__poisson__2d__tri.html#abf9dd3db10a3e7b84641fb3e47f7a43c" target="_top" xlink:title="Compute electric field from charge density. ">
<polygon fill="#ffffff" stroke="#000000" points="80,-38.5 80,-57.5 227,-57.5 227,-38.5 80,-38.5"/>
<text text-anchor="middle" x="153.5" y="-45.5" font-family="Helvetica,sans-Serif" font-size="10.00" fill="#000000">sll_s_compute_e_from_rho</text>
</a>
</g>
</g>
<!-- Node51&#45;&gt;Node52 -->
<g id="edge1" class="edge">
<title>Node51&#45;&gt;Node52</title>
<path fill="none" stroke="#191970" d="M54.0608,-33.6324C64.2821,-35.1092 75.9917,-36.8011 87.7033,-38.4933"/>
<polygon fill="#191970" stroke="#191970" points="54.4079,-30.1462 44.0101,-32.1802 53.4068,-37.0743 54.4079,-30.1462"/>
</g>
<!-- Node53 -->
<g id="node3" class="node">
<title>Node53</title>
<g id="a_node3"><a xlink:href="namespacesll__m__poisson__2d__tri.html#aa6b84a3992d5e0e499395a4ae90eceec" target="_top" xlink:title="sll_s_compute_e_from_phi">
<polygon fill="#ffffff" stroke="#000000" points="80.5,-.5 80.5,-19.5 226.5,-19.5 226.5,-.5 80.5,-.5"/>
<text text-anchor="middle" x="153.5" y="-7.5" font-family="Helvetica,sans-Serif" font-size="10.00" fill="#000000">sll_s_compute_e_from_phi</text>
</a>
</g>
</g>
<!-- Node51&#45;&gt;Node53 -->
<g id="edge2" class="edge">
<title>Node51&#45;&gt;Node53</title>
<path fill="none" stroke="#191970" d="M54.0608,-24.3676C64.2821,-22.8908 75.9917,-21.1989 87.7033,-19.5067"/>
<polygon fill="#191970" stroke="#191970" points="53.4068,-20.9257 44.0101,-25.8198 54.4079,-27.8538 53.4068,-20.9257"/>
</g>
</g>
</svg>
