<?xml version="1.0" encoding="UTF-8" standalone="no"?>
<!DOCTYPE svg PUBLIC "-//W3C//DTD SVG 1.1//EN"
 "http://www.w3.org/Graphics/SVG/1.1/DTD/svg11.dtd">
<!-- Generated by graphviz version 2.43.0 (0)
 -->
<!-- Title: compute_spline_2d_prdc_prdc Pages: 1 -->
<svg width="566pt" height="302pt"
 viewBox="0.00 0.00 566.00 302.00" xmlns="http://www.w3.org/2000/svg" xmlns:xlink="http://www.w3.org/1999/xlink">
<g id="graph0" class="graph" transform="scale(1 1) rotate(0) translate(4 298)">
<title>compute_spline_2d_prdc_prdc</title>
<polygon fill="white" stroke="transparent" points="-4,4 -4,-298 562,-298 562,4 -4,4"/>
<!-- Node1 -->
<g id="node1" class="node">
<title>Node1</title>
<g id="a_node1"><a xlink:title=" ">
<polygon fill="#bfbfbf" stroke="black" points="394,-137.5 394,-156.5 558,-156.5 558,-137.5 394,-137.5"/>
<text text-anchor="middle" x="476" y="-144.5" font-family="Helvetica,sans-Serif" font-size="10.00">compute_spline_2d_prdc_prdc</text>
</a>
</g>
</g>
<!-- Node2 -->
<g id="node2" class="node">
<title>Node2</title>
<g id="a_node2"><a xlink:href="namespacesll__m__cubic__splines.html#a0d1f3cee9f161c208e409c998ab66713" target="_top" xlink:title="Computes the spline coefficients for the given data. The coeffcients are first computed in the second...">
<polygon fill="white" stroke="black" points="218,-132 218,-162 358,-162 358,-132 218,-132"/>
<text text-anchor="start" x="226" y="-150" font-family="Helvetica,sans-Serif" font-size="10.00">sll_s_cubic_spline</text>
<text text-anchor="middle" x="288" y="-139" font-family="Helvetica,sans-Serif" font-size="10.00">_2d_compute_interpolant</text>
</a>
</g>
</g>
<!-- Node1&#45;&gt;Node2 -->
<g id="edge1" class="edge">
<title>Node1&#45;&gt;Node2</title>
<path fill="none" stroke="midnightblue" d="M383.84,-147C375.19,-147 366.52,-147 358.13,-147"/>
<polygon fill="midnightblue" stroke="midnightblue" points="383.96,-150.5 393.96,-147 383.96,-143.5 383.96,-150.5"/>
</g>
<!-- Node3 -->
<g id="node3" class="node">
<title>Node3</title>
<g id="a_node3"><a xlink:href="namespacesll__m__cubic__spline__interpolator__2d.html#a10af8789e490412a3580fcd15040a9b6" target="_top" xlink:title=" ">
<polygon fill="white" stroke="black" points="18.5,-252.5 18.5,-293.5 163.5,-293.5 163.5,-252.5 18.5,-252.5"/>
<text text-anchor="start" x="26.5" y="-281.5" font-family="Helvetica,sans-Serif" font-size="10.00">sll_m_cubic_spline</text>
<text text-anchor="start" x="26.5" y="-270.5" font-family="Helvetica,sans-Serif" font-size="10.00">_interpolator_2d::compute</text>
<text text-anchor="middle" x="91" y="-259.5" font-family="Helvetica,sans-Serif" font-size="10.00">_interpolants_cs2d</text>
</a>
</g>
</g>
<!-- Node2&#45;&gt;Node3 -->
<g id="edge2" class="edge">
<title>Node2&#45;&gt;Node3</title>
<path fill="none" stroke="midnightblue" d="M267.35,-169.81C247.69,-191.36 215.61,-223.25 182,-243 176.18,-246.42 169.91,-249.52 163.49,-252.3"/>
<polygon fill="midnightblue" stroke="midnightblue" points="270.19,-171.89 274.25,-162.1 264.98,-167.22 270.19,-171.89"/>
</g>
<!-- Node4 -->
<g id="node4" class="node">
<title>Node4</title>
<g id="a_node4"><a xlink:href="namespacesll__m__fdistribu4d__dk.html#adf8cc4ba8aba42290c788f697de79f42" target="_top" xlink:title=" ">
<polygon fill="white" stroke="black" points="23.5,-192.5 23.5,-233.5 158.5,-233.5 158.5,-192.5 23.5,-192.5"/>
<text text-anchor="start" x="31.5" y="-221.5" font-family="Helvetica,sans-Serif" font-size="10.00">sll_m_fdistribu4d_dk</text>
<text text-anchor="start" x="31.5" y="-210.5" font-family="Helvetica,sans-Serif" font-size="10.00">::sll_s_function_xy_from</text>
<text text-anchor="middle" x="91" y="-199.5" font-family="Helvetica,sans-Serif" font-size="10.00">_rtheta</text>
</a>
</g>
</g>
<!-- Node2&#45;&gt;Node4 -->
<g id="edge3" class="edge">
<title>Node2&#45;&gt;Node4</title>
<path fill="none" stroke="midnightblue" d="M233.81,-165.33C217.23,-171.02 198.86,-177.3 182,-183 172.95,-186.06 163.38,-189.27 153.99,-192.41"/>
<polygon fill="midnightblue" stroke="midnightblue" points="235.03,-168.62 243.35,-162.06 232.75,-162 235.03,-168.62"/>
</g>
<!-- Node5 -->
<g id="node5" class="node">
<title>Node5</title>
<g id="a_node5"><a xlink:href="namespacesll__m__general__coordinate__elliptic__solver.html#aff3042a62c26cedfdcf04569ac9ead5d" target="_top" xlink:title=" ">
<polygon fill="white" stroke="black" points="0,-121 0,-173 182,-173 182,-121 0,-121"/>
<text text-anchor="start" x="8" y="-161" font-family="Helvetica,sans-Serif" font-size="10.00">sll_m_general_coordinate</text>
<text text-anchor="start" x="8" y="-150" font-family="Helvetica,sans-Serif" font-size="10.00">_elliptic_solver::sll_s</text>
<text text-anchor="start" x="8" y="-139" font-family="Helvetica,sans-Serif" font-size="10.00">_set_rho_coefficients_coordinates</text>
<text text-anchor="middle" x="91" y="-128" font-family="Helvetica,sans-Serif" font-size="10.00">_elliptic_eq_prototype</text>
</a>
</g>
</g>
<!-- Node2&#45;&gt;Node5 -->
<g id="edge4" class="edge">
<title>Node2&#45;&gt;Node5</title>
<path fill="none" stroke="midnightblue" d="M207.77,-147C199.32,-147 190.67,-147 182.11,-147"/>
<polygon fill="midnightblue" stroke="midnightblue" points="207.98,-150.5 217.98,-147 207.98,-143.5 207.98,-150.5"/>
</g>
<!-- Node6 -->
<g id="node6" class="node">
<title>Node6</title>
<g id="a_node6"><a xlink:href="namespacesll__m__cubic__spline__interpolator__2d.html#a44c6e00989e48621fd373f2a8d0526fa" target="_top" xlink:title=" ">
<polygon fill="white" stroke="black" points="25.5,-60.5 25.5,-101.5 156.5,-101.5 156.5,-60.5 25.5,-60.5"/>
<text text-anchor="start" x="33.5" y="-89.5" font-family="Helvetica,sans-Serif" font-size="10.00">sll_m_cubic_spline</text>
<text text-anchor="start" x="33.5" y="-78.5" font-family="Helvetica,sans-Serif" font-size="10.00">_interpolator_2d::spline</text>
<text text-anchor="middle" x="91" y="-67.5" font-family="Helvetica,sans-Serif" font-size="10.00">_interpolate2d</text>
</a>
</g>
</g>
<!-- Node2&#45;&gt;Node6 -->
<g id="edge5" class="edge">
<title>Node2&#45;&gt;Node6</title>
<path fill="none" stroke="midnightblue" d="M232.65,-128.6C207.83,-120.2 178.34,-110.22 152.78,-101.57"/>
<polygon fill="midnightblue" stroke="midnightblue" points="231.67,-131.97 242.26,-131.86 233.91,-125.34 231.67,-131.97"/>
</g>
<!-- Node7 -->
<g id="node7" class="node">
<title>Node7</title>
<g id="a_node7"><a xlink:href="namespacesll__m__cubic__spline__interpolator__2d.html#af3b769e5f47945e7de14ba1272defea0" target="_top" xlink:title=" ">
<polygon fill="white" stroke="black" points="25.5,-0.5 25.5,-41.5 156.5,-41.5 156.5,-0.5 25.5,-0.5"/>
<text text-anchor="start" x="33.5" y="-29.5" font-family="Helvetica,sans-Serif" font-size="10.00">sll_m_cubic_spline</text>
<text text-anchor="start" x="33.5" y="-18.5" font-family="Helvetica,sans-Serif" font-size="10.00">_interpolator_2d::spline</text>
<text text-anchor="middle" x="91" y="-7.5" font-family="Helvetica,sans-Serif" font-size="10.00">_interpolate2d_disp</text>
</a>
</g>
</g>
<!-- Node2&#45;&gt;Node7 -->
<g id="edge6" class="edge">
<title>Node2&#45;&gt;Node7</title>
<path fill="none" stroke="midnightblue" d="M267.35,-124.19C247.69,-102.64 215.61,-70.75 182,-51 174.19,-46.41 165.58,-42.41 156.88,-38.95"/>
<polygon fill="midnightblue" stroke="midnightblue" points="264.98,-126.78 274.25,-131.9 270.19,-122.11 264.98,-126.78"/>
</g>
</g>
</svg>
