<?xml version="1.0" encoding="UTF-8" standalone="no"?>
<!DOCTYPE svg PUBLIC "-//W3C//DTD SVG 1.1//EN"
 "http://www.w3.org/Graphics/SVG/1.1/DTD/svg11.dtd">
<!-- Generated by graphviz version 2.43.0 (0)
 -->
<!-- Title: sll_s_destruct_decomposition__buffer Pages: 1 -->
<svg width="941pt" height="110pt"
 viewBox="0.00 0.00 941.00 110.00" xmlns="http://www.w3.org/2000/svg" xmlns:xlink="http://www.w3.org/1999/xlink">
<g id="graph0" class="graph" transform="scale(1 1) rotate(0) translate(4 106)">
<title>sll_s_destruct_decomposition__buffer</title>
<polygon fill="white" stroke="transparent" points="-4,4 -4,-106 937,-106 937,4 -4,4"/>
<!-- Node1 -->
<g id="node1" class="node">
<title>Node1</title>
<g id="a_node1"><a xlink:title=" ">
<polygon fill="#bfbfbf" stroke="black" points="772,-46.5 772,-76.5 933,-76.5 933,-46.5 772,-46.5"/>
<text text-anchor="start" x="780" y="-64.5" font-family="Helvetica,sans-Serif" font-size="10.00">sll_s_destruct_decomposition</text>
<text text-anchor="middle" x="852.5" y="-53.5" font-family="Helvetica,sans-Serif" font-size="10.00">__buffer</text>
</a>
</g>
</g>
<!-- Node2 -->
<g id="node2" class="node">
<title>Node2</title>
<g id="a_node2"><a xlink:href="namespacesll__m__decomposition__advanced.html#a43916a74ee5008529169cbcbefdb96ac" target="_top" xlink:title=" ">
<polygon fill="white" stroke="black" points="599.5,-71.5 599.5,-101.5 711.5,-101.5 711.5,-71.5 599.5,-71.5"/>
<text text-anchor="start" x="607.5" y="-89.5" font-family="Helvetica,sans-Serif" font-size="10.00">sll_s_dd_deallocate</text>
<text text-anchor="middle" x="655.5" y="-78.5" font-family="Helvetica,sans-Serif" font-size="10.00">_buffer</text>
</a>
</g>
</g>
<!-- Node1&#45;&gt;Node2 -->
<g id="edge1" class="edge">
<title>Node1&#45;&gt;Node2</title>
<path fill="none" stroke="midnightblue" d="M761.88,-72.99C744.77,-75.18 727.33,-77.42 711.69,-79.42"/>
<polygon fill="midnightblue" stroke="midnightblue" points="762.43,-76.45 771.9,-71.7 761.54,-69.5 762.43,-76.45"/>
</g>
<!-- Node3 -->
<g id="node3" class="node">
<title>Node3</title>
<g id="a_node3"><a xlink:href="namespacesll__m__decomposition__advanced.html#a33b255038389dcc5a794084e1aff103d" target="_top" xlink:title=" ">
<polygon fill="white" stroke="black" points="575,-22.5 575,-52.5 736,-52.5 736,-22.5 575,-22.5"/>
<text text-anchor="start" x="583" y="-40.5" font-family="Helvetica,sans-Serif" font-size="10.00">sll_s_destruct_decomposition</text>
<text text-anchor="middle" x="655.5" y="-29.5" font-family="Helvetica,sans-Serif" font-size="10.00">__block</text>
</a>
</g>
</g>
<!-- Node1&#45;&gt;Node3 -->
<g id="edge2" class="edge">
<title>Node1&#45;&gt;Node3</title>
<path fill="none" stroke="midnightblue" d="M761.88,-50.47C753.3,-49.41 744.64,-48.35 736.16,-47.3"/>
<polygon fill="midnightblue" stroke="midnightblue" points="761.55,-53.96 771.9,-51.7 762.41,-47.01 761.55,-53.96"/>
</g>
<!-- Node4 -->
<g id="node4" class="node">
<title>Node4</title>
<g id="a_node4"><a xlink:href="namespacesll__m__decomposition__advanced.html#a7c0c5a82b63ba239356ff222b0249139" target="_top" xlink:title="Initialize blocking of halo cells for dimension id.">
<polygon fill="white" stroke="black" points="394.5,-50 394.5,-69 522.5,-69 522.5,-50 394.5,-50"/>
<text text-anchor="middle" x="458.5" y="-57" font-family="Helvetica,sans-Serif" font-size="10.00">sll_s_dd_define_blocks</text>
</a>
</g>
</g>
<!-- Node3&#45;&gt;Node4 -->
<g id="edge3" class="edge">
<title>Node3&#45;&gt;Node4</title>
<path fill="none" stroke="midnightblue" d="M564.65,-47.64C550.49,-49.23 536.12,-50.86 522.73,-52.37"/>
<polygon fill="midnightblue" stroke="midnightblue" points="565.36,-51.08 574.9,-46.48 564.58,-44.12 565.36,-51.08"/>
</g>
<!-- Node5 -->
<g id="node5" class="node">
<title>Node5</title>
<g id="a_node5"><a xlink:href="namespacesll__m__decomposition__advanced.html#ad03c324e2336bdbee4dacad7dffd9a5a" target="_top" xlink:title=" ">
<polygon fill="white" stroke="black" points="378,-0.5 378,-30.5 539,-30.5 539,-0.5 378,-0.5"/>
<text text-anchor="start" x="386" y="-18.5" font-family="Helvetica,sans-Serif" font-size="10.00">sll_s_destruct_decomposition</text>
<text text-anchor="middle" x="458.5" y="-7.5" font-family="Helvetica,sans-Serif" font-size="10.00">__dimension</text>
</a>
</g>
</g>
<!-- Node3&#45;&gt;Node5 -->
<g id="edge4" class="edge">
<title>Node3&#45;&gt;Node5</title>
<path fill="none" stroke="midnightblue" d="M564.88,-27.39C556.3,-26.42 547.64,-25.44 539.16,-24.49"/>
<polygon fill="midnightblue" stroke="midnightblue" points="564.58,-30.88 574.9,-28.52 565.36,-23.92 564.58,-30.88"/>
</g>
<!-- Node6 -->
<g id="node6" class="node">
<title>Node6</title>
<g id="a_node6"><a xlink:href="namespacesll__m__decomposition__advanced.html#afdff510c0c45c5ff3ac877206bf96877" target="_top" xlink:title=" ">
<polygon fill="white" stroke="black" points="181,-0.5 181,-30.5 342,-30.5 342,-0.5 181,-0.5"/>
<text text-anchor="start" x="189" y="-18.5" font-family="Helvetica,sans-Serif" font-size="10.00">sll_s_destruct_decomposition</text>
<text text-anchor="middle" x="261.5" y="-7.5" font-family="Helvetica,sans-Serif" font-size="10.00">__local</text>
</a>
</g>
</g>
<!-- Node5&#45;&gt;Node6 -->
<g id="edge5" class="edge">
<title>Node5&#45;&gt;Node6</title>
<path fill="none" stroke="midnightblue" d="M367.88,-15.5C359.3,-15.5 350.64,-15.5 342.16,-15.5"/>
<polygon fill="midnightblue" stroke="midnightblue" points="367.9,-19 377.9,-15.5 367.9,-12 367.9,-19"/>
</g>
<!-- Node7 -->
<g id="node7" class="node">
<title>Node7</title>
<g id="a_node7"><a xlink:href="namespacesll__m__decomposition__advanced.html#af8eff6a0cfd14531ca3a240a3aa5417c" target="_top" xlink:title=" ">
<polygon fill="white" stroke="black" points="0,-0.5 0,-30.5 145,-30.5 145,-0.5 0,-0.5"/>
<text text-anchor="start" x="8" y="-18.5" font-family="Helvetica,sans-Serif" font-size="10.00">sll_s_deallocate_cartesian</text>
<text text-anchor="middle" x="72.5" y="-7.5" font-family="Helvetica,sans-Serif" font-size="10.00">_domain_decomposition</text>
</a>
</g>
</g>
<!-- Node6&#45;&gt;Node7 -->
<g id="edge6" class="edge">
<title>Node6&#45;&gt;Node7</title>
<path fill="none" stroke="midnightblue" d="M170.8,-15.5C162.15,-15.5 153.45,-15.5 145.01,-15.5"/>
<polygon fill="midnightblue" stroke="midnightblue" points="170.92,-19 180.92,-15.5 170.92,-12 170.92,-19"/>
</g>
</g>
</svg>
