<?xml version="1.0" encoding="UTF-8" standalone="no"?>
<!DOCTYPE svg PUBLIC "-//W3C//DTD SVG 1.1//EN"
 "http://www.w3.org/Graphics/SVG/1.1/DTD/svg11.dtd">
<!-- Generated by graphviz version 2.43.0 (0)
 -->
<!-- Title: sll_s_compute_e_from_b_3d_fem_fft Pages: 1 -->
<svg width="690pt" height="83pt"
 viewBox="0.00 0.00 690.00 83.00" xmlns="http://www.w3.org/2000/svg" xmlns:xlink="http://www.w3.org/1999/xlink">
<g id="graph0" class="graph" transform="scale(1 1) rotate(0) translate(4 79)">
<title>sll_s_compute_e_from_b_3d_fem_fft</title>
<polygon fill="white" stroke="transparent" points="-4,4 -4,-79 686,-79 686,4 -4,4"/>
<!-- Node1 -->
<g id="node1" class="node">
<title>Node1</title>
<g id="a_node1"><a xlink:title="compute Ey from Bz using weak Ampere formulation">
<polygon fill="#bfbfbf" stroke="black" points="0,-22.5 0,-52.5 126,-52.5 126,-22.5 0,-22.5"/>
<text text-anchor="start" x="8" y="-40.5" font-family="Helvetica,sans-Serif" font-size="10.00">sll_s_compute_e_from</text>
<text text-anchor="middle" x="63" y="-29.5" font-family="Helvetica,sans-Serif" font-size="10.00">_b_3d_fem_fft</text>
</a>
</g>
</g>
<!-- Node2 -->
<g id="node2" class="node">
<title>Node2</title>
<g id="a_node2"><a xlink:href="namespacesll__m__maxwell__3d__fem__fft.html#a24b4ab3b098cf2009db35e01d87292ea" target="_top" xlink:title="Multiply by transpose of discrete curl matrix.">
<polygon fill="white" stroke="black" points="188,-48 188,-67 259,-67 259,-48 188,-48"/>
<text text-anchor="middle" x="223.5" y="-55" font-family="Helvetica,sans-Serif" font-size="10.00">multiply_ct</text>
</a>
</g>
</g>
<!-- Node1&#45;&gt;Node2 -->
<g id="edge1" class="edge">
<title>Node1&#45;&gt;Node2</title>
<path fill="none" stroke="midnightblue" d="M126.19,-45.35C143.41,-47.52 161.75,-49.83 177.76,-51.85"/>
<polygon fill="midnightblue" stroke="midnightblue" points="177.55,-55.36 187.91,-53.14 178.42,-48.41 177.55,-55.36"/>
</g>
<!-- Node4 -->
<g id="node4" class="node">
<title>Node4</title>
<g id="a_node4"><a xlink:href="namespacesll__m__maxwell__3d__fem__fft.html#a13ab31c6639d576f0086381c07ea33f5" target="_top" xlink:title="Helper function for multiply_mass.">
<polygon fill="white" stroke="black" points="162,-9 162,-28 285,-28 285,-9 162,-9"/>
<text text-anchor="middle" x="223.5" y="-16" font-family="Helvetica,sans-Serif" font-size="10.00">multiply_mass_2form</text>
</a>
</g>
</g>
<!-- Node1&#45;&gt;Node4 -->
<g id="edge3" class="edge">
<title>Node1&#45;&gt;Node4</title>
<path fill="none" stroke="midnightblue" d="M126.19,-30.05C134.6,-29.04 143.29,-28 151.84,-26.97"/>
<polygon fill="midnightblue" stroke="midnightblue" points="152.28,-30.44 161.79,-25.78 151.44,-23.49 152.28,-30.44"/>
</g>
<!-- Node3 -->
<g id="node3" class="node">
<title>Node3</title>
<g id="a_node3"><a xlink:href="namespacesll__m__spline__fem__utilities.html#a83c1afceeaf9e57230dce58d1cb23f84" target="_top" xlink:title="Multiply by transpose of discrete curl matrix.">
<polygon fill="white" stroke="black" points="321,-44.5 321,-74.5 465,-74.5 465,-44.5 321,-44.5"/>
<text text-anchor="start" x="329" y="-62.5" font-family="Helvetica,sans-Serif" font-size="10.00">sll_m_spline_fem_utilities</text>
<text text-anchor="middle" x="393" y="-51.5" font-family="Helvetica,sans-Serif" font-size="10.00">::sll_s_multiply_ct</text>
</a>
</g>
</g>
<!-- Node2&#45;&gt;Node3 -->
<g id="edge2" class="edge">
<title>Node2&#45;&gt;Node3</title>
<path fill="none" stroke="midnightblue" d="M259.21,-57.91C274.24,-58.09 292.54,-58.31 310.68,-58.53"/>
<polygon fill="midnightblue" stroke="midnightblue" points="310.68,-62.03 320.73,-58.65 310.77,-55.03 310.68,-62.03"/>
</g>
<!-- Node5 -->
<g id="node5" class="node">
<title>Node5</title>
<g id="a_node5"><a xlink:href="namespacesll__m__maxwell__3d__fem__fft.html#af661de8498b97c6bb3b0549168a27a7e" target="_top" xlink:title="Multiply by the mass matrix.">
<polygon fill="white" stroke="black" points="329,-6 329,-25 457,-25 457,-6 329,-6"/>
<text text-anchor="middle" x="393" y="-13" font-family="Helvetica,sans-Serif" font-size="10.00">multiply_mass_3dkron</text>
</a>
</g>
</g>
<!-- Node4&#45;&gt;Node5 -->
<g id="edge4" class="edge">
<title>Node4&#45;&gt;Node5</title>
<path fill="none" stroke="midnightblue" d="M285.45,-17.41C296.26,-17.21 307.62,-17.01 318.74,-16.81"/>
<polygon fill="midnightblue" stroke="midnightblue" points="318.91,-20.31 328.85,-16.63 318.79,-13.31 318.91,-20.31"/>
</g>
<!-- Node6 -->
<g id="node6" class="node">
<title>Node6</title>
<g id="a_node6"><a xlink:href="namespacesll__m__spline__fem__utilities.html#a528fc7241e39fd979bd521f0c2d7b350" target="_top" xlink:title="Multiply the vector invec with the spline FEM mass matrix with mass line mass.">
<polygon fill="white" stroke="black" points="501,-0.5 501,-30.5 682,-30.5 682,-0.5 501,-0.5"/>
<text text-anchor="start" x="509" y="-18.5" font-family="Helvetica,sans-Serif" font-size="10.00">sll_m_spline_fem_utilities</text>
<text text-anchor="middle" x="591.5" y="-7.5" font-family="Helvetica,sans-Serif" font-size="10.00">::sll_s_spline_fem_multiply_mass</text>
</a>
</g>
</g>
<!-- Node5&#45;&gt;Node6 -->
<g id="edge5" class="edge">
<title>Node5&#45;&gt;Node6</title>
<path fill="none" stroke="midnightblue" d="M457.26,-15.5C468.02,-15.5 479.42,-15.5 490.85,-15.5"/>
<polygon fill="midnightblue" stroke="midnightblue" points="490.88,-19 500.88,-15.5 490.88,-12 490.88,-19"/>
</g>
</g>
</svg>
