<?xml version="1.0" encoding="UTF-8" standalone="no"?>
<!DOCTYPE svg PUBLIC "-//W3C//DTD SVG 1.1//EN"
 "http://www.w3.org/Graphics/SVG/1.1/DTD/svg11.dtd">
<!-- Generated by graphviz version 2.40.1 (20161225.0304)
 -->
<!-- Title: rearrange_fekete_rule Pages: 1 -->
<!--zoomable 104 -->
<svg id="main" version="1.1" xmlns="http://www.w3.org/2000/svg" xmlns:xlink="http://www.w3.org/1999/xlink" xml:space="preserve" onload="init(evt)">
<style type="text/css"><![CDATA[
.edge:hover path { stroke: red; }
.edge:hover polygon { stroke: red; fill: red; }
]]></style>
<script type="text/javascript"><![CDATA[
var edges = document.getElementsByTagName('g');
if (edges && edges.length) {
  for (var i=0;i<edges.length;i++) {
    if (edges[i].id.substr(0,4)=='edge') {
      edges[i].setAttribute('class','edge');
    }
  }
}
]]></script>
        <defs>
                <circle id="rim" cx="0" cy="0" r="7"/>
                <circle id="rim2" cx="0" cy="0" r="3.5"/>
                <g id="zoomPlus">
                        <use xlink:href="#rim" fill="#404040">
                                <set attributeName="fill" to="#808080" begin="zoomplus.mouseover" end="zoomplus.mouseout"/>
                        </use>
                        <path d="M-4,0h8M0,-4v8" fill="none" stroke="white" stroke-width="1.5" pointer-events="none"/>
                </g>
                <g id="zoomMin">
                        <use xlink:href="#rim" fill="#404040">
                                <set attributeName="fill" to="#808080" begin="zoomminus.mouseover" end="zoomminus.mouseout"/>
                        </use>
                        <path d="M-4,0h8" fill="none" stroke="white" stroke-width="1.5" pointer-events="none"/>
                </g>
                <g id="dirArrow">
                        <path fill="none" stroke="white" stroke-width="1.5" d="M0,-3.0v7 M-2.5,-0.5L0,-3.0L2.5,-0.5"/>
                </g>
               <g id="resetDef">
                       <use xlink:href="#rim2" fill="#404040">
                               <set attributeName="fill" to="#808080" begin="reset.mouseover" end="reset.mouseout"/>
                       </use>
               </g>
        </defs>

<script type="text/javascript">
var viewWidth = 590;
var viewHeight = 104;
var sectionId = 'dynsection-5';
</script>
<script xlink:href="svgpan.js"/>
<svg id="graph" class="graph">
<g id="viewport">
<title>rearrange_fekete_rule</title>
<polygon fill="#ffffff" stroke="transparent" points="-4,4 -4,-100 586,-100 586,4 -4,4"/>
<!-- Node42 -->
<g id="node1" class="node">
<title>Node42</title>
<polygon fill="#bfbfbf" stroke="#000000" points="0,-38.5 0,-57.5 125,-57.5 125,-38.5 0,-38.5"/>
<text text-anchor="middle" x="62.5" y="-45.5" font-family="Helvetica,sans-Serif" font-size="10.00" fill="#000000">rearrange_fekete_rule</text>
</g>
<!-- Node43 -->
<g id="node2" class="node">
<title>Node43</title>
<g id="a_node2"><a xlink:href="namespacesll__m__fekete__integration.html#adf467550a7dbaf4287e51119b1a86770" target="_top" xlink:title="Gives the fekete points coordinates and associated weights for a certain rule in a given triangle...">
<polygon fill="#ffffff" stroke="#000000" points="161,-33 161,-63 270,-63 270,-33 161,-33"/>
<text text-anchor="start" x="169" y="-51" font-family="Helvetica,sans-Serif" font-size="10.00" fill="#000000">sll_f_fekete_points</text>
<text text-anchor="middle" x="215.5" y="-40" font-family="Helvetica,sans-Serif" font-size="10.00" fill="#000000">_and_weights</text>
</a>
</g>
</g>
<!-- Node42&#45;&gt;Node43 -->
<g id="edge1" class="edge">
<title>Node42&#45;&gt;Node43</title>
<path fill="none" stroke="#191970" d="M135.4191,-48C143.8661,-48 152.3714,-48 160.5218,-48"/>
<polygon fill="#191970" stroke="#191970" points="135.1724,-44.5001 125.1724,-48 135.1724,-51.5001 135.1724,-44.5001"/>
</g>
<!-- Node44 -->
<g id="node3" class="node">
<title>Node44</title>
<g id="a_node3"><a xlink:href="namespacesll__m__fekete__integration.html#a965046179c23cc4266786eb3e10c3b43" target="_top" xlink:title="Fekete quadrature rule over a triangle. ">
<polygon fill="#ffffff" stroke="#000000" points="306,-76.5 306,-95.5 422,-95.5 422,-76.5 306,-76.5"/>
<text text-anchor="middle" x="364" y="-83.5" font-family="Helvetica,sans-Serif" font-size="10.00" fill="#000000">sll_f_fekete_integral</text>
</a>
</g>
</g>
<!-- Node43&#45;&gt;Node44 -->
<g id="edge2" class="edge">
<title>Node43&#45;&gt;Node44</title>
<path fill="none" stroke="#191970" d="M280.1314,-64.5387C295.9679,-68.5911 312.3982,-72.7955 326.4747,-76.3976"/>
<polygon fill="#191970" stroke="#191970" points="280.9295,-61.1302 270.374,-62.0418 279.1942,-67.9117 280.9295,-61.1302"/>
</g>
<!-- Node45 -->
<g id="node4" class="node">
<title>Node45</title>
<g id="a_node4"><a xlink:href="namespacesll__m__fekete__integration.html#acac4a2483e951c19928f9c4de14738d5" target="_top" xlink:title="Writes fekete points coordinates of a hex&#45;mesh reference triangle. ">
<polygon fill="#ffffff" stroke="#000000" points="314,-38.5 314,-57.5 414,-57.5 414,-38.5 314,-38.5"/>
<text text-anchor="middle" x="364" y="-45.5" font-family="Helvetica,sans-Serif" font-size="10.00" fill="#000000">write_quadrature</text>
</a>
</g>
</g>
<!-- Node43&#45;&gt;Node45 -->
<g id="edge3" class="edge">
<title>Node43&#45;&gt;Node45</title>
<path fill="none" stroke="#191970" d="M280.5044,-48C291.6537,-48 303.0856,-48 313.7732,-48"/>
<polygon fill="#191970" stroke="#191970" points="280.374,-44.5001 270.374,-48 280.374,-51.5001 280.374,-44.5001"/>
</g>
<!-- Node47 -->
<g id="node6" class="node">
<title>Node47</title>
<g id="a_node6"><a xlink:href="namespacesll__m__fekete__integration.html#ac7c05ae36ac69d55d2c022d71e82cae9" target="_top" xlink:title="Writes on a file values of boxsplines on fekete points. ">
<polygon fill="#ffffff" stroke="#000000" points="309,-.5 309,-19.5 419,-19.5 419,-.5 309,-.5"/>
<text text-anchor="middle" x="364" y="-7.5" font-family="Helvetica,sans-Serif" font-size="10.00" fill="#000000">write_basis_values</text>
</a>
</g>
</g>
<!-- Node43&#45;&gt;Node47 -->
<g id="edge5" class="edge">
<title>Node43&#45;&gt;Node47</title>
<path fill="none" stroke="#191970" d="M280.1314,-31.4613C295.9679,-27.4089 312.3982,-23.2045 326.4747,-19.6024"/>
<polygon fill="#191970" stroke="#191970" points="279.1942,-28.0883 270.374,-33.9582 280.9295,-34.8698 279.1942,-28.0883"/>
</g>
<!-- Node46 -->
<g id="node5" class="node">
<title>Node46</title>
<g id="a_node5"><a xlink:href="namespacesll__m__fekete__integration.html#adceb8456a1011a2bb4dcecfd28374463" target="_top" xlink:title="This function is supposed to write all django input files needed for a Django/Jorek simulation...">
<polygon fill="#ffffff" stroke="#000000" points="458,-14 458,-44 582,-44 582,-14 458,-14"/>
<text text-anchor="start" x="466" y="-32" font-family="Helvetica,sans-Serif" font-size="10.00" fill="#000000">sll_s_write_all_django</text>
<text text-anchor="middle" x="520" y="-21" font-family="Helvetica,sans-Serif" font-size="10.00" fill="#000000">_files</text>
</a>
</g>
</g>
<!-- Node45&#45;&gt;Node46 -->
<g id="edge4" class="edge">
<title>Node45&#45;&gt;Node46</title>
<path fill="none" stroke="#191970" d="M424.1837,-40.6699C435.2186,-39.3259 446.7561,-37.9207 457.8474,-36.5699"/>
<polygon fill="#191970" stroke="#191970" points="423.7215,-37.2003 414.2181,-41.8837 424.5679,-44.1489 423.7215,-37.2003"/>
</g>
<!-- Node47&#45;&gt;Node46 -->
<g id="edge6" class="edge">
<title>Node47&#45;&gt;Node46</title>
<path fill="none" stroke="#191970" d="M429.4993,-17.9775C438.8848,-19.1206 448.5183,-20.2939 457.8369,-21.4288"/>
<polygon fill="#191970" stroke="#191970" points="429.7888,-14.487 419.439,-16.7522 428.9425,-21.4356 429.7888,-14.487"/>
</g>
</g>
</svg>
        <g id="navigator" transform="translate(0 0)" fill="#404254">
                <rect fill="#f2f5e9" fill-opacity="0.5" stroke="#606060" stroke-width=".5" x="0" y="0" width="60" height="60"/>
                <use id="zoomplus" xlink:href="#zoomPlus" x="17" y="9" onmousedown="handleZoom(evt,'in')"/>
                <use id="zoomminus" xlink:href="#zoomMin" x="42" y="9" onmousedown="handleZoom(evt,'out')"/>
                <use id="reset" xlink:href="#resetDef" x="30" y="36" onmousedown="handleReset()"/>
                <g id="arrowUp" xlink:href="#dirArrow" transform="translate(30 24)" onmousedown="handlePan(0,-1)">
                  <use xlink:href="#rim" fill="#404040">
                        <set attributeName="fill" to="#808080" begin="arrowUp.mouseover" end="arrowUp.mouseout"/>
                  </use>
                  <path fill="none" stroke="white" stroke-width="1.5" d="M0,-3.0v7 M-2.5,-0.5L0,-3.0L2.5,-0.5"/>
                </g>
                <g id="arrowRight" xlink:href="#dirArrow" transform="rotate(90) translate(36 -43)" onmousedown="handlePan(1,0)">
                  <use xlink:href="#rim" fill="#404040">
                        <set attributeName="fill" to="#808080" begin="arrowRight.mouseover" end="arrowRight.mouseout"/>
                  </use>
                  <path fill="none" stroke="white" stroke-width="1.5" d="M0,-3.0v7 M-2.5,-0.5L0,-3.0L2.5,-0.5"/>
                </g>
                <g id="arrowDown" xlink:href="#dirArrow" transform="rotate(180) translate(-30 -48)" onmousedown="handlePan(0,1)">
                  <use xlink:href="#rim" fill="#404040">
                        <set attributeName="fill" to="#808080" begin="arrowDown.mouseover" end="arrowDown.mouseout"/>
                  </use>
                  <path fill="none" stroke="white" stroke-width="1.5" d="M0,-3.0v7 M-2.5,-0.5L0,-3.0L2.5,-0.5"/>
                </g>
                <g id="arrowLeft" xlink:href="#dirArrow" transform="rotate(270) translate(-36 17)" onmousedown="handlePan(-1,0)">
                  <use xlink:href="#rim" fill="#404040">
                        <set attributeName="fill" to="#808080" begin="arrowLeft.mouseover" end="arrowLeft.mouseout"/>
                  </use>
                  <path fill="none" stroke="white" stroke-width="1.5" d="M0,-3.0v7 M-2.5,-0.5L0,-3.0L2.5,-0.5"/>
                </g>
        </g>
        <svg viewBox="0 0 15 15" width="100%" height="30px" preserveAspectRatio="xMaxYMin meet">
         <g id="arrow_out" transform="scale(0.3 0.3)">
          <a xlink:href="namespacesll__m__fekete__integration_aa74e57776217489a27f8c7ef355a3e14_icgraph_org.svg" target="_base">
           <rect id="button" ry="5" rx="5" y="6" x="6" height="38" width="38"
                fill="#f2f5e9" fill-opacity="0.5" stroke="#606060" stroke-width="1.0"/>
           <path id="arrow"
             d="M 11.500037,31.436501 C 11.940474,20.09759 22.043105,11.32322 32.158766,21.979434 L 37.068811,17.246167 C 37.068811,17.246167 37.088388,32 37.088388,32 L 22.160133,31.978069 C 22.160133,31.978069 26.997745,27.140456 26.997745,27.140456 C 18.528582,18.264221 13.291696,25.230495 11.500037,31.436501 z"
             style="fill:#404040;"/>
          </a>
         </g>
        </svg>
</svg>
