<?xml version="1.0" encoding="UTF-8" standalone="no"?>
<!DOCTYPE svg PUBLIC "-//W3C//DTD SVG 1.1//EN"
 "http://www.w3.org/Graphics/SVG/1.1/DTD/svg11.dtd">
<!-- Generated by graphviz version 2.38.0 (20140413.2041)
 -->
<!-- Title: sll_s_unload_buffer_3d Pages: 1 -->
<svg width="421pt" height="88pt"
 viewBox="0.00 0.00 421.00 88.00" xmlns="http://www.w3.org/2000/svg" xmlns:xlink="http://www.w3.org/1999/xlink">
<g id="graph0" class="graph" transform="scale(1 1) rotate(0) translate(4 84)">
<title>sll_s_unload_buffer_3d</title>
<polygon fill="white" stroke="none" points="-4,4 -4,-84 417,-84 417,4 -4,4"/>
<!-- Node1 -->
<g id="node1" class="node"><title>Node1</title>
<polygon fill="#bfbfbf" stroke="black" points="0,-30 0,-49 116,-49 116,-30 0,-30"/>
<text text-anchor="middle" x="58" y="-37" font-family="Helvetica,sans-Serif" font-size="10.00">sll_s_unload_buffer_3d</text>
</g>
<!-- Node2 -->
<g id="node2" class="node"><title>Node2</title>
<g id="a_node2"><a xlink:href="namespacesll__m__collective.html#af2d3c240d9dfe7e9c7d7f7c9e0529f17" target="_top" xlink:title="Determines the size of the group associated with a communicator. ">
<polygon fill="white" stroke="black" points="152.5,-49.5 152.5,-79.5 265.5,-79.5 265.5,-49.5 152.5,-49.5"/>
<text text-anchor="start" x="160.5" y="-67.5" font-family="Helvetica,sans-Serif" font-size="10.00">sll_m_collective::sll</text>
<text text-anchor="middle" x="209" y="-56.5" font-family="Helvetica,sans-Serif" font-size="10.00">_f_get_collective_size</text>
</a>
</g>
</g>
<!-- Node1&#45;&gt;Node2 -->
<g id="edge1" class="edge"><title>Node1&#45;&gt;Node2</title>
<path fill="none" stroke="midnightblue" d="M115.756,-49.0227C124.48,-50.4865 133.548,-52.0081 142.444,-53.5007"/>
<polygon fill="midnightblue" stroke="midnightblue" points="141.946,-56.9659 152.387,-55.169 143.104,-50.0624 141.946,-56.9659"/>
</g>
<!-- Node4 -->
<g id="node4" class="node"><title>Node4</title>
<g id="a_node4"><a xlink:href="namespacesll__m__collective.html#a396122f49340f0778eb448430d865b4e" target="_top" xlink:title="Determines the rank of the calling process in the communicator. ">
<polygon fill="white" stroke="black" points="152,-0.5 152,-30.5 266,-30.5 266,-0.5 152,-0.5"/>
<text text-anchor="start" x="160" y="-18.5" font-family="Helvetica,sans-Serif" font-size="10.00">sll_m_collective::sll</text>
<text text-anchor="middle" x="209" y="-7.5" font-family="Helvetica,sans-Serif" font-size="10.00">_f_get_collective_rank</text>
</a>
</g>
</g>
<!-- Node1&#45;&gt;Node4 -->
<g id="edge3" class="edge"><title>Node1&#45;&gt;Node4</title>
<path fill="none" stroke="midnightblue" d="M116.181,-30.2896C124.557,-28.9404 133.242,-27.5415 141.781,-26.1662"/>
<polygon fill="midnightblue" stroke="midnightblue" points="142.393,-29.6127 151.709,-24.567 141.28,-22.7018 142.393,-29.6127"/>
</g>
<!-- Node3 -->
<g id="node3" class="node"><title>Node3</title>
<g id="a_node3"><a xlink:href="namespacesll__m__collective.html#a37ea25f42a791be5a710a6cf0d1e1197" target="_top" xlink:title="Checks if the pointer ptr is associated to an object. ">
<polygon fill="white" stroke="black" points="302,-24.5 302,-54.5 413,-54.5 413,-24.5 302,-24.5"/>
<text text-anchor="start" x="310" y="-42.5" font-family="Helvetica,sans-Serif" font-size="10.00">sll_m_collective::sll</text>
<text text-anchor="middle" x="357.5" y="-31.5" font-family="Helvetica,sans-Serif" font-size="10.00">_check_collective_ptr</text>
</a>
</g>
</g>
<!-- Node2&#45;&gt;Node3 -->
<g id="edge2" class="edge"><title>Node2&#45;&gt;Node3</title>
<path fill="none" stroke="midnightblue" d="M265.803,-54.9773C274.289,-53.5292 283.106,-52.0246 291.762,-50.5475"/>
<polygon fill="midnightblue" stroke="midnightblue" points="292.552,-53.9634 301.82,-48.831 291.374,-47.0631 292.552,-53.9634"/>
</g>
<!-- Node4&#45;&gt;Node3 -->
<g id="edge4" class="edge"><title>Node4&#45;&gt;Node3</title>
<path fill="none" stroke="midnightblue" d="M266.222,-24.7104C274.573,-26.0786 283.237,-27.4979 291.747,-28.8919"/>
<polygon fill="midnightblue" stroke="midnightblue" points="291.202,-32.3493 301.636,-30.5121 292.334,-25.4414 291.202,-32.3493"/>
</g>
</g>
</svg>
