<?xml version="1.0" encoding="UTF-8" standalone="no"?>
<!DOCTYPE svg PUBLIC "-//W3C//DTD SVG 1.1//EN"
 "http://www.w3.org/Graphics/SVG/1.1/DTD/svg11.dtd">
<!-- Generated by graphviz version 2.40.1 (20161225.0304)
 -->
<!-- Title: assemble_mass_full Pages: 1 -->
<svg width="494pt" height="39pt"
 viewBox="0.00 0.00 494.00 39.00" xmlns="http://www.w3.org/2000/svg" xmlns:xlink="http://www.w3.org/1999/xlink">
<g id="graph0" class="graph" transform="scale(1 1) rotate(0) translate(4 35)">
<title>assemble_mass_full</title>
<polygon fill="#ffffff" stroke="transparent" points="-4,4 -4,-35 490,-35 490,4 -4,4"/>
<!-- Node19 -->
<g id="node1" class="node">
<title>Node19</title>
<polygon fill="#bfbfbf" stroke="#000000" points="0,-6 0,-25 116,-25 116,-6 0,-6"/>
<text text-anchor="middle" x="58" y="-13" font-family="Helvetica,sans-Serif" font-size="10.00" fill="#000000">assemble_mass_full</text>
</g>
<!-- Node20 -->
<g id="node2" class="node">
<title>Node20</title>
<g id="a_node2"><a xlink:href="namespacesll__m__spline__fem__utilities__sparse.html#af53327cdd86680d4562373cb2642979f" target="_top" xlink:title="Set up 1d mass matrix for specific spline degree and profile function. ">
<polygon fill="#ffffff" stroke="#000000" points="152,-6 152,-25 314,-25 314,-6 152,-6"/>
<text text-anchor="middle" x="233" y="-13" font-family="Helvetica,sans-Serif" font-size="10.00" fill="#000000">sll_s_spline_fem_mass1d_full</text>
</a>
</g>
</g>
<!-- Node19&#45;&gt;Node20 -->
<g id="edge1" class="edge">
<title>Node19&#45;&gt;Node20</title>
<path fill="none" stroke="#191970" d="M126.3547,-15.5C134.7386,-15.5 143.3692,-15.5 151.9176,-15.5"/>
<polygon fill="#191970" stroke="#191970" points="126.2725,-12.0001 116.2725,-15.5 126.2724,-19.0001 126.2725,-12.0001"/>
</g>
<!-- Node21 -->
<g id="node3" class="node">
<title>Node21</title>
<g id="a_node3"><a xlink:href="namespacesll__m__maxwell__1d__trafo.html#a379870fb13734539528b6b4fd558963f" target="_top" xlink:title="Initialization. ">
<polygon fill="#ffffff" stroke="#000000" points="350,-.5 350,-30.5 486,-30.5 486,-.5 350,-.5"/>
<text text-anchor="start" x="358" y="-18.5" font-family="Helvetica,sans-Serif" font-size="10.00" fill="#000000">sll_m_maxwell_1d_trafo</text>
<text text-anchor="middle" x="418" y="-7.5" font-family="Helvetica,sans-Serif" font-size="10.00" fill="#000000">::init_1d_trafo</text>
</a>
</g>
</g>
<!-- Node20&#45;&gt;Node21 -->
<g id="edge2" class="edge">
<title>Node20&#45;&gt;Node21</title>
<path fill="none" stroke="#191970" d="M324.262,-15.5C332.9023,-15.5 341.557,-15.5 349.9245,-15.5"/>
<polygon fill="#191970" stroke="#191970" points="324.1437,-12.0001 314.1437,-15.5 324.1437,-19.0001 324.1437,-12.0001"/>
</g>
</g>
</svg>
