<?xml version="1.0" encoding="UTF-8" standalone="no"?>
<!DOCTYPE svg PUBLIC "-//W3C//DTD SVG 1.1//EN"
 "http://www.w3.org/Graphics/SVG/1.1/DTD/svg11.dtd">
<!-- Generated by graphviz version 2.40.1 (20161225.0304)
 -->
<!-- Title: dehierarchical_part_order_d_dimension Pages: 1 -->
<svg width="419pt" height="78pt"
 viewBox="0.00 0.00 419.00 77.50" xmlns="http://www.w3.org/2000/svg" xmlns:xlink="http://www.w3.org/1999/xlink">
<g id="graph0" class="graph" transform="scale(1 1) rotate(0) translate(4 73.5)">
<title>dehierarchical_part_order_d_dimension</title>
<polygon fill="#ffffff" stroke="transparent" points="-4,4 -4,-73.5 415,-73.5 415,4 -4,4"/>
<!-- Node62 -->
<g id="node1" class="node">
<title>Node62</title>
<polygon fill="#bfbfbf" stroke="#000000" points="0,-17 0,-47 115,-47 115,-17 0,-17"/>
<text text-anchor="start" x="8" y="-35" font-family="Helvetica,sans-Serif" font-size="10.00" fill="#000000">dehierarchical_part</text>
<text text-anchor="middle" x="57.5" y="-24" font-family="Helvetica,sans-Serif" font-size="10.00" fill="#000000">_order_d_dimension</text>
</g>
<!-- Node63 -->
<g id="node2" class="node">
<title>Node63</title>
<g id="a_node2"><a xlink:href="namespacesll__m__sparse__grid__interpolator.html#aec5c5b1deef2658a1414515d8cbd3fe3" target="_top" xlink:title="dehierarchical_part\l_order">
<polygon fill="#ffffff" stroke="#000000" points="160.5,-39 160.5,-69 270.5,-69 270.5,-39 160.5,-39"/>
<text text-anchor="start" x="168.5" y="-57" font-family="Helvetica,sans-Serif" font-size="10.00" fill="#000000">dehierarchical_part</text>
<text text-anchor="middle" x="215.5" y="-46" font-family="Helvetica,sans-Serif" font-size="10.00" fill="#000000">_order</text>
</a>
</g>
</g>
<!-- Node62&#45;&gt;Node63 -->
<g id="edge1" class="edge">
<title>Node62&#45;&gt;Node63</title>
<path fill="none" stroke="#191970" d="M125.5688,-41.4779C137.2235,-43.1007 149.2019,-44.7686 160.4628,-46.3366"/>
<polygon fill="#191970" stroke="#191970" points="125.8234,-37.9797 115.4362,-40.0671 124.8579,-44.9128 125.8234,-37.9797"/>
</g>
<!-- Node65 -->
<g id="node4" class="node">
<title>Node65</title>
<g id="a_node4"><a xlink:href="namespacesll__m__sparse__grid__interpolator.html#a99d2fcb8adf6b18371af930d7898d467" target="_top" xlink:title="hierarchical_part_order">
<polygon fill="#ffffff" stroke="#000000" points="151,-.5 151,-19.5 280,-19.5 280,-.5 151,-.5"/>
<text text-anchor="middle" x="215.5" y="-7.5" font-family="Helvetica,sans-Serif" font-size="10.00" fill="#000000">hierarchical_part_order</text>
</a>
</g>
</g>
<!-- Node62&#45;&gt;Node65 -->
<g id="edge3" class="edge">
<title>Node62&#45;&gt;Node65</title>
<path fill="none" stroke="#191970" d="M125.5772,-22.5209C133.9809,-21.3508 142.5527,-20.1572 150.9024,-18.9946"/>
<polygon fill="#191970" stroke="#191970" points="124.8579,-19.0872 115.4362,-23.9329 125.8234,-26.0203 124.8579,-19.0872"/>
</g>
<!-- Node64 -->
<g id="node3" class="node">
<title>Node64</title>
<g id="a_node3"><a xlink:href="namespacesll__m__sparse__grid__interpolator.html#ada6560fddb123d6ef7b00b5397918de2" target="_top" xlink:title="interpolate_disp">
<polygon fill="#ffffff" stroke="#000000" points="316,-44.5 316,-63.5 411,-63.5 411,-44.5 316,-44.5"/>
<text text-anchor="middle" x="363.5" y="-51.5" font-family="Helvetica,sans-Serif" font-size="10.00" fill="#000000">interpolate_disp</text>
</a>
</g>
</g>
<!-- Node63&#45;&gt;Node64 -->
<g id="edge2" class="edge">
<title>Node63&#45;&gt;Node64</title>
<path fill="none" stroke="#191970" d="M280.8006,-54C292.5178,-54 304.5301,-54 315.6403,-54"/>
<polygon fill="#191970" stroke="#191970" points="280.6098,-50.5001 270.6097,-54 280.6097,-57.5001 280.6098,-50.5001"/>
</g>
</g>
</svg>
