<?xml version="1.0" encoding="UTF-8" standalone="no"?>
<!DOCTYPE svg PUBLIC "-//W3C//DTD SVG 1.1//EN"
 "http://www.w3.org/Graphics/SVG/1.1/DTD/svg11.dtd">
<!-- Generated by graphviz version 2.43.0 (0)
 -->
<!-- Title: push_x_accumulate_j Pages: 1 -->
<svg width="304pt" height="78pt"
 viewBox="0.00 0.00 304.00 77.50" xmlns="http://www.w3.org/2000/svg" xmlns:xlink="http://www.w3.org/1999/xlink">
<g id="graph0" class="graph" transform="scale(1 1) rotate(0) translate(4 73.5)">
<title>push_x_accumulate_j</title>
<polygon fill="white" stroke="transparent" points="-4,4 -4,-73.5 300,-73.5 300,4 -4,4"/>
<!-- Node1 -->
<g id="node1" class="node">
<title>Node1</title>
<g id="a_node1"><a xlink:title="Pusher for x and accumulate current densities.">
<polygon fill="#bfbfbf" stroke="black" points="174,-28 174,-47 296,-47 296,-28 174,-28"/>
<text text-anchor="middle" x="235" y="-35" font-family="Helvetica,sans-Serif" font-size="10.00">push_x_accumulate_j</text>
</a>
</g>
</g>
<!-- Node2 -->
<g id="node2" class="node">
<title>Node2</title>
<g id="a_node2"><a xlink:href="namespacesll__m__time__propagator__pic__vm__1d2v__boris.html#a3cf6fda0130133cfc272f9b90ea21601" target="_top" xlink:title="Second order Boris pusher using staggered grid.">
<polygon fill="white" stroke="black" points="25.5,-50 25.5,-69 112.5,-69 112.5,-50 25.5,-50"/>
<text text-anchor="middle" x="69" y="-57" font-family="Helvetica,sans-Serif" font-size="10.00">operator_boris</text>
</a>
</g>
</g>
<!-- Node1&#45;&gt;Node2 -->
<g id="edge1" class="edge">
<title>Node1&#45;&gt;Node2</title>
<path fill="none" stroke="midnightblue" d="M163.74,-46.92C146.37,-49.25 128.29,-51.68 112.68,-53.77"/>
<polygon fill="midnightblue" stroke="midnightblue" points="164.42,-50.37 173.86,-45.57 163.49,-43.43 164.42,-50.37"/>
</g>
<!-- Node3 -->
<g id="node3" class="node">
<title>Node3</title>
<g id="a_node3"><a xlink:href="namespacesll__m__time__propagator__pic__vm__1d2v__boris.html#aa09695c9126ee8e88807b60dcafb8464" target="_top" xlink:title="Propagate E_0 to E_{1/2} and x_0 to x_{1/2} to initialize the staggering.">
<polygon fill="white" stroke="black" points="0,-0.5 0,-30.5 138,-30.5 138,-0.5 0,-0.5"/>
<text text-anchor="start" x="8" y="-18.5" font-family="Helvetica,sans-Serif" font-size="10.00">staggering_pic_vm_1d2v</text>
<text text-anchor="middle" x="69" y="-7.5" font-family="Helvetica,sans-Serif" font-size="10.00">_boris</text>
</a>
</g>
</g>
<!-- Node1&#45;&gt;Node3 -->
<g id="edge2" class="edge">
<title>Node1&#45;&gt;Node3</title>
<path fill="none" stroke="midnightblue" d="M163.94,-28.1C155.4,-26.96 146.68,-25.79 138.17,-24.64"/>
<polygon fill="midnightblue" stroke="midnightblue" points="163.49,-31.57 173.86,-29.43 164.42,-24.63 163.49,-31.57"/>
</g>
</g>
</svg>
