<?xml version="1.0" encoding="UTF-8" standalone="no"?>
<!DOCTYPE svg PUBLIC "-//W3C//DTD SVG 1.1//EN"
 "http://www.w3.org/Graphics/SVG/1.1/DTD/svg11.dtd">
<!-- Generated by graphviz version 2.38.0 (20140413.2041)
 -->
<!-- Title: sll_f_new_split_advection_2d Pages: 1 -->
<svg width="502pt" height="99pt"
 viewBox="0.00 0.00 502.00 98.50" xmlns="http://www.w3.org/2000/svg" xmlns:xlink="http://www.w3.org/1999/xlink">
<g id="graph0" class="graph" transform="scale(1 1) rotate(0) translate(4 94.5)">
<title>sll_f_new_split_advection_2d</title>
<polygon fill="white" stroke="none" points="-4,4 -4,-94.5 498,-94.5 498,4 -4,4"/>
<!-- Node1 -->
<g id="node1" class="node"><title>Node1</title>
<polygon fill="#bfbfbf" stroke="black" points="0,-33 0,-52 144,-52 144,-33 0,-33"/>
<text text-anchor="middle" x="72" y="-40" font-family="Helvetica,sans-Serif" font-size="10.00">sll_f_new_split_advection_2d</text>
</g>
<!-- Node2 -->
<g id="node2" class="node"><title>Node2</title>
<g id="a_node2"><a xlink:href="namespacesll__m__split__advection__2d.html#a1779def1dcba039e8d5679c8d2baf4b1" target="_top" xlink:title="Initialise advection_2d object. ">
<polygon fill="white" stroke="black" points="180,-33 180,-52 318,-52 318,-33 180,-33"/>
<text text-anchor="middle" x="249" y="-40" font-family="Helvetica,sans-Serif" font-size="10.00">initialize_split_advection_2d</text>
</a>
</g>
</g>
<!-- Node1&#45;&gt;Node2 -->
<g id="edge1" class="edge"><title>Node1&#45;&gt;Node2</title>
<path fill="none" stroke="midnightblue" d="M144.179,-42.5C152.681,-42.5 161.396,-42.5 169.987,-42.5"/>
<polygon fill="midnightblue" stroke="midnightblue" points="169.996,-46.0001 179.996,-42.5 169.996,-39.0001 169.996,-46.0001"/>
</g>
<!-- Node3 -->
<g id="node3" class="node"><title>Node3</title>
<g id="a_node3"><a xlink:href="namespacesll__m__cubic__non__uniform__splines.html#a32c26d5d720eb88a9a3595ea1bcb988c" target="_top" xlink:title="create new spline object ">
<polygon fill="white" stroke="black" points="360,-49 360,-90 488,-90 488,-49 360,-49"/>
<text text-anchor="start" x="368" y="-78" font-family="Helvetica,sans-Serif" font-size="10.00">sll_m_cubic_non_uniform</text>
<text text-anchor="start" x="368" y="-67" font-family="Helvetica,sans-Serif" font-size="10.00">_splines::sll_f_new_cubic</text>
<text text-anchor="middle" x="424" y="-56" font-family="Helvetica,sans-Serif" font-size="10.00">_nonunif_spline_1d</text>
</a>
</g>
</g>
<!-- Node2&#45;&gt;Node3 -->
<g id="edge2" class="edge"><title>Node2&#45;&gt;Node3</title>
<path fill="none" stroke="midnightblue" d="M310.993,-52.0192C323.505,-53.9719 336.799,-56.0467 349.693,-58.059"/>
<polygon fill="midnightblue" stroke="midnightblue" points="349.504,-61.5719 359.924,-59.6558 350.584,-54.6556 349.504,-61.5719"/>
</g>
<!-- Node4 -->
<g id="node4" class="node"><title>Node4</title>
<g id="a_node4"><a xlink:href="namespacesll__m__operator__splitting.html#ad7ac7066d769b435f70a6364f9f98b6f" target="_top" xlink:title="Initialises data for operator splitting. ">
<polygon fill="white" stroke="black" points="354,-0.5 354,-30.5 494,-30.5 494,-0.5 354,-0.5"/>
<text text-anchor="start" x="362" y="-18.5" font-family="Helvetica,sans-Serif" font-size="10.00">sll_m_operator_splitting</text>
<text text-anchor="middle" x="424" y="-7.5" font-family="Helvetica,sans-Serif" font-size="10.00">::sll_s_operator_splitting_init</text>
</a>
</g>
</g>
<!-- Node2&#45;&gt;Node4 -->
<g id="edge3" class="edge"><title>Node2&#45;&gt;Node4</title>
<path fill="none" stroke="midnightblue" d="M310.993,-32.9808C321.57,-31.3302 332.705,-29.5924 343.684,-27.8788"/>
<polygon fill="midnightblue" stroke="midnightblue" points="344.362,-31.3154 353.703,-26.3151 343.283,-24.3991 344.362,-31.3154"/>
</g>
</g>
</svg>
