<?xml version="1.0" encoding="UTF-8" standalone="no"?>
<!DOCTYPE svg PUBLIC "-//W3C//DTD SVG 1.1//EN"
 "http://www.w3.org/Graphics/SVG/1.1/DTD/svg11.dtd">
<!-- Generated by graphviz version 2.43.0 (0)
 -->
<!-- Title: sll_s_compute_curl_part_3d_fem_fft Pages: 1 -->
<svg width="658pt" height="39pt"
 viewBox="0.00 0.00 658.00 39.00" xmlns="http://www.w3.org/2000/svg" xmlns:xlink="http://www.w3.org/1999/xlink">
<g id="graph0" class="graph" transform="scale(1 1) rotate(0) translate(4 35)">
<title>sll_s_compute_curl_part_3d_fem_fft</title>
<polygon fill="white" stroke="transparent" points="-4,4 -4,-35 654,-35 654,4 -4,4"/>
<!-- Node1 -->
<g id="node1" class="node">
<title>Node1</title>
<g id="a_node1"><a xlink:title="Solve curl part of Maxwell&#39;s equations.">
<polygon fill="#bfbfbf" stroke="black" points="0,-0.5 0,-30.5 110,-30.5 110,-0.5 0,-0.5"/>
<text text-anchor="start" x="8" y="-18.5" font-family="Helvetica,sans-Serif" font-size="10.00">sll_s_compute_curl</text>
<text text-anchor="middle" x="55" y="-7.5" font-family="Helvetica,sans-Serif" font-size="10.00">_part_3d_fem_fft</text>
</a>
</g>
</g>
<!-- Node2 -->
<g id="node2" class="node">
<title>Node2</title>
<g id="a_node2"><a xlink:href="namespacesll__m__maxwell__3d__fem__fft.html#a13ab31c6639d576f0086381c07ea33f5" target="_top" xlink:title="Helper function for multiply_mass.">
<polygon fill="white" stroke="black" points="146,-6 146,-25 269,-25 269,-6 146,-6"/>
<text text-anchor="middle" x="207.5" y="-13" font-family="Helvetica,sans-Serif" font-size="10.00">multiply_mass_2form</text>
</a>
</g>
</g>
<!-- Node1&#45;&gt;Node2 -->
<g id="edge1" class="edge">
<title>Node1&#45;&gt;Node2</title>
<path fill="none" stroke="midnightblue" d="M110.33,-15.5C118.62,-15.5 127.28,-15.5 135.86,-15.5"/>
<polygon fill="midnightblue" stroke="midnightblue" points="135.87,-19 145.87,-15.5 135.87,-12 135.87,-19"/>
</g>
<!-- Node3 -->
<g id="node3" class="node">
<title>Node3</title>
<g id="a_node3"><a xlink:href="namespacesll__m__maxwell__3d__fem__fft.html#af661de8498b97c6bb3b0549168a27a7e" target="_top" xlink:title="Multiply by the mass matrix.">
<polygon fill="white" stroke="black" points="305,-6 305,-25 433,-25 433,-6 305,-6"/>
<text text-anchor="middle" x="369" y="-13" font-family="Helvetica,sans-Serif" font-size="10.00">multiply_mass_3dkron</text>
</a>
</g>
</g>
<!-- Node2&#45;&gt;Node3 -->
<g id="edge2" class="edge">
<title>Node2&#45;&gt;Node3</title>
<path fill="none" stroke="midnightblue" d="M269.26,-15.5C277.52,-15.5 286.07,-15.5 294.52,-15.5"/>
<polygon fill="midnightblue" stroke="midnightblue" points="294.76,-19 304.76,-15.5 294.76,-12 294.76,-19"/>
</g>
<!-- Node4 -->
<g id="node4" class="node">
<title>Node4</title>
<g id="a_node4"><a xlink:href="namespacesll__m__spline__fem__utilities.html#a528fc7241e39fd979bd521f0c2d7b350" target="_top" xlink:title="Multiply the vector invec with the spline FEM mass matrix with mass line mass.">
<polygon fill="white" stroke="black" points="469,-0.5 469,-30.5 650,-30.5 650,-0.5 469,-0.5"/>
<text text-anchor="start" x="477" y="-18.5" font-family="Helvetica,sans-Serif" font-size="10.00">sll_m_spline_fem_utilities</text>
<text text-anchor="middle" x="559.5" y="-7.5" font-family="Helvetica,sans-Serif" font-size="10.00">::sll_s_spline_fem_multiply_mass</text>
</a>
</g>
</g>
<!-- Node3&#45;&gt;Node4 -->
<g id="edge3" class="edge">
<title>Node3&#45;&gt;Node4</title>
<path fill="none" stroke="midnightblue" d="M433.03,-15.5C441.26,-15.5 449.85,-15.5 458.5,-15.5"/>
<polygon fill="midnightblue" stroke="midnightblue" points="458.68,-19 468.68,-15.5 458.68,-12 458.68,-19"/>
</g>
</g>
</svg>
