<?xml version="1.0" encoding="UTF-8" standalone="no"?>
<!DOCTYPE svg PUBLIC "-//W3C//DTD SVG 1.1//EN"
 "http://www.w3.org/Graphics/SVG/1.1/DTD/svg11.dtd">
<!-- Generated by graphviz version 2.40.1 (20161225.0304)
 -->
<!-- Title: field_solvers/curl_curl_solvers/sll_m_preconditioner_curl_solver_fft.F90 Pages: 1 -->
<svg width="228pt" height="117pt"
 viewBox="0.00 0.00 228.00 117.00" xmlns="http://www.w3.org/2000/svg" xmlns:xlink="http://www.w3.org/1999/xlink">
<g id="graph0" class="graph" transform="scale(1 1) rotate(0) translate(4 113)">
<title>field_solvers/curl_curl_solvers/sll_m_preconditioner_curl_solver_fft.F90</title>
<polygon fill="#ffffff" stroke="transparent" points="-4,4 -4,-113 224,-113 224,4 -4,4"/>
<!-- Node0 -->
<g id="node1" class="node">
<title>Node0</title>
<polygon fill="#bfbfbf" stroke="#000000" points="66.5,-56.5 66.5,-108.5 182.5,-108.5 182.5,-56.5 66.5,-56.5"/>
<text text-anchor="start" x="74.5" y="-96.5" font-family="Helvetica,sans-Serif" font-size="10.00" fill="#000000">field_solvers/curl</text>
<text text-anchor="start" x="74.5" y="-85.5" font-family="Helvetica,sans-Serif" font-size="10.00" fill="#000000">_curl_solvers/sll_m</text>
<text text-anchor="start" x="74.5" y="-74.5" font-family="Helvetica,sans-Serif" font-size="10.00" fill="#000000">_preconditioner_curl</text>
<text text-anchor="middle" x="124.5" y="-63.5" font-family="Helvetica,sans-Serif" font-size="10.00" fill="#000000">_solver_fft.F90</text>
</g>
<!-- Node1 -->
<g id="node2" class="node">
<title>Node1</title>
<polygon fill="#ffffff" stroke="#bfbfbf" points="0,-.5 0,-19.5 131,-19.5 131,-.5 0,-.5"/>
<text text-anchor="middle" x="65.5" y="-7.5" font-family="Helvetica,sans-Serif" font-size="10.00" fill="#000000">sll_working_precision.h</text>
</g>
<!-- Node0&#45;&gt;Node1 -->
<g id="edge1" class="edge">
<title>Node0&#45;&gt;Node1</title>
<path fill="none" stroke="#191970" d="M103.1996,-56.3258C95.3769,-46.7131 86.7185,-36.0735 79.6742,-27.4174"/>
<polygon fill="#191970" stroke="#191970" points="82.2854,-25.0811 73.2587,-19.534 76.856,-29.4995 82.2854,-25.0811"/>
</g>
<!-- Node2 -->
<g id="node3" class="node">
<title>Node2</title>
<polygon fill="#ffffff" stroke="#bfbfbf" points="149,-.5 149,-19.5 220,-19.5 220,-.5 149,-.5"/>
<text text-anchor="middle" x="184.5" y="-7.5" font-family="Helvetica,sans-Serif" font-size="10.00" fill="#000000">sll_errors.h</text>
</g>
<!-- Node0&#45;&gt;Node2 -->
<g id="edge2" class="edge">
<title>Node0&#45;&gt;Node2</title>
<path fill="none" stroke="#191970" d="M146.1614,-56.3258C154.1167,-46.7131 162.9219,-36.0735 170.0856,-27.4174"/>
<polygon fill="#191970" stroke="#191970" points="172.9305,-29.4695 176.6098,-19.534 167.5377,-25.0065 172.9305,-29.4695"/>
</g>
</g>
</svg>
