<?xml version="1.0" encoding="UTF-8" standalone="no"?>
<!DOCTYPE svg PUBLIC "-//W3C//DTD SVG 1.1//EN"
 "http://www.w3.org/Graphics/SVG/1.1/DTD/svg11.dtd">
<!-- Generated by graphviz version 2.38.0 (20140413.2041)
 -->
<!-- Title: symplectic_rungekutta Pages: 1 -->
<svg width="385pt" height="66pt"
 viewBox="0.00 0.00 385.00 66.00" xmlns="http://www.w3.org/2000/svg" xmlns:xlink="http://www.w3.org/1999/xlink">
<g id="graph0" class="graph" transform="scale(1 1) rotate(0) translate(4 62)">
<title>symplectic_rungekutta</title>
<polygon fill="white" stroke="none" points="-4,4 -4,-62 381,-62 381,4 -4,4"/>
<!-- Node1 -->
<g id="node1" class="node"><title>Node1</title>
<polygon fill="#bfbfbf" stroke="black" points="0,-19.5 0,-38.5 115,-38.5 115,-19.5 0,-19.5"/>
<text text-anchor="middle" x="57.5" y="-26.5" font-family="Helvetica,sans-Serif" font-size="10.00">symplectic_rungekutta</text>
</g>
<!-- Node2 -->
<g id="node2" class="node"><title>Node2</title>
<g id="a_node2"><a xlink:href="sll__pif__general_8_f90.html#a2f3e44eee6a2692d40046b681d18b508" target="_top" xlink:title="update_weight">
<polygon fill="white" stroke="black" points="166,-38.5 166,-57.5 246,-57.5 246,-38.5 166,-38.5"/>
<text text-anchor="middle" x="206" y="-45.5" font-family="Helvetica,sans-Serif" font-size="10.00">update_weight</text>
</a>
</g>
</g>
<!-- Node1&#45;&gt;Node2 -->
<g id="edge1" class="edge"><title>Node1&#45;&gt;Node2</title>
<path fill="none" stroke="midnightblue" d="M115.141,-36.3459C128.483,-38.0763 142.601,-39.9073 155.595,-41.5926"/>
<polygon fill="midnightblue" stroke="midnightblue" points="155.372,-45.0928 165.739,-42.9082 156.272,-38.151 155.372,-45.0928"/>
</g>
<!-- Node4 -->
<g id="node4" class="node"><title>Node4</title>
<g id="a_node4"><a xlink:href="sll__pif__general_8_f90.html#a8fdf9034f92a42f96fabee388603c5b3" target="_top" xlink:title="calculate_diagnostics">
<polygon fill="white" stroke="black" points="151,-0.5 151,-19.5 261,-19.5 261,-0.5 151,-0.5"/>
<text text-anchor="middle" x="206" y="-7.5" font-family="Helvetica,sans-Serif" font-size="10.00">calculate_diagnostics</text>
</a>
</g>
</g>
<!-- Node1&#45;&gt;Node4 -->
<g id="edge3" class="edge"><title>Node1&#45;&gt;Node4</title>
<path fill="none" stroke="midnightblue" d="M115.141,-21.6541C123.59,-20.5583 132.351,-19.4221 140.94,-18.3081"/>
<polygon fill="midnightblue" stroke="midnightblue" points="141.449,-21.7716 150.915,-17.0144 140.548,-14.8297 141.449,-21.7716"/>
</g>
<!-- Node3 -->
<g id="node3" class="node"><title>Node3</title>
<g id="a_node3"><a xlink:href="sll__pif__general_8_f90.html#a941ae850bee4632949945fc4f6ea0c16" target="_top" xlink:title="control_variate">
<polygon fill="white" stroke="black" points="297,-38.5 297,-57.5 377,-57.5 377,-38.5 297,-38.5"/>
<text text-anchor="middle" x="337" y="-45.5" font-family="Helvetica,sans-Serif" font-size="10.00">control_variate</text>
</a>
</g>
</g>
<!-- Node2&#45;&gt;Node3 -->
<g id="edge2" class="edge"><title>Node2&#45;&gt;Node3</title>
<path fill="none" stroke="midnightblue" d="M246.054,-48C258.818,-48 273.166,-48 286.59,-48"/>
<polygon fill="midnightblue" stroke="midnightblue" points="286.633,-51.5001 296.633,-48 286.633,-44.5001 286.633,-51.5001"/>
</g>
</g>
</svg>
