<?xml version="1.0" encoding="UTF-8" standalone="no"?>
<!DOCTYPE svg PUBLIC "-//W3C//DTD SVG 1.1//EN"
 "http://www.w3.org/Graphics/SVG/1.1/DTD/svg11.dtd">
<!-- Generated by graphviz version 2.40.1 (20161225.0304)
 -->
<!-- Title: splines/splines_basic/sll_m_bsplines_uniform.F90 Pages: 1 -->
<svg width="170pt" height="95pt"
 viewBox="0.00 0.00 169.50 95.00" xmlns="http://www.w3.org/2000/svg" xmlns:xlink="http://www.w3.org/1999/xlink">
<g id="graph0" class="graph" transform="scale(1 1) rotate(0) translate(4 91)">
<title>splines/splines_basic/sll_m_bsplines_uniform.F90</title>
<polygon fill="#ffffff" stroke="transparent" points="-4,4 -4,-91 165.5,-91 165.5,4 -4,4"/>
<!-- Node0 -->
<g id="node1" class="node">
<title>Node0</title>
<polygon fill="#bfbfbf" stroke="#000000" points="3.5,-56.5 3.5,-86.5 158.5,-86.5 158.5,-56.5 3.5,-56.5"/>
<text text-anchor="start" x="11.5" y="-74.5" font-family="Helvetica,sans-Serif" font-size="10.00" fill="#000000">splines/splines_basic</text>
<text text-anchor="middle" x="81" y="-63.5" font-family="Helvetica,sans-Serif" font-size="10.00" fill="#000000">/sll_m_bsplines_uniform.F90</text>
</g>
<!-- Node1 -->
<g id="node2" class="node">
<title>Node1</title>
<polygon fill="#ffffff" stroke="#bfbfbf" points="0,-.5 0,-19.5 72,-19.5 72,-.5 0,-.5"/>
<text text-anchor="middle" x="36" y="-7.5" font-family="Helvetica,sans-Serif" font-size="10.00" fill="#000000">sll_assert.h</text>
</g>
<!-- Node0&#45;&gt;Node1 -->
<g id="edge1" class="edge">
<title>Node0&#45;&gt;Node1</title>
<path fill="none" stroke="#191970" d="M69.8764,-56.2977C63.6299,-47.7609 55.796,-37.0545 49.2353,-28.0883"/>
<polygon fill="#191970" stroke="#191970" points="51.9348,-25.8505 43.2051,-19.8469 46.2856,-29.984 51.9348,-25.8505"/>
</g>
<!-- Node2 -->
<g id="node3" class="node">
<title>Node2</title>
<polygon fill="#ffffff" stroke="#bfbfbf" points="90.5,-.5 90.5,-19.5 161.5,-19.5 161.5,-.5 90.5,-.5"/>
<text text-anchor="middle" x="126" y="-7.5" font-family="Helvetica,sans-Serif" font-size="10.00" fill="#000000">sll_errors.h</text>
</g>
<!-- Node0&#45;&gt;Node2 -->
<g id="edge2" class="edge">
<title>Node0&#45;&gt;Node2</title>
<path fill="none" stroke="#191970" d="M92.1236,-56.2977C98.3701,-47.7609 106.204,-37.0545 112.7647,-28.0883"/>
<polygon fill="#191970" stroke="#191970" points="115.7144,-29.984 118.7949,-19.8469 110.0652,-25.8505 115.7144,-29.984"/>
</g>
</g>
</svg>
