<?xml version="1.0" encoding="UTF-8" standalone="no"?>
<!DOCTYPE svg PUBLIC "-//W3C//DTD SVG 1.1//EN"
 "http://www.w3.org/Graphics/SVG/1.1/DTD/svg11.dtd">
<!-- Generated by graphviz version 2.38.0 (20140413.2041)
 -->
<!-- Title: add_ons/multipatch/sll_m_coordinate_transformations_2d_nurbs.F90 Pages: 1 -->
<svg width="305pt" height="106pt"
 viewBox="0.00 0.00 304.50 106.00" xmlns="http://www.w3.org/2000/svg" xmlns:xlink="http://www.w3.org/1999/xlink">
<g id="graph0" class="graph" transform="scale(1 1) rotate(0) translate(4 102)">
<title>add_ons/multipatch/sll_m_coordinate_transformations_2d_nurbs.F90</title>
<polygon fill="white" stroke="none" points="-4,4 -4,-102 300.5,-102 300.5,4 -4,4"/>
<!-- Node1 -->
<g id="node1" class="node"><title>Node1</title>
<polygon fill="#bfbfbf" stroke="black" points="39.5,-56.5 39.5,-97.5 205.5,-97.5 205.5,-56.5 39.5,-56.5"/>
<text text-anchor="start" x="47.5" y="-85.5" font-family="Helvetica,sans-Serif" font-size="10.00">add_ons/multipatch</text>
<text text-anchor="start" x="47.5" y="-74.5" font-family="Helvetica,sans-Serif" font-size="10.00">/sll_m_coordinate_transformations</text>
<text text-anchor="middle" x="122.5" y="-63.5" font-family="Helvetica,sans-Serif" font-size="10.00">_2d_nurbs.F90</text>
</g>
<!-- Node2 -->
<g id="node2" class="node"><title>Node2</title>
<polygon fill="white" stroke="#bfbfbf" points="0,-0.5 0,-19.5 67,-19.5 67,-0.5 0,-0.5"/>
<text text-anchor="middle" x="33.5" y="-7.5" font-family="Helvetica,sans-Serif" font-size="10.00">sll_assert.h</text>
</g>
<!-- Node1&#45;&gt;Node2 -->
<g id="edge1" class="edge"><title>Node1&#45;&gt;Node2</title>
<path fill="none" stroke="midnightblue" d="M95.7971,-56.4979C82.2829,-46.628 66.1469,-34.8432 53.6835,-25.7407"/>
<polygon fill="midnightblue" stroke="midnightblue" points="55.4871,-22.724 45.3473,-19.6525 51.3586,-28.3769 55.4871,-22.724"/>
</g>
<!-- Node3 -->
<g id="node3" class="node"><title>Node3</title>
<polygon fill="white" stroke="#bfbfbf" points="85,-0.5 85,-19.5 160,-19.5 160,-0.5 85,-0.5"/>
<text text-anchor="middle" x="122.5" y="-7.5" font-family="Helvetica,sans-Serif" font-size="10.00">sll_memory.h</text>
</g>
<!-- Node1&#45;&gt;Node3 -->
<g id="edge2" class="edge"><title>Node1&#45;&gt;Node3</title>
<path fill="none" stroke="midnightblue" d="M122.5,-56.4979C122.5,-48.0653 122.5,-38.2351 122.5,-29.874"/>
<polygon fill="midnightblue" stroke="midnightblue" points="126,-29.6525 122.5,-19.6525 119,-29.6525 126,-29.6525"/>
</g>
<!-- Node4 -->
<g id="node4" class="node"><title>Node4</title>
<polygon fill="white" stroke="#bfbfbf" points="178.5,-0.5 178.5,-19.5 296.5,-19.5 296.5,-0.5 178.5,-0.5"/>
<text text-anchor="middle" x="237.5" y="-7.5" font-family="Helvetica,sans-Serif" font-size="10.00">sll_working_precision.h</text>
</g>
<!-- Node1&#45;&gt;Node4 -->
<g id="edge3" class="edge"><title>Node1&#45;&gt;Node4</title>
<path fill="none" stroke="midnightblue" d="M157.004,-56.4979C175.144,-46.2447 196.94,-33.925 213.275,-24.6927"/>
<polygon fill="midnightblue" stroke="midnightblue" points="215.208,-27.6201 222.192,-19.6525 211.764,-21.5261 215.208,-27.6201"/>
</g>
</g>
</svg>
