<?xml version="1.0" encoding="UTF-8" standalone="no"?>
<!DOCTYPE svg PUBLIC "-//W3C//DTD SVG 1.1//EN"
 "http://www.w3.org/Graphics/SVG/1.1/DTD/svg11.dtd">
<!-- Generated by graphviz version 2.43.0 (0)
 -->
<!-- Title: splines/splines_basic/sll_m_spline_matrix_periodic_banded.F90 Pages: 1 -->
<svg width="170pt" height="106pt"
 viewBox="0.00 0.00 169.50 106.00" xmlns="http://www.w3.org/2000/svg" xmlns:xlink="http://www.w3.org/1999/xlink">
<g id="graph0" class="graph" transform="scale(1 1) rotate(0) translate(4 102)">
<title>splines/splines_basic/sll_m_spline_matrix_periodic_banded.F90</title>
<polygon fill="white" stroke="transparent" points="-4,4 -4,-102 165.5,-102 165.5,4 -4,4"/>
<!-- Node1 -->
<g id="node1" class="node">
<title>Node1</title>
<g id="a_node1"><a xlink:title=" ">
<polygon fill="#bfbfbf" stroke="black" points="19.5,-56.5 19.5,-97.5 142.5,-97.5 142.5,-56.5 19.5,-56.5"/>
<text text-anchor="start" x="27.5" y="-85.5" font-family="Helvetica,sans-Serif" font-size="10.00">splines/splines_basic</text>
<text text-anchor="start" x="27.5" y="-74.5" font-family="Helvetica,sans-Serif" font-size="10.00">/sll_m_spline_matrix</text>
<text text-anchor="middle" x="81" y="-63.5" font-family="Helvetica,sans-Serif" font-size="10.00">_periodic_banded.F90</text>
</a>
</g>
</g>
<!-- Node2 -->
<g id="node2" class="node">
<title>Node2</title>
<g id="a_node2"><a xlink:title=" ">
<polygon fill="white" stroke="#bfbfbf" points="0,-0.5 0,-19.5 72,-19.5 72,-0.5 0,-0.5"/>
<text text-anchor="middle" x="36" y="-7.5" font-family="Helvetica,sans-Serif" font-size="10.00">sll_assert.h</text>
</a>
</g>
</g>
<!-- Node1&#45;&gt;Node2 -->
<g id="edge1" class="edge">
<title>Node1&#45;&gt;Node2</title>
<path fill="none" stroke="midnightblue" d="M67.5,-56.5C61.2,-47.39 53.77,-36.66 47.71,-27.91"/>
<polygon fill="midnightblue" stroke="midnightblue" points="50.56,-25.88 41.99,-19.65 44.8,-29.87 50.56,-25.88"/>
</g>
<!-- Node3 -->
<g id="node3" class="node">
<title>Node3</title>
<g id="a_node3"><a xlink:title=" ">
<polygon fill="white" stroke="#bfbfbf" points="90.5,-0.5 90.5,-19.5 161.5,-19.5 161.5,-0.5 90.5,-0.5"/>
<text text-anchor="middle" x="126" y="-7.5" font-family="Helvetica,sans-Serif" font-size="10.00">sll_errors.h</text>
</a>
</g>
</g>
<!-- Node1&#45;&gt;Node3 -->
<g id="edge2" class="edge">
<title>Node1&#45;&gt;Node3</title>
<path fill="none" stroke="midnightblue" d="M94.5,-56.5C100.8,-47.39 108.23,-36.66 114.29,-27.91"/>
<polygon fill="midnightblue" stroke="midnightblue" points="117.2,-29.87 120.01,-19.65 111.44,-25.88 117.2,-29.87"/>
</g>
</g>
</svg>
