<?xml version="1.0" encoding="UTF-8" standalone="no"?>
<!DOCTYPE svg PUBLIC "-//W3C//DTD SVG 1.1//EN"
 "http://www.w3.org/Graphics/SVG/1.1/DTD/svg11.dtd">
<!-- Generated by graphviz version 2.40.1 (20161225.0304)
 -->
<!-- Title: interpolation/interpolators/sll_m_interpolators_1d_base.F90 Pages: 1 -->
<svg width="152pt" height="106pt"
 viewBox="0.00 0.00 152.00 106.00" xmlns="http://www.w3.org/2000/svg" xmlns:xlink="http://www.w3.org/1999/xlink">
<g id="graph0" class="graph" transform="scale(1 1) rotate(0) translate(4 102)">
<title>interpolation/interpolators/sll_m_interpolators_1d_base.F90</title>
<polygon fill="#ffffff" stroke="transparent" points="-4,4 -4,-102 148,-102 148,4 -4,4"/>
<!-- Node0 -->
<g id="node1" class="node">
<title>Node0</title>
<polygon fill="#bfbfbf" stroke="#000000" points="0,-56.5 0,-97.5 144,-97.5 144,-56.5 0,-56.5"/>
<text text-anchor="start" x="8" y="-85.5" font-family="Helvetica,sans-Serif" font-size="10.00" fill="#000000">interpolation/interpolators</text>
<text text-anchor="start" x="8" y="-74.5" font-family="Helvetica,sans-Serif" font-size="10.00" fill="#000000">/sll_m_interpolators_1d</text>
<text text-anchor="middle" x="72" y="-63.5" font-family="Helvetica,sans-Serif" font-size="10.00" fill="#000000">_base.F90</text>
</g>
<!-- Node1 -->
<g id="node2" class="node">
<title>Node1</title>
<polygon fill="#ffffff" stroke="#bfbfbf" points="6.5,-.5 6.5,-19.5 137.5,-19.5 137.5,-.5 6.5,-.5"/>
<text text-anchor="middle" x="72" y="-7.5" font-family="Helvetica,sans-Serif" font-size="10.00" fill="#000000">sll_working_precision.h</text>
</g>
<!-- Node0&#45;&gt;Node1 -->
<g id="edge1" class="edge">
<title>Node0&#45;&gt;Node1</title>
<path fill="none" stroke="#191970" d="M72,-56.168C72,-47.8226 72,-38.2471 72,-29.9879"/>
<polygon fill="#191970" stroke="#191970" points="75.5001,-29.7804 72,-19.7805 68.5001,-29.7805 75.5001,-29.7804"/>
</g>
</g>
</svg>
