<?xml version="1.0" encoding="UTF-8" standalone="no"?>
<!DOCTYPE svg PUBLIC "-//W3C//DTD SVG 1.1//EN"
 "http://www.w3.org/Graphics/SVG/1.1/DTD/svg11.dtd">
<!-- Generated by graphviz version 2.40.1 (20161225.0304)
 -->
<!-- Title: field_solvers/maxwell_solvers/sll_m_maxwell_diga_hex_mesh.F90 Pages: 1 -->
<svg width="240pt" height="106pt"
 viewBox="0.00 0.00 239.50 106.00" xmlns="http://www.w3.org/2000/svg" xmlns:xlink="http://www.w3.org/1999/xlink">
<g id="graph0" class="graph" transform="scale(1 1) rotate(0) translate(4 102)">
<title>field_solvers/maxwell_solvers/sll_m_maxwell_diga_hex_mesh.F90</title>
<polygon fill="#ffffff" stroke="transparent" points="-4,4 -4,-102 235.5,-102 235.5,4 -4,4"/>
<!-- Node0 -->
<g id="node1" class="node">
<title>Node0</title>
<polygon fill="#bfbfbf" stroke="#000000" points="60.5,-56.5 60.5,-97.5 194.5,-97.5 194.5,-56.5 60.5,-56.5"/>
<text text-anchor="start" x="68.5" y="-85.5" font-family="Helvetica,sans-Serif" font-size="10.00" fill="#000000">field_solvers/maxwell</text>
<text text-anchor="start" x="68.5" y="-74.5" font-family="Helvetica,sans-Serif" font-size="10.00" fill="#000000">_solvers/sll_m_maxwell</text>
<text text-anchor="middle" x="127.5" y="-63.5" font-family="Helvetica,sans-Serif" font-size="10.00" fill="#000000">_diga_hex_mesh.F90</text>
</g>
<!-- Node1 -->
<g id="node2" class="node">
<title>Node1</title>
<polygon fill="#ffffff" stroke="#bfbfbf" points="0,-.5 0,-19.5 131,-19.5 131,-.5 0,-.5"/>
<text text-anchor="middle" x="65.5" y="-7.5" font-family="Helvetica,sans-Serif" font-size="10.00" fill="#000000">sll_working_precision.h</text>
</g>
<!-- Node0&#45;&gt;Node1 -->
<g id="edge1" class="edge">
<title>Node0&#45;&gt;Node1</title>
<path fill="none" stroke="#191970" d="M108.2227,-56.168C99.6224,-46.8742 89.6105,-36.0549 81.4414,-27.227"/>
<polygon fill="#191970" stroke="#191970" points="83.9114,-24.743 74.5506,-19.7805 78.7736,-29.4973 83.9114,-24.743"/>
</g>
<!-- Node2 -->
<g id="node3" class="node">
<title>Node2</title>
<polygon fill="#ffffff" stroke="#bfbfbf" points="149.5,-.5 149.5,-19.5 231.5,-19.5 231.5,-.5 149.5,-.5"/>
<text text-anchor="middle" x="190.5" y="-7.5" font-family="Helvetica,sans-Serif" font-size="10.00" fill="#000000">sll_memory.h</text>
</g>
<!-- Node0&#45;&gt;Node2 -->
<g id="edge2" class="edge">
<title>Node0&#45;&gt;Node2</title>
<path fill="none" stroke="#191970" d="M147.0883,-56.168C155.8272,-46.8742 166.0006,-36.0549 174.3015,-27.227"/>
<polygon fill="#191970" stroke="#191970" points="177.003,-29.4633 181.3034,-19.7805 171.9033,-24.6681 177.003,-29.4633"/>
</g>
</g>
</svg>
