<?xml version="1.0" encoding="UTF-8" standalone="no"?>
<!DOCTYPE svg PUBLIC "-//W3C//DTD SVG 1.1//EN"
 "http://www.w3.org/Graphics/SVG/1.1/DTD/svg11.dtd">
<!-- Generated by graphviz version 2.38.0 (20140413.2041)
 -->
<!-- Title: field_solvers/maxwell_solvers/sll_m_maxwell_diga_hex_mesh.F90 Pages: 1 -->
<svg width="220pt" height="106pt"
 viewBox="0.00 0.00 219.50 106.00" xmlns="http://www.w3.org/2000/svg" xmlns:xlink="http://www.w3.org/1999/xlink">
<g id="graph0" class="graph" transform="scale(1 1) rotate(0) translate(4 102)">
<title>field_solvers/maxwell_solvers/sll_m_maxwell_diga_hex_mesh.F90</title>
<polygon fill="white" stroke="none" points="-4,4 -4,-102 215.5,-102 215.5,4 -4,4"/>
<!-- Node1 -->
<g id="node1" class="node"><title>Node1</title>
<polygon fill="#bfbfbf" stroke="black" points="55.5,-56.5 55.5,-97.5 176.5,-97.5 176.5,-56.5 55.5,-56.5"/>
<text text-anchor="start" x="63.5" y="-85.5" font-family="Helvetica,sans-Serif" font-size="10.00">field_solvers/maxwell</text>
<text text-anchor="start" x="63.5" y="-74.5" font-family="Helvetica,sans-Serif" font-size="10.00">_solvers/sll_m_maxwell</text>
<text text-anchor="middle" x="116" y="-63.5" font-family="Helvetica,sans-Serif" font-size="10.00">_diga_hex_mesh.F90</text>
</g>
<!-- Node2 -->
<g id="node2" class="node"><title>Node2</title>
<polygon fill="white" stroke="#bfbfbf" points="0,-0.5 0,-19.5 118,-19.5 118,-0.5 0,-0.5"/>
<text text-anchor="middle" x="59" y="-7.5" font-family="Helvetica,sans-Serif" font-size="10.00">sll_working_precision.h</text>
</g>
<!-- Node1&#45;&gt;Node2 -->
<g id="edge1" class="edge"><title>Node1&#45;&gt;Node2</title>
<path fill="none" stroke="midnightblue" d="M98.8981,-56.4979C90.7472,-47.2029 81.107,-36.2097 73.3446,-27.3579"/>
<polygon fill="midnightblue" stroke="midnightblue" points="75.8124,-24.8635 66.5876,-19.6525 70.5493,-29.4788 75.8124,-24.8635"/>
</g>
<!-- Node3 -->
<g id="node3" class="node"><title>Node3</title>
<polygon fill="white" stroke="#bfbfbf" points="136.5,-0.5 136.5,-19.5 211.5,-19.5 211.5,-0.5 136.5,-0.5"/>
<text text-anchor="middle" x="174" y="-7.5" font-family="Helvetica,sans-Serif" font-size="10.00">sll_memory.h</text>
</g>
<!-- Node1&#45;&gt;Node3 -->
<g id="edge2" class="edge"><title>Node1&#45;&gt;Node3</title>
<path fill="none" stroke="midnightblue" d="M133.402,-56.4979C141.696,-47.2029 151.505,-36.2097 159.404,-27.3579"/>
<polygon fill="midnightblue" stroke="midnightblue" points="162.233,-29.4442 166.279,-19.6525 157.01,-24.7837 162.233,-29.4442"/>
</g>
</g>
</svg>
