<?xml version="1.0" encoding="UTF-8" standalone="no"?>
<!DOCTYPE svg PUBLIC "-//W3C//DTD SVG 1.1//EN"
 "http://www.w3.org/Graphics/SVG/1.1/DTD/svg11.dtd">
<!-- Generated by graphviz version 2.40.1 (20161225.0304)
 -->
<!-- Title: low_level_utilities/utilities/sll_m_utilities.F90 Pages: 1 -->
<svg width="228pt" height="95pt"
 viewBox="0.00 0.00 228.00 95.00" xmlns="http://www.w3.org/2000/svg" xmlns:xlink="http://www.w3.org/1999/xlink">
<g id="graph0" class="graph" transform="scale(1 1) rotate(0) translate(4 91)">
<title>low_level_utilities/utilities/sll_m_utilities.F90</title>
<polygon fill="#ffffff" stroke="transparent" points="-4,4 -4,-91 224,-91 224,4 -4,4"/>
<!-- Node0 -->
<g id="node1" class="node">
<title>Node0</title>
<polygon fill="#bfbfbf" stroke="#000000" points="20.5,-56.5 20.5,-86.5 168.5,-86.5 168.5,-56.5 20.5,-56.5"/>
<text text-anchor="start" x="28.5" y="-74.5" font-family="Helvetica,sans-Serif" font-size="10.00" fill="#000000">low_level_utilities</text>
<text text-anchor="middle" x="94.5" y="-63.5" font-family="Helvetica,sans-Serif" font-size="10.00" fill="#000000">/utilities/sll_m_utilities.F90</text>
</g>
<!-- Node1 -->
<g id="node2" class="node">
<title>Node1</title>
<polygon fill="#ffffff" stroke="#bfbfbf" points="0,-.5 0,-19.5 71,-19.5 71,-.5 0,-.5"/>
<text text-anchor="middle" x="35.5" y="-7.5" font-family="Helvetica,sans-Serif" font-size="10.00" fill="#000000">sll_errors.h</text>
</g>
<!-- Node0&#45;&gt;Node1 -->
<g id="edge1" class="edge">
<title>Node0&#45;&gt;Node1</title>
<path fill="none" stroke="#191970" d="M79.9157,-56.2977C71.47,-47.4941 60.8108,-36.3833 52.0516,-27.2529"/>
<polygon fill="#191970" stroke="#191970" points="54.3952,-24.6402 44.9466,-19.8469 49.3439,-29.4862 54.3952,-24.6402"/>
</g>
<!-- Node2 -->
<g id="node3" class="node">
<title>Node2</title>
<polygon fill="#ffffff" stroke="#bfbfbf" points="89,-.5 89,-19.5 220,-19.5 220,-.5 89,-.5"/>
<text text-anchor="middle" x="154.5" y="-7.5" font-family="Helvetica,sans-Serif" font-size="10.00" fill="#000000">sll_working_precision.h</text>
</g>
<!-- Node0&#45;&gt;Node2 -->
<g id="edge2" class="edge">
<title>Node0&#45;&gt;Node2</title>
<path fill="none" stroke="#191970" d="M109.3315,-56.2977C117.9204,-47.4941 128.7602,-36.3833 137.6679,-27.2529"/>
<polygon fill="#191970" stroke="#191970" points="140.4152,-29.4489 144.8932,-19.8469 135.4047,-24.5606 140.4152,-29.4489"/>
</g>
</g>
</svg>
