<?xml version="1.0" encoding="UTF-8" standalone="no"?>
<!DOCTYPE svg PUBLIC "-//W3C//DTD SVG 1.1//EN"
 "http://www.w3.org/Graphics/SVG/1.1/DTD/svg11.dtd">
<!-- Generated by graphviz version 2.38.0 (20140413.2041)
 -->
<!-- Title: field_solvers/poisson_solvers/sll_m_poisson_2d_polar.F90 Pages: 1 -->
<svg width="295pt" height="106pt"
 viewBox="0.00 0.00 294.50 106.00" xmlns="http://www.w3.org/2000/svg" xmlns:xlink="http://www.w3.org/1999/xlink">
<g id="graph0" class="graph" transform="scale(1 1) rotate(0) translate(4 102)">
<title>field_solvers/poisson_solvers/sll_m_poisson_2d_polar.F90</title>
<polygon fill="white" stroke="none" points="-4,4 -4,-102 290.5,-102 290.5,4 -4,4"/>
<!-- Node1 -->
<g id="node1" class="node"><title>Node1</title>
<polygon fill="#bfbfbf" stroke="black" points="58,-56.5 58,-97.5 177,-97.5 177,-56.5 58,-56.5"/>
<text text-anchor="start" x="66" y="-85.5" font-family="Helvetica,sans-Serif" font-size="10.00">field_solvers/poisson</text>
<text text-anchor="start" x="66" y="-74.5" font-family="Helvetica,sans-Serif" font-size="10.00">_solvers/sll_m_poisson</text>
<text text-anchor="middle" x="117.5" y="-63.5" font-family="Helvetica,sans-Serif" font-size="10.00">_2d_polar.F90</text>
</g>
<!-- Node2 -->
<g id="node2" class="node"><title>Node2</title>
<polygon fill="white" stroke="#bfbfbf" points="0,-0.5 0,-19.5 67,-19.5 67,-0.5 0,-0.5"/>
<text text-anchor="middle" x="33.5" y="-7.5" font-family="Helvetica,sans-Serif" font-size="10.00">sll_assert.h</text>
</g>
<!-- Node1&#45;&gt;Node2 -->
<g id="edge1" class="edge"><title>Node1&#45;&gt;Node2</title>
<path fill="none" stroke="midnightblue" d="M92.2972,-56.4979C79.6661,-46.7238 64.6083,-35.0719 52.8932,-26.0066"/>
<polygon fill="midnightblue" stroke="midnightblue" points="54.7324,-23.0043 44.6817,-19.6525 50.4485,-28.5404 54.7324,-23.0043"/>
</g>
<!-- Node3 -->
<g id="node3" class="node"><title>Node3</title>
<polygon fill="white" stroke="#bfbfbf" points="85,-0.5 85,-19.5 150,-19.5 150,-0.5 85,-0.5"/>
<text text-anchor="middle" x="117.5" y="-7.5" font-family="Helvetica,sans-Serif" font-size="10.00">sll_errors.h</text>
</g>
<!-- Node1&#45;&gt;Node3 -->
<g id="edge2" class="edge"><title>Node1&#45;&gt;Node3</title>
<path fill="none" stroke="midnightblue" d="M117.5,-56.4979C117.5,-48.0653 117.5,-38.2351 117.5,-29.874"/>
<polygon fill="midnightblue" stroke="midnightblue" points="121,-29.6525 117.5,-19.6525 114,-29.6525 121,-29.6525"/>
</g>
<!-- Node4 -->
<g id="node4" class="node"><title>Node4</title>
<polygon fill="white" stroke="#bfbfbf" points="168.5,-0.5 168.5,-19.5 286.5,-19.5 286.5,-0.5 168.5,-0.5"/>
<text text-anchor="middle" x="227.5" y="-7.5" font-family="Helvetica,sans-Serif" font-size="10.00">sll_working_precision.h</text>
</g>
<!-- Node1&#45;&gt;Node4 -->
<g id="edge3" class="edge"><title>Node1&#45;&gt;Node4</title>
<path fill="none" stroke="midnightblue" d="M150.504,-56.4979C167.693,-46.3405 188.314,-34.1551 203.888,-24.9523"/>
<polygon fill="midnightblue" stroke="midnightblue" points="206.029,-27.7531 212.857,-19.6525 202.467,-21.7266 206.029,-27.7531"/>
</g>
</g>
</svg>
