<?xml version="1.0" encoding="UTF-8" standalone="no"?>
<!DOCTYPE svg PUBLIC "-//W3C//DTD SVG 1.1//EN"
 "http://www.w3.org/Graphics/SVG/1.1/DTD/svg11.dtd">
<!-- Generated by graphviz version 2.43.0 (0)
 -->
<!-- Title: field_solvers/poisson_solvers/sll_m_poisson_2d_periodic.F90 Pages: 1 -->
<svg width="330pt" height="106pt"
 viewBox="0.00 0.00 330.00 106.00" xmlns="http://www.w3.org/2000/svg" xmlns:xlink="http://www.w3.org/1999/xlink">
<g id="graph0" class="graph" transform="scale(1 1) rotate(0) translate(4 102)">
<title>field_solvers/poisson_solvers/sll_m_poisson_2d_periodic.F90</title>
<polygon fill="white" stroke="transparent" points="-4,4 -4,-102 326,-102 326,4 -4,4"/>
<!-- Node1 -->
<g id="node1" class="node">
<title>Node1</title>
<g id="a_node1"><a xlink:title=" ">
<polygon fill="#bfbfbf" stroke="black" points="101.5,-56.5 101.5,-97.5 230.5,-97.5 230.5,-56.5 101.5,-56.5"/>
<text text-anchor="start" x="109.5" y="-85.5" font-family="Helvetica,sans-Serif" font-size="10.00">field_solvers/poisson</text>
<text text-anchor="start" x="109.5" y="-74.5" font-family="Helvetica,sans-Serif" font-size="10.00">_solvers/sll_m_poisson</text>
<text text-anchor="middle" x="166" y="-63.5" font-family="Helvetica,sans-Serif" font-size="10.00">_2d_periodic.F90</text>
</a>
</g>
</g>
<!-- Node2 -->
<g id="node2" class="node">
<title>Node2</title>
<g id="a_node2"><a xlink:title=" ">
<polygon fill="white" stroke="#bfbfbf" points="0,-0.5 0,-19.5 82,-19.5 82,-0.5 0,-0.5"/>
<text text-anchor="middle" x="41" y="-7.5" font-family="Helvetica,sans-Serif" font-size="10.00">sll_memory.h</text>
</a>
</g>
</g>
<!-- Node1&#45;&gt;Node2 -->
<g id="edge1" class="edge">
<title>Node1&#45;&gt;Node2</title>
<path fill="none" stroke="midnightblue" d="M128.5,-56.5C108.59,-46.15 84.64,-33.69 66.84,-24.43"/>
<polygon fill="midnightblue" stroke="midnightblue" points="68.13,-21.16 57.64,-19.65 64.9,-27.37 68.13,-21.16"/>
</g>
<!-- Node3 -->
<g id="node3" class="node">
<title>Node3</title>
<g id="a_node3"><a xlink:title=" ">
<polygon fill="white" stroke="#bfbfbf" points="100.5,-0.5 100.5,-19.5 231.5,-19.5 231.5,-0.5 100.5,-0.5"/>
<text text-anchor="middle" x="166" y="-7.5" font-family="Helvetica,sans-Serif" font-size="10.00">sll_working_precision.h</text>
</a>
</g>
</g>
<!-- Node1&#45;&gt;Node3 -->
<g id="edge2" class="edge">
<title>Node1&#45;&gt;Node3</title>
<path fill="none" stroke="midnightblue" d="M166,-56.5C166,-48.07 166,-38.24 166,-29.87"/>
<polygon fill="midnightblue" stroke="midnightblue" points="169.5,-29.65 166,-19.65 162.5,-29.65 169.5,-29.65"/>
</g>
<!-- Node4 -->
<g id="node4" class="node">
<title>Node4</title>
<g id="a_node4"><a xlink:title=" ">
<polygon fill="white" stroke="#bfbfbf" points="250,-0.5 250,-19.5 322,-19.5 322,-0.5 250,-0.5"/>
<text text-anchor="middle" x="286" y="-7.5" font-family="Helvetica,sans-Serif" font-size="10.00">sll_assert.h</text>
</a>
</g>
</g>
<!-- Node1&#45;&gt;Node4 -->
<g id="edge3" class="edge">
<title>Node1&#45;&gt;Node4</title>
<path fill="none" stroke="midnightblue" d="M202,-56.5C221.11,-46.15 244.1,-33.69 261.2,-24.43"/>
<polygon fill="midnightblue" stroke="midnightblue" points="262.9,-27.49 270.03,-19.65 259.57,-21.34 262.9,-27.49"/>
</g>
</g>
</svg>
