<?xml version="1.0" encoding="UTF-8" standalone="no"?>
<!DOCTYPE svg PUBLIC "-//W3C//DTD SVG 1.1//EN"
 "http://www.w3.org/Graphics/SVG/1.1/DTD/svg11.dtd">
<!-- Generated by graphviz version 2.40.1 (20161225.0304)
 -->
<!-- Title: particle_methods/pif/sll_pif_general.F90 Pages: 1 -->
<svg width="330pt" height="95pt"
 viewBox="0.00 0.00 329.50 95.00" xmlns="http://www.w3.org/2000/svg" xmlns:xlink="http://www.w3.org/1999/xlink">
<g id="graph0" class="graph" transform="scale(1 1) rotate(0) translate(4 91)">
<title>particle_methods/pif/sll_pif_general.F90</title>
<polygon fill="#ffffff" stroke="transparent" points="-4,4 -4,-91 325.5,-91 325.5,4 -4,4"/>
<!-- Node0 -->
<g id="node1" class="node">
<title>Node0</title>
<polygon fill="#bfbfbf" stroke="#000000" points="132,-56.5 132,-86.5 249,-86.5 249,-56.5 132,-56.5"/>
<text text-anchor="start" x="140" y="-74.5" font-family="Helvetica,sans-Serif" font-size="10.00" fill="#000000">particle_methods/pif</text>
<text text-anchor="middle" x="190.5" y="-63.5" font-family="Helvetica,sans-Serif" font-size="10.00" fill="#000000">/sll_pif_general.F90</text>
</g>
<!-- Node1 -->
<g id="node2" class="node">
<title>Node1</title>
<polygon fill="#ffffff" stroke="#bfbfbf" points="0,-.5 0,-19.5 131,-19.5 131,-.5 0,-.5"/>
<text text-anchor="middle" x="65.5" y="-7.5" font-family="Helvetica,sans-Serif" font-size="10.00" fill="#000000">sll_working_precision.h</text>
</g>
<!-- Node0&#45;&gt;Node1 -->
<g id="edge1" class="edge">
<title>Node0&#45;&gt;Node1</title>
<path fill="none" stroke="#191970" d="M159.9216,-56.4554C139.7968,-46.554 113.6361,-33.683 93.9562,-24.0004"/>
<polygon fill="#191970" stroke="#191970" points="95.3885,-20.8045 84.8706,-19.5303 92.2982,-27.0855 95.3885,-20.8045"/>
</g>
<!-- Node2 -->
<g id="node3" class="node">
<title>Node2</title>
<polygon fill="#ffffff" stroke="#bfbfbf" points="149.5,-.5 149.5,-19.5 231.5,-19.5 231.5,-.5 149.5,-.5"/>
<text text-anchor="middle" x="190.5" y="-7.5" font-family="Helvetica,sans-Serif" font-size="10.00" fill="#000000">sll_memory.h</text>
</g>
<!-- Node0&#45;&gt;Node2 -->
<g id="edge2" class="edge">
<title>Node0&#45;&gt;Node2</title>
<path fill="none" stroke="#191970" d="M190.5,-56.2977C190.5,-48.3834 190.5,-38.6043 190.5,-30.0759"/>
<polygon fill="#191970" stroke="#191970" points="194.0001,-29.8469 190.5,-19.8469 187.0001,-29.847 194.0001,-29.8469"/>
</g>
<!-- Node3 -->
<g id="node4" class="node">
<title>Node3</title>
<polygon fill="#ffffff" stroke="#bfbfbf" points="249.5,-.5 249.5,-19.5 321.5,-19.5 321.5,-.5 249.5,-.5"/>
<text text-anchor="middle" x="285.5" y="-7.5" font-family="Helvetica,sans-Serif" font-size="10.00" fill="#000000">sll_assert.h</text>
</g>
<!-- Node0&#45;&gt;Node3 -->
<g id="edge3" class="edge">
<title>Node0&#45;&gt;Node3</title>
<path fill="none" stroke="#191970" d="M213.9832,-56.2977C228.6348,-46.8127 247.4236,-34.6495 262.0659,-25.1705"/>
<polygon fill="#191970" stroke="#191970" points="264.0805,-28.0357 270.573,-19.6633 260.2764,-22.1596 264.0805,-28.0357"/>
</g>
</g>
</svg>
