<?xml version="1.0" encoding="UTF-8" standalone="no"?>
<!DOCTYPE svg PUBLIC "-//W3C//DTD SVG 1.1//EN"
 "http://www.w3.org/Graphics/SVG/1.1/DTD/svg11.dtd">
<!-- Generated by graphviz version 2.40.1 (20161225.0304)
 -->
<!-- Title: time_integration/splitting_methods/sll_m_time_composition.F90 Pages: 1 -->
<svg width="240pt" height="95pt"
 viewBox="0.00 0.00 240.00 95.00" xmlns="http://www.w3.org/2000/svg" xmlns:xlink="http://www.w3.org/1999/xlink">
<g id="graph0" class="graph" transform="scale(1 1) rotate(0) translate(4 91)">
<title>time_integration/splitting_methods/sll_m_time_composition.F90</title>
<polygon fill="#ffffff" stroke="transparent" points="-4,4 -4,-91 236,-91 236,4 -4,4"/>
<!-- Node0 -->
<g id="node1" class="node">
<title>Node0</title>
<polygon fill="#bfbfbf" stroke="#000000" points="0,-56.5 0,-86.5 207,-86.5 207,-56.5 0,-56.5"/>
<text text-anchor="start" x="8" y="-74.5" font-family="Helvetica,sans-Serif" font-size="10.00" fill="#000000">time_integration/splitting</text>
<text text-anchor="middle" x="103.5" y="-63.5" font-family="Helvetica,sans-Serif" font-size="10.00" fill="#000000">_methods/sll_m_time_composition.F90</text>
</g>
<!-- Node1 -->
<g id="node2" class="node">
<title>Node1</title>
<polygon fill="#ffffff" stroke="#bfbfbf" points=".5,-.5 .5,-19.5 82.5,-19.5 82.5,-.5 .5,-.5"/>
<text text-anchor="middle" x="41.5" y="-7.5" font-family="Helvetica,sans-Serif" font-size="10.00" fill="#000000">sll_memory.h</text>
</g>
<!-- Node0&#45;&gt;Node1 -->
<g id="edge1" class="edge">
<title>Node0&#45;&gt;Node1</title>
<path fill="none" stroke="#191970" d="M88.1742,-56.2977C79.2093,-47.4052 67.8712,-36.1586 58.6149,-26.9769"/>
<polygon fill="#191970" stroke="#191970" points="60.9915,-24.4045 51.427,-19.8469 56.0618,-29.3742 60.9915,-24.4045"/>
</g>
<!-- Node2 -->
<g id="node3" class="node">
<title>Node2</title>
<polygon fill="#ffffff" stroke="#bfbfbf" points="101,-.5 101,-19.5 232,-19.5 232,-.5 101,-.5"/>
<text text-anchor="middle" x="166.5" y="-7.5" font-family="Helvetica,sans-Serif" font-size="10.00" fill="#000000">sll_working_precision.h</text>
</g>
<!-- Node0&#45;&gt;Node2 -->
<g id="edge2" class="edge">
<title>Node0&#45;&gt;Node2</title>
<path fill="none" stroke="#191970" d="M119.073,-56.2977C128.1825,-47.4052 139.7034,-36.1586 149.1091,-26.9769"/>
<polygon fill="#191970" stroke="#191970" points="151.702,-29.3368 156.4129,-19.8469 146.8122,-24.3278 151.702,-29.3368"/>
</g>
</g>
</svg>
