<?xml version="1.0" encoding="UTF-8" standalone="no"?>
<!DOCTYPE svg PUBLIC "-//W3C//DTD SVG 1.1//EN"
 "http://www.w3.org/Graphics/SVG/1.1/DTD/svg11.dtd">
<!-- Generated by graphviz version 2.43.0 (0)
 -->
<!-- Title: particle_methods/pic_basic/pic_time_integration/sll_m_time_propagator_pic_vm_3d3v_disgradE.F90 Pages: 1 -->
<svg width="330pt" height="117pt"
 viewBox="0.00 0.00 329.50 117.00" xmlns="http://www.w3.org/2000/svg" xmlns:xlink="http://www.w3.org/1999/xlink">
<g id="graph0" class="graph" transform="scale(1 1) rotate(0) translate(4 113)">
<title>particle_methods/pic_basic/pic_time_integration/sll_m_time_propagator_pic_vm_3d3v_disgradE.F90</title>
<polygon fill="white" stroke="transparent" points="-4,4 -4,-113 325.5,-113 325.5,4 -4,4"/>
<!-- Node1 -->
<g id="node1" class="node">
<title>Node1</title>
<g id="a_node1"><a xlink:title=" ">
<polygon fill="#bfbfbf" stroke="black" points="55,-56.5 55,-108.5 207,-108.5 207,-56.5 55,-56.5"/>
<text text-anchor="start" x="63" y="-96.5" font-family="Helvetica,sans-Serif" font-size="10.00">particle_methods/pic</text>
<text text-anchor="start" x="63" y="-85.5" font-family="Helvetica,sans-Serif" font-size="10.00">_basic/pic_time_integration</text>
<text text-anchor="start" x="63" y="-74.5" font-family="Helvetica,sans-Serif" font-size="10.00">/sll_m_time_propagator_pic</text>
<text text-anchor="middle" x="131" y="-63.5" font-family="Helvetica,sans-Serif" font-size="10.00">_vm_3d3v_disgradE.F90</text>
</a>
</g>
</g>
<!-- Node2 -->
<g id="node2" class="node">
<title>Node2</title>
<g id="a_node2"><a xlink:title=" ">
<polygon fill="white" stroke="#bfbfbf" points="0,-0.5 0,-19.5 72,-19.5 72,-0.5 0,-0.5"/>
<text text-anchor="middle" x="36" y="-7.5" font-family="Helvetica,sans-Serif" font-size="10.00">sll_assert.h</text>
</a>
</g>
</g>
<!-- Node1&#45;&gt;Node2 -->
<g id="edge1" class="edge">
<title>Node1&#45;&gt;Node2</title>
<path fill="none" stroke="midnightblue" d="M97.24,-56.45C83.47,-46.23 68.01,-34.76 56.08,-25.9"/>
<polygon fill="midnightblue" stroke="midnightblue" points="57.83,-22.84 47.72,-19.7 53.66,-28.47 57.83,-22.84"/>
</g>
<!-- Node3 -->
<g id="node3" class="node">
<title>Node3</title>
<g id="a_node3"><a xlink:title=" ">
<polygon fill="white" stroke="#bfbfbf" points="90,-0.5 90,-19.5 172,-19.5 172,-0.5 90,-0.5"/>
<text text-anchor="middle" x="131" y="-7.5" font-family="Helvetica,sans-Serif" font-size="10.00">sll_memory.h</text>
</a>
</g>
</g>
<!-- Node1&#45;&gt;Node3 -->
<g id="edge2" class="edge">
<title>Node1&#45;&gt;Node3</title>
<path fill="none" stroke="midnightblue" d="M131,-56.45C131,-47.73 131,-38.1 131,-29.96"/>
<polygon fill="midnightblue" stroke="midnightblue" points="134.5,-29.7 131,-19.7 127.5,-29.7 134.5,-29.7"/>
</g>
<!-- Node4 -->
<g id="node4" class="node">
<title>Node4</title>
<g id="a_node4"><a xlink:title=" ">
<polygon fill="white" stroke="#bfbfbf" points="190.5,-0.5 190.5,-19.5 321.5,-19.5 321.5,-0.5 190.5,-0.5"/>
<text text-anchor="middle" x="256" y="-7.5" font-family="Helvetica,sans-Serif" font-size="10.00">sll_working_precision.h</text>
</a>
</g>
</g>
<!-- Node1&#45;&gt;Node4 -->
<g id="edge3" class="edge">
<title>Node1&#45;&gt;Node4</title>
<path fill="none" stroke="midnightblue" d="M175.42,-56.45C194.55,-45.66 216.14,-33.48 232.16,-24.45"/>
<polygon fill="midnightblue" stroke="midnightblue" points="233.89,-27.49 240.88,-19.53 230.45,-21.39 233.89,-27.49"/>
</g>
</g>
</svg>
