<?xml version="1.0" encoding="UTF-8" standalone="no"?>
<!DOCTYPE svg PUBLIC "-//W3C//DTD SVG 1.1//EN"
 "http://www.w3.org/Graphics/SVG/1.1/DTD/svg11.dtd">
<!-- Generated by graphviz version 2.38.0 (20140413.2041)
 -->
<!-- Title: io/file_io/sll_m_hdf5_io_serial.F90 Pages: 1 -->
<svg width="704pt" height="106pt"
 viewBox="0.00 0.00 703.50 106.00" xmlns="http://www.w3.org/2000/svg" xmlns:xlink="http://www.w3.org/1999/xlink">
<g id="graph0" class="graph" transform="scale(1 1) rotate(0) translate(4 102)">
<title>io/file_io/sll_m_hdf5_io_serial.F90</title>
<polygon fill="white" stroke="none" points="-4,4 -4,-102 699.5,-102 699.5,4 -4,4"/>
<!-- Node1 -->
<g id="node1" class="node"><title>Node1</title>
<polygon fill="#bfbfbf" stroke="black" points="284,-67.5 284,-97.5 387,-97.5 387,-67.5 284,-67.5"/>
<text text-anchor="start" x="292" y="-85.5" font-family="Helvetica,sans-Serif" font-size="10.00">io/file_io/sll_m_hdf5</text>
<text text-anchor="middle" x="335.5" y="-74.5" font-family="Helvetica,sans-Serif" font-size="10.00">_io_serial.F90</text>
</g>
<!-- Node2 -->
<g id="node2" class="node"><title>Node2</title>
<polygon fill="white" stroke="#bfbfbf" points="0,-6 0,-25 67,-25 67,-6 0,-6"/>
<text text-anchor="middle" x="33.5" y="-13" font-family="Helvetica,sans-Serif" font-size="10.00">sll_assert.h</text>
</g>
<!-- Node1&#45;&gt;Node2 -->
<g id="edge1" class="edge"><title>Node1&#45;&gt;Node2</title>
<path fill="none" stroke="midnightblue" d="M283.936,-73.5191C231.336,-64.8949 147.578,-49.8245 76.5,-31 73.3014,-30.1529 69.9949,-29.1934 66.7021,-28.1813"/>
<polygon fill="midnightblue" stroke="midnightblue" points="67.5775,-24.7861 56.9859,-25.0466 65.4282,-31.448 67.5775,-24.7861"/>
</g>
<!-- Node3 -->
<g id="node3" class="node"><title>Node3</title>
<polygon fill="white" stroke="#bfbfbf" points="85.5,-6 85.5,-25 203.5,-25 203.5,-6 85.5,-6"/>
<text text-anchor="middle" x="144.5" y="-13" font-family="Helvetica,sans-Serif" font-size="10.00">sll_working_precision.h</text>
</g>
<!-- Node1&#45;&gt;Node3 -->
<g id="edge2" class="edge"><title>Node1&#45;&gt;Node3</title>
<path fill="none" stroke="midnightblue" d="M294.056,-67.396C259.653,-55.6882 211.295,-39.2314 178.979,-28.2336"/>
<polygon fill="midnightblue" stroke="midnightblue" points="180.092,-24.9154 169.497,-25.007 177.837,-31.5422 180.092,-24.9154"/>
</g>
<!-- Node4 -->
<g id="node4" class="node"><title>Node4</title>
<g id="a_node4"><a xlink:href="sll__k__hdf5__ser__write__array_8_f90.html" target="_top" xlink:title="sll_k_hdf5_ser_write\l_array.F90">
<polygon fill="white" stroke="black" points="221.5,-0.5 221.5,-30.5 327.5,-30.5 327.5,-0.5 221.5,-0.5"/>
<text text-anchor="start" x="229.5" y="-18.5" font-family="Helvetica,sans-Serif" font-size="10.00">sll_k_hdf5_ser_write</text>
<text text-anchor="middle" x="274.5" y="-7.5" font-family="Helvetica,sans-Serif" font-size="10.00">_array.F90</text>
</a>
</g>
</g>
<!-- Node1&#45;&gt;Node4 -->
<g id="edge3" class="edge"><title>Node1&#45;&gt;Node4</title>
<path fill="none" stroke="midnightblue" d="M322.264,-67.396C314.19,-58.7931 303.711,-47.626 294.625,-37.9448"/>
<polygon fill="midnightblue" stroke="midnightblue" points="297.106,-35.4733 287.71,-30.5765 292.001,-40.2635 297.106,-35.4733"/>
</g>
<!-- Node5 -->
<g id="node5" class="node"><title>Node5</title>
<g id="a_node5"><a xlink:href="sll__k__hdf5__ser__read__array_8_f90.html" target="_top" xlink:title="sll_k_hdf5_ser_read\l_array.F90">
<polygon fill="white" stroke="black" points="345.5,-0.5 345.5,-30.5 449.5,-30.5 449.5,-0.5 345.5,-0.5"/>
<text text-anchor="start" x="353.5" y="-18.5" font-family="Helvetica,sans-Serif" font-size="10.00">sll_k_hdf5_ser_read</text>
<text text-anchor="middle" x="397.5" y="-7.5" font-family="Helvetica,sans-Serif" font-size="10.00">_array.F90</text>
</a>
</g>
</g>
<!-- Node1&#45;&gt;Node5 -->
<g id="edge4" class="edge"><title>Node1&#45;&gt;Node5</title>
<path fill="none" stroke="midnightblue" d="M348.953,-67.396C357.159,-58.7931 367.811,-47.626 377.045,-37.9448"/>
<polygon fill="midnightblue" stroke="midnightblue" points="379.704,-40.2284 384.073,-30.5765 374.638,-35.3969 379.704,-40.2284"/>
</g>
<!-- Node6 -->
<g id="node6" class="node"><title>Node6</title>
<g id="a_node6"><a xlink:href="sll__k__hdf5__ser__write__attribute_8_f90.html" target="_top" xlink:title="sll_k_hdf5_ser_write\l_attribute.F90">
<polygon fill="white" stroke="black" points="467.5,-0.5 467.5,-30.5 573.5,-30.5 573.5,-0.5 467.5,-0.5"/>
<text text-anchor="start" x="475.5" y="-18.5" font-family="Helvetica,sans-Serif" font-size="10.00">sll_k_hdf5_ser_write</text>
<text text-anchor="middle" x="520.5" y="-7.5" font-family="Helvetica,sans-Serif" font-size="10.00">_attribute.F90</text>
</a>
</g>
</g>
<!-- Node1&#45;&gt;Node6 -->
<g id="edge5" class="edge"><title>Node1&#45;&gt;Node6</title>
<path fill="none" stroke="midnightblue" d="M375.642,-67.396C403.521,-57.6006 440.862,-44.4809 470.649,-34.0153"/>
<polygon fill="midnightblue" stroke="midnightblue" points="472.162,-37.1935 480.436,-30.5765 469.841,-30.5893 472.162,-37.1935"/>
</g>
<!-- Node7 -->
<g id="node7" class="node"><title>Node7</title>
<g id="a_node7"><a xlink:href="sll__k__hdf5__ser__read__attribute_8_f90.html" target="_top" xlink:title="sll_k_hdf5_ser_read\l_attribute.F90">
<polygon fill="white" stroke="black" points="591.5,-0.5 591.5,-30.5 695.5,-30.5 695.5,-0.5 591.5,-0.5"/>
<text text-anchor="start" x="599.5" y="-18.5" font-family="Helvetica,sans-Serif" font-size="10.00">sll_k_hdf5_ser_read</text>
<text text-anchor="middle" x="643.5" y="-7.5" font-family="Helvetica,sans-Serif" font-size="10.00">_attribute.F90</text>
</a>
</g>
</g>
<!-- Node1&#45;&gt;Node7 -->
<g id="edge6" class="edge"><title>Node1&#45;&gt;Node7</title>
<path fill="none" stroke="midnightblue" d="M387.166,-71.432C435.058,-61.9875 508.538,-47.2146 581.465,-31.1927"/>
<polygon fill="midnightblue" stroke="midnightblue" points="582.27,-34.5993 591.282,-29.0275 580.762,-27.7636 582.27,-34.5993"/>
</g>
</g>
</svg>
