<?xml version="1.0" encoding="UTF-8" standalone="no"?>
<!DOCTYPE svg PUBLIC "-//W3C//DTD SVG 1.1//EN"
 "http://www.w3.org/Graphics/SVG/1.1/DTD/svg11.dtd">
<!-- Generated by graphviz version 2.43.0 (0)
 -->
<!-- Title: mesh/meshes/sll_m_cartesian_meshes.F90 Pages: 1 -->
<svg width="419pt" height="95pt"
 viewBox="0.00 0.00 418.50 95.00" xmlns="http://www.w3.org/2000/svg" xmlns:xlink="http://www.w3.org/1999/xlink">
<g id="graph0" class="graph" transform="scale(1 1) rotate(0) translate(4 91)">
<title>mesh/meshes/sll_m_cartesian_meshes.F90</title>
<polygon fill="white" stroke="transparent" points="-4,4 -4,-91 414.5,-91 414.5,4 -4,4"/>
<!-- Node1 -->
<g id="node1" class="node">
<title>Node1</title>
<g id="a_node1"><a xlink:title=" ">
<polygon fill="#bfbfbf" stroke="black" points="111,-56.5 111,-86.5 275,-86.5 275,-56.5 111,-56.5"/>
<text text-anchor="start" x="119" y="-74.5" font-family="Helvetica,sans-Serif" font-size="10.00">mesh/meshes/sll_m_cartesian</text>
<text text-anchor="middle" x="193" y="-63.5" font-family="Helvetica,sans-Serif" font-size="10.00">_meshes.F90</text>
</a>
</g>
</g>
<!-- Node2 -->
<g id="node2" class="node">
<title>Node2</title>
<g id="a_node2"><a xlink:title=" ">
<polygon fill="white" stroke="#bfbfbf" points="0,-0.5 0,-19.5 72,-19.5 72,-0.5 0,-0.5"/>
<text text-anchor="middle" x="36" y="-7.5" font-family="Helvetica,sans-Serif" font-size="10.00">sll_assert.h</text>
</a>
</g>
</g>
<!-- Node1&#45;&gt;Node2 -->
<g id="edge1" class="edge">
<title>Node1&#45;&gt;Node2</title>
<path fill="none" stroke="midnightblue" d="M155.79,-56.4C129.22,-46.33 93.81,-32.91 68.39,-23.28"/>
<polygon fill="midnightblue" stroke="midnightblue" points="69.44,-19.93 58.84,-19.66 66.96,-26.47 69.44,-19.93"/>
</g>
<!-- Node3 -->
<g id="node3" class="node">
<title>Node3</title>
<g id="a_node3"><a xlink:title=" ">
<polygon fill="white" stroke="#bfbfbf" points="90,-0.5 90,-19.5 172,-19.5 172,-0.5 90,-0.5"/>
<text text-anchor="middle" x="131" y="-7.5" font-family="Helvetica,sans-Serif" font-size="10.00">sll_memory.h</text>
</a>
</g>
</g>
<!-- Node1&#45;&gt;Node3 -->
<g id="edge2" class="edge">
<title>Node1&#45;&gt;Node3</title>
<path fill="none" stroke="midnightblue" d="M178.31,-56.4C169.02,-47.49 157,-35.95 147.4,-26.74"/>
<polygon fill="midnightblue" stroke="midnightblue" points="149.66,-24.06 140.02,-19.66 144.81,-29.11 149.66,-24.06"/>
</g>
<!-- Node4 -->
<g id="node4" class="node">
<title>Node4</title>
<g id="a_node4"><a xlink:title=" ">
<polygon fill="white" stroke="#bfbfbf" points="190.5,-0.5 190.5,-19.5 321.5,-19.5 321.5,-0.5 190.5,-0.5"/>
<text text-anchor="middle" x="256" y="-7.5" font-family="Helvetica,sans-Serif" font-size="10.00">sll_working_precision.h</text>
</a>
</g>
</g>
<!-- Node1&#45;&gt;Node4 -->
<g id="edge3" class="edge">
<title>Node1&#45;&gt;Node4</title>
<path fill="none" stroke="midnightblue" d="M207.93,-56.4C217.37,-47.49 229.58,-35.95 239.33,-26.74"/>
<polygon fill="midnightblue" stroke="midnightblue" points="241.97,-29.07 246.83,-19.66 237.16,-23.98 241.97,-29.07"/>
</g>
<!-- Node5 -->
<g id="node5" class="node">
<title>Node5</title>
<g id="a_node5"><a xlink:title=" ">
<polygon fill="white" stroke="#bfbfbf" points="339.5,-0.5 339.5,-19.5 410.5,-19.5 410.5,-0.5 339.5,-0.5"/>
<text text-anchor="middle" x="375" y="-7.5" font-family="Helvetica,sans-Serif" font-size="10.00">sll_errors.h</text>
</a>
</g>
</g>
<!-- Node1&#45;&gt;Node5 -->
<g id="edge4" class="edge">
<title>Node1&#45;&gt;Node5</title>
<path fill="none" stroke="midnightblue" d="M236.13,-56.4C267.58,-46.12 309.69,-32.35 339.27,-22.68"/>
<polygon fill="midnightblue" stroke="midnightblue" points="340.37,-26.01 348.78,-19.57 338.19,-19.35 340.37,-26.01"/>
</g>
</g>
</svg>
