<?xml version="1.0" encoding="UTF-8" standalone="no"?>
<!DOCTYPE svg PUBLIC "-//W3C//DTD SVG 1.1//EN"
 "http://www.w3.org/Graphics/SVG/1.1/DTD/svg11.dtd">
<!-- Generated by graphviz version 2.40.1 (20161225.0304)
 -->
<!-- Title: add_ons/sparse_grid/sll_m_sparse_grid_interpolator.F90 Pages: 1 -->
<svg width="318pt" height="95pt"
 viewBox="0.00 0.00 318.00 95.00" xmlns="http://www.w3.org/2000/svg" xmlns:xlink="http://www.w3.org/1999/xlink">
<g id="graph0" class="graph" transform="scale(1 1) rotate(0) translate(4 91)">
<title>add_ons/sparse_grid/sll_m_sparse_grid_interpolator.F90</title>
<polygon fill="#ffffff" stroke="transparent" points="-4,4 -4,-91 314,-91 314,4 -4,4"/>
<!-- Node0 -->
<g id="node1" class="node">
<title>Node0</title>
<polygon fill="#bfbfbf" stroke="#000000" points="71.5,-56.5 71.5,-86.5 260.5,-86.5 260.5,-56.5 71.5,-56.5"/>
<text text-anchor="start" x="79.5" y="-74.5" font-family="Helvetica,sans-Serif" font-size="10.00" fill="#000000">add_ons/sparse_grid</text>
<text text-anchor="middle" x="166" y="-63.5" font-family="Helvetica,sans-Serif" font-size="10.00" fill="#000000">/sll_m_sparse_grid_interpolator.F90</text>
</g>
<!-- Node1 -->
<g id="node2" class="node">
<title>Node1</title>
<polygon fill="#ffffff" stroke="#bfbfbf" points="0,-.5 0,-19.5 82,-19.5 82,-.5 0,-.5"/>
<text text-anchor="middle" x="41" y="-7.5" font-family="Helvetica,sans-Serif" font-size="10.00" fill="#000000">sll_memory.h</text>
</g>
<!-- Node0&#45;&gt;Node1 -->
<g id="edge1" class="edge">
<title>Node0&#45;&gt;Node1</title>
<path fill="none" stroke="#191970" d="M135.4216,-56.4554C115.2968,-46.554 89.1361,-33.683 69.4562,-24.0004"/>
<polygon fill="#191970" stroke="#191970" points="70.8885,-20.8045 60.3706,-19.5303 67.7982,-27.0855 70.8885,-20.8045"/>
</g>
<!-- Node2 -->
<g id="node3" class="node">
<title>Node2</title>
<polygon fill="#ffffff" stroke="#bfbfbf" points="100.5,-.5 100.5,-19.5 231.5,-19.5 231.5,-.5 100.5,-.5"/>
<text text-anchor="middle" x="166" y="-7.5" font-family="Helvetica,sans-Serif" font-size="10.00" fill="#000000">sll_working_precision.h</text>
</g>
<!-- Node0&#45;&gt;Node2 -->
<g id="edge2" class="edge">
<title>Node0&#45;&gt;Node2</title>
<path fill="none" stroke="#191970" d="M166,-56.2977C166,-48.3834 166,-38.6043 166,-30.0759"/>
<polygon fill="#191970" stroke="#191970" points="169.5001,-29.8469 166,-19.8469 162.5001,-29.847 169.5001,-29.8469"/>
</g>
<!-- Node3 -->
<g id="node4" class="node">
<title>Node3</title>
<polygon fill="#ffffff" stroke="#bfbfbf" points="250,-.5 250,-19.5 310,-19.5 310,-.5 250,-.5"/>
<text text-anchor="middle" x="280" y="-7.5" font-family="Helvetica,sans-Serif" font-size="10.00" fill="#000000">sll_fftw.h</text>
</g>
<!-- Node0&#45;&gt;Node3 -->
<g id="edge3" class="edge">
<title>Node0&#45;&gt;Node3</title>
<path fill="none" stroke="#191970" d="M193.8875,-56.4554C211.9076,-46.734 235.2341,-34.15 253.0632,-24.5317"/>
<polygon fill="#191970" stroke="#191970" points="255.1948,-27.3586 262.334,-19.5303 251.8713,-21.1979 255.1948,-27.3586"/>
</g>
</g>
</svg>
