<?xml version="1.0" encoding="UTF-8" standalone="no"?>
<!DOCTYPE svg PUBLIC "-//W3C//DTD SVG 1.1//EN"
 "http://www.w3.org/Graphics/SVG/1.1/DTD/svg11.dtd">
<!-- Generated by graphviz version 2.40.1 (20161225.0304)
 -->
<!-- Title: particle_methods/pic_basic/particle_mesh_coupling/sll_m_particle_mesh_coupling_base_3d.F90 Pages: 1 -->
<svg width="169pt" height="117pt"
 viewBox="0.00 0.00 169.00 117.00" xmlns="http://www.w3.org/2000/svg" xmlns:xlink="http://www.w3.org/1999/xlink">
<g id="graph0" class="graph" transform="scale(1 1) rotate(0) translate(4 113)">
<title>particle_methods/pic_basic/particle_mesh_coupling/sll_m_particle_mesh_coupling_base_3d.F90</title>
<polygon fill="#ffffff" stroke="transparent" points="-4,4 -4,-113 165,-113 165,4 -4,4"/>
<!-- Node0 -->
<g id="node1" class="node">
<title>Node0</title>
<polygon fill="#bfbfbf" stroke="#000000" points="0,-56.5 0,-108.5 161,-108.5 161,-56.5 0,-56.5"/>
<text text-anchor="start" x="8" y="-96.5" font-family="Helvetica,sans-Serif" font-size="10.00" fill="#000000">particle_methods/pic</text>
<text text-anchor="start" x="8" y="-85.5" font-family="Helvetica,sans-Serif" font-size="10.00" fill="#000000">_basic/particle_mesh</text>
<text text-anchor="start" x="8" y="-74.5" font-family="Helvetica,sans-Serif" font-size="10.00" fill="#000000">_coupling/sll_m_particle</text>
<text text-anchor="middle" x="80.5" y="-63.5" font-family="Helvetica,sans-Serif" font-size="10.00" fill="#000000">_mesh_coupling_base_3d.F90</text>
</g>
<!-- Node1 -->
<g id="node2" class="node">
<title>Node1</title>
<polygon fill="#ffffff" stroke="#bfbfbf" points="15,-.5 15,-19.5 146,-19.5 146,-.5 15,-.5"/>
<text text-anchor="middle" x="80.5" y="-7.5" font-family="Helvetica,sans-Serif" font-size="10.00" fill="#000000">sll_working_precision.h</text>
</g>
<!-- Node0&#45;&gt;Node1 -->
<g id="edge1" class="edge">
<title>Node0&#45;&gt;Node1</title>
<path fill="none" stroke="#191970" d="M80.5,-56.3258C80.5,-47.5142 80.5,-37.8397 80.5,-29.621"/>
<polygon fill="#191970" stroke="#191970" points="84.0001,-29.534 80.5,-19.534 77.0001,-29.534 84.0001,-29.534"/>
</g>
</g>
</svg>
