<?xml version="1.0" encoding="UTF-8" standalone="no"?>
<!DOCTYPE svg PUBLIC "-//W3C//DTD SVG 1.1//EN"
 "http://www.w3.org/Graphics/SVG/1.1/DTD/svg11.dtd">
<!-- Generated by graphviz version 2.38.0 (20140413.2041)
 -->
<!-- Title: calculate_diagnostics Pages: 1 -->
<svg width="384pt" height="28pt"
 viewBox="0.00 0.00 384.00 28.00" xmlns="http://www.w3.org/2000/svg" xmlns:xlink="http://www.w3.org/1999/xlink">
<g id="graph0" class="graph" transform="scale(1 1) rotate(0) translate(4 24)">
<title>calculate_diagnostics</title>
<polygon fill="white" stroke="none" points="-4,4 -4,-24 380,-24 380,4 -4,4"/>
<!-- Node1 -->
<g id="node1" class="node"><title>Node1</title>
<polygon fill="#bfbfbf" stroke="black" points="0,-0.5 0,-19.5 110,-19.5 110,-0.5 0,-0.5"/>
<text text-anchor="middle" x="55" y="-7.5" font-family="Helvetica,sans-Serif" font-size="10.00">calculate_diagnostics</text>
</g>
<!-- Node2 -->
<g id="node2" class="node"><title>Node2</title>
<g id="a_node2"><a xlink:href="sll__pif__general_8_f90.html#aa49ff733438912b6660be1b8e95eefbb" target="_top" xlink:title="symplectic_rungekutta">
<polygon fill="white" stroke="black" points="146,-0.5 146,-19.5 261,-19.5 261,-0.5 146,-0.5"/>
<text text-anchor="middle" x="203.5" y="-7.5" font-family="Helvetica,sans-Serif" font-size="10.00">symplectic_rungekutta</text>
</a>
</g>
</g>
<!-- Node1&#45;&gt;Node2 -->
<g id="edge1" class="edge"><title>Node1&#45;&gt;Node2</title>
<path fill="none" stroke="midnightblue" d="M120.313,-10C128.747,-10 137.342,-10 145.641,-10"/>
<polygon fill="midnightblue" stroke="midnightblue" points="120.135,-6.5001 110.135,-10 120.135,-13.5001 120.135,-6.5001"/>
</g>
<!-- Node3 -->
<g id="node3" class="node"><title>Node3</title>
<g id="a_node3"><a xlink:href="sll__pif__general_8_f90.html#a5644387f046c7037e67670471428e232" target="_top" xlink:title="sll_pif_general">
<polygon fill="white" stroke="black" points="297,-0.5 297,-19.5 376,-19.5 376,-0.5 297,-0.5"/>
<text text-anchor="middle" x="336.5" y="-7.5" font-family="Helvetica,sans-Serif" font-size="10.00">sll_pif_general</text>
</a>
</g>
</g>
<!-- Node2&#45;&gt;Node3 -->
<g id="edge2" class="edge"><title>Node2&#45;&gt;Node3</title>
<path fill="none" stroke="midnightblue" d="M271.407,-10C280.124,-10 288.807,-10 296.839,-10"/>
<polygon fill="midnightblue" stroke="midnightblue" points="271.197,-6.5001 261.197,-10 271.197,-13.5001 271.197,-6.5001"/>
</g>
</g>
</svg>
