<?xml version="1.0" encoding="UTF-8" standalone="no"?>
<!DOCTYPE svg PUBLIC "-//W3C//DTD SVG 1.1//EN"
 "http://www.w3.org/Graphics/SVG/1.1/DTD/svg11.dtd">
<!-- Generated by graphviz version 2.40.1 (20161225.0304)
 -->
<!-- Title: particle_methods/pic_basic/pic_time_integration/sll_m_operator_splitting_pic_vp_2d2v.F90 Pages: 1 -->
<svg width="240pt" height="117pt"
 viewBox="0.00 0.00 239.50 117.00" xmlns="http://www.w3.org/2000/svg" xmlns:xlink="http://www.w3.org/1999/xlink">
<g id="graph0" class="graph" transform="scale(1 1) rotate(0) translate(4 113)">
<title>particle_methods/pic_basic/pic_time_integration/sll_m_operator_splitting_pic_vp_2d2v.F90</title>
<polygon fill="#ffffff" stroke="transparent" points="-4,4 -4,-113 235.5,-113 235.5,4 -4,4"/>
<!-- Node0 -->
<g id="node1" class="node">
<title>Node0</title>
<polygon fill="#bfbfbf" stroke="#000000" points="27.5,-56.5 27.5,-108.5 178.5,-108.5 178.5,-56.5 27.5,-56.5"/>
<text text-anchor="start" x="35.5" y="-96.5" font-family="Helvetica,sans-Serif" font-size="10.00" fill="#000000">particle_methods/pic</text>
<text text-anchor="start" x="35.5" y="-85.5" font-family="Helvetica,sans-Serif" font-size="10.00" fill="#000000">_basic/pic_time_integration</text>
<text text-anchor="start" x="35.5" y="-74.5" font-family="Helvetica,sans-Serif" font-size="10.00" fill="#000000">/sll_m_operator_splitting</text>
<text text-anchor="middle" x="103" y="-63.5" font-family="Helvetica,sans-Serif" font-size="10.00" fill="#000000">_pic_vp_2d2v.F90</text>
</g>
<!-- Node1 -->
<g id="node2" class="node">
<title>Node1</title>
<polygon fill="#ffffff" stroke="#bfbfbf" points="0,-.5 0,-19.5 82,-19.5 82,-.5 0,-.5"/>
<text text-anchor="middle" x="41" y="-7.5" font-family="Helvetica,sans-Serif" font-size="10.00" fill="#000000">sll_memory.h</text>
</g>
<!-- Node0&#45;&gt;Node1 -->
<g id="edge1" class="edge">
<title>Node0&#45;&gt;Node1</title>
<path fill="none" stroke="#191970" d="M80.6166,-56.3258C72.3104,-46.613 63.1077,-35.8518 55.6641,-27.1476"/>
<polygon fill="#191970" stroke="#191970" points="58.3125,-24.8592 49.1532,-19.534 52.9925,-29.4087 58.3125,-24.8592"/>
</g>
<!-- Node2 -->
<g id="node3" class="node">
<title>Node2</title>
<polygon fill="#ffffff" stroke="#bfbfbf" points="100.5,-.5 100.5,-19.5 231.5,-19.5 231.5,-.5 100.5,-.5"/>
<text text-anchor="middle" x="166" y="-7.5" font-family="Helvetica,sans-Serif" font-size="10.00" fill="#000000">sll_working_precision.h</text>
</g>
<!-- Node0&#45;&gt;Node2 -->
<g id="edge2" class="edge">
<title>Node0&#45;&gt;Node2</title>
<path fill="none" stroke="#191970" d="M125.7444,-56.3258C134.1846,-46.613 143.5357,-35.8518 151.0993,-27.1476"/>
<polygon fill="#191970" stroke="#191970" points="153.7979,-29.3781 157.7153,-19.534 148.5141,-24.7866 153.7979,-29.3781"/>
</g>
</g>
</svg>
