<?xml version="1.0" encoding="UTF-8" standalone="no"?>
<!DOCTYPE svg PUBLIC "-//W3C//DTD SVG 1.1//EN"
 "http://www.w3.org/Graphics/SVG/1.1/DTD/svg11.dtd">
<!-- Generated by graphviz version 2.38.0 (20140413.2041)
 -->
<!-- Title: io/file_io_parallel/sll_m_hdf5_io_parallel.F90 Pages: 1 -->
<svg width="458pt" height="106pt"
 viewBox="0.00 0.00 457.50 106.00" xmlns="http://www.w3.org/2000/svg" xmlns:xlink="http://www.w3.org/1999/xlink">
<g id="graph0" class="graph" transform="scale(1 1) rotate(0) translate(4 102)">
<title>io/file_io_parallel/sll_m_hdf5_io_parallel.F90</title>
<polygon fill="white" stroke="none" points="-4,4 -4,-102 453.5,-102 453.5,4 -4,4"/>
<!-- Node1 -->
<g id="node1" class="node"><title>Node1</title>
<polygon fill="#bfbfbf" stroke="black" points="142,-67.5 142,-97.5 277,-97.5 277,-67.5 142,-67.5"/>
<text text-anchor="start" x="150" y="-85.5" font-family="Helvetica,sans-Serif" font-size="10.00">io/file_io_parallel</text>
<text text-anchor="middle" x="209.5" y="-74.5" font-family="Helvetica,sans-Serif" font-size="10.00">/sll_m_hdf5_io_parallel.F90</text>
</g>
<!-- Node2 -->
<g id="node2" class="node"><title>Node2</title>
<polygon fill="white" stroke="#bfbfbf" points="0,-6 0,-25 67,-25 67,-6 0,-6"/>
<text text-anchor="middle" x="33.5" y="-13" font-family="Helvetica,sans-Serif" font-size="10.00">sll_assert.h</text>
</g>
<!-- Node1&#45;&gt;Node2 -->
<g id="edge1" class="edge"><title>Node1&#45;&gt;Node2</title>
<path fill="none" stroke="midnightblue" d="M171.311,-67.396C139.883,-55.7891 95.8168,-39.5147 66.0443,-28.5192"/>
<polygon fill="midnightblue" stroke="midnightblue" points="67.1276,-25.1883 56.5343,-25.007 64.7025,-31.7548 67.1276,-25.1883"/>
</g>
<!-- Node3 -->
<g id="node3" class="node"><title>Node3</title>
<polygon fill="white" stroke="#bfbfbf" points="85.5,-6 85.5,-25 203.5,-25 203.5,-6 85.5,-6"/>
<text text-anchor="middle" x="144.5" y="-13" font-family="Helvetica,sans-Serif" font-size="10.00">sll_working_precision.h</text>
</g>
<!-- Node1&#45;&gt;Node3 -->
<g id="edge2" class="edge"><title>Node1&#45;&gt;Node3</title>
<path fill="none" stroke="midnightblue" d="M195.396,-67.396C185.06,-57.0604 171.024,-43.0237 160.309,-32.309"/>
<polygon fill="midnightblue" stroke="midnightblue" points="162.741,-29.7907 153.195,-25.1945 157.791,-34.7405 162.741,-29.7907"/>
</g>
<!-- Node4 -->
<g id="node4" class="node"><title>Node4</title>
<g id="a_node4"><a xlink:href="sll__k__hdf5__par__write__array_8_f90.html" target="_top" xlink:title="sll_k_hdf5_par_write\l_array.F90">
<polygon fill="white" stroke="black" points="221.5,-0.5 221.5,-30.5 327.5,-30.5 327.5,-0.5 221.5,-0.5"/>
<text text-anchor="start" x="229.5" y="-18.5" font-family="Helvetica,sans-Serif" font-size="10.00">sll_k_hdf5_par_write</text>
<text text-anchor="middle" x="274.5" y="-7.5" font-family="Helvetica,sans-Serif" font-size="10.00">_array.F90</text>
</a>
</g>
</g>
<!-- Node1&#45;&gt;Node4 -->
<g id="edge3" class="edge"><title>Node1&#45;&gt;Node4</title>
<path fill="none" stroke="midnightblue" d="M223.604,-67.396C232.292,-58.7079 243.595,-47.4046 253.342,-37.6576"/>
<polygon fill="midnightblue" stroke="midnightblue" points="255.827,-40.1225 260.423,-30.5765 250.878,-35.1727 255.827,-40.1225"/>
</g>
<!-- Node5 -->
<g id="node5" class="node"><title>Node5</title>
<g id="a_node5"><a xlink:href="sll__k__hdf5__par__read__array_8_f90.html" target="_top" xlink:title="sll_k_hdf5_par_read\l_array.F90">
<polygon fill="white" stroke="black" points="345.5,-0.5 345.5,-30.5 449.5,-30.5 449.5,-0.5 345.5,-0.5"/>
<text text-anchor="start" x="353.5" y="-18.5" font-family="Helvetica,sans-Serif" font-size="10.00">sll_k_hdf5_par_read</text>
<text text-anchor="middle" x="397.5" y="-7.5" font-family="Helvetica,sans-Serif" font-size="10.00">_array.F90</text>
</a>
</g>
</g>
<!-- Node1&#45;&gt;Node5 -->
<g id="edge4" class="edge"><title>Node1&#45;&gt;Node5</title>
<path fill="none" stroke="midnightblue" d="M250.293,-67.396C278.748,-57.558 316.901,-44.3668 347.235,-33.879"/>
<polygon fill="midnightblue" stroke="midnightblue" points="348.479,-37.1521 356.786,-30.5765 346.192,-30.5364 348.479,-37.1521"/>
</g>
</g>
</svg>
