<?xml version="1.0" encoding="UTF-8" standalone="no"?>
<!DOCTYPE svg PUBLIC "-//W3C//DTD SVG 1.1//EN"
 "http://www.w3.org/Graphics/SVG/1.1/DTD/svg11.dtd">
<!-- Generated by graphviz version 2.38.0 (20140413.2041)
 -->
<!-- Title: io/file_io/sll_m_xdmf.F90 Pages: 1 -->
<svg width="388pt" height="84pt"
 viewBox="0.00 0.00 387.50 84.00" xmlns="http://www.w3.org/2000/svg" xmlns:xlink="http://www.w3.org/1999/xlink">
<g id="graph0" class="graph" transform="scale(1 1) rotate(0) translate(4 80)">
<title>io/file_io/sll_m_xdmf.F90</title>
<polygon fill="white" stroke="none" points="-4,4 -4,-80 383.5,-80 383.5,4 -4,4"/>
<!-- Node1 -->
<g id="node1" class="node"><title>Node1</title>
<polygon fill="#bfbfbf" stroke="black" points="99,-56.5 99,-75.5 224,-75.5 224,-56.5 99,-56.5"/>
<text text-anchor="middle" x="161.5" y="-63.5" font-family="Helvetica,sans-Serif" font-size="10.00">io/file_io/sll_m_xdmf.F90</text>
</g>
<!-- Node2 -->
<g id="node2" class="node"><title>Node2</title>
<polygon fill="white" stroke="#bfbfbf" points="0,-0.5 0,-19.5 67,-19.5 67,-0.5 0,-0.5"/>
<text text-anchor="middle" x="33.5" y="-7.5" font-family="Helvetica,sans-Serif" font-size="10.00">sll_assert.h</text>
</g>
<!-- Node1&#45;&gt;Node2 -->
<g id="edge1" class="edge"><title>Node1&#45;&gt;Node2</title>
<path fill="none" stroke="midnightblue" d="M141.218,-56.4435C120.153,-47.5566 86.9832,-33.5632 63.0145,-23.4514"/>
<polygon fill="midnightblue" stroke="midnightblue" points="64.2612,-20.1787 53.6871,-19.5164 61.5403,-26.6283 64.2612,-20.1787"/>
</g>
<!-- Node3 -->
<g id="node3" class="node"><title>Node3</title>
<polygon fill="white" stroke="#bfbfbf" points="85,-0.5 85,-19.5 150,-19.5 150,-0.5 85,-0.5"/>
<text text-anchor="middle" x="117.5" y="-7.5" font-family="Helvetica,sans-Serif" font-size="10.00">sll_errors.h</text>
</g>
<!-- Node1&#45;&gt;Node3 -->
<g id="edge2" class="edge"><title>Node1&#45;&gt;Node3</title>
<path fill="none" stroke="midnightblue" d="M154.234,-56.083C147.955,-48.3768 138.712,-37.0333 131.069,-27.6531"/>
<polygon fill="midnightblue" stroke="midnightblue" points="133.661,-25.2926 124.631,-19.7511 128.234,-29.7143 133.661,-25.2926"/>
</g>
<!-- Node4 -->
<g id="node4" class="node"><title>Node4</title>
<polygon fill="white" stroke="#bfbfbf" points="168,-0.5 168,-19.5 243,-19.5 243,-0.5 168,-0.5"/>
<text text-anchor="middle" x="205.5" y="-7.5" font-family="Helvetica,sans-Serif" font-size="10.00">sll_memory.h</text>
</g>
<!-- Node1&#45;&gt;Node4 -->
<g id="edge3" class="edge"><title>Node1&#45;&gt;Node4</title>
<path fill="none" stroke="midnightblue" d="M168.766,-56.083C175.045,-48.3768 184.288,-37.0333 191.931,-27.6531"/>
<polygon fill="midnightblue" stroke="midnightblue" points="194.766,-29.7143 198.369,-19.7511 189.339,-25.2926 194.766,-29.7143"/>
</g>
<!-- Node5 -->
<g id="node5" class="node"><title>Node5</title>
<polygon fill="white" stroke="#bfbfbf" points="261.5,-0.5 261.5,-19.5 379.5,-19.5 379.5,-0.5 261.5,-0.5"/>
<text text-anchor="middle" x="320.5" y="-7.5" font-family="Helvetica,sans-Serif" font-size="10.00">sll_working_precision.h</text>
</g>
<!-- Node1&#45;&gt;Node5 -->
<g id="edge4" class="edge"><title>Node1&#45;&gt;Node5</title>
<path fill="none" stroke="midnightblue" d="M186.694,-56.4435C213.443,-47.3591 255.903,-32.9388 285.805,-22.7831"/>
<polygon fill="midnightblue" stroke="midnightblue" points="287.081,-26.0464 295.424,-19.5164 284.829,-19.4182 287.081,-26.0464"/>
</g>
</g>
</svg>
