<?xml version="1.0" encoding="UTF-8" standalone="no"?>
<!DOCTYPE svg PUBLIC "-//W3C//DTD SVG 1.1//EN"
 "http://www.w3.org/Graphics/SVG/1.1/DTD/svg11.dtd">
<!-- Generated by graphviz version 2.43.0 (0)
 -->
<!-- Title: scal Pages: 1 -->
<svg width="481pt" height="350pt"
 viewBox="0.00 0.00 481.00 349.50" xmlns="http://www.w3.org/2000/svg" xmlns:xlink="http://www.w3.org/1999/xlink">
<g id="graph0" class="graph" transform="scale(1 1) rotate(0) translate(4 345.5)">
<title>scal</title>
<polygon fill="white" stroke="transparent" points="-4,4 -4,-345.5 477,-345.5 477,4 -4,4"/>
<!-- Node1 -->
<g id="node1" class="node">
<title>Node1</title>
<g id="a_node1"><a xlink:title=" ">
<polygon fill="#bfbfbf" stroke="black" points="437,-172 437,-191 473,-191 473,-172 437,-172"/>
<text text-anchor="middle" x="455" y="-179" font-family="Helvetica,sans-Serif" font-size="10.00">scal</text>
</a>
</g>
</g>
<!-- Node2 -->
<g id="node2" class="node">
<title>Node2</title>
<g id="a_node2"><a xlink:href="muls_8f.html#a70b4fcd73a6a1223d155893c2d27d51d" target="_top" xlink:title=" ">
<polygon fill="white" stroke="black" points="354,-191 354,-210 401,-210 401,-191 354,-191"/>
<text text-anchor="middle" x="377.5" y="-198" font-family="Helvetica,sans-Serif" font-size="10.00">mulku</text>
</a>
</g>
</g>
<!-- Node1&#45;&gt;Node2 -->
<g id="edge1" class="edge">
<title>Node1&#45;&gt;Node2</title>
<path fill="none" stroke="midnightblue" d="M427.01,-188.29C418.49,-190.44 409.18,-192.78 401.01,-194.84"/>
<polygon fill="midnightblue" stroke="midnightblue" points="428.02,-191.65 436.87,-185.81 426.32,-184.86 428.02,-191.65"/>
</g>
<!-- Node3 -->
<g id="node3" class="node">
<title>Node3</title>
<g id="a_node3"><a xlink:href="sol_8f.html#a4145fac37257dc54fbe9cb58cba9e27d" target="_top" xlink:title=" ">
<polygon fill="white" stroke="black" points="362,-153 362,-172 393,-172 393,-153 362,-153"/>
<text text-anchor="middle" x="377.5" y="-160" font-family="Helvetica,sans-Serif" font-size="10.00">sol</text>
</a>
</g>
</g>
<!-- Node1&#45;&gt;Node3 -->
<g id="edge2" class="edge">
<title>Node1&#45;&gt;Node3</title>
<path fill="none" stroke="midnightblue" d="M426.9,-174.68C415.47,-171.8 402.61,-168.57 393.02,-166.15"/>
<polygon fill="midnightblue" stroke="midnightblue" points="426.32,-178.14 436.87,-177.19 428.02,-171.35 426.32,-178.14"/>
</g>
<!-- Node4 -->
<g id="node4" class="node">
<title>Node4</title>
<g id="a_node4"><a xlink:href="namespacesll__m__lobalap.html#aa106c71651d7e33a3104c8a62ca33666" target="_top" xlink:title=" ">
<polygon fill="white" stroke="black" points="191,-299.5 191,-329.5 292,-329.5 292,-299.5 191,-299.5"/>
<text text-anchor="start" x="199" y="-317.5" font-family="Helvetica,sans-Serif" font-size="10.00">sll_m_lobalap::sll</text>
<text text-anchor="middle" x="241.5" y="-306.5" font-family="Helvetica,sans-Serif" font-size="10.00">_s_compute_phi</text>
</a>
</g>
</g>
<!-- Node3&#45;&gt;Node4 -->
<g id="edge3" class="edge">
<title>Node3&#45;&gt;Node4</title>
<path fill="none" stroke="midnightblue" d="M355.38,-179.63C354.89,-180.24 354.43,-180.87 354,-181.5 326.33,-221.83 352,-250.34 318,-285.5 310.87,-292.87 301.67,-298.39 292.16,-302.53"/>
<polygon fill="midnightblue" stroke="midnightblue" points="358.03,-181.92 362.5,-172.31 353.02,-177.04 358.03,-181.92"/>
</g>
<!-- Node6 -->
<g id="node6" class="node">
<title>Node6</title>
<g id="a_node6"><a xlink:href="namespacesll__m__lobalap.html#a39ed223152db8fd09d58d455f85e6232" target="_top" xlink:title=" ">
<polygon fill="white" stroke="black" points="191,-245.5 191,-275.5 292,-275.5 292,-245.5 191,-245.5"/>
<text text-anchor="start" x="199" y="-263.5" font-family="Helvetica,sans-Serif" font-size="10.00">sll_m_lobalap::sll</text>
<text text-anchor="middle" x="241.5" y="-252.5" font-family="Helvetica,sans-Serif" font-size="10.00">_s_computelu</text>
</a>
</g>
</g>
<!-- Node3&#45;&gt;Node6 -->
<g id="edge5" class="edge">
<title>Node3&#45;&gt;Node6</title>
<path fill="none" stroke="midnightblue" d="M355.94,-179.4C355.27,-180.1 354.62,-180.8 354,-181.5 334.64,-203.38 341.27,-218.83 318,-236.5 310.33,-242.32 301.21,-246.76 292.01,-250.12"/>
<polygon fill="midnightblue" stroke="midnightblue" points="358.59,-181.72 363.53,-172.35 353.82,-176.59 358.59,-181.72"/>
</g>
<!-- Node8 -->
<g id="node8" class="node">
<title>Node8</title>
<g id="a_node8"><a xlink:href="namespacesll__m__qn__2d__polar.html#aa95847c3b2595b8fe8221ed6e58caf9f" target="_top" xlink:title=" ">
<polygon fill="white" stroke="black" points="176,-196.5 176,-226.5 307,-226.5 307,-196.5 176,-196.5"/>
<text text-anchor="start" x="184" y="-214.5" font-family="Helvetica,sans-Serif" font-size="10.00">sll_m_qn_2d_polar::</text>
<text text-anchor="middle" x="241.5" y="-203.5" font-family="Helvetica,sans-Serif" font-size="10.00">solve_circulant_system</text>
</a>
</g>
</g>
<!-- Node3&#45;&gt;Node8 -->
<g id="edge7" class="edge">
<title>Node3&#45;&gt;Node8</title>
<path fill="none" stroke="midnightblue" d="M352.42,-173.41C341.94,-178 329.45,-183.24 318,-187.5 309.75,-190.57 300.9,-193.6 292.28,-196.42"/>
<polygon fill="midnightblue" stroke="midnightblue" points="354.03,-176.52 361.75,-169.27 351.19,-170.12 354.03,-176.52"/>
</g>
<!-- Node10 -->
<g id="node10" class="node">
<title>Node10</title>
<g id="a_node10"><a xlink:href="interfacesll__m__mumps_1_1solve.html#ad768d65e2eec7cbf1289ba9728f7f888" target="_top" xlink:title=" ">
<polygon fill="white" stroke="black" points="165,-147.5 165,-177.5 318,-177.5 318,-147.5 165,-147.5"/>
<text text-anchor="start" x="173" y="-165.5" font-family="Helvetica,sans-Serif" font-size="10.00">sll_m_mumps::solve</text>
<text text-anchor="middle" x="241.5" y="-154.5" font-family="Helvetica,sans-Serif" font-size="10.00">::solve_mumps_without_rhs</text>
</a>
</g>
</g>
<!-- Node3&#45;&gt;Node10 -->
<g id="edge9" class="edge">
<title>Node3&#45;&gt;Node10</title>
<path fill="none" stroke="midnightblue" d="M351.86,-162.5C342.12,-162.5 330.35,-162.5 318.2,-162.5"/>
<polygon fill="midnightblue" stroke="midnightblue" points="351.9,-166 361.9,-162.5 351.9,-159 351.9,-166"/>
</g>
<!-- Node11 -->
<g id="node11" class="node">
<title>Node11</title>
<g id="a_node11"><a xlink:href="interfacesll__m__paralution_1_1solve.html#af5c12acdc59466a6eb5f65e605999744" target="_top" xlink:title=" ">
<polygon fill="white" stroke="black" points="166.5,-98.5 166.5,-128.5 316.5,-128.5 316.5,-98.5 166.5,-98.5"/>
<text text-anchor="start" x="174.5" y="-116.5" font-family="Helvetica,sans-Serif" font-size="10.00">sll_m_paralution::solve</text>
<text text-anchor="middle" x="241.5" y="-105.5" font-family="Helvetica,sans-Serif" font-size="10.00">::solve_paralution_with_rhs</text>
</a>
</g>
</g>
<!-- Node3&#45;&gt;Node11 -->
<g id="edge10" class="edge">
<title>Node3&#45;&gt;Node11</title>
<path fill="none" stroke="midnightblue" d="M352.35,-152.15C341.86,-147.77 329.39,-142.72 318,-138.5 308.94,-135.14 299.18,-131.76 289.8,-128.6"/>
<polygon fill="midnightblue" stroke="midnightblue" points="351.13,-155.43 361.7,-156.1 353.85,-148.99 351.13,-155.43"/>
</g>
<!-- Node12 -->
<g id="node12" class="node">
<title>Node12</title>
<g id="a_node12"><a xlink:href="interfacesll__m__pastix_1_1solve.html#a81e1170168cb91c2e3d75b421881c7c4" target="_top" xlink:title=" ">
<polygon fill="white" stroke="black" points="176,-49.5 176,-79.5 307,-79.5 307,-49.5 176,-49.5"/>
<text text-anchor="start" x="184" y="-67.5" font-family="Helvetica,sans-Serif" font-size="10.00">sll_m_pastix::solve</text>
<text text-anchor="middle" x="241.5" y="-56.5" font-family="Helvetica,sans-Serif" font-size="10.00">::solve_pastix_with_rhs</text>
</a>
</g>
</g>
<!-- Node3&#45;&gt;Node12 -->
<g id="edge11" class="edge">
<title>Node3&#45;&gt;Node12</title>
<path fill="none" stroke="midnightblue" d="M366.12,-144.24C355.86,-127.75 338.73,-103.91 318,-89.5 312.44,-85.64 306.25,-82.34 299.86,-79.53"/>
<polygon fill="midnightblue" stroke="midnightblue" points="363.2,-146.19 371.33,-152.98 369.21,-142.6 363.2,-146.19"/>
</g>
<!-- Node13 -->
<g id="node13" class="node">
<title>Node13</title>
<g id="a_node13"><a xlink:href="interfacesll__m__pastix_1_1solve.html#a6eca64d07057951fc6efc0f1ba9a60b1" target="_top" xlink:title=" ">
<polygon fill="white" stroke="black" points="168.5,-0.5 168.5,-30.5 314.5,-30.5 314.5,-0.5 168.5,-0.5"/>
<text text-anchor="start" x="176.5" y="-18.5" font-family="Helvetica,sans-Serif" font-size="10.00">sll_m_pastix::solve</text>
<text text-anchor="middle" x="241.5" y="-7.5" font-family="Helvetica,sans-Serif" font-size="10.00">::solve_pastix_without_rhs</text>
</a>
</g>
</g>
<!-- Node3&#45;&gt;Node13 -->
<g id="edge12" class="edge">
<title>Node3&#45;&gt;Node13</title>
<path fill="none" stroke="midnightblue" d="M372.2,-142.91C365.33,-116.07 349.31,-68.05 318,-40.5 313.65,-36.67 308.69,-33.42 303.44,-30.67"/>
<polygon fill="midnightblue" stroke="midnightblue" points="368.81,-143.78 374.54,-152.69 375.62,-142.15 368.81,-143.78"/>
</g>
<!-- Node5 -->
<g id="node5" class="node">
<title>Node5</title>
<g id="a_node5"><a xlink:href="interfacesll__m__lobatto__poisson_1_1sll__o__solve.html#ab1781bbf9be1b6fae88bc61ceda525c4" target="_top" xlink:title=" ">
<polygon fill="white" stroke="black" points="2,-300 2,-341 127,-341 127,-300 2,-300"/>
<text text-anchor="start" x="10" y="-329" font-family="Helvetica,sans-Serif" font-size="10.00">sll_m_lobatto_poisson</text>
<text text-anchor="start" x="10" y="-318" font-family="Helvetica,sans-Serif" font-size="10.00">::sll_o_solve::solve</text>
<text text-anchor="middle" x="64.5" y="-307" font-family="Helvetica,sans-Serif" font-size="10.00">_lobatto_poisson</text>
</a>
</g>
</g>
<!-- Node4&#45;&gt;Node5 -->
<g id="edge4" class="edge">
<title>Node4&#45;&gt;Node5</title>
<path fill="none" stroke="midnightblue" d="M180.35,-316.56C163.17,-317.15 144.42,-317.79 127.15,-318.39"/>
<polygon fill="midnightblue" stroke="midnightblue" points="180.95,-320.04 190.82,-316.2 180.71,-313.05 180.95,-320.04"/>
</g>
<!-- Node7 -->
<g id="node7" class="node">
<title>Node7</title>
<g id="a_node7"><a xlink:href="interfacesll__m__lobatto__poisson_1_1sll__o__create.html#a0614e36f77c5cf5049ec4c5147f4f9b8" target="_top" xlink:title=" ">
<polygon fill="white" stroke="black" points="0,-240 0,-281 129,-281 129,-240 0,-240"/>
<text text-anchor="start" x="8" y="-269" font-family="Helvetica,sans-Serif" font-size="10.00">sll_m_lobatto_poisson</text>
<text text-anchor="start" x="8" y="-258" font-family="Helvetica,sans-Serif" font-size="10.00">::sll_o_create::initialize</text>
<text text-anchor="middle" x="64.5" y="-247" font-family="Helvetica,sans-Serif" font-size="10.00">_lobatto_poisson</text>
</a>
</g>
</g>
<!-- Node6&#45;&gt;Node7 -->
<g id="edge6" class="edge">
<title>Node6&#45;&gt;Node7</title>
<path fill="none" stroke="midnightblue" d="M180.68,-260.5C164.04,-260.5 145.92,-260.5 129.07,-260.5"/>
<polygon fill="midnightblue" stroke="midnightblue" points="180.82,-264 190.82,-260.5 180.82,-257 180.82,-264"/>
</g>
<!-- Node9 -->
<g id="node9" class="node">
<title>Node9</title>
<g id="a_node9"><a xlink:href="namespacesll__m__qn__2d__polar.html#aee9a3432a9b69122fcb85403b3960ca6" target="_top" xlink:title=" ">
<polygon fill="white" stroke="black" points="7.5,-180 7.5,-221 121.5,-221 121.5,-180 7.5,-180"/>
<text text-anchor="start" x="15.5" y="-209" font-family="Helvetica,sans-Serif" font-size="10.00">sll_m_qn_2d_polar::</text>
<text text-anchor="start" x="15.5" y="-198" font-family="Helvetica,sans-Serif" font-size="10.00">test_solve_circulant</text>
<text text-anchor="middle" x="64.5" y="-187" font-family="Helvetica,sans-Serif" font-size="10.00">_system</text>
</a>
</g>
</g>
<!-- Node8&#45;&gt;Node9 -->
<g id="edge8" class="edge">
<title>Node8&#45;&gt;Node9</title>
<path fill="none" stroke="midnightblue" d="M165.69,-206.8C150.89,-205.87 135.6,-204.91 121.55,-204.02"/>
<polygon fill="midnightblue" stroke="midnightblue" points="165.63,-210.3 175.83,-207.44 166.07,-203.31 165.63,-210.3"/>
</g>
</g>
</svg>
