<?xml version="1.0" encoding="UTF-8" standalone="no"?>
<!DOCTYPE svg PUBLIC "-//W3C//DTD SVG 1.1//EN"
 "http://www.w3.org/Graphics/SVG/1.1/DTD/svg11.dtd">
<!-- Generated by graphviz version 2.43.0 (0)
 -->
<!-- Title: scal Pages: 1 -->
<svg width="461pt" height="339pt"
 viewBox="0.00 0.00 461.00 339.00" xmlns="http://www.w3.org/2000/svg" xmlns:xlink="http://www.w3.org/1999/xlink">
<g id="graph0" class="graph" transform="scale(1 1) rotate(0) translate(4 335)">
<title>scal</title>
<polygon fill="white" stroke="transparent" points="-4,4 -4,-335 457,-335 457,4 -4,4"/>
<!-- Node1 -->
<g id="node1" class="node">
<title>Node1</title>
<g id="a_node1"><a xlink:title=" ">
<polygon fill="#bfbfbf" stroke="black" points="417,-172 417,-191 453,-191 453,-172 417,-172"/>
<text text-anchor="middle" x="435" y="-179" font-family="Helvetica,sans-Serif" font-size="10.00">scal</text>
</a>
</g>
</g>
<!-- Node2 -->
<g id="node2" class="node">
<title>Node2</title>
<g id="a_node2"><a xlink:href="muls_8f.html#a70b4fcd73a6a1223d155893c2d27d51d" target="_top" xlink:title=" ">
<polygon fill="white" stroke="black" points="334,-191 334,-210 381,-210 381,-191 334,-191"/>
<text text-anchor="middle" x="357.5" y="-198" font-family="Helvetica,sans-Serif" font-size="10.00">mulku</text>
</a>
</g>
</g>
<!-- Node1&#45;&gt;Node2 -->
<g id="edge1" class="edge">
<title>Node1&#45;&gt;Node2</title>
<path fill="none" stroke="midnightblue" d="M407.01,-188.29C398.49,-190.44 389.18,-192.78 381.01,-194.84"/>
<polygon fill="midnightblue" stroke="midnightblue" points="408.02,-191.65 416.87,-185.81 406.32,-184.86 408.02,-191.65"/>
</g>
<!-- Node3 -->
<g id="node3" class="node">
<title>Node3</title>
<g id="a_node3"><a xlink:href="sol_8f.html#a4145fac37257dc54fbe9cb58cba9e27d" target="_top" xlink:title=" ">
<polygon fill="white" stroke="black" points="342,-153 342,-172 373,-172 373,-153 342,-153"/>
<text text-anchor="middle" x="357.5" y="-160" font-family="Helvetica,sans-Serif" font-size="10.00">sol</text>
</a>
</g>
</g>
<!-- Node1&#45;&gt;Node3 -->
<g id="edge2" class="edge">
<title>Node1&#45;&gt;Node3</title>
<path fill="none" stroke="midnightblue" d="M406.9,-174.68C395.47,-171.8 382.61,-168.57 373.02,-166.15"/>
<polygon fill="midnightblue" stroke="midnightblue" points="406.32,-178.14 416.87,-177.19 408.02,-171.35 406.32,-178.14"/>
</g>
<!-- Node4 -->
<g id="node4" class="node">
<title>Node4</title>
<g id="a_node4"><a xlink:href="namespacesll__m__lobalap.html#aa106c71651d7e33a3104c8a62ca33666" target="_top" xlink:title=" ">
<polygon fill="white" stroke="black" points="182,-297.5 182,-327.5 283,-327.5 283,-297.5 182,-297.5"/>
<text text-anchor="start" x="190" y="-315.5" font-family="Helvetica,sans-Serif" font-size="10.00">sll_m_lobalap::sll</text>
<text text-anchor="middle" x="232.5" y="-304.5" font-family="Helvetica,sans-Serif" font-size="10.00">_s_compute_phi</text>
</a>
</g>
</g>
<!-- Node3&#45;&gt;Node4 -->
<g id="edge3" class="edge">
<title>Node3&#45;&gt;Node4</title>
<path fill="none" stroke="midnightblue" d="M335.38,-179.63C334.89,-180.24 334.43,-180.87 334,-181.5 306.33,-221.83 331.48,-249.84 298,-285.5 293.6,-290.19 288.25,-294.1 282.54,-297.34"/>
<polygon fill="midnightblue" stroke="midnightblue" points="338.03,-181.92 342.5,-172.31 333.02,-177.04 338.03,-181.92"/>
</g>
<!-- Node6 -->
<g id="node6" class="node">
<title>Node6</title>
<g id="a_node6"><a xlink:href="namespacesll__m__lobalap.html#a39ed223152db8fd09d58d455f85e6232" target="_top" xlink:title=" ">
<polygon fill="white" stroke="black" points="182,-245.5 182,-275.5 283,-275.5 283,-245.5 182,-245.5"/>
<text text-anchor="start" x="190" y="-263.5" font-family="Helvetica,sans-Serif" font-size="10.00">sll_m_lobalap::sll</text>
<text text-anchor="middle" x="232.5" y="-252.5" font-family="Helvetica,sans-Serif" font-size="10.00">_s_computelu</text>
</a>
</g>
</g>
<!-- Node3&#45;&gt;Node6 -->
<g id="edge5" class="edge">
<title>Node3&#45;&gt;Node6</title>
<path fill="none" stroke="midnightblue" d="M335.95,-179.41C335.28,-180.1 334.63,-180.8 334,-181.5 314.79,-203.02 320.5,-217.45 298,-235.5 293.22,-239.33 287.79,-242.63 282.15,-245.46"/>
<polygon fill="midnightblue" stroke="midnightblue" points="338.59,-181.73 343.55,-172.37 333.84,-176.59 338.59,-181.73"/>
</g>
<!-- Node8 -->
<g id="node8" class="node">
<title>Node8</title>
<g id="a_node8"><a xlink:href="namespacesll__m__qn__2d__polar.html#aa95847c3b2595b8fe8221ed6e58caf9f" target="_top" xlink:title=" ">
<polygon fill="white" stroke="black" points="167,-196.5 167,-226.5 298,-226.5 298,-196.5 167,-196.5"/>
<text text-anchor="start" x="175" y="-214.5" font-family="Helvetica,sans-Serif" font-size="10.00">sll_m_qn_2d_polar::</text>
<text text-anchor="middle" x="232.5" y="-203.5" font-family="Helvetica,sans-Serif" font-size="10.00">solve_circulant_system</text>
</a>
</g>
</g>
<!-- Node3&#45;&gt;Node8 -->
<g id="edge7" class="edge">
<title>Node3&#45;&gt;Node8</title>
<path fill="none" stroke="midnightblue" d="M332.25,-172.57C321.74,-176.91 309.28,-182 298,-186.5 289.86,-189.75 281.11,-193.18 272.77,-196.42"/>
<polygon fill="midnightblue" stroke="midnightblue" points="333.72,-175.75 341.63,-168.7 331.05,-169.28 333.72,-175.75"/>
</g>
<!-- Node10 -->
<g id="node10" class="node">
<title>Node10</title>
<g id="a_node10"><a xlink:href="namespacesll__m__mumps.html#a60fc64f2a49ba61147cfee6857882cc1" target="_top" xlink:title=" ">
<polygon fill="white" stroke="black" points="172,-147.5 172,-177.5 293,-177.5 293,-147.5 172,-147.5"/>
<text text-anchor="start" x="180" y="-165.5" font-family="Helvetica,sans-Serif" font-size="10.00">sll_m_mumps::solve</text>
<text text-anchor="middle" x="232.5" y="-154.5" font-family="Helvetica,sans-Serif" font-size="10.00">_mumps_without_rhs</text>
</a>
</g>
</g>
<!-- Node3&#45;&gt;Node10 -->
<g id="edge9" class="edge">
<title>Node3&#45;&gt;Node10</title>
<path fill="none" stroke="midnightblue" d="M331.64,-162.5C320.43,-162.5 306.65,-162.5 293.01,-162.5"/>
<polygon fill="midnightblue" stroke="midnightblue" points="331.91,-166 341.91,-162.5 331.91,-159 331.91,-166"/>
</g>
<!-- Node11 -->
<g id="node11" class="node">
<title>Node11</title>
<g id="a_node11"><a xlink:href="namespacesll__m__paralution.html#a2b577fcc39dd7f5a1e05c05215ef20d5" target="_top" xlink:title=" ">
<polygon fill="white" stroke="black" points="167.5,-98.5 167.5,-128.5 297.5,-128.5 297.5,-98.5 167.5,-98.5"/>
<text text-anchor="start" x="175.5" y="-116.5" font-family="Helvetica,sans-Serif" font-size="10.00">sll_m_paralution::solve</text>
<text text-anchor="middle" x="232.5" y="-105.5" font-family="Helvetica,sans-Serif" font-size="10.00">_paralution_with_rhs</text>
</a>
</g>
</g>
<!-- Node3&#45;&gt;Node11 -->
<g id="edge10" class="edge">
<title>Node3&#45;&gt;Node11</title>
<path fill="none" stroke="midnightblue" d="M332.31,-151.86C321.81,-147.32 309.35,-142.03 298,-137.5 290.57,-134.53 282.61,-131.47 274.9,-128.57"/>
<polygon fill="midnightblue" stroke="midnightblue" points="331.11,-155.15 341.67,-155.93 333.9,-148.73 331.11,-155.15"/>
</g>
<!-- Node12 -->
<g id="node12" class="node">
<title>Node12</title>
<g id="a_node12"><a xlink:href="namespacesll__m__pastix.html#ac1e1c76e966cfdba493b7dc5655605ec" target="_top" xlink:title=" ">
<polygon fill="white" stroke="black" points="177.5,-49.5 177.5,-79.5 287.5,-79.5 287.5,-49.5 177.5,-49.5"/>
<text text-anchor="start" x="185.5" y="-67.5" font-family="Helvetica,sans-Serif" font-size="10.00">sll_m_pastix::solve</text>
<text text-anchor="middle" x="232.5" y="-56.5" font-family="Helvetica,sans-Serif" font-size="10.00">_pastix_with_rhs</text>
</a>
</g>
</g>
<!-- Node3&#45;&gt;Node12 -->
<g id="edge11" class="edge">
<title>Node3&#45;&gt;Node12</title>
<path fill="none" stroke="midnightblue" d="M346.05,-144.16C335.75,-127.56 318.59,-103.48 298,-88.5 293.36,-85.13 288.2,-82.17 282.86,-79.6"/>
<polygon fill="midnightblue" stroke="midnightblue" points="343.16,-146.16 351.29,-152.95 349.17,-142.57 343.16,-146.16"/>
</g>
<!-- Node13 -->
<g id="node13" class="node">
<title>Node13</title>
<g id="a_node13"><a xlink:href="namespacesll__m__pastix.html#aa5bc41bb3cbc9eeb04aa1115e210d3cf" target="_top" xlink:title=" ">
<polygon fill="white" stroke="black" points="175.5,-0.5 175.5,-30.5 289.5,-30.5 289.5,-0.5 175.5,-0.5"/>
<text text-anchor="start" x="183.5" y="-18.5" font-family="Helvetica,sans-Serif" font-size="10.00">sll_m_pastix::solve</text>
<text text-anchor="middle" x="232.5" y="-7.5" font-family="Helvetica,sans-Serif" font-size="10.00">_pastix_without_rhs</text>
</a>
</g>
</g>
<!-- Node3&#45;&gt;Node13 -->
<g id="edge12" class="edge">
<title>Node3&#45;&gt;Node13</title>
<path fill="none" stroke="midnightblue" d="M352.11,-142.91C345.11,-116.04 328.96,-67.86 298,-39.5 294.3,-36.11 290.08,-33.19 285.6,-30.67"/>
<polygon fill="midnightblue" stroke="midnightblue" points="348.72,-143.81 354.49,-152.7 355.52,-142.15 348.72,-143.81"/>
</g>
<!-- Node5 -->
<g id="node5" class="node">
<title>Node5</title>
<g id="a_node5"><a xlink:href="namespacesll__m__lobatto__poisson.html#a9c5866187baac222bbdcdb355c578fcb" target="_top" xlink:title=" ">
<polygon fill="white" stroke="black" points="0,-300.5 0,-330.5 131,-330.5 131,-300.5 0,-300.5"/>
<text text-anchor="start" x="8" y="-318.5" font-family="Helvetica,sans-Serif" font-size="10.00">sll_m_lobatto_poisson</text>
<text text-anchor="middle" x="65.5" y="-307.5" font-family="Helvetica,sans-Serif" font-size="10.00">::solve_lobatto_poisson</text>
</a>
</g>
</g>
<!-- Node4&#45;&gt;Node5 -->
<g id="edge4" class="edge">
<title>Node4&#45;&gt;Node5</title>
<path fill="none" stroke="midnightblue" d="M171.67,-313.59C158.53,-313.83 144.57,-314.08 131.25,-314.32"/>
<polygon fill="midnightblue" stroke="midnightblue" points="172.06,-317.08 181.99,-313.4 171.93,-310.08 172.06,-317.08"/>
</g>
<!-- Node7 -->
<g id="node7" class="node">
<title>Node7</title>
<g id="a_node7"><a xlink:href="namespacesll__m__lobatto__poisson.html#ade8d9828f8cfb56297d7d3ca1c09809e" target="_top" xlink:title=" ">
<polygon fill="white" stroke="black" points="3,-240 3,-281 128,-281 128,-240 3,-240"/>
<text text-anchor="start" x="11" y="-269" font-family="Helvetica,sans-Serif" font-size="10.00">sll_m_lobatto_poisson</text>
<text text-anchor="start" x="11" y="-258" font-family="Helvetica,sans-Serif" font-size="10.00">::initialize_lobatto</text>
<text text-anchor="middle" x="65.5" y="-247" font-family="Helvetica,sans-Serif" font-size="10.00">_poisson</text>
</a>
</g>
</g>
<!-- Node6&#45;&gt;Node7 -->
<g id="edge6" class="edge">
<title>Node6&#45;&gt;Node7</title>
<path fill="none" stroke="midnightblue" d="M171.87,-260.5C157.69,-260.5 142.53,-260.5 128.25,-260.5"/>
<polygon fill="midnightblue" stroke="midnightblue" points="171.99,-264 181.99,-260.5 171.99,-257 171.99,-264"/>
</g>
<!-- Node9 -->
<g id="node9" class="node">
<title>Node9</title>
<g id="a_node9"><a xlink:href="namespacesll__m__qn__2d__polar.html#aee9a3432a9b69122fcb85403b3960ca6" target="_top" xlink:title=" ">
<polygon fill="white" stroke="black" points="8.5,-180 8.5,-221 122.5,-221 122.5,-180 8.5,-180"/>
<text text-anchor="start" x="16.5" y="-209" font-family="Helvetica,sans-Serif" font-size="10.00">sll_m_qn_2d_polar::</text>
<text text-anchor="start" x="16.5" y="-198" font-family="Helvetica,sans-Serif" font-size="10.00">test_solve_circulant</text>
<text text-anchor="middle" x="65.5" y="-187" font-family="Helvetica,sans-Serif" font-size="10.00">_system</text>
</a>
</g>
</g>
<!-- Node8&#45;&gt;Node9 -->
<g id="edge8" class="edge">
<title>Node8&#45;&gt;Node9</title>
<path fill="none" stroke="midnightblue" d="M156.44,-206.5C145.11,-205.74 133.6,-204.97 122.76,-204.25"/>
<polygon fill="midnightblue" stroke="midnightblue" points="156.55,-210.01 166.76,-207.18 157.02,-203.03 156.55,-210.01"/>
</g>
</g>
</svg>
