<?xml version="1.0" encoding="UTF-8" standalone="no"?>
<!DOCTYPE svg PUBLIC "-//W3C//DTD SVG 1.1//EN"
 "http://www.w3.org/Graphics/SVG/1.1/DTD/svg11.dtd">
<!-- Generated by graphviz version 2.40.1 (20161225.0304)
 -->
<!-- Title: sol Pages: 1 -->
<svg width="373pt" height="296pt"
 viewBox="0.00 0.00 373.00 295.50" xmlns="http://www.w3.org/2000/svg" xmlns:xlink="http://www.w3.org/1999/xlink">
<g id="graph0" class="graph" transform="scale(1 1) rotate(0) translate(4 291.5)">
<title>sol</title>
<polygon fill="#ffffff" stroke="transparent" points="-4,4 -4,-291.5 369,-291.5 369,4 -4,4"/>
<!-- Node15 -->
<g id="node1" class="node">
<title>Node15</title>
<polygon fill="#bfbfbf" stroke="#000000" points="0,-128 0,-147 31,-147 31,-128 0,-128"/>
<text text-anchor="middle" x="15.5" y="-135" font-family="Helvetica,sans-Serif" font-size="10.00" fill="#000000">sol</text>
</g>
<!-- Node16 -->
<g id="node2" class="node">
<title>Node16</title>
<g id="a_node2"><a xlink:href="namespacesll__m__lobalap.html#a39ed223152db8fd09d58d455f85e6232" target="_top" xlink:title="sll_m_lobalap::sll\l_s_computelu">
<polygon fill="#ffffff" stroke="#000000" points="82,-248.5 82,-278.5 183,-278.5 183,-248.5 82,-248.5"/>
<text text-anchor="start" x="90" y="-266.5" font-family="Helvetica,sans-Serif" font-size="10.00" fill="#000000">sll_m_lobalap::sll</text>
<text text-anchor="middle" x="132.5" y="-255.5" font-family="Helvetica,sans-Serif" font-size="10.00" fill="#000000">_s_computelu</text>
</a>
</g>
</g>
<!-- Node15&#45;&gt;Node16 -->
<g id="edge1" class="edge">
<title>Node15&#45;&gt;Node16</title>
<path fill="none" stroke="#191970" d="M21.1029,-156.8922C28.3694,-178.898 43.0342,-214.5707 67,-236.5 72.1723,-241.2328 78.2886,-245.1966 84.6719,-248.4991"/>
<polygon fill="#191970" stroke="#191970" points="24.3521,-155.5535 18.0441,-147.0411 17.6669,-157.6292 24.3521,-155.5535"/>
</g>
<!-- Node18 -->
<g id="node4" class="node">
<title>Node18</title>
<g id="a_node4"><a xlink:href="namespacesll__m__lobalap.html#aa106c71651d7e33a3104c8a62ca33666" target="_top" xlink:title="sll_m_lobalap::sll\l_s_compute_phi">
<polygon fill="#ffffff" stroke="#000000" points="82,-196.5 82,-226.5 183,-226.5 183,-196.5 82,-196.5"/>
<text text-anchor="start" x="90" y="-214.5" font-family="Helvetica,sans-Serif" font-size="10.00" fill="#000000">sll_m_lobalap::sll</text>
<text text-anchor="middle" x="132.5" y="-203.5" font-family="Helvetica,sans-Serif" font-size="10.00" fill="#000000">_s_compute_phi</text>
</a>
</g>
</g>
<!-- Node15&#45;&gt;Node18 -->
<g id="edge3" class="edge">
<title>Node15&#45;&gt;Node18</title>
<path fill="none" stroke="#191970" d="M30.5668,-154.9749C40.1625,-165.2512 53.326,-177.8781 67,-186.5 72.8686,-190.2004 79.3711,-193.4923 85.9342,-196.3743"/>
<polygon fill="#191970" stroke="#191970" points="32.9923,-152.4384 23.6945,-147.3588 27.7953,-157.1279 32.9923,-152.4384"/>
</g>
<!-- Node20 -->
<g id="node6" class="node">
<title>Node20</title>
<g id="a_node6"><a xlink:href="namespacesll__m__qn__2d__polar.html#aa95847c3b2595b8fe8221ed6e58caf9f" target="_top" xlink:title="sll_m_qn_2d_polar::\lsolve_circulant_system">
<polygon fill="#ffffff" stroke="#000000" points="67,-147.5 67,-177.5 198,-177.5 198,-147.5 67,-147.5"/>
<text text-anchor="start" x="75" y="-165.5" font-family="Helvetica,sans-Serif" font-size="10.00" fill="#000000">sll_m_qn_2d_polar::</text>
<text text-anchor="middle" x="132.5" y="-154.5" font-family="Helvetica,sans-Serif" font-size="10.00" fill="#000000">solve_circulant_system</text>
</a>
</g>
</g>
<!-- Node15&#45;&gt;Node20 -->
<g id="edge5" class="edge">
<title>Node15&#45;&gt;Node20</title>
<path fill="none" stroke="#191970" d="M41.3113,-143.0152C48.9941,-144.6569 57.7848,-146.5352 66.8073,-148.4631"/>
<polygon fill="#191970" stroke="#191970" points="41.7898,-139.5385 31.2791,-140.8716 40.327,-146.384 41.7898,-139.5385"/>
</g>
<!-- Node22 -->
<g id="node8" class="node">
<title>Node22</title>
<g id="a_node8"><a xlink:href="namespacesll__m__mumps.html#a60fc64f2a49ba61147cfee6857882cc1" target="_top" xlink:title="sll_m_mumps::solve\l_mumps_without_rhs">
<polygon fill="#ffffff" stroke="#000000" points="72,-98.5 72,-128.5 193,-128.5 193,-98.5 72,-98.5"/>
<text text-anchor="start" x="80" y="-116.5" font-family="Helvetica,sans-Serif" font-size="10.00" fill="#000000">sll_m_mumps::solve</text>
<text text-anchor="middle" x="132.5" y="-105.5" font-family="Helvetica,sans-Serif" font-size="10.00" fill="#000000">_mumps_without_rhs</text>
</a>
</g>
</g>
<!-- Node15&#45;&gt;Node22 -->
<g id="edge7" class="edge">
<title>Node15&#45;&gt;Node22</title>
<path fill="none" stroke="#191970" d="M41.1789,-132.2325C50.3037,-130.3608 61.0035,-128.166 71.8032,-125.9506"/>
<polygon fill="#191970" stroke="#191970" points="40.3718,-128.8251 31.2791,-134.2633 41.7785,-135.6823 40.3718,-128.8251"/>
</g>
<!-- Node23 -->
<g id="node9" class="node">
<title>Node23</title>
<g id="a_node9"><a xlink:href="namespacesll__m__pastix.html#aa5bc41bb3cbc9eeb04aa1115e210d3cf" target="_top" xlink:title="sll_m_pastix::solve\l_pastix_without_rhs">
<polygon fill="#ffffff" stroke="#000000" points="75.5,-49.5 75.5,-79.5 189.5,-79.5 189.5,-49.5 75.5,-49.5"/>
<text text-anchor="start" x="83.5" y="-67.5" font-family="Helvetica,sans-Serif" font-size="10.00" fill="#000000">sll_m_pastix::solve</text>
<text text-anchor="middle" x="132.5" y="-56.5" font-family="Helvetica,sans-Serif" font-size="10.00" fill="#000000">_pastix_without_rhs</text>
</a>
</g>
</g>
<!-- Node15&#45;&gt;Node23 -->
<g id="edge8" class="edge">
<title>Node15&#45;&gt;Node23</title>
<path fill="none" stroke="#191970" d="M30.181,-120.3307C39.7893,-109.9641 53.1032,-97.1329 67,-88.5 72.3495,-85.1768 78.2282,-82.2135 84.2005,-79.6008"/>
<polygon fill="#191970" stroke="#191970" points="27.3886,-118.2026 23.3293,-127.989 32.6055,-122.87 27.3886,-118.2026"/>
</g>
<!-- Node24 -->
<g id="node10" class="node">
<title>Node24</title>
<g id="a_node10"><a xlink:href="namespacesll__m__pastix.html#ac1e1c76e966cfdba493b7dc5655605ec" target="_top" xlink:title="sll_m_pastix::solve\l_pastix_with_rhs">
<polygon fill="#ffffff" stroke="#000000" points="77.5,-.5 77.5,-30.5 187.5,-30.5 187.5,-.5 77.5,-.5"/>
<text text-anchor="start" x="85.5" y="-18.5" font-family="Helvetica,sans-Serif" font-size="10.00" fill="#000000">sll_m_pastix::solve</text>
<text text-anchor="middle" x="132.5" y="-7.5" font-family="Helvetica,sans-Serif" font-size="10.00" fill="#000000">_pastix_with_rhs</text>
</a>
</g>
</g>
<!-- Node15&#45;&gt;Node24 -->
<g id="edge9" class="edge">
<title>Node15&#45;&gt;Node24</title>
<path fill="none" stroke="#191970" d="M21.0022,-118.1322C28.1749,-96.1888 42.7523,-60.7276 67,-39.5 70.9183,-36.0697 75.3683,-33.1147 80.0608,-30.572"/>
<polygon fill="#191970" stroke="#191970" points="17.5733,-117.3761 17.9899,-127.9628 24.2661,-119.427 17.5733,-117.3761"/>
</g>
<!-- Node17 -->
<g id="node3" class="node">
<title>Node17</title>
<g id="a_node3"><a xlink:href="namespacesll__m__lobatto__poisson.html#ade8d9828f8cfb56297d7d3ca1c09809e" target="_top" xlink:title="sll_m_lobatto_poisson\l::initialize_lobatto\l_poisson">
<polygon fill="#ffffff" stroke="#000000" points="237,-246 237,-287 362,-287 362,-246 237,-246"/>
<text text-anchor="start" x="245" y="-275" font-family="Helvetica,sans-Serif" font-size="10.00" fill="#000000">sll_m_lobatto_poisson</text>
<text text-anchor="start" x="245" y="-264" font-family="Helvetica,sans-Serif" font-size="10.00" fill="#000000">::initialize_lobatto</text>
<text text-anchor="middle" x="299.5" y="-253" font-family="Helvetica,sans-Serif" font-size="10.00" fill="#000000">_poisson</text>
</a>
</g>
</g>
<!-- Node16&#45;&gt;Node17 -->
<g id="edge2" class="edge">
<title>Node16&#45;&gt;Node17</title>
<path fill="none" stroke="#191970" d="M193.1782,-264.59C207.3414,-264.8445 222.4535,-265.1159 236.7065,-265.372"/>
<polygon fill="#191970" stroke="#191970" points="193.12,-261.0885 183.0587,-264.4082 192.9942,-268.0874 193.12,-261.0885"/>
</g>
<!-- Node19 -->
<g id="node5" class="node">
<title>Node19</title>
<g id="a_node5"><a xlink:href="namespacesll__m__lobatto__poisson.html#a9c5866187baac222bbdcdb355c578fcb" target="_top" xlink:title="sll_m_lobatto_poisson\l::solve_lobatto_poisson">
<polygon fill="#ffffff" stroke="#000000" points="234,-196.5 234,-226.5 365,-226.5 365,-196.5 234,-196.5"/>
<text text-anchor="start" x="242" y="-214.5" font-family="Helvetica,sans-Serif" font-size="10.00" fill="#000000">sll_m_lobatto_poisson</text>
<text text-anchor="middle" x="299.5" y="-203.5" font-family="Helvetica,sans-Serif" font-size="10.00" fill="#000000">::solve_lobatto_poisson</text>
</a>
</g>
</g>
<!-- Node18&#45;&gt;Node19 -->
<g id="edge4" class="edge">
<title>Node18&#45;&gt;Node19</title>
<path fill="none" stroke="#191970" d="M193.4338,-211.5C206.6224,-211.5 220.623,-211.5 233.9793,-211.5"/>
<polygon fill="#191970" stroke="#191970" points="193.0587,-208.0001 183.0587,-211.5 193.0587,-215.0001 193.0587,-208.0001"/>
</g>
<!-- Node21 -->
<g id="node7" class="node">
<title>Node21</title>
<g id="a_node7"><a xlink:href="namespacesll__m__qn__2d__polar.html#aee9a3432a9b69122fcb85403b3960ca6" target="_top" xlink:title="sll_m_qn_2d_polar::\ltest_solve_circulant\l_system">
<polygon fill="#ffffff" stroke="#000000" points="242.5,-136 242.5,-177 356.5,-177 356.5,-136 242.5,-136"/>
<text text-anchor="start" x="250.5" y="-165" font-family="Helvetica,sans-Serif" font-size="10.00" fill="#000000">sll_m_qn_2d_polar::</text>
<text text-anchor="start" x="250.5" y="-154" font-family="Helvetica,sans-Serif" font-size="10.00" fill="#000000">test_solve_circulant</text>
<text text-anchor="middle" x="299.5" y="-143" font-family="Helvetica,sans-Serif" font-size="10.00" fill="#000000">_system</text>
</a>
</g>
</g>
<!-- Node20&#45;&gt;Node21 -->
<g id="edge6" class="edge">
<title>Node20&#45;&gt;Node21</title>
<path fill="none" stroke="#191970" d="M208.0576,-159.7854C219.5605,-159.3721 231.2662,-158.9515 242.2909,-158.5554"/>
<polygon fill="#191970" stroke="#191970" points="207.8914,-156.289 198.0235,-160.1459 208.1428,-163.2845 207.8914,-156.289"/>
</g>
</g>
</svg>
