<?xml version="1.0" encoding="UTF-8" standalone="no"?>
<!DOCTYPE svg PUBLIC "-//W3C//DTD SVG 1.1//EN"
 "http://www.w3.org/Graphics/SVG/1.1/DTD/svg11.dtd">
<!-- Generated by graphviz version 2.43.0 (0)
 -->
<!-- Title: sll_t_time_propagator_pic_vm_1d2v_helper Pages: 1 -->
<svg width="1164pt" height="799pt"
 viewBox="0.00 0.00 1164.00 798.58" xmlns="http://www.w3.org/2000/svg" xmlns:xlink="http://www.w3.org/1999/xlink">
<g id="graph0" class="graph" transform="scale(1 1) rotate(0) translate(4 794.58)">
<title>sll_t_time_propagator_pic_vm_1d2v_helper</title>
<polygon fill="white" stroke="transparent" points="-4,4 -4,-794.58 1160,-794.58 1160,4 -4,4"/>
<!-- Node1 -->
<g id="node1" class="node">
<title>Node1</title>
<g id="a_node1"><a xlink:title="Hamiltonian splitting type for Vlasov&#45;Maxwell 1d2v.">
<polygon fill="#bfbfbf" stroke="black" points="1033,-271.58 1033,-301.58 1156,-301.58 1156,-271.58 1033,-271.58"/>
<text text-anchor="start" x="1041" y="-289.58" font-family="Helvetica,sans-Serif" font-size="10.00">sll_t_time_propagator</text>
<text text-anchor="middle" x="1094.5" y="-278.58" font-family="Helvetica,sans-Serif" font-size="10.00">_pic_vm_1d2v_helper</text>
</a>
</g>
</g>
<!-- Node2 -->
<g id="node2" class="node">
<title>Node2</title>
<g id="a_node2"><a xlink:title=" ">
<polygon fill="white" stroke="#bfbfbf" points="27,-397.08 27,-416.08 76,-416.08 76,-397.08 27,-397.08"/>
<text text-anchor="middle" x="51.5" y="-404.08" font-family="Helvetica,sans-Serif" font-size="10.00">logical</text>
</a>
</g>
</g>
<!-- Node2&#45;&gt;Node1 -->
<g id="edge1" class="edge">
<title>Node2&#45;&gt;Node1</title>
<path fill="none" stroke="#9a32cd" stroke-dasharray="5,2" d="M55.06,-426.49C60.89,-465.27 78.09,-552.23 121,-610.58 172.2,-680.2 192.09,-724.58 278.5,-724.58 278.5,-724.58 278.5,-724.58 798,-724.58 1006.68,-724.58 1077.83,-378.68 1091.09,-301.66"/>
<polygon fill="#9a32cd" stroke="#9a32cd" points="58.52,-425.9 53.66,-416.49 51.58,-426.88 58.52,-425.9"/>
<text text-anchor="middle" x="541" y="-782.58" font-family="Helvetica,sans-Serif" font-size="10.00"> adiabatic_electrons</text>
<text text-anchor="middle" x="541" y="-771.58" font-family="Helvetica,sans-Serif" font-size="10.00">boundary</text>
<text text-anchor="start" x="491.5" y="-760.58" font-family="Helvetica,sans-Serif" font-size="10.00">build_particle_mass</text>
<text text-anchor="middle" x="541" y="-749.58" font-family="Helvetica,sans-Serif" font-size="10.00">_loc</text>
<text text-anchor="middle" x="541" y="-738.58" font-family="Helvetica,sans-Serif" font-size="10.00">jmean</text>
<text text-anchor="middle" x="541" y="-727.58" font-family="Helvetica,sans-Serif" font-size="10.00">smooth</text>
</g>
<!-- Node4 -->
<g id="node4" class="node">
<title>Node4</title>
<g id="a_node4"><a xlink:href="structsll__m__linear__operator__abstract_1_1sll__t__linear__operator__abstract.html" target="_top" xlink:title="class for abstract linear operator">
<polygon fill="white" stroke="black" points="221.5,-530.58 221.5,-560.58 337.5,-560.58 337.5,-530.58 221.5,-530.58"/>
<text text-anchor="start" x="229.5" y="-548.58" font-family="Helvetica,sans-Serif" font-size="10.00">sll_t_linear_operator</text>
<text text-anchor="middle" x="279.5" y="-537.58" font-family="Helvetica,sans-Serif" font-size="10.00">_abstract</text>
</a>
</g>
</g>
<!-- Node2&#45;&gt;Node4 -->
<g id="edge4" class="edge">
<title>Node2&#45;&gt;Node4</title>
<path fill="none" stroke="#9a32cd" stroke-dasharray="5,2" d="M55.97,-426.3C62.55,-457.09 80.03,-515.71 121,-541.58 150.37,-560.13 189.36,-561.26 221.2,-557.69"/>
<polygon fill="#9a32cd" stroke="#9a32cd" points="59.37,-425.47 54.01,-416.33 52.5,-426.82 59.37,-425.47"/>
<text text-anchor="middle" x="156" y="-561.58" font-family="Helvetica,sans-Serif" font-size="10.00"> is_allocated</text>
</g>
<!-- Node13 -->
<g id="node13" class="node">
<title>Node13</title>
<g id="a_node13"><a xlink:href="structsll__m__linear__solver__iter__abstract_1_1sll__t__linear__solver__iter__abstract.html" target="_top" xlink:title="class for abstract iterative linear solver">
<polygon fill="white" stroke="black" points="488.5,-197.58 488.5,-227.58 593.5,-227.58 593.5,-197.58 488.5,-197.58"/>
<text text-anchor="start" x="496.5" y="-215.58" font-family="Helvetica,sans-Serif" font-size="10.00">sll_t_linear_solver</text>
<text text-anchor="middle" x="541" y="-204.58" font-family="Helvetica,sans-Serif" font-size="10.00">_iter_abstract</text>
</a>
</g>
</g>
<!-- Node2&#45;&gt;Node13 -->
<g id="edge19" class="edge">
<title>Node2&#45;&gt;Node13</title>
<path fill="none" stroke="#9a32cd" stroke-dasharray="5,2" d="M79.01,-392.12C109.61,-375.88 161.8,-349.59 209,-332.58 236.66,-322.61 438.39,-278.08 465,-265.58 486.21,-255.61 507.79,-239.62 522.33,-227.8"/>
<polygon fill="#9a32cd" stroke="#9a32cd" points="77.03,-389.21 69.87,-397.01 80.33,-395.38 77.03,-389.21"/>
<text text-anchor="middle" x="279.5" y="-335.58" font-family="Helvetica,sans-Serif" font-size="10.00"> null_space</text>
</g>
<!-- Node14 -->
<g id="node14" class="node">
<title>Node14</title>
<g id="a_node14"><a xlink:href="structsll__m__linear__solver__abstract_1_1sll__t__linear__solver__abstract.html" target="_top" xlink:title="class for abstract linear solver">
<polygon fill="white" stroke="black" points="227,-146.58 227,-176.58 332,-176.58 332,-146.58 227,-146.58"/>
<text text-anchor="start" x="235" y="-164.58" font-family="Helvetica,sans-Serif" font-size="10.00">sll_t_linear_solver</text>
<text text-anchor="middle" x="279.5" y="-153.58" font-family="Helvetica,sans-Serif" font-size="10.00">_abstract</text>
</a>
</g>
</g>
<!-- Node2&#45;&gt;Node14 -->
<g id="edge17" class="edge">
<title>Node2&#45;&gt;Node14</title>
<path fill="none" stroke="#9a32cd" stroke-dasharray="5,2" d="M69.32,-389.23C80.18,-377.23 93.94,-360.43 103,-343.58 115.38,-320.56 103.63,-307.12 121,-287.58 143.72,-262.01 169,-281.78 191,-255.58 211.38,-231.31 187.62,-209.98 209,-186.58 213.93,-181.19 220.11,-176.95 226.74,-173.63"/>
<polygon fill="#9a32cd" stroke="#9a32cd" points="66.6,-387.01 62.35,-396.72 71.72,-391.78 66.6,-387.01"/>
<text text-anchor="middle" x="156" y="-301.58" font-family="Helvetica,sans-Serif" font-size="10.00"> is_allocated</text>
<text text-anchor="middle" x="156" y="-290.58" font-family="Helvetica,sans-Serif" font-size="10.00">verbose</text>
</g>
<!-- Node3 -->
<g id="node3" class="node">
<title>Node3</title>
<g id="a_node3"><a xlink:href="structsll__m__linear__operator__schur__phiv__1d_1_1sll__t__linear__operator__schur__phiv__1d.html" target="_top" xlink:title=" ">
<polygon fill="white" stroke="black" points="483,-439.58 483,-469.58 599,-469.58 599,-439.58 483,-439.58"/>
<text text-anchor="start" x="491" y="-457.58" font-family="Helvetica,sans-Serif" font-size="10.00">sll_t_linear_operator</text>
<text text-anchor="middle" x="541" y="-446.58" font-family="Helvetica,sans-Serif" font-size="10.00">_schur_phiv_1d</text>
</a>
</g>
</g>
<!-- Node3&#45;&gt;Node1 -->
<g id="edge2" class="edge">
<title>Node3&#45;&gt;Node1</title>
<path fill="none" stroke="#9a32cd" stroke-dasharray="5,2" d="M609.24,-470.57C611.85,-470.96 614.45,-471.3 617,-471.58 653.66,-475.68 663.38,-476.05 700,-471.58 843.17,-454.12 895.18,-473.86 1015,-393.58 1050.22,-369.99 1075.36,-325.03 1086.72,-301.61"/>
<polygon fill="#9a32cd" stroke="#9a32cd" points="609.54,-467.08 599.1,-468.9 608.4,-473.98 609.54,-467.08"/>
<text text-anchor="middle" x="797" y="-471.58" font-family="Helvetica,sans-Serif" font-size="10.00"> linear_op_schur_phiv</text>
</g>
<!-- Node4&#45;&gt;Node3 -->
<g id="edge3" class="edge">
<title>Node4&#45;&gt;Node3</title>
<path fill="none" stroke="midnightblue" d="M324.38,-525.65C333.38,-520.48 342.41,-514.41 350,-507.58 360.45,-498.18 356.1,-489.05 368,-481.58 386.75,-469.81 440.37,-462.67 482.81,-458.71"/>
<polygon fill="midnightblue" stroke="midnightblue" points="322.55,-522.66 315.44,-530.51 325.9,-528.8 322.55,-522.66"/>
</g>
<!-- Node21 -->
<g id="node21" class="node">
<title>Node21</title>
<g id="a_node21"><a xlink:href="structsll__m__linear__operator__schur__ev__1d_1_1sll__t__linear__operator__schur__ev__1d.html" target="_top" xlink:title=" ">
<polygon fill="white" stroke="black" points="483,-566.58 483,-596.58 599,-596.58 599,-566.58 483,-566.58"/>
<text text-anchor="start" x="491" y="-584.58" font-family="Helvetica,sans-Serif" font-size="10.00">sll_t_linear_operator</text>
<text text-anchor="middle" x="541" y="-573.58" font-family="Helvetica,sans-Serif" font-size="10.00">_schur_ev_1d</text>
</a>
</g>
</g>
<!-- Node4&#45;&gt;Node21 -->
<g id="edge30" class="edge">
<title>Node4&#45;&gt;Node21</title>
<path fill="none" stroke="midnightblue" d="M319.38,-564.76C334.22,-571.11 351.54,-577.36 368,-580.58 405.81,-587.98 449.18,-588.17 482.92,-586.55"/>
<polygon fill="midnightblue" stroke="midnightblue" points="320.58,-561.47 310.02,-560.61 317.74,-567.86 320.58,-561.47"/>
</g>
<!-- Node5 -->
<g id="node5" class="node">
<title>Node5</title>
<g id="a_node5"><a xlink:title=" ">
<polygon fill="white" stroke="#bfbfbf" points="0,-315.08 0,-334.08 103,-334.08 103,-315.08 0,-315.08"/>
<text text-anchor="middle" x="51.5" y="-322.08" font-family="Helvetica,sans-Serif" font-size="10.00">integer(kind=i32)</text>
</a>
</g>
</g>
<!-- Node5&#45;&gt;Node1 -->
<g id="edge25" class="edge">
<title>Node5&#45;&gt;Node1</title>
<path fill="none" stroke="#9a32cd" stroke-dasharray="5,2" d="M52.15,-304.6C52.42,-257.8 59.54,-139.87 121,-71.58 171.22,-15.79 203.43,-10.58 278.5,-10.58 278.5,-10.58 278.5,-10.58 798,-10.58 895.13,-10.58 940.26,25.46 1015,-36.58 1088.68,-97.75 1094.27,-227.36 1093.92,-271.49"/>
<polygon fill="#9a32cd" stroke="#9a32cd" points="48.65,-304.91 52.2,-314.9 55.65,-304.88 48.65,-304.91"/>
<text text-anchor="middle" x="541" y="-123.58" font-family="Helvetica,sans-Serif" font-size="10.00"> boundary_particles</text>
<text text-anchor="middle" x="541" y="-112.58" font-family="Helvetica,sans-Serif" font-size="10.00">counter_left</text>
<text text-anchor="middle" x="541" y="-101.58" font-family="Helvetica,sans-Serif" font-size="10.00">counter_right</text>
<text text-anchor="middle" x="541" y="-90.58" font-family="Helvetica,sans-Serif" font-size="10.00">eval_counter</text>
<text text-anchor="middle" x="541" y="-79.58" font-family="Helvetica,sans-Serif" font-size="10.00">i_weight</text>
<text text-anchor="middle" x="541" y="-68.58" font-family="Helvetica,sans-Serif" font-size="10.00">iter_counter</text>
<text text-anchor="middle" x="541" y="-57.58" font-family="Helvetica,sans-Serif" font-size="10.00">max_iter</text>
<text text-anchor="middle" x="541" y="-46.58" font-family="Helvetica,sans-Serif" font-size="10.00">max_iter_sub</text>
<text text-anchor="middle" x="541" y="-35.58" font-family="Helvetica,sans-Serif" font-size="10.00">n_cells</text>
<text text-anchor="middle" x="541" y="-24.58" font-family="Helvetica,sans-Serif" font-size="10.00">n_dofs0</text>
<text text-anchor="middle" x="541" y="-13.58" font-family="Helvetica,sans-Serif" font-size="10.00">...</text>
</g>
<!-- Node5&#45;&gt;Node3 -->
<g id="edge7" class="edge">
<title>Node5&#45;&gt;Node3</title>
<path fill="none" stroke="#9a32cd" stroke-dasharray="5,2" d="M84.72,-337.96C116.04,-350.57 165.15,-369.31 209,-381.58 320.72,-412.86 352.34,-404.89 465,-432.58 473.43,-434.65 482.34,-437.07 490.95,-439.52"/>
<polygon fill="#9a32cd" stroke="#9a32cd" points="85.79,-334.62 75.21,-334.1 83.16,-341.1 85.79,-334.62"/>
<text text-anchor="middle" x="279.5" y="-434.58" font-family="Helvetica,sans-Serif" font-size="10.00"> degree</text>
<text text-anchor="middle" x="279.5" y="-423.58" font-family="Helvetica,sans-Serif" font-size="10.00">n_dofs0</text>
<text text-anchor="middle" x="279.5" y="-412.58" font-family="Helvetica,sans-Serif" font-size="10.00">n_dofs1</text>
</g>
<!-- Node5&#45;&gt;Node4 -->
<g id="edge5" class="edge">
<title>Node5&#45;&gt;Node4</title>
<path fill="none" stroke="#9a32cd" stroke-dasharray="5,2" d="M67.87,-342.15C78.32,-354.47 92.16,-371.54 103,-387.58 112.13,-401.1 108.13,-409.55 121,-419.58 146.43,-439.39 168.32,-415.67 191,-438.58 213.3,-461.1 189.5,-482.6 209,-507.58 216.53,-517.23 227.23,-524.76 237.97,-530.48"/>
<polygon fill="#9a32cd" stroke="#9a32cd" points="70.42,-339.75 61.25,-334.45 65.12,-344.31 70.42,-339.75"/>
<text text-anchor="middle" x="156" y="-529.58" font-family="Helvetica,sans-Serif" font-size="10.00"> id_cols</text>
<text text-anchor="middle" x="156" y="-518.58" font-family="Helvetica,sans-Serif" font-size="10.00">id_rows</text>
<text text-anchor="middle" x="156" y="-507.58" font-family="Helvetica,sans-Serif" font-size="10.00">n_block_cols</text>
<text text-anchor="middle" x="156" y="-496.58" font-family="Helvetica,sans-Serif" font-size="10.00">n_block_rows</text>
<text text-anchor="middle" x="156" y="-485.58" font-family="Helvetica,sans-Serif" font-size="10.00">n_cols</text>
<text text-anchor="middle" x="156" y="-474.58" font-family="Helvetica,sans-Serif" font-size="10.00">n_dof</text>
<text text-anchor="middle" x="156" y="-463.58" font-family="Helvetica,sans-Serif" font-size="10.00">n_global_cols</text>
<text text-anchor="middle" x="156" y="-452.58" font-family="Helvetica,sans-Serif" font-size="10.00">n_global_rows</text>
<text text-anchor="middle" x="156" y="-441.58" font-family="Helvetica,sans-Serif" font-size="10.00">n_rows</text>
</g>
<!-- Node5&#45;&gt;Node13 -->
<g id="edge20" class="edge">
<title>Node5&#45;&gt;Node13</title>
<path fill="none" stroke="#9a32cd" stroke-dasharray="5,2" d="M56.4,-305.03C68.15,-252.38 108.76,-108.73 209,-65.58 316.25,-19.41 373.44,-52.12 465,-124.58 492.07,-146.01 516.62,-178.37 529.82,-197.3"/>
<polygon fill="#9a32cd" stroke="#9a32cd" points="52.98,-304.3 54.32,-314.81 59.83,-305.76 52.98,-304.3"/>
<text text-anchor="middle" x="279.5" y="-68.58" font-family="Helvetica,sans-Serif" font-size="10.00"> n_maxiter</text>
</g>
<!-- Node5&#45;&gt;Node14 -->
<g id="edge18" class="edge">
<title>Node5&#45;&gt;Node14</title>
<path fill="none" stroke="#9a32cd" stroke-dasharray="5,2" d="M56.65,-304.74C64.04,-274.71 82.45,-218.2 121,-189.58 151.22,-167.15 193.57,-160.62 226.75,-159.44"/>
<polygon fill="#9a32cd" stroke="#9a32cd" points="53.16,-304.31 54.34,-314.84 59.99,-305.87 53.16,-304.31"/>
<text text-anchor="middle" x="156" y="-247.58" font-family="Helvetica,sans-Serif" font-size="10.00"> n_cols</text>
<text text-anchor="middle" x="156" y="-236.58" font-family="Helvetica,sans-Serif" font-size="10.00">n_global_cols</text>
<text text-anchor="middle" x="156" y="-225.58" font-family="Helvetica,sans-Serif" font-size="10.00">n_global_rows</text>
<text text-anchor="middle" x="156" y="-214.58" font-family="Helvetica,sans-Serif" font-size="10.00">n_rows</text>
<text text-anchor="middle" x="156" y="-203.58" font-family="Helvetica,sans-Serif" font-size="10.00">n_total_cols</text>
<text text-anchor="middle" x="156" y="-192.58" font-family="Helvetica,sans-Serif" font-size="10.00">n_total_rows</text>
</g>
<!-- Node5&#45;&gt;Node21 -->
<g id="edge32" class="edge">
<title>Node5&#45;&gt;Node21</title>
<path fill="none" stroke="#9a32cd" stroke-dasharray="5,2" d="M70.94,-341.78C82.25,-353.52 95.88,-370.07 103,-387.58 134.28,-464.52 76.7,-503.33 121,-573.58 145.35,-612.2 165.01,-614.36 209,-626.58 318.63,-657.04 355.31,-654.82 465,-624.58 485.26,-619 505.79,-606.66 520.24,-596.63"/>
<polygon fill="#9a32cd" stroke="#9a32cd" points="73.15,-339.04 63.59,-334.47 68.21,-344.01 73.15,-339.04"/>
<text text-anchor="middle" x="279.5" y="-661.58" font-family="Helvetica,sans-Serif" font-size="10.00"> degree</text>
<text text-anchor="middle" x="279.5" y="-650.58" font-family="Helvetica,sans-Serif" font-size="10.00">n_dofs</text>
</g>
<!-- Node6 -->
<g id="node6" class="node">
<title>Node6</title>
<g id="a_node6"><a xlink:title=" ">
<polygon fill="white" stroke="#bfbfbf" points="222.5,-586.58 222.5,-616.58 336.5,-616.58 336.5,-586.58 222.5,-586.58"/>
<text text-anchor="start" x="230.5" y="-604.58" font-family="Helvetica,sans-Serif" font-size="10.00">class(sll_c_maxwell</text>
<text text-anchor="middle" x="279.5" y="-593.58" font-family="Helvetica,sans-Serif" font-size="10.00">_1d_base), pointer</text>
</a>
</g>
</g>
<!-- Node6&#45;&gt;Node1 -->
<g id="edge10" class="edge">
<title>Node6&#45;&gt;Node1</title>
<path fill="none" stroke="#9a32cd" stroke-dasharray="5,2" d="M338.64,-619.08C348.36,-621.37 358.4,-623.34 368,-624.58 410.76,-630.11 421.93,-626.57 465,-624.58 648.25,-616.13 704.33,-651.25 876,-586.58 947.46,-559.66 968.24,-545.95 1015,-485.58 1060.83,-426.42 1083.15,-337.1 1090.57,-301.75"/>
<polygon fill="#9a32cd" stroke="#9a32cd" points="339.21,-615.62 328.66,-616.61 337.52,-622.41 339.21,-615.62"/>
<text text-anchor="middle" x="658.5" y="-629.58" font-family="Helvetica,sans-Serif" font-size="10.00"> maxwell_solver</text>
</g>
<!-- Node6&#45;&gt;Node3 -->
<g id="edge6" class="edge">
<title>Node6&#45;&gt;Node3</title>
<path fill="none" stroke="#9a32cd" stroke-dasharray="5,2" d="M338.27,-581.13C342.62,-578.07 346.62,-574.57 350,-570.58 370.49,-546.41 345.34,-523.74 368,-501.58 399.68,-470.6 422.31,-490.45 465,-478.58 474.75,-475.87 485.13,-472.72 494.96,-469.61"/>
<polygon fill="#9a32cd" stroke="#9a32cd" points="336.24,-578.28 329.56,-586.5 339.91,-584.23 336.24,-578.28"/>
<text text-anchor="middle" x="416.5" y="-504.58" font-family="Helvetica,sans-Serif" font-size="10.00"> maxwell_solver</text>
</g>
<!-- Node6&#45;&gt;Node21 -->
<g id="edge31" class="edge">
<title>Node6&#45;&gt;Node21</title>
<path fill="none" stroke="#9a32cd" stroke-dasharray="5,2" d="M346.74,-608.63C382.04,-610.97 426.1,-611.65 465,-605.58 476.89,-603.73 489.46,-600.31 500.85,-596.63"/>
<polygon fill="#9a32cd" stroke="#9a32cd" points="346.78,-605.12 336.55,-607.89 346.27,-612.1 346.78,-605.12"/>
<text text-anchor="middle" x="416.5" y="-612.58" font-family="Helvetica,sans-Serif" font-size="10.00"> maxwell_solver</text>
</g>
<!-- Node7 -->
<g id="node7" class="node">
<title>Node7</title>
<g id="a_node7"><a xlink:title=" ">
<polygon fill="white" stroke="#bfbfbf" points="210.5,-467.58 210.5,-497.58 348.5,-497.58 348.5,-467.58 210.5,-467.58"/>
<text text-anchor="start" x="218.5" y="-485.58" font-family="Helvetica,sans-Serif" font-size="10.00">class(sll_c_particle</text>
<text text-anchor="middle" x="279.5" y="-474.58" font-family="Helvetica,sans-Serif" font-size="10.00">_mass_1d_base), pointer</text>
</a>
</g>
</g>
<!-- Node7&#45;&gt;Node3 -->
<g id="edge8" class="edge">
<title>Node7&#45;&gt;Node3</title>
<path fill="none" stroke="#9a32cd" stroke-dasharray="5,2" d="M315.14,-462.59C330.76,-454.69 349.75,-446.55 368,-442.58 405.73,-434.37 449.11,-437.48 482.87,-442.59"/>
<polygon fill="#9a32cd" stroke="#9a32cd" points="313.13,-459.69 305.9,-467.44 316.38,-465.89 313.13,-459.69"/>
<text text-anchor="middle" x="416.5" y="-445.58" font-family="Helvetica,sans-Serif" font-size="10.00"> particle_mass</text>
</g>
<!-- Node7&#45;&gt;Node21 -->
<g id="edge33" class="edge">
<title>Node7&#45;&gt;Node21</title>
<path fill="none" stroke="#9a32cd" stroke-dasharray="5,2" d="M323.16,-502.65C332.53,-508.08 342.02,-514.46 350,-521.58 360.21,-530.7 356.5,-539.15 368,-546.58 370.5,-548.19 433.82,-560.84 482.91,-570.47"/>
<polygon fill="#9a32cd" stroke="#9a32cd" points="324.71,-499.51 314.27,-497.73 321.33,-505.63 324.71,-499.51"/>
<text text-anchor="middle" x="416.5" y="-568.58" font-family="Helvetica,sans-Serif" font-size="10.00"> particle_mass</text>
</g>
<!-- Node8 -->
<g id="node8" class="node">
<title>Node8</title>
<g id="a_node8"><a xlink:title=" ">
<polygon fill="white" stroke="#bfbfbf" points="235.5,-353.08 235.5,-372.08 323.5,-372.08 323.5,-353.08 235.5,-353.08"/>
<text text-anchor="middle" x="279.5" y="-360.08" font-family="Helvetica,sans-Serif" font-size="10.00">real(kind=f64)</text>
</a>
</g>
</g>
<!-- Node8&#45;&gt;Node1 -->
<g id="edge35" class="edge">
<title>Node8&#45;&gt;Node1</title>
<path fill="none" stroke="#9a32cd" stroke-dasharray="5,2" d="M333.7,-359.27C400.01,-355.32 516.82,-348.96 617,-346.58 653.88,-345.71 665.11,-334.61 700,-346.58 709.59,-349.87 708.41,-357.29 718,-360.58 784.42,-383.37 806.06,-366.82 876,-360.58 938.52,-355 956.43,-358.16 1015,-335.58 1036.59,-327.26 1058.73,-312.8 1073.97,-301.73"/>
<polygon fill="#9a32cd" stroke="#9a32cd" points="333.28,-355.79 323.5,-359.88 333.69,-362.78 333.28,-355.79"/>
<text text-anchor="middle" x="658.5" y="-459.58" font-family="Helvetica,sans-Serif" font-size="10.00"> betar</text>
<text text-anchor="middle" x="658.5" y="-448.58" font-family="Helvetica,sans-Serif" font-size="10.00">bfield_dofs</text>
<text text-anchor="middle" x="658.5" y="-437.58" font-family="Helvetica,sans-Serif" font-size="10.00">bfield_filter</text>
<text text-anchor="middle" x="658.5" y="-426.58" font-family="Helvetica,sans-Serif" font-size="10.00">bfield_to_val</text>
<text text-anchor="middle" x="658.5" y="-415.58" font-family="Helvetica,sans-Serif" font-size="10.00">delta_x</text>
<text text-anchor="middle" x="658.5" y="-404.58" font-family="Helvetica,sans-Serif" font-size="10.00">efield_dofs</text>
<text text-anchor="middle" x="658.5" y="-393.58" font-family="Helvetica,sans-Serif" font-size="10.00">efield_dofs_new</text>
<text text-anchor="middle" x="658.5" y="-382.58" font-family="Helvetica,sans-Serif" font-size="10.00">efield_dofs_work</text>
<text text-anchor="middle" x="658.5" y="-371.58" font-family="Helvetica,sans-Serif" font-size="10.00">efield_filter</text>
<text text-anchor="middle" x="658.5" y="-360.58" font-family="Helvetica,sans-Serif" font-size="10.00">efield_to_val</text>
<text text-anchor="middle" x="658.5" y="-349.58" font-family="Helvetica,sans-Serif" font-size="10.00">...</text>
</g>
<!-- Node8&#45;&gt;Node3 -->
<g id="edge9" class="edge">
<title>Node8&#45;&gt;Node3</title>
<path fill="none" stroke="#9a32cd" stroke-dasharray="5,2" d="M333.99,-359.87C372.18,-359.99 423.86,-364.43 465,-383.58 492.15,-396.22 515.79,-422.58 528.95,-439.39"/>
<polygon fill="#9a32cd" stroke="#9a32cd" points="333.57,-356.38 323.59,-359.95 333.62,-363.38 333.57,-356.38"/>
<text text-anchor="middle" x="416.5" y="-386.58" font-family="Helvetica,sans-Serif" font-size="10.00"> sign</text>
</g>
<!-- Node8&#45;&gt;Node13 -->
<g id="edge23" class="edge">
<title>Node8&#45;&gt;Node13</title>
<path fill="none" stroke="#9a32cd" stroke-dasharray="5,2" d="M331.3,-349.19C337.92,-346.28 344.36,-342.78 350,-338.58 360.98,-330.41 356.62,-321.2 368,-313.58 404.82,-288.94 426.53,-312.55 465,-290.58 492.73,-274.74 516.71,-245.54 529.68,-227.71"/>
<polygon fill="#9a32cd" stroke="#9a32cd" points="329.55,-346.12 321.54,-353.05 332.12,-352.63 329.55,-346.12"/>
<text text-anchor="middle" x="416.5" y="-327.58" font-family="Helvetica,sans-Serif" font-size="10.00"> atol</text>
<text text-anchor="middle" x="416.5" y="-316.58" font-family="Helvetica,sans-Serif" font-size="10.00">x_0</text>
</g>
<!-- Node8&#45;&gt;Node21 -->
<g id="edge34" class="edge">
<title>Node8&#45;&gt;Node21</title>
<path fill="none" stroke="#9a32cd" stroke-dasharray="5,2" d="M333.23,-373.59C339.61,-376.85 345.47,-381.09 350,-386.58 386.01,-430.21 329.45,-471.18 368,-512.58 398.06,-544.86 424.22,-516.76 465,-533.58 485.29,-541.95 506.15,-555.81 520.7,-566.48"/>
<polygon fill="#9a32cd" stroke="#9a32cd" points="334.15,-370.17 323.58,-369.45 331.39,-376.61 334.15,-370.17"/>
<text text-anchor="middle" x="416.5" y="-536.58" font-family="Helvetica,sans-Serif" font-size="10.00"> sign</text>
</g>
<!-- Node9 -->
<g id="node9" class="node">
<title>Node9</title>
<g id="a_node9"><a xlink:title=" ">
<polygon fill="white" stroke="#bfbfbf" points="743.5,-320.58 743.5,-350.58 850.5,-350.58 850.5,-320.58 743.5,-320.58"/>
<text text-anchor="start" x="751.5" y="-338.58" font-family="Helvetica,sans-Serif" font-size="10.00">class(sll_c_filter</text>
<text text-anchor="middle" x="797" y="-327.58" font-family="Helvetica,sans-Serif" font-size="10.00">_base_1d), pointer</text>
</a>
</g>
</g>
<!-- Node9&#45;&gt;Node1 -->
<g id="edge11" class="edge">
<title>Node9&#45;&gt;Node1</title>
<path fill="none" stroke="#9a32cd" stroke-dasharray="5,2" d="M860.82,-326.31C904.2,-319.76 963.18,-310.59 1015,-301.58 1020.74,-300.58 1026.71,-299.51 1032.68,-298.41"/>
<polygon fill="#9a32cd" stroke="#9a32cd" points="860.07,-322.88 850.7,-327.83 861.11,-329.8 860.07,-322.88"/>
<text text-anchor="middle" x="954.5" y="-323.58" font-family="Helvetica,sans-Serif" font-size="10.00"> filter</text>
</g>
<!-- Node10 -->
<g id="node10" class="node">
<title>Node10</title>
<g id="a_node10"><a xlink:title=" ">
<polygon fill="white" stroke="#bfbfbf" points="743.5,-271.58 743.5,-301.58 850.5,-301.58 850.5,-271.58 743.5,-271.58"/>
<text text-anchor="start" x="751.5" y="-289.58" font-family="Helvetica,sans-Serif" font-size="10.00">class(sll_t_particle</text>
<text text-anchor="middle" x="797" y="-278.58" font-family="Helvetica,sans-Serif" font-size="10.00">_array), pointer</text>
</a>
</g>
</g>
<!-- Node10&#45;&gt;Node1 -->
<g id="edge12" class="edge">
<title>Node10&#45;&gt;Node1</title>
<path fill="none" stroke="#9a32cd" stroke-dasharray="5,2" d="M861.03,-286.58C911.84,-286.58 982.84,-286.58 1032.98,-286.58"/>
<polygon fill="#9a32cd" stroke="#9a32cd" points="860.83,-283.08 850.83,-286.58 860.83,-290.08 860.83,-283.08"/>
<text text-anchor="middle" x="954.5" y="-289.58" font-family="Helvetica,sans-Serif" font-size="10.00"> particle_group</text>
</g>
<!-- Node11 -->
<g id="node11" class="node">
<title>Node11</title>
<g id="a_node11"><a xlink:title=" ">
<polygon fill="white" stroke="#bfbfbf" points="744,-222.58 744,-252.58 850,-252.58 850,-222.58 744,-222.58"/>
<text text-anchor="start" x="752" y="-240.58" font-family="Helvetica,sans-Serif" font-size="10.00">class(sll_t_control</text>
<text text-anchor="middle" x="797" y="-229.58" font-family="Helvetica,sans-Serif" font-size="10.00">_variates), pointer</text>
</a>
</g>
</g>
<!-- Node11&#45;&gt;Node1 -->
<g id="edge13" class="edge">
<title>Node11&#45;&gt;Node1</title>
<path fill="none" stroke="#9a32cd" stroke-dasharray="5,2" d="M860.38,-246.79C903.8,-253.34 963,-262.54 1015,-271.58 1020.74,-272.58 1026.71,-273.65 1032.68,-274.75"/>
<polygon fill="#9a32cd" stroke="#9a32cd" points="860.67,-243.29 850.26,-245.27 859.63,-250.22 860.67,-243.29"/>
<text text-anchor="middle" x="954.5" y="-274.58" font-family="Helvetica,sans-Serif" font-size="10.00"> control_variate</text>
</g>
<!-- Node12 -->
<g id="node12" class="node">
<title>Node12</title>
<g id="a_node12"><a xlink:href="structsll__m__linear__solver__cg_1_1sll__t__linear__solver__cg.html" target="_top" xlink:title="class for the cg linear solver">
<polygon fill="white" stroke="black" points="736,-184.08 736,-203.08 858,-203.08 858,-184.08 736,-184.08"/>
<text text-anchor="middle" x="797" y="-191.08" font-family="Helvetica,sans-Serif" font-size="10.00">sll_t_linear_solver_cg</text>
</a>
</g>
</g>
<!-- Node12&#45;&gt;Node1 -->
<g id="edge14" class="edge">
<title>Node12&#45;&gt;Node1</title>
<path fill="none" stroke="#9a32cd" stroke-dasharray="5,2" d="M868.17,-189.27C912.14,-189.21 968.98,-194.06 1015,-214.58 1043.38,-227.23 1068.32,-254.29 1082.11,-271.39"/>
<polygon fill="#9a32cd" stroke="#9a32cd" points="868.11,-185.77 858.15,-189.37 868.18,-192.77 868.11,-185.77"/>
<text text-anchor="middle" x="954.5" y="-239.58" font-family="Helvetica,sans-Serif" font-size="10.00"> linear_solver_0</text>
<text text-anchor="middle" x="954.5" y="-228.58" font-family="Helvetica,sans-Serif" font-size="10.00">linear_solver_1</text>
<text text-anchor="middle" x="954.5" y="-217.58" font-family="Helvetica,sans-Serif" font-size="10.00">linear_solver_schur_phiv</text>
</g>
<!-- Node13&#45;&gt;Node12 -->
<g id="edge15" class="edge">
<title>Node13&#45;&gt;Node12</title>
<path fill="none" stroke="midnightblue" d="M603.91,-207.95C644.06,-204.95 696.1,-201.05 735.89,-198.08"/>
<polygon fill="midnightblue" stroke="midnightblue" points="603.42,-204.48 593.71,-208.71 603.94,-211.46 603.42,-204.48"/>
</g>
<!-- Node14&#45;&gt;Node13 -->
<g id="edge16" class="edge">
<title>Node14&#45;&gt;Node13</title>
<path fill="none" stroke="midnightblue" d="M341.91,-173.65C386.41,-182.4 445.93,-194.09 488.07,-202.38"/>
<polygon fill="midnightblue" stroke="midnightblue" points="342.57,-170.21 332.08,-171.72 341.22,-177.08 342.57,-170.21"/>
</g>
<!-- Node15 -->
<g id="node15" class="node">
<title>Node15</title>
<g id="a_node15"><a xlink:title=" ">
<polygon fill="white" stroke="#bfbfbf" points="209,-256.58 209,-286.58 350,-286.58 350,-256.58 209,-256.58"/>
<text text-anchor="start" x="217" y="-274.58" font-family="Helvetica,sans-Serif" font-size="10.00">class(sll_t_linear</text>
<text text-anchor="middle" x="279.5" y="-263.58" font-family="Helvetica,sans-Serif" font-size="10.00">_solver_abstract), pointer</text>
</a>
</g>
</g>
<!-- Node15&#45;&gt;Node13 -->
<g id="edge21" class="edge">
<title>Node15&#45;&gt;Node13</title>
<path fill="none" stroke="#9a32cd" stroke-dasharray="5,2" d="M356.65,-254.27C399.02,-244.64 450.63,-232.9 488.29,-224.34"/>
<polygon fill="#9a32cd" stroke="#9a32cd" points="355.63,-250.91 346.65,-256.54 357.18,-257.74 355.63,-250.91"/>
<text text-anchor="middle" x="416.5" y="-253.58" font-family="Helvetica,sans-Serif" font-size="10.00"> ptr_pc_left</text>
</g>
<!-- Node16 -->
<g id="node16" class="node">
<title>Node16</title>
<g id="a_node16"><a xlink:title=" ">
<polygon fill="white" stroke="#bfbfbf" points="222,-86.08 222,-127.08 337,-127.08 337,-86.08 222,-86.08"/>
<text text-anchor="start" x="230" y="-115.08" font-family="Helvetica,sans-Serif" font-size="10.00">class(sll_t_linear</text>
<text text-anchor="start" x="230" y="-104.08" font-family="Helvetica,sans-Serif" font-size="10.00">_operator_abstract),</text>
<text text-anchor="middle" x="279.5" y="-93.08" font-family="Helvetica,sans-Serif" font-size="10.00"> allocatable</text>
</a>
</g>
</g>
<!-- Node16&#45;&gt;Node13 -->
<g id="edge22" class="edge">
<title>Node16&#45;&gt;Node13</title>
<path fill="none" stroke="#9a32cd" stroke-dasharray="5,2" d="M347.19,-122.35C383.01,-132.01 427.42,-145.93 465,-163.58 484.85,-172.91 505.59,-186.82 520.21,-197.45"/>
<polygon fill="#9a32cd" stroke="#9a32cd" points="347.89,-118.92 337.32,-119.74 346.09,-125.68 347.89,-118.92"/>
<text text-anchor="middle" x="416.5" y="-166.58" font-family="Helvetica,sans-Serif" font-size="10.00"> p_linear_operator</text>
</g>
<!-- Node17 -->
<g id="node17" class="node">
<title>Node17</title>
<g id="a_node17"><a xlink:title=" ">
<polygon fill="white" stroke="#bfbfbf" points="222,-196.08 222,-237.08 337,-237.08 337,-196.08 222,-196.08"/>
<text text-anchor="start" x="230" y="-225.08" font-family="Helvetica,sans-Serif" font-size="10.00">class(sll_t_linear</text>
<text text-anchor="start" x="230" y="-214.08" font-family="Helvetica,sans-Serif" font-size="10.00">_operator_abstract),</text>
<text text-anchor="middle" x="279.5" y="-203.08" font-family="Helvetica,sans-Serif" font-size="10.00"> pointer</text>
</a>
</g>
</g>
<!-- Node17&#45;&gt;Node13 -->
<g id="edge24" class="edge">
<title>Node17&#45;&gt;Node13</title>
<path fill="none" stroke="#9a32cd" stroke-dasharray="5,2" d="M347.15,-215.55C391.1,-214.88 447.81,-214 488.34,-213.38"/>
<polygon fill="#9a32cd" stroke="#9a32cd" points="347.07,-212.05 337.13,-215.71 347.18,-219.05 347.07,-212.05"/>
<text text-anchor="middle" x="416.5" y="-217.58" font-family="Helvetica,sans-Serif" font-size="10.00"> ptr_linear_operator</text>
</g>
<!-- Node18 -->
<g id="node18" class="node">
<title>Node18</title>
<g id="a_node18"><a xlink:title=" ">
<polygon fill="white" stroke="#bfbfbf" points="741.5,-146.08 741.5,-165.08 852.5,-165.08 852.5,-146.08 741.5,-146.08"/>
<text text-anchor="middle" x="797" y="-153.08" font-family="Helvetica,sans-Serif" font-size="10.00">character(len=256)</text>
</a>
</g>
</g>
<!-- Node18&#45;&gt;Node1 -->
<g id="edge26" class="edge">
<title>Node18&#45;&gt;Node1</title>
<path fill="none" stroke="#9a32cd" stroke-dasharray="5,2" d="M862.67,-147.47C908.21,-144.9 969.02,-148.05 1015,-174.58 1053.46,-196.78 1077.62,-246.31 1087.85,-271.39"/>
<polygon fill="#9a32cd" stroke="#9a32cd" points="862.35,-143.98 852.61,-148.14 862.82,-150.97 862.35,-143.98"/>
<text text-anchor="middle" x="954.5" y="-177.58" font-family="Helvetica,sans-Serif" font-size="10.00"> output_prefix</text>
</g>
<!-- Node19 -->
<g id="node19" class="node">
<title>Node19</title>
<g id="a_node19"><a xlink:title=" ">
<polygon fill="white" stroke="#bfbfbf" points="718,-96.58 718,-126.58 876,-126.58 876,-96.58 718,-96.58"/>
<text text-anchor="start" x="726" y="-114.58" font-family="Helvetica,sans-Serif" font-size="10.00">class(sll_c_particle</text>
<text text-anchor="middle" x="797" y="-103.58" font-family="Helvetica,sans-Serif" font-size="10.00">_mass_1d_base), allocatable</text>
</a>
</g>
</g>
<!-- Node19&#45;&gt;Node1 -->
<g id="edge27" class="edge">
<title>Node19&#45;&gt;Node1</title>
<path fill="none" stroke="#9a32cd" stroke-dasharray="5,2" d="M881.9,-95.57C925.02,-91.9 976.45,-95.03 1015,-120.58 1068.15,-155.8 1086.16,-237.31 1091.5,-271.28"/>
<polygon fill="#9a32cd" stroke="#9a32cd" points="881.31,-92.11 871.7,-96.57 882,-99.08 881.31,-92.11"/>
<text text-anchor="middle" x="954.5" y="-134.58" font-family="Helvetica,sans-Serif" font-size="10.00"> particle_mass_0</text>
<text text-anchor="middle" x="954.5" y="-123.58" font-family="Helvetica,sans-Serif" font-size="10.00">particle_mass_1</text>
</g>
<!-- Node20 -->
<g id="node20" class="node">
<title>Node20</title>
<g id="a_node20"><a xlink:title=" ">
<polygon fill="white" stroke="#bfbfbf" points="718.5,-47.58 718.5,-77.58 875.5,-77.58 875.5,-47.58 718.5,-47.58"/>
<text text-anchor="start" x="726.5" y="-65.58" font-family="Helvetica,sans-Serif" font-size="10.00">class(sll_c_particle</text>
<text text-anchor="middle" x="797" y="-54.58" font-family="Helvetica,sans-Serif" font-size="10.00">_mesh_coupling_1d), pointer</text>
</a>
</g>
</g>
<!-- Node20&#45;&gt;Node1 -->
<g id="edge28" class="edge">
<title>Node20&#45;&gt;Node1</title>
<path fill="none" stroke="#9a32cd" stroke-dasharray="5,2" d="M864.72,-45.76C911.14,-38.12 972.15,-36.67 1015,-67.58 1083.14,-116.72 1092.37,-230.58 1093.44,-271.55"/>
<polygon fill="#9a32cd" stroke="#9a32cd" points="863.98,-42.33 854.75,-47.53 865.21,-49.22 863.98,-42.33"/>
<text text-anchor="middle" x="954.5" y="-81.58" font-family="Helvetica,sans-Serif" font-size="10.00"> kernel_smoother_0</text>
<text text-anchor="middle" x="954.5" y="-70.58" font-family="Helvetica,sans-Serif" font-size="10.00">kernel_smoother_1</text>
</g>
<!-- Node21&#45;&gt;Node1 -->
<g id="edge29" class="edge">
<title>Node21&#45;&gt;Node1</title>
<path fill="none" stroke="#9a32cd" stroke-dasharray="5,2" d="M609.46,-577.43C709.19,-567.95 896.89,-536.93 1015,-435.58 1058.27,-398.45 1081.17,-331.43 1089.62,-301.6"/>
<polygon fill="#9a32cd" stroke="#9a32cd" points="608.85,-573.97 599.21,-578.36 609.48,-580.94 608.85,-573.97"/>
<text text-anchor="middle" x="797" y="-574.58" font-family="Helvetica,sans-Serif" font-size="10.00"> linear_operator_0</text>
<text text-anchor="middle" x="797" y="-563.58" font-family="Helvetica,sans-Serif" font-size="10.00">linear_operator_1</text>
</g>
</g>
</svg>
