<?xml version="1.0" encoding="UTF-8" standalone="no"?>
<!DOCTYPE svg PUBLIC "-//W3C//DTD SVG 1.1//EN"
 "http://www.w3.org/Graphics/SVG/1.1/DTD/svg11.dtd">
<!-- Generated by graphviz version 2.43.0 (0)
 -->
<!-- Title: sll_t_general_coordinate_elliptic_solver Pages: 1 -->
<svg width="911pt" height="668pt"
 viewBox="0.00 0.00 911.00 667.50" xmlns="http://www.w3.org/2000/svg" xmlns:xlink="http://www.w3.org/1999/xlink">
<g id="graph0" class="graph" transform="scale(1 1) rotate(0) translate(4 663.5)">
<title>sll_t_general_coordinate_elliptic_solver</title>
<polygon fill="white" stroke="transparent" points="-4,4 -4,-663.5 907,-663.5 907,4 -4,4"/>
<!-- Node1 -->
<g id="node1" class="node">
<title>Node1</title>
<g id="a_node1"><a xlink:title="General coordinate elliptic solver derived type.">
<polygon fill="#bfbfbf" stroke="black" points="767,-217.5 767,-247.5 903,-247.5 903,-217.5 767,-217.5"/>
<text text-anchor="start" x="775" y="-235.5" font-family="Helvetica,sans-Serif" font-size="10.00">sll_t_general_coordinate</text>
<text text-anchor="middle" x="835" y="-224.5" font-family="Helvetica,sans-Serif" font-size="10.00">_elliptic_solver</text>
</a>
</g>
</g>
<!-- Node2 -->
<g id="node2" class="node">
<title>Node2</title>
<g id="a_node2"><a xlink:title=" ">
<polygon fill="white" stroke="#bfbfbf" points="524,-413 524,-432 573,-432 573,-413 524,-413"/>
<text text-anchor="middle" x="548.5" y="-420" font-family="Helvetica,sans-Serif" font-size="10.00">logical</text>
</a>
</g>
</g>
<!-- Node2&#45;&gt;Node1 -->
<g id="edge1" class="edge">
<title>Node2&#45;&gt;Node1</title>
<path fill="none" stroke="#9a32cd" stroke-dasharray="5,2" d="M583.32,-424.13C625.93,-424.48 699.55,-419.22 749,-383.5 796.8,-348.97 821.23,-278.8 830.06,-247.81"/>
<polygon fill="#9a32cd" stroke="#9a32cd" points="583.25,-420.63 573.19,-423.94 583.12,-427.63 583.25,-420.63"/>
<text text-anchor="middle" x="687.5" y="-468.5" font-family="Helvetica,sans-Serif" font-size="10.00"> perper</text>
<text text-anchor="middle" x="687.5" y="-457.5" font-family="Helvetica,sans-Serif" font-size="10.00">precompute_rhs</text>
<text text-anchor="middle" x="687.5" y="-446.5" font-family="Helvetica,sans-Serif" font-size="10.00">use_cubic_splines</text>
<text text-anchor="middle" x="687.5" y="-435.5" font-family="Helvetica,sans-Serif" font-size="10.00">with_constraint</text>
<text text-anchor="middle" x="687.5" y="-424.5" font-family="Helvetica,sans-Serif" font-size="10.00">zero_mean</text>
</g>
<!-- Node3 -->
<g id="node3" class="node">
<title>Node3</title>
<g id="a_node3"><a xlink:href="structsll__m__cubic__splines_1_1sll__t__cubic__spline__2d.html" target="_top" xlink:title="Basic type for one&#45;dimensional cubic spline data.">
<polygon fill="white" stroke="black" points="489,-375 489,-394 608,-394 608,-375 489,-375"/>
<text text-anchor="middle" x="548.5" y="-382" font-family="Helvetica,sans-Serif" font-size="10.00">sll_t_cubic_spline_2d</text>
</a>
</g>
</g>
<!-- Node3&#45;&gt;Node1 -->
<g id="edge2" class="edge">
<title>Node3&#45;&gt;Node1</title>
<path fill="none" stroke="#9a32cd" stroke-dasharray="5,2" d="M614.14,-372.74C655,-363.28 707.7,-347.23 749,-321.5 780.74,-301.73 808.8,-267.4 823.39,-247.65"/>
<polygon fill="#9a32cd" stroke="#9a32cd" points="613.28,-369.34 604.28,-374.94 614.81,-376.17 613.28,-369.34"/>
<text text-anchor="middle" x="687.5" y="-371.5" font-family="Helvetica,sans-Serif" font-size="10.00"> cubic_spline</text>
</g>
<!-- Node4 -->
<g id="node4" class="node">
<title>Node4</title>
<g id="a_node4"><a xlink:title=" ">
<polygon fill="white" stroke="#bfbfbf" points="25.5,-143 25.5,-162 128.5,-162 128.5,-143 25.5,-143"/>
<text text-anchor="middle" x="77" y="-150" font-family="Helvetica,sans-Serif" font-size="10.00">integer(kind=i32)</text>
</a>
</g>
</g>
<!-- Node4&#45;&gt;Node1 -->
<g id="edge7" class="edge">
<title>Node4&#45;&gt;Node1</title>
<path fill="none" stroke="#9a32cd" stroke-dasharray="5,2" d="M113.49,-165.43C145.36,-176.45 193.67,-191.71 237,-199.5 288.3,-208.72 431.34,-181.68 471,-215.5 498.07,-238.59 461.16,-271.35 489,-293.5 530.39,-326.43 555.57,-300.45 608,-293.5 673.27,-284.85 746.43,-262.72 791.36,-247.63"/>
<polygon fill="#9a32cd" stroke="#9a32cd" points="114.34,-162.02 103.74,-162.02 112.02,-168.63 114.34,-162.02"/>
<text text-anchor="middle" x="407.5" y="-350.5" font-family="Helvetica,sans-Serif" font-size="10.00"> rho_degree2</text>
<text text-anchor="middle" x="407.5" y="-339.5" font-family="Helvetica,sans-Serif" font-size="10.00">bc1_max</text>
<text text-anchor="middle" x="407.5" y="-328.5" font-family="Helvetica,sans-Serif" font-size="10.00">bc2_max</text>
<text text-anchor="start" x="350.5" y="-317.5" font-family="Helvetica,sans-Serif" font-size="10.00">local_to_global</text>
<text text-anchor="middle" x="407.5" y="-306.5" font-family="Helvetica,sans-Serif" font-size="10.00">_indices_source</text>
<text text-anchor="start" x="350.5" y="-295.5" font-family="Helvetica,sans-Serif" font-size="10.00">total_num_splines</text>
<text text-anchor="middle" x="407.5" y="-284.5" font-family="Helvetica,sans-Serif" font-size="10.00">_loc</text>
<text text-anchor="middle" x="407.5" y="-273.5" font-family="Helvetica,sans-Serif" font-size="10.00">spline_degree1</text>
<text text-anchor="middle" x="407.5" y="-262.5" font-family="Helvetica,sans-Serif" font-size="10.00">total_num_splines1</text>
<text text-anchor="middle" x="407.5" y="-251.5" font-family="Helvetica,sans-Serif" font-size="10.00">spline_degree2</text>
<text text-anchor="middle" x="407.5" y="-240.5" font-family="Helvetica,sans-Serif" font-size="10.00">total_num_splines2</text>
<text text-anchor="middle" x="407.5" y="-229.5" font-family="Helvetica,sans-Serif" font-size="10.00">local_to_global_indices</text>
<text text-anchor="middle" x="407.5" y="-218.5" font-family="Helvetica,sans-Serif" font-size="10.00">...</text>
</g>
<!-- Node4&#45;&gt;Node3 -->
<g id="edge3" class="edge">
<title>Node4&#45;&gt;Node3</title>
<path fill="none" stroke="#9a32cd" stroke-dasharray="5,2" d="M79.53,-172.52C85.69,-238.6 114.64,-451.63 237,-558.5 315.81,-627.34 393.43,-654.74 471,-584.5 500.96,-557.37 463.65,-434.98 489,-403.5 492.08,-399.67 495.94,-396.61 500.21,-394.16"/>
<polygon fill="#9a32cd" stroke="#9a32cd" points="82.99,-171.93 78.65,-162.26 76.02,-172.53 82.99,-171.93"/>
<text text-anchor="middle" x="281.5" y="-651.5" font-family="Helvetica,sans-Serif" font-size="10.00"> num_pts_x1</text>
<text text-anchor="middle" x="281.5" y="-640.5" font-family="Helvetica,sans-Serif" font-size="10.00">num_pts_x2</text>
<text text-anchor="middle" x="281.5" y="-629.5" font-family="Helvetica,sans-Serif" font-size="10.00">x1_bc_type</text>
<text text-anchor="middle" x="281.5" y="-618.5" font-family="Helvetica,sans-Serif" font-size="10.00">x2_bc_type</text>
</g>
<!-- Node8 -->
<g id="node8" class="node">
<title>Node8</title>
<g id="a_node8"><a xlink:href="structsll__m__sparse__matrix_1_1sll__t__csr__matrix.html" target="_top" xlink:title="type for CSR format">
<polygon fill="white" stroke="black" points="501.5,-65 501.5,-84 595.5,-84 595.5,-65 501.5,-65"/>
<text text-anchor="middle" x="548.5" y="-72" font-family="Helvetica,sans-Serif" font-size="10.00">sll_t_csr_matrix</text>
</a>
</g>
</g>
<!-- Node4&#45;&gt;Node8 -->
<g id="edge12" class="edge">
<title>Node4&#45;&gt;Node8</title>
<path fill="none" stroke="#9a32cd" stroke-dasharray="5,2" d="M108.3,-138.78C139.77,-125.22 190.77,-105.16 237,-95.5 329.42,-76.2 440.35,-73.46 501.45,-73.67"/>
<polygon fill="#9a32cd" stroke="#9a32cd" points="106.57,-135.72 98.81,-142.93 109.37,-142.14 106.57,-135.72"/>
<text text-anchor="middle" x="281.5" y="-153.5" font-family="Helvetica,sans-Serif" font-size="10.00"> solver</text>
<text text-anchor="middle" x="281.5" y="-142.5" font-family="Helvetica,sans-Serif" font-size="10.00">col_ind</text>
<text text-anchor="middle" x="281.5" y="-131.5" font-family="Helvetica,sans-Serif" font-size="10.00">num_cols</text>
<text text-anchor="middle" x="281.5" y="-120.5" font-family="Helvetica,sans-Serif" font-size="10.00">num_nz</text>
<text text-anchor="middle" x="281.5" y="-109.5" font-family="Helvetica,sans-Serif" font-size="10.00">row_ptr</text>
<text text-anchor="middle" x="281.5" y="-98.5" font-family="Helvetica,sans-Serif" font-size="10.00">num_rows</text>
</g>
<!-- Node9 -->
<g id="node9" class="node">
<title>Node9</title>
<g id="a_node9"><a xlink:href="structsll__m__pastix_1_1pastix__solver.html" target="_top" xlink:title=" ">
<polygon fill="white" stroke="black" points="240.5,-31 240.5,-50 322.5,-50 322.5,-31 240.5,-31"/>
<text text-anchor="middle" x="281.5" y="-38" font-family="Helvetica,sans-Serif" font-size="10.00">pastix_solver</text>
</a>
</g>
</g>
<!-- Node4&#45;&gt;Node9 -->
<g id="edge10" class="edge">
<title>Node4&#45;&gt;Node9</title>
<path fill="none" stroke="#9a32cd" stroke-dasharray="5,2" d="M88.75,-134.21C103.93,-110.3 134.07,-69.25 172,-50.5 193.03,-40.11 219.14,-37.44 240.48,-37.44"/>
<polygon fill="#9a32cd" stroke="#9a32cd" points="85.77,-132.39 83.52,-142.74 91.73,-136.05 85.77,-132.39"/>
<text text-anchor="middle" x="195.5" y="-64.5" font-family="Helvetica,sans-Serif" font-size="10.00"> nbthread</text>
<text text-anchor="middle" x="195.5" y="-53.5" font-family="Helvetica,sans-Serif" font-size="10.00">verbose</text>
</g>
<!-- Node5 -->
<g id="node5" class="node">
<title>Node5</title>
<g id="a_node5"><a xlink:title=" ">
<polygon fill="white" stroke="#bfbfbf" points="237,-530 237,-549 326,-549 326,-530 237,-530"/>
<text text-anchor="middle" x="281.5" y="-537" font-family="Helvetica,sans-Serif" font-size="10.00">logical, private</text>
</a>
</g>
</g>
<!-- Node5&#45;&gt;Node3 -->
<g id="edge4" class="edge">
<title>Node5&#45;&gt;Node3</title>
<path fill="none" stroke="#9a32cd" stroke-dasharray="5,2" d="M336.18,-540.22C385.01,-539.67 452.25,-535.5 471,-517.5 508,-481.97 455.69,-442.51 489,-403.5 492.33,-399.6 496.46,-396.5 500.99,-394.03"/>
<polygon fill="#9a32cd" stroke="#9a32cd" points="336.03,-536.72 326.06,-540.29 336.08,-543.72 336.03,-536.72"/>
<text text-anchor="middle" x="407.5" y="-575.5" font-family="Helvetica,sans-Serif" font-size="10.00"> compute_slopes_x1_max</text>
<text text-anchor="middle" x="407.5" y="-564.5" font-family="Helvetica,sans-Serif" font-size="10.00">compute_slopes_x2_max</text>
<text text-anchor="middle" x="407.5" y="-553.5" font-family="Helvetica,sans-Serif" font-size="10.00">compute_slopes_x1_min</text>
<text text-anchor="middle" x="407.5" y="-542.5" font-family="Helvetica,sans-Serif" font-size="10.00">compute_slopes_x2_min</text>
</g>
<!-- Node6 -->
<g id="node6" class="node">
<title>Node6</title>
<g id="a_node6"><a xlink:title=" ">
<polygon fill="white" stroke="#bfbfbf" points="237.5,-171 237.5,-190 325.5,-190 325.5,-171 237.5,-171"/>
<text text-anchor="middle" x="281.5" y="-178" font-family="Helvetica,sans-Serif" font-size="10.00">real(kind=f64)</text>
</a>
</g>
</g>
<!-- Node6&#45;&gt;Node1 -->
<g id="edge14" class="edge">
<title>Node6&#45;&gt;Node1</title>
<path fill="none" stroke="#9a32cd" stroke-dasharray="5,2" d="M335.59,-174.21C400.24,-167.69 512.63,-160.06 608,-172.5 673.01,-180.98 745.94,-202.64 790.92,-217.48"/>
<polygon fill="#9a32cd" stroke="#9a32cd" points="335.22,-170.73 325.64,-175.24 335.94,-177.69 335.22,-170.73"/>
<text text-anchor="middle" x="548.5" y="-285.5" font-family="Helvetica,sans-Serif" font-size="10.00"> delta_eta1</text>
<text text-anchor="middle" x="548.5" y="-274.5" font-family="Helvetica,sans-Serif" font-size="10.00">epsi</text>
<text text-anchor="middle" x="548.5" y="-263.5" font-family="Helvetica,sans-Serif" font-size="10.00">delta_eta2</text>
<text text-anchor="middle" x="548.5" y="-252.5" font-family="Helvetica,sans-Serif" font-size="10.00">rho_coeff_1d</text>
<text text-anchor="middle" x="548.5" y="-241.5" font-family="Helvetica,sans-Serif" font-size="10.00">stiff</text>
<text text-anchor="middle" x="548.5" y="-230.5" font-family="Helvetica,sans-Serif" font-size="10.00">gauss_pts1</text>
<text text-anchor="middle" x="548.5" y="-219.5" font-family="Helvetica,sans-Serif" font-size="10.00">gauss_pts2</text>
<text text-anchor="middle" x="548.5" y="-208.5" font-family="Helvetica,sans-Serif" font-size="10.00">phi_vec</text>
<text text-anchor="middle" x="548.5" y="-197.5" font-family="Helvetica,sans-Serif" font-size="10.00">v_rho_splines1</text>
<text text-anchor="middle" x="548.5" y="-186.5" font-family="Helvetica,sans-Serif" font-size="10.00">v_splines1</text>
<text text-anchor="middle" x="548.5" y="-175.5" font-family="Helvetica,sans-Serif" font-size="10.00">...</text>
</g>
<!-- Node6&#45;&gt;Node3 -->
<g id="edge5" class="edge">
<title>Node6&#45;&gt;Node3</title>
<path fill="none" stroke="#9a32cd" stroke-dasharray="5,2" d="M282.72,-200.8C284.33,-239.2 293.79,-322.2 344,-362.5 355.15,-371.45 432.77,-377.85 488.84,-381.36"/>
<polygon fill="#9a32cd" stroke="#9a32cd" points="286.21,-200.32 282.43,-190.42 279.21,-200.51 286.21,-200.32"/>
<text text-anchor="middle" x="407.5" y="-503.5" font-family="Helvetica,sans-Serif" font-size="10.00"> d1</text>
<text text-anchor="middle" x="407.5" y="-492.5" font-family="Helvetica,sans-Serif" font-size="10.00">x2_min</text>
<text text-anchor="middle" x="407.5" y="-481.5" font-family="Helvetica,sans-Serif" font-size="10.00">x1_max</text>
<text text-anchor="middle" x="407.5" y="-470.5" font-family="Helvetica,sans-Serif" font-size="10.00">x1_min_slopes</text>
<text text-anchor="middle" x="407.5" y="-459.5" font-family="Helvetica,sans-Serif" font-size="10.00">d2</text>
<text text-anchor="middle" x="407.5" y="-448.5" font-family="Helvetica,sans-Serif" font-size="10.00">x2_max</text>
<text text-anchor="start" x="369.5" y="-437.5" font-family="Helvetica,sans-Serif" font-size="10.00">x2_min_slopes</text>
<text text-anchor="middle" x="407.5" y="-426.5" font-family="Helvetica,sans-Serif" font-size="10.00">_coeffs</text>
<text text-anchor="middle" x="407.5" y="-415.5" font-family="Helvetica,sans-Serif" font-size="10.00">x2_rdelta</text>
<text text-anchor="middle" x="407.5" y="-404.5" font-family="Helvetica,sans-Serif" font-size="10.00">x2_max_slopes</text>
<text text-anchor="middle" x="407.5" y="-393.5" font-family="Helvetica,sans-Serif" font-size="10.00">x1_delta</text>
<text text-anchor="middle" x="407.5" y="-382.5" font-family="Helvetica,sans-Serif" font-size="10.00">...</text>
</g>
<!-- Node6&#45;&gt;Node8 -->
<g id="edge13" class="edge">
<title>Node6&#45;&gt;Node8</title>
<path fill="none" stroke="#9a32cd" stroke-dasharray="5,2" d="M312.81,-165.87C317.44,-163.05 322,-159.91 326,-156.5 335.88,-148.08 333.15,-140.62 344,-133.5 392.77,-101.52 415.51,-118.43 471,-100.5 479.17,-97.86 480.91,-96.38 489,-93.5 498.05,-90.27 507.97,-86.97 517.03,-84.04"/>
<polygon fill="#9a32cd" stroke="#9a32cd" points="310.95,-162.9 303.96,-170.86 314.39,-169 310.95,-162.9"/>
<text text-anchor="middle" x="407.5" y="-136.5" font-family="Helvetica,sans-Serif" font-size="10.00"> val</text>
</g>
<!-- Node7 -->
<g id="node7" class="node">
<title>Node7</title>
<g id="a_node7"><a xlink:href="namespacesll__m__deboor__splines__1d.html#structsll__m__deboor__splines__1d_1_1sll__t__deboor__type" target="_top" xlink:title=" ">
<polygon fill="white" stroke="black" points="497,-103 497,-122 600,-122 600,-103 497,-103"/>
<text text-anchor="middle" x="548.5" y="-110" font-family="Helvetica,sans-Serif" font-size="10.00">sll_t_deboor_type</text>
</a>
</g>
</g>
<!-- Node7&#45;&gt;Node1 -->
<g id="edge6" class="edge">
<title>Node7&#45;&gt;Node1</title>
<path fill="none" stroke="#9a32cd" stroke-dasharray="5,2" d="M610.35,-114.01C660.01,-116.14 725.63,-121.24 749,-133.5 785.51,-152.65 813.07,-194.61 825.95,-217.27"/>
<polygon fill="#9a32cd" stroke="#9a32cd" points="610.47,-110.51 600.34,-113.61 610.19,-117.51 610.47,-110.51"/>
<text text-anchor="middle" x="687.5" y="-136.5" font-family="Helvetica,sans-Serif" font-size="10.00"> db</text>
</g>
<!-- Node8&#45;&gt;Node1 -->
<g id="edge8" class="edge">
<title>Node8&#45;&gt;Node1</title>
<path fill="none" stroke="#9a32cd" stroke-dasharray="5,2" d="M595.1,-62.9C638,-54.66 702.44,-49.46 749,-77.5 801.05,-108.85 823.43,-184.43 830.9,-217.06"/>
<polygon fill="#9a32cd" stroke="#9a32cd" points="594.31,-59.49 585.21,-64.92 595.71,-66.34 594.31,-59.49"/>
<text text-anchor="middle" x="687.5" y="-102.5" font-family="Helvetica,sans-Serif" font-size="10.00"> csr_mat_with_constraint</text>
<text text-anchor="middle" x="687.5" y="-91.5" font-family="Helvetica,sans-Serif" font-size="10.00">csr_mat_source</text>
<text text-anchor="middle" x="687.5" y="-80.5" font-family="Helvetica,sans-Serif" font-size="10.00">csr_mat</text>
</g>
<!-- Node9&#45;&gt;Node8 -->
<g id="edge9" class="edge">
<title>Node9&#45;&gt;Node8</title>
<path fill="none" stroke="#9a32cd" stroke-dasharray="5,2" d="M332.96,-45.33C370.98,-49.16 424.35,-54.94 471,-61.5 480.87,-62.89 491.43,-64.56 501.45,-66.23"/>
<polygon fill="#9a32cd" stroke="#9a32cd" points="332.96,-41.81 322.67,-44.3 332.27,-48.78 332.96,-41.81"/>
<text text-anchor="middle" x="407.5" y="-64.5" font-family="Helvetica,sans-Serif" font-size="10.00"> linear_solver</text>
</g>
<!-- Node10 -->
<g id="node10" class="node">
<title>Node10</title>
<g id="a_node10"><a xlink:title=" ">
<polygon fill="white" stroke="#bfbfbf" points="0,-0.5 0,-30.5 154,-30.5 154,-0.5 0,-0.5"/>
<text text-anchor="start" x="8" y="-18.5" font-family="Helvetica,sans-Serif" font-size="10.00">double precision, dimension</text>
<text text-anchor="middle" x="77" y="-7.5" font-family="Helvetica,sans-Serif" font-size="10.00">(dparm_size)</text>
</a>
</g>
</g>
<!-- Node10&#45;&gt;Node9 -->
<g id="edge11" class="edge">
<title>Node10&#45;&gt;Node9</title>
<path fill="none" stroke="#9a32cd" stroke-dasharray="5,2" d="M164.25,-11.14C182.45,-11.6 201.45,-13.13 219,-16.5 233.75,-19.33 249.5,-25.55 261.38,-30.95"/>
<polygon fill="#9a32cd" stroke="#9a32cd" points="164.29,-7.64 154.24,-10.99 164.18,-14.64 164.29,-7.64"/>
<text text-anchor="middle" x="195.5" y="-19.5" font-family="Helvetica,sans-Serif" font-size="10.00"> dparm</text>
</g>
</g>
</svg>
