<?xml version="1.0" encoding="UTF-8" standalone="no"?>
<!DOCTYPE svg PUBLIC "-//W3C//DTD SVG 1.1//EN"
 "http://www.w3.org/Graphics/SVG/1.1/DTD/svg11.dtd">
<!-- Generated by graphviz version 2.43.0 (0)
 -->
<!-- Title: psm_1d_advector Pages: 1 -->
<svg width="340pt" height="205pt"
 viewBox="0.00 0.00 340.00 205.00" xmlns="http://www.w3.org/2000/svg" xmlns:xlink="http://www.w3.org/1999/xlink">
<g id="graph0" class="graph" transform="scale(1 1) rotate(0) translate(4 201)">
<title>psm_1d_advector</title>
<polygon fill="white" stroke="transparent" points="-4,4 -4,-201 336,-201 336,4 -4,4"/>
<!-- Node1 -->
<g id="node1" class="node">
<title>Node1</title>
<g id="a_node1"><a xlink:title=" ">
<polygon fill="#bfbfbf" stroke="black" points="122.5,-0.5 122.5,-19.5 225.5,-19.5 225.5,-0.5 122.5,-0.5"/>
<text text-anchor="middle" x="174" y="-7.5" font-family="Helvetica,sans-Serif" font-size="10.00">psm_1d_advector</text>
</a>
</g>
</g>
<!-- Node2 -->
<g id="node2" class="node">
<title>Node2</title>
<g id="a_node2"><a xlink:href="structsll__m__advection__1d__base_1_1sll__c__advector__1d.html" target="_top" xlink:title=" ">
<polygon fill="white" stroke="black" points="0,-177.5 0,-196.5 104,-196.5 104,-177.5 0,-177.5"/>
<text text-anchor="middle" x="52" y="-184.5" font-family="Helvetica,sans-Serif" font-size="10.00">sll_c_advector_1d</text>
</a>
</g>
</g>
<!-- Node2&#45;&gt;Node1 -->
<g id="edge1" class="edge">
<title>Node2&#45;&gt;Node1</title>
<path fill="none" stroke="midnightblue" d="M63.95,-168.86C89.53,-132.16 148.82,-47.12 167.94,-19.69"/>
<polygon fill="midnightblue" stroke="midnightblue" points="61.07,-166.88 58.22,-177.08 66.81,-170.88 61.07,-166.88"/>
</g>
<!-- Node3 -->
<g id="node3" class="node">
<title>Node3</title>
<g id="a_node3"><a xlink:title=" ">
<polygon fill="white" stroke="#bfbfbf" points="122.5,-177.5 122.5,-196.5 225.5,-196.5 225.5,-177.5 122.5,-177.5"/>
<text text-anchor="middle" x="174" y="-184.5" font-family="Helvetica,sans-Serif" font-size="10.00">integer(kind=i32)</text>
</a>
</g>
</g>
<!-- Node3&#45;&gt;Node1 -->
<g id="edge2" class="edge">
<title>Node3&#45;&gt;Node1</title>
<path fill="none" stroke="#9a32cd" stroke-dasharray="5,2" d="M174,-166.95C174,-129.3 174,-46.65 174,-19.69"/>
<polygon fill="#9a32cd" stroke="#9a32cd" points="170.5,-167.08 174,-177.08 177.5,-167.08 170.5,-167.08"/>
<text text-anchor="middle" x="186.5" y="-101.5" font-family="Helvetica,sans-Serif" font-size="10.00"> nbdr</text>
<text text-anchor="middle" x="186.5" y="-90.5" font-family="Helvetica,sans-Serif" font-size="10.00">npts</text>
</g>
<!-- Node4 -->
<g id="node4" class="node">
<title>Node4</title>
<g id="a_node4"><a xlink:title=" ">
<polygon fill="white" stroke="#bfbfbf" points="244,-177.5 244,-196.5 332,-196.5 332,-177.5 244,-177.5"/>
<text text-anchor="middle" x="288" y="-184.5" font-family="Helvetica,sans-Serif" font-size="10.00">real(kind=f64)</text>
</a>
</g>
</g>
<!-- Node4&#45;&gt;Node1 -->
<g id="edge3" class="edge">
<title>Node4&#45;&gt;Node1</title>
<path fill="none" stroke="#9a32cd" stroke-dasharray="5,2" d="M279.93,-168.18C266.38,-139.26 237.14,-80.98 203,-38 197.61,-31.21 190.5,-24.57 184.67,-19.57"/>
<polygon fill="#9a32cd" stroke="#9a32cd" points="276.83,-169.82 284.2,-177.43 283.19,-166.89 276.83,-169.82"/>
<text text-anchor="middle" x="298.5" y="-151" font-family="Helvetica,sans-Serif" font-size="10.00"> alphax</text>
<text text-anchor="middle" x="298.5" y="-140" font-family="Helvetica,sans-Serif" font-size="10.00">buf1d</text>
<text text-anchor="middle" x="298.5" y="-129" font-family="Helvetica,sans-Serif" font-size="10.00">buf1d_out</text>
<text text-anchor="middle" x="298.5" y="-118" font-family="Helvetica,sans-Serif" font-size="10.00">bufout</text>
<text text-anchor="middle" x="298.5" y="-107" font-family="Helvetica,sans-Serif" font-size="10.00">bufout0</text>
<text text-anchor="middle" x="298.5" y="-96" font-family="Helvetica,sans-Serif" font-size="10.00">dtab</text>
<text text-anchor="middle" x="298.5" y="-85" font-family="Helvetica,sans-Serif" font-size="10.00">eta_max</text>
<text text-anchor="middle" x="298.5" y="-74" font-family="Helvetica,sans-Serif" font-size="10.00">eta_min</text>
<text text-anchor="middle" x="298.5" y="-63" font-family="Helvetica,sans-Serif" font-size="10.00">ltab</text>
<text text-anchor="middle" x="298.5" y="-52" font-family="Helvetica,sans-Serif" font-size="10.00">mtab</text>
<text text-anchor="middle" x="298.5" y="-41" font-family="Helvetica,sans-Serif" font-size="10.00">...</text>
</g>
</g>
</svg>
