<?xml version="1.0" encoding="UTF-8" standalone="no"?>
<!DOCTYPE svg PUBLIC "-//W3C//DTD SVG 1.1//EN"
 "http://www.w3.org/Graphics/SVG/1.1/DTD/svg11.dtd">
<!-- Generated by graphviz version 2.40.1 (20161225.0304)
 -->
<!-- Title: sll_t_nml_mesh_1d_two_grid_cart Pages: 1 -->
<svg width="365pt" height="172pt"
 viewBox="0.00 0.00 364.50 172.00" xmlns="http://www.w3.org/2000/svg" xmlns:xlink="http://www.w3.org/1999/xlink">
<g id="graph0" class="graph" transform="scale(1 1) rotate(0) translate(4 168)">
<title>sll_t_nml_mesh_1d_two_grid_cart</title>
<polygon fill="#ffffff" stroke="transparent" points="-4,4 -4,-168 360.5,-168 360.5,4 -4,4"/>
<!-- Node1 -->
<g id="node1" class="node">
<title>Node1</title>
<polygon fill="#bfbfbf" stroke="#000000" points="109.5,-.5 109.5,-30.5 243.5,-30.5 243.5,-.5 109.5,-.5"/>
<text text-anchor="start" x="117.5" y="-18.5" font-family="Helvetica,sans-Serif" font-size="10.00" fill="#000000">sll_t_nml_mesh_1d_two</text>
<text text-anchor="middle" x="176.5" y="-7.5" font-family="Helvetica,sans-Serif" font-size="10.00" fill="#000000">_grid_cart</text>
</g>
<!-- Node2 -->
<g id="node2" class="node">
<title>Node2</title>
<polygon fill="#ffffff" stroke="#bfbfbf" points="0,-144.5 0,-163.5 103,-163.5 103,-144.5 0,-144.5"/>
<text text-anchor="middle" x="51.5" y="-151.5" font-family="Helvetica,sans-Serif" font-size="10.00" fill="#000000">integer(kind=i32)</text>
</g>
<!-- Node2&#45;&gt;Node1 -->
<g id="edge1" class="edge">
<title>Node2&#45;&gt;Node1</title>
<path fill="none" stroke="#9a32cd" stroke-dasharray="5,2" d="M60.3441,-135.0451C71.6046,-112.445 92.8382,-74.5301 119.5,-49 126.8785,-41.9347 136.016,-35.733 144.7975,-30.6484"/>
<polygon fill="#9a32cd" stroke="#9a32cd" points="57.0943,-133.7258 55.8885,-144.2518 63.3952,-136.7752 57.0943,-133.7258"/>
<text text-anchor="middle" x="146" y="-85" font-family="Helvetica,sans-Serif" font-size="10.00" fill="#000000"> num_cells</text>
</g>
<!-- Node3 -->
<g id="node3" class="node">
<title>Node3</title>
<polygon fill="#ffffff" stroke="#bfbfbf" points="121,-144.5 121,-163.5 232,-163.5 232,-144.5 121,-144.5"/>
<text text-anchor="middle" x="176.5" y="-151.5" font-family="Helvetica,sans-Serif" font-size="10.00" fill="#000000">character(len=256)</text>
</g>
<!-- Node3&#45;&gt;Node1 -->
<g id="edge2" class="edge">
<title>Node3&#45;&gt;Node1</title>
<path fill="none" stroke="#9a32cd" stroke-dasharray="5,2" d="M176.5,-134.375C176.5,-106.5142 176.5,-56.0779 176.5,-30.8033"/>
<polygon fill="#9a32cd" stroke="#9a32cd" points="173.0001,-134.4803 176.5,-144.4803 180.0001,-134.4804 173.0001,-134.4803"/>
<text text-anchor="middle" x="190.5" y="-85" font-family="Helvetica,sans-Serif" font-size="10.00" fill="#000000"> label</text>
</g>
<!-- Node4 -->
<g id="node4" class="node">
<title>Node4</title>
<polygon fill="#ffffff" stroke="#bfbfbf" points="250.5,-144.5 250.5,-163.5 338.5,-163.5 338.5,-144.5 250.5,-144.5"/>
<text text-anchor="middle" x="294.5" y="-151.5" font-family="Helvetica,sans-Serif" font-size="10.00" fill="#000000">real(kind=f64)</text>
</g>
<!-- Node4&#45;&gt;Node1 -->
<g id="edge3" class="edge">
<title>Node4&#45;&gt;Node1</title>
<path fill="none" stroke="#9a32cd" stroke-dasharray="5,2" d="M280.5597,-136.1481C263.8724,-114.9765 234.8691,-78.801 208.5,-49 203.0636,-42.856 196.8792,-36.2898 191.406,-30.6132"/>
<polygon fill="#9a32cd" stroke="#9a32cd" points="277.9853,-138.5369 286.9138,-144.2407 283.491,-134.2139 277.9853,-138.5369"/>
<text text-anchor="middle" x="314" y="-118" font-family="Helvetica,sans-Serif" font-size="10.00" fill="#000000"> eta_in_min</text>
<text text-anchor="middle" x="314" y="-107" font-family="Helvetica,sans-Serif" font-size="10.00" fill="#000000">eta_max</text>
<text text-anchor="middle" x="314" y="-96" font-family="Helvetica,sans-Serif" font-size="10.00" fill="#000000">eta_in_max</text>
<text text-anchor="middle" x="314" y="-85" font-family="Helvetica,sans-Serif" font-size="10.00" fill="#000000">density_out_max</text>
<text text-anchor="middle" x="314" y="-74" font-family="Helvetica,sans-Serif" font-size="10.00" fill="#000000">eta_min</text>
<text text-anchor="middle" x="314" y="-63" font-family="Helvetica,sans-Serif" font-size="10.00" fill="#000000">density_out_min</text>
<text text-anchor="middle" x="314" y="-52" font-family="Helvetica,sans-Serif" font-size="10.00" fill="#000000">density_in</text>
</g>
</g>
</svg>
