<?xml version="1.0" encoding="UTF-8" standalone="no"?>
<!DOCTYPE svg PUBLIC "-//W3C//DTD SVG 1.1//EN"
 "http://www.w3.org/Graphics/SVG/1.1/DTD/svg11.dtd">
<!-- Generated by graphviz version 2.43.0 (0)
 -->
<!-- Title: sll_c_maxwell_3d_base Pages: 1 -->
<svg width="139pt" height="272pt"
 viewBox="0.00 0.00 139.00 272.00" xmlns="http://www.w3.org/2000/svg" xmlns:xlink="http://www.w3.org/1999/xlink">
<g id="graph0" class="graph" transform="scale(1 1) rotate(0) translate(4 268)">
<title>sll_c_maxwell_3d_base</title>
<polygon fill="white" stroke="transparent" points="-4,4 -4,-268 135,-268 135,4 -4,4"/>
<!-- Node1 -->
<g id="node1" class="node">
<title>Node1</title>
<g id="a_node1"><a xlink:title=" ">
<polygon fill="#bfbfbf" stroke="black" points="0,-0.5 0,-19.5 131,-19.5 131,-0.5 0,-0.5"/>
<text text-anchor="middle" x="65.5" y="-7.5" font-family="Helvetica,sans-Serif" font-size="10.00">sll_c_maxwell_3d_base</text>
</a>
</g>
</g>
<!-- Node2 -->
<g id="node2" class="node">
<title>Node2</title>
<g id="a_node2"><a xlink:href="structsll__m__profile__functions_1_1sll__t__profile__functions.html" target="_top" xlink:title=" ">
<polygon fill="white" stroke="black" points="4,-67.5 4,-86.5 127,-86.5 127,-67.5 4,-67.5"/>
<text text-anchor="middle" x="65.5" y="-74.5" font-family="Helvetica,sans-Serif" font-size="10.00">sll_t_profile_functions</text>
</a>
</g>
</g>
<!-- Node2&#45;&gt;Node1 -->
<g id="edge1" class="edge">
<title>Node2&#45;&gt;Node1</title>
<path fill="none" stroke="#9a32cd" stroke-dasharray="5,2" d="M65.5,-57.04C65.5,-44.67 65.5,-29.12 65.5,-19.63"/>
<polygon fill="#9a32cd" stroke="#9a32cd" points="62,-57.23 65.5,-67.23 69,-57.23 62,-57.23"/>
<text text-anchor="middle" x="82.5" y="-41" font-family="Helvetica,sans-Serif" font-size="10.00"> profile</text>
</g>
<!-- Node3 -->
<g id="node3" class="node">
<title>Node3</title>
<g id="a_node3"><a xlink:title=" ">
<polygon fill="white" stroke="#bfbfbf" points="21.5,-244.5 21.5,-263.5 109.5,-263.5 109.5,-244.5 21.5,-244.5"/>
<text text-anchor="middle" x="65.5" y="-251.5" font-family="Helvetica,sans-Serif" font-size="10.00">real(kind=f64)</text>
</a>
</g>
</g>
<!-- Node3&#45;&gt;Node2 -->
<g id="edge2" class="edge">
<title>Node3&#45;&gt;Node2</title>
<path fill="none" stroke="#9a32cd" stroke-dasharray="5,2" d="M65.5,-233.95C65.5,-196.3 65.5,-113.65 65.5,-86.69"/>
<polygon fill="#9a32cd" stroke="#9a32cd" points="62,-234.08 65.5,-244.08 69,-234.08 62,-234.08"/>
<text text-anchor="middle" x="81.5" y="-218" font-family="Helvetica,sans-Serif" font-size="10.00"> a</text>
<text text-anchor="middle" x="81.5" y="-207" font-family="Helvetica,sans-Serif" font-size="10.00">kr</text>
<text text-anchor="middle" x="81.5" y="-196" font-family="Helvetica,sans-Serif" font-size="10.00">kte</text>
<text text-anchor="middle" x="81.5" y="-185" font-family="Helvetica,sans-Serif" font-size="10.00">kti</text>
<text text-anchor="middle" x="81.5" y="-174" font-family="Helvetica,sans-Serif" font-size="10.00">rbar</text>
<text text-anchor="middle" x="81.5" y="-163" font-family="Helvetica,sans-Serif" font-size="10.00">rhobar</text>
<text text-anchor="middle" x="81.5" y="-152" font-family="Helvetica,sans-Serif" font-size="10.00">tebar</text>
<text text-anchor="middle" x="81.5" y="-141" font-family="Helvetica,sans-Serif" font-size="10.00">tibar</text>
<text text-anchor="middle" x="81.5" y="-130" font-family="Helvetica,sans-Serif" font-size="10.00">wr</text>
<text text-anchor="middle" x="81.5" y="-119" font-family="Helvetica,sans-Serif" font-size="10.00">wte</text>
<text text-anchor="middle" x="81.5" y="-108" font-family="Helvetica,sans-Serif" font-size="10.00">...</text>
</g>
</g>
</svg>
