<?xml version="1.0" encoding="UTF-8" standalone="no"?>
<!DOCTYPE svg PUBLIC "-//W3C//DTD SVG 1.1//EN"
 "http://www.w3.org/Graphics/SVG/1.1/DTD/svg11.dtd">
<!-- Generated by graphviz version 2.40.1 (20161225.0304)
 -->
<!-- Title: linear_pendulum_operators Pages: 1 -->
<svg width="312pt" height="176pt"
 viewBox="0.00 0.00 311.50 176.00" xmlns="http://www.w3.org/2000/svg" xmlns:xlink="http://www.w3.org/1999/xlink">
<g id="graph0" class="graph" transform="scale(1 1) rotate(0) translate(4 172)">
<title>linear_pendulum_operators</title>
<polygon fill="#ffffff" stroke="transparent" points="-4,4 -4,-172 307.5,-172 307.5,4 -4,4"/>
<!-- Node2 -->
<g id="node1" class="node">
<title>Node2</title>
<polygon fill="#bfbfbf" stroke="#000000" points="145.5,-.5 145.5,-19.5 295.5,-19.5 295.5,-.5 145.5,-.5"/>
<text text-anchor="middle" x="220.5" y="-7.5" font-family="Helvetica,sans-Serif" font-size="10.00" fill="#000000">linear_pendulum_operators</text>
</g>
<!-- Node3 -->
<g id="node2" class="node">
<title>Node3</title>
<g id="a_node2"><a xlink:href="structsll__m__operator__splitting_1_1sll__t__operator__splitting.html" target="_top" xlink:title="operator splitting object ">
<polygon fill="#ffffff" stroke="#000000" points="89.5,-58.5 89.5,-77.5 217.5,-77.5 217.5,-58.5 89.5,-58.5"/>
<text text-anchor="middle" x="153.5" y="-65.5" font-family="Helvetica,sans-Serif" font-size="10.00" fill="#000000">sll_t_operator_splitting</text>
</a>
</g>
</g>
<!-- Node3&#45;&gt;Node2 -->
<g id="edge1" class="edge">
<title>Node3&#45;&gt;Node2</title>
<path fill="none" stroke="#191970" d="M172.1991,-51.8127C184.0886,-41.5203 199.0914,-28.5328 209.1959,-19.7856"/>
<polygon fill="#191970" stroke="#191970" points="169.8336,-49.2312 164.5637,-58.4225 174.4151,-54.5237 169.8336,-49.2312"/>
</g>
<!-- Node4 -->
<g id="node3" class="node">
<title>Node4</title>
<polygon fill="#ffffff" stroke="#bfbfbf" points="0,-148.5 0,-167.5 49,-167.5 49,-148.5 0,-148.5"/>
<text text-anchor="middle" x="24.5" y="-155.5" font-family="Helvetica,sans-Serif" font-size="10.00" fill="#000000">logical</text>
</g>
<!-- Node4&#45;&gt;Node3 -->
<g id="edge2" class="edge">
<title>Node4&#45;&gt;Node3</title>
<path fill="none" stroke="#9a32cd" stroke-dasharray="5,2" d="M26.1549,-138.1066C28.3062,-124.7235 33.2342,-107.6435 44.5,-97 52.7558,-89.2003 75.9099,-82.5147 98.7656,-77.5351"/>
<polygon fill="#9a32cd" stroke="#9a32cd" points="22.6534,-137.9074 24.9226,-148.2564 29.6024,-138.7511 22.6534,-137.9074"/>
<text text-anchor="middle" x="77.5" y="-111" font-family="Helvetica,sans-Serif" font-size="10.00" fill="#000000"> split_begin_t</text>
</g>
<!-- Node5 -->
<g id="node4" class="node">
<title>Node5</title>
<polygon fill="#ffffff" stroke="#bfbfbf" points="67,-148.5 67,-167.5 170,-167.5 170,-148.5 67,-148.5"/>
<text text-anchor="middle" x="118.5" y="-155.5" font-family="Helvetica,sans-Serif" font-size="10.00" fill="#000000">integer(kind=i32)</text>
</g>
<!-- Node5&#45;&gt;Node3 -->
<g id="edge3" class="edge">
<title>Node5&#45;&gt;Node3</title>
<path fill="none" stroke="#9a32cd" stroke-dasharray="5,2" d="M114.8176,-138.172C113.4581,-125.7617 113.4836,-109.7632 119.5,-97 123.205,-89.1402 130.1759,-82.6069 136.846,-77.7439"/>
<polygon fill="#9a32cd" stroke="#9a32cd" points="111.3994,-138.9836 116.3233,-148.3647 118.3243,-137.9606 111.3994,-138.9836"/>
<text text-anchor="middle" x="152" y="-122" font-family="Helvetica,sans-Serif" font-size="10.00" fill="#000000"> dim_split_v</text>
<text text-anchor="middle" x="152" y="-111" font-family="Helvetica,sans-Serif" font-size="10.00" fill="#000000">nb_split_step</text>
<text text-anchor="middle" x="152" y="-100" font-family="Helvetica,sans-Serif" font-size="10.00" fill="#000000">split_case</text>
</g>
<!-- Node6 -->
<g id="node5" class="node">
<title>Node6</title>
<polygon fill="#ffffff" stroke="#bfbfbf" points="215.5,-148.5 215.5,-167.5 303.5,-167.5 303.5,-148.5 215.5,-148.5"/>
<text text-anchor="middle" x="259.5" y="-155.5" font-family="Helvetica,sans-Serif" font-size="10.00" fill="#000000">real(kind=f64)</text>
</g>
<!-- Node6&#45;&gt;Node2 -->
<g id="edge5" class="edge">
<title>Node6&#45;&gt;Node2</title>
<path fill="none" stroke="#9a32cd" stroke-dasharray="5,2" d="M270.2968,-139.3349C271.6189,-136.3004 272.7621,-133.1258 273.5,-130 276.8697,-115.7257 277.4626,-111.1212 273.5,-97 264.7555,-65.8379 241.4298,-34.7707 228.8379,-19.5867"/>
<polygon fill="#9a32cd" stroke="#9a32cd" points="267.1413,-137.8189 265.7397,-148.3206 273.3843,-140.9851 267.1413,-137.8189"/>
<text text-anchor="middle" x="271.5" y="-71" font-family="Helvetica,sans-Serif" font-size="10.00" fill="#000000"> x</text>
<text text-anchor="middle" x="271.5" y="-60" font-family="Helvetica,sans-Serif" font-size="10.00" fill="#000000">v</text>
</g>
<!-- Node6&#45;&gt;Node3 -->
<g id="edge4" class="edge">
<title>Node6&#45;&gt;Node3</title>
<path fill="none" stroke="#9a32cd" stroke-dasharray="5,2" d="M227.0534,-143.5711C220.1947,-139.7142 213.2884,-135.1595 207.5,-130 194.1546,-118.1044 196.2033,-110.5144 184.5,-97 178.5176,-90.0918 171.0574,-83.072 164.9547,-77.6694"/>
<polygon fill="#9a32cd" stroke="#9a32cd" points="225.7838,-146.8568 236.2672,-148.3893 229.0276,-140.6537 225.7838,-146.8568"/>
<text text-anchor="middle" x="240.5" y="-116.5" font-family="Helvetica,sans-Serif" font-size="10.00" fill="#000000"> current_time</text>
<text text-anchor="middle" x="240.5" y="-105.5" font-family="Helvetica,sans-Serif" font-size="10.00" fill="#000000">split_step</text>
</g>
</g>
</svg>
