<?xml version="1.0" encoding="UTF-8" standalone="no"?>
<!DOCTYPE svg PUBLIC "-//W3C//DTD SVG 1.1//EN"
 "http://www.w3.org/Graphics/SVG/1.1/DTD/svg11.dtd">
<!-- Generated by graphviz version 2.43.0 (0)
 -->
<!-- Title: sll_t_maxwell_2d_diga Pages: 1 -->
<!--zoomable 474 -->
<svg id="main" version="1.1" xmlns="http://www.w3.org/2000/svg" xmlns:xlink="http://www.w3.org/1999/xlink" xml:space="preserve" onload="init(evt)">
<style type="text/css"><![CDATA[
.edge:hover path { stroke: red; }
.edge:hover polygon { stroke: red; fill: red; }
]]></style>
<script type="text/javascript"><![CDATA[
var edges = document.getElementsByTagName('g');
if (edges && edges.length) {
  for (var i=0;i<edges.length;i++) {
    if (edges[i].id.substr(0,4)=='edge') {
      edges[i].setAttribute('class','edge');
    }
  }
}
]]></script>
        <defs>
                <circle id="rim" cx="0" cy="0" r="7"/>
                <circle id="rim2" cx="0" cy="0" r="3.5"/>
                <g id="zoomPlus">
                        <use xlink:href="#rim" fill="#404040">
                                <set attributeName="fill" to="#808080" begin="zoomplus.mouseover" end="zoomplus.mouseout"/>
                        </use>
                        <path d="M-4,0h8M0,-4v8" fill="none" stroke="white" stroke-width="1.5" pointer-events="none"/>
                </g>
                <g id="zoomMin">
                        <use xlink:href="#rim" fill="#404040">
                                <set attributeName="fill" to="#808080" begin="zoomminus.mouseover" end="zoomminus.mouseout"/>
                        </use>
                        <path d="M-4,0h8" fill="none" stroke="white" stroke-width="1.5" pointer-events="none"/>
                </g>
                <g id="dirArrow">
                        <path fill="none" stroke="white" stroke-width="1.5" d="M0,-3.0v7 M-2.5,-0.5L0,-3.0L2.5,-0.5"/>
                </g>
               <g id="resetDef">
                       <use xlink:href="#rim2" fill="#404040">
                               <set attributeName="fill" to="#808080" begin="reset.mouseover" end="reset.mouseout"/>
                       </use>
               </g>
        </defs>

<script type="text/javascript">
var viewWidth = 675;
var viewHeight = 474;
var sectionId = 'dynsection-0';
</script>
<script xlink:href="svgpan.js"/>
<svg id="graph" class="graph">
<g id="viewport">
<title>sll_t_maxwell_2d_diga</title>
<polygon fill="white" stroke="transparent" points="-4,4 -4,-470 671,-470 671,4 -4,4"/>
<!-- Node1 -->
<g id="node1" class="node">
<title>Node1</title>
<g id="a_node1"><a xlink:title="DG method in 2D with general coordinates.">
<polygon fill="#bfbfbf" stroke="black" points="539,-189.5 539,-208.5 667,-208.5 667,-189.5 539,-189.5"/>
<text text-anchor="middle" x="603" y="-196.5" font-family="Helvetica,sans-Serif" font-size="10.00">sll_t_maxwell_2d_diga</text>
</a>
</g>
</g>
<!-- Node2 -->
<g id="node2" class="node">
<title>Node2</title>
<g id="a_node2"><a xlink:href="structsll__m__maxwell__2d__diga_1_1cell__type.html" target="_top" xlink:title="Information about a mesh cell.">
<polygon fill="white" stroke="black" points="421,-247.5 421,-266.5 482,-266.5 482,-247.5 421,-247.5"/>
<text text-anchor="middle" x="451.5" y="-254.5" font-family="Helvetica,sans-Serif" font-size="10.00">cell_type</text>
</a>
</g>
</g>
<!-- Node2&#45;&gt;Node1 -->
<g id="edge1" class="edge">
<title>Node2&#45;&gt;Node1</title>
<path fill="none" stroke="#9a32cd" stroke-dasharray="5,2" d="M486.84,-243.68C514.46,-232.96 552.59,-218.17 577.28,-208.59"/>
<polygon fill="#9a32cd" stroke="#9a32cd" points="485.24,-240.54 477.19,-247.42 487.78,-247.07 485.24,-240.54"/>
<text text-anchor="middle" x="510.5" y="-241" font-family="Helvetica,sans-Serif" font-size="10.00"> cell</text>
</g>
<!-- Node3 -->
<g id="node3" class="node">
<title>Node3</title>
<g id="a_node3"><a xlink:title=" ">
<polygon fill="white" stroke="#bfbfbf" points="20.5,-343.5 20.5,-362.5 123.5,-362.5 123.5,-343.5 20.5,-343.5"/>
<text text-anchor="middle" x="72" y="-350.5" font-family="Helvetica,sans-Serif" font-size="10.00">integer(kind=i32)</text>
</a>
</g>
</g>
<!-- Node3&#45;&gt;Node1 -->
<g id="edge7" class="edge">
<title>Node3&#45;&gt;Node1</title>
<path fill="none" stroke="#9a32cd" stroke-dasharray="5,2" d="M115.46,-365.05C166.59,-377.58 254.61,-392.83 327,-373 443.61,-341.07 557.43,-240.93 591.64,-208.94"/>
<polygon fill="#9a32cd" stroke="#9a32cd" points="116.3,-361.65 105.75,-362.59 114.58,-368.44 116.3,-361.65"/>
<text text-anchor="middle" x="374" y="-458" font-family="Helvetica,sans-Serif" font-size="10.00"> bc_east</text>
<text text-anchor="middle" x="374" y="-447" font-family="Helvetica,sans-Serif" font-size="10.00">bc_north</text>
<text text-anchor="middle" x="374" y="-436" font-family="Helvetica,sans-Serif" font-size="10.00">bc_south</text>
<text text-anchor="middle" x="374" y="-425" font-family="Helvetica,sans-Serif" font-size="10.00">bc_west</text>
<text text-anchor="middle" x="374" y="-414" font-family="Helvetica,sans-Serif" font-size="10.00">degree</text>
<text text-anchor="middle" x="374" y="-403" font-family="Helvetica,sans-Serif" font-size="10.00">flux_type</text>
<text text-anchor="middle" x="374" y="-392" font-family="Helvetica,sans-Serif" font-size="10.00">nc_eta1</text>
<text text-anchor="middle" x="374" y="-381" font-family="Helvetica,sans-Serif" font-size="10.00">nc_eta2</text>
<text text-anchor="middle" x="374" y="-370" font-family="Helvetica,sans-Serif" font-size="10.00">polarization</text>
</g>
<!-- Node3&#45;&gt;Node2 -->
<g id="edge2" class="edge">
<title>Node3&#45;&gt;Node2</title>
<path fill="none" stroke="#9a32cd" stroke-dasharray="5,2" d="M133.65,-352.99C157.77,-352.53 185.74,-351.42 211,-349 263,-344.01 276.41,-343.02 327,-330 361.72,-321.07 372.54,-321.9 403,-303 419,-293.07 433.99,-276.99 442.7,-266.71"/>
<polygon fill="#9a32cd" stroke="#9a32cd" points="133.51,-349.49 123.57,-353.15 133.62,-356.49 133.51,-349.49"/>
<text text-anchor="middle" x="278" y="-361" font-family="Helvetica,sans-Serif" font-size="10.00"> i</text>
<text text-anchor="middle" x="278" y="-350" font-family="Helvetica,sans-Serif" font-size="10.00">j</text>
</g>
<!-- Node4 -->
<g id="node4" class="node">
<title>Node4</title>
<g id="a_node4"><a xlink:href="structsll__m__maxwell__2d__diga_1_1edge__type.html" target="_top" xlink:title="Local type with edge properties.">
<polygon fill="white" stroke="black" points="244,-301.5 244,-320.5 312,-320.5 312,-301.5 244,-301.5"/>
<text text-anchor="middle" x="278" y="-308.5" font-family="Helvetica,sans-Serif" font-size="10.00">edge_type</text>
</a>
</g>
</g>
<!-- Node3&#45;&gt;Node4 -->
<g id="edge4" class="edge">
<title>Node3&#45;&gt;Node4</title>
<path fill="none" stroke="#9a32cd" stroke-dasharray="5,2" d="M129.39,-341.39C166.2,-333.81 213,-324.18 243.92,-317.81"/>
<polygon fill="#9a32cd" stroke="#9a32cd" points="128.38,-338.02 119.29,-343.47 129.79,-344.88 128.38,-338.02"/>
<text text-anchor="middle" x="186.5" y="-337" font-family="Helvetica,sans-Serif" font-size="10.00"> bc_type</text>
</g>
<!-- Node6 -->
<g id="node6" class="node">
<title>Node6</title>
<g id="a_node6"><a xlink:href="structsll__m__dg__fields_1_1sll__t__dg__field__2d.html" target="_top" xlink:title="Object to describe field data with DG numerical method.">
<polygon fill="white" stroke="black" points="229,-149.5 229,-168.5 327,-168.5 327,-149.5 229,-149.5"/>
<text text-anchor="middle" x="278" y="-156.5" font-family="Helvetica,sans-Serif" font-size="10.00">sll_t_dg_field_2d</text>
</a>
</g>
</g>
<!-- Node3&#45;&gt;Node6 -->
<g id="edge9" class="edge">
<title>Node3&#45;&gt;Node6</title>
<path fill="none" stroke="#9a32cd" stroke-dasharray="5,2" d="M92.89,-337.2C110.56,-323.48 137.33,-303.44 162,-288 182.9,-274.92 195.98,-281.55 211,-262 232.67,-233.78 207.22,-212.13 229,-184 234.12,-177.39 241.48,-172.35 248.91,-168.59"/>
<polygon fill="#9a32cd" stroke="#9a32cd" points="90.71,-334.46 84.99,-343.38 95.03,-339.97 90.71,-334.46"/>
<text text-anchor="middle" x="186.5" y="-313" font-family="Helvetica,sans-Serif" font-size="10.00"> degree</text>
<text text-anchor="middle" x="186.5" y="-302" font-family="Helvetica,sans-Serif" font-size="10.00">file_id</text>
<text text-anchor="middle" x="186.5" y="-291" font-family="Helvetica,sans-Serif" font-size="10.00">tag</text>
</g>
<!-- Node4&#45;&gt;Node2 -->
<g id="edge3" class="edge">
<title>Node4&#45;&gt;Node2</title>
<path fill="none" stroke="#9a32cd" stroke-dasharray="5,2" d="M318.94,-298.42C350.09,-288.62 392.65,-275.22 420.82,-266.34"/>
<polygon fill="#9a32cd" stroke="#9a32cd" points="317.75,-295.13 309.27,-301.47 319.86,-301.81 317.75,-295.13"/>
<text text-anchor="middle" x="374" y="-291" font-family="Helvetica,sans-Serif" font-size="10.00"> edge</text>
</g>
<!-- Node5 -->
<g id="node5" class="node">
<title>Node5</title>
<g id="a_node5"><a xlink:title=" ">
<polygon fill="white" stroke="#bfbfbf" points="28,-172.5 28,-191.5 116,-191.5 116,-172.5 28,-172.5"/>
<text text-anchor="middle" x="72" y="-179.5" font-family="Helvetica,sans-Serif" font-size="10.00">real(kind=f64)</text>
</a>
</g>
</g>
<!-- Node5&#45;&gt;Node1 -->
<g id="edge13" class="edge">
<title>Node5&#45;&gt;Node1</title>
<path fill="none" stroke="#9a32cd" stroke-dasharray="5,2" d="M91.71,-165.86C141.68,-124.79 282.65,-22.13 403,-60 487.02,-86.44 566.49,-162.35 592.84,-189.34"/>
<polygon fill="#9a32cd" stroke="#9a32cd" points="89.4,-163.23 83.97,-172.33 93.89,-168.6 89.4,-163.23"/>
<text text-anchor="middle" x="374" y="-173" font-family="Helvetica,sans-Serif" font-size="10.00"> c</text>
<text text-anchor="middle" x="374" y="-162" font-family="Helvetica,sans-Serif" font-size="10.00">delta_eta1</text>
<text text-anchor="middle" x="374" y="-151" font-family="Helvetica,sans-Serif" font-size="10.00">delta_eta2</text>
<text text-anchor="middle" x="374" y="-140" font-family="Helvetica,sans-Serif" font-size="10.00">e_0</text>
<text text-anchor="middle" x="374" y="-129" font-family="Helvetica,sans-Serif" font-size="10.00">eta1_max</text>
<text text-anchor="middle" x="374" y="-118" font-family="Helvetica,sans-Serif" font-size="10.00">eta1_min</text>
<text text-anchor="middle" x="374" y="-107" font-family="Helvetica,sans-Serif" font-size="10.00">eta2_max</text>
<text text-anchor="middle" x="374" y="-96" font-family="Helvetica,sans-Serif" font-size="10.00">eta2_min</text>
<text text-anchor="middle" x="374" y="-85" font-family="Helvetica,sans-Serif" font-size="10.00">f</text>
<text text-anchor="middle" x="374" y="-74" font-family="Helvetica,sans-Serif" font-size="10.00">mu_0</text>
<text text-anchor="middle" x="374" y="-63" font-family="Helvetica,sans-Serif" font-size="10.00">...</text>
</g>
<!-- Node5&#45;&gt;Node2 -->
<g id="edge6" class="edge">
<title>Node5&#45;&gt;Node2</title>
<path fill="none" stroke="#9a32cd" stroke-dasharray="5,2" d="M126.37,-188.36C195.08,-196.64 307.95,-210.57 327,-215 362.51,-223.26 402.2,-237.74 426.77,-247.35"/>
<polygon fill="#9a32cd" stroke="#9a32cd" points="126.5,-184.85 116.15,-187.13 125.66,-191.8 126.5,-184.85"/>
<text text-anchor="middle" x="278" y="-284" font-family="Helvetica,sans-Serif" font-size="10.00"> dxmatrix</text>
<text text-anchor="middle" x="278" y="-273" font-family="Helvetica,sans-Serif" font-size="10.00">dymatrix</text>
<text text-anchor="middle" x="278" y="-262" font-family="Helvetica,sans-Serif" font-size="10.00">eta1_max</text>
<text text-anchor="middle" x="278" y="-251" font-family="Helvetica,sans-Serif" font-size="10.00">eta1_min</text>
<text text-anchor="middle" x="278" y="-240" font-family="Helvetica,sans-Serif" font-size="10.00">eta2_max</text>
<text text-anchor="middle" x="278" y="-229" font-family="Helvetica,sans-Serif" font-size="10.00">eta2_min</text>
<text text-anchor="middle" x="278" y="-218" font-family="Helvetica,sans-Serif" font-size="10.00">massmatrix</text>
</g>
<!-- Node5&#45;&gt;Node4 -->
<g id="edge5" class="edge">
<title>Node5&#45;&gt;Node4</title>
<path fill="none" stroke="#9a32cd" stroke-dasharray="5,2" d="M106.62,-195.36C146.2,-211.2 207.11,-235.99 211,-240 226.56,-256.07 213.98,-270.43 229,-287 234.51,-293.07 241.9,-297.81 249.23,-301.41"/>
<polygon fill="#9a32cd" stroke="#9a32cd" points="107.64,-192 97.06,-191.54 105.05,-198.5 107.64,-192"/>
<text text-anchor="middle" x="186.5" y="-254" font-family="Helvetica,sans-Serif" font-size="10.00"> length</text>
<text text-anchor="middle" x="186.5" y="-243" font-family="Helvetica,sans-Serif" font-size="10.00">vec_norm</text>
</g>
<!-- Node5&#45;&gt;Node6 -->
<g id="edge11" class="edge">
<title>Node5&#45;&gt;Node6</title>
<path fill="none" stroke="#9a32cd" stroke-dasharray="5,2" d="M112.01,-169.64C127.42,-165.36 145.38,-161.11 162,-159 183.89,-156.22 208.3,-155.84 228.99,-156.3"/>
<polygon fill="#9a32cd" stroke="#9a32cd" points="110.95,-166.31 102.3,-172.43 112.88,-173.03 110.95,-166.31"/>
<text text-anchor="middle" x="186.5" y="-184" font-family="Helvetica,sans-Serif" font-size="10.00"> array</text>
<text text-anchor="middle" x="186.5" y="-173" font-family="Helvetica,sans-Serif" font-size="10.00">wgalo</text>
<text text-anchor="middle" x="186.5" y="-162" font-family="Helvetica,sans-Serif" font-size="10.00">xgalo</text>
</g>
<!-- Node6&#45;&gt;Node1 -->
<g id="edge8" class="edge">
<title>Node6&#45;&gt;Node1</title>
<path fill="none" stroke="#9a32cd" stroke-dasharray="5,2" d="M307.8,-172.67C319.14,-177.43 332.44,-182.26 345,-185 410.05,-199.19 486.44,-201.61 538.93,-201.15"/>
<polygon fill="#9a32cd" stroke="#9a32cd" points="308.97,-169.36 298.41,-168.56 306.17,-175.77 308.97,-169.36"/>
<text text-anchor="middle" x="451.5" y="-203" font-family="Helvetica,sans-Serif" font-size="10.00"> po</text>
</g>
<!-- Node7 -->
<g id="node7" class="node">
<title>Node7</title>
<g id="a_node7"><a xlink:title=" ">
<polygon fill="white" stroke="#bfbfbf" points="0,-0.5 0,-41.5 144,-41.5 144,-0.5 0,-0.5"/>
<text text-anchor="start" x="8" y="-29.5" font-family="Helvetica,sans-Serif" font-size="10.00">class(sll_coordinate</text>
<text text-anchor="start" x="8" y="-18.5" font-family="Helvetica,sans-Serif" font-size="10.00">_transformation_2d_base)</text>
<text text-anchor="middle" x="72" y="-7.5" font-family="Helvetica,sans-Serif" font-size="10.00">, pointer</text>
</a>
</g>
</g>
<!-- Node7&#45;&gt;Node1 -->
<g id="edge12" class="edge">
<title>Node7&#45;&gt;Node1</title>
<path fill="none" stroke="#9a32cd" stroke-dasharray="5,2" d="M154.25,-8.2C242.47,1.24 383.87,2.95 482,-62 536.31,-97.95 580.92,-164.75 596.27,-189.48"/>
<polygon fill="#9a32cd" stroke="#9a32cd" points="153.84,-4.73 144.29,-9.33 154.62,-11.68 153.84,-4.73"/>
<text text-anchor="middle" x="374" y="-27" font-family="Helvetica,sans-Serif" font-size="10.00"> tau</text>
</g>
<!-- Node7&#45;&gt;Node6 -->
<g id="edge10" class="edge">
<title>Node7&#45;&gt;Node6</title>
<path fill="none" stroke="#9a32cd" stroke-dasharray="5,2" d="M112.04,-47.41C157.91,-78.44 231.67,-128.33 262.61,-149.26"/>
<polygon fill="#9a32cd" stroke="#9a32cd" points="113.78,-44.36 103.54,-41.66 109.86,-50.16 113.78,-44.36"/>
<text text-anchor="middle" x="186.5" y="-113" font-family="Helvetica,sans-Serif" font-size="10.00"> tau</text>
</g>
</g>
</svg>
        <g id="navigator" transform="translate(0 0)" fill="#404254">
                <rect fill="#f2f5e9" fill-opacity="0.5" stroke="#606060" stroke-width=".5" x="0" y="0" width="60" height="60"/>
                <use id="zoomplus" xlink:href="#zoomPlus" x="17" y="9" onmousedown="handleZoom(evt,'in')"/>
                <use id="zoomminus" xlink:href="#zoomMin" x="42" y="9" onmousedown="handleZoom(evt,'out')"/>
                <use id="reset" xlink:href="#resetDef" x="30" y="36" onmousedown="handleReset()"/>
                <g id="arrowUp" xlink:href="#dirArrow" transform="translate(30 24)" onmousedown="handlePan(0,-1)">
                  <use xlink:href="#rim" fill="#404040">
                        <set attributeName="fill" to="#808080" begin="arrowUp.mouseover" end="arrowUp.mouseout"/>
                  </use>
                  <path fill="none" stroke="white" stroke-width="1.5" d="M0,-3.0v7 M-2.5,-0.5L0,-3.0L2.5,-0.5"/>
                </g>
                <g id="arrowRight" xlink:href="#dirArrow" transform="rotate(90) translate(36 -43)" onmousedown="handlePan(1,0)">
                  <use xlink:href="#rim" fill="#404040">
                        <set attributeName="fill" to="#808080" begin="arrowRight.mouseover" end="arrowRight.mouseout"/>
                  </use>
                  <path fill="none" stroke="white" stroke-width="1.5" d="M0,-3.0v7 M-2.5,-0.5L0,-3.0L2.5,-0.5"/>
                </g>
                <g id="arrowDown" xlink:href="#dirArrow" transform="rotate(180) translate(-30 -48)" onmousedown="handlePan(0,1)">
                  <use xlink:href="#rim" fill="#404040">
                        <set attributeName="fill" to="#808080" begin="arrowDown.mouseover" end="arrowDown.mouseout"/>
                  </use>
                  <path fill="none" stroke="white" stroke-width="1.5" d="M0,-3.0v7 M-2.5,-0.5L0,-3.0L2.5,-0.5"/>
                </g>
                <g id="arrowLeft" xlink:href="#dirArrow" transform="rotate(270) translate(-36 17)" onmousedown="handlePan(-1,0)">
                  <use xlink:href="#rim" fill="#404040">
                        <set attributeName="fill" to="#808080" begin="arrowLeft.mouseover" end="arrowLeft.mouseout"/>
                  </use>
                  <path fill="none" stroke="white" stroke-width="1.5" d="M0,-3.0v7 M-2.5,-0.5L0,-3.0L2.5,-0.5"/>
                </g>
        </g>
        <svg viewBox="0 0 15 15" width="100%" height="30px" preserveAspectRatio="xMaxYMin meet">
         <g id="arrow_out" transform="scale(0.3 0.3)">
          <a xlink:href="structsll__m__maxwell__2d__diga_1_1sll__t__maxwell__2d__diga__coll__graph_org.svg" target="_base">
           <rect id="button" ry="5" rx="5" y="6" x="6" height="38" width="38"
                fill="#f2f5e9" fill-opacity="0.5" stroke="#606060" stroke-width="1.0"/>
           <path id="arrow"
             d="M 11.500037,31.436501 C 11.940474,20.09759 22.043105,11.32322 32.158766,21.979434 L 37.068811,17.246167 C 37.068811,17.246167 37.088388,32 37.088388,32 L 22.160133,31.978069 C 22.160133,31.978069 26.997745,27.140456 26.997745,27.140456 C 18.528582,18.264221 13.291696,25.230495 11.500037,31.436501 z"
             style="fill:#404040;"/>
          </a>
         </g>
        </svg>
</svg>
