<?xml version="1.0" encoding="UTF-8" standalone="no"?>
<!DOCTYPE svg PUBLIC "-//W3C//DTD SVG 1.1//EN"
 "http://www.w3.org/Graphics/SVG/1.1/DTD/svg11.dtd">
<!-- Generated by graphviz version 2.43.0 (0)
 -->
<!-- Title: sll_t_fft Pages: 1 -->
<svg width="341pt" height="150pt"
 viewBox="0.00 0.00 340.50 150.00" xmlns="http://www.w3.org/2000/svg" xmlns:xlink="http://www.w3.org/1999/xlink">
<g id="graph0" class="graph" transform="scale(1 1) rotate(0) translate(4 146)">
<title>sll_t_fft</title>
<polygon fill="white" stroke="transparent" points="-4,4 -4,-146 336.5,-146 336.5,4 -4,4"/>
<!-- Node1 -->
<g id="node1" class="node">
<title>Node1</title>
<g id="a_node1"><a xlink:title="Type for FFT plan in SeLaLib.">
<polygon fill="#bfbfbf" stroke="black" points="92,-0.5 92,-19.5 145,-19.5 145,-0.5 92,-0.5"/>
<text text-anchor="middle" x="118.5" y="-7.5" font-family="Helvetica,sans-Serif" font-size="10.00">sll_t_fft</text>
</a>
</g>
</g>
<!-- Node2 -->
<g id="node2" class="node">
<title>Node2</title>
<g id="a_node2"><a xlink:title=" ">
<polygon fill="white" stroke="#bfbfbf" points="0,-111.5 0,-130.5 49,-130.5 49,-111.5 0,-111.5"/>
<text text-anchor="middle" x="24.5" y="-118.5" font-family="Helvetica,sans-Serif" font-size="10.00">logical</text>
</a>
</g>
</g>
<!-- Node2&#45;&gt;Node1 -->
<g id="edge1" class="edge">
<title>Node2&#45;&gt;Node1</title>
<path fill="none" stroke="#9a32cd" stroke-dasharray="5,2" d="M27.55,-101.15C31.39,-82.9 39.65,-55.51 56.5,-38 66.02,-28.1 79.79,-21.61 91.94,-17.48"/>
<polygon fill="#9a32cd" stroke="#9a32cd" points="24.07,-100.68 25.69,-111.15 30.95,-101.96 24.07,-100.68"/>
<text text-anchor="middle" x="85.5" y="-57.5" font-family="Helvetica,sans-Serif" font-size="10.00"> normalized</text>
</g>
<!-- Node3 -->
<g id="node3" class="node">
<title>Node3</title>
<g id="a_node3"><a xlink:title=" ">
<polygon fill="white" stroke="#bfbfbf" points="67,-111.5 67,-130.5 170,-130.5 170,-111.5 67,-111.5"/>
<text text-anchor="middle" x="118.5" y="-118.5" font-family="Helvetica,sans-Serif" font-size="10.00">integer(kind=i32)</text>
</a>
</g>
</g>
<!-- Node3&#45;&gt;Node1 -->
<g id="edge2" class="edge">
<title>Node3&#45;&gt;Node1</title>
<path fill="none" stroke="#9a32cd" stroke-dasharray="5,2" d="M118.5,-101.19C118.5,-77.28 118.5,-36.99 118.5,-19.51"/>
<polygon fill="#9a32cd" stroke="#9a32cd" points="115,-101.45 118.5,-111.45 122,-101.45 115,-101.45"/>
<text text-anchor="middle" x="156.5" y="-74" font-family="Helvetica,sans-Serif" font-size="10.00"> direction</text>
<text text-anchor="middle" x="156.5" y="-63" font-family="Helvetica,sans-Serif" font-size="10.00">problem_rank</text>
<text text-anchor="middle" x="156.5" y="-52" font-family="Helvetica,sans-Serif" font-size="10.00">problem_shape</text>
<text text-anchor="middle" x="156.5" y="-41" font-family="Helvetica,sans-Serif" font-size="10.00">transform_type</text>
</g>
<!-- Node4 -->
<g id="node4" class="node">
<title>Node4</title>
<g id="a_node4"><a xlink:title=" ">
<polygon fill="white" stroke="#bfbfbf" points="188.5,-100.5 188.5,-141.5 332.5,-141.5 332.5,-100.5 188.5,-100.5"/>
<text text-anchor="start" x="196.5" y="-129.5" font-family="Helvetica,sans-Serif" font-size="10.00">complex(kind=f64),</text>
<text text-anchor="start" x="196.5" y="-118.5" font-family="Helvetica,sans-Serif" font-size="10.00"> dimension(:), allocatable,</text>
<text text-anchor="middle" x="260.5" y="-107.5" font-family="Helvetica,sans-Serif" font-size="10.00"> private</text>
</a>
</g>
</g>
<!-- Node4&#45;&gt;Node1 -->
<g id="edge3" class="edge">
<title>Node4&#45;&gt;Node1</title>
<path fill="none" stroke="#9a32cd" stroke-dasharray="5,2" d="M245.03,-91.62C234.11,-73.97 217.98,-52.04 198.5,-38 182.68,-26.6 161.71,-19.76 145.2,-15.82"/>
<polygon fill="#9a32cd" stroke="#9a32cd" points="242.13,-93.6 250.26,-100.4 248.15,-90.02 242.13,-93.6"/>
<text text-anchor="middle" x="257" y="-57.5" font-family="Helvetica,sans-Serif" font-size="10.00"> scratch</text>
</g>
</g>
</svg>
