<?xml version="1.0" encoding="UTF-8" standalone="no"?>
<!DOCTYPE svg PUBLIC "-//W3C//DTD SVG 1.1//EN"
 "http://www.w3.org/Graphics/SVG/1.1/DTD/svg11.dtd">
<!-- Generated by graphviz version 2.38.0 (20140413.2041)
 -->
<!-- Title: sll_c_coordinate_transformation_2d_base Pages: 1 -->
<svg width="351pt" height="137pt"
 viewBox="0.00 0.00 351.00 137.00" xmlns="http://www.w3.org/2000/svg" xmlns:xlink="http://www.w3.org/1999/xlink">
<g id="graph0" class="graph" transform="scale(1 1) rotate(0) translate(4 133)">
<title>sll_c_coordinate_transformation_2d_base</title>
<polygon fill="white" stroke="none" points="-4,4 -4,-133 347,-133 347,4 -4,4"/>
<!-- Node1 -->
<g id="node1" class="node"><title>Node1</title>
<polygon fill="#bfbfbf" stroke="black" points="0,-49.5 0,-79.5 155,-79.5 155,-49.5 0,-49.5"/>
<text text-anchor="start" x="8" y="-67.5" font-family="Helvetica,sans-Serif" font-size="10.00">sll_c_coordinate_transformation</text>
<text text-anchor="middle" x="77.5" y="-56.5" font-family="Helvetica,sans-Serif" font-size="10.00">_2d_base</text>
</g>
<!-- Node2 -->
<g id="node2" class="node"><title>Node2</title>
<g id="a_node2"><a xlink:href="structsll__m__coordinate__transformations__2d_1_1sll__t__coordinate__transformation__2d__analytic.html" target="_top" xlink:title="Analytic transformation. ">
<polygon fill="white" stroke="black" points="191,-98.5 191,-128.5 343,-128.5 343,-98.5 191,-98.5"/>
<text text-anchor="start" x="199" y="-116.5" font-family="Helvetica,sans-Serif" font-size="10.00">sll_t_coordinate_transformation</text>
<text text-anchor="middle" x="267" y="-105.5" font-family="Helvetica,sans-Serif" font-size="10.00">_2d_analytic</text>
</a>
</g>
</g>
<!-- Node1&#45;&gt;Node2 -->
<g id="edge1" class="edge"><title>Node1&#45;&gt;Node2</title>
<path fill="none" stroke="midnightblue" d="M145.934,-82.1229C166.448,-87.4837 188.79,-93.3225 208.578,-98.4938"/>
<polygon fill="midnightblue" stroke="midnightblue" points="146.59,-78.6768 136.03,-79.5346 144.821,-85.4494 146.59,-78.6768"/>
</g>
<!-- Node3 -->
<g id="node3" class="node"><title>Node3</title>
<g id="a_node3"><a xlink:href="structsll__m__coordinate__transformations__2d_1_1sll__t__coordinate__transformation__2d__discrete.html" target="_top" xlink:title="sll_t_coordinate_transformation\l_2d_discrete">
<polygon fill="white" stroke="black" points="191,-49.5 191,-79.5 343,-79.5 343,-49.5 191,-49.5"/>
<text text-anchor="start" x="199" y="-67.5" font-family="Helvetica,sans-Serif" font-size="10.00">sll_t_coordinate_transformation</text>
<text text-anchor="middle" x="267" y="-56.5" font-family="Helvetica,sans-Serif" font-size="10.00">_2d_discrete</text>
</a>
</g>
</g>
<!-- Node1&#45;&gt;Node3 -->
<g id="edge2" class="edge"><title>Node1&#45;&gt;Node3</title>
<path fill="none" stroke="midnightblue" d="M165.103,-64.5C173.727,-64.5 182.432,-64.5 190.924,-64.5"/>
<polygon fill="midnightblue" stroke="midnightblue" points="165.034,-61.0001 155.034,-64.5 165.034,-68.0001 165.034,-61.0001"/>
</g>
<!-- Node4 -->
<g id="node4" class="node"><title>Node4</title>
<g id="a_node4"><a xlink:href="structsll__m__coordinate__transformations__2d__nurbs_1_1sll__t__coordinate__transformation__2d__nurbs.html" target="_top" xlink:title="Nurbs&#45;based coordinate transformation. ">
<polygon fill="white" stroke="black" points="191,-0.5 191,-30.5 343,-30.5 343,-0.5 191,-0.5"/>
<text text-anchor="start" x="199" y="-18.5" font-family="Helvetica,sans-Serif" font-size="10.00">sll_t_coordinate_transformation</text>
<text text-anchor="middle" x="267" y="-7.5" font-family="Helvetica,sans-Serif" font-size="10.00">_2d_nurbs</text>
</a>
</g>
</g>
<!-- Node1&#45;&gt;Node4 -->
<g id="edge3" class="edge"><title>Node1&#45;&gt;Node4</title>
<path fill="none" stroke="midnightblue" d="M145.934,-46.8771C166.448,-41.5163 188.79,-35.6775 208.578,-30.5062"/>
<polygon fill="midnightblue" stroke="midnightblue" points="144.821,-43.5506 136.03,-49.4654 146.59,-50.3232 144.821,-43.5506"/>
</g>
</g>
</svg>
