<?xml version="1.0" encoding="UTF-8" standalone="no"?>
<!DOCTYPE svg PUBLIC "-//W3C//DTD SVG 1.1//EN"
 "http://www.w3.org/Graphics/SVG/1.1/DTD/svg11.dtd">
<!-- Generated by graphviz version 2.43.0 (0)
 -->
<!-- Title: sll_t_scalar_field_2d_discrete_ptr Pages: 1 -->
<svg width="714pt" height="484pt"
 viewBox="0.00 0.00 714.00 483.50" xmlns="http://www.w3.org/2000/svg" xmlns:xlink="http://www.w3.org/1999/xlink">
<g id="graph0" class="graph" transform="scale(1 1) rotate(0) translate(4 479.5)">
<title>sll_t_scalar_field_2d_discrete_ptr</title>
<polygon fill="white" stroke="transparent" points="-4,4 -4,-479.5 710,-479.5 710,4 -4,4"/>
<!-- Node1 -->
<g id="node1" class="node">
<title>Node1</title>
<g id="a_node1"><a xlink:title=" ">
<polygon fill="#bfbfbf" stroke="black" points="608,-264 608,-294 706,-294 706,-264 608,-264"/>
<text text-anchor="start" x="616" y="-282" font-family="Helvetica,sans-Serif" font-size="10.00">sll_t_scalar_field</text>
<text text-anchor="middle" x="657" y="-271" font-family="Helvetica,sans-Serif" font-size="10.00">_2d_discrete_ptr</text>
</a>
</g>
</g>
<!-- Node2 -->
<g id="node2" class="node">
<title>Node2</title>
<g id="a_node2"><a xlink:href="structsll__m__scalar__field__2d_1_1sll__t__scalar__field__2d__discrete.html" target="_top" xlink:title=" ">
<polygon fill="white" stroke="black" points="467,-264 467,-294 565,-294 565,-264 467,-264"/>
<text text-anchor="start" x="475" y="-282" font-family="Helvetica,sans-Serif" font-size="10.00">sll_t_scalar_field</text>
<text text-anchor="middle" x="516" y="-271" font-family="Helvetica,sans-Serif" font-size="10.00">_2d_discrete</text>
</a>
</g>
</g>
<!-- Node2&#45;&gt;Node1 -->
<g id="edge1" class="edge">
<title>Node2&#45;&gt;Node1</title>
<path fill="none" stroke="#9a32cd" stroke-dasharray="5,2" d="M575.43,-279C586.24,-279 597.41,-279 607.86,-279"/>
<polygon fill="#9a32cd" stroke="#9a32cd" points="575.23,-275.5 565.23,-279 575.23,-282.5 575.23,-275.5"/>
<text text-anchor="middle" x="586.5" y="-282" font-family="Helvetica,sans-Serif" font-size="10.00"> f</text>
</g>
<!-- Node3 -->
<g id="node3" class="node">
<title>Node3</title>
<g id="a_node3"><a xlink:href="structsll__m__scalar__field__2d__base_1_1sll__c__scalar__field__2d__base.html" target="_top" xlink:title="Fundamental field type.">
<polygon fill="white" stroke="black" points="233.5,-445 233.5,-475 332.5,-475 332.5,-445 233.5,-445"/>
<text text-anchor="start" x="241.5" y="-463" font-family="Helvetica,sans-Serif" font-size="10.00">sll_c_scalar_field</text>
<text text-anchor="middle" x="283" y="-452" font-family="Helvetica,sans-Serif" font-size="10.00">_2d_base</text>
</a>
</g>
</g>
<!-- Node3&#45;&gt;Node2 -->
<g id="edge2" class="edge">
<title>Node3&#45;&gt;Node2</title>
<path fill="none" stroke="midnightblue" d="M342.7,-451.23C376.9,-443.59 419.04,-429.55 449,-404 484.29,-373.9 503.45,-320.11 511.06,-294.02"/>
<polygon fill="midnightblue" stroke="midnightblue" points="341.89,-447.82 332.82,-453.31 343.33,-454.67 341.89,-447.82"/>
</g>
<!-- Node4 -->
<g id="node4" class="node">
<title>Node4</title>
<g id="a_node4"><a xlink:title=" ">
<polygon fill="white" stroke="#bfbfbf" points="258.5,-406.5 258.5,-425.5 307.5,-425.5 307.5,-406.5 258.5,-406.5"/>
<text text-anchor="middle" x="283" y="-413.5" font-family="Helvetica,sans-Serif" font-size="10.00">logical</text>
</a>
</g>
</g>
<!-- Node4&#45;&gt;Node2 -->
<g id="edge3" class="edge">
<title>Node4&#45;&gt;Node2</title>
<path fill="none" stroke="#9a32cd" stroke-dasharray="5,2" d="M317.35,-408.46C352.65,-399.27 408.71,-381.12 449,-351 471.14,-334.45 491.84,-309.79 503.96,-294.05"/>
<polygon fill="#9a32cd" stroke="#9a32cd" points="316.39,-405.09 307.54,-410.92 318.09,-411.88 316.39,-405.09"/>
<text text-anchor="middle" x="411" y="-392" font-family="Helvetica,sans-Serif" font-size="10.00"> owns_memory</text>
</g>
<!-- Node5 -->
<g id="node5" class="node">
<title>Node5</title>
<g id="a_node5"><a xlink:title=" ">
<polygon fill="white" stroke="#bfbfbf" points="218.5,-357 218.5,-387 347.5,-387 347.5,-357 218.5,-357"/>
<text text-anchor="start" x="226.5" y="-375" font-family="Helvetica,sans-Serif" font-size="10.00">class(sll_c_interpolator</text>
<text text-anchor="middle" x="283" y="-364" font-family="Helvetica,sans-Serif" font-size="10.00">_2d), pointer</text>
</a>
</g>
</g>
<!-- Node5&#45;&gt;Node2 -->
<g id="edge4" class="edge">
<title>Node5&#45;&gt;Node2</title>
<path fill="none" stroke="#9a32cd" stroke-dasharray="5,2" d="M333.6,-353.41C366.48,-340.93 410.49,-323.92 449,-308 459.64,-303.6 471.16,-298.62 481.55,-294.04"/>
<polygon fill="#9a32cd" stroke="#9a32cd" points="332.32,-350.16 324.21,-356.97 334.8,-356.7 332.32,-350.16"/>
<text text-anchor="middle" x="411" y="-339" font-family="Helvetica,sans-Serif" font-size="10.00"> interp_2d</text>
</g>
<!-- Node6 -->
<g id="node6" class="node">
<title>Node6</title>
<g id="a_node6"><a xlink:href="structsll__m__cartesian__meshes_1_1sll__t__cartesian__mesh__2d.html" target="_top" xlink:title="2D cartesian mesh">
<polygon fill="white" stroke="black" points="214.5,-226.5 214.5,-245.5 351.5,-245.5 351.5,-226.5 214.5,-226.5"/>
<text text-anchor="middle" x="283" y="-233.5" font-family="Helvetica,sans-Serif" font-size="10.00">sll_t_cartesian_mesh_2d</text>
</a>
</g>
</g>
<!-- Node6&#45;&gt;Node2 -->
<g id="edge5" class="edge">
<title>Node6&#45;&gt;Node2</title>
<path fill="none" stroke="#9a32cd" stroke-dasharray="5,2" d="M345.19,-247.39C383.18,-254.46 431.33,-263.42 466.64,-270"/>
<polygon fill="#9a32cd" stroke="#9a32cd" points="345.74,-243.93 335.27,-245.54 344.46,-250.81 345.74,-243.93"/>
<text text-anchor="middle" x="411" y="-269" font-family="Helvetica,sans-Serif" font-size="10.00"> mesh</text>
</g>
<!-- Node7 -->
<g id="node7" class="node">
<title>Node7</title>
<g id="a_node7"><a xlink:href="structsll__m__meshes__base_1_1sll__c__mesh__2d__base.html" target="_top" xlink:title="2D logical mesh">
<polygon fill="white" stroke="black" points="0,-220.5 0,-239.5 116,-239.5 116,-220.5 0,-220.5"/>
<text text-anchor="middle" x="58" y="-227.5" font-family="Helvetica,sans-Serif" font-size="10.00">sll_c_mesh_2d_base</text>
</a>
</g>
</g>
<!-- Node7&#45;&gt;Node6 -->
<g id="edge6" class="edge">
<title>Node7&#45;&gt;Node6</title>
<path fill="none" stroke="midnightblue" d="M126.19,-231.81C154.07,-232.56 186.37,-233.43 214.3,-234.18"/>
<polygon fill="midnightblue" stroke="midnightblue" points="126.23,-228.31 116.14,-231.54 126.04,-235.31 126.23,-228.31"/>
</g>
<!-- Node8 -->
<g id="node8" class="node">
<title>Node8</title>
<g id="a_node8"><a xlink:title=" ">
<polygon fill="white" stroke="#bfbfbf" points="6.5,-274.5 6.5,-293.5 109.5,-293.5 109.5,-274.5 6.5,-274.5"/>
<text text-anchor="middle" x="58" y="-281.5" font-family="Helvetica,sans-Serif" font-size="10.00">integer(kind=i32)</text>
</a>
</g>
</g>
<!-- Node8&#45;&gt;Node2 -->
<g id="edge9" class="edge">
<title>Node8&#45;&gt;Node2</title>
<path fill="none" stroke="#9a32cd" stroke-dasharray="5,2" d="M120.11,-285.76C124.81,-285.86 129.48,-285.94 134,-286 253.73,-287.6 394.62,-283.44 466.89,-280.86"/>
<polygon fill="#9a32cd" stroke="#9a32cd" points="119.9,-282.26 109.83,-285.54 119.75,-289.26 119.9,-282.26"/>
<text text-anchor="middle" x="283" y="-322" font-family="Helvetica,sans-Serif" font-size="10.00"> bc1_max</text>
<text text-anchor="middle" x="283" y="-311" font-family="Helvetica,sans-Serif" font-size="10.00">bc2_max</text>
<text text-anchor="middle" x="283" y="-300" font-family="Helvetica,sans-Serif" font-size="10.00">bc1_min</text>
<text text-anchor="middle" x="283" y="-289" font-family="Helvetica,sans-Serif" font-size="10.00">bc2_min</text>
</g>
<!-- Node8&#45;&gt;Node6 -->
<g id="edge7" class="edge">
<title>Node8&#45;&gt;Node6</title>
<path fill="none" stroke="#9a32cd" stroke-dasharray="5,2" d="M102.79,-271.74C113,-269.05 123.85,-266.31 134,-264 164.34,-257.09 198.46,-250.56 226.28,-245.54"/>
<polygon fill="#9a32cd" stroke="#9a32cd" points="101.6,-268.44 92.84,-274.41 103.41,-275.2 101.6,-268.44"/>
<text text-anchor="middle" x="163.5" y="-278" font-family="Helvetica,sans-Serif" font-size="10.00"> num_cells1</text>
<text text-anchor="middle" x="163.5" y="-267" font-family="Helvetica,sans-Serif" font-size="10.00">num_cells2</text>
</g>
<!-- Node9 -->
<g id="node9" class="node">
<title>Node9</title>
<g id="a_node9"><a xlink:title=" ">
<polygon fill="white" stroke="#bfbfbf" points="14,-123.5 14,-142.5 102,-142.5 102,-123.5 14,-123.5"/>
<text text-anchor="middle" x="58" y="-130.5" font-family="Helvetica,sans-Serif" font-size="10.00">real(kind=f64)</text>
</a>
</g>
</g>
<!-- Node9&#45;&gt;Node2 -->
<g id="edge12" class="edge">
<title>Node9&#45;&gt;Node2</title>
<path fill="none" stroke="#9a32cd" stroke-dasharray="5,2" d="M112.34,-132.63C137.02,-133.16 166.64,-134.8 193,-139 266.8,-150.75 286.27,-154.67 355,-184 407.59,-206.44 463.95,-243.27 493.72,-263.86"/>
<polygon fill="#9a32cd" stroke="#9a32cd" points="112.15,-129.13 102.1,-132.46 112.04,-136.13 112.15,-129.13"/>
<text text-anchor="middle" x="283" y="-209" font-family="Helvetica,sans-Serif" font-size="10.00"> values</text>
<text text-anchor="middle" x="283" y="-198" font-family="Helvetica,sans-Serif" font-size="10.00">point1_1d</text>
<text text-anchor="middle" x="283" y="-187" font-family="Helvetica,sans-Serif" font-size="10.00">point2_1d</text>
</g>
<!-- Node9&#45;&gt;Node6 -->
<g id="edge8" class="edge">
<title>Node9&#45;&gt;Node6</title>
<path fill="none" stroke="#9a32cd" stroke-dasharray="5,2" d="M112.26,-138.54C137.65,-142.66 167.89,-149.77 193,-162 226.78,-178.46 258.7,-210.36 273.45,-226.36"/>
<polygon fill="#9a32cd" stroke="#9a32cd" points="112.47,-135.03 102.06,-137.01 111.43,-141.96 112.47,-135.03"/>
<text text-anchor="middle" x="163.5" y="-220" font-family="Helvetica,sans-Serif" font-size="10.00"> delta_eta1</text>
<text text-anchor="middle" x="163.5" y="-209" font-family="Helvetica,sans-Serif" font-size="10.00">eta2_max</text>
<text text-anchor="middle" x="163.5" y="-198" font-family="Helvetica,sans-Serif" font-size="10.00">delta_eta2</text>
<text text-anchor="middle" x="163.5" y="-187" font-family="Helvetica,sans-Serif" font-size="10.00">eta1_min</text>
<text text-anchor="middle" x="163.5" y="-176" font-family="Helvetica,sans-Serif" font-size="10.00">eta2_min</text>
<text text-anchor="middle" x="163.5" y="-165" font-family="Helvetica,sans-Serif" font-size="10.00">eta1_max</text>
</g>
<!-- Node10 -->
<g id="node10" class="node">
<title>Node10</title>
<g id="a_node10"><a xlink:title=" ">
<polygon fill="white" stroke="#bfbfbf" points="211,-38.5 211,-79.5 355,-79.5 355,-38.5 211,-38.5"/>
<text text-anchor="start" x="219" y="-67.5" font-family="Helvetica,sans-Serif" font-size="10.00">class(sll_c_coordinate</text>
<text text-anchor="start" x="219" y="-56.5" font-family="Helvetica,sans-Serif" font-size="10.00">_transformation_2d_base)</text>
<text text-anchor="middle" x="283" y="-45.5" font-family="Helvetica,sans-Serif" font-size="10.00">, pointer</text>
</a>
</g>
</g>
<!-- Node10&#45;&gt;Node2 -->
<g id="edge10" class="edge">
<title>Node10&#45;&gt;Node2</title>
<path fill="none" stroke="#9a32cd" stroke-dasharray="5,2" d="M365.34,-58.49C394.64,-62.2 426.08,-71.21 449,-91 502.01,-136.79 512.45,-227.77 514.5,-263.8"/>
<polygon fill="#9a32cd" stroke="#9a32cd" points="365.4,-54.98 355.08,-57.39 364.65,-61.94 365.4,-54.98"/>
<text text-anchor="middle" x="411" y="-94" font-family="Helvetica,sans-Serif" font-size="10.00"> t</text>
</g>
<!-- Node11 -->
<g id="node11" class="node">
<title>Node11</title>
<g id="a_node11"><a xlink:title=" ">
<polygon fill="white" stroke="#bfbfbf" points="230.5,-0.5 230.5,-19.5 335.5,-19.5 335.5,-0.5 230.5,-0.5"/>
<text text-anchor="middle" x="283" y="-7.5" font-family="Helvetica,sans-Serif" font-size="10.00">character(len=64)</text>
</a>
</g>
</g>
<!-- Node11&#45;&gt;Node2 -->
<g id="edge11" class="edge">
<title>Node11&#45;&gt;Node2</title>
<path fill="none" stroke="#9a32cd" stroke-dasharray="5,2" d="M346.15,-8.3C380.53,-10.66 421.68,-19.43 449,-45 513.09,-105 516.61,-221.98 515.67,-263.73"/>
<polygon fill="#9a32cd" stroke="#9a32cd" points="345.89,-4.78 335.73,-7.76 345.53,-11.77 345.89,-4.78"/>
<text text-anchor="middle" x="411" y="-48" font-family="Helvetica,sans-Serif" font-size="10.00"> name</text>
</g>
</g>
</svg>
