<?xml version="1.0" encoding="UTF-8" standalone="no"?>
<!DOCTYPE svg PUBLIC "-//W3C//DTD SVG 1.1//EN"
 "http://www.w3.org/Graphics/SVG/1.1/DTD/svg11.dtd">
<!-- Generated by graphviz version 2.40.1 (20161225.0304)
 -->
<!-- Title: sll_t_maxwell_3d_trafo Pages: 1 -->
<svg width="139pt" height="151pt"
 viewBox="0.00 0.00 139.00 151.00" xmlns="http://www.w3.org/2000/svg" xmlns:xlink="http://www.w3.org/1999/xlink">
<g id="graph0" class="graph" transform="scale(1 1) rotate(0) translate(4 147)">
<title>sll_t_maxwell_3d_trafo</title>
<polygon fill="#ffffff" stroke="transparent" points="-4,4 -4,-147 135,-147 135,4 -4,4"/>
<!-- Node0 -->
<g id="node1" class="node">
<title>Node0</title>
<polygon fill="#bfbfbf" stroke="#000000" points=".5,-67.5 .5,-86.5 130.5,-86.5 130.5,-67.5 .5,-67.5"/>
<text text-anchor="middle" x="65.5" y="-74.5" font-family="Helvetica,sans-Serif" font-size="10.00" fill="#000000">sll_t_maxwell_3d_trafo</text>
</g>
<!-- Node2 -->
<g id="node3" class="node">
<title>Node2</title>
<g id="a_node3"><a xlink:href="structsll__m__maxwell__3d__trafo__parallel_1_1sll__t__maxwell__3d__trafo__parallel.html" target="_top" xlink:title="sll_t_maxwell_3d_trafo\l_parallel">
<polygon fill="#ffffff" stroke="#000000" points=".5,-.5 .5,-30.5 130.5,-30.5 130.5,-.5 .5,-.5"/>
<text text-anchor="start" x="8.5" y="-18.5" font-family="Helvetica,sans-Serif" font-size="10.00" fill="#000000">sll_t_maxwell_3d_trafo</text>
<text text-anchor="middle" x="65.5" y="-7.5" font-family="Helvetica,sans-Serif" font-size="10.00" fill="#000000">_parallel</text>
</a>
</g>
</g>
<!-- Node0&#45;&gt;Node2 -->
<g id="edge2" class="edge">
<title>Node0&#45;&gt;Node2</title>
<path fill="none" stroke="#191970" d="M65.5,-57.3693C65.5,-48.681 65.5,-38.6241 65.5,-30.5446"/>
<polygon fill="#191970" stroke="#191970" points="62.0001,-57.3906 65.5,-67.3906 69.0001,-57.3907 62.0001,-57.3906"/>
</g>
<!-- Node1 -->
<g id="node2" class="node">
<title>Node1</title>
<g id="a_node2"><a xlink:href="structsll__m__maxwell__3d__base_1_1sll__c__maxwell__3d__base.html" target="_top" xlink:title="sll_c_maxwell_3d_base">
<polygon fill="#ffffff" stroke="#000000" points="0,-123.5 0,-142.5 131,-142.5 131,-123.5 0,-123.5"/>
<text text-anchor="middle" x="65.5" y="-130.5" font-family="Helvetica,sans-Serif" font-size="10.00" fill="#000000">sll_c_maxwell_3d_base</text>
</a>
</g>
</g>
<!-- Node1&#45;&gt;Node0 -->
<g id="edge1" class="edge">
<title>Node1&#45;&gt;Node0</title>
<path fill="none" stroke="#191970" d="M65.5,-113.1575C65.5,-104.155 65.5,-93.9199 65.5,-86.6427"/>
<polygon fill="#191970" stroke="#191970" points="62.0001,-113.2455 65.5,-123.2455 69.0001,-113.2456 62.0001,-113.2455"/>
</g>
</g>
</svg>
