<?xml version="1.0" encoding="UTF-8" standalone="no"?>
<!DOCTYPE svg PUBLIC "-//W3C//DTD SVG 1.1//EN"
 "http://www.w3.org/Graphics/SVG/1.1/DTD/svg11.dtd">
<!-- Generated by graphviz version 2.40.1 (20161225.0304)
 -->
<!-- Title: sll_t_linear_solver_iter_abstract Pages: 1 -->
<svg width="387pt" height="173pt"
 viewBox="0.00 0.00 386.50 173.00" xmlns="http://www.w3.org/2000/svg" xmlns:xlink="http://www.w3.org/1999/xlink">
<g id="graph0" class="graph" transform="scale(1 1) rotate(0) translate(4 169)">
<title>sll_t_linear_solver_iter_abstract</title>
<polygon fill="#ffffff" stroke="transparent" points="-4,4 -4,-169 382.5,-169 382.5,4 -4,4"/>
<!-- Node0 -->
<g id="node1" class="node">
<title>Node0</title>
<polygon fill="#bfbfbf" stroke="#000000" points="140.5,-67.5 140.5,-97.5 245.5,-97.5 245.5,-67.5 140.5,-67.5"/>
<text text-anchor="start" x="148.5" y="-85.5" font-family="Helvetica,sans-Serif" font-size="10.00" fill="#000000">sll_t_linear_solver</text>
<text text-anchor="middle" x="193" y="-74.5" font-family="Helvetica,sans-Serif" font-size="10.00" fill="#000000">_iter_abstract</text>
</g>
<!-- Node2 -->
<g id="node3" class="node">
<title>Node2</title>
<g id="a_node3"><a xlink:href="structsll__m__linear__solver__cg_1_1sll__t__linear__solver__cg.html" target="_top" xlink:title="class for the cg linear solver ">
<polygon fill="#ffffff" stroke="#000000" points="0,-6 0,-25 122,-25 122,-6 0,-6"/>
<text text-anchor="middle" x="61" y="-13" font-family="Helvetica,sans-Serif" font-size="10.00" fill="#000000">sll_t_linear_solver_cg</text>
</a>
</g>
</g>
<!-- Node0&#45;&gt;Node2 -->
<g id="edge2" class="edge">
<title>Node0&#45;&gt;Node2</title>
<path fill="none" stroke="#191970" d="M154.3263,-62.8702C129.8393,-50.4412 99.2577,-34.9187 79.9212,-25.1039"/>
<polygon fill="#191970" stroke="#191970" points="152.8754,-66.0587 163.3766,-67.4639 156.0437,-59.8168 152.8754,-66.0587"/>
</g>
<!-- Node3 -->
<g id="node4" class="node">
<title>Node3</title>
<g id="a_node4"><a xlink:href="structsll__m__linear__solver__mgmres_1_1sll__t__linear__solver__mgmres.html" target="_top" xlink:title="class for a sequential gmres linear solver ">
<polygon fill="#ffffff" stroke="#000000" points="140.5,-.5 140.5,-30.5 245.5,-30.5 245.5,-.5 140.5,-.5"/>
<text text-anchor="start" x="148.5" y="-18.5" font-family="Helvetica,sans-Serif" font-size="10.00" fill="#000000">sll_t_linear_solver</text>
<text text-anchor="middle" x="193" y="-7.5" font-family="Helvetica,sans-Serif" font-size="10.00" fill="#000000">_mgmres</text>
</a>
</g>
</g>
<!-- Node0&#45;&gt;Node3 -->
<g id="edge3" class="edge">
<title>Node0&#45;&gt;Node3</title>
<path fill="none" stroke="#191970" d="M193,-57.0249C193,-48.128 193,-38.4287 193,-30.6432"/>
<polygon fill="#191970" stroke="#191970" points="189.5001,-57.2966 193,-67.2967 196.5001,-57.2967 189.5001,-57.2966"/>
</g>
<!-- Node4 -->
<g id="node5" class="node">
<title>Node4</title>
<g id="a_node5"><a xlink:href="structsll__m__uzawa__iterator_1_1sll__t__uzawa__iterator.html" target="_top" xlink:title="sll_t_uzawa_iterator">
<polygon fill="#ffffff" stroke="#000000" points="263.5,-6 263.5,-25 378.5,-25 378.5,-6 263.5,-6"/>
<text text-anchor="middle" x="321" y="-13" font-family="Helvetica,sans-Serif" font-size="10.00" fill="#000000">sll_t_uzawa_iterator</text>
</a>
</g>
</g>
<!-- Node0&#45;&gt;Node4 -->
<g id="edge4" class="edge">
<title>Node0&#45;&gt;Node4</title>
<path fill="none" stroke="#191970" d="M230.8159,-62.7057C254.5078,-50.3045 283.9842,-34.8754 302.6522,-25.1039"/>
<polygon fill="#191970" stroke="#191970" points="228.9622,-59.7255 221.7257,-67.4639 232.2085,-65.9272 228.9622,-59.7255"/>
</g>
<!-- Node1 -->
<g id="node2" class="node">
<title>Node1</title>
<g id="a_node2"><a xlink:href="structsll__m__linear__solver__abstract_1_1sll__t__linear__solver__abstract.html" target="_top" xlink:title="class for abstract linear solver ">
<polygon fill="#ffffff" stroke="#000000" points="140.5,-134.5 140.5,-164.5 245.5,-164.5 245.5,-134.5 140.5,-134.5"/>
<text text-anchor="start" x="148.5" y="-152.5" font-family="Helvetica,sans-Serif" font-size="10.00" fill="#000000">sll_t_linear_solver</text>
<text text-anchor="middle" x="193" y="-141.5" font-family="Helvetica,sans-Serif" font-size="10.00" fill="#000000">_abstract</text>
</a>
</g>
</g>
<!-- Node1&#45;&gt;Node0 -->
<g id="edge1" class="edge">
<title>Node1&#45;&gt;Node0</title>
<path fill="none" stroke="#191970" d="M193,-124.0249C193,-115.128 193,-105.4287 193,-97.6432"/>
<polygon fill="#191970" stroke="#191970" points="189.5001,-124.2966 193,-134.2967 196.5001,-124.2967 189.5001,-124.2966"/>
</g>
</g>
</svg>
