<?xml version="1.0" encoding="UTF-8" standalone="no"?>
<!DOCTYPE svg PUBLIC "-//W3C//DTD SVG 1.1//EN"
 "http://www.w3.org/Graphics/SVG/1.1/DTD/svg11.dtd">
<!-- Generated by graphviz version 2.40.1 (20161225.0304)
 -->
<!-- Title: sll_t_uzawa_iterator Pages: 1 -->
<svg width="751pt" height="364pt"
 viewBox="0.00 0.00 751.00 364.40" xmlns="http://www.w3.org/2000/svg" xmlns:xlink="http://www.w3.org/1999/xlink">
<g id="graph0" class="graph" transform="scale(1 1) rotate(0) translate(4 360.3956)">
<title>sll_t_uzawa_iterator</title>
<polygon fill="#ffffff" stroke="transparent" points="-4,4 -4,-360.3956 747,-360.3956 747,4 -4,4"/>
<!-- Node3 -->
<g id="node1" class="node">
<title>Node3</title>
<polygon fill="#bfbfbf" stroke="#000000" points="628,-58.8956 628,-77.8956 743,-77.8956 743,-58.8956 628,-58.8956"/>
<text text-anchor="middle" x="685.5" y="-65.8956" font-family="Helvetica,sans-Serif" font-size="10.00" fill="#000000">sll_t_uzawa_iterator</text>
</g>
<!-- Node4 -->
<g id="node2" class="node">
<title>Node4</title>
<g id="a_node2"><a xlink:href="structsll__m__linear__solver__iter__abstract_1_1sll__t__linear__solver__iter__abstract.html" target="_top" xlink:title="class for abstract iterative linear solver ">
<polygon fill="#ffffff" stroke="#000000" points="486,-139.3956 486,-169.3956 591,-169.3956 591,-139.3956 486,-139.3956"/>
<text text-anchor="start" x="494" y="-157.3956" font-family="Helvetica,sans-Serif" font-size="10.00" fill="#000000">sll_t_linear_solver</text>
<text text-anchor="middle" x="538.5" y="-146.3956" font-family="Helvetica,sans-Serif" font-size="10.00" fill="#000000">_iter_abstract</text>
</a>
</g>
</g>
<!-- Node4&#45;&gt;Node3 -->
<g id="edge1" class="edge">
<title>Node4&#45;&gt;Node3</title>
<path fill="none" stroke="#191970" d="M573.3859,-133.9861C603.5714,-116.3265 645.892,-91.5676 668.9419,-78.0826"/>
<polygon fill="#191970" stroke="#191970" points="571.3063,-131.1477 564.4423,-139.2184 574.8411,-137.1897 571.3063,-131.1477"/>
</g>
<!-- Node5 -->
<g id="node3" class="node">
<title>Node5</title>
<g id="a_node3"><a xlink:href="structsll__m__linear__solver__abstract_1_1sll__t__linear__solver__abstract.html" target="_top" xlink:title="class for abstract linear solver ">
<polygon fill="#ffffff" stroke="#000000" points="230,-68.3956 230,-98.3956 335,-98.3956 335,-68.3956 230,-68.3956"/>
<text text-anchor="start" x="238" y="-86.3956" font-family="Helvetica,sans-Serif" font-size="10.00" fill="#000000">sll_t_linear_solver</text>
<text text-anchor="middle" x="282.5" y="-75.3956" font-family="Helvetica,sans-Serif" font-size="10.00" fill="#000000">_abstract</text>
</a>
</g>
</g>
<!-- Node5&#45;&gt;Node4 -->
<g id="edge2" class="edge">
<title>Node5&#45;&gt;Node4</title>
<path fill="none" stroke="#191970" d="M345.3193,-92.4751C381.7045,-98.6668 428.0666,-108.1654 468,-121.3956 482.3678,-126.1557 497.6579,-133.0671 510.3132,-139.3363"/>
<polygon fill="#191970" stroke="#191970" points="345.7735,-89.0026 335.335,-90.816 344.626,-95.9079 345.7735,-89.0026"/>
</g>
<!-- Node6 -->
<g id="node4" class="node">
<title>Node6</title>
<polygon fill="#ffffff" stroke="#bfbfbf" points="27,-232.8956 27,-251.8956 76,-251.8956 76,-232.8956 27,-232.8956"/>
<text text-anchor="middle" x="51.5" y="-239.8956" font-family="Helvetica,sans-Serif" font-size="10.00" fill="#000000">logical</text>
</g>
<!-- Node6&#45;&gt;Node4 -->
<g id="edge5" class="edge">
<title>Node6&#45;&gt;Node4</title>
<path fill="none" stroke="#9a32cd" stroke-dasharray="5,2" d="M85.9698,-251.1992C161.0552,-268.3628 342.6917,-298.7905 468,-228.3956 493.99,-213.795 516.23,-186.4886 528.4488,-169.4406"/>
<polygon fill="#9a32cd" stroke="#9a32cd" points="86.6348,-247.7602 76.099,-248.8772 85.0319,-254.5742 86.6348,-247.7602"/>
<text text-anchor="middle" x="282.5" y="-275.3956" font-family="Helvetica,sans-Serif" font-size="10.00" fill="#000000"> null_space</text>
</g>
<!-- Node6&#45;&gt;Node5 -->
<g id="edge3" class="edge">
<title>Node6&#45;&gt;Node5</title>
<path fill="none" stroke="#9a32cd" stroke-dasharray="5,2" d="M70.2292,-226.2554C105.8237,-195.7666 182.33,-131.1673 212,-113.3956 221.2431,-107.8591 231.695,-102.8228 241.6654,-98.5245"/>
<polygon fill="#9a32cd" stroke="#9a32cd" points="67.8102,-223.7193 62.5025,-232.8888 72.3699,-229.0305 67.8102,-223.7193"/>
<text text-anchor="middle" x="157.5" y="-196.3956" font-family="Helvetica,sans-Serif" font-size="10.00" fill="#000000"> is_allocated</text>
<text text-anchor="middle" x="157.5" y="-185.3956" font-family="Helvetica,sans-Serif" font-size="10.00" fill="#000000">verbose</text>
</g>
<!-- Node7 -->
<g id="node5" class="node">
<title>Node7</title>
<polygon fill="#ffffff" stroke="#bfbfbf" points="0,-44.8956 0,-63.8956 103,-63.8956 103,-44.8956 0,-44.8956"/>
<text text-anchor="middle" x="51.5" y="-51.8956" font-family="Helvetica,sans-Serif" font-size="10.00" fill="#000000">integer(kind=i32)</text>
</g>
<!-- Node7&#45;&gt;Node3 -->
<g id="edge11" class="edge">
<title>Node7&#45;&gt;Node3</title>
<path fill="none" stroke="#9a32cd" stroke-dasharray="5,2" d="M86.9854,-41.4193C119.1198,-30.4014 168.0219,-15.4441 212,-9.3956 324.7588,6.1128 355.4195,.3586 468,-16.3956 534.8189,-26.3395 611.2855,-46.7886 653.4162,-58.8685"/>
<polygon fill="#9a32cd" stroke="#9a32cd" points="85.4591,-38.2447 77.1688,-44.8418 87.7636,-44.8545 85.4591,-38.2447"/>
<text text-anchor="middle" x="419.5" y="-30.3956" font-family="Helvetica,sans-Serif" font-size="10.00" fill="#000000"> n_total0</text>
<text text-anchor="middle" x="419.5" y="-19.3956" font-family="Helvetica,sans-Serif" font-size="10.00" fill="#000000">n_total1</text>
</g>
<!-- Node7&#45;&gt;Node4 -->
<g id="edge6" class="edge">
<title>Node7&#45;&gt;Node4</title>
<path fill="none" stroke="#9a32cd" stroke-dasharray="5,2" d="M64.2961,-72.3966C76.7643,-88.3478 97.2736,-110.715 121,-121.3956 137.368,-128.7637 376.9717,-144.4042 485.6234,-151.1677"/>
<polygon fill="#9a32cd" stroke="#9a32cd" points="67.0291,-70.2073 58.2272,-64.3099 61.4303,-74.409 67.0291,-70.2073"/>
<text text-anchor="middle" x="282.5" y="-145.3956" font-family="Helvetica,sans-Serif" font-size="10.00" fill="#000000"> n_maxiter</text>
</g>
<!-- Node7&#45;&gt;Node5 -->
<g id="edge4" class="edge">
<title>Node7&#45;&gt;Node5</title>
<path fill="none" stroke="#9a32cd" stroke-dasharray="5,2" d="M113.3941,-50.8211C138.5445,-50.4077 167.797,-51.2551 194,-55.3956 210.5544,-58.0114 228.2644,-63.123 243.4588,-68.2707"/>
<polygon fill="#9a32cd" stroke="#9a32cd" points="113.1662,-47.3254 103.2509,-51.0585 113.3301,-54.3235 113.1662,-47.3254"/>
<text text-anchor="middle" x="157.5" y="-113.3956" font-family="Helvetica,sans-Serif" font-size="10.00" fill="#000000"> n_global_rows</text>
<text text-anchor="middle" x="157.5" y="-102.3956" font-family="Helvetica,sans-Serif" font-size="10.00" fill="#000000">n_cols</text>
<text text-anchor="middle" x="157.5" y="-91.3956" font-family="Helvetica,sans-Serif" font-size="10.00" fill="#000000">n_total_rows</text>
<text text-anchor="middle" x="157.5" y="-80.3956" font-family="Helvetica,sans-Serif" font-size="10.00" fill="#000000">n_global_cols</text>
<text text-anchor="middle" x="157.5" y="-69.3956" font-family="Helvetica,sans-Serif" font-size="10.00" fill="#000000">n_total_cols</text>
<text text-anchor="middle" x="157.5" y="-58.3956" font-family="Helvetica,sans-Serif" font-size="10.00" fill="#000000">n_rows</text>
</g>
<!-- Node8 -->
<g id="node6" class="node">
<title>Node8</title>
<polygon fill="#ffffff" stroke="#bfbfbf" points="212,-19.3956 212,-49.3956 353,-49.3956 353,-19.3956 212,-19.3956"/>
<text text-anchor="start" x="220" y="-37.3956" font-family="Helvetica,sans-Serif" font-size="10.00" fill="#000000">class(sll_t_linear</text>
<text text-anchor="middle" x="282.5" y="-26.3956" font-family="Helvetica,sans-Serif" font-size="10.00" fill="#000000">_solver_abstract), pointer</text>
</g>
<!-- Node8&#45;&gt;Node3 -->
<g id="edge12" class="edge">
<title>Node8&#45;&gt;Node3</title>
<path fill="none" stroke="#9a32cd" stroke-dasharray="5,2" d="M363.4749,-41.2272C441.8517,-47.8396 558.69,-57.6969 627.9791,-63.5427"/>
<polygon fill="#9a32cd" stroke="#9a32cd" points="363.4173,-37.71 353.1584,-40.3568 362.8287,-44.6852 363.4173,-37.71"/>
<text text-anchor="middle" x="538.5" y="-63.3956" font-family="Helvetica,sans-Serif" font-size="10.00" fill="#000000"> solver_k</text>
</g>
<!-- Node8&#45;&gt;Node4 -->
<g id="edge7" class="edge">
<title>Node8&#45;&gt;Node4</title>
<path fill="none" stroke="#9a32cd" stroke-dasharray="5,2" d="M363.0018,-51.269C404.3401,-60.7985 449.7732,-72.8724 468,-83.3956 492.8221,-97.7264 514.9341,-123.0787 527.5179,-139.2918"/>
<polygon fill="#9a32cd" stroke="#9a32cd" points="363.6821,-47.8344 353.1548,-49.0283 362.1289,-54.66 363.6821,-47.8344"/>
<text text-anchor="middle" x="419.5" y="-86.3956" font-family="Helvetica,sans-Serif" font-size="10.00" fill="#000000"> ptr_pc_left</text>
</g>
<!-- Node9 -->
<g id="node7" class="node">
<title>Node9</title>
<polygon fill="#ffffff" stroke="#bfbfbf" points="225,-202.8956 225,-243.8956 340,-243.8956 340,-202.8956 225,-202.8956"/>
<text text-anchor="start" x="233" y="-231.8956" font-family="Helvetica,sans-Serif" font-size="10.00" fill="#000000">class(sll_t_linear</text>
<text text-anchor="start" x="233" y="-220.8956" font-family="Helvetica,sans-Serif" font-size="10.00" fill="#000000">_operator_abstract),</text>
<text text-anchor="middle" x="282.5" y="-209.8956" font-family="Helvetica,sans-Serif" font-size="10.00" fill="#000000"> allocatable</text>
</g>
<!-- Node9&#45;&gt;Node4 -->
<g id="edge8" class="edge">
<title>Node9&#45;&gt;Node4</title>
<path fill="none" stroke="#9a32cd" stroke-dasharray="5,2" d="M350.4264,-217.4613C386.1191,-213.0004 430.1858,-205.3468 468,-192.3956 484.5743,-186.7189 501.9118,-177.4248 515.2461,-169.4493"/>
<polygon fill="#9a32cd" stroke="#9a32cd" points="349.6304,-214.0314 340.1153,-218.6911 350.4594,-220.9821 349.6304,-214.0314"/>
<text text-anchor="middle" x="419.5" y="-216.3956" font-family="Helvetica,sans-Serif" font-size="10.00" fill="#000000"> p_linear_operator</text>
</g>
<!-- Node10 -->
<g id="node8" class="node">
<title>Node10</title>
<polygon fill="#ffffff" stroke="#bfbfbf" points="238.5,-164.8956 238.5,-183.8956 326.5,-183.8956 326.5,-164.8956 238.5,-164.8956"/>
<text text-anchor="middle" x="282.5" y="-171.8956" font-family="Helvetica,sans-Serif" font-size="10.00" fill="#000000">real(kind=f64)</text>
</g>
<!-- Node10&#45;&gt;Node4 -->
<g id="edge9" class="edge">
<title>Node10&#45;&gt;Node4</title>
<path fill="none" stroke="#9a32cd" stroke-dasharray="5,2" d="M336.72,-170.1596C380.6699,-166.726 442.2412,-161.9158 485.7828,-158.5141"/>
<polygon fill="#9a32cd" stroke="#9a32cd" points="336.205,-166.6891 326.508,-170.9574 336.7502,-173.6678 336.205,-166.6891"/>
<text text-anchor="middle" x="419.5" y="-180.3956" font-family="Helvetica,sans-Serif" font-size="10.00" fill="#000000"> x_0</text>
<text text-anchor="middle" x="419.5" y="-169.3956" font-family="Helvetica,sans-Serif" font-size="10.00" fill="#000000">atol</text>
</g>
<!-- Node11 -->
<g id="node9" class="node">
<title>Node11</title>
<polygon fill="#ffffff" stroke="#bfbfbf" points="225,-314.8956 225,-355.8956 340,-355.8956 340,-314.8956 225,-314.8956"/>
<text text-anchor="start" x="233" y="-343.8956" font-family="Helvetica,sans-Serif" font-size="10.00" fill="#000000">class(sll_t_linear</text>
<text text-anchor="start" x="233" y="-332.8956" font-family="Helvetica,sans-Serif" font-size="10.00" fill="#000000">_operator_abstract),</text>
<text text-anchor="middle" x="282.5" y="-321.8956" font-family="Helvetica,sans-Serif" font-size="10.00" fill="#000000"> pointer</text>
</g>
<!-- Node11&#45;&gt;Node3 -->
<g id="edge13" class="edge">
<title>Node11&#45;&gt;Node3</title>
<path fill="none" stroke="#9a32cd" stroke-dasharray="5,2" d="M350.3515,-344.3224C386.9901,-346.129 431.9633,-343.3017 468,-325.3956 583.9463,-267.7833 662.0783,-117.4692 681.0315,-78.0012"/>
<polygon fill="#9a32cd" stroke="#9a32cd" points="350.4497,-340.8218 340.2529,-343.6986 350.0181,-347.8085 350.4497,-340.8218"/>
<text text-anchor="middle" x="538.5" y="-328.3956" font-family="Helvetica,sans-Serif" font-size="10.00" fill="#000000"> operator_l</text>
<text text-anchor="middle" x="538.5" y="-317.3956" font-family="Helvetica,sans-Serif" font-size="10.00" fill="#000000">operator_lt</text>
</g>
<!-- Node11&#45;&gt;Node4 -->
<g id="edge10" class="edge">
<title>Node11&#45;&gt;Node4</title>
<path fill="none" stroke="#9a32cd" stroke-dasharray="5,2" d="M350.3041,-319.3052C357.2936,-317.6469 364.2899,-315.9872 371,-314.3956 414.1103,-304.1698 433.112,-318.7065 468,-291.3956 508.6516,-259.5728 528.0786,-197.8654 535.1784,-169.4211"/>
<polygon fill="#9a32cd" stroke="#9a32cd" points="349.0246,-316.0116 340.1027,-321.7257 350.6406,-322.8225 349.0246,-316.0116"/>
<text text-anchor="middle" x="419.5" y="-317.3956" font-family="Helvetica,sans-Serif" font-size="10.00" fill="#000000"> ptr_linear_operator</text>
</g>
</g>
</svg>
