<?xml version="1.0" encoding="UTF-8" standalone="no"?>
<!DOCTYPE svg PUBLIC "-//W3C//DTD SVG 1.1//EN"
 "http://www.w3.org/Graphics/SVG/1.1/DTD/svg11.dtd">
<!-- Generated by graphviz version 2.43.0 (0)
 -->
<!-- Title: sll_t_linear_solver_mgmres Pages: 1 -->
<svg width="738pt" height="365pt"
 viewBox="0.00 0.00 738.00 365.00" xmlns="http://www.w3.org/2000/svg" xmlns:xlink="http://www.w3.org/1999/xlink">
<g id="graph0" class="graph" transform="scale(1 1) rotate(0) translate(4 361)">
<title>sll_t_linear_solver_mgmres</title>
<polygon fill="white" stroke="transparent" points="-4,4 -4,-361 734,-361 734,4 -4,4"/>
<!-- Node1 -->
<g id="node1" class="node">
<title>Node1</title>
<g id="a_node1"><a xlink:title="class for a sequential gmres linear solver">
<polygon fill="#bfbfbf" stroke="black" points="625,-145 625,-175 730,-175 730,-145 625,-145"/>
<text text-anchor="start" x="633" y="-163" font-family="Helvetica,sans-Serif" font-size="10.00">sll_t_linear_solver</text>
<text text-anchor="middle" x="677.5" y="-152" font-family="Helvetica,sans-Serif" font-size="10.00">_mgmres</text>
</a>
</g>
</g>
<!-- Node2 -->
<g id="node2" class="node">
<title>Node2</title>
<g id="a_node2"><a xlink:href="structsll__m__linear__solver__iter__abstract_1_1sll__t__linear__solver__iter__abstract.html" target="_top" xlink:title="class for abstract iterative linear solver">
<polygon fill="white" stroke="black" points="483,-145 483,-175 588,-175 588,-145 483,-145"/>
<text text-anchor="start" x="491" y="-163" font-family="Helvetica,sans-Serif" font-size="10.00">sll_t_linear_solver</text>
<text text-anchor="middle" x="535.5" y="-152" font-family="Helvetica,sans-Serif" font-size="10.00">_iter_abstract</text>
</a>
</g>
</g>
<!-- Node2&#45;&gt;Node1 -->
<g id="edge1" class="edge">
<title>Node2&#45;&gt;Node1</title>
<path fill="none" stroke="midnightblue" d="M598.5,-160C607.35,-160 616.36,-160 624.98,-160"/>
<polygon fill="midnightblue" stroke="midnightblue" points="598.23,-156.5 588.23,-160 598.23,-163.5 598.23,-156.5"/>
</g>
<!-- Node3 -->
<g id="node3" class="node">
<title>Node3</title>
<g id="a_node3"><a xlink:href="structsll__m__linear__solver__abstract_1_1sll__t__linear__solver__abstract.html" target="_top" xlink:title="class for abstract linear solver">
<polygon fill="white" stroke="black" points="227,-200 227,-230 332,-230 332,-200 227,-200"/>
<text text-anchor="start" x="235" y="-218" font-family="Helvetica,sans-Serif" font-size="10.00">sll_t_linear_solver</text>
<text text-anchor="middle" x="279.5" y="-207" font-family="Helvetica,sans-Serif" font-size="10.00">_abstract</text>
</a>
</g>
</g>
<!-- Node3&#45;&gt;Node2 -->
<g id="edge2" class="edge">
<title>Node3&#45;&gt;Node2</title>
<path fill="none" stroke="midnightblue" d="M342.02,-201.68C385.13,-192.34 442.11,-180.01 482.87,-171.18"/>
<polygon fill="midnightblue" stroke="midnightblue" points="341.24,-198.27 332.21,-203.8 342.72,-205.11 341.24,-198.27"/>
</g>
<!-- Node4 -->
<g id="node4" class="node">
<title>Node4</title>
<g id="a_node4"><a xlink:title=" ">
<polygon fill="white" stroke="#bfbfbf" points="27,-336.5 27,-355.5 76,-355.5 76,-336.5 27,-336.5"/>
<text text-anchor="middle" x="51.5" y="-343.5" font-family="Helvetica,sans-Serif" font-size="10.00">logical</text>
</a>
</g>
</g>
<!-- Node4&#45;&gt;Node2 -->
<g id="edge5" class="edge">
<title>Node4&#45;&gt;Node2</title>
<path fill="none" stroke="#9a32cd" stroke-dasharray="5,2" d="M86.32,-350.8C114.49,-353.94 155.59,-356.54 191,-351 222.94,-346 439.43,-272.79 465,-253 493.06,-231.29 515.39,-195.48 526.6,-175.21"/>
<polygon fill="#9a32cd" stroke="#9a32cd" points="86.53,-347.3 76.19,-349.58 85.7,-354.25 86.53,-347.3"/>
<text text-anchor="middle" x="279.5" y="-349" font-family="Helvetica,sans-Serif" font-size="10.00"> null_space</text>
</g>
<!-- Node4&#45;&gt;Node3 -->
<g id="edge3" class="edge">
<title>Node4&#45;&gt;Node3</title>
<path fill="none" stroke="#9a32cd" stroke-dasharray="5,2" d="M86.11,-338.58C117.05,-330.16 162.36,-313.59 191,-284 205.69,-268.82 193.74,-254.62 209,-240 214.09,-235.12 220.21,-231.19 226.66,-228.01"/>
<polygon fill="#9a32cd" stroke="#9a32cd" points="85.02,-335.25 76.21,-341.13 86.77,-342.02 85.02,-335.25"/>
<text text-anchor="middle" x="156" y="-340" font-family="Helvetica,sans-Serif" font-size="10.00"> is_allocated</text>
<text text-anchor="middle" x="156" y="-329" font-family="Helvetica,sans-Serif" font-size="10.00">verbose</text>
</g>
<!-- Node5 -->
<g id="node5" class="node">
<title>Node5</title>
<g id="a_node5"><a xlink:title=" ">
<polygon fill="white" stroke="#bfbfbf" points="0,-204.5 0,-223.5 103,-223.5 103,-204.5 0,-204.5"/>
<text text-anchor="middle" x="51.5" y="-211.5" font-family="Helvetica,sans-Serif" font-size="10.00">integer(kind=i32)</text>
</a>
</g>
</g>
<!-- Node5&#45;&gt;Node1 -->
<g id="edge11" class="edge">
<title>Node5&#45;&gt;Node1</title>
<path fill="none" stroke="#9a32cd" stroke-dasharray="5,2" d="M66.17,-232.22C78.72,-247.61 98.71,-269.01 121,-281 165.97,-305.19 299.89,-309.84 350,-300 469.22,-276.58 598.3,-206.3 651.46,-175.15"/>
<polygon fill="#9a32cd" stroke="#9a32cd" points="68.61,-229.66 59.68,-223.96 63.11,-233.99 68.61,-229.66"/>
<text text-anchor="middle" x="416.5" y="-298" font-family="Helvetica,sans-Serif" font-size="10.00"> n_mr</text>
</g>
<!-- Node5&#45;&gt;Node2 -->
<g id="edge6" class="edge">
<title>Node5&#45;&gt;Node2</title>
<path fill="none" stroke="#9a32cd" stroke-dasharray="5,2" d="M71.38,-197.71C99.26,-174.86 154.08,-134.37 209,-119 309.24,-90.96 432.24,-123.85 494.42,-144.96"/>
<polygon fill="#9a32cd" stroke="#9a32cd" points="69.06,-195.1 63.63,-204.19 73.55,-200.47 69.06,-195.1"/>
<text text-anchor="middle" x="279.5" y="-122" font-family="Helvetica,sans-Serif" font-size="10.00"> n_maxiter</text>
</g>
<!-- Node5&#45;&gt;Node3 -->
<g id="edge4" class="edge">
<title>Node5&#45;&gt;Node3</title>
<path fill="none" stroke="#9a32cd" stroke-dasharray="5,2" d="M113.44,-214.27C148.87,-214.43 193.05,-214.62 226.78,-214.77"/>
<polygon fill="#9a32cd" stroke="#9a32cd" points="113.23,-210.77 103.22,-214.22 113.2,-217.77 113.23,-210.77"/>
<text text-anchor="middle" x="156" y="-272" font-family="Helvetica,sans-Serif" font-size="10.00"> n_cols</text>
<text text-anchor="middle" x="156" y="-261" font-family="Helvetica,sans-Serif" font-size="10.00">n_global_cols</text>
<text text-anchor="middle" x="156" y="-250" font-family="Helvetica,sans-Serif" font-size="10.00">n_global_rows</text>
<text text-anchor="middle" x="156" y="-239" font-family="Helvetica,sans-Serif" font-size="10.00">n_rows</text>
<text text-anchor="middle" x="156" y="-228" font-family="Helvetica,sans-Serif" font-size="10.00">n_total_cols</text>
<text text-anchor="middle" x="156" y="-217" font-family="Helvetica,sans-Serif" font-size="10.00">n_total_rows</text>
</g>
<!-- Node6 -->
<g id="node6" class="node">
<title>Node6</title>
<g id="a_node6"><a xlink:title=" ">
<polygon fill="white" stroke="#bfbfbf" points="209,-43 209,-73 350,-73 350,-43 209,-43"/>
<text text-anchor="start" x="217" y="-61" font-family="Helvetica,sans-Serif" font-size="10.00">class(sll_t_linear</text>
<text text-anchor="middle" x="279.5" y="-50" font-family="Helvetica,sans-Serif" font-size="10.00">_solver_abstract), pointer</text>
</a>
</g>
</g>
<!-- Node6&#45;&gt;Node2 -->
<g id="edge7" class="edge">
<title>Node6&#45;&gt;Node2</title>
<path fill="none" stroke="#9a32cd" stroke-dasharray="5,2" d="M360.4,-64.41C401.57,-68.75 446.87,-75.46 465,-85 491.55,-98.97 513.33,-127.18 525.07,-144.74"/>
<polygon fill="#9a32cd" stroke="#9a32cd" points="360.62,-60.92 350.32,-63.38 359.91,-67.88 360.62,-60.92"/>
<text text-anchor="middle" x="416.5" y="-88" font-family="Helvetica,sans-Serif" font-size="10.00"> ptr_pc_left</text>
</g>
<!-- Node7 -->
<g id="node7" class="node">
<title>Node7</title>
<g id="a_node7"><a xlink:title=" ">
<polygon fill="white" stroke="#bfbfbf" points="222,-249.5 222,-290.5 337,-290.5 337,-249.5 222,-249.5"/>
<text text-anchor="start" x="230" y="-278.5" font-family="Helvetica,sans-Serif" font-size="10.00">class(sll_t_linear</text>
<text text-anchor="start" x="230" y="-267.5" font-family="Helvetica,sans-Serif" font-size="10.00">_operator_abstract),</text>
<text text-anchor="middle" x="279.5" y="-256.5" font-family="Helvetica,sans-Serif" font-size="10.00"> allocatable</text>
</a>
</g>
</g>
<!-- Node7&#45;&gt;Node2 -->
<g id="edge8" class="edge">
<title>Node7&#45;&gt;Node2</title>
<path fill="none" stroke="#9a32cd" stroke-dasharray="5,2" d="M346.87,-247.09C382.42,-234.16 426.67,-217.01 465,-199 480.15,-191.88 496.51,-182.78 509.54,-175.16"/>
<polygon fill="#9a32cd" stroke="#9a32cd" points="345.3,-243.93 337.09,-250.62 347.68,-250.52 345.3,-243.93"/>
<text text-anchor="middle" x="416.5" y="-241" font-family="Helvetica,sans-Serif" font-size="10.00"> p_linear_operator</text>
</g>
<!-- Node8 -->
<g id="node8" class="node">
<title>Node8</title>
<g id="a_node8"><a xlink:title=" ">
<polygon fill="white" stroke="#bfbfbf" points="235.5,-0.5 235.5,-19.5 323.5,-19.5 323.5,-0.5 235.5,-0.5"/>
<text text-anchor="middle" x="279.5" y="-7.5" font-family="Helvetica,sans-Serif" font-size="10.00">real(kind=f64)</text>
</a>
</g>
</g>
<!-- Node8&#45;&gt;Node1 -->
<g id="edge12" class="edge">
<title>Node8&#45;&gt;Node1</title>
<path fill="none" stroke="#9a32cd" stroke-dasharray="5,2" d="M334.04,-5.59C371.62,-4.24 422.55,-5.96 465,-20 546.73,-47.03 626.98,-114.43 660.34,-144.77"/>
<polygon fill="#9a32cd" stroke="#9a32cd" points="333.65,-2.11 323.81,-6.05 333.96,-9.1 333.65,-2.11"/>
<text text-anchor="middle" x="535.5" y="-88" font-family="Helvetica,sans-Serif" font-size="10.00"> rtol</text>
</g>
<!-- Node8&#45;&gt;Node2 -->
<g id="edge9" class="edge">
<title>Node8&#45;&gt;Node2</title>
<path fill="none" stroke="#9a32cd" stroke-dasharray="5,2" d="M333.8,-13.61C380.55,-17.68 444.21,-25.67 465,-40 502.46,-65.82 522.49,-118.92 530.41,-144.95"/>
<polygon fill="#9a32cd" stroke="#9a32cd" points="334.06,-10.12 323.8,-12.78 333.48,-17.1 334.06,-10.12"/>
<text text-anchor="middle" x="416.5" y="-54" font-family="Helvetica,sans-Serif" font-size="10.00"> atol</text>
<text text-anchor="middle" x="416.5" y="-43" font-family="Helvetica,sans-Serif" font-size="10.00">x_0</text>
</g>
<!-- Node9 -->
<g id="node9" class="node">
<title>Node9</title>
<g id="a_node9"><a xlink:title=" ">
<polygon fill="white" stroke="#bfbfbf" points="222,-139.5 222,-180.5 337,-180.5 337,-139.5 222,-139.5"/>
<text text-anchor="start" x="230" y="-168.5" font-family="Helvetica,sans-Serif" font-size="10.00">class(sll_t_linear</text>
<text text-anchor="start" x="230" y="-157.5" font-family="Helvetica,sans-Serif" font-size="10.00">_operator_abstract),</text>
<text text-anchor="middle" x="279.5" y="-146.5" font-family="Helvetica,sans-Serif" font-size="10.00"> pointer</text>
</a>
</g>
</g>
<!-- Node9&#45;&gt;Node2 -->
<g id="edge10" class="edge">
<title>Node9&#45;&gt;Node2</title>
<path fill="none" stroke="#9a32cd" stroke-dasharray="5,2" d="M347.41,-160C389.75,-160 443.67,-160 482.74,-160"/>
<polygon fill="#9a32cd" stroke="#9a32cd" points="347.19,-156.5 337.19,-160 347.19,-163.5 347.19,-156.5"/>
<text text-anchor="middle" x="416.5" y="-163" font-family="Helvetica,sans-Serif" font-size="10.00"> ptr_linear_operator</text>
</g>
</g>
</svg>
