<?xml version="1.0" encoding="UTF-8" standalone="no"?>
<!DOCTYPE svg PUBLIC "-//W3C//DTD SVG 1.1//EN"
 "http://www.w3.org/Graphics/SVG/1.1/DTD/svg11.dtd">
<!-- Generated by graphviz version 2.43.0 (0)
 -->
<!-- Title: sll_t_advection_6d_spline_dd_slim Pages: 1 -->
<svg width="281pt" height="216pt"
 viewBox="0.00 0.00 280.50 216.00" xmlns="http://www.w3.org/2000/svg" xmlns:xlink="http://www.w3.org/1999/xlink">
<g id="graph0" class="graph" transform="scale(1 1) rotate(0) translate(4 212)">
<title>sll_t_advection_6d_spline_dd_slim</title>
<polygon fill="white" stroke="transparent" points="-4,4 -4,-212 276.5,-212 276.5,4 -4,4"/>
<!-- Node1 -->
<g id="node1" class="node">
<title>Node1</title>
<g id="a_node1"><a xlink:title=" ">
<polygon fill="#bfbfbf" stroke="black" points="59,-0.5 59,-30.5 166,-30.5 166,-0.5 59,-0.5"/>
<text text-anchor="start" x="67" y="-18.5" font-family="Helvetica,sans-Serif" font-size="10.00">sll_t_advection_6d</text>
<text text-anchor="middle" x="112.5" y="-7.5" font-family="Helvetica,sans-Serif" font-size="10.00">_spline_dd_slim</text>
</a>
</g>
</g>
<!-- Node2 -->
<g id="node2" class="node">
<title>Node2</title>
<g id="a_node2"><a xlink:title=" ">
<polygon fill="white" stroke="#bfbfbf" points="0,-188.5 0,-207.5 103,-207.5 103,-188.5 0,-188.5"/>
<text text-anchor="middle" x="51.5" y="-195.5" font-family="Helvetica,sans-Serif" font-size="10.00">integer(kind=i32)</text>
</a>
</g>
</g>
<!-- Node2&#45;&gt;Node1 -->
<g id="edge1" class="edge">
<title>Node2&#45;&gt;Node1</title>
<path fill="none" stroke="#9a32cd" stroke-dasharray="5,2" d="M45.97,-178.3C38.35,-148.54 28.11,-89.63 52.5,-49 57.13,-41.28 64.3,-35.28 72.1,-30.66"/>
<polygon fill="#9a32cd" stroke="#9a32cd" points="42.66,-179.46 48.69,-188.17 49.41,-177.6 42.66,-179.46"/>
<text text-anchor="middle" x="102.5" y="-162" font-family="Helvetica,sans-Serif" font-size="10.00"> halo_blocks5d_eta2</text>
<text text-anchor="middle" x="102.5" y="-151" font-family="Helvetica,sans-Serif" font-size="10.00">halo_blocks5d_eta3</text>
<text text-anchor="middle" x="102.5" y="-140" font-family="Helvetica,sans-Serif" font-size="10.00">halo_blocks_eta1</text>
<text text-anchor="middle" x="102.5" y="-129" font-family="Helvetica,sans-Serif" font-size="10.00">halo_blocks_eta2</text>
<text text-anchor="middle" x="102.5" y="-118" font-family="Helvetica,sans-Serif" font-size="10.00">halo_blocks_eta3</text>
<text text-anchor="middle" x="102.5" y="-107" font-family="Helvetica,sans-Serif" font-size="10.00">halo_width_eta1</text>
<text text-anchor="middle" x="102.5" y="-96" font-family="Helvetica,sans-Serif" font-size="10.00">halo_width_eta2</text>
<text text-anchor="middle" x="102.5" y="-85" font-family="Helvetica,sans-Serif" font-size="10.00">halo_width_eta3</text>
<text text-anchor="middle" x="102.5" y="-74" font-family="Helvetica,sans-Serif" font-size="10.00">idisplacement_eta1</text>
<text text-anchor="middle" x="102.5" y="-63" font-family="Helvetica,sans-Serif" font-size="10.00">idisplacement_eta2</text>
<text text-anchor="middle" x="102.5" y="-52" font-family="Helvetica,sans-Serif" font-size="10.00">...</text>
</g>
<!-- Node3 -->
<g id="node3" class="node">
<title>Node3</title>
<g id="a_node3"><a xlink:title=" ">
<polygon fill="white" stroke="#bfbfbf" points="130.5,-188.5 130.5,-207.5 218.5,-207.5 218.5,-188.5 130.5,-188.5"/>
<text text-anchor="middle" x="174.5" y="-195.5" font-family="Helvetica,sans-Serif" font-size="10.00">real(kind=f64)</text>
</a>
</g>
</g>
<!-- Node3&#45;&gt;Node1 -->
<g id="edge2" class="edge">
<title>Node3&#45;&gt;Node1</title>
<path fill="none" stroke="#9a32cd" stroke-dasharray="5,2" d="M175.88,-178.14C177.17,-148.58 176.12,-90.44 152.5,-49 148.42,-41.85 142.11,-35.64 135.7,-30.62"/>
<polygon fill="#9a32cd" stroke="#9a32cd" points="172.38,-178.11 175.29,-188.29 179.37,-178.51 172.38,-178.11"/>
<text text-anchor="middle" x="224" y="-118" font-family="Helvetica,sans-Serif" font-size="10.00"> displacement_eta1</text>
<text text-anchor="middle" x="224" y="-107" font-family="Helvetica,sans-Serif" font-size="10.00">displacement_eta2</text>
<text text-anchor="middle" x="224" y="-96" font-family="Helvetica,sans-Serif" font-size="10.00">displacement_eta3</text>
</g>
</g>
</svg>
