<?xml version="1.0" encoding="UTF-8" standalone="no"?>
<!DOCTYPE svg PUBLIC "-//W3C//DTD SVG 1.1//EN"
 "http://www.w3.org/Graphics/SVG/1.1/DTD/svg11.dtd">
<!-- Generated by graphviz version 2.38.0 (20140413.2041)
 -->
<!-- Title: sll_t_sparse_grid_2d Pages: 1 -->
<svg width="1123pt" height="599pt"
 viewBox="0.00 0.00 1123.00 599.00" xmlns="http://www.w3.org/2000/svg" xmlns:xlink="http://www.w3.org/1999/xlink">
<g id="graph0" class="graph" transform="scale(1 1) rotate(0) translate(4 595)">
<title>sll_t_sparse_grid_2d</title>
<polygon fill="white" stroke="none" points="-4,4 -4,-595 1119,-595 1119,4 -4,4"/>
<!-- Node1 -->
<g id="node1" class="node"><title>Node1</title>
<polygon fill="#bfbfbf" stroke="black" points="1009,-526.5 1009,-545.5 1115,-545.5 1115,-526.5 1009,-526.5"/>
<text text-anchor="middle" x="1062" y="-533.5" font-family="Helvetica,sans-Serif" font-size="10.00">sll_t_sparse_grid_2d</text>
</g>
<!-- Node2 -->
<g id="node2" class="node"><title>Node2</title>
<g id="a_node2"><a xlink:href="structsll__m__sparse__grid__interpolator_1_1sll__t__sparse__grid__interpolator.html" target="_top" xlink:title="Class defining the sparse grid data structure. ">
<polygon fill="white" stroke="black" points="829,-384.5 829,-403.5 972,-403.5 972,-384.5 829,-384.5"/>
<text text-anchor="middle" x="900.5" y="-391.5" font-family="Helvetica,sans-Serif" font-size="10.00">sll_t_sparse_grid_interpolator</text>
</a>
</g>
</g>
<!-- Node2&#45;&gt;Node1 -->
<g id="edge1" class="edge"><title>Node2&#45;&gt;Node1</title>
<path fill="none" stroke="midnightblue" d="M919.867,-410.352C953.236,-440.059 1022.86,-502.041 1049.91,-526.128"/>
<polygon fill="midnightblue" stroke="midnightblue" points="922.009,-407.573 912.213,-403.538 917.355,-412.801 922.009,-407.573"/>
</g>
<!-- Node3 -->
<g id="node3" class="node"><title>Node3</title>
<polygon fill="white" stroke="#bfbfbf" points="617,-330 617,-360 734,-360 734,-330 617,-330"/>
<text text-anchor="start" x="625" y="-348" font-family="Helvetica,sans-Serif" font-size="10.00">class(sparsegrid_node)</text>
<text text-anchor="middle" x="675.5" y="-337" font-family="Helvetica,sans-Serif" font-size="10.00">, dimension(:), pointer</text>
</g>
<!-- Node3&#45;&gt;Node2 -->
<g id="edge2" class="edge"><title>Node3&#45;&gt;Node2</title>
<path fill="none" stroke="#9a32cd" stroke-dasharray="5,2" d="M744.261,-359.889C780.616,-367.878 824.344,-377.486 856.113,-384.467"/>
<polygon fill="#9a32cd" stroke="#9a32cd" points="744.736,-356.41 734.218,-357.682 743.234,-363.247 744.736,-356.41"/>
<text text-anchor="middle" x="788" y="-377" font-family="Helvetica,sans-Serif" font-size="10.00"> hierarchy</text>
</g>
<!-- Node4 -->
<g id="node4" class="node"><title>Node4</title>
<g id="a_node4"><a xlink:href="structsll__m__periodic__interpolator__1d_1_1sll__t__periodic__interpolator__1d.html" target="_top" xlink:title="Periodic interpolator. ">
<polygon fill="white" stroke="black" points="604,-215.5 604,-234.5 747,-234.5 747,-215.5 604,-215.5"/>
<text text-anchor="middle" x="675.5" y="-222.5" font-family="Helvetica,sans-Serif" font-size="10.00">sll_t_periodic_interpolator_1d</text>
</a>
</g>
</g>
<!-- Node4&#45;&gt;Node2 -->
<g id="edge3" class="edge"><title>Node4&#45;&gt;Node2</title>
<path fill="none" stroke="#9a32cd" stroke-dasharray="5,2" d="M729.09,-237.429C755.463,-245.442 786.843,-257.831 811,-276 852.135,-306.939 883.233,-362.038 894.696,-384.285"/>
<polygon fill="#9a32cd" stroke="#9a32cd" points="729.832,-234 719.253,-234.569 727.878,-240.722 729.832,-234"/>
<text text-anchor="middle" x="788" y="-279" font-family="Helvetica,sans-Serif" font-size="10.00"> interp_per</text>
</g>
<!-- Node5 -->
<g id="node5" class="node"><title>Node5</title>
<g id="a_node5"><a xlink:href="structsll__m__interpolators__1d__base_1_1sll__c__interpolator__1d.html" target="_top" xlink:title="Abstract class for 1D interpolation and reconstruction. ">
<polygon fill="white" stroke="black" points="400.5,-215.5 400.5,-234.5 506.5,-234.5 506.5,-215.5 400.5,-215.5"/>
<text text-anchor="middle" x="453.5" y="-222.5" font-family="Helvetica,sans-Serif" font-size="10.00">sll_c_interpolator_1d</text>
</a>
</g>
</g>
<!-- Node5&#45;&gt;Node4 -->
<g id="edge4" class="edge"><title>Node5&#45;&gt;Node4</title>
<path fill="none" stroke="midnightblue" d="M516.753,-225C543.804,-225 575.636,-225 603.594,-225"/>
<polygon fill="midnightblue" stroke="midnightblue" points="516.637,-221.5 506.637,-225 516.637,-228.5 516.637,-221.5"/>
</g>
<!-- Node6 -->
<g id="node6" class="node"><title>Node6</title>
<g id="a_node6"><a xlink:href="structsll__m__periodic__interp_1_1sll__t__periodic__interp__work.html" target="_top" xlink:title="sll_t_periodic_interp_work">
<polygon fill="white" stroke="black" points="389,-102.5 389,-121.5 518,-121.5 518,-102.5 389,-102.5"/>
<text text-anchor="middle" x="453.5" y="-109.5" font-family="Helvetica,sans-Serif" font-size="10.00">sll_t_periodic_interp_work</text>
</a>
</g>
</g>
<!-- Node6&#45;&gt;Node4 -->
<g id="edge5" class="edge"><title>Node6&#45;&gt;Node4</title>
<path fill="none" stroke="#9a32cd" stroke-dasharray="5,2" d="M515.714,-123.988C538.601,-129.916 564.29,-138.36 586,-150 619.192,-167.796 651.115,-199.612 665.912,-215.47"/>
<polygon fill="#9a32cd" stroke="#9a32cd" points="516.309,-120.529 505.76,-121.52 514.624,-127.324 516.309,-120.529"/>
<text text-anchor="middle" x="561" y="-153" font-family="Helvetica,sans-Serif" font-size="10.00"> per_interp</text>
</g>
<!-- Node7 -->
<g id="node7" class="node"><title>Node7</title>
<g id="a_node7"><a xlink:href="structsll__m__fft_1_1sll__t__fft.html" target="_top" xlink:title="Type for FFT plan in SeLaLib. ">
<polygon fill="white" stroke="black" points="208.5,-34.5 208.5,-53.5 257.5,-53.5 257.5,-34.5 208.5,-34.5"/>
<text text-anchor="middle" x="233" y="-41.5" font-family="Helvetica,sans-Serif" font-size="10.00">sll_t_fft</text>
</a>
</g>
</g>
<!-- Node7&#45;&gt;Node6 -->
<g id="edge6" class="edge"><title>Node7&#45;&gt;Node6</title>
<path fill="none" stroke="#9a32cd" stroke-dasharray="5,2" d="M268.028,-46.4979C296.241,-49.3232 337.074,-55.1741 371,-67 396.335,-75.8314 423.082,-92.1308 438.757,-102.5"/>
<polygon fill="#9a32cd" stroke="#9a32cd" points="268.153,-42.9947 257.873,-45.5571 267.508,-49.9648 268.153,-42.9947"/>
<text text-anchor="middle" x="330" y="-81" font-family="Helvetica,sans-Serif" font-size="10.00"> pinv</text>
<text text-anchor="middle" x="330" y="-70" font-family="Helvetica,sans-Serif" font-size="10.00">pfwd</text>
</g>
<!-- Node8 -->
<g id="node8" class="node"><title>Node8</title>
<polygon fill="white" stroke="#bfbfbf" points="22.5,-0.5 22.5,-19.5 66.5,-19.5 66.5,-0.5 22.5,-0.5"/>
<text text-anchor="middle" x="44.5" y="-7.5" font-family="Helvetica,sans-Serif" font-size="10.00">logical</text>
</g>
<!-- Node8&#45;&gt;Node7 -->
<g id="edge7" class="edge"><title>Node8&#45;&gt;Node7</title>
<path fill="none" stroke="#9a32cd" stroke-dasharray="5,2" d="M76.9906,-5.65665C104.045,-2.99907 143.821,-1.67387 177,-11 193.295,-15.5801 209.629,-26.3551 220.211,-34.3539"/>
<polygon fill="#9a32cd" stroke="#9a32cd" points="76.4913,-2.19038 66.9343,-6.76361 77.2572,-9.14835 76.4913,-2.19038"/>
<text text-anchor="middle" x="142" y="-14" font-family="Helvetica,sans-Serif" font-size="10.00"> normalized</text>
</g>
<!-- Node9 -->
<g id="node9" class="node"><title>Node9</title>
<polygon fill="white" stroke="#bfbfbf" points="0,-253.5 0,-272.5 89,-272.5 89,-253.5 0,-253.5"/>
<text text-anchor="middle" x="44.5" y="-260.5" font-family="Helvetica,sans-Serif" font-size="10.00">integer(kind=i32)</text>
</g>
<!-- Node9&#45;&gt;Node1 -->
<g id="edge18" class="edge"><title>Node9&#45;&gt;Node1</title>
<path fill="none" stroke="#9a32cd" stroke-dasharray="5,2" d="M47.5277,-282.903C55.8046,-352.389 93.488,-580 232,-580 232,-580 232,-580 901.5,-580 952.918,-580 1010.41,-558.488 1040.35,-545.547"/>
<polygon fill="#9a32cd" stroke="#9a32cd" points="50.9919,-282.386 46.4065,-272.835 44.0349,-283.161 50.9919,-282.386"/>
<text text-anchor="middle" x="561" y="-583" font-family="Helvetica,sans-Serif" font-size="10.00"> index</text>
</g>
<!-- Node9&#45;&gt;Node2 -->
<g id="edge15" class="edge"><title>Node9&#45;&gt;Node2</title>
<path fill="none" stroke="#9a32cd" stroke-dasharray="5,2" d="M93.6139,-275.048C179.309,-296.702 363.853,-344.224 518,-390 556.534,-401.443 564.3,-411.7 604,-418 693.978,-432.279 800.795,-415.34 858.152,-403.525"/>
<polygon fill="#9a32cd" stroke="#9a32cd" points="94.2144,-271.59 83.662,-272.537 92.502,-278.377 94.2144,-271.59"/>
<text text-anchor="middle" x="453.5" y="-503" font-family="Helvetica,sans-Serif" font-size="10.00"> levels</text>
<text text-anchor="middle" x="453.5" y="-492" font-family="Helvetica,sans-Serif" font-size="10.00">dim</text>
<text text-anchor="middle" x="453.5" y="-481" font-family="Helvetica,sans-Serif" font-size="10.00">no_basis_functions</text>
<text text-anchor="middle" x="453.5" y="-470" font-family="Helvetica,sans-Serif" font-size="10.00">max_level</text>
<text text-anchor="middle" x="453.5" y="-459" font-family="Helvetica,sans-Serif" font-size="10.00">order</text>
<text text-anchor="middle" x="453.5" y="-448" font-family="Helvetica,sans-Serif" font-size="10.00">interpolation</text>
<text text-anchor="middle" x="453.5" y="-437" font-family="Helvetica,sans-Serif" font-size="10.00">boundary</text>
<text text-anchor="middle" x="453.5" y="-426" font-family="Helvetica,sans-Serif" font-size="10.00">level_mapping</text>
<text text-anchor="middle" x="453.5" y="-415" font-family="Helvetica,sans-Serif" font-size="10.00">hs_weights_index</text>
<text text-anchor="middle" x="453.5" y="-404" font-family="Helvetica,sans-Serif" font-size="10.00">modified</text>
<text text-anchor="middle" x="453.5" y="-393" font-family="Helvetica,sans-Serif" font-size="10.00">...</text>
</g>
<!-- Node9&#45;&gt;Node4 -->
<g id="edge11" class="edge"><title>Node9&#45;&gt;Node4</title>
<path fill="none" stroke="#9a32cd" stroke-dasharray="5,2" d="M99.4102,-261.415C187.173,-258.703 366.38,-252.62 518,-244 548.255,-242.28 555.897,-242.482 586,-239 596.662,-237.767 608.006,-236.181 618.89,-234.523"/>
<polygon fill="#9a32cd" stroke="#9a32cd" points="99.0568,-257.924 89.1688,-261.729 99.2713,-264.921 99.0568,-257.924"/>
<text text-anchor="middle" x="330" y="-258" font-family="Helvetica,sans-Serif" font-size="10.00"> num_points</text>
</g>
<!-- Node9&#45;&gt;Node6 -->
<g id="edge9" class="edge"><title>Node9&#45;&gt;Node6</title>
<path fill="none" stroke="#9a32cd" stroke-dasharray="5,2" d="M57.6216,-244.959C80.2409,-213.065 132.311,-147.586 195,-121 258.935,-93.8858 340.026,-96.3482 393.951,-102.486"/>
<polygon fill="#9a32cd" stroke="#9a32cd" points="54.6238,-243.14 51.8022,-253.352 60.3764,-247.128 54.6238,-243.14"/>
<text text-anchor="middle" x="233" y="-157" font-family="Helvetica,sans-Serif" font-size="10.00"> sizebuf</text>
<text text-anchor="middle" x="233" y="-146" font-family="Helvetica,sans-Serif" font-size="10.00">order</text>
<text text-anchor="middle" x="233" y="-135" font-family="Helvetica,sans-Serif" font-size="10.00">n</text>
<text text-anchor="middle" x="233" y="-124" font-family="Helvetica,sans-Serif" font-size="10.00">interpolator</text>
</g>
<!-- Node9&#45;&gt;Node7 -->
<g id="edge8" class="edge"><title>Node9&#45;&gt;Node7</title>
<path fill="none" stroke="#9a32cd" stroke-dasharray="5,2" d="M48.0321,-243.424C54.7908,-194.572 74.954,-69.4585 107,-45 135.982,-22.8796 180.758,-29.3616 208.117,-36.4318"/>
<polygon fill="#9a32cd" stroke="#9a32cd" points="44.5588,-242.991 46.6974,-253.368 51.4966,-243.923 44.5588,-242.991"/>
<text text-anchor="middle" x="142" y="-81" font-family="Helvetica,sans-Serif" font-size="10.00"> problem_shape</text>
<text text-anchor="middle" x="142" y="-70" font-family="Helvetica,sans-Serif" font-size="10.00">direction</text>
<text text-anchor="middle" x="142" y="-59" font-family="Helvetica,sans-Serif" font-size="10.00">problem_rank</text>
<text text-anchor="middle" x="142" y="-48" font-family="Helvetica,sans-Serif" font-size="10.00">transform_type</text>
</g>
<!-- Node10 -->
<g id="node10" class="node"><title>Node10</title>
<polygon fill="white" stroke="#bfbfbf" points="195,-174.5 195,-193.5 271,-193.5 271,-174.5 195,-174.5"/>
<text text-anchor="middle" x="233" y="-181.5" font-family="Helvetica,sans-Serif" font-size="10.00">real(kind=f64)</text>
</g>
<!-- Node10&#45;&gt;Node2 -->
<g id="edge17" class="edge"><title>Node10&#45;&gt;Node2</title>
<path fill="none" stroke="#9a32cd" stroke-dasharray="5,2" d="M240.459,-202.956C248.447,-223.237 264.12,-254.565 289,-270 463,-377.948 550.224,-263.361 747,-320 800.166,-335.303 857.489,-368.038 884.19,-384.349"/>
<polygon fill="#9a32cd" stroke="#9a32cd" points="243.716,-201.673 236.974,-193.5 237.148,-204.094 243.716,-201.673"/>
<text text-anchor="middle" x="561" y="-380" font-family="Helvetica,sans-Serif" font-size="10.00"> eta_max</text>
<text text-anchor="middle" x="561" y="-369" font-family="Helvetica,sans-Serif" font-size="10.00">stripe_out</text>
<text text-anchor="middle" x="561" y="-358" font-family="Helvetica,sans-Serif" font-size="10.00">hs_weights</text>
<text text-anchor="middle" x="561" y="-347" font-family="Helvetica,sans-Serif" font-size="10.00">length</text>
<text text-anchor="middle" x="561" y="-336" font-family="Helvetica,sans-Serif" font-size="10.00">volume</text>
<text text-anchor="middle" x="561" y="-325" font-family="Helvetica,sans-Serif" font-size="10.00">eta_min</text>
<text text-anchor="middle" x="561" y="-314" font-family="Helvetica,sans-Serif" font-size="10.00">stripe</text>
</g>
<!-- Node10&#45;&gt;Node4 -->
<g id="edge12" class="edge"><title>Node10&#45;&gt;Node4</title>
<path fill="none" stroke="#9a32cd" stroke-dasharray="5,2" d="M281.49,-180.31C338.079,-176.763 435.365,-173.355 518,-184 564.103,-189.939 616.004,-205.335 646.938,-215.478"/>
<polygon fill="#9a32cd" stroke="#9a32cd" points="281.16,-176.824 271.41,-180.971 281.617,-183.809 281.16,-176.824"/>
<text text-anchor="middle" x="453.5" y="-198" font-family="Helvetica,sans-Serif" font-size="10.00"> domain_size</text>
<text text-anchor="middle" x="453.5" y="-187" font-family="Helvetica,sans-Serif" font-size="10.00">cell_size</text>
</g>
<!-- Node10&#45;&gt;Node6 -->
<g id="edge10" class="edge"><title>Node10&#45;&gt;Node6</title>
<path fill="none" stroke="#9a32cd" stroke-dasharray="5,2" d="M252.622,-167.2C266.861,-154.508 284.752,-138.945 289,-137 320.069,-122.773 357.582,-116.37 388.836,-113.592"/>
<polygon fill="#9a32cd" stroke="#9a32cd" points="249.903,-164.937 244.791,-174.217 254.574,-170.151 249.903,-164.937"/>
<text text-anchor="middle" x="330" y="-162" font-family="Helvetica,sans-Serif" font-size="10.00"> eigenvalues_minv</text>
<text text-anchor="middle" x="330" y="-151" font-family="Helvetica,sans-Serif" font-size="10.00">buf</text>
<text text-anchor="middle" x="330" y="-140" font-family="Helvetica,sans-Serif" font-size="10.00">wsave</text>
</g>
<!-- Node11 -->
<g id="node11" class="node"><title>Node11</title>
<g id="a_node11"><a xlink:href="structsll__m__sparse__grid__interpolator_1_1interpolator__base__ptr.html" target="_top" xlink:title="interpolator_base_ptr">
<polygon fill="white" stroke="black" points="622,-518.5 622,-537.5 729,-537.5 729,-518.5 622,-518.5"/>
<text text-anchor="middle" x="675.5" y="-525.5" font-family="Helvetica,sans-Serif" font-size="10.00">interpolator_base_ptr</text>
</a>
</g>
</g>
<!-- Node11&#45;&gt;Node2 -->
<g id="edge13" class="edge"><title>Node11&#45;&gt;Node2</title>
<path fill="none" stroke="#9a32cd" stroke-dasharray="5,2" d="M703.534,-513.407C730.911,-498.471 774.326,-474.346 811,-452 837.826,-435.655 868.301,-415.267 885.581,-403.531"/>
<polygon fill="#9a32cd" stroke="#9a32cd" points="701.67,-510.437 694.557,-518.289 705.014,-516.586 701.67,-510.437"/>
<text text-anchor="middle" x="788" y="-481" font-family="Helvetica,sans-Serif" font-size="10.00"> interp</text>
</g>
<!-- Node12 -->
<g id="node12" class="node"><title>Node12</title>
<polygon fill="white" stroke="#bfbfbf" points="395.5,-521 395.5,-551 511.5,-551 511.5,-521 395.5,-521"/>
<text text-anchor="start" x="403.5" y="-539" font-family="Helvetica,sans-Serif" font-size="10.00">class(sll_c_interpolator</text>
<text text-anchor="middle" x="453.5" y="-528" font-family="Helvetica,sans-Serif" font-size="10.00">_1d), pointer</text>
</g>
<!-- Node12&#45;&gt;Node11 -->
<g id="edge14" class="edge"><title>Node12&#45;&gt;Node11</title>
<path fill="none" stroke="#9a32cd" stroke-dasharray="5,2" d="M521.922,-533.548C553.99,-532.382 591.766,-531.009 621.707,-529.92"/>
<polygon fill="#9a32cd" stroke="#9a32cd" points="521.594,-530.058 511.728,-533.919 521.849,-537.053 521.594,-530.058"/>
<text text-anchor="middle" x="561" y="-536" font-family="Helvetica,sans-Serif" font-size="10.00"> ptr</text>
</g>
<!-- Node13 -->
<g id="node13" class="node"><title>Node13</title>
<polygon fill="white" stroke="#bfbfbf" points="620,-379 620,-409 731,-409 731,-379 620,-379"/>
<text text-anchor="start" x="628" y="-397" font-family="Helvetica,sans-Serif" font-size="10.00">class(fft_hierarchical)</text>
<text text-anchor="middle" x="675.5" y="-386" font-family="Helvetica,sans-Serif" font-size="10.00">, dimension(:), pointer</text>
</g>
<!-- Node13&#45;&gt;Node2 -->
<g id="edge16" class="edge"><title>Node13&#45;&gt;Node2</title>
<path fill="none" stroke="#9a32cd" stroke-dasharray="5,2" d="M741.303,-394C768.683,-394 800.648,-394 828.649,-394"/>
<polygon fill="#9a32cd" stroke="#9a32cd" points="741.052,-390.5 731.052,-394 741.052,-397.5 741.052,-390.5"/>
<text text-anchor="middle" x="788" y="-397" font-family="Helvetica,sans-Serif" font-size="10.00"> fft_object</text>
</g>
</g>
</svg>
