<?xml version="1.0" encoding="UTF-8" standalone="no"?>
<!DOCTYPE svg PUBLIC "-//W3C//DTD SVG 1.1//EN"
 "http://www.w3.org/Graphics/SVG/1.1/DTD/svg11.dtd">
<!-- Generated by graphviz version 2.43.0 (0)
 -->
<!-- Title: sll_t_particle_group_2d2v_lbf Pages: 1 -->
<svg width="1696pt" height="806pt"
 viewBox="0.00 0.00 1696.00 805.50" xmlns="http://www.w3.org/2000/svg" xmlns:xlink="http://www.w3.org/1999/xlink">
<g id="graph0" class="graph" transform="scale(1 1) rotate(0) translate(4 801.5)">
<title>sll_t_particle_group_2d2v_lbf</title>
<polygon fill="white" stroke="transparent" points="-4,4 -4,-801.5 1692,-801.5 1692,4 -4,4"/>
<!-- Node1 -->
<g id="node1" class="node">
<title>Node1</title>
<g id="a_node1"><a xlink:title="Group of sll_t_particle_group_2d2v_lbf.">
<polygon fill="#bfbfbf" stroke="black" points="1576,-212 1576,-242 1688,-242 1688,-212 1576,-212"/>
<text text-anchor="start" x="1584" y="-230" font-family="Helvetica,sans-Serif" font-size="10.00">sll_t_particle_group</text>
<text text-anchor="middle" x="1632" y="-219" font-family="Helvetica,sans-Serif" font-size="10.00">_2d2v_lbf</text>
</a>
</g>
</g>
<!-- Node2 -->
<g id="node2" class="node">
<title>Node2</title>
<g id="a_node2"><a xlink:href="structsll__m__particle__group__base_1_1sll__c__particle__group__base.html" target="_top" xlink:title=" ">
<polygon fill="white" stroke="black" points="262,-772.5 262,-791.5 404,-791.5 404,-772.5 262,-772.5"/>
<text text-anchor="middle" x="333" y="-779.5" font-family="Helvetica,sans-Serif" font-size="10.00">sll_c_particle_group_base</text>
</a>
</g>
</g>
<!-- Node2&#45;&gt;Node1 -->
<g id="edge1" class="edge">
<title>Node2&#45;&gt;Node1</title>
<path fill="none" stroke="midnightblue" d="M414.29,-782.91C467.3,-783.44 538.29,-784 601,-784 601,-784 601,-784 1361,-784 1457.45,-784 1499.88,-769.97 1558,-693 1613.64,-619.31 1627.9,-313.87 1630.51,-242.13"/>
<polygon fill="midnightblue" stroke="midnightblue" points="414.3,-779.41 404.27,-782.81 414.23,-786.41 414.3,-779.41"/>
</g>
<!-- Node3 -->
<g id="node3" class="node">
<title>Node3</title>
<g id="a_node3"><a xlink:title=" ">
<polygon fill="white" stroke="#bfbfbf" points="20.5,-511.5 20.5,-530.5 123.5,-530.5 123.5,-511.5 20.5,-511.5"/>
<text text-anchor="middle" x="72" y="-518.5" font-family="Helvetica,sans-Serif" font-size="10.00">integer(kind=i32)</text>
</a>
</g>
</g>
<!-- Node3&#45;&gt;Node1 -->
<g id="edge8" class="edge">
<title>Node3&#45;&gt;Node1</title>
<path fill="none" stroke="#9a32cd" stroke-dasharray="5,2" d="M87.95,-538.5C124.85,-579.64 225.07,-679 332,-679 332,-679 332,-679 1361,-679 1569.41,-679 1620.76,-320.47 1629.5,-242.04"/>
<polygon fill="#9a32cd" stroke="#9a32cd" points="90.48,-536.08 81.24,-530.88 85.22,-540.7 90.48,-536.08"/>
<text text-anchor="middle" x="845.5" y="-748" font-family="Helvetica,sans-Serif" font-size="10.00"> n_particles_vx</text>
<text text-anchor="middle" x="845.5" y="-737" font-family="Helvetica,sans-Serif" font-size="10.00">n_particles_vy</text>
<text text-anchor="middle" x="845.5" y="-726" font-family="Helvetica,sans-Serif" font-size="10.00">n_particles_x</text>
<text text-anchor="middle" x="845.5" y="-715" font-family="Helvetica,sans-Serif" font-size="10.00">n_particles_y</text>
<text text-anchor="start" x="782" y="-704" font-family="Helvetica,sans-Serif" font-size="10.00">remapped_f_interpolation</text>
<text text-anchor="middle" x="845.5" y="-693" font-family="Helvetica,sans-Serif" font-size="10.00">_degree</text>
<text text-anchor="middle" x="845.5" y="-682" font-family="Helvetica,sans-Serif" font-size="10.00">sparse_grid_max_levels</text>
</g>
<!-- Node3&#45;&gt;Node2 -->
<g id="edge2" class="edge">
<title>Node3&#45;&gt;Node2</title>
<path fill="none" stroke="#9a32cd" stroke-dasharray="5,2" d="M78.79,-540.58C89.86,-575.08 117.01,-647.3 162,-692 191.05,-720.86 207.8,-714.86 244,-734 268.77,-747.1 297.19,-762.7 314.87,-772.49"/>
<polygon fill="#9a32cd" stroke="#9a32cd" points="82.06,-539.3 75.76,-530.78 75.37,-541.37 82.06,-539.3"/>
<text text-anchor="middle" x="203" y="-770" font-family="Helvetica,sans-Serif" font-size="10.00"> id</text>
<text text-anchor="middle" x="203" y="-759" font-family="Helvetica,sans-Serif" font-size="10.00">n_particles</text>
<text text-anchor="middle" x="203" y="-748" font-family="Helvetica,sans-Serif" font-size="10.00">n_total_particles</text>
<text text-anchor="middle" x="203" y="-737" font-family="Helvetica,sans-Serif" font-size="10.00">n_weights</text>
</g>
<!-- Node6 -->
<g id="node6" class="node">
<title>Node6</title>
<g id="a_node6"><a xlink:href="structsll__m__cartesian__meshes_1_1sll__t__cartesian__mesh__4d.html" target="_top" xlink:title="4D cartesian mesh">
<polygon fill="white" stroke="black" points="533.5,-112.5 533.5,-131.5 670.5,-131.5 670.5,-112.5 533.5,-112.5"/>
<text text-anchor="middle" x="602" y="-119.5" font-family="Helvetica,sans-Serif" font-size="10.00">sll_t_cartesian_mesh_4d</text>
</a>
</g>
</g>
<!-- Node3&#45;&gt;Node6 -->
<g id="edge6" class="edge">
<title>Node3&#45;&gt;Node6</title>
<path fill="none" stroke="#9a32cd" stroke-dasharray="5,2" d="M77.02,-501.35C91.47,-431.48 140.94,-197.79 162,-171 259.28,-47.26 482.77,-90.44 567.55,-112.42"/>
<polygon fill="#9a32cd" stroke="#9a32cd" points="73.54,-500.93 74.95,-511.43 80.39,-502.35 73.54,-500.93"/>
<text text-anchor="middle" x="333" y="-139" font-family="Helvetica,sans-Serif" font-size="10.00"> num_cells1</text>
<text text-anchor="middle" x="333" y="-128" font-family="Helvetica,sans-Serif" font-size="10.00">num_cells2</text>
<text text-anchor="middle" x="333" y="-117" font-family="Helvetica,sans-Serif" font-size="10.00">num_cells3</text>
<text text-anchor="middle" x="333" y="-106" font-family="Helvetica,sans-Serif" font-size="10.00">num_cells4</text>
</g>
<!-- Node8 -->
<g id="node8" class="node">
<title>Node8</title>
<g id="a_node8"><a xlink:href="structsll__m__sparse__grid__4d_1_1sll__t__sparse__grid__4d.html" target="_top" xlink:title="Sparse grid object for 4d with interpolation routines. Note in 4d we have only an implementation of a...">
<polygon fill="white" stroke="black" points="1302,-329.5 1302,-348.5 1418,-348.5 1418,-329.5 1302,-329.5"/>
<text text-anchor="middle" x="1360" y="-336.5" font-family="Helvetica,sans-Serif" font-size="10.00">sll_t_sparse_grid_4d</text>
</a>
</g>
</g>
<!-- Node3&#45;&gt;Node8 -->
<g id="edge29" class="edge">
<title>Node3&#45;&gt;Node8</title>
<path fill="none" stroke="#9a32cd" stroke-dasharray="5,2" d="M106.96,-534.17C123.4,-540.2 143.54,-547.08 162,-552 322.8,-594.82 364.31,-605.6 530,-621 778.78,-644.12 858.44,-641.15 1086,-538 1200.85,-485.94 1315.35,-380.96 1349.07,-348.67"/>
<polygon fill="#9a32cd" stroke="#9a32cd" points="107.84,-530.77 97.25,-530.55 105.4,-537.32 107.84,-530.77"/>
<text text-anchor="middle" x="719.5" y="-636" font-family="Helvetica,sans-Serif" font-size="10.00"> index</text>
</g>
<!-- Node9 -->
<g id="node9" class="node">
<title>Node9</title>
<g id="a_node9"><a xlink:href="structsll__m__sparse__grid__interpolator_1_1sll__t__sparse__grid__interpolator.html" target="_top" xlink:title="Class defining the sparse grid data structure.">
<polygon fill="white" stroke="black" points="1104,-329.5 1104,-348.5 1265,-348.5 1265,-329.5 1104,-329.5"/>
<text text-anchor="middle" x="1184.5" y="-336.5" font-family="Helvetica,sans-Serif" font-size="10.00">sll_t_sparse_grid_interpolator</text>
</a>
</g>
</g>
<!-- Node3&#45;&gt;Node9 -->
<g id="edge26" class="edge">
<title>Node3&#45;&gt;Node9</title>
<path fill="none" stroke="#9a32cd" stroke-dasharray="5,2" d="M91.66,-504.69C150.68,-454.55 340.62,-303.94 530,-270 593,-258.71 622.08,-232.58 674,-270 694.52,-284.79 673.3,-306.96 692,-324 732.12,-360.56 894,-346.16 944,-347 1007.1,-348.06 1022.94,-349.58 1086,-347 1091.85,-346.76 1097.9,-346.44 1103.98,-346.06"/>
<polygon fill="#9a32cd" stroke="#9a32cd" points="89.23,-502.17 83.92,-511.34 93.79,-507.48 89.23,-502.17"/>
<text text-anchor="middle" x="602" y="-383" font-family="Helvetica,sans-Serif" font-size="10.00"> boundary</text>
<text text-anchor="middle" x="602" y="-372" font-family="Helvetica,sans-Serif" font-size="10.00">dim</text>
<text text-anchor="middle" x="602" y="-361" font-family="Helvetica,sans-Serif" font-size="10.00">hs_weights_index</text>
<text text-anchor="middle" x="602" y="-350" font-family="Helvetica,sans-Serif" font-size="10.00">interpolation</text>
<text text-anchor="middle" x="602" y="-339" font-family="Helvetica,sans-Serif" font-size="10.00">level_mapping</text>
<text text-anchor="middle" x="602" y="-328" font-family="Helvetica,sans-Serif" font-size="10.00">levels</text>
<text text-anchor="middle" x="602" y="-317" font-family="Helvetica,sans-Serif" font-size="10.00">max_level</text>
<text text-anchor="middle" x="602" y="-306" font-family="Helvetica,sans-Serif" font-size="10.00">modified</text>
<text text-anchor="middle" x="602" y="-295" font-family="Helvetica,sans-Serif" font-size="10.00">no_basis_functions</text>
<text text-anchor="middle" x="602" y="-284" font-family="Helvetica,sans-Serif" font-size="10.00">order</text>
<text text-anchor="middle" x="602" y="-273" font-family="Helvetica,sans-Serif" font-size="10.00">...</text>
</g>
<!-- Node11 -->
<g id="node11" class="node">
<title>Node11</title>
<g id="a_node11"><a xlink:href="structsll__m__periodic__interpolator__1d_1_1sll__t__periodic__interpolator__1d.html" target="_top" xlink:title="Periodic interpolator.">
<polygon fill="white" stroke="black" points="765,-467.5 765,-486.5 926,-486.5 926,-467.5 765,-467.5"/>
<text text-anchor="middle" x="845.5" y="-474.5" font-family="Helvetica,sans-Serif" font-size="10.00">sll_t_periodic_interpolator_1d</text>
</a>
</g>
</g>
<!-- Node3&#45;&gt;Node11 -->
<g id="edge22" class="edge">
<title>Node3&#45;&gt;Node11</title>
<path fill="none" stroke="#9a32cd" stroke-dasharray="5,2" d="M133.91,-529.91C170.87,-534.86 219.04,-540.51 262,-543 478.38,-555.55 532.69,-524.42 747,-492 758.6,-490.25 770.97,-488.36 782.87,-486.53"/>
<polygon fill="#9a32cd" stroke="#9a32cd" points="134.18,-526.41 123.8,-528.53 133.24,-533.35 134.18,-526.41"/>
<text text-anchor="middle" x="467" y="-547" font-family="Helvetica,sans-Serif" font-size="10.00"> num_points</text>
</g>
<!-- Node13 -->
<g id="node13" class="node">
<title>Node13</title>
<g id="a_node13"><a xlink:href="structsll__m__periodic__interp_1_1sll__t__periodic__interp__work.html" target="_top" xlink:title=" ">
<polygon fill="white" stroke="black" points="530,-467.5 530,-486.5 674,-486.5 674,-467.5 530,-467.5"/>
<text text-anchor="middle" x="602" y="-474.5" font-family="Helvetica,sans-Serif" font-size="10.00">sll_t_periodic_interp_work</text>
</a>
</g>
</g>
<!-- Node3&#45;&gt;Node13 -->
<g id="edge20" class="edge">
<title>Node3&#45;&gt;Node13</title>
<path fill="none" stroke="#9a32cd" stroke-dasharray="5,2" d="M133.99,-513.1C170.97,-508.51 219.15,-502.88 262,-499 354.36,-490.63 461.17,-484.24 529.82,-480.56"/>
<polygon fill="#9a32cd" stroke="#9a32cd" points="133.35,-509.65 123.86,-514.37 134.22,-516.6 133.35,-509.65"/>
<text text-anchor="middle" x="333" y="-535" font-family="Helvetica,sans-Serif" font-size="10.00"> interpolator</text>
<text text-anchor="middle" x="333" y="-524" font-family="Helvetica,sans-Serif" font-size="10.00">n</text>
<text text-anchor="middle" x="333" y="-513" font-family="Helvetica,sans-Serif" font-size="10.00">order</text>
<text text-anchor="middle" x="333" y="-502" font-family="Helvetica,sans-Serif" font-size="10.00">sizebuf</text>
</g>
<!-- Node15 -->
<g id="node15" class="node">
<title>Node15</title>
<g id="a_node15"><a xlink:href="structsll__m__fft_1_1sll__t__fft.html" target="_top" xlink:title="Type for FFT plan in SeLaLib.">
<polygon fill="white" stroke="black" points="306.5,-209.5 306.5,-228.5 359.5,-228.5 359.5,-209.5 306.5,-209.5"/>
<text text-anchor="middle" x="333" y="-216.5" font-family="Helvetica,sans-Serif" font-size="10.00">sll_t_fft</text>
</a>
</g>
</g>
<!-- Node3&#45;&gt;Node15 -->
<g id="edge18" class="edge">
<title>Node3&#45;&gt;Node15</title>
<path fill="none" stroke="#9a32cd" stroke-dasharray="5,2" d="M75.79,-501.14C84.87,-439.72 115.66,-254.84 162,-220 204.11,-188.34 270.15,-200.35 306.27,-210.52"/>
<polygon fill="#9a32cd" stroke="#9a32cd" points="72.27,-501.01 74.31,-511.41 79.2,-502.01 72.27,-501.01"/>
<text text-anchor="middle" x="203" y="-256" font-family="Helvetica,sans-Serif" font-size="10.00"> direction</text>
<text text-anchor="middle" x="203" y="-245" font-family="Helvetica,sans-Serif" font-size="10.00">problem_rank</text>
<text text-anchor="middle" x="203" y="-234" font-family="Helvetica,sans-Serif" font-size="10.00">problem_shape</text>
<text text-anchor="middle" x="203" y="-223" font-family="Helvetica,sans-Serif" font-size="10.00">transform_type</text>
</g>
<!-- Node4 -->
<g id="node4" class="node">
<title>Node4</title>
<g id="a_node4"><a xlink:title=" ">
<polygon fill="white" stroke="#bfbfbf" points="16.5,-767 16.5,-797 127.5,-797 127.5,-767 16.5,-767"/>
<text text-anchor="start" x="24.5" y="-785" font-family="Helvetica,sans-Serif" font-size="10.00">class(sll_t_species)</text>
<text text-anchor="middle" x="72" y="-774" font-family="Helvetica,sans-Serif" font-size="10.00">, allocatable</text>
</a>
</g>
</g>
<!-- Node4&#45;&gt;Node2 -->
<g id="edge3" class="edge">
<title>Node4&#45;&gt;Node2</title>
<path fill="none" stroke="#9a32cd" stroke-dasharray="5,2" d="M137.96,-782C175.65,-782 223.13,-782 261.69,-782"/>
<polygon fill="#9a32cd" stroke="#9a32cd" points="137.61,-778.5 127.61,-782 137.61,-785.5 137.61,-778.5"/>
<text text-anchor="middle" x="203" y="-785" font-family="Helvetica,sans-Serif" font-size="10.00"> species</text>
</g>
<!-- Node5 -->
<g id="node5" class="node">
<title>Node5</title>
<g id="a_node5"><a xlink:title=" ">
<polygon fill="white" stroke="#bfbfbf" points="47.5,-7.5 47.5,-26.5 96.5,-26.5 96.5,-7.5 47.5,-7.5"/>
<text text-anchor="middle" x="72" y="-14.5" font-family="Helvetica,sans-Serif" font-size="10.00">logical</text>
</a>
</g>
</g>
<!-- Node5&#45;&gt;Node1 -->
<g id="edge4" class="edge">
<title>Node5&#45;&gt;Node1</title>
<path fill="none" stroke="#9a32cd" stroke-dasharray="5,2" d="M106.64,-13.38C156,-8.39 250.98,0 332,0 332,0 332,0 1361,0 1458.2,0 1487.37,-28.21 1558,-95 1593.96,-129.01 1616.61,-184.75 1626.01,-211.6"/>
<polygon fill="#9a32cd" stroke="#9a32cd" points="106.12,-9.91 96.54,-14.42 106.84,-16.88 106.12,-9.91"/>
<text text-anchor="middle" x="845.5" y="-3" font-family="Helvetica,sans-Serif" font-size="10.00"> domain_is_periodic</text>
</g>
<!-- Node5&#45;&gt;Node15 -->
<g id="edge17" class="edge">
<title>Node5&#45;&gt;Node15</title>
<path fill="none" stroke="#9a32cd" stroke-dasharray="5,2" d="M97.17,-32.02C133.27,-55.48 201.54,-103.99 244,-160 255.78,-175.54 247.17,-187.34 262,-200 274.26,-210.46 291.76,-215.21 306.2,-217.35"/>
<polygon fill="#9a32cd" stroke="#9a32cd" points="99.03,-29.05 88.72,-26.6 95.25,-34.95 99.03,-29.05"/>
<text text-anchor="middle" x="203" y="-163" font-family="Helvetica,sans-Serif" font-size="10.00"> normalized</text>
</g>
<!-- Node6&#45;&gt;Node1 -->
<g id="edge5" class="edge">
<title>Node6&#45;&gt;Node1</title>
<path fill="none" stroke="#9a32cd" stroke-dasharray="5,2" d="M640.25,-134.65C687.26,-149.46 770.9,-172 844.5,-172 844.5,-172 844.5,-172 1361,-172 1441.37,-172 1532.53,-195.69 1585.71,-211.97"/>
<polygon fill="#9a32cd" stroke="#9a32cd" points="641.1,-131.24 630.51,-131.52 638.96,-137.91 641.1,-131.24"/>
<text text-anchor="middle" x="1184.5" y="-175" font-family="Helvetica,sans-Serif" font-size="10.00"> lbf_grid</text>
</g>
<!-- Node7 -->
<g id="node7" class="node">
<title>Node7</title>
<g id="a_node7"><a xlink:title=" ">
<polygon fill="white" stroke="#bfbfbf" points="289,-171.5 289,-190.5 377,-190.5 377,-171.5 289,-171.5"/>
<text text-anchor="middle" x="333" y="-178.5" font-family="Helvetica,sans-Serif" font-size="10.00">real(kind=f64)</text>
</a>
</g>
</g>
<!-- Node7&#45;&gt;Node1 -->
<g id="edge30" class="edge">
<title>Node7&#45;&gt;Node1</title>
<path fill="none" stroke="#9a32cd" stroke-dasharray="5,2" d="M379.97,-167.51C388.77,-163.31 397.31,-157.91 404,-151 419.27,-135.23 404.62,-118.41 422,-105 485.41,-56.06 520.9,-84 601,-84 601,-84 601,-84 1361,-84 1469.47,-84 1576.94,-175.25 1615.79,-211.97"/>
<polygon fill="#9a32cd" stroke="#9a32cd" points="378.58,-164.3 370.78,-171.46 381.35,-170.73 378.58,-164.3"/>
<text text-anchor="middle" x="1015" y="-142" font-family="Helvetica,sans-Serif" font-size="10.00"> common_weight</text>
<text text-anchor="middle" x="1015" y="-131" font-family="Helvetica,sans-Serif" font-size="10.00">particle_array</text>
<text text-anchor="start" x="944" y="-120" font-family="Helvetica,sans-Serif" font-size="10.00">remapped_f_sparse</text>
<text text-anchor="middle" x="1015" y="-109" font-family="Helvetica,sans-Serif" font-size="10.00">_grid_coefficients</text>
<text text-anchor="start" x="944" y="-98" font-family="Helvetica,sans-Serif" font-size="10.00">tmp_f_values_on_remapping</text>
<text text-anchor="middle" x="1015" y="-87" font-family="Helvetica,sans-Serif" font-size="10.00">_sparse_grid</text>
</g>
<!-- Node7&#45;&gt;Node6 -->
<g id="edge7" class="edge">
<title>Node7&#45;&gt;Node6</title>
<path fill="none" stroke="#9a32cd" stroke-dasharray="5,2" d="M350.35,-164.4C366.8,-148.98 393.71,-127.08 422,-118 464.47,-104.36 515.57,-107.27 552.28,-112.46"/>
<polygon fill="#9a32cd" stroke="#9a32cd" points="347.91,-161.89 343.16,-171.36 352.78,-166.92 347.91,-161.89"/>
<text text-anchor="middle" x="467" y="-231" font-family="Helvetica,sans-Serif" font-size="10.00"> delta_eta1</text>
<text text-anchor="middle" x="467" y="-220" font-family="Helvetica,sans-Serif" font-size="10.00">delta_eta2</text>
<text text-anchor="middle" x="467" y="-209" font-family="Helvetica,sans-Serif" font-size="10.00">delta_eta3</text>
<text text-anchor="middle" x="467" y="-198" font-family="Helvetica,sans-Serif" font-size="10.00">delta_eta4</text>
<text text-anchor="middle" x="467" y="-187" font-family="Helvetica,sans-Serif" font-size="10.00">eta1_max</text>
<text text-anchor="middle" x="467" y="-176" font-family="Helvetica,sans-Serif" font-size="10.00">eta1_min</text>
<text text-anchor="middle" x="467" y="-165" font-family="Helvetica,sans-Serif" font-size="10.00">eta2_max</text>
<text text-anchor="middle" x="467" y="-154" font-family="Helvetica,sans-Serif" font-size="10.00">eta2_min</text>
<text text-anchor="middle" x="467" y="-143" font-family="Helvetica,sans-Serif" font-size="10.00">eta3_max</text>
<text text-anchor="middle" x="467" y="-132" font-family="Helvetica,sans-Serif" font-size="10.00">eta3_min</text>
<text text-anchor="middle" x="467" y="-121" font-family="Helvetica,sans-Serif" font-size="10.00">...</text>
</g>
<!-- Node7&#45;&gt;Node9 -->
<g id="edge28" class="edge">
<title>Node7&#45;&gt;Node9</title>
<path fill="none" stroke="#9a32cd" stroke-dasharray="5,2" d="M387.04,-189.94C393.18,-192.5 399.01,-195.79 404,-200 418.58,-212.32 405.96,-228.65 422,-239 427.88,-242.8 919.04,-242.22 926,-243 998.34,-251.11 1018.6,-250.51 1086,-278 1119.09,-291.5 1153.58,-315.94 1171.33,-329.43"/>
<polygon fill="#9a32cd" stroke="#9a32cd" points="387.81,-186.5 377.22,-186.48 385.49,-193.1 387.81,-186.5"/>
<text text-anchor="middle" x="719.5" y="-312" font-family="Helvetica,sans-Serif" font-size="10.00"> eta_max</text>
<text text-anchor="middle" x="719.5" y="-301" font-family="Helvetica,sans-Serif" font-size="10.00">eta_min</text>
<text text-anchor="middle" x="719.5" y="-290" font-family="Helvetica,sans-Serif" font-size="10.00">hs_weights</text>
<text text-anchor="middle" x="719.5" y="-279" font-family="Helvetica,sans-Serif" font-size="10.00">length</text>
<text text-anchor="middle" x="719.5" y="-268" font-family="Helvetica,sans-Serif" font-size="10.00">stripe</text>
<text text-anchor="middle" x="719.5" y="-257" font-family="Helvetica,sans-Serif" font-size="10.00">stripe_out</text>
<text text-anchor="middle" x="719.5" y="-246" font-family="Helvetica,sans-Serif" font-size="10.00">volume</text>
</g>
<!-- Node7&#45;&gt;Node11 -->
<g id="edge23" class="edge">
<title>Node7&#45;&gt;Node11</title>
<path fill="none" stroke="#9a32cd" stroke-dasharray="5,2" d="M386.85,-188.76C393.21,-191.5 399.16,-195.15 404,-200 425.77,-221.83 403.02,-242.7 422,-267 450.17,-303.06 484.48,-280.44 512,-317 533.4,-345.42 505.2,-369.49 530,-395 534.9,-400.04 722.69,-446.91 805.71,-467.44"/>
<polygon fill="#9a32cd" stroke="#9a32cd" points="387.91,-185.42 377.31,-185.37 385.56,-192.02 387.91,-185.42"/>
<text text-anchor="middle" x="602" y="-448" font-family="Helvetica,sans-Serif" font-size="10.00"> cell_size</text>
<text text-anchor="middle" x="602" y="-437" font-family="Helvetica,sans-Serif" font-size="10.00">domain_size</text>
</g>
<!-- Node7&#45;&gt;Node13 -->
<g id="edge21" class="edge">
<title>Node7&#45;&gt;Node13</title>
<path fill="none" stroke="#9a32cd" stroke-dasharray="5,2" d="M386.88,-188.09C393.34,-190.92 399.31,-194.77 404,-200 438.25,-238.18 386.67,-276.81 422,-314 450.15,-343.64 483.96,-303.25 512,-333 548.99,-372.25 495.39,-411.64 530,-453 535.26,-459.29 542.23,-463.93 549.75,-467.36"/>
<polygon fill="#9a32cd" stroke="#9a32cd" points="387.73,-184.68 377.13,-184.64 385.39,-191.28 387.73,-184.68"/>
<text text-anchor="middle" x="467" y="-358" font-family="Helvetica,sans-Serif" font-size="10.00"> buf</text>
<text text-anchor="middle" x="467" y="-347" font-family="Helvetica,sans-Serif" font-size="10.00">eigenvalues_minv</text>
<text text-anchor="middle" x="467" y="-336" font-family="Helvetica,sans-Serif" font-size="10.00">wsave</text>
</g>
<!-- Node8&#45;&gt;Node1 -->
<g id="edge9" class="edge">
<title>Node8&#45;&gt;Node1</title>
<path fill="none" stroke="#9a32cd" stroke-dasharray="5,2" d="M1393.5,-325.52C1444.13,-304.51 1541.54,-264.11 1594.52,-242.13"/>
<polygon fill="#9a32cd" stroke="#9a32cd" points="1391.92,-322.39 1384.02,-329.45 1394.6,-328.85 1391.92,-322.39"/>
<text text-anchor="middle" x="1497" y="-309" font-family="Helvetica,sans-Serif" font-size="10.00"> sparse_grid_interpolator</text>
</g>
<!-- Node9&#45;&gt;Node8 -->
<g id="edge10" class="edge">
<title>Node9&#45;&gt;Node8</title>
<path fill="none" stroke="midnightblue" d="M1275.32,-339C1284.34,-339 1293.31,-339 1301.85,-339"/>
<polygon fill="midnightblue" stroke="midnightblue" points="1275.14,-335.5 1265.14,-339 1275.14,-342.5 1275.14,-335.5"/>
</g>
<!-- Node10 -->
<g id="node10" class="node">
<title>Node10</title>
<g id="a_node10"><a xlink:title=" ">
<polygon fill="white" stroke="#bfbfbf" points="781,-253 781,-283 910,-283 910,-253 781,-253"/>
<text text-anchor="start" x="789" y="-271" font-family="Helvetica,sans-Serif" font-size="10.00">class(sparsegrid_node)</text>
<text text-anchor="middle" x="845.5" y="-260" font-family="Helvetica,sans-Serif" font-size="10.00">, dimension(:), pointer</text>
</a>
</g>
</g>
<!-- Node10&#45;&gt;Node9 -->
<g id="edge11" class="edge">
<title>Node10&#45;&gt;Node9</title>
<path fill="none" stroke="#9a32cd" stroke-dasharray="5,2" d="M920.15,-278.1C967.78,-285.24 1030.93,-295.87 1086,-309 1109.77,-314.67 1136.25,-322.94 1155.6,-329.37"/>
<polygon fill="#9a32cd" stroke="#9a32cd" points="920.64,-274.63 910.24,-276.62 919.61,-281.55 920.64,-274.63"/>
<text text-anchor="middle" x="1015" y="-312" font-family="Helvetica,sans-Serif" font-size="10.00"> hierarchy</text>
</g>
<!-- Node11&#45;&gt;Node9 -->
<g id="edge12" class="edge">
<title>Node11&#45;&gt;Node9</title>
<path fill="none" stroke="#9a32cd" stroke-dasharray="5,2" d="M879.29,-463.57C947.14,-435.79 1101.49,-372.58 1160.23,-348.53"/>
<polygon fill="#9a32cd" stroke="#9a32cd" points="877.86,-460.38 869.93,-467.41 880.51,-466.86 877.86,-460.38"/>
<text text-anchor="middle" x="1015" y="-440" font-family="Helvetica,sans-Serif" font-size="10.00"> interp_per</text>
</g>
<!-- Node12 -->
<g id="node12" class="node">
<title>Node12</title>
<g id="a_node12"><a xlink:href="structsll__m__interpolators__1d__base_1_1sll__c__interpolator__1d.html" target="_top" xlink:title="Abstract class for 1D interpolation and reconstruction.">
<polygon fill="white" stroke="black" points="543,-543.5 543,-562.5 661,-562.5 661,-543.5 543,-543.5"/>
<text text-anchor="middle" x="602" y="-550.5" font-family="Helvetica,sans-Serif" font-size="10.00">sll_c_interpolator_1d</text>
</a>
</g>
</g>
<!-- Node12&#45;&gt;Node11 -->
<g id="edge13" class="edge">
<title>Node12&#45;&gt;Node11</title>
<path fill="none" stroke="midnightblue" d="M671.38,-546.23C695.68,-542.62 722.96,-537.17 747,-529 778.24,-518.38 811.52,-498.56 829.99,-486.69"/>
<polygon fill="midnightblue" stroke="midnightblue" points="670.58,-542.81 661.16,-547.67 671.55,-549.74 670.58,-542.81"/>
</g>
<!-- Node13&#45;&gt;Node11 -->
<g id="edge14" class="edge">
<title>Node13&#45;&gt;Node11</title>
<path fill="none" stroke="#9a32cd" stroke-dasharray="5,2" d="M684.35,-477C710.36,-477 739.1,-477 764.97,-477"/>
<polygon fill="#9a32cd" stroke="#9a32cd" points="684.15,-473.5 674.15,-477 684.15,-480.5 684.15,-473.5"/>
<text text-anchor="middle" x="719.5" y="-480" font-family="Helvetica,sans-Serif" font-size="10.00"> per_interp</text>
</g>
<!-- Node14 -->
<g id="node14" class="node">
<title>Node14</title>
<g id="a_node14"><a xlink:title=" ">
<polygon fill="white" stroke="#bfbfbf" points="272,-418 272,-448 394,-448 394,-418 272,-418"/>
<text text-anchor="start" x="280" y="-436" font-family="Helvetica,sans-Serif" font-size="10.00">complex(kind=f64),</text>
<text text-anchor="middle" x="333" y="-425" font-family="Helvetica,sans-Serif" font-size="10.00"> dimension(:), pointer</text>
</a>
</g>
</g>
<!-- Node14&#45;&gt;Node13 -->
<g id="edge15" class="edge">
<title>Node14&#45;&gt;Node13</title>
<path fill="none" stroke="#9a32cd" stroke-dasharray="5,2" d="M404.21,-424.52C437.83,-423.05 478.06,-425.17 512,-438 521.74,-441.68 520.91,-447.91 530,-453 540.56,-458.91 552.82,-463.69 564.14,-467.39"/>
<polygon fill="#9a32cd" stroke="#9a32cd" points="403.8,-421.04 394,-425.09 404.18,-428.03 403.8,-421.04"/>
<text text-anchor="middle" x="467" y="-463" font-family="Helvetica,sans-Serif" font-size="10.00"> eigenvalues_s</text>
<text text-anchor="middle" x="467" y="-452" font-family="Helvetica,sans-Serif" font-size="10.00">modes</text>
<text text-anchor="middle" x="467" y="-441" font-family="Helvetica,sans-Serif" font-size="10.00">ufft</text>
</g>
<!-- Node15&#45;&gt;Node13 -->
<g id="edge16" class="edge">
<title>Node15&#45;&gt;Node13</title>
<path fill="none" stroke="#9a32cd" stroke-dasharray="5,2" d="M340.12,-238.31C351.25,-270.34 377.82,-334.46 422,-370 454.75,-396.34 482.13,-369.43 512,-399 529.98,-416.8 512.15,-435.07 530,-453 536.33,-459.36 544.41,-464.04 552.83,-467.47"/>
<polygon fill="#9a32cd" stroke="#9a32cd" points="343.42,-237.14 336.93,-228.76 336.78,-239.36 343.42,-237.14"/>
<text text-anchor="middle" x="467" y="-413" font-family="Helvetica,sans-Serif" font-size="10.00"> pfwd</text>
<text text-anchor="middle" x="467" y="-402" font-family="Helvetica,sans-Serif" font-size="10.00">pinv</text>
</g>
<!-- Node16 -->
<g id="node16" class="node">
<title>Node16</title>
<g id="a_node16"><a xlink:title=" ">
<polygon fill="white" stroke="#bfbfbf" points="0,-164.5 0,-205.5 144,-205.5 144,-164.5 0,-164.5"/>
<text text-anchor="start" x="8" y="-193.5" font-family="Helvetica,sans-Serif" font-size="10.00">complex(kind=f64),</text>
<text text-anchor="start" x="8" y="-182.5" font-family="Helvetica,sans-Serif" font-size="10.00"> dimension(:), allocatable,</text>
<text text-anchor="middle" x="72" y="-171.5" font-family="Helvetica,sans-Serif" font-size="10.00"> private</text>
</a>
</g>
</g>
<!-- Node16&#45;&gt;Node15 -->
<g id="edge19" class="edge">
<title>Node16&#45;&gt;Node15</title>
<path fill="none" stroke="#9a32cd" stroke-dasharray="5,2" d="M154.31,-174.85C183.31,-173.98 215.77,-176.22 244,-186 253.58,-189.32 252.93,-195.47 262,-200 275.86,-206.92 292.56,-211.57 306.17,-214.55"/>
<polygon fill="#9a32cd" stroke="#9a32cd" points="154.05,-171.36 144.21,-175.29 154.35,-178.35 154.05,-171.36"/>
<text text-anchor="middle" x="203" y="-189" font-family="Helvetica,sans-Serif" font-size="10.00"> scratch</text>
</g>
<!-- Node17 -->
<g id="node17" class="node">
<title>Node17</title>
<g id="a_node17"><a xlink:href="structsll__m__sparse__grid__interpolator_1_1interpolator__base__ptr.html" target="_top" xlink:title=" ">
<polygon fill="white" stroke="black" points="785,-545.5 785,-564.5 906,-564.5 906,-545.5 785,-545.5"/>
<text text-anchor="middle" x="845.5" y="-552.5" font-family="Helvetica,sans-Serif" font-size="10.00">interpolator_base_ptr</text>
</a>
</g>
</g>
<!-- Node17&#45;&gt;Node9 -->
<g id="edge24" class="edge">
<title>Node17&#45;&gt;Node9</title>
<path fill="none" stroke="#9a32cd" stroke-dasharray="5,2" d="M891.22,-542.48C941.82,-526.86 1025.08,-496.65 1086,-452 1127.59,-421.52 1163.44,-370.14 1177.34,-348.78"/>
<polygon fill="#9a32cd" stroke="#9a32cd" points="890.11,-539.16 881.56,-545.41 892.14,-545.86 890.11,-539.16"/>
<text text-anchor="middle" x="1015" y="-526" font-family="Helvetica,sans-Serif" font-size="10.00"> interp</text>
</g>
<!-- Node18 -->
<g id="node18" class="node">
<title>Node18</title>
<g id="a_node18"><a xlink:title=" ">
<polygon fill="white" stroke="#bfbfbf" points="537.5,-582 537.5,-612 666.5,-612 666.5,-582 537.5,-582"/>
<text text-anchor="start" x="545.5" y="-600" font-family="Helvetica,sans-Serif" font-size="10.00">class(sll_c_interpolator</text>
<text text-anchor="middle" x="602" y="-589" font-family="Helvetica,sans-Serif" font-size="10.00">_1d), pointer</text>
</a>
</g>
</g>
<!-- Node18&#45;&gt;Node17 -->
<g id="edge25" class="edge">
<title>Node18&#45;&gt;Node17</title>
<path fill="none" stroke="#9a32cd" stroke-dasharray="5,2" d="M676.84,-584.16C713.26,-577.82 756.41,-570.32 789.81,-564.51"/>
<polygon fill="#9a32cd" stroke="#9a32cd" points="676.02,-580.75 666.77,-585.91 677.22,-587.64 676.02,-580.75"/>
<text text-anchor="middle" x="719.5" y="-584" font-family="Helvetica,sans-Serif" font-size="10.00"> ptr</text>
</g>
<!-- Node19 -->
<g id="node19" class="node">
<title>Node19</title>
<g id="a_node19"><a xlink:title=" ">
<polygon fill="white" stroke="#bfbfbf" points="783,-302 783,-332 908,-332 908,-302 783,-302"/>
<text text-anchor="start" x="791" y="-320" font-family="Helvetica,sans-Serif" font-size="10.00">class(fft_hierarchical)</text>
<text text-anchor="middle" x="845.5" y="-309" font-family="Helvetica,sans-Serif" font-size="10.00">, dimension(:), pointer</text>
</a>
</g>
</g>
<!-- Node19&#45;&gt;Node9 -->
<g id="edge27" class="edge">
<title>Node19&#45;&gt;Node9</title>
<path fill="none" stroke="#9a32cd" stroke-dasharray="5,2" d="M918.58,-321.71C973.03,-325.26 1047.73,-330.14 1103.93,-333.81"/>
<polygon fill="#9a32cd" stroke="#9a32cd" points="918.52,-318.19 908.31,-321.04 918.06,-325.18 918.52,-318.19"/>
<text text-anchor="middle" x="1015" y="-336" font-family="Helvetica,sans-Serif" font-size="10.00"> fft_object</text>
</g>
</g>
</svg>
