<?xml version="1.0" encoding="UTF-8" standalone="no"?>
<!DOCTYPE svg PUBLIC "-//W3C//DTD SVG 1.1//EN"
 "http://www.w3.org/Graphics/SVG/1.1/DTD/svg11.dtd">
<!-- Generated by graphviz version 2.38.0 (20140413.2041)
 -->
<!-- Title: sll_c_rk_implicit Pages: 1 -->
<svg width="238pt" height="140pt"
 viewBox="0.00 0.00 238.00 140.00" xmlns="http://www.w3.org/2000/svg" xmlns:xlink="http://www.w3.org/1999/xlink">
<g id="graph0" class="graph" transform="scale(1 1) rotate(0) translate(4 136)">
<title>sll_c_rk_implicit</title>
<polygon fill="white" stroke="none" points="-4,4 -4,-136 234,-136 234,4 -4,4"/>
<!-- Node1 -->
<g id="node1" class="node"><title>Node1</title>
<polygon fill="#bfbfbf" stroke="black" points="73,-56.5 73,-75.5 159,-75.5 159,-56.5 73,-56.5"/>
<text text-anchor="middle" x="116" y="-63.5" font-family="Helvetica,sans-Serif" font-size="10.00">sll_c_rk_implicit</text>
</g>
<!-- Node3 -->
<g id="node3" class="node"><title>Node3</title>
<g id="a_node3"><a xlink:href="structsll__m__rk__implicit_1_1sll__t__rk1d__bwd__euler.html" target="_top" xlink:title="sll_t_rk1d_bwd_euler">
<polygon fill="white" stroke="black" points="0,-0.5 0,-19.5 108,-19.5 108,-0.5 0,-0.5"/>
<text text-anchor="middle" x="54" y="-7.5" font-family="Helvetica,sans-Serif" font-size="10.00">sll_t_rk1d_bwd_euler</text>
</a>
</g>
</g>
<!-- Node1&#45;&gt;Node3 -->
<g id="edge2" class="edge"><title>Node1&#45;&gt;Node3</title>
<path fill="none" stroke="midnightblue" d="M98.2464,-49.5372C87.1915,-39.9087 73.3685,-27.8694 64.1426,-19.8339"/>
<polygon fill="midnightblue" stroke="midnightblue" points="96.199,-52.3954 106.039,-56.324 100.797,-47.1168 96.199,-52.3954"/>
</g>
<!-- Node4 -->
<g id="node4" class="node"><title>Node4</title>
<g id="a_node4"><a xlink:href="structsll__m__rk__implicit_1_1sll__t__rk1d__trapezoid.html" target="_top" xlink:title="sll_t_rk1d_trapezoid">
<polygon fill="white" stroke="black" points="126,-0.5 126,-19.5 230,-19.5 230,-0.5 126,-0.5"/>
<text text-anchor="middle" x="178" y="-7.5" font-family="Helvetica,sans-Serif" font-size="10.00">sll_t_rk1d_trapezoid</text>
</a>
</g>
</g>
<!-- Node1&#45;&gt;Node4 -->
<g id="edge3" class="edge"><title>Node1&#45;&gt;Node4</title>
<path fill="none" stroke="midnightblue" d="M133.754,-49.5372C144.808,-39.9087 158.631,-27.8694 167.857,-19.8339"/>
<polygon fill="midnightblue" stroke="midnightblue" points="131.203,-47.1168 125.961,-56.324 135.801,-52.3954 131.203,-47.1168"/>
</g>
<!-- Node2 -->
<g id="node2" class="node"><title>Node2</title>
<g id="a_node2"><a xlink:href="structsll__m__ode__integrator__base_1_1sll__c__ode__integrator.html" target="_top" xlink:title="Base class for standard ODE integrators. ">
<polygon fill="white" stroke="black" points="64,-112.5 64,-131.5 168,-131.5 168,-112.5 64,-112.5"/>
<text text-anchor="middle" x="116" y="-119.5" font-family="Helvetica,sans-Serif" font-size="10.00">sll_c_ode_integrator</text>
</a>
</g>
</g>
<!-- Node2&#45;&gt;Node1 -->
<g id="edge1" class="edge"><title>Node2&#45;&gt;Node1</title>
<path fill="none" stroke="midnightblue" d="M116,-101.805C116,-92.9102 116,-82.7798 116,-75.7511"/>
<polygon fill="midnightblue" stroke="midnightblue" points="112.5,-102.083 116,-112.083 119.5,-102.083 112.5,-102.083"/>
</g>
</g>
</svg>
