<?xml version="1.0" encoding="UTF-8" standalone="no"?>
<!DOCTYPE svg PUBLIC "-//W3C//DTD SVG 1.1//EN"
 "http://www.w3.org/Graphics/SVG/1.1/DTD/svg11.dtd">
<!-- Generated by graphviz version 2.43.0 (0)
 -->
<!-- Title: sll_t_comp_coeff_sym_sym Pages: 1 -->
<svg width="218pt" height="106pt"
 viewBox="0.00 0.00 217.50 106.00" xmlns="http://www.w3.org/2000/svg" xmlns:xlink="http://www.w3.org/1999/xlink">
<g id="graph0" class="graph" transform="scale(1 1) rotate(0) translate(4 102)">
<title>sll_t_comp_coeff_sym_sym</title>
<polygon fill="white" stroke="transparent" points="-4,4 -4,-102 213.5,-102 213.5,4 -4,4"/>
<!-- Node1 -->
<g id="node1" class="node">
<title>Node1</title>
<g id="a_node1"><a xlink:title="Symmetric Composition of Symmetric Methods.">
<polygon fill="#bfbfbf" stroke="black" points="33,-0.5 33,-19.5 184,-19.5 184,-0.5 33,-0.5"/>
<text text-anchor="middle" x="108.5" y="-7.5" font-family="Helvetica,sans-Serif" font-size="10.00">sll_t_comp_coeff_sym_sym</text>
</a>
</g>
</g>
<!-- Node2 -->
<g id="node2" class="node">
<title>Node2</title>
<g id="a_node2"><a xlink:title=" ">
<polygon fill="white" stroke="#bfbfbf" points="0,-78.5 0,-97.5 103,-97.5 103,-78.5 0,-78.5"/>
<text text-anchor="middle" x="51.5" y="-85.5" font-family="Helvetica,sans-Serif" font-size="10.00">integer(kind=i32)</text>
</a>
</g>
</g>
<!-- Node2&#45;&gt;Node1 -->
<g id="edge1" class="edge">
<title>Node2&#45;&gt;Node1</title>
<path fill="none" stroke="#9a32cd" stroke-dasharray="5,2" d="M64.25,-70.01C75.97,-54.37 92.89,-31.81 102.04,-19.62"/>
<polygon fill="#9a32cd" stroke="#9a32cd" points="61.24,-68.18 58.04,-78.28 66.84,-72.38 61.24,-68.18"/>
<text text-anchor="middle" x="105.5" y="-52" font-family="Helvetica,sans-Serif" font-size="10.00"> stages</text>
<text text-anchor="middle" x="105.5" y="-41" font-family="Helvetica,sans-Serif" font-size="10.00">order</text>
</g>
<!-- Node3 -->
<g id="node3" class="node">
<title>Node3</title>
<g id="a_node3"><a xlink:title=" ">
<polygon fill="white" stroke="#bfbfbf" points="121.5,-78.5 121.5,-97.5 209.5,-97.5 209.5,-78.5 121.5,-78.5"/>
<text text-anchor="middle" x="165.5" y="-85.5" font-family="Helvetica,sans-Serif" font-size="10.00">real(kind=f64)</text>
</a>
</g>
</g>
<!-- Node3&#45;&gt;Node1 -->
<g id="edge2" class="edge">
<title>Node3&#45;&gt;Node1</title>
<path fill="none" stroke="#9a32cd" stroke-dasharray="5,2" d="M152.75,-70.01C141.03,-54.37 124.11,-31.81 114.96,-19.62"/>
<polygon fill="#9a32cd" stroke="#9a32cd" points="150.16,-72.38 158.96,-78.28 155.76,-68.18 150.16,-72.38"/>
<text text-anchor="middle" x="164" y="-46.5" font-family="Helvetica,sans-Serif" font-size="10.00"> gamma</text>
</g>
</g>
</svg>
