<?xml version="1.0" encoding="UTF-8" standalone="no"?>
<!DOCTYPE svg PUBLIC "-//W3C//DTD SVG 1.1//EN"
 "http://www.w3.org/Graphics/SVG/1.1/DTD/svg11.dtd">
<!-- Generated by graphviz version 2.40.1 (20161225.0304)
 -->
<!-- Title: sll_t_integer_oblic_2d_advector Pages: 1 -->
<svg width="391pt" height="324pt"
 viewBox="0.00 0.00 391.00 323.50" xmlns="http://www.w3.org/2000/svg" xmlns:xlink="http://www.w3.org/1999/xlink">
<g id="graph0" class="graph" transform="scale(1 1) rotate(0) translate(4 319.5)">
<title>sll_t_integer_oblic_2d_advector</title>
<polygon fill="#ffffff" stroke="transparent" points="-4,4 -4,-319.5 387,-319.5 387,4 -4,4"/>
<!-- Node1 -->
<g id="node1" class="node">
<title>Node1</title>
<polygon fill="#bfbfbf" stroke="#000000" points="278,-155.5 278,-185.5 383,-185.5 383,-155.5 278,-155.5"/>
<text text-anchor="start" x="286" y="-173.5" font-family="Helvetica,sans-Serif" font-size="10.00" fill="#000000">sll_t_integer_oblic</text>
<text text-anchor="middle" x="330.5" y="-162.5" font-family="Helvetica,sans-Serif" font-size="10.00" fill="#000000">_2d_advector</text>
</g>
<!-- Node2 -->
<g id="node2" class="node">
<title>Node2</title>
<polygon fill="#ffffff" stroke="#bfbfbf" points="14,-282.5 14,-312.5 129,-312.5 129,-282.5 14,-282.5"/>
<text text-anchor="start" x="22" y="-300.5" font-family="Helvetica,sans-Serif" font-size="10.00" fill="#000000">class(sll_c_advector</text>
<text text-anchor="middle" x="71.5" y="-289.5" font-family="Helvetica,sans-Serif" font-size="10.00" fill="#000000">_1d), pointer</text>
</g>
<!-- Node2&#45;&gt;Node1 -->
<g id="edge1" class="edge">
<title>Node2&#45;&gt;Node1</title>
<path fill="none" stroke="#9a32cd" stroke-dasharray="5,2" d="M139.7669,-296.6024C177.5905,-293.3352 224.0821,-284.5345 260,-262.5 290.531,-243.7702 312.6887,-206.6083 323.3567,-185.7015"/>
<polygon fill="#9a32cd" stroke="#9a32cd" points="139.0549,-293.1458 129.3445,-297.3836 139.5782,-300.1263 139.0549,-293.1458"/>
<text text-anchor="middle" x="210.5" y="-307.5" font-family="Helvetica,sans-Serif" font-size="10.00" fill="#000000"> adv_aligned</text>
<text text-anchor="middle" x="210.5" y="-296.5" font-family="Helvetica,sans-Serif" font-size="10.00" fill="#000000">adv_x1</text>
</g>
<!-- Node3 -->
<g id="node3" class="node">
<title>Node3</title>
<polygon fill="#ffffff" stroke="#bfbfbf" points="7,-233.5 7,-263.5 136,-263.5 136,-233.5 7,-233.5"/>
<text text-anchor="start" x="15" y="-251.5" font-family="Helvetica,sans-Serif" font-size="10.00" fill="#000000">class(sll_c_interpolator</text>
<text text-anchor="middle" x="71.5" y="-240.5" font-family="Helvetica,sans-Serif" font-size="10.00" fill="#000000">_2d), pointer</text>
</g>
<!-- Node3&#45;&gt;Node1 -->
<g id="edge2" class="edge">
<title>Node3&#45;&gt;Node1</title>
<path fill="none" stroke="#9a32cd" stroke-dasharray="5,2" d="M146.4248,-249.163C182.0005,-247.1504 224.4143,-241.283 260,-226.5 282.2299,-217.2652 303.2268,-198.8759 316.4297,-185.688"/>
<polygon fill="#9a32cd" stroke="#9a32cd" points="145.926,-245.6826 136.1025,-249.6512 146.2568,-252.6748 145.926,-245.6826"/>
<text text-anchor="middle" x="210.5" y="-250.5" font-family="Helvetica,sans-Serif" font-size="10.00" fill="#000000"> interp</text>
</g>
<!-- Node4 -->
<g id="node4" class="node">
<title>Node4</title>
<polygon fill="#ffffff" stroke="#bfbfbf" points="20,-161 20,-180 123,-180 123,-161 20,-161"/>
<text text-anchor="middle" x="71.5" y="-168" font-family="Helvetica,sans-Serif" font-size="10.00" fill="#000000">integer(kind=i32)</text>
</g>
<!-- Node4&#45;&gt;Node1 -->
<g id="edge3" class="edge">
<title>Node4&#45;&gt;Node1</title>
<path fill="none" stroke="#9a32cd" stroke-dasharray="5,2" d="M133.314,-170.5C177.4071,-170.5 236.0623,-170.5 277.912,-170.5"/>
<polygon fill="#9a32cd" stroke="#9a32cd" points="133.2901,-167.0001 123.29,-170.5 133.29,-174.0001 133.2901,-167.0001"/>
<text text-anchor="middle" x="210.5" y="-217.5" font-family="Helvetica,sans-Serif" font-size="10.00" fill="#000000"> spaghetti_size</text>
<text text-anchor="middle" x="210.5" y="-206.5" font-family="Helvetica,sans-Serif" font-size="10.00" fill="#000000">spaghetti_index</text>
<text text-anchor="middle" x="210.5" y="-195.5" font-family="Helvetica,sans-Serif" font-size="10.00" fill="#000000">shift</text>
<text text-anchor="middle" x="210.5" y="-184.5" font-family="Helvetica,sans-Serif" font-size="10.00" fill="#000000">npts1</text>
<text text-anchor="middle" x="210.5" y="-173.5" font-family="Helvetica,sans-Serif" font-size="10.00" fill="#000000">npts2</text>
</g>
<!-- Node5 -->
<g id="node5" class="node">
<title>Node5</title>
<polygon fill="#ffffff" stroke="#bfbfbf" points="27.5,-50 27.5,-69 115.5,-69 115.5,-50 27.5,-50"/>
<text text-anchor="middle" x="71.5" y="-57" font-family="Helvetica,sans-Serif" font-size="10.00" fill="#000000">real(kind=f64)</text>
</g>
<!-- Node5&#45;&gt;Node1 -->
<g id="edge4" class="edge">
<title>Node5&#45;&gt;Node1</title>
<path fill="none" stroke="#9a32cd" stroke-dasharray="5,2" d="M125.5902,-53.9339C165.2288,-52.3669 219.0391,-55.6581 260,-78.5 291.4586,-96.043 313.3923,-134.0326 323.7407,-155.2987"/>
<polygon fill="#9a32cd" stroke="#9a32cd" points="125.3877,-50.4396 115.5787,-54.4439 125.7439,-57.4305 125.3877,-50.4396"/>
<text text-anchor="middle" x="210.5" y="-158.5" font-family="Helvetica,sans-Serif" font-size="10.00" fill="#000000"> phi_at_aligned_1d</text>
<text text-anchor="start" x="161" y="-147.5" font-family="Helvetica,sans-Serif" font-size="10.00" fill="#000000">charac_feet_aligned</text>
<text text-anchor="middle" x="210.5" y="-136.5" font-family="Helvetica,sans-Serif" font-size="10.00" fill="#000000">_1d</text>
<text text-anchor="middle" x="210.5" y="-125.5" font-family="Helvetica,sans-Serif" font-size="10.00" fill="#000000">charac_feet1</text>
<text text-anchor="middle" x="210.5" y="-114.5" font-family="Helvetica,sans-Serif" font-size="10.00" fill="#000000">eta1_coords</text>
<text text-anchor="middle" x="210.5" y="-103.5" font-family="Helvetica,sans-Serif" font-size="10.00" fill="#000000">phi_at_aligned</text>
<text text-anchor="middle" x="210.5" y="-92.5" font-family="Helvetica,sans-Serif" font-size="10.00" fill="#000000">charac_feet2</text>
<text text-anchor="middle" x="210.5" y="-81.5" font-family="Helvetica,sans-Serif" font-size="10.00" fill="#000000">eta2_coords</text>
</g>
<!-- Node6 -->
<g id="node6" class="node">
<title>Node6</title>
<polygon fill="#ffffff" stroke="#bfbfbf" points="0,-.5 0,-30.5 143,-30.5 143,-.5 0,-.5"/>
<text text-anchor="start" x="8" y="-18.5" font-family="Helvetica,sans-Serif" font-size="10.00" fill="#000000">class(sll_c_characteristics</text>
<text text-anchor="middle" x="71.5" y="-7.5" font-family="Helvetica,sans-Serif" font-size="10.00" fill="#000000">_2d_base), pointer</text>
</g>
<!-- Node6&#45;&gt;Node1 -->
<g id="edge5" class="edge">
<title>Node6&#45;&gt;Node1</title>
<path fill="none" stroke="#9a32cd" stroke-dasharray="5,2" d="M153.6084,-9.302C189.0422,-10.507 229.3085,-17.4653 260,-38.5 301.1462,-66.7 320.2294,-126.85 327.1993,-155.1625"/>
<polygon fill="#9a32cd" stroke="#9a32cd" points="153.3351,-5.7962 143.2703,-9.1053 153.2019,-12.7949 153.3351,-5.7962"/>
<text text-anchor="middle" x="210.5" y="-41.5" font-family="Helvetica,sans-Serif" font-size="10.00" fill="#000000"> charac</text>
</g>
</g>
</svg>
