<?xml version="1.0" encoding="UTF-8" standalone="no"?>
<!DOCTYPE svg PUBLIC "-//W3C//DTD SVG 1.1//EN"
 "http://www.w3.org/Graphics/SVG/1.1/DTD/svg11.dtd">
<!-- Generated by graphviz version 2.43.0 (0)
 -->
<!-- Title: sll_t_linear_solver_block Pages: 1 -->
<svg width="590pt" height="249pt"
 viewBox="0.00 0.00 590.00 248.50" xmlns="http://www.w3.org/2000/svg" xmlns:xlink="http://www.w3.org/1999/xlink">
<g id="graph0" class="graph" transform="scale(1 1) rotate(0) translate(4 244.5)">
<title>sll_t_linear_solver_block</title>
<polygon fill="white" stroke="transparent" points="-4,4 -4,-244.5 586,-244.5 586,4 -4,4"/>
<!-- Node1 -->
<g id="node1" class="node">
<title>Node1</title>
<g id="a_node1"><a xlink:title="class for a linear solver_block">
<polygon fill="#bfbfbf" stroke="black" points="477,-67.5 477,-97.5 582,-97.5 582,-67.5 477,-67.5"/>
<text text-anchor="start" x="485" y="-85.5" font-family="Helvetica,sans-Serif" font-size="10.00">sll_t_linear_solver</text>
<text text-anchor="middle" x="529.5" y="-74.5" font-family="Helvetica,sans-Serif" font-size="10.00">_block</text>
</a>
</g>
</g>
<!-- Node2 -->
<g id="node2" class="node">
<title>Node2</title>
<g id="a_node2"><a xlink:href="structsll__m__linear__solver__abstract_1_1sll__t__linear__solver__abstract.html" target="_top" xlink:title="class for abstract linear solver">
<polygon fill="white" stroke="black" points="263,-168.5 263,-198.5 368,-198.5 368,-168.5 263,-168.5"/>
<text text-anchor="start" x="271" y="-186.5" font-family="Helvetica,sans-Serif" font-size="10.00">sll_t_linear_solver</text>
<text text-anchor="middle" x="315.5" y="-175.5" font-family="Helvetica,sans-Serif" font-size="10.00">_abstract</text>
</a>
</g>
</g>
<!-- Node2&#45;&gt;Node1 -->
<g id="edge1" class="edge">
<title>Node2&#45;&gt;Node1</title>
<path fill="none" stroke="midnightblue" d="M360.88,-164.48C389.18,-152.13 426.51,-135.42 459,-119.5 473.12,-112.58 488.57,-104.41 501.32,-97.51"/>
<polygon fill="midnightblue" stroke="midnightblue" points="359.42,-161.3 351.65,-168.5 362.21,-167.72 359.42,-161.3"/>
</g>
<!-- Node3 -->
<g id="node3" class="node">
<title>Node3</title>
<g id="a_node3"><a xlink:title=" ">
<polygon fill="white" stroke="#bfbfbf" points="46,-218 46,-237 95,-237 95,-218 46,-218"/>
<text text-anchor="middle" x="70.5" y="-225" font-family="Helvetica,sans-Serif" font-size="10.00">logical</text>
</a>
</g>
</g>
<!-- Node3&#45;&gt;Node2 -->
<g id="edge2" class="edge">
<title>Node3&#45;&gt;Node2</title>
<path fill="none" stroke="#9a32cd" stroke-dasharray="5,2" d="M105.31,-224.96C140.31,-221.91 196.42,-215.87 244,-205.5 252.64,-203.62 261.75,-201.15 270.44,-198.55"/>
<polygon fill="#9a32cd" stroke="#9a32cd" points="104.83,-221.48 95.16,-225.81 105.42,-228.46 104.83,-221.48"/>
<text text-anchor="middle" x="201.5" y="-232.5" font-family="Helvetica,sans-Serif" font-size="10.00"> is_allocated</text>
<text text-anchor="middle" x="201.5" y="-221.5" font-family="Helvetica,sans-Serif" font-size="10.00">verbose</text>
</g>
<!-- Node4 -->
<g id="node4" class="node">
<title>Node4</title>
<g id="a_node4"><a xlink:title=" ">
<polygon fill="white" stroke="#bfbfbf" points="19,-113 19,-132 122,-132 122,-113 19,-113"/>
<text text-anchor="middle" x="70.5" y="-120" font-family="Helvetica,sans-Serif" font-size="10.00">integer(kind=i32)</text>
</a>
</g>
</g>
<!-- Node4&#45;&gt;Node1 -->
<g id="edge4" class="edge">
<title>Node4&#45;&gt;Node1</title>
<path fill="none" stroke="#9a32cd" stroke-dasharray="5,2" d="M132.27,-117.18C222.92,-109.25 391.94,-94.45 476.92,-87.01"/>
<polygon fill="#9a32cd" stroke="#9a32cd" points="131.81,-113.71 122.15,-118.07 132.42,-120.68 131.81,-113.71"/>
<text text-anchor="middle" x="315.5" y="-141.5" font-family="Helvetica,sans-Serif" font-size="10.00"> arr_n_cols</text>
<text text-anchor="middle" x="315.5" y="-130.5" font-family="Helvetica,sans-Serif" font-size="10.00">arr_n_rows</text>
<text text-anchor="middle" x="315.5" y="-119.5" font-family="Helvetica,sans-Serif" font-size="10.00">n_block_cols</text>
<text text-anchor="middle" x="315.5" y="-108.5" font-family="Helvetica,sans-Serif" font-size="10.00">n_block_rows</text>
</g>
<!-- Node4&#45;&gt;Node2 -->
<g id="edge3" class="edge">
<title>Node4&#45;&gt;Node2</title>
<path fill="none" stroke="#9a32cd" stroke-dasharray="5,2" d="M132.46,-116.95C166.69,-116.27 209.37,-119.6 244,-135.5 254.28,-140.22 253.01,-146.63 262,-153.5 269.09,-158.92 277.26,-164.04 285.01,-168.48"/>
<polygon fill="#9a32cd" stroke="#9a32cd" points="132,-113.47 122.12,-117.28 132.23,-120.46 132,-113.47"/>
<text text-anchor="middle" x="201.5" y="-193.5" font-family="Helvetica,sans-Serif" font-size="10.00"> n_cols</text>
<text text-anchor="middle" x="201.5" y="-182.5" font-family="Helvetica,sans-Serif" font-size="10.00">n_global_cols</text>
<text text-anchor="middle" x="201.5" y="-171.5" font-family="Helvetica,sans-Serif" font-size="10.00">n_global_rows</text>
<text text-anchor="middle" x="201.5" y="-160.5" font-family="Helvetica,sans-Serif" font-size="10.00">n_rows</text>
<text text-anchor="middle" x="201.5" y="-149.5" font-family="Helvetica,sans-Serif" font-size="10.00">n_total_cols</text>
<text text-anchor="middle" x="201.5" y="-138.5" font-family="Helvetica,sans-Serif" font-size="10.00">n_total_rows</text>
</g>
<!-- Node5 -->
<g id="node5" class="node">
<title>Node5</title>
<g id="a_node5"><a xlink:title=" ">
<polygon fill="white" stroke="#bfbfbf" points="271.5,-50 271.5,-69 359.5,-69 359.5,-50 271.5,-50"/>
<text text-anchor="middle" x="315.5" y="-57" font-family="Helvetica,sans-Serif" font-size="10.00">real(kind=f64)</text>
</a>
</g>
</g>
<!-- Node5&#45;&gt;Node1 -->
<g id="edge5" class="edge">
<title>Node5&#45;&gt;Node1</title>
<path fill="none" stroke="#9a32cd" stroke-dasharray="5,2" d="M369.95,-65.3C402.69,-68.85 444.38,-73.37 476.8,-76.89"/>
<polygon fill="#9a32cd" stroke="#9a32cd" points="369.98,-61.78 359.66,-64.18 369.22,-68.74 369.98,-61.78"/>
<text text-anchor="middle" x="423" y="-76.5" font-family="Helvetica,sans-Serif" font-size="10.00"> arr_coeffs</text>
</g>
<!-- Node6 -->
<g id="node6" class="node">
<title>Node6</title>
<g id="a_node6"><a xlink:href="structsll__m__linear__solver__block_1_1jrk__t__linear__solver__pointer.html" target="_top" xlink:title="class that contains a pointer to a linear solver">
<polygon fill="white" stroke="black" points="262,-0.5 262,-30.5 369,-30.5 369,-0.5 262,-0.5"/>
<text text-anchor="start" x="270" y="-18.5" font-family="Helvetica,sans-Serif" font-size="10.00">jrk_t_linear_solver</text>
<text text-anchor="middle" x="315.5" y="-7.5" font-family="Helvetica,sans-Serif" font-size="10.00">_pointer</text>
</a>
</g>
</g>
<!-- Node6&#45;&gt;Node1 -->
<g id="edge6" class="edge">
<title>Node6&#45;&gt;Node1</title>
<path fill="none" stroke="#9a32cd" stroke-dasharray="5,2" d="M378.97,-29.52C404.09,-35.72 433.18,-43.63 459,-52.5 471.43,-56.77 484.75,-62.28 496.38,-67.41"/>
<polygon fill="#9a32cd" stroke="#9a32cd" points="379.73,-26.1 369.19,-27.14 378.07,-32.9 379.73,-26.1"/>
<text text-anchor="middle" x="423" y="-55.5" font-family="Helvetica,sans-Serif" font-size="10.00"> linear_solvers</text>
</g>
<!-- Node7 -->
<g id="node7" class="node">
<title>Node7</title>
<g id="a_node7"><a xlink:title=" ">
<polygon fill="white" stroke="#bfbfbf" points="0,-0.5 0,-30.5 141,-30.5 141,-0.5 0,-0.5"/>
<text text-anchor="start" x="8" y="-18.5" font-family="Helvetica,sans-Serif" font-size="10.00">class(sll_t_linear</text>
<text text-anchor="middle" x="70.5" y="-7.5" font-family="Helvetica,sans-Serif" font-size="10.00">_solver_abstract), pointer</text>
</a>
</g>
</g>
<!-- Node7&#45;&gt;Node6 -->
<g id="edge7" class="edge">
<title>Node7&#45;&gt;Node6</title>
<path fill="none" stroke="#9a32cd" stroke-dasharray="5,2" d="M151.22,-15.5C187.55,-15.5 229.55,-15.5 261.85,-15.5"/>
<polygon fill="#9a32cd" stroke="#9a32cd" points="151.13,-12 141.13,-15.5 151.13,-19 151.13,-12"/>
<text text-anchor="middle" x="201.5" y="-18.5" font-family="Helvetica,sans-Serif" font-size="10.00"> ptr_linear_solver</text>
</g>
</g>
</svg>
