<?xml version="1.0" encoding="UTF-8" standalone="no"?>
<!DOCTYPE svg PUBLIC "-//W3C//DTD SVG 1.1//EN"
 "http://www.w3.org/Graphics/SVG/1.1/DTD/svg11.dtd">
<!-- Generated by graphviz version 2.38.0 (20140413.2041)
 -->
<!-- Title: sll_t_cartesian_topology_6d Pages: 1 -->
<svg width="163pt" height="128pt"
 viewBox="0.00 0.00 163.00 128.00" xmlns="http://www.w3.org/2000/svg" xmlns:xlink="http://www.w3.org/1999/xlink">
<g id="graph0" class="graph" transform="scale(1 1) rotate(0) translate(4 124)">
<title>sll_t_cartesian_topology_6d</title>
<polygon fill="white" stroke="none" points="-4,4 -4,-124 159,-124 159,4 -4,4"/>
<!-- Node1 -->
<g id="node1" class="node"><title>Node1</title>
<polygon fill="#bfbfbf" stroke="black" points="0,-0.5 0,-19.5 137,-19.5 137,-0.5 0,-0.5"/>
<text text-anchor="middle" x="68.5" y="-7.5" font-family="Helvetica,sans-Serif" font-size="10.00">sll_t_cartesian_topology_6d</text>
</g>
<!-- Node2 -->
<g id="node2" class="node"><title>Node2</title>
<polygon fill="white" stroke="#bfbfbf" points="4.5,-100.5 4.5,-119.5 48.5,-119.5 48.5,-100.5 4.5,-100.5"/>
<text text-anchor="middle" x="26.5" y="-107.5" font-family="Helvetica,sans-Serif" font-size="10.00">logical</text>
</g>
<!-- Node2&#45;&gt;Node1 -->
<g id="edge1" class="edge"><title>Node2&#45;&gt;Node1</title>
<path fill="none" stroke="#9a32cd" stroke-dasharray="5,2" d="M31.7246,-90.6409C36.1736,-76.0328 43.1614,-55.2517 51.5,-38 54.5855,-31.6163 58.8355,-24.8663 62.3142,-19.7123"/>
<polygon fill="#9a32cd" stroke="#9a32cd" points="28.3041,-89.8665 28.8371,-100.448 35.0191,-91.8437 28.3041,-89.8665"/>
<text text-anchor="middle" x="70" y="-57.5" font-family="Helvetica,sans-Serif" font-size="10.00"> periodic</text>
</g>
<!-- Node3 -->
<g id="node3" class="node"><title>Node3</title>
<polygon fill="white" stroke="#bfbfbf" points="66,-100.5 66,-119.5 155,-119.5 155,-100.5 66,-100.5"/>
<text text-anchor="middle" x="110.5" y="-107.5" font-family="Helvetica,sans-Serif" font-size="10.00">integer(kind=i32)</text>
</g>
<!-- Node3&#45;&gt;Node1 -->
<g id="edge2" class="edge"><title>Node3&#45;&gt;Node1</title>
<path fill="none" stroke="#9a32cd" stroke-dasharray="5,2" d="M106.567,-90.4364C103.025,-75.7136 97.0526,-54.8781 88.5,-38 85.125,-31.3395 80.125,-24.5895 75.9687,-19.5046"/>
<polygon fill="#9a32cd" stroke="#9a32cd" points="103.187,-91.3543 108.805,-100.337 110.014,-89.8111 103.187,-91.3543"/>
<text text-anchor="middle" x="126.5" y="-74" font-family="Helvetica,sans-Serif" font-size="10.00"> neighbors</text>
<text text-anchor="middle" x="126.5" y="-63" font-family="Helvetica,sans-Serif" font-size="10.00">procs</text>
<text text-anchor="middle" x="126.5" y="-52" font-family="Helvetica,sans-Serif" font-size="10.00">comm</text>
<text text-anchor="middle" x="126.5" y="-41" font-family="Helvetica,sans-Serif" font-size="10.00">coords</text>
</g>
</g>
</svg>
