<?xml version="1.0" encoding="UTF-8" standalone="no"?>
<!DOCTYPE svg PUBLIC "-//W3C//DTD SVG 1.1//EN"
 "http://www.w3.org/Graphics/SVG/1.1/DTD/svg11.dtd">
<!-- Generated by graphviz version 2.40.1 (20161225.0304)
 -->
<!-- Title: sll_t_particle_mesh_coupling_spline_2d Pages: 1 -->
<svg width="490pt" height="438pt"
 viewBox="0.00 0.00 490.09 438.00" xmlns="http://www.w3.org/2000/svg" xmlns:xlink="http://www.w3.org/1999/xlink">
<g id="graph0" class="graph" transform="scale(1 1) rotate(0) translate(4 434)">
<title>sll_t_particle_mesh_coupling_spline_2d</title>
<polygon fill="#ffffff" stroke="transparent" points="-4,4 -4,-434 486.0867,-434 486.0867,4 -4,4"/>
<!-- Node2 -->
<g id="node1" class="node">
<title>Node2</title>
<polygon fill="#bfbfbf" stroke="#000000" points="170,-.5 170,-30.5 285,-30.5 285,-.5 170,-.5"/>
<text text-anchor="start" x="178" y="-18.5" font-family="Helvetica,sans-Serif" font-size="10.00" fill="#000000">sll_t_particle_mesh</text>
<text text-anchor="middle" x="227.5" y="-7.5" font-family="Helvetica,sans-Serif" font-size="10.00" fill="#000000">_coupling_spline_2d</text>
</g>
<!-- Node3 -->
<g id="node2" class="node">
<title>Node3</title>
<g id="a_node2"><a xlink:href="structsll__m__particle__mesh__coupling__base__1d_1_1sll__c__particle__mesh__coupling__1d.html" target="_top" xlink:title="Basic type of a kernel smoother used for PIC simulations. ">
<polygon fill="#ffffff" stroke="#000000" points="97,-178.5 97,-208.5 210,-208.5 210,-178.5 97,-178.5"/>
<text text-anchor="start" x="105" y="-196.5" font-family="Helvetica,sans-Serif" font-size="10.00" fill="#000000">sll_c_particle_mesh</text>
<text text-anchor="middle" x="153.5" y="-185.5" font-family="Helvetica,sans-Serif" font-size="10.00" fill="#000000">_coupling_1d</text>
</a>
</g>
</g>
<!-- Node3&#45;&gt;Node2 -->
<g id="edge1" class="edge">
<title>Node3&#45;&gt;Node2</title>
<path fill="none" stroke="#191970" d="M160.1133,-168.5235C166.7795,-144.7496 177.997,-108.2194 191.5,-78 199.0094,-61.1941 209.7649,-43.0808 217.5625,-30.7029"/>
<polygon fill="#191970" stroke="#191970" points="156.7352,-167.608 157.4602,-178.1779 163.485,-169.4629 156.7352,-167.608"/>
</g>
<!-- Node4 -->
<g id="node3" class="node">
<title>Node4</title>
<polygon fill="#ffffff" stroke="#bfbfbf" points="0,-410.5 0,-429.5 103,-429.5 103,-410.5 0,-410.5"/>
<text text-anchor="middle" x="51.5" y="-417.5" font-family="Helvetica,sans-Serif" font-size="10.00" fill="#000000">integer(kind=i32)</text>
</g>
<!-- Node4&#45;&gt;Node2 -->
<g id="edge4" class="edge">
<title>Node4&#45;&gt;Node2</title>
<path fill="none" stroke="#9a32cd" stroke-dasharray="5,2" d="M37.135,-402.1104C35.2291,-398.9053 33.5676,-395.4746 32.5,-392 10.9617,-321.9009 13.0657,-297.7113 32.5,-227 47.7105,-171.6569 60.5384,-159.0481 98.5,-116 129.8583,-80.44 175.2001,-48.5066 202.9367,-30.601"/>
<polygon fill="#9a32cd" stroke="#9a32cd" points="34.2972,-404.1603 42.8636,-410.3947 40.0547,-400.179 34.2972,-404.1603"/>
<text text-anchor="middle" x="128.5" y="-146.5" font-family="Helvetica,sans-Serif" font-size="10.00" fill="#000000"> n_grid</text>
<text text-anchor="middle" x="128.5" y="-135.5" font-family="Helvetica,sans-Serif" font-size="10.00" fill="#000000">n_span</text>
<text text-anchor="middle" x="128.5" y="-124.5" font-family="Helvetica,sans-Serif" font-size="10.00" fill="#000000">no_particles</text>
</g>
<!-- Node4&#45;&gt;Node3 -->
<g id="edge2" class="edge">
<title>Node4&#45;&gt;Node3</title>
<path fill="none" stroke="#9a32cd" stroke-dasharray="5,2" d="M44.9042,-400.6999C33.4033,-363.1997 14.3426,-279.5702 52.5,-227 58.3329,-218.9639 77.0768,-211.7697 96.86,-206.1273"/>
<polygon fill="#9a32cd" stroke="#9a32cd" points="41.6263,-401.9394 48.0267,-410.3824 48.2884,-399.7908 41.6263,-401.9394"/>
<text text-anchor="middle" x="87" y="-323.5" font-family="Helvetica,sans-Serif" font-size="10.00" fill="#000000"> dim</text>
<text text-anchor="middle" x="87" y="-312.5" font-family="Helvetica,sans-Serif" font-size="10.00" fill="#000000">spline_degree</text>
<text text-anchor="middle" x="87" y="-301.5" font-family="Helvetica,sans-Serif" font-size="10.00" fill="#000000">n_dofs</text>
<text text-anchor="middle" x="87" y="-290.5" font-family="Helvetica,sans-Serif" font-size="10.00" fill="#000000">n_cells</text>
</g>
<!-- Node7 -->
<g id="node6" class="node">
<title>Node7</title>
<g id="a_node6"><a xlink:href="structsll__m__splines__pp_1_1sll__t__spline__pp__1d.html" target="_top" xlink:title="arbitrary degree 1d spline ">
<polygon fill="#ffffff" stroke="#000000" points="228.5,-184 228.5,-203 334.5,-203 334.5,-184 228.5,-184"/>
<text text-anchor="middle" x="281.5" y="-191" font-family="Helvetica,sans-Serif" font-size="10.00" fill="#000000">sll_t_spline_pp_1d</text>
</a>
</g>
</g>
<!-- Node4&#45;&gt;Node7 -->
<g id="edge8" class="edge">
<title>Node4&#45;&gt;Node7</title>
<path fill="none" stroke="#9a32cd" stroke-dasharray="5,2" d="M104.8755,-406.0364C111.2621,-402.3886 117.0745,-397.7917 121.5,-392 166.3185,-333.3452 91.234,-281.9723 140.5,-227 164.5337,-200.1826 184.4746,-217.3674 219.5,-209 227.3778,-207.118 235.8043,-205.049 243.8259,-203.0526"/>
<polygon fill="#9a32cd" stroke="#9a32cd" points="103.3235,-402.8992 95.8869,-410.4456 106.4064,-409.1838 103.3235,-402.8992"/>
<text text-anchor="middle" x="191.5" y="-323.5" font-family="Helvetica,sans-Serif" font-size="10.00" fill="#000000"> n_coeffs</text>
<text text-anchor="middle" x="191.5" y="-312.5" font-family="Helvetica,sans-Serif" font-size="10.00" fill="#000000">degree</text>
<text text-anchor="middle" x="191.5" y="-301.5" font-family="Helvetica,sans-Serif" font-size="10.00" fill="#000000">boundary_conditions</text>
<text text-anchor="middle" x="191.5" y="-290.5" font-family="Helvetica,sans-Serif" font-size="10.00" fill="#000000">n_cells</text>
</g>
<!-- Node5 -->
<g id="node4" class="node">
<title>Node5</title>
<polygon fill="#ffffff" stroke="#bfbfbf" points="287.5,-410.5 287.5,-429.5 375.5,-429.5 375.5,-410.5 287.5,-410.5"/>
<text text-anchor="middle" x="331.5" y="-417.5" font-family="Helvetica,sans-Serif" font-size="10.00" fill="#000000">real(kind=f64)</text>
</g>
<!-- Node5&#45;&gt;Node2 -->
<g id="edge5" class="edge">
<title>Node5&#45;&gt;Node2</title>
<path fill="none" stroke="#9a32cd" stroke-dasharray="5,2" d="M385.6007,-414.3419C414.4004,-410.0933 445.6718,-403.0637 454.5,-392 500.239,-334.6788 480.5373,-295.5553 454.5,-227 416.9418,-128.1106 380.812,-112.8843 296.5,-49 287.0538,-41.8425 275.836,-35.6127 265.2201,-30.5307"/>
<polygon fill="#9a32cd" stroke="#9a32cd" points="384.984,-410.8938 375.5577,-415.7308 385.943,-417.8278 384.984,-410.8938"/>
<text text-anchor="middle" x="448" y="-152" font-family="Helvetica,sans-Serif" font-size="10.00" fill="#000000"> spline_val</text>
<text text-anchor="middle" x="448" y="-141" font-family="Helvetica,sans-Serif" font-size="10.00" fill="#000000">scaling</text>
<text text-anchor="middle" x="448" y="-130" font-family="Helvetica,sans-Serif" font-size="10.00" fill="#000000">domain2</text>
<text text-anchor="middle" x="448" y="-119" font-family="Helvetica,sans-Serif" font-size="10.00" fill="#000000">delta_x2</text>
</g>
<!-- Node5&#45;&gt;Node3 -->
<g id="edge3" class="edge">
<title>Node5&#45;&gt;Node3</title>
<path fill="none" stroke="#9a32cd" stroke-dasharray="5,2" d="M281.3784,-405.7384C275.2668,-402.1317 269.707,-397.6256 265.5,-392 221.2916,-332.884 292.3311,-284.867 246.5,-227 241.2791,-220.408 226.4267,-213.9537 210.0821,-208.4978"/>
<polygon fill="#9a32cd" stroke="#9a32cd" points="280.1292,-409.0282 290.6343,-410.4047 283.2805,-402.7776 280.1292,-409.0282"/>
<text text-anchor="middle" x="285.5" y="-312.5" font-family="Helvetica,sans-Serif" font-size="10.00" fill="#000000"> domain</text>
<text text-anchor="middle" x="285.5" y="-301.5" font-family="Helvetica,sans-Serif" font-size="10.00" fill="#000000">delta_x</text>
</g>
<!-- Node5&#45;&gt;Node7 -->
<g id="edge9" class="edge">
<title>Node5&#45;&gt;Node7</title>
<path fill="none" stroke="#9a32cd" stroke-dasharray="5,2" d="M330.6854,-400.2719C328.6914,-357.5568 322.7301,-257.8736 309.5,-227 305.6187,-217.9426 298.4589,-209.4454 292.3512,-203.275"/>
<polygon fill="#9a32cd" stroke="#9a32cd" points="327.189,-400.433 331.1273,-410.2687 334.1822,-400.1238 327.189,-400.433"/>
<text text-anchor="middle" x="390.5" y="-384" font-family="Helvetica,sans-Serif" font-size="10.00" fill="#000000"> poly_coeffs_fd</text>
<text text-anchor="start" x="329.5" y="-373" font-family="Helvetica,sans-Serif" font-size="10.00" fill="#000000">poly_coeffs_fd_boundary</text>
<text text-anchor="middle" x="390.5" y="-362" font-family="Helvetica,sans-Serif" font-size="10.00" fill="#000000">_left</text>
<text text-anchor="middle" x="390.5" y="-351" font-family="Helvetica,sans-Serif" font-size="10.00" fill="#000000">scratch_b</text>
<text text-anchor="middle" x="390.5" y="-340" font-family="Helvetica,sans-Serif" font-size="10.00" fill="#000000">poly_coeffs_fpa</text>
<text text-anchor="middle" x="390.5" y="-329" font-family="Helvetica,sans-Serif" font-size="10.00" fill="#000000">scratch_p</text>
<text text-anchor="start" x="329.5" y="-318" font-family="Helvetica,sans-Serif" font-size="10.00" fill="#000000">poly_coeffs_fd</text>
<text text-anchor="middle" x="390.5" y="-307" font-family="Helvetica,sans-Serif" font-size="10.00" fill="#000000">_boundary_right</text>
<text text-anchor="start" x="329.5" y="-296" font-family="Helvetica,sans-Serif" font-size="10.00" fill="#000000">poly_coeffs_boundary</text>
<text text-anchor="middle" x="390.5" y="-285" font-family="Helvetica,sans-Serif" font-size="10.00" fill="#000000">_right</text>
<text text-anchor="middle" x="390.5" y="-274" font-family="Helvetica,sans-Serif" font-size="10.00" fill="#000000">poly_coeffs</text>
<text text-anchor="start" x="329.5" y="-263" font-family="Helvetica,sans-Serif" font-size="10.00" fill="#000000">poly_coeffs_boundary</text>
<text text-anchor="middle" x="390.5" y="-252" font-family="Helvetica,sans-Serif" font-size="10.00" fill="#000000">_left</text>
<text text-anchor="middle" x="390.5" y="-241" font-family="Helvetica,sans-Serif" font-size="10.00" fill="#000000">poly_coeffs_fp</text>
<text text-anchor="middle" x="390.5" y="-230" font-family="Helvetica,sans-Serif" font-size="10.00" fill="#000000">...</text>
</g>
<!-- Node6 -->
<g id="node5" class="node">
<title>Node6</title>
<g id="a_node5"><a xlink:href="structsll__m__splines__pp_1_1sll__t__spline__pp__2d.html" target="_top" xlink:title="arbitrary degree 2d spline ">
<polygon fill="#ffffff" stroke="#000000" points="200.5,-78.5 200.5,-97.5 306.5,-97.5 306.5,-78.5 200.5,-78.5"/>
<text text-anchor="middle" x="253.5" y="-85.5" font-family="Helvetica,sans-Serif" font-size="10.00" fill="#000000">sll_t_spline_pp_2d</text>
</a>
</g>
</g>
<!-- Node6&#45;&gt;Node2 -->
<g id="edge6" class="edge">
<title>Node6&#45;&gt;Node2</title>
<path fill="none" stroke="#9a32cd" stroke-dasharray="5,2" d="M246.5944,-68.7439C242.3198,-56.8244 236.909,-41.7366 232.9396,-30.668"/>
<polygon fill="#9a32cd" stroke="#9a32cd" points="243.3232,-69.9908 249.9935,-78.2223 249.9123,-67.6278 243.3232,-69.9908"/>
<text text-anchor="middle" x="267.5" y="-52" font-family="Helvetica,sans-Serif" font-size="10.00" fill="#000000"> spline_pp</text>
</g>
<!-- Node7&#45;&gt;Node6 -->
<g id="edge7" class="edge">
<title>Node7&#45;&gt;Node6</title>
<path fill="none" stroke="#9a32cd" stroke-dasharray="5,2" d="M276.2979,-173.8992C270.293,-151.2735 260.6572,-114.9671 256.0777,-97.7126"/>
<polygon fill="#9a32cd" stroke="#9a32cd" points="272.9678,-174.9964 278.916,-183.7639 279.7336,-173.2007 272.9678,-174.9964"/>
<text text-anchor="middle" x="291" y="-141" font-family="Helvetica,sans-Serif" font-size="10.00" fill="#000000"> spline1</text>
<text text-anchor="middle" x="291" y="-130" font-family="Helvetica,sans-Serif" font-size="10.00" fill="#000000">spline2</text>
</g>
</g>
</svg>
