<?xml version="1.0" encoding="UTF-8" standalone="no"?>
<!DOCTYPE svg PUBLIC "-//W3C//DTD SVG 1.1//EN"
 "http://www.w3.org/Graphics/SVG/1.1/DTD/svg11.dtd">
<!-- Generated by graphviz version 2.38.0 (20140413.2041)
 -->
<!-- Title: sll_t_fft_derivative Pages: 1 -->
<svg width="104pt" height="139pt"
 viewBox="0.00 0.00 104.00 139.00" xmlns="http://www.w3.org/2000/svg" xmlns:xlink="http://www.w3.org/1999/xlink">
<g id="graph0" class="graph" transform="scale(1 1) rotate(0) translate(4 135)">
<title>sll_t_fft_derivative</title>
<polygon fill="white" stroke="none" points="-4,4 -4,-135 100,-135 100,4 -4,4"/>
<!-- Node1 -->
<g id="node1" class="node"><title>Node1</title>
<polygon fill="#bfbfbf" stroke="black" points="0,-0.5 0,-19.5 96,-19.5 96,-0.5 0,-0.5"/>
<text text-anchor="middle" x="48" y="-7.5" font-family="Helvetica,sans-Serif" font-size="10.00">sll_t_fft_derivative</text>
</g>
<!-- Node2 -->
<g id="node2" class="node"><title>Node2</title>
<polygon fill="white" stroke="#bfbfbf" points="10,-111.5 10,-130.5 86,-130.5 86,-111.5 10,-111.5"/>
<text text-anchor="middle" x="48" y="-118.5" font-family="Helvetica,sans-Serif" font-size="10.00">real(kind=f64)</text>
</g>
<!-- Node2&#45;&gt;Node1 -->
<g id="edge1" class="edge"><title>Node2&#45;&gt;Node1</title>
<path fill="none" stroke="#9a32cd" stroke-dasharray="5,2" d="M48,-101.193C48,-77.2756 48,-36.9893 48,-19.5133"/>
<polygon fill="#9a32cd" stroke="#9a32cd" points="44.5001,-101.447 48,-111.447 51.5001,-101.447 44.5001,-101.447"/>
<text text-anchor="middle" x="57.5" y="-85" font-family="Helvetica,sans-Serif" font-size="10.00"> kex</text>
<text text-anchor="middle" x="57.5" y="-74" font-family="Helvetica,sans-Serif" font-size="10.00">key</text>
<text text-anchor="middle" x="57.5" y="-63" font-family="Helvetica,sans-Serif" font-size="10.00">kpot</text>
<text text-anchor="middle" x="57.5" y="-52" font-family="Helvetica,sans-Serif" font-size="10.00">kx</text>
<text text-anchor="middle" x="57.5" y="-41" font-family="Helvetica,sans-Serif" font-size="10.00">ky</text>
</g>
</g>
</svg>
