<?xml version="1.0" encoding="UTF-8" standalone="no"?>
<!DOCTYPE svg PUBLIC "-//W3C//DTD SVG 1.1//EN"
 "http://www.w3.org/Graphics/SVG/1.1/DTD/svg11.dtd">
<!-- Generated by graphviz version 2.40.1 (20161225.0304)
 -->
<!-- Title: sll_t_linear_operator_poisson_1d Pages: 1 -->
<svg width="404pt" height="407pt"
 viewBox="0.00 0.00 403.68 407.00" xmlns="http://www.w3.org/2000/svg" xmlns:xlink="http://www.w3.org/1999/xlink">
<g id="graph0" class="graph" transform="scale(1 1) rotate(0) translate(4 403)">
<title>sll_t_linear_operator_poisson_1d</title>
<polygon fill="#ffffff" stroke="transparent" points="-4,4 -4,-403 399.679,-403 399.679,4 -4,4"/>
<!-- Node2 -->
<g id="node1" class="node">
<title>Node2</title>
<polygon fill="#bfbfbf" stroke="#000000" points="191.679,-.5 191.679,-30.5 307.679,-30.5 307.679,-.5 191.679,-.5"/>
<text text-anchor="start" x="199.679" y="-18.5" font-family="Helvetica,sans-Serif" font-size="10.00" fill="#000000">sll_t_linear_operator</text>
<text text-anchor="middle" x="249.679" y="-7.5" font-family="Helvetica,sans-Serif" font-size="10.00" fill="#000000">_poisson_1d</text>
</g>
<!-- Node3 -->
<g id="node2" class="node">
<title>Node3</title>
<g id="a_node2"><a xlink:href="structsll__m__linear__operator__abstract_1_1sll__t__linear__operator__abstract.html" target="_top" xlink:title="class for abstract linear operator ">
<polygon fill="#ffffff" stroke="#000000" points="16.679,-213.5 16.679,-243.5 132.679,-243.5 132.679,-213.5 16.679,-213.5"/>
<text text-anchor="start" x="24.679" y="-231.5" font-family="Helvetica,sans-Serif" font-size="10.00" fill="#000000">sll_t_linear_operator</text>
<text text-anchor="middle" x="74.679" y="-220.5" font-family="Helvetica,sans-Serif" font-size="10.00" fill="#000000">_abstract</text>
</a>
</g>
</g>
<!-- Node3&#45;&gt;Node2 -->
<g id="edge1" class="edge">
<title>Node3&#45;&gt;Node2</title>
<path fill="none" stroke="#191970" d="M41.1882,-207.537C16.3455,-189.1977 -10.7541,-161.4309 4.679,-135 43.5755,-68.3853 132.2654,-38.1537 191.5708,-24.9799"/>
<polygon fill="#191970" stroke="#191970" points="39.2743,-210.4702 49.4619,-213.3794 43.3121,-204.7521 39.2743,-210.4702"/>
</g>
<!-- Node7 -->
<g id="node6" class="node">
<title>Node7</title>
<g id="a_node6"><a xlink:href="structsll__m__matrix__abstract_1_1sll__t__matrix__abstract.html" target="_top" xlink:title="abstract class for matrix ">
<polygon fill="#ffffff" stroke="#000000" points="14.179,-135.5 14.179,-154.5 133.179,-154.5 133.179,-135.5 14.179,-135.5"/>
<text text-anchor="middle" x="73.679" y="-142.5" font-family="Helvetica,sans-Serif" font-size="10.00" fill="#000000">sll_t_matrix_abstract</text>
</a>
</g>
</g>
<!-- Node3&#45;&gt;Node7 -->
<g id="edge6" class="edge">
<title>Node3&#45;&gt;Node7</title>
<path fill="none" stroke="#191970" d="M74.3749,-203.1022C74.1782,-186.6775 73.9334,-166.2426 73.7928,-154.5023"/>
<polygon fill="#191970" stroke="#191970" points="70.876,-203.2275 74.4956,-213.1848 77.8755,-203.1436 70.876,-203.2275"/>
</g>
<!-- Node4 -->
<g id="node3" class="node">
<title>Node4</title>
<polygon fill="#ffffff" stroke="#bfbfbf" points="99.179,-379.5 99.179,-398.5 148.179,-398.5 148.179,-379.5 99.179,-379.5"/>
<text text-anchor="middle" x="123.679" y="-386.5" font-family="Helvetica,sans-Serif" font-size="10.00" fill="#000000">logical</text>
</g>
<!-- Node4&#45;&gt;Node3 -->
<g id="edge2" class="edge">
<title>Node4&#45;&gt;Node3</title>
<path fill="none" stroke="#9a32cd" stroke-dasharray="5,2" d="M93.8826,-373.637C89.447,-370.0771 85.4433,-365.8734 82.679,-361 61.3035,-323.3149 67.0088,-269.5217 71.548,-243.6029"/>
<polygon fill="#9a32cd" stroke="#9a32cd" points="91.9418,-376.5502 102.1586,-379.3553 95.921,-370.7912 91.9418,-376.5502"/>
<text text-anchor="middle" x="113.679" y="-309" font-family="Helvetica,sans-Serif" font-size="10.00" fill="#000000"> is_allocated</text>
</g>
<!-- Node6 -->
<g id="node5" class="node">
<title>Node6</title>
<g id="a_node5"><a xlink:href="structsll__m__matrix__csr_1_1sll__t__matrix__csr.html" target="_top" xlink:title="class for a csr matrix ">
<polygon fill="#ffffff" stroke="#000000" points="114.679,-78.5 114.679,-97.5 208.679,-97.5 208.679,-78.5 114.679,-78.5"/>
<text text-anchor="middle" x="161.679" y="-85.5" font-family="Helvetica,sans-Serif" font-size="10.00" fill="#000000">sll_t_matrix_csr</text>
</a>
</g>
</g>
<!-- Node4&#45;&gt;Node6 -->
<g id="edge7" class="edge">
<title>Node4&#45;&gt;Node6</title>
<path fill="none" stroke="#9a32cd" stroke-dasharray="5,2" d="M139.156,-371.4944C141.3662,-368.196 143.3404,-364.6351 144.679,-361 180.4535,-263.8547 167.6273,-134.1917 163.0312,-97.8384"/>
<polygon fill="#9a32cd" stroke="#9a32cd" points="136.3378,-369.4178 133.0287,-379.4826 141.8921,-373.6781 136.3378,-369.4178"/>
<text text-anchor="middle" x="210.679" y="-187" font-family="Helvetica,sans-Serif" font-size="10.00" fill="#000000"> is_allocated_jaa</text>
<text text-anchor="middle" x="210.679" y="-176" font-family="Helvetica,sans-Serif" font-size="10.00" fill="#000000">is_allocated_ia</text>
</g>
<!-- Node5 -->
<g id="node4" class="node">
<title>Node5</title>
<polygon fill="#ffffff" stroke="#bfbfbf" points="174.179,-379.5 174.179,-398.5 277.179,-398.5 277.179,-379.5 174.179,-379.5"/>
<text text-anchor="middle" x="225.679" y="-386.5" font-family="Helvetica,sans-Serif" font-size="10.00" fill="#000000">integer(kind=i32)</text>
</g>
<!-- Node5&#45;&gt;Node2 -->
<g id="edge8" class="edge">
<title>Node5&#45;&gt;Node2</title>
<path fill="none" stroke="#9a32cd" stroke-dasharray="5,2" d="M254.3284,-373.6286C258.7724,-370.0469 262.8271,-365.8378 265.679,-361 295.7513,-309.9875 279.679,-287.7167 279.679,-228.5 279.679,-228.5 279.679,-228.5 279.679,-88 279.679,-66.8862 268.6812,-44.7619 260.0033,-30.591"/>
<polygon fill="#9a32cd" stroke="#9a32cd" points="252.2703,-370.797 246.0847,-379.3986 256.2843,-376.5318 252.2703,-370.797"/>
<text text-anchor="middle" x="297.679" y="-142.5" font-family="Helvetica,sans-Serif" font-size="10.00" fill="#000000"> n_dofs</text>
</g>
<!-- Node5&#45;&gt;Node3 -->
<g id="edge3" class="edge">
<title>Node5&#45;&gt;Node3</title>
<path fill="none" stroke="#9a32cd" stroke-dasharray="5,2" d="M203.8418,-372.9088C199.8037,-369.2899 195.8623,-365.2515 192.679,-361 163.8198,-322.457 182.609,-296.164 148.679,-262 141.1265,-254.3954 131.5363,-248.3535 121.784,-243.6167"/>
<polygon fill="#9a32cd" stroke="#9a32cd" points="201.6189,-375.6123 211.5525,-379.2967 206.0846,-370.2218 201.6189,-375.6123"/>
<text text-anchor="middle" x="229.179" y="-353" font-family="Helvetica,sans-Serif" font-size="10.00" fill="#000000"> n_global_rows</text>
<text text-anchor="middle" x="229.179" y="-342" font-family="Helvetica,sans-Serif" font-size="10.00" fill="#000000">id_rows</text>
<text text-anchor="middle" x="229.179" y="-331" font-family="Helvetica,sans-Serif" font-size="10.00" fill="#000000">id_cols</text>
<text text-anchor="middle" x="229.179" y="-320" font-family="Helvetica,sans-Serif" font-size="10.00" fill="#000000">n_dof</text>
<text text-anchor="middle" x="229.179" y="-309" font-family="Helvetica,sans-Serif" font-size="10.00" fill="#000000">n_cols</text>
<text text-anchor="middle" x="229.179" y="-298" font-family="Helvetica,sans-Serif" font-size="10.00" fill="#000000">n_block_rows</text>
<text text-anchor="middle" x="229.179" y="-287" font-family="Helvetica,sans-Serif" font-size="10.00" fill="#000000">n_global_cols</text>
<text text-anchor="middle" x="229.179" y="-276" font-family="Helvetica,sans-Serif" font-size="10.00" fill="#000000">n_rows</text>
<text text-anchor="middle" x="229.179" y="-265" font-family="Helvetica,sans-Serif" font-size="10.00" fill="#000000">n_block_cols</text>
</g>
<!-- Node6&#45;&gt;Node2 -->
<g id="edge4" class="edge">
<title>Node6&#45;&gt;Node2</title>
<path fill="none" stroke="#9a32cd" stroke-dasharray="5,2" d="M181.6246,-71.5676C196.5282,-59.2891 216.7475,-42.6311 231.2682,-30.668"/>
<polygon fill="#9a32cd" stroke="#9a32cd" points="179.0396,-69.1624 173.5471,-78.2223 183.4907,-74.565 179.0396,-69.1624"/>
<text text-anchor="middle" x="223.679" y="-52" font-family="Helvetica,sans-Serif" font-size="10.00" fill="#000000"> mass</text>
</g>
<!-- Node7&#45;&gt;Node6 -->
<g id="edge5" class="edge">
<title>Node7&#45;&gt;Node6</title>
<path fill="none" stroke="#191970" d="M97.3108,-129.6931C113.1218,-119.4518 133.4353,-106.2942 146.9715,-97.5265"/>
<polygon fill="#191970" stroke="#191970" points="95.0974,-126.9566 88.607,-135.3307 98.903,-132.8318 95.0974,-126.9566"/>
</g>
<!-- Node8 -->
<g id="node7" class="node">
<title>Node8</title>
<polygon fill="#ffffff" stroke="#bfbfbf" points="307.679,-78.5 307.679,-97.5 395.679,-97.5 395.679,-78.5 307.679,-78.5"/>
<text text-anchor="middle" x="351.679" y="-85.5" font-family="Helvetica,sans-Serif" font-size="10.00" fill="#000000">real(kind=f64)</text>
</g>
<!-- Node8&#45;&gt;Node2 -->
<g id="edge9" class="edge">
<title>Node8&#45;&gt;Node2</title>
<path fill="none" stroke="#9a32cd" stroke-dasharray="5,2" d="M329.5224,-72.2515C312.1641,-59.9134 288.1642,-42.8547 271.0189,-30.668"/>
<polygon fill="#9a32cd" stroke="#9a32cd" points="327.7443,-75.2816 337.9228,-78.2223 331.7997,-69.576 327.7443,-75.2816"/>
<text text-anchor="middle" x="329.679" y="-52" font-family="Helvetica,sans-Serif" font-size="10.00" fill="#000000"> delta_x</text>
</g>
</g>
</svg>
