<?xml version="1.0" encoding="UTF-8" standalone="no"?>
<!DOCTYPE svg PUBLIC "-//W3C//DTD SVG 1.1//EN"
 "http://www.w3.org/Graphics/SVG/1.1/DTD/svg11.dtd">
<!-- Generated by graphviz version 2.43.0 (0)
 -->
<!-- Title: sll_t_particle_group_6d Pages: 1 -->
<svg width="566pt" height="274pt"
 viewBox="0.00 0.00 565.50 274.00" xmlns="http://www.w3.org/2000/svg" xmlns:xlink="http://www.w3.org/1999/xlink">
<g id="graph0" class="graph" transform="scale(1 1) rotate(0) translate(4 270)">
<title>sll_t_particle_group_6d</title>
<polygon fill="white" stroke="transparent" points="-4,4 -4,-270 561.5,-270 561.5,4 -4,4"/>
<!-- Node1 -->
<g id="node1" class="node">
<title>Node1</title>
<g id="a_node1"><a xlink:title=" ">
<polygon fill="#bfbfbf" stroke="black" points="273.5,-0.5 273.5,-19.5 402.5,-19.5 402.5,-0.5 273.5,-0.5"/>
<text text-anchor="middle" x="338" y="-7.5" font-family="Helvetica,sans-Serif" font-size="10.00">sll_t_particle_group_6d</text>
</a>
</g>
</g>
<!-- Node2 -->
<g id="node2" class="node">
<title>Node2</title>
<g id="a_node2"><a xlink:href="structsll__m__particle__representations_1_1sll__t__particle__6d.html" target="_top" xlink:title="Type for a single particle in a 3d volume.">
<polygon fill="white" stroke="black" points="229,-79.5 229,-98.5 325,-98.5 325,-79.5 229,-79.5"/>
<text text-anchor="middle" x="277" y="-86.5" font-family="Helvetica,sans-Serif" font-size="10.00">sll_t_particle_6d</text>
</a>
</g>
</g>
<!-- Node2&#45;&gt;Node1 -->
<g id="edge1" class="edge">
<title>Node2&#45;&gt;Node1</title>
<path fill="none" stroke="#9a32cd" stroke-dasharray="5,2" d="M290.02,-71.56C302.56,-55.73 321.05,-32.39 331.02,-19.81"/>
<polygon fill="#9a32cd" stroke="#9a32cd" points="287.23,-69.45 283.76,-79.47 292.71,-73.8 287.23,-69.45"/>
<text text-anchor="middle" x="332" y="-41" font-family="Helvetica,sans-Serif" font-size="10.00"> p_list</text>
</g>
<!-- Node3 -->
<g id="node3" class="node">
<title>Node3</title>
<g id="a_node3"><a xlink:title=" ">
<polygon fill="white" stroke="#bfbfbf" points="0,-246.5 0,-265.5 88,-265.5 88,-246.5 0,-246.5"/>
<text text-anchor="middle" x="44" y="-253.5" font-family="Helvetica,sans-Serif" font-size="10.00">real(kind=f32)</text>
</a>
</g>
</g>
<!-- Node3&#45;&gt;Node2 -->
<g id="edge2" class="edge">
<title>Node3&#45;&gt;Node2</title>
<path fill="none" stroke="#9a32cd" stroke-dasharray="5,2" d="M58.27,-238.7C81.82,-212.61 131.31,-161.12 182,-129 203.08,-115.64 229.52,-105.23 249.15,-98.54"/>
<polygon fill="#9a32cd" stroke="#9a32cd" points="55.6,-236.43 51.56,-246.23 60.83,-241.09 55.6,-236.43"/>
<text text-anchor="middle" x="190" y="-192.5" font-family="Helvetica,sans-Serif" font-size="10.00"> dx</text>
<text text-anchor="middle" x="190" y="-181.5" font-family="Helvetica,sans-Serif" font-size="10.00">dy</text>
<text text-anchor="middle" x="190" y="-170.5" font-family="Helvetica,sans-Serif" font-size="10.00">dz</text>
<text text-anchor="middle" x="190" y="-159.5" font-family="Helvetica,sans-Serif" font-size="10.00">q</text>
</g>
<!-- Node4 -->
<g id="node4" class="node">
<title>Node4</title>
<g id="a_node4"><a xlink:title=" ">
<polygon fill="white" stroke="#bfbfbf" points="161.5,-246.5 161.5,-265.5 264.5,-265.5 264.5,-246.5 161.5,-246.5"/>
<text text-anchor="middle" x="213" y="-253.5" font-family="Helvetica,sans-Serif" font-size="10.00">integer(kind=i32)</text>
</a>
</g>
</g>
<!-- Node4&#45;&gt;Node1 -->
<g id="edge9" class="edge">
<title>Node4&#45;&gt;Node1</title>
<path fill="none" stroke="#9a32cd" stroke-dasharray="5,2" d="M190.14,-240.86C141.15,-208.83 34.39,-128.74 84,-67 107.34,-37.96 206.11,-23.09 273.38,-16.19"/>
<polygon fill="#9a32cd" stroke="#9a32cd" points="188.53,-243.98 198.83,-246.43 192.31,-238.09 188.53,-243.98"/>
<text text-anchor="middle" x="152" y="-103" font-family="Helvetica,sans-Serif" font-size="10.00"> num_postprocess_particles</text>
<text text-anchor="middle" x="152" y="-92" font-family="Helvetica,sans-Serif" font-size="10.00">number_particles</text>
<text text-anchor="middle" x="152" y="-81" font-family="Helvetica,sans-Serif" font-size="10.00">guard_list_size</text>
<text text-anchor="middle" x="152" y="-70" font-family="Helvetica,sans-Serif" font-size="10.00">active_particles</text>
</g>
<!-- Node4&#45;&gt;Node2 -->
<g id="edge3" class="edge">
<title>Node4&#45;&gt;Node2</title>
<path fill="none" stroke="#9a32cd" stroke-dasharray="5,2" d="M207.88,-236.36C201.86,-210.44 194.95,-162.88 214,-129 222.13,-114.54 238.07,-104.75 251.87,-98.59"/>
<polygon fill="#9a32cd" stroke="#9a32cd" points="204.55,-237.49 210.4,-246.33 211.34,-235.78 204.55,-237.49"/>
<text text-anchor="middle" x="220" y="-176" font-family="Helvetica,sans-Serif" font-size="10.00"> ic</text>
</g>
<!-- Node6 -->
<g id="node6" class="node">
<title>Node6</title>
<g id="a_node6"><a xlink:href="structsll__m__cartesian__meshes_1_1sll__t__cartesian__mesh__3d.html" target="_top" xlink:title="3D cartesian mesh">
<polygon fill="white" stroke="black" points="420.5,-79.5 420.5,-98.5 557.5,-98.5 557.5,-79.5 420.5,-79.5"/>
<text text-anchor="middle" x="489" y="-86.5" font-family="Helvetica,sans-Serif" font-size="10.00">sll_t_cartesian_mesh_3d</text>
</a>
</g>
</g>
<!-- Node4&#45;&gt;Node6 -->
<g id="edge7" class="edge">
<title>Node4&#45;&gt;Node6</title>
<path fill="none" stroke="#9a32cd" stroke-dasharray="5,2" d="M246.04,-241.86C252.87,-238.1 259.61,-233.49 265,-228 299.38,-192.95 274.98,-158.8 314,-129 347.11,-103.71 365.34,-120.11 406,-111 422.82,-107.23 441.44,-102.56 456.78,-98.59"/>
<polygon fill="#9a32cd" stroke="#9a32cd" points="244.19,-238.87 236.8,-246.47 247.31,-245.13 244.19,-238.87"/>
<text text-anchor="middle" x="343.5" y="-187" font-family="Helvetica,sans-Serif" font-size="10.00"> num_cells1</text>
<text text-anchor="middle" x="343.5" y="-176" font-family="Helvetica,sans-Serif" font-size="10.00">num_cells2</text>
<text text-anchor="middle" x="343.5" y="-165" font-family="Helvetica,sans-Serif" font-size="10.00">num_cells3</text>
</g>
<!-- Node5 -->
<g id="node5" class="node">
<title>Node5</title>
<g id="a_node5"><a xlink:title=" ">
<polygon fill="white" stroke="#bfbfbf" points="317,-246.5 317,-265.5 405,-265.5 405,-246.5 317,-246.5"/>
<text text-anchor="middle" x="361" y="-253.5" font-family="Helvetica,sans-Serif" font-size="10.00">real(kind=f64)</text>
</a>
</g>
</g>
<!-- Node5&#45;&gt;Node1 -->
<g id="edge10" class="edge">
<title>Node5&#45;&gt;Node1</title>
<path fill="none" stroke="#9a32cd" stroke-dasharray="5,2" d="M361.4,-236.12C361.85,-198.2 361.11,-110.19 347,-38 345.79,-31.79 343.54,-25.04 341.59,-19.84"/>
<polygon fill="#9a32cd" stroke="#9a32cd" points="357.9,-236.16 361.24,-246.21 364.9,-236.27 357.9,-236.16"/>
<text text-anchor="middle" x="377.5" y="-86.5" font-family="Helvetica,sans-Serif" font-size="10.00"> qoverm</text>
</g>
<!-- Node5&#45;&gt;Node2 -->
<g id="edge4" class="edge">
<title>Node5&#45;&gt;Node2</title>
<path fill="none" stroke="#9a32cd" stroke-dasharray="5,2" d="M306.83,-248.36C282.04,-244.09 256.51,-237.53 249,-228 221.78,-193.43 235.52,-170.88 249,-129 252.78,-117.26 261.55,-106.06 268.27,-98.7"/>
<polygon fill="#9a32cd" stroke="#9a32cd" points="306.56,-251.86 316.99,-249.99 307.67,-244.95 306.56,-251.86"/>
<text text-anchor="middle" x="257" y="-187" font-family="Helvetica,sans-Serif" font-size="10.00"> vx</text>
<text text-anchor="middle" x="257" y="-176" font-family="Helvetica,sans-Serif" font-size="10.00">vy</text>
<text text-anchor="middle" x="257" y="-165" font-family="Helvetica,sans-Serif" font-size="10.00">vz</text>
</g>
<!-- Node5&#45;&gt;Node6 -->
<g id="edge8" class="edge">
<title>Node5&#45;&gt;Node6</title>
<path fill="none" stroke="#9a32cd" stroke-dasharray="5,2" d="M370.48,-237.16C388.42,-203.47 425.91,-133.45 430,-129 441.89,-116.08 458.91,-105.42 471.61,-98.54"/>
<polygon fill="#9a32cd" stroke="#9a32cd" points="367.2,-235.86 365.6,-246.33 373.38,-239.15 367.2,-235.86"/>
<text text-anchor="middle" x="457.5" y="-220" font-family="Helvetica,sans-Serif" font-size="10.00"> delta_eta1</text>
<text text-anchor="middle" x="457.5" y="-209" font-family="Helvetica,sans-Serif" font-size="10.00">eta2_max</text>
<text text-anchor="middle" x="457.5" y="-198" font-family="Helvetica,sans-Serif" font-size="10.00">delta_eta2</text>
<text text-anchor="middle" x="457.5" y="-187" font-family="Helvetica,sans-Serif" font-size="10.00">eta3_max</text>
<text text-anchor="middle" x="457.5" y="-176" font-family="Helvetica,sans-Serif" font-size="10.00">delta_eta3</text>
<text text-anchor="middle" x="457.5" y="-165" font-family="Helvetica,sans-Serif" font-size="10.00">eta1_min</text>
<text text-anchor="middle" x="457.5" y="-154" font-family="Helvetica,sans-Serif" font-size="10.00">eta2_min</text>
<text text-anchor="middle" x="457.5" y="-143" font-family="Helvetica,sans-Serif" font-size="10.00">eta3_min</text>
<text text-anchor="middle" x="457.5" y="-132" font-family="Helvetica,sans-Serif" font-size="10.00">eta1_max</text>
</g>
<!-- Node6&#45;&gt;Node1 -->
<g id="edge5" class="edge">
<title>Node6&#45;&gt;Node1</title>
<path fill="none" stroke="#9a32cd" stroke-dasharray="5,2" d="M463.35,-74.92C432.38,-59.13 381.16,-33.01 354.81,-19.57"/>
<polygon fill="#9a32cd" stroke="#9a32cd" points="461.76,-78.04 472.26,-79.47 464.94,-71.8 461.76,-78.04"/>
<text text-anchor="middle" x="424.5" y="-41" font-family="Helvetica,sans-Serif" font-size="10.00"> mesh</text>
</g>
<!-- Node7 -->
<g id="node7" class="node">
<title>Node7</title>
<g id="a_node7"><a xlink:href="structsll__m__meshes__base_1_1sll__c__mesh__3d__base.html" target="_top" xlink:title="3D logical mesh">
<polygon fill="white" stroke="black" points="431,-246.5 431,-265.5 547,-265.5 547,-246.5 431,-246.5"/>
<text text-anchor="middle" x="489" y="-253.5" font-family="Helvetica,sans-Serif" font-size="10.00">sll_c_mesh_3d_base</text>
</a>
</g>
</g>
<!-- Node7&#45;&gt;Node6 -->
<g id="edge6" class="edge">
<title>Node7&#45;&gt;Node6</title>
<path fill="none" stroke="midnightblue" d="M489,-236.04C489,-200.25 489,-124.03 489,-98.52"/>
<polygon fill="midnightblue" stroke="midnightblue" points="485.5,-236.13 489,-246.13 492.5,-236.13 485.5,-236.13"/>
</g>
</g>
</svg>
