<?xml version="1.0" encoding="UTF-8" standalone="no"?>
<!DOCTYPE svg PUBLIC "-//W3C//DTD SVG 1.1//EN"
 "http://www.w3.org/Graphics/SVG/1.1/DTD/svg11.dtd">
<!-- Generated by graphviz version 2.38.0 (20140413.2041)
 -->
<!-- Title: sll_c_spline_matrix Pages: 1 -->
<svg width="242pt" height="137pt"
 viewBox="0.00 0.00 242.00 137.00" xmlns="http://www.w3.org/2000/svg" xmlns:xlink="http://www.w3.org/1999/xlink">
<g id="graph0" class="graph" transform="scale(1 1) rotate(0) translate(4 133)">
<title>sll_c_spline_matrix</title>
<polygon fill="white" stroke="none" points="-4,4 -4,-133 238,-133 238,4 -4,4"/>
<!-- Node1 -->
<g id="node1" class="node"><title>Node1</title>
<polygon fill="#bfbfbf" stroke="black" points="0,-55 0,-74 100,-74 100,-55 0,-55"/>
<text text-anchor="middle" x="50" y="-62" font-family="Helvetica,sans-Serif" font-size="10.00">sll_c_spline_matrix</text>
</g>
<!-- Node2 -->
<g id="node2" class="node"><title>Node2</title>
<g id="a_node2"><a xlink:href="structsll__m__spline__matrix__banded_1_1sll__t__spline__matrix__banded.html" target="_top" xlink:title="Banded matrix type. ">
<polygon fill="white" stroke="black" points="136,-98.5 136,-128.5 234,-128.5 234,-98.5 136,-98.5"/>
<text text-anchor="start" x="144" y="-116.5" font-family="Helvetica,sans-Serif" font-size="10.00">sll_t_spline_matrix</text>
<text text-anchor="middle" x="185" y="-105.5" font-family="Helvetica,sans-Serif" font-size="10.00">_banded</text>
</a>
</g>
</g>
<!-- Node1&#45;&gt;Node2 -->
<g id="edge1" class="edge"><title>Node1&#45;&gt;Node2</title>
<path fill="none" stroke="midnightblue" d="M86.7403,-77.6675C104.144,-84.0795 125.153,-91.8197 143.185,-98.463"/>
<polygon fill="midnightblue" stroke="midnightblue" points="87.5529,-74.2369 76.9595,-74.064 85.1329,-80.8053 87.5529,-74.2369"/>
</g>
<!-- Node3 -->
<g id="node3" class="node"><title>Node3</title>
<g id="a_node3"><a xlink:href="structsll__m__spline__matrix__dense_1_1sll__t__spline__matrix__dense.html" target="_top" xlink:title="Dense matrix type. ">
<polygon fill="white" stroke="black" points="136,-49.5 136,-79.5 234,-79.5 234,-49.5 136,-49.5"/>
<text text-anchor="start" x="144" y="-67.5" font-family="Helvetica,sans-Serif" font-size="10.00">sll_t_spline_matrix</text>
<text text-anchor="middle" x="185" y="-56.5" font-family="Helvetica,sans-Serif" font-size="10.00">_dense</text>
</a>
</g>
</g>
<!-- Node1&#45;&gt;Node3 -->
<g id="edge2" class="edge"><title>Node1&#45;&gt;Node3</title>
<path fill="none" stroke="midnightblue" d="M110.158,-64.5C118.783,-64.5 127.573,-64.5 135.941,-64.5"/>
<polygon fill="midnightblue" stroke="midnightblue" points="110.146,-61.0001 100.146,-64.5 110.146,-68.0001 110.146,-61.0001"/>
</g>
<!-- Node4 -->
<g id="node4" class="node"><title>Node4</title>
<g id="a_node4"><a xlink:href="structsll__m__spline__matrix__periodic__banded_1_1sll__t__spline__matrix__periodic__banded.html" target="_top" xlink:title="sll_t_spline_matrix\l_periodic_banded">
<polygon fill="white" stroke="black" points="136,-0.5 136,-30.5 234,-30.5 234,-0.5 136,-0.5"/>
<text text-anchor="start" x="144" y="-18.5" font-family="Helvetica,sans-Serif" font-size="10.00">sll_t_spline_matrix</text>
<text text-anchor="middle" x="185" y="-7.5" font-family="Helvetica,sans-Serif" font-size="10.00">_periodic_banded</text>
</a>
</g>
</g>
<!-- Node1&#45;&gt;Node4 -->
<g id="edge3" class="edge"><title>Node1&#45;&gt;Node4</title>
<path fill="none" stroke="midnightblue" d="M86.7403,-51.3325C104.144,-44.9205 125.153,-37.1803 143.185,-30.537"/>
<polygon fill="midnightblue" stroke="midnightblue" points="85.1329,-48.1947 76.9595,-54.936 87.5529,-54.7631 85.1329,-48.1947"/>
</g>
</g>
</svg>
