<?xml version="1.0" encoding="UTF-8" standalone="no"?>
<!DOCTYPE svg PUBLIC "-//W3C//DTD SVG 1.1//EN"
 "http://www.w3.org/Graphics/SVG/1.1/DTD/svg11.dtd">
<!-- Generated by graphviz version 2.43.0 (0)
 -->
<!-- Title: gyroaverage_2d_polar_hermite_solver Pages: 1 -->
<svg width="443pt" height="294pt"
 viewBox="0.00 0.00 442.50 294.00" xmlns="http://www.w3.org/2000/svg" xmlns:xlink="http://www.w3.org/1999/xlink">
<g id="graph0" class="graph" transform="scale(1 1) rotate(0) translate(4 290)">
<title>gyroaverage_2d_polar_hermite_solver</title>
<polygon fill="white" stroke="transparent" points="-4,4 -4,-290 438.5,-290 438.5,4 -4,4"/>
<!-- Node1 -->
<g id="node1" class="node">
<title>Node1</title>
<g id="a_node1"><a xlink:title=" ">
<polygon fill="#bfbfbf" stroke="black" points="125,-0.5 125,-30.5 250,-30.5 250,-0.5 125,-0.5"/>
<text text-anchor="start" x="133" y="-18.5" font-family="Helvetica,sans-Serif" font-size="10.00">gyroaverage_2d_polar</text>
<text text-anchor="middle" x="187.5" y="-7.5" font-family="Helvetica,sans-Serif" font-size="10.00">_hermite_solver</text>
</a>
</g>
</g>
<!-- Node2 -->
<g id="node2" class="node">
<title>Node2</title>
<g id="a_node2"><a xlink:href="structsll__m__gyroaverage__2d__base_1_1sll__c__gyroaverage__2d__base.html" target="_top" xlink:title=" ">
<polygon fill="white" stroke="black" points="0,-84 0,-103 151,-103 151,-84 0,-84"/>
<text text-anchor="middle" x="75.5" y="-91" font-family="Helvetica,sans-Serif" font-size="10.00">sll_c_gyroaverage_2d_base</text>
</a>
</g>
</g>
<!-- Node2&#45;&gt;Node1 -->
<g id="edge1" class="edge">
<title>Node2&#45;&gt;Node1</title>
<path fill="none" stroke="midnightblue" d="M96.83,-78.03C116.96,-64.37 146.93,-44.03 166.84,-30.52"/>
<polygon fill="midnightblue" stroke="midnightblue" points="94.66,-75.27 88.35,-83.78 98.59,-81.06 94.66,-75.27"/>
</g>
<!-- Node3 -->
<g id="node3" class="node">
<title>Node3</title>
<g id="a_node3"><a xlink:title=" ">
<polygon fill="white" stroke="#bfbfbf" points="153,-266.5 153,-285.5 256,-285.5 256,-266.5 153,-266.5"/>
<text text-anchor="middle" x="204.5" y="-273.5" font-family="Helvetica,sans-Serif" font-size="10.00">integer(kind=i32)</text>
</a>
</g>
</g>
<!-- Node3&#45;&gt;Node1 -->
<g id="edge2" class="edge">
<title>Node3&#45;&gt;Node1</title>
<path fill="none" stroke="#9a32cd" stroke-dasharray="5,2" d="M202.31,-256.38C202.01,-253.58 201.73,-250.71 201.5,-248 194.45,-165.76 189.71,-66.78 188.11,-30.61"/>
<polygon fill="#9a32cd" stroke="#9a32cd" points="198.85,-256.95 203.44,-266.5 205.81,-256.17 198.85,-256.95"/>
<text text-anchor="middle" x="227.5" y="-91" font-family="Helvetica,sans-Serif" font-size="10.00"> hermite_case</text>
</g>
<!-- Node4 -->
<g id="node4" class="node">
<title>Node4</title>
<g id="a_node4"><a xlink:href="structsll__m__gyroaverage__2d__polar_1_1sll__t__plan__gyroaverage__polar.html" target="_top" xlink:title=" ">
<polygon fill="white" stroke="black" points="275.5,-78.5 275.5,-108.5 405.5,-108.5 405.5,-78.5 275.5,-78.5"/>
<text text-anchor="start" x="283.5" y="-96.5" font-family="Helvetica,sans-Serif" font-size="10.00">sll_t_plan_gyroaverage</text>
<text text-anchor="middle" x="340.5" y="-85.5" font-family="Helvetica,sans-Serif" font-size="10.00">_polar</text>
</a>
</g>
</g>
<!-- Node3&#45;&gt;Node4 -->
<g id="edge4" class="edge">
<title>Node3&#45;&gt;Node4</title>
<path fill="none" stroke="#9a32cd" stroke-dasharray="5,2" d="M203.45,-256.05C202.79,-225 206.14,-163.11 239.5,-127 249.06,-116.65 261.93,-109.58 275.27,-104.76"/>
<polygon fill="#9a32cd" stroke="#9a32cd" points="199.96,-256.47 203.84,-266.33 206.95,-256.2 199.96,-256.47"/>
<text text-anchor="middle" x="288" y="-207" font-family="Helvetica,sans-Serif" font-size="10.00"> interp_degree</text>
<text text-anchor="middle" x="288" y="-196" font-family="Helvetica,sans-Serif" font-size="10.00">pre_compute_n</text>
<text text-anchor="middle" x="288" y="-185" font-family="Helvetica,sans-Serif" font-size="10.00">nc</text>
<text text-anchor="middle" x="288" y="-174" font-family="Helvetica,sans-Serif" font-size="10.00">n_points</text>
<text text-anchor="middle" x="288" y="-163" font-family="Helvetica,sans-Serif" font-size="10.00">pre_compute_index</text>
</g>
<!-- Node4&#45;&gt;Node1 -->
<g id="edge3" class="edge">
<title>Node4&#45;&gt;Node1</title>
<path fill="none" stroke="#9a32cd" stroke-dasharray="5,2" d="M302.95,-73.85C276.02,-60.47 240.3,-42.73 215.77,-30.54"/>
<polygon fill="#9a32cd" stroke="#9a32cd" points="301.57,-77.07 312.08,-78.38 304.68,-70.8 301.57,-77.07"/>
<text text-anchor="middle" x="286" y="-52" font-family="Helvetica,sans-Serif" font-size="10.00"> gyro</text>
</g>
<!-- Node5 -->
<g id="node5" class="node">
<title>Node5</title>
<g id="a_node5"><a xlink:title=" ">
<polygon fill="white" stroke="#bfbfbf" points="296.5,-266.5 296.5,-285.5 384.5,-285.5 384.5,-266.5 296.5,-266.5"/>
<text text-anchor="middle" x="340.5" y="-273.5" font-family="Helvetica,sans-Serif" font-size="10.00">real(kind=f64)</text>
</a>
</g>
</g>
<!-- Node5&#45;&gt;Node4 -->
<g id="edge5" class="edge">
<title>Node5&#45;&gt;Node4</title>
<path fill="none" stroke="#9a32cd" stroke-dasharray="5,2" d="M340.5,-256.09C340.5,-219.7 340.5,-140.69 340.5,-108.54"/>
<polygon fill="#9a32cd" stroke="#9a32cd" points="337,-256.29 340.5,-266.29 344,-256.29 337,-256.29"/>
<text text-anchor="middle" x="387.5" y="-240" font-family="Helvetica,sans-Serif" font-size="10.00"> eta_max</text>
<text text-anchor="middle" x="387.5" y="-229" font-family="Helvetica,sans-Serif" font-size="10.00">lunat</text>
<text text-anchor="middle" x="387.5" y="-218" font-family="Helvetica,sans-Serif" font-size="10.00">points</text>
<text text-anchor="start" x="340.5" y="-207" font-family="Helvetica,sans-Serif" font-size="10.00">pre_compute_coeff</text>
<text text-anchor="middle" x="387.5" y="-196" font-family="Helvetica,sans-Serif" font-size="10.00">_spl</text>
<text text-anchor="middle" x="387.5" y="-185" font-family="Helvetica,sans-Serif" font-size="10.00">deriv</text>
<text text-anchor="start" x="340.5" y="-174" font-family="Helvetica,sans-Serif" font-size="10.00">pre_compute</text>
<text text-anchor="middle" x="387.5" y="-163" font-family="Helvetica,sans-Serif" font-size="10.00">_coeff</text>
<text text-anchor="middle" x="387.5" y="-152" font-family="Helvetica,sans-Serif" font-size="10.00">eta_min</text>
<text text-anchor="middle" x="387.5" y="-141" font-family="Helvetica,sans-Serif" font-size="10.00">luper</text>
<text text-anchor="middle" x="387.5" y="-130" font-family="Helvetica,sans-Serif" font-size="10.00">a_fft</text>
</g>
</g>
</svg>
