<?xml version="1.0" encoding="UTF-8" standalone="no"?>
<!DOCTYPE svg PUBLIC "-//W3C//DTD SVG 1.1//EN"
 "http://www.w3.org/Graphics/SVG/1.1/DTD/svg11.dtd">
<!-- Generated by graphviz version 2.38.0 (20140413.2041)
 -->
<!-- Title: sll_t_maxwell_2d_diga Pages: 1 -->
<svg width="380pt" height="418pt"
 viewBox="0.00 0.00 380.42 418.00" xmlns="http://www.w3.org/2000/svg" xmlns:xlink="http://www.w3.org/1999/xlink">
<g id="graph0" class="graph" transform="scale(1 1) rotate(0) translate(4 414)">
<title>sll_t_maxwell_2d_diga</title>
<polygon fill="white" stroke="none" points="-4,4 -4,-414 376.419,-414 376.419,4 -4,4"/>
<!-- Node1 -->
<g id="node1" class="node"><title>Node1</title>
<polygon fill="#bfbfbf" stroke="black" points="54.9191,-0.5 54.9191,-19.5 169.919,-19.5 169.919,-0.5 54.9191,-0.5"/>
<text text-anchor="middle" x="112.419" y="-7.5" font-family="Helvetica,sans-Serif" font-size="10.00">sll_t_maxwell_2d_diga</text>
</g>
<!-- Node2 -->
<g id="node2" class="node"><title>Node2</title>
<g id="a_node2"><a xlink:href="structsll__m__maxwell__2d__diga_1_1cell__type.html" target="_top" xlink:title="Information about a mesh cell. ">
<polygon fill="white" stroke="black" points="139.419,-67.5 139.419,-86.5 195.419,-86.5 195.419,-67.5 139.419,-67.5"/>
<text text-anchor="middle" x="167.419" y="-74.5" font-family="Helvetica,sans-Serif" font-size="10.00">cell_type</text>
</a>
</g>
</g>
<!-- Node2&#45;&gt;Node1 -->
<g id="edge1" class="edge"><title>Node2&#45;&gt;Node1</title>
<path fill="none" stroke="#9a32cd" stroke-dasharray="5,2" d="M153.263,-59.2705C142.54,-46.5972 128.243,-29.701 119.719,-19.6273"/>
<polygon fill="#9a32cd" stroke="#9a32cd" points="150.87,-61.8607 160.002,-67.2338 156.214,-57.3391 150.87,-61.8607"/>
<text text-anchor="middle" x="152.919" y="-41" font-family="Helvetica,sans-Serif" font-size="10.00"> cell</text>
</g>
<!-- Node3 -->
<g id="node3" class="node"><title>Node3</title>
<polygon fill="white" stroke="#bfbfbf" points="237.919,-390.5 237.919,-409.5 326.919,-409.5 326.919,-390.5 237.919,-390.5"/>
<text text-anchor="middle" x="282.419" y="-397.5" font-family="Helvetica,sans-Serif" font-size="10.00">integer(kind=i32)</text>
</g>
<!-- Node3&#45;&gt;Node1 -->
<g id="edge7" class="edge"><title>Node3&#45;&gt;Node1</title>
<path fill="none" stroke="#9a32cd" stroke-dasharray="5,2" d="M301.992,-383.366C305.02,-379.965 307.707,-376.134 309.419,-372 315.032,-358.45 309.728,-353.663 309.419,-339 307.221,-234.564 346.137,-191.393 287.419,-105 254.754,-56.9384 189.274,-31.4217 148.328,-19.5934"/>
<polygon fill="#9a32cd" stroke="#9a32cd" points="299.395,-381.008 294.606,-390.459 304.243,-386.057 299.395,-381.008"/>
<text text-anchor="middle" x="345.919" y="-207" font-family="Helvetica,sans-Serif" font-size="10.00"> polarization</text>
<text text-anchor="middle" x="345.919" y="-196" font-family="Helvetica,sans-Serif" font-size="10.00">flux_type</text>
<text text-anchor="middle" x="345.919" y="-185" font-family="Helvetica,sans-Serif" font-size="10.00">bc_north</text>
<text text-anchor="middle" x="345.919" y="-174" font-family="Helvetica,sans-Serif" font-size="10.00">bc_south</text>
<text text-anchor="middle" x="345.919" y="-163" font-family="Helvetica,sans-Serif" font-size="10.00">bc_east</text>
<text text-anchor="middle" x="345.919" y="-152" font-family="Helvetica,sans-Serif" font-size="10.00">degree</text>
<text text-anchor="middle" x="345.919" y="-141" font-family="Helvetica,sans-Serif" font-size="10.00">bc_west</text>
<text text-anchor="middle" x="345.919" y="-130" font-family="Helvetica,sans-Serif" font-size="10.00">nc_eta1</text>
<text text-anchor="middle" x="345.919" y="-119" font-family="Helvetica,sans-Serif" font-size="10.00">nc_eta2</text>
</g>
<!-- Node3&#45;&gt;Node2 -->
<g id="edge2" class="edge"><title>Node3&#45;&gt;Node2</title>
<path fill="none" stroke="#9a32cd" stroke-dasharray="5,2" d="M292.265,-381.402C293.569,-378.35 294.701,-375.145 295.419,-372 298.682,-357.701 296.416,-353.633 295.419,-339 288.217,-233.254 321.114,-183.063 249.419,-105 235.631,-89.9873 213.35,-83.3054 195.492,-80.3399"/>
<polygon fill="#9a32cd" stroke="#9a32cd" points="289.124,-379.856 287.808,-390.369 295.393,-382.972 289.124,-379.856"/>
<text text-anchor="middle" x="298.419" y="-285.5" font-family="Helvetica,sans-Serif" font-size="10.00"> i</text>
<text text-anchor="middle" x="298.419" y="-274.5" font-family="Helvetica,sans-Serif" font-size="10.00">j</text>
</g>
<!-- Node4 -->
<g id="node4" class="node"><title>Node4</title>
<g id="a_node4"><a xlink:href="structsll__m__maxwell__2d__diga_1_1edge__type.html" target="_top" xlink:title="Local type with edge properties. ">
<polygon fill="white" stroke="black" points="211.419,-273 211.419,-292 273.419,-292 273.419,-273 211.419,-273"/>
<text text-anchor="middle" x="242.419" y="-280" font-family="Helvetica,sans-Serif" font-size="10.00">edge_type</text>
</a>
</g>
</g>
<!-- Node3&#45;&gt;Node4 -->
<g id="edge4" class="edge"><title>Node3&#45;&gt;Node4</title>
<path fill="none" stroke="#9a32cd" stroke-dasharray="5,2" d="M264.715,-382.817C261.901,-379.489 259.301,-375.824 257.419,-372 244.205,-345.155 242.375,-308.796 242.285,-292.295"/>
<polygon fill="#9a32cd" stroke="#9a32cd" points="262.429,-385.491 271.87,-390.299 267.488,-380.653 262.429,-385.491"/>
<text text-anchor="middle" x="276.419" y="-353" font-family="Helvetica,sans-Serif" font-size="10.00"> bc_type</text>
</g>
<!-- Node6 -->
<g id="node6" class="node"><title>Node6</title>
<g id="a_node6"><a xlink:href="structsll__m__dg__fields_1_1sll__t__dg__field__2d.html" target="_top" xlink:title="Object to describe field data with DG numerical method. ">
<polygon fill="white" stroke="black" points="15.9191,-273 15.9191,-292 104.919,-292 104.919,-273 15.9191,-273"/>
<text text-anchor="middle" x="60.4191" y="-280" font-family="Helvetica,sans-Serif" font-size="10.00">sll_t_dg_field_2d</text>
</a>
</g>
</g>
<!-- Node3&#45;&gt;Node6 -->
<g id="edge9" class="edge"><title>Node3&#45;&gt;Node6</title>
<path fill="none" stroke="#9a32cd" stroke-dasharray="5,2" d="M243.058,-386.933C232.968,-382.961 222.429,-377.992 213.419,-372 196.408,-360.687 198.925,-349.533 181.419,-339 156.833,-324.207 145.567,-332.814 119.419,-321 101.944,-313.104 83.5652,-300.67 72.0551,-292.308"/>
<polygon fill="#9a32cd" stroke="#9a32cd" points="241.936,-390.25 252.529,-390.437 244.364,-383.685 241.936,-390.25"/>
<text text-anchor="middle" x="228.419" y="-364" font-family="Helvetica,sans-Serif" font-size="10.00"> tag</text>
<text text-anchor="middle" x="228.419" y="-353" font-family="Helvetica,sans-Serif" font-size="10.00">file_id</text>
<text text-anchor="middle" x="228.419" y="-342" font-family="Helvetica,sans-Serif" font-size="10.00">degree</text>
</g>
<!-- Node4&#45;&gt;Node2 -->
<g id="edge3" class="edge"><title>Node4&#45;&gt;Node2</title>
<path fill="none" stroke="#9a32cd" stroke-dasharray="5,2" d="M235.672,-263.193C220.103,-220.948 182.125,-117.901 170.714,-86.9407"/>
<polygon fill="#9a32cd" stroke="#9a32cd" points="232.454,-264.583 239.196,-272.756 239.022,-262.162 232.454,-264.583"/>
<text text-anchor="middle" x="232.919" y="-163" font-family="Helvetica,sans-Serif" font-size="10.00"> edge</text>
</g>
<!-- Node5 -->
<g id="node5" class="node"><title>Node5</title>
<polygon fill="white" stroke="#bfbfbf" points="44.4191,-390.5 44.4191,-409.5 120.419,-409.5 120.419,-390.5 44.4191,-390.5"/>
<text text-anchor="middle" x="82.4191" y="-397.5" font-family="Helvetica,sans-Serif" font-size="10.00">real(kind=f64)</text>
</g>
<!-- Node5&#45;&gt;Node1 -->
<g id="edge11" class="edge"><title>Node5&#45;&gt;Node1</title>
<path fill="none" stroke="#9a32cd" stroke-dasharray="5,2" d="M60.8956,-384.493C42.4759,-370.651 17.2683,-347.951 6.41912,-321 -6.36038,-289.253 4.4592,-278.166 6.41912,-244 9.98052,-181.916 -4.01943,-161.286 22.4191,-105 40.2858,-66.9633 79.7003,-34.5768 99.9193,-19.7093"/>
<polygon fill="#9a32cd" stroke="#9a32cd" points="58.8964,-387.366 69.0523,-390.384 62.9951,-381.691 58.8964,-387.366"/>
<text text-anchor="middle" x="45.4191" y="-218" font-family="Helvetica,sans-Serif" font-size="10.00"> w</text>
<text text-anchor="middle" x="45.4191" y="-207" font-family="Helvetica,sans-Serif" font-size="10.00">f</text>
<text text-anchor="middle" x="45.4191" y="-196" font-family="Helvetica,sans-Serif" font-size="10.00">eta2_max</text>
<text text-anchor="middle" x="45.4191" y="-185" font-family="Helvetica,sans-Serif" font-size="10.00">delta_eta1</text>
<text text-anchor="middle" x="45.4191" y="-174" font-family="Helvetica,sans-Serif" font-size="10.00">delta_eta2</text>
<text text-anchor="middle" x="45.4191" y="-163" font-family="Helvetica,sans-Serif" font-size="10.00">xi</text>
<text text-anchor="middle" x="45.4191" y="-152" font-family="Helvetica,sans-Serif" font-size="10.00">e_0</text>
<text text-anchor="middle" x="45.4191" y="-141" font-family="Helvetica,sans-Serif" font-size="10.00">eta1_min</text>
<text text-anchor="middle" x="45.4191" y="-130" font-family="Helvetica,sans-Serif" font-size="10.00">eta2_min</text>
<text text-anchor="middle" x="45.4191" y="-119" font-family="Helvetica,sans-Serif" font-size="10.00">r</text>
<text text-anchor="middle" x="45.4191" y="-108" font-family="Helvetica,sans-Serif" font-size="10.00">...</text>
</g>
<!-- Node5&#45;&gt;Node2 -->
<g id="edge6" class="edge"><title>Node5&#45;&gt;Node2</title>
<path fill="none" stroke="#9a32cd" stroke-dasharray="5,2" d="M90.7244,-380.545C97.5167,-364.925 107.013,-341.822 113.419,-321 141.124,-230.953 160.803,-118.054 166.034,-86.5209"/>
<polygon fill="#9a32cd" stroke="#9a32cd" points="87.3679,-379.481 86.5252,-390.042 93.77,-382.312 87.3679,-379.481"/>
<text text-anchor="middle" x="159.419" y="-313" font-family="Helvetica,sans-Serif" font-size="10.00"> eta2_max</text>
<text text-anchor="middle" x="159.419" y="-302" font-family="Helvetica,sans-Serif" font-size="10.00">dxmatrix</text>
<text text-anchor="middle" x="159.419" y="-291" font-family="Helvetica,sans-Serif" font-size="10.00">dymatrix</text>
<text text-anchor="middle" x="159.419" y="-280" font-family="Helvetica,sans-Serif" font-size="10.00">eta1_min</text>
<text text-anchor="middle" x="159.419" y="-269" font-family="Helvetica,sans-Serif" font-size="10.00">eta2_min</text>
<text text-anchor="middle" x="159.419" y="-258" font-family="Helvetica,sans-Serif" font-size="10.00">massmatrix</text>
<text text-anchor="middle" x="159.419" y="-247" font-family="Helvetica,sans-Serif" font-size="10.00">eta1_max</text>
</g>
<!-- Node5&#45;&gt;Node4 -->
<g id="edge5" class="edge"><title>Node5&#45;&gt;Node4</title>
<path fill="none" stroke="#9a32cd" stroke-dasharray="5,2" d="M102.277,-384.245C106.812,-380.479 111.459,-376.278 115.419,-372 127.564,-358.881 123.964,-349.52 138.419,-339 160.586,-322.868 173.3,-334.033 197.419,-321 211.734,-313.264 225.733,-300.55 234.22,-292.102"/>
<polygon fill="#9a32cd" stroke="#9a32cd" points="100.071,-381.527 94.4039,-390.479 104.417,-387.015 100.071,-381.527"/>
<text text-anchor="middle" x="159.919" y="-358.5" font-family="Helvetica,sans-Serif" font-size="10.00"> length</text>
<text text-anchor="middle" x="159.919" y="-347.5" font-family="Helvetica,sans-Serif" font-size="10.00">vec_norm</text>
</g>
<!-- Node5&#45;&gt;Node6 -->
<g id="edge10" class="edge"><title>Node5&#45;&gt;Node6</title>
<path fill="none" stroke="#9a32cd" stroke-dasharray="5,2" d="M68.9485,-381.703C67.123,-378.614 65.5065,-375.319 64.4191,-372 55.2257,-343.937 57.5724,-308.187 59.3204,-292.066"/>
<polygon fill="#9a32cd" stroke="#9a32cd" points="66.199,-383.882 74.732,-390.162 71.9777,-379.932 66.199,-383.882"/>
<text text-anchor="middle" x="77.4191" y="-364" font-family="Helvetica,sans-Serif" font-size="10.00"> array</text>
<text text-anchor="middle" x="77.4191" y="-353" font-family="Helvetica,sans-Serif" font-size="10.00">wgalo</text>
<text text-anchor="middle" x="77.4191" y="-342" font-family="Helvetica,sans-Serif" font-size="10.00">xgalo</text>
</g>
<!-- Node6&#45;&gt;Node1 -->
<g id="edge8" class="edge"><title>Node6&#45;&gt;Node1</title>
<path fill="none" stroke="#9a32cd" stroke-dasharray="5,2" d="M64.0359,-262.686C74.3347,-209.112 103.54,-57.186 110.78,-19.5264"/>
<polygon fill="#9a32cd" stroke="#9a32cd" points="60.5412,-262.325 62.0904,-272.806 67.4153,-263.647 60.5412,-262.325"/>
<text text-anchor="middle" x="108.419" y="-74.5" font-family="Helvetica,sans-Serif" font-size="10.00"> po</text>
</g>
</g>
</svg>
