<?xml version="1.0" encoding="UTF-8" standalone="no"?>
<!DOCTYPE svg PUBLIC "-//W3C//DTD SVG 1.1//EN"
 "http://www.w3.org/Graphics/SVG/1.1/DTD/svg11.dtd">
<!-- Generated by graphviz version 2.40.1 (20161225.0304)
 -->
<!-- Title: sll_c_particle_mesh_coupling_1d Pages: 1 -->
<svg width="218pt" height="139pt"
 viewBox="0.00 0.00 217.50 139.00" xmlns="http://www.w3.org/2000/svg" xmlns:xlink="http://www.w3.org/1999/xlink">
<g id="graph0" class="graph" transform="scale(1 1) rotate(0) translate(4 135)">
<title>sll_c_particle_mesh_coupling_1d</title>
<polygon fill="#ffffff" stroke="transparent" points="-4,4 -4,-135 213.5,-135 213.5,4 -4,4"/>
<!-- Node6 -->
<g id="node1" class="node">
<title>Node6</title>
<polygon fill="#bfbfbf" stroke="#000000" points="52,-.5 52,-30.5 165,-30.5 165,-.5 52,-.5"/>
<text text-anchor="start" x="60" y="-18.5" font-family="Helvetica,sans-Serif" font-size="10.00" fill="#000000">sll_c_particle_mesh</text>
<text text-anchor="middle" x="108.5" y="-7.5" font-family="Helvetica,sans-Serif" font-size="10.00" fill="#000000">_coupling_1d</text>
</g>
<!-- Node7 -->
<g id="node2" class="node">
<title>Node7</title>
<polygon fill="#ffffff" stroke="#bfbfbf" points="0,-111.5 0,-130.5 103,-130.5 103,-111.5 0,-111.5"/>
<text text-anchor="middle" x="51.5" y="-118.5" font-family="Helvetica,sans-Serif" font-size="10.00" fill="#000000">integer(kind=i32)</text>
</g>
<!-- Node7&#45;&gt;Node6 -->
<g id="edge1" class="edge">
<title>Node7&#45;&gt;Node6</title>
<path fill="none" stroke="#9a32cd" stroke-dasharray="5,2" d="M55.1149,-101.2242C58.4957,-86.1118 64.5491,-65.1938 74.5,-49 78.5781,-42.3634 84.2454,-36.0839 89.7851,-30.794"/>
<polygon fill="#9a32cd" stroke="#9a32cd" points="51.6797,-100.5535 53.1081,-111.0516 58.5382,-101.9541 51.6797,-100.5535"/>
<text text-anchor="middle" x="109" y="-85" font-family="Helvetica,sans-Serif" font-size="10.00" fill="#000000"> dim</text>
<text text-anchor="middle" x="109" y="-74" font-family="Helvetica,sans-Serif" font-size="10.00" fill="#000000">spline_degree</text>
<text text-anchor="middle" x="109" y="-63" font-family="Helvetica,sans-Serif" font-size="10.00" fill="#000000">n_dofs</text>
<text text-anchor="middle" x="109" y="-52" font-family="Helvetica,sans-Serif" font-size="10.00" fill="#000000">n_cells</text>
</g>
<!-- Node8 -->
<g id="node3" class="node">
<title>Node8</title>
<polygon fill="#ffffff" stroke="#bfbfbf" points="121.5,-111.5 121.5,-130.5 209.5,-130.5 209.5,-111.5 121.5,-111.5"/>
<text text-anchor="middle" x="165.5" y="-118.5" font-family="Helvetica,sans-Serif" font-size="10.00" fill="#000000">real(kind=f64)</text>
</g>
<!-- Node8&#45;&gt;Node6 -->
<g id="edge2" class="edge">
<title>Node8&#45;&gt;Node6</title>
<path fill="none" stroke="#9a32cd" stroke-dasharray="5,2" d="M162.2731,-101.1829C159.1629,-86.0484 153.4264,-65.1208 143.5,-49 139.3544,-42.2674 133.5343,-35.9624 127.8284,-30.6787"/>
<polygon fill="#9a32cd" stroke="#9a32cd" points="158.8337,-101.832 164.096,-111.0276 165.7167,-100.5575 158.8337,-101.832"/>
<text text-anchor="middle" x="179.5" y="-74" font-family="Helvetica,sans-Serif" font-size="10.00" fill="#000000"> domain</text>
<text text-anchor="middle" x="179.5" y="-63" font-family="Helvetica,sans-Serif" font-size="10.00" fill="#000000">delta_x</text>
</g>
</g>
</svg>
