<?xml version="1.0" encoding="UTF-8" standalone="no"?>
<!DOCTYPE svg PUBLIC "-//W3C//DTD SVG 1.1//EN"
 "http://www.w3.org/Graphics/SVG/1.1/DTD/svg11.dtd">
<!-- Generated by graphviz version 2.43.0 (0)
 -->
<!-- Title: sll_c_rk_implicit Pages: 1 -->
<svg width="260pt" height="140pt"
 viewBox="0.00 0.00 260.00 140.00" xmlns="http://www.w3.org/2000/svg" xmlns:xlink="http://www.w3.org/1999/xlink">
<g id="graph0" class="graph" transform="scale(1 1) rotate(0) translate(4 136)">
<title>sll_c_rk_implicit</title>
<polygon fill="white" stroke="transparent" points="-4,4 -4,-136 256,-136 256,4 -4,4"/>
<!-- Node1 -->
<g id="node1" class="node">
<title>Node1</title>
<g id="a_node1"><a xlink:title=" ">
<polygon fill="#bfbfbf" stroke="black" points="79,-56.5 79,-75.5 174,-75.5 174,-56.5 79,-56.5"/>
<text text-anchor="middle" x="126.5" y="-63.5" font-family="Helvetica,sans-Serif" font-size="10.00">sll_c_rk_implicit</text>
</a>
</g>
</g>
<!-- Node3 -->
<g id="node3" class="node">
<title>Node3</title>
<g id="a_node3"><a xlink:href="structsll__m__rk__implicit_1_1sll__t__rk1d__bwd__euler.html" target="_top" xlink:title=" ">
<polygon fill="white" stroke="black" points="0,-0.5 0,-19.5 119,-19.5 119,-0.5 0,-0.5"/>
<text text-anchor="middle" x="59.5" y="-7.5" font-family="Helvetica,sans-Serif" font-size="10.00">sll_t_rk1d_bwd_euler</text>
</a>
</g>
</g>
<!-- Node1&#45;&gt;Node3 -->
<g id="edge2" class="edge">
<title>Node1&#45;&gt;Node3</title>
<path fill="none" stroke="midnightblue" d="M107.67,-49.82C95.66,-40.15 80.53,-27.95 70.46,-19.83"/>
<polygon fill="midnightblue" stroke="midnightblue" points="105.75,-52.77 115.74,-56.32 110.15,-47.32 105.75,-52.77"/>
</g>
<!-- Node4 -->
<g id="node4" class="node">
<title>Node4</title>
<g id="a_node4"><a xlink:href="structsll__m__rk__implicit_1_1sll__t__rk1d__trapezoid.html" target="_top" xlink:title=" ">
<polygon fill="white" stroke="black" points="137,-0.5 137,-19.5 252,-19.5 252,-0.5 137,-0.5"/>
<text text-anchor="middle" x="194.5" y="-7.5" font-family="Helvetica,sans-Serif" font-size="10.00">sll_t_rk1d_trapezoid</text>
</a>
</g>
</g>
<!-- Node1&#45;&gt;Node4 -->
<g id="edge3" class="edge">
<title>Node1&#45;&gt;Node4</title>
<path fill="none" stroke="midnightblue" d="M145.26,-50.1C157.5,-40.38 173.06,-28.03 183.38,-19.83"/>
<polygon fill="midnightblue" stroke="midnightblue" points="143.08,-47.36 137.43,-56.32 147.43,-52.85 143.08,-47.36"/>
</g>
<!-- Node2 -->
<g id="node2" class="node">
<title>Node2</title>
<g id="a_node2"><a xlink:href="structsll__m__ode__integrator__base_1_1sll__c__ode__integrator.html" target="_top" xlink:title="Base class for standard ODE integrators.">
<polygon fill="white" stroke="black" points="69,-112.5 69,-131.5 184,-131.5 184,-112.5 69,-112.5"/>
<text text-anchor="middle" x="126.5" y="-119.5" font-family="Helvetica,sans-Serif" font-size="10.00">sll_c_ode_integrator</text>
</a>
</g>
</g>
<!-- Node2&#45;&gt;Node1 -->
<g id="edge1" class="edge">
<title>Node2&#45;&gt;Node1</title>
<path fill="none" stroke="midnightblue" d="M126.5,-101.8C126.5,-92.91 126.5,-82.78 126.5,-75.75"/>
<polygon fill="midnightblue" stroke="midnightblue" points="123,-102.08 126.5,-112.08 130,-102.08 123,-102.08"/>
</g>
</g>
</svg>
