<?xml version="1.0" encoding="UTF-8" standalone="no"?>
<!DOCTYPE svg PUBLIC "-//W3C//DTD SVG 1.1//EN"
 "http://www.w3.org/Graphics/SVG/1.1/DTD/svg11.dtd">
<!-- Generated by graphviz version 2.38.0 (20140413.2041)
 -->
<!-- Title: sll_t_arbitrary_degree_spline_interpolator_2d_ptr Pages: 1 -->
<!--zoomable 495 -->
<svg id="main" version="1.1" xmlns="http://www.w3.org/2000/svg" xmlns:xlink="http://www.w3.org/1999/xlink" xml:space="preserve" onload="init(evt)">
<style type="text/css"><![CDATA[
.edge:hover path { stroke: red; }
.edge:hover polygon { stroke: red; fill: red; }
]]></style>
<script type="text/javascript"><![CDATA[
var edges = document.getElementsByTagName('g');
if (edges && edges.length) {
  for (var i=0;i<edges.length;i++) {
    if (edges[i].id.substr(0,4)=='edge') {
      edges[i].setAttribute('class','edge');
    }
  }
}
]]></script>
        <defs>
                <circle id="rim" cx="0" cy="0" r="7"/>
                <circle id="rim2" cx="0" cy="0" r="3.5"/>
                <g id="zoomPlus">
                        <use xlink:href="#rim" fill="#404040">
                                <set attributeName="fill" to="#808080" begin="zoomplus.mouseover" end="zoomplus.mouseout"/>
                        </use>
                        <path d="M-4,0h8M0,-4v8" fill="none" stroke="white" stroke-width="1.5" pointer-events="none"/>
                </g>
                <g id="zoomMin">
                        <use xlink:href="#rim" fill="#404040">
                                <set attributeName="fill" to="#808080" begin="zoomminus.mouseover" end="zoomminus.mouseout"/>
                        </use>
                        <path d="M-4,0h8" fill="none" stroke="white" stroke-width="1.5" pointer-events="none"/>
                </g>
                <g id="dirArrow">
                        <path fill="none" stroke="white" stroke-width="1.5" d="M0,-3.0v7 M-2.5,-0.5L0,-3.0L2.5,-0.5"/>
                </g>
               <g id="resetDef">
                       <use xlink:href="#rim2" fill="#404040">
                               <set attributeName="fill" to="#808080" begin="reset.mouseover" end="reset.mouseout"/>
                       </use>
               </g>
        </defs>

<script type="text/javascript">
var viewWidth = 714;
var viewHeight = 495;
var sectionId = 'dynsection-0';
</script>
<script xlink:href="svgpan.js"/>
<svg id="graph" class="graph">
<g id="viewport">
<title>sll_t_arbitrary_degree_spline_interpolator_2d_ptr</title>
<polygon fill="white" stroke="none" points="-4,4 -4,-491.321 710,-491.321 710,4 -4,4"/>
<!-- Node1 -->
<g id="node1" class="node"><title>Node1</title>
<polygon fill="#bfbfbf" stroke="black" points="573,-218 573,-248 706,-248 706,-218 573,-218"/>
<text text-anchor="start" x="581" y="-236" font-family="Helvetica,sans-Serif" font-size="10.00">sll_t_arbitrary_degree</text>
<text text-anchor="middle" x="639.5" y="-225" font-family="Helvetica,sans-Serif" font-size="10.00">_spline_interpolator_2d_ptr</text>
</g>
<!-- Node2 -->
<g id="node2" class="node"><title>Node2</title>
<g id="a_node2"><a xlink:href="structsll__m__arbitrary__degree__spline__interpolator__2d_1_1sll__t__arbitrary__degree__spline__interpolator__2d.html" target="_top" xlink:title="Arbitrary degree version of 2d irnterpolator. ">
<polygon fill="white" stroke="black" points="393,-218 393,-248 509,-248 509,-218 393,-218"/>
<text text-anchor="start" x="401" y="-236" font-family="Helvetica,sans-Serif" font-size="10.00">sll_t_arbitrary_degree</text>
<text text-anchor="middle" x="451" y="-225" font-family="Helvetica,sans-Serif" font-size="10.00">_spline_interpolator_2d</text>
</a>
</g>
</g>
<!-- Node2&#45;&gt;Node1 -->
<g id="edge1" class="edge"><title>Node2&#45;&gt;Node1</title>
<path fill="none" stroke="#9a32cd" stroke-dasharray="5,2" d="M519.325,-233C536.773,-233 555.538,-233 572.897,-233"/>
<polygon fill="#9a32cd" stroke="#9a32cd" points="519.224,-229.5 509.224,-233 519.224,-236.5 519.224,-229.5"/>
<text text-anchor="middle" x="541" y="-236" font-family="Helvetica,sans-Serif" font-size="10.00"> interp</text>
</g>
<!-- Node3 -->
<g id="node3" class="node"><title>Node3</title>
<g id="a_node3"><a xlink:href="structsll__m__interpolators__2d__base_1_1sll__c__interpolator__2d.html" target="_top" xlink:title="Base class/basic interface for 2D interpolators. ">
<polygon fill="white" stroke="black" points="152,-466.5 152,-485.5 258,-485.5 258,-466.5 152,-466.5"/>
<text text-anchor="middle" x="205" y="-473.5" font-family="Helvetica,sans-Serif" font-size="10.00">sll_c_interpolator_2d</text>
</a>
</g>
</g>
<!-- Node3&#45;&gt;Node2 -->
<g id="edge2" class="edge"><title>Node3&#45;&gt;Node2</title>
<path fill="none" stroke="midnightblue" d="M266.937,-486.421C302.054,-488.946 345.034,-485.666 375,-462 443.452,-407.938 450.152,-290.035 450.282,-248.142"/>
<polygon fill="midnightblue" stroke="midnightblue" points="267.059,-482.918 256.788,-485.518 266.438,-489.891 267.059,-482.918"/>
</g>
<!-- Node4 -->
<g id="node4" class="node"><title>Node4</title>
<polygon fill="white" stroke="#bfbfbf" points="183,-390.5 183,-409.5 227,-409.5 227,-390.5 183,-390.5"/>
<text text-anchor="middle" x="205" y="-397.5" font-family="Helvetica,sans-Serif" font-size="10.00">logical</text>
</g>
<!-- Node4&#45;&gt;Node2 -->
<g id="edge3" class="edge"><title>Node4&#45;&gt;Node2</title>
<path fill="none" stroke="#9a32cd" stroke-dasharray="5,2" d="M236.5,-387.21C243.699,-383.841 251.242,-380.017 258,-376 262.544,-373.299 381.189,-284.53 429.66,-248.235"/>
<polygon fill="#9a32cd" stroke="#9a32cd" points="234.678,-384.192 227.002,-391.495 237.557,-390.573 234.678,-384.192"/>
<text text-anchor="middle" x="325.5" y="-453" font-family="Helvetica,sans-Serif" font-size="10.00"> compute_slope_max1</text>
<text text-anchor="middle" x="325.5" y="-442" font-family="Helvetica,sans-Serif" font-size="10.00">compute_slope_max2</text>
<text text-anchor="middle" x="325.5" y="-431" font-family="Helvetica,sans-Serif" font-size="10.00">compute_slope_min1</text>
<text text-anchor="middle" x="325.5" y="-420" font-family="Helvetica,sans-Serif" font-size="10.00">compute_value_min1</text>
<text text-anchor="middle" x="325.5" y="-409" font-family="Helvetica,sans-Serif" font-size="10.00">compute_slope_min2</text>
<text text-anchor="middle" x="325.5" y="-398" font-family="Helvetica,sans-Serif" font-size="10.00">compute_value_min2</text>
<text text-anchor="middle" x="325.5" y="-387" font-family="Helvetica,sans-Serif" font-size="10.00">coefficients_set</text>
<text text-anchor="middle" x="325.5" y="-376" font-family="Helvetica,sans-Serif" font-size="10.00">compute_value_max1</text>
<text text-anchor="middle" x="325.5" y="-365" font-family="Helvetica,sans-Serif" font-size="10.00">compute_value_max2</text>
</g>
<!-- Node5 -->
<g id="node5" class="node"><title>Node5</title>
<g id="a_node5"><a xlink:href="structsll__m__deboor__splines__1d_1_1sll__t__deboor__type.html" target="_top" xlink:title="sll_t_deboor_type">
<polygon fill="white" stroke="black" points="158.5,-195.5 158.5,-214.5 251.5,-214.5 251.5,-195.5 158.5,-195.5"/>
<text text-anchor="middle" x="205" y="-202.5" font-family="Helvetica,sans-Serif" font-size="10.00">sll_t_deboor_type</text>
</a>
</g>
</g>
<!-- Node5&#45;&gt;Node2 -->
<g id="edge4" class="edge"><title>Node5&#45;&gt;Node2</title>
<path fill="none" stroke="#9a32cd" stroke-dasharray="5,2" d="M261.768,-211.4C300.897,-215.89 353.071,-221.877 392.565,-226.409"/>
<polygon fill="#9a32cd" stroke="#9a32cd" points="261.942,-207.897 251.608,-210.234 261.144,-214.851 261.942,-207.897"/>
<text text-anchor="middle" x="325.5" y="-226" font-family="Helvetica,sans-Serif" font-size="10.00"> deboor</text>
</g>
<!-- Node6 -->
<g id="node6" class="node"><title>Node6</title>
<polygon fill="white" stroke="#bfbfbf" points="0,-220.5 0,-239.5 89,-239.5 89,-220.5 0,-220.5"/>
<text text-anchor="middle" x="44.5" y="-227.5" font-family="Helvetica,sans-Serif" font-size="10.00">integer(kind=i32)</text>
</g>
<!-- Node6&#45;&gt;Node2 -->
<g id="edge7" class="edge"><title>Node6&#45;&gt;Node2</title>
<path fill="none" stroke="#9a32cd" stroke-dasharray="5,2" d="M99.2601,-236.477C101.875,-236.679 104.465,-236.856 107,-237 225.92,-243.746 255.931,-240.173 375,-237 380.735,-236.847 386.715,-236.629 392.685,-236.372"/>
<polygon fill="#9a32cd" stroke="#9a32cd" points="99.3924,-232.975 89.1237,-235.583 98.7776,-239.948 99.3924,-232.975"/>
<text text-anchor="middle" x="205" y="-353" font-family="Helvetica,sans-Serif" font-size="10.00"> bc1_max</text>
<text text-anchor="middle" x="205" y="-342" font-family="Helvetica,sans-Serif" font-size="10.00">bc2_max</text>
<text text-anchor="middle" x="205" y="-331" font-family="Helvetica,sans-Serif" font-size="10.00">num_pts1</text>
<text text-anchor="middle" x="205" y="-320" font-family="Helvetica,sans-Serif" font-size="10.00">size_coeffs1</text>
<text text-anchor="middle" x="205" y="-309" font-family="Helvetica,sans-Serif" font-size="10.00">num_pts2</text>
<text text-anchor="middle" x="205" y="-298" font-family="Helvetica,sans-Serif" font-size="10.00">size_coeffs2</text>
<text text-anchor="middle" x="205" y="-287" font-family="Helvetica,sans-Serif" font-size="10.00">size_t1</text>
<text text-anchor="middle" x="205" y="-276" font-family="Helvetica,sans-Serif" font-size="10.00">size_t2</text>
<text text-anchor="middle" x="205" y="-265" font-family="Helvetica,sans-Serif" font-size="10.00">spline_degree1</text>
<text text-anchor="middle" x="205" y="-254" font-family="Helvetica,sans-Serif" font-size="10.00">spline_degree2</text>
<text text-anchor="middle" x="205" y="-243" font-family="Helvetica,sans-Serif" font-size="10.00">...</text>
</g>
<!-- Node6&#45;&gt;Node5 -->
<g id="edge5" class="edge"><title>Node6&#45;&gt;Node5</title>
<path fill="none" stroke="#9a32cd" stroke-dasharray="5,2" d="M91.1864,-218.127C96.4963,-216.965 101.852,-215.889 107,-215 123.683,-212.119 142.133,-209.963 158.424,-208.405"/>
<polygon fill="#9a32cd" stroke="#9a32cd" points="90.0621,-214.795 81.0994,-220.444 91.6292,-221.617 90.0621,-214.795"/>
<text text-anchor="middle" x="120.5" y="-229" font-family="Helvetica,sans-Serif" font-size="10.00"> j</text>
<text text-anchor="middle" x="120.5" y="-218" font-family="Helvetica,sans-Serif" font-size="10.00">ilo</text>
</g>
<!-- Node7 -->
<g id="node7" class="node"><title>Node7</title>
<polygon fill="white" stroke="#bfbfbf" points="6.5,-83.5 6.5,-102.5 82.5,-102.5 82.5,-83.5 6.5,-83.5"/>
<text text-anchor="middle" x="44.5" y="-90.5" font-family="Helvetica,sans-Serif" font-size="10.00">real(kind=f64)</text>
</g>
<!-- Node7&#45;&gt;Node2 -->
<g id="edge9" class="edge"><title>Node7&#45;&gt;Node2</title>
<path fill="none" stroke="#9a32cd" stroke-dasharray="5,2" d="M76.8983,-79.7297C119.333,-63.8121 196.728,-41.9781 258,-65 341.753,-96.4691 412.876,-182.876 439.155,-217.929"/>
<polygon fill="#9a32cd" stroke="#9a32cd" points="75.4497,-76.5375 67.3929,-83.4177 77.9818,-83.0635 75.4497,-76.5375"/>
<text text-anchor="middle" x="205" y="-178" font-family="Helvetica,sans-Serif" font-size="10.00"> coeff_splines</text>
<text text-anchor="middle" x="205" y="-167" font-family="Helvetica,sans-Serif" font-size="10.00">eta2_max</text>
<text text-anchor="middle" x="205" y="-156" font-family="Helvetica,sans-Serif" font-size="10.00">t1</text>
<text text-anchor="middle" x="205" y="-145" font-family="Helvetica,sans-Serif" font-size="10.00">t2</text>
<text text-anchor="middle" x="205" y="-134" font-family="Helvetica,sans-Serif" font-size="10.00">slope_max1</text>
<text text-anchor="middle" x="205" y="-123" font-family="Helvetica,sans-Serif" font-size="10.00">slope_max2</text>
<text text-anchor="middle" x="205" y="-112" font-family="Helvetica,sans-Serif" font-size="10.00">eta1_min</text>
<text text-anchor="middle" x="205" y="-101" font-family="Helvetica,sans-Serif" font-size="10.00">eta2_min</text>
<text text-anchor="middle" x="205" y="-90" font-family="Helvetica,sans-Serif" font-size="10.00">gtau_der1</text>
<text text-anchor="middle" x="205" y="-79" font-family="Helvetica,sans-Serif" font-size="10.00">value_min1</text>
<text text-anchor="middle" x="205" y="-68" font-family="Helvetica,sans-Serif" font-size="10.00">...</text>
</g>
<!-- Node7&#45;&gt;Node5 -->
<g id="edge6" class="edge"><title>Node7&#45;&gt;Node5</title>
<path fill="none" stroke="#9a32cd" stroke-dasharray="5,2" d="M62.8753,-109.783C83.1074,-128.725 118.097,-159.674 152,-181 160.753,-186.506 170.976,-191.499 180.031,-195.488"/>
<polygon fill="#9a32cd" stroke="#9a32cd" points="65.0604,-107.031 55.3945,-102.693 60.2454,-112.112 65.0604,-107.031"/>
<text text-anchor="middle" x="120.5" y="-182" font-family="Helvetica,sans-Serif" font-size="10.00"> deltal</text>
<text text-anchor="middle" x="120.5" y="-171" font-family="Helvetica,sans-Serif" font-size="10.00">deltar</text>
</g>
<!-- Node8 -->
<g id="node8" class="node"><title>Node8</title>
<polygon fill="white" stroke="#bfbfbf" points="160.5,-0.5 160.5,-19.5 249.5,-19.5 249.5,-0.5 160.5,-0.5"/>
<text text-anchor="middle" x="205" y="-7.5" font-family="Helvetica,sans-Serif" font-size="10.00">integer(kind=i64)</text>
</g>
<!-- Node8&#45;&gt;Node2 -->
<g id="edge8" class="edge"><title>Node8&#45;&gt;Node2</title>
<path fill="none" stroke="#9a32cd" stroke-dasharray="5,2" d="M259.955,-3.14558C296.163,-1.53588 342.926,-5.61751 375,-31 435.135,-78.5893 447.054,-179.494 449.416,-217.809"/>
<polygon fill="#9a32cd" stroke="#9a32cd" points="259.335,0.323465 249.565,-3.77362 259.758,-6.66378 259.335,0.323465"/>
<text text-anchor="middle" x="325.5" y="-34" font-family="Helvetica,sans-Serif" font-size="10.00"> bc_selector</text>
</g>
</g>
</svg>
        <g id="navigator" transform="translate(0 0)" fill="#404254">
                <rect fill="#f2f5e9" fill-opacity="0.5" stroke="#606060" stroke-width=".5" x="0" y="0" width="60" height="60"/>
                <use id="zoomplus" xlink:href="#zoomPlus" x="17" y="9" onmousedown="handleZoom(evt,'in')"/>
                <use id="zoomminus" xlink:href="#zoomMin" x="42" y="9" onmousedown="handleZoom(evt,'out')"/>
                <use id="reset" xlink:href="#resetDef" x="30" y="36" onmousedown="handleReset()"/>
                <g id="arrowUp" xlink:href="#dirArrow" transform="translate(30 24)" onmousedown="handlePan(0,-1)">
                  <use xlink:href="#rim" fill="#404040">
                        <set attributeName="fill" to="#808080" begin="arrowUp.mouseover" end="arrowUp.mouseout"/>
                  </use>
                  <path fill="none" stroke="white" stroke-width="1.5" d="M0,-3.0v7 M-2.5,-0.5L0,-3.0L2.5,-0.5"/>
                </g>
                <g id="arrowRight" xlink:href="#dirArrow" transform="rotate(90) translate(36 -43)" onmousedown="handlePan(1,0)">
                  <use xlink:href="#rim" fill="#404040">
                        <set attributeName="fill" to="#808080" begin="arrowRight.mouseover" end="arrowRight.mouseout"/>
                  </use>
                  <path fill="none" stroke="white" stroke-width="1.5" d="M0,-3.0v7 M-2.5,-0.5L0,-3.0L2.5,-0.5"/>
                </g>
                <g id="arrowDown" xlink:href="#dirArrow" transform="rotate(180) translate(-30 -48)" onmousedown="handlePan(0,1)">
                  <use xlink:href="#rim" fill="#404040">
                        <set attributeName="fill" to="#808080" begin="arrowDown.mouseover" end="arrowDown.mouseout"/>
                  </use>
                  <path fill="none" stroke="white" stroke-width="1.5" d="M0,-3.0v7 M-2.5,-0.5L0,-3.0L2.5,-0.5"/>
                </g>
                <g id="arrowLeft" xlink:href="#dirArrow" transform="rotate(270) translate(-36 17)" onmousedown="handlePan(-1,0)">
                  <use xlink:href="#rim" fill="#404040">
                        <set attributeName="fill" to="#808080" begin="arrowLeft.mouseover" end="arrowLeft.mouseout"/>
                  </use>
                  <path fill="none" stroke="white" stroke-width="1.5" d="M0,-3.0v7 M-2.5,-0.5L0,-3.0L2.5,-0.5"/>
                </g>
        </g>
        <svg viewBox="0 0 15 15" width="100%" height="30px" preserveAspectRatio="xMaxYMin meet">
         <g id="arrow_out" transform="scale(0.3 0.3)">
          <a xlink:href="structsll__m__arbitrary__degree__spline__interpolator__2d_1_1sll__t__arbitrary__degree__spline__8d6185ce3deb4826e4a397d8dfb2894a_org.svg" target="_base">
           <rect id="button" ry="5" rx="5" y="6" x="6" height="38" width="38"
                fill="#f2f5e9" fill-opacity="0.5" stroke="#606060" stroke-width="1.0"/>
           <path id="arrow"
             d="M 11.500037,31.436501 C 11.940474,20.09759 22.043105,11.32322 32.158766,21.979434 L 37.068811,17.246167 C 37.068811,17.246167 37.088388,32 37.088388,32 L 22.160133,31.978069 C 22.160133,31.978069 26.997745,27.140456 26.997745,27.140456 C 18.528582,18.264221 13.291696,25.230495 11.500037,31.436501 z"
             style="fill:#404040;"/>
          </a>
         </g>
        </svg>
</svg>
