<?xml version="1.0" encoding="UTF-8" standalone="no"?>
<!DOCTYPE svg PUBLIC "-//W3C//DTD SVG 1.1//EN"
 "http://www.w3.org/Graphics/SVG/1.1/DTD/svg11.dtd">
<!-- Generated by graphviz version 2.43.0 (0)
 -->
<!-- Title: fft_hierarchical Pages: 1 -->
<svg width="398pt" height="217pt"
 viewBox="0.00 0.00 397.50 217.00" xmlns="http://www.w3.org/2000/svg" xmlns:xlink="http://www.w3.org/1999/xlink">
<g id="graph0" class="graph" transform="scale(1 1) rotate(0) translate(4 213)">
<title>fft_hierarchical</title>
<polygon fill="white" stroke="transparent" points="-4,4 -4,-213 393.5,-213 393.5,4 -4,4"/>
<!-- Node1 -->
<g id="node1" class="node">
<title>Node1</title>
<g id="a_node1"><a xlink:title="class to hold values for hierarchical fft computations">
<polygon fill="#bfbfbf" stroke="black" points="150,-0.5 150,-19.5 239,-19.5 239,-0.5 150,-0.5"/>
<text text-anchor="middle" x="194.5" y="-7.5" font-family="Helvetica,sans-Serif" font-size="10.00">fft_hierarchical</text>
</a>
</g>
</g>
<!-- Node2 -->
<g id="node2" class="node">
<title>Node2</title>
<g id="a_node2"><a xlink:href="structsll__m__fft_1_1sll__t__fft.html" target="_top" xlink:title="Type for FFT plan in SeLaLib.">
<polygon fill="white" stroke="black" points="45,-84 45,-103 98,-103 98,-84 45,-84"/>
<text text-anchor="middle" x="71.5" y="-91" font-family="Helvetica,sans-Serif" font-size="10.00">sll_t_fft</text>
</a>
</g>
</g>
<!-- Node2&#45;&gt;Node1 -->
<g id="edge1" class="edge">
<title>Node2&#45;&gt;Node1</title>
<path fill="none" stroke="#9a32cd" stroke-dasharray="5,2" d="M93.29,-78.06C118.85,-61.12 160.41,-33.59 181.43,-19.66"/>
<polygon fill="#9a32cd" stroke="#9a32cd" points="91.07,-75.34 84.66,-83.78 94.93,-81.17 91.07,-75.34"/>
<text text-anchor="middle" x="159" y="-52" font-family="Helvetica,sans-Serif" font-size="10.00"> fw</text>
<text text-anchor="middle" x="159" y="-41" font-family="Helvetica,sans-Serif" font-size="10.00">bw</text>
</g>
<!-- Node3 -->
<g id="node3" class="node">
<title>Node3</title>
<g id="a_node3"><a xlink:title=" ">
<polygon fill="white" stroke="#bfbfbf" points="0,-189.5 0,-208.5 49,-208.5 49,-189.5 0,-189.5"/>
<text text-anchor="middle" x="24.5" y="-196.5" font-family="Helvetica,sans-Serif" font-size="10.00">logical</text>
</a>
</g>
</g>
<!-- Node3&#45;&gt;Node2 -->
<g id="edge2" class="edge">
<title>Node3&#45;&gt;Node2</title>
<path fill="none" stroke="#9a32cd" stroke-dasharray="5,2" d="M25.2,-179.08C26.45,-164.15 29.77,-143.22 38.5,-127 43.61,-117.51 52.41,-109.05 59.64,-103.14"/>
<polygon fill="#9a32cd" stroke="#9a32cd" points="21.7,-178.95 24.6,-189.14 28.69,-179.37 21.7,-178.95"/>
<text text-anchor="middle" x="67.5" y="-146.5" font-family="Helvetica,sans-Serif" font-size="10.00"> normalized</text>
</g>
<!-- Node4 -->
<g id="node4" class="node">
<title>Node4</title>
<g id="a_node4"><a xlink:title=" ">
<polygon fill="white" stroke="#bfbfbf" points="67,-189.5 67,-208.5 170,-208.5 170,-189.5 67,-189.5"/>
<text text-anchor="middle" x="118.5" y="-196.5" font-family="Helvetica,sans-Serif" font-size="10.00">integer(kind=i32)</text>
</a>
</g>
</g>
<!-- Node4&#45;&gt;Node2 -->
<g id="edge3" class="edge">
<title>Node4&#45;&gt;Node2</title>
<path fill="none" stroke="#9a32cd" stroke-dasharray="5,2" d="M114.65,-179.39C111.16,-164.65 105.21,-143.8 96.5,-127 91.91,-118.15 84.87,-109.26 79.42,-103.02"/>
<polygon fill="#9a32cd" stroke="#9a32cd" points="111.27,-180.31 116.85,-189.31 118.1,-178.79 111.27,-180.31"/>
<text text-anchor="middle" x="152" y="-163" font-family="Helvetica,sans-Serif" font-size="10.00"> problem_shape</text>
<text text-anchor="middle" x="152" y="-152" font-family="Helvetica,sans-Serif" font-size="10.00">direction</text>
<text text-anchor="middle" x="152" y="-141" font-family="Helvetica,sans-Serif" font-size="10.00">problem_rank</text>
<text text-anchor="middle" x="152" y="-130" font-family="Helvetica,sans-Serif" font-size="10.00">transform_type</text>
</g>
<!-- Node5 -->
<g id="node5" class="node">
<title>Node5</title>
<g id="a_node5"><a xlink:title=" ">
<polygon fill="white" stroke="#bfbfbf" points="116,-78.5 116,-108.5 273,-108.5 273,-78.5 116,-78.5"/>
<text text-anchor="start" x="124" y="-96.5" font-family="Helvetica,sans-Serif" font-size="10.00">complex(c_double_complex)</text>
<text text-anchor="middle" x="194.5" y="-85.5" font-family="Helvetica,sans-Serif" font-size="10.00">, dimension(:), pointer</text>
</a>
</g>
</g>
<!-- Node5&#45;&gt;Node1 -->
<g id="edge4" class="edge">
<title>Node5&#45;&gt;Node1</title>
<path fill="none" stroke="#9a32cd" stroke-dasharray="5,2" d="M194.5,-68.25C194.5,-51.78 194.5,-30.99 194.5,-19.54"/>
<polygon fill="#9a32cd" stroke="#9a32cd" points="191,-68.3 194.5,-78.3 198,-68.3 191,-68.3"/>
<text text-anchor="middle" x="202.5" y="-52" font-family="Helvetica,sans-Serif" font-size="10.00"> in</text>
<text text-anchor="middle" x="202.5" y="-41" font-family="Helvetica,sans-Serif" font-size="10.00">out</text>
</g>
<!-- Node6 -->
<g id="node6" class="node">
<title>Node6</title>
<g id="a_node6"><a xlink:title=" ">
<polygon fill="white" stroke="#bfbfbf" points="291.5,-84 291.5,-103 389.5,-103 389.5,-84 291.5,-84"/>
<text text-anchor="middle" x="340.5" y="-91" font-family="Helvetica,sans-Serif" font-size="10.00">integer(c_size_t)</text>
</a>
</g>
</g>
<!-- Node6&#45;&gt;Node1 -->
<g id="edge5" class="edge">
<title>Node6&#45;&gt;Node1</title>
<path fill="none" stroke="#9a32cd" stroke-dasharray="5,2" d="M316.13,-78.9C285.96,-62.06 235.47,-33.87 210.08,-19.7"/>
<polygon fill="#9a32cd" stroke="#9a32cd" points="314.71,-82.11 325.15,-83.93 318.13,-76 314.71,-82.11"/>
<text text-anchor="middle" x="298" y="-52" font-family="Helvetica,sans-Serif" font-size="10.00"> sz_out</text>
<text text-anchor="middle" x="298" y="-41" font-family="Helvetica,sans-Serif" font-size="10.00">sz_in</text>
</g>
</g>
</svg>
