<?xml version="1.0" encoding="UTF-8" standalone="no"?>
<!DOCTYPE svg PUBLIC "-//W3C//DTD SVG 1.1//EN"
 "http://www.w3.org/Graphics/SVG/1.1/DTD/svg11.dtd">
<!-- Generated by graphviz version 2.43.0 (0)
 -->
<!-- Title: sll_t_params_cos_gaussian_screwpinch Pages: 1 -->
<svg width="369pt" height="373pt"
 viewBox="0.00 0.00 369.00 373.00" xmlns="http://www.w3.org/2000/svg" xmlns:xlink="http://www.w3.org/1999/xlink">
<g id="graph0" class="graph" transform="scale(1 1) rotate(0) translate(4 369)">
<title>sll_t_params_cos_gaussian_screwpinch</title>
<polygon fill="white" stroke="transparent" points="-4,4 -4,-369 365,-369 365,4 -4,4"/>
<!-- Node1 -->
<g id="node1" class="node">
<title>Node1</title>
<g id="a_node1"><a xlink:title=" ">
<polygon fill="#bfbfbf" stroke="black" points="154,-0.5 154,-30.5 303,-30.5 303,-0.5 154,-0.5"/>
<text text-anchor="start" x="162" y="-18.5" font-family="Helvetica,sans-Serif" font-size="10.00">sll_t_params_cos_gaussian</text>
<text text-anchor="middle" x="228.5" y="-7.5" font-family="Helvetica,sans-Serif" font-size="10.00">_screwpinch</text>
</a>
</g>
</g>
<!-- Node2 -->
<g id="node2" class="node">
<title>Node2</title>
<g id="a_node2"><a xlink:href="structsll__m__initial__distribution_1_1sll__t__params__cos__gaussian.html" target="_top" xlink:title="Data type for distribution function with (multiple) Gaussians in v and one plus cosine perturbations ...">
<polygon fill="white" stroke="black" points="92,-68.5 92,-87.5 241,-87.5 241,-68.5 92,-68.5"/>
<text text-anchor="middle" x="166.5" y="-75.5" font-family="Helvetica,sans-Serif" font-size="10.00">sll_t_params_cos_gaussian</text>
</a>
</g>
</g>
<!-- Node2&#45;&gt;Node1 -->
<g id="edge1" class="edge">
<title>Node2&#45;&gt;Node1</title>
<path fill="none" stroke="midnightblue" d="M182.79,-61.11C192.43,-51.69 204.55,-39.87 213.89,-30.76"/>
<polygon fill="midnightblue" stroke="midnightblue" points="180.1,-58.84 175.38,-68.33 184.98,-63.85 180.1,-58.84"/>
</g>
<!-- Node3 -->
<g id="node3" class="node">
<title>Node3</title>
<g id="a_node3"><a xlink:href="structsll__m__initial__distribution_1_1sll__c__distribution__params.html" target="_top" xlink:title="Abstract data type for parameters of initial distribution.">
<polygon fill="white" stroke="black" points="84,-151 84,-181 183,-181 183,-151 84,-151"/>
<text text-anchor="start" x="92" y="-169" font-family="Helvetica,sans-Serif" font-size="10.00">sll_c_distribution</text>
<text text-anchor="middle" x="133.5" y="-158" font-family="Helvetica,sans-Serif" font-size="10.00">_params</text>
</a>
</g>
</g>
<!-- Node3&#45;&gt;Node2 -->
<g id="edge2" class="edge">
<title>Node3&#45;&gt;Node2</title>
<path fill="none" stroke="midnightblue" d="M142.67,-141.09C149.49,-123.33 158.4,-100.11 163.16,-87.71"/>
<polygon fill="midnightblue" stroke="midnightblue" points="139.26,-140.21 138.95,-150.8 145.8,-142.72 139.26,-140.21"/>
</g>
<!-- Node4 -->
<g id="node4" class="node">
<title>Node4</title>
<g id="a_node4"><a xlink:title=" ">
<polygon fill="white" stroke="#bfbfbf" points="0,-345.5 0,-364.5 103,-364.5 103,-345.5 0,-345.5"/>
<text text-anchor="middle" x="51.5" y="-352.5" font-family="Helvetica,sans-Serif" font-size="10.00">integer(kind=i32)</text>
</a>
</g>
</g>
<!-- Node4&#45;&gt;Node2 -->
<g id="edge5" class="edge">
<title>Node4&#45;&gt;Node2</title>
<path fill="none" stroke="#9a32cd" stroke-dasharray="5,2" d="M44.6,-335.75C31.25,-297.14 6.32,-205.7 43.5,-144 62.01,-113.28 100.44,-96.33 129.44,-87.51"/>
<polygon fill="#9a32cd" stroke="#9a32cd" points="41.31,-336.95 48,-345.17 47.9,-334.57 41.31,-336.95"/>
<text text-anchor="middle" x="59" y="-163.5" font-family="Helvetica,sans-Serif" font-size="10.00"> n_cos</text>
</g>
<!-- Node4&#45;&gt;Node3 -->
<g id="edge3" class="edge">
<title>Node4&#45;&gt;Node3</title>
<path fill="none" stroke="#9a32cd" stroke-dasharray="5,2" d="M49.06,-335.22C46.18,-305.33 44.62,-246.19 70.5,-206 77.32,-195.4 88.16,-187.2 98.93,-181.12"/>
<polygon fill="#9a32cd" stroke="#9a32cd" points="45.62,-335.93 50.22,-345.47 52.58,-335.14 45.62,-335.93"/>
<text text-anchor="middle" x="101" y="-269.5" font-family="Helvetica,sans-Serif" font-size="10.00"> dims</text>
<text text-anchor="middle" x="101" y="-258.5" font-family="Helvetica,sans-Serif" font-size="10.00">n_gaussians</text>
</g>
<!-- Node5 -->
<g id="node5" class="node">
<title>Node5</title>
<g id="a_node5"><a xlink:title=" ">
<polygon fill="white" stroke="#bfbfbf" points="175.5,-345.5 175.5,-364.5 263.5,-364.5 263.5,-345.5 175.5,-345.5"/>
<text text-anchor="middle" x="219.5" y="-352.5" font-family="Helvetica,sans-Serif" font-size="10.00">real(kind=f64)</text>
</a>
</g>
</g>
<!-- Node5&#45;&gt;Node2 -->
<g id="edge6" class="edge">
<title>Node5&#45;&gt;Node2</title>
<path fill="none" stroke="#9a32cd" stroke-dasharray="5,2" d="M219.01,-335.03C217.62,-297.68 212.22,-212.28 191.5,-144 185.25,-123.41 175.61,-100.03 170.31,-87.69"/>
<polygon fill="#9a32cd" stroke="#9a32cd" points="215.53,-335.5 219.34,-345.39 222.52,-335.28 215.53,-335.5"/>
<text text-anchor="middle" x="230.5" y="-180" font-family="Helvetica,sans-Serif" font-size="10.00"> alpha</text>
<text text-anchor="middle" x="230.5" y="-169" font-family="Helvetica,sans-Serif" font-size="10.00">kx</text>
<text text-anchor="middle" x="230.5" y="-158" font-family="Helvetica,sans-Serif" font-size="10.00">modnum</text>
<text text-anchor="middle" x="230.5" y="-147" font-family="Helvetica,sans-Serif" font-size="10.00">phase_shift</text>
</g>
<!-- Node5&#45;&gt;Node3 -->
<g id="edge4" class="edge">
<title>Node5&#45;&gt;Node3</title>
<path fill="none" stroke="#9a32cd" stroke-dasharray="5,2" d="M172.52,-341.06C165.99,-337.45 159.99,-332.86 155.5,-327 138.06,-304.25 134.44,-215.75 133.69,-181.06"/>
<polygon fill="#9a32cd" stroke="#9a32cd" points="171.13,-344.28 181.66,-345.39 174.13,-337.95 171.13,-344.28"/>
<text text-anchor="middle" x="180.5" y="-280.5" font-family="Helvetica,sans-Serif" font-size="10.00"> delta</text>
<text text-anchor="middle" x="180.5" y="-269.5" font-family="Helvetica,sans-Serif" font-size="10.00">normal</text>
<text text-anchor="middle" x="180.5" y="-258.5" font-family="Helvetica,sans-Serif" font-size="10.00">v_mean</text>
<text text-anchor="middle" x="180.5" y="-247.5" font-family="Helvetica,sans-Serif" font-size="10.00">v_thermal</text>
</g>
<!-- Node6 -->
<g id="node6" class="node">
<title>Node6</title>
<g id="a_node6"><a xlink:href="structsll__m__profile__functions_1_1sll__t__profile__functions.html" target="_top" xlink:title=" ">
<polygon fill="white" stroke="black" points="238,-106.5 238,-125.5 361,-125.5 361,-106.5 238,-106.5"/>
<text text-anchor="middle" x="299.5" y="-113.5" font-family="Helvetica,sans-Serif" font-size="10.00">sll_t_profile_functions</text>
</a>
</g>
</g>
<!-- Node5&#45;&gt;Node6 -->
<g id="edge8" class="edge">
<title>Node5&#45;&gt;Node6</title>
<path fill="none" stroke="#9a32cd" stroke-dasharray="5,2" d="M229.24,-336.18C230.75,-333.16 232.23,-330.02 233.5,-327 258.78,-267.04 260.45,-250.22 279.5,-188 286.32,-165.71 293.55,-139.23 297.16,-125.78"/>
<polygon fill="#9a32cd" stroke="#9a32cd" points="226.07,-334.69 224.53,-345.17 232.27,-337.94 226.07,-334.69"/>
<text text-anchor="middle" x="289.5" y="-319" font-family="Helvetica,sans-Serif" font-size="10.00"> a</text>
<text text-anchor="middle" x="289.5" y="-308" font-family="Helvetica,sans-Serif" font-size="10.00">kr</text>
<text text-anchor="middle" x="289.5" y="-297" font-family="Helvetica,sans-Serif" font-size="10.00">kte</text>
<text text-anchor="middle" x="289.5" y="-286" font-family="Helvetica,sans-Serif" font-size="10.00">kti</text>
<text text-anchor="middle" x="289.5" y="-275" font-family="Helvetica,sans-Serif" font-size="10.00">rbar</text>
<text text-anchor="middle" x="289.5" y="-264" font-family="Helvetica,sans-Serif" font-size="10.00">rhobar</text>
<text text-anchor="middle" x="289.5" y="-253" font-family="Helvetica,sans-Serif" font-size="10.00">tebar</text>
<text text-anchor="middle" x="289.5" y="-242" font-family="Helvetica,sans-Serif" font-size="10.00">tibar</text>
<text text-anchor="middle" x="289.5" y="-231" font-family="Helvetica,sans-Serif" font-size="10.00">wr</text>
<text text-anchor="middle" x="289.5" y="-220" font-family="Helvetica,sans-Serif" font-size="10.00">wte</text>
<text text-anchor="middle" x="289.5" y="-209" font-family="Helvetica,sans-Serif" font-size="10.00">...</text>
</g>
<!-- Node6&#45;&gt;Node1 -->
<g id="edge7" class="edge">
<title>Node6&#45;&gt;Node1</title>
<path fill="none" stroke="#9a32cd" stroke-dasharray="5,2" d="M287.2,-97.94C273.49,-78.92 251.56,-48.49 238.74,-30.71"/>
<polygon fill="#9a32cd" stroke="#9a32cd" points="284.51,-100.19 293.2,-106.26 290.19,-96.1 284.51,-100.19"/>
<text text-anchor="middle" x="295.5" y="-75.5" font-family="Helvetica,sans-Serif" font-size="10.00"> profile</text>
</g>
</g>
</svg>
