<?xml version="1.0" encoding="UTF-8" standalone="no"?>
<!DOCTYPE svg PUBLIC "-//W3C//DTD SVG 1.1//EN"
 "http://www.w3.org/Graphics/SVG/1.1/DTD/svg11.dtd">
<!-- Generated by graphviz version 2.40.1 (20161225.0304)
 -->
<!-- Title: sll_t_plan_gyroaverage_polar Pages: 1 -->
<svg width="275pt" height="216pt"
 viewBox="0.00 0.00 274.50 216.00" xmlns="http://www.w3.org/2000/svg" xmlns:xlink="http://www.w3.org/1999/xlink">
<g id="graph0" class="graph" transform="scale(1 1) rotate(0) translate(4 212)">
<title>sll_t_plan_gyroaverage_polar</title>
<polygon fill="#ffffff" stroke="transparent" points="-4,4 -4,-212 270.5,-212 270.5,4 -4,4"/>
<!-- Node1 -->
<g id="node1" class="node">
<title>Node1</title>
<polygon fill="#bfbfbf" stroke="#000000" points="46.5,-.5 46.5,-30.5 176.5,-30.5 176.5,-.5 46.5,-.5"/>
<text text-anchor="start" x="54.5" y="-18.5" font-family="Helvetica,sans-Serif" font-size="10.00" fill="#000000">sll_t_plan_gyroaverage</text>
<text text-anchor="middle" x="111.5" y="-7.5" font-family="Helvetica,sans-Serif" font-size="10.00" fill="#000000">_polar</text>
</g>
<!-- Node2 -->
<g id="node2" class="node">
<title>Node2</title>
<polygon fill="#ffffff" stroke="#bfbfbf" points="0,-188.5 0,-207.5 103,-207.5 103,-188.5 0,-188.5"/>
<text text-anchor="middle" x="51.5" y="-195.5" font-family="Helvetica,sans-Serif" font-size="10.00" fill="#000000">integer(kind=i32)</text>
</g>
<!-- Node2&#45;&gt;Node1 -->
<g id="edge1" class="edge">
<title>Node2&#45;&gt;Node1</title>
<path fill="none" stroke="#9a32cd" stroke-dasharray="5,2" d="M45.9119,-178.7537C38.3779,-148.7264 28.4844,-89.9363 52.5,-49 56.9702,-41.3802 63.8852,-35.3498 71.4287,-30.6315"/>
<polygon fill="#9a32cd" stroke="#9a32cd" points="42.5368,-179.6807 48.5136,-188.4287 49.2966,-177.8628 42.5368,-179.6807"/>
<text text-anchor="middle" x="101" y="-129" font-family="Helvetica,sans-Serif" font-size="10.00" fill="#000000"> interp_degree</text>
<text text-anchor="middle" x="101" y="-118" font-family="Helvetica,sans-Serif" font-size="10.00" fill="#000000">pre_compute_n</text>
<text text-anchor="middle" x="101" y="-107" font-family="Helvetica,sans-Serif" font-size="10.00" fill="#000000">nc</text>
<text text-anchor="middle" x="101" y="-96" font-family="Helvetica,sans-Serif" font-size="10.00" fill="#000000">n_points</text>
<text text-anchor="middle" x="101" y="-85" font-family="Helvetica,sans-Serif" font-size="10.00" fill="#000000">pre_compute_index</text>
</g>
<!-- Node3 -->
<g id="node3" class="node">
<title>Node3</title>
<polygon fill="#ffffff" stroke="#bfbfbf" points="127.5,-188.5 127.5,-207.5 215.5,-207.5 215.5,-188.5 127.5,-188.5"/>
<text text-anchor="middle" x="171.5" y="-195.5" font-family="Helvetica,sans-Serif" font-size="10.00" fill="#000000">real(kind=f64)</text>
</g>
<!-- Node3&#45;&gt;Node1 -->
<g id="edge2" class="edge">
<title>Node3&#45;&gt;Node1</title>
<path fill="none" stroke="#9a32cd" stroke-dasharray="5,2" d="M172.744,-178.2218C173.7439,-148.3473 172.1805,-90.7719 149.5,-49 145.7231,-42.0439 139.9052,-35.8383 133.9481,-30.7153"/>
<polygon fill="#9a32cd" stroke="#9a32cd" points="169.2473,-178.0712 172.2739,-188.2245 176.2396,-178.3999 169.2473,-178.0712"/>
<text text-anchor="middle" x="219.5" y="-162" font-family="Helvetica,sans-Serif" font-size="10.00" fill="#000000"> eta_max</text>
<text text-anchor="middle" x="219.5" y="-151" font-family="Helvetica,sans-Serif" font-size="10.00" fill="#000000">lunat</text>
<text text-anchor="middle" x="219.5" y="-140" font-family="Helvetica,sans-Serif" font-size="10.00" fill="#000000">points</text>
<text text-anchor="start" x="172.5" y="-129" font-family="Helvetica,sans-Serif" font-size="10.00" fill="#000000">pre_compute_coeff</text>
<text text-anchor="middle" x="219.5" y="-118" font-family="Helvetica,sans-Serif" font-size="10.00" fill="#000000">_spl</text>
<text text-anchor="middle" x="219.5" y="-107" font-family="Helvetica,sans-Serif" font-size="10.00" fill="#000000">deriv</text>
<text text-anchor="start" x="172.5" y="-96" font-family="Helvetica,sans-Serif" font-size="10.00" fill="#000000">pre_compute</text>
<text text-anchor="middle" x="219.5" y="-85" font-family="Helvetica,sans-Serif" font-size="10.00" fill="#000000">_coeff</text>
<text text-anchor="middle" x="219.5" y="-74" font-family="Helvetica,sans-Serif" font-size="10.00" fill="#000000">eta_min</text>
<text text-anchor="middle" x="219.5" y="-63" font-family="Helvetica,sans-Serif" font-size="10.00" fill="#000000">luper</text>
<text text-anchor="middle" x="219.5" y="-52" font-family="Helvetica,sans-Serif" font-size="10.00" fill="#000000">a_fft</text>
</g>
</g>
</svg>
