<?xml version="1.0" encoding="UTF-8" standalone="no"?>
<!DOCTYPE svg PUBLIC "-//W3C//DTD SVG 1.1//EN"
 "http://www.w3.org/Graphics/SVG/1.1/DTD/svg11.dtd">
<!-- Generated by graphviz version 2.38.0 (20140413.2041)
 -->
<!-- Title: sll_t_cubic_spline_2d Pages: 1 -->
<svg width="370pt" height="216pt"
 viewBox="0.00 0.00 369.50 216.00" xmlns="http://www.w3.org/2000/svg" xmlns:xlink="http://www.w3.org/1999/xlink">
<g id="graph0" class="graph" transform="scale(1 1) rotate(0) translate(4 212)">
<title>sll_t_cubic_spline_2d</title>
<polygon fill="white" stroke="none" points="-4,4 -4,-212 365.5,-212 365.5,4 -4,4"/>
<!-- Node1 -->
<g id="node1" class="node"><title>Node1</title>
<polygon fill="#bfbfbf" stroke="black" points="92.5,-0.5 92.5,-19.5 202.5,-19.5 202.5,-0.5 92.5,-0.5"/>
<text text-anchor="middle" x="147.5" y="-7.5" font-family="Helvetica,sans-Serif" font-size="10.00">sll_t_cubic_spline_2d</text>
</g>
<!-- Node2 -->
<g id="node2" class="node"><title>Node2</title>
<polygon fill="white" stroke="#bfbfbf" points="0,-188.5 0,-207.5 89,-207.5 89,-188.5 0,-188.5"/>
<text text-anchor="middle" x="44.5" y="-195.5" font-family="Helvetica,sans-Serif" font-size="10.00">integer(kind=i32)</text>
</g>
<!-- Node2&#45;&gt;Node1 -->
<g id="edge1" class="edge"><title>Node2&#45;&gt;Node1</title>
<path fill="none" stroke="#9a32cd" stroke-dasharray="5,2" d="M44.4441,-177.908C45.35,-145.39 51.6828,-78.8223 86.5,-38 93.7148,-29.5408 104.097,-23.6292 114.256,-19.5439"/>
<polygon fill="#9a32cd" stroke="#9a32cd" points="40.9403,-178.194 44.3132,-188.237 47.9398,-178.282 40.9403,-178.194"/>
<text text-anchor="middle" x="115" y="-118" font-family="Helvetica,sans-Serif" font-size="10.00"> num_pts_x1</text>
<text text-anchor="middle" x="115" y="-107" font-family="Helvetica,sans-Serif" font-size="10.00">num_pts_x2</text>
<text text-anchor="middle" x="115" y="-96" font-family="Helvetica,sans-Serif" font-size="10.00">x1_bc_type</text>
<text text-anchor="middle" x="115" y="-85" font-family="Helvetica,sans-Serif" font-size="10.00">x2_bc_type</text>
</g>
<!-- Node3 -->
<g id="node3" class="node"><title>Node3</title>
<polygon fill="white" stroke="#bfbfbf" points="107.5,-188.5 107.5,-207.5 187.5,-207.5 187.5,-188.5 107.5,-188.5"/>
<text text-anchor="middle" x="147.5" y="-195.5" font-family="Helvetica,sans-Serif" font-size="10.00">logical, private</text>
</g>
<!-- Node3&#45;&gt;Node1 -->
<g id="edge2" class="edge"><title>Node3&#45;&gt;Node1</title>
<path fill="none" stroke="#9a32cd" stroke-dasharray="5,2" d="M147.5,-177.86C147.5,-138.211 147.5,-48.4172 147.5,-19.8812"/>
<polygon fill="#9a32cd" stroke="#9a32cd" points="144,-178.029 147.5,-188.029 151,-178.029 144,-178.029"/>
<text text-anchor="middle" x="205" y="-118" font-family="Helvetica,sans-Serif" font-size="10.00"> compute_slopes_x1_max</text>
<text text-anchor="middle" x="205" y="-107" font-family="Helvetica,sans-Serif" font-size="10.00">compute_slopes_x2_max</text>
<text text-anchor="middle" x="205" y="-96" font-family="Helvetica,sans-Serif" font-size="10.00">compute_slopes_x1_min</text>
<text text-anchor="middle" x="205" y="-85" font-family="Helvetica,sans-Serif" font-size="10.00">compute_slopes_x2_min</text>
</g>
<!-- Node4 -->
<g id="node4" class="node"><title>Node4</title>
<polygon fill="white" stroke="#bfbfbf" points="247.5,-188.5 247.5,-207.5 323.5,-207.5 323.5,-188.5 247.5,-188.5"/>
<text text-anchor="middle" x="285.5" y="-195.5" font-family="Helvetica,sans-Serif" font-size="10.00">real(kind=f64)</text>
</g>
<!-- Node4&#45;&gt;Node1 -->
<g id="edge3" class="edge"><title>Node4&#45;&gt;Node1</title>
<path fill="none" stroke="#9a32cd" stroke-dasharray="5,2" d="M289.013,-178.356C294.043,-145.489 299.127,-77.0333 263.5,-38 254.997,-28.6839 228.253,-22.1152 202.586,-17.7911"/>
<polygon fill="#9a32cd" stroke="#9a32cd" points="285.533,-177.945 287.303,-188.391 292.433,-179.121 285.533,-177.945"/>
<text text-anchor="middle" x="327" y="-162" font-family="Helvetica,sans-Serif" font-size="10.00"> d1</text>
<text text-anchor="middle" x="327" y="-151" font-family="Helvetica,sans-Serif" font-size="10.00">x2_min</text>
<text text-anchor="middle" x="327" y="-140" font-family="Helvetica,sans-Serif" font-size="10.00">x1_max</text>
<text text-anchor="middle" x="327" y="-129" font-family="Helvetica,sans-Serif" font-size="10.00">x1_min_slopes</text>
<text text-anchor="middle" x="327" y="-118" font-family="Helvetica,sans-Serif" font-size="10.00">d2</text>
<text text-anchor="middle" x="327" y="-107" font-family="Helvetica,sans-Serif" font-size="10.00">x2_max</text>
<text text-anchor="start" x="292.5" y="-96" font-family="Helvetica,sans-Serif" font-size="10.00">x2_min_slopes</text>
<text text-anchor="middle" x="327" y="-85" font-family="Helvetica,sans-Serif" font-size="10.00">_coeffs</text>
<text text-anchor="middle" x="327" y="-74" font-family="Helvetica,sans-Serif" font-size="10.00">x2_rdelta</text>
<text text-anchor="middle" x="327" y="-63" font-family="Helvetica,sans-Serif" font-size="10.00">x2_max_slopes</text>
<text text-anchor="middle" x="327" y="-52" font-family="Helvetica,sans-Serif" font-size="10.00">x1_delta</text>
<text text-anchor="middle" x="327" y="-41" font-family="Helvetica,sans-Serif" font-size="10.00">...</text>
</g>
</g>
</svg>
