<?xml version="1.0" encoding="UTF-8" standalone="no"?>
<!DOCTYPE svg PUBLIC "-//W3C//DTD SVG 1.1//EN"
 "http://www.w3.org/Graphics/SVG/1.1/DTD/svg11.dtd">
<!-- Generated by graphviz version 2.38.0 (20140413.2041)
 -->
<!-- Title: sll_t_spline_pp_3d Pages: 1 -->
<svg width="232pt" height="230pt"
 viewBox="0.00 0.00 231.50 230.00" xmlns="http://www.w3.org/2000/svg" xmlns:xlink="http://www.w3.org/1999/xlink">
<g id="graph0" class="graph" transform="scale(1 1) rotate(0) translate(4 226)">
<title>sll_t_spline_pp_3d</title>
<polygon fill="white" stroke="none" points="-4,4 -4,-226 227.5,-226 227.5,4 -4,4"/>
<!-- Node1 -->
<g id="node1" class="node"><title>Node1</title>
<polygon fill="#bfbfbf" stroke="black" points="106,-0.5 106,-19.5 203,-19.5 203,-0.5 106,-0.5"/>
<text text-anchor="middle" x="154.5" y="-7.5" font-family="Helvetica,sans-Serif" font-size="10.00">sll_t_spline_pp_3d</text>
</g>
<!-- Node2 -->
<g id="node2" class="node"><title>Node2</title>
<g id="a_node2"><a xlink:href="structsll__m__splines__pp_1_1sll__t__spline__pp__1d.html" target="_top" xlink:title="arbitrary degree 1d spline ">
<polygon fill="white" stroke="black" points="46,-96 46,-115 143,-115 143,-96 46,-96"/>
<text text-anchor="middle" x="94.5" y="-103" font-family="Helvetica,sans-Serif" font-size="10.00">sll_t_spline_pp_1d</text>
</a>
</g>
</g>
<!-- Node2&#45;&gt;Node1 -->
<g id="edge1" class="edge"><title>Node2&#45;&gt;Node1</title>
<path fill="none" stroke="#9a32cd" stroke-dasharray="5,2" d="M103.172,-86.7208C110.154,-72.9911 120.576,-53.7422 131.5,-38 135.994,-31.5246 141.744,-24.7746 146.37,-19.6434"/>
<polygon fill="#9a32cd" stroke="#9a32cd" points="99.8778,-85.4833 98.5511,-95.9947 106.143,-88.6049 99.8778,-85.4833"/>
<text text-anchor="middle" x="148.5" y="-63" font-family="Helvetica,sans-Serif" font-size="10.00"> spline1</text>
<text text-anchor="middle" x="148.5" y="-52" font-family="Helvetica,sans-Serif" font-size="10.00">spline2</text>
<text text-anchor="middle" x="148.5" y="-41" font-family="Helvetica,sans-Serif" font-size="10.00">spline3</text>
</g>
<!-- Node3 -->
<g id="node3" class="node"><title>Node3</title>
<polygon fill="white" stroke="#bfbfbf" points="0,-202.5 0,-221.5 89,-221.5 89,-202.5 0,-202.5"/>
<text text-anchor="middle" x="44.5" y="-209.5" font-family="Helvetica,sans-Serif" font-size="10.00">integer(kind=i32)</text>
</g>
<!-- Node3&#45;&gt;Node2 -->
<g id="edge2" class="edge"><title>Node3&#45;&gt;Node2</title>
<path fill="none" stroke="#9a32cd" stroke-dasharray="5,2" d="M40.2105,-191.915C37.8676,-176.9 36.9519,-155.926 45.5,-140 51.543,-128.741 63.2282,-120.529 73.6719,-115.055"/>
<polygon fill="#9a32cd" stroke="#9a32cd" points="36.8329,-192.888 42.1472,-202.053 43.7086,-191.574 36.8329,-192.888"/>
<text text-anchor="middle" x="62" y="-165" font-family="Helvetica,sans-Serif" font-size="10.00"> degree</text>
<text text-anchor="middle" x="62" y="-154" font-family="Helvetica,sans-Serif" font-size="10.00">n_cells</text>
</g>
<!-- Node4 -->
<g id="node4" class="node"><title>Node4</title>
<polygon fill="white" stroke="#bfbfbf" points="124.5,-202.5 124.5,-221.5 200.5,-221.5 200.5,-202.5 124.5,-202.5"/>
<text text-anchor="middle" x="162.5" y="-209.5" font-family="Helvetica,sans-Serif" font-size="10.00">real(kind=f64)</text>
</g>
<!-- Node4&#45;&gt;Node1 -->
<g id="edge4" class="edge"><title>Node4&#45;&gt;Node1</title>
<path fill="none" stroke="#9a32cd" stroke-dasharray="5,2" d="M165.388,-192.101C169.718,-160.049 176.3,-93.1349 165.5,-38 164.255,-31.642 161.505,-24.892 159.066,-19.7315"/>
<polygon fill="#9a32cd" stroke="#9a32cd" points="161.888,-191.85 163.93,-202.246 168.817,-192.846 161.888,-191.85"/>
<text text-anchor="middle" x="197.5" y="-114" font-family="Helvetica,sans-Serif" font-size="10.00"> scratch_pp</text>
<text text-anchor="middle" x="197.5" y="-103" font-family="Helvetica,sans-Serif" font-size="10.00">scratch_b</text>
<text text-anchor="middle" x="197.5" y="-92" font-family="Helvetica,sans-Serif" font-size="10.00">scratch_p</text>
</g>
<!-- Node4&#45;&gt;Node2 -->
<g id="edge3" class="edge"><title>Node4&#45;&gt;Node2</title>
<path fill="none" stroke="#9a32cd" stroke-dasharray="5,2" d="M117.448,-197.887C111.261,-194.3 105.626,-189.754 101.5,-184 86.5423,-163.14 89.9315,-130.554 92.6733,-115.138"/>
<polygon fill="#9a32cd" stroke="#9a32cd" points="116.279,-201.212 126.798,-202.483 119.368,-194.93 116.279,-201.212"/>
<text text-anchor="middle" x="133.5" y="-176" font-family="Helvetica,sans-Serif" font-size="10.00"> scratch_b</text>
<text text-anchor="middle" x="133.5" y="-165" font-family="Helvetica,sans-Serif" font-size="10.00">scratch_p</text>
<text text-anchor="middle" x="133.5" y="-154" font-family="Helvetica,sans-Serif" font-size="10.00">poly_coeffs</text>
<text text-anchor="middle" x="133.5" y="-143" font-family="Helvetica,sans-Serif" font-size="10.00">poly_coeffs_fp</text>
</g>
</g>
</svg>
