<?xml version="1.0" encoding="UTF-8" standalone="no"?>
<!DOCTYPE svg PUBLIC "-//W3C//DTD SVG 1.1//EN"
 "http://www.w3.org/Graphics/SVG/1.1/DTD/svg11.dtd">
<!-- Generated by graphviz version 2.40.1 (20161225.0304)
 -->
<!-- Title: sll_t_distribution_function_4d_multipatch Pages: 1 -->
<!--zoomable 1080 -->
<svg id="main" version="1.1" xmlns="http://www.w3.org/2000/svg" xmlns:xlink="http://www.w3.org/1999/xlink" xml:space="preserve" onload="init(evt)">
<style type="text/css"><![CDATA[
.edge:hover path { stroke: red; }
.edge:hover polygon { stroke: red; fill: red; }
]]></style>
<script type="text/javascript"><![CDATA[
var edges = document.getElementsByTagName('g');
if (edges && edges.length) {
  for (var i=0;i<edges.length;i++) {
    if (edges[i].id.substr(0,4)=='edge') {
      edges[i].setAttribute('class','edge');
    }
  }
}
]]></script>
        <defs>
                <circle id="rim" cx="0" cy="0" r="7"/>
                <circle id="rim2" cx="0" cy="0" r="3.5"/>
                <g id="zoomPlus">
                        <use xlink:href="#rim" fill="#404040">
                                <set attributeName="fill" to="#808080" begin="zoomplus.mouseover" end="zoomplus.mouseout"/>
                        </use>
                        <path d="M-4,0h8M0,-4v8" fill="none" stroke="white" stroke-width="1.5" pointer-events="none"/>
                </g>
                <g id="zoomMin">
                        <use xlink:href="#rim" fill="#404040">
                                <set attributeName="fill" to="#808080" begin="zoomminus.mouseover" end="zoomminus.mouseout"/>
                        </use>
                        <path d="M-4,0h8" fill="none" stroke="white" stroke-width="1.5" pointer-events="none"/>
                </g>
                <g id="dirArrow">
                        <path fill="none" stroke="white" stroke-width="1.5" d="M0,-3.0v7 M-2.5,-0.5L0,-3.0L2.5,-0.5"/>
                </g>
               <g id="resetDef">
                       <use xlink:href="#rim2" fill="#404040">
                               <set attributeName="fill" to="#808080" begin="reset.mouseover" end="reset.mouseout"/>
                       </use>
               </g>
        </defs>

<script type="text/javascript">
var viewWidth = 1561;
var viewHeight = 1080;
var sectionId = 'dynsection-0';
</script>
<script xlink:href="svgpan.js"/>
<svg id="graph" class="graph">
<g id="viewport">
<title>sll_t_distribution_function_4d_multipatch</title>
<polygon fill="#ffffff" stroke="transparent" points="-4,4 -4,-1076.059 1557,-1076.059 1557,4 -4,4"/>
<!-- Node1 -->
<g id="node1" class="node">
<title>Node1</title>
<polygon fill="#bfbfbf" stroke="#000000" points="1416,-236.059 1416,-266.059 1553,-266.059 1553,-236.059 1416,-236.059"/>
<text text-anchor="start" x="1424" y="-254.059" font-family="Helvetica,sans-Serif" font-size="10.00" fill="#000000">sll_t_distribution</text>
<text text-anchor="middle" x="1484.5" y="-243.059" font-family="Helvetica,sans-Serif" font-size="10.00" fill="#000000">_function_4d_multipatch</text>
</g>
<!-- Node2 -->
<g id="node2" class="node">
<title>Node2</title>
<polygon fill="#ffffff" stroke="#bfbfbf" points="255,-368.559 255,-387.559 304,-387.559 304,-368.559 255,-368.559"/>
<text text-anchor="middle" x="279.5" y="-375.559" font-family="Helvetica,sans-Serif" font-size="10.00" fill="#000000">logical</text>
</g>
<!-- Node2&#45;&gt;Node1 -->
<g id="edge1" class="edge">
<title>Node2&#45;&gt;Node1</title>
<path fill="none" stroke="#9a32cd" stroke-dasharray="5,2" d="M314.408,-378.059C373.5062,-378.059 497.035,-378.059 601.5,-378.059 601.5,-378.059 601.5,-378.059 1196,-378.059 1305.9973,-378.059 1421.1162,-299.7673 1465.5041,-266.1263"/>
<polygon fill="#9a32cd" stroke="#9a32cd" points="314.1421,-374.5591 304.142,-378.059 314.142,-381.5591 314.1421,-374.5591"/>
<text text-anchor="start" x="879" y="-392.059" font-family="Helvetica,sans-Serif" font-size="10.00" fill="#000000"> ready_for_sequential</text>
<text text-anchor="middle" x="932" y="-381.059" font-family="Helvetica,sans-Serif" font-size="10.00" fill="#000000">_ops_in_x1x2</text>
</g>
<!-- Node12 -->
<g id="node12" class="node">
<title>Node12</title>
<g id="a_node12"><a xlink:href="structsll__m__coordinate__transformation__2d__base_1_1sll__c__coordinate__transformation__2d__base.html" target="_top" xlink:title="Abstract class for coordinate transformation. ">
<polygon fill="#ffffff" stroke="#000000" points="515,-319.059 515,-349.059 688,-349.059 688,-319.059 515,-319.059"/>
<text text-anchor="start" x="523" y="-337.059" font-family="Helvetica,sans-Serif" font-size="10.00" fill="#000000">sll_c_coordinate_transformation</text>
<text text-anchor="middle" x="601.5" y="-326.059" font-family="Helvetica,sans-Serif" font-size="10.00" fill="#000000">_2d_base</text>
</a>
</g>
</g>
<!-- Node2&#45;&gt;Node12 -->
<g id="edge15" class="edge">
<title>Node2&#45;&gt;Node12</title>
<path fill="none" stroke="#9a32cd" stroke-dasharray="5,2" d="M313.968,-366.3734C329.6664,-361.4999 348.5929,-356.2432 366,-353.059 414.822,-344.1281 470.1035,-339.395 514.8314,-336.8867"/>
<polygon fill="#9a32cd" stroke="#9a32cd" points="312.6328,-363.1254 304.1665,-369.495 314.7571,-369.7952 312.6328,-363.1254"/>
<text text-anchor="middle" x="431.5" y="-356.059" font-family="Helvetica,sans-Serif" font-size="10.00" fill="#000000"> written</text>
</g>
<!-- Node14 -->
<g id="node14" class="node">
<title>Node14</title>
<g id="a_node14"><a xlink:href="structsll__m__arbitrary__degree__spline__interpolator__2d_1_1sll__t__arbitrary__degree__spline__interpolator__2d.html" target="_top" xlink:title="Arbitrary degree version of 2d irnterpolator. ">
<polygon fill="#ffffff" stroke="#000000" points="536,-654.059 536,-684.059 667,-684.059 667,-654.059 536,-654.059"/>
<text text-anchor="start" x="544" y="-672.059" font-family="Helvetica,sans-Serif" font-size="10.00" fill="#000000">sll_t_arbitrary_degree</text>
<text text-anchor="middle" x="601.5" y="-661.059" font-family="Helvetica,sans-Serif" font-size="10.00" fill="#000000">_spline_interpolator_2d</text>
</a>
</g>
</g>
<!-- Node2&#45;&gt;Node14 -->
<g id="edge20" class="edge">
<title>Node2&#45;&gt;Node14</title>
<path fill="none" stroke="#9a32cd" stroke-dasharray="5,2" d="M314.3592,-382.5976C373.9936,-390.4893 489.8987,-406.4349 497,-412.059 576.6697,-475.1561 595.9995,-608.8311 600.3335,-653.8765"/>
<polygon fill="#9a32cd" stroke="#9a32cd" points="314.6334,-379.1036 304.2618,-381.2672 313.7189,-386.0436 314.6334,-379.1036"/>
<text text-anchor="middle" x="431.5" y="-503.059" font-family="Helvetica,sans-Serif" font-size="10.00" fill="#000000"> compute_slope_max1</text>
<text text-anchor="middle" x="431.5" y="-492.059" font-family="Helvetica,sans-Serif" font-size="10.00" fill="#000000">compute_slope_max2</text>
<text text-anchor="middle" x="431.5" y="-481.059" font-family="Helvetica,sans-Serif" font-size="10.00" fill="#000000">compute_slope_min1</text>
<text text-anchor="middle" x="431.5" y="-470.059" font-family="Helvetica,sans-Serif" font-size="10.00" fill="#000000">compute_value_min1</text>
<text text-anchor="middle" x="431.5" y="-459.059" font-family="Helvetica,sans-Serif" font-size="10.00" fill="#000000">compute_slope_min2</text>
<text text-anchor="middle" x="431.5" y="-448.059" font-family="Helvetica,sans-Serif" font-size="10.00" fill="#000000">compute_value_min2</text>
<text text-anchor="middle" x="431.5" y="-437.059" font-family="Helvetica,sans-Serif" font-size="10.00" fill="#000000">coefficients_set</text>
<text text-anchor="middle" x="431.5" y="-426.059" font-family="Helvetica,sans-Serif" font-size="10.00" fill="#000000">compute_value_max1</text>
<text text-anchor="middle" x="431.5" y="-415.059" font-family="Helvetica,sans-Serif" font-size="10.00" fill="#000000">compute_value_max2</text>
</g>
<!-- Node3 -->
<g id="node3" class="node">
<title>Node3</title>
<polygon fill="#ffffff" stroke="#bfbfbf" points="1137.5,-512.059 1137.5,-542.059 1254.5,-542.059 1254.5,-512.059 1137.5,-512.059"/>
<text text-anchor="start" x="1145.5" y="-530.059" font-family="Helvetica,sans-Serif" font-size="10.00" fill="#000000">sll_t_remap_plan_4d</text>
<text text-anchor="middle" x="1196" y="-519.059" font-family="Helvetica,sans-Serif" font-size="10.00" fill="#000000">_real64_ptr</text>
</g>
<!-- Node3&#45;&gt;Node1 -->
<g id="edge2" class="edge">
<title>Node3&#45;&gt;Node1</title>
<path fill="none" stroke="#9a32cd" stroke-dasharray="5,2" d="M1264.5935,-520.2013C1307.7834,-512.5461 1361.98,-496.3451 1398,-462.059 1456.7868,-406.1019 1476.8911,-304.4597 1482.5682,-266.1825"/>
<polygon fill="#9a32cd" stroke="#9a32cd" points="1264.0077,-516.7506 1254.7149,-521.8392 1265.1527,-523.6563 1264.0077,-516.7506"/>
<text text-anchor="middle" x="1349" y="-525.059" font-family="Helvetica,sans-Serif" font-size="10.00" fill="#000000"> remap_x3x4tox1x2</text>
<text text-anchor="middle" x="1349" y="-514.059" font-family="Helvetica,sans-Serif" font-size="10.00" fill="#000000">remap_x1x2tox3x4</text>
</g>
<!-- Node4 -->
<g id="node4" class="node">
<title>Node4</title>
<g id="a_node4"><a xlink:href="structsll__m__cartesian__meshes_1_1sll__t__cartesian__mesh__2d.html" target="_top" xlink:title="2D cartesian mesh ">
<polygon fill="#ffffff" stroke="#000000" points="211,-270.559 211,-289.559 348,-289.559 348,-270.559 211,-270.559"/>
<text text-anchor="middle" x="279.5" y="-277.559" font-family="Helvetica,sans-Serif" font-size="10.00" fill="#000000">sll_t_cartesian_mesh_2d</text>
</a>
</g>
</g>
<!-- Node4&#45;&gt;Node1 -->
<g id="edge3" class="edge">
<title>Node4&#45;&gt;Node1</title>
<path fill="none" stroke="#9a32cd" stroke-dasharray="5,2" d="M356.4365,-269.2175C421.5613,-260.9808 517.4528,-251.059 601.5,-251.059 601.5,-251.059 601.5,-251.059 1196,-251.059 1271.1302,-251.059 1357.2658,-251.059 1415.716,-251.059"/>
<polygon fill="#9a32cd" stroke="#9a32cd" points="355.7286,-265.7795 346.255,-270.5231 356.619,-272.7226 355.7286,-265.7795"/>
<text text-anchor="middle" x="932" y="-254.059" font-family="Helvetica,sans-Serif" font-size="10.00" fill="#000000"> mesh_v</text>
</g>
<!-- Node4&#45;&gt;Node12 -->
<g id="edge16" class="edge">
<title>Node4&#45;&gt;Node12</title>
<path fill="none" stroke="#9a32cd" stroke-dasharray="5,2" d="M358.2316,-283.0641C399.8243,-285.7135 451.5378,-290.6953 497,-300.059 519.0498,-304.6005 542.9748,-312.1791 562.3616,-319.03"/>
<polygon fill="#9a32cd" stroke="#9a32cd" points="358.352,-279.5651 348.159,-282.4552 357.9295,-286.5523 358.352,-279.5651"/>
<text text-anchor="middle" x="431.5" y="-303.059" font-family="Helvetica,sans-Serif" font-size="10.00" fill="#000000"> mesh</text>
</g>
<!-- Node5 -->
<g id="node5" class="node">
<title>Node5</title>
<g id="a_node5"><a xlink:href="structsll__m__meshes__base_1_1sll__c__mesh__2d__base.html" target="_top" xlink:title="2D logical mesh ">
<polygon fill="#ffffff" stroke="#000000" points="0,-280.559 0,-299.559 116,-299.559 116,-280.559 0,-280.559"/>
<text text-anchor="middle" x="58" y="-287.559" font-family="Helvetica,sans-Serif" font-size="10.00" fill="#000000">sll_c_mesh_2d_base</text>
</a>
</g>
</g>
<!-- Node5&#45;&gt;Node4 -->
<g id="edge4" class="edge">
<title>Node5&#45;&gt;Node4</title>
<path fill="none" stroke="#191970" d="M126.2653,-286.977C153.0794,-285.7665 183.8096,-284.3791 210.6775,-283.1661"/>
<polygon fill="#191970" stroke="#191970" points="126.0285,-283.4841 116.1965,-287.4316 126.3442,-290.4769 126.0285,-283.4841"/>
</g>
<!-- Node6 -->
<g id="node6" class="node">
<title>Node6</title>
<polygon fill="#ffffff" stroke="#bfbfbf" points="6.5,-855.559 6.5,-874.559 109.5,-874.559 109.5,-855.559 6.5,-855.559"/>
<text text-anchor="middle" x="58" y="-862.559" font-family="Helvetica,sans-Serif" font-size="10.00" fill="#000000">integer(kind=i32)</text>
</g>
<!-- Node6&#45;&gt;Node1 -->
<g id="edge9" class="edge">
<title>Node6&#45;&gt;Node1</title>
<path fill="none" stroke="#9a32cd" stroke-dasharray="5,2" d="M69.1464,-883.3544C97.9234,-928.0303 179.4996,-1039.059 279.5,-1039.059 279.5,-1039.059 279.5,-1039.059 1196,-1039.059 1367.1812,-1039.059 1467.1937,-375.0377 1482.4501,-266.0967"/>
<polygon fill="#9a32cd" stroke="#9a32cd" points="71.9656,-881.2627 63.6782,-874.6618 66.0404,-884.99 71.9656,-881.2627"/>
<text text-anchor="middle" x="767" y="-1064.059" font-family="Helvetica,sans-Serif" font-size="10.00" fill="#000000"> nproc_factor1</text>
<text text-anchor="middle" x="767" y="-1053.059" font-family="Helvetica,sans-Serif" font-size="10.00" fill="#000000">nproc_factor2</text>
<text text-anchor="middle" x="767" y="-1042.059" font-family="Helvetica,sans-Serif" font-size="10.00" fill="#000000">num_patches</text>
</g>
<!-- Node6&#45;&gt;Node4 -->
<g id="edge5" class="edge">
<title>Node6&#45;&gt;Node4</title>
<path fill="none" stroke="#9a32cd" stroke-dasharray="5,2" d="M59.2132,-845.1633C63.4775,-783.1843 80.5341,-588.7213 134,-438.059 157.6191,-371.5023 155.5452,-342.7902 211,-299.059 215.9422,-295.1616 221.634,-292.063 227.5804,-289.5996"/>
<polygon fill="#9a32cd" stroke="#9a32cd" points="55.7007,-845.2419 58.5418,-855.4486 62.6858,-845.6979 55.7007,-845.2419"/>
<text text-anchor="middle" x="163.5" y="-452.059" font-family="Helvetica,sans-Serif" font-size="10.00" fill="#000000"> num_cells1</text>
<text text-anchor="middle" x="163.5" y="-441.059" font-family="Helvetica,sans-Serif" font-size="10.00" fill="#000000">num_cells2</text>
</g>
<!-- Node10 -->
<g id="node10" class="node">
<title>Node10</title>
<g id="a_node10"><a xlink:href="structsll__m__coordinate__transformation__multipatch_1_1sll__t__coordinate__transformation__multipatch__2d.html" target="_top" xlink:title="basic type for the multipatch. It is meant to be an opaque entity and dealt with only through the met...">
<polygon fill="#ffffff" stroke="#000000" points="1110,-463.059 1110,-493.059 1282,-493.059 1282,-463.059 1110,-463.059"/>
<text text-anchor="start" x="1118" y="-481.059" font-family="Helvetica,sans-Serif" font-size="10.00" fill="#000000">sll_t_coordinate_transformation</text>
<text text-anchor="middle" x="1196" y="-470.059" font-family="Helvetica,sans-Serif" font-size="10.00" fill="#000000">_multipatch_2d</text>
</a>
</g>
</g>
<!-- Node6&#45;&gt;Node10 -->
<g id="edge29" class="edge">
<title>Node6&#45;&gt;Node10</title>
<path fill="none" stroke="#9a32cd" stroke-dasharray="5,2" d="M75.3482,-881.8086C90.0091,-895.236 112.0702,-913.7983 134,-926.059 193.9404,-959.5709 210.8276,-978.059 279.5,-978.059 279.5,-978.059 279.5,-978.059 932,-978.059 960.1809,-978.059 1089.3339,-522.2182 1110,-503.059 1114.1049,-499.2534 1118.7559,-496.0238 1123.7184,-493.2834"/>
<polygon fill="#9a32cd" stroke="#9a32cd" points="77.7074,-879.2228 68.0124,-874.9498 72.9266,-884.336 77.7074,-879.2228"/>
<text text-anchor="middle" x="601.5" y="-1003.059" font-family="Helvetica,sans-Serif" font-size="10.00" fill="#000000"> global_indices</text>
<text text-anchor="middle" x="601.5" y="-992.059" font-family="Helvetica,sans-Serif" font-size="10.00" fill="#000000">connectivities</text>
<text text-anchor="middle" x="601.5" y="-981.059" font-family="Helvetica,sans-Serif" font-size="10.00" fill="#000000">number_patches</text>
</g>
<!-- Node11 -->
<g id="node11" class="node">
<title>Node11</title>
<g id="a_node11"><a xlink:href="structsll__m__coordinate__transformations__2d__nurbs_1_1sll__t__coordinate__transformation__2d__nurbs.html" target="_top" xlink:title="Nurbs&#45;based coordinate transformation. ">
<polygon fill="#ffffff" stroke="#000000" points="846,-490.059 846,-520.059 1018,-520.059 1018,-490.059 846,-490.059"/>
<text text-anchor="start" x="854" y="-508.059" font-family="Helvetica,sans-Serif" font-size="10.00" fill="#000000">sll_t_coordinate_transformation</text>
<text text-anchor="middle" x="932" y="-497.059" font-family="Helvetica,sans-Serif" font-size="10.00" fill="#000000">_2d_nurbs</text>
</a>
</g>
</g>
<!-- Node6&#45;&gt;Node11 -->
<g id="edge25" class="edge">
<title>Node6&#45;&gt;Node11</title>
<path fill="none" stroke="#9a32cd" stroke-dasharray="5,2" d="M59.0287,-845.3058C63.5577,-781.2305 87.5035,-578.5447 211,-496.059 261.6333,-462.24 290.7479,-475.3309 348,-496.059 357.7917,-499.6041 356.2083,-507.5139 366,-511.059 451.5854,-542.0452 709.6888,-525.0443 845.8144,-513.2806"/>
<polygon fill="#9a32cd" stroke="#9a32cd" points="55.5352,-845.0937 58.4055,-855.2923 62.5216,-845.5297 55.5352,-845.0937"/>
<text text-anchor="middle" x="431.5" y="-552.059" font-family="Helvetica,sans-Serif" font-size="10.00" fill="#000000"> spline_deg1</text>
<text text-anchor="middle" x="431.5" y="-541.059" font-family="Helvetica,sans-Serif" font-size="10.00" fill="#000000">spline_deg2</text>
<text text-anchor="middle" x="431.5" y="-530.059" font-family="Helvetica,sans-Serif" font-size="10.00" fill="#000000">is_rational</text>
</g>
<!-- Node6&#45;&gt;Node14 -->
<g id="edge22" class="edge">
<title>Node6&#45;&gt;Node14</title>
<path fill="none" stroke="#9a32cd" stroke-dasharray="5,2" d="M82.6055,-850.1676C112.0492,-833.0683 163.3585,-805.5213 211,-791.059 333.8142,-753.7769 378.891,-801.2939 497,-751.059 533.9251,-735.3538 568.9315,-703.1159 587.569,-684.0748"/>
<polygon fill="#9a32cd" stroke="#9a32cd" points="80.6897,-847.2339 73.8466,-855.3223 84.2401,-853.2667 80.6897,-847.2339"/>
<text text-anchor="middle" x="279.5" y="-904.059" font-family="Helvetica,sans-Serif" font-size="10.00" fill="#000000"> bc1_max</text>
<text text-anchor="middle" x="279.5" y="-893.059" font-family="Helvetica,sans-Serif" font-size="10.00" fill="#000000">bc2_max</text>
<text text-anchor="middle" x="279.5" y="-882.059" font-family="Helvetica,sans-Serif" font-size="10.00" fill="#000000">num_pts1</text>
<text text-anchor="middle" x="279.5" y="-871.059" font-family="Helvetica,sans-Serif" font-size="10.00" fill="#000000">size_coeffs1</text>
<text text-anchor="middle" x="279.5" y="-860.059" font-family="Helvetica,sans-Serif" font-size="10.00" fill="#000000">num_pts2</text>
<text text-anchor="middle" x="279.5" y="-849.059" font-family="Helvetica,sans-Serif" font-size="10.00" fill="#000000">size_coeffs2</text>
<text text-anchor="middle" x="279.5" y="-838.059" font-family="Helvetica,sans-Serif" font-size="10.00" fill="#000000">size_t1</text>
<text text-anchor="middle" x="279.5" y="-827.059" font-family="Helvetica,sans-Serif" font-size="10.00" fill="#000000">size_t2</text>
<text text-anchor="middle" x="279.5" y="-816.059" font-family="Helvetica,sans-Serif" font-size="10.00" fill="#000000">spline_degree1</text>
<text text-anchor="middle" x="279.5" y="-805.059" font-family="Helvetica,sans-Serif" font-size="10.00" fill="#000000">spline_degree2</text>
<text text-anchor="middle" x="279.5" y="-794.059" font-family="Helvetica,sans-Serif" font-size="10.00" fill="#000000">...</text>
</g>
<!-- Node18 -->
<g id="node18" class="node">
<title>Node18</title>
<g id="a_node18"><a xlink:href="structsll__m__coordinate__transformation__multipatch_1_1multipatch__data__2d__int.html" target="_top" xlink:title="multipatch_data_2d_int">
<polygon fill="#ffffff" stroke="#000000" points="366,-926.559 366,-945.559 497,-945.559 497,-926.559 366,-926.559"/>
<text text-anchor="middle" x="431.5" y="-933.559" font-family="Helvetica,sans-Serif" font-size="10.00" fill="#000000">multipatch_data_2d_int</text>
</a>
</g>
</g>
<!-- Node6&#45;&gt;Node18 -->
<g id="edge28" class="edge">
<title>Node6&#45;&gt;Node18</title>
<path fill="none" stroke="#9a32cd" stroke-dasharray="5,2" d="M90.4307,-878.3126C120.9937,-890.2126 168.3402,-907.14 211,-916.059 262.358,-926.7965 321.6369,-931.7696 365.7884,-934.0727"/>
<polygon fill="#9a32cd" stroke="#9a32cd" points="91.7115,-875.0554 81.1247,-874.6422 89.1431,-881.5672 91.7115,-875.0554"/>
<text text-anchor="middle" x="163.5" y="-914.059" font-family="Helvetica,sans-Serif" font-size="10.00" fill="#000000"> array</text>
</g>
<!-- Node7 -->
<g id="node7" class="node">
<title>Node7</title>
<polygon fill="#ffffff" stroke="#bfbfbf" points="14,-166.559 14,-185.559 102,-185.559 102,-166.559 14,-166.559"/>
<text text-anchor="middle" x="58" y="-173.559" font-family="Helvetica,sans-Serif" font-size="10.00" fill="#000000">real(kind=f64)</text>
</g>
<!-- Node7&#45;&gt;Node4 -->
<g id="edge6" class="edge">
<title>Node7&#45;&gt;Node4</title>
<path fill="none" stroke="#9a32cd" stroke-dasharray="5,2" d="M111.9442,-186.3201C137.3674,-192.375 167.6148,-201.3845 193,-214.059 223.7582,-229.4162 254.502,-256.2959 269.7056,-270.5525"/>
<polygon fill="#9a32cd" stroke="#9a32cd" points="112.6268,-182.8859 102.0976,-184.0634 111.063,-189.709 112.6268,-182.8859"/>
<text text-anchor="middle" x="163.5" y="-272.059" font-family="Helvetica,sans-Serif" font-size="10.00" fill="#000000"> delta_eta1</text>
<text text-anchor="middle" x="163.5" y="-261.059" font-family="Helvetica,sans-Serif" font-size="10.00" fill="#000000">eta2_max</text>
<text text-anchor="middle" x="163.5" y="-250.059" font-family="Helvetica,sans-Serif" font-size="10.00" fill="#000000">delta_eta2</text>
<text text-anchor="middle" x="163.5" y="-239.059" font-family="Helvetica,sans-Serif" font-size="10.00" fill="#000000">eta1_min</text>
<text text-anchor="middle" x="163.5" y="-228.059" font-family="Helvetica,sans-Serif" font-size="10.00" fill="#000000">eta2_min</text>
<text text-anchor="middle" x="163.5" y="-217.059" font-family="Helvetica,sans-Serif" font-size="10.00" fill="#000000">eta1_max</text>
</g>
<!-- Node9 -->
<g id="node9" class="node">
<title>Node9</title>
<g id="a_node9"><a xlink:href="structsll__m__distribution__function__4d__multipatch_1_1data__4d__ptr.html" target="_top" xlink:title="data_4d_ptr">
<polygon fill="#ffffff" stroke="#000000" points="394.5,-85.559 394.5,-104.559 468.5,-104.559 468.5,-85.559 394.5,-85.559"/>
<text text-anchor="middle" x="431.5" y="-92.559" font-family="Helvetica,sans-Serif" font-size="10.00" fill="#000000">data_4d_ptr</text>
</a>
</g>
</g>
<!-- Node7&#45;&gt;Node9 -->
<g id="edge11" class="edge">
<title>Node7&#45;&gt;Node9</title>
<path fill="none" stroke="#9a32cd" stroke-dasharray="5,2" d="M72.4857,-158.7214C86.462,-143.3856 109.1153,-121.9546 134,-112.059 221.972,-77.0761 336.1945,-83.4208 394.1837,-89.8839"/>
<polygon fill="#9a32cd" stroke="#9a32cd" points="69.622,-156.6783 65.6547,-166.5023 74.8825,-161.2965 69.622,-156.6783"/>
<text text-anchor="middle" x="163.5" y="-115.059" font-family="Helvetica,sans-Serif" font-size="10.00" fill="#000000"> f</text>
</g>
<!-- Node7&#45;&gt;Node11 -->
<g id="edge26" class="edge">
<title>Node7&#45;&gt;Node11</title>
<path fill="none" stroke="#9a32cd" stroke-dasharray="5,2" d="M112.3966,-174.0214C196.5558,-172.3321 362.6373,-174.8589 497,-213.059 659.9464,-259.3856 731.217,-263.024 828,-402.059 848.3261,-431.2588 821.5582,-454.206 846,-480.059 849.6318,-483.9005 853.8159,-487.1626 858.3415,-489.9314"/>
<polygon fill="#9a32cd" stroke="#9a32cd" points="112.219,-170.5244 102.3017,-174.2525 112.3792,-177.5226 112.219,-170.5244"/>
<text text-anchor="middle" x="431.5" y="-271.059" font-family="Helvetica,sans-Serif" font-size="10.00" fill="#000000"> x2_cell</text>
<text text-anchor="middle" x="431.5" y="-260.059" font-family="Helvetica,sans-Serif" font-size="10.00" fill="#000000">x2_node</text>
<text text-anchor="middle" x="431.5" y="-249.059" font-family="Helvetica,sans-Serif" font-size="10.00" fill="#000000">x1_cell</text>
<text text-anchor="middle" x="431.5" y="-238.059" font-family="Helvetica,sans-Serif" font-size="10.00" fill="#000000">x1_node</text>
<text text-anchor="middle" x="431.5" y="-227.059" font-family="Helvetica,sans-Serif" font-size="10.00" fill="#000000">knots1</text>
<text text-anchor="middle" x="431.5" y="-216.059" font-family="Helvetica,sans-Serif" font-size="10.00" fill="#000000">knots2</text>
</g>
<!-- Node7&#45;&gt;Node14 -->
<g id="edge24" class="edge">
<title>Node7&#45;&gt;Node14</title>
<path fill="none" stroke="#9a32cd" stroke-dasharray="5,2" d="M72.06,-193.4991C85.8591,-211.6805 106.2149,-241.5867 116,-271.059 129.5728,-311.9397 106.7658,-430.686 134,-464.059 196.8467,-541.0718 272.7247,-464.1412 348,-529.059 362.152,-541.2638 352.5653,-554.0689 366,-567.059 413.2459,-612.7414 484.2281,-639.6433 535.9099,-654.241"/>
<polygon fill="#9a32cd" stroke="#9a32cd" points="74.7918,-191.3105 65.8877,-185.5688 69.2678,-195.61 74.7918,-191.3105"/>
<text text-anchor="middle" x="279.5" y="-642.059" font-family="Helvetica,sans-Serif" font-size="10.00" fill="#000000"> coeff_splines</text>
<text text-anchor="middle" x="279.5" y="-631.059" font-family="Helvetica,sans-Serif" font-size="10.00" fill="#000000">eta2_max</text>
<text text-anchor="middle" x="279.5" y="-620.059" font-family="Helvetica,sans-Serif" font-size="10.00" fill="#000000">t1</text>
<text text-anchor="middle" x="279.5" y="-609.059" font-family="Helvetica,sans-Serif" font-size="10.00" fill="#000000">t2</text>
<text text-anchor="middle" x="279.5" y="-598.059" font-family="Helvetica,sans-Serif" font-size="10.00" fill="#000000">slope_max1</text>
<text text-anchor="middle" x="279.5" y="-587.059" font-family="Helvetica,sans-Serif" font-size="10.00" fill="#000000">slope_max2</text>
<text text-anchor="middle" x="279.5" y="-576.059" font-family="Helvetica,sans-Serif" font-size="10.00" fill="#000000">eta1_min</text>
<text text-anchor="middle" x="279.5" y="-565.059" font-family="Helvetica,sans-Serif" font-size="10.00" fill="#000000">eta2_min</text>
<text text-anchor="middle" x="279.5" y="-554.059" font-family="Helvetica,sans-Serif" font-size="10.00" fill="#000000">gtau_der1</text>
<text text-anchor="middle" x="279.5" y="-543.059" font-family="Helvetica,sans-Serif" font-size="10.00" fill="#000000">value_min1</text>
<text text-anchor="middle" x="279.5" y="-532.059" font-family="Helvetica,sans-Serif" font-size="10.00" fill="#000000">...</text>
</g>
<!-- Node21 -->
<g id="node21" class="node">
<title>Node21</title>
<g id="a_node21"><a xlink:href="structsll__m__coordinate__transformation__multipatch_1_1sll__t__multipatch__data__2d__real.html" target="_top" xlink:title="sll_t_multipatch_data\l_2d_real">
<polygon fill="#ffffff" stroke="#000000" points="706,-156.059 706,-186.059 828,-186.059 828,-156.059 706,-156.059"/>
<text text-anchor="start" x="714" y="-174.059" font-family="Helvetica,sans-Serif" font-size="10.00" fill="#000000">sll_t_multipatch_data</text>
<text text-anchor="middle" x="767" y="-163.059" font-family="Helvetica,sans-Serif" font-size="10.00" fill="#000000">_2d_real</text>
</a>
</g>
</g>
<!-- Node7&#45;&gt;Node21 -->
<g id="edge33" class="edge">
<title>Node7&#45;&gt;Node21</title>
<path fill="none" stroke="#9a32cd" stroke-dasharray="5,2" d="M112.2425,-164.727C141.3693,-159.2685 177.9787,-153.4058 211,-151.059 390.4467,-138.3061 603.0825,-154.6959 705.6312,-164.5738"/>
<polygon fill="#9a32cd" stroke="#9a32cd" points="111.4345,-161.318 102.2702,-166.6344 112.7497,-168.1933 111.4345,-161.318"/>
<text text-anchor="middle" x="279.5" y="-154.059" font-family="Helvetica,sans-Serif" font-size="10.00" fill="#000000"> array</text>
</g>
<!-- Node8 -->
<g id="node8" class="node">
<title>Node8</title>
<g id="a_node8"><a xlink:href="structsll__m__collective_1_1sll__t__collective__t.html" target="_top" xlink:title="Wrapper around the communicator. ">
<polygon fill="#ffffff" stroke="#000000" points="1147,-279.559 1147,-298.559 1245,-298.559 1245,-279.559 1147,-279.559"/>
<text text-anchor="middle" x="1196" y="-286.559" font-family="Helvetica,sans-Serif" font-size="10.00" fill="#000000">sll_t_collective_t</text>
</a>
</g>
</g>
<!-- Node8&#45;&gt;Node1 -->
<g id="edge7" class="edge">
<title>Node8&#45;&gt;Node1</title>
<path fill="none" stroke="#9a32cd" stroke-dasharray="5,2" d="M1255.2452,-282.6859C1295.5493,-278.187 1350.0621,-271.7831 1398,-265.059 1403.7248,-264.256 1409.656,-263.3829 1415.6061,-262.4782"/>
<polygon fill="#9a32cd" stroke="#9a32cd" points="1254.6096,-279.2349 1245.0566,-283.8165 1255.3816,-286.1922 1254.6096,-279.2349"/>
<text text-anchor="middle" x="1349" y="-280.059" font-family="Helvetica,sans-Serif" font-size="10.00" fill="#000000"> collective</text>
</g>
<!-- Node8&#45;&gt;Node8 -->
<g id="edge8" class="edge">
<title>Node8&#45;&gt;Node8</title>
<path fill="none" stroke="#9a32cd" stroke-dasharray="5,2" d="M1171.4465,-308.0882C1172.7858,-313.187 1180.9703,-317.059 1196,-317.059 1219.4609,-317.059 1226.2426,-307.6243 1216.345,-298.8161"/>
<polygon fill="#9a32cd" stroke="#9a32cd" points="1174.709,-309.3686 1175.655,-298.8161 1168.3348,-306.4754 1174.709,-309.3686"/>
<text text-anchor="middle" x="1196" y="-320.059" font-family="Helvetica,sans-Serif" font-size="10.00" fill="#000000"> parent</text>
</g>
<!-- Node9&#45;&gt;Node1 -->
<g id="edge10" class="edge">
<title>Node9&#45;&gt;Node1</title>
<path fill="none" stroke="#9a32cd" stroke-dasharray="5,2" d="M479.0661,-95.9829C544.0868,-97.1643 664.3673,-99.059 767,-99.059 767,-99.059 767,-99.059 1196,-99.059 1288.4872,-99.059 1319.3973,-100.32 1398,-149.059 1433.9141,-171.3282 1462.4827,-213.4874 1475.9981,-236"/>
<polygon fill="#9a32cd" stroke="#9a32cd" points="478.7961,-92.4774 468.7334,-95.7927 478.6672,-99.4762 478.7961,-92.4774"/>
<text text-anchor="middle" x="932" y="-113.059" font-family="Helvetica,sans-Serif" font-size="10.00" fill="#000000"> f_x1x2</text>
<text text-anchor="middle" x="932" y="-102.059" font-family="Helvetica,sans-Serif" font-size="10.00" fill="#000000">f_x3x4</text>
</g>
<!-- Node10&#45;&gt;Node1 -->
<g id="edge12" class="edge">
<title>Node10&#45;&gt;Node1</title>
<path fill="none" stroke="#9a32cd" stroke-dasharray="5,2" d="M1266.1389,-459.9753C1307.9568,-446.5097 1360.1041,-424.7314 1398,-392.059 1439.7612,-356.054 1467.5369,-294.744 1478.8146,-266.3393"/>
<polygon fill="#9a32cd" stroke="#9a32cd" points="1265.0641,-456.6442 1256.5664,-462.9719 1267.1553,-463.3245 1265.0641,-456.6442"/>
<text text-anchor="middle" x="1349" y="-450.059" font-family="Helvetica,sans-Serif" font-size="10.00" fill="#000000"> transf</text>
</g>
<!-- Node11&#45;&gt;Node10 -->
<g id="edge13" class="edge">
<title>Node11&#45;&gt;Node10</title>
<path fill="none" stroke="#9a32cd" stroke-dasharray="5,2" d="M1028.1728,-495.2231C1054.8069,-492.4992 1083.5463,-489.5599 1109.5872,-486.8967"/>
<polygon fill="#9a32cd" stroke="#9a32cd" points="1027.6702,-491.7562 1018.0782,-496.2555 1028.3824,-498.7199 1027.6702,-491.7562"/>
<text text-anchor="middle" x="1064" y="-496.059" font-family="Helvetica,sans-Serif" font-size="10.00" fill="#000000"> transfs</text>
</g>
<!-- Node12&#45;&gt;Node11 -->
<g id="edge14" class="edge">
<title>Node12&#45;&gt;Node11</title>
<path fill="none" stroke="#191970" d="M630.7337,-354.9042C675.3049,-385.8837 763.7678,-444.259 846,-480.059 854.4112,-483.7208 863.5133,-487.0227 872.5411,-489.936"/>
<polygon fill="#191970" stroke="#191970" points="632.62,-351.9523 622.4196,-349.0884 628.6076,-357.6883 632.62,-351.9523"/>
</g>
<!-- Node13 -->
<g id="node13" class="node">
<title>Node13</title>
<polygon fill="#ffffff" stroke="#bfbfbf" points="227,-308.559 227,-327.559 332,-327.559 332,-308.559 227,-308.559"/>
<text text-anchor="middle" x="279.5" y="-315.559" font-family="Helvetica,sans-Serif" font-size="10.00" fill="#000000">character(len=64)</text>
</g>
<!-- Node13&#45;&gt;Node12 -->
<g id="edge17" class="edge">
<title>Node13&#45;&gt;Node12</title>
<path fill="none" stroke="#9a32cd" stroke-dasharray="5,2" d="M342.4627,-316.0577C385.9384,-315.2368 445.0531,-315.2297 497,-319.059 502.8492,-319.4902 508.8689,-320.0479 514.9251,-320.6939"/>
<polygon fill="#9a32cd" stroke="#9a32cd" points="342.2446,-312.5614 332.3198,-316.2693 342.3907,-319.5599 342.2446,-312.5614"/>
<text text-anchor="middle" x="431.5" y="-322.059" font-family="Helvetica,sans-Serif" font-size="10.00" fill="#000000"> label</text>
</g>
<!-- Node14&#45;&gt;Node11 -->
<g id="edge18" class="edge">
<title>Node14&#45;&gt;Node11</title>
<path fill="none" stroke="#9a32cd" stroke-dasharray="5,2" d="M640.9595,-649.4785C707.7105,-616.3555 841.5005,-549.9665 901.5735,-520.1572"/>
<polygon fill="#9a32cd" stroke="#9a32cd" points="639.4023,-646.3439 632.0002,-653.9242 642.5138,-652.6144 639.4023,-646.3439"/>
<text text-anchor="middle" x="767" y="-640.059" font-family="Helvetica,sans-Serif" font-size="10.00" fill="#000000"> x2_interp</text>
<text text-anchor="middle" x="767" y="-629.059" font-family="Helvetica,sans-Serif" font-size="10.00" fill="#000000">x3_interp</text>
<text text-anchor="middle" x="767" y="-618.059" font-family="Helvetica,sans-Serif" font-size="10.00" fill="#000000">x1_interp</text>
</g>
<!-- Node15 -->
<g id="node15" class="node">
<title>Node15</title>
<g id="a_node15"><a xlink:href="structsll__m__interpolators__2d__base_1_1sll__c__interpolator__2d.html" target="_top" xlink:title="Base class/basic interface for 2D interpolators. ">
<polygon fill="#ffffff" stroke="#000000" points="220.5,-659.559 220.5,-678.559 338.5,-678.559 338.5,-659.559 220.5,-659.559"/>
<text text-anchor="middle" x="279.5" y="-666.559" font-family="Helvetica,sans-Serif" font-size="10.00" fill="#000000">sll_c_interpolator_2d</text>
</a>
</g>
</g>
<!-- Node15&#45;&gt;Node14 -->
<g id="edge19" class="edge">
<title>Node15&#45;&gt;Node14</title>
<path fill="none" stroke="#191970" d="M348.649,-669.059C404.0994,-669.059 481.3932,-669.059 535.8866,-669.059"/>
<polygon fill="#191970" stroke="#191970" points="348.5598,-665.5591 338.5598,-669.059 348.5597,-672.5591 348.5598,-665.5591"/>
</g>
<!-- Node16 -->
<g id="node16" class="node">
<title>Node16</title>
<g id="a_node16"><a xlink:href="namespacesll__m__deboor__splines__1d.html#structsll__m__deboor__splines__1d_1_1sll__t__deboor__type" target="_top" xlink:title="sll_t_deboor_type">
<polygon fill="#ffffff" stroke="#000000" points="228,-735.559 228,-754.559 331,-754.559 331,-735.559 228,-735.559"/>
<text text-anchor="middle" x="279.5" y="-742.559" font-family="Helvetica,sans-Serif" font-size="10.00" fill="#000000">sll_t_deboor_type</text>
</a>
</g>
</g>
<!-- Node16&#45;&gt;Node14 -->
<g id="edge21" class="edge">
<title>Node16&#45;&gt;Node14</title>
<path fill="none" stroke="#9a32cd" stroke-dasharray="5,2" d="M341.1809,-739.6814C385.181,-734.886 445.4419,-726.3543 497,-712.059 522.3327,-705.0351 549.7769,-693.5829 570.1812,-684.2628"/>
<polygon fill="#9a32cd" stroke="#9a32cd" points="340.7835,-736.2038 331.2065,-740.735 341.5189,-743.1651 340.7835,-736.2038"/>
<text text-anchor="middle" x="431.5" y="-739.059" font-family="Helvetica,sans-Serif" font-size="10.00" fill="#000000"> deboor</text>
</g>
<!-- Node17 -->
<g id="node17" class="node">
<title>Node17</title>
<polygon fill="#ffffff" stroke="#bfbfbf" points="228,-697.559 228,-716.559 331,-716.559 331,-697.559 228,-697.559"/>
<text text-anchor="middle" x="279.5" y="-704.559" font-family="Helvetica,sans-Serif" font-size="10.00" fill="#000000">integer(kind=i64)</text>
</g>
<!-- Node17&#45;&gt;Node14 -->
<g id="edge23" class="edge">
<title>Node17&#45;&gt;Node14</title>
<path fill="none" stroke="#9a32cd" stroke-dasharray="5,2" d="M341.5452,-700.6006C385.0801,-695.9741 444.6341,-689.455 497,-683.059 509.5369,-681.5277 522.9072,-679.8048 535.751,-678.1049"/>
<polygon fill="#9a32cd" stroke="#9a32cd" points="340.9713,-697.1417 331.3956,-701.6758 341.7087,-704.1028 340.9713,-697.1417"/>
<text text-anchor="middle" x="431.5" y="-700.059" font-family="Helvetica,sans-Serif" font-size="10.00" fill="#000000"> bc_selector</text>
</g>
<!-- Node18&#45;&gt;Node10 -->
<g id="edge27" class="edge">
<title>Node18&#45;&gt;Node10</title>
<path fill="none" stroke="#9a32cd" stroke-dasharray="5,2" d="M451.8649,-919.9162C531.412,-857.5697 830.5696,-629.6788 1110,-503.059 1118.2142,-499.3368 1127.1208,-496.018 1135.9844,-493.1108"/>
<polygon fill="#9a32cd" stroke="#9a32cd" points="449.3549,-917.4375 443.66,-926.3717 453.6833,-922.9389 449.3549,-917.4375"/>
<text text-anchor="middle" x="767" y="-748.059" font-family="Helvetica,sans-Serif" font-size="10.00" fill="#000000"> local_indices</text>
<text text-anchor="middle" x="767" y="-737.059" font-family="Helvetica,sans-Serif" font-size="10.00" fill="#000000">local_to_global_ind</text>
</g>
<!-- Node19 -->
<g id="node19" class="node">
<title>Node19</title>
<polygon fill="#ffffff" stroke="#bfbfbf" points="876.5,-451.559 876.5,-470.559 987.5,-470.559 987.5,-451.559 876.5,-451.559"/>
<text text-anchor="middle" x="932" y="-458.559" font-family="Helvetica,sans-Serif" font-size="10.00" fill="#000000">character(len=128)</text>
</g>
<!-- Node19&#45;&gt;Node10 -->
<g id="edge30" class="edge">
<title>Node19&#45;&gt;Node10</title>
<path fill="none" stroke="#9a32cd" stroke-dasharray="5,2" d="M997.5879,-462.5139C1026.5528,-463.4156 1060.9973,-464.8407 1092,-467.059 1097.7952,-467.4737 1103.7666,-467.9565 1109.7796,-468.4841"/>
<polygon fill="#9a32cd" stroke="#9a32cd" points="997.6854,-459.0154 987.5857,-462.2164 997.4772,-466.0123 997.6854,-459.0154"/>
<text text-anchor="middle" x="1064" y="-470.059" font-family="Helvetica,sans-Serif" font-size="10.00" fill="#000000"> name_root</text>
</g>
<!-- Node20 -->
<g id="node20" class="node">
<title>Node20</title>
<polygon fill="#ffffff" stroke="#bfbfbf" points="1141.5,-157.559 1141.5,-176.559 1250.5,-176.559 1250.5,-157.559 1141.5,-157.559"/>
<text text-anchor="middle" x="1196" y="-164.559" font-family="Helvetica,sans-Serif" font-size="10.00" fill="#000000">sll_t_layout_4d_ptr</text>
</g>
<!-- Node20&#45;&gt;Node1 -->
<g id="edge31" class="edge">
<title>Node20&#45;&gt;Node1</title>
<path fill="none" stroke="#9a32cd" stroke-dasharray="5,2" d="M1257.1664,-156.3124C1298.4506,-151.7431 1353.3402,-150.9983 1398,-169.059 1431.7628,-182.7129 1459.9865,-216.3505 1474.3292,-236.0406"/>
<polygon fill="#9a32cd" stroke="#9a32cd" points="1256.4842,-152.8694 1246.9781,-157.5474 1257.3266,-159.8186 1256.4842,-152.8694"/>
<text text-anchor="middle" x="1349" y="-183.059" font-family="Helvetica,sans-Serif" font-size="10.00" fill="#000000"> layouts_x3x4</text>
<text text-anchor="middle" x="1349" y="-172.059" font-family="Helvetica,sans-Serif" font-size="10.00" fill="#000000">layouts_x1x2</text>
</g>
<!-- Node21&#45;&gt;Node1 -->
<g id="edge32" class="edge">
<title>Node21&#45;&gt;Node1</title>
<path fill="none" stroke="#9a32cd" stroke-dasharray="5,2" d="M838.308,-177.2004C955.3836,-187.579 1195.5698,-210.1124 1398,-237.059 1403.7303,-237.8218 1409.6653,-238.6666 1415.6181,-239.5523"/>
<polygon fill="#9a32cd" stroke="#9a32cd" points="838.3176,-173.6877 828.0484,-176.2941 837.7016,-180.6606 838.3176,-173.6877"/>
<text text-anchor="middle" x="1064" y="-203.059" font-family="Helvetica,sans-Serif" font-size="10.00" fill="#000000"> rho_split</text>
</g>
<!-- Node22 -->
<g id="node22" class="node">
<title>Node22</title>
<polygon fill="#ffffff" stroke="#bfbfbf" points="1141.5,-51.559 1141.5,-70.559 1250.5,-70.559 1250.5,-51.559 1141.5,-51.559"/>
<text text-anchor="middle" x="1196" y="-58.559" font-family="Helvetica,sans-Serif" font-size="10.00" fill="#000000">sll_t_layout_2d_ptr</text>
</g>
<!-- Node22&#45;&gt;Node1 -->
<g id="edge34" class="edge">
<title>Node22&#45;&gt;Node1</title>
<path fill="none" stroke="#9a32cd" stroke-dasharray="5,2" d="M1238.4063,-49.1794C1282.0787,-39.5776 1350.3094,-32.1713 1398,-63.059 1459.5175,-102.902 1477.9198,-198.6271 1482.8576,-235.8714"/>
<polygon fill="#9a32cd" stroke="#9a32cd" points="1237.3437,-45.8332 1228.3996,-51.5125 1238.9331,-52.6504 1237.3437,-45.8332"/>
<text text-anchor="middle" x="1349" y="-77.059" font-family="Helvetica,sans-Serif" font-size="10.00" fill="#000000"> layouts_full</text>
<text text-anchor="middle" x="1349" y="-66.059" font-family="Helvetica,sans-Serif" font-size="10.00" fill="#000000">layouts_split</text>
</g>
<!-- Node23 -->
<g id="node23" class="node">
<title>Node23</title>
<polygon fill="#ffffff" stroke="#bfbfbf" points="1137.5,-2.059 1137.5,-32.059 1254.5,-32.059 1254.5,-2.059 1137.5,-2.059"/>
<text text-anchor="start" x="1145.5" y="-20.059" font-family="Helvetica,sans-Serif" font-size="10.00" fill="#000000">sll_t_remap_plan_2d</text>
<text text-anchor="middle" x="1196" y="-9.059" font-family="Helvetica,sans-Serif" font-size="10.00" fill="#000000">_real64_ptr</text>
</g>
<!-- Node23&#45;&gt;Node1 -->
<g id="edge35" class="edge">
<title>Node23&#45;&gt;Node1</title>
<path fill="none" stroke="#9a32cd" stroke-dasharray="5,2" d="M1264.5496,-2.4344C1306.8222,2.5958 1360.025,1.2902 1398,-26.059 1434.0819,-52.0448 1469.8633,-189.9218 1480.9815,-236.0281"/>
<polygon fill="#9a32cd" stroke="#9a32cd" points="1264.0585,1.0312 1254.607,-3.7562 1264.9811,-5.9077 1264.0585,1.0312"/>
<text text-anchor="middle" x="1349" y="-29.059" font-family="Helvetica,sans-Serif" font-size="10.00" fill="#000000"> remap_split2full</text>
</g>
</g>
</svg>
        <g id="navigator" transform="translate(0 0)" fill="#404254">
                <rect fill="#f2f5e9" fill-opacity="0.5" stroke="#606060" stroke-width=".5" x="0" y="0" width="60" height="60"/>
                <use id="zoomplus" xlink:href="#zoomPlus" x="17" y="9" onmousedown="handleZoom(evt,'in')"/>
                <use id="zoomminus" xlink:href="#zoomMin" x="42" y="9" onmousedown="handleZoom(evt,'out')"/>
                <use id="reset" xlink:href="#resetDef" x="30" y="36" onmousedown="handleReset()"/>
                <g id="arrowUp" xlink:href="#dirArrow" transform="translate(30 24)" onmousedown="handlePan(0,-1)">
                  <use xlink:href="#rim" fill="#404040">
                        <set attributeName="fill" to="#808080" begin="arrowUp.mouseover" end="arrowUp.mouseout"/>
                  </use>
                  <path fill="none" stroke="white" stroke-width="1.5" d="M0,-3.0v7 M-2.5,-0.5L0,-3.0L2.5,-0.5"/>
                </g>
                <g id="arrowRight" xlink:href="#dirArrow" transform="rotate(90) translate(36 -43)" onmousedown="handlePan(1,0)">
                  <use xlink:href="#rim" fill="#404040">
                        <set attributeName="fill" to="#808080" begin="arrowRight.mouseover" end="arrowRight.mouseout"/>
                  </use>
                  <path fill="none" stroke="white" stroke-width="1.5" d="M0,-3.0v7 M-2.5,-0.5L0,-3.0L2.5,-0.5"/>
                </g>
                <g id="arrowDown" xlink:href="#dirArrow" transform="rotate(180) translate(-30 -48)" onmousedown="handlePan(0,1)">
                  <use xlink:href="#rim" fill="#404040">
                        <set attributeName="fill" to="#808080" begin="arrowDown.mouseover" end="arrowDown.mouseout"/>
                  </use>
                  <path fill="none" stroke="white" stroke-width="1.5" d="M0,-3.0v7 M-2.5,-0.5L0,-3.0L2.5,-0.5"/>
                </g>
                <g id="arrowLeft" xlink:href="#dirArrow" transform="rotate(270) translate(-36 17)" onmousedown="handlePan(-1,0)">
                  <use xlink:href="#rim" fill="#404040">
                        <set attributeName="fill" to="#808080" begin="arrowLeft.mouseover" end="arrowLeft.mouseout"/>
                  </use>
                  <path fill="none" stroke="white" stroke-width="1.5" d="M0,-3.0v7 M-2.5,-0.5L0,-3.0L2.5,-0.5"/>
                </g>
        </g>
        <svg viewBox="0 0 15 15" width="100%" height="30px" preserveAspectRatio="xMaxYMin meet">
         <g id="arrow_out" transform="scale(0.3 0.3)">
          <a xlink:href="structsll__m__distribution__function__4d__multipatch_1_1sll__t__distribution__function__4d__multipatch__coll__graph_org.svg" target="_base">
           <rect id="button" ry="5" rx="5" y="6" x="6" height="38" width="38"
                fill="#f2f5e9" fill-opacity="0.5" stroke="#606060" stroke-width="1.0"/>
           <path id="arrow"
             d="M 11.500037,31.436501 C 11.940474,20.09759 22.043105,11.32322 32.158766,21.979434 L 37.068811,17.246167 C 37.068811,17.246167 37.088388,32 37.088388,32 L 22.160133,31.978069 C 22.160133,31.978069 26.997745,27.140456 26.997745,27.140456 C 18.528582,18.264221 13.291696,25.230495 11.500037,31.436501 z"
             style="fill:#404040;"/>
          </a>
         </g>
        </svg>
</svg>
