<?xml version="1.0" encoding="UTF-8" standalone="no"?>
<!DOCTYPE svg PUBLIC "-//W3C//DTD SVG 1.1//EN"
 "http://www.w3.org/Graphics/SVG/1.1/DTD/svg11.dtd">
<!-- Generated by graphviz version 2.40.1 (20161225.0304)
 -->
<!-- Title: sll_t_general_coordinate_elliptic_solver Pages: 1 -->
<svg width="911pt" height="668pt"
 viewBox="0.00 0.00 911.00 667.50" xmlns="http://www.w3.org/2000/svg" xmlns:xlink="http://www.w3.org/1999/xlink">
<g id="graph0" class="graph" transform="scale(1 1) rotate(0) translate(4 663.5)">
<title>sll_t_general_coordinate_elliptic_solver</title>
<polygon fill="#ffffff" stroke="transparent" points="-4,4 -4,-663.5 907,-663.5 907,4 -4,4"/>
<!-- Node1 -->
<g id="node1" class="node">
<title>Node1</title>
<polygon fill="#bfbfbf" stroke="#000000" points="767,-217.5 767,-247.5 903,-247.5 903,-217.5 767,-217.5"/>
<text text-anchor="start" x="775" y="-235.5" font-family="Helvetica,sans-Serif" font-size="10.00" fill="#000000">sll_t_general_coordinate</text>
<text text-anchor="middle" x="835" y="-224.5" font-family="Helvetica,sans-Serif" font-size="10.00" fill="#000000">_elliptic_solver</text>
</g>
<!-- Node2 -->
<g id="node2" class="node">
<title>Node2</title>
<polygon fill="#ffffff" stroke="#bfbfbf" points="524,-413 524,-432 573,-432 573,-413 524,-413"/>
<text text-anchor="middle" x="548.5" y="-420" font-family="Helvetica,sans-Serif" font-size="10.00" fill="#000000">logical</text>
</g>
<!-- Node2&#45;&gt;Node1 -->
<g id="edge1" class="edge">
<title>Node2&#45;&gt;Node1</title>
<path fill="none" stroke="#9a32cd" stroke-dasharray="5,2" d="M583.4885,-424.1497C626.4281,-424.4134 699.6038,-418.9584 749,-383.5 797.0361,-349.018 821.9285,-278.8231 830.9582,-247.8134"/>
<polygon fill="#9a32cd" stroke="#9a32cd" points="583.3146,-420.6463 573.2561,-423.9743 583.1945,-427.6453 583.3146,-420.6463"/>
<text text-anchor="middle" x="687.5" y="-468.5" font-family="Helvetica,sans-Serif" font-size="10.00" fill="#000000"> perper</text>
<text text-anchor="middle" x="687.5" y="-457.5" font-family="Helvetica,sans-Serif" font-size="10.00" fill="#000000">precompute_rhs</text>
<text text-anchor="middle" x="687.5" y="-446.5" font-family="Helvetica,sans-Serif" font-size="10.00" fill="#000000">use_cubic_splines</text>
<text text-anchor="middle" x="687.5" y="-435.5" font-family="Helvetica,sans-Serif" font-size="10.00" fill="#000000">with_constraint</text>
<text text-anchor="middle" x="687.5" y="-424.5" font-family="Helvetica,sans-Serif" font-size="10.00" fill="#000000">zero_mean</text>
</g>
<!-- Node3 -->
<g id="node3" class="node">
<title>Node3</title>
<g id="a_node3"><a xlink:href="structsll__m__cubic__splines_1_1sll__t__cubic__spline__2d.html" target="_top" xlink:title="Basic type for one&#45;dimensional cubic spline data. ">
<polygon fill="#ffffff" stroke="#000000" points="489,-375 489,-394 608,-394 608,-375 489,-375"/>
<text text-anchor="middle" x="548.5" y="-382" font-family="Helvetica,sans-Serif" font-size="10.00" fill="#000000">sll_t_cubic_spline_2d</text>
</a>
</g>
</g>
<!-- Node3&#45;&gt;Node1 -->
<g id="edge2" class="edge">
<title>Node3&#45;&gt;Node1</title>
<path fill="none" stroke="#9a32cd" stroke-dasharray="5,2" d="M613.4091,-372.7146C654.4583,-363.2466 707.4214,-347.1923 749,-321.5 780.9872,-301.7345 809.4297,-267.4024 824.2262,-247.6554"/>
<polygon fill="#9a32cd" stroke="#9a32cd" points="612.5087,-369.3294 603.5114,-374.924 614.0337,-376.1613 612.5087,-369.3294"/>
<text text-anchor="middle" x="687.5" y="-371.5" font-family="Helvetica,sans-Serif" font-size="10.00" fill="#000000"> cubic_spline</text>
</g>
<!-- Node4 -->
<g id="node4" class="node">
<title>Node4</title>
<polygon fill="#ffffff" stroke="#bfbfbf" points="25.5,-143 25.5,-162 128.5,-162 128.5,-143 25.5,-143"/>
<text text-anchor="middle" x="77" y="-150" font-family="Helvetica,sans-Serif" font-size="10.00" fill="#000000">integer(kind=i32)</text>
</g>
<!-- Node4&#45;&gt;Node1 -->
<g id="edge7" class="edge">
<title>Node4&#45;&gt;Node1</title>
<path fill="none" stroke="#9a32cd" stroke-dasharray="5,2" d="M112.7179,-165.4266C144.7953,-176.4466 193.4113,-191.7036 237,-199.5 288.3072,-208.677 431.342,-181.6786 471,-215.5 498.0703,-238.5863 461.1576,-271.351 489,-293.5 530.3897,-326.4261 555.5661,-300.4223 608,-293.5 673.54,-284.8474 747.0335,-262.7182 792.1687,-247.6337"/>
<polygon fill="#9a32cd" stroke="#9a32cd" points="113.5065,-161.9952 102.9117,-162.0124 111.2048,-168.6059 113.5065,-161.9952"/>
<text text-anchor="middle" x="407.5" y="-350.5" font-family="Helvetica,sans-Serif" font-size="10.00" fill="#000000"> rho_degree2</text>
<text text-anchor="middle" x="407.5" y="-339.5" font-family="Helvetica,sans-Serif" font-size="10.00" fill="#000000">bc1_max</text>
<text text-anchor="middle" x="407.5" y="-328.5" font-family="Helvetica,sans-Serif" font-size="10.00" fill="#000000">bc2_max</text>
<text text-anchor="start" x="350.5" y="-317.5" font-family="Helvetica,sans-Serif" font-size="10.00" fill="#000000">local_to_global</text>
<text text-anchor="middle" x="407.5" y="-306.5" font-family="Helvetica,sans-Serif" font-size="10.00" fill="#000000">_indices_source</text>
<text text-anchor="start" x="350.5" y="-295.5" font-family="Helvetica,sans-Serif" font-size="10.00" fill="#000000">total_num_splines</text>
<text text-anchor="middle" x="407.5" y="-284.5" font-family="Helvetica,sans-Serif" font-size="10.00" fill="#000000">_loc</text>
<text text-anchor="middle" x="407.5" y="-273.5" font-family="Helvetica,sans-Serif" font-size="10.00" fill="#000000">spline_degree1</text>
<text text-anchor="middle" x="407.5" y="-262.5" font-family="Helvetica,sans-Serif" font-size="10.00" fill="#000000">total_num_splines1</text>
<text text-anchor="middle" x="407.5" y="-251.5" font-family="Helvetica,sans-Serif" font-size="10.00" fill="#000000">spline_degree2</text>
<text text-anchor="middle" x="407.5" y="-240.5" font-family="Helvetica,sans-Serif" font-size="10.00" fill="#000000">total_num_splines2</text>
<text text-anchor="middle" x="407.5" y="-229.5" font-family="Helvetica,sans-Serif" font-size="10.00" fill="#000000">local_to_global_indices</text>
<text text-anchor="middle" x="407.5" y="-218.5" font-family="Helvetica,sans-Serif" font-size="10.00" fill="#000000">...</text>
</g>
<!-- Node4&#45;&gt;Node3 -->
<g id="edge3" class="edge">
<title>Node4&#45;&gt;Node3</title>
<path fill="none" stroke="#9a32cd" stroke-dasharray="5,2" d="M78.5823,-172.5255C84.9191,-238.618 114.4257,-451.668 237,-558.5 315.8836,-627.2525 393.4336,-654.7352 471,-584.5 500.9626,-557.3693 463.5708,-434.9195 489,-403.5 492.1381,-399.6227 496.0696,-396.5253 500.4079,-394.0527"/>
<polygon fill="#9a32cd" stroke="#9a32cd" points="82.0424,-171.9181 77.6764,-162.2647 75.0695,-172.5338 82.0424,-171.9181"/>
<text text-anchor="middle" x="281.5" y="-651.5" font-family="Helvetica,sans-Serif" font-size="10.00" fill="#000000"> num_pts_x1</text>
<text text-anchor="middle" x="281.5" y="-640.5" font-family="Helvetica,sans-Serif" font-size="10.00" fill="#000000">num_pts_x2</text>
<text text-anchor="middle" x="281.5" y="-629.5" font-family="Helvetica,sans-Serif" font-size="10.00" fill="#000000">x1_bc_type</text>
<text text-anchor="middle" x="281.5" y="-618.5" font-family="Helvetica,sans-Serif" font-size="10.00" fill="#000000">x2_bc_type</text>
</g>
<!-- Node8 -->
<g id="node8" class="node">
<title>Node8</title>
<g id="a_node8"><a xlink:href="structsll__m__sparse__matrix_1_1sll__t__csr__matrix.html" target="_top" xlink:title="type for CSR format ">
<polygon fill="#ffffff" stroke="#000000" points="501.5,-65 501.5,-84 595.5,-84 595.5,-65 501.5,-65"/>
<text text-anchor="middle" x="548.5" y="-72" font-family="Helvetica,sans-Serif" font-size="10.00" fill="#000000">sll_t_csr_matrix</text>
</a>
</g>
</g>
<!-- Node4&#45;&gt;Node8 -->
<g id="edge12" class="edge">
<title>Node4&#45;&gt;Node8</title>
<path fill="none" stroke="#9a32cd" stroke-dasharray="5,2" d="M107.5038,-138.7829C139.1733,-125.2268 190.4967,-105.158 237,-95.5 329.2094,-76.3496 439.7438,-73.5207 501.2523,-73.6798"/>
<polygon fill="#9a32cd" stroke="#9a32cd" points="105.7219,-135.7408 97.9431,-142.9339 108.5098,-142.1617 105.7219,-135.7408"/>
<text text-anchor="middle" x="281.5" y="-153.5" font-family="Helvetica,sans-Serif" font-size="10.00" fill="#000000"> solver</text>
<text text-anchor="middle" x="281.5" y="-142.5" font-family="Helvetica,sans-Serif" font-size="10.00" fill="#000000">col_ind</text>
<text text-anchor="middle" x="281.5" y="-131.5" font-family="Helvetica,sans-Serif" font-size="10.00" fill="#000000">num_cols</text>
<text text-anchor="middle" x="281.5" y="-120.5" font-family="Helvetica,sans-Serif" font-size="10.00" fill="#000000">num_nz</text>
<text text-anchor="middle" x="281.5" y="-109.5" font-family="Helvetica,sans-Serif" font-size="10.00" fill="#000000">row_ptr</text>
<text text-anchor="middle" x="281.5" y="-98.5" font-family="Helvetica,sans-Serif" font-size="10.00" fill="#000000">num_rows</text>
</g>
<!-- Node9 -->
<g id="node9" class="node">
<title>Node9</title>
<g id="a_node9"><a xlink:href="structsll__m__pastix_1_1pastix__solver.html" target="_top" xlink:title="pastix_solver">
<polygon fill="#ffffff" stroke="#000000" points="240.5,-31 240.5,-50 322.5,-50 322.5,-31 240.5,-31"/>
<text text-anchor="middle" x="281.5" y="-38" font-family="Helvetica,sans-Serif" font-size="10.00" fill="#000000">pastix_solver</text>
</a>
</g>
</g>
<!-- Node4&#45;&gt;Node9 -->
<g id="edge10" class="edge">
<title>Node4&#45;&gt;Node9</title>
<path fill="none" stroke="#9a32cd" stroke-dasharray="5,2" d="M87.9149,-134.2067C103.3096,-110.283 133.8306,-69.2209 172,-50.5 192.9953,-40.2024 218.9705,-37.4702 240.3521,-37.4209"/>
<polygon fill="#9a32cd" stroke="#9a32cd" points="84.9186,-132.3972 82.6014,-142.7355 90.8599,-136.0987 84.9186,-132.3972"/>
<text text-anchor="middle" x="195.5" y="-64.5" font-family="Helvetica,sans-Serif" font-size="10.00" fill="#000000"> nbthread</text>
<text text-anchor="middle" x="195.5" y="-53.5" font-family="Helvetica,sans-Serif" font-size="10.00" fill="#000000">verbose</text>
</g>
<!-- Node5 -->
<g id="node5" class="node">
<title>Node5</title>
<polygon fill="#ffffff" stroke="#bfbfbf" points="237,-530 237,-549 326,-549 326,-530 237,-530"/>
<text text-anchor="middle" x="281.5" y="-537" font-family="Helvetica,sans-Serif" font-size="10.00" fill="#000000">logical, private</text>
</g>
<!-- Node5&#45;&gt;Node3 -->
<g id="edge4" class="edge">
<title>Node5&#45;&gt;Node3</title>
<path fill="none" stroke="#9a32cd" stroke-dasharray="5,2" d="M336.3315,-540.25C385.352,-539.6907 452.2611,-535.4855 471,-517.5 508.0069,-481.981 455.5976,-442.428 489,-403.5 492.3188,-399.6321 496.4246,-396.5441 500.9164,-394.0799"/>
<polygon fill="#9a32cd" stroke="#9a32cd" points="336.1429,-536.751 326.1664,-540.3176 336.1895,-543.7509 336.1429,-536.751"/>
<text text-anchor="middle" x="407.5" y="-575.5" font-family="Helvetica,sans-Serif" font-size="10.00" fill="#000000"> compute_slopes_x1_max</text>
<text text-anchor="middle" x="407.5" y="-564.5" font-family="Helvetica,sans-Serif" font-size="10.00" fill="#000000">compute_slopes_x2_max</text>
<text text-anchor="middle" x="407.5" y="-553.5" font-family="Helvetica,sans-Serif" font-size="10.00" fill="#000000">compute_slopes_x1_min</text>
<text text-anchor="middle" x="407.5" y="-542.5" font-family="Helvetica,sans-Serif" font-size="10.00" fill="#000000">compute_slopes_x2_min</text>
</g>
<!-- Node6 -->
<g id="node6" class="node">
<title>Node6</title>
<polygon fill="#ffffff" stroke="#bfbfbf" points="237.5,-171 237.5,-190 325.5,-190 325.5,-171 237.5,-171"/>
<text text-anchor="middle" x="281.5" y="-178" font-family="Helvetica,sans-Serif" font-size="10.00" fill="#000000">real(kind=f64)</text>
</g>
<!-- Node6&#45;&gt;Node1 -->
<g id="edge14" class="edge">
<title>Node6&#45;&gt;Node1</title>
<path fill="none" stroke="#9a32cd" stroke-dasharray="5,2" d="M335.5693,-174.1284C400.5446,-167.6332 512.7291,-160.1217 608,-172.5 673.2837,-180.9822 746.54,-202.6412 791.7279,-217.4759"/>
<polygon fill="#9a32cd" stroke="#9a32cd" points="335.1454,-170.6535 325.5563,-175.1589 335.8621,-177.6167 335.1454,-170.6535"/>
<text text-anchor="middle" x="548.5" y="-285.5" font-family="Helvetica,sans-Serif" font-size="10.00" fill="#000000"> delta_eta1</text>
<text text-anchor="middle" x="548.5" y="-274.5" font-family="Helvetica,sans-Serif" font-size="10.00" fill="#000000">epsi</text>
<text text-anchor="middle" x="548.5" y="-263.5" font-family="Helvetica,sans-Serif" font-size="10.00" fill="#000000">delta_eta2</text>
<text text-anchor="middle" x="548.5" y="-252.5" font-family="Helvetica,sans-Serif" font-size="10.00" fill="#000000">rho_coeff_1d</text>
<text text-anchor="middle" x="548.5" y="-241.5" font-family="Helvetica,sans-Serif" font-size="10.00" fill="#000000">stiff</text>
<text text-anchor="middle" x="548.5" y="-230.5" font-family="Helvetica,sans-Serif" font-size="10.00" fill="#000000">gauss_pts1</text>
<text text-anchor="middle" x="548.5" y="-219.5" font-family="Helvetica,sans-Serif" font-size="10.00" fill="#000000">gauss_pts2</text>
<text text-anchor="middle" x="548.5" y="-208.5" font-family="Helvetica,sans-Serif" font-size="10.00" fill="#000000">phi_vec</text>
<text text-anchor="middle" x="548.5" y="-197.5" font-family="Helvetica,sans-Serif" font-size="10.00" fill="#000000">v_rho_splines1</text>
<text text-anchor="middle" x="548.5" y="-186.5" font-family="Helvetica,sans-Serif" font-size="10.00" fill="#000000">v_splines1</text>
<text text-anchor="middle" x="548.5" y="-175.5" font-family="Helvetica,sans-Serif" font-size="10.00" fill="#000000">...</text>
</g>
<!-- Node6&#45;&gt;Node3 -->
<g id="edge5" class="edge">
<title>Node6&#45;&gt;Node3</title>
<path fill="none" stroke="#9a32cd" stroke-dasharray="5,2" d="M285.5242,-200.338C294.6171,-243.0929 317.9929,-341.7435 344,-362.5 355.1811,-371.4238 432.4967,-377.796 488.7681,-381.3144"/>
<polygon fill="#9a32cd" stroke="#9a32cd" points="288.9015,-199.3875 283.4371,-190.3106 282.0484,-200.814 288.9015,-199.3875"/>
<text text-anchor="middle" x="407.5" y="-503.5" font-family="Helvetica,sans-Serif" font-size="10.00" fill="#000000"> d1</text>
<text text-anchor="middle" x="407.5" y="-492.5" font-family="Helvetica,sans-Serif" font-size="10.00" fill="#000000">x2_min</text>
<text text-anchor="middle" x="407.5" y="-481.5" font-family="Helvetica,sans-Serif" font-size="10.00" fill="#000000">x1_max</text>
<text text-anchor="middle" x="407.5" y="-470.5" font-family="Helvetica,sans-Serif" font-size="10.00" fill="#000000">x1_min_slopes</text>
<text text-anchor="middle" x="407.5" y="-459.5" font-family="Helvetica,sans-Serif" font-size="10.00" fill="#000000">d2</text>
<text text-anchor="middle" x="407.5" y="-448.5" font-family="Helvetica,sans-Serif" font-size="10.00" fill="#000000">x2_max</text>
<text text-anchor="start" x="369.5" y="-437.5" font-family="Helvetica,sans-Serif" font-size="10.00" fill="#000000">x2_min_slopes</text>
<text text-anchor="middle" x="407.5" y="-426.5" font-family="Helvetica,sans-Serif" font-size="10.00" fill="#000000">_coeffs</text>
<text text-anchor="middle" x="407.5" y="-415.5" font-family="Helvetica,sans-Serif" font-size="10.00" fill="#000000">x2_rdelta</text>
<text text-anchor="middle" x="407.5" y="-404.5" font-family="Helvetica,sans-Serif" font-size="10.00" fill="#000000">x2_max_slopes</text>
<text text-anchor="middle" x="407.5" y="-393.5" font-family="Helvetica,sans-Serif" font-size="10.00" fill="#000000">x1_delta</text>
<text text-anchor="middle" x="407.5" y="-382.5" font-family="Helvetica,sans-Serif" font-size="10.00" fill="#000000">...</text>
</g>
<!-- Node6&#45;&gt;Node8 -->
<g id="edge13" class="edge">
<title>Node6&#45;&gt;Node8</title>
<path fill="none" stroke="#9a32cd" stroke-dasharray="5,2" d="M312.5145,-165.9389C317.2477,-163.1153 321.9113,-159.9486 326,-156.5 335.9224,-148.131 333.1457,-140.6189 344,-133.5 392.766,-101.5162 415.5067,-118.4326 471,-100.5 479.1678,-97.8606 480.9077,-96.3625 489,-93.5 498.2007,-90.2454 508.2862,-86.9309 517.4971,-84.0008"/>
<polygon fill="#9a32cd" stroke="#9a32cd" points="310.5279,-163.0374 303.4597,-170.9298 313.907,-169.1679 310.5279,-163.0374"/>
<text text-anchor="middle" x="407.5" y="-136.5" font-family="Helvetica,sans-Serif" font-size="10.00" fill="#000000"> val</text>
</g>
<!-- Node7 -->
<g id="node7" class="node">
<title>Node7</title>
<g id="a_node7"><a xlink:href="namespacesll__m__deboor__splines__1d.html#structsll__m__deboor__splines__1d_1_1sll__t__deboor__type" target="_top" xlink:title="sll_t_deboor_type">
<polygon fill="#ffffff" stroke="#000000" points="497,-103 497,-122 600,-122 600,-103 497,-103"/>
<text text-anchor="middle" x="548.5" y="-110" font-family="Helvetica,sans-Serif" font-size="10.00" fill="#000000">sll_t_deboor_type</text>
</a>
</g>
</g>
<!-- Node7&#45;&gt;Node1 -->
<g id="edge6" class="edge">
<title>Node7&#45;&gt;Node1</title>
<path fill="none" stroke="#9a32cd" stroke-dasharray="5,2" d="M610.1011,-114.0387C659.9367,-116.1788 725.5469,-121.2914 749,-133.5 785.7542,-152.6325 813.7157,-194.5988 826.8098,-217.2619"/>
<polygon fill="#9a32cd" stroke="#9a32cd" points="610.1763,-110.539 600.0446,-113.6374 609.8971,-117.5335 610.1763,-110.539"/>
<text text-anchor="middle" x="687.5" y="-136.5" font-family="Helvetica,sans-Serif" font-size="10.00" fill="#000000"> db</text>
</g>
<!-- Node8&#45;&gt;Node1 -->
<g id="edge8" class="edge">
<title>Node8&#45;&gt;Node1</title>
<path fill="none" stroke="#9a32cd" stroke-dasharray="5,2" d="M593.9112,-62.9602C637.0064,-54.6776 701.9954,-49.3493 749,-77.5 801.2752,-108.8071 824.1329,-184.4079 831.8069,-217.0575"/>
<polygon fill="#9a32cd" stroke="#9a32cd" points="593.083,-59.5571 583.9892,-64.9934 594.4883,-66.4146 593.083,-59.5571"/>
<text text-anchor="middle" x="687.5" y="-102.5" font-family="Helvetica,sans-Serif" font-size="10.00" fill="#000000"> csr_mat_with_constraint</text>
<text text-anchor="middle" x="687.5" y="-91.5" font-family="Helvetica,sans-Serif" font-size="10.00" fill="#000000">csr_mat_source</text>
<text text-anchor="middle" x="687.5" y="-80.5" font-family="Helvetica,sans-Serif" font-size="10.00" fill="#000000">csr_mat</text>
</g>
<!-- Node9&#45;&gt;Node8 -->
<g id="edge9" class="edge">
<title>Node9&#45;&gt;Node8</title>
<path fill="none" stroke="#9a32cd" stroke-dasharray="5,2" d="M332.9613,-45.4188C371.1301,-49.2574 424.4009,-55.0148 471,-61.5 480.8642,-62.8728 491.4046,-64.5198 501.4334,-66.1729"/>
<polygon fill="#9a32cd" stroke="#9a32cd" points="332.912,-41.8966 322.6143,-44.3879 332.218,-48.8621 332.912,-41.8966"/>
<text text-anchor="middle" x="407.5" y="-64.5" font-family="Helvetica,sans-Serif" font-size="10.00" fill="#000000"> linear_solver</text>
</g>
<!-- Node10 -->
<g id="node10" class="node">
<title>Node10</title>
<polygon fill="#ffffff" stroke="#bfbfbf" points="0,-.5 0,-30.5 154,-30.5 154,-.5 0,-.5"/>
<text text-anchor="start" x="8" y="-18.5" font-family="Helvetica,sans-Serif" font-size="10.00" fill="#000000">double precision, dimension</text>
<text text-anchor="middle" x="77" y="-7.5" font-family="Helvetica,sans-Serif" font-size="10.00" fill="#000000">(dparm_size)</text>
</g>
<!-- Node10&#45;&gt;Node9 -->
<g id="edge11" class="edge">
<title>Node10&#45;&gt;Node9</title>
<path fill="none" stroke="#9a32cd" stroke-dasharray="5,2" d="M164.1658,-11.186C182.4006,-11.6575 201.4222,-13.177 219,-16.5 233.9614,-19.3284 249.9767,-25.5466 262.0497,-30.9448"/>
<polygon fill="#9a32cd" stroke="#9a32cd" points="164.1847,-7.6859 154.1305,-11.0271 164.0738,-14.6851 164.1847,-7.6859"/>
<text text-anchor="middle" x="195.5" y="-19.5" font-family="Helvetica,sans-Serif" font-size="10.00" fill="#000000"> dparm</text>
</g>
</g>
</svg>
