<?xml version="1.0" encoding="UTF-8" standalone="no"?>
<!DOCTYPE svg PUBLIC "-//W3C//DTD SVG 1.1//EN"
 "http://www.w3.org/Graphics/SVG/1.1/DTD/svg11.dtd">
<!-- Generated by graphviz version 2.43.0 (0)
 -->
<!-- Title: sll_maxwell_solver Pages: 1 -->
<svg width="226pt" height="183pt"
 viewBox="0.00 0.00 225.50 183.00" xmlns="http://www.w3.org/2000/svg" xmlns:xlink="http://www.w3.org/1999/xlink">
<g id="graph0" class="graph" transform="scale(1 1) rotate(0) translate(4 179)">
<title>sll_maxwell_solver</title>
<polygon fill="white" stroke="transparent" points="-4,4 -4,-179 221.5,-179 221.5,4 -4,4"/>
<!-- Node1 -->
<g id="node1" class="node">
<title>Node1</title>
<g id="a_node1"><a xlink:title="Parent object of all Maxwell solvers.">
<polygon fill="#bfbfbf" stroke="black" points="53.5,-0.5 53.5,-19.5 163.5,-19.5 163.5,-0.5 53.5,-0.5"/>
<text text-anchor="middle" x="108.5" y="-7.5" font-family="Helvetica,sans-Serif" font-size="10.00">sll_maxwell_solver</text>
</a>
</g>
</g>
<!-- Node2 -->
<g id="node2" class="node">
<title>Node2</title>
<g id="a_node2"><a xlink:title=" ">
<polygon fill="white" stroke="#bfbfbf" points="0,-155.5 0,-174.5 103,-174.5 103,-155.5 0,-155.5"/>
<text text-anchor="middle" x="51.5" y="-162.5" font-family="Helvetica,sans-Serif" font-size="10.00">integer(kind=i32)</text>
</a>
</g>
</g>
<!-- Node2&#45;&gt;Node1 -->
<g id="edge1" class="edge">
<title>Node2&#45;&gt;Node1</title>
<path fill="none" stroke="#9a32cd" stroke-dasharray="5,2" d="M53.04,-145.34C55.81,-119.73 63.26,-72.9 82.5,-38 86.33,-31.05 92.42,-24.59 97.74,-19.73"/>
<polygon fill="#9a32cd" stroke="#9a32cd" points="49.54,-145.21 52.07,-155.5 56.5,-145.87 49.54,-145.21"/>
<text text-anchor="middle" x="113" y="-96" font-family="Helvetica,sans-Serif" font-size="10.00"> polarization</text>
<text text-anchor="middle" x="113" y="-85" font-family="Helvetica,sans-Serif" font-size="10.00">nc_eta1</text>
<text text-anchor="middle" x="113" y="-74" font-family="Helvetica,sans-Serif" font-size="10.00">nc_eta2</text>
</g>
<!-- Node3 -->
<g id="node3" class="node">
<title>Node3</title>
<g id="a_node3"><a xlink:title=" ">
<polygon fill="white" stroke="#bfbfbf" points="121.5,-155.5 121.5,-174.5 209.5,-174.5 209.5,-155.5 121.5,-155.5"/>
<text text-anchor="middle" x="165.5" y="-162.5" font-family="Helvetica,sans-Serif" font-size="10.00">real(kind=f64)</text>
</a>
</g>
</g>
<!-- Node3&#45;&gt;Node1 -->
<g id="edge2" class="edge">
<title>Node3&#45;&gt;Node1</title>
<path fill="none" stroke="#9a32cd" stroke-dasharray="5,2" d="M166.31,-144.98C166.55,-118.95 163.81,-71.63 143.5,-38 138.9,-30.38 131.28,-24.12 124.32,-19.56"/>
<polygon fill="#9a32cd" stroke="#9a32cd" points="162.81,-145.23 166.04,-155.32 169.8,-145.41 162.81,-145.23"/>
<text text-anchor="middle" x="191.5" y="-129" font-family="Helvetica,sans-Serif" font-size="10.00"> eta2_max</text>
<text text-anchor="middle" x="191.5" y="-118" font-family="Helvetica,sans-Serif" font-size="10.00">delta_eta1</text>
<text text-anchor="middle" x="191.5" y="-107" font-family="Helvetica,sans-Serif" font-size="10.00">delta_eta2</text>
<text text-anchor="middle" x="191.5" y="-96" font-family="Helvetica,sans-Serif" font-size="10.00">e_0</text>
<text text-anchor="middle" x="191.5" y="-85" font-family="Helvetica,sans-Serif" font-size="10.00">eta1_min</text>
<text text-anchor="middle" x="191.5" y="-74" font-family="Helvetica,sans-Serif" font-size="10.00">eta2_min</text>
<text text-anchor="middle" x="191.5" y="-63" font-family="Helvetica,sans-Serif" font-size="10.00">mu_0</text>
<text text-anchor="middle" x="191.5" y="-52" font-family="Helvetica,sans-Serif" font-size="10.00">c</text>
<text text-anchor="middle" x="191.5" y="-41" font-family="Helvetica,sans-Serif" font-size="10.00">eta1_max</text>
</g>
</g>
</svg>
