<?xml version="1.0" encoding="UTF-8" standalone="no"?>
<!DOCTYPE svg PUBLIC "-//W3C//DTD SVG 1.1//EN"
 "http://www.w3.org/Graphics/SVG/1.1/DTD/svg11.dtd">
<!-- Generated by graphviz version 2.43.0 (0)
 -->
<!-- Title: sll_t_cubic_spline_interpolator_1d Pages: 1 -->
<!--zoomable 285 -->
<svg id="main" version="1.1" xmlns="http://www.w3.org/2000/svg" xmlns:xlink="http://www.w3.org/1999/xlink" xml:space="preserve" onload="init(evt)">
<style type="text/css"><![CDATA[
.edge:hover path { stroke: red; }
.edge:hover polygon { stroke: red; fill: red; }
]]></style>
<script type="text/javascript"><![CDATA[
var edges = document.getElementsByTagName('g');
if (edges && edges.length) {
  for (var i=0;i<edges.length;i++) {
    if (edges[i].id.substr(0,4)=='edge') {
      edges[i].setAttribute('class','edge');
    }
  }
}
]]></script>
        <defs>
                <circle id="rim" cx="0" cy="0" r="7"/>
                <circle id="rim2" cx="0" cy="0" r="3.5"/>
                <g id="zoomPlus">
                        <use xlink:href="#rim" fill="#404040">
                                <set attributeName="fill" to="#808080" begin="zoomplus.mouseover" end="zoomplus.mouseout"/>
                        </use>
                        <path d="M-4,0h8M0,-4v8" fill="none" stroke="white" stroke-width="1.5" pointer-events="none"/>
                </g>
                <g id="zoomMin">
                        <use xlink:href="#rim" fill="#404040">
                                <set attributeName="fill" to="#808080" begin="zoomminus.mouseover" end="zoomminus.mouseout"/>
                        </use>
                        <path d="M-4,0h8" fill="none" stroke="white" stroke-width="1.5" pointer-events="none"/>
                </g>
                <g id="dirArrow">
                        <path fill="none" stroke="white" stroke-width="1.5" d="M0,-3.0v7 M-2.5,-0.5L0,-3.0L2.5,-0.5"/>
                </g>
               <g id="resetDef">
                       <use xlink:href="#rim2" fill="#404040">
                               <set attributeName="fill" to="#808080" begin="reset.mouseover" end="reset.mouseout"/>
                       </use>
               </g>
        </defs>

<script type="text/javascript">
var viewWidth = 524;
var viewHeight = 285;
var sectionId = 'dynsection-1';
</script>
<script xlink:href="svgpan.js"/>
<svg id="graph" class="graph">
<g id="viewport">
<title>sll_t_cubic_spline_interpolator_1d</title>
<polygon fill="white" stroke="transparent" points="-4,4 -4,-281 520,-281 520,4 -4,4"/>
<!-- Node1 -->
<g id="node1" class="node">
<title>Node1</title>
<g id="a_node1"><a xlink:title="Cubic spline interpolator 1d regular grid.">
<polygon fill="#bfbfbf" stroke="black" points="146,-0.5 146,-30.5 248,-30.5 248,-0.5 146,-0.5"/>
<text text-anchor="start" x="154" y="-18.5" font-family="Helvetica,sans-Serif" font-size="10.00">sll_t_cubic_spline</text>
<text text-anchor="middle" x="197" y="-7.5" font-family="Helvetica,sans-Serif" font-size="10.00">_interpolator_1d</text>
</a>
</g>
</g>
<!-- Node2 -->
<g id="node2" class="node">
<title>Node2</title>
<g id="a_node2"><a xlink:href="structsll__m__interpolators__1d__base_1_1sll__c__interpolator__1d.html" target="_top" xlink:title="Abstract class for 1D interpolation and reconstruction.">
<polygon fill="white" stroke="black" points="0,-79.5 0,-98.5 118,-98.5 118,-79.5 0,-79.5"/>
<text text-anchor="middle" x="59" y="-86.5" font-family="Helvetica,sans-Serif" font-size="10.00">sll_c_interpolator_1d</text>
</a>
</g>
</g>
<!-- Node2&#45;&gt;Node1 -->
<g id="edge1" class="edge">
<title>Node2&#45;&gt;Node1</title>
<path fill="none" stroke="midnightblue" d="M84.61,-74.73C108.85,-62.17 145.11,-43.39 169.84,-30.57"/>
<polygon fill="midnightblue" stroke="midnightblue" points="82.91,-71.67 75.65,-79.38 86.14,-77.88 82.91,-71.67"/>
</g>
<!-- Node3 -->
<g id="node3" class="node">
<title>Node3</title>
<g id="a_node3"><a xlink:href="structsll__m__cubic__splines_1_1sll__t__cubic__spline__1d.html" target="_top" xlink:title="basic type for one&#45;dimensional cubic spline data.">
<polygon fill="white" stroke="black" points="233.5,-79.5 233.5,-98.5 352.5,-98.5 352.5,-79.5 233.5,-79.5"/>
<text text-anchor="middle" x="293" y="-86.5" font-family="Helvetica,sans-Serif" font-size="10.00">sll_t_cubic_spline_1d</text>
</a>
</g>
</g>
<!-- Node3&#45;&gt;Node1 -->
<g id="edge2" class="edge">
<title>Node3&#45;&gt;Node1</title>
<path fill="none" stroke="#9a32cd" stroke-dasharray="5,2" d="M273.15,-73.22C256.32,-60.68 232.34,-42.82 215.81,-30.51"/>
<polygon fill="#9a32cd" stroke="#9a32cd" points="271.12,-76.07 281.23,-79.23 275.3,-70.45 271.12,-76.07"/>
<text text-anchor="middle" x="270.5" y="-52" font-family="Helvetica,sans-Serif" font-size="10.00"> spline</text>
</g>
<!-- Node4 -->
<g id="node4" class="node">
<title>Node4</title>
<g id="a_node4"><a xlink:title=" ">
<polygon fill="white" stroke="#bfbfbf" points="102.5,-257.5 102.5,-276.5 205.5,-276.5 205.5,-257.5 102.5,-257.5"/>
<text text-anchor="middle" x="154" y="-264.5" font-family="Helvetica,sans-Serif" font-size="10.00">integer(kind=i32)</text>
</a>
</g>
</g>
<!-- Node4&#45;&gt;Node1 -->
<g id="edge6" class="edge">
<title>Node4&#45;&gt;Node1</title>
<path fill="none" stroke="#9a32cd" stroke-dasharray="5,2" d="M152.13,-247.12C149.32,-212.72 146.01,-137.88 163,-78 167.93,-60.63 178.52,-42.79 186.58,-30.83"/>
<polygon fill="#9a32cd" stroke="#9a32cd" points="148.65,-247.51 153.03,-257.15 155.62,-246.88 148.65,-247.51"/>
<text text-anchor="middle" x="193.5" y="-92" font-family="Helvetica,sans-Serif" font-size="10.00"> num_points</text>
<text text-anchor="middle" x="193.5" y="-81" font-family="Helvetica,sans-Serif" font-size="10.00">bc_type</text>
</g>
<!-- Node4&#45;&gt;Node3 -->
<g id="edge3" class="edge">
<title>Node4&#45;&gt;Node3</title>
<path fill="none" stroke="#9a32cd" stroke-dasharray="5,2" d="M163.65,-248.14C165.17,-245.12 166.67,-241.99 168,-239 191.25,-186.54 172.04,-158.18 213,-118 222.24,-108.93 234.59,-102.79 246.8,-98.63"/>
<polygon fill="#9a32cd" stroke="#9a32cd" points="160.48,-246.65 158.95,-257.13 166.68,-249.89 160.48,-246.65"/>
<text text-anchor="middle" x="234" y="-187" font-family="Helvetica,sans-Serif" font-size="10.00"> ipiv</text>
<text text-anchor="middle" x="234" y="-176" font-family="Helvetica,sans-Serif" font-size="10.00">n_points</text>
<text text-anchor="middle" x="234" y="-165" font-family="Helvetica,sans-Serif" font-size="10.00">bc_type</text>
</g>
<!-- Node5 -->
<g id="node5" class="node">
<title>Node5</title>
<g id="a_node5"><a xlink:title=" ">
<polygon fill="white" stroke="#bfbfbf" points="223.5,-257.5 223.5,-276.5 312.5,-276.5 312.5,-257.5 223.5,-257.5"/>
<text text-anchor="middle" x="268" y="-264.5" font-family="Helvetica,sans-Serif" font-size="10.00">logical, private</text>
</a>
</g>
</g>
<!-- Node5&#45;&gt;Node3 -->
<g id="edge4" class="edge">
<title>Node5&#45;&gt;Node3</title>
<path fill="none" stroke="#9a32cd" stroke-dasharray="5,2" d="M264.16,-247.38C259.08,-218.59 252.56,-161.98 269,-118 271.78,-110.56 277.5,-103.76 282.65,-98.72"/>
<polygon fill="#9a32cd" stroke="#9a32cd" points="260.74,-248.12 266.05,-257.29 267.61,-246.81 260.74,-248.12"/>
<text text-anchor="middle" x="317.5" y="-187" font-family="Helvetica,sans-Serif" font-size="10.00"> use_fast_algorithm</text>
<text text-anchor="middle" x="317.5" y="-176" font-family="Helvetica,sans-Serif" font-size="10.00">compute_slope_l</text>
<text text-anchor="middle" x="317.5" y="-165" font-family="Helvetica,sans-Serif" font-size="10.00">compute_slope_r</text>
</g>
<!-- Node6 -->
<g id="node6" class="node">
<title>Node6</title>
<g id="a_node6"><a xlink:title=" ">
<polygon fill="white" stroke="#bfbfbf" points="371,-257.5 371,-276.5 459,-276.5 459,-257.5 371,-257.5"/>
<text text-anchor="middle" x="415" y="-264.5" font-family="Helvetica,sans-Serif" font-size="10.00">real(kind=f64)</text>
</a>
</g>
</g>
<!-- Node6&#45;&gt;Node1 -->
<g id="edge7" class="edge">
<title>Node6&#45;&gt;Node1</title>
<path fill="none" stroke="#9a32cd" stroke-dasharray="5,2" d="M424.85,-248.4C426.15,-245.35 427.28,-242.14 428,-239 439.96,-186.57 454.39,-164.86 428,-118 392.04,-54.17 304.47,-30.42 248.08,-21.62"/>
<polygon fill="#9a32cd" stroke="#9a32cd" points="421.71,-246.86 420.39,-257.37 427.97,-249.97 421.71,-246.86"/>
<text text-anchor="middle" x="465.5" y="-86.5" font-family="Helvetica,sans-Serif" font-size="10.00"> interpolation_points</text>
</g>
<!-- Node6&#45;&gt;Node3 -->
<g id="edge5" class="edge">
<title>Node6&#45;&gt;Node3</title>
<path fill="none" stroke="#9a32cd" stroke-dasharray="5,2" d="M396.9,-250.16C393.87,-246.75 391.05,-242.97 389,-239 363.86,-190.37 401.11,-160 366,-118 358.34,-108.83 347.32,-102.66 336.16,-98.51"/>
<polygon fill="#9a32cd" stroke="#9a32cd" points="394.54,-252.75 404.08,-257.35 399.49,-247.8 394.54,-252.75"/>
<text text-anchor="middle" x="408.5" y="-231" font-family="Helvetica,sans-Serif" font-size="10.00"> slope_r</text>
<text text-anchor="middle" x="408.5" y="-220" font-family="Helvetica,sans-Serif" font-size="10.00">delta</text>
<text text-anchor="middle" x="408.5" y="-209" font-family="Helvetica,sans-Serif" font-size="10.00">f_aux</text>
<text text-anchor="middle" x="408.5" y="-198" font-family="Helvetica,sans-Serif" font-size="10.00">rdelta</text>
<text text-anchor="middle" x="408.5" y="-187" font-family="Helvetica,sans-Serif" font-size="10.00">coeffs</text>
<text text-anchor="middle" x="408.5" y="-176" font-family="Helvetica,sans-Serif" font-size="10.00">slope_l</text>
<text text-anchor="middle" x="408.5" y="-165" font-family="Helvetica,sans-Serif" font-size="10.00">xmin</text>
<text text-anchor="middle" x="408.5" y="-154" font-family="Helvetica,sans-Serif" font-size="10.00">a</text>
<text text-anchor="middle" x="408.5" y="-143" font-family="Helvetica,sans-Serif" font-size="10.00">xmax</text>
<text text-anchor="middle" x="408.5" y="-132" font-family="Helvetica,sans-Serif" font-size="10.00">cts</text>
<text text-anchor="middle" x="408.5" y="-121" font-family="Helvetica,sans-Serif" font-size="10.00">...</text>
</g>
</g>
</svg>
        <g id="navigator" transform="translate(0 0)" fill="#404254">
                <rect fill="#f2f5e9" fill-opacity="0.5" stroke="#606060" stroke-width=".5" x="0" y="0" width="60" height="60"/>
                <use id="zoomplus" xlink:href="#zoomPlus" x="17" y="9" onmousedown="handleZoom(evt,'in')"/>
                <use id="zoomminus" xlink:href="#zoomMin" x="42" y="9" onmousedown="handleZoom(evt,'out')"/>
                <use id="reset" xlink:href="#resetDef" x="30" y="36" onmousedown="handleReset()"/>
                <g id="arrowUp" xlink:href="#dirArrow" transform="translate(30 24)" onmousedown="handlePan(0,-1)">
                  <use xlink:href="#rim" fill="#404040">
                        <set attributeName="fill" to="#808080" begin="arrowUp.mouseover" end="arrowUp.mouseout"/>
                  </use>
                  <path fill="none" stroke="white" stroke-width="1.5" d="M0,-3.0v7 M-2.5,-0.5L0,-3.0L2.5,-0.5"/>
                </g>
                <g id="arrowRight" xlink:href="#dirArrow" transform="rotate(90) translate(36 -43)" onmousedown="handlePan(1,0)">
                  <use xlink:href="#rim" fill="#404040">
                        <set attributeName="fill" to="#808080" begin="arrowRight.mouseover" end="arrowRight.mouseout"/>
                  </use>
                  <path fill="none" stroke="white" stroke-width="1.5" d="M0,-3.0v7 M-2.5,-0.5L0,-3.0L2.5,-0.5"/>
                </g>
                <g id="arrowDown" xlink:href="#dirArrow" transform="rotate(180) translate(-30 -48)" onmousedown="handlePan(0,1)">
                  <use xlink:href="#rim" fill="#404040">
                        <set attributeName="fill" to="#808080" begin="arrowDown.mouseover" end="arrowDown.mouseout"/>
                  </use>
                  <path fill="none" stroke="white" stroke-width="1.5" d="M0,-3.0v7 M-2.5,-0.5L0,-3.0L2.5,-0.5"/>
                </g>
                <g id="arrowLeft" xlink:href="#dirArrow" transform="rotate(270) translate(-36 17)" onmousedown="handlePan(-1,0)">
                  <use xlink:href="#rim" fill="#404040">
                        <set attributeName="fill" to="#808080" begin="arrowLeft.mouseover" end="arrowLeft.mouseout"/>
                  </use>
                  <path fill="none" stroke="white" stroke-width="1.5" d="M0,-3.0v7 M-2.5,-0.5L0,-3.0L2.5,-0.5"/>
                </g>
        </g>
        <svg viewBox="0 0 15 15" width="100%" height="30px" preserveAspectRatio="xMaxYMin meet">
         <g id="arrow_out" transform="scale(0.3 0.3)">
          <a xlink:href="structsll__m__cubic__spline__interpolator__1d_1_1sll__t__cubic__spline__interpolator__1d__coll__graph_org.svg" target="_base">
           <rect id="button" ry="5" rx="5" y="6" x="6" height="38" width="38"
                fill="#f2f5e9" fill-opacity="0.5" stroke="#606060" stroke-width="1.0"/>
           <path id="arrow"
             d="M 11.500037,31.436501 C 11.940474,20.09759 22.043105,11.32322 32.158766,21.979434 L 37.068811,17.246167 C 37.068811,17.246167 37.088388,32 37.088388,32 L 22.160133,31.978069 C 22.160133,31.978069 26.997745,27.140456 26.997745,27.140456 C 18.528582,18.264221 13.291696,25.230495 11.500037,31.436501 z"
             style="fill:#404040;"/>
          </a>
         </g>
        </svg>
</svg>
