<?xml version="1.0" encoding="UTF-8" standalone="no"?>
<!DOCTYPE svg PUBLIC "-//W3C//DTD SVG 1.1//EN"
 "http://www.w3.org/Graphics/SVG/1.1/DTD/svg11.dtd">
<!-- Generated by graphviz version 2.40.1 (20161225.0304)
 -->
<!-- Title: sll_t_box_spline_2d Pages: 1 -->
<svg width="352pt" height="283pt"
 viewBox="0.00 0.00 351.50 283.00" xmlns="http://www.w3.org/2000/svg" xmlns:xlink="http://www.w3.org/1999/xlink">
<g id="graph0" class="graph" transform="scale(1 1) rotate(0) translate(4 279)">
<title>sll_t_box_spline_2d</title>
<polygon fill="#ffffff" stroke="transparent" points="-4,4 -4,-279 347.5,-279 347.5,4 -4,4"/>
<!-- Node1 -->
<g id="node1" class="node">
<title>Node1</title>
<polygon fill="#bfbfbf" stroke="#000000" points="123.5,-.5 123.5,-19.5 235.5,-19.5 235.5,-.5 123.5,-.5"/>
<text text-anchor="middle" x="179.5" y="-7.5" font-family="Helvetica,sans-Serif" font-size="10.00" fill="#000000">sll_t_box_spline_2d</text>
</g>
<!-- Node2 -->
<g id="node2" class="node">
<title>Node2</title>
<g id="a_node2"><a xlink:href="structsll__m__hexagonal__meshes_1_1sll__t__hex__mesh__2d.html" target="_top" xlink:title="2d hexagonal mesh ">
<polygon fill="#ffffff" stroke="#000000" points="124.5,-67.5 124.5,-86.5 234.5,-86.5 234.5,-67.5 124.5,-67.5"/>
<text text-anchor="middle" x="179.5" y="-74.5" font-family="Helvetica,sans-Serif" font-size="10.00" fill="#000000">sll_t_hex_mesh_2d</text>
</a>
</g>
</g>
<!-- Node2&#45;&gt;Node1 -->
<g id="edge1" class="edge">
<title>Node2&#45;&gt;Node1</title>
<path fill="none" stroke="#9a32cd" stroke-dasharray="5,2" d="M179.5,-57.1079C179.5,-44.714 179.5,-29.3263 179.5,-19.5817"/>
<polygon fill="#9a32cd" stroke="#9a32cd" points="176.0001,-57.4005 179.5,-67.4005 183.0001,-57.4006 176.0001,-57.4005"/>
<text text-anchor="middle" x="195" y="-41" font-family="Helvetica,sans-Serif" font-size="10.00" fill="#000000"> mesh</text>
</g>
<!-- Node3 -->
<g id="node3" class="node">
<title>Node3</title>
<g id="a_node3"><a xlink:href="structsll__m__meshes__base_1_1sll__c__mesh__2d__base.html" target="_top" xlink:title="2D logical mesh ">
<polygon fill="#ffffff" stroke="#000000" points="121.5,-255.5 121.5,-274.5 237.5,-274.5 237.5,-255.5 121.5,-255.5"/>
<text text-anchor="middle" x="179.5" y="-262.5" font-family="Helvetica,sans-Serif" font-size="10.00" fill="#000000">sll_c_mesh_2d_base</text>
</a>
</g>
</g>
<!-- Node3&#45;&gt;Node2 -->
<g id="edge2" class="edge">
<title>Node3&#45;&gt;Node2</title>
<path fill="none" stroke="#191970" d="M179.5,-245.3683C179.5,-205.5188 179.5,-116.4125 179.5,-86.7876"/>
<polygon fill="#191970" stroke="#191970" points="176.0001,-245.4186 179.5,-255.4186 183.0001,-245.4186 176.0001,-245.4186"/>
</g>
<!-- Node4 -->
<g id="node4" class="node">
<title>Node4</title>
<polygon fill="#ffffff" stroke="#bfbfbf" points="0,-255.5 0,-274.5 103,-274.5 103,-255.5 0,-255.5"/>
<text text-anchor="middle" x="51.5" y="-262.5" font-family="Helvetica,sans-Serif" font-size="10.00" fill="#000000">integer(kind=i32)</text>
</g>
<!-- Node4&#45;&gt;Node1 -->
<g id="edge5" class="edge">
<title>Node4&#45;&gt;Node1</title>
<path fill="none" stroke="#9a32cd" stroke-dasharray="5,2" d="M47.9024,-245.3334C42.0507,-207.0948 34.7046,-121.6873 73.5,-67 90.6069,-42.8856 121.1873,-28.0145 145.1202,-19.5359"/>
<polygon fill="#9a32cd" stroke="#9a32cd" points="44.4508,-245.9142 49.5458,-255.2035 51.3557,-244.7644 44.4508,-245.9142"/>
<text text-anchor="middle" x="94.5" y="-74.5" font-family="Helvetica,sans-Serif" font-size="10.00" fill="#000000"> bc_type</text>
</g>
<!-- Node4&#45;&gt;Node2 -->
<g id="edge3" class="edge">
<title>Node4&#45;&gt;Node2</title>
<path fill="none" stroke="#9a32cd" stroke-dasharray="5,2" d="M62.8701,-246.6647C64.5654,-243.5101 66.1829,-240.2117 67.5,-237 90.5283,-180.8444 61.5476,-149.7957 102.5,-105 110.1782,-96.6012 120.5771,-90.7173 131.2463,-86.5966"/>
<polygon fill="#9a32cd" stroke="#9a32cd" points="59.7553,-245.0594 57.7739,-255.4673 65.8133,-248.5666 59.7553,-245.0594"/>
<text text-anchor="middle" x="139" y="-196" font-family="Helvetica,sans-Serif" font-size="10.00" fill="#000000"> num_triangles</text>
<text text-anchor="middle" x="139" y="-185" font-family="Helvetica,sans-Serif" font-size="10.00" fill="#000000">global_indices</text>
<text text-anchor="middle" x="139" y="-174" font-family="Helvetica,sans-Serif" font-size="10.00" fill="#000000">hex_coord</text>
<text text-anchor="middle" x="139" y="-163" font-family="Helvetica,sans-Serif" font-size="10.00" fill="#000000">num_edges</text>
<text text-anchor="middle" x="139" y="-152" font-family="Helvetica,sans-Serif" font-size="10.00" fill="#000000">num_cells</text>
<text text-anchor="middle" x="139" y="-141" font-family="Helvetica,sans-Serif" font-size="10.00" fill="#000000">num_pts_tot</text>
</g>
<!-- Node5 -->
<g id="node5" class="node">
<title>Node5</title>
<polygon fill="#ffffff" stroke="#bfbfbf" points="255.5,-255.5 255.5,-274.5 343.5,-274.5 343.5,-255.5 255.5,-255.5"/>
<text text-anchor="middle" x="299.5" y="-262.5" font-family="Helvetica,sans-Serif" font-size="10.00" fill="#000000">real(kind=f64)</text>
</g>
<!-- Node5&#45;&gt;Node1 -->
<g id="edge6" class="edge">
<title>Node5&#45;&gt;Node1</title>
<path fill="none" stroke="#9a32cd" stroke-dasharray="5,2" d="M300.8574,-245.3856C302.2116,-214.0967 301.5463,-151.6637 279.5,-105 260.985,-65.8107 218.662,-34.5476 195.4526,-19.5931"/>
<polygon fill="#9a32cd" stroke="#9a32cd" points="297.3602,-245.2392 300.303,-255.4171 304.3496,-245.6255 297.3602,-245.2392"/>
<text text-anchor="middle" x="284" y="-74.5" font-family="Helvetica,sans-Serif" font-size="10.00" fill="#000000"> coeffs</text>
</g>
<!-- Node5&#45;&gt;Node2 -->
<g id="edge4" class="edge">
<title>Node5&#45;&gt;Node2</title>
<path fill="none" stroke="#9a32cd" stroke-dasharray="5,2" d="M249.5929,-251.2782C242.4606,-247.5741 235.7696,-242.8967 230.5,-237 189.9011,-191.5696 215.4454,-161.8383 193.5,-105 191.0726,-98.7131 187.7121,-91.9473 184.8919,-86.6415"/>
<polygon fill="#9a32cd" stroke="#9a32cd" points="248.2381,-254.5071 258.7893,-255.4681 251.1403,-248.1371 248.2381,-254.5071"/>
<text text-anchor="middle" x="255" y="-229" font-family="Helvetica,sans-Serif" font-size="10.00" fill="#000000"> r3_x1</text>
<text text-anchor="middle" x="255" y="-218" font-family="Helvetica,sans-Serif" font-size="10.00" fill="#000000">r3_x2</text>
<text text-anchor="middle" x="255" y="-207" font-family="Helvetica,sans-Serif" font-size="10.00" fill="#000000">r2_x1</text>
<text text-anchor="middle" x="255" y="-196" font-family="Helvetica,sans-Serif" font-size="10.00" fill="#000000">delta</text>
<text text-anchor="middle" x="255" y="-185" font-family="Helvetica,sans-Serif" font-size="10.00" fill="#000000">radius</text>
<text text-anchor="middle" x="255" y="-174" font-family="Helvetica,sans-Serif" font-size="10.00" fill="#000000">r2_x2</text>
<text text-anchor="middle" x="255" y="-163" font-family="Helvetica,sans-Serif" font-size="10.00" fill="#000000">r1_x1</text>
<text text-anchor="start" x="230.5" y="-152" font-family="Helvetica,sans-Serif" font-size="10.00" fill="#000000">cartesian</text>
<text text-anchor="middle" x="255" y="-141" font-family="Helvetica,sans-Serif" font-size="10.00" fill="#000000">_coord</text>
<text text-anchor="middle" x="255" y="-130" font-family="Helvetica,sans-Serif" font-size="10.00" fill="#000000">r1_x2</text>
<text text-anchor="middle" x="255" y="-119" font-family="Helvetica,sans-Serif" font-size="10.00" fill="#000000">center_x1</text>
<text text-anchor="middle" x="255" y="-108" font-family="Helvetica,sans-Serif" font-size="10.00" fill="#000000">...</text>
</g>
</g>
</svg>
