<?xml version="1.0" encoding="UTF-8" standalone="no"?>
<!DOCTYPE svg PUBLIC "-//W3C//DTD SVG 1.1//EN"
 "http://www.w3.org/Graphics/SVG/1.1/DTD/svg11.dtd">
<!-- Generated by graphviz version 2.43.0 (0)
 -->
<!-- Title: sll_t_particle_mesh_coupling_spline_cl_3d_feec Pages: 1 -->
<svg width="618pt" height="653pt"
 viewBox="0.00 0.00 618.00 653.00" xmlns="http://www.w3.org/2000/svg" xmlns:xlink="http://www.w3.org/1999/xlink">
<g id="graph0" class="graph" transform="scale(1 1) rotate(0) translate(4 649)">
<title>sll_t_particle_mesh_coupling_spline_cl_3d_feec</title>
<polygon fill="white" stroke="transparent" points="-4,4 -4,-649 614,-649 614,4 -4,4"/>
<!-- Node1 -->
<g id="node1" class="node">
<title>Node1</title>
<g id="a_node1"><a xlink:title="Particle mesh coupling in 3d based on (arbitrary degree) spline on a tensor product uniform mesh.">
<polygon fill="#bfbfbf" stroke="black" points="219.5,-0.5 219.5,-41.5 330.5,-41.5 330.5,-0.5 219.5,-0.5"/>
<text text-anchor="start" x="227.5" y="-29.5" font-family="Helvetica,sans-Serif" font-size="10.00">sll_t_particle_mesh</text>
<text text-anchor="start" x="227.5" y="-18.5" font-family="Helvetica,sans-Serif" font-size="10.00">_coupling_spline_cl</text>
<text text-anchor="middle" x="275" y="-7.5" font-family="Helvetica,sans-Serif" font-size="10.00">_3d_feec</text>
</a>
</g>
</g>
<!-- Node2 -->
<g id="node2" class="node">
<title>Node2</title>
<g id="a_node2"><a xlink:href="structsll__m__particle__mesh__coupling__base__3d_1_1sll__c__particle__mesh__coupling__3d.html" target="_top" xlink:title="Basic type of a kernel smoother used for PIC simulations.">
<polygon fill="white" stroke="black" points="218.5,-79.5 218.5,-109.5 331.5,-109.5 331.5,-79.5 218.5,-79.5"/>
<text text-anchor="start" x="226.5" y="-97.5" font-family="Helvetica,sans-Serif" font-size="10.00">sll_c_particle_mesh</text>
<text text-anchor="middle" x="275" y="-86.5" font-family="Helvetica,sans-Serif" font-size="10.00">_coupling_3d</text>
</a>
</g>
</g>
<!-- Node2&#45;&gt;Node1 -->
<g id="edge1" class="edge">
<title>Node2&#45;&gt;Node1</title>
<path fill="none" stroke="midnightblue" d="M275,-69.1C275,-60.1 275,-50.02 275,-41.51"/>
<polygon fill="midnightblue" stroke="midnightblue" points="271.5,-69.37 275,-79.37 278.5,-69.37 271.5,-69.37"/>
</g>
<!-- Node3 -->
<g id="node3" class="node">
<title>Node3</title>
<g id="a_node3"><a xlink:title=" ">
<polygon fill="white" stroke="#bfbfbf" points="70.5,-625.5 70.5,-644.5 173.5,-644.5 173.5,-625.5 70.5,-625.5"/>
<text text-anchor="middle" x="122" y="-632.5" font-family="Helvetica,sans-Serif" font-size="10.00">integer(kind=i32)</text>
</a>
</g>
</g>
<!-- Node3&#45;&gt;Node1 -->
<g id="edge9" class="edge">
<title>Node3&#45;&gt;Node1</title>
<path fill="none" stroke="#9a32cd" stroke-dasharray="5,2" d="M106.11,-617.69C73.07,-581.98 0,-492.85 0,-403 0,-403 0,-403 0,-93.5 0,-48.61 138.99,-31.41 219.35,-25.22"/>
<polygon fill="#9a32cd" stroke="#9a32cd" points="103.81,-620.36 113.23,-625.22 108.9,-615.55 103.81,-620.36"/>
<text text-anchor="middle" x="47" y="-253.5" font-family="Helvetica,sans-Serif" font-size="10.00"> index1d</text>
<text text-anchor="middle" x="47" y="-242.5" font-family="Helvetica,sans-Serif" font-size="10.00">n_quad_points</text>
<text text-anchor="middle" x="47" y="-231.5" font-family="Helvetica,sans-Serif" font-size="10.00">n_quad_points_line</text>
<text text-anchor="middle" x="47" y="-220.5" font-family="Helvetica,sans-Serif" font-size="10.00">n_total0</text>
<text text-anchor="middle" x="47" y="-209.5" font-family="Helvetica,sans-Serif" font-size="10.00">n_total1</text>
<text text-anchor="middle" x="47" y="-198.5" font-family="Helvetica,sans-Serif" font-size="10.00">no_particles</text>
</g>
<!-- Node3&#45;&gt;Node2 -->
<g id="edge2" class="edge">
<title>Node3&#45;&gt;Node2</title>
<path fill="none" stroke="#9a32cd" stroke-dasharray="5,2" d="M121.47,-615.38C120.9,-580.76 121.6,-504.32 136,-442 167.24,-306.86 243.38,-155.52 267.53,-109.51"/>
<polygon fill="#9a32cd" stroke="#9a32cd" points="117.97,-615.52 121.7,-625.44 124.97,-615.36 117.97,-615.52"/>
<text text-anchor="middle" x="211.5" y="-354" font-family="Helvetica,sans-Serif" font-size="10.00"> dim</text>
<text text-anchor="middle" x="211.5" y="-343" font-family="Helvetica,sans-Serif" font-size="10.00">n_cells</text>
<text text-anchor="middle" x="211.5" y="-332" font-family="Helvetica,sans-Serif" font-size="10.00">n_dofs</text>
<text text-anchor="middle" x="211.5" y="-321" font-family="Helvetica,sans-Serif" font-size="10.00">n_total</text>
<text text-anchor="middle" x="211.5" y="-310" font-family="Helvetica,sans-Serif" font-size="10.00">spline_degree</text>
</g>
<!-- Node6 -->
<g id="node6" class="node">
<title>Node6</title>
<g id="a_node6"><a xlink:href="structsll__m__splines__pp_1_1sll__t__spline__pp__1d.html" target="_top" xlink:title="arbitrary degree 1d spline">
<polygon fill="white" stroke="black" points="303,-392.5 303,-411.5 409,-411.5 409,-392.5 303,-392.5"/>
<text text-anchor="middle" x="356" y="-399.5" font-family="Helvetica,sans-Serif" font-size="10.00">sll_t_spline_pp_1d</text>
</a>
</g>
</g>
<!-- Node3&#45;&gt;Node6 -->
<g id="edge6" class="edge">
<title>Node3&#45;&gt;Node6</title>
<path fill="none" stroke="#9a32cd" stroke-dasharray="5,2" d="M129.65,-615.77C130.81,-612.85 131.96,-609.85 133,-607 159.33,-534.62 129.26,-494.09 186,-442 202.9,-426.49 259.33,-415.68 302.59,-409.44"/>
<polygon fill="#9a32cd" stroke="#9a32cd" points="126.39,-614.49 125.84,-625.07 132.87,-617.14 126.39,-614.49"/>
<text text-anchor="middle" x="238.5" y="-538.5" font-family="Helvetica,sans-Serif" font-size="10.00"> boundary_conditions</text>
<text text-anchor="middle" x="238.5" y="-527.5" font-family="Helvetica,sans-Serif" font-size="10.00">degree</text>
<text text-anchor="middle" x="238.5" y="-516.5" font-family="Helvetica,sans-Serif" font-size="10.00">n_cells</text>
<text text-anchor="middle" x="238.5" y="-505.5" font-family="Helvetica,sans-Serif" font-size="10.00">n_coeffs</text>
</g>
<!-- Node4 -->
<g id="node4" class="node">
<title>Node4</title>
<g id="a_node4"><a xlink:title=" ">
<polygon fill="white" stroke="#bfbfbf" points="332,-625.5 332,-644.5 420,-644.5 420,-625.5 332,-625.5"/>
<text text-anchor="middle" x="376" y="-632.5" font-family="Helvetica,sans-Serif" font-size="10.00">real(kind=f64)</text>
</a>
</g>
</g>
<!-- Node4&#45;&gt;Node1 -->
<g id="edge10" class="edge">
<title>Node4&#45;&gt;Node1</title>
<path fill="none" stroke="#9a32cd" stroke-dasharray="5,2" d="M429.9,-621.96C438.67,-618.23 447.12,-613.36 454,-607 526.63,-539.84 543,-501.92 543,-403 543,-403 543,-403 543,-93.5 543,-49.92 409.03,-32.22 330.53,-25.59"/>
<polygon fill="#9a32cd" stroke="#9a32cd" points="428.44,-618.77 420.32,-625.58 430.91,-625.32 428.44,-618.77"/>
<text text-anchor="middle" x="576.5" y="-281" font-family="Helvetica,sans-Serif" font-size="10.00"> j1d</text>
<text text-anchor="middle" x="576.5" y="-270" font-family="Helvetica,sans-Serif" font-size="10.00">quad_xw</text>
<text text-anchor="middle" x="576.5" y="-259" font-family="Helvetica,sans-Serif" font-size="10.00">quad_xw_line</text>
<text text-anchor="middle" x="576.5" y="-248" font-family="Helvetica,sans-Serif" font-size="10.00">rdelta_x</text>
<text text-anchor="middle" x="576.5" y="-237" font-family="Helvetica,sans-Serif" font-size="10.00">spline1_0</text>
<text text-anchor="middle" x="576.5" y="-226" font-family="Helvetica,sans-Serif" font-size="10.00">spline1_2d</text>
<text text-anchor="middle" x="576.5" y="-215" font-family="Helvetica,sans-Serif" font-size="10.00">spline1_3d</text>
<text text-anchor="middle" x="576.5" y="-204" font-family="Helvetica,sans-Serif" font-size="10.00">spline2_3d</text>
<text text-anchor="middle" x="576.5" y="-193" font-family="Helvetica,sans-Serif" font-size="10.00">spline_0</text>
<text text-anchor="middle" x="576.5" y="-182" font-family="Helvetica,sans-Serif" font-size="10.00">spline_1</text>
<text text-anchor="middle" x="576.5" y="-171" font-family="Helvetica,sans-Serif" font-size="10.00">...</text>
</g>
<!-- Node4&#45;&gt;Node2 -->
<g id="edge3" class="edge">
<title>Node4&#45;&gt;Node2</title>
<path fill="none" stroke="#9a32cd" stroke-dasharray="5,2" d="M322.21,-627.58C310.15,-623.55 298.66,-617.14 291,-607 260.26,-566.33 271.78,-187.5 274.49,-109.5"/>
<polygon fill="#9a32cd" stroke="#9a32cd" points="321.38,-630.98 331.96,-630.33 323.28,-624.25 321.38,-630.98"/>
<text text-anchor="middle" x="290" y="-337.5" font-family="Helvetica,sans-Serif" font-size="10.00"> delta_x</text>
<text text-anchor="middle" x="290" y="-326.5" font-family="Helvetica,sans-Serif" font-size="10.00">domain</text>
</g>
<!-- Node5 -->
<g id="node5" class="node">
<title>Node5</title>
<g id="a_node5"><a xlink:href="structsll__m__splines__pp_1_1sll__t__spline__pp__3d.html" target="_top" xlink:title="arbitrary degree 3d spline">
<polygon fill="white" stroke="black" points="303,-219 303,-238 409,-238 409,-219 303,-219"/>
<text text-anchor="middle" x="356" y="-226" font-family="Helvetica,sans-Serif" font-size="10.00">sll_t_spline_pp_3d</text>
</a>
</g>
</g>
<!-- Node4&#45;&gt;Node5 -->
<g id="edge8" class="edge">
<title>Node4&#45;&gt;Node5</title>
<path fill="none" stroke="#9a32cd" stroke-dasharray="5,2" d="M416.96,-620.57C422.54,-617.02 427.53,-612.57 431,-607 469.78,-544.76 438.56,-514.94 431,-442 424.64,-380.67 421.91,-364.25 399,-307 388.48,-280.71 370.87,-252.18 361.8,-238.2"/>
<polygon fill="#9a32cd" stroke="#9a32cd" points="415.02,-617.64 407.85,-625.44 418.32,-623.82 415.02,-617.64"/>
<text text-anchor="middle" x="463" y="-416" font-family="Helvetica,sans-Serif" font-size="10.00"> scratch_b</text>
<text text-anchor="middle" x="463" y="-405" font-family="Helvetica,sans-Serif" font-size="10.00">scratch_coeffs</text>
<text text-anchor="middle" x="463" y="-394" font-family="Helvetica,sans-Serif" font-size="10.00">scratch_p</text>
<text text-anchor="middle" x="463" y="-383" font-family="Helvetica,sans-Serif" font-size="10.00">scratch_pp</text>
</g>
<!-- Node4&#45;&gt;Node6 -->
<g id="edge7" class="edge">
<title>Node4&#45;&gt;Node6</title>
<path fill="none" stroke="#9a32cd" stroke-dasharray="5,2" d="M324.34,-620.92C318.3,-617.35 312.91,-612.8 309,-607 288.48,-576.61 293.41,-475.19 309,-442 315.22,-428.76 328.39,-418.46 339.21,-411.78"/>
<polygon fill="#9a32cd" stroke="#9a32cd" points="323.03,-624.18 333.54,-625.49 326.14,-617.91 323.03,-624.18"/>
<text text-anchor="middle" x="370" y="-599" font-family="Helvetica,sans-Serif" font-size="10.00"> poly_coeffs</text>
<text text-anchor="start" x="309" y="-588" font-family="Helvetica,sans-Serif" font-size="10.00">poly_coeffs_boundary</text>
<text text-anchor="middle" x="370" y="-577" font-family="Helvetica,sans-Serif" font-size="10.00">_left</text>
<text text-anchor="start" x="309" y="-566" font-family="Helvetica,sans-Serif" font-size="10.00">poly_coeffs_boundary</text>
<text text-anchor="middle" x="370" y="-555" font-family="Helvetica,sans-Serif" font-size="10.00">_right</text>
<text text-anchor="middle" x="370" y="-544" font-family="Helvetica,sans-Serif" font-size="10.00">poly_coeffs_fd</text>
<text text-anchor="start" x="309" y="-533" font-family="Helvetica,sans-Serif" font-size="10.00">poly_coeffs_fd_boundary</text>
<text text-anchor="middle" x="370" y="-522" font-family="Helvetica,sans-Serif" font-size="10.00">_left</text>
<text text-anchor="start" x="309" y="-511" font-family="Helvetica,sans-Serif" font-size="10.00">poly_coeffs_fd_boundary</text>
<text text-anchor="middle" x="370" y="-500" font-family="Helvetica,sans-Serif" font-size="10.00">_right</text>
<text text-anchor="middle" x="370" y="-489" font-family="Helvetica,sans-Serif" font-size="10.00">poly_coeffs_fp</text>
<text text-anchor="middle" x="370" y="-478" font-family="Helvetica,sans-Serif" font-size="10.00">poly_coeffs_fpa</text>
<text text-anchor="middle" x="370" y="-467" font-family="Helvetica,sans-Serif" font-size="10.00">scratch_b</text>
<text text-anchor="middle" x="370" y="-456" font-family="Helvetica,sans-Serif" font-size="10.00">scratch_p</text>
<text text-anchor="middle" x="370" y="-445" font-family="Helvetica,sans-Serif" font-size="10.00">...</text>
</g>
<!-- Node5&#45;&gt;Node2 -->
<g id="edge4" class="edge">
<title>Node5&#45;&gt;Node2</title>
<path fill="none" stroke="#9a32cd" stroke-dasharray="5,2" d="M345.44,-210.3C329.3,-183.98 298.76,-134.23 283.76,-109.78"/>
<polygon fill="#9a32cd" stroke="#9a32cd" points="342.47,-212.15 350.69,-218.84 348.44,-208.49 342.47,-212.15"/>
<text text-anchor="middle" x="338.5" y="-142" font-family="Helvetica,sans-Serif" font-size="10.00"> spline_pp_0</text>
<text text-anchor="middle" x="338.5" y="-131" font-family="Helvetica,sans-Serif" font-size="10.00">spline_pp_1</text>
</g>
<!-- Node6&#45;&gt;Node5 -->
<g id="edge5" class="edge">
<title>Node6&#45;&gt;Node5</title>
<path fill="none" stroke="#9a32cd" stroke-dasharray="5,2" d="M356,-381.85C356,-344.73 356,-264.33 356,-238.02"/>
<polygon fill="#9a32cd" stroke="#9a32cd" points="352.5,-382.26 356,-392.26 359.5,-382.26 352.5,-382.26"/>
<text text-anchor="middle" x="375.5" y="-343" font-family="Helvetica,sans-Serif" font-size="10.00"> spline1</text>
<text text-anchor="middle" x="375.5" y="-332" font-family="Helvetica,sans-Serif" font-size="10.00">spline2</text>
<text text-anchor="middle" x="375.5" y="-321" font-family="Helvetica,sans-Serif" font-size="10.00">spline3</text>
</g>
</g>
</svg>
