<?xml version="1.0" encoding="UTF-8" standalone="no"?>
<!DOCTYPE svg PUBLIC "-//W3C//DTD SVG 1.1//EN"
 "http://www.w3.org/Graphics/SVG/1.1/DTD/svg11.dtd">
<!-- Generated by graphviz version 2.40.1 (20161225.0304)
 -->
<!-- Title: sll_t_spline_matrix_dense Pages: 1 -->
<svg width="263pt" height="117pt"
 viewBox="0.00 0.00 262.50 117.00" xmlns="http://www.w3.org/2000/svg" xmlns:xlink="http://www.w3.org/1999/xlink">
<g id="graph0" class="graph" transform="scale(1 1) rotate(0) translate(4 113)">
<title>sll_t_spline_matrix_dense</title>
<polygon fill="#ffffff" stroke="transparent" points="-4,4 -4,-113 258.5,-113 258.5,4 -4,4"/>
<!-- Node2 -->
<g id="node1" class="node">
<title>Node2</title>
<polygon fill="#bfbfbf" stroke="#000000" points="102.5,-.5 102.5,-30.5 211.5,-30.5 211.5,-.5 102.5,-.5"/>
<text text-anchor="start" x="110.5" y="-18.5" font-family="Helvetica,sans-Serif" font-size="10.00" fill="#000000">sll_t_spline_matrix</text>
<text text-anchor="middle" x="157" y="-7.5" font-family="Helvetica,sans-Serif" font-size="10.00" fill="#000000">_dense</text>
</g>
<!-- Node3 -->
<g id="node2" class="node">
<title>Node3</title>
<g id="a_node2"><a xlink:href="structsll__m__spline__matrix__base_1_1sll__c__spline__matrix.html" target="_top" xlink:title="sll_c_spline_matrix">
<polygon fill="#ffffff" stroke="#000000" points="0,-89.5 0,-108.5 110,-108.5 110,-89.5 0,-89.5"/>
<text text-anchor="middle" x="55" y="-96.5" font-family="Helvetica,sans-Serif" font-size="10.00" fill="#000000">sll_c_spline_matrix</text>
</a>
</g>
</g>
<!-- Node3&#45;&gt;Node2 -->
<g id="edge1" class="edge">
<title>Node3&#45;&gt;Node2</title>
<path fill="none" stroke="#191970" d="M74.4765,-83.056C92.9326,-67.9473 120.4504,-45.4205 138.5581,-30.597"/>
<polygon fill="#191970" stroke="#191970" points="72.2215,-80.3787 66.7007,-89.4215 76.6557,-85.7953 72.2215,-80.3787"/>
</g>
<!-- Node4 -->
<g id="node3" class="node">
<title>Node4</title>
<polygon fill="#ffffff" stroke="#bfbfbf" points="128.5,-89.5 128.5,-108.5 185.5,-108.5 185.5,-89.5 128.5,-89.5"/>
<text text-anchor="middle" x="157" y="-96.5" font-family="Helvetica,sans-Serif" font-size="10.00" fill="#000000">real(wp)</text>
</g>
<!-- Node4&#45;&gt;Node2 -->
<g id="edge2" class="edge">
<title>Node4&#45;&gt;Node2</title>
<path fill="none" stroke="#9a32cd" stroke-dasharray="5,2" d="M157,-79.2427C157,-64.345 157,-44.2186 157,-30.597"/>
<polygon fill="#9a32cd" stroke="#9a32cd" points="153.5001,-79.4215 157,-89.4215 160.5001,-79.4215 153.5001,-79.4215"/>
<text text-anchor="middle" x="162" y="-57.5" font-family="Helvetica,sans-Serif" font-size="10.00" fill="#000000"> a</text>
</g>
<!-- Node5 -->
<g id="node4" class="node">
<title>Node5</title>
<polygon fill="#ffffff" stroke="#bfbfbf" points="203.5,-89.5 203.5,-108.5 254.5,-108.5 254.5,-89.5 203.5,-89.5"/>
<text text-anchor="middle" x="229" y="-96.5" font-family="Helvetica,sans-Serif" font-size="10.00" fill="#000000">integer</text>
</g>
<!-- Node5&#45;&gt;Node2 -->
<g id="edge3" class="edge">
<title>Node5&#45;&gt;Node2</title>
<path fill="none" stroke="#9a32cd" stroke-dasharray="5,2" d="M214.1818,-81.815C201.1789,-66.7353 182.4542,-45.0198 170.0178,-30.597"/>
<polygon fill="#9a32cd" stroke="#9a32cd" points="211.5597,-84.1338 220.7407,-89.4215 216.861,-79.5625 211.5597,-84.1338"/>
<text text-anchor="middle" x="214" y="-63" font-family="Helvetica,sans-Serif" font-size="10.00" fill="#000000"> ipiv</text>
<text text-anchor="middle" x="214" y="-52" font-family="Helvetica,sans-Serif" font-size="10.00" fill="#000000">n</text>
</g>
</g>
</svg>
