<?xml version="1.0" encoding="UTF-8" standalone="no"?>
<!DOCTYPE svg PUBLIC "-//W3C//DTD SVG 1.1//EN"
 "http://www.w3.org/Graphics/SVG/1.1/DTD/svg11.dtd">
<!-- Generated by graphviz version 2.40.1 (20161225.0304)
 -->
<!-- Title: poisson_2d_mudpack_curvilinear Pages: 1 -->
<svg width="368pt" height="409pt"
 viewBox="0.00 0.00 368.00 409.00" xmlns="http://www.w3.org/2000/svg" xmlns:xlink="http://www.w3.org/1999/xlink">
<g id="graph0" class="graph" transform="scale(1 1) rotate(0) translate(4 405)">
<title>poisson_2d_mudpack_curvilinear</title>
<polygon fill="#ffffff" stroke="transparent" points="-4,4 -4,-405 364,-405 364,4 -4,4"/>
<!-- Node2 -->
<g id="node1" class="node">
<title>Node2</title>
<polygon fill="#bfbfbf" stroke="#000000" points="238,-228 238,-258 360,-258 360,-228 238,-228"/>
<text text-anchor="start" x="246" y="-246" font-family="Helvetica,sans-Serif" font-size="10.00" fill="#000000">poisson_2d_mudpack</text>
<text text-anchor="middle" x="299" y="-235" font-family="Helvetica,sans-Serif" font-size="10.00" fill="#000000">_curvilinear</text>
</g>
<!-- Node3 -->
<g id="node2" class="node">
<title>Node3</title>
<g id="a_node2"><a xlink:href="structsll__m__poisson__2d__base_1_1sll__c__poisson__2d__base.html" target="_top" xlink:title="PLEASE ADD DOCUMENTATION. ">
<polygon fill="#ffffff" stroke="#000000" points="1,-381.5 1,-400.5 128,-400.5 128,-381.5 1,-381.5"/>
<text text-anchor="middle" x="64.5" y="-388.5" font-family="Helvetica,sans-Serif" font-size="10.00" fill="#000000">sll_c_poisson_2d_base</text>
</a>
</g>
</g>
<!-- Node3&#45;&gt;Node2 -->
<g id="edge1" class="edge">
<title>Node3&#45;&gt;Node2</title>
<path fill="none" stroke="#191970" d="M138.1825,-395.6575C165.7034,-394.1547 196.0561,-388.347 220,-373 262.6907,-345.6371 285.7828,-286.1936 294.6608,-258.182"/>
<polygon fill="#191970" stroke="#191970" points="138.0526,-392.1598 128.1885,-396.0261 138.3107,-399.1551 138.0526,-392.1598"/>
</g>
<!-- Node4 -->
<g id="node3" class="node">
<title>Node4</title>
<polygon fill="#ffffff" stroke="#bfbfbf" points="0,-295 0,-325 129,-325 129,-295 0,-295"/>
<text text-anchor="start" x="8" y="-313" font-family="Helvetica,sans-Serif" font-size="10.00" fill="#000000">class(sll_c_interpolator</text>
<text text-anchor="middle" x="64.5" y="-302" font-family="Helvetica,sans-Serif" font-size="10.00" fill="#000000">_2d), pointer</text>
</g>
<!-- Node4&#45;&gt;Node2 -->
<g id="edge2" class="edge">
<title>Node4&#45;&gt;Node2</title>
<path fill="none" stroke="#9a32cd" stroke-dasharray="5,2" d="M139.4974,-305.1589C165.4873,-301.9791 194.4887,-296.7144 220,-288 240.7623,-280.9078 262.2684,-268.2506 277.5896,-258.1625"/>
<polygon fill="#9a32cd" stroke="#9a32cd" points="138.8614,-301.7087 129.3219,-306.3182 139.6538,-308.6637 138.8614,-301.7087"/>
<text text-anchor="middle" x="183.5" y="-361" font-family="Helvetica,sans-Serif" font-size="10.00" fill="#000000"> cy_2d_interp</text>
<text text-anchor="middle" x="183.5" y="-350" font-family="Helvetica,sans-Serif" font-size="10.00" fill="#000000">cx_2d_interp</text>
<text text-anchor="middle" x="183.5" y="-339" font-family="Helvetica,sans-Serif" font-size="10.00" fill="#000000">ce_2d_interp</text>
<text text-anchor="middle" x="183.5" y="-328" font-family="Helvetica,sans-Serif" font-size="10.00" fill="#000000">cxy_2d_interp</text>
<text text-anchor="middle" x="183.5" y="-317" font-family="Helvetica,sans-Serif" font-size="10.00" fill="#000000">cyy_2d_interp</text>
<text text-anchor="middle" x="183.5" y="-306" font-family="Helvetica,sans-Serif" font-size="10.00" fill="#000000">cxx_2d_interp</text>
</g>
<!-- Node5 -->
<g id="node4" class="node">
<title>Node5</title>
<polygon fill="#ffffff" stroke="#bfbfbf" points="13,-233.5 13,-252.5 116,-252.5 116,-233.5 13,-233.5"/>
<text text-anchor="middle" x="64.5" y="-240.5" font-family="Helvetica,sans-Serif" font-size="10.00" fill="#000000">integer(kind=i32)</text>
</g>
<!-- Node5&#45;&gt;Node2 -->
<g id="edge3" class="edge">
<title>Node5&#45;&gt;Node2</title>
<path fill="none" stroke="#9a32cd" stroke-dasharray="5,2" d="M126.6423,-243C161.0266,-243 203.5954,-243 237.8245,-243"/>
<polygon fill="#9a32cd" stroke="#9a32cd" points="126.2524,-239.5001 116.2523,-243 126.2523,-246.5001 126.2524,-239.5001"/>
<text text-anchor="middle" x="183.5" y="-279" font-family="Helvetica,sans-Serif" font-size="10.00" fill="#000000"> iprm</text>
<text text-anchor="middle" x="183.5" y="-268" font-family="Helvetica,sans-Serif" font-size="10.00" fill="#000000">mgopt</text>
<text text-anchor="middle" x="183.5" y="-257" font-family="Helvetica,sans-Serif" font-size="10.00" fill="#000000">mudpack_case</text>
<text text-anchor="middle" x="183.5" y="-246" font-family="Helvetica,sans-Serif" font-size="10.00" fill="#000000">iguess</text>
</g>
<!-- Node6 -->
<g id="node5" class="node">
<title>Node6</title>
<polygon fill="#ffffff" stroke="#bfbfbf" points="0,-139 0,-169 129,-169 129,-139 0,-139"/>
<text text-anchor="start" x="8" y="-157" font-family="Helvetica,sans-Serif" font-size="10.00" fill="#000000">class(sll_c_interpolator</text>
<text text-anchor="middle" x="64.5" y="-146" font-family="Helvetica,sans-Serif" font-size="10.00" fill="#000000">_1d), pointer</text>
</g>
<!-- Node6&#45;&gt;Node2 -->
<g id="edge4" class="edge">
<title>Node6&#45;&gt;Node2</title>
<path fill="none" stroke="#9a32cd" stroke-dasharray="5,2" d="M139.2241,-154.0759C165.677,-156.4159 195.0441,-161.7557 220,-173 247.734,-185.4961 272.7177,-211.2193 286.8565,-227.7614"/>
<polygon fill="#9a32cd" stroke="#9a32cd" points="139.4795,-150.5853 129.2437,-153.3199 138.9507,-157.5653 139.4795,-150.5853"/>
<text text-anchor="middle" x="183.5" y="-231" font-family="Helvetica,sans-Serif" font-size="10.00" fill="#000000"> cey_1d_interp</text>
<text text-anchor="middle" x="183.5" y="-220" font-family="Helvetica,sans-Serif" font-size="10.00" fill="#000000">cex_1d_interp</text>
<text text-anchor="middle" x="183.5" y="-209" font-family="Helvetica,sans-Serif" font-size="10.00" fill="#000000">cy_1d_interp</text>
<text text-anchor="middle" x="183.5" y="-198" font-family="Helvetica,sans-Serif" font-size="10.00" fill="#000000">cx_1d_interp</text>
<text text-anchor="middle" x="183.5" y="-187" font-family="Helvetica,sans-Serif" font-size="10.00" fill="#000000">cyy_1d_interp</text>
<text text-anchor="middle" x="183.5" y="-176" font-family="Helvetica,sans-Serif" font-size="10.00" fill="#000000">cxx_1d_interp</text>
</g>
<!-- Node7 -->
<g id="node6" class="node">
<title>Node7</title>
<polygon fill="#ffffff" stroke="#bfbfbf" points="20.5,-.5 20.5,-19.5 108.5,-19.5 108.5,-.5 20.5,-.5"/>
<text text-anchor="middle" x="64.5" y="-7.5" font-family="Helvetica,sans-Serif" font-size="10.00" fill="#000000">real(kind=f64)</text>
</g>
<!-- Node7&#45;&gt;Node2 -->
<g id="edge5" class="edge">
<title>Node7&#45;&gt;Node2</title>
<path fill="none" stroke="#9a32cd" stroke-dasharray="5,2" d="M119.0037,-3.7878C151.5719,-3.0382 191.9326,-7.6824 220,-30 252.5689,-55.897 285.1176,-183.8031 295.5541,-227.9699"/>
<polygon fill="#9a32cd" stroke="#9a32cd" points="118.5786,-.3021 108.7289,-4.2051 118.8627,-7.2963 118.5786,-.3021"/>
<text text-anchor="middle" x="183.5" y="-143" font-family="Helvetica,sans-Serif" font-size="10.00" fill="#000000"> work</text>
<text text-anchor="middle" x="183.5" y="-132" font-family="Helvetica,sans-Serif" font-size="10.00" fill="#000000">ce</text>
<text text-anchor="middle" x="183.5" y="-121" font-family="Helvetica,sans-Serif" font-size="10.00" fill="#000000">cx</text>
<text text-anchor="middle" x="183.5" y="-110" font-family="Helvetica,sans-Serif" font-size="10.00" fill="#000000">cy_2d</text>
<text text-anchor="middle" x="183.5" y="-99" font-family="Helvetica,sans-Serif" font-size="10.00" fill="#000000">fprm</text>
<text text-anchor="middle" x="183.5" y="-88" font-family="Helvetica,sans-Serif" font-size="10.00" fill="#000000">cy</text>
<text text-anchor="middle" x="183.5" y="-77" font-family="Helvetica,sans-Serif" font-size="10.00" fill="#000000">cy_1d</text>
<text text-anchor="middle" x="183.5" y="-66" font-family="Helvetica,sans-Serif" font-size="10.00" fill="#000000">cx_2d</text>
<text text-anchor="middle" x="183.5" y="-55" font-family="Helvetica,sans-Serif" font-size="10.00" fill="#000000">cx_1d</text>
<text text-anchor="middle" x="183.5" y="-44" font-family="Helvetica,sans-Serif" font-size="10.00" fill="#000000">ce_2d</text>
<text text-anchor="middle" x="183.5" y="-33" font-family="Helvetica,sans-Serif" font-size="10.00" fill="#000000">...</text>
</g>
</g>
</svg>
