<?xml version="1.0" encoding="UTF-8" standalone="no"?>
<!DOCTYPE svg PUBLIC "-//W3C//DTD SVG 1.1//EN"
 "http://www.w3.org/Graphics/SVG/1.1/DTD/svg11.dtd">
<!-- Generated by graphviz version 2.43.0 (0)
 -->
<!-- Title: sll_t_cartesian_mesh_multipatch_2d Pages: 1 -->
<svg width="353pt" height="306pt"
 viewBox="0.00 0.00 353.00 306.00" xmlns="http://www.w3.org/2000/svg" xmlns:xlink="http://www.w3.org/1999/xlink">
<g id="graph0" class="graph" transform="scale(1 1) rotate(0) translate(4 302)">
<title>sll_t_cartesian_mesh_multipatch_2d</title>
<polygon fill="white" stroke="transparent" points="-4,4 -4,-302 349,-302 349,4 -4,4"/>
<!-- Node1 -->
<g id="node1" class="node">
<title>Node1</title>
<g id="a_node1"><a xlink:title="basic logical mesh multipatch object.">
<polygon fill="#bfbfbf" stroke="black" points="126.5,-0.5 126.5,-30.5 245.5,-30.5 245.5,-0.5 126.5,-0.5"/>
<text text-anchor="start" x="134.5" y="-18.5" font-family="Helvetica,sans-Serif" font-size="10.00">sll_t_cartesian_mesh</text>
<text text-anchor="middle" x="186" y="-7.5" font-family="Helvetica,sans-Serif" font-size="10.00">_multipatch_2d</text>
</a>
</g>
</g>
<!-- Node2 -->
<g id="node2" class="node">
<title>Node2</title>
<g id="a_node2"><a xlink:href="structsll__m__cartesian__meshes_1_1sll__t__cartesian__mesh__2d__ptr.html" target="_top" xlink:title="2d cartesian mesh pointer">
<polygon fill="white" stroke="black" points="126.5,-78.5 126.5,-108.5 245.5,-108.5 245.5,-78.5 126.5,-78.5"/>
<text text-anchor="start" x="134.5" y="-96.5" font-family="Helvetica,sans-Serif" font-size="10.00">sll_t_cartesian_mesh</text>
<text text-anchor="middle" x="186" y="-85.5" font-family="Helvetica,sans-Serif" font-size="10.00">_2d_ptr</text>
</a>
</g>
</g>
<!-- Node2&#45;&gt;Node1 -->
<g id="edge1" class="edge">
<title>Node2&#45;&gt;Node1</title>
<path fill="none" stroke="#9a32cd" stroke-dasharray="5,2" d="M186,-68.09C186,-55.76 186,-41.22 186,-30.73"/>
<polygon fill="#9a32cd" stroke="#9a32cd" points="182.5,-68.2 186,-78.2 189.5,-68.21 182.5,-68.2"/>
<text text-anchor="middle" x="207" y="-52" font-family="Helvetica,sans-Serif" font-size="10.00"> meshes</text>
</g>
<!-- Node3 -->
<g id="node3" class="node">
<title>Node3</title>
<g id="a_node3"><a xlink:href="structsll__m__cartesian__meshes_1_1sll__t__cartesian__mesh__2d.html" target="_top" xlink:title="2D cartesian mesh">
<polygon fill="white" stroke="black" points="117.5,-156.5 117.5,-175.5 254.5,-175.5 254.5,-156.5 117.5,-156.5"/>
<text text-anchor="middle" x="186" y="-163.5" font-family="Helvetica,sans-Serif" font-size="10.00">sll_t_cartesian_mesh_2d</text>
</a>
</g>
</g>
<!-- Node3&#45;&gt;Node2 -->
<g id="edge2" class="edge">
<title>Node3&#45;&gt;Node2</title>
<path fill="none" stroke="#9a32cd" stroke-dasharray="5,2" d="M186,-146.24C186,-134.41 186,-119.38 186,-108.58"/>
<polygon fill="#9a32cd" stroke="#9a32cd" points="182.5,-146.36 186,-156.36 189.5,-146.36 182.5,-146.36"/>
<text text-anchor="middle" x="194" y="-130" font-family="Helvetica,sans-Serif" font-size="10.00"> lm</text>
</g>
<!-- Node4 -->
<g id="node4" class="node">
<title>Node4</title>
<g id="a_node4"><a xlink:href="structsll__m__meshes__base_1_1sll__c__mesh__2d__base.html" target="_top" xlink:title="2D logical mesh">
<polygon fill="white" stroke="black" points="0,-278.5 0,-297.5 116,-297.5 116,-278.5 0,-278.5"/>
<text text-anchor="middle" x="58" y="-285.5" font-family="Helvetica,sans-Serif" font-size="10.00">sll_c_mesh_2d_base</text>
</a>
</g>
</g>
<!-- Node4&#45;&gt;Node3 -->
<g id="edge3" class="edge">
<title>Node4&#45;&gt;Node3</title>
<path fill="none" stroke="midnightblue" d="M74.81,-271.24C102.2,-245.56 155.56,-195.54 176.88,-175.55"/>
<polygon fill="midnightblue" stroke="midnightblue" points="72.11,-268.98 67.21,-278.37 76.89,-274.08 72.11,-268.98"/>
</g>
<!-- Node5 -->
<g id="node5" class="node">
<title>Node5</title>
<g id="a_node5"><a xlink:title=" ">
<polygon fill="white" stroke="#bfbfbf" points="134.5,-278.5 134.5,-297.5 237.5,-297.5 237.5,-278.5 134.5,-278.5"/>
<text text-anchor="middle" x="186" y="-285.5" font-family="Helvetica,sans-Serif" font-size="10.00">integer(kind=i32)</text>
</a>
</g>
</g>
<!-- Node5&#45;&gt;Node3 -->
<g id="edge4" class="edge">
<title>Node5&#45;&gt;Node3</title>
<path fill="none" stroke="#9a32cd" stroke-dasharray="5,2" d="M186,-268.15C186,-241.72 186,-194.76 186,-175.55"/>
<polygon fill="#9a32cd" stroke="#9a32cd" points="182.5,-268.37 186,-278.37 189.5,-268.37 182.5,-268.37"/>
<text text-anchor="middle" x="215.5" y="-230" font-family="Helvetica,sans-Serif" font-size="10.00"> num_cells1</text>
<text text-anchor="middle" x="215.5" y="-219" font-family="Helvetica,sans-Serif" font-size="10.00">num_cells2</text>
</g>
<!-- Node6 -->
<g id="node6" class="node">
<title>Node6</title>
<g id="a_node6"><a xlink:title=" ">
<polygon fill="white" stroke="#bfbfbf" points="256,-278.5 256,-297.5 344,-297.5 344,-278.5 256,-278.5"/>
<text text-anchor="middle" x="300" y="-285.5" font-family="Helvetica,sans-Serif" font-size="10.00">real(kind=f64)</text>
</a>
</g>
</g>
<!-- Node6&#45;&gt;Node3 -->
<g id="edge5" class="edge">
<title>Node6&#45;&gt;Node3</title>
<path fill="none" stroke="#9a32cd" stroke-dasharray="5,2" d="M294.15,-268.87C286.67,-248.25 271.87,-214.76 249,-194 239.92,-185.76 227.95,-179.78 216.89,-175.58"/>
<polygon fill="#9a32cd" stroke="#9a32cd" points="290.85,-270.02 297.4,-278.34 297.47,-267.75 290.85,-270.02"/>
<text text-anchor="middle" x="317.5" y="-252" font-family="Helvetica,sans-Serif" font-size="10.00"> delta_eta1</text>
<text text-anchor="middle" x="317.5" y="-241" font-family="Helvetica,sans-Serif" font-size="10.00">eta2_max</text>
<text text-anchor="middle" x="317.5" y="-230" font-family="Helvetica,sans-Serif" font-size="10.00">delta_eta2</text>
<text text-anchor="middle" x="317.5" y="-219" font-family="Helvetica,sans-Serif" font-size="10.00">eta1_min</text>
<text text-anchor="middle" x="317.5" y="-208" font-family="Helvetica,sans-Serif" font-size="10.00">eta2_min</text>
<text text-anchor="middle" x="317.5" y="-197" font-family="Helvetica,sans-Serif" font-size="10.00">eta1_max</text>
</g>
</g>
</svg>
