<?xml version="1.0" encoding="UTF-8" standalone="no"?>
<!DOCTYPE svg PUBLIC "-//W3C//DTD SVG 1.1//EN"
 "http://www.w3.org/Graphics/SVG/1.1/DTD/svg11.dtd">
<!-- Generated by graphviz version 2.40.1 (20161225.0304)
 -->
<!-- Title: sll_t_cubic_spline_interpolator_2d Pages: 1 -->
<!--zoomable 318 -->
<svg id="main" version="1.1" xmlns="http://www.w3.org/2000/svg" xmlns:xlink="http://www.w3.org/1999/xlink" xml:space="preserve" onload="init(evt)">
<style type="text/css"><![CDATA[
.edge:hover path { stroke: red; }
.edge:hover polygon { stroke: red; fill: red; }
]]></style>
<script type="text/javascript"><![CDATA[
var edges = document.getElementsByTagName('g');
if (edges && edges.length) {
  for (var i=0;i<edges.length;i++) {
    if (edges[i].id.substr(0,4)=='edge') {
      edges[i].setAttribute('class','edge');
    }
  }
}
]]></script>
        <defs>
                <circle id="rim" cx="0" cy="0" r="7"/>
                <circle id="rim2" cx="0" cy="0" r="3.5"/>
                <g id="zoomPlus">
                        <use xlink:href="#rim" fill="#404040">
                                <set attributeName="fill" to="#808080" begin="zoomplus.mouseover" end="zoomplus.mouseout"/>
                        </use>
                        <path d="M-4,0h8M0,-4v8" fill="none" stroke="white" stroke-width="1.5" pointer-events="none"/>
                </g>
                <g id="zoomMin">
                        <use xlink:href="#rim" fill="#404040">
                                <set attributeName="fill" to="#808080" begin="zoomminus.mouseover" end="zoomminus.mouseout"/>
                        </use>
                        <path d="M-4,0h8" fill="none" stroke="white" stroke-width="1.5" pointer-events="none"/>
                </g>
                <g id="dirArrow">
                        <path fill="none" stroke="white" stroke-width="1.5" d="M0,-3.0v7 M-2.5,-0.5L0,-3.0L2.5,-0.5"/>
                </g>
               <g id="resetDef">
                       <use xlink:href="#rim2" fill="#404040">
                               <set attributeName="fill" to="#808080" begin="reset.mouseover" end="reset.mouseout"/>
                       </use>
               </g>
        </defs>

<script type="text/javascript">
var viewWidth = 594;
var viewHeight = 318;
var sectionId = 'dynsection-1';
</script>
<script xlink:href="svgpan.js"/>
<svg id="graph" class="graph">
<g id="viewport">
<title>sll_t_cubic_spline_interpolator_2d</title>
<polygon fill="#ffffff" stroke="transparent" points="-4,4 -4,-314 590,-314 590,4 -4,4"/>
<!-- Node2 -->
<g id="node1" class="node">
<title>Node2</title>
<polygon fill="#bfbfbf" stroke="#000000" points="143,-.5 143,-30.5 245,-30.5 245,-.5 143,-.5"/>
<text text-anchor="start" x="151" y="-18.5" font-family="Helvetica,sans-Serif" font-size="10.00" fill="#000000">sll_t_cubic_spline</text>
<text text-anchor="middle" x="194" y="-7.5" font-family="Helvetica,sans-Serif" font-size="10.00" fill="#000000">_interpolator_2d</text>
</g>
<!-- Node3 -->
<g id="node2" class="node">
<title>Node3</title>
<g id="a_node2"><a xlink:href="structsll__m__interpolators__2d__base_1_1sll__c__interpolator__2d.html" target="_top" xlink:title="Base class/basic interface for 2D interpolators. ">
<polygon fill="#ffffff" stroke="#000000" points="0,-90.5 0,-109.5 118,-109.5 118,-90.5 0,-90.5"/>
<text text-anchor="middle" x="59" y="-97.5" font-family="Helvetica,sans-Serif" font-size="10.00" fill="#000000">sll_c_interpolator_2d</text>
</a>
</g>
</g>
<!-- Node3&#45;&gt;Node2 -->
<g id="edge1" class="edge">
<title>Node3&#45;&gt;Node2</title>
<path fill="none" stroke="#191970" d="M82.9834,-84.8409C99.0903,-74.6746 120.7987,-61.0006 140,-49 149.6363,-42.9774 160.2599,-36.3782 169.5164,-30.6412"/>
<polygon fill="#191970" stroke="#191970" points="80.7949,-82.0834 74.2085,-90.3821 84.5325,-88.002 80.7949,-82.0834"/>
</g>
<!-- Node4 -->
<g id="node3" class="node">
<title>Node4</title>
<g id="a_node3"><a xlink:href="structsll__m__cubic__splines_1_1sll__t__cubic__spline__2d.html" target="_top" xlink:title="Basic type for one&#45;dimensional cubic spline data. ">
<polygon fill="#ffffff" stroke="#000000" points="220.5,-90.5 220.5,-109.5 339.5,-109.5 339.5,-90.5 220.5,-90.5"/>
<text text-anchor="middle" x="280" y="-97.5" font-family="Helvetica,sans-Serif" font-size="10.00" fill="#000000">sll_t_cubic_spline_2d</text>
</a>
</g>
</g>
<!-- Node4&#45;&gt;Node2 -->
<g id="edge2" class="edge">
<title>Node4&#45;&gt;Node2</title>
<path fill="none" stroke="#9a32cd" stroke-dasharray="5,2" d="M262.7301,-83.0314C247.1841,-67.7565 224.5412,-45.5085 209.549,-30.7778"/>
<polygon fill="#9a32cd" stroke="#9a32cd" points="260.5487,-85.7947 270.1347,-90.3068 265.4547,-80.8016 260.5487,-85.7947"/>
<text text-anchor="middle" x="253.5" y="-52" font-family="Helvetica,sans-Serif" font-size="10.00" fill="#000000"> spline</text>
</g>
<!-- Node5 -->
<g id="node4" class="node">
<title>Node5</title>
<polygon fill="#ffffff" stroke="#bfbfbf" points="105.5,-290.5 105.5,-309.5 208.5,-309.5 208.5,-290.5 105.5,-290.5"/>
<text text-anchor="middle" x="157" y="-297.5" font-family="Helvetica,sans-Serif" font-size="10.00" fill="#000000">integer(kind=i32)</text>
</g>
<!-- Node5&#45;&gt;Node2 -->
<g id="edge6" class="edge">
<title>Node5&#45;&gt;Node2</title>
<path fill="none" stroke="#9a32cd" stroke-dasharray="5,2" d="M154.7556,-280.4843C150.8581,-241.368 144.8773,-150.8768 163,-78 167.2675,-60.839 176.7503,-42.9237 184.1117,-30.6963"/>
<polygon fill="#9a32cd" stroke="#9a32cd" points="151.2829,-280.9275 155.8237,-290.5 158.2434,-280.1852 151.2829,-280.9275"/>
<text text-anchor="middle" x="187" y="-114" font-family="Helvetica,sans-Serif" font-size="10.00" fill="#000000"> bc_type2</text>
<text text-anchor="middle" x="187" y="-103" font-family="Helvetica,sans-Serif" font-size="10.00" fill="#000000">npts1</text>
<text text-anchor="middle" x="187" y="-92" font-family="Helvetica,sans-Serif" font-size="10.00" fill="#000000">npts2</text>
<text text-anchor="middle" x="187" y="-81" font-family="Helvetica,sans-Serif" font-size="10.00" fill="#000000">bc_type1</text>
</g>
<!-- Node5&#45;&gt;Node4 -->
<g id="edge3" class="edge">
<title>Node5&#45;&gt;Node4</title>
<path fill="none" stroke="#9a32cd" stroke-dasharray="5,2" d="M162.6249,-280.546C174.8038,-238.5215 202.7076,-142.7994 205,-140 216.5933,-125.8425 234.552,-116.0153 249.9897,-109.6451"/>
<polygon fill="#9a32cd" stroke="#9a32cd" points="159.248,-279.6243 159.8291,-290.2032 165.9719,-281.5709 159.248,-279.6243"/>
<text text-anchor="middle" x="236.5" y="-220" font-family="Helvetica,sans-Serif" font-size="10.00" fill="#000000"> num_pts_x1</text>
<text text-anchor="middle" x="236.5" y="-209" font-family="Helvetica,sans-Serif" font-size="10.00" fill="#000000">num_pts_x2</text>
<text text-anchor="middle" x="236.5" y="-198" font-family="Helvetica,sans-Serif" font-size="10.00" fill="#000000">x1_bc_type</text>
<text text-anchor="middle" x="236.5" y="-187" font-family="Helvetica,sans-Serif" font-size="10.00" fill="#000000">x2_bc_type</text>
</g>
<!-- Node6 -->
<g id="node5" class="node">
<title>Node6</title>
<polygon fill="#ffffff" stroke="#bfbfbf" points="228.5,-290.5 228.5,-309.5 317.5,-309.5 317.5,-290.5 228.5,-290.5"/>
<text text-anchor="middle" x="273" y="-297.5" font-family="Helvetica,sans-Serif" font-size="10.00" fill="#000000">logical, private</text>
</g>
<!-- Node6&#45;&gt;Node4 -->
<g id="edge4" class="edge">
<title>Node6&#45;&gt;Node4</title>
<path fill="none" stroke="#9a32cd" stroke-dasharray="5,2" d="M272.2167,-280.1454C271.2268,-249.8634 270.0871,-190.3429 274,-140 274.8054,-129.6385 276.6849,-117.8883 278.1274,-109.8183"/>
<polygon fill="#9a32cd" stroke="#9a32cd" points="268.7224,-280.3712 272.5778,-290.2396 275.7179,-280.1208 268.7224,-280.3712"/>
<text text-anchor="middle" x="337.5" y="-220" font-family="Helvetica,sans-Serif" font-size="10.00" fill="#000000"> compute_slopes_x1_max</text>
<text text-anchor="middle" x="337.5" y="-209" font-family="Helvetica,sans-Serif" font-size="10.00" fill="#000000">compute_slopes_x2_max</text>
<text text-anchor="middle" x="337.5" y="-198" font-family="Helvetica,sans-Serif" font-size="10.00" fill="#000000">compute_slopes_x1_min</text>
<text text-anchor="middle" x="337.5" y="-187" font-family="Helvetica,sans-Serif" font-size="10.00" fill="#000000">compute_slopes_x2_min</text>
</g>
<!-- Node7 -->
<g id="node6" class="node">
<title>Node7</title>
<polygon fill="#ffffff" stroke="#bfbfbf" points="424,-290.5 424,-309.5 512,-309.5 512,-290.5 424,-290.5"/>
<text text-anchor="middle" x="468" y="-297.5" font-family="Helvetica,sans-Serif" font-size="10.00" fill="#000000">real(kind=f64)</text>
</g>
<!-- Node7&#45;&gt;Node2 -->
<g id="edge7" class="edge">
<title>Node7&#45;&gt;Node2</title>
<path fill="none" stroke="#9a32cd" stroke-dasharray="5,2" d="M491.7696,-283.5697C495.1094,-280.1539 498.0601,-276.275 500,-272 524.242,-218.5762 532.6688,-188.7291 500,-140 442.9113,-54.846 316.3582,-27.9092 245.1798,-19.4064"/>
<polygon fill="#9a32cd" stroke="#9a32cd" points="489.3116,-281.0694 484.0786,-290.2817 493.9143,-286.3434 489.3116,-281.0694"/>
<text text-anchor="middle" x="535.5" y="-97.5" font-family="Helvetica,sans-Serif" font-size="10.00" fill="#000000"> interpolation_points</text>
</g>
<!-- Node7&#45;&gt;Node4 -->
<g id="edge5" class="edge">
<title>Node7&#45;&gt;Node4</title>
<path fill="none" stroke="#9a32cd" stroke-dasharray="5,2" d="M436.8852,-284.9409C431.9331,-281.3212 427.3477,-277.0184 424,-272 390.9531,-222.4604 439.9082,-185.0824 401,-140 390.6642,-128.024 354.1201,-116.9464 323.8724,-109.5003"/>
<polygon fill="#9a32cd" stroke="#9a32cd" points="435.1014,-287.9547 445.4117,-290.3936 438.8727,-282.0574 435.1014,-287.9547"/>
<text text-anchor="middle" x="462" y="-264" font-family="Helvetica,sans-Serif" font-size="10.00" fill="#000000"> d1</text>
<text text-anchor="middle" x="462" y="-253" font-family="Helvetica,sans-Serif" font-size="10.00" fill="#000000">x2_min</text>
<text text-anchor="middle" x="462" y="-242" font-family="Helvetica,sans-Serif" font-size="10.00" fill="#000000">x1_max</text>
<text text-anchor="middle" x="462" y="-231" font-family="Helvetica,sans-Serif" font-size="10.00" fill="#000000">x1_min_slopes</text>
<text text-anchor="middle" x="462" y="-220" font-family="Helvetica,sans-Serif" font-size="10.00" fill="#000000">d2</text>
<text text-anchor="middle" x="462" y="-209" font-family="Helvetica,sans-Serif" font-size="10.00" fill="#000000">x2_max</text>
<text text-anchor="start" x="424" y="-198" font-family="Helvetica,sans-Serif" font-size="10.00" fill="#000000">x2_min_slopes</text>
<text text-anchor="middle" x="462" y="-187" font-family="Helvetica,sans-Serif" font-size="10.00" fill="#000000">_coeffs</text>
<text text-anchor="middle" x="462" y="-176" font-family="Helvetica,sans-Serif" font-size="10.00" fill="#000000">x2_rdelta</text>
<text text-anchor="middle" x="462" y="-165" font-family="Helvetica,sans-Serif" font-size="10.00" fill="#000000">x2_max_slopes</text>
<text text-anchor="middle" x="462" y="-154" font-family="Helvetica,sans-Serif" font-size="10.00" fill="#000000">x1_delta</text>
<text text-anchor="middle" x="462" y="-143" font-family="Helvetica,sans-Serif" font-size="10.00" fill="#000000">...</text>
</g>
</g>
</svg>
        <g id="navigator" transform="translate(0 0)" fill="#404254">
                <rect fill="#f2f5e9" fill-opacity="0.5" stroke="#606060" stroke-width=".5" x="0" y="0" width="60" height="60"/>
                <use id="zoomplus" xlink:href="#zoomPlus" x="17" y="9" onmousedown="handleZoom(evt,'in')"/>
                <use id="zoomminus" xlink:href="#zoomMin" x="42" y="9" onmousedown="handleZoom(evt,'out')"/>
                <use id="reset" xlink:href="#resetDef" x="30" y="36" onmousedown="handleReset()"/>
                <g id="arrowUp" xlink:href="#dirArrow" transform="translate(30 24)" onmousedown="handlePan(0,-1)">
                  <use xlink:href="#rim" fill="#404040">
                        <set attributeName="fill" to="#808080" begin="arrowUp.mouseover" end="arrowUp.mouseout"/>
                  </use>
                  <path fill="none" stroke="white" stroke-width="1.5" d="M0,-3.0v7 M-2.5,-0.5L0,-3.0L2.5,-0.5"/>
                </g>
                <g id="arrowRight" xlink:href="#dirArrow" transform="rotate(90) translate(36 -43)" onmousedown="handlePan(1,0)">
                  <use xlink:href="#rim" fill="#404040">
                        <set attributeName="fill" to="#808080" begin="arrowRight.mouseover" end="arrowRight.mouseout"/>
                  </use>
                  <path fill="none" stroke="white" stroke-width="1.5" d="M0,-3.0v7 M-2.5,-0.5L0,-3.0L2.5,-0.5"/>
                </g>
                <g id="arrowDown" xlink:href="#dirArrow" transform="rotate(180) translate(-30 -48)" onmousedown="handlePan(0,1)">
                  <use xlink:href="#rim" fill="#404040">
                        <set attributeName="fill" to="#808080" begin="arrowDown.mouseover" end="arrowDown.mouseout"/>
                  </use>
                  <path fill="none" stroke="white" stroke-width="1.5" d="M0,-3.0v7 M-2.5,-0.5L0,-3.0L2.5,-0.5"/>
                </g>
                <g id="arrowLeft" xlink:href="#dirArrow" transform="rotate(270) translate(-36 17)" onmousedown="handlePan(-1,0)">
                  <use xlink:href="#rim" fill="#404040">
                        <set attributeName="fill" to="#808080" begin="arrowLeft.mouseover" end="arrowLeft.mouseout"/>
                  </use>
                  <path fill="none" stroke="white" stroke-width="1.5" d="M0,-3.0v7 M-2.5,-0.5L0,-3.0L2.5,-0.5"/>
                </g>
        </g>
        <svg viewBox="0 0 15 15" width="100%" height="30px" preserveAspectRatio="xMaxYMin meet">
         <g id="arrow_out" transform="scale(0.3 0.3)">
          <a xlink:href="structsll__m__cubic__spline__interpolator__2d_1_1sll__t__cubic__spline__interpolator__2d__coll__graph_org.svg" target="_base">
           <rect id="button" ry="5" rx="5" y="6" x="6" height="38" width="38"
                fill="#f2f5e9" fill-opacity="0.5" stroke="#606060" stroke-width="1.0"/>
           <path id="arrow"
             d="M 11.500037,31.436501 C 11.940474,20.09759 22.043105,11.32322 32.158766,21.979434 L 37.068811,17.246167 C 37.068811,17.246167 37.088388,32 37.088388,32 L 22.160133,31.978069 C 22.160133,31.978069 26.997745,27.140456 26.997745,27.140456 C 18.528582,18.264221 13.291696,25.230495 11.500037,31.436501 z"
             style="fill:#404040;"/>
          </a>
         </g>
        </svg>
</svg>
