<?xml version="1.0" encoding="UTF-8" standalone="no"?>
<!DOCTYPE svg PUBLIC "-//W3C//DTD SVG 1.1//EN"
 "http://www.w3.org/Graphics/SVG/1.1/DTD/svg11.dtd">
<!-- Generated by graphviz version 2.40.1 (20161225.0304)
 -->
<!-- Title: sll_t_poisson_2d_fem_sps_dense Pages: 1 -->
<svg width="1139pt" height="1146pt"
 viewBox="0.00 0.00 1139.00 1146.00" xmlns="http://www.w3.org/2000/svg" xmlns:xlink="http://www.w3.org/1999/xlink">
<g id="graph0" class="graph" transform="scale(1 1) rotate(0) translate(4 1142)">
<title>sll_t_poisson_2d_fem_sps_dense</title>
<polygon fill="#ffffff" stroke="transparent" points="-4,4 -4,-1142 1135,-1142 1135,4 -4,4"/>
<!-- Node1 -->
<g id="node1" class="node">
<title>Node1</title>
<polygon fill="#bfbfbf" stroke="#000000" points="1009,-746 1009,-776 1131,-776 1131,-746 1009,-746"/>
<text text-anchor="start" x="1017" y="-764" font-family="Helvetica,sans-Serif" font-size="10.00" fill="#000000">sll_t_poisson_2d_fem</text>
<text text-anchor="middle" x="1070" y="-753" font-family="Helvetica,sans-Serif" font-size="10.00" fill="#000000">_sps_dense</text>
</g>
<!-- Node2 -->
<g id="node2" class="node">
<title>Node2</title>
<polygon fill="#ffffff" stroke="#bfbfbf" points="47.5,-981.5 47.5,-1000.5 96.5,-1000.5 96.5,-981.5 47.5,-981.5"/>
<text text-anchor="middle" x="72" y="-988.5" font-family="Helvetica,sans-Serif" font-size="10.00" fill="#000000">logical</text>
</g>
<!-- Node2&#45;&gt;Node1 -->
<g id="edge1" class="edge">
<title>Node2&#45;&gt;Node1</title>
<path fill="none" stroke="#9a32cd" stroke-dasharray="5,2" d="M85.8869,-1008.5284C101.965,-1027.3853 130.3285,-1056.4811 162,-1070 228.2629,-1098.2843 251.453,-1084 323.5,-1084 323.5,-1084 323.5,-1084 850.5,-1084 1001.3536,-1084 1055.7927,-840.004 1067.4572,-776.1457"/>
<polygon fill="#9a32cd" stroke="#9a32cd" points="88.4658,-1006.1547 79.3965,-1000.6776 83.0708,-1010.615 88.4658,-1006.1547"/>
<text text-anchor="middle" x="574.5" y="-1087" font-family="Helvetica,sans-Serif" font-size="10.00" fill="#000000"> verbose</text>
</g>
<!-- Node9 -->
<g id="node9" class="node">
<title>Node9</title>
<g id="a_node9"><a xlink:href="structsll__m__conjugate__gradient_1_1sll__t__conjugate__gradient.html" target="_top" xlink:title="sll_t_conjugate_gradient">
<polygon fill="#ffffff" stroke="#000000" points="255.5,-925.5 255.5,-944.5 391.5,-944.5 391.5,-925.5 255.5,-925.5"/>
<text text-anchor="middle" x="323.5" y="-932.5" font-family="Helvetica,sans-Serif" font-size="10.00" fill="#000000">sll_t_conjugate_gradient</text>
</a>
</g>
</g>
<!-- Node2&#45;&gt;Node9 -->
<g id="edge9" class="edge">
<title>Node2&#45;&gt;Node9</title>
<path fill="none" stroke="#9a32cd" stroke-dasharray="5,2" d="M106.9328,-988.2619C139.218,-985.2322 188.3447,-979.3511 230,-969 254.9765,-962.7935 282.5529,-952.2939 301.2417,-944.6011"/>
<polygon fill="#9a32cd" stroke="#9a32cd" points="106.3122,-984.8034 96.6647,-989.1824 106.9373,-991.7755 106.3122,-984.8034"/>
<text text-anchor="middle" x="196" y="-1006" font-family="Helvetica,sans-Serif" font-size="10.00" fill="#000000"> success</text>
<text text-anchor="middle" x="196" y="-995" font-family="Helvetica,sans-Serif" font-size="10.00" fill="#000000">allocate_once</text>
<text text-anchor="middle" x="196" y="-984" font-family="Helvetica,sans-Serif" font-size="10.00" fill="#000000">verbose</text>
</g>
<!-- Node13 -->
<g id="node13" class="node">
<title>Node13</title>
<g id="a_node13"><a xlink:href="structsll__m__linear__operator__matrix__dense__to__dense_1_1sll__t__linear__operator__matrix__dense__to__dense.html" target="_top" xlink:title="sll_t_linear_operator\l_matrix_dense_to_dense">
<polygon fill="#ffffff" stroke="#000000" points="254.5,-819 254.5,-849 392.5,-849 392.5,-819 254.5,-819"/>
<text text-anchor="start" x="262.5" y="-837" font-family="Helvetica,sans-Serif" font-size="10.00" fill="#000000">sll_t_linear_operator</text>
<text text-anchor="middle" x="323.5" y="-826" font-family="Helvetica,sans-Serif" font-size="10.00" fill="#000000">_matrix_dense_to_dense</text>
</a>
</g>
</g>
<!-- Node2&#45;&gt;Node13 -->
<g id="edge18" class="edge">
<title>Node2&#45;&gt;Node13</title>
<path fill="none" stroke="#9a32cd" stroke-dasharray="5,2" d="M106.6193,-986.068C120.1349,-982.4162 134.6102,-976.0608 144,-965 172.3766,-931.5734 131.37,-899.3746 162,-868 168.7804,-861.0548 213.6281,-851.9365 254.3458,-844.8912"/>
<polygon fill="#9a32cd" stroke="#9a32cd" points="105.5387,-982.7247 96.571,-988.3666 107.0997,-989.5484 105.5387,-982.7247"/>
<text text-anchor="middle" x="196" y="-871" font-family="Helvetica,sans-Serif" font-size="10.00" fill="#000000"> transposed</text>
</g>
<!-- Node3 -->
<g id="node3" class="node">
<title>Node3</title>
<g id="a_node3"><a xlink:href="structsll__m__poisson__2d__fem__sps__dense__assembler_1_1sll__t__poisson__2d__fem__sps__dense__assembler.html" target="_top" xlink:title="sll_t_poisson_2d_fem\l_sps_dense_assembler">
<polygon fill="#ffffff" stroke="#000000" points="259,-1025 259,-1055 388,-1055 388,-1025 259,-1025"/>
<text text-anchor="start" x="267" y="-1043" font-family="Helvetica,sans-Serif" font-size="10.00" fill="#000000">sll_t_poisson_2d_fem</text>
<text text-anchor="middle" x="323.5" y="-1032" font-family="Helvetica,sans-Serif" font-size="10.00" fill="#000000">_sps_dense_assembler</text>
</a>
</g>
</g>
<!-- Node3&#45;&gt;Node1 -->
<g id="edge2" class="edge">
<title>Node3&#45;&gt;Node1</title>
<path fill="none" stroke="#9a32cd" stroke-dasharray="5,2" d="M398.03,-1026.145C511.8766,-1003.7268 734.853,-954.8511 915,-885 950.3977,-871.2747 960.7313,-868.917 991,-846 1018.4661,-825.2049 1044.4876,-794.2652 1058.7395,-776.0119"/>
<polygon fill="#9a32cd" stroke="#9a32cd" points="397.1664,-1022.7475 388.0244,-1028.1023 398.5103,-1029.6173 397.1664,-1022.7475"/>
<text text-anchor="middle" x="718" y="-966" font-family="Helvetica,sans-Serif" font-size="10.00" fill="#000000"> assembler</text>
</g>
<!-- Node4 -->
<g id="node4" class="node">
<title>Node4</title>
<polygon fill="#ffffff" stroke="#bfbfbf" points="0,-1096.5 0,-1137.5 144,-1137.5 144,-1096.5 0,-1096.5"/>
<text text-anchor="start" x="8" y="-1125.5" font-family="Helvetica,sans-Serif" font-size="10.00" fill="#000000">class(sll_t_poisson</text>
<text text-anchor="start" x="8" y="-1114.5" font-family="Helvetica,sans-Serif" font-size="10.00" fill="#000000">_2d_fem_sps_weak_form)</text>
<text text-anchor="middle" x="72" y="-1103.5" font-family="Helvetica,sans-Serif" font-size="10.00" fill="#000000">, pointer</text>
</g>
<!-- Node4&#45;&gt;Node3 -->
<g id="edge3" class="edge">
<title>Node4&#45;&gt;Node3</title>
<path fill="none" stroke="#9a32cd" stroke-dasharray="5,2" d="M153.9184,-1095.3223C178.4846,-1088.5164 205.4267,-1080.7483 230,-1073 247.4023,-1067.5128 266.4236,-1060.912 282.7397,-1055.0604"/>
<polygon fill="#9a32cd" stroke="#9a32cd" points="152.9836,-1091.9493 144.2722,-1097.9794 154.8426,-1098.698 152.9836,-1091.9493"/>
<text text-anchor="middle" x="196" y="-1095" font-family="Helvetica,sans-Serif" font-size="10.00" fill="#000000"> weak_form</text>
</g>
<!-- Node5 -->
<g id="node5" class="node">
<title>Node5</title>
<polygon fill="#ffffff" stroke="#bfbfbf" points="46.5,-691.5 46.5,-710.5 97.5,-710.5 97.5,-691.5 46.5,-691.5"/>
<text text-anchor="middle" x="72" y="-698.5" font-family="Helvetica,sans-Serif" font-size="10.00" fill="#000000">integer</text>
</g>
<!-- Node5&#45;&gt;Node1 -->
<g id="edge43" class="edge">
<title>Node5&#45;&gt;Node1</title>
<path fill="none" stroke="#9a32cd" stroke-dasharray="5,2" d="M108.0259,-705.9473C181.4216,-715.8091 353.633,-737.8388 499,-748 691.5057,-761.4562 740.0462,-758.1108 933,-761 957.8522,-761.3721 985.2432,-761.4404 1008.9592,-761.391"/>
<polygon fill="#9a32cd" stroke="#9a32cd" points="108.3075,-702.4537 97.929,-704.5835 107.3704,-709.3907 108.3075,-702.4537"/>
<text text-anchor="middle" x="574.5" y="-847" font-family="Helvetica,sans-Serif" font-size="10.00" fill="#000000"> mm</text>
<text text-anchor="middle" x="574.5" y="-836" font-family="Helvetica,sans-Serif" font-size="10.00" fill="#000000">nk1</text>
<text text-anchor="middle" x="574.5" y="-825" font-family="Helvetica,sans-Serif" font-size="10.00" fill="#000000">nk2</text>
<text text-anchor="middle" x="574.5" y="-814" font-family="Helvetica,sans-Serif" font-size="10.00" fill="#000000">ncells1</text>
<text text-anchor="middle" x="574.5" y="-803" font-family="Helvetica,sans-Serif" font-size="10.00" fill="#000000">n1</text>
<text text-anchor="middle" x="574.5" y="-792" font-family="Helvetica,sans-Serif" font-size="10.00" fill="#000000">ncells2</text>
<text text-anchor="middle" x="574.5" y="-781" font-family="Helvetica,sans-Serif" font-size="10.00" fill="#000000">n2</text>
<text text-anchor="middle" x="574.5" y="-770" font-family="Helvetica,sans-Serif" font-size="10.00" fill="#000000">nq1</text>
<text text-anchor="middle" x="574.5" y="-759" font-family="Helvetica,sans-Serif" font-size="10.00" fill="#000000">nq2</text>
</g>
<!-- Node5&#45;&gt;Node3 -->
<g id="edge4" class="edge">
<title>Node5&#45;&gt;Node3</title>
<path fill="none" stroke="#9a32cd" stroke-dasharray="5,2" d="M86.716,-718.3275C103.8102,-739.5641 131.288,-777.3821 144,-815 158.4985,-857.9046 130.737,-985.2336 162,-1018 186.3197,-1043.4892 225.1819,-1049.3895 258.6897,-1048.7256"/>
<polygon fill="#9a32cd" stroke="#9a32cd" points="89.3636,-716.0366 80.3074,-710.5378 83.9579,-720.4839 89.3636,-716.0366"/>
<text text-anchor="middle" x="196" y="-1061" font-family="Helvetica,sans-Serif" font-size="10.00" fill="#000000"> n1</text>
<text text-anchor="middle" x="196" y="-1050" font-family="Helvetica,sans-Serif" font-size="10.00" fill="#000000">n2</text>
</g>
<!-- Node5&#45;&gt;Node9 -->
<g id="edge12" class="edge">
<title>Node5&#45;&gt;Node9</title>
<path fill="none" stroke="#9a32cd" stroke-dasharray="5,2" d="M85.5093,-718.7389C101.4557,-740.4143 127.8429,-778.6971 144,-815 156.0146,-841.9951 141.7383,-857.493 162,-879 186.3176,-904.8121 223.1231,-918.7285 255.4592,-926.2306"/>
<polygon fill="#9a32cd" stroke="#9a32cd" points="88.1612,-716.4405 79.3746,-710.5205 82.5517,-720.6278 88.1612,-716.4405"/>
<text text-anchor="middle" x="196" y="-921" font-family="Helvetica,sans-Serif" font-size="10.00" fill="#000000"> iterations</text>
</g>
<!-- Node5&#45;&gt;Node13 -->
<g id="edge20" class="edge">
<title>Node5&#45;&gt;Node13</title>
<path fill="none" stroke="#9a32cd" stroke-dasharray="5,2" d="M89.2291,-718.2194C106.4279,-734.6314 134.229,-759.1288 162,-775 195.4326,-794.1069 236.1798,-808.939 268.3805,-818.9528"/>
<polygon fill="#9a32cd" stroke="#9a32cd" points="91.2944,-715.3459 81.6843,-710.8853 86.4152,-720.3653 91.2944,-715.3459"/>
<text text-anchor="middle" x="196" y="-818" font-family="Helvetica,sans-Serif" font-size="10.00" fill="#000000"> s1</text>
<text text-anchor="middle" x="196" y="-807" font-family="Helvetica,sans-Serif" font-size="10.00" fill="#000000">s2</text>
</g>
<!-- Node15 -->
<g id="node15" class="node">
<title>Node15</title>
<g id="a_node15"><a xlink:href="structsll__m__poisson__2d__fem__sps__dense__projector_1_1sll__t__poisson__2d__fem__sps__dense__projector.html" target="_top" xlink:title="sll_t_poisson_2d_fem\l_sps_dense_projector">
<polygon fill="#ffffff" stroke="#000000" points="262.5,-673 262.5,-703 384.5,-703 384.5,-673 262.5,-673"/>
<text text-anchor="start" x="270.5" y="-691" font-family="Helvetica,sans-Serif" font-size="10.00" fill="#000000">sll_t_poisson_2d_fem</text>
<text text-anchor="middle" x="323.5" y="-680" font-family="Helvetica,sans-Serif" font-size="10.00" fill="#000000">_sps_dense_projector</text>
</a>
</g>
</g>
<!-- Node5&#45;&gt;Node15 -->
<g id="edge23" class="edge">
<title>Node5&#45;&gt;Node15</title>
<path fill="none" stroke="#9a32cd" stroke-dasharray="5,2" d="M107.5463,-692.2084C124.0009,-688.5738 143.8785,-684.7944 162,-683 195.0794,-679.7245 232.1388,-680.5527 262.4056,-682.3874"/>
<polygon fill="#9a32cd" stroke="#9a32cd" points="106.7609,-688.7975 97.7896,-694.4336 108.3175,-695.6223 106.7609,-688.7975"/>
<text text-anchor="middle" x="196" y="-697" font-family="Helvetica,sans-Serif" font-size="10.00" fill="#000000"> n1</text>
<text text-anchor="middle" x="196" y="-686" font-family="Helvetica,sans-Serif" font-size="10.00" fill="#000000">n2</text>
</g>
<!-- Node16 -->
<g id="node16" class="node">
<title>Node16</title>
<g id="a_node16"><a xlink:href="structsll__m__singular__mapping__discrete_1_1sll__t__singular__mapping__discrete.html" target="_top" xlink:title="Concrete type, discrete singular mapping. ">
<polygon fill="#ffffff" stroke="#000000" points="786,-352 786,-382 915,-382 915,-352 786,-352"/>
<text text-anchor="start" x="794" y="-370" font-family="Helvetica,sans-Serif" font-size="10.00" fill="#000000">sll_t_singular_mapping</text>
<text text-anchor="middle" x="850.5" y="-359" font-family="Helvetica,sans-Serif" font-size="10.00" fill="#000000">_discrete</text>
</a>
</g>
</g>
<!-- Node5&#45;&gt;Node16 -->
<g id="edge42" class="edge">
<title>Node5&#45;&gt;Node16</title>
<path fill="none" stroke="#9a32cd" stroke-dasharray="5,2" d="M107.631,-690.4419C124.1029,-685.7314 143.9707,-680.2896 162,-676 188.8909,-669.6021 625.8054,-592.3669 650,-579 741.5655,-528.4123 815.8693,-421.495 841.1805,-382.0394"/>
<polygon fill="#9a32cd" stroke="#9a32cd" points="106.4968,-687.1263 97.8605,-693.2635 108.439,-693.8515 106.4968,-687.1263"/>
<text text-anchor="middle" x="449" y="-665" font-family="Helvetica,sans-Serif" font-size="10.00" fill="#000000"> degree_eta2</text>
<text text-anchor="middle" x="449" y="-654" font-family="Helvetica,sans-Serif" font-size="10.00" fill="#000000">nbasis_eta1</text>
<text text-anchor="middle" x="449" y="-643" font-family="Helvetica,sans-Serif" font-size="10.00" fill="#000000">nbasis_eta2</text>
<text text-anchor="middle" x="449" y="-632" font-family="Helvetica,sans-Serif" font-size="10.00" fill="#000000">degree_eta1</text>
</g>
<!-- Node20 -->
<g id="node20" class="node">
<title>Node20</title>
<g id="a_node20"><a xlink:href="structsll__m__spline__interpolator__2d_1_1sll__t__spline__interpolator__2d.html" target="_top" xlink:title="2D tensor&#45;product spline interpolator ">
<polygon fill="#ffffff" stroke="#000000" points="499,-296.5 499,-315.5 650,-315.5 650,-296.5 499,-296.5"/>
<text text-anchor="middle" x="574.5" y="-303.5" font-family="Helvetica,sans-Serif" font-size="10.00" fill="#000000">sll_t_spline_interpolator_2d</text>
</a>
</g>
</g>
<!-- Node5&#45;&gt;Node20 -->
<g id="edge41" class="edge">
<title>Node5&#45;&gt;Node20</title>
<path fill="none" stroke="#9a32cd" stroke-dasharray="5,2" d="M81.1253,-682.0957C94.8125,-655.9332 123.2473,-609.286 162,-586 253.694,-530.9022 309.4667,-602.5435 399,-544 453.9892,-508.044 452.1341,-480.0204 481,-421 492.1148,-398.2742 484.5804,-387.7864 499,-367 514.5601,-344.5697 540.661,-326.1002 557.731,-315.5608"/>
<polygon fill="#9a32cd" stroke="#9a32cd" points="77.8463,-680.8246 76.4646,-691.329 84.0954,-683.979 77.8463,-680.8246"/>
<text text-anchor="middle" x="323.5" y="-605" font-family="Helvetica,sans-Serif" font-size="10.00" fill="#000000"> bc_xmax</text>
<text text-anchor="middle" x="323.5" y="-594" font-family="Helvetica,sans-Serif" font-size="10.00" fill="#000000">nbc_xmax</text>
<text text-anchor="middle" x="323.5" y="-583" font-family="Helvetica,sans-Serif" font-size="10.00" fill="#000000">nbc_xmin</text>
<text text-anchor="middle" x="323.5" y="-572" font-family="Helvetica,sans-Serif" font-size="10.00" fill="#000000">bc_xmin</text>
</g>
<!-- Node22 -->
<g id="node22" class="node">
<title>Node22</title>
<g id="a_node22"><a xlink:href="structsll__m__spline__interpolator__1d_1_1sll__t__spline__interpolator__1d.html" target="_top" xlink:title="1D spline interpolator ">
<polygon fill="#ffffff" stroke="#000000" points="248,-212.5 248,-231.5 399,-231.5 399,-212.5 248,-212.5"/>
<text text-anchor="middle" x="323.5" y="-219.5" font-family="Helvetica,sans-Serif" font-size="10.00" fill="#000000">sll_t_spline_interpolator_1d</text>
</a>
</g>
</g>
<!-- Node5&#45;&gt;Node22 -->
<g id="edge38" class="edge">
<title>Node5&#45;&gt;Node22</title>
<path fill="none" stroke="#9a32cd" stroke-dasharray="5,2" d="M84.8495,-683.065C101.8867,-658.1745 131.2793,-611.1122 144,-566 153.0929,-533.7533 140.7988,-290.943 162,-265 164.0024,-262.5497 238.3134,-243.4606 285.4256,-231.5545"/>
<polygon fill="#9a32cd" stroke="#9a32cd" points="81.8376,-681.2651 78.9852,-691.4687 87.5781,-685.2709 81.8376,-681.2651"/>
<text text-anchor="middle" x="196" y="-323" font-family="Helvetica,sans-Serif" font-size="10.00" fill="#000000"> offset</text>
<text text-anchor="middle" x="196" y="-312" font-family="Helvetica,sans-Serif" font-size="10.00" fill="#000000">bc_xmax</text>
<text text-anchor="middle" x="196" y="-301" font-family="Helvetica,sans-Serif" font-size="10.00" fill="#000000">nbc_xmax</text>
<text text-anchor="middle" x="196" y="-290" font-family="Helvetica,sans-Serif" font-size="10.00" fill="#000000">odd</text>
<text text-anchor="middle" x="196" y="-279" font-family="Helvetica,sans-Serif" font-size="10.00" fill="#000000">nbc_xmin</text>
<text text-anchor="middle" x="196" y="-268" font-family="Helvetica,sans-Serif" font-size="10.00" fill="#000000">bc_xmin</text>
</g>
<!-- Node6 -->
<g id="node6" class="node">
<title>Node6</title>
<g id="a_node6"><a xlink:href="structsll__m__vector__space__real__array__1d_1_1sll__t__vector__space__real__array__1d.html" target="_top" xlink:title="Vector space for wrapping 1D Fortran real arrays. ">
<polygon fill="#ffffff" stroke="#000000" points="270,-505 270,-535 377,-535 377,-505 270,-505"/>
<text text-anchor="start" x="278" y="-523" font-family="Helvetica,sans-Serif" font-size="10.00" fill="#000000">sll_t_vector_space</text>
<text text-anchor="middle" x="323.5" y="-512" font-family="Helvetica,sans-Serif" font-size="10.00" fill="#000000">_real_array_1d</text>
</a>
</g>
</g>
<!-- Node6&#45;&gt;Node1 -->
<g id="edge5" class="edge">
<title>Node6&#45;&gt;Node1</title>
<path fill="none" stroke="#9a32cd" stroke-dasharray="5,2" d="M387.2801,-536.3467C391.2599,-537.5361 395.1932,-538.7578 399,-540 444.3516,-554.7981 453.5625,-564.4678 499,-579 680.6243,-637.0887 730.6441,-635.2702 915,-684 948.88,-692.9553 959.341,-689.9748 991,-705 1013.9338,-715.8843 1037.2982,-733.4118 1052.6062,-745.9588"/>
<polygon fill="#9a32cd" stroke="#9a32cd" points="387.9161,-532.8869 377.3369,-533.4631 385.9664,-539.61 387.9161,-532.8869"/>
<text text-anchor="middle" x="718" y="-662" font-family="Helvetica,sans-Serif" font-size="10.00" fill="#000000"> xp_vecsp</text>
<text text-anchor="middle" x="718" y="-651" font-family="Helvetica,sans-Serif" font-size="10.00" fill="#000000">bp_vecsp</text>
</g>
<!-- Node7 -->
<g id="node7" class="node">
<title>Node7</title>
<g id="a_node7"><a xlink:href="structsll__m__vector__space__base_1_1sll__c__vector__space.html" target="_top" xlink:title="Abstract base class for all vector spaces. ">
<polygon fill="#ffffff" stroke="#000000" points="18,-537.5 18,-556.5 126,-556.5 126,-537.5 18,-537.5"/>
<text text-anchor="middle" x="72" y="-544.5" font-family="Helvetica,sans-Serif" font-size="10.00" fill="#000000">sll_c_vector_space</text>
</a>
</g>
</g>
<!-- Node7&#45;&gt;Node6 -->
<g id="edge6" class="edge">
<title>Node7&#45;&gt;Node6</title>
<path fill="none" stroke="#191970" d="M136.4789,-542.0173C165.1491,-539.6135 199.2952,-536.4927 230,-533 242.8642,-531.5367 256.6928,-529.7385 269.6655,-527.9515"/>
<polygon fill="#191970" stroke="#191970" points="135.8575,-538.5567 126.1804,-542.8698 136.4351,-545.5328 135.8575,-538.5567"/>
</g>
<!-- Node8 -->
<g id="node8" class="node">
<title>Node8</title>
<polygon fill="#ffffff" stroke="#bfbfbf" points="43.5,-410.5 43.5,-429.5 100.5,-429.5 100.5,-410.5 43.5,-410.5"/>
<text text-anchor="middle" x="72" y="-417.5" font-family="Helvetica,sans-Serif" font-size="10.00" fill="#000000">real(wp)</text>
</g>
<!-- Node8&#45;&gt;Node1 -->
<g id="edge15" class="edge">
<title>Node8&#45;&gt;Node1</title>
<path fill="none" stroke="#9a32cd" stroke-dasharray="5,2" d="M111.0435,-419.4436C232.6318,-417.9006 599.3966,-414.7467 650,-432 841.1183,-497.1623 1011.3049,-689.9223 1057.618,-745.7121"/>
<polygon fill="#9a32cd" stroke="#9a32cd" points="110.6733,-415.948 100.7199,-419.5783 110.7647,-422.9474 110.6733,-415.948"/>
<text text-anchor="middle" x="574.5" y="-567" font-family="Helvetica,sans-Serif" font-size="10.00" fill="#000000"> x</text>
<text text-anchor="middle" x="574.5" y="-556" font-family="Helvetica,sans-Serif" font-size="10.00" fill="#000000">quad_points_eta1</text>
<text text-anchor="middle" x="574.5" y="-545" font-family="Helvetica,sans-Serif" font-size="10.00" fill="#000000">mp</text>
<text text-anchor="start" x="531" y="-534" font-family="Helvetica,sans-Serif" font-size="10.00" fill="#000000">quad_points</text>
<text text-anchor="middle" x="574.5" y="-523" font-family="Helvetica,sans-Serif" font-size="10.00" fill="#000000">_eta2</text>
<text text-anchor="middle" x="574.5" y="-512" font-family="Helvetica,sans-Serif" font-size="10.00" fill="#000000">int_volume</text>
<text text-anchor="middle" x="574.5" y="-501" font-family="Helvetica,sans-Serif" font-size="10.00" fill="#000000">l</text>
<text text-anchor="middle" x="574.5" y="-490" font-family="Helvetica,sans-Serif" font-size="10.00" fill="#000000">m</text>
<text text-anchor="middle" x="574.5" y="-479" font-family="Helvetica,sans-Serif" font-size="10.00" fill="#000000">xp</text>
<text text-anchor="start" x="531" y="-468" font-family="Helvetica,sans-Serif" font-size="10.00" fill="#000000">data_2d</text>
<text text-anchor="middle" x="574.5" y="-457" font-family="Helvetica,sans-Serif" font-size="10.00" fill="#000000">_rhs</text>
<text text-anchor="middle" x="574.5" y="-446" font-family="Helvetica,sans-Serif" font-size="10.00" fill="#000000">tol</text>
<text text-anchor="middle" x="574.5" y="-435" font-family="Helvetica,sans-Serif" font-size="10.00" fill="#000000">...</text>
</g>
<!-- Node8&#45;&gt;Node6 -->
<g id="edge7" class="edge">
<title>Node8&#45;&gt;Node6</title>
<path fill="none" stroke="#9a32cd" stroke-dasharray="5,2" d="M110.3863,-430.0375C149.8529,-440.5603 208.488,-456.8154 230,-466 255.3425,-476.8201 282.4102,-493.0192 300.8657,-504.8523"/>
<polygon fill="#9a32cd" stroke="#9a32cd" points="111.1158,-426.61 100.5526,-427.4283 109.3205,-433.3759 111.1158,-426.61"/>
<text text-anchor="middle" x="196" y="-469" font-family="Helvetica,sans-Serif" font-size="10.00" fill="#000000"> array</text>
</g>
<!-- Node8&#45;&gt;Node9 -->
<g id="edge10" class="edge">
<title>Node8&#45;&gt;Node9</title>
<path fill="none" stroke="#9a32cd" stroke-dasharray="5,2" d="M87.4213,-437.1907C104.5061,-457.3502 131.3141,-492.5398 144,-528 171.2308,-604.117 118.4369,-640.9003 162,-709 180.8946,-738.5369 210.1834,-720.0736 230,-749 257.9979,-789.8686 225.4696,-814.8808 248,-859 262.718,-887.8208 292.3078,-912.5734 309.7538,-925.4736"/>
<polygon fill="#9a32cd" stroke="#9a32cd" points="89.9599,-434.7759 80.764,-429.5141 84.6715,-439.3621 89.9599,-434.7759"/>
<text text-anchor="middle" x="196" y="-763" font-family="Helvetica,sans-Serif" font-size="10.00" fill="#000000"> tol</text>
<text text-anchor="middle" x="196" y="-752" font-family="Helvetica,sans-Serif" font-size="10.00" fill="#000000">residual</text>
</g>
<!-- Node8&#45;&gt;Node13 -->
<g id="edge19" class="edge">
<title>Node8&#45;&gt;Node13</title>
<path fill="none" stroke="#9a32cd" stroke-dasharray="5,2" d="M86.0557,-437.7012C101.9136,-458.3663 127.6234,-494.0546 144,-528 155.3595,-551.5461 148.5376,-561.5897 162,-584 184.3354,-621.1808 207.9419,-616.654 230,-654 243.9424,-677.6054 236.6465,-688.046 248,-713 266.355,-753.3427 295.9542,-796.4264 312.0993,-818.6941"/>
<polygon fill="#9a32cd" stroke="#9a32cd" points="88.6294,-435.3096 79.725,-429.5684 83.1056,-439.6094 88.6294,-435.3096"/>
<text text-anchor="middle" x="196" y="-668" font-family="Helvetica,sans-Serif" font-size="10.00" fill="#000000"> at</text>
<text text-anchor="middle" x="196" y="-657" font-family="Helvetica,sans-Serif" font-size="10.00" fill="#000000">a</text>
</g>
<!-- Node8&#45;&gt;Node15 -->
<g id="edge22" class="edge">
<title>Node8&#45;&gt;Node15</title>
<path fill="none" stroke="#9a32cd" stroke-dasharray="5,2" d="M98.3517,-434.6297C133.772,-455.6781 196.1877,-497.8827 230,-551 247.0189,-577.7358 231.5319,-592.9215 248,-620 261.1993,-641.7036 283.438,-660.5062 300.3705,-672.8044"/>
<polygon fill="#9a32cd" stroke="#9a32cd" points="99.9455,-431.5076 89.5424,-429.501 96.4235,-437.5571 99.9455,-431.5076"/>
<text text-anchor="middle" x="196" y="-576" font-family="Helvetica,sans-Serif" font-size="10.00" fill="#000000"> l</text>
<text text-anchor="middle" x="196" y="-565" font-family="Helvetica,sans-Serif" font-size="10.00" fill="#000000">qp_temp</text>
<text text-anchor="middle" x="196" y="-554" font-family="Helvetica,sans-Serif" font-size="10.00" fill="#000000">lt</text>
</g>
<!-- Node8&#45;&gt;Node16 -->
<g id="edge29" class="edge">
<title>Node8&#45;&gt;Node16</title>
<path fill="none" stroke="#9a32cd" stroke-dasharray="5,2" d="M110.6908,-416.9936C172.1925,-411.802 295.854,-399.6768 399,-379 407.1409,-377.3681 408.8284,-375.4706 417,-374 452.9987,-367.5217 462.4562,-368.557 499,-367 598.9892,-362.7399 715.1229,-363.9381 785.6805,-365.3494"/>
<polygon fill="#9a32cd" stroke="#9a32cd" points="110.3337,-413.5111 100.657,-417.8253 110.912,-420.4871 110.3337,-413.5111"/>
<text text-anchor="middle" x="449" y="-410" font-family="Helvetica,sans-Serif" font-size="10.00" fill="#000000"> tau_eta1</text>
<text text-anchor="middle" x="449" y="-399" font-family="Helvetica,sans-Serif" font-size="10.00" fill="#000000">tau_eta2</text>
<text text-anchor="middle" x="449" y="-388" font-family="Helvetica,sans-Serif" font-size="10.00" fill="#000000">gtau_x1</text>
<text text-anchor="middle" x="449" y="-377" font-family="Helvetica,sans-Serif" font-size="10.00" fill="#000000">gtau_x2</text>
</g>
<!-- Node18 -->
<g id="node18" class="node">
<title>Node18</title>
<g id="a_node18"><a xlink:href="structsll__m__spline__2d_1_1sll__t__spline__2d.html" target="_top" xlink:title="2D tensor&#45;product spline ">
<polygon fill="#ffffff" stroke="#000000" points="279,-.5 279,-19.5 368,-19.5 368,-.5 279,-.5"/>
<text text-anchor="middle" x="323.5" y="-7.5" font-family="Helvetica,sans-Serif" font-size="10.00" fill="#000000">sll_t_spline_2d</text>
</a>
</g>
</g>
<!-- Node8&#45;&gt;Node18 -->
<g id="edge27" class="edge">
<title>Node8&#45;&gt;Node18</title>
<path fill="none" stroke="#9a32cd" stroke-dasharray="5,2" d="M80.462,-400.5204C95.5659,-364.9557 127.1583,-286.8238 144,-218 157.8645,-161.3427 130.3351,-136.9858 162,-88 168.1252,-78.5242 237.764,-38.747 248,-34 260.3527,-28.2714 274.4425,-23.3842 287.0785,-19.5445"/>
<polygon fill="#9a32cd" stroke="#9a32cd" points="77.0641,-399.5637 76.3386,-410.1337 83.4972,-402.3232 77.0641,-399.5637"/>
<text text-anchor="middle" x="196" y="-91" font-family="Helvetica,sans-Serif" font-size="10.00" fill="#000000"> bcoef</text>
</g>
<!-- Node8&#45;&gt;Node20 -->
<g id="edge39" class="edge">
<title>Node8&#45;&gt;Node20</title>
<path fill="none" stroke="#9a32cd" stroke-dasharray="5,2" d="M110.6312,-407.2644C146.0742,-395.8968 200.1732,-379.3403 248,-368 350.3857,-343.7232 377.7603,-346.341 481,-326 497.4496,-322.759 515.4732,-318.9622 531.2683,-315.5527"/>
<polygon fill="#9a32cd" stroke="#9a32cd" points="109.1456,-404.066 100.7045,-410.4691 111.2962,-410.7275 109.1456,-404.066"/>
<text text-anchor="middle" x="323.5" y="-371" font-family="Helvetica,sans-Serif" font-size="10.00" fill="#000000"> bwork</text>
</g>
<!-- Node21 -->
<g id="node21" class="node">
<title>Node21</title>
<g id="a_node21"><a xlink:href="structsll__m__spline__1d_1_1sll__t__spline__1d.html" target="_top" xlink:title="1D spline ">
<polygon fill="#ffffff" stroke="#000000" points="279,-293.5 279,-312.5 368,-312.5 368,-293.5 279,-293.5"/>
<text text-anchor="middle" x="323.5" y="-300.5" font-family="Helvetica,sans-Serif" font-size="10.00" fill="#000000">sll_t_spline_1d</text>
</a>
</g>
</g>
<!-- Node8&#45;&gt;Node21 -->
<g id="edge32" class="edge">
<title>Node8&#45;&gt;Node21</title>
<path fill="none" stroke="#9a32cd" stroke-dasharray="5,2" d="M91.0438,-404.2131C108.5891,-390.2847 135.7984,-370.201 162,-357 163.5388,-356.2247 248.5492,-327.9194 294.5938,-312.6076"/>
<polygon fill="#9a32cd" stroke="#9a32cd" points="88.8381,-401.4955 83.2537,-410.4991 93.2339,-406.9431 88.8381,-401.4955"/>
<text text-anchor="middle" x="196" y="-360" font-family="Helvetica,sans-Serif" font-size="10.00" fill="#000000"> bcoef</text>
</g>
<!-- Node8&#45;&gt;Node22 -->
<g id="edge35" class="edge">
<title>Node8&#45;&gt;Node22</title>
<path fill="none" stroke="#9a32cd" stroke-dasharray="5,2" d="M74.1888,-400.1199C79.9486,-358.6277 99.6675,-263.3258 162,-223 200.373,-198.1748 255.3542,-204.5575 290.2373,-212.4712"/>
<polygon fill="#9a32cd" stroke="#9a32cd" points="70.683,-399.9475 72.9106,-410.3055 77.6286,-400.8192 70.683,-399.9475"/>
<text text-anchor="middle" x="196" y="-237" font-family="Helvetica,sans-Serif" font-size="10.00" fill="#000000"> tau</text>
<text text-anchor="middle" x="196" y="-226" font-family="Helvetica,sans-Serif" font-size="10.00" fill="#000000">dx</text>
</g>
<!-- Node9&#45;&gt;Node1 -->
<g id="edge8" class="edge">
<title>Node9&#45;&gt;Node1</title>
<path fill="none" stroke="#9a32cd" stroke-dasharray="5,2" d="M401.8697,-934.1876C517.441,-930.7786 738.9119,-915.7388 915,-853 950.0305,-840.5189 958.8824,-836.7449 991,-818 1012.6181,-805.3829 1035.6444,-788.3033 1051.2252,-776.138"/>
<polygon fill="#9a32cd" stroke="#9a32cd" points="401.5997,-930.6935 391.699,-934.4654 401.7909,-937.6909 401.5997,-930.6935"/>
<text text-anchor="middle" x="718" y="-913" font-family="Helvetica,sans-Serif" font-size="10.00" fill="#000000"> cjsolver</text>
</g>
<!-- Node10 -->
<g id="node10" class="node">
<title>Node10</title>
<polygon fill="#ffffff" stroke="#bfbfbf" points="13.5,-914.5 13.5,-955.5 130.5,-955.5 130.5,-914.5 13.5,-914.5"/>
<text text-anchor="start" x="21.5" y="-943.5" font-family="Helvetica,sans-Serif" font-size="10.00" fill="#000000">class(sll_c_vector</text>
<text text-anchor="start" x="21.5" y="-932.5" font-family="Helvetica,sans-Serif" font-size="10.00" fill="#000000">_space), allocatable,</text>
<text text-anchor="middle" x="72" y="-921.5" font-family="Helvetica,sans-Serif" font-size="10.00" fill="#000000"> private</text>
</g>
<!-- Node10&#45;&gt;Node9 -->
<g id="edge11" class="edge">
<title>Node10&#45;&gt;Node9</title>
<path fill="none" stroke="#9a32cd" stroke-dasharray="5,2" d="M140.9574,-935C176.5801,-935 219.9002,-935 255.3984,-935"/>
<polygon fill="#9a32cd" stroke="#9a32cd" points="140.6482,-931.5001 130.6482,-935 140.6481,-938.5001 140.6482,-931.5001"/>
<text text-anchor="middle" x="196" y="-960" font-family="Helvetica,sans-Serif" font-size="10.00" fill="#000000"> p</text>
<text text-anchor="middle" x="196" y="-949" font-family="Helvetica,sans-Serif" font-size="10.00" fill="#000000">r</text>
<text text-anchor="middle" x="196" y="-938" font-family="Helvetica,sans-Serif" font-size="10.00" fill="#000000">v</text>
</g>
<!-- Node11 -->
<g id="node11" class="node">
<title>Node11</title>
<g id="a_node11"><a xlink:href="structsll__m__poisson__2d__fem__sps__weak__form_1_1sll__t__poisson__2d__fem__sps__weak__form.html" target="_top" xlink:title="sll_t_poisson_2d_fem\l_sps_weak_form">
<polygon fill="#ffffff" stroke="#000000" points="789.5,-715 789.5,-745 911.5,-745 911.5,-715 789.5,-715"/>
<text text-anchor="start" x="797.5" y="-733" font-family="Helvetica,sans-Serif" font-size="10.00" fill="#000000">sll_t_poisson_2d_fem</text>
<text text-anchor="middle" x="850.5" y="-722" font-family="Helvetica,sans-Serif" font-size="10.00" fill="#000000">_sps_weak_form</text>
</a>
</g>
</g>
<!-- Node11&#45;&gt;Node1 -->
<g id="edge13" class="edge">
<title>Node11&#45;&gt;Node1</title>
<path fill="none" stroke="#9a32cd" stroke-dasharray="5,2" d="M921.7973,-740.0693C949.8751,-744.0348 981.7966,-748.543 1008.8046,-752.3574"/>
<polygon fill="#9a32cd" stroke="#9a32cd" points="922.0342,-736.5681 911.643,-738.6352 921.0552,-743.4993 922.0342,-736.5681"/>
<text text-anchor="middle" x="962" y="-752" font-family="Helvetica,sans-Serif" font-size="10.00" fill="#000000"> weak_form</text>
</g>
<!-- Node12 -->
<g id="node12" class="node">
<title>Node12</title>
<g id="a_node12"><a xlink:href="structsll__m__ellipt__2d__fem__sps__weak__form_1_1sll__c__ellipt__2d__fem__sps__weak__form.html" target="_top" xlink:title="sll_c_ellipt_2d_fem\l_sps_weak_form">
<polygon fill="#ffffff" stroke="#000000" points="519.5,-708 519.5,-738 629.5,-738 629.5,-708 519.5,-708"/>
<text text-anchor="start" x="527.5" y="-726" font-family="Helvetica,sans-Serif" font-size="10.00" fill="#000000">sll_c_ellipt_2d_fem</text>
<text text-anchor="middle" x="574.5" y="-715" font-family="Helvetica,sans-Serif" font-size="10.00" fill="#000000">_sps_weak_form</text>
</a>
</g>
</g>
<!-- Node12&#45;&gt;Node11 -->
<g id="edge14" class="edge">
<title>Node12&#45;&gt;Node11</title>
<path fill="none" stroke="#191970" d="M639.6891,-724.6533C684.9254,-725.8006 744.7888,-727.3189 789.1623,-728.4443"/>
<polygon fill="#191970" stroke="#191970" points="639.7749,-721.1545 629.6894,-724.3997 639.5974,-728.1522 639.7749,-721.1545"/>
</g>
<!-- Node13&#45;&gt;Node1 -->
<g id="edge16" class="edge">
<title>Node13&#45;&gt;Node1</title>
<path fill="none" stroke="#9a32cd" stroke-dasharray="5,2" d="M379.9787,-851.9176C414.0566,-861.7812 458.5667,-873.0087 499,-878 704.88,-903.415 947.1844,-813.1 1035.5566,-776.1064"/>
<polygon fill="#9a32cd" stroke="#9a32cd" points="380.7871,-848.5072 370.2059,-849.0438 378.8123,-855.2228 380.7871,-848.5072"/>
<text text-anchor="middle" x="718" y="-879" font-family="Helvetica,sans-Serif" font-size="10.00" fill="#000000"> ap_linop</text>
</g>
<!-- Node14 -->
<g id="node14" class="node">
<title>Node14</title>
<g id="a_node14"><a xlink:href="structsll__m__linear__operator__base_1_1sll__c__linear__operator.html" target="_top" xlink:title="sll_c_linear_operator">
<polygon fill="#ffffff" stroke="#000000" points="13,-824.5 13,-843.5 131,-843.5 131,-824.5 13,-824.5"/>
<text text-anchor="middle" x="72" y="-831.5" font-family="Helvetica,sans-Serif" font-size="10.00" fill="#000000">sll_c_linear_operator</text>
</a>
</g>
</g>
<!-- Node14&#45;&gt;Node13 -->
<g id="edge17" class="edge">
<title>Node14&#45;&gt;Node13</title>
<path fill="none" stroke="#191970" d="M141.4707,-834C176.6498,-834 219.2326,-834 254.3645,-834"/>
<polygon fill="#191970" stroke="#191970" points="141.2836,-830.5001 131.2835,-834 141.2835,-837.5001 141.2836,-830.5001"/>
</g>
<!-- Node15&#45;&gt;Node1 -->
<g id="edge21" class="edge">
<title>Node15&#45;&gt;Node1</title>
<path fill="none" stroke="#9a32cd" stroke-dasharray="5,2" d="M394.7754,-683.1159C506.6828,-677.0219 729.9399,-671.2337 915,-706 958.4972,-714.1716 1006.1438,-732.6105 1036.9694,-745.888"/>
<polygon fill="#9a32cd" stroke="#9a32cd" points="394.4126,-679.6307 384.6247,-683.6863 394.8054,-686.6196 394.4126,-679.6307"/>
<text text-anchor="middle" x="718" y="-689" font-family="Helvetica,sans-Serif" font-size="10.00" fill="#000000"> projector</text>
</g>
<!-- Node16&#45;&gt;Node1 -->
<g id="edge24" class="edge">
<title>Node16&#45;&gt;Node1</title>
<path fill="none" stroke="#9a32cd" stroke-dasharray="5,2" d="M876.4976,-389.1122C907.7357,-416.9573 959.8256,-467.6463 991,-521 1036.4771,-598.8323 1059.8484,-706.3591 1067.2994,-745.753"/>
<polygon fill="#9a32cd" stroke="#9a32cd" points="878.472,-386.1875 868.6524,-382.2091 873.8478,-391.4427 878.472,-386.1875"/>
<text text-anchor="middle" x="962" y="-524" font-family="Helvetica,sans-Serif" font-size="10.00" fill="#000000"> mapping</text>
</g>
<!-- Node17 -->
<g id="node17" class="node">
<title>Node17</title>
<g id="a_node17"><a xlink:href="structsll__m__singular__mapping__base_1_1sll__c__singular__mapping.html" target="_top" xlink:title="Abstract type, singular mapping. ">
<polygon fill="#ffffff" stroke="#000000" points="509,-376.5 509,-395.5 640,-395.5 640,-376.5 509,-376.5"/>
<text text-anchor="middle" x="574.5" y="-383.5" font-family="Helvetica,sans-Serif" font-size="10.00" fill="#000000">sll_c_singular_mapping</text>
</a>
</g>
</g>
<!-- Node17&#45;&gt;Node16 -->
<g id="edge25" class="edge">
<title>Node17&#45;&gt;Node16</title>
<path fill="none" stroke="#191970" d="M650.2708,-380.7839C692.7466,-377.8598 745.1714,-374.2509 785.7222,-371.4593"/>
<polygon fill="#191970" stroke="#191970" points="649.9942,-377.2946 640.2582,-381.4732 650.475,-384.278 649.9942,-377.2946"/>
</g>
<!-- Node18&#45;&gt;Node16 -->
<g id="edge26" class="edge">
<title>Node18&#45;&gt;Node16</title>
<path fill="none" stroke="#9a32cd" stroke-dasharray="5,2" d="M347.8312,-25.1108C415.5497,-67.3641 611.5214,-190.984 768,-303 790.4047,-319.0385 815.2883,-338.5938 831.8086,-351.8355"/>
<polygon fill="#9a32cd" stroke="#9a32cd" points="349.4827,-22.0161 339.1444,-19.6984 345.7809,-27.9572 349.4827,-22.0161"/>
<text text-anchor="middle" x="574.5" y="-234" font-family="Helvetica,sans-Serif" font-size="10.00" fill="#000000"> spline_2d_x1</text>
<text text-anchor="middle" x="574.5" y="-223" font-family="Helvetica,sans-Serif" font-size="10.00" fill="#000000">spline_2d_x2</text>
</g>
<!-- Node19 -->
<g id="node19" class="node">
<title>Node19</title>
<polygon fill="#ffffff" stroke="#bfbfbf" points="14,-72 14,-102 130,-102 130,-72 14,-72"/>
<text text-anchor="start" x="22" y="-90" font-family="Helvetica,sans-Serif" font-size="10.00" fill="#000000">class(sll_c_bsplines)</text>
<text text-anchor="middle" x="72" y="-79" font-family="Helvetica,sans-Serif" font-size="10.00" fill="#000000">, pointer, private</text>
</g>
<!-- Node19&#45;&gt;Node18 -->
<g id="edge28" class="edge">
<title>Node19&#45;&gt;Node18</title>
<path fill="none" stroke="#9a32cd" stroke-dasharray="5,2" d="M92.6536,-64.7498C109.5241,-48.2436 134.9316,-26.9477 162,-17 199.6691,-3.1566 245.6471,-2.5947 278.8976,-4.7959"/>
<polygon fill="#9a32cd" stroke="#9a32cd" points="90.0819,-62.3725 85.5278,-71.9386 95.0534,-67.3005 90.0819,-62.3725"/>
<text text-anchor="middle" x="196" y="-31" font-family="Helvetica,sans-Serif" font-size="10.00" fill="#000000"> bspl1</text>
<text text-anchor="middle" x="196" y="-20" font-family="Helvetica,sans-Serif" font-size="10.00" fill="#000000">bspl2</text>
</g>
<!-- Node19&#45;&gt;Node20 -->
<g id="edge40" class="edge">
<title>Node19&#45;&gt;Node20</title>
<path fill="none" stroke="#9a32cd" stroke-dasharray="5,2" d="M124.8651,-69.4236C156.0161,-61.7339 195.8816,-56.5683 230,-67 383.842,-114.037 528.8064,-257.9775 565.5694,-296.457"/>
<polygon fill="#9a32cd" stroke="#9a32cd" points="123.8599,-66.0688 115.0757,-71.9924 125.6366,-72.8396 123.8599,-66.0688"/>
<text text-anchor="middle" x="323.5" y="-168" font-family="Helvetica,sans-Serif" font-size="10.00" fill="#000000"> bspl1</text>
<text text-anchor="middle" x="323.5" y="-157" font-family="Helvetica,sans-Serif" font-size="10.00" fill="#000000">bspl2</text>
</g>
<!-- Node19&#45;&gt;Node21 -->
<g id="edge33" class="edge">
<title>Node19&#45;&gt;Node21</title>
<path fill="none" stroke="#9a32cd" stroke-dasharray="5,2" d="M111.0919,-106.7926C157.2094,-130.2139 227.9391,-166.3908 230,-169 250.445,-194.8844 230.3638,-213.1259 248,-241 262.6911,-264.2193 289.0228,-282.8797 306.3795,-293.4528"/>
<polygon fill="#9a32cd" stroke="#9a32cd" points="112.4426,-103.5531 101.9412,-102.1486 109.2746,-109.7953 112.4426,-103.5531"/>
<text text-anchor="middle" x="196" y="-172" font-family="Helvetica,sans-Serif" font-size="10.00" fill="#000000"> bspl</text>
</g>
<!-- Node19&#45;&gt;Node22 -->
<g id="edge36" class="edge">
<title>Node19&#45;&gt;Node22</title>
<path fill="none" stroke="#9a32cd" stroke-dasharray="5,2" d="M140.0878,-97.4714C175.4801,-103.7349 214.5132,-112.175 230,-121 271.1063,-144.424 304.5585,-192.0328 317.6065,-212.4031"/>
<polygon fill="#9a32cd" stroke="#9a32cd" points="140.675,-94.0211 130.2245,-95.764 139.4809,-100.9185 140.675,-94.0211"/>
<text text-anchor="middle" x="196" y="-124" font-family="Helvetica,sans-Serif" font-size="10.00" fill="#000000"> bspl</text>
</g>
<!-- Node20&#45;&gt;Node16 -->
<g id="edge30" class="edge">
<title>Node20&#45;&gt;Node16</title>
<path fill="none" stroke="#9a32cd" stroke-dasharray="5,2" d="M660.6246,-306.1825C694.6461,-308.1524 733.7237,-312.8165 768,-323 789.629,-329.426 812.0925,-341.8456 828.1077,-351.8557"/>
<polygon fill="#9a32cd" stroke="#9a32cd" points="660.4042,-302.6669 650.2394,-305.6545 660.0487,-309.6579 660.4042,-302.6669"/>
<text text-anchor="middle" x="718" y="-326" font-family="Helvetica,sans-Serif" font-size="10.00" fill="#000000"> spline_interp_eta12</text>
</g>
<!-- Node21&#45;&gt;Node20 -->
<g id="edge31" class="edge">
<title>Node21&#45;&gt;Node20</title>
<path fill="none" stroke="#9a32cd" stroke-dasharray="5,2" d="M378.6504,-303.1473C408.8759,-303.2791 447.0034,-303.5285 481,-304 486.8445,-304.0811 492.8943,-304.1789 498.976,-304.2871"/>
<polygon fill="#9a32cd" stroke="#9a32cd" points="378.3226,-299.646 368.3085,-303.1054 378.2942,-306.646 378.3226,-299.646"/>
<text text-anchor="middle" x="449" y="-318" font-family="Helvetica,sans-Serif" font-size="10.00" fill="#000000"> spline1</text>
<text text-anchor="middle" x="449" y="-307" font-family="Helvetica,sans-Serif" font-size="10.00" fill="#000000">spline2</text>
</g>
<!-- Node22&#45;&gt;Node20 -->
<g id="edge34" class="edge">
<title>Node22&#45;&gt;Node20</title>
<path fill="none" stroke="#9a32cd" stroke-dasharray="5,2" d="M361.9182,-234.8571C412.6615,-251.8389 500.8641,-281.3569 546.0429,-296.4765"/>
<polygon fill="#9a32cd" stroke="#9a32cd" points="362.8867,-231.4905 352.2929,-231.6359 360.6652,-238.1286 362.8867,-231.4905"/>
<text text-anchor="middle" x="449" y="-288" font-family="Helvetica,sans-Serif" font-size="10.00" fill="#000000"> interp2</text>
<text text-anchor="middle" x="449" y="-277" font-family="Helvetica,sans-Serif" font-size="10.00" fill="#000000">interp1</text>
</g>
<!-- Node23 -->
<g id="node23" class="node">
<title>Node23</title>
<polygon fill="#ffffff" stroke="#bfbfbf" points="11.5,-167.5 11.5,-208.5 132.5,-208.5 132.5,-167.5 11.5,-167.5"/>
<text text-anchor="start" x="19.5" y="-196.5" font-family="Helvetica,sans-Serif" font-size="10.00" fill="#000000">class(sll_c_spline</text>
<text text-anchor="start" x="19.5" y="-185.5" font-family="Helvetica,sans-Serif" font-size="10.00" fill="#000000">_matrix), allocatable,</text>
<text text-anchor="middle" x="72" y="-174.5" font-family="Helvetica,sans-Serif" font-size="10.00" fill="#000000"> private</text>
</g>
<!-- Node23&#45;&gt;Node22 -->
<g id="edge37" class="edge">
<title>Node23&#45;&gt;Node22</title>
<path fill="none" stroke="#9a32cd" stroke-dasharray="5,2" d="M143.0865,-183.4533C170.4368,-183.0057 201.8454,-184.0856 230,-189 255.9451,-193.5288 284.2753,-204.4316 302.8722,-212.4719"/>
<polygon fill="#9a32cd" stroke="#9a32cd" points="142.733,-179.9605 132.8181,-183.6947 142.8977,-186.9586 142.733,-179.9605"/>
<text text-anchor="middle" x="196" y="-192" font-family="Helvetica,sans-Serif" font-size="10.00" fill="#000000"> matrix</text>
</g>
</g>
</svg>
