<?xml version="1.0" encoding="UTF-8" standalone="no"?>
<!DOCTYPE svg PUBLIC "-//W3C//DTD SVG 1.1//EN"
 "http://www.w3.org/Graphics/SVG/1.1/DTD/svg11.dtd">
<!-- Generated by graphviz version 2.43.0 (0)
 -->
<!-- Title: sll_t_spline_pp_3d Pages: 1 -->
<svg width="379pt" height="362pt"
 viewBox="0.00 0.00 378.50 362.00" xmlns="http://www.w3.org/2000/svg" xmlns:xlink="http://www.w3.org/1999/xlink">
<g id="graph0" class="graph" transform="scale(1 1) rotate(0) translate(4 358)">
<title>sll_t_spline_pp_3d</title>
<polygon fill="white" stroke="transparent" points="-4,4 -4,-358 374.5,-358 374.5,4 -4,4"/>
<!-- Node1 -->
<g id="node1" class="node">
<title>Node1</title>
<g id="a_node1"><a xlink:title="arbitrary degree 3d spline">
<polygon fill="#bfbfbf" stroke="black" points="195.5,-0.5 195.5,-19.5 301.5,-19.5 301.5,-0.5 195.5,-0.5"/>
<text text-anchor="middle" x="248.5" y="-7.5" font-family="Helvetica,sans-Serif" font-size="10.00">sll_t_spline_pp_3d</text>
</a>
</g>
</g>
<!-- Node2 -->
<g id="node2" class="node">
<title>Node2</title>
<g id="a_node2"><a xlink:href="structsll__m__splines__pp_1_1sll__t__spline__pp__1d.html" target="_top" xlink:title="arbitrary degree 1d spline">
<polygon fill="white" stroke="black" points="126.5,-101.5 126.5,-120.5 232.5,-120.5 232.5,-101.5 126.5,-101.5"/>
<text text-anchor="middle" x="179.5" y="-108.5" font-family="Helvetica,sans-Serif" font-size="10.00">sll_t_spline_pp_1d</text>
</a>
</g>
</g>
<!-- Node2&#45;&gt;Node1 -->
<g id="edge1" class="edge">
<title>Node2&#45;&gt;Node1</title>
<path fill="none" stroke="#9a32cd" stroke-dasharray="5,2" d="M191.5,-92.78C206.37,-71.44 231.14,-35.9 242.49,-19.62"/>
<polygon fill="#9a32cd" stroke="#9a32cd" points="188.47,-91.01 185.62,-101.21 194.21,-95.01 188.47,-91.01"/>
<text text-anchor="middle" x="248" y="-63" font-family="Helvetica,sans-Serif" font-size="10.00"> spline1</text>
<text text-anchor="middle" x="248" y="-52" font-family="Helvetica,sans-Serif" font-size="10.00">spline2</text>
<text text-anchor="middle" x="248" y="-41" font-family="Helvetica,sans-Serif" font-size="10.00">spline3</text>
</g>
<!-- Node3 -->
<g id="node3" class="node">
<title>Node3</title>
<g id="a_node3"><a xlink:title=" ">
<polygon fill="white" stroke="#bfbfbf" points="0,-334.5 0,-353.5 103,-353.5 103,-334.5 0,-334.5"/>
<text text-anchor="middle" x="51.5" y="-341.5" font-family="Helvetica,sans-Serif" font-size="10.00">integer(kind=i32)</text>
</a>
</g>
</g>
<!-- Node3&#45;&gt;Node2 -->
<g id="edge2" class="edge">
<title>Node3&#45;&gt;Node2</title>
<path fill="none" stroke="#9a32cd" stroke-dasharray="5,2" d="M44.73,-324.76C32.32,-287.85 10.56,-203.33 49.5,-151 67.15,-127.27 98.74,-117.44 126.36,-113.58"/>
<polygon fill="#9a32cd" stroke="#9a32cd" points="41.45,-325.96 48.07,-334.23 48.05,-323.63 41.45,-325.96"/>
<text text-anchor="middle" x="102" y="-247.5" font-family="Helvetica,sans-Serif" font-size="10.00"> boundary_conditions</text>
<text text-anchor="middle" x="102" y="-236.5" font-family="Helvetica,sans-Serif" font-size="10.00">degree</text>
<text text-anchor="middle" x="102" y="-225.5" font-family="Helvetica,sans-Serif" font-size="10.00">n_cells</text>
<text text-anchor="middle" x="102" y="-214.5" font-family="Helvetica,sans-Serif" font-size="10.00">n_coeffs</text>
</g>
<!-- Node4 -->
<g id="node4" class="node">
<title>Node4</title>
<g id="a_node4"><a xlink:title=" ">
<polygon fill="white" stroke="#bfbfbf" points="203.5,-334.5 203.5,-353.5 291.5,-353.5 291.5,-334.5 203.5,-334.5"/>
<text text-anchor="middle" x="247.5" y="-341.5" font-family="Helvetica,sans-Serif" font-size="10.00">real(kind=f64)</text>
</a>
</g>
</g>
<!-- Node4&#45;&gt;Node1 -->
<g id="edge4" class="edge">
<title>Node4&#45;&gt;Node1</title>
<path fill="none" stroke="#9a32cd" stroke-dasharray="5,2" d="M288.46,-329.57C294.04,-326.02 299.03,-321.57 302.5,-316 341.28,-253.76 312.29,-223.68 302.5,-151 295.55,-99.39 295.86,-84.03 271.5,-38 267.93,-31.25 262.42,-24.71 257.69,-19.75"/>
<polygon fill="#9a32cd" stroke="#9a32cd" points="286.52,-326.64 279.35,-334.44 289.82,-332.82 286.52,-326.64"/>
<text text-anchor="middle" x="335.5" y="-125" font-family="Helvetica,sans-Serif" font-size="10.00"> scratch_b</text>
<text text-anchor="middle" x="335.5" y="-114" font-family="Helvetica,sans-Serif" font-size="10.00">scratch_coeffs</text>
<text text-anchor="middle" x="335.5" y="-103" font-family="Helvetica,sans-Serif" font-size="10.00">scratch_p</text>
<text text-anchor="middle" x="335.5" y="-92" font-family="Helvetica,sans-Serif" font-size="10.00">scratch_pp</text>
</g>
<!-- Node4&#45;&gt;Node2 -->
<g id="edge3" class="edge">
<title>Node4&#45;&gt;Node2</title>
<path fill="none" stroke="#9a32cd" stroke-dasharray="5,2" d="M195.86,-329.91C189.82,-326.33 184.43,-321.79 180.5,-316 137.54,-252.7 166.36,-150.99 176.42,-120.75"/>
<polygon fill="#9a32cd" stroke="#9a32cd" points="194.56,-333.17 205.07,-334.47 197.67,-326.89 194.56,-333.17"/>
<text text-anchor="middle" x="241.5" y="-308" font-family="Helvetica,sans-Serif" font-size="10.00"> poly_coeffs</text>
<text text-anchor="start" x="180.5" y="-297" font-family="Helvetica,sans-Serif" font-size="10.00">poly_coeffs_boundary</text>
<text text-anchor="middle" x="241.5" y="-286" font-family="Helvetica,sans-Serif" font-size="10.00">_left</text>
<text text-anchor="start" x="180.5" y="-275" font-family="Helvetica,sans-Serif" font-size="10.00">poly_coeffs_boundary</text>
<text text-anchor="middle" x="241.5" y="-264" font-family="Helvetica,sans-Serif" font-size="10.00">_right</text>
<text text-anchor="middle" x="241.5" y="-253" font-family="Helvetica,sans-Serif" font-size="10.00">poly_coeffs_fd</text>
<text text-anchor="start" x="180.5" y="-242" font-family="Helvetica,sans-Serif" font-size="10.00">poly_coeffs_fd_boundary</text>
<text text-anchor="middle" x="241.5" y="-231" font-family="Helvetica,sans-Serif" font-size="10.00">_left</text>
<text text-anchor="start" x="180.5" y="-220" font-family="Helvetica,sans-Serif" font-size="10.00">poly_coeffs_fd_boundary</text>
<text text-anchor="middle" x="241.5" y="-209" font-family="Helvetica,sans-Serif" font-size="10.00">_right</text>
<text text-anchor="middle" x="241.5" y="-198" font-family="Helvetica,sans-Serif" font-size="10.00">poly_coeffs_fp</text>
<text text-anchor="middle" x="241.5" y="-187" font-family="Helvetica,sans-Serif" font-size="10.00">poly_coeffs_fpa</text>
<text text-anchor="middle" x="241.5" y="-176" font-family="Helvetica,sans-Serif" font-size="10.00">scratch_b</text>
<text text-anchor="middle" x="241.5" y="-165" font-family="Helvetica,sans-Serif" font-size="10.00">scratch_p</text>
<text text-anchor="middle" x="241.5" y="-154" font-family="Helvetica,sans-Serif" font-size="10.00">...</text>
</g>
</g>
</svg>
