<?xml version="1.0" encoding="UTF-8" standalone="no"?>
<!DOCTYPE svg PUBLIC "-//W3C//DTD SVG 1.1//EN"
 "http://www.w3.org/Graphics/SVG/1.1/DTD/svg11.dtd">
<!-- Generated by graphviz version 2.40.1 (20161225.0304)
 -->
<!-- Title: sll_t_maxwell_3d_pstd Pages: 1 -->
<svg width="375pt" height="296pt"
 viewBox="0.00 0.00 374.50 296.00" xmlns="http://www.w3.org/2000/svg" xmlns:xlink="http://www.w3.org/1999/xlink">
<g id="graph0" class="graph" transform="scale(1 1) rotate(0) translate(4 292)">
<title>sll_t_maxwell_3d_pstd</title>
<polygon fill="#ffffff" stroke="transparent" points="-4,4 -4,-292 370.5,-292 370.5,4 -4,4"/>
<!-- Node1 -->
<g id="node1" class="node">
<title>Node1</title>
<polygon fill="#bfbfbf" stroke="#000000" points="135.5,-.5 135.5,-19.5 263.5,-19.5 263.5,-.5 135.5,-.5"/>
<text text-anchor="middle" x="199.5" y="-7.5" font-family="Helvetica,sans-Serif" font-size="10.00" fill="#000000">sll_t_maxwell_3d_pstd</text>
</g>
<!-- Node2 -->
<g id="node2" class="node">
<title>Node2</title>
<g id="a_node2"><a xlink:href="structsll__m__fft_1_1sll__t__fft.html" target="_top" xlink:title="Type for FFT plan in SeLaLib. ">
<polygon fill="#ffffff" stroke="#000000" points="79,-156.5 79,-175.5 132,-175.5 132,-156.5 79,-156.5"/>
<text text-anchor="middle" x="105.5" y="-163.5" font-family="Helvetica,sans-Serif" font-size="10.00" fill="#000000">sll_t_fft</text>
</a>
</g>
</g>
<!-- Node2&#45;&gt;Node1 -->
<g id="edge1" class="edge">
<title>Node2&#45;&gt;Node1</title>
<path fill="none" stroke="#9a32cd" stroke-dasharray="5,2" d="M110.9481,-146.8849C119.1667,-120.4133 136.6838,-72.0152 163.5,-38 169.0883,-30.9115 176.8384,-24.5837 183.7168,-19.7448"/>
<polygon fill="#9a32cd" stroke="#9a32cd" points="107.5897,-145.8994 108.0806,-156.4828 114.2968,-147.9032 107.5897,-145.8994"/>
<text text-anchor="middle" x="174.5" y="-107" font-family="Helvetica,sans-Serif" font-size="10.00" fill="#000000"> fwx</text>
<text text-anchor="middle" x="174.5" y="-96" font-family="Helvetica,sans-Serif" font-size="10.00" fill="#000000">fwy</text>
<text text-anchor="middle" x="174.5" y="-85" font-family="Helvetica,sans-Serif" font-size="10.00" fill="#000000">fwz</text>
<text text-anchor="middle" x="174.5" y="-74" font-family="Helvetica,sans-Serif" font-size="10.00" fill="#000000">bwx</text>
<text text-anchor="middle" x="174.5" y="-63" font-family="Helvetica,sans-Serif" font-size="10.00" fill="#000000">bwy</text>
<text text-anchor="middle" x="174.5" y="-52" font-family="Helvetica,sans-Serif" font-size="10.00" fill="#000000">bwz</text>
</g>
<!-- Node3 -->
<g id="node3" class="node">
<title>Node3</title>
<polygon fill="#ffffff" stroke="#bfbfbf" points="0,-268.5 0,-287.5 49,-287.5 49,-268.5 0,-268.5"/>
<text text-anchor="middle" x="24.5" y="-275.5" font-family="Helvetica,sans-Serif" font-size="10.00" fill="#000000">logical</text>
</g>
<!-- Node3&#45;&gt;Node2 -->
<g id="edge2" class="edge">
<title>Node3&#45;&gt;Node2</title>
<path fill="none" stroke="#9a32cd" stroke-dasharray="5,2" d="M23.4104,-258.115C23.5349,-242.6257 25.9398,-221.2619 36.5,-206 46.6635,-191.3114 64.1047,-181.2693 78.9083,-174.9206"/>
<polygon fill="#9a32cd" stroke="#9a32cd" points="19.9128,-258.266 23.6387,-268.184 26.911,-258.1072 19.9128,-258.266"/>
<text text-anchor="middle" x="65.5" y="-225.5" font-family="Helvetica,sans-Serif" font-size="10.00" fill="#000000"> normalized</text>
</g>
<!-- Node4 -->
<g id="node4" class="node">
<title>Node4</title>
<polygon fill="#ffffff" stroke="#bfbfbf" points="107,-268.5 107,-287.5 210,-287.5 210,-268.5 107,-268.5"/>
<text text-anchor="middle" x="158.5" y="-275.5" font-family="Helvetica,sans-Serif" font-size="10.00" fill="#000000">integer(kind=i32)</text>
</g>
<!-- Node4&#45;&gt;Node1 -->
<g id="edge4" class="edge">
<title>Node4&#45;&gt;Node1</title>
<path fill="none" stroke="#9a32cd" stroke-dasharray="5,2" d="M178.1881,-261.2527C181.112,-257.8341 183.7325,-254.0363 185.5,-250 221.6625,-167.4177 206.7676,-53.3337 201.23,-19.6986"/>
<polygon fill="#9a32cd" stroke="#9a32cd" points="175.5978,-258.8948 171.0736,-268.4751 180.5847,-263.8071 175.5978,-258.8948"/>
<text text-anchor="middle" x="239" y="-180" font-family="Helvetica,sans-Serif" font-size="10.00" fill="#000000"> polarization</text>
<text text-anchor="middle" x="239" y="-169" font-family="Helvetica,sans-Serif" font-size="10.00" fill="#000000">nc_x</text>
<text text-anchor="middle" x="239" y="-158" font-family="Helvetica,sans-Serif" font-size="10.00" fill="#000000">nc_y</text>
<text text-anchor="middle" x="239" y="-147" font-family="Helvetica,sans-Serif" font-size="10.00" fill="#000000">nc_z</text>
</g>
<!-- Node4&#45;&gt;Node2 -->
<g id="edge3" class="edge">
<title>Node4&#45;&gt;Node2</title>
<path fill="none" stroke="#9a32cd" stroke-dasharray="5,2" d="M119.389,-263.1868C114.2683,-259.6282 109.6977,-255.2819 106.5,-250 92.3002,-226.5448 98.4171,-192.2377 102.6685,-175.6669"/>
<polygon fill="#9a32cd" stroke="#9a32cd" points="117.9838,-266.4202 128.3808,-268.4582 121.524,-260.3813 117.9838,-266.4202"/>
<text text-anchor="middle" x="146" y="-242" font-family="Helvetica,sans-Serif" font-size="10.00" fill="#000000"> problem_shape</text>
<text text-anchor="middle" x="146" y="-231" font-family="Helvetica,sans-Serif" font-size="10.00" fill="#000000">direction</text>
<text text-anchor="middle" x="146" y="-220" font-family="Helvetica,sans-Serif" font-size="10.00" fill="#000000">problem_rank</text>
<text text-anchor="middle" x="146" y="-209" font-family="Helvetica,sans-Serif" font-size="10.00" fill="#000000">transform_type</text>
</g>
<!-- Node5 -->
<g id="node5" class="node">
<title>Node5</title>
<polygon fill="#ffffff" stroke="#bfbfbf" points="278.5,-156.5 278.5,-175.5 366.5,-175.5 366.5,-156.5 278.5,-156.5"/>
<text text-anchor="middle" x="322.5" y="-163.5" font-family="Helvetica,sans-Serif" font-size="10.00" fill="#000000">real(kind=f64)</text>
</g>
<!-- Node5&#45;&gt;Node1 -->
<g id="edge5" class="edge">
<title>Node5&#45;&gt;Node1</title>
<path fill="none" stroke="#9a32cd" stroke-dasharray="5,2" d="M308.5807,-148.3462C282.5868,-115.3784 227.4651,-45.4679 207.1913,-19.7548"/>
<polygon fill="#9a32cd" stroke="#9a32cd" points="305.8658,-150.5558 314.8058,-156.2415 311.3627,-146.2217 305.8658,-150.5558"/>
<text text-anchor="middle" x="303.5" y="-118" font-family="Helvetica,sans-Serif" font-size="10.00" fill="#000000"> d_dz</text>
<text text-anchor="middle" x="303.5" y="-107" font-family="Helvetica,sans-Serif" font-size="10.00" fill="#000000">e_0</text>
<text text-anchor="middle" x="303.5" y="-96" font-family="Helvetica,sans-Serif" font-size="10.00" fill="#000000">mu_0</text>
<text text-anchor="middle" x="303.5" y="-85" font-family="Helvetica,sans-Serif" font-size="10.00" fill="#000000">kx</text>
<text text-anchor="middle" x="303.5" y="-74" font-family="Helvetica,sans-Serif" font-size="10.00" fill="#000000">ky</text>
<text text-anchor="middle" x="303.5" y="-63" font-family="Helvetica,sans-Serif" font-size="10.00" fill="#000000">kz</text>
<text text-anchor="middle" x="303.5" y="-52" font-family="Helvetica,sans-Serif" font-size="10.00" fill="#000000">d_dx</text>
<text text-anchor="middle" x="303.5" y="-41" font-family="Helvetica,sans-Serif" font-size="10.00" fill="#000000">d_dy</text>
</g>
</g>
</svg>
