<?xml version="1.0" encoding="UTF-8" standalone="no"?>
<!DOCTYPE svg PUBLIC "-//W3C//DTD SVG 1.1//EN"
 "http://www.w3.org/Graphics/SVG/1.1/DTD/svg11.dtd">
<!-- Generated by graphviz version 2.43.0 (0)
 -->
<!-- Title: sll_t_advector_1d_ampere Pages: 1 -->
<!--zoomable 259 -->
<svg id="main" version="1.1" xmlns="http://www.w3.org/2000/svg" xmlns:xlink="http://www.w3.org/1999/xlink" xml:space="preserve" onload="init(evt)">
<style type="text/css"><![CDATA[
.edge:hover path { stroke: red; }
.edge:hover polygon { stroke: red; fill: red; }
]]></style>
<script type="text/javascript"><![CDATA[
var edges = document.getElementsByTagName('g');
if (edges && edges.length) {
  for (var i=0;i<edges.length;i++) {
    if (edges[i].id.substr(0,4)=='edge') {
      edges[i].setAttribute('class','edge');
    }
  }
}
]]></script>
        <defs>
                <circle id="rim" cx="0" cy="0" r="7"/>
                <circle id="rim2" cx="0" cy="0" r="3.5"/>
                <g id="zoomPlus">
                        <use xlink:href="#rim" fill="#404040">
                                <set attributeName="fill" to="#808080" begin="zoomplus.mouseover" end="zoomplus.mouseout"/>
                        </use>
                        <path d="M-4,0h8M0,-4v8" fill="none" stroke="white" stroke-width="1.5" pointer-events="none"/>
                </g>
                <g id="zoomMin">
                        <use xlink:href="#rim" fill="#404040">
                                <set attributeName="fill" to="#808080" begin="zoomminus.mouseover" end="zoomminus.mouseout"/>
                        </use>
                        <path d="M-4,0h8" fill="none" stroke="white" stroke-width="1.5" pointer-events="none"/>
                </g>
                <g id="dirArrow">
                        <path fill="none" stroke="white" stroke-width="1.5" d="M0,-3.0v7 M-2.5,-0.5L0,-3.0L2.5,-0.5"/>
                </g>
               <g id="resetDef">
                       <use xlink:href="#rim2" fill="#404040">
                               <set attributeName="fill" to="#808080" begin="reset.mouseover" end="reset.mouseout"/>
                       </use>
               </g>
        </defs>

<script type="text/javascript">
var viewWidth = 619;
var viewHeight = 259;
var sectionId = 'dynsection-1';
</script>
<script xlink:href="svgpan.js"/>
<svg id="graph" class="graph">
<g id="viewport">
<title>sll_t_advector_1d_ampere</title>
<polygon fill="white" stroke="transparent" points="-4,4 -4,-254.6 615,-254.6 615,4 -4,4"/>
<!-- Node1 -->
<g id="node1" class="node">
<title>Node1</title>
<g id="a_node1"><a xlink:title=" ">
<polygon fill="#bfbfbf" stroke="black" points="466,-109.1 466,-128.1 611,-128.1 611,-109.1 466,-109.1"/>
<text text-anchor="middle" x="538.5" y="-116.1" font-family="Helvetica,sans-Serif" font-size="10.00">sll_t_advector_1d_ampere</text>
</a>
</g>
</g>
<!-- Node2 -->
<g id="node2" class="node">
<title>Node2</title>
<g id="a_node2"><a xlink:href="structsll__m__advection__1d__base_1_1sll__c__advector__1d.html" target="_top" xlink:title=" ">
<polygon fill="white" stroke="black" points="265,-213.1 265,-232.1 369,-232.1 369,-213.1 265,-213.1"/>
<text text-anchor="middle" x="317" y="-220.1" font-family="Helvetica,sans-Serif" font-size="10.00">sll_c_advector_1d</text>
</a>
</g>
</g>
<!-- Node2&#45;&gt;Node1 -->
<g id="edge1" class="edge">
<title>Node2&#45;&gt;Node1</title>
<path fill="none" stroke="midnightblue" d="M379.21,-218.26C401.7,-214.9 426.83,-208.99 448,-198.6 483.55,-181.16 515.63,-145.54 529.81,-128.33"/>
<polygon fill="midnightblue" stroke="midnightblue" points="378.53,-214.82 369.09,-219.63 379.47,-221.76 378.53,-214.82"/>
</g>
<!-- Node3 -->
<g id="node3" class="node">
<title>Node3</title>
<g id="a_node3"><a xlink:title=" ">
<polygon fill="white" stroke="#bfbfbf" points="256,-148.6 256,-178.6 378,-178.6 378,-148.6 256,-148.6"/>
<text text-anchor="start" x="264" y="-166.6" font-family="Helvetica,sans-Serif" font-size="10.00">complex(kind=f64),</text>
<text text-anchor="middle" x="317" y="-155.6" font-family="Helvetica,sans-Serif" font-size="10.00"> dimension(:), pointer</text>
</a>
</g>
</g>
<!-- Node3&#45;&gt;Node1 -->
<g id="edge2" class="edge">
<title>Node3&#45;&gt;Node1</title>
<path fill="none" stroke="#9a32cd" stroke-dasharray="5,2" d="M388.08,-152.85C407.54,-149.56 428.65,-145.72 448,-141.6 466.36,-137.69 486.63,-132.55 503.23,-128.12"/>
<polygon fill="#9a32cd" stroke="#9a32cd" points="387.35,-149.42 378.07,-154.51 388.5,-156.33 387.35,-149.42"/>
<text text-anchor="middle" x="422" y="-186.6" font-family="Helvetica,sans-Serif" font-size="10.00"> ek</text>
<text text-anchor="middle" x="422" y="-175.6" font-family="Helvetica,sans-Serif" font-size="10.00">fk</text>
<text text-anchor="middle" x="422" y="-164.6" font-family="Helvetica,sans-Serif" font-size="10.00">r0</text>
<text text-anchor="middle" x="422" y="-153.6" font-family="Helvetica,sans-Serif" font-size="10.00">r1</text>
</g>
<!-- Node4 -->
<g id="node4" class="node">
<title>Node4</title>
<g id="a_node4"><a xlink:href="structsll__m__fft_1_1sll__t__fft.html" target="_top" xlink:title="Type for FFT plan in SeLaLib.">
<polygon fill="white" stroke="black" points="290.5,-110.1 290.5,-129.1 343.5,-129.1 343.5,-110.1 290.5,-110.1"/>
<text text-anchor="middle" x="317" y="-117.1" font-family="Helvetica,sans-Serif" font-size="10.00">sll_t_fft</text>
</a>
</g>
</g>
<!-- Node4&#45;&gt;Node1 -->
<g id="edge3" class="edge">
<title>Node4&#45;&gt;Node1</title>
<path fill="none" stroke="#9a32cd" stroke-dasharray="5,2" d="M353.67,-119.44C383.88,-119.3 428.12,-119.1 465.63,-118.93"/>
<polygon fill="#9a32cd" stroke="#9a32cd" points="353.59,-115.94 343.61,-119.48 353.62,-122.94 353.59,-115.94"/>
<text text-anchor="middle" x="422" y="-133.6" font-family="Helvetica,sans-Serif" font-size="10.00"> bwx</text>
<text text-anchor="middle" x="422" y="-122.6" font-family="Helvetica,sans-Serif" font-size="10.00">fwx</text>
</g>
<!-- Node5 -->
<g id="node5" class="node">
<title>Node5</title>
<g id="a_node5"><a xlink:title=" ">
<polygon fill="white" stroke="#bfbfbf" points="47.5,-171.1 47.5,-190.1 96.5,-190.1 96.5,-171.1 47.5,-171.1"/>
<text text-anchor="middle" x="72" y="-178.1" font-family="Helvetica,sans-Serif" font-size="10.00">logical</text>
</a>
</g>
</g>
<!-- Node5&#45;&gt;Node4 -->
<g id="edge4" class="edge">
<title>Node5&#45;&gt;Node4</title>
<path fill="none" stroke="#9a32cd" stroke-dasharray="5,2" d="M106.69,-182.5C141.47,-183.05 196.37,-179.88 238,-158.6 248.36,-153.31 246.19,-145.85 256,-139.6 266.37,-132.99 279.15,-128.34 290.25,-125.19"/>
<polygon fill="#9a32cd" stroke="#9a32cd" points="106.67,-179 96.58,-182.23 106.48,-186 106.67,-179"/>
<text text-anchor="middle" x="200" y="-181.6" font-family="Helvetica,sans-Serif" font-size="10.00"> normalized</text>
</g>
<!-- Node6 -->
<g id="node6" class="node">
<title>Node6</title>
<g id="a_node6"><a xlink:title=" ">
<polygon fill="white" stroke="#bfbfbf" points="20.5,-88.1 20.5,-107.1 123.5,-107.1 123.5,-88.1 20.5,-88.1"/>
<text text-anchor="middle" x="72" y="-95.1" font-family="Helvetica,sans-Serif" font-size="10.00">integer(kind=i32)</text>
</a>
</g>
</g>
<!-- Node6&#45;&gt;Node1 -->
<g id="edge7" class="edge">
<title>Node6&#45;&gt;Node1</title>
<path fill="none" stroke="#9a32cd" stroke-dasharray="5,2" d="M133.9,-91.86C195.56,-87.02 293.59,-81.99 378,-89.6 418.65,-93.26 464.42,-102.08 496.47,-109.04"/>
<polygon fill="#9a32cd" stroke="#9a32cd" points="133.26,-88.4 123.57,-92.69 133.82,-95.37 133.26,-88.4"/>
<text text-anchor="middle" x="317" y="-92.6" font-family="Helvetica,sans-Serif" font-size="10.00"> nc_eta1</text>
</g>
<!-- Node6&#45;&gt;Node4 -->
<g id="edge5" class="edge">
<title>Node6&#45;&gt;Node4</title>
<path fill="none" stroke="#9a32cd" stroke-dasharray="5,2" d="M133.79,-103.1C184.25,-107.67 253.51,-113.94 290.42,-117.28"/>
<polygon fill="#9a32cd" stroke="#9a32cd" points="133.92,-99.6 123.64,-102.19 133.29,-106.57 133.92,-99.6"/>
<text text-anchor="middle" x="200" y="-148.6" font-family="Helvetica,sans-Serif" font-size="10.00"> direction</text>
<text text-anchor="middle" x="200" y="-137.6" font-family="Helvetica,sans-Serif" font-size="10.00">problem_rank</text>
<text text-anchor="middle" x="200" y="-126.6" font-family="Helvetica,sans-Serif" font-size="10.00">problem_shape</text>
<text text-anchor="middle" x="200" y="-115.6" font-family="Helvetica,sans-Serif" font-size="10.00">transform_type</text>
</g>
<!-- Node7 -->
<g id="node7" class="node">
<title>Node7</title>
<g id="a_node7"><a xlink:title=" ">
<polygon fill="white" stroke="#bfbfbf" points="0,-209.1 0,-250.1 144,-250.1 144,-209.1 0,-209.1"/>
<text text-anchor="start" x="8" y="-238.1" font-family="Helvetica,sans-Serif" font-size="10.00">complex(kind=f64),</text>
<text text-anchor="start" x="8" y="-227.1" font-family="Helvetica,sans-Serif" font-size="10.00"> dimension(:), allocatable,</text>
<text text-anchor="middle" x="72" y="-216.1" font-family="Helvetica,sans-Serif" font-size="10.00"> private</text>
</a>
</g>
</g>
<!-- Node7&#45;&gt;Node4 -->
<g id="edge6" class="edge">
<title>Node7&#45;&gt;Node4</title>
<path fill="none" stroke="#9a32cd" stroke-dasharray="5,2" d="M154.64,-228.12C183.97,-223.7 215.37,-213.93 238,-193.6 256.82,-176.69 238.11,-157.49 256,-139.6 265.16,-130.44 278.63,-125.47 290.48,-122.78"/>
<polygon fill="#9a32cd" stroke="#9a32cd" points="153.83,-224.7 144.37,-229.47 154.74,-231.64 153.83,-224.7"/>
<text text-anchor="middle" x="200" y="-228.6" font-family="Helvetica,sans-Serif" font-size="10.00"> scratch</text>
</g>
<!-- Node8 -->
<g id="node8" class="node">
<title>Node8</title>
<g id="a_node8"><a xlink:title=" ">
<polygon fill="white" stroke="#bfbfbf" points="273,-1.1 273,-20.1 361,-20.1 361,-1.1 273,-1.1"/>
<text text-anchor="middle" x="317" y="-8.1" font-family="Helvetica,sans-Serif" font-size="10.00">real(kind=f64)</text>
</a>
</g>
</g>
<!-- Node8&#45;&gt;Node1 -->
<g id="edge8" class="edge">
<title>Node8&#45;&gt;Node1</title>
<path fill="none" stroke="#9a32cd" stroke-dasharray="5,2" d="M371.47,-1.1C395.88,0.81 424.51,-0.52 448,-11.6 492.02,-32.38 522.09,-86.49 532.98,-108.78"/>
<polygon fill="#9a32cd" stroke="#9a32cd" points="370.9,2.36 361.29,-2.09 371.58,-4.6 370.9,2.36"/>
<text text-anchor="middle" x="422" y="-58.6" font-family="Helvetica,sans-Serif" font-size="10.00"> d_dx</text>
<text text-anchor="middle" x="422" y="-47.6" font-family="Helvetica,sans-Serif" font-size="10.00">delta_eta1</text>
<text text-anchor="middle" x="422" y="-36.6" font-family="Helvetica,sans-Serif" font-size="10.00">eta1_max</text>
<text text-anchor="middle" x="422" y="-25.6" font-family="Helvetica,sans-Serif" font-size="10.00">eta1_min</text>
<text text-anchor="middle" x="422" y="-14.6" font-family="Helvetica,sans-Serif" font-size="10.00">kx</text>
</g>
</g>
</svg>
        <g id="navigator" transform="translate(0 0)" fill="#404254">
                <rect fill="#f2f5e9" fill-opacity="0.5" stroke="#606060" stroke-width=".5" x="0" y="0" width="60" height="60"/>
                <use id="zoomplus" xlink:href="#zoomPlus" x="17" y="9" onmousedown="handleZoom(evt,'in')"/>
                <use id="zoomminus" xlink:href="#zoomMin" x="42" y="9" onmousedown="handleZoom(evt,'out')"/>
                <use id="reset" xlink:href="#resetDef" x="30" y="36" onmousedown="handleReset()"/>
                <g id="arrowUp" xlink:href="#dirArrow" transform="translate(30 24)" onmousedown="handlePan(0,-1)">
                  <use xlink:href="#rim" fill="#404040">
                        <set attributeName="fill" to="#808080" begin="arrowUp.mouseover" end="arrowUp.mouseout"/>
                  </use>
                  <path fill="none" stroke="white" stroke-width="1.5" d="M0,-3.0v7 M-2.5,-0.5L0,-3.0L2.5,-0.5"/>
                </g>
                <g id="arrowRight" xlink:href="#dirArrow" transform="rotate(90) translate(36 -43)" onmousedown="handlePan(1,0)">
                  <use xlink:href="#rim" fill="#404040">
                        <set attributeName="fill" to="#808080" begin="arrowRight.mouseover" end="arrowRight.mouseout"/>
                  </use>
                  <path fill="none" stroke="white" stroke-width="1.5" d="M0,-3.0v7 M-2.5,-0.5L0,-3.0L2.5,-0.5"/>
                </g>
                <g id="arrowDown" xlink:href="#dirArrow" transform="rotate(180) translate(-30 -48)" onmousedown="handlePan(0,1)">
                  <use xlink:href="#rim" fill="#404040">
                        <set attributeName="fill" to="#808080" begin="arrowDown.mouseover" end="arrowDown.mouseout"/>
                  </use>
                  <path fill="none" stroke="white" stroke-width="1.5" d="M0,-3.0v7 M-2.5,-0.5L0,-3.0L2.5,-0.5"/>
                </g>
                <g id="arrowLeft" xlink:href="#dirArrow" transform="rotate(270) translate(-36 17)" onmousedown="handlePan(-1,0)">
                  <use xlink:href="#rim" fill="#404040">
                        <set attributeName="fill" to="#808080" begin="arrowLeft.mouseover" end="arrowLeft.mouseout"/>
                  </use>
                  <path fill="none" stroke="white" stroke-width="1.5" d="M0,-3.0v7 M-2.5,-0.5L0,-3.0L2.5,-0.5"/>
                </g>
        </g>
        <svg viewBox="0 0 15 15" width="100%" height="30px" preserveAspectRatio="xMaxYMin meet">
         <g id="arrow_out" transform="scale(0.3 0.3)">
          <a xlink:href="structsll__m__advection__1d__ampere_1_1sll__t__advector__1d__ampere__coll__graph_org.svg" target="_base">
           <rect id="button" ry="5" rx="5" y="6" x="6" height="38" width="38"
                fill="#f2f5e9" fill-opacity="0.5" stroke="#606060" stroke-width="1.0"/>
           <path id="arrow"
             d="M 11.500037,31.436501 C 11.940474,20.09759 22.043105,11.32322 32.158766,21.979434 L 37.068811,17.246167 C 37.068811,17.246167 37.088388,32 37.088388,32 L 22.160133,31.978069 C 22.160133,31.978069 26.997745,27.140456 26.997745,27.140456 C 18.528582,18.264221 13.291696,25.230495 11.500037,31.436501 z"
             style="fill:#404040;"/>
          </a>
         </g>
        </svg>
</svg>
