<?xml version="1.0" encoding="UTF-8" standalone="no"?>
<!DOCTYPE svg PUBLIC "-//W3C//DTD SVG 1.1//EN"
 "http://www.w3.org/Graphics/SVG/1.1/DTD/svg11.dtd">
<!-- Generated by graphviz version 2.38.0 (20140413.2041)
 -->
<!-- Title: sll_t_particle_group_2d2v_lbf Pages: 1 -->
<svg width="1521pt" height="819pt"
 viewBox="0.00 0.00 1521.00 818.50" xmlns="http://www.w3.org/2000/svg" xmlns:xlink="http://www.w3.org/1999/xlink">
<g id="graph0" class="graph" transform="scale(1 1) rotate(0) translate(4 814.5)">
<title>sll_t_particle_group_2d2v_lbf</title>
<polygon fill="white" stroke="none" points="-4,4 -4,-814.5 1517,-814.5 1517,4 -4,4"/>
<!-- Node1 -->
<g id="node1" class="node"><title>Node1</title>
<polygon fill="#bfbfbf" stroke="black" points="1412,-549 1412,-579 1513,-579 1513,-549 1412,-549"/>
<text text-anchor="start" x="1420" y="-567" font-family="Helvetica,sans-Serif" font-size="10.00">sll_t_particle_group</text>
<text text-anchor="middle" x="1462.5" y="-556" font-family="Helvetica,sans-Serif" font-size="10.00">_2d2v_lbf</text>
</g>
<!-- Node2 -->
<g id="node2" class="node"><title>Node2</title>
<g id="a_node2"><a xlink:href="structsll__m__particle__group__base_1_1sll__c__particle__group__base.html" target="_top" xlink:title="sll_c_particle_group_base">
<polygon fill="white" stroke="black" points="214,-785.5 214,-804.5 343,-804.5 343,-785.5 214,-785.5"/>
<text text-anchor="middle" x="278.5" y="-792.5" font-family="Helvetica,sans-Serif" font-size="10.00">sll_c_particle_group_base</text>
</a>
</g>
</g>
<!-- Node2&#45;&gt;Node1 -->
<g id="edge1" class="edge"><title>Node2&#45;&gt;Node1</title>
<path fill="none" stroke="midnightblue" d="M353.327,-795.458C401.953,-795.721 467.019,-796 524.5,-796 524.5,-796 524.5,-796 1217,-796 1305.45,-796 1332.35,-768.429 1394,-705 1430.32,-667.635 1450.13,-607.005 1457.76,-579.025"/>
<polygon fill="midnightblue" stroke="midnightblue" points="353.229,-791.958 343.209,-795.402 353.19,-798.958 353.229,-791.958"/>
</g>
<!-- Node3 -->
<g id="node3" class="node"><title>Node3</title>
<polygon fill="white" stroke="#bfbfbf" points="7,-405.5 7,-424.5 96,-424.5 96,-405.5 7,-405.5"/>
<text text-anchor="middle" x="51.5" y="-412.5" font-family="Helvetica,sans-Serif" font-size="10.00">integer(kind=i32)</text>
</g>
<!-- Node3&#45;&gt;Node1 -->
<g id="edge8" class="edge"><title>Node3&#45;&gt;Node1</title>
<path fill="none" stroke="#9a32cd" stroke-dasharray="5,2" d="M60.9966,-434.108C73.1095,-460.751 96.5916,-510.261 121,-550 157.616,-609.613 155.399,-638.785 214,-677 238.208,-692.786 248.6,-691 277.5,-691 277.5,-691 277.5,-691 1217,-691 1313.14,-691 1409.04,-612.708 1445.81,-579.067"/>
<polygon fill="#9a32cd" stroke="#9a32cd" points="64.0951,-432.465 56.7983,-424.783 57.7122,-435.339 64.0951,-432.465"/>
<text text-anchor="middle" x="747.5" y="-760" font-family="Helvetica,sans-Serif" font-size="10.00"> n_particles_vy</text>
<text text-anchor="middle" x="747.5" y="-749" font-family="Helvetica,sans-Serif" font-size="10.00">sparse_grid_max_levels</text>
<text text-anchor="middle" x="747.5" y="-738" font-family="Helvetica,sans-Serif" font-size="10.00">n_particles_x</text>
<text text-anchor="middle" x="747.5" y="-727" font-family="Helvetica,sans-Serif" font-size="10.00">n_particles_y</text>
<text text-anchor="start" x="693" y="-716" font-family="Helvetica,sans-Serif" font-size="10.00">remapped_f_interpolation</text>
<text text-anchor="middle" x="747.5" y="-705" font-family="Helvetica,sans-Serif" font-size="10.00">_degree</text>
<text text-anchor="middle" x="747.5" y="-694" font-family="Helvetica,sans-Serif" font-size="10.00">n_particles_vx</text>
</g>
<!-- Node3&#45;&gt;Node2 -->
<g id="edge2" class="edge"><title>Node3&#45;&gt;Node2</title>
<path fill="none" stroke="#9a32cd" stroke-dasharray="5,2" d="M52.0417,-434.734C51.8708,-484.895 57.7392,-619.295 121,-704 143.992,-734.785 162.779,-727.695 196,-747 218.716,-760.201 244.873,-775.651 261.296,-785.382"/>
<polygon fill="#9a32cd" stroke="#9a32cd" points="55.5429,-434.652 52.1674,-424.609 48.5435,-434.565 55.5429,-434.652"/>
<text text-anchor="middle" x="158.5" y="-783" font-family="Helvetica,sans-Serif" font-size="10.00"> n_total_particles</text>
<text text-anchor="middle" x="158.5" y="-772" font-family="Helvetica,sans-Serif" font-size="10.00">n_weights</text>
<text text-anchor="middle" x="158.5" y="-761" font-family="Helvetica,sans-Serif" font-size="10.00">n_particles</text>
<text text-anchor="middle" x="158.5" y="-750" font-family="Helvetica,sans-Serif" font-size="10.00">id</text>
</g>
<!-- Node6 -->
<g id="node6" class="node"><title>Node6</title>
<g id="a_node6"><a xlink:href="structsll__m__cartesian__meshes_1_1sll__t__cartesian__mesh__4d.html" target="_top" xlink:title="4D cartesian mesh ">
<polygon fill="white" stroke="black" points="463,-573.5 463,-592.5 588,-592.5 588,-573.5 463,-573.5"/>
<text text-anchor="middle" x="525.5" y="-580.5" font-family="Helvetica,sans-Serif" font-size="10.00">sll_t_cartesian_mesh_4d</text>
</a>
</g>
</g>
<!-- Node3&#45;&gt;Node6 -->
<g id="edge6" class="edge"><title>Node3&#45;&gt;Node6</title>
<path fill="none" stroke="#9a32cd" stroke-dasharray="5,2" d="M62.2152,-433.325C73.9605,-454.156 95.3742,-488.216 121,-511 205.137,-585.807 253.884,-564.199 343,-633 352.207,-640.109 350.314,-647.404 361,-652 394.479,-666.4 408.781,-664.54 443,-652 475.551,-640.071 504.034,-608.752 517.024,-592.736"/>
<polygon fill="#9a32cd" stroke="#9a32cd" points="65.2631,-431.604 57.3841,-424.521 59.1263,-434.972 65.2631,-431.604"/>
<text text-anchor="middle" x="278.5" y="-669" font-family="Helvetica,sans-Serif" font-size="10.00"> num_cells1</text>
<text text-anchor="middle" x="278.5" y="-658" font-family="Helvetica,sans-Serif" font-size="10.00">num_cells2</text>
<text text-anchor="middle" x="278.5" y="-647" font-family="Helvetica,sans-Serif" font-size="10.00">num_cells3</text>
<text text-anchor="middle" x="278.5" y="-636" font-family="Helvetica,sans-Serif" font-size="10.00">num_cells4</text>
</g>
<!-- Node8 -->
<g id="node8" class="node"><title>Node8</title>
<g id="a_node8"><a xlink:href="structsll__m__sparse__grid__4d_1_1sll__t__sparse__grid__4d.html" target="_top" xlink:title="Sparse grid object for 4d with interpolation routines. Note in 4d we have only an implementation of a...">
<polygon fill="white" stroke="black" points="1163,-497.5 1163,-516.5 1269,-516.5 1269,-497.5 1163,-497.5"/>
<text text-anchor="middle" x="1216" y="-504.5" font-family="Helvetica,sans-Serif" font-size="10.00">sll_t_sparse_grid_4d</text>
</a>
</g>
</g>
<!-- Node3&#45;&gt;Node8 -->
<g id="edge27" class="edge"><title>Node3&#45;&gt;Node8</title>
<path fill="none" stroke="#9a32cd" stroke-dasharray="5,2" d="M94.7969,-427.401C127.227,-436.632 173.196,-449.118 214,-458 541.214,-529.228 630.219,-527.03 965,-519 1033.42,-517.359 1112.28,-513.195 1162.83,-510.234"/>
<polygon fill="#9a32cd" stroke="#9a32cd" points="95.3445,-423.917 84.7672,-424.528 93.4163,-430.647 95.3445,-423.917"/>
<text text-anchor="middle" x="633" y="-525" font-family="Helvetica,sans-Serif" font-size="10.00"> index</text>
</g>
<!-- Node9 -->
<g id="node9" class="node"><title>Node9</title>
<g id="a_node9"><a xlink:href="structsll__m__sparse__grid__interpolator_1_1sll__t__sparse__grid__interpolator.html" target="_top" xlink:title="Class defining the sparse grid data structure. ">
<polygon fill="white" stroke="black" points="983,-188.5 983,-207.5 1126,-207.5 1126,-188.5 983,-188.5"/>
<text text-anchor="middle" x="1054.5" y="-195.5" font-family="Helvetica,sans-Serif" font-size="10.00">sll_t_sparse_grid_interpolator</text>
</a>
</g>
</g>
<!-- Node3&#45;&gt;Node9 -->
<g id="edge24" class="edge"><title>Node3&#45;&gt;Node9</title>
<path fill="none" stroke="#9a32cd" stroke-dasharray="5,2" d="M54.0957,-395.182C59.3501,-335.477 78.2747,-159.323 121,-125 261.444,-12.1763 858.906,-149.756 1015.7,-188.44"/>
<polygon fill="#9a32cd" stroke="#9a32cd" points="50.5788,-395.235 53.2241,-405.494 57.554,-395.824 50.5788,-395.235"/>
<text text-anchor="middle" x="525.5" y="-217" font-family="Helvetica,sans-Serif" font-size="10.00"> levels</text>
<text text-anchor="middle" x="525.5" y="-206" font-family="Helvetica,sans-Serif" font-size="10.00">dim</text>
<text text-anchor="middle" x="525.5" y="-195" font-family="Helvetica,sans-Serif" font-size="10.00">no_basis_functions</text>
<text text-anchor="middle" x="525.5" y="-184" font-family="Helvetica,sans-Serif" font-size="10.00">max_level</text>
<text text-anchor="middle" x="525.5" y="-173" font-family="Helvetica,sans-Serif" font-size="10.00">order</text>
<text text-anchor="middle" x="525.5" y="-162" font-family="Helvetica,sans-Serif" font-size="10.00">interpolation</text>
<text text-anchor="middle" x="525.5" y="-151" font-family="Helvetica,sans-Serif" font-size="10.00">boundary</text>
<text text-anchor="middle" x="525.5" y="-140" font-family="Helvetica,sans-Serif" font-size="10.00">level_mapping</text>
<text text-anchor="middle" x="525.5" y="-129" font-family="Helvetica,sans-Serif" font-size="10.00">hs_weights_index</text>
<text text-anchor="middle" x="525.5" y="-118" font-family="Helvetica,sans-Serif" font-size="10.00">modified</text>
<text text-anchor="middle" x="525.5" y="-107" font-family="Helvetica,sans-Serif" font-size="10.00">...</text>
</g>
<!-- Node11 -->
<g id="node11" class="node"><title>Node11</title>
<g id="a_node11"><a xlink:href="structsll__m__periodic__interpolator__1d_1_1sll__t__periodic__interpolator__1d.html" target="_top" xlink:title="Periodic interpolator. ">
<polygon fill="white" stroke="black" points="676,-288.5 676,-307.5 819,-307.5 819,-288.5 676,-288.5"/>
<text text-anchor="middle" x="747.5" y="-295.5" font-family="Helvetica,sans-Serif" font-size="10.00">sll_t_periodic_interpolator_1d</text>
</a>
</g>
</g>
<!-- Node3&#45;&gt;Node11 -->
<g id="edge20" class="edge"><title>Node3&#45;&gt;Node11</title>
<path fill="none" stroke="#9a32cd" stroke-dasharray="5,2" d="M89.8779,-402.144C147.361,-382.987 261.283,-347.445 361,-331 461.609,-314.407 488.263,-323.85 590,-317 620.235,-314.964 627.897,-315.482 658,-312 668.662,-310.767 680.006,-309.181 690.89,-307.523"/>
<polygon fill="#9a32cd" stroke="#9a32cd" points="88.5157,-398.909 80.1495,-405.41 90.7434,-405.545 88.5157,-398.909"/>
<text text-anchor="middle" x="402" y="-334" font-family="Helvetica,sans-Serif" font-size="10.00"> num_points</text>
</g>
<!-- Node13 -->
<g id="node13" class="node"><title>Node13</title>
<g id="a_node13"><a xlink:href="structsll__m__periodic__interp_1_1sll__t__periodic__interp__work.html" target="_top" xlink:title="sll_t_periodic_interp_work">
<polygon fill="white" stroke="black" points="461,-250.5 461,-269.5 590,-269.5 590,-250.5 461,-250.5"/>
<text text-anchor="middle" x="525.5" y="-257.5" font-family="Helvetica,sans-Serif" font-size="10.00">sll_t_periodic_interp_work</text>
</a>
</g>
</g>
<!-- Node3&#45;&gt;Node13 -->
<g id="edge18" class="edge"><title>Node3&#45;&gt;Node13</title>
<path fill="none" stroke="#9a32cd" stroke-dasharray="5,2" d="M61.9261,-396.194C73.4031,-374.878 94.5682,-340.214 121,-318 156.005,-288.58 169.623,-285.024 214,-274 297.398,-253.283 397.192,-252.923 460.71,-255.61"/>
<polygon fill="#9a32cd" stroke="#9a32cd" points="58.7422,-394.73 57.2198,-405.215 64.9484,-397.968 58.7422,-394.73"/>
<text text-anchor="middle" x="278.5" y="-310" font-family="Helvetica,sans-Serif" font-size="10.00"> sizebuf</text>
<text text-anchor="middle" x="278.5" y="-299" font-family="Helvetica,sans-Serif" font-size="10.00">order</text>
<text text-anchor="middle" x="278.5" y="-288" font-family="Helvetica,sans-Serif" font-size="10.00">n</text>
<text text-anchor="middle" x="278.5" y="-277" font-family="Helvetica,sans-Serif" font-size="10.00">interpolator</text>
</g>
<!-- Node14 -->
<g id="node14" class="node"><title>Node14</title>
<g id="a_node14"><a xlink:href="structsll__m__fft_1_1sll__t__fft.html" target="_top" xlink:title="Type for FFT plan in SeLaLib. ">
<polygon fill="white" stroke="black" points="254,-191.5 254,-210.5 303,-210.5 303,-191.5 254,-191.5"/>
<text text-anchor="middle" x="278.5" y="-198.5" font-family="Helvetica,sans-Serif" font-size="10.00">sll_t_fft</text>
</a>
</g>
</g>
<!-- Node3&#45;&gt;Node14 -->
<g id="edge17" class="edge"><title>Node3&#45;&gt;Node14</title>
<path fill="none" stroke="#9a32cd" stroke-dasharray="5,2" d="M51.9066,-394.956C51.8411,-351.279 58.6145,-247.775 121,-202 160.103,-173.309 220.763,-184.142 253.906,-193.331"/>
<polygon fill="#9a32cd" stroke="#9a32cd" points="48.4096,-395.199 52.0532,-405.148 55.4089,-395.099 48.4096,-395.199"/>
<text text-anchor="middle" x="158.5" y="-238" font-family="Helvetica,sans-Serif" font-size="10.00"> problem_shape</text>
<text text-anchor="middle" x="158.5" y="-227" font-family="Helvetica,sans-Serif" font-size="10.00">direction</text>
<text text-anchor="middle" x="158.5" y="-216" font-family="Helvetica,sans-Serif" font-size="10.00">problem_rank</text>
<text text-anchor="middle" x="158.5" y="-205" font-family="Helvetica,sans-Serif" font-size="10.00">transform_type</text>
</g>
<!-- Node4 -->
<g id="node4" class="node"><title>Node4</title>
<polygon fill="white" stroke="#bfbfbf" points="0,-780 0,-810 103,-810 103,-780 0,-780"/>
<text text-anchor="start" x="8" y="-798" font-family="Helvetica,sans-Serif" font-size="10.00">class(sll_t_species)</text>
<text text-anchor="middle" x="51.5" y="-787" font-family="Helvetica,sans-Serif" font-size="10.00">, allocatable</text>
</g>
<!-- Node4&#45;&gt;Node2 -->
<g id="edge3" class="edge"><title>Node4&#45;&gt;Node2</title>
<path fill="none" stroke="#9a32cd" stroke-dasharray="5,2" d="M113.519,-795C144.534,-795 182.204,-795 213.614,-795"/>
<polygon fill="#9a32cd" stroke="#9a32cd" points="113.275,-791.5 103.275,-795 113.275,-798.5 113.275,-791.5"/>
<text text-anchor="middle" x="158.5" y="-798" font-family="Helvetica,sans-Serif" font-size="10.00"> species</text>
</g>
<!-- Node5 -->
<g id="node5" class="node"><title>Node5</title>
<polygon fill="white" stroke="#bfbfbf" points="29.5,-66.5 29.5,-85.5 73.5,-85.5 73.5,-66.5 29.5,-66.5"/>
<text text-anchor="middle" x="51.5" y="-73.5" font-family="Helvetica,sans-Serif" font-size="10.00">logical</text>
</g>
<!-- Node5&#45;&gt;Node1 -->
<g id="edge4" class="edge"><title>Node5&#45;&gt;Node1</title>
<path fill="none" stroke="#9a32cd" stroke-dasharray="5,2" d="M77.7265,-61.4293C118.383,-39.3601 201.54,-0 277.5,-0 277.5,-0 277.5,-0 1217,-0 1463.53,-0 1464.23,-459.222 1462.01,-548.914"/>
<polygon fill="#9a32cd" stroke="#9a32cd" points="75.8472,-58.4691 68.7934,-66.3745 79.2375,-64.5933 75.8472,-58.4691"/>
<text text-anchor="middle" x="747.5" y="-3" font-family="Helvetica,sans-Serif" font-size="10.00"> domain_is_periodic</text>
</g>
<!-- Node5&#45;&gt;Node14 -->
<g id="edge16" class="edge"><title>Node5&#45;&gt;Node14</title>
<path fill="none" stroke="#9a32cd" stroke-dasharray="5,2" d="M78.6514,-90.5285C125.13,-116.35 220.92,-169.567 260.159,-191.366"/>
<polygon fill="#9a32cd" stroke="#9a32cd" points="80.2231,-87.3979 69.7818,-85.601 76.8236,-93.517 80.2231,-87.3979"/>
<text text-anchor="middle" x="158.5" y="-157" font-family="Helvetica,sans-Serif" font-size="10.00"> normalized</text>
</g>
<!-- Node6&#45;&gt;Node1 -->
<g id="edge5" class="edge"><title>Node6&#45;&gt;Node1</title>
<path fill="none" stroke="#9a32cd" stroke-dasharray="5,2" d="M598.226,-583C641.227,-583 696.996,-583 746.5,-583 746.5,-583 746.5,-583 1217,-583 1284.7,-583 1362.62,-575.671 1411.95,-570.116"/>
<polygon fill="#9a32cd" stroke="#9a32cd" points="598.139,-579.5 588.139,-583 598.139,-586.5 598.139,-579.5"/>
<text text-anchor="middle" x="1054.5" y="-586" font-family="Helvetica,sans-Serif" font-size="10.00"> lbf_grid</text>
</g>
<!-- Node7 -->
<g id="node7" class="node"><title>Node7</title>
<polygon fill="white" stroke="#bfbfbf" points="240.5,-429.5 240.5,-448.5 316.5,-448.5 316.5,-429.5 240.5,-429.5"/>
<text text-anchor="middle" x="278.5" y="-436.5" font-family="Helvetica,sans-Serif" font-size="10.00">real(kind=f64)</text>
</g>
<!-- Node7&#45;&gt;Node1 -->
<g id="edge28" class="edge"><title>Node7&#45;&gt;Node1</title>
<path fill="none" stroke="#9a32cd" stroke-dasharray="5,2" d="M326.704,-450.159C343.604,-454.125 359.019,-457.697 361,-458 627.097,-498.68 697.111,-476.58 965,-503 1051.1,-511.492 1303.95,-543.718 1411.81,-557.588"/>
<polygon fill="#9a32cd" stroke="#9a32cd" points="327.208,-446.682 316.673,-447.8 325.606,-453.496 327.208,-446.682"/>
<text text-anchor="start" x="837" y="-561" font-family="Helvetica,sans-Serif" font-size="10.00"> tmp_f_values_on_remapping</text>
<text text-anchor="middle" x="901" y="-550" font-family="Helvetica,sans-Serif" font-size="10.00">_sparse_grid</text>
<text text-anchor="middle" x="901" y="-539" font-family="Helvetica,sans-Serif" font-size="10.00">particle_array</text>
<text text-anchor="start" x="837" y="-528" font-family="Helvetica,sans-Serif" font-size="10.00">remapped_f_sparse_grid</text>
<text text-anchor="middle" x="901" y="-517" font-family="Helvetica,sans-Serif" font-size="10.00">_coefficients</text>
<text text-anchor="middle" x="901" y="-506" font-family="Helvetica,sans-Serif" font-size="10.00">common_weight</text>
</g>
<!-- Node7&#45;&gt;Node6 -->
<g id="edge7" class="edge"><title>Node7&#45;&gt;Node6</title>
<path fill="none" stroke="#9a32cd" stroke-dasharray="5,2" d="M304.783,-453.765C320.837,-463.094 342.08,-475.354 361,-486 397.23,-506.385 407.235,-509.808 443,-531 466.825,-545.117 493.795,-562.638 509.958,-573.311"/>
<polygon fill="#9a32cd" stroke="#9a32cd" points="306.39,-450.651 295.987,-448.645 302.869,-456.7 306.39,-450.651"/>
<text text-anchor="middle" x="402" y="-644" font-family="Helvetica,sans-Serif" font-size="10.00"> delta_eta1</text>
<text text-anchor="middle" x="402" y="-633" font-family="Helvetica,sans-Serif" font-size="10.00">eta2_max</text>
<text text-anchor="middle" x="402" y="-622" font-family="Helvetica,sans-Serif" font-size="10.00">delta_eta2</text>
<text text-anchor="middle" x="402" y="-611" font-family="Helvetica,sans-Serif" font-size="10.00">eta3_max</text>
<text text-anchor="middle" x="402" y="-600" font-family="Helvetica,sans-Serif" font-size="10.00">delta_eta3</text>
<text text-anchor="middle" x="402" y="-589" font-family="Helvetica,sans-Serif" font-size="10.00">eta4_max</text>
<text text-anchor="middle" x="402" y="-578" font-family="Helvetica,sans-Serif" font-size="10.00">delta_eta4</text>
<text text-anchor="middle" x="402" y="-567" font-family="Helvetica,sans-Serif" font-size="10.00">eta1_min</text>
<text text-anchor="middle" x="402" y="-556" font-family="Helvetica,sans-Serif" font-size="10.00">eta2_min</text>
<text text-anchor="middle" x="402" y="-545" font-family="Helvetica,sans-Serif" font-size="10.00">eta3_min</text>
<text text-anchor="middle" x="402" y="-534" font-family="Helvetica,sans-Serif" font-size="10.00">...</text>
</g>
<!-- Node7&#45;&gt;Node9 -->
<g id="edge26" class="edge"><title>Node7&#45;&gt;Node9</title>
<path fill="none" stroke="#9a32cd" stroke-dasharray="5,2" d="M327.131,-448.824C391.415,-459.457 507.393,-469.16 590,-422 602.525,-414.85 596.45,-403.637 608,-395 674.532,-345.244 893.583,-326.447 965,-284 1000.18,-263.093 1032.13,-225.511 1046.08,-207.774"/>
<polygon fill="#9a32cd" stroke="#9a32cd" points="327.341,-445.308 316.89,-447.049 326.145,-452.205 327.341,-445.308"/>
<text text-anchor="middle" x="633" y="-464" font-family="Helvetica,sans-Serif" font-size="10.00"> eta_max</text>
<text text-anchor="middle" x="633" y="-453" font-family="Helvetica,sans-Serif" font-size="10.00">stripe_out</text>
<text text-anchor="middle" x="633" y="-442" font-family="Helvetica,sans-Serif" font-size="10.00">hs_weights</text>
<text text-anchor="middle" x="633" y="-431" font-family="Helvetica,sans-Serif" font-size="10.00">length</text>
<text text-anchor="middle" x="633" y="-420" font-family="Helvetica,sans-Serif" font-size="10.00">volume</text>
<text text-anchor="middle" x="633" y="-409" font-family="Helvetica,sans-Serif" font-size="10.00">eta_min</text>
<text text-anchor="middle" x="633" y="-398" font-family="Helvetica,sans-Serif" font-size="10.00">stripe</text>
</g>
<!-- Node7&#45;&gt;Node11 -->
<g id="edge21" class="edge"><title>Node7&#45;&gt;Node11</title>
<path fill="none" stroke="#9a32cd" stroke-dasharray="5,2" d="M326.458,-429.248C413.686,-410.858 597.364,-370.775 658,-347 685.469,-336.23 714.999,-318.493 732.054,-307.571"/>
<polygon fill="#9a32cd" stroke="#9a32cd" points="325.63,-425.845 316.564,-431.328 327.071,-432.695 325.63,-425.845"/>
<text text-anchor="middle" x="525.5" y="-414" font-family="Helvetica,sans-Serif" font-size="10.00"> domain_size</text>
<text text-anchor="middle" x="525.5" y="-403" font-family="Helvetica,sans-Serif" font-size="10.00">cell_size</text>
</g>
<!-- Node7&#45;&gt;Node13 -->
<g id="edge19" class="edge"><title>Node7&#45;&gt;Node13</title>
<path fill="none" stroke="#9a32cd" stroke-dasharray="5,2" d="M295.049,-421.286C310.31,-404.947 335.018,-381.144 361,-367 394.244,-348.902 416.28,-370.809 443,-344 464.161,-322.769 440.023,-300.413 461,-279 464.785,-275.137 469.32,-272.051 474.203,-269.589"/>
<polygon fill="#9a32cd" stroke="#9a32cd" points="292.117,-419.308 287.974,-429.059 297.293,-424.02 292.117,-419.308"/>
<text text-anchor="middle" x="402" y="-392" font-family="Helvetica,sans-Serif" font-size="10.00"> eigenvalues_minv</text>
<text text-anchor="middle" x="402" y="-381" font-family="Helvetica,sans-Serif" font-size="10.00">buf</text>
<text text-anchor="middle" x="402" y="-370" font-family="Helvetica,sans-Serif" font-size="10.00">wsave</text>
</g>
<!-- Node8&#45;&gt;Node1 -->
<g id="edge9" class="edge"><title>Node8&#45;&gt;Node1</title>
<path fill="none" stroke="#9a32cd" stroke-dasharray="5,2" d="M1279.52,-504.05C1314.1,-504.268 1357.36,-507.633 1394,-520 1412.56,-526.263 1431,-538.835 1443.91,-548.942"/>
<polygon fill="#9a32cd" stroke="#9a32cd" points="1279.07,-500.551 1269.08,-504.077 1279.09,-507.551 1279.07,-500.551"/>
<text text-anchor="middle" x="1340.5" y="-523" font-family="Helvetica,sans-Serif" font-size="10.00"> sparse_grid_interpolator</text>
</g>
<!-- Node9&#45;&gt;Node8 -->
<g id="edge10" class="edge"><title>Node9&#45;&gt;Node8</title>
<path fill="none" stroke="midnightblue" d="M1065.2,-216.795C1095.45,-275.397 1187.37,-453.479 1209.95,-497.219"/>
<polygon fill="midnightblue" stroke="midnightblue" points="1068.15,-214.867 1060.45,-207.587 1061.93,-218.078 1068.15,-214.867"/>
</g>
<!-- Node10 -->
<g id="node10" class="node"><title>Node10</title>
<polygon fill="white" stroke="#bfbfbf" points="689,-183 689,-213 806,-213 806,-183 689,-183"/>
<text text-anchor="start" x="697" y="-201" font-family="Helvetica,sans-Serif" font-size="10.00">class(sparsegrid_node)</text>
<text text-anchor="middle" x="747.5" y="-190" font-family="Helvetica,sans-Serif" font-size="10.00">, dimension(:), pointer</text>
</g>
<!-- Node10&#45;&gt;Node9 -->
<g id="edge11" class="edge"><title>Node10&#45;&gt;Node9</title>
<path fill="none" stroke="#9a32cd" stroke-dasharray="5,2" d="M816.509,-198C865.986,-198 932.8,-198 982.874,-198"/>
<polygon fill="#9a32cd" stroke="#9a32cd" points="816.227,-194.5 806.227,-198 816.227,-201.5 816.227,-194.5"/>
<text text-anchor="middle" x="901" y="-201" font-family="Helvetica,sans-Serif" font-size="10.00"> hierarchy</text>
</g>
<!-- Node11&#45;&gt;Node9 -->
<g id="edge12" class="edge"><title>Node11&#45;&gt;Node9</title>
<path fill="none" stroke="#9a32cd" stroke-dasharray="5,2" d="M787.545,-285.198C849.562,-264.865 969.189,-225.643 1024.34,-207.559"/>
<polygon fill="#9a32cd" stroke="#9a32cd" points="786.157,-281.97 777.745,-288.412 788.337,-288.622 786.157,-281.97"/>
<text text-anchor="middle" x="901" y="-272" font-family="Helvetica,sans-Serif" font-size="10.00"> interp_per</text>
</g>
<!-- Node12 -->
<g id="node12" class="node"><title>Node12</title>
<g id="a_node12"><a xlink:href="structsll__m__interpolators__1d__base_1_1sll__c__interpolator__1d.html" target="_top" xlink:title="Abstract class for 1D interpolation and reconstruction. ">
<polygon fill="white" stroke="black" points="472.5,-288.5 472.5,-307.5 578.5,-307.5 578.5,-288.5 472.5,-288.5"/>
<text text-anchor="middle" x="525.5" y="-295.5" font-family="Helvetica,sans-Serif" font-size="10.00">sll_c_interpolator_1d</text>
</a>
</g>
</g>
<!-- Node12&#45;&gt;Node11 -->
<g id="edge13" class="edge"><title>Node12&#45;&gt;Node11</title>
<path fill="none" stroke="midnightblue" d="M588.753,-298C615.804,-298 647.636,-298 675.594,-298"/>
<polygon fill="midnightblue" stroke="midnightblue" points="588.637,-294.5 578.637,-298 588.637,-301.5 588.637,-294.5"/>
</g>
<!-- Node13&#45;&gt;Node11 -->
<g id="edge14" class="edge"><title>Node13&#45;&gt;Node11</title>
<path fill="none" stroke="#9a32cd" stroke-dasharray="5,2" d="M591.781,-271.276C623.432,-276.743 661.036,-283.238 691.246,-288.456"/>
<polygon fill="#9a32cd" stroke="#9a32cd" points="592.181,-267.793 581.731,-269.54 590.99,-274.691 592.181,-267.793"/>
<text text-anchor="middle" x="633" y="-286" font-family="Helvetica,sans-Serif" font-size="10.00"> per_interp</text>
</g>
<!-- Node14&#45;&gt;Node13 -->
<g id="edge15" class="edge"><title>Node14&#45;&gt;Node13</title>
<path fill="none" stroke="#9a32cd" stroke-dasharray="5,2" d="M313.332,-201.398C347.177,-202.791 400.216,-207.706 443,-224 451.985,-227.422 452.448,-231.606 461,-236 471.797,-241.548 484.185,-246.517 495.136,-250.474"/>
<polygon fill="#9a32cd" stroke="#9a32cd" points="313.164,-197.891 303.055,-201.06 312.934,-204.887 313.164,-197.891"/>
<text text-anchor="middle" x="402" y="-238" font-family="Helvetica,sans-Serif" font-size="10.00"> pinv</text>
<text text-anchor="middle" x="402" y="-227" font-family="Helvetica,sans-Serif" font-size="10.00">pfwd</text>
</g>
<!-- Node15 -->
<g id="node15" class="node"><title>Node15</title>
<g id="a_node15"><a xlink:href="structsll__m__sparse__grid__interpolator_1_1interpolator__base__ptr.html" target="_top" xlink:title="interpolator_base_ptr">
<polygon fill="white" stroke="black" points="694,-79.5 694,-98.5 801,-98.5 801,-79.5 694,-79.5"/>
<text text-anchor="middle" x="747.5" y="-86.5" font-family="Helvetica,sans-Serif" font-size="10.00">interpolator_base_ptr</text>
</a>
</g>
</g>
<!-- Node15&#45;&gt;Node9 -->
<g id="edge22" class="edge"><title>Node15&#45;&gt;Node9</title>
<path fill="none" stroke="#9a32cd" stroke-dasharray="5,2" d="M811.261,-80.7365C856.213,-77.609 917.027,-79.2391 965,-102 1005.55,-121.239 1036.32,-168.146 1048.17,-188.412"/>
<polygon fill="#9a32cd" stroke="#9a32cd" points="810.751,-77.2659 801.059,-81.5462 811.305,-84.2439 810.751,-77.2659"/>
<text text-anchor="middle" x="901" y="-105" font-family="Helvetica,sans-Serif" font-size="10.00"> interp</text>
</g>
<!-- Node16 -->
<g id="node16" class="node"><title>Node16</title>
<polygon fill="white" stroke="#bfbfbf" points="467.5,-44 467.5,-74 583.5,-74 583.5,-44 467.5,-44"/>
<text text-anchor="start" x="475.5" y="-62" font-family="Helvetica,sans-Serif" font-size="10.00">class(sll_c_interpolator</text>
<text text-anchor="middle" x="525.5" y="-51" font-family="Helvetica,sans-Serif" font-size="10.00">_1d), pointer</text>
</g>
<!-- Node16&#45;&gt;Node15 -->
<g id="edge23" class="edge"><title>Node16&#45;&gt;Node15</title>
<path fill="none" stroke="#9a32cd" stroke-dasharray="5,2" d="M593.922,-68.1939C625.99,-72.5668 663.766,-77.7181 693.707,-81.801"/>
<polygon fill="#9a32cd" stroke="#9a32cd" points="594.109,-64.6871 583.728,-66.8038 593.163,-71.623 594.109,-64.6871"/>
<text text-anchor="middle" x="633" y="-80" font-family="Helvetica,sans-Serif" font-size="10.00"> ptr</text>
</g>
<!-- Node17 -->
<g id="node17" class="node"><title>Node17</title>
<polygon fill="white" stroke="#bfbfbf" points="692,-30 692,-60 803,-60 803,-30 692,-30"/>
<text text-anchor="start" x="700" y="-48" font-family="Helvetica,sans-Serif" font-size="10.00">class(fft_hierarchical)</text>
<text text-anchor="middle" x="747.5" y="-37" font-family="Helvetica,sans-Serif" font-size="10.00">, dimension(:), pointer</text>
</g>
<!-- Node17&#45;&gt;Node9 -->
<g id="edge25" class="edge"><title>Node17&#45;&gt;Node9</title>
<path fill="none" stroke="#9a32cd" stroke-dasharray="5,2" d="M813.244,-36.9413C858.791,-34.464 919.493,-37.8519 965,-65 1014.3,-94.4133 1041.74,-163.218 1050.43,-188.48"/>
<polygon fill="#9a32cd" stroke="#9a32cd" points="812.935,-33.4539 803.183,-37.5962 813.39,-40.4391 812.935,-33.4539"/>
<text text-anchor="middle" x="901" y="-68" font-family="Helvetica,sans-Serif" font-size="10.00"> fft_object</text>
</g>
</g>
</svg>
