<?xml version="1.0" encoding="UTF-8" standalone="no"?>
<!DOCTYPE svg PUBLIC "-//W3C//DTD SVG 1.1//EN"
 "http://www.w3.org/Graphics/SVG/1.1/DTD/svg11.dtd">
<!-- Generated by graphviz version 2.40.1 (20161225.0304)
 -->
<!-- Title: sll_t_poisson_3d_periodic_par Pages: 1 -->
<svg width="620pt" height="487pt"
 viewBox="0.00 0.00 620.00 487.00" xmlns="http://www.w3.org/2000/svg" xmlns:xlink="http://www.w3.org/1999/xlink">
<g id="graph0" class="graph" transform="scale(1 1) rotate(0) translate(4 483)">
<title>sll_t_poisson_3d_periodic_par</title>
<polygon fill="#ffffff" stroke="transparent" points="-4,4 -4,-483 616,-483 616,4 -4,4"/>
<!-- Node1 -->
<g id="node1" class="node">
<title>Node1</title>
<polygon fill="#bfbfbf" stroke="#000000" points="450,-273.5 450,-292.5 612,-292.5 612,-273.5 450,-273.5"/>
<text text-anchor="middle" x="531" y="-280.5" font-family="Helvetica,sans-Serif" font-size="10.00" fill="#000000">sll_t_poisson_3d_periodic_par</text>
</g>
<!-- Node2 -->
<g id="node2" class="node">
<title>Node2</title>
<polygon fill="#ffffff" stroke="#bfbfbf" points="231.5,-425.5 231.5,-444.5 321.5,-444.5 321.5,-425.5 231.5,-425.5"/>
<text text-anchor="middle" x="276.5" y="-432.5" font-family="Helvetica,sans-Serif" font-size="10.00" fill="#000000">sll_t_layout_3d</text>
</g>
<!-- Node2&#45;&gt;Node1 -->
<g id="edge1" class="edge">
<title>Node2&#45;&gt;Node1</title>
<path fill="none" stroke="#9a32cd" stroke-dasharray="5,2" d="M331.9797,-437.2269C363.2739,-436.1141 401.9919,-430.5923 432,-413 482.4149,-383.4442 515.798,-317.2769 526.9151,-292.5578"/>
<polygon fill="#9a32cd" stroke="#9a32cd" points="331.598,-433.7342 321.6749,-437.4464 331.7471,-440.7326 331.598,-433.7342"/>
<text text-anchor="middle" x="392.5" y="-471" font-family="Helvetica,sans-Serif" font-size="10.00" fill="#000000"> layout_split</text>
<text text-anchor="middle" x="392.5" y="-460" font-family="Helvetica,sans-Serif" font-size="10.00" fill="#000000">layout_x</text>
<text text-anchor="middle" x="392.5" y="-449" font-family="Helvetica,sans-Serif" font-size="10.00" fill="#000000">layout_y</text>
<text text-anchor="middle" x="392.5" y="-438" font-family="Helvetica,sans-Serif" font-size="10.00" fill="#000000">layout_z</text>
</g>
<!-- Node3 -->
<g id="node3" class="node">
<title>Node3</title>
<g id="a_node3"><a xlink:href="structsll__m__fft_1_1sll__t__fft.html" target="_top" xlink:title="Type for FFT plan in SeLaLib. ">
<polygon fill="#ffffff" stroke="#000000" points="250,-375.5 250,-394.5 303,-394.5 303,-375.5 250,-375.5"/>
<text text-anchor="middle" x="276.5" y="-382.5" font-family="Helvetica,sans-Serif" font-size="10.00" fill="#000000">sll_t_fft</text>
</a>
</g>
</g>
<!-- Node3&#45;&gt;Node1 -->
<g id="edge2" class="edge">
<title>Node3&#45;&gt;Node1</title>
<path fill="none" stroke="#9a32cd" stroke-dasharray="5,2" d="M312.5571,-372.0099C320.1544,-368.7792 327.9876,-365.0634 335,-361 343.7691,-355.9187 343.9741,-351.6096 353,-347 385.5676,-330.3676 397.4999,-336.1253 432,-324 459.2036,-314.4391 489.758,-301.4255 509.633,-292.6453"/>
<polygon fill="#9a32cd" stroke="#9a32cd" points="311.089,-368.8284 303.1394,-375.8323 313.7216,-375.3145 311.089,-368.8284"/>
<text text-anchor="middle" x="392.5" y="-405" font-family="Helvetica,sans-Serif" font-size="10.00" fill="#000000"> px</text>
<text text-anchor="middle" x="392.5" y="-394" font-family="Helvetica,sans-Serif" font-size="10.00" fill="#000000">px_inv</text>
<text text-anchor="middle" x="392.5" y="-383" font-family="Helvetica,sans-Serif" font-size="10.00" fill="#000000">py</text>
<text text-anchor="middle" x="392.5" y="-372" font-family="Helvetica,sans-Serif" font-size="10.00" fill="#000000">py_inv</text>
<text text-anchor="middle" x="392.5" y="-361" font-family="Helvetica,sans-Serif" font-size="10.00" fill="#000000">pz</text>
<text text-anchor="middle" x="392.5" y="-350" font-family="Helvetica,sans-Serif" font-size="10.00" fill="#000000">pz_inv</text>
</g>
<!-- Node4 -->
<g id="node4" class="node">
<title>Node4</title>
<polygon fill="#ffffff" stroke="#bfbfbf" points="27,-403.5 27,-422.5 76,-422.5 76,-403.5 27,-403.5"/>
<text text-anchor="middle" x="51.5" y="-410.5" font-family="Helvetica,sans-Serif" font-size="10.00" fill="#000000">logical</text>
</g>
<!-- Node4&#45;&gt;Node3 -->
<g id="edge3" class="edge">
<title>Node4&#45;&gt;Node3</title>
<path fill="none" stroke="#9a32cd" stroke-dasharray="5,2" d="M86.1953,-408.6824C131.3311,-403.0655 209.2146,-393.3733 249.9396,-388.3053"/>
<polygon fill="#9a32cd" stroke="#9a32cd" points="85.4985,-405.242 76.0073,-409.9502 86.363,-412.1884 85.4985,-405.242"/>
<text text-anchor="middle" x="160.5" y="-406" font-family="Helvetica,sans-Serif" font-size="10.00" fill="#000000"> normalized</text>
</g>
<!-- Node5 -->
<g id="node5" class="node">
<title>Node5</title>
<polygon fill="#ffffff" stroke="#bfbfbf" points="0,-320.5 0,-339.5 103,-339.5 103,-320.5 0,-320.5"/>
<text text-anchor="middle" x="51.5" y="-327.5" font-family="Helvetica,sans-Serif" font-size="10.00" fill="#000000">integer(kind=i32)</text>
</g>
<!-- Node5&#45;&gt;Node1 -->
<g id="edge6" class="edge">
<title>Node5&#45;&gt;Node1</title>
<path fill="none" stroke="#9a32cd" stroke-dasharray="5,2" d="M113.2803,-326.4705C188.6827,-321.8163 319.9885,-312.5928 432,-299 446.6047,-297.2277 462.3543,-294.8822 476.9017,-292.5349"/>
<polygon fill="#9a32cd" stroke="#9a32cd" points="112.7877,-322.994 103.0196,-327.0969 113.2143,-329.981 112.7877,-322.994"/>
<text text-anchor="middle" x="276.5" y="-355" font-family="Helvetica,sans-Serif" font-size="10.00" fill="#000000"> loc_sizes</text>
<text text-anchor="middle" x="276.5" y="-344" font-family="Helvetica,sans-Serif" font-size="10.00" fill="#000000">ncx</text>
<text text-anchor="middle" x="276.5" y="-333" font-family="Helvetica,sans-Serif" font-size="10.00" fill="#000000">ncy</text>
<text text-anchor="middle" x="276.5" y="-322" font-family="Helvetica,sans-Serif" font-size="10.00" fill="#000000">ncz</text>
</g>
<!-- Node5&#45;&gt;Node3 -->
<g id="edge4" class="edge">
<title>Node5&#45;&gt;Node3</title>
<path fill="none" stroke="#9a32cd" stroke-dasharray="5,2" d="M113.4485,-328.6904C140.8963,-330.0992 173.0099,-334.5559 200,-346 209.5874,-350.0652 209.079,-355.6279 218,-361 227.8744,-366.9463 239.4901,-372.0522 249.7575,-376.0068"/>
<polygon fill="#9a32cd" stroke="#9a32cd" points="113.3061,-325.1823 103.1777,-328.2915 113.0343,-332.1771 113.3061,-325.1823"/>
<text text-anchor="middle" x="160.5" y="-382" font-family="Helvetica,sans-Serif" font-size="10.00" fill="#000000"> problem_shape</text>
<text text-anchor="middle" x="160.5" y="-371" font-family="Helvetica,sans-Serif" font-size="10.00" fill="#000000">direction</text>
<text text-anchor="middle" x="160.5" y="-360" font-family="Helvetica,sans-Serif" font-size="10.00" fill="#000000">problem_rank</text>
<text text-anchor="middle" x="160.5" y="-349" font-family="Helvetica,sans-Serif" font-size="10.00" fill="#000000">transform_type</text>
</g>
<!-- Node6 -->
<g id="node6" class="node">
<title>Node6</title>
<polygon fill="#ffffff" stroke="#bfbfbf" points="218,-239 218,-269 335,-269 335,-239 218,-239"/>
<text text-anchor="start" x="226" y="-257" font-family="Helvetica,sans-Serif" font-size="10.00" fill="#000000">sll_t_remap_plan_3d</text>
<text text-anchor="middle" x="276.5" y="-246" font-family="Helvetica,sans-Serif" font-size="10.00" fill="#000000">_comp64</text>
</g>
<!-- Node6&#45;&gt;Node1 -->
<g id="edge5" class="edge">
<title>Node6&#45;&gt;Node1</title>
<path fill="none" stroke="#9a32cd" stroke-dasharray="5,2" d="M345.2861,-250.4797C372.4231,-250.1226 403.7956,-250.9958 432,-255 457.1118,-258.5652 484.8253,-266.7902 504.528,-273.4087"/>
<polygon fill="#9a32cd" stroke="#9a32cd" points="345.0401,-246.9836 335.1084,-250.6728 345.173,-253.9823 345.0401,-246.9836"/>
<text text-anchor="middle" x="392.5" y="-291" font-family="Helvetica,sans-Serif" font-size="10.00" fill="#000000"> rmp3_xy</text>
<text text-anchor="middle" x="392.5" y="-280" font-family="Helvetica,sans-Serif" font-size="10.00" fill="#000000">rmp3_yx</text>
<text text-anchor="middle" x="392.5" y="-269" font-family="Helvetica,sans-Serif" font-size="10.00" fill="#000000">rmp3_zy</text>
<text text-anchor="middle" x="392.5" y="-258" font-family="Helvetica,sans-Serif" font-size="10.00" fill="#000000">rmp3_yz</text>
</g>
<!-- Node7 -->
<g id="node7" class="node">
<title>Node7</title>
<polygon fill="#ffffff" stroke="#bfbfbf" points="218,-139 218,-169 335,-169 335,-139 218,-139"/>
<text text-anchor="start" x="226" y="-157" font-family="Helvetica,sans-Serif" font-size="10.00" fill="#000000">sll_t_remap_plan_3d</text>
<text text-anchor="middle" x="276.5" y="-146" font-family="Helvetica,sans-Serif" font-size="10.00" fill="#000000">_real64</text>
</g>
<!-- Node7&#45;&gt;Node1 -->
<g id="edge7" class="edge">
<title>Node7&#45;&gt;Node1</title>
<path fill="none" stroke="#9a32cd" stroke-dasharray="5,2" d="M345.3625,-149.7567C373.5718,-150.7165 405.6982,-155.4426 432,-169 479.2986,-193.3803 513.8357,-250.7781 526.1089,-273.4994"/>
<polygon fill="#9a32cd" stroke="#9a32cd" points="345.2293,-146.2537 335.1649,-149.5641 345.097,-153.2524 345.2293,-146.2537"/>
<text text-anchor="middle" x="392.5" y="-238" font-family="Helvetica,sans-Serif" font-size="10.00" fill="#000000"> rmp_x2_to_x3</text>
<text text-anchor="middle" x="392.5" y="-227" font-family="Helvetica,sans-Serif" font-size="10.00" fill="#000000">rmp_x1_to_x2</text>
<text text-anchor="middle" x="392.5" y="-216" font-family="Helvetica,sans-Serif" font-size="10.00" fill="#000000">rmp_x1_to_split</text>
<text text-anchor="middle" x="392.5" y="-205" font-family="Helvetica,sans-Serif" font-size="10.00" fill="#000000">rmp_x3_to_split</text>
<text text-anchor="middle" x="392.5" y="-194" font-family="Helvetica,sans-Serif" font-size="10.00" fill="#000000">rmp_x3_to_x1</text>
<text text-anchor="middle" x="392.5" y="-183" font-family="Helvetica,sans-Serif" font-size="10.00" fill="#000000">rmp_split_to_x1</text>
<text text-anchor="middle" x="392.5" y="-172" font-family="Helvetica,sans-Serif" font-size="10.00" fill="#000000">rmp_x2_to_split</text>
</g>
<!-- Node8 -->
<g id="node8" class="node">
<title>Node8</title>
<polygon fill="#ffffff" stroke="#bfbfbf" points="232.5,-.5 232.5,-19.5 320.5,-19.5 320.5,-.5 232.5,-.5"/>
<text text-anchor="middle" x="276.5" y="-7.5" font-family="Helvetica,sans-Serif" font-size="10.00" fill="#000000">real(kind=f64)</text>
</g>
<!-- Node8&#45;&gt;Node1 -->
<g id="edge8" class="edge">
<title>Node8&#45;&gt;Node1</title>
<path fill="none" stroke="#9a32cd" stroke-dasharray="5,2" d="M330.7413,-1.882C363.2115,-.028 403.5613,-3.3681 432,-25 516.3883,-89.1901 528.8551,-234.8277 530.6866,-273.4506"/>
<polygon fill="#9a32cd" stroke="#9a32cd" points="330.2112,1.5882 320.501,-2.6499 330.7347,-5.3922 330.2112,1.5882"/>
<text text-anchor="middle" x="392.5" y="-138" font-family="Helvetica,sans-Serif" font-size="10.00" fill="#000000"> dx</text>
<text text-anchor="middle" x="392.5" y="-127" font-family="Helvetica,sans-Serif" font-size="10.00" fill="#000000">dy</text>
<text text-anchor="middle" x="392.5" y="-116" font-family="Helvetica,sans-Serif" font-size="10.00" fill="#000000">ez_x3</text>
<text text-anchor="middle" x="392.5" y="-105" font-family="Helvetica,sans-Serif" font-size="10.00" fill="#000000">ey_x2</text>
<text text-anchor="middle" x="392.5" y="-94" font-family="Helvetica,sans-Serif" font-size="10.00" fill="#000000">ex_x1</text>
<text text-anchor="middle" x="392.5" y="-83" font-family="Helvetica,sans-Serif" font-size="10.00" fill="#000000">dz</text>
<text text-anchor="middle" x="392.5" y="-72" font-family="Helvetica,sans-Serif" font-size="10.00" fill="#000000">lx</text>
<text text-anchor="middle" x="392.5" y="-61" font-family="Helvetica,sans-Serif" font-size="10.00" fill="#000000">phi_x1</text>
<text text-anchor="middle" x="392.5" y="-50" font-family="Helvetica,sans-Serif" font-size="10.00" fill="#000000">ly</text>
<text text-anchor="middle" x="392.5" y="-39" font-family="Helvetica,sans-Serif" font-size="10.00" fill="#000000">phi_x2</text>
<text text-anchor="middle" x="392.5" y="-28" font-family="Helvetica,sans-Serif" font-size="10.00" fill="#000000">...</text>
</g>
</g>
</svg>
