<?xml version="1.0" encoding="UTF-8" standalone="no"?>
<!DOCTYPE svg PUBLIC "-//W3C//DTD SVG 1.1//EN"
 "http://www.w3.org/Graphics/SVG/1.1/DTD/svg11.dtd">
<!-- Generated by graphviz version 2.38.0 (20140413.2041)
 -->
<!-- Title: sll_t_qn_2d_polar Pages: 1 -->
<svg width="248pt" height="238pt"
 viewBox="0.00 0.00 247.50 238.00" xmlns="http://www.w3.org/2000/svg" xmlns:xlink="http://www.w3.org/1999/xlink">
<g id="graph0" class="graph" transform="scale(1 1) rotate(0) translate(4 234)">
<title>sll_t_qn_2d_polar</title>
<polygon fill="white" stroke="none" points="-4,4 -4,-234 243.5,-234 243.5,4 -4,4"/>
<!-- Node1 -->
<g id="node1" class="node"><title>Node1</title>
<polygon fill="#bfbfbf" stroke="black" points="52.5,-0.5 52.5,-19.5 144.5,-19.5 144.5,-0.5 52.5,-0.5"/>
<text text-anchor="middle" x="98.5" y="-7.5" font-family="Helvetica,sans-Serif" font-size="10.00">sll_t_qn_2d_polar</text>
</g>
<!-- Node2 -->
<g id="node2" class="node"><title>Node2</title>
<polygon fill="white" stroke="#bfbfbf" points="0,-210.5 0,-229.5 89,-229.5 89,-210.5 0,-210.5"/>
<text text-anchor="middle" x="44.5" y="-217.5" font-family="Helvetica,sans-Serif" font-size="10.00">integer(kind=i32)</text>
</g>
<!-- Node2&#45;&gt;Node1 -->
<g id="edge1" class="edge"><title>Node2&#45;&gt;Node1</title>
<path fill="none" stroke="#9a32cd" stroke-dasharray="5,2" d="M38.7483,-200.456C29.135,-165.648 13.7987,-89.4083 45.5,-38 50.7034,-29.5619 59.4574,-23.6555 68.3673,-19.5686"/>
<polygon fill="#9a32cd" stroke="#9a32cd" points="35.4365,-201.601 41.6016,-210.218 42.1554,-199.637 35.4365,-201.601"/>
<text text-anchor="middle" x="88" y="-140" font-family="Helvetica,sans-Serif" font-size="10.00"> n_mu_for_phi</text>
<text text-anchor="middle" x="88" y="-129" font-family="Helvetica,sans-Serif" font-size="10.00">size_pre_compute</text>
<text text-anchor="middle" x="88" y="-118" font-family="Helvetica,sans-Serif" font-size="10.00">pre_compute_n</text>
<text text-anchor="middle" x="88" y="-107" font-family="Helvetica,sans-Serif" font-size="10.00">nc</text>
<text text-anchor="middle" x="88" y="-96" font-family="Helvetica,sans-Serif" font-size="10.00">n_points</text>
<text text-anchor="middle" x="88" y="-85" font-family="Helvetica,sans-Serif" font-size="10.00">pre_compute_index</text>
</g>
<!-- Node3 -->
<g id="node3" class="node"><title>Node3</title>
<polygon fill="white" stroke="#bfbfbf" points="114.5,-210.5 114.5,-229.5 190.5,-229.5 190.5,-210.5 114.5,-210.5"/>
<text text-anchor="middle" x="152.5" y="-217.5" font-family="Helvetica,sans-Serif" font-size="10.00">real(kind=f64)</text>
</g>
<!-- Node3&#45;&gt;Node1 -->
<g id="edge2" class="edge"><title>Node3&#45;&gt;Node1</title>
<path fill="none" stroke="#9a32cd" stroke-dasharray="5,2" d="M154.508,-200.405C157.336,-166.052 159.3,-91.293 130.5,-38 126.422,-30.4541 119.305,-24.128 112.816,-19.5005"/>
<polygon fill="#9a32cd" stroke="#9a32cd" points="151.019,-200.131 153.56,-210.416 157.988,-200.791 151.019,-200.131"/>
<text text-anchor="middle" x="197.5" y="-184" font-family="Helvetica,sans-Serif" font-size="10.00"> eta_max</text>
<text text-anchor="middle" x="197.5" y="-173" font-family="Helvetica,sans-Serif" font-size="10.00">mu_points_for_phi</text>
<text text-anchor="middle" x="197.5" y="-162" font-family="Helvetica,sans-Serif" font-size="10.00">points</text>
<text text-anchor="middle" x="197.5" y="-151" font-family="Helvetica,sans-Serif" font-size="10.00">mat_gyro_circ</text>
<text text-anchor="middle" x="197.5" y="-140" font-family="Helvetica,sans-Serif" font-size="10.00">mat_double_gyro</text>
<text text-anchor="start" x="155.5" y="-129" font-family="Helvetica,sans-Serif" font-size="10.00">pre_compute_coeff</text>
<text text-anchor="middle" x="197.5" y="-118" font-family="Helvetica,sans-Serif" font-size="10.00">_spl</text>
<text text-anchor="middle" x="197.5" y="-107" font-family="Helvetica,sans-Serif" font-size="10.00">t_i</text>
<text text-anchor="start" x="155.5" y="-96" font-family="Helvetica,sans-Serif" font-size="10.00">mu_weights_for</text>
<text text-anchor="middle" x="197.5" y="-85" font-family="Helvetica,sans-Serif" font-size="10.00">_phi</text>
<text text-anchor="middle" x="197.5" y="-74" font-family="Helvetica,sans-Serif" font-size="10.00">lambda</text>
<text text-anchor="start" x="155.5" y="-63" font-family="Helvetica,sans-Serif" font-size="10.00">pre_compute</text>
<text text-anchor="middle" x="197.5" y="-52" font-family="Helvetica,sans-Serif" font-size="10.00">_coeff</text>
<text text-anchor="middle" x="197.5" y="-41" font-family="Helvetica,sans-Serif" font-size="10.00">...</text>
</g>
</g>
</svg>
