<?xml version="1.0" encoding="UTF-8" standalone="no"?>
<!DOCTYPE svg PUBLIC "-//W3C//DTD SVG 1.1//EN"
 "http://www.w3.org/Graphics/SVG/1.1/DTD/svg11.dtd">
<!-- Generated by graphviz version 2.43.0 (0)
 -->
<!-- Title: sll_t_mapping_2d Pages: 1 -->
<svg width="312pt" height="186pt"
 viewBox="0.00 0.00 311.50 186.00" xmlns="http://www.w3.org/2000/svg" xmlns:xlink="http://www.w3.org/1999/xlink">
<g id="graph0" class="graph" transform="scale(1 1) rotate(0) translate(4 182)">
<title>sll_t_mapping_2d</title>
<polygon fill="white" stroke="transparent" points="-4,4 -4,-182 307.5,-182 307.5,4 -4,4"/>
<!-- Node1 -->
<g id="node1" class="node">
<title>Node1</title>
<g id="a_node1"><a xlink:title=" ">
<polygon fill="#bfbfbf" stroke="black" points="98.5,-0.5 98.5,-19.5 200.5,-19.5 200.5,-0.5 98.5,-0.5"/>
<text text-anchor="middle" x="149.5" y="-7.5" font-family="Helvetica,sans-Serif" font-size="10.00">sll_t_mapping_2d</text>
</a>
</g>
</g>
<!-- Node2 -->
<g id="node2" class="node">
<title>Node2</title>
<g id="a_node2"><a xlink:href="structsll__m__mapping__2d_1_1matrix__element.html" target="_top" xlink:title=" ">
<polygon fill="white" stroke="black" points="102,-68.5 102,-87.5 197,-87.5 197,-68.5 102,-68.5"/>
<text text-anchor="middle" x="149.5" y="-75.5" font-family="Helvetica,sans-Serif" font-size="10.00">matrix_element</text>
</a>
</g>
</g>
<!-- Node2&#45;&gt;Node1 -->
<g id="edge1" class="edge">
<title>Node2&#45;&gt;Node1</title>
<path fill="none" stroke="#9a32cd" stroke-dasharray="5,2" d="M149.5,-58.04C149.5,-45.47 149.5,-29.56 149.5,-19.84"/>
<polygon fill="#9a32cd" stroke="#9a32cd" points="146,-58.37 149.5,-68.37 153,-58.37 146,-58.37"/>
<text text-anchor="middle" x="171.5" y="-41" font-family="Helvetica,sans-Serif" font-size="10.00"> j_matrix</text>
</g>
<!-- Node3 -->
<g id="node3" class="node">
<title>Node3</title>
<g id="a_node3"><a xlink:title=" ">
<polygon fill="white" stroke="#bfbfbf" points="0,-136.5 0,-177.5 115,-177.5 115,-136.5 0,-136.5"/>
<text text-anchor="start" x="8" y="-165.5" font-family="Helvetica,sans-Serif" font-size="10.00">procedure(sll_i_eval</text>
<text text-anchor="start" x="8" y="-154.5" font-family="Helvetica,sans-Serif" font-size="10.00">_function), pointer,</text>
<text text-anchor="middle" x="57.5" y="-143.5" font-family="Helvetica,sans-Serif" font-size="10.00"> nopass</text>
</a>
</g>
</g>
<!-- Node3&#45;&gt;Node1 -->
<g id="edge4" class="edge">
<title>Node3&#45;&gt;Node1</title>
<path fill="none" stroke="#9a32cd" stroke-dasharray="5,2" d="M46.98,-126.31C42.4,-108.03 40.14,-84.77 50.5,-67 64.93,-42.27 94.77,-27.59 117.94,-19.5"/>
<polygon fill="#9a32cd" stroke="#9a32cd" points="43.68,-127.5 49.78,-136.16 50.41,-125.58 43.68,-127.5"/>
<text text-anchor="middle" x="71.5" y="-81" font-family="Helvetica,sans-Serif" font-size="10.00"> x1_func</text>
<text text-anchor="middle" x="71.5" y="-70" font-family="Helvetica,sans-Serif" font-size="10.00">x2_func</text>
</g>
<!-- Node3&#45;&gt;Node2 -->
<g id="edge2" class="edge">
<title>Node3&#45;&gt;Node2</title>
<path fill="none" stroke="#9a32cd" stroke-dasharray="5,2" d="M88.96,-129.67C106.44,-115.04 127.04,-97.79 139.15,-87.66"/>
<polygon fill="#9a32cd" stroke="#9a32cd" points="86.61,-127.07 81.19,-136.17 91.11,-132.44 86.61,-127.07"/>
<text text-anchor="middle" x="118" y="-110" font-family="Helvetica,sans-Serif" font-size="10.00"> f</text>
</g>
<!-- Node4 -->
<g id="node4" class="node">
<title>Node4</title>
<g id="a_node4"><a xlink:title=" ">
<polygon fill="white" stroke="#bfbfbf" points="215.5,-68.5 215.5,-87.5 303.5,-87.5 303.5,-68.5 215.5,-68.5"/>
<text text-anchor="middle" x="259.5" y="-75.5" font-family="Helvetica,sans-Serif" font-size="10.00">real(kind=f64)</text>
</a>
</g>
</g>
<!-- Node4&#45;&gt;Node1 -->
<g id="edge3" class="edge">
<title>Node4&#45;&gt;Node1</title>
<path fill="none" stroke="#9a32cd" stroke-dasharray="5,2" d="M237.59,-62.85C225.8,-55.33 210.95,-46.01 197.5,-38 186.82,-31.64 174.61,-24.78 165.18,-19.56"/>
<polygon fill="#9a32cd" stroke="#9a32cd" points="236,-65.99 246.31,-68.44 239.78,-60.1 236,-65.99"/>
<text text-anchor="middle" x="234.5" y="-41" font-family="Helvetica,sans-Serif" font-size="10.00"> params</text>
</g>
</g>
</svg>
