<?xml version="1.0" encoding="UTF-8" standalone="no"?>
<!DOCTYPE svg PUBLIC "-//W3C//DTD SVG 1.1//EN"
 "http://www.w3.org/Graphics/SVG/1.1/DTD/svg11.dtd">
<!-- Generated by graphviz version 2.38.0 (20140413.2041)
 -->
<!-- Title: sll_t_cartesian_mesh_3d Pages: 1 -->
<svg width="326pt" height="183pt"
 viewBox="0.00 0.00 326.00 183.00" xmlns="http://www.w3.org/2000/svg" xmlns:xlink="http://www.w3.org/1999/xlink">
<g id="graph0" class="graph" transform="scale(1 1) rotate(0) translate(4 179)">
<title>sll_t_cartesian_mesh_3d</title>
<polygon fill="white" stroke="none" points="-4,4 -4,-179 322,-179 322,4 -4,4"/>
<!-- Node1 -->
<g id="node1" class="node"><title>Node1</title>
<polygon fill="#bfbfbf" stroke="black" points="108.5,-0.5 108.5,-19.5 233.5,-19.5 233.5,-0.5 108.5,-0.5"/>
<text text-anchor="middle" x="171" y="-7.5" font-family="Helvetica,sans-Serif" font-size="10.00">sll_t_cartesian_mesh_3d</text>
</g>
<!-- Node2 -->
<g id="node2" class="node"><title>Node2</title>
<g id="a_node2"><a xlink:href="structsll__m__meshes__base_1_1sll__c__mesh__3d__base.html" target="_top" xlink:title="3D logical mesh ">
<polygon fill="white" stroke="black" points="0,-155.5 0,-174.5 108,-174.5 108,-155.5 0,-155.5"/>
<text text-anchor="middle" x="54" y="-162.5" font-family="Helvetica,sans-Serif" font-size="10.00">sll_c_mesh_3d_base</text>
</a>
</g>
</g>
<!-- Node2&#45;&gt;Node1 -->
<g id="edge1" class="edge"><title>Node2&#45;&gt;Node1</title>
<path fill="none" stroke="midnightblue" d="M66.815,-147.242C91.6894,-114.714 145.714,-44.0658 164.447,-19.5693"/>
<polygon fill="midnightblue" stroke="midnightblue" points="63.9199,-145.266 60.6257,-155.336 69.4805,-149.518 63.9199,-145.266"/>
</g>
<!-- Node3 -->
<g id="node3" class="node"><title>Node3</title>
<polygon fill="white" stroke="#bfbfbf" points="126.5,-155.5 126.5,-174.5 215.5,-174.5 215.5,-155.5 126.5,-155.5"/>
<text text-anchor="middle" x="171" y="-162.5" font-family="Helvetica,sans-Serif" font-size="10.00">integer(kind=i32)</text>
</g>
<!-- Node3&#45;&gt;Node1 -->
<g id="edge2" class="edge"><title>Node3&#45;&gt;Node1</title>
<path fill="none" stroke="#9a32cd" stroke-dasharray="5,2" d="M171,-145.105C171,-111.716 171,-43.5423 171,-19.5693"/>
<polygon fill="#9a32cd" stroke="#9a32cd" points="167.5,-145.336 171,-155.336 174.5,-145.336 167.5,-145.336"/>
<text text-anchor="middle" x="197.5" y="-96" font-family="Helvetica,sans-Serif" font-size="10.00"> num_cells1</text>
<text text-anchor="middle" x="197.5" y="-85" font-family="Helvetica,sans-Serif" font-size="10.00">num_cells2</text>
<text text-anchor="middle" x="197.5" y="-74" font-family="Helvetica,sans-Serif" font-size="10.00">num_cells3</text>
</g>
<!-- Node4 -->
<g id="node4" class="node"><title>Node4</title>
<polygon fill="white" stroke="#bfbfbf" points="234,-155.5 234,-174.5 310,-174.5 310,-155.5 234,-155.5"/>
<text text-anchor="middle" x="272" y="-162.5" font-family="Helvetica,sans-Serif" font-size="10.00">real(kind=f64)</text>
</g>
<!-- Node4&#45;&gt;Node1 -->
<g id="edge3" class="edge"><title>Node4&#45;&gt;Node1</title>
<path fill="none" stroke="#9a32cd" stroke-dasharray="5,2" d="M270.001,-145.2C266.235,-118.364 255.784,-68.91 228,-38 220.534,-29.6936 209.968,-23.72 199.958,-19.539"/>
<polygon fill="#9a32cd" stroke="#9a32cd" points="266.537,-145.702 271.238,-155.196 273.484,-144.842 266.537,-145.702"/>
<text text-anchor="middle" x="293.5" y="-129" font-family="Helvetica,sans-Serif" font-size="10.00"> delta_eta1</text>
<text text-anchor="middle" x="293.5" y="-118" font-family="Helvetica,sans-Serif" font-size="10.00">eta2_max</text>
<text text-anchor="middle" x="293.5" y="-107" font-family="Helvetica,sans-Serif" font-size="10.00">delta_eta2</text>
<text text-anchor="middle" x="293.5" y="-96" font-family="Helvetica,sans-Serif" font-size="10.00">eta3_max</text>
<text text-anchor="middle" x="293.5" y="-85" font-family="Helvetica,sans-Serif" font-size="10.00">delta_eta3</text>
<text text-anchor="middle" x="293.5" y="-74" font-family="Helvetica,sans-Serif" font-size="10.00">eta1_min</text>
<text text-anchor="middle" x="293.5" y="-63" font-family="Helvetica,sans-Serif" font-size="10.00">eta2_min</text>
<text text-anchor="middle" x="293.5" y="-52" font-family="Helvetica,sans-Serif" font-size="10.00">eta3_min</text>
<text text-anchor="middle" x="293.5" y="-41" font-family="Helvetica,sans-Serif" font-size="10.00">eta1_max</text>
</g>
</g>
</svg>
