<?xml version="1.0" encoding="UTF-8" standalone="no"?>
<!DOCTYPE svg PUBLIC "-//W3C//DTD SVG 1.1//EN"
 "http://www.w3.org/Graphics/SVG/1.1/DTD/svg11.dtd">
<!-- Generated by graphviz version 2.40.1 (20161225.0304)
 -->
<!-- Title: sll_c_bsplines Pages: 1 -->
<svg width="201pt" height="117pt"
 viewBox="0.00 0.00 201.00 117.00" xmlns="http://www.w3.org/2000/svg" xmlns:xlink="http://www.w3.org/1999/xlink">
<g id="graph0" class="graph" transform="scale(1 1) rotate(0) translate(4 113)">
<title>sll_c_bsplines</title>
<polygon fill="#ffffff" stroke="transparent" points="-4,4 -4,-113 197,-113 197,4 -4,4"/>
<!-- Node3 -->
<g id="node1" class="node">
<title>Node3</title>
<polygon fill="#bfbfbf" stroke="#000000" points="53.5,-.5 53.5,-19.5 137.5,-19.5 137.5,-.5 53.5,-.5"/>
<text text-anchor="middle" x="95.5" y="-7.5" font-family="Helvetica,sans-Serif" font-size="10.00" fill="#000000">sll_c_bsplines</text>
</g>
<!-- Node4 -->
<g id="node2" class="node">
<title>Node4</title>
<polygon fill="#ffffff" stroke="#bfbfbf" points="0,-89.5 0,-108.5 49,-108.5 49,-89.5 0,-89.5"/>
<text text-anchor="middle" x="24.5" y="-96.5" font-family="Helvetica,sans-Serif" font-size="10.00" fill="#000000">logical</text>
</g>
<!-- Node4&#45;&gt;Node3 -->
<g id="edge1" class="edge">
<title>Node4&#45;&gt;Node3</title>
<path fill="none" stroke="#9a32cd" stroke-dasharray="5,2" d="M28.6545,-79.5554C32.1975,-66.6387 38.3693,-49.9262 48.5,-38 55.018,-30.3268 64.1963,-24.2075 72.7144,-19.6707"/>
<polygon fill="#9a32cd" stroke="#9a32cd" points="25.2412,-78.7793 26.2674,-89.3244 32.0411,-80.441 25.2412,-78.7793"/>
<text text-anchor="middle" x="70" y="-63" font-family="Helvetica,sans-Serif" font-size="10.00" fill="#000000"> periodic</text>
<text text-anchor="middle" x="70" y="-52" font-family="Helvetica,sans-Serif" font-size="10.00" fill="#000000">uniform</text>
<text text-anchor="middle" x="70" y="-41" font-family="Helvetica,sans-Serif" font-size="10.00" fill="#000000">radial</text>
</g>
<!-- Node5 -->
<g id="node3" class="node">
<title>Node5</title>
<polygon fill="#ffffff" stroke="#bfbfbf" points="67,-89.5 67,-108.5 124,-108.5 124,-89.5 67,-89.5"/>
<text text-anchor="middle" x="95.5" y="-96.5" font-family="Helvetica,sans-Serif" font-size="10.00" fill="#000000">real(wp)</text>
</g>
<!-- Node5&#45;&gt;Node3 -->
<g id="edge2" class="edge">
<title>Node5&#45;&gt;Node3</title>
<path fill="none" stroke="#9a32cd" stroke-dasharray="5,2" d="M95.5,-79.2379C95.5,-60.7654 95.5,-33.957 95.5,-19.7259"/>
<polygon fill="#9a32cd" stroke="#9a32cd" points="92.0001,-79.4754 95.5,-89.4754 99.0001,-79.4755 92.0001,-79.4754"/>
<text text-anchor="middle" x="111" y="-63" font-family="Helvetica,sans-Serif" font-size="10.00" fill="#000000"> knots</text>
<text text-anchor="middle" x="111" y="-52" font-family="Helvetica,sans-Serif" font-size="10.00" fill="#000000">xmin</text>
<text text-anchor="middle" x="111" y="-41" font-family="Helvetica,sans-Serif" font-size="10.00" fill="#000000">xmax</text>
</g>
<!-- Node6 -->
<g id="node4" class="node">
<title>Node6</title>
<polygon fill="#ffffff" stroke="#bfbfbf" points="142,-89.5 142,-108.5 193,-108.5 193,-89.5 142,-89.5"/>
<text text-anchor="middle" x="167.5" y="-96.5" font-family="Helvetica,sans-Serif" font-size="10.00" fill="#000000">integer</text>
</g>
<!-- Node6&#45;&gt;Node3 -->
<g id="edge3" class="edge">
<title>Node6&#45;&gt;Node3</title>
<path fill="none" stroke="#9a32cd" stroke-dasharray="5,2" d="M158.25,-80.0589C151.549,-67.3955 141.7216,-50.7779 130.5,-38 124.4409,-31.1006 116.5314,-24.6126 109.7645,-19.6226"/>
<polygon fill="#9a32cd" stroke="#9a32cd" points="155.2597,-81.8995 162.9207,-89.218 161.4957,-78.7195 155.2597,-81.8995"/>
<text text-anchor="middle" x="169.5" y="-63" font-family="Helvetica,sans-Serif" font-size="10.00" fill="#000000"> ncells</text>
<text text-anchor="middle" x="169.5" y="-52" font-family="Helvetica,sans-Serif" font-size="10.00" fill="#000000">degree</text>
<text text-anchor="middle" x="169.5" y="-41" font-family="Helvetica,sans-Serif" font-size="10.00" fill="#000000">nbasis</text>
</g>
</g>
</svg>
