<?xml version="1.0" encoding="UTF-8" standalone="no"?>
<!DOCTYPE svg PUBLIC "-//W3C//DTD SVG 1.1//EN"
 "http://www.w3.org/Graphics/SVG/1.1/DTD/svg11.dtd">
<!-- Generated by graphviz version 2.40.1 (20161225.0304)
 -->
<!-- Title: sll_t_electric_field_accumulator_cs Pages: 1 -->
<svg width="426pt" height="283pt"
 viewBox="0.00 0.00 425.50 283.00" xmlns="http://www.w3.org/2000/svg" xmlns:xlink="http://www.w3.org/1999/xlink">
<g id="graph0" class="graph" transform="scale(1 1) rotate(0) translate(4 279)">
<title>sll_t_electric_field_accumulator_cs</title>
<polygon fill="#ffffff" stroke="transparent" points="-4,4 -4,-279 421.5,-279 421.5,4 -4,4"/>
<!-- Node1 -->
<g id="node1" class="node">
<title>Node1</title>
<polygon fill="#bfbfbf" stroke="#000000" points="213,-.5 213,-30.5 317,-30.5 317,-.5 213,-.5"/>
<text text-anchor="start" x="221" y="-18.5" font-family="Helvetica,sans-Serif" font-size="10.00" fill="#000000">sll_t_electric_field</text>
<text text-anchor="middle" x="265" y="-7.5" font-family="Helvetica,sans-Serif" font-size="10.00" fill="#000000">_accumulator_cs</text>
</g>
<!-- Node2 -->
<g id="node2" class="node">
<title>Node2</title>
<g id="a_node2"><a xlink:href="structsll__m__cartesian__meshes_1_1sll__t__cartesian__mesh__2d.html" target="_top" xlink:title="2D cartesian mesh ">
<polygon fill="#ffffff" stroke="#000000" points="117.5,-78.5 117.5,-97.5 254.5,-97.5 254.5,-78.5 117.5,-78.5"/>
<text text-anchor="middle" x="186" y="-85.5" font-family="Helvetica,sans-Serif" font-size="10.00" fill="#000000">sll_t_cartesian_mesh_2d</text>
</a>
</g>
</g>
<!-- Node2&#45;&gt;Node1 -->
<g id="edge1" class="edge">
<title>Node2&#45;&gt;Node1</title>
<path fill="none" stroke="#9a32cd" stroke-dasharray="5,2" d="M204.282,-71.2222C217.6239,-58.9781 235.5583,-42.5193 248.4721,-30.668"/>
<polygon fill="#9a32cd" stroke="#9a32cd" points="201.6555,-68.8821 196.6543,-78.2223 206.3885,-74.0395 201.6555,-68.8821"/>
<text text-anchor="middle" x="243.5" y="-52" font-family="Helvetica,sans-Serif" font-size="10.00" fill="#000000"> mesh</text>
</g>
<!-- Node3 -->
<g id="node3" class="node">
<title>Node3</title>
<g id="a_node3"><a xlink:href="structsll__m__meshes__base_1_1sll__c__mesh__2d__base.html" target="_top" xlink:title="2D logical mesh ">
<polygon fill="#ffffff" stroke="#000000" points="0,-255.5 0,-274.5 116,-274.5 116,-255.5 0,-255.5"/>
<text text-anchor="middle" x="58" y="-262.5" font-family="Helvetica,sans-Serif" font-size="10.00" fill="#000000">sll_c_mesh_2d_base</text>
</a>
</g>
</g>
<!-- Node3&#45;&gt;Node2 -->
<g id="edge2" class="edge">
<title>Node3&#45;&gt;Node2</title>
<path fill="none" stroke="#191970" d="M70.9149,-247.1411C97.7086,-210.0905 158.5509,-125.957 179.0841,-97.5633"/>
<polygon fill="#191970" stroke="#191970" points="67.9057,-245.3295 64.8818,-255.4837 73.5779,-249.4315 67.9057,-245.3295"/>
</g>
<!-- Node4 -->
<g id="node4" class="node">
<title>Node4</title>
<polygon fill="#ffffff" stroke="#bfbfbf" points="134.5,-255.5 134.5,-274.5 237.5,-274.5 237.5,-255.5 134.5,-255.5"/>
<text text-anchor="middle" x="186" y="-262.5" font-family="Helvetica,sans-Serif" font-size="10.00" fill="#000000">integer(kind=i32)</text>
</g>
<!-- Node4&#45;&gt;Node2 -->
<g id="edge3" class="edge">
<title>Node4&#45;&gt;Node2</title>
<path fill="none" stroke="#9a32cd" stroke-dasharray="5,2" d="M186,-245.2171C186,-207.2545 186,-125.4758 186,-97.5633"/>
<polygon fill="#9a32cd" stroke="#9a32cd" points="182.5001,-245.4837 186,-255.4837 189.5001,-245.4837 182.5001,-245.4837"/>
<text text-anchor="middle" x="215.5" y="-179.5" font-family="Helvetica,sans-Serif" font-size="10.00" fill="#000000"> num_cells1</text>
<text text-anchor="middle" x="215.5" y="-168.5" font-family="Helvetica,sans-Serif" font-size="10.00" fill="#000000">num_cells2</text>
</g>
<!-- Node5 -->
<g id="node5" class="node">
<title>Node5</title>
<polygon fill="#ffffff" stroke="#bfbfbf" points="279,-255.5 279,-274.5 367,-274.5 367,-255.5 279,-255.5"/>
<text text-anchor="middle" x="323" y="-262.5" font-family="Helvetica,sans-Serif" font-size="10.00" fill="#000000">real(kind=f64)</text>
</g>
<!-- Node5&#45;&gt;Node2 -->
<g id="edge4" class="edge">
<title>Node5&#45;&gt;Node2</title>
<path fill="none" stroke="#9a32cd" stroke-dasharray="5,2" d="M282.5177,-250.649C276.5807,-247.0031 271.0969,-242.5084 267,-237 234.4262,-193.2038 279.1625,-159.3521 246,-116 239.6444,-107.6916 230.2258,-101.7519 220.7248,-97.5468"/>
<polygon fill="#9a32cd" stroke="#9a32cd" points="280.961,-253.7853 291.4317,-255.4025 284.2548,-247.6087 280.961,-253.7853"/>
<text text-anchor="middle" x="294.5" y="-201.5" font-family="Helvetica,sans-Serif" font-size="10.00" fill="#000000"> delta_eta1</text>
<text text-anchor="middle" x="294.5" y="-190.5" font-family="Helvetica,sans-Serif" font-size="10.00" fill="#000000">eta2_max</text>
<text text-anchor="middle" x="294.5" y="-179.5" font-family="Helvetica,sans-Serif" font-size="10.00" fill="#000000">delta_eta2</text>
<text text-anchor="middle" x="294.5" y="-168.5" font-family="Helvetica,sans-Serif" font-size="10.00" fill="#000000">eta1_min</text>
<text text-anchor="middle" x="294.5" y="-157.5" font-family="Helvetica,sans-Serif" font-size="10.00" fill="#000000">eta2_min</text>
<text text-anchor="middle" x="294.5" y="-146.5" font-family="Helvetica,sans-Serif" font-size="10.00" fill="#000000">eta1_max</text>
</g>
<!-- Node6 -->
<g id="node6" class="node">
<title>Node6</title>
<g id="a_node6"><a xlink:href="structsll__m__accumulators_1_1sll__t__field__accumulator__cs.html" target="_top" xlink:title="sll_t_field_accumulator_cs">
<polygon fill="#ffffff" stroke="#000000" points="272.5,-78.5 272.5,-97.5 417.5,-97.5 417.5,-78.5 272.5,-78.5"/>
<text text-anchor="middle" x="345" y="-85.5" font-family="Helvetica,sans-Serif" font-size="10.00" fill="#000000">sll_t_field_accumulator_cs</text>
</a>
</g>
</g>
<!-- Node5&#45;&gt;Node6 -->
<g id="edge6" class="edge">
<title>Node5&#45;&gt;Node6</title>
<path fill="none" stroke="#9a32cd" stroke-dasharray="5,2" d="M325.4589,-245.2171C330.1774,-207.2545 340.342,-125.4758 343.8113,-97.5633"/>
<polygon fill="#9a32cd" stroke="#9a32cd" points="321.9431,-245.1283 324.1828,-255.4837 328.8896,-245.9918 321.9431,-245.1283"/>
<text text-anchor="middle" x="368.5" y="-229" font-family="Helvetica,sans-Serif" font-size="10.00" fill="#000000"> ey_ijp1</text>
<text text-anchor="middle" x="368.5" y="-218" font-family="Helvetica,sans-Serif" font-size="10.00" fill="#000000">ex_ijm1</text>
<text text-anchor="middle" x="368.5" y="-207" font-family="Helvetica,sans-Serif" font-size="10.00" fill="#000000">ey_ijp2</text>
<text text-anchor="middle" x="368.5" y="-196" font-family="Helvetica,sans-Serif" font-size="10.00" fill="#000000">ex_ijp1</text>
<text text-anchor="middle" x="368.5" y="-185" font-family="Helvetica,sans-Serif" font-size="10.00" fill="#000000">ex_ijp2</text>
<text text-anchor="middle" x="368.5" y="-174" font-family="Helvetica,sans-Serif" font-size="10.00" fill="#000000">ey_ip2j</text>
<text text-anchor="middle" x="368.5" y="-163" font-family="Helvetica,sans-Serif" font-size="10.00" fill="#000000">ey_im1jm1</text>
<text text-anchor="middle" x="368.5" y="-152" font-family="Helvetica,sans-Serif" font-size="10.00" fill="#000000">ex_ip2j</text>
<text text-anchor="middle" x="368.5" y="-141" font-family="Helvetica,sans-Serif" font-size="10.00" fill="#000000">ex_im1jm1</text>
<text text-anchor="middle" x="368.5" y="-130" font-family="Helvetica,sans-Serif" font-size="10.00" fill="#000000">ex_im1jp1</text>
<text text-anchor="middle" x="368.5" y="-119" font-family="Helvetica,sans-Serif" font-size="10.00" fill="#000000">...</text>
</g>
<!-- Node6&#45;&gt;Node1 -->
<g id="edge5" class="edge">
<title>Node6&#45;&gt;Node1</title>
<path fill="none" stroke="#9a32cd" stroke-dasharray="5,2" d="M326.4866,-71.2222C312.9758,-58.9781 294.8144,-42.5193 281.7371,-30.668"/>
<polygon fill="#9a32cd" stroke="#9a32cd" points="324.4506,-74.1006 334.2108,-78.2223 329.1513,-68.9136 324.4506,-74.1006"/>
<text text-anchor="middle" x="328.5" y="-52" font-family="Helvetica,sans-Serif" font-size="10.00" fill="#000000"> e_acc</text>
</g>
</g>
</svg>
