<?xml version="1.0" encoding="UTF-8" standalone="no"?>
<!DOCTYPE svg PUBLIC "-//W3C//DTD SVG 1.1//EN"
 "http://www.w3.org/Graphics/SVG/1.1/DTD/svg11.dtd">
<!-- Generated by graphviz version 2.43.0 (0)
 -->
<!-- Title: sll_t_periodic_interp_work Pages: 1 -->
<svg width="372pt" height="241pt"
 viewBox="0.00 0.00 371.50 241.00" xmlns="http://www.w3.org/2000/svg" xmlns:xlink="http://www.w3.org/1999/xlink">
<g id="graph0" class="graph" transform="scale(1 1) rotate(0) translate(4 237)">
<title>sll_t_periodic_interp_work</title>
<polygon fill="white" stroke="transparent" points="-4,4 -4,-237 367.5,-237 367.5,4 -4,4"/>
<!-- Node1 -->
<g id="node1" class="node">
<title>Node1</title>
<g id="a_node1"><a xlink:title=" ">
<polygon fill="#bfbfbf" stroke="black" points="127.5,-0.5 127.5,-19.5 271.5,-19.5 271.5,-0.5 127.5,-0.5"/>
<text text-anchor="middle" x="199.5" y="-7.5" font-family="Helvetica,sans-Serif" font-size="10.00">sll_t_periodic_interp_work</text>
</a>
</g>
</g>
<!-- Node2 -->
<g id="node2" class="node">
<title>Node2</title>
<g id="a_node2"><a xlink:href="structsll__m__fft_1_1sll__t__fft.html" target="_top" xlink:title="Type for FFT plan in SeLaLib.">
<polygon fill="white" stroke="black" points="79,-101.5 79,-120.5 132,-120.5 132,-101.5 79,-101.5"/>
<text text-anchor="middle" x="105.5" y="-108.5" font-family="Helvetica,sans-Serif" font-size="10.00">sll_t_fft</text>
</a>
</g>
</g>
<!-- Node2&#45;&gt;Node1 -->
<g id="edge1" class="edge">
<title>Node2&#45;&gt;Node1</title>
<path fill="none" stroke="#9a32cd" stroke-dasharray="5,2" d="M116.38,-92.79C126.63,-77.39 142.97,-54.73 160.5,-38 167.89,-30.95 177.27,-24.4 184.98,-19.51"/>
<polygon fill="#9a32cd" stroke="#9a32cd" points="113.35,-91.03 110.84,-101.32 119.22,-94.85 113.35,-91.03"/>
<text text-anchor="middle" x="173" y="-57.5" font-family="Helvetica,sans-Serif" font-size="10.00"> pinv</text>
<text text-anchor="middle" x="173" y="-46.5" font-family="Helvetica,sans-Serif" font-size="10.00">pfwd</text>
</g>
<!-- Node3 -->
<g id="node3" class="node">
<title>Node3</title>
<g id="a_node3"><a xlink:title=" ">
<polygon fill="white" stroke="#bfbfbf" points="0,-213.5 0,-232.5 49,-232.5 49,-213.5 0,-213.5"/>
<text text-anchor="middle" x="24.5" y="-220.5" font-family="Helvetica,sans-Serif" font-size="10.00">logical</text>
</a>
</g>
</g>
<!-- Node3&#45;&gt;Node2 -->
<g id="edge2" class="edge">
<title>Node3&#45;&gt;Node2</title>
<path fill="none" stroke="#9a32cd" stroke-dasharray="5,2" d="M23.43,-202.91C23.52,-187.57 25.86,-166.17 36.5,-151 46.7,-136.47 64.14,-126.68 78.93,-120.54"/>
<polygon fill="#9a32cd" stroke="#9a32cd" points="19.94,-203.34 23.71,-213.25 26.94,-203.16 19.94,-203.34"/>
<text text-anchor="middle" x="65.5" y="-170.5" font-family="Helvetica,sans-Serif" font-size="10.00"> normalized</text>
</g>
<!-- Node4 -->
<g id="node4" class="node">
<title>Node4</title>
<g id="a_node4"><a xlink:title=" ">
<polygon fill="white" stroke="#bfbfbf" points="107,-213.5 107,-232.5 210,-232.5 210,-213.5 107,-213.5"/>
<text text-anchor="middle" x="158.5" y="-220.5" font-family="Helvetica,sans-Serif" font-size="10.00">integer(kind=i32)</text>
</a>
</g>
</g>
<!-- Node4&#45;&gt;Node1 -->
<g id="edge4" class="edge">
<title>Node4&#45;&gt;Node1</title>
<path fill="none" stroke="#9a32cd" stroke-dasharray="5,2" d="M177.82,-206.26C180.87,-202.87 183.63,-199.07 185.5,-195 213.99,-132.99 204.76,-46.79 200.86,-19.58"/>
<polygon fill="#9a32cd" stroke="#9a32cd" points="175.22,-203.9 170.45,-213.36 180.08,-208.94 175.22,-203.9"/>
<text text-anchor="middle" x="234.5" y="-125" font-family="Helvetica,sans-Serif" font-size="10.00"> sizebuf</text>
<text text-anchor="middle" x="234.5" y="-114" font-family="Helvetica,sans-Serif" font-size="10.00">order</text>
<text text-anchor="middle" x="234.5" y="-103" font-family="Helvetica,sans-Serif" font-size="10.00">n</text>
<text text-anchor="middle" x="234.5" y="-92" font-family="Helvetica,sans-Serif" font-size="10.00">interpolator</text>
</g>
<!-- Node4&#45;&gt;Node2 -->
<g id="edge3" class="edge">
<title>Node4&#45;&gt;Node2</title>
<path fill="none" stroke="#9a32cd" stroke-dasharray="5,2" d="M120.3,-208.52C114.82,-204.95 109.9,-200.51 106.5,-195 91.99,-171.44 98.68,-136.53 102.94,-120.55"/>
<polygon fill="#9a32cd" stroke="#9a32cd" points="118.78,-211.67 129.23,-213.41 122.14,-205.54 118.78,-211.67"/>
<text text-anchor="middle" x="146" y="-187" font-family="Helvetica,sans-Serif" font-size="10.00"> problem_shape</text>
<text text-anchor="middle" x="146" y="-176" font-family="Helvetica,sans-Serif" font-size="10.00">direction</text>
<text text-anchor="middle" x="146" y="-165" font-family="Helvetica,sans-Serif" font-size="10.00">problem_rank</text>
<text text-anchor="middle" x="146" y="-154" font-family="Helvetica,sans-Serif" font-size="10.00">transform_type</text>
</g>
<!-- Node5 -->
<g id="node5" class="node">
<title>Node5</title>
<g id="a_node5"><a xlink:title=" ">
<polygon fill="white" stroke="#bfbfbf" points="275.5,-101.5 275.5,-120.5 363.5,-120.5 363.5,-101.5 275.5,-101.5"/>
<text text-anchor="middle" x="319.5" y="-108.5" font-family="Helvetica,sans-Serif" font-size="10.00">real(kind=f64)</text>
</a>
</g>
</g>
<!-- Node5&#45;&gt;Node1 -->
<g id="edge5" class="edge">
<title>Node5&#45;&gt;Node1</title>
<path fill="none" stroke="#9a32cd" stroke-dasharray="5,2" d="M301.01,-94.75C275.49,-73.69 230.31,-36.42 209.95,-19.62"/>
<polygon fill="#9a32cd" stroke="#9a32cd" points="298.91,-97.55 308.85,-101.21 303.36,-92.15 298.91,-97.55"/>
<text text-anchor="middle" x="316" y="-63" font-family="Helvetica,sans-Serif" font-size="10.00"> eigenvalues_minv</text>
<text text-anchor="middle" x="316" y="-52" font-family="Helvetica,sans-Serif" font-size="10.00">buf</text>
<text text-anchor="middle" x="316" y="-41" font-family="Helvetica,sans-Serif" font-size="10.00">wsave</text>
</g>
</g>
</svg>
