<?xml version="1.0" encoding="UTF-8" standalone="no"?>
<!DOCTYPE svg PUBLIC "-//W3C//DTD SVG 1.1//EN"
 "http://www.w3.org/Graphics/SVG/1.1/DTD/svg11.dtd">
<!-- Generated by graphviz version 2.43.0 (0)
 -->
<!-- Title: sll_t_particle_mesh_coupling_spline_2d_feec Pages: 1 -->
<svg width="374pt" height="450pt"
 viewBox="0.00 0.00 373.50 450.00" xmlns="http://www.w3.org/2000/svg" xmlns:xlink="http://www.w3.org/1999/xlink">
<g id="graph0" class="graph" transform="scale(1 1) rotate(0) translate(4 446)">
<title>sll_t_particle_mesh_coupling_spline_2d_feec</title>
<polygon fill="white" stroke="transparent" points="-4,4 -4,-446 369.5,-446 369.5,4 -4,4"/>
<!-- Node1 -->
<g id="node1" class="node">
<title>Node1</title>
<g id="a_node1"><a xlink:title="Particle mesh coupling in 3d based on (arbitrary degree) spline on a tensor product uniform mesh.">
<polygon fill="#bfbfbf" stroke="black" points="115,-0.5 115,-30.5 256,-30.5 256,-0.5 115,-0.5"/>
<text text-anchor="start" x="123" y="-18.5" font-family="Helvetica,sans-Serif" font-size="10.00">sll_t_particle_mesh</text>
<text text-anchor="middle" x="185.5" y="-7.5" font-family="Helvetica,sans-Serif" font-size="10.00">_coupling_spline_2d_feec</text>
</a>
</g>
</g>
<!-- Node2 -->
<g id="node2" class="node">
<title>Node2</title>
<g id="a_node2"><a xlink:title=" ">
<polygon fill="white" stroke="#bfbfbf" points="0,-422.5 0,-441.5 103,-441.5 103,-422.5 0,-422.5"/>
<text text-anchor="middle" x="51.5" y="-429.5" font-family="Helvetica,sans-Serif" font-size="10.00">integer(kind=i32)</text>
</a>
</g>
</g>
<!-- Node2&#45;&gt;Node1 -->
<g id="edge1" class="edge">
<title>Node2&#45;&gt;Node1</title>
<path fill="none" stroke="#9a32cd" stroke-dasharray="5,2" d="M45.51,-412.89C28.82,-358.85 -12.89,-195.84 52.5,-89 70.41,-59.73 104.63,-41.46 133.86,-30.58"/>
<polygon fill="#9a32cd" stroke="#9a32cd" points="42.19,-413.99 48.56,-422.46 48.86,-411.87 42.19,-413.99"/>
<text text-anchor="middle" x="88" y="-185.5" font-family="Helvetica,sans-Serif" font-size="10.00"> dim</text>
<text text-anchor="middle" x="88" y="-174.5" font-family="Helvetica,sans-Serif" font-size="10.00">n_dofs</text>
<text text-anchor="middle" x="88" y="-163.5" font-family="Helvetica,sans-Serif" font-size="10.00">n_grid</text>
<text text-anchor="middle" x="88" y="-152.5" font-family="Helvetica,sans-Serif" font-size="10.00">n_quad_points</text>
<text text-anchor="middle" x="88" y="-141.5" font-family="Helvetica,sans-Serif" font-size="10.00">n_span</text>
<text text-anchor="middle" x="88" y="-130.5" font-family="Helvetica,sans-Serif" font-size="10.00">no_particles</text>
<text text-anchor="middle" x="88" y="-119.5" font-family="Helvetica,sans-Serif" font-size="10.00">spline_degree</text>
</g>
<!-- Node3 -->
<g id="node3" class="node">
<title>Node3</title>
<g id="a_node3"><a xlink:href="structsll__m__splines__pp_1_1sll__t__spline__pp__1d.html" target="_top" xlink:title="arbitrary degree 1d spline">
<polygon fill="white" stroke="black" points="132.5,-145.5 132.5,-164.5 238.5,-164.5 238.5,-145.5 132.5,-145.5"/>
<text text-anchor="middle" x="185.5" y="-152.5" font-family="Helvetica,sans-Serif" font-size="10.00">sll_t_spline_pp_1d</text>
</a>
</g>
</g>
<!-- Node2&#45;&gt;Node3 -->
<g id="edge3" class="edge">
<title>Node2&#45;&gt;Node3</title>
<path fill="none" stroke="#9a32cd" stroke-dasharray="5,2" d="M51.06,-412.35C50.4,-369.68 50.93,-266.5 70.5,-239 81.57,-223.45 93.43,-231.3 109.5,-221 136.1,-203.95 163.29,-178.29 176.79,-164.88"/>
<polygon fill="#9a32cd" stroke="#9a32cd" points="47.56,-412.53 51.25,-422.46 54.56,-412.39 47.56,-412.53"/>
<text text-anchor="middle" x="123" y="-335.5" font-family="Helvetica,sans-Serif" font-size="10.00"> boundary_conditions</text>
<text text-anchor="middle" x="123" y="-324.5" font-family="Helvetica,sans-Serif" font-size="10.00">degree</text>
<text text-anchor="middle" x="123" y="-313.5" font-family="Helvetica,sans-Serif" font-size="10.00">n_cells</text>
<text text-anchor="middle" x="123" y="-302.5" font-family="Helvetica,sans-Serif" font-size="10.00">n_coeffs</text>
</g>
<!-- Node3&#45;&gt;Node1 -->
<g id="edge2" class="edge">
<title>Node3&#45;&gt;Node1</title>
<path fill="none" stroke="#9a32cd" stroke-dasharray="5,2" d="M185.5,-135.39C185.5,-107.53 185.5,-55.6 185.5,-30.62"/>
<polygon fill="#9a32cd" stroke="#9a32cd" points="182,-135.4 185.5,-145.4 189,-135.4 182,-135.4"/>
<text text-anchor="middle" x="222" y="-63" font-family="Helvetica,sans-Serif" font-size="10.00"> spline_pp1d_0</text>
<text text-anchor="middle" x="222" y="-52" font-family="Helvetica,sans-Serif" font-size="10.00">spline_pp1d_1</text>
</g>
<!-- Node4 -->
<g id="node4" class="node">
<title>Node4</title>
<g id="a_node4"><a xlink:title=" ">
<polygon fill="white" stroke="#bfbfbf" points="219.5,-422.5 219.5,-441.5 307.5,-441.5 307.5,-422.5 219.5,-422.5"/>
<text text-anchor="middle" x="263.5" y="-429.5" font-family="Helvetica,sans-Serif" font-size="10.00">real(kind=f64)</text>
</a>
</g>
</g>
<!-- Node4&#45;&gt;Node1 -->
<g id="edge5" class="edge">
<title>Node4&#45;&gt;Node1</title>
<path fill="none" stroke="#9a32cd" stroke-dasharray="5,2" d="M304.46,-417.57C310.04,-414.02 315.03,-409.57 318.5,-404 357.28,-341.76 328.97,-311.58 318.5,-239 305.93,-151.87 321.14,-114.66 262.5,-49 255.54,-41.21 246.41,-35.23 236.87,-30.66"/>
<polygon fill="#9a32cd" stroke="#9a32cd" points="302.52,-414.64 295.35,-422.44 305.82,-420.82 302.52,-414.64"/>
<text text-anchor="middle" x="340.5" y="-213" font-family="Helvetica,sans-Serif" font-size="10.00"> delta_x</text>
<text text-anchor="middle" x="340.5" y="-202" font-family="Helvetica,sans-Serif" font-size="10.00">domain</text>
<text text-anchor="middle" x="340.5" y="-191" font-family="Helvetica,sans-Serif" font-size="10.00">j1d</text>
<text text-anchor="middle" x="340.5" y="-180" font-family="Helvetica,sans-Serif" font-size="10.00">quad_xw</text>
<text text-anchor="middle" x="340.5" y="-169" font-family="Helvetica,sans-Serif" font-size="10.00">rdelta_x</text>
<text text-anchor="middle" x="340.5" y="-158" font-family="Helvetica,sans-Serif" font-size="10.00">spline_0</text>
<text text-anchor="middle" x="340.5" y="-147" font-family="Helvetica,sans-Serif" font-size="10.00">spline_1</text>
<text text-anchor="middle" x="340.5" y="-136" font-family="Helvetica,sans-Serif" font-size="10.00">spline_2d</text>
<text text-anchor="middle" x="340.5" y="-125" font-family="Helvetica,sans-Serif" font-size="10.00">spline_val</text>
<text text-anchor="start" x="315.5" y="-114" font-family="Helvetica,sans-Serif" font-size="10.00">spline_val</text>
<text text-anchor="middle" x="340.5" y="-103" font-family="Helvetica,sans-Serif" font-size="10.00">_more</text>
<text text-anchor="middle" x="340.5" y="-92" font-family="Helvetica,sans-Serif" font-size="10.00">...</text>
</g>
<!-- Node4&#45;&gt;Node3 -->
<g id="edge4" class="edge">
<title>Node4&#45;&gt;Node3</title>
<path fill="none" stroke="#9a32cd" stroke-dasharray="5,2" d="M212.29,-417.89C206.13,-414.32 200.59,-409.78 196.5,-404 168.55,-364.52 181.16,-203.56 184.69,-164.55"/>
<polygon fill="#9a32cd" stroke="#9a32cd" points="211.13,-421.22 221.65,-422.46 214.2,-414.93 211.13,-421.22"/>
<text text-anchor="middle" x="257.5" y="-396" font-family="Helvetica,sans-Serif" font-size="10.00"> poly_coeffs</text>
<text text-anchor="start" x="196.5" y="-385" font-family="Helvetica,sans-Serif" font-size="10.00">poly_coeffs_boundary</text>
<text text-anchor="middle" x="257.5" y="-374" font-family="Helvetica,sans-Serif" font-size="10.00">_left</text>
<text text-anchor="start" x="196.5" y="-363" font-family="Helvetica,sans-Serif" font-size="10.00">poly_coeffs_boundary</text>
<text text-anchor="middle" x="257.5" y="-352" font-family="Helvetica,sans-Serif" font-size="10.00">_right</text>
<text text-anchor="middle" x="257.5" y="-341" font-family="Helvetica,sans-Serif" font-size="10.00">poly_coeffs_fd</text>
<text text-anchor="start" x="196.5" y="-330" font-family="Helvetica,sans-Serif" font-size="10.00">poly_coeffs_fd_boundary</text>
<text text-anchor="middle" x="257.5" y="-319" font-family="Helvetica,sans-Serif" font-size="10.00">_left</text>
<text text-anchor="start" x="196.5" y="-308" font-family="Helvetica,sans-Serif" font-size="10.00">poly_coeffs_fd_boundary</text>
<text text-anchor="middle" x="257.5" y="-297" font-family="Helvetica,sans-Serif" font-size="10.00">_right</text>
<text text-anchor="middle" x="257.5" y="-286" font-family="Helvetica,sans-Serif" font-size="10.00">poly_coeffs_fp</text>
<text text-anchor="middle" x="257.5" y="-275" font-family="Helvetica,sans-Serif" font-size="10.00">poly_coeffs_fpa</text>
<text text-anchor="middle" x="257.5" y="-264" font-family="Helvetica,sans-Serif" font-size="10.00">scratch_b</text>
<text text-anchor="middle" x="257.5" y="-253" font-family="Helvetica,sans-Serif" font-size="10.00">scratch_p</text>
<text text-anchor="middle" x="257.5" y="-242" font-family="Helvetica,sans-Serif" font-size="10.00">...</text>
</g>
</g>
</svg>
