<?xml version="1.0" encoding="UTF-8" standalone="no"?>
<!DOCTYPE svg PUBLIC "-//W3C//DTD SVG 1.1//EN"
 "http://www.w3.org/Graphics/SVG/1.1/DTD/svg11.dtd">
<!-- Generated by graphviz version 2.40.1 (20161225.0304)
 -->
<!-- Title: maxwell_hex_mesh_fdtd Pages: 1 -->
<svg width="337pt" height="106pt"
 viewBox="0.00 0.00 336.50 106.00" xmlns="http://www.w3.org/2000/svg" xmlns:xlink="http://www.w3.org/1999/xlink">
<g id="graph0" class="graph" transform="scale(1 1) rotate(0) translate(4 102)">
<title>maxwell_hex_mesh_fdtd</title>
<polygon fill="#ffffff" stroke="transparent" points="-4,4 -4,-102 332.5,-102 332.5,4 -4,4"/>
<!-- Node1 -->
<g id="node1" class="node">
<title>Node1</title>
<polygon fill="#bfbfbf" stroke="#000000" points="101,-.5 101,-19.5 240,-19.5 240,-.5 101,-.5"/>
<text text-anchor="middle" x="170.5" y="-7.5" font-family="Helvetica,sans-Serif" font-size="10.00" fill="#000000">maxwell_hex_mesh_fdtd</text>
</g>
<!-- Node2 -->
<g id="node2" class="node">
<title>Node2</title>
<polygon fill="#ffffff" stroke="#bfbfbf" points="0,-78.5 0,-97.5 101,-97.5 101,-78.5 0,-78.5"/>
<text text-anchor="middle" x="50.5" y="-85.5" font-family="Helvetica,sans-Serif" font-size="10.00" fill="#000000">sll_hex_mesh_2d</text>
</g>
<!-- Node2&#45;&gt;Node1 -->
<g id="edge1" class="edge">
<title>Node2&#45;&gt;Node1</title>
<path fill="none" stroke="#9a32cd" stroke-dasharray="5,2" d="M73.799,-72.8557C98.0134,-57.1163 135.1775,-32.9596 155.6653,-19.6426"/>
<polygon fill="#9a32cd" stroke="#9a32cd" points="71.6913,-70.0512 65.2144,-78.4357 75.5063,-75.9203 71.6913,-70.0512"/>
<text text-anchor="middle" x="141" y="-46.5" font-family="Helvetica,sans-Serif" font-size="10.00" fill="#000000"> mesh</text>
</g>
<!-- Node3 -->
<g id="node3" class="node">
<title>Node3</title>
<polygon fill="#ffffff" stroke="#bfbfbf" points="119,-78.5 119,-97.5 222,-97.5 222,-78.5 119,-78.5"/>
<text text-anchor="middle" x="170.5" y="-85.5" font-family="Helvetica,sans-Serif" font-size="10.00" fill="#000000">integer(kind=i32)</text>
</g>
<!-- Node3&#45;&gt;Node1 -->
<g id="edge2" class="edge">
<title>Node3&#45;&gt;Node1</title>
<path fill="none" stroke="#9a32cd" stroke-dasharray="5,2" d="M170.5,-68.2866C170.5,-52.7395 170.5,-31.7276 170.5,-19.6426"/>
<polygon fill="#9a32cd" stroke="#9a32cd" points="167.0001,-68.4356 170.5,-78.4357 174.0001,-68.4357 167.0001,-68.4356"/>
<text text-anchor="middle" x="201" y="-46.5" font-family="Helvetica,sans-Serif" font-size="10.00" fill="#000000"> polarization</text>
</g>
<!-- Node4 -->
<g id="node4" class="node">
<title>Node4</title>
<polygon fill="#ffffff" stroke="#bfbfbf" points="240.5,-78.5 240.5,-97.5 328.5,-97.5 328.5,-78.5 240.5,-78.5"/>
<text text-anchor="middle" x="284.5" y="-85.5" font-family="Helvetica,sans-Serif" font-size="10.00" fill="#000000">real(kind=f64)</text>
</g>
<!-- Node4&#45;&gt;Node1 -->
<g id="edge3" class="edge">
<title>Node4&#45;&gt;Node1</title>
<path fill="none" stroke="#9a32cd" stroke-dasharray="5,2" d="M270.5771,-70.6918C261.4525,-60.1945 248.7873,-47.1123 235.5,-38 224.4547,-30.4253 211.0314,-24.2248 199.2574,-19.6015"/>
<polygon fill="#9a32cd" stroke="#9a32cd" points="267.9673,-73.0264 277.08,-78.431 273.3266,-68.5233 267.9673,-73.0264"/>
<text text-anchor="middle" x="270" y="-52" font-family="Helvetica,sans-Serif" font-size="10.00" fill="#000000"> e_0</text>
<text text-anchor="middle" x="270" y="-41" font-family="Helvetica,sans-Serif" font-size="10.00" fill="#000000">c</text>
</g>
</g>
</svg>
