<?xml version="1.0" encoding="UTF-8" standalone="no"?>
<!DOCTYPE svg PUBLIC "-//W3C//DTD SVG 1.1//EN"
 "http://www.w3.org/Graphics/SVG/1.1/DTD/svg11.dtd">
<!-- Generated by graphviz version 2.40.1 (20161225.0304)
 -->
<!-- Title: sll_t_poisson_2d_fem_fft Pages: 1 -->
<svg width="389pt" height="252pt"
 viewBox="0.00 0.00 388.50 252.00" xmlns="http://www.w3.org/2000/svg" xmlns:xlink="http://www.w3.org/1999/xlink">
<g id="graph0" class="graph" transform="scale(1 1) rotate(0) translate(4 248)">
<title>sll_t_poisson_2d_fem_fft</title>
<polygon fill="#ffffff" stroke="transparent" points="-4,4 -4,-248 384.5,-248 384.5,4 -4,4"/>
<!-- Node1 -->
<g id="node1" class="node">
<title>Node1</title>
<polygon fill="#bfbfbf" stroke="#000000" points="131,-.5 131,-19.5 268,-19.5 268,-.5 131,-.5"/>
<text text-anchor="middle" x="199.5" y="-7.5" font-family="Helvetica,sans-Serif" font-size="10.00" fill="#000000">sll_t_poisson_2d_fem_fft</text>
</g>
<!-- Node2 -->
<g id="node2" class="node">
<title>Node2</title>
<g id="a_node2"><a xlink:href="structsll__m__fft_1_1sll__t__fft.html" target="_top" xlink:title="Type for FFT plan in SeLaLib. ">
<polygon fill="#ffffff" stroke="#000000" points="79,-123.5 79,-142.5 132,-142.5 132,-123.5 79,-123.5"/>
<text text-anchor="middle" x="105.5" y="-130.5" font-family="Helvetica,sans-Serif" font-size="10.00" fill="#000000">sll_t_fft</text>
</a>
</g>
</g>
<!-- Node2&#45;&gt;Node1 -->
<g id="edge1" class="edge">
<title>Node2&#45;&gt;Node1</title>
<path fill="none" stroke="#9a32cd" stroke-dasharray="5,2" d="M114.9313,-114.4C125.6124,-94.334 144.3106,-62.0333 165.5,-38 171.4673,-31.2318 179.1573,-24.754 185.714,-19.737"/>
<polygon fill="#9a32cd" stroke="#9a32cd" points="111.7465,-112.938 110.2307,-123.4238 117.9547,-116.1719 111.7465,-112.938"/>
<text text-anchor="middle" x="175.5" y="-85" font-family="Helvetica,sans-Serif" font-size="10.00" fill="#000000"> fft1</text>
<text text-anchor="middle" x="175.5" y="-74" font-family="Helvetica,sans-Serif" font-size="10.00" fill="#000000">fft2</text>
<text text-anchor="middle" x="175.5" y="-63" font-family="Helvetica,sans-Serif" font-size="10.00" fill="#000000">ifft1</text>
<text text-anchor="middle" x="175.5" y="-52" font-family="Helvetica,sans-Serif" font-size="10.00" fill="#000000">ifft2</text>
</g>
<!-- Node3 -->
<g id="node3" class="node">
<title>Node3</title>
<polygon fill="#ffffff" stroke="#bfbfbf" points="0,-224.5 0,-243.5 49,-243.5 49,-224.5 0,-224.5"/>
<text text-anchor="middle" x="24.5" y="-231.5" font-family="Helvetica,sans-Serif" font-size="10.00" fill="#000000">logical</text>
</g>
<!-- Node3&#45;&gt;Node2 -->
<g id="edge2" class="edge">
<title>Node3&#45;&gt;Node2</title>
<path fill="none" stroke="#9a32cd" stroke-dasharray="5,2" d="M23.231,-214.2367C23.2638,-198.4845 25.7746,-176.7045 37.5,-162 47.6621,-149.256 64.4769,-142.0193 78.8427,-137.962"/>
<polygon fill="#9a32cd" stroke="#9a32cd" points="19.7395,-214.5677 23.5487,-224.4541 26.7361,-214.3501 19.7395,-214.5677"/>
<text text-anchor="middle" x="66.5" y="-181.5" font-family="Helvetica,sans-Serif" font-size="10.00" fill="#000000"> normalized</text>
</g>
<!-- Node4 -->
<g id="node4" class="node">
<title>Node4</title>
<polygon fill="#ffffff" stroke="#bfbfbf" points="107,-224.5 107,-243.5 210,-243.5 210,-224.5 107,-224.5"/>
<text text-anchor="middle" x="158.5" y="-231.5" font-family="Helvetica,sans-Serif" font-size="10.00" fill="#000000">integer(kind=i32)</text>
</g>
<!-- Node4&#45;&gt;Node1 -->
<g id="edge4" class="edge">
<title>Node4&#45;&gt;Node1</title>
<path fill="none" stroke="#9a32cd" stroke-dasharray="5,2" d="M178.1443,-217.2333C181.0728,-213.8168 183.7062,-210.0247 185.5,-206 214.9416,-139.9412 205.2216,-48.8773 201.0107,-19.5255"/>
<polygon fill="#9a32cd" stroke="#9a32cd" points="175.5541,-214.8754 171.0317,-224.4566 180.5419,-219.7868 175.5541,-214.8754"/>
<text text-anchor="middle" x="223.5" y="-136" font-family="Helvetica,sans-Serif" font-size="10.00" fill="#000000"> n_dofs</text>
<text text-anchor="middle" x="223.5" y="-125" font-family="Helvetica,sans-Serif" font-size="10.00" fill="#000000">degree</text>
</g>
<!-- Node4&#45;&gt;Node2 -->
<g id="edge3" class="edge">
<title>Node4&#45;&gt;Node2</title>
<path fill="none" stroke="#9a32cd" stroke-dasharray="5,2" d="M119.3973,-219.1818C114.2755,-215.6238 109.7024,-211.279 106.5,-206 94.5356,-186.2771 99.0777,-157.7012 102.7032,-142.8287"/>
<polygon fill="#9a32cd" stroke="#9a32cd" points="117.9926,-222.4154 128.3897,-224.4528 121.5324,-216.3763 117.9926,-222.4154"/>
<text text-anchor="middle" x="146" y="-198" font-family="Helvetica,sans-Serif" font-size="10.00" fill="#000000"> problem_shape</text>
<text text-anchor="middle" x="146" y="-187" font-family="Helvetica,sans-Serif" font-size="10.00" fill="#000000">direction</text>
<text text-anchor="middle" x="146" y="-176" font-family="Helvetica,sans-Serif" font-size="10.00" fill="#000000">problem_rank</text>
<text text-anchor="middle" x="146" y="-165" font-family="Helvetica,sans-Serif" font-size="10.00" fill="#000000">transform_type</text>
</g>
<!-- Node5 -->
<g id="node5" class="node">
<title>Node5</title>
<polygon fill="#ffffff" stroke="#bfbfbf" points="253.5,-123.5 253.5,-142.5 341.5,-142.5 341.5,-123.5 253.5,-123.5"/>
<text text-anchor="middle" x="297.5" y="-130.5" font-family="Helvetica,sans-Serif" font-size="10.00" fill="#000000">real(kind=f64)</text>
</g>
<!-- Node5&#45;&gt;Node1 -->
<g id="edge5" class="edge">
<title>Node5&#45;&gt;Node1</title>
<path fill="none" stroke="#9a32cd" stroke-dasharray="5,2" d="M283.4283,-115.3386C262.4224,-88.9741 223.5808,-40.2238 207.1542,-19.6068"/>
<polygon fill="#9a32cd" stroke="#9a32cd" points="280.8413,-117.7083 289.8101,-123.3484 286.316,-113.3463 280.8413,-117.7083"/>
<text text-anchor="middle" x="327" y="-96" font-family="Helvetica,sans-Serif" font-size="10.00" fill="#000000"> eig_values_dtm1d_1</text>
<text text-anchor="middle" x="327" y="-85" font-family="Helvetica,sans-Serif" font-size="10.00" fill="#000000">eig_values_dtm1d_2</text>
<text text-anchor="middle" x="327" y="-74" font-family="Helvetica,sans-Serif" font-size="10.00" fill="#000000">delta_x</text>
<text text-anchor="start" x="273.5" y="-63" font-family="Helvetica,sans-Serif" font-size="10.00" fill="#000000">eig_values_mass_0</text>
<text text-anchor="middle" x="327" y="-52" font-family="Helvetica,sans-Serif" font-size="10.00" fill="#000000">_1</text>
<text text-anchor="middle" x="327" y="-41" font-family="Helvetica,sans-Serif" font-size="10.00" fill="#000000">eig_values_mass_0_2</text>
</g>
</g>
</svg>
