<?xml version="1.0" encoding="UTF-8" standalone="no"?>
<!DOCTYPE svg PUBLIC "-//W3C//DTD SVG 1.1//EN"
 "http://www.w3.org/Graphics/SVG/1.1/DTD/svg11.dtd">
<!-- Generated by graphviz version 2.43.0 (0)
 -->
<!-- Title: sll_t_particle_sampling Pages: 1 -->
<svg width="406pt" height="128pt"
 viewBox="0.00 0.00 405.50 128.00" xmlns="http://www.w3.org/2000/svg" xmlns:xlink="http://www.w3.org/1999/xlink">
<g id="graph0" class="graph" transform="scale(1 1) rotate(0) translate(4 124)">
<title>sll_t_particle_sampling</title>
<polygon fill="white" stroke="transparent" points="-4,4 -4,-124 401.5,-124 401.5,4 -4,4"/>
<!-- Node1 -->
<g id="node1" class="node">
<title>Node1</title>
<g id="a_node1"><a xlink:title="Data type for particle sampling.">
<polygon fill="#bfbfbf" stroke="black" points="114,-0.5 114,-19.5 243,-19.5 243,-0.5 114,-0.5"/>
<text text-anchor="middle" x="178.5" y="-7.5" font-family="Helvetica,sans-Serif" font-size="10.00">sll_t_particle_sampling</text>
</a>
</g>
</g>
<!-- Node2 -->
<g id="node2" class="node">
<title>Node2</title>
<g id="a_node2"><a xlink:title=" ">
<polygon fill="white" stroke="#bfbfbf" points="0,-100.5 0,-119.5 49,-119.5 49,-100.5 0,-100.5"/>
<text text-anchor="middle" x="24.5" y="-107.5" font-family="Helvetica,sans-Serif" font-size="10.00">logical</text>
</a>
</g>
</g>
<!-- Node2&#45;&gt;Node1 -->
<g id="edge1" class="edge">
<title>Node2&#45;&gt;Node1</title>
<path fill="none" stroke="#9a32cd" stroke-dasharray="5,2" d="M23.46,-89.77C23.7,-73.69 26.79,-51.32 40.5,-38 51.22,-27.58 83.28,-20.95 113.8,-16.87"/>
<polygon fill="#9a32cd" stroke="#9a32cd" points="19.97,-90.21 23.68,-100.14 26.97,-90.07 19.97,-90.21"/>
<text text-anchor="middle" x="75" y="-74" font-family="Helvetica,sans-Serif" font-size="10.00"> delta_perturb</text>
<text text-anchor="middle" x="75" y="-63" font-family="Helvetica,sans-Serif" font-size="10.00">inverse</text>
<text text-anchor="middle" x="75" y="-52" font-family="Helvetica,sans-Serif" font-size="10.00">uniform</text>
<text text-anchor="middle" x="75" y="-41" font-family="Helvetica,sans-Serif" font-size="10.00">xiprofile</text>
</g>
<!-- Node3 -->
<g id="node3" class="node">
<title>Node3</title>
<g id="a_node3"><a xlink:title=" ">
<polygon fill="white" stroke="#bfbfbf" points="67,-100.5 67,-119.5 170,-119.5 170,-100.5 67,-100.5"/>
<text text-anchor="middle" x="118.5" y="-107.5" font-family="Helvetica,sans-Serif" font-size="10.00">integer(kind=i32)</text>
</a>
</g>
</g>
<!-- Node3&#45;&gt;Node1 -->
<g id="edge2" class="edge">
<title>Node3&#45;&gt;Node1</title>
<path fill="none" stroke="#9a32cd" stroke-dasharray="5,2" d="M114.97,-89.92C113.21,-74.59 113.27,-53.19 123.5,-38 129.2,-29.53 138.36,-23.61 147.58,-19.53"/>
<polygon fill="#9a32cd" stroke="#9a32cd" points="111.58,-90.89 116.54,-100.25 118.5,-89.84 111.58,-90.89"/>
<text text-anchor="middle" x="170.5" y="-74" font-family="Helvetica,sans-Serif" font-size="10.00"> random_numbers</text>
<text text-anchor="middle" x="170.5" y="-63" font-family="Helvetica,sans-Serif" font-size="10.00">random_seed</text>
<text text-anchor="middle" x="170.5" y="-52" font-family="Helvetica,sans-Serif" font-size="10.00">random_seed_start</text>
<text text-anchor="middle" x="170.5" y="-41" font-family="Helvetica,sans-Serif" font-size="10.00">symmetric</text>
</g>
<!-- Node4 -->
<g id="node4" class="node">
<title>Node4</title>
<g id="a_node4"><a xlink:title=" ">
<polygon fill="white" stroke="#bfbfbf" points="188,-100.5 188,-119.5 291,-119.5 291,-100.5 188,-100.5"/>
<text text-anchor="middle" x="239.5" y="-107.5" font-family="Helvetica,sans-Serif" font-size="10.00">integer(kind=i64)</text>
</a>
</g>
</g>
<!-- Node4&#45;&gt;Node1 -->
<g id="edge3" class="edge">
<title>Node4&#45;&gt;Node1</title>
<path fill="none" stroke="#9a32cd" stroke-dasharray="5,2" d="M237.1,-90.04C234.4,-74.79 228.81,-53.42 217.5,-38 211.95,-30.43 203.61,-24.25 196.06,-19.72"/>
<polygon fill="#9a32cd" stroke="#9a32cd" points="233.7,-90.95 238.65,-100.32 240.62,-89.91 233.7,-90.95"/>
<text text-anchor="middle" x="276" y="-63" font-family="Helvetica,sans-Serif" font-size="10.00"> sobol_seed</text>
<text text-anchor="middle" x="276" y="-52" font-family="Helvetica,sans-Serif" font-size="10.00">sobol_seed_start</text>
</g>
<!-- Node5 -->
<g id="node5" class="node">
<title>Node5</title>
<g id="a_node5"><a xlink:title=" ">
<polygon fill="white" stroke="#bfbfbf" points="309.5,-100.5 309.5,-119.5 397.5,-119.5 397.5,-100.5 309.5,-100.5"/>
<text text-anchor="middle" x="353.5" y="-107.5" font-family="Helvetica,sans-Serif" font-size="10.00">real(kind=f64)</text>
</a>
</g>
</g>
<!-- Node5&#45;&gt;Node1 -->
<g id="edge4" class="edge">
<title>Node5&#45;&gt;Node1</title>
<path fill="none" stroke="#9a32cd" stroke-dasharray="5,2" d="M350.13,-90.42C346.16,-74.07 337.9,-50.91 321.5,-38 309.14,-28.27 274.98,-21.62 243.15,-17.35"/>
<polygon fill="#9a32cd" stroke="#9a32cd" points="346.75,-91.38 352.24,-100.44 353.6,-89.94 346.75,-91.38"/>
<text text-anchor="middle" x="356.5" y="-63" font-family="Helvetica,sans-Serif" font-size="10.00"> a</text>
<text text-anchor="middle" x="356.5" y="-52" font-family="Helvetica,sans-Serif" font-size="10.00">eps</text>
</g>
</g>
</svg>
