<?xml version="1.0" encoding="UTF-8" standalone="no"?>
<!DOCTYPE svg PUBLIC "-//W3C//DTD SVG 1.1//EN"
 "http://www.w3.org/Graphics/SVG/1.1/DTD/svg11.dtd">
<!-- Generated by graphviz version 2.38.0 (20140413.2041)
 -->
<!-- Title: sll_t_particle_group_4d Pages: 1 -->
<svg width="885pt" height="346pt"
 viewBox="0.00 0.00 885.00 346.00" xmlns="http://www.w3.org/2000/svg" xmlns:xlink="http://www.w3.org/1999/xlink">
<g id="graph0" class="graph" transform="scale(1 1) rotate(0) translate(4 342)">
<title>sll_t_particle_group_4d</title>
<polygon fill="white" stroke="none" points="-4,4 -4,-342 881,-342 881,4 -4,4"/>
<!-- Node1 -->
<g id="node1" class="node"><title>Node1</title>
<polygon fill="#bfbfbf" stroke="black" points="761,-144.5 761,-163.5 877,-163.5 877,-144.5 761,-144.5"/>
<text text-anchor="middle" x="819" y="-151.5" font-family="Helvetica,sans-Serif" font-size="10.00">sll_t_particle_group_4d</text>
</g>
<!-- Node2 -->
<g id="node2" class="node"><title>Node2</title>
<g id="a_node2"><a xlink:href="structsll__m__cartesian__meshes_1_1sll__t__cartesian__mesh__2d.html" target="_top" xlink:title="2D cartesian mesh ">
<polygon fill="white" stroke="black" points="197,-295.5 197,-314.5 322,-314.5 322,-295.5 197,-295.5"/>
<text text-anchor="middle" x="259.5" y="-302.5" font-family="Helvetica,sans-Serif" font-size="10.00">sll_t_cartesian_mesh_2d</text>
</a>
</g>
</g>
<!-- Node2&#45;&gt;Node1 -->
<g id="edge1" class="edge"><title>Node2&#45;&gt;Node1</title>
<path fill="none" stroke="#9a32cd" stroke-dasharray="5,2" d="M319.236,-316.151C415.685,-331.18 610.151,-347.383 743,-265 782.729,-240.363 806.306,-185.986 814.603,-163.758"/>
<polygon fill="#9a32cd" stroke="#9a32cd" points="319.521,-312.652 309.091,-314.518 318.408,-319.563 319.521,-312.652"/>
<text text-anchor="middle" x="522" y="-330" font-family="Helvetica,sans-Serif" font-size="10.00"> mesh</text>
</g>
<!-- Node3 -->
<g id="node3" class="node"><title>Node3</title>
<g id="a_node3"><a xlink:href="structsll__m__meshes__base_1_1sll__c__mesh__2d__base.html" target="_top" xlink:title="2D logical mesh ">
<polygon fill="white" stroke="black" points="0,-311.5 0,-330.5 108,-330.5 108,-311.5 0,-311.5"/>
<text text-anchor="middle" x="54" y="-318.5" font-family="Helvetica,sans-Serif" font-size="10.00">sll_c_mesh_2d_base</text>
</a>
</g>
</g>
<!-- Node3&#45;&gt;Node2 -->
<g id="edge2" class="edge"><title>Node3&#45;&gt;Node2</title>
<path fill="none" stroke="midnightblue" d="M118.33,-316.021C143.385,-314.051 172.083,-311.794 196.96,-309.839"/>
<polygon fill="midnightblue" stroke="midnightblue" points="117.896,-312.544 108.201,-316.817 118.445,-319.522 117.896,-312.544"/>
</g>
<!-- Node4 -->
<g id="node4" class="node"><title>Node4</title>
<polygon fill="white" stroke="#bfbfbf" points="9.5,-241.5 9.5,-260.5 98.5,-260.5 98.5,-241.5 9.5,-241.5"/>
<text text-anchor="middle" x="54" y="-248.5" font-family="Helvetica,sans-Serif" font-size="10.00">integer(kind=i32)</text>
</g>
<!-- Node4&#45;&gt;Node1 -->
<g id="edge11" class="edge"><title>Node4&#45;&gt;Node1</title>
<path fill="none" stroke="#9a32cd" stroke-dasharray="5,2" d="M108.718,-251C149.747,-251 207.691,-251 258.5,-251 258.5,-251 258.5,-251 621.5,-251 699.872,-251 779.352,-188.19 807.409,-163.655"/>
<polygon fill="#9a32cd" stroke="#9a32cd" points="108.666,-247.5 98.6664,-251 108.666,-254.5 108.666,-247.5"/>
<text text-anchor="middle" x="428.5" y="-287" font-family="Helvetica,sans-Serif" font-size="10.00"> num_postprocess_particles</text>
<text text-anchor="middle" x="428.5" y="-276" font-family="Helvetica,sans-Serif" font-size="10.00">number_particles</text>
<text text-anchor="middle" x="428.5" y="-265" font-family="Helvetica,sans-Serif" font-size="10.00">guard_list_size</text>
<text text-anchor="middle" x="428.5" y="-254" font-family="Helvetica,sans-Serif" font-size="10.00">active_particles</text>
</g>
<!-- Node4&#45;&gt;Node2 -->
<g id="edge3" class="edge"><title>Node4&#45;&gt;Node2</title>
<path fill="none" stroke="#9a32cd" stroke-dasharray="5,2" d="M100.901,-263.18C137.734,-272.954 188.713,-286.482 222.604,-295.475"/>
<polygon fill="#9a32cd" stroke="#9a32cd" points="101.476,-259.712 90.9133,-260.53 99.6811,-266.478 101.476,-259.712"/>
<text text-anchor="middle" x="152.5" y="-296" font-family="Helvetica,sans-Serif" font-size="10.00"> num_cells1</text>
<text text-anchor="middle" x="152.5" y="-285" font-family="Helvetica,sans-Serif" font-size="10.00">num_cells2</text>
</g>
<!-- Node8 -->
<g id="node8" class="node"><title>Node8</title>
<g id="a_node8"><a xlink:href="structsll__m__particle__representations_1_1sll__t__particle__4d.html" target="_top" xlink:title="sll_t_particle_4d">
<polygon fill="white" stroke="black" points="216,-106.5 216,-125.5 303,-125.5 303,-106.5 216,-106.5"/>
<text text-anchor="middle" x="259.5" y="-113.5" font-family="Helvetica,sans-Serif" font-size="10.00">sll_t_particle_4d</text>
</a>
</g>
</g>
<!-- Node4&#45;&gt;Node8 -->
<g id="edge9" class="edge"><title>Node4&#45;&gt;Node8</title>
<path fill="none" stroke="#9a32cd" stroke-dasharray="5,2" d="M61.1974,-231.885C70.7036,-205.851 91.499,-159.875 126,-137 152.4,-119.496 188.145,-114.664 215.855,-113.979"/>
<polygon fill="#9a32cd" stroke="#9a32cd" points="57.8684,-230.802 57.9048,-241.397 64.4834,-233.092 57.8684,-230.802"/>
<text text-anchor="middle" x="152.5" y="-140" font-family="Helvetica,sans-Serif" font-size="10.00"> ic</text>
</g>
<!-- Node5 -->
<g id="node5" class="node"><title>Node5</title>
<polygon fill="white" stroke="#bfbfbf" points="16,-81.5 16,-100.5 92,-100.5 92,-81.5 16,-81.5"/>
<text text-anchor="middle" x="54" y="-88.5" font-family="Helvetica,sans-Serif" font-size="10.00">real(kind=f64)</text>
</g>
<!-- Node5&#45;&gt;Node1 -->
<g id="edge12" class="edge"><title>Node5&#45;&gt;Node1</title>
<path fill="none" stroke="#9a32cd" stroke-dasharray="5,2" d="M101.444,-79.1066C142.467,-69.6505 204.058,-58 258.5,-58 258.5,-58 258.5,-58 621.5,-58 699.714,-58 779.291,-120.162 807.391,-144.444"/>
<polygon fill="#9a32cd" stroke="#9a32cd" points="100.405,-75.7554 91.4741,-81.455 102.01,-82.5689 100.405,-75.7554"/>
<text text-anchor="middle" x="428.5" y="-61" font-family="Helvetica,sans-Serif" font-size="10.00"> qoverm</text>
</g>
<!-- Node5&#45;&gt;Node2 -->
<g id="edge4" class="edge"><title>Node5&#45;&gt;Node2</title>
<path fill="none" stroke="#9a32cd" stroke-dasharray="5,2" d="M75.6272,-106.983C101.204,-127.269 145.514,-163.974 179,-200 209.199,-232.49 239.283,-276.037 252.084,-295.224"/>
<polygon fill="#9a32cd" stroke="#9a32cd" points="77.7376,-104.19 67.7142,-100.757 73.4094,-109.691 77.7376,-104.19"/>
<text text-anchor="middle" x="152.5" y="-258" font-family="Helvetica,sans-Serif" font-size="10.00"> delta_eta1</text>
<text text-anchor="middle" x="152.5" y="-247" font-family="Helvetica,sans-Serif" font-size="10.00">eta2_max</text>
<text text-anchor="middle" x="152.5" y="-236" font-family="Helvetica,sans-Serif" font-size="10.00">delta_eta2</text>
<text text-anchor="middle" x="152.5" y="-225" font-family="Helvetica,sans-Serif" font-size="10.00">eta1_min</text>
<text text-anchor="middle" x="152.5" y="-214" font-family="Helvetica,sans-Serif" font-size="10.00">eta2_min</text>
<text text-anchor="middle" x="152.5" y="-203" font-family="Helvetica,sans-Serif" font-size="10.00">eta1_max</text>
</g>
<!-- Node5&#45;&gt;Node8 -->
<g id="edge10" class="edge"><title>Node5&#45;&gt;Node8</title>
<path fill="none" stroke="#9a32cd" stroke-dasharray="5,2" d="M102.393,-88.2344C125.606,-87.6783 153.897,-88.19 179,-92 197.673,-94.8341 218.053,-101.052 233.503,-106.449"/>
<polygon fill="#9a32cd" stroke="#9a32cd" points="101.999,-84.745 92.1137,-88.5571 102.219,-91.7415 101.999,-84.745"/>
<text text-anchor="middle" x="152.5" y="-106" font-family="Helvetica,sans-Serif" font-size="10.00"> vx</text>
<text text-anchor="middle" x="152.5" y="-95" font-family="Helvetica,sans-Serif" font-size="10.00">vy</text>
</g>
<!-- Node6 -->
<g id="node6" class="node"><title>Node6</title>
<g id="a_node6"><a xlink:href="structsll__m__particle__representations_1_1sll__t__particle__4d__guard__ptr.html" target="_top" xlink:title="sll_t_particle_4d_guard_ptr">
<polygon fill="white" stroke="black" points="554,-106.5 554,-125.5 687,-125.5 687,-106.5 554,-106.5"/>
<text text-anchor="middle" x="620.5" y="-113.5" font-family="Helvetica,sans-Serif" font-size="10.00">sll_t_particle_4d_guard_ptr</text>
</a>
</g>
</g>
<!-- Node6&#45;&gt;Node1 -->
<g id="edge5" class="edge"><title>Node6&#45;&gt;Node1</title>
<path fill="none" stroke="#9a32cd" stroke-dasharray="5,2" d="M697.116,-121.543C712.402,-123.376 728.291,-125.801 743,-129 760.301,-132.763 779.21,-139.082 793.713,-144.425"/>
<polygon fill="#9a32cd" stroke="#9a32cd" points="697.506,-118.065 687.177,-120.421 696.721,-125.021 697.506,-118.065"/>
<text text-anchor="middle" x="724" y="-132" font-family="Helvetica,sans-Serif" font-size="10.00"> p_guard</text>
</g>
<!-- Node7 -->
<g id="node7" class="node"><title>Node7</title>
<g id="a_node7"><a xlink:href="structsll__m__particle__representations_1_1sll__t__particle__4d__guard.html" target="_top" xlink:title="sll_t_particle_4d_guard">
<polygon fill="white" stroke="black" points="370.5,-106.5 370.5,-125.5 486.5,-125.5 486.5,-106.5 370.5,-106.5"/>
<text text-anchor="middle" x="428.5" y="-113.5" font-family="Helvetica,sans-Serif" font-size="10.00">sll_t_particle_4d_guard</text>
</a>
</g>
</g>
<!-- Node7&#45;&gt;Node6 -->
<g id="edge6" class="edge"><title>Node7&#45;&gt;Node6</title>
<path fill="none" stroke="#9a32cd" stroke-dasharray="5,2" d="M496.648,-116C515.227,-116 535.366,-116 553.859,-116"/>
<polygon fill="#9a32cd" stroke="#9a32cd" points="496.506,-112.5 486.506,-116 496.506,-119.5 496.506,-112.5"/>
<text text-anchor="middle" x="522" y="-119" font-family="Helvetica,sans-Serif" font-size="10.00"> g_list</text>
</g>
<!-- Node8&#45;&gt;Node1 -->
<g id="edge13" class="edge"><title>Node8&#45;&gt;Node1</title>
<path fill="none" stroke="#9a32cd" stroke-dasharray="5,2" d="M312.876,-127.105C330.041,-130.272 349.26,-133.317 367,-135 508.212,-148.397 675.193,-152.348 760.914,-153.513"/>
<polygon fill="#9a32cd" stroke="#9a32cd" points="313.51,-123.663 303.033,-125.236 312.204,-130.54 313.51,-123.663"/>
<text text-anchor="middle" x="522" y="-149" font-family="Helvetica,sans-Serif" font-size="10.00"> p_list</text>
</g>
<!-- Node8&#45;&gt;Node7 -->
<g id="edge7" class="edge"><title>Node8&#45;&gt;Node7</title>
<path fill="none" stroke="#9a32cd" stroke-dasharray="5,2" d="M313.174,-116C331.311,-116 351.705,-116 370.193,-116"/>
<polygon fill="#9a32cd" stroke="#9a32cd" points="313.073,-112.5 303.073,-116 313.073,-119.5 313.073,-112.5"/>
<text text-anchor="middle" x="344.5" y="-119" font-family="Helvetica,sans-Serif" font-size="10.00"> p</text>
</g>
<!-- Node9 -->
<g id="node9" class="node"><title>Node9</title>
<polygon fill="white" stroke="#bfbfbf" points="16,-0.5 16,-19.5 92,-19.5 92,-0.5 16,-0.5"/>
<text text-anchor="middle" x="54" y="-7.5" font-family="Helvetica,sans-Serif" font-size="10.00">real(kind=f32)</text>
</g>
<!-- Node9&#45;&gt;Node8 -->
<g id="edge8" class="edge"><title>Node9&#45;&gt;Node8</title>
<path fill="none" stroke="#9a32cd" stroke-dasharray="5,2" d="M102.168,-21.201C126.057,-27.9488 155.004,-37.8172 179,-51 207.126,-66.4514 235.003,-92.3093 249.077,-106.301"/>
<polygon fill="#9a32cd" stroke="#9a32cd" points="102.838,-17.7558 92.2692,-18.4996 100.995,-24.5089 102.838,-17.7558"/>
<text text-anchor="middle" x="152.5" y="-76" font-family="Helvetica,sans-Serif" font-size="10.00"> dx</text>
<text text-anchor="middle" x="152.5" y="-65" font-family="Helvetica,sans-Serif" font-size="10.00">dy</text>
<text text-anchor="middle" x="152.5" y="-54" font-family="Helvetica,sans-Serif" font-size="10.00">q</text>
</g>
</g>
</svg>
