<?xml version="1.0" encoding="UTF-8" standalone="no"?>
<!DOCTYPE svg PUBLIC "-//W3C//DTD SVG 1.1//EN"
 "http://www.w3.org/Graphics/SVG/1.1/DTD/svg11.dtd">
<!-- Generated by graphviz version 2.40.1 (20161225.0304)
 -->
<!-- Title: sll_t_linear_operator_abstract Pages: 1 -->
<svg width="500pt" height="1506pt"
 viewBox="0.00 0.00 500.00 1505.50" xmlns="http://www.w3.org/2000/svg" xmlns:xlink="http://www.w3.org/1999/xlink">
<g id="graph0" class="graph" transform="scale(1 1) rotate(0) translate(4 1501.5)">
<title>sll_t_linear_operator_abstract</title>
<polygon fill="#ffffff" stroke="transparent" points="-4,4 -4,-1501.5 496,-1501.5 496,4 -4,4"/>
<!-- Node0 -->
<g id="node1" class="node">
<title>Node0</title>
<polygon fill="#bfbfbf" stroke="#000000" points="0,-847.5 0,-877.5 116,-877.5 116,-847.5 0,-847.5"/>
<text text-anchor="start" x="8" y="-865.5" font-family="Helvetica,sans-Serif" font-size="10.00" fill="#000000">sll_t_linear_operator</text>
<text text-anchor="middle" x="58" y="-854.5" font-family="Helvetica,sans-Serif" font-size="10.00" fill="#000000">_abstract</text>
</g>
<!-- Node1 -->
<g id="node2" class="node">
<title>Node1</title>
<g id="a_node2"><a xlink:href="structsll__m__extraction__operator__0_1_1sll__t__extraction__operator__0.html" target="_top" xlink:title="sll_t_extraction_operator_0">
<polygon fill="#ffffff" stroke="#000000" points="155,-1478 155,-1497 304,-1497 304,-1478 155,-1478"/>
<text text-anchor="middle" x="229.5" y="-1485" font-family="Helvetica,sans-Serif" font-size="10.00" fill="#000000">sll_t_extraction_operator_0</text>
</a>
</g>
</g>
<!-- Node0&#45;&gt;Node1 -->
<g id="edge1" class="edge">
<title>Node0&#45;&gt;Node1</title>
<path fill="none" stroke="#191970" d="M58.3211,-887.9126C60.1568,-991.6473 72.3326,-1381.6226 152,-1468.5 155.4643,-1472.2778 159.5461,-1475.3605 163.9945,-1477.8701"/>
<polygon fill="#191970" stroke="#191970" points="61.818,-887.6847 58.1589,-877.7418 54.8189,-887.7964 61.818,-887.6847"/>
</g>
<!-- Node2 -->
<g id="node3" class="node">
<title>Node2</title>
<g id="a_node3"><a xlink:href="structsll__m__extraction__operator__11_1_1sll__t__extraction__operator__11.html" target="_top" xlink:title="sll_t_extraction_operator_11">
<polygon fill="#ffffff" stroke="#000000" points="152,-1440 152,-1459 307,-1459 307,-1440 152,-1440"/>
<text text-anchor="middle" x="229.5" y="-1447" font-family="Helvetica,sans-Serif" font-size="10.00" fill="#000000">sll_t_extraction_operator_11</text>
</a>
</g>
</g>
<!-- Node0&#45;&gt;Node2 -->
<g id="edge2" class="edge">
<title>Node0&#45;&gt;Node2</title>
<path fill="none" stroke="#191970" d="M58.6018,-887.5955C61.4951,-986.7386 77.1171,-1349.6647 152,-1430.5 155.4833,-1434.2602 159.5787,-1437.3304 164.0364,-1439.8315"/>
<polygon fill="#191970" stroke="#191970" points="62.1003,-887.4869 58.3277,-877.5865 55.1029,-887.6786 62.1003,-887.4869"/>
</g>
<!-- Node3 -->
<g id="node4" class="node">
<title>Node3</title>
<g id="a_node4"><a xlink:href="structsll__m__extraction__operator__12_1_1sll__t__extraction__operator__12.html" target="_top" xlink:title="sll_t_extraction_operator_12">
<polygon fill="#ffffff" stroke="#000000" points="152,-1402 152,-1421 307,-1421 307,-1402 152,-1402"/>
<text text-anchor="middle" x="229.5" y="-1409" font-family="Helvetica,sans-Serif" font-size="10.00" fill="#000000">sll_t_extraction_operator_12</text>
</a>
</g>
</g>
<!-- Node0&#45;&gt;Node3 -->
<g id="edge3" class="edge">
<title>Node0&#45;&gt;Node3</title>
<path fill="none" stroke="#191970" d="M58.934,-887.7356C62.969,-982.8166 82.0043,-1317.8086 152,-1392.5 155.5997,-1396.3412 159.8383,-1399.4606 164.4469,-1401.988"/>
<polygon fill="#191970" stroke="#191970" points="62.4255,-887.451 58.5231,-877.601 55.4312,-887.7347 62.4255,-887.451"/>
</g>
<!-- Node4 -->
<g id="node5" class="node">
<title>Node4</title>
<g id="a_node5"><a xlink:href="structsll__m__extraction__operator__transposed__0_1_1sll__t__extraction__operator__transposed__0.html" target="_top" xlink:title="sll_t_extraction_operator\l_transposed_0">
<polygon fill="#ffffff" stroke="#000000" points="160.5,-1352.5 160.5,-1382.5 298.5,-1382.5 298.5,-1352.5 160.5,-1352.5"/>
<text text-anchor="start" x="168.5" y="-1370.5" font-family="Helvetica,sans-Serif" font-size="10.00" fill="#000000">sll_t_extraction_operator</text>
<text text-anchor="middle" x="229.5" y="-1359.5" font-family="Helvetica,sans-Serif" font-size="10.00" fill="#000000">_transposed_0</text>
</a>
</g>
</g>
<!-- Node0&#45;&gt;Node4 -->
<g id="edge4" class="edge">
<title>Node0&#45;&gt;Node4</title>
<path fill="none" stroke="#191970" d="M59.5894,-887.8666C65.6757,-977.0974 90.3296,-1274.8289 152,-1343.5 155.1057,-1346.9583 158.6985,-1349.9238 162.6013,-1352.4661"/>
<polygon fill="#191970" stroke="#191970" points="63.0774,-887.5678 58.9234,-877.8213 56.0927,-888.0309 63.0774,-887.5678"/>
</g>
<!-- Node5 -->
<g id="node6" class="node">
<title>Node5</title>
<g id="a_node6"><a xlink:href="structsll__m__extraction__operator__transposed__11_1_1sll__t__extraction__operator__transposed__11.html" target="_top" xlink:title="sll_t_extraction_operator\l_transposed_11">
<polygon fill="#ffffff" stroke="#000000" points="160.5,-1303.5 160.5,-1333.5 298.5,-1333.5 298.5,-1303.5 160.5,-1303.5"/>
<text text-anchor="start" x="168.5" y="-1321.5" font-family="Helvetica,sans-Serif" font-size="10.00" fill="#000000">sll_t_extraction_operator</text>
<text text-anchor="middle" x="229.5" y="-1310.5" font-family="Helvetica,sans-Serif" font-size="10.00" fill="#000000">_transposed_11</text>
</a>
</g>
</g>
<!-- Node0&#45;&gt;Node5 -->
<g id="edge5" class="edge">
<title>Node0&#45;&gt;Node5</title>
<path fill="none" stroke="#191970" d="M60.1844,-887.684C67.8697,-970.6779 96.2573,-1233.7412 152,-1294.5 155.1423,-1297.9251 158.7623,-1300.8659 162.6846,-1303.3905"/>
<polygon fill="#191970" stroke="#191970" points="63.6615,-887.2724 59.2738,-877.6288 56.69,-887.9038 63.6615,-887.2724"/>
</g>
<!-- Node6 -->
<g id="node7" class="node">
<title>Node6</title>
<g id="a_node7"><a xlink:href="structsll__m__extraction__operator__transposed__12_1_1sll__t__extraction__operator__transposed__12.html" target="_top" xlink:title="sll_t_extraction_operator\l_transposed_12">
<polygon fill="#ffffff" stroke="#000000" points="160.5,-1254.5 160.5,-1284.5 298.5,-1284.5 298.5,-1254.5 160.5,-1254.5"/>
<text text-anchor="start" x="168.5" y="-1272.5" font-family="Helvetica,sans-Serif" font-size="10.00" fill="#000000">sll_t_extraction_operator</text>
<text text-anchor="middle" x="229.5" y="-1261.5" font-family="Helvetica,sans-Serif" font-size="10.00" fill="#000000">_transposed_12</text>
</a>
</g>
</g>
<!-- Node0&#45;&gt;Node6 -->
<g id="edge6" class="edge">
<title>Node0&#45;&gt;Node6</title>
<path fill="none" stroke="#191970" d="M60.9563,-887.7955C70.4078,-964.5322 102.2185,-1192.6574 152,-1245.5 155.1873,-1248.8833 158.8406,-1251.7931 162.787,-1254.2953"/>
<polygon fill="#191970" stroke="#191970" points="64.4,-887.1184 59.7246,-877.611 57.4506,-887.9589 64.4,-887.1184"/>
</g>
<!-- Node7 -->
<g id="node8" class="node">
<title>Node7</title>
<g id="a_node8"><a xlink:href="structsll__m__linear__operator__block_1_1sll__t__linear__operator__block.html" target="_top" xlink:title="class for a linear operator_block ">
<polygon fill="#ffffff" stroke="#000000" points="171.5,-1205.5 171.5,-1235.5 287.5,-1235.5 287.5,-1205.5 171.5,-1205.5"/>
<text text-anchor="start" x="179.5" y="-1223.5" font-family="Helvetica,sans-Serif" font-size="10.00" fill="#000000">sll_t_linear_operator</text>
<text text-anchor="middle" x="229.5" y="-1212.5" font-family="Helvetica,sans-Serif" font-size="10.00" fill="#000000">_block</text>
</a>
</g>
</g>
<!-- Node0&#45;&gt;Node7 -->
<g id="edge7" class="edge">
<title>Node0&#45;&gt;Node7</title>
<path fill="none" stroke="#191970" d="M61.9276,-887.7535C73.2739,-957.6466 108.1058,-1151.4508 152,-1196.5 157.4063,-1202.0485 164.0668,-1206.3207 171.1931,-1209.6089"/>
<polygon fill="#191970" stroke="#191970" points="65.3458,-886.9635 60.3105,-877.6417 58.4337,-888.069 65.3458,-886.9635"/>
</g>
<!-- Node8 -->
<g id="node9" class="node">
<title>Node8</title>
<g id="a_node9"><a xlink:href="structsll__m__linear__operator__ecsim_1_1sll__t__linear__operator__ecsim.html" target="_top" xlink:title="sll_t_linear_operator\l_ecsim">
<polygon fill="#ffffff" stroke="#000000" points="171.5,-1156.5 171.5,-1186.5 287.5,-1186.5 287.5,-1156.5 171.5,-1156.5"/>
<text text-anchor="start" x="179.5" y="-1174.5" font-family="Helvetica,sans-Serif" font-size="10.00" fill="#000000">sll_t_linear_operator</text>
<text text-anchor="middle" x="229.5" y="-1163.5" font-family="Helvetica,sans-Serif" font-size="10.00" fill="#000000">_ecsim</text>
</a>
</g>
</g>
<!-- Node0&#45;&gt;Node8 -->
<g id="edge8" class="edge">
<title>Node0&#45;&gt;Node8</title>
<path fill="none" stroke="#191970" d="M63.2257,-887.7379C76.6458,-950.2906 113.9486,-1110.1378 152,-1147.5 157.5277,-1152.9276 164.2575,-1157.1308 171.4176,-1160.3852"/>
<polygon fill="#191970" stroke="#191970" points="66.5683,-886.6279 61.0717,-877.5705 59.7203,-888.0787 66.5683,-886.6279"/>
</g>
<!-- Node9 -->
<g id="node10" class="node">
<title>Node9</title>
<g id="a_node10"><a xlink:href="structsll__m__linear__operator__ecsim__eb_1_1sll__t__linear__operator__ecsim__eb.html" target="_top" xlink:title="sll_t_linear_operator\l_ecsim_eb">
<polygon fill="#ffffff" stroke="#000000" points="171.5,-1107.5 171.5,-1137.5 287.5,-1137.5 287.5,-1107.5 171.5,-1107.5"/>
<text text-anchor="start" x="179.5" y="-1125.5" font-family="Helvetica,sans-Serif" font-size="10.00" fill="#000000">sll_t_linear_operator</text>
<text text-anchor="middle" x="229.5" y="-1114.5" font-family="Helvetica,sans-Serif" font-size="10.00" fill="#000000">_ecsim_eb</text>
</a>
</g>
</g>
<!-- Node0&#45;&gt;Node9 -->
<g id="edge9" class="edge">
<title>Node0&#45;&gt;Node9</title>
<path fill="none" stroke="#191970" d="M60.9227,-887.8702C67.8133,-935.9627 89.5003,-1040.7371 152,-1098.5 157.5858,-1103.6624 164.2634,-1107.7149 171.3237,-1110.8958"/>
<polygon fill="#191970" stroke="#191970" points="64.3595,-887.1628 59.5696,-877.7126 57.4208,-888.0872 64.3595,-887.1628"/>
</g>
<!-- Node10 -->
<g id="node11" class="node">
<title>Node10</title>
<g id="a_node11"><a xlink:href="structsll__m__linear__operator__ecsim__ev_1_1sll__t__linear__operator__ecsim__ev.html" target="_top" xlink:title="sll_t_linear_operator\l_ecsim_ev">
<polygon fill="#ffffff" stroke="#000000" points="171.5,-1058.5 171.5,-1088.5 287.5,-1088.5 287.5,-1058.5 171.5,-1058.5"/>
<text text-anchor="start" x="179.5" y="-1076.5" font-family="Helvetica,sans-Serif" font-size="10.00" fill="#000000">sll_t_linear_operator</text>
<text text-anchor="middle" x="229.5" y="-1065.5" font-family="Helvetica,sans-Serif" font-size="10.00" fill="#000000">_ecsim_ev</text>
</a>
</g>
</g>
<!-- Node0&#45;&gt;Node10 -->
<g id="edge10" class="edge">
<title>Node0&#45;&gt;Node10</title>
<path fill="none" stroke="#191970" d="M63.9466,-887.4659C74.7004,-927.26 101.1359,-1005.0059 152,-1048.5 157.6948,-1053.3696 164.3534,-1057.2945 171.3326,-1060.457"/>
<polygon fill="#191970" stroke="#191970" points="67.328,-886.5618 61.4331,-877.7584 60.5515,-888.3164 67.328,-886.5618"/>
</g>
<!-- Node11 -->
<g id="node12" class="node">
<title>Node11</title>
<g id="a_node12"><a xlink:href="structsll__m__linear__operator__kron_1_1sll__t__linear__operator__kron.html" target="_top" xlink:title="class for a linear operator ">
<polygon fill="#ffffff" stroke="#000000" points="158,-1020 158,-1039 301,-1039 301,-1020 158,-1020"/>
<text text-anchor="middle" x="229.5" y="-1027" font-family="Helvetica,sans-Serif" font-size="10.00" fill="#000000">sll_t_linear_operator_kron</text>
</a>
</g>
</g>
<!-- Node0&#45;&gt;Node11 -->
<g id="edge11" class="edge">
<title>Node0&#45;&gt;Node11</title>
<path fill="none" stroke="#191970" d="M66.8899,-887.2653C80.1423,-920.5431 108.3044,-979.1281 152,-1010.5 157.4016,-1014.3781 163.5022,-1017.4699 169.8498,-1019.9339"/>
<polygon fill="#191970" stroke="#191970" points="70.1098,-885.8869 63.2551,-877.8083 63.5758,-888.3983 70.1098,-885.8869"/>
</g>
<!-- Node12 -->
<g id="node13" class="node">
<title>Node12</title>
<g id="a_node13"><a xlink:href="structsll__m__linear__operator__maxwell__eb__schur_1_1sll__t__linear__operator__maxwell__eb__schur.html" target="_top" xlink:title="sll_t_linear_operator\l_maxwell_eb_schur">
<polygon fill="#ffffff" stroke="#000000" points="171.5,-970.5 171.5,-1000.5 287.5,-1000.5 287.5,-970.5 171.5,-970.5"/>
<text text-anchor="start" x="179.5" y="-988.5" font-family="Helvetica,sans-Serif" font-size="10.00" fill="#000000">sll_t_linear_operator</text>
<text text-anchor="middle" x="229.5" y="-977.5" font-family="Helvetica,sans-Serif" font-size="10.00" fill="#000000">_maxwell_eb_schur</text>
</a>
</g>
</g>
<!-- Node0&#45;&gt;Node12 -->
<g id="edge12" class="edge">
<title>Node0&#45;&gt;Node12</title>
<path fill="none" stroke="#191970" d="M74.5018,-885.8449C91.5133,-908.2815 120.0068,-941.6284 152,-961.5 157.9825,-965.2159 164.5845,-968.3958 171.3358,-971.1073"/>
<polygon fill="#191970" stroke="#191970" points="77.1177,-883.4961 68.353,-877.5438 71.4927,-887.6627 77.1177,-883.4961"/>
</g>
<!-- Node13 -->
<g id="node14" class="node">
<title>Node13</title>
<g id="a_node14"><a xlink:href="structsll__m__linear__operator__penalized_1_1sll__t__linear__operator__penalized.html" target="_top" xlink:title="class for a linear operator_penalized ">
<polygon fill="#ffffff" stroke="#000000" points="171.5,-921.5 171.5,-951.5 287.5,-951.5 287.5,-921.5 171.5,-921.5"/>
<text text-anchor="start" x="179.5" y="-939.5" font-family="Helvetica,sans-Serif" font-size="10.00" fill="#000000">sll_t_linear_operator</text>
<text text-anchor="middle" x="229.5" y="-928.5" font-family="Helvetica,sans-Serif" font-size="10.00" fill="#000000">_penalized</text>
</a>
</g>
</g>
<!-- Node0&#45;&gt;Node13 -->
<g id="edge13" class="edge">
<title>Node0&#45;&gt;Node13</title>
<path fill="none" stroke="#191970" d="M92.0323,-882.6038C109.5633,-892.4402 131.5111,-903.968 152,-912.5 159.6717,-915.6947 167.9237,-918.6916 176.0811,-921.4122"/>
<polygon fill="#191970" stroke="#191970" points="93.7217,-879.5382 83.2985,-877.6389 90.2623,-885.6236 93.7217,-879.5382"/>
</g>
<!-- Node14 -->
<g id="node15" class="node">
<title>Node14</title>
<g id="a_node15"><a xlink:href="structsll__m__linear__operator__poisson__1d_1_1sll__t__linear__operator__poisson__1d.html" target="_top" xlink:title="sll_t_linear_operator\l_poisson_1d">
<polygon fill="#ffffff" stroke="#000000" points="171.5,-872.5 171.5,-902.5 287.5,-902.5 287.5,-872.5 171.5,-872.5"/>
<text text-anchor="start" x="179.5" y="-890.5" font-family="Helvetica,sans-Serif" font-size="10.00" fill="#000000">sll_t_linear_operator</text>
<text text-anchor="middle" x="229.5" y="-879.5" font-family="Helvetica,sans-Serif" font-size="10.00" fill="#000000">_poisson_1d</text>
</a>
</g>
</g>
<!-- Node0&#45;&gt;Node14 -->
<g id="edge14" class="edge">
<title>Node0&#45;&gt;Node14</title>
<path fill="none" stroke="#191970" d="M126.2857,-872.4542C141.2586,-874.6368 156.9734,-876.9276 171.4977,-879.0449"/>
<polygon fill="#191970" stroke="#191970" points="126.4624,-868.943 116.0621,-870.9639 125.4526,-875.8698 126.4624,-868.943"/>
</g>
<!-- Node15 -->
<g id="node16" class="node">
<title>Node15</title>
<g id="a_node16"><a xlink:href="structsll__m__linear__operator__poisson__3d_1_1sll__t__linear__operator__poisson__3d.html" target="_top" xlink:title="sll_t_linear_operator\l_poisson_3d">
<polygon fill="#ffffff" stroke="#000000" points="171.5,-823.5 171.5,-853.5 287.5,-853.5 287.5,-823.5 171.5,-823.5"/>
<text text-anchor="start" x="179.5" y="-841.5" font-family="Helvetica,sans-Serif" font-size="10.00" fill="#000000">sll_t_linear_operator</text>
<text text-anchor="middle" x="229.5" y="-830.5" font-family="Helvetica,sans-Serif" font-size="10.00" fill="#000000">_poisson_3d</text>
</a>
</g>
</g>
<!-- Node0&#45;&gt;Node15 -->
<g id="edge15" class="edge">
<title>Node0&#45;&gt;Node15</title>
<path fill="none" stroke="#191970" d="M126.2857,-852.944C141.2586,-850.8487 156.9734,-848.6495 171.4977,-846.6169"/>
<polygon fill="#191970" stroke="#191970" points="125.4805,-849.5225 116.0621,-854.3747 126.4507,-856.4549 125.4805,-849.5225"/>
</g>
<!-- Node16 -->
<g id="node17" class="node">
<title>Node16</title>
<g id="a_node17"><a xlink:href="structsll__m__linear__operator__poisson__clamped__1d_1_1sll__t__linear__operator__poisson__clamped__1d.html" target="_top" xlink:title="sll_t_linear_operator\l_poisson_clamped_1d">
<polygon fill="#ffffff" stroke="#000000" points="167.5,-774.5 167.5,-804.5 291.5,-804.5 291.5,-774.5 167.5,-774.5"/>
<text text-anchor="start" x="175.5" y="-792.5" font-family="Helvetica,sans-Serif" font-size="10.00" fill="#000000">sll_t_linear_operator</text>
<text text-anchor="middle" x="229.5" y="-781.5" font-family="Helvetica,sans-Serif" font-size="10.00" fill="#000000">_poisson_clamped_1d</text>
</a>
</g>
</g>
<!-- Node0&#45;&gt;Node16 -->
<g id="edge16" class="edge">
<title>Node0&#45;&gt;Node16</title>
<path fill="none" stroke="#191970" d="M93.7711,-842.526C111.0559,-833.3192 132.2831,-822.6528 152,-814.5 160.4921,-810.9886 169.6681,-807.6486 178.6332,-804.6194"/>
<polygon fill="#191970" stroke="#191970" points="91.7501,-839.6393 84.6087,-847.4656 95.072,-845.8009 91.7501,-839.6393"/>
</g>
<!-- Node17 -->
<g id="node18" class="node">
<title>Node17</title>
<g id="a_node18"><a xlink:href="structsll__m__linear__operator__poisson__clamped__3d_1_1sll__t__linear__operator__poisson__clamped__3d.html" target="_top" xlink:title="sll_t_linear_operator\l_poisson_clamped_3d">
<polygon fill="#ffffff" stroke="#000000" points="167.5,-725.5 167.5,-755.5 291.5,-755.5 291.5,-725.5 167.5,-725.5"/>
<text text-anchor="start" x="175.5" y="-743.5" font-family="Helvetica,sans-Serif" font-size="10.00" fill="#000000">sll_t_linear_operator</text>
<text text-anchor="middle" x="229.5" y="-732.5" font-family="Helvetica,sans-Serif" font-size="10.00" fill="#000000">_poisson_clamped_3d</text>
</a>
</g>
</g>
<!-- Node0&#45;&gt;Node17 -->
<g id="edge17" class="edge">
<title>Node0&#45;&gt;Node17</title>
<path fill="none" stroke="#191970" d="M74.9408,-839.3536C92.0989,-817.4449 120.5359,-785.0765 152,-765.5 158.1219,-761.691 164.8805,-758.4075 171.7791,-755.5912"/>
<polygon fill="#191970" stroke="#191970" points="72.0255,-837.4038 68.7234,-847.471 77.5827,-841.6603 72.0255,-837.4038"/>
</g>
<!-- Node18 -->
<g id="node19" class="node">
<title>Node18</title>
<g id="a_node19"><a xlink:href="structsll__m__linear__operator__schur__eb__1d_1_1sll__t__linear__operator__schur__eb__1d.html" target="_top" xlink:title="sll_t_linear_operator\l_schur_eb_1d">
<polygon fill="#ffffff" stroke="#000000" points="171.5,-676.5 171.5,-706.5 287.5,-706.5 287.5,-676.5 171.5,-676.5"/>
<text text-anchor="start" x="179.5" y="-694.5" font-family="Helvetica,sans-Serif" font-size="10.00" fill="#000000">sll_t_linear_operator</text>
<text text-anchor="middle" x="229.5" y="-683.5" font-family="Helvetica,sans-Serif" font-size="10.00" fill="#000000">_schur_eb_1d</text>
</a>
</g>
</g>
<!-- Node0&#45;&gt;Node18 -->
<g id="edge18" class="edge">
<title>Node0&#45;&gt;Node18</title>
<path fill="none" stroke="#191970" d="M67.7019,-837.5875C81.5884,-805.1085 110.1617,-748.6639 152,-716.5 157.8283,-712.0194 164.4865,-708.3275 171.397,-705.2889"/>
<polygon fill="#191970" stroke="#191970" points="64.3016,-836.651 63.7112,-847.2294 70.7695,-839.3281 64.3016,-836.651"/>
</g>
<!-- Node19 -->
<g id="node20" class="node">
<title>Node19</title>
<g id="a_node20"><a xlink:href="structsll__m__linear__operator__schur__eb__3d_1_1sll__t__linear__operator__schur__eb__3d.html" target="_top" xlink:title="sll_t_linear_operator\l_schur_eb_3d">
<polygon fill="#ffffff" stroke="#000000" points="171.5,-627.5 171.5,-657.5 287.5,-657.5 287.5,-627.5 171.5,-627.5"/>
<text text-anchor="start" x="179.5" y="-645.5" font-family="Helvetica,sans-Serif" font-size="10.00" fill="#000000">sll_t_linear_operator</text>
<text text-anchor="middle" x="229.5" y="-634.5" font-family="Helvetica,sans-Serif" font-size="10.00" fill="#000000">_schur_eb_3d</text>
</a>
</g>
</g>
<!-- Node0&#45;&gt;Node19 -->
<g id="edge19" class="edge">
<title>Node0&#45;&gt;Node19</title>
<path fill="none" stroke="#191970" d="M63.2994,-837.5313C73.3524,-796.2127 99.0896,-713.6097 152,-667.5 157.6489,-662.5772 164.2806,-658.6212 171.246,-655.4427"/>
<polygon fill="#191970" stroke="#191970" points="59.8764,-836.7991 61.023,-847.3317 66.6948,-838.3829 59.8764,-836.7991"/>
</g>
<!-- Node20 -->
<g id="node21" class="node">
<title>Node20</title>
<g id="a_node21"><a xlink:href="structsll__m__linear__operator__schur__eb__cl__1d_1_1sll__t__linear__operator__schur__eb__cl__1d.html" target="_top" xlink:title="sll_t_linear_operator\l_schur_eb_cl_1d">
<polygon fill="#ffffff" stroke="#000000" points="171.5,-578.5 171.5,-608.5 287.5,-608.5 287.5,-578.5 171.5,-578.5"/>
<text text-anchor="start" x="179.5" y="-596.5" font-family="Helvetica,sans-Serif" font-size="10.00" fill="#000000">sll_t_linear_operator</text>
<text text-anchor="middle" x="229.5" y="-585.5" font-family="Helvetica,sans-Serif" font-size="10.00" fill="#000000">_schur_eb_cl_1d</text>
</a>
</g>
</g>
<!-- Node0&#45;&gt;Node20 -->
<g id="edge20" class="edge">
<title>Node0&#45;&gt;Node20</title>
<path fill="none" stroke="#191970" d="M60.5812,-837.377C66.9602,-788.2789 87.9166,-679.1109 152,-618.5 157.5464,-613.2541 164.2013,-609.1089 171.2502,-605.8336"/>
<polygon fill="#191970" stroke="#191970" points="57.0902,-837.0929 59.3717,-847.4391 64.0402,-837.9284 57.0902,-837.0929"/>
</g>
<!-- Node21 -->
<g id="node22" class="node">
<title>Node21</title>
<g id="a_node22"><a xlink:href="structsll__m__linear__operator__schur__eb__cl__3d_1_1sll__t__linear__operator__schur__eb__cl__3d.html" target="_top" xlink:title="sll_t_linear_operator\l_schur_eb_cl_3d">
<polygon fill="#ffffff" stroke="#000000" points="171.5,-529.5 171.5,-559.5 287.5,-559.5 287.5,-529.5 171.5,-529.5"/>
<text text-anchor="start" x="179.5" y="-547.5" font-family="Helvetica,sans-Serif" font-size="10.00" fill="#000000">sll_t_linear_operator</text>
<text text-anchor="middle" x="229.5" y="-536.5" font-family="Helvetica,sans-Serif" font-size="10.00" fill="#000000">_schur_eb_cl_3d</text>
</a>
</g>
</g>
<!-- Node0&#45;&gt;Node21 -->
<g id="edge21" class="edge">
<title>Node0&#45;&gt;Node21</title>
<path fill="none" stroke="#191970" d="M62.9828,-837.4259C76.089,-773.7992 113.1974,-608.3646 152,-569.5 157.4938,-563.9974 164.2043,-559.7052 171.355,-556.3574"/>
<polygon fill="#191970" stroke="#191970" points="59.5171,-836.9052 60.9535,-847.4022 66.3766,-838.3006 59.5171,-836.9052"/>
</g>
<!-- Node22 -->
<g id="node23" class="node">
<title>Node22</title>
<g id="a_node23"><a xlink:href="structsll__m__linear__operator__schur__ev__1d_1_1sll__t__linear__operator__schur__ev__1d.html" target="_top" xlink:title="sll_t_linear_operator\l_schur_ev_1d">
<polygon fill="#ffffff" stroke="#000000" points="171.5,-480.5 171.5,-510.5 287.5,-510.5 287.5,-480.5 171.5,-480.5"/>
<text text-anchor="start" x="179.5" y="-498.5" font-family="Helvetica,sans-Serif" font-size="10.00" fill="#000000">sll_t_linear_operator</text>
<text text-anchor="middle" x="229.5" y="-487.5" font-family="Helvetica,sans-Serif" font-size="10.00" fill="#000000">_schur_ev_1d</text>
</a>
</g>
</g>
<!-- Node0&#45;&gt;Node22 -->
<g id="edge22" class="edge">
<title>Node0&#45;&gt;Node22</title>
<path fill="none" stroke="#191970" d="M61.7943,-837.1597C72.9099,-766.0943 107.4423,-567.0539 152,-520.5 157.3765,-514.8827 164.02,-510.5251 171.1379,-507.1452"/>
<polygon fill="#191970" stroke="#191970" points="58.2766,-837.0072 60.2135,-847.4235 65.195,-838.0729 58.2766,-837.0072"/>
</g>
<!-- Node23 -->
<g id="node24" class="node">
<title>Node23</title>
<g id="a_node24"><a xlink:href="structsll__m__linear__operator__schur__ev__3d_1_1sll__t__linear__operator__schur__ev__3d.html" target="_top" xlink:title="sll_t_linear_operator\l_schur_ev_3d">
<polygon fill="#ffffff" stroke="#000000" points="171.5,-431.5 171.5,-461.5 287.5,-461.5 287.5,-431.5 171.5,-431.5"/>
<text text-anchor="start" x="179.5" y="-449.5" font-family="Helvetica,sans-Serif" font-size="10.00" fill="#000000">sll_t_linear_operator</text>
<text text-anchor="middle" x="229.5" y="-438.5" font-family="Helvetica,sans-Serif" font-size="10.00" fill="#000000">_schur_ev_3d</text>
</a>
</g>
</g>
<!-- Node0&#45;&gt;Node23 -->
<g id="edge23" class="edge">
<title>Node0&#45;&gt;Node23</title>
<path fill="none" stroke="#191970" d="M60.909,-836.7074C70.2239,-758.4582 101.6827,-525.8005 152,-471.5 157.3812,-465.6929 164.1166,-461.2301 171.3562,-457.8013"/>
<polygon fill="#191970" stroke="#191970" points="57.3798,-836.7538 59.6957,-847.0924 64.3325,-837.5662 57.3798,-836.7538"/>
</g>
<!-- Node24 -->
<g id="node25" class="node">
<title>Node24</title>
<g id="a_node25"><a xlink:href="structsll__m__linear__operator__schur__phiv__1d_1_1sll__t__linear__operator__schur__phiv__1d.html" target="_top" xlink:title="sll_t_linear_operator\l_schur_phiv_1d">
<polygon fill="#ffffff" stroke="#000000" points="171.5,-382.5 171.5,-412.5 287.5,-412.5 287.5,-382.5 171.5,-382.5"/>
<text text-anchor="start" x="179.5" y="-400.5" font-family="Helvetica,sans-Serif" font-size="10.00" fill="#000000">sll_t_linear_operator</text>
<text text-anchor="middle" x="229.5" y="-389.5" font-family="Helvetica,sans-Serif" font-size="10.00" fill="#000000">_schur_phiv_1d</text>
</a>
</g>
</g>
<!-- Node0&#45;&gt;Node24 -->
<g id="edge24" class="edge">
<title>Node0&#45;&gt;Node24</title>
<path fill="none" stroke="#191970" d="M60.1222,-837.1376C67.6502,-752.9899 95.6951,-484.8352 152,-422.5 157.3068,-416.6248 164.0004,-412.1238 171.2201,-408.6768"/>
<polygon fill="#191970" stroke="#191970" points="56.6347,-836.8424 59.2498,-847.1094 63.6081,-837.4525 56.6347,-836.8424"/>
</g>
<!-- Node25 -->
<g id="node26" class="node">
<title>Node25</title>
<g id="a_node26"><a xlink:href="structsll__m__linear__operator__schur__phiv__3d_1_1sll__t__linear__operator__schur__phiv__3d.html" target="_top" xlink:title="sll_t_linear_operator\l_schur_phiv_3d">
<polygon fill="#ffffff" stroke="#000000" points="171.5,-333.5 171.5,-363.5 287.5,-363.5 287.5,-333.5 171.5,-333.5"/>
<text text-anchor="start" x="179.5" y="-351.5" font-family="Helvetica,sans-Serif" font-size="10.00" fill="#000000">sll_t_linear_operator</text>
<text text-anchor="middle" x="229.5" y="-340.5" font-family="Helvetica,sans-Serif" font-size="10.00" fill="#000000">_schur_phiv_3d</text>
</a>
</g>
</g>
<!-- Node0&#45;&gt;Node25 -->
<g id="edge25" class="edge">
<title>Node0&#45;&gt;Node25</title>
<path fill="none" stroke="#191970" d="M59.5172,-837.3392C65.4249,-747.464 89.7223,-443.8891 152,-373.5 157.3398,-367.4647 164.1439,-362.8776 171.4954,-359.393"/>
<polygon fill="#191970" stroke="#191970" points="56.0169,-837.2346 58.8726,-847.4373 63.0026,-837.6807 56.0169,-837.2346"/>
</g>
<!-- Node26 -->
<g id="node27" class="node">
<title>Node26</title>
<g id="a_node27"><a xlink:href="structsll__m__matrix__abstract_1_1sll__t__matrix__abstract.html" target="_top" xlink:title="abstract class for matrix ">
<polygon fill="#ffffff" stroke="#000000" points="170,-295 170,-314 289,-314 289,-295 170,-295"/>
<text text-anchor="middle" x="229.5" y="-302" font-family="Helvetica,sans-Serif" font-size="10.00" fill="#000000">sll_t_matrix_abstract</text>
</a>
</g>
</g>
<!-- Node0&#45;&gt;Node26 -->
<g id="edge26" class="edge">
<title>Node0&#45;&gt;Node26</title>
<path fill="none" stroke="#191970" d="M58.8921,-837.2304C62.7936,-741.2534 81.4611,-400.8882 152,-324.5 156.9021,-319.1914 163.0103,-315.2143 169.6325,-312.2467"/>
<polygon fill="#191970" stroke="#191970" points="55.386,-837.3216 58.4958,-847.4498 62.3807,-837.593 55.386,-837.3216"/>
</g>
<!-- Node28 -->
<g id="node29" class="node">
<title>Node28</title>
<g id="a_node29"><a xlink:href="structsll__m__particle__mass__1d__base_1_1sll__c__particle__mass__1d__base.html" target="_top" xlink:title="sll_c_particle_mass\l_1d_base">
<polygon fill="#ffffff" stroke="#000000" points="173.5,-245.5 173.5,-275.5 285.5,-275.5 285.5,-245.5 173.5,-245.5"/>
<text text-anchor="start" x="181.5" y="-263.5" font-family="Helvetica,sans-Serif" font-size="10.00" fill="#000000">sll_c_particle_mass</text>
<text text-anchor="middle" x="229.5" y="-252.5" font-family="Helvetica,sans-Serif" font-size="10.00" fill="#000000">_1d_base</text>
</a>
</g>
</g>
<!-- Node0&#45;&gt;Node28 -->
<g id="edge28" class="edge">
<title>Node0&#45;&gt;Node28</title>
<path fill="none" stroke="#191970" d="M58.7138,-837.1644C62.0331,-737.0497 79.0561,-370.3438 152,-285.5 157.7143,-278.8534 165.2065,-273.9599 173.2803,-270.3602"/>
<polygon fill="#191970" stroke="#191970" points="55.2121,-837.1656 58.396,-847.2707 62.2087,-837.3856 55.2121,-837.1656"/>
</g>
<!-- Node32 -->
<g id="node33" class="node">
<title>Node32</title>
<g id="a_node33"><a xlink:href="structsll__m__particle__mass__3d__base_1_1sll__c__particle__mass__3d__base.html" target="_top" xlink:title="sll_c_particle_mass\l_3d_base">
<polygon fill="#ffffff" stroke="#000000" points="173.5,-98.5 173.5,-128.5 285.5,-128.5 285.5,-98.5 173.5,-98.5"/>
<text text-anchor="start" x="181.5" y="-116.5" font-family="Helvetica,sans-Serif" font-size="10.00" fill="#000000">sll_c_particle_mass</text>
<text text-anchor="middle" x="229.5" y="-105.5" font-family="Helvetica,sans-Serif" font-size="10.00" fill="#000000">_3d_base</text>
</a>
</g>
</g>
<!-- Node0&#45;&gt;Node32 -->
<g id="edge32" class="edge">
<title>Node0&#45;&gt;Node32</title>
<path fill="none" stroke="#191970" d="M60.3939,-837.2448C70.3162,-734.8188 109.6793,-350.4371 152,-236.5 167.731,-194.1484 199.3535,-150.8874 216.9532,-128.6946"/>
<polygon fill="#191970" stroke="#191970" points="56.9011,-837.0022 59.4278,-847.2914 63.869,-837.6723 56.9011,-837.0022"/>
</g>
<!-- Node27 -->
<g id="node28" class="node">
<title>Node27</title>
<g id="a_node28"><a xlink:href="structsll__m__matrix__csr_1_1sll__t__matrix__csr.html" target="_top" xlink:title="class for a csr matrix ">
<polygon fill="#ffffff" stroke="#000000" points="370.5,-344 370.5,-363 464.5,-363 464.5,-344 370.5,-344"/>
<text text-anchor="middle" x="417.5" y="-351" font-family="Helvetica,sans-Serif" font-size="10.00" fill="#000000">sll_t_matrix_csr</text>
</a>
</g>
</g>
<!-- Node26&#45;&gt;Node27 -->
<g id="edge27" class="edge">
<title>Node26&#45;&gt;Node27</title>
<path fill="none" stroke="#191970" d="M276.7706,-316.5513C286.7616,-319.1397 297.2352,-321.884 307,-324.5 323.0402,-328.7971 326.9537,-330.2257 343,-334.5 354.8664,-337.6609 367.8255,-341.0038 379.5595,-343.9896"/>
<polygon fill="#191970" stroke="#191970" points="277.542,-313.1357 266.9846,-314.0253 275.7925,-319.9136 277.542,-313.1357"/>
</g>
<!-- Node29 -->
<g id="node30" class="node">
<title>Node29</title>
<g id="a_node30"><a xlink:href="structsll__m__linear__operator__particle__mass__1d_1_1sll__t__linear__operator__particle__mass__1d.html" target="_top" xlink:title="sll_t_linear_operator\l_particle_mass_1d">
<polygon fill="#ffffff" stroke="#000000" points="359.5,-294.5 359.5,-324.5 475.5,-324.5 475.5,-294.5 359.5,-294.5"/>
<text text-anchor="start" x="367.5" y="-312.5" font-family="Helvetica,sans-Serif" font-size="10.00" fill="#000000">sll_t_linear_operator</text>
<text text-anchor="middle" x="417.5" y="-301.5" font-family="Helvetica,sans-Serif" font-size="10.00" fill="#000000">_particle_mass_1d</text>
</a>
</g>
</g>
<!-- Node28&#45;&gt;Node29 -->
<g id="edge29" class="edge">
<title>Node28&#45;&gt;Node29</title>
<path fill="none" stroke="#191970" d="M295.4286,-277.6835C316.3705,-283.1418 339.359,-289.1335 359.684,-294.4309"/>
<polygon fill="#191970" stroke="#191970" points="296.211,-274.2706 285.6515,-275.1352 294.4455,-281.0443 296.211,-274.2706"/>
</g>
<!-- Node30 -->
<g id="node31" class="node">
<title>Node30</title>
<g id="a_node31"><a xlink:href="structsll__m__linear__operator__particle__mass__cl__1d_1_1sll__t__linear__operator__particle__mass__cl__1d.html" target="_top" xlink:title="sll_t_linear_operator\l_particle_mass_cl_1d">
<polygon fill="#ffffff" stroke="#000000" points="357,-245.5 357,-275.5 478,-275.5 478,-245.5 357,-245.5"/>
<text text-anchor="start" x="365" y="-263.5" font-family="Helvetica,sans-Serif" font-size="10.00" fill="#000000">sll_t_linear_operator</text>
<text text-anchor="middle" x="417.5" y="-252.5" font-family="Helvetica,sans-Serif" font-size="10.00" fill="#000000">_particle_mass_cl_1d</text>
</a>
</g>
</g>
<!-- Node28&#45;&gt;Node30 -->
<g id="edge30" class="edge">
<title>Node28&#45;&gt;Node30</title>
<path fill="none" stroke="#191970" d="M295.8316,-260.5C315.6531,-260.5 337.2765,-260.5 356.7229,-260.5"/>
<polygon fill="#191970" stroke="#191970" points="295.6516,-257.0001 285.6515,-260.5 295.6515,-264.0001 295.6516,-257.0001"/>
</g>
<!-- Node31 -->
<g id="node32" class="node">
<title>Node31</title>
<g id="a_node32"><a xlink:href="structsll__m__linear__operator__particle__mass__smooth__1d_1_1sll__t__linear__operator__particle__mass__smooth__1d.html" target="_top" xlink:title="sll_t_linear_operator\l_particle_mass_smooth_1d">
<polygon fill="#ffffff" stroke="#000000" points="343,-196.5 343,-226.5 492,-226.5 492,-196.5 343,-196.5"/>
<text text-anchor="start" x="351" y="-214.5" font-family="Helvetica,sans-Serif" font-size="10.00" fill="#000000">sll_t_linear_operator</text>
<text text-anchor="middle" x="417.5" y="-203.5" font-family="Helvetica,sans-Serif" font-size="10.00" fill="#000000">_particle_mass_smooth_1d</text>
</a>
</g>
</g>
<!-- Node28&#45;&gt;Node31 -->
<g id="edge31" class="edge">
<title>Node28&#45;&gt;Node31</title>
<path fill="none" stroke="#191970" d="M295.4286,-243.3165C316.3705,-237.8582 339.359,-231.8665 359.684,-226.5691"/>
<polygon fill="#191970" stroke="#191970" points="294.4455,-239.9557 285.6515,-245.8648 296.211,-246.7294 294.4455,-239.9557"/>
</g>
<!-- Node33 -->
<g id="node34" class="node">
<title>Node33</title>
<g id="a_node34"><a xlink:href="structsll__m__linear__operator__particle__mass__3d__diag_1_1sll__t__linear__operator__particle__mass__3d__diag.html" target="_top" xlink:title="sll_t_linear_operator\l_particle_mass_3d_diag">
<polygon fill="#ffffff" stroke="#000000" points="350.5,-147.5 350.5,-177.5 484.5,-177.5 484.5,-147.5 350.5,-147.5"/>
<text text-anchor="start" x="358.5" y="-165.5" font-family="Helvetica,sans-Serif" font-size="10.00" fill="#000000">sll_t_linear_operator</text>
<text text-anchor="middle" x="417.5" y="-154.5" font-family="Helvetica,sans-Serif" font-size="10.00" fill="#000000">_particle_mass_3d_diag</text>
</a>
</g>
</g>
<!-- Node32&#45;&gt;Node33 -->
<g id="edge33" class="edge">
<title>Node32&#45;&gt;Node33</title>
<path fill="none" stroke="#191970" d="M295.4286,-130.6835C316.3705,-136.1418 339.359,-142.1335 359.684,-147.4309"/>
<polygon fill="#191970" stroke="#191970" points="296.211,-127.2706 285.6515,-128.1352 294.4455,-134.0443 296.211,-127.2706"/>
</g>
<!-- Node34 -->
<g id="node35" class="node">
<title>Node34</title>
<g id="a_node35"><a xlink:href="structsll__m__linear__operator__particle__mass__3d__od_1_1sll__t__linear__operator__particle__mass__3d__od.html" target="_top" xlink:title="sll_t_linear_operator\l_particle_mass_3d_od">
<polygon fill="#ffffff" stroke="#000000" points="355,-98.5 355,-128.5 480,-128.5 480,-98.5 355,-98.5"/>
<text text-anchor="start" x="363" y="-116.5" font-family="Helvetica,sans-Serif" font-size="10.00" fill="#000000">sll_t_linear_operator</text>
<text text-anchor="middle" x="417.5" y="-105.5" font-family="Helvetica,sans-Serif" font-size="10.00" fill="#000000">_particle_mass_3d_od</text>
</a>
</g>
</g>
<!-- Node32&#45;&gt;Node34 -->
<g id="edge34" class="edge">
<title>Node32&#45;&gt;Node34</title>
<path fill="none" stroke="#191970" d="M295.796,-113.5C314.9526,-113.5 335.7949,-113.5 354.7298,-113.5"/>
<polygon fill="#191970" stroke="#191970" points="295.6516,-110.0001 285.6515,-113.5 295.6515,-117.0001 295.6516,-110.0001"/>
</g>
<!-- Node35 -->
<g id="node36" class="node">
<title>Node35</title>
<g id="a_node36"><a xlink:href="structsll__m__linear__operator__particle__mass__cl__3d__diag_1_1sll__t__linear__operator__particle__mass__cl__3d__diag.html" target="_top" xlink:title="sll_t_linear_operator\l_particle_mass_cl_3d_diag">
<polygon fill="#ffffff" stroke="#000000" points="344,-49.5 344,-79.5 491,-79.5 491,-49.5 344,-49.5"/>
<text text-anchor="start" x="352" y="-67.5" font-family="Helvetica,sans-Serif" font-size="10.00" fill="#000000">sll_t_linear_operator</text>
<text text-anchor="middle" x="417.5" y="-56.5" font-family="Helvetica,sans-Serif" font-size="10.00" fill="#000000">_particle_mass_cl_3d_diag</text>
</a>
</g>
</g>
<!-- Node32&#45;&gt;Node35 -->
<g id="edge35" class="edge">
<title>Node32&#45;&gt;Node35</title>
<path fill="none" stroke="#191970" d="M295.4286,-96.3165C316.3705,-90.8582 339.359,-84.8665 359.684,-79.5691"/>
<polygon fill="#191970" stroke="#191970" points="294.4455,-92.9557 285.6515,-98.8648 296.211,-99.7294 294.4455,-92.9557"/>
</g>
<!-- Node36 -->
<g id="node37" class="node">
<title>Node36</title>
<g id="a_node37"><a xlink:href="structsll__m__linear__operator__particle__mass__cl__3d__od_1_1sll__t__linear__operator__particle__mass__cl__3d__od.html" target="_top" xlink:title="sll_t_linear_operator\l_particle_mass_cl_3d_od">
<polygon fill="#ffffff" stroke="#000000" points="348.5,-.5 348.5,-30.5 486.5,-30.5 486.5,-.5 348.5,-.5"/>
<text text-anchor="start" x="356.5" y="-18.5" font-family="Helvetica,sans-Serif" font-size="10.00" fill="#000000">sll_t_linear_operator</text>
<text text-anchor="middle" x="417.5" y="-7.5" font-family="Helvetica,sans-Serif" font-size="10.00" fill="#000000">_particle_mass_cl_3d_od</text>
</a>
</g>
</g>
<!-- Node32&#45;&gt;Node36 -->
<g id="edge36" class="edge">
<title>Node32&#45;&gt;Node36</title>
<path fill="none" stroke="#191970" d="M257.3395,-92.325C279.5898,-76.1646 312.0681,-54.2405 343,-39.5 349.8695,-36.2264 357.2985,-33.2365 364.7136,-30.563"/>
<polygon fill="#191970" stroke="#191970" points="255.028,-89.6804 249.0469,-98.4256 259.1761,-95.3189 255.028,-89.6804"/>
</g>
</g>
</svg>
