<?xml version="1.0" encoding="UTF-8" standalone="no"?>
<!DOCTYPE svg PUBLIC "-//W3C//DTD SVG 1.1//EN"
 "http://www.w3.org/Graphics/SVG/1.1/DTD/svg11.dtd">
<!-- Generated by graphviz version 2.43.0 (0)
 -->
<!-- Title: sll_c_poisson_1d_base Pages: 1 -->
<svg width="292pt" height="84pt"
 viewBox="0.00 0.00 291.50 84.00" xmlns="http://www.w3.org/2000/svg" xmlns:xlink="http://www.w3.org/1999/xlink">
<g id="graph0" class="graph" transform="scale(1 1) rotate(0) translate(4 80)">
<title>sll_c_poisson_1d_base</title>
<polygon fill="white" stroke="transparent" points="-4,4 -4,-80 287.5,-80 287.5,4 -4,4"/>
<!-- Node1 -->
<g id="node1" class="node">
<title>Node1</title>
<g id="a_node1"><a xlink:title=" ">
<polygon fill="#bfbfbf" stroke="black" points="72.5,-56.5 72.5,-75.5 199.5,-75.5 199.5,-56.5 72.5,-56.5"/>
<text text-anchor="middle" x="136" y="-63.5" font-family="Helvetica,sans-Serif" font-size="10.00">sll_c_poisson_1d_base</text>
</a>
</g>
</g>
<!-- Node2 -->
<g id="node2" class="node">
<title>Node2</title>
<g id="a_node2"><a xlink:href="structsll__m__poisson__1d__hmf_1_1sll__t__poisson__1d__hmf.html" target="_top" xlink:title="Implementation of the poisson 1d solver for the Vlasov&#45;HMF model.">
<polygon fill="white" stroke="black" points="0,-0.5 0,-19.5 122,-19.5 122,-0.5 0,-0.5"/>
<text text-anchor="middle" x="61" y="-7.5" font-family="Helvetica,sans-Serif" font-size="10.00">sll_t_poisson_1d_hmf</text>
</a>
</g>
</g>
<!-- Node1&#45;&gt;Node2 -->
<g id="edge1" class="edge">
<title>Node1&#45;&gt;Node2</title>
<path fill="none" stroke="midnightblue" d="M115.69,-50.38C102.14,-40.62 84.76,-28.11 73.27,-19.83"/>
<polygon fill="midnightblue" stroke="midnightblue" points="113.79,-53.32 123.95,-56.32 117.88,-47.64 113.79,-53.32"/>
</g>
<!-- Node3 -->
<g id="node3" class="node">
<title>Node3</title>
<g id="a_node3"><a xlink:href="structsll__m__poisson__1d__periodic_1_1sll__c__poisson__1d__periodic.html" target="_top" xlink:title=" ">
<polygon fill="white" stroke="black" points="140.5,-0.5 140.5,-19.5 283.5,-19.5 283.5,-0.5 140.5,-0.5"/>
<text text-anchor="middle" x="212" y="-7.5" font-family="Helvetica,sans-Serif" font-size="10.00">sll_c_poisson_1d_periodic</text>
</a>
</g>
</g>
<!-- Node1&#45;&gt;Node3 -->
<g id="edge2" class="edge">
<title>Node1&#45;&gt;Node3</title>
<path fill="none" stroke="midnightblue" d="M156.58,-50.38C170.31,-40.62 187.93,-28.11 199.57,-19.83"/>
<polygon fill="midnightblue" stroke="midnightblue" points="154.34,-47.68 148.21,-56.32 158.39,-53.38 154.34,-47.68"/>
</g>
</g>
</svg>
