<?xml version="1.0" encoding="UTF-8" standalone="no"?>
<!DOCTYPE svg PUBLIC "-//W3C//DTD SVG 1.1//EN"
 "http://www.w3.org/Graphics/SVG/1.1/DTD/svg11.dtd">
<!-- Generated by graphviz version 2.43.0 (0)
 -->
<!-- Title: sll_t_advection_6d_lagrange_dd_slim Pages: 1 -->
<svg width="270pt" height="183pt"
 viewBox="0.00 0.00 269.50 183.00" xmlns="http://www.w3.org/2000/svg" xmlns:xlink="http://www.w3.org/1999/xlink">
<g id="graph0" class="graph" transform="scale(1 1) rotate(0) translate(4 179)">
<title>sll_t_advection_6d_lagrange_dd_slim</title>
<polygon fill="white" stroke="transparent" points="-4,4 -4,-179 265.5,-179 265.5,4 -4,4"/>
<!-- Node1 -->
<g id="node1" class="node">
<title>Node1</title>
<g id="a_node1"><a xlink:title=" ">
<polygon fill="#bfbfbf" stroke="black" points="54.5,-0.5 54.5,-30.5 162.5,-30.5 162.5,-0.5 54.5,-0.5"/>
<text text-anchor="start" x="62.5" y="-18.5" font-family="Helvetica,sans-Serif" font-size="10.00">sll_t_advection_6d</text>
<text text-anchor="middle" x="108.5" y="-7.5" font-family="Helvetica,sans-Serif" font-size="10.00">_lagrange_dd_slim</text>
</a>
</g>
</g>
<!-- Node2 -->
<g id="node2" class="node">
<title>Node2</title>
<g id="a_node2"><a xlink:title=" ">
<polygon fill="white" stroke="#bfbfbf" points="0,-155.5 0,-174.5 103,-174.5 103,-155.5 0,-155.5"/>
<text text-anchor="middle" x="51.5" y="-162.5" font-family="Helvetica,sans-Serif" font-size="10.00">integer(kind=i32)</text>
</a>
</g>
</g>
<!-- Node2&#45;&gt;Node1 -->
<g id="edge1" class="edge">
<title>Node2&#45;&gt;Node1</title>
<path fill="none" stroke="#9a32cd" stroke-dasharray="5,2" d="M47.11,-145.56C42.46,-121.55 37.96,-79.1 55.5,-49 59.96,-41.35 67,-35.27 74.51,-30.54"/>
<polygon fill="#9a32cd" stroke="#9a32cd" points="43.72,-146.42 49.25,-155.46 50.56,-144.95 43.72,-146.42"/>
<text text-anchor="middle" x="99.5" y="-129" font-family="Helvetica,sans-Serif" font-size="10.00"> halo_blocks_eta1</text>
<text text-anchor="middle" x="99.5" y="-118" font-family="Helvetica,sans-Serif" font-size="10.00">halo_blocks_eta2</text>
<text text-anchor="middle" x="99.5" y="-107" font-family="Helvetica,sans-Serif" font-size="10.00">halo_blocks_eta3</text>
<text text-anchor="middle" x="99.5" y="-96" font-family="Helvetica,sans-Serif" font-size="10.00">halo_width_eta1</text>
<text text-anchor="middle" x="99.5" y="-85" font-family="Helvetica,sans-Serif" font-size="10.00">halo_width_eta2</text>
<text text-anchor="middle" x="99.5" y="-74" font-family="Helvetica,sans-Serif" font-size="10.00">halo_width_eta3</text>
<text text-anchor="middle" x="99.5" y="-63" font-family="Helvetica,sans-Serif" font-size="10.00">lagrange_width</text>
<text text-anchor="middle" x="99.5" y="-52" font-family="Helvetica,sans-Serif" font-size="10.00">n_halo_blocks</text>
</g>
<!-- Node3 -->
<g id="node3" class="node">
<title>Node3</title>
<g id="a_node3"><a xlink:title=" ">
<polygon fill="white" stroke="#bfbfbf" points="121.5,-155.5 121.5,-174.5 209.5,-174.5 209.5,-155.5 121.5,-155.5"/>
<text text-anchor="middle" x="165.5" y="-162.5" font-family="Helvetica,sans-Serif" font-size="10.00">real(kind=f64)</text>
</a>
</g>
</g>
<!-- Node3&#45;&gt;Node1 -->
<g id="edge2" class="edge">
<title>Node3&#45;&gt;Node1</title>
<path fill="none" stroke="#9a32cd" stroke-dasharray="5,2" d="M165.43,-145.16C164.58,-121.34 160.51,-79.72 143.5,-49 139.64,-42.04 133.76,-35.72 127.91,-30.56"/>
<polygon fill="#9a32cd" stroke="#9a32cd" points="161.93,-145.38 165.63,-155.31 168.93,-145.24 161.93,-145.38"/>
<text text-anchor="middle" x="213" y="-101.5" font-family="Helvetica,sans-Serif" font-size="10.00"> displacement_eta1</text>
<text text-anchor="middle" x="213" y="-90.5" font-family="Helvetica,sans-Serif" font-size="10.00">displacement_eta2</text>
<text text-anchor="middle" x="213" y="-79.5" font-family="Helvetica,sans-Serif" font-size="10.00">displacement_eta3</text>
</g>
</g>
</svg>
