<?xml version="1.0" encoding="UTF-8" standalone="no"?>
<!DOCTYPE svg PUBLIC "-//W3C//DTD SVG 1.1//EN"
 "http://www.w3.org/Graphics/SVG/1.1/DTD/svg11.dtd">
<!-- Generated by graphviz version 2.38.0 (20140413.2041)
 -->
<!-- Title: sll_c_interpolator_2d Pages: 1 -->
<svg width="283pt" height="165pt"
 viewBox="0.00 0.00 283.00 164.50" xmlns="http://www.w3.org/2000/svg" xmlns:xlink="http://www.w3.org/1999/xlink">
<g id="graph0" class="graph" transform="scale(1 1) rotate(0) translate(4 160.5)">
<title>sll_c_interpolator_2d</title>
<polygon fill="white" stroke="none" points="-4,4 -4,-160.5 279,-160.5 279,4 -4,4"/>
<!-- Node1 -->
<g id="node1" class="node"><title>Node1</title>
<polygon fill="#bfbfbf" stroke="black" points="0,-60.5 0,-79.5 106,-79.5 106,-60.5 0,-60.5"/>
<text text-anchor="middle" x="53" y="-67.5" font-family="Helvetica,sans-Serif" font-size="10.00">sll_c_interpolator_2d</text>
</g>
<!-- Node2 -->
<g id="node2" class="node"><title>Node2</title>
<g id="a_node2"><a xlink:href="structsll__m__arbitrary__degree__spline__interpolator__2d_1_1sll__t__arbitrary__degree__spline__interpolator__2d.html" target="_top" xlink:title="Arbitrary degree version of 2d irnterpolator. ">
<polygon fill="white" stroke="black" points="150.5,-126 150.5,-156 266.5,-156 266.5,-126 150.5,-126"/>
<text text-anchor="start" x="158.5" y="-144" font-family="Helvetica,sans-Serif" font-size="10.00">sll_t_arbitrary_degree</text>
<text text-anchor="middle" x="208.5" y="-133" font-family="Helvetica,sans-Serif" font-size="10.00">_spline_interpolator_2d</text>
</a>
</g>
</g>
<!-- Node1&#45;&gt;Node2 -->
<g id="edge1" class="edge"><title>Node1&#45;&gt;Node2</title>
<path fill="none" stroke="midnightblue" d="M79.1261,-84.6273C96.4787,-94.4273 120.258,-107.268 142,-117 148.964,-120.117 156.467,-123.154 163.822,-125.96"/>
<polygon fill="midnightblue" stroke="midnightblue" points="80.621,-81.4506 70.2008,-79.5347 77.1519,-87.5306 80.621,-81.4506"/>
</g>
<!-- Node3 -->
<g id="node3" class="node"><title>Node3</title>
<g id="a_node3"><a xlink:href="structsll__m__cubic__spline__interpolator__2d_1_1sll__t__cubic__spline__interpolator__2d.html" target="_top" xlink:title="The spline&#45;based interpolator is only a wrapper around the capabilities of the cubic splines...">
<polygon fill="white" stroke="black" points="161.5,-77 161.5,-107 255.5,-107 255.5,-77 161.5,-77"/>
<text text-anchor="start" x="169.5" y="-95" font-family="Helvetica,sans-Serif" font-size="10.00">sll_t_cubic_spline</text>
<text text-anchor="middle" x="208.5" y="-84" font-family="Helvetica,sans-Serif" font-size="10.00">_interpolator_2d</text>
</a>
</g>
</g>
<!-- Node1&#45;&gt;Node3 -->
<g id="edge2" class="edge"><title>Node1&#45;&gt;Node3</title>
<path fill="none" stroke="midnightblue" d="M116.639,-78.9775C131.648,-81.1286 147.402,-83.3866 161.499,-85.407"/>
<polygon fill="midnightblue" stroke="midnightblue" points="116.792,-75.4638 106.397,-77.5096 115.799,-82.393 116.792,-75.4638"/>
</g>
<!-- Node4 -->
<g id="node4" class="node"><title>Node4</title>
<g id="a_node4"><a xlink:href="structsll__m__hermite__interpolator__2d_1_1sll__hermite__interpolator__2d.html" target="_top" xlink:title="The hermite&#45;based interpolator is only a wrapper around the capabilities of the hermite interpolation...">
<polygon fill="white" stroke="black" points="142,-38.5 142,-57.5 275,-57.5 275,-38.5 142,-38.5"/>
<text text-anchor="middle" x="208.5" y="-45.5" font-family="Helvetica,sans-Serif" font-size="10.00">sll_hermite_interpolator_2d</text>
</a>
</g>
</g>
<!-- Node1&#45;&gt;Node4 -->
<g id="edge3" class="edge"><title>Node1&#45;&gt;Node4</title>
<path fill="none" stroke="midnightblue" d="M116.435,-61.0517C124.783,-59.8553 133.364,-58.6253 141.766,-57.4211"/>
<polygon fill="midnightblue" stroke="midnightblue" points="115.799,-57.607 106.397,-62.4904 116.792,-64.5362 115.799,-57.607"/>
</g>
<!-- Node5 -->
<g id="node5" class="node"><title>Node5</title>
<g id="a_node5"><a xlink:href="structsll__m__nufft__interpolator__2d_1_1sll__t__nufft__interpolator__2d.html" target="_top" xlink:title="The nufft&#45;based interpolator is only a wrapper around the capabilities of the nufft package...">
<polygon fill="white" stroke="black" points="144.5,-0.5 144.5,-19.5 272.5,-19.5 272.5,-0.5 144.5,-0.5"/>
<text text-anchor="middle" x="208.5" y="-7.5" font-family="Helvetica,sans-Serif" font-size="10.00">sll_t_nufft_interpolator_2d</text>
</a>
</g>
</g>
<!-- Node1&#45;&gt;Node5 -->
<g id="edge4" class="edge"><title>Node1&#45;&gt;Node5</title>
<path fill="none" stroke="midnightblue" d="M81.9015,-55.6564C98.975,-47.2194 121.423,-36.7256 142,-29 151.2,-25.5457 161.32,-22.3341 170.796,-19.5709"/>
<polygon fill="midnightblue" stroke="midnightblue" points="79.9005,-52.744 72.5248,-60.3499 83.0337,-59.0036 79.9005,-52.744"/>
</g>
</g>
</svg>
