<?xml version="1.0" encoding="UTF-8" standalone="no"?>
<!DOCTYPE svg PUBLIC "-//W3C//DTD SVG 1.1//EN"
 "http://www.w3.org/Graphics/SVG/1.1/DTD/svg11.dtd">
<!-- Generated by graphviz version 2.38.0 (20140413.2041)
 -->
<!-- Title: sll_t_lagrange_interpolator_1d Pages: 1 -->
<svg width="397pt" height="241pt"
 viewBox="0.00 0.00 397.00 241.00" xmlns="http://www.w3.org/2000/svg" xmlns:xlink="http://www.w3.org/1999/xlink">
<g id="graph0" class="graph" transform="scale(1 1) rotate(0) translate(4 237)">
<title>sll_t_lagrange_interpolator_1d</title>
<polygon fill="white" stroke="none" points="-4,4 -4,-237 393,-237 393,4 -4,4"/>
<!-- Node1 -->
<g id="node1" class="node"><title>Node1</title>
<polygon fill="#bfbfbf" stroke="black" points="69,-0.5 69,-19.5 215,-19.5 215,-0.5 69,-0.5"/>
<text text-anchor="middle" x="142" y="-7.5" font-family="Helvetica,sans-Serif" font-size="10.00">sll_t_lagrange_interpolator_1d</text>
</g>
<!-- Node2 -->
<g id="node2" class="node"><title>Node2</title>
<g id="a_node2"><a xlink:href="structsll__m__interpolators__1d__base_1_1sll__c__interpolator__1d.html" target="_top" xlink:title="Abstract class for 1D interpolation and reconstruction. ">
<polygon fill="white" stroke="black" points="0,-74 0,-93 106,-93 106,-74 0,-74"/>
<text text-anchor="middle" x="53" y="-81" font-family="Helvetica,sans-Serif" font-size="10.00">sll_c_interpolator_1d</text>
</a>
</g>
</g>
<!-- Node2&#45;&gt;Node1 -->
<g id="edge1" class="edge"><title>Node2&#45;&gt;Node1</title>
<path fill="none" stroke="midnightblue" d="M72.0162,-67.223C90.0878,-52.7047 116.618,-31.3915 131.276,-19.6157"/>
<polygon fill="midnightblue" stroke="midnightblue" points="69.517,-64.7411 63.9131,-73.7327 73.9011,-70.1983 69.517,-64.7411"/>
</g>
<!-- Node3 -->
<g id="node3" class="node"><title>Node3</title>
<polygon fill="white" stroke="#bfbfbf" points="132.5,-213.5 132.5,-232.5 221.5,-232.5 221.5,-213.5 132.5,-213.5"/>
<text text-anchor="middle" x="177" y="-220.5" font-family="Helvetica,sans-Serif" font-size="10.00">integer(kind=i32)</text>
</g>
<!-- Node3&#45;&gt;Node1 -->
<g id="edge2" class="edge"><title>Node3&#45;&gt;Node1</title>
<path fill="none" stroke="#9a32cd" stroke-dasharray="5,2" d="M172.453,-203.729C166.692,-179.973 156.815,-137.125 151,-100 146.41,-70.6947 143.659,-35.576 142.558,-19.6316"/>
<polygon fill="#9a32cd" stroke="#9a32cd" points="169.064,-204.604 174.848,-213.481 175.862,-202.935 169.064,-204.604"/>
<text text-anchor="middle" x="190.5" y="-92" font-family="Helvetica,sans-Serif" font-size="10.00"> interval_selection</text>
<text text-anchor="middle" x="190.5" y="-81" font-family="Helvetica,sans-Serif" font-size="10.00">stencil_width</text>
<text text-anchor="middle" x="190.5" y="-70" font-family="Helvetica,sans-Serif" font-size="10.00">bc_type</text>
</g>
<!-- Node4 -->
<g id="node4" class="node"><title>Node4</title>
<g id="a_node4"><a xlink:href="structsll__m__lagrange__interpolation__1d_1_1sll__t__lagrange__interpolation__1d.html" target="_top" xlink:title="sll_t_lagrange_interpolation_1d">
<polygon fill="white" stroke="black" points="239,-74 239,-93 389,-93 389,-74 239,-74"/>
<text text-anchor="middle" x="314" y="-81" font-family="Helvetica,sans-Serif" font-size="10.00">sll_t_lagrange_interpolation_1d</text>
</a>
</g>
</g>
<!-- Node3&#45;&gt;Node4 -->
<g id="edge4" class="edge"><title>Node3&#45;&gt;Node4</title>
<path fill="none" stroke="#9a32cd" stroke-dasharray="5,2" d="M186.319,-204.476C198.865,-182.169 222.992,-143.478 252,-118 264.042,-107.423 279.995,-98.8991 292.703,-93.0962"/>
<polygon fill="#9a32cd" stroke="#9a32cd" points="183.13,-203.013 181.394,-213.465 189.269,-206.377 183.13,-203.013"/>
<text text-anchor="middle" x="281" y="-176" font-family="Helvetica,sans-Serif" font-size="10.00"> periodic_last</text>
<text text-anchor="middle" x="281" y="-165" font-family="Helvetica,sans-Serif" font-size="10.00">index_gap</text>
<text text-anchor="middle" x="281" y="-154" font-family="Helvetica,sans-Serif" font-size="10.00">nb_cell</text>
<text text-anchor="middle" x="281" y="-143" font-family="Helvetica,sans-Serif" font-size="10.00">bc_type</text>
<text text-anchor="middle" x="281" y="-132" font-family="Helvetica,sans-Serif" font-size="10.00">d</text>
</g>
<!-- Node4&#45;&gt;Node1 -->
<g id="edge3" class="edge"><title>Node4&#45;&gt;Node1</title>
<path fill="none" stroke="#9a32cd" stroke-dasharray="5,2" d="M283.604,-69.8645C248.764,-55.3816 192.611,-32.0391 162.553,-19.5439"/>
<polygon fill="#9a32cd" stroke="#9a32cd" points="282.675,-73.2687 293.253,-73.8754 285.362,-66.805 282.675,-73.2687"/>
<text text-anchor="middle" x="254" y="-41" font-family="Helvetica,sans-Serif" font-size="10.00"> lagrange</text>
</g>
<!-- Node5 -->
<g id="node5" class="node"><title>Node5</title>
<polygon fill="white" stroke="#bfbfbf" points="276,-213.5 276,-232.5 352,-232.5 352,-213.5 276,-213.5"/>
<text text-anchor="middle" x="314" y="-220.5" font-family="Helvetica,sans-Serif" font-size="10.00">real(kind=f64)</text>
</g>
<!-- Node5&#45;&gt;Node4 -->
<g id="edge5" class="edge"><title>Node5&#45;&gt;Node4</title>
<path fill="none" stroke="#9a32cd" stroke-dasharray="5,2" d="M314,-203.362C314,-173.231 314,-114.99 314,-93.098"/>
<polygon fill="#9a32cd" stroke="#9a32cd" points="310.5,-203.399 314,-213.399 317.5,-203.399 310.5,-203.399"/>
<text text-anchor="middle" x="333.5" y="-187" font-family="Helvetica,sans-Serif" font-size="10.00"> wj</text>
<text text-anchor="middle" x="333.5" y="-176" font-family="Helvetica,sans-Serif" font-size="10.00">wj_scale</text>
<text text-anchor="middle" x="333.5" y="-165" font-family="Helvetica,sans-Serif" font-size="10.00">alpha</text>
<text text-anchor="middle" x="333.5" y="-154" font-family="Helvetica,sans-Serif" font-size="10.00">xmin</text>
<text text-anchor="middle" x="333.5" y="-143" font-family="Helvetica,sans-Serif" font-size="10.00">xmax</text>
<text text-anchor="middle" x="333.5" y="-132" font-family="Helvetica,sans-Serif" font-size="10.00">data_out</text>
<text text-anchor="middle" x="333.5" y="-121" font-family="Helvetica,sans-Serif" font-size="10.00">deta</text>
</g>
</g>
</svg>
