<?xml version="1.0" encoding="UTF-8" standalone="no"?>
<!DOCTYPE svg PUBLIC "-//W3C//DTD SVG 1.1//EN"
 "http://www.w3.org/Graphics/SVG/1.1/DTD/svg11.dtd">
<!-- Generated by graphviz version 2.43.0 (0)
 -->
<!-- Title: t_xdmf_grid Pages: 1 -->
<svg width="382pt" height="251pt"
 viewBox="0.00 0.00 381.50 251.00" xmlns="http://www.w3.org/2000/svg" xmlns:xlink="http://www.w3.org/1999/xlink">
<g id="graph0" class="graph" transform="scale(1 1) rotate(0) translate(4 247)">
<title>t_xdmf_grid</title>
<polygon fill="white" stroke="transparent" points="-4,4 -4,-247 377.5,-247 377.5,4 -4,4"/>
<!-- Node1 -->
<g id="node1" class="node">
<title>Node1</title>
<g id="a_node1"><a xlink:title="Pointer to grid.">
<polygon fill="#bfbfbf" stroke="black" points="222.5,-0.5 222.5,-19.5 297.5,-19.5 297.5,-0.5 222.5,-0.5"/>
<text text-anchor="middle" x="260" y="-7.5" font-family="Helvetica,sans-Serif" font-size="10.00">t_xdmf_grid</text>
</a>
</g>
</g>
<!-- Node2 -->
<g id="node2" class="node">
<title>Node2</title>
<g id="a_node2"><a xlink:href="structsll__m__xml_1_1sll__t__xml__element.html" target="_top" xlink:title="XML element type.">
<polygon fill="white" stroke="black" points="145.5,-67.5 145.5,-86.5 252.5,-86.5 252.5,-67.5 145.5,-67.5"/>
<text text-anchor="middle" x="199" y="-74.5" font-family="Helvetica,sans-Serif" font-size="10.00">sll_t_xml_element</text>
</a>
</g>
</g>
<!-- Node2&#45;&gt;Node1 -->
<g id="edge1" class="edge">
<title>Node2&#45;&gt;Node1</title>
<path fill="none" stroke="#9a32cd" stroke-dasharray="5,2" d="M214.36,-59.63C226.29,-46.92 242.36,-29.8 251.9,-19.63"/>
<polygon fill="#9a32cd" stroke="#9a32cd" points="211.52,-57.55 207.23,-67.23 216.62,-62.34 211.52,-57.55"/>
<text text-anchor="middle" x="257" y="-41" font-family="Helvetica,sans-Serif" font-size="10.00"> xml_grid</text>
</g>
<!-- Node3 -->
<g id="node3" class="node">
<title>Node3</title>
<g id="a_node3"><a xlink:href="structsll__m__xml_1_1c__xml__item.html" target="_top" xlink:title="Base class for all the XML entities which can appear in content.">
<polygon fill="white" stroke="black" points="0,-218 0,-237 74,-237 74,-218 0,-218"/>
<text text-anchor="middle" x="37" y="-225" font-family="Helvetica,sans-Serif" font-size="10.00">c_xml_item</text>
</a>
</g>
</g>
<!-- Node3&#45;&gt;Node2 -->
<g id="edge2" class="edge">
<title>Node3&#45;&gt;Node2</title>
<path fill="none" stroke="midnightblue" d="M35.89,-207.75C35.7,-187.31 38.52,-154.74 56,-134 78.33,-107.49 114.86,-93.46 145.4,-86.08"/>
<polygon fill="midnightblue" stroke="midnightblue" points="32.4,-208.09 36.25,-217.96 39.4,-207.85 32.4,-208.09"/>
</g>
<!-- Node6 -->
<g id="node6" class="node">
<title>Node6</title>
<g id="a_node6"><a xlink:href="structsll__m__xml_1_1t__xml__content.html" target="_top" xlink:title="XML type: linked list of XML entities, used in element content.">
<polygon fill="white" stroke="black" points="65,-134.5 65,-153.5 151,-153.5 151,-134.5 65,-134.5"/>
<text text-anchor="middle" x="108" y="-141.5" font-family="Helvetica,sans-Serif" font-size="10.00">t_xml_content</text>
</a>
</g>
</g>
<!-- Node3&#45;&gt;Node6 -->
<g id="edge7" class="edge">
<title>Node3&#45;&gt;Node6</title>
<path fill="none" stroke="midnightblue" d="M51.57,-209.77C66.42,-192.73 88.85,-166.98 100.46,-153.66"/>
<polygon fill="midnightblue" stroke="midnightblue" points="48.53,-207.94 44.6,-217.78 53.81,-212.54 48.53,-207.94"/>
</g>
<!-- Node4 -->
<g id="node4" class="node">
<title>Node4</title>
<g id="a_node4"><a xlink:href="structsll__m__xml_1_1t__xml__attribute.html" target="_top" xlink:title="XML attribute type.">
<polygon fill="white" stroke="black" points="279,-134.5 279,-153.5 371,-153.5 371,-134.5 279,-134.5"/>
<text text-anchor="middle" x="325" y="-141.5" font-family="Helvetica,sans-Serif" font-size="10.00">t_xml_attribute</text>
</a>
</g>
</g>
<!-- Node4&#45;&gt;Node2 -->
<g id="edge3" class="edge">
<title>Node4&#45;&gt;Node2</title>
<path fill="none" stroke="#9a32cd" stroke-dasharray="5,2" d="M299.36,-129.77C274.41,-116.9 237.2,-97.71 215.8,-86.67"/>
<polygon fill="#9a32cd" stroke="#9a32cd" points="297.78,-132.89 308.27,-134.37 300.99,-126.67 297.78,-132.89"/>
<text text-anchor="middle" x="294.5" y="-108" font-family="Helvetica,sans-Serif" font-size="10.00"> attributes</text>
</g>
<!-- Node5 -->
<g id="node5" class="node">
<title>Node5</title>
<g id="a_node5"><a xlink:title=" ">
<polygon fill="white" stroke="#bfbfbf" points="240,-218 240,-237 370,-237 370,-218 240,-218"/>
<text text-anchor="middle" x="305" y="-225" font-family="Helvetica,sans-Serif" font-size="10.00">character(len=maxlen)</text>
</a>
</g>
</g>
<!-- Node5&#45;&gt;Node2 -->
<g id="edge5" class="edge">
<title>Node5&#45;&gt;Node2</title>
<path fill="none" stroke="#9a32cd" stroke-dasharray="5,2" d="M288.1,-210.39C273.92,-196.34 253.7,-174.97 239,-154 223.08,-131.29 209.18,-101.46 202.77,-86.85"/>
<polygon fill="#9a32cd" stroke="#9a32cd" points="286.05,-213.28 295.65,-217.76 290.94,-208.27 286.05,-213.28"/>
<text text-anchor="middle" x="254.5" y="-141.5" font-family="Helvetica,sans-Serif" font-size="10.00"> name</text>
</g>
<!-- Node5&#45;&gt;Node4 -->
<g id="edge4" class="edge">
<title>Node5&#45;&gt;Node4</title>
<path fill="none" stroke="#9a32cd" stroke-dasharray="5,2" d="M309.57,-207.86C313.75,-190.86 319.73,-166.49 322.88,-153.66"/>
<polygon fill="#9a32cd" stroke="#9a32cd" points="306.12,-207.23 307.14,-217.78 312.92,-208.9 306.12,-207.23"/>
<text text-anchor="middle" x="339" y="-186" font-family="Helvetica,sans-Serif" font-size="10.00"> attvalue</text>
<text text-anchor="middle" x="339" y="-175" font-family="Helvetica,sans-Serif" font-size="10.00">name</text>
</g>
<!-- Node6&#45;&gt;Node2 -->
<g id="edge6" class="edge">
<title>Node6&#45;&gt;Node2</title>
<path fill="none" stroke="#9a32cd" stroke-dasharray="5,2" d="M128.41,-128.42C146.4,-115.57 172.01,-97.28 186.92,-86.63"/>
<polygon fill="#9a32cd" stroke="#9a32cd" points="126.38,-125.57 120.27,-134.23 130.44,-131.27 126.38,-125.57"/>
<text text-anchor="middle" x="179" y="-108" font-family="Helvetica,sans-Serif" font-size="10.00"> content</text>
</g>
<!-- Node6&#45;&gt;Node6 -->
<g id="edge9" class="edge">
<title>Node6&#45;&gt;Node6</title>
<path fill="none" stroke="#9a32cd" stroke-dasharray="5,2" d="M161.25,-148.74C166.01,-147.75 169,-146.17 169,-144 169,-140.53 161.35,-138.57 151.04,-138.11"/>
<polygon fill="#9a32cd" stroke="#9a32cd" points="160.58,-145.3 151.04,-149.89 161.37,-152.25 160.58,-145.3"/>
<text text-anchor="middle" x="181.5" y="-141.5" font-family="Helvetica,sans-Serif" font-size="10.00"> next</text>
</g>
<!-- Node7 -->
<g id="node7" class="node">
<title>Node7</title>
<g id="a_node7"><a xlink:title=" ">
<polygon fill="white" stroke="#bfbfbf" points="92.5,-212.5 92.5,-242.5 201.5,-242.5 201.5,-212.5 92.5,-212.5"/>
<text text-anchor="start" x="100.5" y="-230.5" font-family="Helvetica,sans-Serif" font-size="10.00">class(c_xml_item),</text>
<text text-anchor="middle" x="147" y="-219.5" font-family="Helvetica,sans-Serif" font-size="10.00"> pointer</text>
</a>
</g>
</g>
<!-- Node7&#45;&gt;Node6 -->
<g id="edge8" class="edge">
<title>Node7&#45;&gt;Node6</title>
<path fill="none" stroke="#9a32cd" stroke-dasharray="5,2" d="M135.84,-203.18C127.9,-186.58 117.67,-165.21 112.09,-153.54"/>
<polygon fill="#9a32cd" stroke="#9a32cd" points="132.73,-204.79 140.21,-212.3 139.05,-201.77 132.73,-204.79"/>
<text text-anchor="middle" x="144" y="-180.5" font-family="Helvetica,sans-Serif" font-size="10.00"> item</text>
</g>
<!-- Node8 -->
<g id="node8" class="node">
<title>Node8</title>
<g id="a_node8"><a xlink:title=" ">
<polygon fill="white" stroke="#bfbfbf" points="270.5,-67.5 270.5,-86.5 373.5,-86.5 373.5,-67.5 270.5,-67.5"/>
<text text-anchor="middle" x="322" y="-74.5" font-family="Helvetica,sans-Serif" font-size="10.00">integer(kind=i32)</text>
</a>
</g>
</g>
<!-- Node8&#45;&gt;Node1 -->
<g id="edge10" class="edge">
<title>Node8&#45;&gt;Node1</title>
<path fill="none" stroke="#9a32cd" stroke-dasharray="5,2" d="M306.74,-60C294.58,-47.25 278.02,-29.89 268.23,-19.63"/>
<polygon fill="#9a32cd" stroke="#9a32cd" points="304.2,-62.41 313.64,-67.23 309.27,-57.58 304.2,-62.41"/>
<text text-anchor="middle" x="308" y="-41" font-family="Helvetica,sans-Serif" font-size="10.00"> dims</text>
</g>
</g>
</svg>
