<?xml version="1.0" encoding="UTF-8" standalone="no"?>
<!DOCTYPE svg PUBLIC "-//W3C//DTD SVG 1.1//EN"
 "http://www.w3.org/Graphics/SVG/1.1/DTD/svg11.dtd">
<!-- Generated by graphviz version 2.43.0 (0)
 -->
<!-- Title: sll_t_delta_parameters_6d Pages: 1 -->
<svg width="236pt" height="364pt"
 viewBox="0.00 0.00 235.50 364.00" xmlns="http://www.w3.org/2000/svg" xmlns:xlink="http://www.w3.org/1999/xlink">
<g id="graph0" class="graph" transform="scale(1 1) rotate(0) translate(4 360)">
<title>sll_t_delta_parameters_6d</title>
<polygon fill="white" stroke="transparent" points="-4,4 -4,-360 231.5,-360 231.5,4 -4,4"/>
<!-- Node1 -->
<g id="node1" class="node">
<title>Node1</title>
<g id="a_node1"><a xlink:title=" ">
<polygon fill="#bfbfbf" stroke="black" points="55.5,-0.5 55.5,-19.5 201.5,-19.5 201.5,-0.5 55.5,-0.5"/>
<text text-anchor="middle" x="128.5" y="-7.5" font-family="Helvetica,sans-Serif" font-size="10.00">sll_t_delta_parameters_6d</text>
</a>
</g>
</g>
<!-- Node2 -->
<g id="node2" class="node">
<title>Node2</title>
<g id="a_node2"><a xlink:href="structsll__m__distribution__function__initializer__6d_1_1sll__t__pslab2__parameters__6d.html" target="_top" xlink:title="Type for a periodic slab.">
<polygon fill="white" stroke="black" points="52,-57.5 52,-76.5 205,-76.5 205,-57.5 52,-57.5"/>
<text text-anchor="middle" x="128.5" y="-64.5" font-family="Helvetica,sans-Serif" font-size="10.00">sll_t_pslab2_parameters_6d</text>
</a>
</g>
</g>
<!-- Node2&#45;&gt;Node1 -->
<g id="edge1" class="edge">
<title>Node2&#45;&gt;Node1</title>
<path fill="none" stroke="midnightblue" d="M128.5,-47.12C128.5,-37.82 128.5,-27.06 128.5,-19.71"/>
<polygon fill="midnightblue" stroke="midnightblue" points="125,-47.41 128.5,-57.41 132,-47.41 125,-47.41"/>
</g>
<!-- Node3 -->
<g id="node3" class="node">
<title>Node3</title>
<g id="a_node3"><a xlink:href="structsll__m__distribution__function__initializer__6d_1_1sll__t__pslab__parameters__6d.html" target="_top" xlink:title="Type for a periodic slab.">
<polygon fill="white" stroke="black" points="0,-114.5 0,-133.5 147,-133.5 147,-114.5 0,-114.5"/>
<text text-anchor="middle" x="73.5" y="-121.5" font-family="Helvetica,sans-Serif" font-size="10.00">sll_t_pslab_parameters_6d</text>
</a>
</g>
</g>
<!-- Node3&#45;&gt;Node2 -->
<g id="edge2" class="edge">
<title>Node3&#45;&gt;Node2</title>
<path fill="none" stroke="midnightblue" d="M89.38,-107.12C99.28,-97.22 111.64,-84.86 119.79,-76.71"/>
<polygon fill="midnightblue" stroke="midnightblue" points="86.69,-104.86 82.09,-114.41 91.64,-109.81 86.69,-104.86"/>
</g>
<!-- Node4 -->
<g id="node4" class="node">
<title>Node4</title>
<g id="a_node4"><a xlink:href="structsll__m__distribution__function__initializer__6d_1_1sll__c__distribution__params__6d.html" target="_top" xlink:title="Abstract parameter type.">
<polygon fill="white" stroke="black" points="22,-258.5 22,-288.5 121,-288.5 121,-258.5 22,-258.5"/>
<text text-anchor="start" x="30" y="-276.5" font-family="Helvetica,sans-Serif" font-size="10.00">sll_c_distribution</text>
<text text-anchor="middle" x="71.5" y="-265.5" font-family="Helvetica,sans-Serif" font-size="10.00">_params_6d</text>
</a>
</g>
</g>
<!-- Node4&#45;&gt;Node3 -->
<g id="edge3" class="edge">
<title>Node4&#45;&gt;Node3</title>
<path fill="none" stroke="midnightblue" d="M71.83,-248.04C72.29,-214.5 73.08,-155.9 73.38,-133.79"/>
<polygon fill="midnightblue" stroke="midnightblue" points="68.33,-248.31 71.69,-258.36 75.33,-248.41 68.33,-248.31"/>
</g>
<!-- Node5 -->
<g id="node5" class="node">
<title>Node5</title>
<g id="a_node5"><a xlink:title=" ">
<polygon fill="white" stroke="#bfbfbf" points="20,-336.5 20,-355.5 123,-355.5 123,-336.5 20,-336.5"/>
<text text-anchor="middle" x="71.5" y="-343.5" font-family="Helvetica,sans-Serif" font-size="10.00">integer(kind=i32)</text>
</a>
</g>
</g>
<!-- Node5&#45;&gt;Node4 -->
<g id="edge4" class="edge">
<title>Node5&#45;&gt;Node4</title>
<path fill="none" stroke="#9a32cd" stroke-dasharray="5,2" d="M71.5,-326.24C71.5,-314.41 71.5,-299.38 71.5,-288.58"/>
<polygon fill="#9a32cd" stroke="#9a32cd" points="68,-326.36 71.5,-336.36 75,-326.36 68,-326.36"/>
<text text-anchor="middle" x="102" y="-310" font-family="Helvetica,sans-Serif" font-size="10.00"> distrib_type</text>
</g>
<!-- Node6 -->
<g id="node6" class="node">
<title>Node6</title>
<g id="a_node6"><a xlink:title=" ">
<polygon fill="white" stroke="#bfbfbf" points="139.5,-264 139.5,-283 227.5,-283 227.5,-264 139.5,-264"/>
<text text-anchor="middle" x="183.5" y="-271" font-family="Helvetica,sans-Serif" font-size="10.00">real(kind=f64)</text>
</a>
</g>
</g>
<!-- Node6&#45;&gt;Node2 -->
<g id="edge6" class="edge">
<title>Node6&#45;&gt;Node2</title>
<path fill="none" stroke="#9a32cd" stroke-dasharray="5,2" d="M183.48,-253.64C182.77,-222.93 178.45,-160.84 156.5,-114 150.07,-100.29 140.57,-85.51 134.45,-76.5"/>
<polygon fill="#9a32cd" stroke="#9a32cd" points="179.98,-253.82 183.61,-263.78 186.98,-253.73 179.98,-253.82"/>
<text text-anchor="middle" x="189" y="-121.5" font-family="Helvetica,sans-Serif" font-size="10.00"> randarray</text>
</g>
<!-- Node6&#45;&gt;Node3 -->
<g id="edge5" class="edge">
<title>Node6&#45;&gt;Node3</title>
<path fill="none" stroke="#9a32cd" stroke-dasharray="5,2" d="M146.86,-259.72C136.92,-254.82 126.89,-248.34 119.5,-240 91.91,-208.85 104.22,-190.11 87.5,-152 84.78,-145.81 81.28,-139.06 78.46,-133.86"/>
<polygon fill="#9a32cd" stroke="#9a32cd" points="145.7,-263.04 156.26,-263.95 148.57,-256.66 145.7,-263.04"/>
<text text-anchor="middle" x="144.5" y="-232" font-family="Helvetica,sans-Serif" font-size="10.00"> alpha</text>
<text text-anchor="middle" x="144.5" y="-221" font-family="Helvetica,sans-Serif" font-size="10.00">b0</text>
<text text-anchor="middle" x="144.5" y="-210" font-family="Helvetica,sans-Serif" font-size="10.00">c_te</text>
<text text-anchor="middle" x="144.5" y="-199" font-family="Helvetica,sans-Serif" font-size="10.00">factor</text>
<text text-anchor="middle" x="144.5" y="-188" font-family="Helvetica,sans-Serif" font-size="10.00">kappa_ti</text>
<text text-anchor="middle" x="144.5" y="-177" font-family="Helvetica,sans-Serif" font-size="10.00">kx</text>
<text text-anchor="middle" x="144.5" y="-166" font-family="Helvetica,sans-Serif" font-size="10.00">v_mean</text>
<text text-anchor="middle" x="144.5" y="-155" font-family="Helvetica,sans-Serif" font-size="10.00">v_thermal</text>
</g>
</g>
</svg>
