<?xml version="1.0" encoding="UTF-8" standalone="no"?>
<!DOCTYPE svg PUBLIC "-//W3C//DTD SVG 1.1//EN"
 "http://www.w3.org/Graphics/SVG/1.1/DTD/svg11.dtd">
<!-- Generated by graphviz version 2.38.0 (20140413.2041)
 -->
<!-- Title: sll_t_singular_mapping_discrete Pages: 1 -->
<svg width="798pt" height="496pt"
 viewBox="0.00 0.00 798.00 496.00" xmlns="http://www.w3.org/2000/svg" xmlns:xlink="http://www.w3.org/1999/xlink">
<g id="graph0" class="graph" transform="scale(1 1) rotate(0) translate(4 492)">
<title>sll_t_singular_mapping_discrete</title>
<polygon fill="white" stroke="none" points="-4,4 -4,-492 794,-492 794,4 -4,4"/>
<!-- Node1 -->
<g id="node1" class="node"><title>Node1</title>
<polygon fill="#bfbfbf" stroke="black" points="674,-375 674,-405 790,-405 790,-375 674,-375"/>
<text text-anchor="start" x="682" y="-393" font-family="Helvetica,sans-Serif" font-size="10.00">sll_t_singular_mapping</text>
<text text-anchor="middle" x="732" y="-382" font-family="Helvetica,sans-Serif" font-size="10.00">_discrete</text>
</g>
<!-- Node2 -->
<g id="node2" class="node"><title>Node2</title>
<g id="a_node2"><a xlink:href="structsll__m__singular__mapping__base_1_1sll__c__singular__mapping.html" target="_top" xlink:title="Abstract type, singular mapping. ">
<polygon fill="white" stroke="black" points="424,-468.5 424,-487.5 542,-487.5 542,-468.5 424,-468.5"/>
<text text-anchor="middle" x="483" y="-475.5" font-family="Helvetica,sans-Serif" font-size="10.00">sll_c_singular_mapping</text>
</a>
</g>
</g>
<!-- Node2&#45;&gt;Node1 -->
<g id="edge1" class="edge"><title>Node2&#45;&gt;Node1</title>
<path fill="none" stroke="midnightblue" d="M552.349,-477.271C584.933,-474.754 623.743,-468.503 656,-454 681.135,-442.699 704.319,-420.299 718.065,-405.23"/>
<polygon fill="midnightblue" stroke="midnightblue" points="551.749,-473.803 542.005,-477.962 552.216,-480.787 551.749,-473.803"/>
</g>
<!-- Node3 -->
<g id="node3" class="node"><title>Node3</title>
<g id="a_node3"><a xlink:href="structsll__m__spline__2d_1_1sll__t__spline__2d.html" target="_top" xlink:title="2D tensor&#45;product spline ">
<polygon fill="white" stroke="black" points="215.5,-392.5 215.5,-411.5 296.5,-411.5 296.5,-392.5 215.5,-392.5"/>
<text text-anchor="middle" x="256" y="-399.5" font-family="Helvetica,sans-Serif" font-size="10.00">sll_t_spline_2d</text>
</a>
</g>
</g>
<!-- Node3&#45;&gt;Node1 -->
<g id="edge2" class="edge"><title>Node3&#45;&gt;Node1</title>
<path fill="none" stroke="#9a32cd" stroke-dasharray="5,2" d="M306.658,-400.743C395.258,-398.5 580.069,-393.821 673.819,-391.448"/>
<polygon fill="#9a32cd" stroke="#9a32cd" points="306.506,-397.245 296.598,-400.998 306.683,-404.243 306.506,-397.245"/>
<text text-anchor="middle" x="483" y="-411" font-family="Helvetica,sans-Serif" font-size="10.00"> spline_2d_x1</text>
<text text-anchor="middle" x="483" y="-400" font-family="Helvetica,sans-Serif" font-size="10.00">spline_2d_x2</text>
</g>
<!-- Node4 -->
<g id="node4" class="node"><title>Node4</title>
<polygon fill="white" stroke="#bfbfbf" points="28,-365.5 28,-384.5 79,-384.5 79,-365.5 28,-365.5"/>
<text text-anchor="middle" x="53.5" y="-372.5" font-family="Helvetica,sans-Serif" font-size="10.00">real(wp)</text>
</g>
<!-- Node4&#45;&gt;Node1 -->
<g id="edge5" class="edge"><title>Node4&#45;&gt;Node1</title>
<path fill="none" stroke="#9a32cd" stroke-dasharray="5,2" d="M82.72,-388.833C95.4281,-394.689 110.75,-401.242 125,-406 152.711,-415.252 159.993,-417.517 189,-421 348.302,-440.13 390.06,-435.744 550,-423 591.871,-419.664 638.484,-411.048 673.92,-403.456"/>
<polygon fill="#9a32cd" stroke="#9a32cd" points="84.1115,-385.62 73.5726,-384.532 81.133,-391.955 84.1115,-385.62"/>
<text text-anchor="middle" x="369.5" y="-469" font-family="Helvetica,sans-Serif" font-size="10.00"> tau_eta1</text>
<text text-anchor="middle" x="369.5" y="-458" font-family="Helvetica,sans-Serif" font-size="10.00">tau_eta2</text>
<text text-anchor="middle" x="369.5" y="-447" font-family="Helvetica,sans-Serif" font-size="10.00">gtau_x1</text>
<text text-anchor="middle" x="369.5" y="-436" font-family="Helvetica,sans-Serif" font-size="10.00">gtau_x2</text>
</g>
<!-- Node4&#45;&gt;Node3 -->
<g id="edge3" class="edge"><title>Node4&#45;&gt;Node3</title>
<path fill="none" stroke="#9a32cd" stroke-dasharray="5,2" d="M89.2723,-380.654C100.648,-382.442 113.352,-384.375 125,-386 155.292,-390.226 189.638,-394.428 215.417,-397.465"/>
<polygon fill="#9a32cd" stroke="#9a32cd" points="89.6928,-377.177 79.2675,-379.065 88.5947,-384.09 89.6928,-377.177"/>
<text text-anchor="middle" x="148" y="-394" font-family="Helvetica,sans-Serif" font-size="10.00"> bcoef</text>
</g>
<!-- Node6 -->
<g id="node6" class="node"><title>Node6</title>
<g id="a_node6"><a xlink:href="structsll__m__spline__interpolator__2d_1_1sll__t__spline__interpolator__2d.html" target="_top" xlink:title="2D tensor&#45;product spline interpolator ">
<polygon fill="white" stroke="black" points="416,-203.5 416,-222.5 550,-222.5 550,-203.5 416,-203.5"/>
<text text-anchor="middle" x="483" y="-210.5" font-family="Helvetica,sans-Serif" font-size="10.00">sll_t_spline_interpolator_2d</text>
</a>
</g>
</g>
<!-- Node4&#45;&gt;Node6 -->
<g id="edge15" class="edge"><title>Node4&#45;&gt;Node6</title>
<path fill="none" stroke="#9a32cd" stroke-dasharray="5,2" d="M89.195,-373.643C112.654,-372.046 144.134,-368.569 171,-361 291.577,-327.031 423.084,-249.542 466.88,-222.513"/>
<polygon fill="#9a32cd" stroke="#9a32cd" points="88.7989,-370.161 79.0263,-374.253 89.2178,-377.148 88.7989,-370.161"/>
<text text-anchor="middle" x="256" y="-358" font-family="Helvetica,sans-Serif" font-size="10.00"> bwork</text>
</g>
<!-- Node7 -->
<g id="node7" class="node"><title>Node7</title>
<g id="a_node7"><a xlink:href="structsll__m__spline__1d_1_1sll__t__spline__1d.html" target="_top" xlink:title="1D spline ">
<polygon fill="white" stroke="black" points="215.5,-232.5 215.5,-251.5 296.5,-251.5 296.5,-232.5 215.5,-232.5"/>
<text text-anchor="middle" x="256" y="-239.5" font-family="Helvetica,sans-Serif" font-size="10.00">sll_t_spline_1d</text>
</a>
</g>
</g>
<!-- Node4&#45;&gt;Node7 -->
<g id="edge8" class="edge"><title>Node4&#45;&gt;Node7</title>
<path fill="none" stroke="#9a32cd" stroke-dasharray="5,2" d="M68.9506,-357.702C82.3382,-342.444 103.39,-320.315 125,-305 129.873,-301.547 199.48,-268.347 234.781,-251.584"/>
<polygon fill="#9a32cd" stroke="#9a32cd" points="66.2111,-355.52 62.3466,-365.384 71.5195,-360.083 66.2111,-355.52"/>
<text text-anchor="middle" x="148" y="-308" font-family="Helvetica,sans-Serif" font-size="10.00"> bcoef</text>
</g>
<!-- Node8 -->
<g id="node8" class="node"><title>Node8</title>
<g id="a_node8"><a xlink:href="structsll__m__spline__interpolator__1d_1_1sll__t__spline__interpolator__1d.html" target="_top" xlink:title="1D spline interpolator ">
<polygon fill="white" stroke="black" points="189,-136.5 189,-155.5 323,-155.5 323,-136.5 189,-136.5"/>
<text text-anchor="middle" x="256" y="-143.5" font-family="Helvetica,sans-Serif" font-size="10.00">sll_t_spline_interpolator_1d</text>
</a>
</g>
</g>
<!-- Node4&#45;&gt;Node8 -->
<g id="edge11" class="edge"><title>Node4&#45;&gt;Node8</title>
<path fill="none" stroke="#9a32cd" stroke-dasharray="5,2" d="M61.4941,-356.044C71.802,-330.447 93.3383,-284.836 125,-257 141.743,-242.28 156.442,-253.884 171,-237 191.135,-213.648 168.158,-192.723 189,-170 194.769,-163.71 202.318,-159.066 210.242,-155.637"/>
<polygon fill="#9a32cd" stroke="#9a32cd" points="58.2239,-354.797 57.8758,-365.386 64.7513,-357.325 58.2239,-354.797"/>
<text text-anchor="middle" x="148" y="-271" font-family="Helvetica,sans-Serif" font-size="10.00"> tau</text>
<text text-anchor="middle" x="148" y="-260" font-family="Helvetica,sans-Serif" font-size="10.00">dx</text>
</g>
<!-- Node5 -->
<g id="node5" class="node"><title>Node5</title>
<polygon fill="white" stroke="#bfbfbf" points="0,-193 0,-223 107,-223 107,-193 0,-193"/>
<text text-anchor="start" x="8" y="-211" font-family="Helvetica,sans-Serif" font-size="10.00">class(sll_c_bsplines)</text>
<text text-anchor="middle" x="53.5" y="-200" font-family="Helvetica,sans-Serif" font-size="10.00">, pointer, private</text>
</g>
<!-- Node5&#45;&gt;Node3 -->
<g id="edge4" class="edge"><title>Node5&#45;&gt;Node3</title>
<path fill="none" stroke="#9a32cd" stroke-dasharray="5,2" d="M67.9947,-231.991C81.2169,-254.626 102.596,-289.019 125,-316 143.073,-337.766 150.774,-340.219 171,-360 179.088,-367.911 179.457,-371.923 189,-378 198.461,-384.025 209.646,-388.82 220.094,-392.49"/>
<polygon fill="#9a32cd" stroke="#9a32cd" points="70.8756,-229.98 62.8482,-223.065 64.8114,-233.477 70.8756,-229.98"/>
<text text-anchor="middle" x="148" y="-374" font-family="Helvetica,sans-Serif" font-size="10.00"> bspl1</text>
<text text-anchor="middle" x="148" y="-363" font-family="Helvetica,sans-Serif" font-size="10.00">bspl2</text>
</g>
<!-- Node5&#45;&gt;Node6 -->
<g id="edge16" class="edge"><title>Node5&#45;&gt;Node6</title>
<path fill="none" stroke="#9a32cd" stroke-dasharray="5,2" d="M117.317,-204.053C139.907,-202.813 165.588,-201.609 189,-201 248.535,-199.452 263.487,-198.757 323,-201 353.568,-202.152 387.371,-204.545 415.921,-206.893"/>
<polygon fill="#9a32cd" stroke="#9a32cd" points="116.962,-200.567 107.174,-204.623 117.355,-207.556 116.962,-200.567"/>
<text text-anchor="middle" x="256" y="-215" font-family="Helvetica,sans-Serif" font-size="10.00"> bspl1</text>
<text text-anchor="middle" x="256" y="-204" font-family="Helvetica,sans-Serif" font-size="10.00">bspl2</text>
</g>
<!-- Node5&#45;&gt;Node7 -->
<g id="edge9" class="edge"><title>Node5&#45;&gt;Node7</title>
<path fill="none" stroke="#9a32cd" stroke-dasharray="5,2" d="M117.131,-217.265C134.589,-219.96 153.551,-222.991 171,-226 185.483,-228.497 201.327,-231.456 215.313,-234.146"/>
<polygon fill="#9a32cd" stroke="#9a32cd" points="117.463,-213.776 107.048,-215.721 116.402,-220.695 117.463,-213.776"/>
<text text-anchor="middle" x="148" y="-229" font-family="Helvetica,sans-Serif" font-size="10.00"> bspl</text>
</g>
<!-- Node5&#45;&gt;Node8 -->
<g id="edge12" class="edge"><title>Node5&#45;&gt;Node8</title>
<path fill="none" stroke="#9a32cd" stroke-dasharray="5,2" d="M84.473,-187.299C96.5746,-179.831 110.976,-172.015 125,-167 145.128,-159.802 167.894,-155.06 188.687,-151.941"/>
<polygon fill="#9a32cd" stroke="#9a32cd" points="82.2585,-184.56 75.7116,-192.89 86.0242,-190.461 82.2585,-184.56"/>
<text text-anchor="middle" x="148" y="-170" font-family="Helvetica,sans-Serif" font-size="10.00"> bspl</text>
</g>
<!-- Node6&#45;&gt;Node1 -->
<g id="edge6" class="edge"><title>Node6&#45;&gt;Node1</title>
<path fill="none" stroke="#9a32cd" stroke-dasharray="5,2" d="M505.519,-228.421C552.443,-262.046 663.478,-341.614 709.961,-374.923"/>
<polygon fill="#9a32cd" stroke="#9a32cd" points="507.447,-225.496 497.28,-222.516 503.37,-231.186 507.447,-225.496"/>
<text text-anchor="middle" x="612" y="-335" font-family="Helvetica,sans-Serif" font-size="10.00"> spline_interp_eta12</text>
</g>
<!-- Node7&#45;&gt;Node6 -->
<g id="edge7" class="edge"><title>Node7&#45;&gt;Node6</title>
<path fill="none" stroke="#9a32cd" stroke-dasharray="5,2" d="M306.75,-235.588C338.829,-231.453 380.918,-226.028 415.808,-221.531"/>
<polygon fill="#9a32cd" stroke="#9a32cd" points="306.178,-232.132 296.708,-236.882 307.073,-239.075 306.178,-232.132"/>
<text text-anchor="middle" x="369.5" y="-245" font-family="Helvetica,sans-Serif" font-size="10.00"> spline1</text>
<text text-anchor="middle" x="369.5" y="-234" font-family="Helvetica,sans-Serif" font-size="10.00">spline2</text>
</g>
<!-- Node8&#45;&gt;Node6 -->
<g id="edge10" class="edge"><title>Node8&#45;&gt;Node6</title>
<path fill="none" stroke="#9a32cd" stroke-dasharray="5,2" d="M333.067,-144.131C354.528,-145.535 377.581,-148.926 398,-156 427.642,-166.269 456.674,-189.815 471.613,-203.21"/>
<polygon fill="#9a32cd" stroke="#9a32cd" points="333.176,-140.632 323.007,-143.607 332.812,-147.623 333.176,-140.632"/>
<text text-anchor="middle" x="369.5" y="-170" font-family="Helvetica,sans-Serif" font-size="10.00"> interp2</text>
<text text-anchor="middle" x="369.5" y="-159" font-family="Helvetica,sans-Serif" font-size="10.00">interp1</text>
</g>
<!-- Node9 -->
<g id="node9" class="node"><title>Node9</title>
<polygon fill="white" stroke="#bfbfbf" points="0,-111.5 0,-152.5 107,-152.5 107,-111.5 0,-111.5"/>
<text text-anchor="start" x="8" y="-140.5" font-family="Helvetica,sans-Serif" font-size="10.00">class(sll_c_spline</text>
<text text-anchor="start" x="8" y="-129.5" font-family="Helvetica,sans-Serif" font-size="10.00">_matrix), allocatable,</text>
<text text-anchor="middle" x="53.5" y="-118.5" font-family="Helvetica,sans-Serif" font-size="10.00"> private</text>
</g>
<!-- Node9&#45;&gt;Node8 -->
<g id="edge13" class="edge"><title>Node9&#45;&gt;Node8</title>
<path fill="none" stroke="#9a32cd" stroke-dasharray="5,2" d="M117.14,-130.871C134.598,-131.01 153.558,-131.583 171,-133 180.708,-133.789 190.993,-135.035 200.913,-136.45"/>
<polygon fill="#9a32cd" stroke="#9a32cd" points="117.068,-127.371 107.057,-130.837 117.045,-134.371 117.068,-127.371"/>
<text text-anchor="middle" x="148" y="-136" font-family="Helvetica,sans-Serif" font-size="10.00"> matrix</text>
</g>
<!-- Node10 -->
<g id="node10" class="node"><title>Node10</title>
<polygon fill="white" stroke="#bfbfbf" points="30.5,-0.5 30.5,-19.5 76.5,-19.5 76.5,-0.5 30.5,-0.5"/>
<text text-anchor="middle" x="53.5" y="-7.5" font-family="Helvetica,sans-Serif" font-size="10.00">integer</text>
</g>
<!-- Node10&#45;&gt;Node1 -->
<g id="edge18" class="edge"><title>Node10&#45;&gt;Node1</title>
<path fill="none" stroke="#9a32cd" stroke-dasharray="5,2" d="M86.9196,-6.4737C150.2,-1.03476 293.142,4.07193 398,-46 535.56,-111.688 556.774,-156.277 656,-272 684.915,-305.722 710.816,-351.53 723.236,-374.913"/>
<polygon fill="#9a32cd" stroke="#9a32cd" points="86.3961,-3.00703 76.7596,-7.41036 87.0387,-9.97747 86.3961,-3.00703"/>
<text text-anchor="middle" x="369.5" y="-82" font-family="Helvetica,sans-Serif" font-size="10.00"> degree_eta2</text>
<text text-anchor="middle" x="369.5" y="-71" font-family="Helvetica,sans-Serif" font-size="10.00">nbasis_eta1</text>
<text text-anchor="middle" x="369.5" y="-60" font-family="Helvetica,sans-Serif" font-size="10.00">nbasis_eta2</text>
<text text-anchor="middle" x="369.5" y="-49" font-family="Helvetica,sans-Serif" font-size="10.00">degree_eta1</text>
</g>
<!-- Node10&#45;&gt;Node6 -->
<g id="edge17" class="edge"><title>Node10&#45;&gt;Node6</title>
<path fill="none" stroke="#9a32cd" stroke-dasharray="5,2" d="M86.7298,-14.8662C110.266,-18.7147 142.848,-24.6559 171,-32 239.949,-49.9868 260.161,-49.4021 323,-83 360.16,-102.868 365.326,-114.391 398,-141 424.659,-162.711 455.105,-189.262 471.009,-203.27"/>
<polygon fill="#9a32cd" stroke="#9a32cd" points="87.0277,-11.3695 76.6007,-13.2477 85.9231,-18.2818 87.0277,-11.3695"/>
<text text-anchor="middle" x="256" y="-119" font-family="Helvetica,sans-Serif" font-size="10.00"> bc_xmax</text>
<text text-anchor="middle" x="256" y="-108" font-family="Helvetica,sans-Serif" font-size="10.00">nbc_xmax</text>
<text text-anchor="middle" x="256" y="-97" font-family="Helvetica,sans-Serif" font-size="10.00">nbc_xmin</text>
<text text-anchor="middle" x="256" y="-86" font-family="Helvetica,sans-Serif" font-size="10.00">bc_xmin</text>
</g>
<!-- Node10&#45;&gt;Node8 -->
<g id="edge14" class="edge"><title>Node10&#45;&gt;Node8</title>
<path fill="none" stroke="#9a32cd" stroke-dasharray="5,2" d="M86.3214,-20.2214C110.734,-28.9136 144.61,-42.8688 171,-61 203.49,-83.3221 234.024,-119.331 247.608,-136.415"/>
<polygon fill="#9a32cd" stroke="#9a32cd" points="87.4092,-16.8943 76.8144,-16.9313 85.1198,-23.5093 87.4092,-16.8943"/>
<text text-anchor="middle" x="148" y="-119" font-family="Helvetica,sans-Serif" font-size="10.00"> offset</text>
<text text-anchor="middle" x="148" y="-108" font-family="Helvetica,sans-Serif" font-size="10.00">bc_xmax</text>
<text text-anchor="middle" x="148" y="-97" font-family="Helvetica,sans-Serif" font-size="10.00">nbc_xmax</text>
<text text-anchor="middle" x="148" y="-86" font-family="Helvetica,sans-Serif" font-size="10.00">odd</text>
<text text-anchor="middle" x="148" y="-75" font-family="Helvetica,sans-Serif" font-size="10.00">nbc_xmin</text>
<text text-anchor="middle" x="148" y="-64" font-family="Helvetica,sans-Serif" font-size="10.00">bc_xmin</text>
</g>
</g>
</svg>
