<?xml version="1.0" encoding="UTF-8" standalone="no"?>
<!DOCTYPE svg PUBLIC "-//W3C//DTD SVG 1.1//EN"
 "http://www.w3.org/Graphics/SVG/1.1/DTD/svg11.dtd">
<!-- Generated by graphviz version 2.40.1 (20161225.0304)
 -->
<!-- Title: sll_t_params_noise_gaussian Pages: 1 -->
<svg width="447pt" height="296pt"
 viewBox="0.00 0.00 447.00 296.00" xmlns="http://www.w3.org/2000/svg" xmlns:xlink="http://www.w3.org/1999/xlink">
<g id="graph0" class="graph" transform="scale(1 1) rotate(0) translate(4 292)">
<title>sll_t_params_noise_gaussian</title>
<polygon fill="#ffffff" stroke="transparent" points="-4,4 -4,-292 443,-292 443,4 -4,4"/>
<!-- Node2 -->
<g id="node1" class="node">
<title>Node2</title>
<polygon fill="#bfbfbf" stroke="#000000" points="154.5,-.5 154.5,-30.5 264.5,-30.5 264.5,-.5 154.5,-.5"/>
<text text-anchor="start" x="162.5" y="-18.5" font-family="Helvetica,sans-Serif" font-size="10.00" fill="#000000">sll_t_params_noise</text>
<text text-anchor="middle" x="209.5" y="-7.5" font-family="Helvetica,sans-Serif" font-size="10.00" fill="#000000">_gaussian</text>
</g>
<!-- Node3 -->
<g id="node2" class="node">
<title>Node3</title>
<g id="a_node2"><a xlink:href="structsll__m__initial__distribution_1_1sll__c__distribution__params.html" target="_top" xlink:title="Abstract data type for parameters of initial distribution. ">
<polygon fill="#ffffff" stroke="#000000" points="96,-79.5 96,-109.5 195,-109.5 195,-79.5 96,-79.5"/>
<text text-anchor="start" x="104" y="-97.5" font-family="Helvetica,sans-Serif" font-size="10.00" fill="#000000">sll_c_distribution</text>
<text text-anchor="middle" x="145.5" y="-86.5" font-family="Helvetica,sans-Serif" font-size="10.00" fill="#000000">_params</text>
</a>
</g>
</g>
<!-- Node3&#45;&gt;Node2 -->
<g id="edge1" class="edge">
<title>Node3&#45;&gt;Node2</title>
<path fill="none" stroke="#191970" d="M164.4069,-71.1618C175.0021,-58.0834 187.9113,-42.1485 197.198,-30.6852"/>
<polygon fill="#191970" stroke="#191970" points="161.4151,-69.2946 157.8398,-79.268 166.8543,-73.701 161.4151,-69.2946"/>
</g>
<!-- Node4 -->
<g id="node3" class="node">
<title>Node4</title>
<polygon fill="#ffffff" stroke="#bfbfbf" points="0,-268.5 0,-287.5 103,-287.5 103,-268.5 0,-268.5"/>
<text text-anchor="middle" x="51.5" y="-275.5" font-family="Helvetica,sans-Serif" font-size="10.00" fill="#000000">integer(kind=i32)</text>
</g>
<!-- Node4&#45;&gt;Node2 -->
<g id="edge4" class="edge">
<title>Node4&#45;&gt;Node2</title>
<path fill="none" stroke="#9a32cd" stroke-dasharray="5,2" d="M43.5644,-258.652C29.236,-220.3137 3.9367,-133.6078 42.5,-78 55.731,-58.9211 110.7918,-40.7426 154.1206,-28.9596"/>
<polygon fill="#9a32cd" stroke="#9a32cd" points="40.3606,-260.07 47.2526,-268.1167 46.8828,-257.5283 40.3606,-260.07"/>
<text text-anchor="middle" x="64.5" y="-92" font-family="Helvetica,sans-Serif" font-size="10.00" fill="#000000"> n_boxes</text>
</g>
<!-- Node4&#45;&gt;Node3 -->
<g id="edge2" class="edge">
<title>Node4&#45;&gt;Node3</title>
<path fill="none" stroke="#9a32cd" stroke-dasharray="5,2" d="M51.853,-258.1112C52.8571,-222.3668 56.7122,-149.1131 71.5,-129 77.7135,-120.549 86.518,-114.101 95.8965,-109.2042"/>
<polygon fill="#9a32cd" stroke="#9a32cd" points="48.35,-258.2051 51.617,-268.2836 55.3481,-258.3675 48.35,-258.2051"/>
<text text-anchor="middle" x="103.5" y="-192.5" font-family="Helvetica,sans-Serif" font-size="10.00" fill="#000000"> n_gaussians</text>
<text text-anchor="middle" x="103.5" y="-181.5" font-family="Helvetica,sans-Serif" font-size="10.00" fill="#000000">dims</text>
</g>
<!-- Node5 -->
<g id="node4" class="node">
<title>Node5</title>
<polygon fill="#ffffff" stroke="#bfbfbf" points="187.5,-268.5 187.5,-287.5 275.5,-287.5 275.5,-268.5 187.5,-268.5"/>
<text text-anchor="middle" x="231.5" y="-275.5" font-family="Helvetica,sans-Serif" font-size="10.00" fill="#000000">real(kind=f64)</text>
</g>
<!-- Node5&#45;&gt;Node2 -->
<g id="edge7" class="edge">
<title>Node5&#45;&gt;Node2</title>
<path fill="none" stroke="#9a32cd" stroke-dasharray="5,2" d="M229.8355,-258.14C225.6143,-207.7725 214.5589,-75.8621 210.7845,-30.8267"/>
<polygon fill="#9a32cd" stroke="#9a32cd" points="226.3679,-258.6734 230.6909,-268.3462 233.3434,-258.0888 226.3679,-258.6734"/>
<text text-anchor="middle" x="250.5" y="-103" font-family="Helvetica,sans-Serif" font-size="10.00" fill="#000000"> noise_vector</text>
<text text-anchor="middle" x="250.5" y="-92" font-family="Helvetica,sans-Serif" font-size="10.00" fill="#000000">alpha</text>
<text text-anchor="middle" x="250.5" y="-81" font-family="Helvetica,sans-Serif" font-size="10.00" fill="#000000">rdx</text>
</g>
<!-- Node5&#45;&gt;Node3 -->
<g id="edge3" class="edge">
<title>Node5&#45;&gt;Node3</title>
<path fill="none" stroke="#9a32cd" stroke-dasharray="5,2" d="M180.6652,-263.8222C174.4543,-260.2033 168.7961,-255.6716 164.5,-250 132.4774,-207.7243 138.2151,-139.6295 142.7677,-109.5784"/>
<polygon fill="#9a32cd" stroke="#9a32cd" points="179.5538,-267.1783 190.0662,-268.4974 182.6708,-260.9106 179.5538,-267.1783"/>
<text text-anchor="middle" x="191" y="-203.5" font-family="Helvetica,sans-Serif" font-size="10.00" fill="#000000"> v_thermal</text>
<text text-anchor="middle" x="191" y="-192.5" font-family="Helvetica,sans-Serif" font-size="10.00" fill="#000000">delta</text>
<text text-anchor="middle" x="191" y="-181.5" font-family="Helvetica,sans-Serif" font-size="10.00" fill="#000000">normal</text>
<text text-anchor="middle" x="191" y="-170.5" font-family="Helvetica,sans-Serif" font-size="10.00" fill="#000000">v_mean</text>
</g>
<!-- Node6 -->
<g id="node5" class="node">
<title>Node6</title>
<g id="a_node5"><a xlink:href="structsll__m__profile__functions_1_1sll__t__profile__functions.html" target="_top" xlink:title="sll_t_profile_functions">
<polygon fill="#ffffff" stroke="#000000" points="316,-85 316,-104 439,-104 439,-85 316,-85"/>
<text text-anchor="middle" x="377.5" y="-92" font-family="Helvetica,sans-Serif" font-size="10.00" fill="#000000">sll_t_profile_functions</text>
</a>
</g>
</g>
<!-- Node5&#45;&gt;Node6 -->
<g id="edge6" class="edge">
<title>Node5&#45;&gt;Node6</title>
<path fill="none" stroke="#9a32cd" stroke-dasharray="5,2" d="M245.6287,-260.2424C276.0089,-222.059 346.6773,-133.2395 369.9316,-104.0123"/>
<polygon fill="#9a32cd" stroke="#9a32cd" points="242.6313,-258.3881 239.144,-268.3926 248.1091,-262.7464 242.6313,-258.3881"/>
<text text-anchor="middle" x="365.5" y="-242" font-family="Helvetica,sans-Serif" font-size="10.00" fill="#000000"> rbar</text>
<text text-anchor="middle" x="365.5" y="-231" font-family="Helvetica,sans-Serif" font-size="10.00" fill="#000000">wte</text>
<text text-anchor="middle" x="365.5" y="-220" font-family="Helvetica,sans-Serif" font-size="10.00" fill="#000000">wti</text>
<text text-anchor="middle" x="365.5" y="-209" font-family="Helvetica,sans-Serif" font-size="10.00" fill="#000000">kte</text>
<text text-anchor="middle" x="365.5" y="-198" font-family="Helvetica,sans-Serif" font-size="10.00" fill="#000000">tibar</text>
<text text-anchor="middle" x="365.5" y="-187" font-family="Helvetica,sans-Serif" font-size="10.00" fill="#000000">kr</text>
<text text-anchor="middle" x="365.5" y="-176" font-family="Helvetica,sans-Serif" font-size="10.00" fill="#000000">tebar</text>
<text text-anchor="middle" x="365.5" y="-165" font-family="Helvetica,sans-Serif" font-size="10.00" fill="#000000">kti</text>
<text text-anchor="middle" x="365.5" y="-154" font-family="Helvetica,sans-Serif" font-size="10.00" fill="#000000">rhobar</text>
<text text-anchor="middle" x="365.5" y="-143" font-family="Helvetica,sans-Serif" font-size="10.00" fill="#000000">wr</text>
<text text-anchor="middle" x="365.5" y="-132" font-family="Helvetica,sans-Serif" font-size="10.00" fill="#000000">...</text>
</g>
<!-- Node6&#45;&gt;Node2 -->
<g id="edge5" class="edge">
<title>Node6&#45;&gt;Node2</title>
<path fill="none" stroke="#9a32cd" stroke-dasharray="5,2" d="M348.1738,-80.7097C318.3865,-66.7026 272.381,-45.069 241.6243,-30.6061"/>
<polygon fill="#9a32cd" stroke="#9a32cd" points="346.6965,-83.8826 357.2353,-84.9708 349.6753,-77.548 346.6965,-83.8826"/>
<text text-anchor="middle" x="320.5" y="-52" font-family="Helvetica,sans-Serif" font-size="10.00" fill="#000000"> profile</text>
</g>
</g>
</svg>
