<?xml version="1.0" encoding="UTF-8" standalone="no"?>
<!DOCTYPE svg PUBLIC "-//W3C//DTD SVG 1.1//EN"
 "http://www.w3.org/Graphics/SVG/1.1/DTD/svg11.dtd">
<!-- Generated by graphviz version 2.43.0 (0)
 -->
<!-- Title: sll_t_coordinate_transformation_2d_analytic Pages: 1 -->
<svg width="970pt" height="404pt"
 viewBox="0.00 0.00 970.00 404.00" xmlns="http://www.w3.org/2000/svg" xmlns:xlink="http://www.w3.org/1999/xlink">
<g id="graph0" class="graph" transform="scale(1 1) rotate(0) translate(4 400)">
<title>sll_t_coordinate_transformation_2d_analytic</title>
<polygon fill="white" stroke="transparent" points="-4,4 -4,-400 966,-400 966,4 -4,4"/>
<!-- Node1 -->
<g id="node1" class="node">
<title>Node1</title>
<g id="a_node1"><a xlink:title="Analytic transformation.">
<polygon fill="#bfbfbf" stroke="black" points="790,-148 790,-178 962,-178 962,-148 790,-148"/>
<text text-anchor="start" x="798" y="-166" font-family="Helvetica,sans-Serif" font-size="10.00">sll_t_coordinate_transformation</text>
<text text-anchor="middle" x="876" y="-155" font-family="Helvetica,sans-Serif" font-size="10.00">_2d_analytic</text>
</a>
</g>
</g>
<!-- Node2 -->
<g id="node2" class="node">
<title>Node2</title>
<g id="a_node2"><a xlink:href="structsll__m__coordinate__transformation__2d__base_1_1sll__c__coordinate__transformation__2d__base.html" target="_top" xlink:title="Abstract class for coordinate transformation.">
<polygon fill="white" stroke="black" points="454,-298 454,-328 627,-328 627,-298 454,-298"/>
<text text-anchor="start" x="462" y="-316" font-family="Helvetica,sans-Serif" font-size="10.00">sll_c_coordinate_transformation</text>
<text text-anchor="middle" x="540.5" y="-305" font-family="Helvetica,sans-Serif" font-size="10.00">_2d_base</text>
</a>
</g>
</g>
<!-- Node2&#45;&gt;Node1 -->
<g id="edge1" class="edge">
<title>Node2&#45;&gt;Node1</title>
<path fill="none" stroke="midnightblue" d="M619.06,-295.39C665.02,-283.28 723.56,-264.87 772,-240 805.17,-222.97 838.89,-195.39 858.34,-178.27"/>
<polygon fill="midnightblue" stroke="midnightblue" points="617.95,-292.06 609.15,-297.96 619.71,-298.84 617.95,-292.06"/>
</g>
<!-- Node3 -->
<g id="node3" class="node">
<title>Node3</title>
<g id="a_node3"><a xlink:title=" ">
<polygon fill="white" stroke="#bfbfbf" points="270,-362.5 270,-381.5 319,-381.5 319,-362.5 270,-362.5"/>
<text text-anchor="middle" x="294.5" y="-369.5" font-family="Helvetica,sans-Serif" font-size="10.00">logical</text>
</a>
</g>
</g>
<!-- Node3&#45;&gt;Node2 -->
<g id="edge2" class="edge">
<title>Node3&#45;&gt;Node2</title>
<path fill="none" stroke="#9a32cd" stroke-dasharray="5,2" d="M329.19,-364.33C344.14,-360.9 361.96,-356.78 378,-353 411.88,-345.01 449.64,-335.68 480.13,-328.04"/>
<polygon fill="#9a32cd" stroke="#9a32cd" points="328.31,-360.94 319.34,-366.58 329.87,-367.76 328.31,-360.94"/>
<text text-anchor="middle" x="416" y="-350" font-family="Helvetica,sans-Serif" font-size="10.00"> written</text>
</g>
<!-- Node4 -->
<g id="node4" class="node">
<title>Node4</title>
<g id="a_node4"><a xlink:href="structsll__m__cartesian__meshes_1_1sll__t__cartesian__mesh__2d.html" target="_top" xlink:title="2D cartesian mesh">
<polygon fill="white" stroke="black" points="226,-324.5 226,-343.5 363,-343.5 363,-324.5 226,-324.5"/>
<text text-anchor="middle" x="294.5" y="-331.5" font-family="Helvetica,sans-Serif" font-size="10.00">sll_t_cartesian_mesh_2d</text>
</a>
</g>
</g>
<!-- Node4&#45;&gt;Node2 -->
<g id="edge3" class="edge">
<title>Node4&#45;&gt;Node2</title>
<path fill="none" stroke="#9a32cd" stroke-dasharray="5,2" d="M373.2,-327.31C398.88,-325.1 427.58,-322.63 453.83,-320.37"/>
<polygon fill="#9a32cd" stroke="#9a32cd" points="372.81,-323.83 363.14,-328.18 373.41,-330.81 372.81,-323.83"/>
<text text-anchor="middle" x="416" y="-327" font-family="Helvetica,sans-Serif" font-size="10.00"> mesh</text>
</g>
<!-- Node5 -->
<g id="node5" class="node">
<title>Node5</title>
<g id="a_node5"><a xlink:href="structsll__m__meshes__base_1_1sll__c__mesh__2d__base.html" target="_top" xlink:title="2D logical mesh">
<polygon fill="white" stroke="black" points="0,-376.5 0,-395.5 116,-395.5 116,-376.5 0,-376.5"/>
<text text-anchor="middle" x="58" y="-383.5" font-family="Helvetica,sans-Serif" font-size="10.00">sll_c_mesh_2d_base</text>
</a>
</g>
</g>
<!-- Node5&#45;&gt;Node4 -->
<g id="edge4" class="edge">
<title>Node5&#45;&gt;Node4</title>
<path fill="none" stroke="midnightblue" d="M126.11,-385.34C148.19,-383.1 172.36,-378.38 193,-369 202.75,-364.57 201.49,-357.91 211,-353 218.44,-349.16 226.66,-346.08 234.94,-343.63"/>
<polygon fill="midnightblue" stroke="midnightblue" points="125.79,-381.85 116.13,-386.2 126.39,-388.83 125.79,-381.85"/>
</g>
<!-- Node6 -->
<g id="node6" class="node">
<title>Node6</title>
<g id="a_node6"><a xlink:title=" ">
<polygon fill="white" stroke="#bfbfbf" points="6.5,-338.5 6.5,-357.5 109.5,-357.5 109.5,-338.5 6.5,-338.5"/>
<text text-anchor="middle" x="58" y="-345.5" font-family="Helvetica,sans-Serif" font-size="10.00">integer(kind=i32)</text>
</a>
</g>
</g>
<!-- Node6&#45;&gt;Node4 -->
<g id="edge5" class="edge">
<title>Node6&#45;&gt;Node4</title>
<path fill="none" stroke="#9a32cd" stroke-dasharray="5,2" d="M119.84,-344.37C152.25,-342.43 192.22,-340.05 225.64,-338.05"/>
<polygon fill="#9a32cd" stroke="#9a32cd" points="119.37,-340.89 109.59,-344.98 119.79,-347.88 119.37,-340.89"/>
<text text-anchor="middle" x="163.5" y="-357" font-family="Helvetica,sans-Serif" font-size="10.00"> num_cells1</text>
<text text-anchor="middle" x="163.5" y="-346" font-family="Helvetica,sans-Serif" font-size="10.00">num_cells2</text>
</g>
<!-- Node7 -->
<g id="node7" class="node">
<title>Node7</title>
<g id="a_node7"><a xlink:title=" ">
<polygon fill="white" stroke="#bfbfbf" points="14,-233.5 14,-252.5 102,-252.5 102,-233.5 14,-233.5"/>
<text text-anchor="middle" x="58" y="-240.5" font-family="Helvetica,sans-Serif" font-size="10.00">real(kind=f64)</text>
</a>
</g>
</g>
<!-- Node7&#45;&gt;Node1 -->
<g id="edge13" class="edge">
<title>Node7&#45;&gt;Node1</title>
<path fill="none" stroke="#9a32cd" stroke-dasharray="5,2" d="M112.3,-238.58C230.94,-228.6 525.78,-203.1 772,-176 777.82,-175.36 783.83,-174.67 789.87,-173.96"/>
<polygon fill="#9a32cd" stroke="#9a32cd" points="111.72,-235.11 102.05,-239.44 112.3,-242.09 111.72,-235.11"/>
<text text-anchor="middle" x="416" y="-216" font-family="Helvetica,sans-Serif" font-size="10.00"> params</text>
</g>
<!-- Node7&#45;&gt;Node4 -->
<g id="edge6" class="edge">
<title>Node7&#45;&gt;Node4</title>
<path fill="none" stroke="#9a32cd" stroke-dasharray="5,2" d="M112.18,-242.2C139.09,-244.43 170.69,-251.41 193,-270 209.55,-283.79 194.64,-300.99 211,-315 215.46,-318.82 220.55,-321.92 225.95,-324.42"/>
<polygon fill="#9a32cd" stroke="#9a32cd" points="112.33,-238.7 102.13,-241.56 111.89,-245.69 112.33,-238.7"/>
<text text-anchor="middle" x="163.5" y="-328" font-family="Helvetica,sans-Serif" font-size="10.00"> delta_eta1</text>
<text text-anchor="middle" x="163.5" y="-317" font-family="Helvetica,sans-Serif" font-size="10.00">delta_eta2</text>
<text text-anchor="middle" x="163.5" y="-306" font-family="Helvetica,sans-Serif" font-size="10.00">eta1_max</text>
<text text-anchor="middle" x="163.5" y="-295" font-family="Helvetica,sans-Serif" font-size="10.00">eta1_min</text>
<text text-anchor="middle" x="163.5" y="-284" font-family="Helvetica,sans-Serif" font-size="10.00">eta2_max</text>
<text text-anchor="middle" x="163.5" y="-273" font-family="Helvetica,sans-Serif" font-size="10.00">eta2_min</text>
</g>
<!-- Node8 -->
<g id="node8" class="node">
<title>Node8</title>
<g id="a_node8"><a xlink:title=" ">
<polygon fill="white" stroke="#bfbfbf" points="242,-286.5 242,-305.5 347,-305.5 347,-286.5 242,-286.5"/>
<text text-anchor="middle" x="294.5" y="-293.5" font-family="Helvetica,sans-Serif" font-size="10.00">character(len=64)</text>
</a>
</g>
</g>
<!-- Node8&#45;&gt;Node2 -->
<g id="edge7" class="edge">
<title>Node8&#45;&gt;Node2</title>
<path fill="none" stroke="#9a32cd" stroke-dasharray="5,2" d="M357.52,-295.82C382,-296.14 410.35,-297 436,-299 441.78,-299.45 447.74,-300.01 453.73,-300.64"/>
<polygon fill="#9a32cd" stroke="#9a32cd" points="357.32,-292.31 347.28,-295.71 357.25,-299.31 357.32,-292.31"/>
<text text-anchor="middle" x="416" y="-302" font-family="Helvetica,sans-Serif" font-size="10.00"> label</text>
</g>
<!-- Node9 -->
<g id="node9" class="node">
<title>Node9</title>
<g id="a_node9"><a xlink:title=" ">
<polygon fill="white" stroke="#bfbfbf" points="211,-143 211,-173 378,-173 378,-143 211,-143"/>
<text text-anchor="start" x="219" y="-161" font-family="Helvetica,sans-Serif" font-size="10.00">procedure(sll_i_transformation</text>
<text text-anchor="middle" x="294.5" y="-150" font-family="Helvetica,sans-Serif" font-size="10.00">_func_nopass), pointer, nopass</text>
</a>
</g>
</g>
<!-- Node9&#45;&gt;Node1 -->
<g id="edge8" class="edge">
<title>Node9&#45;&gt;Node1</title>
<path fill="none" stroke="#9a32cd" stroke-dasharray="5,2" d="M388.23,-159.89C390.85,-159.93 393.44,-159.96 396,-160 533.83,-161.92 693.98,-162.61 789.77,-162.86"/>
<polygon fill="#9a32cd" stroke="#9a32cd" points="388.1,-156.38 378.04,-159.72 387.98,-163.38 388.1,-156.38"/>
<text text-anchor="middle" x="540.5" y="-176" font-family="Helvetica,sans-Serif" font-size="10.00"> x1_func</text>
<text text-anchor="middle" x="540.5" y="-165" font-family="Helvetica,sans-Serif" font-size="10.00">x2_func</text>
</g>
<!-- Node10 -->
<g id="node10" class="node">
<title>Node10</title>
<g id="a_node10"><a xlink:href="structsll__m__coordinate__transformations__2d_1_1jacobian__matrix__element.html" target="_top" xlink:title="Functions array.">
<polygon fill="white" stroke="black" points="470,-120.5 470,-139.5 611,-139.5 611,-120.5 470,-120.5"/>
<text text-anchor="middle" x="540.5" y="-127.5" font-family="Helvetica,sans-Serif" font-size="10.00">jacobian_matrix_element</text>
</a>
</g>
</g>
<!-- Node9&#45;&gt;Node10 -->
<g id="edge10" class="edge">
<title>Node9&#45;&gt;Node10</title>
<path fill="none" stroke="#9a32cd" stroke-dasharray="5,2" d="M388.38,-147.34C415.47,-144.23 444.6,-140.89 469.99,-137.98"/>
<polygon fill="#9a32cd" stroke="#9a32cd" points="387.64,-143.9 378.11,-148.52 388.44,-150.86 387.64,-143.9"/>
<text text-anchor="middle" x="416" y="-148" font-family="Helvetica,sans-Serif" font-size="10.00"> f</text>
</g>
<!-- Node10&#45;&gt;Node1 -->
<g id="edge9" class="edge">
<title>Node10&#45;&gt;Node1</title>
<path fill="none" stroke="#9a32cd" stroke-dasharray="5,2" d="M621.29,-136.77C665.69,-140.67 721.94,-145.8 772,-151 777.82,-151.6 783.82,-152.25 789.87,-152.91"/>
<polygon fill="#9a32cd" stroke="#9a32cd" points="621.41,-133.27 611.14,-135.89 620.8,-140.24 621.41,-133.27"/>
<text text-anchor="middle" x="708.5" y="-154" font-family="Helvetica,sans-Serif" font-size="10.00"> j_matrix</text>
</g>
<!-- Node11 -->
<g id="node11" class="node">
<title>Node11</title>
<g id="a_node11"><a xlink:title=" ">
<polygon fill="white" stroke="#bfbfbf" points="484,-60.5 484,-101.5 597,-101.5 597,-60.5 484,-60.5"/>
<text text-anchor="start" x="492" y="-89.5" font-family="Helvetica,sans-Serif" font-size="10.00">procedure(j_matrix</text>
<text text-anchor="start" x="492" y="-78.5" font-family="Helvetica,sans-Serif" font-size="10.00">_f_nopass), pointer,</text>
<text text-anchor="middle" x="540.5" y="-67.5" font-family="Helvetica,sans-Serif" font-size="10.00"> nopass</text>
</a>
</g>
</g>
<!-- Node11&#45;&gt;Node1 -->
<g id="edge11" class="edge">
<title>Node11&#45;&gt;Node1</title>
<path fill="none" stroke="#9a32cd" stroke-dasharray="5,2" d="M607.04,-90.05C653.56,-97.25 717.22,-108.65 772,-124 795.01,-130.45 820.11,-139.9 839.77,-147.88"/>
<polygon fill="#9a32cd" stroke="#9a32cd" points="607.5,-86.58 597.09,-88.54 606.45,-93.5 607.5,-86.58"/>
<text text-anchor="middle" x="708.5" y="-127" font-family="Helvetica,sans-Serif" font-size="10.00"> jacobian_matrix_function</text>
</g>
<!-- Node12 -->
<g id="node12" class="node">
<title>Node12</title>
<g id="a_node12"><a xlink:title=" ">
<polygon fill="white" stroke="#bfbfbf" points="461.5,-0.5 461.5,-41.5 619.5,-41.5 619.5,-0.5 461.5,-0.5"/>
<text text-anchor="start" x="469.5" y="-29.5" font-family="Helvetica,sans-Serif" font-size="10.00">procedure(two_arg_message</text>
<text text-anchor="start" x="469.5" y="-18.5" font-family="Helvetica,sans-Serif" font-size="10.00">_passing_func_analyt),</text>
<text text-anchor="middle" x="540.5" y="-7.5" font-family="Helvetica,sans-Serif" font-size="10.00"> pointer, pass</text>
</a>
</g>
</g>
<!-- Node12&#45;&gt;Node1 -->
<g id="edge12" class="edge">
<title>Node12&#45;&gt;Node1</title>
<path fill="none" stroke="#9a32cd" stroke-dasharray="5,2" d="M629.47,-35.49C673.77,-44.95 727.4,-59.76 772,-82 806.81,-99.36 841.07,-129.67 859.99,-147.88"/>
<polygon fill="#9a32cd" stroke="#9a32cd" points="630.09,-32.05 619.58,-33.44 628.66,-38.9 630.09,-32.05"/>
<text text-anchor="middle" x="708.5" y="-85" font-family="Helvetica,sans-Serif" font-size="10.00"> jacobian_func</text>
</g>
</g>
</svg>
