<?xml version="1.0" encoding="UTF-8" standalone="no"?>
<!DOCTYPE svg PUBLIC "-//W3C//DTD SVG 1.1//EN"
 "http://www.w3.org/Graphics/SVG/1.1/DTD/svg11.dtd">
<!-- Generated by graphviz version 2.43.0 (0)
 -->
<!-- Title: sll_t_linear_solver_abstract Pages: 1 -->
<svg width="193pt" height="161pt"
 viewBox="0.00 0.00 192.50 161.00" xmlns="http://www.w3.org/2000/svg" xmlns:xlink="http://www.w3.org/1999/xlink">
<g id="graph0" class="graph" transform="scale(1 1) rotate(0) translate(4 157)">
<title>sll_t_linear_solver_abstract</title>
<polygon fill="white" stroke="transparent" points="-4,4 -4,-157 188.5,-157 188.5,4 -4,4"/>
<!-- Node1 -->
<g id="node1" class="node">
<title>Node1</title>
<g id="a_node1"><a xlink:title="class for abstract linear solver">
<polygon fill="#bfbfbf" stroke="black" points="19,-0.5 19,-30.5 124,-30.5 124,-0.5 19,-0.5"/>
<text text-anchor="start" x="27" y="-18.5" font-family="Helvetica,sans-Serif" font-size="10.00">sll_t_linear_solver</text>
<text text-anchor="middle" x="71.5" y="-7.5" font-family="Helvetica,sans-Serif" font-size="10.00">_abstract</text>
</a>
</g>
</g>
<!-- Node2 -->
<g id="node2" class="node">
<title>Node2</title>
<g id="a_node2"><a xlink:title=" ">
<polygon fill="white" stroke="#bfbfbf" points="0,-133.5 0,-152.5 49,-152.5 49,-133.5 0,-133.5"/>
<text text-anchor="middle" x="24.5" y="-140.5" font-family="Helvetica,sans-Serif" font-size="10.00">logical</text>
</a>
</g>
</g>
<!-- Node2&#45;&gt;Node1 -->
<g id="edge1" class="edge">
<title>Node2&#45;&gt;Node1</title>
<path fill="none" stroke="#9a32cd" stroke-dasharray="5,2" d="M22.67,-123.4C21.59,-103.78 22.31,-72.5 34.5,-49 38.2,-41.87 44.17,-35.59 50.25,-30.5"/>
<polygon fill="#9a32cd" stroke="#9a32cd" points="19.19,-123.76 23.45,-133.46 26.17,-123.22 19.19,-123.76"/>
<text text-anchor="middle" x="65.5" y="-85" font-family="Helvetica,sans-Serif" font-size="10.00"> is_allocated</text>
<text text-anchor="middle" x="65.5" y="-74" font-family="Helvetica,sans-Serif" font-size="10.00">verbose</text>
</g>
<!-- Node3 -->
<g id="node3" class="node">
<title>Node3</title>
<g id="a_node3"><a xlink:title=" ">
<polygon fill="white" stroke="#bfbfbf" points="67,-133.5 67,-152.5 170,-152.5 170,-133.5 67,-133.5"/>
<text text-anchor="middle" x="118.5" y="-140.5" font-family="Helvetica,sans-Serif" font-size="10.00">integer(kind=i32)</text>
</a>
</g>
</g>
<!-- Node3&#45;&gt;Node1 -->
<g id="edge2" class="edge">
<title>Node3&#45;&gt;Node1</title>
<path fill="none" stroke="#9a32cd" stroke-dasharray="5,2" d="M116.42,-123.2C113.75,-103.84 108,-73.18 96.5,-49 93.38,-42.44 88.78,-35.95 84.37,-30.51"/>
<polygon fill="#9a32cd" stroke="#9a32cd" points="112.98,-123.9 117.69,-133.39 119.93,-123.04 112.98,-123.9"/>
<text text-anchor="middle" x="149.5" y="-107" font-family="Helvetica,sans-Serif" font-size="10.00"> n_cols</text>
<text text-anchor="middle" x="149.5" y="-96" font-family="Helvetica,sans-Serif" font-size="10.00">n_global_cols</text>
<text text-anchor="middle" x="149.5" y="-85" font-family="Helvetica,sans-Serif" font-size="10.00">n_global_rows</text>
<text text-anchor="middle" x="149.5" y="-74" font-family="Helvetica,sans-Serif" font-size="10.00">n_rows</text>
<text text-anchor="middle" x="149.5" y="-63" font-family="Helvetica,sans-Serif" font-size="10.00">n_total_cols</text>
<text text-anchor="middle" x="149.5" y="-52" font-family="Helvetica,sans-Serif" font-size="10.00">n_total_rows</text>
</g>
</g>
</svg>
