<?xml version="1.0" encoding="UTF-8" standalone="no"?>
<!DOCTYPE svg PUBLIC "-//W3C//DTD SVG 1.1//EN"
 "http://www.w3.org/Graphics/SVG/1.1/DTD/svg11.dtd">
<!-- Generated by graphviz version 2.43.0 (0)
 -->
<!-- Title: sll_t_linear_operator_block Pages: 1 -->
<svg width="609pt" height="280pt"
 viewBox="0.00 0.00 609.00 280.00" xmlns="http://www.w3.org/2000/svg" xmlns:xlink="http://www.w3.org/1999/xlink">
<g id="graph0" class="graph" transform="scale(1 1) rotate(0) translate(4 276)">
<title>sll_t_linear_operator_block</title>
<polygon fill="white" stroke="transparent" points="-4,4 -4,-276 605,-276 605,4 -4,4"/>
<!-- Node1 -->
<g id="node1" class="node">
<title>Node1</title>
<g id="a_node1"><a xlink:title="class for a linear operator_block">
<polygon fill="#bfbfbf" stroke="black" points="485,-78 485,-108 601,-108 601,-78 485,-78"/>
<text text-anchor="start" x="493" y="-96" font-family="Helvetica,sans-Serif" font-size="10.00">sll_t_linear_operator</text>
<text text-anchor="middle" x="543" y="-85" font-family="Helvetica,sans-Serif" font-size="10.00">_block</text>
</a>
</g>
</g>
<!-- Node2 -->
<g id="node2" class="node">
<title>Node2</title>
<g id="a_node2"><a xlink:href="structsll__m__linear__operator__abstract_1_1sll__t__linear__operator__abstract.html" target="_top" xlink:title="class for abstract linear operator">
<polygon fill="white" stroke="black" points="249,-147 249,-177 365,-177 365,-147 249,-147"/>
<text text-anchor="start" x="257" y="-165" font-family="Helvetica,sans-Serif" font-size="10.00">sll_t_linear_operator</text>
<text text-anchor="middle" x="307" y="-154" font-family="Helvetica,sans-Serif" font-size="10.00">_abstract</text>
</a>
</g>
</g>
<!-- Node2&#45;&gt;Node1 -->
<g id="edge1" class="edge">
<title>Node2&#45;&gt;Node1</title>
<path fill="none" stroke="midnightblue" d="M374.88,-145.72C403.42,-138.41 437.01,-129.34 467,-120 478.5,-116.42 490.84,-112.16 502.13,-108.08"/>
<polygon fill="midnightblue" stroke="midnightblue" points="373.84,-142.37 365.01,-148.23 375.56,-149.16 373.84,-142.37"/>
</g>
<!-- Node3 -->
<g id="node3" class="node">
<title>Node3</title>
<g id="a_node3"><a xlink:title=" ">
<polygon fill="white" stroke="#bfbfbf" points="33,-251.5 33,-270.5 82,-270.5 82,-251.5 33,-251.5"/>
<text text-anchor="middle" x="57.5" y="-258.5" font-family="Helvetica,sans-Serif" font-size="10.00">logical</text>
</a>
</g>
</g>
<!-- Node3&#45;&gt;Node2 -->
<g id="edge2" class="edge">
<title>Node3&#45;&gt;Node2</title>
<path fill="none" stroke="#9a32cd" stroke-dasharray="5,2" d="M92.51,-262.99C128.52,-263.7 186.12,-260.73 230,-239 258.78,-224.75 283.02,-195.18 295.95,-177.12"/>
<polygon fill="#9a32cd" stroke="#9a32cd" points="92.17,-259.48 82.07,-262.67 91.96,-266.48 92.17,-259.48"/>
<text text-anchor="middle" x="181.5" y="-264" font-family="Helvetica,sans-Serif" font-size="10.00"> is_allocated</text>
</g>
<!-- Node4 -->
<g id="node4" class="node">
<title>Node4</title>
<g id="a_node4"><a xlink:title=" ">
<polygon fill="white" stroke="#bfbfbf" points="6,-113.5 6,-132.5 109,-132.5 109,-113.5 6,-113.5"/>
<text text-anchor="middle" x="57.5" y="-120.5" font-family="Helvetica,sans-Serif" font-size="10.00">integer(kind=i32)</text>
</a>
</g>
</g>
<!-- Node4&#45;&gt;Node1 -->
<g id="edge6" class="edge">
<title>Node4&#45;&gt;Node1</title>
<path fill="none" stroke="#9a32cd" stroke-dasharray="5,2" d="M119.55,-119.21C213.7,-113.37 393.02,-102.24 484.79,-96.55"/>
<polygon fill="#9a32cd" stroke="#9a32cd" points="119.09,-115.73 109.33,-119.85 119.53,-122.72 119.09,-115.73"/>
<text text-anchor="middle" x="307" y="-124" font-family="Helvetica,sans-Serif" font-size="10.00"> arr_n_cols</text>
<text text-anchor="middle" x="307" y="-113" font-family="Helvetica,sans-Serif" font-size="10.00">arr_n_rows</text>
</g>
<!-- Node4&#45;&gt;Node2 -->
<g id="edge3" class="edge">
<title>Node4&#45;&gt;Node2</title>
<path fill="none" stroke="#9a32cd" stroke-dasharray="5,2" d="M119.51,-126.32C152.45,-128.8 193.68,-133 230,-140 239.44,-141.82 249.4,-144.29 258.89,-146.92"/>
<polygon fill="#9a32cd" stroke="#9a32cd" points="119.35,-122.8 109.13,-125.58 118.85,-129.79 119.35,-122.8"/>
<text text-anchor="middle" x="181.5" y="-231" font-family="Helvetica,sans-Serif" font-size="10.00"> id_cols</text>
<text text-anchor="middle" x="181.5" y="-220" font-family="Helvetica,sans-Serif" font-size="10.00">id_rows</text>
<text text-anchor="middle" x="181.5" y="-209" font-family="Helvetica,sans-Serif" font-size="10.00">n_block_cols</text>
<text text-anchor="middle" x="181.5" y="-198" font-family="Helvetica,sans-Serif" font-size="10.00">n_block_rows</text>
<text text-anchor="middle" x="181.5" y="-187" font-family="Helvetica,sans-Serif" font-size="10.00">n_cols</text>
<text text-anchor="middle" x="181.5" y="-176" font-family="Helvetica,sans-Serif" font-size="10.00">n_dof</text>
<text text-anchor="middle" x="181.5" y="-165" font-family="Helvetica,sans-Serif" font-size="10.00">n_global_cols</text>
<text text-anchor="middle" x="181.5" y="-154" font-family="Helvetica,sans-Serif" font-size="10.00">n_global_rows</text>
<text text-anchor="middle" x="181.5" y="-143" font-family="Helvetica,sans-Serif" font-size="10.00">n_rows</text>
</g>
<!-- Node5 -->
<g id="node5" class="node">
<title>Node5</title>
<g id="a_node5"><a xlink:href="structsll__m__linear__operator__block_1_1jrk__t__linear__operator__pointer.html" target="_top" xlink:title="class that contains a pointer to a linear operator">
<polygon fill="white" stroke="black" points="248,-39 248,-69 366,-69 366,-39 248,-39"/>
<text text-anchor="start" x="256" y="-57" font-family="Helvetica,sans-Serif" font-size="10.00">jrk_t_linear_operator</text>
<text text-anchor="middle" x="307" y="-46" font-family="Helvetica,sans-Serif" font-size="10.00">_pointer</text>
</a>
</g>
</g>
<!-- Node5&#45;&gt;Node1 -->
<g id="edge4" class="edge">
<title>Node5&#45;&gt;Node1</title>
<path fill="none" stroke="#9a32cd" stroke-dasharray="5,2" d="M376.15,-65.36C410.69,-71.11 452.14,-78.02 484.97,-83.49"/>
<polygon fill="#9a32cd" stroke="#9a32cd" points="376.58,-61.88 366.14,-63.69 375.43,-68.79 376.58,-61.88"/>
<text text-anchor="middle" x="425.5" y="-83" font-family="Helvetica,sans-Serif" font-size="10.00"> linear_operators</text>
</g>
<!-- Node6 -->
<g id="node6" class="node">
<title>Node6</title>
<g id="a_node6"><a xlink:title=" ">
<polygon fill="white" stroke="#bfbfbf" points="0,-33.5 0,-74.5 115,-74.5 115,-33.5 0,-33.5"/>
<text text-anchor="start" x="8" y="-62.5" font-family="Helvetica,sans-Serif" font-size="10.00">class(sll_t_linear</text>
<text text-anchor="start" x="8" y="-51.5" font-family="Helvetica,sans-Serif" font-size="10.00">_operator_abstract),</text>
<text text-anchor="middle" x="57.5" y="-40.5" font-family="Helvetica,sans-Serif" font-size="10.00"> pointer</text>
</a>
</g>
</g>
<!-- Node6&#45;&gt;Node5 -->
<g id="edge5" class="edge">
<title>Node6&#45;&gt;Node5</title>
<path fill="none" stroke="#9a32cd" stroke-dasharray="5,2" d="M125.3,-54C163.54,-54 211.05,-54 247.76,-54"/>
<polygon fill="#9a32cd" stroke="#9a32cd" points="125.28,-50.5 115.28,-54 125.28,-57.5 125.28,-50.5"/>
<text text-anchor="middle" x="181.5" y="-57" font-family="Helvetica,sans-Serif" font-size="10.00"> ptr_linear_operator</text>
</g>
<!-- Node7 -->
<g id="node7" class="node">
<title>Node7</title>
<g id="a_node7"><a xlink:title=" ">
<polygon fill="white" stroke="#bfbfbf" points="263,-0.5 263,-19.5 351,-19.5 351,-0.5 263,-0.5"/>
<text text-anchor="middle" x="307" y="-7.5" font-family="Helvetica,sans-Serif" font-size="10.00">real(kind=f64)</text>
</a>
</g>
</g>
<!-- Node7&#45;&gt;Node1 -->
<g id="edge7" class="edge">
<title>Node7&#45;&gt;Node1</title>
<path fill="none" stroke="#9a32cd" stroke-dasharray="5,2" d="M360.95,-20.61C392.38,-27.73 432.66,-38.31 467,-52 484.78,-59.09 503.69,-69.44 518.07,-77.97"/>
<polygon fill="#9a32cd" stroke="#9a32cd" points="361.6,-17.16 351.08,-18.42 360.09,-24 361.6,-17.16"/>
<text text-anchor="middle" x="425.5" y="-55" font-family="Helvetica,sans-Serif" font-size="10.00"> arr_coeffs</text>
</g>
</g>
</svg>
