<?xml version="1.0" encoding="UTF-8" standalone="no"?>
<!DOCTYPE svg PUBLIC "-//W3C//DTD SVG 1.1//EN"
 "http://www.w3.org/Graphics/SVG/1.1/DTD/svg11.dtd">
<!-- Generated by graphviz version 2.43.0 (0)
 -->
<!-- Title: sll_t_spline_pp_1d Pages: 1 -->
<svg width="234pt" height="128pt"
 viewBox="0.00 0.00 233.50 128.00" xmlns="http://www.w3.org/2000/svg" xmlns:xlink="http://www.w3.org/1999/xlink">
<g id="graph0" class="graph" transform="scale(1 1) rotate(0) translate(4 124)">
<title>sll_t_spline_pp_1d</title>
<polygon fill="white" stroke="transparent" points="-4,4 -4,-124 229.5,-124 229.5,4 -4,4"/>
<!-- Node1 -->
<g id="node1" class="node">
<title>Node1</title>
<g id="a_node1"><a xlink:title="arbitrary degree 1d spline">
<polygon fill="#bfbfbf" stroke="black" points="55.5,-0.5 55.5,-19.5 161.5,-19.5 161.5,-0.5 55.5,-0.5"/>
<text text-anchor="middle" x="108.5" y="-7.5" font-family="Helvetica,sans-Serif" font-size="10.00">sll_t_spline_pp_1d</text>
</a>
</g>
</g>
<!-- Node2 -->
<g id="node2" class="node">
<title>Node2</title>
<g id="a_node2"><a xlink:title=" ">
<polygon fill="white" stroke="#bfbfbf" points="0,-100.5 0,-119.5 103,-119.5 103,-100.5 0,-100.5"/>
<text text-anchor="middle" x="51.5" y="-107.5" font-family="Helvetica,sans-Serif" font-size="10.00">integer(kind=i32)</text>
</a>
</g>
</g>
<!-- Node2&#45;&gt;Node1 -->
<g id="edge1" class="edge">
<title>Node2&#45;&gt;Node1</title>
<path fill="none" stroke="#9a32cd" stroke-dasharray="5,2" d="M61.75,-91.38C74.07,-70.2 94.24,-35.51 103.53,-19.54"/>
<polygon fill="#9a32cd" stroke="#9a32cd" points="58.56,-89.9 56.56,-100.3 64.61,-93.42 58.56,-89.9"/>
<text text-anchor="middle" x="111" y="-63" font-family="Helvetica,sans-Serif" font-size="10.00"> degree</text>
<text text-anchor="middle" x="111" y="-52" font-family="Helvetica,sans-Serif" font-size="10.00">n_cells</text>
</g>
<!-- Node3 -->
<g id="node3" class="node">
<title>Node3</title>
<g id="a_node3"><a xlink:title=" ">
<polygon fill="white" stroke="#bfbfbf" points="121.5,-100.5 121.5,-119.5 209.5,-119.5 209.5,-100.5 121.5,-100.5"/>
<text text-anchor="middle" x="165.5" y="-107.5" font-family="Helvetica,sans-Serif" font-size="10.00">real(kind=f64)</text>
</a>
</g>
</g>
<!-- Node3&#45;&gt;Node1 -->
<g id="edge2" class="edge">
<title>Node3&#45;&gt;Node1</title>
<path fill="none" stroke="#9a32cd" stroke-dasharray="5,2" d="M159.13,-90.68C153.53,-75.82 144.56,-54.69 133.5,-38 129.12,-31.4 123.12,-24.86 118.1,-19.87"/>
<polygon fill="#9a32cd" stroke="#9a32cd" points="155.89,-92.02 162.59,-100.23 162.47,-89.64 155.89,-92.02"/>
<text text-anchor="middle" x="190" y="-74" font-family="Helvetica,sans-Serif" font-size="10.00"> scratch_b</text>
<text text-anchor="middle" x="190" y="-63" font-family="Helvetica,sans-Serif" font-size="10.00">scratch_p</text>
<text text-anchor="middle" x="190" y="-52" font-family="Helvetica,sans-Serif" font-size="10.00">poly_coeffs</text>
<text text-anchor="middle" x="190" y="-41" font-family="Helvetica,sans-Serif" font-size="10.00">poly_coeffs_fp</text>
</g>
</g>
</svg>
