<?xml version="1.0" encoding="UTF-8" standalone="no"?>
<!DOCTYPE svg PUBLIC "-//W3C//DTD SVG 1.1//EN"
 "http://www.w3.org/Graphics/SVG/1.1/DTD/svg11.dtd">
<!-- Generated by graphviz version 2.43.0 (0)
 -->
<!-- Title: sll_t_polar_bsplines_2d Pages: 1 -->
<!--zoomable 574 -->
<svg id="main" version="1.1" xmlns="http://www.w3.org/2000/svg" xmlns:xlink="http://www.w3.org/1999/xlink" xml:space="preserve" onload="init(evt)">
<style type="text/css"><![CDATA[
.edge:hover path { stroke: red; }
.edge:hover polygon { stroke: red; fill: red; }
]]></style>
<script type="text/javascript"><![CDATA[
var edges = document.getElementsByTagName('g');
if (edges && edges.length) {
  for (var i=0;i<edges.length;i++) {
    if (edges[i].id.substr(0,4)=='edge') {
      edges[i].setAttribute('class','edge');
    }
  }
}
]]></script>
        <defs>
                <circle id="rim" cx="0" cy="0" r="7"/>
                <circle id="rim2" cx="0" cy="0" r="3.5"/>
                <g id="zoomPlus">
                        <use xlink:href="#rim" fill="#404040">
                                <set attributeName="fill" to="#808080" begin="zoomplus.mouseover" end="zoomplus.mouseout"/>
                        </use>
                        <path d="M-4,0h8M0,-4v8" fill="none" stroke="white" stroke-width="1.5" pointer-events="none"/>
                </g>
                <g id="zoomMin">
                        <use xlink:href="#rim" fill="#404040">
                                <set attributeName="fill" to="#808080" begin="zoomminus.mouseover" end="zoomminus.mouseout"/>
                        </use>
                        <path d="M-4,0h8" fill="none" stroke="white" stroke-width="1.5" pointer-events="none"/>
                </g>
                <g id="dirArrow">
                        <path fill="none" stroke="white" stroke-width="1.5" d="M0,-3.0v7 M-2.5,-0.5L0,-3.0L2.5,-0.5"/>
                </g>
               <g id="resetDef">
                       <use xlink:href="#rim2" fill="#404040">
                               <set attributeName="fill" to="#808080" begin="reset.mouseover" end="reset.mouseout"/>
                       </use>
               </g>
        </defs>

<script type="text/javascript">
var viewWidth = 1120;
var viewHeight = 574;
var sectionId = 'dynsection-0';
</script>
<script xlink:href="svgpan.js"/>
<svg id="graph" class="graph">
<g id="viewport">
<title>sll_t_polar_bsplines_2d</title>
<polygon fill="white" stroke="transparent" points="-4,4 -4,-570 1116,-570 1116,4 -4,4"/>
<!-- Node1 -->
<g id="node1" class="node">
<title>Node1</title>
<g id="a_node1"><a xlink:title="Type containing new 2D polar basis functions.">
<polygon fill="#bfbfbf" stroke="black" points="982,-393.5 982,-412.5 1112,-412.5 1112,-393.5 982,-393.5"/>
<text text-anchor="middle" x="1047" y="-400.5" font-family="Helvetica,sans-Serif" font-size="10.00">sll_t_polar_bsplines_2d</text>
</a>
</g>
</g>
<!-- Node2 -->
<g id="node2" class="node">
<title>Node2</title>
<g id="a_node2"><a xlink:href="structsll__m__spline__2d_1_1sll__t__spline__2d.html" target="_top" xlink:title="2D tensor&#45;product spline">
<polygon fill="white" stroke="black" points="377,-392.5 377,-411.5 466,-411.5 466,-392.5 377,-392.5"/>
<text text-anchor="middle" x="421.5" y="-399.5" font-family="Helvetica,sans-Serif" font-size="10.00">sll_t_spline_2d</text>
</a>
</g>
</g>
<!-- Node2&#45;&gt;Node1 -->
<g id="edge1" class="edge">
<title>Node2&#45;&gt;Node1</title>
<path fill="none" stroke="#9a32cd" stroke-dasharray="5,2" d="M476.64,-402.09C591.42,-402.27 858.75,-402.7 981.85,-402.9"/>
<polygon fill="#9a32cd" stroke="#9a32cd" points="476.35,-398.59 466.34,-402.07 476.34,-405.59 476.35,-398.59"/>
<text text-anchor="middle" x="703" y="-427" font-family="Helvetica,sans-Serif" font-size="10.00"> n0</text>
<text text-anchor="middle" x="703" y="-416" font-family="Helvetica,sans-Serif" font-size="10.00">n1</text>
<text text-anchor="middle" x="703" y="-405" font-family="Helvetica,sans-Serif" font-size="10.00">n2</text>
</g>
<!-- Node5 -->
<g id="node5" class="node">
<title>Node5</title>
<g id="a_node5"><a xlink:href="structsll__m__singular__mapping__discrete_1_1sll__t__singular__mapping__discrete.html" target="_top" xlink:title="Concrete type, discrete singular mapping.">
<polygon fill="white" stroke="black" points="771,-315 771,-345 900,-345 900,-315 771,-315"/>
<text text-anchor="start" x="779" y="-333" font-family="Helvetica,sans-Serif" font-size="10.00">sll_t_singular_mapping</text>
<text text-anchor="middle" x="835.5" y="-322" font-family="Helvetica,sans-Serif" font-size="10.00">_discrete</text>
</a>
</g>
</g>
<!-- Node2&#45;&gt;Node5 -->
<g id="edge7" class="edge">
<title>Node2&#45;&gt;Node5</title>
<path fill="none" stroke="#9a32cd" stroke-dasharray="5,2" d="M466.21,-386.42C475.56,-378.11 475.16,-371.64 484,-367 508.75,-354 676.78,-340.7 770.91,-334.16"/>
<polygon fill="#9a32cd" stroke="#9a32cd" points="463.95,-383.74 457.95,-392.47 468.08,-389.38 463.95,-383.74"/>
<text text-anchor="middle" x="559.5" y="-381" font-family="Helvetica,sans-Serif" font-size="10.00"> spline_2d_x1</text>
<text text-anchor="middle" x="559.5" y="-370" font-family="Helvetica,sans-Serif" font-size="10.00">spline_2d_x2</text>
</g>
<!-- Node3 -->
<g id="node3" class="node">
<title>Node3</title>
<g id="a_node3"><a xlink:title=" ">
<polygon fill="white" stroke="#bfbfbf" points="32,-384.5 32,-403.5 89,-403.5 89,-384.5 32,-384.5"/>
<text text-anchor="middle" x="60.5" y="-391.5" font-family="Helvetica,sans-Serif" font-size="10.00">real(wp)</text>
</a>
</g>
</g>
<!-- Node3&#45;&gt;Node1 -->
<g id="edge4" class="edge">
<title>Node3&#45;&gt;Node1</title>
<path fill="none" stroke="#9a32cd" stroke-dasharray="5,2" d="M78.56,-410.59C113.64,-442.88 197.7,-511 282.5,-511 282.5,-511 282.5,-511 836.5,-511 922.02,-511 1007.54,-439.02 1036.06,-412.58"/>
<polygon fill="#9a32cd" stroke="#9a32cd" points="80.78,-407.87 71.09,-403.57 75.98,-412.97 80.78,-407.87"/>
<text text-anchor="middle" x="559.5" y="-558" font-family="Helvetica,sans-Serif" font-size="10.00"> t0</text>
<text text-anchor="middle" x="559.5" y="-547" font-family="Helvetica,sans-Serif" font-size="10.00">tau</text>
<text text-anchor="middle" x="559.5" y="-536" font-family="Helvetica,sans-Serif" font-size="10.00">t1</text>
<text text-anchor="middle" x="559.5" y="-525" font-family="Helvetica,sans-Serif" font-size="10.00">t2</text>
<text text-anchor="middle" x="559.5" y="-514" font-family="Helvetica,sans-Serif" font-size="10.00">pole</text>
</g>
<!-- Node3&#45;&gt;Node2 -->
<g id="edge2" class="edge">
<title>Node3&#45;&gt;Node2</title>
<path fill="none" stroke="#9a32cd" stroke-dasharray="5,2" d="M99.18,-394.84C166.17,-396.33 305.61,-399.44 376.73,-401.02"/>
<polygon fill="#9a32cd" stroke="#9a32cd" points="99.15,-391.34 89.07,-394.61 98.99,-398.34 99.15,-391.34"/>
<text text-anchor="middle" x="164.5" y="-399" font-family="Helvetica,sans-Serif" font-size="10.00"> bcoef</text>
</g>
<!-- Node3&#45;&gt;Node5 -->
<g id="edge8" class="edge">
<title>Node3&#45;&gt;Node5</title>
<path fill="none" stroke="#9a32cd" stroke-dasharray="5,2" d="M99.39,-403.61C111.92,-406.44 125.99,-409.24 139,-411 206.67,-420.14 691.88,-468.45 753,-438 792.32,-418.41 817.68,-369.81 828.5,-345.04"/>
<polygon fill="#9a32cd" stroke="#9a32cd" points="99.82,-400.11 89.28,-401.25 98.23,-406.93 99.82,-400.11"/>
<text text-anchor="middle" x="421.5" y="-476" font-family="Helvetica,sans-Serif" font-size="10.00"> tau_eta1</text>
<text text-anchor="middle" x="421.5" y="-465" font-family="Helvetica,sans-Serif" font-size="10.00">tau_eta2</text>
<text text-anchor="middle" x="421.5" y="-454" font-family="Helvetica,sans-Serif" font-size="10.00">gtau_x1</text>
<text text-anchor="middle" x="421.5" y="-443" font-family="Helvetica,sans-Serif" font-size="10.00">gtau_x2</text>
</g>
<!-- Node7 -->
<g id="node7" class="node">
<title>Node7</title>
<g id="a_node7"><a xlink:href="structsll__m__spline__interpolator__2d_1_1sll__t__spline__interpolator__2d.html" target="_top" xlink:title="2D tensor&#45;product spline interpolator">
<polygon fill="white" stroke="black" points="484,-207.5 484,-226.5 635,-226.5 635,-207.5 484,-207.5"/>
<text text-anchor="middle" x="559.5" y="-214.5" font-family="Helvetica,sans-Serif" font-size="10.00">sll_t_spline_interpolator_2d</text>
</a>
</g>
</g>
<!-- Node3&#45;&gt;Node7 -->
<g id="edge18" class="edge">
<title>Node3&#45;&gt;Node7</title>
<path fill="none" stroke="#9a32cd" stroke-dasharray="5,2" d="M99.05,-385.4C124.82,-379.24 159.71,-370.41 190,-361 314.75,-322.26 345.33,-310.02 466,-260 491.68,-249.35 520.66,-235.59 539.22,-226.54"/>
<polygon fill="#9a32cd" stroke="#9a32cd" points="98.22,-382 89.3,-387.71 99.83,-388.81 98.22,-382"/>
<text text-anchor="middle" x="283.5" y="-357" font-family="Helvetica,sans-Serif" font-size="10.00"> bwork</text>
</g>
<!-- Node8 -->
<g id="node8" class="node">
<title>Node8</title>
<g id="a_node8"><a xlink:href="structsll__m__spline__1d_1_1sll__t__spline__1d.html" target="_top" xlink:title="1D spline">
<polygon fill="white" stroke="black" points="239,-232.5 239,-251.5 328,-251.5 328,-232.5 239,-232.5"/>
<text text-anchor="middle" x="283.5" y="-239.5" font-family="Helvetica,sans-Serif" font-size="10.00">sll_t_spline_1d</text>
</a>
</g>
</g>
<!-- Node3&#45;&gt;Node8 -->
<g id="edge11" class="edge">
<title>Node3&#45;&gt;Node8</title>
<path fill="none" stroke="#9a32cd" stroke-dasharray="5,2" d="M73.4,-376.12C87.22,-356.49 111.64,-325.12 139,-305 141.62,-303.07 220.62,-268.77 260.26,-251.62"/>
<polygon fill="#9a32cd" stroke="#9a32cd" points="70.45,-374.24 67.67,-384.46 76.22,-378.2 70.45,-374.24"/>
<text text-anchor="middle" x="164.5" y="-308" font-family="Helvetica,sans-Serif" font-size="10.00"> bcoef</text>
</g>
<!-- Node9 -->
<g id="node9" class="node">
<title>Node9</title>
<g id="a_node9"><a xlink:href="structsll__m__spline__interpolator__1d_1_1sll__t__spline__interpolator__1d.html" target="_top" xlink:title="1D spline interpolator">
<polygon fill="white" stroke="black" points="208,-136.5 208,-155.5 359,-155.5 359,-136.5 208,-136.5"/>
<text text-anchor="middle" x="283.5" y="-143.5" font-family="Helvetica,sans-Serif" font-size="10.00">sll_t_spline_interpolator_1d</text>
</a>
</g>
</g>
<!-- Node3&#45;&gt;Node9 -->
<g id="edge14" class="edge">
<title>Node3&#45;&gt;Node9</title>
<path fill="none" stroke="#9a32cd" stroke-dasharray="5,2" d="M67.67,-374.73C77.97,-345.44 101.32,-289.7 139,-257 157.39,-241.04 173.77,-255.15 190,-237 210.56,-214.02 186.74,-192.33 208,-170 214,-163.7 221.65,-159.05 229.76,-155.62"/>
<polygon fill="#9a32cd" stroke="#9a32cd" points="64.35,-373.63 64.46,-384.23 70.98,-375.87 64.35,-373.63"/>
<text text-anchor="middle" x="164.5" y="-271" font-family="Helvetica,sans-Serif" font-size="10.00"> tau</text>
<text text-anchor="middle" x="164.5" y="-260" font-family="Helvetica,sans-Serif" font-size="10.00">dx</text>
</g>
<!-- Node4 -->
<g id="node4" class="node">
<title>Node4</title>
<g id="a_node4"><a xlink:title=" ">
<polygon fill="white" stroke="#bfbfbf" points="2.5,-194 2.5,-224 118.5,-224 118.5,-194 2.5,-194"/>
<text text-anchor="start" x="10.5" y="-212" font-family="Helvetica,sans-Serif" font-size="10.00">class(sll_c_bsplines)</text>
<text text-anchor="middle" x="60.5" y="-201" font-family="Helvetica,sans-Serif" font-size="10.00">, pointer, private</text>
</a>
</g>
</g>
<!-- Node4&#45;&gt;Node2 -->
<g id="edge3" class="edge">
<title>Node4&#45;&gt;Node2</title>
<path fill="none" stroke="#9a32cd" stroke-dasharray="5,2" d="M72.3,-233.56C84.65,-258.56 107.34,-296.36 139,-316 223.25,-368.27 268.45,-312.6 359,-353 380.19,-362.46 400.36,-380.96 411.52,-392.33"/>
<polygon fill="#9a32cd" stroke="#9a32cd" points="75.38,-231.88 67.93,-224.35 69.06,-234.89 75.38,-231.88"/>
<text text-anchor="middle" x="164.5" y="-350" font-family="Helvetica,sans-Serif" font-size="10.00"> bspl1</text>
<text text-anchor="middle" x="164.5" y="-339" font-family="Helvetica,sans-Serif" font-size="10.00">bspl2</text>
</g>
<!-- Node4&#45;&gt;Node7 -->
<g id="edge19" class="edge">
<title>Node4&#45;&gt;Node7</title>
<path fill="none" stroke="#9a32cd" stroke-dasharray="5,2" d="M128.6,-204.57C153.52,-203.12 182.04,-201.71 208,-201 275.09,-199.17 291.94,-198.32 359,-201 400.32,-202.65 446.33,-206.23 483.74,-209.58"/>
<polygon fill="#9a32cd" stroke="#9a32cd" points="128.3,-201.08 118.52,-205.16 128.71,-208.06 128.3,-201.08"/>
<text text-anchor="middle" x="283.5" y="-215" font-family="Helvetica,sans-Serif" font-size="10.00"> bspl1</text>
<text text-anchor="middle" x="283.5" y="-204" font-family="Helvetica,sans-Serif" font-size="10.00">bspl2</text>
</g>
<!-- Node4&#45;&gt;Node8 -->
<g id="edge12" class="edge">
<title>Node4&#45;&gt;Node8</title>
<path fill="none" stroke="#9a32cd" stroke-dasharray="5,2" d="M128.65,-217.37C148.44,-219.98 170.11,-222.97 190,-226 205.95,-228.43 223.4,-231.38 238.8,-234.07"/>
<polygon fill="#9a32cd" stroke="#9a32cd" points="128.87,-213.87 118.5,-216.05 127.96,-220.81 128.87,-213.87"/>
<text text-anchor="middle" x="164.5" y="-229" font-family="Helvetica,sans-Serif" font-size="10.00"> bspl</text>
</g>
<!-- Node4&#45;&gt;Node9 -->
<g id="edge15" class="edge">
<title>Node4&#45;&gt;Node9</title>
<path fill="none" stroke="#9a32cd" stroke-dasharray="5,2" d="M93.2,-188.54C106.81,-180.64 123.19,-172.26 139,-167 160.86,-159.73 185.43,-154.98 207.97,-151.87"/>
<polygon fill="#9a32cd" stroke="#9a32cd" points="91.05,-185.75 84.27,-193.88 94.65,-191.75 91.05,-185.75"/>
<text text-anchor="middle" x="164.5" y="-170" font-family="Helvetica,sans-Serif" font-size="10.00"> bspl</text>
</g>
<!-- Node5&#45;&gt;Node1 -->
<g id="edge5" class="edge">
<title>Node5&#45;&gt;Node1</title>
<path fill="none" stroke="#9a32cd" stroke-dasharray="5,2" d="M889.25,-348.38C930.38,-362.71 985.83,-382.03 1018.56,-393.44"/>
<polygon fill="#9a32cd" stroke="#9a32cd" points="890.25,-345.02 879.65,-345.04 887.95,-351.63 890.25,-345.02"/>
<text text-anchor="middle" x="941" y="-376" font-family="Helvetica,sans-Serif" font-size="10.00"> mapping</text>
</g>
<!-- Node6 -->
<g id="node6" class="node">
<title>Node6</title>
<g id="a_node6"><a xlink:href="structsll__m__singular__mapping__base_1_1sll__c__singular__mapping.html" target="_top" xlink:title="Abstract type, singular mapping.">
<polygon fill="white" stroke="black" points="494,-297.5 494,-316.5 625,-316.5 625,-297.5 494,-297.5"/>
<text text-anchor="middle" x="559.5" y="-304.5" font-family="Helvetica,sans-Serif" font-size="10.00">sll_c_singular_mapping</text>
</a>
</g>
</g>
<!-- Node6&#45;&gt;Node5 -->
<g id="edge6" class="edge">
<title>Node6&#45;&gt;Node5</title>
<path fill="none" stroke="midnightblue" d="M635.1,-313.26C677.6,-316.83 730.28,-321.25 770.82,-324.65"/>
<polygon fill="midnightblue" stroke="midnightblue" points="635.34,-309.77 625.09,-312.42 634.76,-316.75 635.34,-309.77"/>
</g>
<!-- Node7&#45;&gt;Node5 -->
<g id="edge9" class="edge">
<title>Node7&#45;&gt;Node5</title>
<path fill="none" stroke="#9a32cd" stroke-dasharray="5,2" d="M593.18,-230.48C644.64,-251.7 744.19,-292.75 797.94,-314.92"/>
<polygon fill="#9a32cd" stroke="#9a32cd" points="594.44,-227.21 583.86,-226.63 591.77,-233.68 594.44,-227.21"/>
<text text-anchor="middle" x="703" y="-296" font-family="Helvetica,sans-Serif" font-size="10.00"> spline_interp_eta12</text>
</g>
<!-- Node8&#45;&gt;Node7 -->
<g id="edge10" class="edge">
<title>Node8&#45;&gt;Node7</title>
<path fill="none" stroke="#9a32cd" stroke-dasharray="5,2" d="M338.42,-237.08C379.98,-233.29 437.94,-228 483.95,-223.8"/>
<polygon fill="#9a32cd" stroke="#9a32cd" points="337.86,-233.62 328.22,-238.01 338.5,-240.59 337.86,-233.62"/>
<text text-anchor="middle" x="421.5" y="-248" font-family="Helvetica,sans-Serif" font-size="10.00"> spline1</text>
<text text-anchor="middle" x="421.5" y="-237" font-family="Helvetica,sans-Serif" font-size="10.00">spline2</text>
</g>
<!-- Node9&#45;&gt;Node7 -->
<g id="edge13" class="edge">
<title>Node9&#45;&gt;Node7</title>
<path fill="none" stroke="#9a32cd" stroke-dasharray="5,2" d="M369.77,-141.55C400.74,-142.3 435.58,-145.95 466,-156 499.24,-166.98 531.97,-193.18 548.11,-207.41"/>
<polygon fill="#9a32cd" stroke="#9a32cd" points="369.48,-138.05 359.43,-141.41 369.38,-145.05 369.48,-138.05"/>
<text text-anchor="middle" x="421.5" y="-170" font-family="Helvetica,sans-Serif" font-size="10.00"> interp2</text>
<text text-anchor="middle" x="421.5" y="-159" font-family="Helvetica,sans-Serif" font-size="10.00">interp1</text>
</g>
<!-- Node10 -->
<g id="node10" class="node">
<title>Node10</title>
<g id="a_node10"><a xlink:title=" ">
<polygon fill="white" stroke="#bfbfbf" points="0,-111.5 0,-152.5 121,-152.5 121,-111.5 0,-111.5"/>
<text text-anchor="start" x="8" y="-140.5" font-family="Helvetica,sans-Serif" font-size="10.00">class(sll_c_spline</text>
<text text-anchor="start" x="8" y="-129.5" font-family="Helvetica,sans-Serif" font-size="10.00">_matrix), allocatable,</text>
<text text-anchor="middle" x="60.5" y="-118.5" font-family="Helvetica,sans-Serif" font-size="10.00"> private</text>
</a>
</g>
</g>
<!-- Node10&#45;&gt;Node9 -->
<g id="edge16" class="edge">
<title>Node10&#45;&gt;Node9</title>
<path fill="none" stroke="#9a32cd" stroke-dasharray="5,2" d="M131.18,-130.87C150.27,-131.02 170.95,-131.59 190,-133 200.67,-133.79 211.99,-135.03 222.91,-136.45"/>
<polygon fill="#9a32cd" stroke="#9a32cd" points="131.08,-127.37 121.06,-130.83 131.05,-134.37 131.08,-127.37"/>
<text text-anchor="middle" x="164.5" y="-136" font-family="Helvetica,sans-Serif" font-size="10.00"> matrix</text>
</g>
<!-- Node11 -->
<g id="node11" class="node">
<title>Node11</title>
<g id="a_node11"><a xlink:title=" ">
<polygon fill="white" stroke="#bfbfbf" points="35,-0.5 35,-19.5 86,-19.5 86,-0.5 35,-0.5"/>
<text text-anchor="middle" x="60.5" y="-7.5" font-family="Helvetica,sans-Serif" font-size="10.00">integer</text>
</a>
</g>
</g>
<!-- Node11&#45;&gt;Node5 -->
<g id="edge21" class="edge">
<title>Node11&#45;&gt;Node5</title>
<path fill="none" stroke="#9a32cd" stroke-dasharray="5,2" d="M96.61,-6.57C168.68,-0.89 337.38,5.31 466,-45 627.56,-108.2 777.09,-265.58 821.32,-314.94"/>
<polygon fill="#9a32cd" stroke="#9a32cd" points="95.96,-3.11 86.29,-7.43 96.55,-10.08 95.96,-3.11"/>
<text text-anchor="middle" x="421.5" y="-81" font-family="Helvetica,sans-Serif" font-size="10.00"> degree_eta2</text>
<text text-anchor="middle" x="421.5" y="-70" font-family="Helvetica,sans-Serif" font-size="10.00">nbasis_eta1</text>
<text text-anchor="middle" x="421.5" y="-59" font-family="Helvetica,sans-Serif" font-size="10.00">nbasis_eta2</text>
<text text-anchor="middle" x="421.5" y="-48" font-family="Helvetica,sans-Serif" font-size="10.00">degree_eta1</text>
</g>
<!-- Node11&#45;&gt;Node7 -->
<g id="edge20" class="edge">
<title>Node11&#45;&gt;Node7</title>
<path fill="none" stroke="#9a32cd" stroke-dasharray="5,2" d="M96.52,-14.33C170.39,-24.85 345.31,-57.05 466,-138 498.62,-159.88 532.67,-191.67 548.85,-207.42"/>
<polygon fill="#9a32cd" stroke="#9a32cd" points="96.75,-10.83 86.37,-12.94 95.8,-17.77 96.75,-10.83"/>
<text text-anchor="middle" x="283.5" y="-118" font-family="Helvetica,sans-Serif" font-size="10.00"> bc_xmax</text>
<text text-anchor="middle" x="283.5" y="-107" font-family="Helvetica,sans-Serif" font-size="10.00">nbc_xmax</text>
<text text-anchor="middle" x="283.5" y="-96" font-family="Helvetica,sans-Serif" font-size="10.00">nbc_xmin</text>
<text text-anchor="middle" x="283.5" y="-85" font-family="Helvetica,sans-Serif" font-size="10.00">bc_xmin</text>
</g>
<!-- Node11&#45;&gt;Node9 -->
<g id="edge17" class="edge">
<title>Node11&#45;&gt;Node9</title>
<path fill="none" stroke="#9a32cd" stroke-dasharray="5,2" d="M96.17,-19.94C123,-28.51 160.44,-42.44 190,-61 225.1,-83.03 259.05,-119.18 274.22,-136.36"/>
<polygon fill="#9a32cd" stroke="#9a32cd" points="97.03,-16.54 86.44,-16.92 94.95,-23.23 97.03,-16.54"/>
<text text-anchor="middle" x="164.5" y="-119" font-family="Helvetica,sans-Serif" font-size="10.00"> offset</text>
<text text-anchor="middle" x="164.5" y="-108" font-family="Helvetica,sans-Serif" font-size="10.00">bc_xmax</text>
<text text-anchor="middle" x="164.5" y="-97" font-family="Helvetica,sans-Serif" font-size="10.00">nbc_xmax</text>
<text text-anchor="middle" x="164.5" y="-86" font-family="Helvetica,sans-Serif" font-size="10.00">odd</text>
<text text-anchor="middle" x="164.5" y="-75" font-family="Helvetica,sans-Serif" font-size="10.00">nbc_xmin</text>
<text text-anchor="middle" x="164.5" y="-64" font-family="Helvetica,sans-Serif" font-size="10.00">bc_xmin</text>
</g>
</g>
</svg>
        <g id="navigator" transform="translate(0 0)" fill="#404254">
                <rect fill="#f2f5e9" fill-opacity="0.5" stroke="#606060" stroke-width=".5" x="0" y="0" width="60" height="60"/>
                <use id="zoomplus" xlink:href="#zoomPlus" x="17" y="9" onmousedown="handleZoom(evt,'in')"/>
                <use id="zoomminus" xlink:href="#zoomMin" x="42" y="9" onmousedown="handleZoom(evt,'out')"/>
                <use id="reset" xlink:href="#resetDef" x="30" y="36" onmousedown="handleReset()"/>
                <g id="arrowUp" xlink:href="#dirArrow" transform="translate(30 24)" onmousedown="handlePan(0,-1)">
                  <use xlink:href="#rim" fill="#404040">
                        <set attributeName="fill" to="#808080" begin="arrowUp.mouseover" end="arrowUp.mouseout"/>
                  </use>
                  <path fill="none" stroke="white" stroke-width="1.5" d="M0,-3.0v7 M-2.5,-0.5L0,-3.0L2.5,-0.5"/>
                </g>
                <g id="arrowRight" xlink:href="#dirArrow" transform="rotate(90) translate(36 -43)" onmousedown="handlePan(1,0)">
                  <use xlink:href="#rim" fill="#404040">
                        <set attributeName="fill" to="#808080" begin="arrowRight.mouseover" end="arrowRight.mouseout"/>
                  </use>
                  <path fill="none" stroke="white" stroke-width="1.5" d="M0,-3.0v7 M-2.5,-0.5L0,-3.0L2.5,-0.5"/>
                </g>
                <g id="arrowDown" xlink:href="#dirArrow" transform="rotate(180) translate(-30 -48)" onmousedown="handlePan(0,1)">
                  <use xlink:href="#rim" fill="#404040">
                        <set attributeName="fill" to="#808080" begin="arrowDown.mouseover" end="arrowDown.mouseout"/>
                  </use>
                  <path fill="none" stroke="white" stroke-width="1.5" d="M0,-3.0v7 M-2.5,-0.5L0,-3.0L2.5,-0.5"/>
                </g>
                <g id="arrowLeft" xlink:href="#dirArrow" transform="rotate(270) translate(-36 17)" onmousedown="handlePan(-1,0)">
                  <use xlink:href="#rim" fill="#404040">
                        <set attributeName="fill" to="#808080" begin="arrowLeft.mouseover" end="arrowLeft.mouseout"/>
                  </use>
                  <path fill="none" stroke="white" stroke-width="1.5" d="M0,-3.0v7 M-2.5,-0.5L0,-3.0L2.5,-0.5"/>
                </g>
        </g>
        <svg viewBox="0 0 15 15" width="100%" height="30px" preserveAspectRatio="xMaxYMin meet">
         <g id="arrow_out" transform="scale(0.3 0.3)">
          <a xlink:href="structsll__m__polar__bsplines__2d_1_1sll__t__polar__bsplines__2d__coll__graph_org.svg" target="_base">
           <rect id="button" ry="5" rx="5" y="6" x="6" height="38" width="38"
                fill="#f2f5e9" fill-opacity="0.5" stroke="#606060" stroke-width="1.0"/>
           <path id="arrow"
             d="M 11.500037,31.436501 C 11.940474,20.09759 22.043105,11.32322 32.158766,21.979434 L 37.068811,17.246167 C 37.068811,17.246167 37.088388,32 37.088388,32 L 22.160133,31.978069 C 22.160133,31.978069 26.997745,27.140456 26.997745,27.140456 C 18.528582,18.264221 13.291696,25.230495 11.500037,31.436501 z"
             style="fill:#404040;"/>
          </a>
         </g>
        </svg>
</svg>
