<?xml version="1.0" encoding="UTF-8" standalone="no"?>
<!DOCTYPE svg PUBLIC "-//W3C//DTD SVG 1.1//EN"
 "http://www.w3.org/Graphics/SVG/1.1/DTD/svg11.dtd">
<!-- Generated by graphviz version 2.43.0 (0)
 -->
<!-- Title: sll_t_time_mark Pages: 1 -->
<svg width="167pt" height="117pt"
 viewBox="0.00 0.00 166.50 117.00" xmlns="http://www.w3.org/2000/svg" xmlns:xlink="http://www.w3.org/1999/xlink">
<g id="graph0" class="graph" transform="scale(1 1) rotate(0) translate(4 113)">
<title>sll_t_time_mark</title>
<polygon fill="white" stroke="transparent" points="-4,4 -4,-113 162.5,-113 162.5,4 -4,4"/>
<!-- Node1 -->
<g id="node1" class="node">
<title>Node1</title>
<g id="a_node1"><a xlink:title="type use for clock reading">
<polygon fill="#bfbfbf" stroke="black" points="11,-0.5 11,-19.5 106,-19.5 106,-0.5 11,-0.5"/>
<text text-anchor="middle" x="58.5" y="-7.5" font-family="Helvetica,sans-Serif" font-size="10.00">sll_t_time_mark</text>
</a>
</g>
</g>
<!-- Node2 -->
<g id="node2" class="node">
<title>Node2</title>
<g id="a_node2"><a xlink:title=" ">
<polygon fill="white" stroke="#bfbfbf" points="0,-89.5 0,-108.5 117,-108.5 117,-89.5 0,-89.5"/>
<text text-anchor="middle" x="58.5" y="-96.5" font-family="Helvetica,sans-Serif" font-size="10.00">integer(kind=itimer)</text>
</a>
</g>
</g>
<!-- Node2&#45;&gt;Node1 -->
<g id="edge1" class="edge">
<title>Node2&#45;&gt;Node1</title>
<path fill="none" stroke="#9a32cd" stroke-dasharray="5,2" d="M58.5,-79.19C58.5,-60.74 58.5,-33.41 58.5,-19.62"/>
<polygon fill="#9a32cd" stroke="#9a32cd" points="55,-79.34 58.5,-89.34 62,-79.34 55,-79.34"/>
<text text-anchor="middle" x="108.5" y="-63" font-family="Helvetica,sans-Serif" font-size="10.00"> clock_ticks_per_sec</text>
<text text-anchor="middle" x="108.5" y="-52" font-family="Helvetica,sans-Serif" font-size="10.00">clock_ticks</text>
<text text-anchor="middle" x="108.5" y="-41" font-family="Helvetica,sans-Serif" font-size="10.00">clock_ticks_max</text>
</g>
</g>
</svg>
