<?xml version="1.0" encoding="UTF-8" standalone="no"?>
<!DOCTYPE svg PUBLIC "-//W3C//DTD SVG 1.1//EN"
 "http://www.w3.org/Graphics/SVG/1.1/DTD/svg11.dtd">
<!-- Generated by graphviz version 2.40.1 (20161225.0304)
 -->
<!-- Title: sll_t_cubic_spline_interpolator_1d Pages: 1 -->
<!--zoomable 285 -->
<svg id="main" version="1.1" xmlns="http://www.w3.org/2000/svg" xmlns:xlink="http://www.w3.org/1999/xlink" xml:space="preserve" onload="init(evt)">
<style type="text/css"><![CDATA[
.edge:hover path { stroke: red; }
.edge:hover polygon { stroke: red; fill: red; }
]]></style>
<script type="text/javascript"><![CDATA[
var edges = document.getElementsByTagName('g');
if (edges && edges.length) {
  for (var i=0;i<edges.length;i++) {
    if (edges[i].id.substr(0,4)=='edge') {
      edges[i].setAttribute('class','edge');
    }
  }
}
]]></script>
        <defs>
                <circle id="rim" cx="0" cy="0" r="7"/>
                <circle id="rim2" cx="0" cy="0" r="3.5"/>
                <g id="zoomPlus">
                        <use xlink:href="#rim" fill="#404040">
                                <set attributeName="fill" to="#808080" begin="zoomplus.mouseover" end="zoomplus.mouseout"/>
                        </use>
                        <path d="M-4,0h8M0,-4v8" fill="none" stroke="white" stroke-width="1.5" pointer-events="none"/>
                </g>
                <g id="zoomMin">
                        <use xlink:href="#rim" fill="#404040">
                                <set attributeName="fill" to="#808080" begin="zoomminus.mouseover" end="zoomminus.mouseout"/>
                        </use>
                        <path d="M-4,0h8" fill="none" stroke="white" stroke-width="1.5" pointer-events="none"/>
                </g>
                <g id="dirArrow">
                        <path fill="none" stroke="white" stroke-width="1.5" d="M0,-3.0v7 M-2.5,-0.5L0,-3.0L2.5,-0.5"/>
                </g>
               <g id="resetDef">
                       <use xlink:href="#rim2" fill="#404040">
                               <set attributeName="fill" to="#808080" begin="reset.mouseover" end="reset.mouseout"/>
                       </use>
               </g>
        </defs>

<script type="text/javascript">
var viewWidth = 508;
var viewHeight = 285;
var sectionId = 'dynsection-1';
</script>
<script xlink:href="svgpan.js"/>
<svg id="graph" class="graph">
<g id="viewport">
<title>sll_t_cubic_spline_interpolator_1d</title>
<polygon fill="#ffffff" stroke="transparent" points="-4,4 -4,-281 504,-281 504,4 -4,4"/>
<!-- Node2 -->
<g id="node1" class="node">
<title>Node2</title>
<polygon fill="#bfbfbf" stroke="#000000" points="146,-.5 146,-30.5 248,-30.5 248,-.5 146,-.5"/>
<text text-anchor="start" x="154" y="-18.5" font-family="Helvetica,sans-Serif" font-size="10.00" fill="#000000">sll_t_cubic_spline</text>
<text text-anchor="middle" x="197" y="-7.5" font-family="Helvetica,sans-Serif" font-size="10.00" fill="#000000">_interpolator_1d</text>
</g>
<!-- Node3 -->
<g id="node2" class="node">
<title>Node3</title>
<g id="a_node2"><a xlink:href="structsll__m__interpolators__1d__base_1_1sll__c__interpolator__1d.html" target="_top" xlink:title="Abstract class for 1D interpolation and reconstruction. ">
<polygon fill="#ffffff" stroke="#000000" points="0,-79.5 0,-98.5 118,-98.5 118,-79.5 0,-79.5"/>
<text text-anchor="middle" x="59" y="-86.5" font-family="Helvetica,sans-Serif" font-size="10.00" fill="#000000">sll_c_interpolator_1d</text>
</a>
</g>
</g>
<!-- Node3&#45;&gt;Node2 -->
<g id="edge1" class="edge">
<title>Node3&#45;&gt;Node2</title>
<path fill="none" stroke="#191970" d="M85.9069,-74.6691C109.7334,-61.9789 144.3975,-43.5166 168.6493,-30.5998"/>
<polygon fill="#191970" stroke="#191970" points="84.222,-71.601 77.0411,-79.3912 87.5126,-77.7794 84.222,-71.601"/>
</g>
<!-- Node4 -->
<g id="node3" class="node">
<title>Node4</title>
<g id="a_node3"><a xlink:href="structsll__m__cubic__splines_1_1sll__t__cubic__spline__1d.html" target="_top" xlink:title="basic type for one&#45;dimensional cubic spline data. ">
<polygon fill="#ffffff" stroke="#000000" points="233.5,-79.5 233.5,-98.5 352.5,-98.5 352.5,-79.5 233.5,-79.5"/>
<text text-anchor="middle" x="293" y="-86.5" font-family="Helvetica,sans-Serif" font-size="10.00" fill="#000000">sll_t_cubic_spline_1d</text>
</a>
</g>
</g>
<!-- Node4&#45;&gt;Node2 -->
<g id="edge2" class="edge">
<title>Node4&#45;&gt;Node2</title>
<path fill="none" stroke="#9a32cd" stroke-dasharray="5,2" d="M272.0676,-72.9736C255.6749,-60.4229 233.0248,-43.0815 216.9022,-30.7376"/>
<polygon fill="#9a32cd" stroke="#9a32cd" points="270.3819,-76.091 280.4497,-79.3912 274.6373,-70.533 270.3819,-76.091"/>
<text text-anchor="middle" x="270.5" y="-52" font-family="Helvetica,sans-Serif" font-size="10.00" fill="#000000"> spline</text>
</g>
<!-- Node5 -->
<g id="node4" class="node">
<title>Node5</title>
<polygon fill="#ffffff" stroke="#bfbfbf" points="227.5,-257.5 227.5,-276.5 276.5,-276.5 276.5,-257.5 227.5,-257.5"/>
<text text-anchor="middle" x="252" y="-264.5" font-family="Helvetica,sans-Serif" font-size="10.00" fill="#000000">logical</text>
</g>
<!-- Node5&#45;&gt;Node4 -->
<g id="edge3" class="edge">
<title>Node5&#45;&gt;Node4</title>
<path fill="none" stroke="#9a32cd" stroke-dasharray="5,2" d="M246.7791,-247.2328C240.0231,-217.3725 231.4903,-159.8154 253,-118 257.2375,-109.7623 265.0187,-103.3137 272.5995,-98.6109"/>
<polygon fill="#9a32cd" stroke="#9a32cd" points="243.4471,-248.3432 249.215,-257.2304 250.2482,-246.686 243.4471,-248.3432"/>
<text text-anchor="middle" x="301.5" y="-187" font-family="Helvetica,sans-Serif" font-size="10.00" fill="#000000"> use_fast_algorithm</text>
<text text-anchor="middle" x="301.5" y="-176" font-family="Helvetica,sans-Serif" font-size="10.00" fill="#000000">compute_slope_l</text>
<text text-anchor="middle" x="301.5" y="-165" font-family="Helvetica,sans-Serif" font-size="10.00" fill="#000000">compute_slope_r</text>
</g>
<!-- Node6 -->
<g id="node5" class="node">
<title>Node6</title>
<polygon fill="#ffffff" stroke="#bfbfbf" points="104.5,-257.5 104.5,-276.5 207.5,-276.5 207.5,-257.5 104.5,-257.5"/>
<text text-anchor="middle" x="156" y="-264.5" font-family="Helvetica,sans-Serif" font-size="10.00" fill="#000000">integer(kind=i32)</text>
</g>
<!-- Node6&#45;&gt;Node2 -->
<g id="edge6" class="edge">
<title>Node6&#45;&gt;Node2</title>
<path fill="none" stroke="#9a32cd" stroke-dasharray="5,2" d="M153.7985,-247.055C150.5808,-212.0848 146.6179,-137.7451 163,-78 167.769,-60.6076 178.1571,-42.7249 186.2038,-30.5681"/>
<polygon fill="#9a32cd" stroke="#9a32cd" points="150.3483,-247.7273 154.8306,-257.3272 157.3132,-247.0274 150.3483,-247.7273"/>
<text text-anchor="middle" x="193.5" y="-92" font-family="Helvetica,sans-Serif" font-size="10.00" fill="#000000"> num_points</text>
<text text-anchor="middle" x="193.5" y="-81" font-family="Helvetica,sans-Serif" font-size="10.00" fill="#000000">bc_type</text>
</g>
<!-- Node6&#45;&gt;Node4 -->
<g id="edge4" class="edge">
<title>Node6&#45;&gt;Node4</title>
<path fill="none" stroke="#9a32cd" stroke-dasharray="5,2" d="M162.3397,-247.9392C163.2694,-244.9584 164.1866,-241.904 165,-239 179.9164,-185.749 155.8807,-158.0636 194,-118 201.2838,-110.3447 222.8867,-103.5852 244.0607,-98.5222"/>
<polygon fill="#9a32cd" stroke="#9a32cd" points="159.0061,-246.8729 159.2629,-257.4646 165.6673,-249.0245 159.0061,-246.8729"/>
<text text-anchor="middle" x="215" y="-187" font-family="Helvetica,sans-Serif" font-size="10.00" fill="#000000"> ipiv</text>
<text text-anchor="middle" x="215" y="-176" font-family="Helvetica,sans-Serif" font-size="10.00" fill="#000000">n_points</text>
<text text-anchor="middle" x="215" y="-165" font-family="Helvetica,sans-Serif" font-size="10.00" fill="#000000">bc_type</text>
</g>
<!-- Node7 -->
<g id="node6" class="node">
<title>Node7</title>
<polygon fill="#ffffff" stroke="#bfbfbf" points="355,-257.5 355,-276.5 443,-276.5 443,-257.5 355,-257.5"/>
<text text-anchor="middle" x="399" y="-264.5" font-family="Helvetica,sans-Serif" font-size="10.00" fill="#000000">real(kind=f64)</text>
</g>
<!-- Node7&#45;&gt;Node2 -->
<g id="edge7" class="edge">
<title>Node7&#45;&gt;Node2</title>
<path fill="none" stroke="#9a32cd" stroke-dasharray="5,2" d="M409.1478,-247.9827C410.3248,-245.0458 411.3391,-241.9929 412,-239 423.596,-186.4873 435.2959,-166.4701 412,-118 382.5333,-56.6908 302.161,-31.8506 248.4717,-21.926"/>
<polygon fill="#9a32cd" stroke="#9a32cd" points="405.8724,-246.7242 404.7978,-257.2644 412.2108,-249.6948 405.8724,-246.7242"/>
<text text-anchor="middle" x="449.5" y="-86.5" font-family="Helvetica,sans-Serif" font-size="10.00" fill="#000000"> interpolation_points</text>
</g>
<!-- Node7&#45;&gt;Node4 -->
<g id="edge5" class="edge">
<title>Node7&#45;&gt;Node4</title>
<path fill="none" stroke="#9a32cd" stroke-dasharray="5,2" d="M380.6073,-250.1387C377.691,-246.7035 374.9867,-242.9294 373,-239 348.301,-190.1482 382.8662,-161.7762 350,-118 343.4671,-109.2985 333.5829,-103.0093 323.8705,-98.5606"/>
<polygon fill="#9a32cd" stroke="#9a32cd" points="378.1325,-252.6153 387.5586,-257.4526 383.2064,-247.7929 378.1325,-252.6153"/>
<text text-anchor="middle" x="392.5" y="-231" font-family="Helvetica,sans-Serif" font-size="10.00" fill="#000000"> slope_r</text>
<text text-anchor="middle" x="392.5" y="-220" font-family="Helvetica,sans-Serif" font-size="10.00" fill="#000000">delta</text>
<text text-anchor="middle" x="392.5" y="-209" font-family="Helvetica,sans-Serif" font-size="10.00" fill="#000000">f_aux</text>
<text text-anchor="middle" x="392.5" y="-198" font-family="Helvetica,sans-Serif" font-size="10.00" fill="#000000">rdelta</text>
<text text-anchor="middle" x="392.5" y="-187" font-family="Helvetica,sans-Serif" font-size="10.00" fill="#000000">coeffs</text>
<text text-anchor="middle" x="392.5" y="-176" font-family="Helvetica,sans-Serif" font-size="10.00" fill="#000000">slope_l</text>
<text text-anchor="middle" x="392.5" y="-165" font-family="Helvetica,sans-Serif" font-size="10.00" fill="#000000">xmin</text>
<text text-anchor="middle" x="392.5" y="-154" font-family="Helvetica,sans-Serif" font-size="10.00" fill="#000000">a</text>
<text text-anchor="middle" x="392.5" y="-143" font-family="Helvetica,sans-Serif" font-size="10.00" fill="#000000">xmax</text>
<text text-anchor="middle" x="392.5" y="-132" font-family="Helvetica,sans-Serif" font-size="10.00" fill="#000000">cts</text>
<text text-anchor="middle" x="392.5" y="-121" font-family="Helvetica,sans-Serif" font-size="10.00" fill="#000000">...</text>
</g>
</g>
</svg>
        <g id="navigator" transform="translate(0 0)" fill="#404254">
                <rect fill="#f2f5e9" fill-opacity="0.5" stroke="#606060" stroke-width=".5" x="0" y="0" width="60" height="60"/>
                <use id="zoomplus" xlink:href="#zoomPlus" x="17" y="9" onmousedown="handleZoom(evt,'in')"/>
                <use id="zoomminus" xlink:href="#zoomMin" x="42" y="9" onmousedown="handleZoom(evt,'out')"/>
                <use id="reset" xlink:href="#resetDef" x="30" y="36" onmousedown="handleReset()"/>
                <g id="arrowUp" xlink:href="#dirArrow" transform="translate(30 24)" onmousedown="handlePan(0,-1)">
                  <use xlink:href="#rim" fill="#404040">
                        <set attributeName="fill" to="#808080" begin="arrowUp.mouseover" end="arrowUp.mouseout"/>
                  </use>
                  <path fill="none" stroke="white" stroke-width="1.5" d="M0,-3.0v7 M-2.5,-0.5L0,-3.0L2.5,-0.5"/>
                </g>
                <g id="arrowRight" xlink:href="#dirArrow" transform="rotate(90) translate(36 -43)" onmousedown="handlePan(1,0)">
                  <use xlink:href="#rim" fill="#404040">
                        <set attributeName="fill" to="#808080" begin="arrowRight.mouseover" end="arrowRight.mouseout"/>
                  </use>
                  <path fill="none" stroke="white" stroke-width="1.5" d="M0,-3.0v7 M-2.5,-0.5L0,-3.0L2.5,-0.5"/>
                </g>
                <g id="arrowDown" xlink:href="#dirArrow" transform="rotate(180) translate(-30 -48)" onmousedown="handlePan(0,1)">
                  <use xlink:href="#rim" fill="#404040">
                        <set attributeName="fill" to="#808080" begin="arrowDown.mouseover" end="arrowDown.mouseout"/>
                  </use>
                  <path fill="none" stroke="white" stroke-width="1.5" d="M0,-3.0v7 M-2.5,-0.5L0,-3.0L2.5,-0.5"/>
                </g>
                <g id="arrowLeft" xlink:href="#dirArrow" transform="rotate(270) translate(-36 17)" onmousedown="handlePan(-1,0)">
                  <use xlink:href="#rim" fill="#404040">
                        <set attributeName="fill" to="#808080" begin="arrowLeft.mouseover" end="arrowLeft.mouseout"/>
                  </use>
                  <path fill="none" stroke="white" stroke-width="1.5" d="M0,-3.0v7 M-2.5,-0.5L0,-3.0L2.5,-0.5"/>
                </g>
        </g>
        <svg viewBox="0 0 15 15" width="100%" height="30px" preserveAspectRatio="xMaxYMin meet">
         <g id="arrow_out" transform="scale(0.3 0.3)">
          <a xlink:href="structsll__m__cubic__spline__interpolator__1d_1_1sll__t__cubic__spline__interpolator__1d__coll__graph_org.svg" target="_base">
           <rect id="button" ry="5" rx="5" y="6" x="6" height="38" width="38"
                fill="#f2f5e9" fill-opacity="0.5" stroke="#606060" stroke-width="1.0"/>
           <path id="arrow"
             d="M 11.500037,31.436501 C 11.940474,20.09759 22.043105,11.32322 32.158766,21.979434 L 37.068811,17.246167 C 37.068811,17.246167 37.088388,32 37.088388,32 L 22.160133,31.978069 C 22.160133,31.978069 26.997745,27.140456 26.997745,27.140456 C 18.528582,18.264221 13.291696,25.230495 11.500037,31.436501 z"
             style="fill:#404040;"/>
          </a>
         </g>
        </svg>
</svg>
