<?xml version="1.0" encoding="UTF-8" standalone="no"?>
<!DOCTYPE svg PUBLIC "-//W3C//DTD SVG 1.1//EN"
 "http://www.w3.org/Graphics/SVG/1.1/DTD/svg11.dtd">
<!-- Generated by graphviz version 2.40.1 (20161225.0304)
 -->
<!-- Title: sll_t_time_mark Pages: 1 -->
<svg width="167pt" height="117pt"
 viewBox="0.00 0.00 166.50 117.00" xmlns="http://www.w3.org/2000/svg" xmlns:xlink="http://www.w3.org/1999/xlink">
<g id="graph0" class="graph" transform="scale(1 1) rotate(0) translate(4 113)">
<title>sll_t_time_mark</title>
<polygon fill="#ffffff" stroke="transparent" points="-4,4 -4,-113 162.5,-113 162.5,4 -4,4"/>
<!-- Node1 -->
<g id="node1" class="node">
<title>Node1</title>
<polygon fill="#bfbfbf" stroke="#000000" points="11,-.5 11,-19.5 106,-19.5 106,-.5 11,-.5"/>
<text text-anchor="middle" x="58.5" y="-7.5" font-family="Helvetica,sans-Serif" font-size="10.00" fill="#000000">sll_t_time_mark</text>
</g>
<!-- Node2 -->
<g id="node2" class="node">
<title>Node2</title>
<polygon fill="#ffffff" stroke="#bfbfbf" points="0,-89.5 0,-108.5 117,-108.5 117,-89.5 0,-89.5"/>
<text text-anchor="middle" x="58.5" y="-96.5" font-family="Helvetica,sans-Serif" font-size="10.00" fill="#000000">integer(kind=itimer)</text>
</g>
<!-- Node2&#45;&gt;Node1 -->
<g id="edge1" class="edge">
<title>Node2&#45;&gt;Node1</title>
<path fill="none" stroke="#9a32cd" stroke-dasharray="5,2" d="M58.5,-79.2379C58.5,-60.7654 58.5,-33.957 58.5,-19.7259"/>
<polygon fill="#9a32cd" stroke="#9a32cd" points="55.0001,-79.4754 58.5,-89.4754 62.0001,-79.4755 55.0001,-79.4754"/>
<text text-anchor="middle" x="108.5" y="-63" font-family="Helvetica,sans-Serif" font-size="10.00" fill="#000000"> clock_ticks_per_sec</text>
<text text-anchor="middle" x="108.5" y="-52" font-family="Helvetica,sans-Serif" font-size="10.00" fill="#000000">clock_ticks</text>
<text text-anchor="middle" x="108.5" y="-41" font-family="Helvetica,sans-Serif" font-size="10.00" fill="#000000">clock_ticks_max</text>
</g>
</g>
</svg>
