<?xml version="1.0" encoding="UTF-8" standalone="no"?>
<!DOCTYPE svg PUBLIC "-//W3C//DTD SVG 1.1//EN"
 "http://www.w3.org/Graphics/SVG/1.1/DTD/svg11.dtd">
<!-- Generated by graphviz version 2.43.0 (0)
 -->
<!-- Title: sll_t_csl_2d_advector Pages: 1 -->
<svg width="372pt" height="259pt"
 viewBox="0.00 0.00 372.00 258.50" xmlns="http://www.w3.org/2000/svg" xmlns:xlink="http://www.w3.org/1999/xlink">
<g id="graph0" class="graph" transform="scale(1 1) rotate(0) translate(4 254.5)">
<title>sll_t_csl_2d_advector</title>
<polygon fill="white" stroke="transparent" points="-4,4 -4,-254.5 368,-254.5 368,4 -4,4"/>
<!-- Node1 -->
<g id="node1" class="node">
<title>Node1</title>
<g id="a_node1"><a xlink:title=" ">
<polygon fill="#bfbfbf" stroke="black" points="243,-111 243,-130 364,-130 364,-111 243,-111"/>
<text text-anchor="middle" x="303.5" y="-118" font-family="Helvetica,sans-Serif" font-size="10.00">sll_t_csl_2d_advector</text>
</a>
</g>
</g>
<!-- Node2 -->
<g id="node2" class="node">
<title>Node2</title>
<g id="a_node2"><a xlink:href="structsll__m__advection__2d__base_1_1sll__c__advector__2d.html" target="_top" xlink:title=" ">
<polygon fill="white" stroke="black" points="19.5,-231 19.5,-250 123.5,-250 123.5,-231 19.5,-231"/>
<text text-anchor="middle" x="71.5" y="-238" font-family="Helvetica,sans-Serif" font-size="10.00">sll_c_advector_2d</text>
</a>
</g>
</g>
<!-- Node2&#45;&gt;Node1 -->
<g id="edge1" class="edge">
<title>Node2&#45;&gt;Node1</title>
<path fill="none" stroke="midnightblue" d="M133.78,-243C163.09,-241.66 197.65,-236.19 225,-220.5 262.72,-198.86 288.45,-150.87 298.18,-130.24"/>
<polygon fill="midnightblue" stroke="midnightblue" points="133.55,-239.51 123.66,-243.32 133.76,-246.51 133.55,-239.51"/>
</g>
<!-- Node3 -->
<g id="node3" class="node">
<title>Node3</title>
<g id="a_node3"><a xlink:title=" ">
<polygon fill="white" stroke="#bfbfbf" points="20,-172 20,-191 123,-191 123,-172 20,-172"/>
<text text-anchor="middle" x="71.5" y="-179" font-family="Helvetica,sans-Serif" font-size="10.00">integer(kind=i32)</text>
</a>
</g>
</g>
<!-- Node3&#45;&gt;Node1 -->
<g id="edge2" class="edge">
<title>Node3&#45;&gt;Node1</title>
<path fill="none" stroke="#9a32cd" stroke-dasharray="5,2" d="M133.37,-177.26C161.7,-174.14 195.57,-168.76 225,-159.5 247.7,-152.36 271.9,-139.18 287.1,-130.13"/>
<polygon fill="#9a32cd" stroke="#9a32cd" points="132.79,-173.8 123.2,-178.31 133.51,-180.76 132.79,-173.8"/>
<text text-anchor="middle" x="193" y="-208.5" font-family="Helvetica,sans-Serif" font-size="10.00"> cell</text>
<text text-anchor="middle" x="193" y="-197.5" font-family="Helvetica,sans-Serif" font-size="10.00">nbmax</text>
<text text-anchor="middle" x="193" y="-186.5" font-family="Helvetica,sans-Serif" font-size="10.00">npts1</text>
<text text-anchor="middle" x="193" y="-175.5" font-family="Helvetica,sans-Serif" font-size="10.00">npts2</text>
</g>
<!-- Node4 -->
<g id="node4" class="node">
<title>Node4</title>
<g id="a_node4"><a xlink:title=" ">
<polygon fill="white" stroke="#bfbfbf" points="27.5,-50 27.5,-69 115.5,-69 115.5,-50 27.5,-50"/>
<text text-anchor="middle" x="71.5" y="-57" font-family="Helvetica,sans-Serif" font-size="10.00">real(kind=f64)</text>
</a>
</g>
</g>
<!-- Node4&#45;&gt;Node1 -->
<g id="edge3" class="edge">
<title>Node4&#45;&gt;Node1</title>
<path fill="none" stroke="#9a32cd" stroke-dasharray="5,2" d="M125.84,-49.28C155.83,-45.77 193.46,-45.16 225,-56.5 255.21,-67.36 282.03,-95.67 294.73,-110.74"/>
<polygon fill="#9a32cd" stroke="#9a32cd" points="125.03,-45.86 115.57,-50.63 125.94,-52.8 125.03,-45.86"/>
<text text-anchor="middle" x="193" y="-147.5" font-family="Helvetica,sans-Serif" font-size="10.00"> tt</text>
<text text-anchor="middle" x="193" y="-136.5" font-family="Helvetica,sans-Serif" font-size="10.00">dir</text>
<text text-anchor="middle" x="193" y="-125.5" font-family="Helvetica,sans-Serif" font-size="10.00">charac_feet1</text>
<text text-anchor="middle" x="193" y="-114.5" font-family="Helvetica,sans-Serif" font-size="10.00">eta1_coords</text>
<text text-anchor="middle" x="193" y="-103.5" font-family="Helvetica,sans-Serif" font-size="10.00">charac_feet2</text>
<text text-anchor="middle" x="193" y="-92.5" font-family="Helvetica,sans-Serif" font-size="10.00">intx</text>
<text text-anchor="middle" x="193" y="-81.5" font-family="Helvetica,sans-Serif" font-size="10.00">inty</text>
<text text-anchor="middle" x="193" y="-70.5" font-family="Helvetica,sans-Serif" font-size="10.00">tcell</text>
<text text-anchor="middle" x="193" y="-59.5" font-family="Helvetica,sans-Serif" font-size="10.00">eta2_coords</text>
</g>
<!-- Node5 -->
<g id="node5" class="node">
<title>Node5</title>
<g id="a_node5"><a xlink:title=" ">
<polygon fill="white" stroke="#bfbfbf" points="0,-0.5 0,-30.5 143,-30.5 143,-0.5 0,-0.5"/>
<text text-anchor="start" x="8" y="-18.5" font-family="Helvetica,sans-Serif" font-size="10.00">class(sll_c_characteristics</text>
<text text-anchor="middle" x="71.5" y="-7.5" font-family="Helvetica,sans-Serif" font-size="10.00">_2d_base), pointer</text>
</a>
</g>
</g>
<!-- Node5&#45;&gt;Node1 -->
<g id="edge4" class="edge">
<title>Node5&#45;&gt;Node1</title>
<path fill="none" stroke="#9a32cd" stroke-dasharray="5,2" d="M153.4,-13.57C177.52,-15.82 203.29,-21.2 225,-32.5 260.03,-50.73 286.48,-91.87 297.23,-110.72"/>
<polygon fill="#9a32cd" stroke="#9a32cd" points="153.42,-10.06 143.18,-12.79 152.89,-17.04 153.42,-10.06"/>
<text text-anchor="middle" x="193" y="-35.5" font-family="Helvetica,sans-Serif" font-size="10.00"> charac</text>
</g>
</g>
</svg>
