<?xml version="1.0" encoding="UTF-8" standalone="no"?>
<!DOCTYPE svg PUBLIC "-//W3C//DTD SVG 1.1//EN"
 "http://www.w3.org/Graphics/SVG/1.1/DTD/svg11.dtd">
<!-- Generated by graphviz version 2.38.0 (20140413.2041)
 -->
<!-- Title: sll_t_advector_2d_bsl Pages: 1 -->
<svg width="347pt" height="234pt"
 viewBox="0.00 0.00 347.00 233.50" xmlns="http://www.w3.org/2000/svg" xmlns:xlink="http://www.w3.org/1999/xlink">
<g id="graph0" class="graph" transform="scale(1 1) rotate(0) translate(4 229.5)">
<title>sll_t_advector_2d_bsl</title>
<polygon fill="white" stroke="none" points="-4,4 -4,-229.5 343,-229.5 343,4 -4,4"/>
<!-- Node1 -->
<g id="node1" class="node"><title>Node1</title>
<polygon fill="#bfbfbf" stroke="black" points="228,-117 228,-136 339,-136 339,-117 228,-117"/>
<text text-anchor="middle" x="283.5" y="-124" font-family="Helvetica,sans-Serif" font-size="10.00">sll_t_advector_2d_bsl</text>
</g>
<!-- Node2 -->
<g id="node2" class="node"><title>Node2</title>
<g id="a_node2"><a xlink:href="structsll__m__advection__2d__base_1_1sll__c__advector__2d.html" target="_top" xlink:title="sll_c_advector_2d">
<polygon fill="white" stroke="black" points="18.5,-206 18.5,-225 113.5,-225 113.5,-206 18.5,-206"/>
<text text-anchor="middle" x="66" y="-213" font-family="Helvetica,sans-Serif" font-size="10.00">sll_c_advector_2d</text>
</a>
</g>
</g>
<!-- Node2&#45;&gt;Node1 -->
<g id="edge1" class="edge"><title>Node2&#45;&gt;Node1</title>
<path fill="none" stroke="midnightblue" d="M123.819,-204.65C150.699,-198.362 182.789,-189.145 210,-176.5 233.295,-165.675 257.238,-147.525 270.947,-136.325"/>
<polygon fill="midnightblue" stroke="midnightblue" points="122.775,-201.298 113.794,-206.918 124.32,-208.125 122.775,-201.298"/>
</g>
<!-- Node3 -->
<g id="node3" class="node"><title>Node3</title>
<polygon fill="white" stroke="#bfbfbf" points="8,-156.5 8,-186.5 124,-186.5 124,-156.5 8,-156.5"/>
<text text-anchor="start" x="16" y="-174.5" font-family="Helvetica,sans-Serif" font-size="10.00">class(sll_c_interpolator</text>
<text text-anchor="middle" x="66" y="-163.5" font-family="Helvetica,sans-Serif" font-size="10.00">_2d), pointer</text>
</g>
<!-- Node3&#45;&gt;Node1 -->
<g id="edge2" class="edge"><title>Node3&#45;&gt;Node1</title>
<path fill="none" stroke="#9a32cd" stroke-dasharray="5,2" d="M134.206,-163.345C158.271,-159.851 185.497,-155.235 210,-149.5 225.429,-145.889 242.323,-140.609 255.919,-136.019"/>
<polygon fill="#9a32cd" stroke="#9a32cd" points="133.514,-159.908 124.103,-164.774 134.494,-166.839 133.514,-159.908"/>
<text text-anchor="middle" x="180" y="-164.5" font-family="Helvetica,sans-Serif" font-size="10.00"> interp</text>
</g>
<!-- Node4 -->
<g id="node4" class="node"><title>Node4</title>
<polygon fill="white" stroke="#bfbfbf" points="21.5,-117 21.5,-136 110.5,-136 110.5,-117 21.5,-117"/>
<text text-anchor="middle" x="66" y="-124" font-family="Helvetica,sans-Serif" font-size="10.00">integer(kind=i32)</text>
</g>
<!-- Node4&#45;&gt;Node1 -->
<g id="edge3" class="edge"><title>Node4&#45;&gt;Node1</title>
<path fill="none" stroke="#9a32cd" stroke-dasharray="5,2" d="M120.875,-126.5C153.524,-126.5 195.058,-126.5 227.846,-126.5"/>
<polygon fill="#9a32cd" stroke="#9a32cd" points="120.61,-123 110.61,-126.5 120.61,-130 120.61,-123"/>
<text text-anchor="middle" x="180" y="-140.5" font-family="Helvetica,sans-Serif" font-size="10.00"> npts1</text>
<text text-anchor="middle" x="180" y="-129.5" font-family="Helvetica,sans-Serif" font-size="10.00">npts2</text>
</g>
<!-- Node5 -->
<g id="node5" class="node"><title>Node5</title>
<polygon fill="white" stroke="#bfbfbf" points="28,-50 28,-69 104,-69 104,-50 28,-50"/>
<text text-anchor="middle" x="66" y="-57" font-family="Helvetica,sans-Serif" font-size="10.00">real(kind=f64)</text>
</g>
<!-- Node5&#45;&gt;Node1 -->
<g id="edge4" class="edge"><title>Node5&#45;&gt;Node1</title>
<path fill="none" stroke="#9a32cd" stroke-dasharray="5,2" d="M114.354,-60.4558C142.845,-62.3222 179.4,-67.036 210,-78.5 234.031,-87.503 258.117,-105.716 271.588,-116.937"/>
<polygon fill="#9a32cd" stroke="#9a32cd" points="114.429,-56.9546 104.249,-59.8898 114.037,-63.9436 114.429,-56.9546"/>
<text text-anchor="middle" x="180" y="-114.5" font-family="Helvetica,sans-Serif" font-size="10.00"> charac_feet1</text>
<text text-anchor="middle" x="180" y="-103.5" font-family="Helvetica,sans-Serif" font-size="10.00">eta1_coords</text>
<text text-anchor="middle" x="180" y="-92.5" font-family="Helvetica,sans-Serif" font-size="10.00">charac_feet2</text>
<text text-anchor="middle" x="180" y="-81.5" font-family="Helvetica,sans-Serif" font-size="10.00">eta2_coords</text>
</g>
<!-- Node6 -->
<g id="node6" class="node"><title>Node6</title>
<polygon fill="white" stroke="#bfbfbf" points="0,-0.5 0,-30.5 132,-30.5 132,-0.5 0,-0.5"/>
<text text-anchor="start" x="8" y="-18.5" font-family="Helvetica,sans-Serif" font-size="10.00">class(sll_c_characteristics</text>
<text text-anchor="middle" x="66" y="-7.5" font-family="Helvetica,sans-Serif" font-size="10.00">_2d_base), pointer</text>
</g>
<!-- Node6&#45;&gt;Node1 -->
<g id="edge5" class="edge"><title>Node6&#45;&gt;Node1</title>
<path fill="none" stroke="#9a32cd" stroke-dasharray="5,2" d="M142.279,-24.8826C165.089,-29.9177 189.508,-37.6454 210,-49.5 239.879,-66.7852 264.973,-100.209 276.196,-116.746"/>
<polygon fill="#9a32cd" stroke="#9a32cd" points="142.778,-21.4119 132.277,-22.8196 141.364,-28.2675 142.778,-21.4119"/>
<text text-anchor="middle" x="180" y="-52.5" font-family="Helvetica,sans-Serif" font-size="10.00"> charac</text>
</g>
</g>
</svg>
