<?xml version="1.0" encoding="UTF-8" standalone="no"?>
<!DOCTYPE svg PUBLIC "-//W3C//DTD SVG 1.1//EN"
 "http://www.w3.org/Graphics/SVG/1.1/DTD/svg11.dtd">
<!-- Generated by graphviz version 2.38.0 (20140413.2041)
 -->
<!-- Title: sll_t_particle_2d_guard_ptr Pages: 1 -->
<svg width="192pt" height="251pt"
 viewBox="0.00 0.00 191.50 251.00" xmlns="http://www.w3.org/2000/svg" xmlns:xlink="http://www.w3.org/1999/xlink">
<g id="graph0" class="graph" transform="scale(1 1) rotate(0) translate(4 247)">
<title>sll_t_particle_2d_guard_ptr</title>
<polygon fill="white" stroke="none" points="-4,4 -4,-247 187.5,-247 187.5,4 -4,4"/>
<!-- Node1 -->
<g id="node1" class="node"><title>Node1</title>
<polygon fill="#bfbfbf" stroke="black" points="21.5,-0.5 21.5,-19.5 154.5,-19.5 154.5,-0.5 21.5,-0.5"/>
<text text-anchor="middle" x="88" y="-7.5" font-family="Helvetica,sans-Serif" font-size="10.00">sll_t_particle_2d_guard_ptr</text>
</g>
<!-- Node2 -->
<g id="node2" class="node"><title>Node2</title>
<g id="a_node2"><a xlink:href="structsll__m__particle__representations_1_1sll__t__particle__2d__guard.html" target="_top" xlink:title="sll_t_particle_2d_guard">
<polygon fill="white" stroke="black" points="30,-67.5 30,-86.5 146,-86.5 146,-67.5 30,-67.5"/>
<text text-anchor="middle" x="88" y="-74.5" font-family="Helvetica,sans-Serif" font-size="10.00">sll_t_particle_2d_guard</text>
</a>
</g>
</g>
<!-- Node2&#45;&gt;Node1 -->
<g id="edge1" class="edge"><title>Node2&#45;&gt;Node1</title>
<path fill="none" stroke="#9a32cd" stroke-dasharray="5,2" d="M88,-57.037C88,-44.6703 88,-29.1198 88,-19.6273"/>
<polygon fill="#9a32cd" stroke="#9a32cd" points="84.5001,-57.2338 88,-67.2338 91.5001,-57.2338 84.5001,-57.2338"/>
<text text-anchor="middle" x="101.5" y="-41" font-family="Helvetica,sans-Serif" font-size="10.00"> g_list</text>
</g>
<!-- Node3 -->
<g id="node3" class="node"><title>Node3</title>
<g id="a_node3"><a xlink:href="structsll__m__particle__representations_1_1sll__t__particle__2d.html" target="_top" xlink:title="sll_t_particle_2d">
<polygon fill="white" stroke="black" points="44.5,-134.5 44.5,-153.5 131.5,-153.5 131.5,-134.5 44.5,-134.5"/>
<text text-anchor="middle" x="88" y="-141.5" font-family="Helvetica,sans-Serif" font-size="10.00">sll_t_particle_2d</text>
</a>
</g>
</g>
<!-- Node3&#45;&gt;Node2 -->
<g id="edge2" class="edge"><title>Node3&#45;&gt;Node2</title>
<path fill="none" stroke="#9a32cd" stroke-dasharray="5,2" d="M88,-124.037C88,-111.67 88,-96.1198 88,-86.6273"/>
<polygon fill="#9a32cd" stroke="#9a32cd" points="84.5001,-124.234 88,-134.234 91.5001,-124.234 84.5001,-124.234"/>
<text text-anchor="middle" x="92.5" y="-108" font-family="Helvetica,sans-Serif" font-size="10.00"> p</text>
</g>
<!-- Node4 -->
<g id="node4" class="node"><title>Node4</title>
<polygon fill="white" stroke="#bfbfbf" points="0,-223.5 0,-242.5 76,-242.5 76,-223.5 0,-223.5"/>
<text text-anchor="middle" x="38" y="-230.5" font-family="Helvetica,sans-Serif" font-size="10.00">real(kind=f32)</text>
</g>
<!-- Node4&#45;&gt;Node3 -->
<g id="edge3" class="edge"><title>Node4&#45;&gt;Node3</title>
<path fill="none" stroke="#9a32cd" stroke-dasharray="5,2" d="M48.0659,-214.485C58.6699,-196.034 74.9327,-167.737 83.0431,-153.625"/>
<polygon fill="#9a32cd" stroke="#9a32cd" points="44.9253,-212.926 42.977,-223.34 50.9944,-216.414 44.9253,-212.926"/>
<text text-anchor="middle" x="79" y="-197" font-family="Helvetica,sans-Serif" font-size="10.00"> dx</text>
<text text-anchor="middle" x="79" y="-186" font-family="Helvetica,sans-Serif" font-size="10.00">dy</text>
<text text-anchor="middle" x="79" y="-175" font-family="Helvetica,sans-Serif" font-size="10.00">q</text>
</g>
<!-- Node5 -->
<g id="node5" class="node"><title>Node5</title>
<polygon fill="white" stroke="#bfbfbf" points="94.5,-223.5 94.5,-242.5 183.5,-242.5 183.5,-223.5 94.5,-223.5"/>
<text text-anchor="middle" x="139" y="-230.5" font-family="Helvetica,sans-Serif" font-size="10.00">integer(kind=i32)</text>
</g>
<!-- Node5&#45;&gt;Node3 -->
<g id="edge4" class="edge"><title>Node5&#45;&gt;Node3</title>
<path fill="none" stroke="#9a32cd" stroke-dasharray="5,2" d="M128.733,-214.485C117.917,-196.034 101.329,-167.737 93.056,-153.625"/>
<polygon fill="#9a32cd" stroke="#9a32cd" points="125.847,-216.483 133.923,-223.34 131.886,-212.943 125.847,-216.483"/>
<text text-anchor="middle" x="128.5" y="-186" font-family="Helvetica,sans-Serif" font-size="10.00"> ic</text>
</g>
</g>
</svg>
