<?xml version="1.0" encoding="UTF-8" standalone="no"?>
<!DOCTYPE svg PUBLIC "-//W3C//DTD SVG 1.1//EN"
 "http://www.w3.org/Graphics/SVG/1.1/DTD/svg11.dtd">
<!-- Generated by graphviz version 2.43.0 (0)
 -->
<!-- Title: sll_t_poisson_2d_triangular Pages: 1 -->
<svg width="398pt" height="373pt"
 viewBox="0.00 0.00 397.50 373.00" xmlns="http://www.w3.org/2000/svg" xmlns:xlink="http://www.w3.org/1999/xlink">
<g id="graph0" class="graph" transform="scale(1 1) rotate(0) translate(4 369)">
<title>sll_t_poisson_2d_triangular</title>
<polygon fill="white" stroke="transparent" points="-4,4 -4,-369 393.5,-369 393.5,4 -4,4"/>
<!-- Node1 -->
<g id="node1" class="node">
<title>Node1</title>
<g id="a_node1"><a xlink:title="Derived type for Poisson solver on unstructured mesh with triangles.">
<polygon fill="#bfbfbf" stroke="black" points="67,-0.5 67,-19.5 216,-19.5 216,-0.5 67,-0.5"/>
<text text-anchor="middle" x="141.5" y="-7.5" font-family="Helvetica,sans-Serif" font-size="10.00">sll_t_poisson_2d_triangular</text>
</a>
</g>
</g>
<!-- Node2 -->
<g id="node2" class="node">
<title>Node2</title>
<g id="a_node2"><a xlink:title=" ">
<polygon fill="white" stroke="#bfbfbf" points="0,-345.5 0,-364.5 49,-364.5 49,-345.5 0,-345.5"/>
<text text-anchor="middle" x="24.5" y="-352.5" font-family="Helvetica,sans-Serif" font-size="10.00">logical</text>
</a>
</g>
</g>
<!-- Node2&#45;&gt;Node1 -->
<g id="edge1" class="edge">
<title>Node2&#45;&gt;Node1</title>
<path fill="none" stroke="#9a32cd" stroke-dasharray="5,2" d="M22.15,-335.16C17.06,-286.05 9.86,-152.07 69.5,-67 84.23,-45.99 109.15,-29.15 125.46,-19.61"/>
<polygon fill="#9a32cd" stroke="#9a32cd" points="18.69,-335.72 23.3,-345.26 25.65,-334.93 18.69,-335.72"/>
<text text-anchor="middle" x="83.5" y="-125" font-family="Helvetica,sans-Serif" font-size="10.00"> naux</text>
</g>
<!-- Node3 -->
<g id="node3" class="node">
<title>Node3</title>
<g id="a_node3"><a xlink:href="structsll__m__triangular__meshes_1_1sll__t__triangular__mesh__2d.html" target="_top" xlink:title="2d hexagonal mesh">
<polygon fill="white" stroke="black" points="153,-118 153,-137 292,-137 292,-118 153,-118"/>
<text text-anchor="middle" x="222.5" y="-125" font-family="Helvetica,sans-Serif" font-size="10.00">sll_t_triangular_mesh_2d</text>
</a>
</g>
</g>
<!-- Node2&#45;&gt;Node3 -->
<g id="edge3" class="edge">
<title>Node2&#45;&gt;Node3</title>
<path fill="none" stroke="#9a32cd" stroke-dasharray="5,2" d="M26.36,-335.23C30.45,-303.97 43.08,-241.21 80.5,-206 100.16,-187.5 114.3,-199.95 138.5,-188 167.34,-173.76 197.15,-150.13 212.31,-137.35"/>
<polygon fill="#9a32cd" stroke="#9a32cd" points="22.87,-334.88 25.2,-345.21 29.83,-335.68 22.87,-334.88"/>
<text text-anchor="middle" x="104.5" y="-264" font-family="Helvetica,sans-Serif" font-size="10.00"> analyzed</text>
</g>
<!-- Node3&#45;&gt;Node1 -->
<g id="edge2" class="edge">
<title>Node3&#45;&gt;Node1</title>
<path fill="none" stroke="#9a32cd" stroke-dasharray="5,2" d="M210.47,-109.34C192.95,-84.36 161.03,-38.86 147.66,-19.78"/>
<polygon fill="#9a32cd" stroke="#9a32cd" points="207.8,-111.64 216.41,-117.82 213.54,-107.62 207.8,-111.64"/>
<text text-anchor="middle" x="184" y="-41" font-family="Helvetica,sans-Serif" font-size="10.00"> mesh</text>
</g>
<!-- Node4 -->
<g id="node4" class="node">
<title>Node4</title>
<g id="a_node4"><a xlink:title=" ">
<polygon fill="white" stroke="#bfbfbf" points="68,-345.5 68,-364.5 171,-364.5 171,-345.5 68,-345.5"/>
<text text-anchor="middle" x="119.5" y="-352.5" font-family="Helvetica,sans-Serif" font-size="10.00">integer(kind=i32)</text>
</a>
</g>
</g>
<!-- Node4&#45;&gt;Node1 -->
<g id="edge6" class="edge">
<title>Node4&#45;&gt;Node1</title>
<path fill="none" stroke="#9a32cd" stroke-dasharray="5,2" d="M115.74,-335.33C107.12,-289.06 88.47,-165.66 112.5,-67 116.9,-48.92 128.25,-30.16 135.37,-19.59"/>
<polygon fill="#9a32cd" stroke="#9a32cd" points="112.35,-336.22 117.68,-345.37 119.22,-334.89 112.35,-336.22"/>
<text text-anchor="middle" x="128" y="-152.5" font-family="Helvetica,sans-Serif" font-size="10.00"> ifron</text>
<text text-anchor="middle" x="128" y="-141.5" font-family="Helvetica,sans-Serif" font-size="10.00">iprof</text>
<text text-anchor="middle" x="128" y="-130.5" font-family="Helvetica,sans-Serif" font-size="10.00">mors1</text>
<text text-anchor="middle" x="128" y="-119.5" font-family="Helvetica,sans-Serif" font-size="10.00">mors2</text>
<text text-anchor="middle" x="128" y="-108.5" font-family="Helvetica,sans-Serif" font-size="10.00">ndiric</text>
<text text-anchor="middle" x="128" y="-97.5" font-family="Helvetica,sans-Serif" font-size="10.00">ntypfr</text>
</g>
<!-- Node4&#45;&gt;Node3 -->
<g id="edge4" class="edge">
<title>Node4&#45;&gt;Node3</title>
<path fill="none" stroke="#9a32cd" stroke-dasharray="5,2" d="M127.64,-336.18C148.52,-290.46 203.44,-170.23 218.58,-137.07"/>
<polygon fill="#9a32cd" stroke="#9a32cd" points="124.38,-334.89 123.41,-345.44 130.75,-337.79 124.38,-334.89"/>
<text text-anchor="middle" x="202.5" y="-319" font-family="Helvetica,sans-Serif" font-size="10.00"> kctfro</text>
<text text-anchor="middle" x="202.5" y="-308" font-family="Helvetica,sans-Serif" font-size="10.00">kelfro</text>
<text text-anchor="middle" x="202.5" y="-297" font-family="Helvetica,sans-Serif" font-size="10.00">krefro</text>
<text text-anchor="middle" x="202.5" y="-286" font-family="Helvetica,sans-Serif" font-size="10.00">ksofro</text>
<text text-anchor="middle" x="202.5" y="-275" font-family="Helvetica,sans-Serif" font-size="10.00">nbcoti</text>
<text text-anchor="middle" x="202.5" y="-264" font-family="Helvetica,sans-Serif" font-size="10.00">nbcov</text>
<text text-anchor="middle" x="202.5" y="-253" font-family="Helvetica,sans-Serif" font-size="10.00">nbtcot</text>
<text text-anchor="middle" x="202.5" y="-242" font-family="Helvetica,sans-Serif" font-size="10.00">nctfro</text>
<text text-anchor="middle" x="202.5" y="-231" font-family="Helvetica,sans-Serif" font-size="10.00">nctfrp</text>
<text text-anchor="middle" x="202.5" y="-220" font-family="Helvetica,sans-Serif" font-size="10.00">nctfrt</text>
<text text-anchor="middle" x="202.5" y="-209" font-family="Helvetica,sans-Serif" font-size="10.00">...</text>
</g>
<!-- Node5 -->
<g id="node5" class="node">
<title>Node5</title>
<g id="a_node5"><a xlink:title=" ">
<polygon fill="white" stroke="#bfbfbf" points="234.5,-345.5 234.5,-364.5 322.5,-364.5 322.5,-345.5 234.5,-345.5"/>
<text text-anchor="middle" x="278.5" y="-352.5" font-family="Helvetica,sans-Serif" font-size="10.00">real(kind=f64)</text>
</a>
</g>
</g>
<!-- Node5&#45;&gt;Node1 -->
<g id="edge7" class="edge">
<title>Node5&#45;&gt;Node1</title>
<path fill="none" stroke="#9a32cd" stroke-dasharray="5,2" d="M304.34,-339.43C308.44,-335.91 312.12,-331.77 314.5,-327 366.24,-223.51 372.77,-158.14 301.5,-67 281.01,-40.8 247.44,-26.82 216.32,-19.38"/>
<polygon fill="#9a32cd" stroke="#9a32cd" points="302.16,-336.69 296.14,-345.41 306.28,-342.34 302.16,-336.69"/>
<text text-anchor="middle" x="371.5" y="-180" font-family="Helvetica,sans-Serif" font-size="10.00"> amass</text>
<text text-anchor="middle" x="371.5" y="-169" font-family="Helvetica,sans-Serif" font-size="10.00">eps0</text>
<text text-anchor="middle" x="371.5" y="-158" font-family="Helvetica,sans-Serif" font-size="10.00">gradx</text>
<text text-anchor="middle" x="371.5" y="-147" font-family="Helvetica,sans-Serif" font-size="10.00">grady</text>
<text text-anchor="middle" x="371.5" y="-136" font-family="Helvetica,sans-Serif" font-size="10.00">grgr</text>
<text text-anchor="middle" x="371.5" y="-125" font-family="Helvetica,sans-Serif" font-size="10.00">potfr</text>
<text text-anchor="middle" x="371.5" y="-114" font-family="Helvetica,sans-Serif" font-size="10.00">sv1</text>
<text text-anchor="middle" x="371.5" y="-103" font-family="Helvetica,sans-Serif" font-size="10.00">sv2</text>
<text text-anchor="middle" x="371.5" y="-92" font-family="Helvetica,sans-Serif" font-size="10.00">vnx</text>
<text text-anchor="middle" x="371.5" y="-81" font-family="Helvetica,sans-Serif" font-size="10.00">vny</text>
<text text-anchor="middle" x="371.5" y="-70" font-family="Helvetica,sans-Serif" font-size="10.00">...</text>
</g>
<!-- Node5&#45;&gt;Node3 -->
<g id="edge5" class="edge">
<title>Node5&#45;&gt;Node3</title>
<path fill="none" stroke="#9a32cd" stroke-dasharray="5,2" d="M269.22,-336.24C267.85,-333.21 266.55,-330.05 265.5,-327 240.97,-255.64 227.4,-164.87 223.61,-137.01"/>
<polygon fill="#9a32cd" stroke="#9a32cd" points="266.08,-337.78 273.62,-345.22 272.37,-334.7 266.08,-337.78"/>
<text text-anchor="middle" x="290" y="-319" font-family="Helvetica,sans-Serif" font-size="10.00"> area</text>
<text text-anchor="middle" x="290" y="-308" font-family="Helvetica,sans-Serif" font-size="10.00">coord</text>
<text text-anchor="middle" x="290" y="-297" font-family="Helvetica,sans-Serif" font-size="10.00">eta1_max</text>
<text text-anchor="middle" x="290" y="-286" font-family="Helvetica,sans-Serif" font-size="10.00">eta1_min</text>
<text text-anchor="middle" x="290" y="-275" font-family="Helvetica,sans-Serif" font-size="10.00">eta2_max</text>
<text text-anchor="middle" x="290" y="-264" font-family="Helvetica,sans-Serif" font-size="10.00">eta2_min</text>
<text text-anchor="middle" x="290" y="-253" font-family="Helvetica,sans-Serif" font-size="10.00">grandl</text>
<text text-anchor="middle" x="290" y="-242" font-family="Helvetica,sans-Serif" font-size="10.00">petitl</text>
<text text-anchor="middle" x="290" y="-231" font-family="Helvetica,sans-Serif" font-size="10.00">vnofro</text>
<text text-anchor="middle" x="290" y="-220" font-family="Helvetica,sans-Serif" font-size="10.00">vtaux</text>
<text text-anchor="middle" x="290" y="-209" font-family="Helvetica,sans-Serif" font-size="10.00">...</text>
</g>
</g>
</svg>
