<?xml version="1.0" encoding="UTF-8" standalone="no"?>
<!DOCTYPE svg PUBLIC "-//W3C//DTD SVG 1.1//EN"
 "http://www.w3.org/Graphics/SVG/1.1/DTD/svg11.dtd">
<!-- Generated by graphviz version 2.40.1 (20161225.0304)
 -->
<!-- Title: sll_t_time_propagator_pic_vm_1d2v_helper Pages: 1 -->
<svg width="1151pt" height="789pt"
 viewBox="0.00 0.00 1151.00 789.13" xmlns="http://www.w3.org/2000/svg" xmlns:xlink="http://www.w3.org/1999/xlink">
<g id="graph0" class="graph" transform="scale(1 1) rotate(0) translate(4 785.131)">
<title>sll_t_time_propagator_pic_vm_1d2v_helper</title>
<polygon fill="#ffffff" stroke="transparent" points="-4,4 -4,-785.131 1147,-785.131 1147,4 -4,4"/>
<!-- Node1 -->
<g id="node1" class="node">
<title>Node1</title>
<polygon fill="#bfbfbf" stroke="#000000" points="1020,-360.131 1020,-390.131 1143,-390.131 1143,-360.131 1020,-360.131"/>
<text text-anchor="start" x="1028" y="-378.131" font-family="Helvetica,sans-Serif" font-size="10.00" fill="#000000">sll_t_time_propagator</text>
<text text-anchor="middle" x="1081.5" y="-367.131" font-family="Helvetica,sans-Serif" font-size="10.00" fill="#000000">_pic_vm_1d2v_helper</text>
</g>
<!-- Node2 -->
<g id="node2" class="node">
<title>Node2</title>
<polygon fill="#ffffff" stroke="#bfbfbf" points="27,-654.631 27,-673.631 76,-673.631 76,-654.631 27,-654.631"/>
<text text-anchor="middle" x="51.5" y="-661.631" font-family="Helvetica,sans-Serif" font-size="10.00" fill="#000000">logical</text>
</g>
<!-- Node2&#45;&gt;Node1 -->
<g id="edge1" class="edge">
<title>Node2&#45;&gt;Node1</title>
<path fill="none" stroke="#9a32cd" stroke-dasharray="5,2" d="M73.4259,-679.5425C113.9089,-706.4426 203.9883,-759.131 288.5,-759.131 288.5,-759.131 288.5,-759.131 808.5,-759.131 992.9531,-759.131 1064.276,-461.1803 1078.6527,-390.1842"/>
<polygon fill="#9a32cd" stroke="#9a32cd" points="75.1367,-676.4739 64.8946,-673.7629 71.2106,-682.2693 75.1367,-676.4739"/>
<text text-anchor="middle" x="551.5" y="-773.131" font-family="Helvetica,sans-Serif" font-size="10.00" fill="#000000"> boundary</text>
<text text-anchor="middle" x="551.5" y="-762.131" font-family="Helvetica,sans-Serif" font-size="10.00" fill="#000000">smooth</text>
</g>
<!-- Node8 -->
<g id="node8" class="node">
<title>Node8</title>
<g id="a_node8"><a xlink:href="structsll__m__linear__solver__iter__abstract_1_1sll__t__linear__solver__iter__abstract.html" target="_top" xlink:title="class for abstract iterative linear solver ">
<polygon fill="#ffffff" stroke="#000000" points="499,-453.131 499,-483.131 604,-483.131 604,-453.131 499,-453.131"/>
<text text-anchor="start" x="507" y="-471.131" font-family="Helvetica,sans-Serif" font-size="10.00" fill="#000000">sll_t_linear_solver</text>
<text text-anchor="middle" x="551.5" y="-460.131" font-family="Helvetica,sans-Serif" font-size="10.00" fill="#000000">_iter_abstract</text>
</a>
</g>
</g>
<!-- Node2&#45;&gt;Node8 -->
<g id="edge11" class="edge">
<title>Node2&#45;&gt;Node8</title>
<path fill="none" stroke="#9a32cd" stroke-dasharray="5,2" d="M86.2606,-657.4075C116.3939,-651.5077 161.1445,-642.5748 200,-634.131 324.7242,-607.0267 368.8046,-620.413 474,-548.131 500.9346,-529.6236 526.0821,-500.6872 540.0638,-483.157"/>
<polygon fill="#9a32cd" stroke="#9a32cd" points="85.3897,-654.0114 76.2453,-659.3621 86.7305,-660.8817 85.3897,-654.0114"/>
<text text-anchor="middle" x="288.5" y="-632.131" font-family="Helvetica,sans-Serif" font-size="10.00" fill="#000000"> null_space</text>
</g>
<!-- Node9 -->
<g id="node9" class="node">
<title>Node9</title>
<g id="a_node9"><a xlink:href="structsll__m__linear__solver__abstract_1_1sll__t__linear__solver__abstract.html" target="_top" xlink:title="class for abstract linear solver ">
<polygon fill="#ffffff" stroke="#000000" points="236,-557.131 236,-587.131 341,-587.131 341,-557.131 236,-557.131"/>
<text text-anchor="start" x="244" y="-575.131" font-family="Helvetica,sans-Serif" font-size="10.00" fill="#000000">sll_t_linear_solver</text>
<text text-anchor="middle" x="288.5" y="-564.131" font-family="Helvetica,sans-Serif" font-size="10.00" fill="#000000">_abstract</text>
</a>
</g>
</g>
<!-- Node2&#45;&gt;Node9 -->
<g id="edge9" class="edge">
<title>Node2&#45;&gt;Node9</title>
<path fill="none" stroke="#9a32cd" stroke-dasharray="5,2" d="M68.9222,-647.89C82.2417,-636.3125 101.5651,-621.2421 121,-612.131 141.1675,-602.6763 194.6011,-590.6771 235.7451,-582.2981"/>
<polygon fill="#9a32cd" stroke="#9a32cd" points="66.5804,-645.2888 61.4575,-654.5628 71.2456,-650.5077 66.5804,-645.2888"/>
<text text-anchor="middle" x="160.5" y="-626.131" font-family="Helvetica,sans-Serif" font-size="10.00" fill="#000000"> is_allocated</text>
<text text-anchor="middle" x="160.5" y="-615.131" font-family="Helvetica,sans-Serif" font-size="10.00" fill="#000000">verbose</text>
</g>
<!-- Node15 -->
<g id="node15" class="node">
<title>Node15</title>
<g id="a_node15"><a xlink:href="structsll__m__fft_1_1sll__t__fft.html" target="_top" xlink:title="Type for FFT plan in SeLaLib. ">
<polygon fill="#ffffff" stroke="#000000" points="262,-264.631 262,-283.631 315,-283.631 315,-264.631 262,-264.631"/>
<text text-anchor="middle" x="288.5" y="-271.631" font-family="Helvetica,sans-Serif" font-size="10.00" fill="#000000">sll_t_fft</text>
</a>
</g>
</g>
<!-- Node2&#45;&gt;Node15 -->
<g id="edge18" class="edge">
<title>Node2&#45;&gt;Node15</title>
<path fill="none" stroke="#9a32cd" stroke-dasharray="5,2" d="M53.9193,-644.5101C61.5405,-585.3253 86.6007,-409.8895 121,-365.131 145.2316,-333.6021 171.1637,-350.5116 200,-323.131 211.2759,-312.4243 205.5916,-302.5016 218,-293.131 230.6447,-283.5818 247.7496,-278.828 261.9443,-276.4634"/>
<polygon fill="#9a32cd" stroke="#9a32cd" points="50.446,-644.0788 52.6652,-654.4386 57.3909,-644.9561 50.446,-644.0788"/>
<text text-anchor="middle" x="160.5" y="-368.131" font-family="Helvetica,sans-Serif" font-size="10.00" fill="#000000"> normalized</text>
</g>
<!-- Node16 -->
<g id="node16" class="node">
<title>Node16</title>
<g id="a_node16"><a xlink:href="structsll__m__matrix__csr_1_1sll__t__matrix__csr.html" target="_top" xlink:title="class for a csr matrix ">
<polygon fill="#ffffff" stroke="#000000" points="761.5,-389.631 761.5,-408.631 855.5,-408.631 855.5,-389.631 761.5,-389.631"/>
<text text-anchor="middle" x="808.5" y="-396.631" font-family="Helvetica,sans-Serif" font-size="10.00" fill="#000000">sll_t_matrix_csr</text>
</a>
</g>
</g>
<!-- Node2&#45;&gt;Node16 -->
<g id="edge25" class="edge">
<title>Node2&#45;&gt;Node16</title>
<path fill="none" stroke="#9a32cd" stroke-dasharray="5,2" d="M85.8824,-673.9823C97.0177,-676.918 109.4697,-679.9343 121,-682.131 225.0409,-701.9519 254.0044,-708.0344 359,-694.131 531.058,-671.3472 622.8903,-676.0689 712,-527.131 736.9842,-485.3723 697.0716,-454.96 730,-419.131 738.1843,-410.2257 749.7288,-405.0466 761.4523,-402.0951"/>
<polygon fill="#9a32cd" stroke="#9a32cd" points="86.6574,-670.5663 76.0905,-671.3348 84.8303,-677.3236 86.6574,-670.5663"/>
<text text-anchor="middle" x="425.5" y="-705.131" font-family="Helvetica,sans-Serif" font-size="10.00" fill="#000000"> is_allocated_jaa</text>
<text text-anchor="middle" x="425.5" y="-694.131" font-family="Helvetica,sans-Serif" font-size="10.00" fill="#000000">is_allocated_ia</text>
</g>
<!-- Node18 -->
<g id="node18" class="node">
<title>Node18</title>
<g id="a_node18"><a xlink:href="structsll__m__linear__operator__abstract_1_1sll__t__linear__operator__abstract.html" target="_top" xlink:title="class for abstract linear operator ">
<polygon fill="#ffffff" stroke="#000000" points="230.5,-654.131 230.5,-684.131 346.5,-684.131 346.5,-654.131 230.5,-654.131"/>
<text text-anchor="start" x="238.5" y="-672.131" font-family="Helvetica,sans-Serif" font-size="10.00" fill="#000000">sll_t_linear_operator</text>
<text text-anchor="middle" x="288.5" y="-661.131" font-family="Helvetica,sans-Serif" font-size="10.00" fill="#000000">_abstract</text>
</a>
</g>
</g>
<!-- Node2&#45;&gt;Node18 -->
<g id="edge23" class="edge">
<title>Node2&#45;&gt;Node18</title>
<path fill="none" stroke="#9a32cd" stroke-dasharray="5,2" d="M86.4386,-664.8681C124.2657,-665.6661 185.2243,-666.9521 230.3063,-667.9032"/>
<polygon fill="#9a32cd" stroke="#9a32cd" points="86.4868,-661.3684 76.4152,-664.6566 86.3391,-668.3668 86.4868,-661.3684"/>
<text text-anchor="middle" x="160.5" y="-670.131" font-family="Helvetica,sans-Serif" font-size="10.00" fill="#000000"> is_allocated</text>
</g>
<!-- Node3 -->
<g id="node3" class="node">
<title>Node3</title>
<polygon fill="#ffffff" stroke="#bfbfbf" points="751.5,-575.131 751.5,-605.131 865.5,-605.131 865.5,-575.131 751.5,-575.131"/>
<text text-anchor="start" x="759.5" y="-593.131" font-family="Helvetica,sans-Serif" font-size="10.00" fill="#000000">class(sll_c_maxwell</text>
<text text-anchor="middle" x="808.5" y="-582.131" font-family="Helvetica,sans-Serif" font-size="10.00" fill="#000000">_1d_base), pointer</text>
</g>
<!-- Node3&#45;&gt;Node1 -->
<g id="edge2" class="edge">
<title>Node3&#45;&gt;Node1</title>
<path fill="none" stroke="#9a32cd" stroke-dasharray="5,2" d="M875.978,-589.6856C916.4193,-586.1466 966.6746,-575.5953 1002,-547.131 1053.2312,-505.8502 1072.9366,-424.0901 1079.1062,-390.2955"/>
<polygon fill="#9a32cd" stroke="#9a32cd" points="875.6325,-586.2016 865.9228,-590.4409 876.1569,-593.1819 875.6325,-586.2016"/>
<text text-anchor="middle" x="953.5" y="-588.131" font-family="Helvetica,sans-Serif" font-size="10.00" fill="#000000"> maxwell_solver</text>
</g>
<!-- Node4 -->
<g id="node4" class="node">
<title>Node4</title>
<polygon fill="#ffffff" stroke="#bfbfbf" points="755,-526.131 755,-556.131 862,-556.131 862,-526.131 755,-526.131"/>
<text text-anchor="start" x="763" y="-544.131" font-family="Helvetica,sans-Serif" font-size="10.00" fill="#000000">class(sll_c_filter</text>
<text text-anchor="middle" x="808.5" y="-533.131" font-family="Helvetica,sans-Serif" font-size="10.00" fill="#000000">_base_1d), pointer</text>
</g>
<!-- Node4&#45;&gt;Node1 -->
<g id="edge3" class="edge">
<title>Node4&#45;&gt;Node1</title>
<path fill="none" stroke="#9a32cd" stroke-dasharray="5,2" d="M872.0701,-537.8586C912.3701,-533.0822 963.8944,-521.7375 1002,-495.131 1040.5212,-468.2342 1065.3393,-416.1252 1075.8059,-390.3401"/>
<polygon fill="#9a32cd" stroke="#9a32cd" points="871.6479,-534.3837 862.0812,-538.9367 872.3991,-541.3433 871.6479,-534.3837"/>
<text text-anchor="middle" x="953.5" y="-535.131" font-family="Helvetica,sans-Serif" font-size="10.00" fill="#000000"> filter</text>
</g>
<!-- Node5 -->
<g id="node5" class="node">
<title>Node5</title>
<polygon fill="#ffffff" stroke="#bfbfbf" points="755,-477.131 755,-507.131 862,-507.131 862,-477.131 755,-477.131"/>
<text text-anchor="start" x="763" y="-495.131" font-family="Helvetica,sans-Serif" font-size="10.00" fill="#000000">class(sll_t_particle</text>
<text text-anchor="middle" x="808.5" y="-484.131" font-family="Helvetica,sans-Serif" font-size="10.00" fill="#000000">_array), pointer</text>
</g>
<!-- Node5&#45;&gt;Node1 -->
<g id="edge4" class="edge">
<title>Node5&#45;&gt;Node1</title>
<path fill="none" stroke="#9a32cd" stroke-dasharray="5,2" d="M872.0005,-486.5779C911.2489,-481.1216 961.652,-470.3486 1002,-449.131 1029.8708,-434.4746 1055.2103,-407.4494 1069.4606,-390.4298"/>
<polygon fill="#9a32cd" stroke="#9a32cd" points="871.4792,-483.1162 862.0185,-487.8854 872.3883,-490.0569 871.4792,-483.1162"/>
<text text-anchor="middle" x="953.5" y="-483.131" font-family="Helvetica,sans-Serif" font-size="10.00" fill="#000000"> particle_group</text>
</g>
<!-- Node6 -->
<g id="node6" class="node">
<title>Node6</title>
<polygon fill="#ffffff" stroke="#bfbfbf" points="755.5,-428.131 755.5,-458.131 861.5,-458.131 861.5,-428.131 755.5,-428.131"/>
<text text-anchor="start" x="763.5" y="-446.131" font-family="Helvetica,sans-Serif" font-size="10.00" fill="#000000">class(sll_t_control</text>
<text text-anchor="middle" x="808.5" y="-435.131" font-family="Helvetica,sans-Serif" font-size="10.00" fill="#000000">_variates), pointer</text>
</g>
<!-- Node6&#45;&gt;Node1 -->
<g id="edge5" class="edge">
<title>Node6&#45;&gt;Node1</title>
<path fill="none" stroke="#9a32cd" stroke-dasharray="5,2" d="M871.6785,-439.1558C910.0538,-435.4798 959.6465,-428.4617 1002,-415.131 1021.1592,-409.1006 1041.3608,-398.8799 1056.6055,-390.2797"/>
<polygon fill="#9a32cd" stroke="#9a32cd" points="871.3155,-435.6743 861.6725,-440.0633 871.9478,-442.6456 871.3155,-435.6743"/>
<text text-anchor="middle" x="953.5" y="-437.131" font-family="Helvetica,sans-Serif" font-size="10.00" fill="#000000"> control_variate</text>
</g>
<!-- Node7 -->
<g id="node7" class="node">
<title>Node7</title>
<g id="a_node7"><a xlink:href="structsll__m__linear__solver__cg_1_1sll__t__linear__solver__cg.html" target="_top" xlink:title="class for the cg linear solver ">
<polygon fill="#ffffff" stroke="#000000" points="747.5,-350.631 747.5,-369.631 869.5,-369.631 869.5,-350.631 747.5,-350.631"/>
<text text-anchor="middle" x="808.5" y="-357.631" font-family="Helvetica,sans-Serif" font-size="10.00" fill="#000000">sll_t_linear_solver_cg</text>
</a>
</g>
</g>
<!-- Node7&#45;&gt;Node1 -->
<g id="edge6" class="edge">
<title>Node7&#45;&gt;Node1</title>
<path fill="none" stroke="#9a32cd" stroke-dasharray="5,2" d="M879.8459,-352.4944C916.4945,-349.9423 961.7852,-348.9091 1002,-354.131 1012.0512,-355.4361 1022.6423,-357.6326 1032.7005,-360.1256"/>
<polygon fill="#9a32cd" stroke="#9a32cd" points="879.4603,-349.0134 869.7496,-353.2505 879.9831,-355.9938 879.4603,-349.0134"/>
<text text-anchor="middle" x="953.5" y="-368.131" font-family="Helvetica,sans-Serif" font-size="10.00" fill="#000000"> linear_solver_0</text>
<text text-anchor="middle" x="953.5" y="-357.131" font-family="Helvetica,sans-Serif" font-size="10.00" fill="#000000">linear_solver_1</text>
</g>
<!-- Node8&#45;&gt;Node7 -->
<g id="edge7" class="edge">
<title>Node8&#45;&gt;Node7</title>
<path fill="none" stroke="#191970" d="M614.4827,-478.3422C647.1852,-480.0127 685.6928,-475.7939 712,-453.131 737.3173,-431.3209 706.4625,-403.8508 730,-380.131 734.9531,-375.1395 740.9659,-371.3349 747.4356,-368.4439"/>
<polygon fill="#191970" stroke="#191970" points="614.3134,-474.8216 604.0918,-477.6088 613.8205,-481.8042 614.3134,-474.8216"/>
</g>
<!-- Node9&#45;&gt;Node8 -->
<g id="edge8" class="edge">
<title>Node9&#45;&gt;Node8</title>
<path fill="none" stroke="#191970" d="M351.2,-558.6857C387.9265,-549.6413 434.6721,-536.0782 474,-518.131 494.8307,-508.6249 516.5717,-494.1375 531.7063,-483.2001"/>
<polygon fill="#191970" stroke="#191970" points="350.0219,-555.3694 341.1215,-561.1167 351.6634,-562.1742 350.0219,-555.3694"/>
</g>
<!-- Node10 -->
<g id="node10" class="node">
<title>Node10</title>
<polygon fill="#ffffff" stroke="#bfbfbf" points="0,-323.631 0,-342.631 103,-342.631 103,-323.631 0,-323.631"/>
<text text-anchor="middle" x="51.5" y="-330.631" font-family="Helvetica,sans-Serif" font-size="10.00" fill="#000000">integer(kind=i32)</text>
</g>
<!-- Node10&#45;&gt;Node1 -->
<g id="edge26" class="edge">
<title>Node10&#45;&gt;Node1</title>
<path fill="none" stroke="#9a32cd" stroke-dasharray="5,2" d="M59.7374,-314.3187C85.1278,-259.5623 167.8287,-104.131 288.5,-104.131 288.5,-104.131 288.5,-104.131 808.5,-104.131 954.7542,-104.131 1050.5653,-302.456 1075.2056,-359.7843"/>
<polygon fill="#9a32cd" stroke="#9a32cd" points="56.4795,-313.0289 55.5475,-323.5827 62.8575,-315.9135 56.4795,-313.0289"/>
<text text-anchor="middle" x="551.5" y="-239.131" font-family="Helvetica,sans-Serif" font-size="10.00" fill="#000000"> max_iter</text>
<text text-anchor="middle" x="551.5" y="-228.131" font-family="Helvetica,sans-Serif" font-size="10.00" fill="#000000">eval_counter</text>
<text text-anchor="middle" x="551.5" y="-217.131" font-family="Helvetica,sans-Serif" font-size="10.00" fill="#000000">i_weight</text>
<text text-anchor="middle" x="551.5" y="-206.131" font-family="Helvetica,sans-Serif" font-size="10.00" fill="#000000">sub_iter_counter</text>
<text text-anchor="middle" x="551.5" y="-195.131" font-family="Helvetica,sans-Serif" font-size="10.00" fill="#000000">boundary_particles</text>
<text text-anchor="middle" x="551.5" y="-184.131" font-family="Helvetica,sans-Serif" font-size="10.00" fill="#000000">n_particles_max</text>
<text text-anchor="middle" x="551.5" y="-173.131" font-family="Helvetica,sans-Serif" font-size="10.00" fill="#000000">spline_degree</text>
<text text-anchor="start" x="504.5" y="-162.131" font-family="Helvetica,sans-Serif" font-size="10.00" fill="#000000">size_particle_mass</text>
<text text-anchor="middle" x="551.5" y="-151.131" font-family="Helvetica,sans-Serif" font-size="10.00" fill="#000000">_0</text>
<text text-anchor="middle" x="551.5" y="-140.131" font-family="Helvetica,sans-Serif" font-size="10.00" fill="#000000">max_iter_sub</text>
<text text-anchor="start" x="504.5" y="-129.131" font-family="Helvetica,sans-Serif" font-size="10.00" fill="#000000">size_particle_mass</text>
<text text-anchor="middle" x="551.5" y="-118.131" font-family="Helvetica,sans-Serif" font-size="10.00" fill="#000000">_1</text>
<text text-anchor="middle" x="551.5" y="-107.131" font-family="Helvetica,sans-Serif" font-size="10.00" fill="#000000">...</text>
</g>
<!-- Node10&#45;&gt;Node8 -->
<g id="edge12" class="edge">
<title>Node10&#45;&gt;Node8</title>
<path fill="none" stroke="#9a32cd" stroke-dasharray="5,2" d="M113.0721,-338.5029C139.8066,-340.9473 171.4695,-343.9925 200,-347.131 270.7965,-354.9189 290.8765,-346.3468 359,-367.131 413.7521,-383.8355 423.407,-398.3506 474,-425.131 490.9993,-434.1292 509.8751,-444.5921 524.742,-452.9439"/>
<polygon fill="#9a32cd" stroke="#9a32cd" points="113.3593,-335.0147 103.0839,-337.5965 112.7267,-341.986 113.3593,-335.0147"/>
<text text-anchor="middle" x="288.5" y="-370.131" font-family="Helvetica,sans-Serif" font-size="10.00" fill="#000000"> n_maxiter</text>
</g>
<!-- Node10&#45;&gt;Node9 -->
<g id="edge10" class="edge">
<title>Node10&#45;&gt;Node9</title>
<path fill="none" stroke="#9a32cd" stroke-dasharray="5,2" d="M72.5902,-349.1029C85.9081,-358.5882 103.7939,-370.2616 121,-378.131 154.2558,-393.3407 176.3114,-373.2717 200,-401.131 242.6377,-451.2755 176.4965,-497.0437 218,-548.131 222.7285,-553.9513 228.9332,-558.3663 235.7025,-561.7139"/>
<polygon fill="#9a32cd" stroke="#9a32cd" points="74.3066,-346.0229 64.1644,-342.9594 70.1825,-351.6791 74.3066,-346.0229"/>
<text text-anchor="middle" x="160.5" y="-459.131" font-family="Helvetica,sans-Serif" font-size="10.00" fill="#000000"> n_global_rows</text>
<text text-anchor="middle" x="160.5" y="-448.131" font-family="Helvetica,sans-Serif" font-size="10.00" fill="#000000">n_cols</text>
<text text-anchor="middle" x="160.5" y="-437.131" font-family="Helvetica,sans-Serif" font-size="10.00" fill="#000000">n_total_rows</text>
<text text-anchor="middle" x="160.5" y="-426.131" font-family="Helvetica,sans-Serif" font-size="10.00" fill="#000000">n_global_cols</text>
<text text-anchor="middle" x="160.5" y="-415.131" font-family="Helvetica,sans-Serif" font-size="10.00" fill="#000000">n_total_cols</text>
<text text-anchor="middle" x="160.5" y="-404.131" font-family="Helvetica,sans-Serif" font-size="10.00" fill="#000000">n_rows</text>
</g>
<!-- Node10&#45;&gt;Node15 -->
<g id="edge19" class="edge">
<title>Node10&#45;&gt;Node15</title>
<path fill="none" stroke="#9a32cd" stroke-dasharray="5,2" d="M65.8725,-315.8302C78.6803,-301.8665 98.7923,-283.2552 121,-275.131 168.2467,-257.8466 228.1305,-263.4665 261.9949,-268.9275"/>
<polygon fill="#9a32cd" stroke="#9a32cd" points="63.1907,-313.5797 59.2149,-323.4003 68.4471,-318.2025 63.1907,-313.5797"/>
<text text-anchor="middle" x="160.5" y="-311.131" font-family="Helvetica,sans-Serif" font-size="10.00" fill="#000000"> problem_shape</text>
<text text-anchor="middle" x="160.5" y="-300.131" font-family="Helvetica,sans-Serif" font-size="10.00" fill="#000000">direction</text>
<text text-anchor="middle" x="160.5" y="-289.131" font-family="Helvetica,sans-Serif" font-size="10.00" fill="#000000">problem_rank</text>
<text text-anchor="middle" x="160.5" y="-278.131" font-family="Helvetica,sans-Serif" font-size="10.00" fill="#000000">transform_type</text>
</g>
<!-- Node10&#45;&gt;Node18 -->
<g id="edge24" class="edge">
<title>Node10&#45;&gt;Node18</title>
<path fill="none" stroke="#9a32cd" stroke-dasharray="5,2" d="M56.0626,-352.5558C64.0192,-382.0017 83.3057,-437.623 121,-467.131 149.4357,-489.3911 176.0272,-459.1235 200,-486.131 245.4524,-537.3372 176.9575,-584.3267 218,-639.131 222.5449,-645.1997 228.5609,-650.0533 235.1678,-653.9319"/>
<polygon fill="#9a32cd" stroke="#9a32cd" points="59.4041,-351.4936 53.5532,-342.661 52.6189,-353.2145 59.4041,-351.4936"/>
<text text-anchor="middle" x="160.5" y="-577.131" font-family="Helvetica,sans-Serif" font-size="10.00" fill="#000000"> n_global_rows</text>
<text text-anchor="middle" x="160.5" y="-566.131" font-family="Helvetica,sans-Serif" font-size="10.00" fill="#000000">id_rows</text>
<text text-anchor="middle" x="160.5" y="-555.131" font-family="Helvetica,sans-Serif" font-size="10.00" fill="#000000">id_cols</text>
<text text-anchor="middle" x="160.5" y="-544.131" font-family="Helvetica,sans-Serif" font-size="10.00" fill="#000000">n_dof</text>
<text text-anchor="middle" x="160.5" y="-533.131" font-family="Helvetica,sans-Serif" font-size="10.00" fill="#000000">n_cols</text>
<text text-anchor="middle" x="160.5" y="-522.131" font-family="Helvetica,sans-Serif" font-size="10.00" fill="#000000">n_block_rows</text>
<text text-anchor="middle" x="160.5" y="-511.131" font-family="Helvetica,sans-Serif" font-size="10.00" fill="#000000">n_global_cols</text>
<text text-anchor="middle" x="160.5" y="-500.131" font-family="Helvetica,sans-Serif" font-size="10.00" fill="#000000">n_rows</text>
<text text-anchor="middle" x="160.5" y="-489.131" font-family="Helvetica,sans-Serif" font-size="10.00" fill="#000000">n_block_cols</text>
</g>
<!-- Node11 -->
<g id="node11" class="node">
<title>Node11</title>
<polygon fill="#ffffff" stroke="#bfbfbf" points="218,-508.131 218,-538.131 359,-538.131 359,-508.131 218,-508.131"/>
<text text-anchor="start" x="226" y="-526.131" font-family="Helvetica,sans-Serif" font-size="10.00" fill="#000000">class(sll_t_linear</text>
<text text-anchor="middle" x="288.5" y="-515.131" font-family="Helvetica,sans-Serif" font-size="10.00" fill="#000000">_solver_abstract), pointer</text>
</g>
<!-- Node11&#45;&gt;Node8 -->
<g id="edge13" class="edge">
<title>Node11&#45;&gt;Node8</title>
<path fill="none" stroke="#9a32cd" stroke-dasharray="5,2" d="M369.2956,-506.2345C411.456,-497.4177 461.8276,-486.8837 498.912,-479.1284"/>
<polygon fill="#9a32cd" stroke="#9a32cd" points="368.3969,-502.8467 359.3251,-508.3196 369.8299,-509.6984 368.3969,-502.8467"/>
<text text-anchor="middle" x="425.5" y="-506.131" font-family="Helvetica,sans-Serif" font-size="10.00" fill="#000000"> ptr_pc_left</text>
</g>
<!-- Node12 -->
<g id="node12" class="node">
<title>Node12</title>
<polygon fill="#ffffff" stroke="#bfbfbf" points="231,-447.631 231,-488.631 346,-488.631 346,-447.631 231,-447.631"/>
<text text-anchor="start" x="239" y="-476.631" font-family="Helvetica,sans-Serif" font-size="10.00" fill="#000000">class(sll_t_linear</text>
<text text-anchor="start" x="239" y="-465.631" font-family="Helvetica,sans-Serif" font-size="10.00" fill="#000000">_operator_abstract),</text>
<text text-anchor="middle" x="288.5" y="-454.631" font-family="Helvetica,sans-Serif" font-size="10.00" fill="#000000"> allocatable</text>
</g>
<!-- Node12&#45;&gt;Node8 -->
<g id="edge14" class="edge">
<title>Node12&#45;&gt;Node8</title>
<path fill="none" stroke="#9a32cd" stroke-dasharray="5,2" d="M356.3431,-468.131C400.7299,-468.131 457.8695,-468.131 498.8325,-468.131"/>
<polygon fill="#9a32cd" stroke="#9a32cd" points="356.2165,-464.6311 346.2165,-468.131 356.2164,-471.6311 356.2165,-464.6311"/>
<text text-anchor="middle" x="425.5" y="-471.131" font-family="Helvetica,sans-Serif" font-size="10.00" fill="#000000"> p_linear_operator</text>
</g>
<!-- Node13 -->
<g id="node13" class="node">
<title>Node13</title>
<polygon fill="#ffffff" stroke="#bfbfbf" points="244.5,-302.631 244.5,-321.631 332.5,-321.631 332.5,-302.631 244.5,-302.631"/>
<text text-anchor="middle" x="288.5" y="-309.631" font-family="Helvetica,sans-Serif" font-size="10.00" fill="#000000">real(kind=f64)</text>
</g>
<!-- Node13&#45;&gt;Node1 -->
<g id="edge29" class="edge">
<title>Node13&#45;&gt;Node1</title>
<path fill="none" stroke="#9a32cd" stroke-dasharray="5,2" d="M342.7317,-308.2791C463.1439,-301.1165 761.1863,-291.0844 1002,-346.131 1016.7519,-349.503 1032.5027,-354.8562 1046.0605,-360.0504"/>
<polygon fill="#9a32cd" stroke="#9a32cd" points="342.4287,-304.791 332.6617,-308.8964 342.8571,-311.7779 342.4287,-304.791"/>
<text text-anchor="middle" x="670.5" y="-431.131" font-family="Helvetica,sans-Serif" font-size="10.00" fill="#000000"> particle_mass_0</text>
<text text-anchor="middle" x="670.5" y="-420.131" font-family="Helvetica,sans-Serif" font-size="10.00" fill="#000000">tolerance</text>
<text text-anchor="middle" x="670.5" y="-409.131" font-family="Helvetica,sans-Serif" font-size="10.00" fill="#000000">particle_mass_1</text>
<text text-anchor="middle" x="670.5" y="-398.131" font-family="Helvetica,sans-Serif" font-size="10.00" fill="#000000">j_dofs_local</text>
<text text-anchor="middle" x="670.5" y="-387.131" font-family="Helvetica,sans-Serif" font-size="10.00" fill="#000000">cell_integrals_0</text>
<text text-anchor="middle" x="670.5" y="-376.131" font-family="Helvetica,sans-Serif" font-size="10.00" fill="#000000">x_min</text>
<text text-anchor="middle" x="670.5" y="-365.131" font-family="Helvetica,sans-Serif" font-size="10.00" fill="#000000">rho_dofs</text>
<text text-anchor="middle" x="670.5" y="-354.131" font-family="Helvetica,sans-Serif" font-size="10.00" fill="#000000">bfield_dofs</text>
<text text-anchor="start" x="629" y="-343.131" font-family="Helvetica,sans-Serif" font-size="10.00" fill="#000000">cell_integrals</text>
<text text-anchor="middle" x="670.5" y="-332.131" font-family="Helvetica,sans-Serif" font-size="10.00" fill="#000000">_1</text>
<text text-anchor="middle" x="670.5" y="-321.131" font-family="Helvetica,sans-Serif" font-size="10.00" fill="#000000">x_max</text>
<text text-anchor="middle" x="670.5" y="-310.131" font-family="Helvetica,sans-Serif" font-size="10.00" fill="#000000">...</text>
</g>
<!-- Node13&#45;&gt;Node8 -->
<g id="edge15" class="edge">
<title>Node13&#45;&gt;Node8</title>
<path fill="none" stroke="#9a32cd" stroke-dasharray="5,2" d="M343.0782,-319.8702C393.82,-327.4299 463.1732,-338.8336 474,-346.131 513.3265,-372.6375 536.8271,-426.5027 546.4344,-452.8821"/>
<polygon fill="#9a32cd" stroke="#9a32cd" points="343.285,-316.3629 332.881,-318.3651 342.2628,-323.2878 343.285,-316.3629"/>
<text text-anchor="middle" x="425.5" y="-360.131" font-family="Helvetica,sans-Serif" font-size="10.00" fill="#000000"> x_0</text>
<text text-anchor="middle" x="425.5" y="-349.131" font-family="Helvetica,sans-Serif" font-size="10.00" fill="#000000">atol</text>
</g>
<!-- Node14 -->
<g id="node14" class="node">
<title>Node14</title>
<polygon fill="#ffffff" stroke="#bfbfbf" points="231,-387.631 231,-428.631 346,-428.631 346,-387.631 231,-387.631"/>
<text text-anchor="start" x="239" y="-416.631" font-family="Helvetica,sans-Serif" font-size="10.00" fill="#000000">class(sll_t_linear</text>
<text text-anchor="start" x="239" y="-405.631" font-family="Helvetica,sans-Serif" font-size="10.00" fill="#000000">_operator_abstract),</text>
<text text-anchor="middle" x="288.5" y="-394.631" font-family="Helvetica,sans-Serif" font-size="10.00" fill="#000000"> pointer</text>
</g>
<!-- Node14&#45;&gt;Node8 -->
<g id="edge16" class="edge">
<title>Node14&#45;&gt;Node8</title>
<path fill="none" stroke="#9a32cd" stroke-dasharray="5,2" d="M356.063,-423.5446C400.4892,-433.6798 457.7833,-446.7507 498.8325,-456.1156"/>
<polygon fill="#9a32cd" stroke="#9a32cd" points="356.7445,-420.1102 346.2165,-421.2982 355.1875,-426.9348 356.7445,-420.1102"/>
<text text-anchor="middle" x="425.5" y="-453.131" font-family="Helvetica,sans-Serif" font-size="10.00" fill="#000000"> ptr_linear_operator</text>
</g>
<!-- Node15&#45;&gt;Node1 -->
<g id="edge17" class="edge">
<title>Node15&#45;&gt;Node1</title>
<path fill="none" stroke="#9a32cd" stroke-dasharray="5,2" d="M325.4708,-272.5839C399.1559,-269.8999 569.4958,-265.6946 712,-277.131 790.4458,-283.4265 809.2873,-291.7166 887,-304.131 938.1554,-312.3029 953.7297,-304.3258 1002,-323.131 1024.7437,-331.9914 1047.7612,-347.9869 1063.1343,-359.906"/>
<polygon fill="#9a32cd" stroke="#9a32cd" points="325.1763,-269.0924 315.3153,-272.9668 325.4402,-276.0874 325.1763,-269.0924"/>
<text text-anchor="middle" x="670.5" y="-291.131" font-family="Helvetica,sans-Serif" font-size="10.00" fill="#000000"> filter_fw</text>
<text text-anchor="middle" x="670.5" y="-280.131" font-family="Helvetica,sans-Serif" font-size="10.00" fill="#000000">filter_bw</text>
</g>
<!-- Node16&#45;&gt;Node1 -->
<g id="edge20" class="edge">
<title>Node16&#45;&gt;Node1</title>
<path fill="none" stroke="#9a32cd" stroke-dasharray="5,2" d="M865.9534,-394.0801C911.0935,-390.1117 973.831,-384.5964 1019.9849,-380.5389"/>
<polygon fill="#9a32cd" stroke="#9a32cd" points="865.3963,-390.6155 855.7413,-394.9779 866.0094,-397.5886 865.3963,-390.6155"/>
<text text-anchor="middle" x="953.5" y="-403.131" font-family="Helvetica,sans-Serif" font-size="10.00" fill="#000000"> schur_0</text>
<text text-anchor="middle" x="953.5" y="-392.131" font-family="Helvetica,sans-Serif" font-size="10.00" fill="#000000">schur_1</text>
</g>
<!-- Node17 -->
<g id="node17" class="node">
<title>Node17</title>
<g id="a_node17"><a xlink:href="structsll__m__matrix__abstract_1_1sll__t__matrix__abstract.html" target="_top" xlink:title="abstract class for matrix ">
<polygon fill="#ffffff" stroke="#000000" points="492,-576.631 492,-595.631 611,-595.631 611,-576.631 492,-576.631"/>
<text text-anchor="middle" x="551.5" y="-583.631" font-family="Helvetica,sans-Serif" font-size="10.00" fill="#000000">sll_t_matrix_abstract</text>
</a>
</g>
</g>
<!-- Node17&#45;&gt;Node16 -->
<g id="edge21" class="edge">
<title>Node17&#45;&gt;Node16</title>
<path fill="none" stroke="#191970" d="M584.7009,-572.3702C621.1555,-555.5989 678.8988,-523.8572 712,-479.131 728.5621,-456.7522 709.9046,-438.3998 730,-419.131 738.527,-410.9547 749.91,-405.9907 761.3566,-403.0114"/>
<polygon fill="#191970" stroke="#191970" points="583.1652,-569.223 575.4707,-576.5063 586.0277,-575.611 583.1652,-569.223"/>
</g>
<!-- Node18&#45;&gt;Node17 -->
<g id="edge22" class="edge">
<title>Node18&#45;&gt;Node17</title>
<path fill="none" stroke="#191970" d="M356.9732,-664.6759C392.8178,-660.6256 436.8552,-652.893 474,-638.131 499.8987,-627.8383 525.9808,-607.9028 540.3087,-595.9282"/>
<polygon fill="#191970" stroke="#191970" points="356.189,-661.2392 346.6123,-665.771 356.9248,-668.2004 356.189,-661.2392"/>
</g>
<!-- Node19 -->
<g id="node19" class="node">
<title>Node19</title>
<polygon fill="#ffffff" stroke="#bfbfbf" points="753,-56.631 753,-75.631 864,-75.631 864,-56.631 753,-56.631"/>
<text text-anchor="middle" x="808.5" y="-63.631" font-family="Helvetica,sans-Serif" font-size="10.00" fill="#000000">character(len=256)</text>
</g>
<!-- Node19&#45;&gt;Node1 -->
<g id="edge27" class="edge">
<title>Node19&#45;&gt;Node1</title>
<path fill="none" stroke="#9a32cd" stroke-dasharray="5,2" d="M857.7529,-54.8984C900.6795,-48.1783 962.1396,-46.3835 1002,-79.131 1046.8146,-115.9485 1072.9545,-304.7081 1079.7273,-359.9349"/>
<polygon fill="#9a32cd" stroke="#9a32cd" points="857.0762,-51.4631 847.8068,-56.5943 858.2528,-58.3635 857.0762,-51.4631"/>
<text text-anchor="middle" x="953.5" y="-82.131" font-family="Helvetica,sans-Serif" font-size="10.00" fill="#000000"> output_prefix</text>
</g>
<!-- Node20 -->
<g id="node20" class="node">
<title>Node20</title>
<polygon fill="#ffffff" stroke="#bfbfbf" points="730,-7.131 730,-37.131 887,-37.131 887,-7.131 730,-7.131"/>
<text text-anchor="start" x="738" y="-25.131" font-family="Helvetica,sans-Serif" font-size="10.00" fill="#000000">class(sll_c_particle</text>
<text text-anchor="middle" x="808.5" y="-14.131" font-family="Helvetica,sans-Serif" font-size="10.00" fill="#000000">_mesh_coupling_1d), pointer</text>
</g>
<!-- Node20&#45;&gt;Node1 -->
<g id="edge28" class="edge">
<title>Node20&#45;&gt;Node1</title>
<path fill="none" stroke="#9a32cd" stroke-dasharray="5,2" d="M869.633,-5.0858C911.4135,2.6318 965.6,4.3931 1002,-25.131 1055.4755,-68.5049 1075.8699,-297.8301 1080.447,-359.7255"/>
<polygon fill="#9a32cd" stroke="#9a32cd" points="868.6859,-1.7059 859.5683,-7.1021 870.061,-8.5695 868.6859,-1.7059"/>
<text text-anchor="middle" x="953.5" y="-39.131" font-family="Helvetica,sans-Serif" font-size="10.00" fill="#000000"> kernel_smoother_0</text>
<text text-anchor="middle" x="953.5" y="-28.131" font-family="Helvetica,sans-Serif" font-size="10.00" fill="#000000">kernel_smoother_1</text>
</g>
</g>
</svg>
