<?xml version="1.0" encoding="UTF-8" standalone="no"?>
<!DOCTYPE svg PUBLIC "-//W3C//DTD SVG 1.1//EN"
 "http://www.w3.org/Graphics/SVG/1.1/DTD/svg11.dtd">
<!-- Generated by graphviz version 2.40.1 (20161225.0304)
 -->
<!-- Title: sll_t_singular_mapping_advector_rotating Pages: 1 -->
<svg width="214pt" height="128pt"
 viewBox="0.00 0.00 214.00 128.00" xmlns="http://www.w3.org/2000/svg" xmlns:xlink="http://www.w3.org/1999/xlink">
<g id="graph0" class="graph" transform="scale(1 1) rotate(0) translate(4 124)">
<title>sll_t_singular_mapping_advector_rotating</title>
<polygon fill="#ffffff" stroke="transparent" points="-4,4 -4,-124 210,-124 210,4 -4,4"/>
<!-- Node2 -->
<g id="node1" class="node">
<title>Node2</title>
<polygon fill="#bfbfbf" stroke="#000000" points="57,-.5 57,-30.5 186,-30.5 186,-.5 57,-.5"/>
<text text-anchor="start" x="65" y="-18.5" font-family="Helvetica,sans-Serif" font-size="10.00" fill="#000000">sll_t_singular_mapping</text>
<text text-anchor="middle" x="121.5" y="-7.5" font-family="Helvetica,sans-Serif" font-size="10.00" fill="#000000">_advector_rotating</text>
</g>
<!-- Node3 -->
<g id="node2" class="node">
<title>Node3</title>
<g id="a_node2"><a xlink:href="structsll__m__singular__mapping__advector__base_1_1sll__c__singular__mapping__advector.html" target="_top" xlink:title="sll_c_singular_mapping\l_advector">
<polygon fill="#ffffff" stroke="#000000" points="0,-89.5 0,-119.5 131,-119.5 131,-89.5 0,-89.5"/>
<text text-anchor="start" x="8" y="-107.5" font-family="Helvetica,sans-Serif" font-size="10.00" fill="#000000">sll_c_singular_mapping</text>
<text text-anchor="middle" x="65.5" y="-96.5" font-family="Helvetica,sans-Serif" font-size="10.00" fill="#000000">_advector</text>
</a>
</g>
</g>
<!-- Node3&#45;&gt;Node2 -->
<g id="edge1" class="edge">
<title>Node3&#45;&gt;Node2</title>
<path fill="none" stroke="#191970" d="M80.5027,-80.6564C90.4969,-64.7728 103.3303,-44.3768 111.9538,-30.6717"/>
<polygon fill="#191970" stroke="#191970" points="77.3629,-79.0745 74.9996,-89.4024 83.2877,-82.8024 77.3629,-79.0745"/>
</g>
<!-- Node4 -->
<g id="node3" class="node">
<title>Node4</title>
<polygon fill="#ffffff" stroke="#bfbfbf" points="149,-95 149,-114 206,-114 206,-95 149,-95"/>
<text text-anchor="middle" x="177.5" y="-102" font-family="Helvetica,sans-Serif" font-size="10.00" fill="#000000">real(wp)</text>
</g>
<!-- Node4&#45;&gt;Node2 -->
<g id="edge2" class="edge">
<title>Node4&#45;&gt;Node2</title>
<path fill="none" stroke="#9a32cd" stroke-dasharray="5,2" d="M166.036,-86.2804C155.6946,-69.845 140.6636,-45.9564 130.9838,-30.5725"/>
<polygon fill="#9a32cd" stroke="#9a32cd" points="163.219,-88.3755 171.507,-94.9754 169.1437,-84.6475 163.219,-88.3755"/>
<text text-anchor="middle" x="174" y="-63" font-family="Helvetica,sans-Serif" font-size="10.00" fill="#000000"> omega</text>
<text text-anchor="middle" x="174" y="-52" font-family="Helvetica,sans-Serif" font-size="10.00" fill="#000000">xc</text>
</g>
</g>
</svg>
