<?xml version="1.0" encoding="UTF-8" standalone="no"?>
<!DOCTYPE svg PUBLIC "-//W3C//DTD SVG 1.1//EN"
 "http://www.w3.org/Graphics/SVG/1.1/DTD/svg11.dtd">
<!-- Generated by graphviz version 2.43.0 (0)
 -->
<!-- Title: sll_t_particle_mesh_coupling_spline_cl_1d Pages: 1 -->
<!--zoomable 362 -->
<svg id="main" version="1.1" xmlns="http://www.w3.org/2000/svg" xmlns:xlink="http://www.w3.org/1999/xlink" xml:space="preserve" onload="init(evt)">
<style type="text/css"><![CDATA[
.edge:hover path { stroke: red; }
.edge:hover polygon { stroke: red; fill: red; }
]]></style>
<script type="text/javascript"><![CDATA[
var edges = document.getElementsByTagName('g');
if (edges && edges.length) {
  for (var i=0;i<edges.length;i++) {
    if (edges[i].id.substr(0,4)=='edge') {
      edges[i].setAttribute('class','edge');
    }
  }
}
]]></script>
        <defs>
                <circle id="rim" cx="0" cy="0" r="7"/>
                <circle id="rim2" cx="0" cy="0" r="3.5"/>
                <g id="zoomPlus">
                        <use xlink:href="#rim" fill="#404040">
                                <set attributeName="fill" to="#808080" begin="zoomplus.mouseover" end="zoomplus.mouseout"/>
                        </use>
                        <path d="M-4,0h8M0,-4v8" fill="none" stroke="white" stroke-width="1.5" pointer-events="none"/>
                </g>
                <g id="zoomMin">
                        <use xlink:href="#rim" fill="#404040">
                                <set attributeName="fill" to="#808080" begin="zoomminus.mouseover" end="zoomminus.mouseout"/>
                        </use>
                        <path d="M-4,0h8" fill="none" stroke="white" stroke-width="1.5" pointer-events="none"/>
                </g>
                <g id="dirArrow">
                        <path fill="none" stroke="white" stroke-width="1.5" d="M0,-3.0v7 M-2.5,-0.5L0,-3.0L2.5,-0.5"/>
                </g>
               <g id="resetDef">
                       <use xlink:href="#rim2" fill="#404040">
                               <set attributeName="fill" to="#808080" begin="reset.mouseover" end="reset.mouseout"/>
                       </use>
               </g>
        </defs>

<script type="text/javascript">
var viewWidth = 536;
var viewHeight = 362;
var sectionId = 'dynsection-1';
</script>
<script xlink:href="svgpan.js"/>
<svg id="graph" class="graph">
<g id="viewport">
<title>sll_t_particle_mesh_coupling_spline_cl_1d</title>
<polygon fill="white" stroke="transparent" points="-4,4 -4,-358 531.5,-358 531.5,4 -4,4"/>
<!-- Node1 -->
<g id="node1" class="node">
<title>Node1</title>
<g id="a_node1"><a xlink:title="Spline kernel smoother in1d.">
<polygon fill="#bfbfbf" stroke="black" points="212.5,-0.5 212.5,-30.5 340.5,-30.5 340.5,-0.5 212.5,-0.5"/>
<text text-anchor="start" x="220.5" y="-18.5" font-family="Helvetica,sans-Serif" font-size="10.00">sll_t_particle_mesh</text>
<text text-anchor="middle" x="276.5" y="-7.5" font-family="Helvetica,sans-Serif" font-size="10.00">_coupling_spline_cl_1d</text>
</a>
</g>
</g>
<!-- Node2 -->
<g id="node2" class="node">
<title>Node2</title>
<g id="a_node2"><a xlink:href="structsll__m__particle__mesh__coupling__base__1d_1_1sll__c__particle__mesh__coupling__1d.html" target="_top" xlink:title="Basic type of a kernel smoother used for PIC simulations.">
<polygon fill="white" stroke="black" points="140,-90.5 140,-120.5 253,-120.5 253,-90.5 140,-90.5"/>
<text text-anchor="start" x="148" y="-108.5" font-family="Helvetica,sans-Serif" font-size="10.00">sll_c_particle_mesh</text>
<text text-anchor="middle" x="196.5" y="-97.5" font-family="Helvetica,sans-Serif" font-size="10.00">_coupling_1d</text>
</a>
</g>
</g>
<!-- Node2&#45;&gt;Node1 -->
<g id="edge1" class="edge">
<title>Node2&#45;&gt;Node1</title>
<path fill="none" stroke="midnightblue" d="M216.17,-82.87C230.98,-66.57 250.86,-44.7 263.68,-30.6"/>
<polygon fill="midnightblue" stroke="midnightblue" points="213.49,-80.61 209.35,-90.36 218.67,-85.32 213.49,-80.61"/>
</g>
<!-- Node3 -->
<g id="node3" class="node">
<title>Node3</title>
<g id="a_node3"><a xlink:title=" ">
<polygon fill="white" stroke="#bfbfbf" points="0,-334.5 0,-353.5 103,-353.5 103,-334.5 0,-334.5"/>
<text text-anchor="middle" x="51.5" y="-341.5" font-family="Helvetica,sans-Serif" font-size="10.00">integer(kind=i32)</text>
</a>
</g>
</g>
<!-- Node3&#45;&gt;Node1 -->
<g id="edge4" class="edge">
<title>Node3&#45;&gt;Node1</title>
<path fill="none" stroke="#9a32cd" stroke-dasharray="5,2" d="M40.15,-325.53C38.64,-322.46 37.33,-319.22 36.5,-316 9.97,-213.6 -27.88,-161.15 37.5,-78 58.98,-50.68 149.24,-33.28 212.46,-24.21"/>
<polygon fill="#9a32cd" stroke="#9a32cd" points="37.28,-327.55 45.29,-334.48 43.35,-324.07 37.28,-327.55"/>
<text text-anchor="middle" x="84.5" y="-119.5" font-family="Helvetica,sans-Serif" font-size="10.00"> n_quad_points</text>
<text text-anchor="middle" x="84.5" y="-108.5" font-family="Helvetica,sans-Serif" font-size="10.00">n_quad_points_line</text>
<text text-anchor="middle" x="84.5" y="-97.5" font-family="Helvetica,sans-Serif" font-size="10.00">n_span</text>
<text text-anchor="middle" x="84.5" y="-86.5" font-family="Helvetica,sans-Serif" font-size="10.00">no_particles</text>
</g>
<!-- Node3&#45;&gt;Node2 -->
<g id="edge2" class="edge">
<title>Node3&#45;&gt;Node2</title>
<path fill="none" stroke="#9a32cd" stroke-dasharray="5,2" d="M48.85,-324.25C43.22,-281.35 32.15,-177.72 52.5,-151 70.4,-127.49 88.25,-141.65 116.5,-133 129.09,-129.15 142.72,-124.73 155.09,-120.62"/>
<polygon fill="#9a32cd" stroke="#9a32cd" points="45.42,-324.97 50.24,-334.41 52.35,-324.03 45.42,-324.97"/>
<text text-anchor="middle" x="87" y="-247.5" font-family="Helvetica,sans-Serif" font-size="10.00"> dim</text>
<text text-anchor="middle" x="87" y="-236.5" font-family="Helvetica,sans-Serif" font-size="10.00">n_cells</text>
<text text-anchor="middle" x="87" y="-225.5" font-family="Helvetica,sans-Serif" font-size="10.00">n_dofs</text>
<text text-anchor="middle" x="87" y="-214.5" font-family="Helvetica,sans-Serif" font-size="10.00">spline_degree</text>
</g>
<!-- Node5 -->
<g id="node5" class="node">
<title>Node5</title>
<g id="a_node5"><a xlink:href="structsll__m__splines__pp_1_1sll__t__spline__pp__1d.html" target="_top" xlink:title="arbitrary degree 1d spline">
<polygon fill="white" stroke="black" points="271.5,-96 271.5,-115 377.5,-115 377.5,-96 271.5,-96"/>
<text text-anchor="middle" x="324.5" y="-103" font-family="Helvetica,sans-Serif" font-size="10.00">sll_t_spline_pp_1d</text>
</a>
</g>
</g>
<!-- Node3&#45;&gt;Node5 -->
<g id="edge6" class="edge">
<title>Node3&#45;&gt;Node5</title>
<path fill="none" stroke="#9a32cd" stroke-dasharray="5,2" d="M104.38,-330.08C110.95,-326.48 116.95,-321.88 121.5,-316 166.68,-257.62 89.14,-204.02 140.5,-151 159.57,-131.32 236.13,-140.45 262.5,-133 278.38,-128.51 295.58,-120.93 307.82,-115.02"/>
<polygon fill="#9a32cd" stroke="#9a32cd" points="102.71,-326.99 95.13,-334.39 105.67,-333.33 102.71,-326.99"/>
<text text-anchor="middle" x="193" y="-247.5" font-family="Helvetica,sans-Serif" font-size="10.00"> boundary_conditions</text>
<text text-anchor="middle" x="193" y="-236.5" font-family="Helvetica,sans-Serif" font-size="10.00">degree</text>
<text text-anchor="middle" x="193" y="-225.5" font-family="Helvetica,sans-Serif" font-size="10.00">n_cells</text>
<text text-anchor="middle" x="193" y="-214.5" font-family="Helvetica,sans-Serif" font-size="10.00">n_coeffs</text>
</g>
<!-- Node4 -->
<g id="node4" class="node">
<title>Node4</title>
<g id="a_node4"><a xlink:title=" ">
<polygon fill="white" stroke="#bfbfbf" points="290.5,-334.5 290.5,-353.5 378.5,-353.5 378.5,-334.5 290.5,-334.5"/>
<text text-anchor="middle" x="334.5" y="-341.5" font-family="Helvetica,sans-Serif" font-size="10.00">real(kind=f64)</text>
</a>
</g>
</g>
<!-- Node4&#45;&gt;Node1 -->
<g id="edge8" class="edge">
<title>Node4&#45;&gt;Node1</title>
<path fill="none" stroke="#9a32cd" stroke-dasharray="5,2" d="M388.58,-337.8C417.37,-333.79 448.64,-327.01 457.5,-316 503.46,-258.86 485.09,-218.94 457.5,-151 432.31,-88.97 360.01,-49.8 314.78,-30.62"/>
<polygon fill="#9a32cd" stroke="#9a32cd" points="388.01,-334.34 378.54,-339.1 388.91,-341.28 388.01,-334.34"/>
<text text-anchor="middle" x="487" y="-125" font-family="Helvetica,sans-Serif" font-size="10.00"> quad_xw</text>
<text text-anchor="middle" x="487" y="-114" font-family="Helvetica,sans-Serif" font-size="10.00">quad_xw_line</text>
<text text-anchor="middle" x="487" y="-103" font-family="Helvetica,sans-Serif" font-size="10.00">scaling</text>
<text text-anchor="middle" x="487" y="-92" font-family="Helvetica,sans-Serif" font-size="10.00">spline_val</text>
<text text-anchor="middle" x="487" y="-81" font-family="Helvetica,sans-Serif" font-size="10.00">spline_val_more</text>
</g>
<!-- Node4&#45;&gt;Node2 -->
<g id="edge3" class="edge">
<title>Node4&#45;&gt;Node2</title>
<path fill="none" stroke="#9a32cd" stroke-dasharray="5,2" d="M297.53,-329.76C291.42,-326.12 285.72,-321.6 281.5,-316 236.56,-256.33 287.39,-215.38 249.5,-151 242.25,-138.68 230.29,-128.2 219.56,-120.51"/>
<polygon fill="#9a32cd" stroke="#9a32cd" points="296.15,-332.98 306.64,-334.45 299.36,-326.76 296.15,-332.98"/>
<text text-anchor="middle" x="301.5" y="-236.5" font-family="Helvetica,sans-Serif" font-size="10.00"> delta_x</text>
<text text-anchor="middle" x="301.5" y="-225.5" font-family="Helvetica,sans-Serif" font-size="10.00">domain</text>
</g>
<!-- Node4&#45;&gt;Node5 -->
<g id="edge7" class="edge">
<title>Node4&#45;&gt;Node5</title>
<path fill="none" stroke="#9a32cd" stroke-dasharray="5,2" d="M333.7,-324.02C331.65,-275.63 326.3,-149.06 324.86,-115.03"/>
<polygon fill="#9a32cd" stroke="#9a32cd" points="330.21,-324.46 334.13,-334.3 337.21,-324.16 330.21,-324.46"/>
<text text-anchor="middle" x="393.5" y="-308" font-family="Helvetica,sans-Serif" font-size="10.00"> poly_coeffs</text>
<text text-anchor="start" x="332.5" y="-297" font-family="Helvetica,sans-Serif" font-size="10.00">poly_coeffs_boundary</text>
<text text-anchor="middle" x="393.5" y="-286" font-family="Helvetica,sans-Serif" font-size="10.00">_left</text>
<text text-anchor="start" x="332.5" y="-275" font-family="Helvetica,sans-Serif" font-size="10.00">poly_coeffs_boundary</text>
<text text-anchor="middle" x="393.5" y="-264" font-family="Helvetica,sans-Serif" font-size="10.00">_right</text>
<text text-anchor="middle" x="393.5" y="-253" font-family="Helvetica,sans-Serif" font-size="10.00">poly_coeffs_fd</text>
<text text-anchor="start" x="332.5" y="-242" font-family="Helvetica,sans-Serif" font-size="10.00">poly_coeffs_fd_boundary</text>
<text text-anchor="middle" x="393.5" y="-231" font-family="Helvetica,sans-Serif" font-size="10.00">_left</text>
<text text-anchor="start" x="332.5" y="-220" font-family="Helvetica,sans-Serif" font-size="10.00">poly_coeffs_fd_boundary</text>
<text text-anchor="middle" x="393.5" y="-209" font-family="Helvetica,sans-Serif" font-size="10.00">_right</text>
<text text-anchor="middle" x="393.5" y="-198" font-family="Helvetica,sans-Serif" font-size="10.00">poly_coeffs_fp</text>
<text text-anchor="middle" x="393.5" y="-187" font-family="Helvetica,sans-Serif" font-size="10.00">poly_coeffs_fpa</text>
<text text-anchor="middle" x="393.5" y="-176" font-family="Helvetica,sans-Serif" font-size="10.00">scratch_b</text>
<text text-anchor="middle" x="393.5" y="-165" font-family="Helvetica,sans-Serif" font-size="10.00">scratch_p</text>
<text text-anchor="middle" x="393.5" y="-154" font-family="Helvetica,sans-Serif" font-size="10.00">...</text>
</g>
<!-- Node5&#45;&gt;Node1 -->
<g id="edge5" class="edge">
<title>Node5&#45;&gt;Node1</title>
<path fill="none" stroke="#9a32cd" stroke-dasharray="5,2" d="M314.74,-86.61C305.74,-70.1 292.55,-45.92 284.25,-30.71"/>
<polygon fill="#9a32cd" stroke="#9a32cd" points="311.86,-88.64 319.72,-95.74 318.01,-85.29 311.86,-88.64"/>
<text text-anchor="middle" x="323.5" y="-52" font-family="Helvetica,sans-Serif" font-size="10.00"> spline_pp</text>
</g>
</g>
</svg>
        <g id="navigator" transform="translate(0 0)" fill="#404254">
                <rect fill="#f2f5e9" fill-opacity="0.5" stroke="#606060" stroke-width=".5" x="0" y="0" width="60" height="60"/>
                <use id="zoomplus" xlink:href="#zoomPlus" x="17" y="9" onmousedown="handleZoom(evt,'in')"/>
                <use id="zoomminus" xlink:href="#zoomMin" x="42" y="9" onmousedown="handleZoom(evt,'out')"/>
                <use id="reset" xlink:href="#resetDef" x="30" y="36" onmousedown="handleReset()"/>
                <g id="arrowUp" xlink:href="#dirArrow" transform="translate(30 24)" onmousedown="handlePan(0,-1)">
                  <use xlink:href="#rim" fill="#404040">
                        <set attributeName="fill" to="#808080" begin="arrowUp.mouseover" end="arrowUp.mouseout"/>
                  </use>
                  <path fill="none" stroke="white" stroke-width="1.5" d="M0,-3.0v7 M-2.5,-0.5L0,-3.0L2.5,-0.5"/>
                </g>
                <g id="arrowRight" xlink:href="#dirArrow" transform="rotate(90) translate(36 -43)" onmousedown="handlePan(1,0)">
                  <use xlink:href="#rim" fill="#404040">
                        <set attributeName="fill" to="#808080" begin="arrowRight.mouseover" end="arrowRight.mouseout"/>
                  </use>
                  <path fill="none" stroke="white" stroke-width="1.5" d="M0,-3.0v7 M-2.5,-0.5L0,-3.0L2.5,-0.5"/>
                </g>
                <g id="arrowDown" xlink:href="#dirArrow" transform="rotate(180) translate(-30 -48)" onmousedown="handlePan(0,1)">
                  <use xlink:href="#rim" fill="#404040">
                        <set attributeName="fill" to="#808080" begin="arrowDown.mouseover" end="arrowDown.mouseout"/>
                  </use>
                  <path fill="none" stroke="white" stroke-width="1.5" d="M0,-3.0v7 M-2.5,-0.5L0,-3.0L2.5,-0.5"/>
                </g>
                <g id="arrowLeft" xlink:href="#dirArrow" transform="rotate(270) translate(-36 17)" onmousedown="handlePan(-1,0)">
                  <use xlink:href="#rim" fill="#404040">
                        <set attributeName="fill" to="#808080" begin="arrowLeft.mouseover" end="arrowLeft.mouseout"/>
                  </use>
                  <path fill="none" stroke="white" stroke-width="1.5" d="M0,-3.0v7 M-2.5,-0.5L0,-3.0L2.5,-0.5"/>
                </g>
        </g>
        <svg viewBox="0 0 15 15" width="100%" height="30px" preserveAspectRatio="xMaxYMin meet">
         <g id="arrow_out" transform="scale(0.3 0.3)">
          <a xlink:href="structsll__m__particle__mesh__coupling__spline__cl__1d_1_1sll__t__particle__mesh__coupling__spline__cl__1d__coll__graph_org.svg" target="_base">
           <rect id="button" ry="5" rx="5" y="6" x="6" height="38" width="38"
                fill="#f2f5e9" fill-opacity="0.5" stroke="#606060" stroke-width="1.0"/>
           <path id="arrow"
             d="M 11.500037,31.436501 C 11.940474,20.09759 22.043105,11.32322 32.158766,21.979434 L 37.068811,17.246167 C 37.068811,17.246167 37.088388,32 37.088388,32 L 22.160133,31.978069 C 22.160133,31.978069 26.997745,27.140456 26.997745,27.140456 C 18.528582,18.264221 13.291696,25.230495 11.500037,31.436501 z"
             style="fill:#404040;"/>
          </a>
         </g>
        </svg>
</svg>
