<?xml version="1.0" encoding="UTF-8" standalone="no"?>
<!DOCTYPE svg PUBLIC "-//W3C//DTD SVG 1.1//EN"
 "http://www.w3.org/Graphics/SVG/1.1/DTD/svg11.dtd">
<!-- Generated by graphviz version 2.43.0 (0)
 -->
<!-- Title: csl_1d_advector Pages: 1 -->
<svg width="394pt" height="315pt"
 viewBox="0.00 0.00 394.00 315.00" xmlns="http://www.w3.org/2000/svg" xmlns:xlink="http://www.w3.org/1999/xlink">
<g id="graph0" class="graph" transform="scale(1 1) rotate(0) translate(4 311)">
<title>csl_1d_advector</title>
<polygon fill="white" stroke="transparent" points="-4,4 -4,-311 390,-311 390,4 -4,4"/>
<!-- Node1 -->
<g id="node1" class="node">
<title>Node1</title>
<g id="a_node1"><a xlink:title=" ">
<polygon fill="#bfbfbf" stroke="black" points="291,-188.5 291,-207.5 386,-207.5 386,-188.5 291,-188.5"/>
<text text-anchor="middle" x="338.5" y="-195.5" font-family="Helvetica,sans-Serif" font-size="10.00">csl_1d_advector</text>
</a>
</g>
</g>
<!-- Node2 -->
<g id="node2" class="node">
<title>Node2</title>
<g id="a_node2"><a xlink:href="structsll__m__advection__1d__base_1_1sll__c__advector__1d.html" target="_top" xlink:title=" ">
<polygon fill="white" stroke="black" points="19.5,-287.5 19.5,-306.5 123.5,-306.5 123.5,-287.5 19.5,-287.5"/>
<text text-anchor="middle" x="71.5" y="-294.5" font-family="Helvetica,sans-Serif" font-size="10.00">sll_c_advector_1d</text>
</a>
</g>
</g>
<!-- Node2&#45;&gt;Node1 -->
<g id="edge1" class="edge">
<title>Node2&#45;&gt;Node1</title>
<path fill="none" stroke="midnightblue" d="M133.98,-300.91C175.52,-300.94 230.36,-295.73 273,-273 301.64,-257.73 323.15,-224.13 332.44,-207.58"/>
<polygon fill="midnightblue" stroke="midnightblue" points="133.76,-297.41 123.72,-300.8 133.68,-304.41 133.76,-297.41"/>
</g>
<!-- Node3 -->
<g id="node3" class="node">
<title>Node3</title>
<g id="a_node3"><a xlink:title=" ">
<polygon fill="white" stroke="#bfbfbf" points="20,-249.5 20,-268.5 123,-268.5 123,-249.5 20,-249.5"/>
<text text-anchor="middle" x="71.5" y="-256.5" font-family="Helvetica,sans-Serif" font-size="10.00">integer(kind=i32)</text>
</a>
</g>
</g>
<!-- Node3&#45;&gt;Node1 -->
<g id="edge2" class="edge">
<title>Node3&#45;&gt;Node1</title>
<path fill="none" stroke="#9a32cd" stroke-dasharray="5,2" d="M132.92,-251.83C173.11,-246.24 226.8,-237.19 273,-224 288.09,-219.69 304.49,-213.06 316.97,-207.56"/>
<polygon fill="#9a32cd" stroke="#9a32cd" points="132.45,-248.36 123.01,-253.18 133.39,-255.3 132.45,-248.36"/>
<text text-anchor="middle" x="217" y="-261" font-family="Helvetica,sans-Serif" font-size="10.00"> bc_type</text>
<text text-anchor="middle" x="217" y="-250" font-family="Helvetica,sans-Serif" font-size="10.00">npts</text>
</g>
<!-- Node4 -->
<g id="node4" class="node">
<title>Node4</title>
<g id="a_node4"><a xlink:title=" ">
<polygon fill="white" stroke="#bfbfbf" points="0,-200 0,-230 143,-230 143,-200 0,-200"/>
<text text-anchor="start" x="8" y="-218" font-family="Helvetica,sans-Serif" font-size="10.00">class(sll_c_characteristics</text>
<text text-anchor="middle" x="71.5" y="-207" font-family="Helvetica,sans-Serif" font-size="10.00">_1d_base), pointer</text>
</a>
</g>
</g>
<!-- Node4&#45;&gt;Node1 -->
<g id="edge3" class="edge">
<title>Node4&#45;&gt;Node1</title>
<path fill="none" stroke="#9a32cd" stroke-dasharray="5,2" d="M153.22,-209.82C198.28,-206.93 252.82,-203.43 290.82,-200.99"/>
<polygon fill="#9a32cd" stroke="#9a32cd" points="152.92,-206.33 143.17,-210.47 153.37,-213.32 152.92,-206.33"/>
<text text-anchor="middle" x="217" y="-212" font-family="Helvetica,sans-Serif" font-size="10.00"> charac</text>
</g>
<!-- Node5 -->
<g id="node5" class="node">
<title>Node5</title>
<g id="a_node5"><a xlink:title=" ">
<polygon fill="white" stroke="#bfbfbf" points="7,-151 7,-181 136,-181 136,-151 7,-151"/>
<text text-anchor="start" x="15" y="-169" font-family="Helvetica,sans-Serif" font-size="10.00">class(sll_c_interpolator</text>
<text text-anchor="middle" x="71.5" y="-158" font-family="Helvetica,sans-Serif" font-size="10.00">_1d), pointer</text>
</a>
</g>
</g>
<!-- Node5&#45;&gt;Node1 -->
<g id="edge4" class="edge">
<title>Node5&#45;&gt;Node1</title>
<path fill="none" stroke="#9a32cd" stroke-dasharray="5,2" d="M146.72,-172.62C184.58,-176.29 231.32,-181.27 273,-187 278.74,-187.79 284.75,-188.7 290.7,-189.65"/>
<polygon fill="#9a32cd" stroke="#9a32cd" points="146.58,-169.09 136.29,-171.62 145.91,-176.06 146.58,-169.09"/>
<text text-anchor="middle" x="217" y="-190" font-family="Helvetica,sans-Serif" font-size="10.00"> interp</text>
</g>
<!-- Node6 -->
<g id="node6" class="node">
<title>Node6</title>
<g id="a_node6"><a xlink:title=" ">
<polygon fill="white" stroke="#bfbfbf" points="27.5,-60.5 27.5,-79.5 115.5,-79.5 115.5,-60.5 27.5,-60.5"/>
<text text-anchor="middle" x="71.5" y="-67.5" font-family="Helvetica,sans-Serif" font-size="10.00">real(kind=f64)</text>
</a>
</g>
</g>
<!-- Node6&#45;&gt;Node1 -->
<g id="edge5" class="edge">
<title>Node6&#45;&gt;Node1</title>
<path fill="none" stroke="#9a32cd" stroke-dasharray="5,2" d="M125.61,-59.99C168.65,-54.8 229.14,-54.41 273,-82 312.59,-106.91 329.95,-165.25 335.44,-188.35"/>
<polygon fill="#9a32cd" stroke="#9a32cd" points="125.06,-56.53 115.61,-61.32 125.99,-63.47 125.06,-56.53"/>
<text text-anchor="middle" x="217" y="-162" font-family="Helvetica,sans-Serif" font-size="10.00"> buf1d</text>
<text text-anchor="middle" x="217" y="-151" font-family="Helvetica,sans-Serif" font-size="10.00">buf1d_out</text>
<text text-anchor="middle" x="217" y="-140" font-family="Helvetica,sans-Serif" font-size="10.00">charac_feet</text>
<text text-anchor="middle" x="217" y="-129" font-family="Helvetica,sans-Serif" font-size="10.00">charac_feet_i</text>
<text text-anchor="middle" x="217" y="-118" font-family="Helvetica,sans-Serif" font-size="10.00">eta_coords</text>
<text text-anchor="middle" x="217" y="-107" font-family="Helvetica,sans-Serif" font-size="10.00">eta_coords_unit</text>
<text text-anchor="start" x="178" y="-96" font-family="Helvetica,sans-Serif" font-size="10.00">eta_coords_unit</text>
<text text-anchor="middle" x="217" y="-85" font-family="Helvetica,sans-Serif" font-size="10.00">_back</text>
</g>
<!-- Node7 -->
<g id="node7" class="node">
<title>Node7</title>
<g id="a_node7"><a xlink:title=" ">
<polygon fill="white" stroke="#bfbfbf" points="1.5,-0.5 1.5,-41.5 141.5,-41.5 141.5,-0.5 1.5,-0.5"/>
<text text-anchor="start" x="9.5" y="-29.5" font-family="Helvetica,sans-Serif" font-size="10.00">procedure(sll_i_signature</text>
<text text-anchor="start" x="9.5" y="-18.5" font-family="Helvetica,sans-Serif" font-size="10.00">_process_outside_point</text>
<text text-anchor="middle" x="71.5" y="-7.5" font-family="Helvetica,sans-Serif" font-size="10.00">_1d), pointer, nopass</text>
</a>
</g>
</g>
<!-- Node7&#45;&gt;Node1 -->
<g id="edge6" class="edge">
<title>Node7&#45;&gt;Node1</title>
<path fill="none" stroke="#9a32cd" stroke-dasharray="5,2" d="M151.53,-11.24C191.54,-10.47 238.75,-16.42 273,-42 322.31,-78.83 334.12,-160.21 336.78,-188.27"/>
<polygon fill="#9a32cd" stroke="#9a32cd" points="151.4,-7.74 141.53,-11.57 151.64,-14.74 151.4,-7.74"/>
<text text-anchor="middle" x="217" y="-45" font-family="Helvetica,sans-Serif" font-size="10.00"> process_outside_point</text>
</g>
</g>
</svg>
