<?xml version="1.0" encoding="UTF-8" standalone="no"?>
<!DOCTYPE svg PUBLIC "-//W3C//DTD SVG 1.1//EN"
 "http://www.w3.org/Graphics/SVG/1.1/DTD/svg11.dtd">
<!-- Generated by graphviz version 2.43.0 (0)
 -->
<!-- Title: sll_t_distribution_function_4d_multipatch Pages: 1 -->
<svg width="1561pt" height="1080pt"
 viewBox="0.00 0.00 1561.00 1080.01" xmlns="http://www.w3.org/2000/svg" xmlns:xlink="http://www.w3.org/1999/xlink">
<g id="graph0" class="graph" transform="scale(1 1) rotate(0) translate(4 1076.01)">
<title>sll_t_distribution_function_4d_multipatch</title>
<polygon fill="white" stroke="transparent" points="-4,4 -4,-1076.01 1557,-1076.01 1557,4 -4,4"/>
<!-- Node1 -->
<g id="node1" class="node">
<title>Node1</title>
<g id="a_node1"><a xlink:title=" ">
<polygon fill="#bfbfbf" stroke="black" points="1416,-236.01 1416,-266.01 1553,-266.01 1553,-236.01 1416,-236.01"/>
<text text-anchor="start" x="1424" y="-254.01" font-family="Helvetica,sans-Serif" font-size="10.00">sll_t_distribution</text>
<text text-anchor="middle" x="1484.5" y="-243.01" font-family="Helvetica,sans-Serif" font-size="10.00">_function_4d_multipatch</text>
</a>
</g>
</g>
<!-- Node2 -->
<g id="node2" class="node">
<title>Node2</title>
<g id="a_node2"><a xlink:title=" ">
<polygon fill="white" stroke="#bfbfbf" points="255,-368.51 255,-387.51 304,-387.51 304,-368.51 255,-368.51"/>
<text text-anchor="middle" x="279.5" y="-375.51" font-family="Helvetica,sans-Serif" font-size="10.00">logical</text>
</a>
</g>
</g>
<!-- Node2&#45;&gt;Node1 -->
<g id="edge1" class="edge">
<title>Node2&#45;&gt;Node1</title>
<path fill="none" stroke="#9a32cd" stroke-dasharray="5,2" d="M314.31,-378.01C372.68,-378.01 496.16,-378.01 600.5,-378.01 600.5,-378.01 600.5,-378.01 1197,-378.01 1306.36,-378.01 1420.61,-299.72 1464.65,-266.08"/>
<polygon fill="#9a32cd" stroke="#9a32cd" points="314.19,-374.51 304.19,-378.01 314.19,-381.51 314.19,-374.51"/>
<text text-anchor="start" x="879" y="-392.01" font-family="Helvetica,sans-Serif" font-size="10.00"> ready_for_sequential</text>
<text text-anchor="middle" x="932" y="-381.01" font-family="Helvetica,sans-Serif" font-size="10.00">_ops_in_x1x2</text>
</g>
<!-- Node12 -->
<g id="node12" class="node">
<title>Node12</title>
<g id="a_node12"><a xlink:href="structsll__m__coordinate__transformation__2d__base_1_1sll__c__coordinate__transformation__2d__base.html" target="_top" xlink:title="Abstract class for coordinate transformation.">
<polygon fill="white" stroke="black" points="515,-319.01 515,-349.01 688,-349.01 688,-319.01 515,-319.01"/>
<text text-anchor="start" x="523" y="-337.01" font-family="Helvetica,sans-Serif" font-size="10.00">sll_c_coordinate_transformation</text>
<text text-anchor="middle" x="601.5" y="-326.01" font-family="Helvetica,sans-Serif" font-size="10.00">_2d_base</text>
</a>
</g>
</g>
<!-- Node2&#45;&gt;Node12 -->
<g id="edge15" class="edge">
<title>Node2&#45;&gt;Node12</title>
<path fill="none" stroke="#9a32cd" stroke-dasharray="5,2" d="M313.89,-366.54C329.53,-361.6 348.53,-356.24 366,-353.01 414.8,-344 470.1,-339.26 514.74,-336.77"/>
<polygon fill="#9a32cd" stroke="#9a32cd" points="312.58,-363.28 304.14,-369.69 314.73,-369.94 312.58,-363.28"/>
<text text-anchor="middle" x="431.5" y="-356.01" font-family="Helvetica,sans-Serif" font-size="10.00"> written</text>
</g>
<!-- Node14 -->
<g id="node14" class="node">
<title>Node14</title>
<g id="a_node14"><a xlink:href="structsll__m__arbitrary__degree__spline__interpolator__2d_1_1sll__t__arbitrary__degree__spline__interpolator__2d.html" target="_top" xlink:title="Arbitrary degree version of 2d irnterpolator.">
<polygon fill="white" stroke="black" points="536,-654.01 536,-684.01 667,-684.01 667,-654.01 536,-654.01"/>
<text text-anchor="start" x="544" y="-672.01" font-family="Helvetica,sans-Serif" font-size="10.00">sll_t_arbitrary_degree</text>
<text text-anchor="middle" x="601.5" y="-661.01" font-family="Helvetica,sans-Serif" font-size="10.00">_spline_interpolator_2d</text>
</a>
</g>
</g>
<!-- Node2&#45;&gt;Node14 -->
<g id="edge20" class="edge">
<title>Node2&#45;&gt;Node14</title>
<path fill="none" stroke="#9a32cd" stroke-dasharray="5,2" d="M314.32,-382.44C373.41,-390.29 489.91,-406.37 497,-412.01 576.43,-475.19 595.24,-608.81 599.39,-653.84"/>
<polygon fill="#9a32cd" stroke="#9a32cd" points="314.7,-378.96 304.33,-381.12 313.79,-385.9 314.7,-378.96"/>
<text text-anchor="middle" x="431.5" y="-503.01" font-family="Helvetica,sans-Serif" font-size="10.00"> compute_slope_max1</text>
<text text-anchor="middle" x="431.5" y="-492.01" font-family="Helvetica,sans-Serif" font-size="10.00">compute_slope_max2</text>
<text text-anchor="middle" x="431.5" y="-481.01" font-family="Helvetica,sans-Serif" font-size="10.00">compute_slope_min1</text>
<text text-anchor="middle" x="431.5" y="-470.01" font-family="Helvetica,sans-Serif" font-size="10.00">compute_value_min1</text>
<text text-anchor="middle" x="431.5" y="-459.01" font-family="Helvetica,sans-Serif" font-size="10.00">compute_slope_min2</text>
<text text-anchor="middle" x="431.5" y="-448.01" font-family="Helvetica,sans-Serif" font-size="10.00">compute_value_min2</text>
<text text-anchor="middle" x="431.5" y="-437.01" font-family="Helvetica,sans-Serif" font-size="10.00">coefficients_set</text>
<text text-anchor="middle" x="431.5" y="-426.01" font-family="Helvetica,sans-Serif" font-size="10.00">compute_value_max1</text>
<text text-anchor="middle" x="431.5" y="-415.01" font-family="Helvetica,sans-Serif" font-size="10.00">compute_value_max2</text>
</g>
<!-- Node3 -->
<g id="node3" class="node">
<title>Node3</title>
<g id="a_node3"><a xlink:title=" ">
<polygon fill="white" stroke="#bfbfbf" points="1137.5,-512.01 1137.5,-542.01 1254.5,-542.01 1254.5,-512.01 1137.5,-512.01"/>
<text text-anchor="start" x="1145.5" y="-530.01" font-family="Helvetica,sans-Serif" font-size="10.00">sll_t_remap_plan_4d</text>
<text text-anchor="middle" x="1196" y="-519.01" font-family="Helvetica,sans-Serif" font-size="10.00">_real64_ptr</text>
</a>
</g>
</g>
<!-- Node3&#45;&gt;Node1 -->
<g id="edge2" class="edge">
<title>Node3&#45;&gt;Node1</title>
<path fill="none" stroke="#9a32cd" stroke-dasharray="5,2" d="M1264.68,-520.21C1307.77,-512.58 1362.04,-496.38 1398,-462.01 1456.58,-406.03 1476.17,-304.4 1481.65,-266.13"/>
<polygon fill="#9a32cd" stroke="#9a32cd" points="1263.84,-516.8 1254.54,-521.89 1264.98,-523.71 1263.84,-516.8"/>
<text text-anchor="middle" x="1349" y="-525.01" font-family="Helvetica,sans-Serif" font-size="10.00"> remap_x3x4tox1x2</text>
<text text-anchor="middle" x="1349" y="-514.01" font-family="Helvetica,sans-Serif" font-size="10.00">remap_x1x2tox3x4</text>
</g>
<!-- Node4 -->
<g id="node4" class="node">
<title>Node4</title>
<g id="a_node4"><a xlink:href="structsll__m__cartesian__meshes_1_1sll__t__cartesian__mesh__2d.html" target="_top" xlink:title="2D cartesian mesh">
<polygon fill="white" stroke="black" points="211,-270.51 211,-289.51 348,-289.51 348,-270.51 211,-270.51"/>
<text text-anchor="middle" x="279.5" y="-277.51" font-family="Helvetica,sans-Serif" font-size="10.00">sll_t_cartesian_mesh_2d</text>
</a>
</g>
</g>
<!-- Node4&#45;&gt;Node1 -->
<g id="edge3" class="edge">
<title>Node4&#45;&gt;Node1</title>
<path fill="none" stroke="#9a32cd" stroke-dasharray="5,2" d="M356.96,-269.17C421.68,-260.94 516.97,-251.01 600.5,-251.01 600.5,-251.01 600.5,-251.01 1197,-251.01 1271.86,-251.01 1357.72,-251.01 1415.77,-251.01"/>
<polygon fill="#9a32cd" stroke="#9a32cd" points="356.31,-265.73 346.84,-270.48 357.2,-272.67 356.31,-265.73"/>
<text text-anchor="middle" x="932" y="-254.01" font-family="Helvetica,sans-Serif" font-size="10.00"> mesh_v</text>
</g>
<!-- Node4&#45;&gt;Node12 -->
<g id="edge16" class="edge">
<title>Node4&#45;&gt;Node12</title>
<path fill="none" stroke="#9a32cd" stroke-dasharray="5,2" d="M358.41,-282.96C399.9,-285.6 451.59,-290.58 497,-300.01 518.85,-304.55 542.55,-312.13 561.75,-318.98"/>
<polygon fill="#9a32cd" stroke="#9a32cd" points="358.56,-279.47 348.37,-282.36 358.14,-286.45 358.56,-279.47"/>
<text text-anchor="middle" x="431.5" y="-303.01" font-family="Helvetica,sans-Serif" font-size="10.00"> mesh</text>
</g>
<!-- Node5 -->
<g id="node5" class="node">
<title>Node5</title>
<g id="a_node5"><a xlink:href="structsll__m__meshes__base_1_1sll__c__mesh__2d__base.html" target="_top" xlink:title="2D logical mesh">
<polygon fill="white" stroke="black" points="0,-280.51 0,-299.51 116,-299.51 116,-280.51 0,-280.51"/>
<text text-anchor="middle" x="58" y="-287.51" font-family="Helvetica,sans-Serif" font-size="10.00">sll_c_mesh_2d_base</text>
</a>
</g>
</g>
<!-- Node5&#45;&gt;Node4 -->
<g id="edge4" class="edge">
<title>Node5&#45;&gt;Node4</title>
<path fill="none" stroke="midnightblue" d="M126.17,-286.95C153.01,-285.73 183.87,-284.32 210.76,-283.1"/>
<polygon fill="midnightblue" stroke="midnightblue" points="125.93,-283.46 116.1,-287.41 126.25,-290.45 125.93,-283.46"/>
</g>
<!-- Node6 -->
<g id="node6" class="node">
<title>Node6</title>
<g id="a_node6"><a xlink:title=" ">
<polygon fill="white" stroke="#bfbfbf" points="6.5,-855.51 6.5,-874.51 109.5,-874.51 109.5,-855.51 6.5,-855.51"/>
<text text-anchor="middle" x="58" y="-862.51" font-family="Helvetica,sans-Serif" font-size="10.00">integer(kind=i32)</text>
</a>
</g>
</g>
<!-- Node6&#45;&gt;Node1 -->
<g id="edge9" class="edge">
<title>Node6&#45;&gt;Node1</title>
<path fill="none" stroke="#9a32cd" stroke-dasharray="5,2" d="M70,-883.31C98.42,-927.98 179.06,-1039.01 278.5,-1039.01 278.5,-1039.01 278.5,-1039.01 1197,-1039.01 1368.04,-1039.01 1466.49,-374.99 1481.49,-266.05"/>
<polygon fill="#9a32cd" stroke="#9a32cd" points="72.85,-881.26 64.6,-874.62 66.91,-884.96 72.85,-881.26"/>
<text text-anchor="middle" x="767" y="-1064.01" font-family="Helvetica,sans-Serif" font-size="10.00"> nproc_factor1</text>
<text text-anchor="middle" x="767" y="-1053.01" font-family="Helvetica,sans-Serif" font-size="10.00">nproc_factor2</text>
<text text-anchor="middle" x="767" y="-1042.01" font-family="Helvetica,sans-Serif" font-size="10.00">num_patches</text>
</g>
<!-- Node6&#45;&gt;Node4 -->
<g id="edge5" class="edge">
<title>Node6&#45;&gt;Node4</title>
<path fill="none" stroke="#9a32cd" stroke-dasharray="5,2" d="M60.15,-845.12C64.23,-783.14 80.73,-588.68 134,-438.01 157.54,-371.43 155.63,-342.85 211,-299.01 215.87,-295.16 221.48,-292.09 227.33,-289.64"/>
<polygon fill="#9a32cd" stroke="#9a32cd" points="56.64,-845.2 59.51,-855.4 63.63,-845.64 56.64,-845.2"/>
<text text-anchor="middle" x="163.5" y="-452.01" font-family="Helvetica,sans-Serif" font-size="10.00"> num_cells1</text>
<text text-anchor="middle" x="163.5" y="-441.01" font-family="Helvetica,sans-Serif" font-size="10.00">num_cells2</text>
</g>
<!-- Node10 -->
<g id="node10" class="node">
<title>Node10</title>
<g id="a_node10"><a xlink:href="structsll__m__coordinate__transformation__multipatch_1_1sll__t__coordinate__transformation__multipatch__2d.html" target="_top" xlink:title="basic type for the multipatch. It is meant to be an opaque entity and dealt with only through the met...">
<polygon fill="white" stroke="black" points="1110,-463.01 1110,-493.01 1282,-493.01 1282,-463.01 1110,-463.01"/>
<text text-anchor="start" x="1118" y="-481.01" font-family="Helvetica,sans-Serif" font-size="10.00">sll_t_coordinate_transformation</text>
<text text-anchor="middle" x="1196" y="-470.01" font-family="Helvetica,sans-Serif" font-size="10.00">_multipatch_2d</text>
</a>
</g>
</g>
<!-- Node6&#45;&gt;Node10 -->
<g id="edge29" class="edge">
<title>Node6&#45;&gt;Node10</title>
<path fill="none" stroke="#9a32cd" stroke-dasharray="5,2" d="M76.49,-882.14C90.94,-895.54 112.5,-913.87 134,-926.01 193.43,-959.58 210.25,-978.01 278.5,-978.01 278.5,-978.01 278.5,-978.01 933,-978.01 961.16,-978.01 1089.4,-522.21 1110,-503.01 1114.16,-499.13 1118.9,-495.85 1123.96,-493.08"/>
<polygon fill="#9a32cd" stroke="#9a32cd" points="78.53,-879.24 68.86,-874.91 73.71,-884.32 78.53,-879.24"/>
<text text-anchor="middle" x="601.5" y="-1003.01" font-family="Helvetica,sans-Serif" font-size="10.00"> global_indices</text>
<text text-anchor="middle" x="601.5" y="-992.01" font-family="Helvetica,sans-Serif" font-size="10.00">connectivities</text>
<text text-anchor="middle" x="601.5" y="-981.01" font-family="Helvetica,sans-Serif" font-size="10.00">number_patches</text>
</g>
<!-- Node11 -->
<g id="node11" class="node">
<title>Node11</title>
<g id="a_node11"><a xlink:href="structsll__m__coordinate__transformations__2d__nurbs_1_1sll__t__coordinate__transformation__2d__nurbs.html" target="_top" xlink:title="Nurbs&#45;based coordinate transformation.">
<polygon fill="white" stroke="black" points="846,-490.01 846,-520.01 1018,-520.01 1018,-490.01 846,-490.01"/>
<text text-anchor="start" x="854" y="-508.01" font-family="Helvetica,sans-Serif" font-size="10.00">sll_t_coordinate_transformation</text>
<text text-anchor="middle" x="932" y="-497.01" font-family="Helvetica,sans-Serif" font-size="10.00">_2d_nurbs</text>
</a>
</g>
</g>
<!-- Node6&#45;&gt;Node11 -->
<g id="edge25" class="edge">
<title>Node6&#45;&gt;Node11</title>
<path fill="none" stroke="#9a32cd" stroke-dasharray="5,2" d="M59.97,-845.27C64.33,-781.21 87.72,-578.56 211,-496.01 261.59,-462.14 290.75,-475.29 348,-496.01 357.79,-499.56 356.21,-507.47 366,-511.01 451.61,-542.01 710.13,-524.9 845.79,-513.15"/>
<polygon fill="#9a32cd" stroke="#9a32cd" points="56.48,-845.06 59.38,-855.25 63.47,-845.48 56.48,-845.06"/>
<text text-anchor="middle" x="431.5" y="-552.01" font-family="Helvetica,sans-Serif" font-size="10.00"> spline_deg1</text>
<text text-anchor="middle" x="431.5" y="-541.01" font-family="Helvetica,sans-Serif" font-size="10.00">spline_deg2</text>
<text text-anchor="middle" x="431.5" y="-530.01" font-family="Helvetica,sans-Serif" font-size="10.00">is_rational</text>
</g>
<!-- Node6&#45;&gt;Node14 -->
<g id="edge22" class="edge">
<title>Node6&#45;&gt;Node14</title>
<path fill="none" stroke="#9a32cd" stroke-dasharray="5,2" d="M83.43,-850.12C112.67,-833.01 163.63,-805.46 211,-791.01 333.77,-753.57 379.01,-801.52 497,-751.01 533.67,-735.32 568.31,-703.07 586.73,-684.03"/>
<polygon fill="#9a32cd" stroke="#9a32cd" points="81.55,-847.16 74.73,-855.27 85.12,-853.18 81.55,-847.16"/>
<text text-anchor="middle" x="279.5" y="-904.01" font-family="Helvetica,sans-Serif" font-size="10.00"> bc1_max</text>
<text text-anchor="middle" x="279.5" y="-893.01" font-family="Helvetica,sans-Serif" font-size="10.00">bc2_max</text>
<text text-anchor="middle" x="279.5" y="-882.01" font-family="Helvetica,sans-Serif" font-size="10.00">num_pts1</text>
<text text-anchor="middle" x="279.5" y="-871.01" font-family="Helvetica,sans-Serif" font-size="10.00">size_coeffs1</text>
<text text-anchor="middle" x="279.5" y="-860.01" font-family="Helvetica,sans-Serif" font-size="10.00">num_pts2</text>
<text text-anchor="middle" x="279.5" y="-849.01" font-family="Helvetica,sans-Serif" font-size="10.00">size_coeffs2</text>
<text text-anchor="middle" x="279.5" y="-838.01" font-family="Helvetica,sans-Serif" font-size="10.00">size_t1</text>
<text text-anchor="middle" x="279.5" y="-827.01" font-family="Helvetica,sans-Serif" font-size="10.00">size_t2</text>
<text text-anchor="middle" x="279.5" y="-816.01" font-family="Helvetica,sans-Serif" font-size="10.00">spline_degree1</text>
<text text-anchor="middle" x="279.5" y="-805.01" font-family="Helvetica,sans-Serif" font-size="10.00">spline_degree2</text>
<text text-anchor="middle" x="279.5" y="-794.01" font-family="Helvetica,sans-Serif" font-size="10.00">...</text>
</g>
<!-- Node18 -->
<g id="node18" class="node">
<title>Node18</title>
<g id="a_node18"><a xlink:href="structsll__m__coordinate__transformation__multipatch_1_1multipatch__data__2d__int.html" target="_top" xlink:title=" ">
<polygon fill="white" stroke="black" points="366,-926.51 366,-945.51 497,-945.51 497,-926.51 366,-926.51"/>
<text text-anchor="middle" x="431.5" y="-933.51" font-family="Helvetica,sans-Serif" font-size="10.00">multipatch_data_2d_int</text>
</a>
</g>
</g>
<!-- Node6&#45;&gt;Node18 -->
<g id="edge28" class="edge">
<title>Node6&#45;&gt;Node18</title>
<path fill="none" stroke="#9a32cd" stroke-dasharray="5,2" d="M91.61,-878.42C121.98,-890.31 168.79,-907.13 211,-916.01 262.3,-926.8 321.56,-931.77 365.56,-934.06"/>
<polygon fill="#9a32cd" stroke="#9a32cd" points="92.55,-875.03 81.97,-874.6 89.97,-881.54 92.55,-875.03"/>
<text text-anchor="middle" x="163.5" y="-914.01" font-family="Helvetica,sans-Serif" font-size="10.00"> array</text>
</g>
<!-- Node7 -->
<g id="node7" class="node">
<title>Node7</title>
<g id="a_node7"><a xlink:title=" ">
<polygon fill="white" stroke="#bfbfbf" points="14,-166.51 14,-185.51 102,-185.51 102,-166.51 14,-166.51"/>
<text text-anchor="middle" x="58" y="-173.51" font-family="Helvetica,sans-Serif" font-size="10.00">real(kind=f64)</text>
</a>
</g>
</g>
<!-- Node7&#45;&gt;Node4 -->
<g id="edge6" class="edge">
<title>Node7&#45;&gt;Node4</title>
<path fill="none" stroke="#9a32cd" stroke-dasharray="5,2" d="M112,-186.13C137.36,-192.18 167.65,-201.23 193,-214.01 223.48,-229.37 253.83,-256.25 268.84,-270.51"/>
<polygon fill="#9a32cd" stroke="#9a32cd" points="112.72,-182.7 102.19,-183.88 111.15,-189.53 112.72,-182.7"/>
<text text-anchor="middle" x="163.5" y="-272.01" font-family="Helvetica,sans-Serif" font-size="10.00"> delta_eta1</text>
<text text-anchor="middle" x="163.5" y="-261.01" font-family="Helvetica,sans-Serif" font-size="10.00">eta2_max</text>
<text text-anchor="middle" x="163.5" y="-250.01" font-family="Helvetica,sans-Serif" font-size="10.00">delta_eta2</text>
<text text-anchor="middle" x="163.5" y="-239.01" font-family="Helvetica,sans-Serif" font-size="10.00">eta1_min</text>
<text text-anchor="middle" x="163.5" y="-228.01" font-family="Helvetica,sans-Serif" font-size="10.00">eta2_min</text>
<text text-anchor="middle" x="163.5" y="-217.01" font-family="Helvetica,sans-Serif" font-size="10.00">eta1_max</text>
</g>
<!-- Node9 -->
<g id="node9" class="node">
<title>Node9</title>
<g id="a_node9"><a xlink:href="structsll__m__distribution__function__4d__multipatch_1_1data__4d__ptr.html" target="_top" xlink:title=" ">
<polygon fill="white" stroke="black" points="394.5,-85.51 394.5,-104.51 468.5,-104.51 468.5,-85.51 394.5,-85.51"/>
<text text-anchor="middle" x="431.5" y="-92.51" font-family="Helvetica,sans-Serif" font-size="10.00">data_4d_ptr</text>
</a>
</g>
</g>
<!-- Node7&#45;&gt;Node9 -->
<g id="edge11" class="edge">
<title>Node7&#45;&gt;Node9</title>
<path fill="none" stroke="#9a32cd" stroke-dasharray="5,2" d="M73.25,-158.68C87.01,-143.35 109.34,-121.92 134,-112.01 222.04,-76.66 336.69,-83.35 394.22,-89.9"/>
<polygon fill="#9a32cd" stroke="#9a32cd" points="70.41,-156.6 66.52,-166.46 75.71,-161.18 70.41,-156.6"/>
<text text-anchor="middle" x="163.5" y="-115.01" font-family="Helvetica,sans-Serif" font-size="10.00"> f</text>
</g>
<!-- Node7&#45;&gt;Node11 -->
<g id="edge26" class="edge">
<title>Node7&#45;&gt;Node11</title>
<path fill="none" stroke="#9a32cd" stroke-dasharray="5,2" d="M112.28,-174.01C195.93,-172.31 362.42,-174.74 497,-213.01 659.94,-259.36 731.22,-262.98 828,-402.01 848.33,-431.21 821.6,-454.12 846,-480.01 849.59,-483.82 853.72,-487.06 858.19,-489.81"/>
<polygon fill="#9a32cd" stroke="#9a32cd" points="112.17,-170.52 102.26,-174.25 112.34,-177.51 112.17,-170.52"/>
<text text-anchor="middle" x="431.5" y="-271.01" font-family="Helvetica,sans-Serif" font-size="10.00"> x2_cell</text>
<text text-anchor="middle" x="431.5" y="-260.01" font-family="Helvetica,sans-Serif" font-size="10.00">x2_node</text>
<text text-anchor="middle" x="431.5" y="-249.01" font-family="Helvetica,sans-Serif" font-size="10.00">x1_cell</text>
<text text-anchor="middle" x="431.5" y="-238.01" font-family="Helvetica,sans-Serif" font-size="10.00">x1_node</text>
<text text-anchor="middle" x="431.5" y="-227.01" font-family="Helvetica,sans-Serif" font-size="10.00">knots1</text>
<text text-anchor="middle" x="431.5" y="-216.01" font-family="Helvetica,sans-Serif" font-size="10.00">knots2</text>
</g>
<!-- Node7&#45;&gt;Node14 -->
<g id="edge24" class="edge">
<title>Node7&#45;&gt;Node14</title>
<path fill="none" stroke="#9a32cd" stroke-dasharray="5,2" d="M73.18,-193.99C86.73,-212.25 106.46,-241.91 116,-271.01 129.42,-311.95 106.77,-430.64 134,-464.01 196.85,-541.03 272.72,-464.1 348,-529.01 362.15,-541.22 352.58,-554.01 366,-567.01 413.28,-612.8 484.44,-639.76 535.97,-654.35"/>
<polygon fill="#9a32cd" stroke="#9a32cd" points="75.59,-191.38 66.75,-185.55 70.03,-195.62 75.59,-191.38"/>
<text text-anchor="middle" x="279.5" y="-642.01" font-family="Helvetica,sans-Serif" font-size="10.00"> coeff_splines</text>
<text text-anchor="middle" x="279.5" y="-631.01" font-family="Helvetica,sans-Serif" font-size="10.00">eta2_max</text>
<text text-anchor="middle" x="279.5" y="-620.01" font-family="Helvetica,sans-Serif" font-size="10.00">t1</text>
<text text-anchor="middle" x="279.5" y="-609.01" font-family="Helvetica,sans-Serif" font-size="10.00">t2</text>
<text text-anchor="middle" x="279.5" y="-598.01" font-family="Helvetica,sans-Serif" font-size="10.00">slope_max1</text>
<text text-anchor="middle" x="279.5" y="-587.01" font-family="Helvetica,sans-Serif" font-size="10.00">slope_max2</text>
<text text-anchor="middle" x="279.5" y="-576.01" font-family="Helvetica,sans-Serif" font-size="10.00">eta1_min</text>
<text text-anchor="middle" x="279.5" y="-565.01" font-family="Helvetica,sans-Serif" font-size="10.00">eta2_min</text>
<text text-anchor="middle" x="279.5" y="-554.01" font-family="Helvetica,sans-Serif" font-size="10.00">gtau_der1</text>
<text text-anchor="middle" x="279.5" y="-543.01" font-family="Helvetica,sans-Serif" font-size="10.00">value_min1</text>
<text text-anchor="middle" x="279.5" y="-532.01" font-family="Helvetica,sans-Serif" font-size="10.00">...</text>
</g>
<!-- Node21 -->
<g id="node21" class="node">
<title>Node21</title>
<g id="a_node21"><a xlink:href="structsll__m__coordinate__transformation__multipatch_1_1sll__t__multipatch__data__2d__real.html" target="_top" xlink:title=" ">
<polygon fill="white" stroke="black" points="706,-156.01 706,-186.01 828,-186.01 828,-156.01 706,-156.01"/>
<text text-anchor="start" x="714" y="-174.01" font-family="Helvetica,sans-Serif" font-size="10.00">sll_t_multipatch_data</text>
<text text-anchor="middle" x="767" y="-163.01" font-family="Helvetica,sans-Serif" font-size="10.00">_2d_real</text>
</a>
</g>
</g>
<!-- Node7&#45;&gt;Node21 -->
<g id="edge33" class="edge">
<title>Node7&#45;&gt;Node21</title>
<path fill="none" stroke="#9a32cd" stroke-dasharray="5,2" d="M112.25,-164.79C141.29,-159.29 177.95,-153.36 211,-151.01 390.85,-138.23 604.09,-154.8 705.97,-164.65"/>
<polygon fill="#9a32cd" stroke="#9a32cd" points="111.47,-161.37 102.32,-166.71 112.8,-168.25 111.47,-161.37"/>
<text text-anchor="middle" x="279.5" y="-154.01" font-family="Helvetica,sans-Serif" font-size="10.00"> array</text>
</g>
<!-- Node8 -->
<g id="node8" class="node">
<title>Node8</title>
<g id="a_node8"><a xlink:href="structsll__m__collective_1_1sll__t__collective__t.html" target="_top" xlink:title="Wrapper around the communicator.">
<polygon fill="white" stroke="black" points="1147,-279.51 1147,-298.51 1245,-298.51 1245,-279.51 1147,-279.51"/>
<text text-anchor="middle" x="1196" y="-286.51" font-family="Helvetica,sans-Serif" font-size="10.00">sll_t_collective_t</text>
</a>
</g>
</g>
<!-- Node8&#45;&gt;Node1 -->
<g id="edge7" class="edge">
<title>Node8&#45;&gt;Node1</title>
<path fill="none" stroke="#9a32cd" stroke-dasharray="5,2" d="M1255.55,-282.7C1295.7,-278.21 1350.14,-271.79 1398,-265.01 1403.81,-264.19 1409.83,-263.29 1415.87,-262.37"/>
<polygon fill="#9a32cd" stroke="#9a32cd" points="1254.96,-279.25 1245.41,-283.83 1255.73,-286.2 1254.96,-279.25"/>
<text text-anchor="middle" x="1349" y="-280.01" font-family="Helvetica,sans-Serif" font-size="10.00"> collective</text>
</g>
<!-- Node8&#45;&gt;Node8 -->
<g id="edge8" class="edge">
<title>Node8&#45;&gt;Node8</title>
<path fill="none" stroke="#9a32cd" stroke-dasharray="5,2" d="M1171.45,-308.04C1172.79,-313.14 1180.97,-317.01 1196,-317.01 1219.46,-317.01 1226.24,-307.58 1216.35,-298.77"/>
<polygon fill="#9a32cd" stroke="#9a32cd" points="1174.71,-309.32 1175.65,-298.77 1168.33,-306.43 1174.71,-309.32"/>
<text text-anchor="middle" x="1196" y="-320.01" font-family="Helvetica,sans-Serif" font-size="10.00"> parent</text>
</g>
<!-- Node9&#45;&gt;Node1 -->
<g id="edge10" class="edge">
<title>Node9&#45;&gt;Node1</title>
<path fill="none" stroke="#9a32cd" stroke-dasharray="5,2" d="M478.74,-95.92C543.13,-97.1 663.43,-99.01 766,-99.01 766,-99.01 766,-99.01 1197,-99.01 1289.06,-99.01 1319.93,-100.23 1398,-149.01 1433.66,-171.3 1461.83,-213.45 1475.14,-235.96"/>
<polygon fill="#9a32cd" stroke="#9a32cd" points="478.59,-92.41 468.52,-95.73 478.46,-99.41 478.59,-92.41"/>
<text text-anchor="middle" x="932" y="-113.01" font-family="Helvetica,sans-Serif" font-size="10.00"> f_x1x2</text>
<text text-anchor="middle" x="932" y="-102.01" font-family="Helvetica,sans-Serif" font-size="10.00">f_x3x4</text>
</g>
<!-- Node10&#45;&gt;Node1 -->
<g id="edge12" class="edge">
<title>Node10&#45;&gt;Node1</title>
<path fill="none" stroke="#9a32cd" stroke-dasharray="5,2" d="M1267.12,-459.84C1308.7,-446.37 1360.46,-424.61 1398,-392.01 1439.5,-355.98 1466.85,-294.68 1477.92,-266.29"/>
<polygon fill="#9a32cd" stroke="#9a32cd" points="1265.81,-456.58 1257.32,-462.92 1267.91,-463.26 1265.81,-456.58"/>
<text text-anchor="middle" x="1349" y="-450.01" font-family="Helvetica,sans-Serif" font-size="10.00"> transf</text>
</g>
<!-- Node11&#45;&gt;Node10 -->
<g id="edge13" class="edge">
<title>Node11&#45;&gt;Node10</title>
<path fill="none" stroke="#9a32cd" stroke-dasharray="5,2" d="M1028.19,-495.2C1054.93,-492.45 1083.81,-489.47 1109.91,-486.78"/>
<polygon fill="#9a32cd" stroke="#9a32cd" points="1027.65,-491.74 1018.06,-496.25 1028.37,-498.7 1027.65,-491.74"/>
<text text-anchor="middle" x="1064" y="-496.01" font-family="Helvetica,sans-Serif" font-size="10.00"> transfs</text>
</g>
<!-- Node12&#45;&gt;Node11 -->
<g id="edge14" class="edge">
<title>Node12&#45;&gt;Node11</title>
<path fill="none" stroke="midnightblue" d="M631.61,-354.83C676,-385.78 764.1,-444.12 846,-480.01 854.45,-483.72 863.61,-487.06 872.68,-490"/>
<polygon fill="midnightblue" stroke="midnightblue" points="633.53,-351.9 623.33,-349.02 629.51,-357.63 633.53,-351.9"/>
</g>
<!-- Node13 -->
<g id="node13" class="node">
<title>Node13</title>
<g id="a_node13"><a xlink:title=" ">
<polygon fill="white" stroke="#bfbfbf" points="227,-308.51 227,-327.51 332,-327.51 332,-308.51 227,-308.51"/>
<text text-anchor="middle" x="279.5" y="-315.51" font-family="Helvetica,sans-Serif" font-size="10.00">character(len=64)</text>
</a>
</g>
</g>
<!-- Node13&#45;&gt;Node12 -->
<g id="edge17" class="edge">
<title>Node13&#45;&gt;Node12</title>
<path fill="none" stroke="#9a32cd" stroke-dasharray="5,2" d="M342.31,-316.02C385.66,-315.17 444.95,-315.14 497,-319.01 502.79,-319.44 508.76,-320 514.76,-320.65"/>
<polygon fill="#9a32cd" stroke="#9a32cd" points="342.12,-312.52 332.2,-316.23 342.27,-319.52 342.12,-312.52"/>
<text text-anchor="middle" x="431.5" y="-322.01" font-family="Helvetica,sans-Serif" font-size="10.00"> label</text>
</g>
<!-- Node14&#45;&gt;Node11 -->
<g id="edge18" class="edge">
<title>Node14&#45;&gt;Node11</title>
<path fill="none" stroke="#9a32cd" stroke-dasharray="5,2" d="M642.13,-649.23C708.61,-616.04 841.17,-549.86 900.76,-520.11"/>
<polygon fill="#9a32cd" stroke="#9a32cd" points="640.2,-646.28 632.82,-653.88 643.33,-652.54 640.2,-646.28"/>
<text text-anchor="middle" x="767" y="-640.01" font-family="Helvetica,sans-Serif" font-size="10.00"> x2_interp</text>
<text text-anchor="middle" x="767" y="-629.01" font-family="Helvetica,sans-Serif" font-size="10.00">x3_interp</text>
<text text-anchor="middle" x="767" y="-618.01" font-family="Helvetica,sans-Serif" font-size="10.00">x1_interp</text>
</g>
<!-- Node15 -->
<g id="node15" class="node">
<title>Node15</title>
<g id="a_node15"><a xlink:href="structsll__m__interpolators__2d__base_1_1sll__c__interpolator__2d.html" target="_top" xlink:title="Base class/basic interface for 2D interpolators.">
<polygon fill="white" stroke="black" points="220.5,-659.51 220.5,-678.51 338.5,-678.51 338.5,-659.51 220.5,-659.51"/>
<text text-anchor="middle" x="279.5" y="-666.51" font-family="Helvetica,sans-Serif" font-size="10.00">sll_c_interpolator_2d</text>
</a>
</g>
</g>
<!-- Node15&#45;&gt;Node14 -->
<g id="edge19" class="edge">
<title>Node15&#45;&gt;Node14</title>
<path fill="none" stroke="midnightblue" d="M348.89,-669.01C404.25,-669.01 481.68,-669.01 535.98,-669.01"/>
<polygon fill="midnightblue" stroke="midnightblue" points="348.82,-665.51 338.82,-669.01 348.82,-672.51 348.82,-665.51"/>
</g>
<!-- Node16 -->
<g id="node16" class="node">
<title>Node16</title>
<g id="a_node16"><a xlink:href="namespacesll__m__deboor__splines__1d.html#structsll__m__deboor__splines__1d_1_1sll__t__deboor__type" target="_top" xlink:title=" ">
<polygon fill="white" stroke="black" points="228,-735.51 228,-754.51 331,-754.51 331,-735.51 228,-735.51"/>
<text text-anchor="middle" x="279.5" y="-742.51" font-family="Helvetica,sans-Serif" font-size="10.00">sll_t_deboor_type</text>
</a>
</g>
</g>
<!-- Node16&#45;&gt;Node14 -->
<g id="edge21" class="edge">
<title>Node16&#45;&gt;Node14</title>
<path fill="none" stroke="#9a32cd" stroke-dasharray="5,2" d="M341.32,-739.72C385.18,-734.95 445.47,-726.41 497,-712.01 522.11,-705 549.29,-693.54 569.5,-684.22"/>
<polygon fill="#9a32cd" stroke="#9a32cd" points="340.68,-736.27 331.1,-740.8 341.42,-743.23 340.68,-736.27"/>
<text text-anchor="middle" x="431.5" y="-739.01" font-family="Helvetica,sans-Serif" font-size="10.00"> deboor</text>
</g>
<!-- Node17 -->
<g id="node17" class="node">
<title>Node17</title>
<g id="a_node17"><a xlink:title=" ">
<polygon fill="white" stroke="#bfbfbf" points="228,-697.51 228,-716.51 331,-716.51 331,-697.51 228,-697.51"/>
<text text-anchor="middle" x="279.5" y="-704.51" font-family="Helvetica,sans-Serif" font-size="10.00">integer(kind=i64)</text>
</a>
</g>
</g>
<!-- Node17&#45;&gt;Node14 -->
<g id="edge23" class="edge">
<title>Node17&#45;&gt;Node14</title>
<path fill="none" stroke="#9a32cd" stroke-dasharray="5,2" d="M341.4,-700.66C384.81,-696.03 444.53,-689.47 497,-683.01 509.6,-681.46 523.04,-679.71 535.93,-677.99"/>
<polygon fill="#9a32cd" stroke="#9a32cd" points="340.86,-697.2 331.28,-701.73 341.6,-704.16 340.86,-697.2"/>
<text text-anchor="middle" x="431.5" y="-700.01" font-family="Helvetica,sans-Serif" font-size="10.00"> bc_selector</text>
</g>
<!-- Node18&#45;&gt;Node10 -->
<g id="edge27" class="edge">
<title>Node18&#45;&gt;Node10</title>
<path fill="none" stroke="#9a32cd" stroke-dasharray="5,2" d="M452.84,-919.89C532.3,-857.64 831.1,-630.03 1110,-503.01 1118.12,-499.32 1126.92,-496.01 1135.68,-493.11"/>
<polygon fill="#9a32cd" stroke="#9a32cd" points="450.34,-917.41 444.65,-926.34 454.67,-922.91 450.34,-917.41"/>
<text text-anchor="middle" x="767" y="-748.01" font-family="Helvetica,sans-Serif" font-size="10.00"> local_indices</text>
<text text-anchor="middle" x="767" y="-737.01" font-family="Helvetica,sans-Serif" font-size="10.00">local_to_global_ind</text>
</g>
<!-- Node19 -->
<g id="node19" class="node">
<title>Node19</title>
<g id="a_node19"><a xlink:title=" ">
<polygon fill="white" stroke="#bfbfbf" points="876.5,-451.51 876.5,-470.51 987.5,-470.51 987.5,-451.51 876.5,-451.51"/>
<text text-anchor="middle" x="932" y="-458.51" font-family="Helvetica,sans-Serif" font-size="10.00">character(len=128)</text>
</a>
</g>
</g>
<!-- Node19&#45;&gt;Node10 -->
<g id="edge30" class="edge">
<title>Node19&#45;&gt;Node10</title>
<path fill="none" stroke="#9a32cd" stroke-dasharray="5,2" d="M997.87,-462.45C1026.72,-463.35 1061.08,-464.78 1092,-467.01 1097.83,-467.43 1103.84,-467.93 1109.89,-468.46"/>
<polygon fill="#9a32cd" stroke="#9a32cd" points="997.61,-458.94 987.51,-462.15 997.4,-465.94 997.61,-458.94"/>
<text text-anchor="middle" x="1064" y="-470.01" font-family="Helvetica,sans-Serif" font-size="10.00"> name_root</text>
</g>
<!-- Node20 -->
<g id="node20" class="node">
<title>Node20</title>
<g id="a_node20"><a xlink:title=" ">
<polygon fill="white" stroke="#bfbfbf" points="1141.5,-157.51 1141.5,-176.51 1250.5,-176.51 1250.5,-157.51 1141.5,-157.51"/>
<text text-anchor="middle" x="1196" y="-164.51" font-family="Helvetica,sans-Serif" font-size="10.00">sll_t_layout_4d_ptr</text>
</a>
</g>
</g>
<!-- Node20&#45;&gt;Node1 -->
<g id="edge31" class="edge">
<title>Node20&#45;&gt;Node1</title>
<path fill="none" stroke="#9a32cd" stroke-dasharray="5,2" d="M1257.9,-156.24C1298.99,-151.66 1353.61,-150.91 1398,-169.01 1431.52,-182.68 1459.36,-216.31 1473.49,-236"/>
<polygon fill="#9a32cd" stroke="#9a32cd" points="1257.26,-152.79 1247.76,-157.48 1258.11,-159.74 1257.26,-152.79"/>
<text text-anchor="middle" x="1349" y="-183.01" font-family="Helvetica,sans-Serif" font-size="10.00"> layouts_x3x4</text>
<text text-anchor="middle" x="1349" y="-172.01" font-family="Helvetica,sans-Serif" font-size="10.00">layouts_x1x2</text>
</g>
<!-- Node21&#45;&gt;Node1 -->
<g id="edge32" class="edge">
<title>Node21&#45;&gt;Node1</title>
<path fill="none" stroke="#9a32cd" stroke-dasharray="5,2" d="M838.28,-177.04C954.84,-187.33 1195.39,-209.83 1398,-237.01 1403.81,-237.79 1409.84,-238.66 1415.88,-239.57"/>
<polygon fill="#9a32cd" stroke="#9a32cd" points="838.34,-173.53 828.07,-176.14 837.73,-180.5 838.34,-173.53"/>
<text text-anchor="middle" x="1064" y="-203.01" font-family="Helvetica,sans-Serif" font-size="10.00"> rho_split</text>
</g>
<!-- Node22 -->
<g id="node22" class="node">
<title>Node22</title>
<g id="a_node22"><a xlink:title=" ">
<polygon fill="white" stroke="#bfbfbf" points="1141.5,-51.51 1141.5,-70.51 1250.5,-70.51 1250.5,-51.51 1141.5,-51.51"/>
<text text-anchor="middle" x="1196" y="-58.51" font-family="Helvetica,sans-Serif" font-size="10.00">sll_t_layout_2d_ptr</text>
</a>
</g>
</g>
<!-- Node22&#45;&gt;Node1 -->
<g id="edge34" class="edge">
<title>Node22&#45;&gt;Node1</title>
<path fill="none" stroke="#9a32cd" stroke-dasharray="5,2" d="M1239.22,-49.15C1282.7,-39.57 1350.61,-32.17 1398,-63.01 1459.31,-102.91 1477.2,-198.6 1481.94,-235.83"/>
<polygon fill="#9a32cd" stroke="#9a32cd" points="1238.2,-45.8 1229.26,-51.48 1239.8,-52.61 1238.2,-45.8"/>
<text text-anchor="middle" x="1349" y="-77.01" font-family="Helvetica,sans-Serif" font-size="10.00"> layouts_full</text>
<text text-anchor="middle" x="1349" y="-66.01" font-family="Helvetica,sans-Serif" font-size="10.00">layouts_split</text>
</g>
<!-- Node23 -->
<g id="node23" class="node">
<title>Node23</title>
<g id="a_node23"><a xlink:title=" ">
<polygon fill="white" stroke="#bfbfbf" points="1137.5,-2.01 1137.5,-32.01 1254.5,-32.01 1254.5,-2.01 1137.5,-2.01"/>
<text text-anchor="start" x="1145.5" y="-20.01" font-family="Helvetica,sans-Serif" font-size="10.00">sll_t_remap_plan_2d</text>
<text text-anchor="middle" x="1196" y="-9.01" font-family="Helvetica,sans-Serif" font-size="10.00">_real64_ptr</text>
</a>
</g>
</g>
<!-- Node23&#45;&gt;Node1 -->
<g id="edge35" class="edge">
<title>Node23&#45;&gt;Node1</title>
<path fill="none" stroke="#9a32cd" stroke-dasharray="5,2" d="M1265.08,-2.45C1307.18,2.59 1360.22,1.32 1398,-26.01 1468.6,-77.08 1480.91,-194.21 1483.05,-235.92"/>
<polygon fill="#9a32cd" stroke="#9a32cd" points="1264.35,0.98 1254.9,-3.81 1265.28,-5.95 1264.35,0.98"/>
<text text-anchor="middle" x="1349" y="-29.01" font-family="Helvetica,sans-Serif" font-size="10.00"> remap_split2full</text>
</g>
</g>
</svg>
