<?xml version="1.0" encoding="UTF-8" standalone="no"?>
<!DOCTYPE svg PUBLIC "-//W3C//DTD SVG 1.1//EN"
 "http://www.w3.org/Graphics/SVG/1.1/DTD/svg11.dtd">
<!-- Generated by graphviz version 2.40.1 (20161225.0304)
 -->
<!-- Title: buffer_real64 Pages: 1 -->
<svg width="218pt" height="95pt"
 viewBox="0.00 0.00 217.50 95.00" xmlns="http://www.w3.org/2000/svg" xmlns:xlink="http://www.w3.org/1999/xlink">
<g id="graph0" class="graph" transform="scale(1 1) rotate(0) translate(4 91)">
<title>buffer_real64</title>
<polygon fill="#ffffff" stroke="transparent" points="-4,4 -4,-91 213.5,-91 213.5,4 -4,4"/>
<!-- Node1 -->
<g id="node1" class="node">
<title>Node1</title>
<polygon fill="#bfbfbf" stroke="#000000" points="68,-.5 68,-19.5 149,-19.5 149,-.5 68,-.5"/>
<text text-anchor="middle" x="108.5" y="-7.5" font-family="Helvetica,sans-Serif" font-size="10.00" fill="#000000">buffer_real64</text>
</g>
<!-- Node2 -->
<g id="node2" class="node">
<title>Node2</title>
<polygon fill="#ffffff" stroke="#bfbfbf" points="0,-67.5 0,-86.5 103,-86.5 103,-67.5 0,-67.5"/>
<text text-anchor="middle" x="51.5" y="-74.5" font-family="Helvetica,sans-Serif" font-size="10.00" fill="#000000">integer(kind=i32)</text>
</g>
<!-- Node2&#45;&gt;Node1 -->
<g id="edge1" class="edge">
<title>Node2&#45;&gt;Node1</title>
<path fill="none" stroke="#9a32cd" stroke-dasharray="5,2" d="M66.2054,-59.7147C77.0726,-46.941 91.466,-30.0224 100.3484,-19.5817"/>
<polygon fill="#9a32cd" stroke="#9a32cd" points="63.4807,-57.516 59.6667,-67.4005 68.8123,-62.0519 63.4807,-57.516"/>
<text text-anchor="middle" x="103.5" y="-41" font-family="Helvetica,sans-Serif" font-size="10.00" fill="#000000"> request</text>
</g>
<!-- Node3 -->
<g id="node3" class="node">
<title>Node3</title>
<polygon fill="#ffffff" stroke="#bfbfbf" points="121.5,-67.5 121.5,-86.5 209.5,-86.5 209.5,-67.5 121.5,-67.5"/>
<text text-anchor="middle" x="165.5" y="-74.5" font-family="Helvetica,sans-Serif" font-size="10.00" fill="#000000">real(kind=f64)</text>
</g>
<!-- Node3&#45;&gt;Node1 -->
<g id="edge2" class="edge">
<title>Node3&#45;&gt;Node1</title>
<path fill="none" stroke="#9a32cd" stroke-dasharray="5,2" d="M150.7946,-59.7147C139.9274,-46.941 125.534,-30.0224 116.6516,-19.5817"/>
<polygon fill="#9a32cd" stroke="#9a32cd" points="148.1877,-62.0519 157.3333,-67.4005 153.5193,-57.516 148.1877,-62.0519"/>
<text text-anchor="middle" x="152" y="-41" font-family="Helvetica,sans-Serif" font-size="10.00" fill="#000000"> data</text>
</g>
</g>
</svg>
