<?xml version="1.0" encoding="UTF-8" standalone="no"?>
<!DOCTYPE svg PUBLIC "-//W3C//DTD SVG 1.1//EN"
 "http://www.w3.org/Graphics/SVG/1.1/DTD/svg11.dtd">
<!-- Generated by graphviz version 2.38.0 (20140413.2041)
 -->
<!-- Title: sll_t_xml_document Pages: 1 -->
<svg width="392pt" height="251pt"
 viewBox="0.00 0.00 391.50 251.00" xmlns="http://www.w3.org/2000/svg" xmlns:xlink="http://www.w3.org/1999/xlink">
<g id="graph0" class="graph" transform="scale(1 1) rotate(0) translate(4 247)">
<title>sll_t_xml_document</title>
<polygon fill="white" stroke="none" points="-4,4 -4,-247 387.5,-247 387.5,4 -4,4"/>
<!-- Node1 -->
<g id="node1" class="node"><title>Node1</title>
<polygon fill="#bfbfbf" stroke="black" points="0,-0.5 0,-19.5 104,-19.5 104,-0.5 0,-0.5"/>
<text text-anchor="middle" x="52" y="-7.5" font-family="Helvetica,sans-Serif" font-size="10.00">sll_t_xml_document</text>
</g>
<!-- Node2 -->
<g id="node2" class="node"><title>Node2</title>
<polygon fill="white" stroke="#bfbfbf" points="20.5,-218 20.5,-237 133.5,-237 133.5,-218 20.5,-218"/>
<text text-anchor="middle" x="77" y="-225" font-family="Helvetica,sans-Serif" font-size="10.00">character(len=maxlen)</text>
</g>
<!-- Node2&#45;&gt;Node1 -->
<g id="edge1" class="edge"><title>Node2&#45;&gt;Node1</title>
<path fill="none" stroke="#9a32cd" stroke-dasharray="5,2" d="M68.8243,-208.717C59.4541,-187.272 44.6619,-149.875 39,-116 33.0649,-80.4906 43.8383,-37.8059 49.2143,-19.748"/>
<polygon fill="#9a32cd" stroke="#9a32cd" points="65.6449,-210.181 72.925,-217.879 72.034,-207.321 65.6449,-210.181"/>
<text text-anchor="middle" x="68" y="-108" font-family="Helvetica,sans-Serif" font-size="10.00"> header_lines</text>
</g>
<!-- Node3 -->
<g id="node3" class="node"><title>Node3</title>
<g id="a_node3"><a xlink:href="structsll__m__xml_1_1sll__t__xml__element.html" target="_top" xlink:title="XML element type. ">
<polygon fill="white" stroke="black" points="116.5,-67.5 116.5,-86.5 211.5,-86.5 211.5,-67.5 116.5,-67.5"/>
<text text-anchor="middle" x="164" y="-74.5" font-family="Helvetica,sans-Serif" font-size="10.00">sll_t_xml_element</text>
</a>
</g>
</g>
<!-- Node2&#45;&gt;Node3 -->
<g id="edge6" class="edge"><title>Node2&#45;&gt;Node3</title>
<path fill="none" stroke="#9a32cd" stroke-dasharray="5,2" d="M74.5036,-207.773C72.8143,-188.062 72.8732,-156.791 86,-134 98.9794,-111.465 125.105,-95.5996 143.534,-86.6433"/>
<polygon fill="#9a32cd" stroke="#9a32cd" points="71.044,-208.333 75.6147,-217.891 78.0022,-207.569 71.044,-208.333"/>
<text text-anchor="middle" x="100" y="-141.5" font-family="Helvetica,sans-Serif" font-size="10.00"> name</text>
</g>
<!-- Node5 -->
<g id="node5" class="node"><title>Node5</title>
<g id="a_node5"><a xlink:href="structsll__m__xml_1_1t__xml__attribute.html" target="_top" xlink:title="XML attribute type. ">
<polygon fill="white" stroke="black" points="123.5,-134.5 123.5,-153.5 204.5,-153.5 204.5,-134.5 123.5,-134.5"/>
<text text-anchor="middle" x="164" y="-141.5" font-family="Helvetica,sans-Serif" font-size="10.00">t_xml_attribute</text>
</a>
</g>
</g>
<!-- Node2&#45;&gt;Node5 -->
<g id="edge5" class="edge"><title>Node2&#45;&gt;Node5</title>
<path fill="none" stroke="#9a32cd" stroke-dasharray="5,2" d="M93.863,-210.703C112.031,-193.684 140.278,-167.223 154.756,-153.659"/>
<polygon fill="#9a32cd" stroke="#9a32cd" points="91.2157,-208.387 86.3105,-217.778 96.0014,-213.496 91.2157,-208.387"/>
<text text-anchor="middle" x="153" y="-186" font-family="Helvetica,sans-Serif" font-size="10.00"> attvalue</text>
<text text-anchor="middle" x="153" y="-175" font-family="Helvetica,sans-Serif" font-size="10.00">name</text>
</g>
<!-- Node3&#45;&gt;Node1 -->
<g id="edge2" class="edge"><title>Node3&#45;&gt;Node1</title>
<path fill="none" stroke="#9a32cd" stroke-dasharray="5,2" d="M140.075,-62.1151C117.885,-49.237 85.5584,-30.4758 66.8655,-19.6273"/>
<polygon fill="#9a32cd" stroke="#9a32cd" points="138.489,-65.2414 148.895,-67.2338 142.003,-59.1871 138.489,-65.2414"/>
<text text-anchor="middle" x="125" y="-41" font-family="Helvetica,sans-Serif" font-size="10.00"> root</text>
</g>
<!-- Node4 -->
<g id="node4" class="node"><title>Node4</title>
<g id="a_node4"><a xlink:href="structsll__m__xml_1_1c__xml__item.html" target="_top" xlink:title="Base class for all the XML entities which can appear in content. ">
<polygon fill="white" stroke="black" points="199.5,-218 199.5,-237 266.5,-237 266.5,-218 199.5,-218"/>
<text text-anchor="middle" x="233" y="-225" font-family="Helvetica,sans-Serif" font-size="10.00">c_xml_item</text>
</a>
</g>
</g>
<!-- Node4&#45;&gt;Node3 -->
<g id="edge3" class="edge"><title>Node4&#45;&gt;Node3</title>
<path fill="none" stroke="midnightblue" d="M234.48,-207.732C235.525,-182.136 233.842,-135.936 212,-105 206.265,-96.877 197.267,-90.8979 188.605,-86.6613"/>
<polygon fill="midnightblue" stroke="midnightblue" points="230.974,-207.722 233.87,-217.913 237.962,-208.14 230.974,-207.722"/>
</g>
<!-- Node6 -->
<g id="node6" class="node"><title>Node6</title>
<g id="a_node6"><a xlink:href="structsll__m__xml_1_1t__xml__content.html" target="_top" xlink:title="XML type: linked list of XML entities, used in element content. ">
<polygon fill="white" stroke="black" points="261,-134.5 261,-153.5 339,-153.5 339,-134.5 261,-134.5"/>
<text text-anchor="middle" x="300" y="-141.5" font-family="Helvetica,sans-Serif" font-size="10.00">t_xml_content</text>
</a>
</g>
</g>
<!-- Node4&#45;&gt;Node6 -->
<g id="edge8" class="edge"><title>Node4&#45;&gt;Node6</title>
<path fill="none" stroke="midnightblue" d="M246.75,-209.774C260.758,-192.734 281.932,-166.978 292.881,-153.659"/>
<polygon fill="midnightblue" stroke="midnightblue" points="243.817,-207.831 240.17,-217.778 249.224,-212.276 243.817,-207.831"/>
</g>
<!-- Node5&#45;&gt;Node3 -->
<g id="edge4" class="edge"><title>Node5&#45;&gt;Node3</title>
<path fill="none" stroke="#9a32cd" stroke-dasharray="5,2" d="M164,-124.037C164,-111.67 164,-96.1198 164,-86.6273"/>
<polygon fill="#9a32cd" stroke="#9a32cd" points="160.5,-124.234 164,-134.234 167.5,-124.234 160.5,-124.234"/>
<text text-anchor="middle" x="186" y="-108" font-family="Helvetica,sans-Serif" font-size="10.00"> attributes</text>
</g>
<!-- Node6&#45;&gt;Node3 -->
<g id="edge7" class="edge"><title>Node6&#45;&gt;Node3</title>
<path fill="none" stroke="#9a32cd" stroke-dasharray="5,2" d="M282.191,-128.117C272.303,-120.413 259.503,-111.324 247,-105 231.585,-97.2033 213.44,-90.9964 198.053,-86.5094"/>
<polygon fill="#9a32cd" stroke="#9a32cd" points="280.061,-130.895 290.05,-134.426 284.443,-125.437 280.061,-130.895"/>
<text text-anchor="middle" x="284" y="-108" font-family="Helvetica,sans-Serif" font-size="10.00"> content</text>
</g>
<!-- Node6&#45;&gt;Node6 -->
<g id="edge10" class="edge"><title>Node6&#45;&gt;Node6</title>
<path fill="none" stroke="#9a32cd" stroke-dasharray="5,2" d="M349.275,-148.846C354.005,-147.862 357,-146.246 357,-144 357,-140.406 349.332,-138.427 339.162,-138.062"/>
<polygon fill="#9a32cd" stroke="#9a32cd" points="348.729,-145.385 339.162,-149.938 349.48,-152.345 348.729,-145.385"/>
<text text-anchor="middle" x="368" y="-141.5" font-family="Helvetica,sans-Serif" font-size="10.00"> next</text>
</g>
<!-- Node7 -->
<g id="node7" class="node"><title>Node7</title>
<polygon fill="white" stroke="#bfbfbf" points="284.5,-212.5 284.5,-242.5 383.5,-242.5 383.5,-212.5 284.5,-212.5"/>
<text text-anchor="start" x="292.5" y="-230.5" font-family="Helvetica,sans-Serif" font-size="10.00">class(c_xml_item),</text>
<text text-anchor="middle" x="334" y="-219.5" font-family="Helvetica,sans-Serif" font-size="10.00"> pointer</text>
</g>
<!-- Node7&#45;&gt;Node6 -->
<g id="edge9" class="edge"><title>Node7&#45;&gt;Node6</title>
<path fill="none" stroke="#9a32cd" stroke-dasharray="5,2" d="M324.079,-202.718C317.179,-186.178 308.384,-165.098 303.562,-153.539"/>
<polygon fill="#9a32cd" stroke="#9a32cd" points="320.997,-204.422 328.078,-212.304 327.458,-201.727 320.997,-204.422"/>
<text text-anchor="middle" x="331" y="-180.5" font-family="Helvetica,sans-Serif" font-size="10.00"> item</text>
</g>
</g>
</svg>
