<?xml version="1.0" encoding="UTF-8" standalone="no"?>
<!DOCTYPE svg PUBLIC "-//W3C//DTD SVG 1.1//EN"
 "http://www.w3.org/Graphics/SVG/1.1/DTD/svg11.dtd">
<!-- Generated by graphviz version 2.38.0 (20140413.2041)
 -->
<!-- Title: sll_t_poisson_2d_fem_sps_weak_form Pages: 1 -->
<svg width="119pt" height="106pt"
 viewBox="0.00 0.00 119.00 106.00" xmlns="http://www.w3.org/2000/svg" xmlns:xlink="http://www.w3.org/1999/xlink">
<g id="graph0" class="graph" transform="scale(1 1) rotate(0) translate(4 102)">
<title>sll_t_poisson_2d_fem_sps_weak_form</title>
<polygon fill="white" stroke="none" points="-4,4 -4,-102 115,-102 115,4 -4,4"/>
<!-- Node1 -->
<g id="node1" class="node"><title>Node1</title>
<polygon fill="#bfbfbf" stroke="black" points="-7.10543e-15,-0.5 -7.10543e-15,-30.5 111,-30.5 111,-0.5 -7.10543e-15,-0.5"/>
<text text-anchor="start" x="8" y="-18.5" font-family="Helvetica,sans-Serif" font-size="10.00">sll_t_poisson_2d_fem</text>
<text text-anchor="middle" x="55.5" y="-7.5" font-family="Helvetica,sans-Serif" font-size="10.00">_sps_weak_form</text>
</g>
<!-- Node2 -->
<g id="node2" class="node"><title>Node2</title>
<g id="a_node2"><a xlink:href="structsll__m__ellipt__2d__fem__sps__weak__form_1_1sll__c__ellipt__2d__fem__sps__weak__form.html" target="_top" xlink:title="sll_c_ellipt_2d_fem\l_sps_weak_form">
<polygon fill="white" stroke="black" points="5.5,-67.5 5.5,-97.5 105.5,-97.5 105.5,-67.5 5.5,-67.5"/>
<text text-anchor="start" x="13.5" y="-85.5" font-family="Helvetica,sans-Serif" font-size="10.00">sll_c_ellipt_2d_fem</text>
<text text-anchor="middle" x="55.5" y="-74.5" font-family="Helvetica,sans-Serif" font-size="10.00">_sps_weak_form</text>
</a>
</g>
</g>
<!-- Node2&#45;&gt;Node1 -->
<g id="edge1" class="edge"><title>Node2&#45;&gt;Node1</title>
<path fill="none" stroke="midnightblue" d="M55.5,-57.1081C55.5,-48.1539 55.5,-38.3227 55.5,-30.5765"/>
<polygon fill="midnightblue" stroke="midnightblue" points="52.0001,-57.3959 55.5,-67.396 59.0001,-57.396 52.0001,-57.3959"/>
</g>
</g>
</svg>
