<?xml version="1.0" encoding="UTF-8" standalone="no"?>
<!DOCTYPE svg PUBLIC "-//W3C//DTD SVG 1.1//EN"
 "http://www.w3.org/Graphics/SVG/1.1/DTD/svg11.dtd">
<!-- Generated by graphviz version 2.38.0 (20140413.2041)
 -->
<!-- Title: sll_t_cubic_spline_interpolator_2d Pages: 1 -->
<svg width="546pt" height="318pt"
 viewBox="0.00 0.00 546.00 318.00" xmlns="http://www.w3.org/2000/svg" xmlns:xlink="http://www.w3.org/1999/xlink">
<g id="graph0" class="graph" transform="scale(1 1) rotate(0) translate(4 314)">
<title>sll_t_cubic_spline_interpolator_2d</title>
<polygon fill="white" stroke="none" points="-4,4 -4,-314 542,-314 542,4 -4,4"/>
<!-- Node1 -->
<g id="node1" class="node"><title>Node1</title>
<polygon fill="#bfbfbf" stroke="black" points="132,-0.5 132,-30.5 226,-30.5 226,-0.5 132,-0.5"/>
<text text-anchor="start" x="140" y="-18.5" font-family="Helvetica,sans-Serif" font-size="10.00">sll_t_cubic_spline</text>
<text text-anchor="middle" x="179" y="-7.5" font-family="Helvetica,sans-Serif" font-size="10.00">_interpolator_2d</text>
</g>
<!-- Node2 -->
<g id="node2" class="node"><title>Node2</title>
<g id="a_node2"><a xlink:href="structsll__m__interpolators__2d__base_1_1sll__c__interpolator__2d.html" target="_top" xlink:title="Base class/basic interface for 2D interpolators. ">
<polygon fill="white" stroke="black" points="0,-90.5 0,-109.5 106,-109.5 106,-90.5 0,-90.5"/>
<text text-anchor="middle" x="53" y="-97.5" font-family="Helvetica,sans-Serif" font-size="10.00">sll_c_interpolator_2d</text>
</a>
</g>
</g>
<!-- Node2&#45;&gt;Node1 -->
<g id="edge1" class="edge"><title>Node2&#45;&gt;Node1</title>
<path fill="none" stroke="midnightblue" d="M74.2187,-84.6853C89.1954,-74.6232 109.761,-60.8892 128,-49 137.323,-42.9226 147.669,-36.306 156.593,-30.6386"/>
<polygon fill="midnightblue" stroke="midnightblue" points="72.0292,-81.94 65.6866,-90.4267 75.9372,-87.7476 72.0292,-81.94"/>
</g>
<!-- Node3 -->
<g id="node3" class="node"><title>Node3</title>
<g id="a_node3"><a xlink:href="structsll__m__cubic__splines_1_1sll__t__cubic__spline__2d.html" target="_top" xlink:title="Basic type for one&#45;dimensional cubic spline data. ">
<polygon fill="white" stroke="black" points="203,-90.5 203,-109.5 313,-109.5 313,-90.5 203,-90.5"/>
<text text-anchor="middle" x="258" y="-97.5" font-family="Helvetica,sans-Serif" font-size="10.00">sll_t_cubic_spline_2d</text>
</a>
</g>
</g>
<!-- Node3&#45;&gt;Node1 -->
<g id="edge2" class="edge"><title>Node3&#45;&gt;Node1</title>
<path fill="none" stroke="#9a32cd" stroke-dasharray="5,2" d="M242.573,-82.8891C228.01,-67.6811 206.391,-45.1043 192.496,-30.5944"/>
<polygon fill="#9a32cd" stroke="#9a32cd" points="240.399,-85.6798 249.843,-90.4818 245.455,-80.8385 240.399,-85.6798"/>
<text text-anchor="middle" x="233.5" y="-52" font-family="Helvetica,sans-Serif" font-size="10.00"> spline</text>
</g>
<!-- Node4 -->
<g id="node4" class="node"><title>Node4</title>
<polygon fill="white" stroke="#bfbfbf" points="102.5,-290.5 102.5,-309.5 191.5,-309.5 191.5,-290.5 102.5,-290.5"/>
<text text-anchor="middle" x="147" y="-297.5" font-family="Helvetica,sans-Serif" font-size="10.00">integer(kind=i32)</text>
</g>
<!-- Node4&#45;&gt;Node1 -->
<g id="edge6" class="edge"><title>Node4&#45;&gt;Node1</title>
<path fill="none" stroke="#9a32cd" stroke-dasharray="5,2" d="M144.804,-280.212C140.853,-241.701 134.411,-151.263 151,-78 154.886,-60.837 163.831,-42.6726 170.573,-30.5727"/>
<polygon fill="#9a32cd" stroke="#9a32cd" points="141.354,-280.861 145.922,-290.421 148.312,-280.099 141.354,-280.861"/>
<text text-anchor="middle" x="172.5" y="-114" font-family="Helvetica,sans-Serif" font-size="10.00"> bc_type2</text>
<text text-anchor="middle" x="172.5" y="-103" font-family="Helvetica,sans-Serif" font-size="10.00">npts1</text>
<text text-anchor="middle" x="172.5" y="-92" font-family="Helvetica,sans-Serif" font-size="10.00">npts2</text>
<text text-anchor="middle" x="172.5" y="-81" font-family="Helvetica,sans-Serif" font-size="10.00">bc_type1</text>
</g>
<!-- Node4&#45;&gt;Node3 -->
<g id="edge3" class="edge"><title>Node4&#45;&gt;Node3</title>
<path fill="none" stroke="#9a32cd" stroke-dasharray="5,2" d="M151.679,-280.456C161.751,-240.989 185.278,-151.344 194,-140 204.707,-126.075 221.919,-115.991 235.798,-109.569"/>
<polygon fill="#9a32cd" stroke="#9a32cd" points="148.235,-279.798 149.167,-290.352 155.02,-281.52 148.235,-279.798"/>
<text text-anchor="middle" x="222.5" y="-220" font-family="Helvetica,sans-Serif" font-size="10.00"> num_pts_x1</text>
<text text-anchor="middle" x="222.5" y="-209" font-family="Helvetica,sans-Serif" font-size="10.00">num_pts_x2</text>
<text text-anchor="middle" x="222.5" y="-198" font-family="Helvetica,sans-Serif" font-size="10.00">x1_bc_type</text>
<text text-anchor="middle" x="222.5" y="-187" font-family="Helvetica,sans-Serif" font-size="10.00">x2_bc_type</text>
</g>
<!-- Node5 -->
<g id="node5" class="node"><title>Node5</title>
<polygon fill="white" stroke="#bfbfbf" points="215,-290.5 215,-309.5 295,-309.5 295,-290.5 215,-290.5"/>
<text text-anchor="middle" x="255" y="-297.5" font-family="Helvetica,sans-Serif" font-size="10.00">logical, private</text>
</g>
<!-- Node5&#45;&gt;Node3 -->
<g id="edge4" class="edge"><title>Node5&#45;&gt;Node3</title>
<path fill="none" stroke="#9a32cd" stroke-dasharray="5,2" d="M254.845,-280.21C254.661,-250.454 254.542,-190.668 256,-140 256.3,-129.564 256.963,-117.57 257.444,-109.67"/>
<polygon fill="#9a32cd" stroke="#9a32cd" points="251.346,-280.405 254.918,-290.38 258.346,-280.355 251.346,-280.405"/>
<text text-anchor="middle" x="313.5" y="-220" font-family="Helvetica,sans-Serif" font-size="10.00"> compute_slopes_x1_max</text>
<text text-anchor="middle" x="313.5" y="-209" font-family="Helvetica,sans-Serif" font-size="10.00">compute_slopes_x2_max</text>
<text text-anchor="middle" x="313.5" y="-198" font-family="Helvetica,sans-Serif" font-size="10.00">compute_slopes_x1_min</text>
<text text-anchor="middle" x="313.5" y="-187" font-family="Helvetica,sans-Serif" font-size="10.00">compute_slopes_x2_min</text>
</g>
<!-- Node6 -->
<g id="node6" class="node"><title>Node6</title>
<polygon fill="white" stroke="#bfbfbf" points="397,-290.5 397,-309.5 473,-309.5 473,-290.5 397,-290.5"/>
<text text-anchor="middle" x="435" y="-297.5" font-family="Helvetica,sans-Serif" font-size="10.00">real(kind=f64)</text>
</g>
<!-- Node6&#45;&gt;Node1 -->
<g id="edge7" class="edge"><title>Node6&#45;&gt;Node1</title>
<path fill="none" stroke="#9a32cd" stroke-dasharray="5,2" d="M455.444,-283.294C458.521,-279.927 461.247,-276.125 463,-272 485.943,-218.005 495.065,-189.128 463,-140 410.324,-59.2943 292.177,-31.0593 226.07,-21.3834"/>
<polygon fill="#9a32cd" stroke="#9a32cd" points="452.844,-280.933 447.921,-290.315 457.62,-286.051 452.844,-280.933"/>
<text text-anchor="middle" x="494" y="-97.5" font-family="Helvetica,sans-Serif" font-size="10.00"> interpolation_points</text>
</g>
<!-- Node6&#45;&gt;Node3 -->
<g id="edge5" class="edge"><title>Node6&#45;&gt;Node3</title>
<path fill="none" stroke="#9a32cd" stroke-dasharray="5,2" d="M406.8,-284.925C401.881,-281.325 397.294,-277.022 394,-272 361.341,-222.204 409.613,-185.336 371,-140 356.467,-122.936 334.084,-113.329 313.062,-107.924"/>
<polygon fill="#9a32cd" stroke="#9a32cd" points="404.913,-287.873 415.221,-290.321 408.69,-281.979 404.913,-287.873"/>
<text text-anchor="middle" x="428.5" y="-264" font-family="Helvetica,sans-Serif" font-size="10.00"> d1</text>
<text text-anchor="middle" x="428.5" y="-253" font-family="Helvetica,sans-Serif" font-size="10.00">x2_min</text>
<text text-anchor="middle" x="428.5" y="-242" font-family="Helvetica,sans-Serif" font-size="10.00">x1_max</text>
<text text-anchor="middle" x="428.5" y="-231" font-family="Helvetica,sans-Serif" font-size="10.00">x1_min_slopes</text>
<text text-anchor="middle" x="428.5" y="-220" font-family="Helvetica,sans-Serif" font-size="10.00">d2</text>
<text text-anchor="middle" x="428.5" y="-209" font-family="Helvetica,sans-Serif" font-size="10.00">x2_max</text>
<text text-anchor="start" x="394" y="-198" font-family="Helvetica,sans-Serif" font-size="10.00">x2_min_slopes</text>
<text text-anchor="middle" x="428.5" y="-187" font-family="Helvetica,sans-Serif" font-size="10.00">_coeffs</text>
<text text-anchor="middle" x="428.5" y="-176" font-family="Helvetica,sans-Serif" font-size="10.00">x2_rdelta</text>
<text text-anchor="middle" x="428.5" y="-165" font-family="Helvetica,sans-Serif" font-size="10.00">x2_max_slopes</text>
<text text-anchor="middle" x="428.5" y="-154" font-family="Helvetica,sans-Serif" font-size="10.00">x1_delta</text>
<text text-anchor="middle" x="428.5" y="-143" font-family="Helvetica,sans-Serif" font-size="10.00">...</text>
</g>
</g>
</svg>
