<?xml version="1.0" encoding="UTF-8" standalone="no"?>
<!DOCTYPE svg PUBLIC "-//W3C//DTD SVG 1.1//EN"
 "http://www.w3.org/Graphics/SVG/1.1/DTD/svg11.dtd">
<!-- Generated by graphviz version 2.43.0 (0)
 -->
<!-- Title: sll_t_linear_operator_poisson_clamped_1d Pages: 1 -->
<svg width="401pt" height="409pt"
 viewBox="0.00 0.00 400.73 409.00" xmlns="http://www.w3.org/2000/svg" xmlns:xlink="http://www.w3.org/1999/xlink">
<g id="graph0" class="graph" transform="scale(1 1) rotate(0) translate(4 405)">
<title>sll_t_linear_operator_poisson_clamped_1d</title>
<polygon fill="white" stroke="transparent" points="-4,4 -4,-405 396.73,-405 396.73,4 -4,4"/>
<!-- Node1 -->
<g id="node1" class="node">
<title>Node1</title>
<g id="a_node1"><a xlink:title=" ">
<polygon fill="#bfbfbf" stroke="black" points="185.73,-0.5 185.73,-30.5 309.73,-30.5 309.73,-0.5 185.73,-0.5"/>
<text text-anchor="start" x="193.73" y="-18.5" font-family="Helvetica,sans-Serif" font-size="10.00">sll_t_linear_operator</text>
<text text-anchor="middle" x="247.73" y="-7.5" font-family="Helvetica,sans-Serif" font-size="10.00">_poisson_clamped_1d</text>
</a>
</g>
</g>
<!-- Node2 -->
<g id="node2" class="node">
<title>Node2</title>
<g id="a_node2"><a xlink:href="structsll__m__linear__operator__abstract_1_1sll__t__linear__operator__abstract.html" target="_top" xlink:title="class for abstract linear operator">
<polygon fill="white" stroke="black" points="16.73,-215.5 16.73,-245.5 132.73,-245.5 132.73,-215.5 16.73,-215.5"/>
<text text-anchor="start" x="24.73" y="-233.5" font-family="Helvetica,sans-Serif" font-size="10.00">sll_t_linear_operator</text>
<text text-anchor="middle" x="74.73" y="-222.5" font-family="Helvetica,sans-Serif" font-size="10.00">_abstract</text>
</a>
</g>
</g>
<!-- Node2&#45;&gt;Node1 -->
<g id="edge1" class="edge">
<title>Node2&#45;&gt;Node1</title>
<path fill="none" stroke="midnightblue" d="M42.96,-209.57C17.63,-191.03 -11.18,-162.25 4.73,-135 42.36,-70.55 126.99,-40.45 185.71,-26.89"/>
<polygon fill="midnightblue" stroke="midnightblue" points="41.15,-212.58 51.35,-215.45 45.17,-206.84 41.15,-212.58"/>
</g>
<!-- Node6 -->
<g id="node6" class="node">
<title>Node6</title>
<g id="a_node6"><a xlink:href="structsll__m__matrix__abstract_1_1sll__t__matrix__abstract.html" target="_top" xlink:title="abstract class for matrix">
<polygon fill="white" stroke="black" points="14.23,-136.5 14.23,-155.5 133.23,-155.5 133.23,-136.5 14.23,-136.5"/>
<text text-anchor="middle" x="73.73" y="-143.5" font-family="Helvetica,sans-Serif" font-size="10.00">sll_t_matrix_abstract</text>
</a>
</g>
</g>
<!-- Node2&#45;&gt;Node6 -->
<g id="edge6" class="edge">
<title>Node2&#45;&gt;Node6</title>
<path fill="none" stroke="midnightblue" d="M74.43,-204.95C74.23,-188.28 73.98,-167.23 73.84,-155.64"/>
<polygon fill="midnightblue" stroke="midnightblue" points="70.94,-205.17 74.56,-215.13 77.93,-205.09 70.94,-205.17"/>
</g>
<!-- Node3 -->
<g id="node3" class="node">
<title>Node3</title>
<g id="a_node3"><a xlink:title=" ">
<polygon fill="white" stroke="#bfbfbf" points="99.23,-381.5 99.23,-400.5 148.23,-400.5 148.23,-381.5 99.23,-381.5"/>
<text text-anchor="middle" x="123.73" y="-388.5" font-family="Helvetica,sans-Serif" font-size="10.00">logical</text>
</a>
</g>
</g>
<!-- Node3&#45;&gt;Node2 -->
<g id="edge2" class="edge">
<title>Node3&#45;&gt;Node2</title>
<path fill="none" stroke="#9a32cd" stroke-dasharray="5,2" d="M94.47,-375.74C89.82,-372.21 85.61,-367.98 82.73,-363 60.96,-325.39 67.1,-271.17 71.71,-245.71"/>
<polygon fill="#9a32cd" stroke="#9a32cd" points="92.8,-378.83 103.09,-381.35 96.61,-372.96 92.8,-378.83"/>
<text text-anchor="middle" x="113.73" y="-311" font-family="Helvetica,sans-Serif" font-size="10.00"> is_allocated</text>
</g>
<!-- Node5 -->
<g id="node5" class="node">
<title>Node5</title>
<g id="a_node5"><a xlink:href="structsll__m__matrix__csr_1_1sll__t__matrix__csr.html" target="_top" xlink:title="class for a csr matrix">
<polygon fill="white" stroke="black" points="114.73,-78.5 114.73,-97.5 208.73,-97.5 208.73,-78.5 114.73,-78.5"/>
<text text-anchor="middle" x="161.73" y="-85.5" font-family="Helvetica,sans-Serif" font-size="10.00">sll_t_matrix_csr</text>
</a>
</g>
</g>
<!-- Node3&#45;&gt;Node5 -->
<g id="edge7" class="edge">
<title>Node3&#45;&gt;Node5</title>
<path fill="none" stroke="#9a32cd" stroke-dasharray="5,2" d="M138.99,-373.5C141.28,-370.22 143.35,-366.66 144.73,-363 181.82,-264.92 167.72,-133.06 163.02,-97.91"/>
<polygon fill="#9a32cd" stroke="#9a32cd" points="136.2,-371.38 132.65,-381.36 141.65,-375.77 136.2,-371.38"/>
<text text-anchor="middle" x="209.23" y="-189" font-family="Helvetica,sans-Serif" font-size="10.00"> is_allocated_ia</text>
<text text-anchor="middle" x="209.23" y="-178" font-family="Helvetica,sans-Serif" font-size="10.00">is_allocated_jaa</text>
</g>
<!-- Node4 -->
<g id="node4" class="node">
<title>Node4</title>
<g id="a_node4"><a xlink:title=" ">
<polygon fill="white" stroke="#bfbfbf" points="174.23,-381.5 174.23,-400.5 277.23,-400.5 277.23,-381.5 174.23,-381.5"/>
<text text-anchor="middle" x="225.73" y="-388.5" font-family="Helvetica,sans-Serif" font-size="10.00">integer(kind=i32)</text>
</a>
</g>
</g>
<!-- Node4&#45;&gt;Node1 -->
<g id="edge8" class="edge">
<title>Node4&#45;&gt;Node1</title>
<path fill="none" stroke="#9a32cd" stroke-dasharray="5,2" d="M251.87,-375.32C256.12,-371.81 260.02,-367.7 262.73,-363 292.1,-312.09 276.73,-290.27 276.73,-231.5 276.73,-231.5 276.73,-231.5 276.73,-87 276.73,-66.22 265.82,-44.41 257.39,-30.65"/>
<polygon fill="#9a32cd" stroke="#9a32cd" points="249.58,-372.66 243.46,-381.3 253.63,-378.36 249.58,-372.66"/>
<text text-anchor="middle" x="296.73" y="-149" font-family="Helvetica,sans-Serif" font-size="10.00"> n_dofs</text>
<text text-anchor="middle" x="296.73" y="-138" font-family="Helvetica,sans-Serif" font-size="10.00">s_deg_0</text>
</g>
<!-- Node4&#45;&gt;Node2 -->
<g id="edge3" class="edge">
<title>Node4&#45;&gt;Node2</title>
<path fill="none" stroke="#9a32cd" stroke-dasharray="5,2" d="M204.51,-375.12C200.25,-371.49 196.07,-367.38 192.73,-363 163.53,-324.72 182.85,-297.97 148.73,-264 140.97,-256.28 131.07,-250.24 121.06,-245.59"/>
<polygon fill="#9a32cd" stroke="#9a32cd" points="202.55,-378.03 212.57,-381.45 206.87,-372.52 202.55,-378.03"/>
<text text-anchor="middle" x="227.73" y="-355" font-family="Helvetica,sans-Serif" font-size="10.00"> id_cols</text>
<text text-anchor="middle" x="227.73" y="-344" font-family="Helvetica,sans-Serif" font-size="10.00">id_rows</text>
<text text-anchor="middle" x="227.73" y="-333" font-family="Helvetica,sans-Serif" font-size="10.00">n_block_cols</text>
<text text-anchor="middle" x="227.73" y="-322" font-family="Helvetica,sans-Serif" font-size="10.00">n_block_rows</text>
<text text-anchor="middle" x="227.73" y="-311" font-family="Helvetica,sans-Serif" font-size="10.00">n_cols</text>
<text text-anchor="middle" x="227.73" y="-300" font-family="Helvetica,sans-Serif" font-size="10.00">n_dof</text>
<text text-anchor="middle" x="227.73" y="-289" font-family="Helvetica,sans-Serif" font-size="10.00">n_global_cols</text>
<text text-anchor="middle" x="227.73" y="-278" font-family="Helvetica,sans-Serif" font-size="10.00">n_global_rows</text>
<text text-anchor="middle" x="227.73" y="-267" font-family="Helvetica,sans-Serif" font-size="10.00">n_rows</text>
</g>
<!-- Node5&#45;&gt;Node1 -->
<g id="edge4" class="edge">
<title>Node5&#45;&gt;Node1</title>
<path fill="none" stroke="#9a32cd" stroke-dasharray="5,2" d="M180.29,-71.78C195.21,-59.55 216.02,-42.5 230.56,-30.58"/>
<polygon fill="#9a32cd" stroke="#9a32cd" points="177.79,-69.31 172.28,-78.36 182.23,-74.72 177.79,-69.31"/>
<text text-anchor="middle" x="222.73" y="-52" font-family="Helvetica,sans-Serif" font-size="10.00"> mass</text>
</g>
<!-- Node6&#45;&gt;Node5 -->
<g id="edge5" class="edge">
<title>Node6&#45;&gt;Node5</title>
<path fill="none" stroke="midnightblue" d="M95.6,-131.08C112.11,-120.58 134.23,-106.5 148.24,-97.59"/>
<polygon fill="midnightblue" stroke="midnightblue" points="93.65,-128.17 87.1,-136.49 97.41,-134.08 93.65,-128.17"/>
</g>
<!-- Node7 -->
<g id="node7" class="node">
<title>Node7</title>
<g id="a_node7"><a xlink:title=" ">
<polygon fill="white" stroke="#bfbfbf" points="304.73,-78.5 304.73,-97.5 392.73,-97.5 392.73,-78.5 304.73,-78.5"/>
<text text-anchor="middle" x="348.73" y="-85.5" font-family="Helvetica,sans-Serif" font-size="10.00">real(kind=f64)</text>
</a>
</g>
</g>
<!-- Node7&#45;&gt;Node1 -->
<g id="edge9" class="edge">
<title>Node7&#45;&gt;Node1</title>
<path fill="none" stroke="#9a32cd" stroke-dasharray="5,2" d="M327.91,-72.47C310.32,-60.19 285.29,-42.72 267.9,-30.58"/>
<polygon fill="#9a32cd" stroke="#9a32cd" points="326.14,-75.5 336.35,-78.36 330.15,-69.76 326.14,-75.5"/>
<text text-anchor="middle" x="326.73" y="-52" font-family="Helvetica,sans-Serif" font-size="10.00"> delta_x</text>
</g>
</g>
</svg>
