<?xml version="1.0" encoding="UTF-8" standalone="no"?>
<!DOCTYPE svg PUBLIC "-//W3C//DTD SVG 1.1//EN"
 "http://www.w3.org/Graphics/SVG/1.1/DTD/svg11.dtd">
<!-- Generated by graphviz version 2.43.0 (0)
 -->
<!-- Title: sll_c_particle_mesh_coupling_1d Pages: 1 -->
<!--zoomable 186 -->
<svg id="main" version="1.1" xmlns="http://www.w3.org/2000/svg" xmlns:xlink="http://www.w3.org/1999/xlink" xml:space="preserve" onload="init(evt)">
<style type="text/css"><![CDATA[
.edge:hover path { stroke: red; }
.edge:hover polygon { stroke: red; fill: red; }
]]></style>
<script type="text/javascript"><![CDATA[
var edges = document.getElementsByTagName('g');
if (edges && edges.length) {
  for (var i=0;i<edges.length;i++) {
    if (edges[i].id.substr(0,4)=='edge') {
      edges[i].setAttribute('class','edge');
    }
  }
}
]]></script>
        <defs>
                <circle id="rim" cx="0" cy="0" r="7"/>
                <circle id="rim2" cx="0" cy="0" r="3.5"/>
                <g id="zoomPlus">
                        <use xlink:href="#rim" fill="#404040">
                                <set attributeName="fill" to="#808080" begin="zoomplus.mouseover" end="zoomplus.mouseout"/>
                        </use>
                        <path d="M-4,0h8M0,-4v8" fill="none" stroke="white" stroke-width="1.5" pointer-events="none"/>
                </g>
                <g id="zoomMin">
                        <use xlink:href="#rim" fill="#404040">
                                <set attributeName="fill" to="#808080" begin="zoomminus.mouseover" end="zoomminus.mouseout"/>
                        </use>
                        <path d="M-4,0h8" fill="none" stroke="white" stroke-width="1.5" pointer-events="none"/>
                </g>
                <g id="dirArrow">
                        <path fill="none" stroke="white" stroke-width="1.5" d="M0,-3.0v7 M-2.5,-0.5L0,-3.0L2.5,-0.5"/>
                </g>
               <g id="resetDef">
                       <use xlink:href="#rim2" fill="#404040">
                               <set attributeName="fill" to="#808080" begin="reset.mouseover" end="reset.mouseout"/>
                       </use>
               </g>
        </defs>

<script type="text/javascript">
var viewWidth = 501;
var viewHeight = 186;
var sectionId = 'dynsection-0';
</script>
<script xlink:href="svgpan.js"/>
<svg id="graph" class="graph">
<g id="viewport">
<title>sll_c_particle_mesh_coupling_1d</title>
<polygon fill="white" stroke="transparent" points="-4,4 -4,-182 497,-182 497,4 -4,4"/>
<!-- Node1 -->
<g id="node1" class="node">
<title>Node1</title>
<g id="a_node1"><a xlink:title="Basic type of a kernel smoother used for PIC simulations.">
<polygon fill="#bfbfbf" stroke="black" points="0,-73.5 0,-103.5 113,-103.5 113,-73.5 0,-73.5"/>
<text text-anchor="start" x="8" y="-91.5" font-family="Helvetica,sans-Serif" font-size="10.00">sll_c_particle_mesh</text>
<text text-anchor="middle" x="56.5" y="-80.5" font-family="Helvetica,sans-Serif" font-size="10.00">_coupling_1d</text>
</a>
</g>
</g>
<!-- Node2 -->
<g id="node2" class="node">
<title>Node2</title>
<g id="a_node2"><a xlink:href="structsll__m__particle__mesh__coupling__spline__1d_1_1sll__t__particle__mesh__coupling__spline__1d.html" target="_top" xlink:title="Spline kernel smoother in1d.">
<polygon fill="white" stroke="black" points="167,-147.5 167,-177.5 282,-177.5 282,-147.5 167,-147.5"/>
<text text-anchor="start" x="175" y="-165.5" font-family="Helvetica,sans-Serif" font-size="10.00">sll_t_particle_mesh</text>
<text text-anchor="middle" x="224.5" y="-154.5" font-family="Helvetica,sans-Serif" font-size="10.00">_coupling_spline_1d</text>
</a>
</g>
</g>
<!-- Node1&#45;&gt;Node2 -->
<g id="edge1" class="edge">
<title>Node1&#45;&gt;Node2</title>
<path fill="none" stroke="midnightblue" d="M91.08,-108.83C108.06,-118.6 129.21,-130 149,-138.5 156.49,-141.72 164.56,-144.75 172.53,-147.5"/>
<polygon fill="midnightblue" stroke="midnightblue" points="92.51,-105.62 82.11,-103.6 88.98,-111.66 92.51,-105.62"/>
</g>
<!-- Node4 -->
<g id="node4" class="node">
<title>Node4</title>
<g id="a_node4"><a xlink:href="structsll__m__particle__mesh__coupling__spline__2d_1_1sll__t__particle__mesh__coupling__spline__2d.html" target="_top" xlink:title="Spline kernel smoother in 2d.">
<polygon fill="white" stroke="black" points="167,-98.5 167,-128.5 282,-128.5 282,-98.5 167,-98.5"/>
<text text-anchor="start" x="175" y="-116.5" font-family="Helvetica,sans-Serif" font-size="10.00">sll_t_particle_mesh</text>
<text text-anchor="middle" x="224.5" y="-105.5" font-family="Helvetica,sans-Serif" font-size="10.00">_coupling_spline_2d</text>
</a>
</g>
</g>
<!-- Node1&#45;&gt;Node4 -->
<g id="edge3" class="edge">
<title>Node1&#45;&gt;Node4</title>
<path fill="none" stroke="midnightblue" d="M123.51,-98.44C137.83,-100.6 152.85,-102.86 166.78,-104.96"/>
<polygon fill="midnightblue" stroke="midnightblue" points="123.65,-94.92 113.24,-96.89 122.6,-101.84 123.65,-94.92"/>
</g>
<!-- Node5 -->
<g id="node5" class="node">
<title>Node5</title>
<g id="a_node5"><a xlink:href="structsll__m__particle__mesh__coupling__spline__cl__1d_1_1sll__t__particle__mesh__coupling__spline__cl__1d.html" target="_top" xlink:title="Spline kernel smoother in1d.">
<polygon fill="white" stroke="black" points="160.5,-49.5 160.5,-79.5 288.5,-79.5 288.5,-49.5 160.5,-49.5"/>
<text text-anchor="start" x="168.5" y="-67.5" font-family="Helvetica,sans-Serif" font-size="10.00">sll_t_particle_mesh</text>
<text text-anchor="middle" x="224.5" y="-56.5" font-family="Helvetica,sans-Serif" font-size="10.00">_coupling_spline_cl_1d</text>
</a>
</g>
</g>
<!-- Node1&#45;&gt;Node5 -->
<g id="edge4" class="edge">
<title>Node1&#45;&gt;Node5</title>
<path fill="none" stroke="midnightblue" d="M123.36,-78.98C135.59,-77.21 148.33,-75.37 160.47,-73.61"/>
<polygon fill="midnightblue" stroke="midnightblue" points="122.63,-75.55 113.24,-80.44 123.64,-82.47 122.63,-75.55"/>
</g>
<!-- Node6 -->
<g id="node6" class="node">
<title>Node6</title>
<g id="a_node6"><a xlink:href="structsll__m__particle__mesh__coupling__spline__strong__1d_1_1sll__t__particle__mesh__coupling__spline__strong__1d.html" target="_top" xlink:title="Basic type of a kernel smoother used for PIC simulations.">
<polygon fill="white" stroke="black" points="149,-0.5 149,-30.5 300,-30.5 300,-0.5 149,-0.5"/>
<text text-anchor="start" x="157" y="-18.5" font-family="Helvetica,sans-Serif" font-size="10.00">sll_t_particle_mesh</text>
<text text-anchor="middle" x="224.5" y="-7.5" font-family="Helvetica,sans-Serif" font-size="10.00">_coupling_spline_strong_1d</text>
</a>
</g>
</g>
<!-- Node1&#45;&gt;Node6 -->
<g id="edge5" class="edge">
<title>Node1&#45;&gt;Node6</title>
<path fill="none" stroke="midnightblue" d="M92.67,-68.37C109.42,-59.22 129.93,-48.64 149,-40.5 157.28,-36.97 166.24,-33.59 174.99,-30.53"/>
<polygon fill="midnightblue" stroke="midnightblue" points="90.84,-65.38 83.78,-73.28 94.23,-71.51 90.84,-65.38"/>
</g>
<!-- Node3 -->
<g id="node3" class="node">
<title>Node3</title>
<g id="a_node3"><a xlink:href="structsll__m__particle__mesh__coupling__spline__smooth__1d_1_1sll__t__particle__mesh__coupling__spline__smooth__1d.html" target="_top" xlink:title="Spline kernel smoother in1d.">
<polygon fill="white" stroke="black" points="336,-147.5 336,-177.5 493,-177.5 493,-147.5 336,-147.5"/>
<text text-anchor="start" x="344" y="-165.5" font-family="Helvetica,sans-Serif" font-size="10.00">sll_t_particle_mesh</text>
<text text-anchor="middle" x="414.5" y="-154.5" font-family="Helvetica,sans-Serif" font-size="10.00">_coupling_spline_smooth_1d</text>
</a>
</g>
</g>
<!-- Node2&#45;&gt;Node3 -->
<g id="edge2" class="edge">
<title>Node2&#45;&gt;Node3</title>
<path fill="none" stroke="midnightblue" d="M292.24,-162.5C306.33,-162.5 321.32,-162.5 335.77,-162.5"/>
<polygon fill="midnightblue" stroke="midnightblue" points="292.16,-159 282.16,-162.5 292.16,-166 292.16,-159"/>
</g>
</g>
</svg>
        <g id="navigator" transform="translate(0 0)" fill="#404254">
                <rect fill="#f2f5e9" fill-opacity="0.5" stroke="#606060" stroke-width=".5" x="0" y="0" width="60" height="60"/>
                <use id="zoomplus" xlink:href="#zoomPlus" x="17" y="9" onmousedown="handleZoom(evt,'in')"/>
                <use id="zoomminus" xlink:href="#zoomMin" x="42" y="9" onmousedown="handleZoom(evt,'out')"/>
                <use id="reset" xlink:href="#resetDef" x="30" y="36" onmousedown="handleReset()"/>
                <g id="arrowUp" xlink:href="#dirArrow" transform="translate(30 24)" onmousedown="handlePan(0,-1)">
                  <use xlink:href="#rim" fill="#404040">
                        <set attributeName="fill" to="#808080" begin="arrowUp.mouseover" end="arrowUp.mouseout"/>
                  </use>
                  <path fill="none" stroke="white" stroke-width="1.5" d="M0,-3.0v7 M-2.5,-0.5L0,-3.0L2.5,-0.5"/>
                </g>
                <g id="arrowRight" xlink:href="#dirArrow" transform="rotate(90) translate(36 -43)" onmousedown="handlePan(1,0)">
                  <use xlink:href="#rim" fill="#404040">
                        <set attributeName="fill" to="#808080" begin="arrowRight.mouseover" end="arrowRight.mouseout"/>
                  </use>
                  <path fill="none" stroke="white" stroke-width="1.5" d="M0,-3.0v7 M-2.5,-0.5L0,-3.0L2.5,-0.5"/>
                </g>
                <g id="arrowDown" xlink:href="#dirArrow" transform="rotate(180) translate(-30 -48)" onmousedown="handlePan(0,1)">
                  <use xlink:href="#rim" fill="#404040">
                        <set attributeName="fill" to="#808080" begin="arrowDown.mouseover" end="arrowDown.mouseout"/>
                  </use>
                  <path fill="none" stroke="white" stroke-width="1.5" d="M0,-3.0v7 M-2.5,-0.5L0,-3.0L2.5,-0.5"/>
                </g>
                <g id="arrowLeft" xlink:href="#dirArrow" transform="rotate(270) translate(-36 17)" onmousedown="handlePan(-1,0)">
                  <use xlink:href="#rim" fill="#404040">
                        <set attributeName="fill" to="#808080" begin="arrowLeft.mouseover" end="arrowLeft.mouseout"/>
                  </use>
                  <path fill="none" stroke="white" stroke-width="1.5" d="M0,-3.0v7 M-2.5,-0.5L0,-3.0L2.5,-0.5"/>
                </g>
        </g>
        <svg viewBox="0 0 15 15" width="100%" height="30px" preserveAspectRatio="xMaxYMin meet">
         <g id="arrow_out" transform="scale(0.3 0.3)">
          <a xlink:href="structsll__m__particle__mesh__coupling__base__1d_1_1sll__c__particle__mesh__coupling__1d__inherit__graph_org.svg" target="_base">
           <rect id="button" ry="5" rx="5" y="6" x="6" height="38" width="38"
                fill="#f2f5e9" fill-opacity="0.5" stroke="#606060" stroke-width="1.0"/>
           <path id="arrow"
             d="M 11.500037,31.436501 C 11.940474,20.09759 22.043105,11.32322 32.158766,21.979434 L 37.068811,17.246167 C 37.068811,17.246167 37.088388,32 37.088388,32 L 22.160133,31.978069 C 22.160133,31.978069 26.997745,27.140456 26.997745,27.140456 C 18.528582,18.264221 13.291696,25.230495 11.500037,31.436501 z"
             style="fill:#404040;"/>
          </a>
         </g>
        </svg>
</svg>
