<?xml version="1.0" encoding="UTF-8" standalone="no"?>
<!DOCTYPE svg PUBLIC "-//W3C//DTD SVG 1.1//EN"
 "http://www.w3.org/Graphics/SVG/1.1/DTD/svg11.dtd">
<!-- Generated by graphviz version 2.43.0 (0)
 -->
<!-- Title: sll_c_particle_group_base Pages: 1 -->
<svg width="327pt" height="192pt"
 viewBox="0.00 0.00 327.00 192.00" xmlns="http://www.w3.org/2000/svg" xmlns:xlink="http://www.w3.org/1999/xlink">
<g id="graph0" class="graph" transform="scale(1 1) rotate(0) translate(4 188)">
<title>sll_c_particle_group_base</title>
<polygon fill="white" stroke="transparent" points="-4,4 -4,-188 323,-188 323,4 -4,4"/>
<!-- Node1 -->
<g id="node1" class="node">
<title>Node1</title>
<g id="a_node1"><a xlink:title=" ">
<polygon fill="#bfbfbf" stroke="black" points="0,-88.5 0,-107.5 142,-107.5 142,-88.5 0,-88.5"/>
<text text-anchor="middle" x="71" y="-95.5" font-family="Helvetica,sans-Serif" font-size="10.00">sll_c_particle_group_base</text>
</a>
</g>
</g>
<!-- Node2 -->
<g id="node2" class="node">
<title>Node2</title>
<g id="a_node2"><a xlink:href="structsll__m__particle__group__1d1v_1_1sll__t__particle__group__1d1v.html" target="_top" xlink:title="Simple version of a PIC particle group in 1d1v.">
<polygon fill="white" stroke="black" points="178,-164.5 178,-183.5 319,-183.5 319,-164.5 178,-164.5"/>
<text text-anchor="middle" x="248.5" y="-171.5" font-family="Helvetica,sans-Serif" font-size="10.00">sll_t_particle_group_1d1v</text>
</a>
</g>
</g>
<!-- Node1&#45;&gt;Node2 -->
<g id="edge1" class="edge">
<title>Node1&#45;&gt;Node2</title>
<path fill="none" stroke="midnightblue" d="M95.84,-112.85C116.85,-125.43 148.59,-143.25 178,-155 187.06,-158.62 197.05,-161.8 206.57,-164.47"/>
<polygon fill="midnightblue" stroke="midnightblue" points="97.63,-109.84 87.27,-107.65 94,-115.83 97.63,-109.84"/>
</g>
<!-- Node3 -->
<g id="node3" class="node">
<title>Node3</title>
<g id="a_node3"><a xlink:href="structsll__m__particle__group__1d2v_1_1sll__t__particle__group__1d2v.html" target="_top" xlink:title="Simple version of a PIC particle group in 1d2v.">
<polygon fill="white" stroke="black" points="178,-126.5 178,-145.5 319,-145.5 319,-126.5 178,-126.5"/>
<text text-anchor="middle" x="248.5" y="-133.5" font-family="Helvetica,sans-Serif" font-size="10.00">sll_t_particle_group_1d2v</text>
</a>
</g>
</g>
<!-- Node1&#45;&gt;Node3 -->
<g id="edge2" class="edge">
<title>Node1&#45;&gt;Node3</title>
<path fill="none" stroke="midnightblue" d="M126.28,-109.75C151.09,-115.13 180.11,-121.41 203.53,-126.48"/>
<polygon fill="midnightblue" stroke="midnightblue" points="126.8,-106.28 116.29,-107.59 125.32,-113.13 126.8,-106.28"/>
</g>
<!-- Node4 -->
<g id="node4" class="node">
<title>Node4</title>
<g id="a_node4"><a xlink:href="structsll__m__particle__group__2d2v_1_1sll__t__particle__group__2d2v.html" target="_top" xlink:title="Simple version of a PIC particle group in 2d2v.">
<polygon fill="white" stroke="black" points="178,-88.5 178,-107.5 319,-107.5 319,-88.5 178,-88.5"/>
<text text-anchor="middle" x="248.5" y="-95.5" font-family="Helvetica,sans-Serif" font-size="10.00">sll_t_particle_group_2d2v</text>
</a>
</g>
</g>
<!-- Node1&#45;&gt;Node4 -->
<g id="edge3" class="edge">
<title>Node1&#45;&gt;Node4</title>
<path fill="none" stroke="midnightblue" d="M152.39,-98C160.87,-98 169.44,-98 177.78,-98"/>
<polygon fill="midnightblue" stroke="midnightblue" points="152.12,-94.5 142.12,-98 152.12,-101.5 152.12,-94.5"/>
</g>
<!-- Node5 -->
<g id="node5" class="node">
<title>Node5</title>
<g id="a_node5"><a xlink:href="structsll__m__particle__group__2d2v__lbf_1_1sll__t__particle__group__2d2v__lbf.html" target="_top" xlink:title="Group of sll_t_particle_group_2d2v_lbf.">
<polygon fill="white" stroke="black" points="192.5,-39 192.5,-69 304.5,-69 304.5,-39 192.5,-39"/>
<text text-anchor="start" x="200.5" y="-57" font-family="Helvetica,sans-Serif" font-size="10.00">sll_t_particle_group</text>
<text text-anchor="middle" x="248.5" y="-46" font-family="Helvetica,sans-Serif" font-size="10.00">_2d2v_lbf</text>
</a>
</g>
</g>
<!-- Node1&#45;&gt;Node5 -->
<g id="edge4" class="edge">
<title>Node1&#45;&gt;Node5</title>
<path fill="none" stroke="midnightblue" d="M120,-85.96C142.33,-80.37 169,-73.68 192.17,-67.87"/>
<polygon fill="midnightblue" stroke="midnightblue" points="118.93,-82.63 110.08,-88.45 120.63,-89.42 118.93,-82.63"/>
</g>
<!-- Node6 -->
<g id="node6" class="node">
<title>Node6</title>
<g id="a_node6"><a xlink:href="structsll__m__particle__group__3d1v_1_1sll__t__particle__group__3d1v.html" target="_top" xlink:title="Simple version of a PIC particle group in 3d1v.">
<polygon fill="white" stroke="black" points="178,-0.5 178,-19.5 319,-19.5 319,-0.5 178,-0.5"/>
<text text-anchor="middle" x="248.5" y="-7.5" font-family="Helvetica,sans-Serif" font-size="10.00">sll_t_particle_group_3d1v</text>
</a>
</g>
</g>
<!-- Node1&#45;&gt;Node6 -->
<g id="edge5" class="edge">
<title>Node1&#45;&gt;Node6</title>
<path fill="none" stroke="midnightblue" d="M92.39,-82.36C113.01,-67.17 146.28,-44.37 178,-30 187.04,-25.91 197.11,-22.44 206.73,-19.59"/>
<polygon fill="midnightblue" stroke="midnightblue" points="90.28,-79.56 84.36,-88.35 94.47,-85.17 90.28,-79.56"/>
</g>
</g>
</svg>
