<?xml version="1.0" encoding="UTF-8" standalone="no"?>
<!DOCTYPE svg PUBLIC "-//W3C//DTD SVG 1.1//EN"
 "http://www.w3.org/Graphics/SVG/1.1/DTD/svg11.dtd">
<!-- Generated by graphviz version 2.40.1 (20161225.0304)
 -->
<!-- Title: sll_t_split_advection_2d Pages: 1 -->
<!--zoomable 634 -->
<svg id="main" version="1.1" xmlns="http://www.w3.org/2000/svg" xmlns:xlink="http://www.w3.org/1999/xlink" xml:space="preserve" onload="init(evt)">
<style type="text/css"><![CDATA[
.edge:hover path { stroke: red; }
.edge:hover polygon { stroke: red; fill: red; }
]]></style>
<script type="text/javascript"><![CDATA[
var edges = document.getElementsByTagName('g');
if (edges && edges.length) {
  for (var i=0;i<edges.length;i++) {
    if (edges[i].id.substr(0,4)=='edge') {
      edges[i].setAttribute('class','edge');
    }
  }
}
]]></script>
        <defs>
                <circle id="rim" cx="0" cy="0" r="7"/>
                <circle id="rim2" cx="0" cy="0" r="3.5"/>
                <g id="zoomPlus">
                        <use xlink:href="#rim" fill="#404040">
                                <set attributeName="fill" to="#808080" begin="zoomplus.mouseover" end="zoomplus.mouseout"/>
                        </use>
                        <path d="M-4,0h8M0,-4v8" fill="none" stroke="white" stroke-width="1.5" pointer-events="none"/>
                </g>
                <g id="zoomMin">
                        <use xlink:href="#rim" fill="#404040">
                                <set attributeName="fill" to="#808080" begin="zoomminus.mouseover" end="zoomminus.mouseout"/>
                        </use>
                        <path d="M-4,0h8" fill="none" stroke="white" stroke-width="1.5" pointer-events="none"/>
                </g>
                <g id="dirArrow">
                        <path fill="none" stroke="white" stroke-width="1.5" d="M0,-3.0v7 M-2.5,-0.5L0,-3.0L2.5,-0.5"/>
                </g>
               <g id="resetDef">
                       <use xlink:href="#rim2" fill="#404040">
                               <set attributeName="fill" to="#808080" begin="reset.mouseover" end="reset.mouseout"/>
                       </use>
               </g>
        </defs>

<script type="text/javascript">
var viewWidth = 666;
var viewHeight = 634;
var sectionId = 'dynsection-1';
</script>
<script xlink:href="svgpan.js"/>
<svg id="graph" class="graph">
<g id="viewport">
<title>sll_t_split_advection_2d</title>
<polygon fill="#ffffff" stroke="transparent" points="-4,4 -4,-630 662,-630 662,4 -4,4"/>
<!-- Node2 -->
<g id="node1" class="node">
<title>Node2</title>
<polygon fill="#bfbfbf" stroke="#000000" points="524,-351.5 524,-370.5 658,-370.5 658,-351.5 524,-351.5"/>
<text text-anchor="middle" x="591" y="-358.5" font-family="Helvetica,sans-Serif" font-size="10.00" fill="#000000">sll_t_split_advection_2d</text>
</g>
<!-- Node3 -->
<g id="node2" class="node">
<title>Node3</title>
<g id="a_node2"><a xlink:href="structsll__m__operator__splitting_1_1sll__t__operator__splitting.html" target="_top" xlink:title="operator splitting object ">
<polygon fill="#ffffff" stroke="#000000" points="234,-536.5 234,-555.5 362,-555.5 362,-536.5 234,-536.5"/>
<text text-anchor="middle" x="298" y="-543.5" font-family="Helvetica,sans-Serif" font-size="10.00" fill="#000000">sll_t_operator_splitting</text>
</a>
</g>
</g>
<!-- Node3&#45;&gt;Node2 -->
<g id="edge1" class="edge">
<title>Node3&#45;&gt;Node2</title>
<path fill="none" stroke="#191970" d="M372.3539,-541.8744C414.8195,-536.3473 467.169,-523.8623 506,-496 552.3559,-462.7385 579.1471,-395.5917 587.8441,-370.6314"/>
<polygon fill="#191970" stroke="#191970" points="371.8558,-538.4089 362.3432,-543.0738 372.6886,-545.3592 371.8558,-538.4089"/>
</g>
<!-- Node4 -->
<g id="node3" class="node">
<title>Node4</title>
<polygon fill="#ffffff" stroke="#bfbfbf" points="33.5,-595.5 33.5,-614.5 82.5,-614.5 82.5,-595.5 33.5,-595.5"/>
<text text-anchor="middle" x="58" y="-602.5" font-family="Helvetica,sans-Serif" font-size="10.00" fill="#000000">logical</text>
</g>
<!-- Node4&#45;&gt;Node2 -->
<g id="edge5" class="edge">
<title>Node4&#45;&gt;Node2</title>
<path fill="none" stroke="#9a32cd" stroke-dasharray="5,2" d="M92.7772,-609.9603C174.8084,-619.6257 382.7248,-631.9737 506,-531 559.8626,-486.8816 582.6797,-400.0024 589.037,-370.8222"/>
<polygon fill="#9a32cd" stroke="#9a32cd" points="93.0884,-606.4721 82.7336,-608.7145 92.2267,-613.4189 93.0884,-606.4721"/>
<text text-anchor="middle" x="298" y="-618" font-family="Helvetica,sans-Serif" font-size="10.00" fill="#000000"> csl_2012</text>
</g>
<!-- Node4&#45;&gt;Node3 -->
<g id="edge2" class="edge">
<title>Node4&#45;&gt;Node3</title>
<path fill="none" stroke="#9a32cd" stroke-dasharray="5,2" d="M92.7383,-602.3296C123.4616,-599.3976 169.2883,-593.6237 208,-583 233.089,-576.1148 260.5617,-564.1239 278.4712,-555.6617"/>
<polygon fill="#9a32cd" stroke="#9a32cd" points="92.1818,-598.8655 82.5374,-603.2514 92.8119,-605.8371 92.1818,-598.8655"/>
<text text-anchor="middle" x="171" y="-600" font-family="Helvetica,sans-Serif" font-size="10.00" fill="#000000"> split_begin_t</text>
</g>
<!-- Node12 -->
<g id="node11" class="node">
<title>Node12</title>
<g id="a_node11"><a xlink:href="structsll__m__cubic__non__uniform__splines_1_1sll__t__cubic__nonunif__spline__1d.html" target="_top" xlink:title="Spline object. ">
<polygon fill="#ffffff" stroke="#000000" points="243,-415 243,-445 353,-445 353,-415 243,-415"/>
<text text-anchor="start" x="251" y="-433" font-family="Helvetica,sans-Serif" font-size="10.00" fill="#000000">sll_t_cubic_nonunif</text>
<text text-anchor="middle" x="298" y="-422" font-family="Helvetica,sans-Serif" font-size="10.00" fill="#000000">_spline_1d</text>
</a>
</g>
</g>
<!-- Node4&#45;&gt;Node12 -->
<g id="edge16" class="edge">
<title>Node4&#45;&gt;Node12</title>
<path fill="none" stroke="#9a32cd" stroke-dasharray="5,2" d="M70.1695,-586.9394C84.0041,-567.3278 108.0564,-535.8824 134,-514 163.0765,-489.4751 175.3248,-490.4743 208,-471 216.0537,-466.2 217.6481,-464.26 226,-460 236.3742,-454.7084 247.9038,-449.5865 258.6416,-445.1174"/>
<polygon fill="#9a32cd" stroke="#9a32cd" points="67.2093,-585.0665 64.3984,-595.2817 72.9661,-589.049 67.2093,-585.0665"/>
<text text-anchor="middle" x="171" y="-517" font-family="Helvetica,sans-Serif" font-size="10.00" fill="#000000"> is_setup</text>
</g>
<!-- Node5 -->
<g id="node4" class="node">
<title>Node5</title>
<polygon fill="#ffffff" stroke="#bfbfbf" points="6.5,-414.5 6.5,-433.5 109.5,-433.5 109.5,-414.5 6.5,-414.5"/>
<text text-anchor="middle" x="58" y="-421.5" font-family="Helvetica,sans-Serif" font-size="10.00" fill="#000000">integer(kind=i32)</text>
</g>
<!-- Node5&#45;&gt;Node2 -->
<g id="edge10" class="edge">
<title>Node5&#45;&gt;Node2</title>
<path fill="none" stroke="#9a32cd" stroke-dasharray="5,2" d="M78.2491,-439.6986C92.849,-449.9809 113.5148,-462.4979 134,-468 214.0318,-489.4958 430.617,-476.4175 506,-442 541.6027,-425.7449 571.6138,-388.31 584.3943,-370.6084"/>
<polygon fill="#9a32cd" stroke="#9a32cd" points="80.137,-436.7433 69.9983,-433.6679 76.0063,-442.3946 80.137,-436.7433"/>
<text text-anchor="middle" x="298" y="-503" font-family="Helvetica,sans-Serif" font-size="10.00" fill="#000000"> advection_form</text>
<text text-anchor="middle" x="298" y="-492" font-family="Helvetica,sans-Serif" font-size="10.00" fill="#000000">num_dof1</text>
<text text-anchor="middle" x="298" y="-481" font-family="Helvetica,sans-Serif" font-size="10.00" fill="#000000">num_dof2</text>
</g>
<!-- Node5&#45;&gt;Node3 -->
<g id="edge3" class="edge">
<title>Node5&#45;&gt;Node3</title>
<path fill="none" stroke="#9a32cd" stroke-dasharray="5,2" d="M66.0753,-442.9139C77.4241,-466.9376 100.5201,-507.5978 134,-527 150.7395,-536.7009 195.4311,-541.4541 233.9389,-543.7802"/>
<polygon fill="#9a32cd" stroke="#9a32cd" points="69.241,-441.4198 61.9347,-433.7471 62.8615,-444.3014 69.241,-441.4198"/>
<text text-anchor="middle" x="171" y="-566" font-family="Helvetica,sans-Serif" font-size="10.00" fill="#000000"> dim_split_v</text>
<text text-anchor="middle" x="171" y="-555" font-family="Helvetica,sans-Serif" font-size="10.00" fill="#000000">nb_split_step</text>
<text text-anchor="middle" x="171" y="-544" font-family="Helvetica,sans-Serif" font-size="10.00" fill="#000000">split_case</text>
</g>
<!-- Node7 -->
<g id="node6" class="node">
<title>Node7</title>
<g id="a_node6"><a xlink:href="structsll__m__cartesian__meshes_1_1sll__t__cartesian__mesh__2d.html" target="_top" xlink:title="2D cartesian mesh ">
<polygon fill="#ffffff" stroke="#000000" points="229.5,-376.5 229.5,-395.5 366.5,-395.5 366.5,-376.5 229.5,-376.5"/>
<text text-anchor="middle" x="298" y="-383.5" font-family="Helvetica,sans-Serif" font-size="10.00" fill="#000000">sll_t_cartesian_mesh_2d</text>
</a>
</g>
</g>
<!-- Node5&#45;&gt;Node7 -->
<g id="edge8" class="edge">
<title>Node5&#45;&gt;Node7</title>
<path fill="none" stroke="#9a32cd" stroke-dasharray="5,2" d="M62.4533,-404.3393C73.3759,-358.0557 102.8808,-244.5029 134,-223 161.0577,-204.3035 183.3439,-201.234 208,-223 256.3528,-265.685 183.5403,-318.4493 226,-367 229.3191,-370.7953 233.298,-373.8751 237.6585,-376.3695"/>
<polygon fill="#9a32cd" stroke="#9a32cd" points="58.9869,-403.7947 60.14,-414.3266 65.8063,-405.3743 58.9869,-403.7947"/>
<text text-anchor="middle" x="171" y="-237" font-family="Helvetica,sans-Serif" font-size="10.00" fill="#000000"> num_cells1</text>
<text text-anchor="middle" x="171" y="-226" font-family="Helvetica,sans-Serif" font-size="10.00" fill="#000000">num_cells2</text>
</g>
<!-- Node5&#45;&gt;Node12 -->
<g id="edge17" class="edge">
<title>Node5&#45;&gt;Node12</title>
<path fill="none" stroke="#9a32cd" stroke-dasharray="5,2" d="M74.632,-406.7694C88.9206,-393.2956 110.832,-375.6138 134,-368 165.2449,-357.7319 180.1174,-350.5575 208,-368 223.5035,-377.6985 212.3255,-392.858 226,-405 230.9472,-409.3928 236.7085,-413.0234 242.7772,-416.0218"/>
<polygon fill="#9a32cd" stroke="#9a32cd" points="71.8374,-404.6078 67.1481,-414.1084 76.7386,-409.6057 71.8374,-404.6078"/>
<text text-anchor="middle" x="171" y="-415" font-family="Helvetica,sans-Serif" font-size="10.00" fill="#000000"> size_ibuf</text>
<text text-anchor="middle" x="171" y="-404" font-family="Helvetica,sans-Serif" font-size="10.00" fill="#000000">size_buf</text>
<text text-anchor="middle" x="171" y="-393" font-family="Helvetica,sans-Serif" font-size="10.00" fill="#000000">ibuf</text>
<text text-anchor="middle" x="171" y="-382" font-family="Helvetica,sans-Serif" font-size="10.00" fill="#000000">bc_type</text>
<text text-anchor="middle" x="171" y="-371" font-family="Helvetica,sans-Serif" font-size="10.00" fill="#000000">n_cells</text>
</g>
<!-- Node6 -->
<g id="node5" class="node">
<title>Node6</title>
<polygon fill="#ffffff" stroke="#bfbfbf" points="14,-190.5 14,-209.5 102,-209.5 102,-190.5 14,-190.5"/>
<text text-anchor="middle" x="58" y="-197.5" font-family="Helvetica,sans-Serif" font-size="10.00" fill="#000000">real(kind=f64)</text>
</g>
<!-- Node6&#45;&gt;Node2 -->
<g id="edge14" class="edge">
<title>Node6&#45;&gt;Node2</title>
<path fill="none" stroke="#9a32cd" stroke-dasharray="5,2" d="M70.9365,-182.0147C84.7197,-164.0317 108.0902,-136.713 134,-120 222.949,-62.6238 272.4309,-46.9607 370,-88 495.628,-140.8414 570.3463,-309.5003 587.293,-351.4722"/>
<polygon fill="#9a32cd" stroke="#9a32cd" points="67.8101,-180.3526 64.6401,-190.4621 73.4226,-184.536 67.8101,-180.3526"/>
<text text-anchor="middle" x="298" y="-201" font-family="Helvetica,sans-Serif" font-size="10.00" fill="#000000"> origin_middle1</text>
<text text-anchor="middle" x="298" y="-190" font-family="Helvetica,sans-Serif" font-size="10.00" fill="#000000">f</text>
<text text-anchor="middle" x="298" y="-179" font-family="Helvetica,sans-Serif" font-size="10.00" fill="#000000">origin_middle2</text>
<text text-anchor="middle" x="298" y="-168" font-family="Helvetica,sans-Serif" font-size="10.00" fill="#000000">feet1</text>
<text text-anchor="middle" x="298" y="-157" font-family="Helvetica,sans-Serif" font-size="10.00" fill="#000000">a2jac</text>
<text text-anchor="middle" x="298" y="-146" font-family="Helvetica,sans-Serif" font-size="10.00" fill="#000000">feet2</text>
<text text-anchor="middle" x="298" y="-135" font-family="Helvetica,sans-Serif" font-size="10.00" fill="#000000">a1jac</text>
<text text-anchor="middle" x="298" y="-124" font-family="Helvetica,sans-Serif" font-size="10.00" fill="#000000">a1</text>
<text text-anchor="middle" x="298" y="-113" font-family="Helvetica,sans-Serif" font-size="10.00" fill="#000000">a2</text>
<text text-anchor="middle" x="298" y="-102" font-family="Helvetica,sans-Serif" font-size="10.00" fill="#000000">feet_inside1</text>
<text text-anchor="middle" x="298" y="-91" font-family="Helvetica,sans-Serif" font-size="10.00" fill="#000000">...</text>
</g>
<!-- Node6&#45;&gt;Node3 -->
<g id="edge4" class="edge">
<title>Node6&#45;&gt;Node3</title>
<path fill="none" stroke="#9a32cd" stroke-dasharray="5,2" d="M58.889,-219.724C61.9184,-262.9232 75.2614,-366.5362 134,-423 158.7362,-446.7782 184.3567,-420.1348 208,-445 231.3238,-469.5291 203.5462,-493.672 226,-519 232.9963,-526.8918 242.5311,-532.4841 252.3715,-536.4446"/>
<polygon fill="#9a32cd" stroke="#9a32cd" points="62.3788,-219.4448 58.299,-209.667 55.3908,-219.8549 62.3788,-219.4448"/>
<text text-anchor="middle" x="171" y="-459" font-family="Helvetica,sans-Serif" font-size="10.00" fill="#000000"> current_time</text>
<text text-anchor="middle" x="171" y="-448" font-family="Helvetica,sans-Serif" font-size="10.00" fill="#000000">split_step</text>
</g>
<!-- Node6&#45;&gt;Node7 -->
<g id="edge9" class="edge">
<title>Node6&#45;&gt;Node7</title>
<path fill="none" stroke="#9a32cd" stroke-dasharray="5,2" d="M72.4183,-182.6008C86.3479,-167.2738 108.9702,-146.0253 134,-137 164.939,-125.8439 183.8538,-114.6697 208,-137 245.6392,-171.8086 193.1516,-327.6385 226,-367 229.1476,-370.7717 232.9473,-373.8424 237.1359,-376.337"/>
<polygon fill="#9a32cd" stroke="#9a32cd" points="69.5562,-180.5572 65.6139,-190.3913 74.8284,-185.162 69.5562,-180.5572"/>
<text text-anchor="middle" x="171" y="-195" font-family="Helvetica,sans-Serif" font-size="10.00" fill="#000000"> delta_eta1</text>
<text text-anchor="middle" x="171" y="-184" font-family="Helvetica,sans-Serif" font-size="10.00" fill="#000000">eta2_max</text>
<text text-anchor="middle" x="171" y="-173" font-family="Helvetica,sans-Serif" font-size="10.00" fill="#000000">delta_eta2</text>
<text text-anchor="middle" x="171" y="-162" font-family="Helvetica,sans-Serif" font-size="10.00" fill="#000000">eta1_min</text>
<text text-anchor="middle" x="171" y="-151" font-family="Helvetica,sans-Serif" font-size="10.00" fill="#000000">eta2_min</text>
<text text-anchor="middle" x="171" y="-140" font-family="Helvetica,sans-Serif" font-size="10.00" fill="#000000">eta1_max</text>
</g>
<!-- Node6&#45;&gt;Node12 -->
<g id="edge18" class="edge">
<title>Node6&#45;&gt;Node12</title>
<path fill="none" stroke="#9a32cd" stroke-dasharray="5,2" d="M81.3218,-214.9446C96.1246,-224.1432 115.8458,-235.8774 134,-245 165.8616,-261.0107 186.2399,-247.751 208,-276 243.3261,-321.8604 189.258,-360.2659 226,-405 230.5351,-410.5216 236.3606,-414.8262 242.7303,-418.1814"/>
<polygon fill="#9a32cd" stroke="#9a32cd" points="83.1283,-211.9462 72.7985,-209.5909 79.4049,-217.8738 83.1283,-211.9462"/>
<text text-anchor="middle" x="171" y="-345" font-family="Helvetica,sans-Serif" font-size="10.00" fill="#000000"> slope_r</text>
<text text-anchor="middle" x="171" y="-334" font-family="Helvetica,sans-Serif" font-size="10.00" fill="#000000">coeffs</text>
<text text-anchor="middle" x="171" y="-323" font-family="Helvetica,sans-Serif" font-size="10.00" fill="#000000">slope_l</text>
<text text-anchor="middle" x="171" y="-312" font-family="Helvetica,sans-Serif" font-size="10.00" fill="#000000">xmin</text>
<text text-anchor="middle" x="171" y="-301" font-family="Helvetica,sans-Serif" font-size="10.00" fill="#000000">xmax</text>
<text text-anchor="middle" x="171" y="-290" font-family="Helvetica,sans-Serif" font-size="10.00" fill="#000000">buf</text>
<text text-anchor="middle" x="171" y="-279" font-family="Helvetica,sans-Serif" font-size="10.00" fill="#000000">node_positions</text>
</g>
<!-- Node7&#45;&gt;Node2 -->
<g id="edge6" class="edge">
<title>Node7&#45;&gt;Node2</title>
<path fill="none" stroke="#9a32cd" stroke-dasharray="5,2" d="M376.9201,-379.2662C422.8916,-375.3437 480.2329,-370.4511 523.9973,-366.717"/>
<polygon fill="#9a32cd" stroke="#9a32cd" points="376.3617,-375.801 366.6955,-380.1386 376.9569,-382.7757 376.3617,-375.801"/>
<text text-anchor="middle" x="447" y="-380" font-family="Helvetica,sans-Serif" font-size="10.00" fill="#000000"> mesh_2d</text>
</g>
<!-- Node8 -->
<g id="node7" class="node">
<title>Node8</title>
<g id="a_node7"><a xlink:href="structsll__m__meshes__base_1_1sll__c__mesh__2d__base.html" target="_top" xlink:title="2D logical mesh ">
<polygon fill="#ffffff" stroke="#000000" points="0,-43.5 0,-62.5 116,-62.5 116,-43.5 0,-43.5"/>
<text text-anchor="middle" x="58" y="-50.5" font-family="Helvetica,sans-Serif" font-size="10.00" fill="#000000">sll_c_mesh_2d_base</text>
</a>
</g>
</g>
<!-- Node8&#45;&gt;Node7 -->
<g id="edge7" class="edge">
<title>Node8&#45;&gt;Node7</title>
<path fill="none" stroke="#191970" d="M121.6394,-65.3768C152.86,-74.8897 187.9732,-91.4515 208,-120 239.6055,-165.0542 190.8512,-324.652 226,-367 229.1375,-370.7802 232.93,-373.8567 237.1139,-376.3553"/>
<polygon fill="#191970" stroke="#191970" points="122.2403,-61.9086 111.6636,-62.5297 120.3191,-68.6398 122.2403,-61.9086"/>
</g>
<!-- Node9 -->
<g id="node8" class="node">
<title>Node9</title>
<polygon fill="#ffffff" stroke="#bfbfbf" points="226,-316.5 226,-357.5 370,-357.5 370,-316.5 226,-316.5"/>
<text text-anchor="start" x="234" y="-345.5" font-family="Helvetica,sans-Serif" font-size="10.00" fill="#000000">class(sll_c_coordinate</text>
<text text-anchor="start" x="234" y="-334.5" font-family="Helvetica,sans-Serif" font-size="10.00" fill="#000000">_transformation_2d_base)</text>
<text text-anchor="middle" x="298" y="-323.5" font-family="Helvetica,sans-Serif" font-size="10.00" fill="#000000">, pointer</text>
</g>
<!-- Node9&#45;&gt;Node2 -->
<g id="edge11" class="edge">
<title>Node9&#45;&gt;Node2</title>
<path fill="none" stroke="#9a32cd" stroke-dasharray="5,2" d="M380.4386,-338.0771C418.7133,-339.2148 464.7711,-341.49 506,-346 518.2148,-347.3362 531.3255,-349.3554 543.5049,-351.4829"/>
<polygon fill="#9a32cd" stroke="#9a32cd" points="380.4662,-334.5767 370.3732,-337.7986 380.2725,-341.574 380.4662,-334.5767"/>
<text text-anchor="middle" x="447" y="-349" font-family="Helvetica,sans-Serif" font-size="10.00" fill="#000000"> transformation</text>
</g>
<!-- Node10 -->
<g id="node9" class="node">
<title>Node10</title>
<polygon fill="#ffffff" stroke="#bfbfbf" points="226.5,-267 226.5,-297 369.5,-297 369.5,-267 226.5,-267"/>
<text text-anchor="start" x="234.5" y="-285" font-family="Helvetica,sans-Serif" font-size="10.00" fill="#000000">class(sll_c_characteristics</text>
<text text-anchor="middle" x="298" y="-274" font-family="Helvetica,sans-Serif" font-size="10.00" fill="#000000">_1d_base), pointer</text>
</g>
<!-- Node10&#45;&gt;Node2 -->
<g id="edge12" class="edge">
<title>Node10&#45;&gt;Node2</title>
<path fill="none" stroke="#9a32cd" stroke-dasharray="5,2" d="M380.1127,-286.6273C419.0808,-290.6304 465.8032,-298.0926 506,-312 533.3652,-321.4679 561.8692,-339.9692 577.9321,-351.3313"/>
<polygon fill="#9a32cd" stroke="#9a32cd" points="380.1527,-283.1149 369.8619,-285.6349 379.4781,-290.0824 380.1527,-283.1149"/>
<text text-anchor="middle" x="447" y="-326" font-family="Helvetica,sans-Serif" font-size="10.00" fill="#000000"> charac1</text>
<text text-anchor="middle" x="447" y="-315" font-family="Helvetica,sans-Serif" font-size="10.00" fill="#000000">charac2</text>
</g>
<!-- Node11 -->
<g id="node10" class="node">
<title>Node11</title>
<polygon fill="#ffffff" stroke="#bfbfbf" points="233.5,-218 233.5,-248 362.5,-248 362.5,-218 233.5,-218"/>
<text text-anchor="start" x="241.5" y="-236" font-family="Helvetica,sans-Serif" font-size="10.00" fill="#000000">class(sll_c_interpolator</text>
<text text-anchor="middle" x="298" y="-225" font-family="Helvetica,sans-Serif" font-size="10.00" fill="#000000">_1d), pointer</text>
</g>
<!-- Node11&#45;&gt;Node2 -->
<g id="edge13" class="edge">
<title>Node11&#45;&gt;Node2</title>
<path fill="none" stroke="#9a32cd" stroke-dasharray="5,2" d="M372.7128,-230.2778C414.2366,-231.7966 465.5306,-238.8885 506,-261 545.591,-282.6316 574.7872,-330.6224 585.9844,-351.2578"/>
<polygon fill="#9a32cd" stroke="#9a32cd" points="372.7419,-226.7774 362.6524,-230.0105 372.5559,-233.775 372.7419,-226.7774"/>
<text text-anchor="middle" x="447" y="-275" font-family="Helvetica,sans-Serif" font-size="10.00" fill="#000000"> interp2</text>
<text text-anchor="middle" x="447" y="-264" font-family="Helvetica,sans-Serif" font-size="10.00" fill="#000000">interp1</text>
</g>
<!-- Node12&#45;&gt;Node2 -->
<g id="edge15" class="edge">
<title>Node12&#45;&gt;Node2</title>
<path fill="none" stroke="#9a32cd" stroke-dasharray="5,2" d="M363.2502,-420.9797C404.5573,-414.5583 458.8732,-404.7999 506,-392 527.3736,-386.1948 550.9884,-377.3803 567.8917,-370.6324"/>
<polygon fill="#9a32cd" stroke="#9a32cd" points="362.6652,-417.5284 353.3092,-422.4999 363.7234,-424.448 362.6652,-417.5284"/>
<text text-anchor="middle" x="447" y="-430" font-family="Helvetica,sans-Serif" font-size="10.00" fill="#000000"> spl_eta1</text>
<text text-anchor="middle" x="447" y="-419" font-family="Helvetica,sans-Serif" font-size="10.00" fill="#000000">spl_eta2</text>
</g>
<!-- Node13 -->
<g id="node12" class="node">
<title>Node13</title>
<polygon fill="#ffffff" stroke="#bfbfbf" points="228,-.5 228,-41.5 368,-41.5 368,-.5 228,-.5"/>
<text text-anchor="start" x="236" y="-29.5" font-family="Helvetica,sans-Serif" font-size="10.00" fill="#000000">procedure(sll_i_signature</text>
<text text-anchor="start" x="236" y="-18.5" font-family="Helvetica,sans-Serif" font-size="10.00" fill="#000000">_process_outside_point</text>
<text text-anchor="middle" x="298" y="-7.5" font-family="Helvetica,sans-Serif" font-size="10.00" fill="#000000">_1d), pointer, nopass</text>
</g>
<!-- Node13&#45;&gt;Node2 -->
<g id="edge19" class="edge">
<title>Node13&#45;&gt;Node2</title>
<path fill="none" stroke="#9a32cd" stroke-dasharray="5,2" d="M378.5434,-8.7586C421.077,-6.8878 471.4672,-12.5869 506,-42 555.5228,-84.1807 584.053,-302.3767 589.8813,-351.2705"/>
<polygon fill="#9a32cd" stroke="#9a32cd" points="378.2565,-5.2693 368.4775,-9.3462 378.6645,-12.2574 378.2565,-5.2693"/>
<text text-anchor="middle" x="447" y="-56" font-family="Helvetica,sans-Serif" font-size="10.00" fill="#000000"> process_outside_point1</text>
<text text-anchor="middle" x="447" y="-45" font-family="Helvetica,sans-Serif" font-size="10.00" fill="#000000">process_outside_point2</text>
</g>
</g>
</svg>
        <g id="navigator" transform="translate(0 0)" fill="#404254">
                <rect fill="#f2f5e9" fill-opacity="0.5" stroke="#606060" stroke-width=".5" x="0" y="0" width="60" height="60"/>
                <use id="zoomplus" xlink:href="#zoomPlus" x="17" y="9" onmousedown="handleZoom(evt,'in')"/>
                <use id="zoomminus" xlink:href="#zoomMin" x="42" y="9" onmousedown="handleZoom(evt,'out')"/>
                <use id="reset" xlink:href="#resetDef" x="30" y="36" onmousedown="handleReset()"/>
                <g id="arrowUp" xlink:href="#dirArrow" transform="translate(30 24)" onmousedown="handlePan(0,-1)">
                  <use xlink:href="#rim" fill="#404040">
                        <set attributeName="fill" to="#808080" begin="arrowUp.mouseover" end="arrowUp.mouseout"/>
                  </use>
                  <path fill="none" stroke="white" stroke-width="1.5" d="M0,-3.0v7 M-2.5,-0.5L0,-3.0L2.5,-0.5"/>
                </g>
                <g id="arrowRight" xlink:href="#dirArrow" transform="rotate(90) translate(36 -43)" onmousedown="handlePan(1,0)">
                  <use xlink:href="#rim" fill="#404040">
                        <set attributeName="fill" to="#808080" begin="arrowRight.mouseover" end="arrowRight.mouseout"/>
                  </use>
                  <path fill="none" stroke="white" stroke-width="1.5" d="M0,-3.0v7 M-2.5,-0.5L0,-3.0L2.5,-0.5"/>
                </g>
                <g id="arrowDown" xlink:href="#dirArrow" transform="rotate(180) translate(-30 -48)" onmousedown="handlePan(0,1)">
                  <use xlink:href="#rim" fill="#404040">
                        <set attributeName="fill" to="#808080" begin="arrowDown.mouseover" end="arrowDown.mouseout"/>
                  </use>
                  <path fill="none" stroke="white" stroke-width="1.5" d="M0,-3.0v7 M-2.5,-0.5L0,-3.0L2.5,-0.5"/>
                </g>
                <g id="arrowLeft" xlink:href="#dirArrow" transform="rotate(270) translate(-36 17)" onmousedown="handlePan(-1,0)">
                  <use xlink:href="#rim" fill="#404040">
                        <set attributeName="fill" to="#808080" begin="arrowLeft.mouseover" end="arrowLeft.mouseout"/>
                  </use>
                  <path fill="none" stroke="white" stroke-width="1.5" d="M0,-3.0v7 M-2.5,-0.5L0,-3.0L2.5,-0.5"/>
                </g>
        </g>
        <svg viewBox="0 0 15 15" width="100%" height="30px" preserveAspectRatio="xMaxYMin meet">
         <g id="arrow_out" transform="scale(0.3 0.3)">
          <a xlink:href="structsll__m__split__advection__2d_1_1sll__t__split__advection__2d__coll__graph_org.svg" target="_base">
           <rect id="button" ry="5" rx="5" y="6" x="6" height="38" width="38"
                fill="#f2f5e9" fill-opacity="0.5" stroke="#606060" stroke-width="1.0"/>
           <path id="arrow"
             d="M 11.500037,31.436501 C 11.940474,20.09759 22.043105,11.32322 32.158766,21.979434 L 37.068811,17.246167 C 37.068811,17.246167 37.088388,32 37.088388,32 L 22.160133,31.978069 C 22.160133,31.978069 26.997745,27.140456 26.997745,27.140456 C 18.528582,18.264221 13.291696,25.230495 11.500037,31.436501 z"
             style="fill:#404040;"/>
          </a>
         </g>
        </svg>
</svg>
