<?xml version="1.0" encoding="UTF-8" standalone="no"?>
<!DOCTYPE svg PUBLIC "-//W3C//DTD SVG 1.1//EN"
 "http://www.w3.org/Graphics/SVG/1.1/DTD/svg11.dtd">
<!-- Generated by graphviz version 2.43.0 (0)
 -->
<!-- Title: sll_t_preconditioner_curl_solver_fft Pages: 1 -->
<!--zoomable 399 -->
<svg id="main" version="1.1" xmlns="http://www.w3.org/2000/svg" xmlns:xlink="http://www.w3.org/1999/xlink" xml:space="preserve" onload="init(evt)">
<style type="text/css"><![CDATA[
.edge:hover path { stroke: red; }
.edge:hover polygon { stroke: red; fill: red; }
]]></style>
<script type="text/javascript"><![CDATA[
var edges = document.getElementsByTagName('g');
if (edges && edges.length) {
  for (var i=0;i<edges.length;i++) {
    if (edges[i].id.substr(0,4)=='edge') {
      edges[i].setAttribute('class','edge');
    }
  }
}
]]></script>
        <defs>
                <circle id="rim" cx="0" cy="0" r="7"/>
                <circle id="rim2" cx="0" cy="0" r="3.5"/>
                <g id="zoomPlus">
                        <use xlink:href="#rim" fill="#404040">
                                <set attributeName="fill" to="#808080" begin="zoomplus.mouseover" end="zoomplus.mouseout"/>
                        </use>
                        <path d="M-4,0h8M0,-4v8" fill="none" stroke="white" stroke-width="1.5" pointer-events="none"/>
                </g>
                <g id="zoomMin">
                        <use xlink:href="#rim" fill="#404040">
                                <set attributeName="fill" to="#808080" begin="zoomminus.mouseover" end="zoomminus.mouseout"/>
                        </use>
                        <path d="M-4,0h8" fill="none" stroke="white" stroke-width="1.5" pointer-events="none"/>
                </g>
                <g id="dirArrow">
                        <path fill="none" stroke="white" stroke-width="1.5" d="M0,-3.0v7 M-2.5,-0.5L0,-3.0L2.5,-0.5"/>
                </g>
               <g id="resetDef">
                       <use xlink:href="#rim2" fill="#404040">
                               <set attributeName="fill" to="#808080" begin="reset.mouseover" end="reset.mouseout"/>
                       </use>
               </g>
        </defs>

<script type="text/javascript">
var viewWidth = 664;
var viewHeight = 399;
var sectionId = 'dynsection-1';
</script>
<script xlink:href="svgpan.js"/>
<svg id="graph" class="graph">
<g id="viewport">
<title>sll_t_preconditioner_curl_solver_fft</title>
<polygon fill="white" stroke="transparent" points="-4,4 -4,-394.7 660,-394.7 660,4 -4,4"/>
<!-- Node1 -->
<g id="node1" class="node">
<title>Node1</title>
<g id="a_node1"><a xlink:title="Linear solver for FFT&#45;based inversion of 3d tensor product of circulant matrices (extending the abstr...">
<polygon fill="#bfbfbf" stroke="black" points="543,-193.7 543,-223.7 656,-223.7 656,-193.7 543,-193.7"/>
<text text-anchor="start" x="551" y="-211.7" font-family="Helvetica,sans-Serif" font-size="10.00">sll_t_preconditioner</text>
<text text-anchor="middle" x="599.5" y="-200.7" font-family="Helvetica,sans-Serif" font-size="10.00">_curl_solver_fft</text>
</a>
</g>
</g>
<!-- Node2 -->
<g id="node2" class="node">
<title>Node2</title>
<g id="a_node2"><a xlink:href="structsll__m__linear__solver__abstract_1_1sll__t__linear__solver__abstract.html" target="_top" xlink:title="class for abstract linear solver">
<polygon fill="white" stroke="black" points="274,-274.7 274,-304.7 379,-304.7 379,-274.7 274,-274.7"/>
<text text-anchor="start" x="282" y="-292.7" font-family="Helvetica,sans-Serif" font-size="10.00">sll_t_linear_solver</text>
<text text-anchor="middle" x="326.5" y="-281.7" font-family="Helvetica,sans-Serif" font-size="10.00">_abstract</text>
</a>
</g>
</g>
<!-- Node2&#45;&gt;Node1 -->
<g id="edge1" class="edge">
<title>Node2&#45;&gt;Node1</title>
<path fill="none" stroke="midnightblue" d="M389.26,-293.56C429.42,-293.82 482.11,-289.82 525,-271.7 549.92,-261.17 572.57,-238.96 585.94,-223.94"/>
<polygon fill="midnightblue" stroke="midnightblue" points="389.12,-290.06 379.07,-293.4 389.01,-297.06 389.12,-290.06"/>
</g>
<!-- Node3 -->
<g id="node3" class="node">
<title>Node3</title>
<g id="a_node3"><a xlink:title=" ">
<polygon fill="white" stroke="#bfbfbf" points="47.5,-180.2 47.5,-199.2 96.5,-199.2 96.5,-180.2 47.5,-180.2"/>
<text text-anchor="middle" x="72" y="-187.2" font-family="Helvetica,sans-Serif" font-size="10.00">logical</text>
</a>
</g>
</g>
<!-- Node3&#45;&gt;Node2 -->
<g id="edge2" class="edge">
<title>Node3&#45;&gt;Node2</title>
<path fill="none" stroke="#9a32cd" stroke-dasharray="5,2" d="M106.75,-184.87C141.36,-181.45 195.92,-180.4 238,-199.7 273.46,-215.96 302.11,-253.48 316.14,-274.58"/>
<polygon fill="#9a32cd" stroke="#9a32cd" points="106.24,-181.41 96.69,-185.99 107.01,-188.36 106.24,-181.41"/>
<text text-anchor="middle" x="200" y="-213.7" font-family="Helvetica,sans-Serif" font-size="10.00"> is_allocated</text>
<text text-anchor="middle" x="200" y="-202.7" font-family="Helvetica,sans-Serif" font-size="10.00">verbose</text>
</g>
<!-- Node5 -->
<g id="node5" class="node">
<title>Node5</title>
<g id="a_node5"><a xlink:href="structsll__m__fft_1_1sll__t__fft.html" target="_top" xlink:title="Type for FFT plan in SeLaLib.">
<polygon fill="white" stroke="black" points="300,-176.2 300,-195.2 353,-195.2 353,-176.2 300,-176.2"/>
<text text-anchor="middle" x="326.5" y="-183.2" font-family="Helvetica,sans-Serif" font-size="10.00">sll_t_fft</text>
</a>
</g>
</g>
<!-- Node3&#45;&gt;Node5 -->
<g id="edge5" class="edge">
<title>Node3&#45;&gt;Node5</title>
<path fill="none" stroke="#9a32cd" stroke-dasharray="5,2" d="M106.56,-178.41C123.05,-173.43 143.34,-168.17 162,-165.7 195.49,-161.26 204.44,-161.91 238,-165.7 259.06,-168.07 282.44,-173.57 299.73,-178.2"/>
<polygon fill="#9a32cd" stroke="#9a32cd" points="105.33,-175.12 96.83,-181.43 107.41,-181.8 105.33,-175.12"/>
<text text-anchor="middle" x="200" y="-168.7" font-family="Helvetica,sans-Serif" font-size="10.00"> normalized</text>
</g>
<!-- Node4 -->
<g id="node4" class="node">
<title>Node4</title>
<g id="a_node4"><a xlink:title=" ">
<polygon fill="white" stroke="#bfbfbf" points="20.5,-301.2 20.5,-320.2 123.5,-320.2 123.5,-301.2 20.5,-301.2"/>
<text text-anchor="middle" x="72" y="-308.2" font-family="Helvetica,sans-Serif" font-size="10.00">integer(kind=i32)</text>
</a>
</g>
</g>
<!-- Node4&#45;&gt;Node1 -->
<g id="edge8" class="edge">
<title>Node4&#45;&gt;Node1</title>
<path fill="none" stroke="#9a32cd" stroke-dasharray="5,2" d="M90.41,-327.44C107.2,-342.33 134.12,-363.06 162,-371.7 194.26,-381.69 204.5,-376.06 238,-371.7 368.85,-354.67 413.49,-366.25 525,-295.7 554.24,-277.2 577.85,-243.34 589.86,-223.76"/>
<polygon fill="#9a32cd" stroke="#9a32cd" points="92.33,-324.46 82.6,-320.28 87.6,-329.61 92.33,-324.46"/>
<text text-anchor="middle" x="326.5" y="-382.7" font-family="Helvetica,sans-Serif" font-size="10.00"> n_dofs</text>
<text text-anchor="middle" x="326.5" y="-371.7" font-family="Helvetica,sans-Serif" font-size="10.00">n_total</text>
</g>
<!-- Node4&#45;&gt;Node2 -->
<g id="edge3" class="edge">
<title>Node4&#45;&gt;Node2</title>
<path fill="none" stroke="#9a32cd" stroke-dasharray="5,2" d="M133.81,-305.64C176.62,-302.08 233.32,-297.37 273.92,-293.99"/>
<polygon fill="#9a32cd" stroke="#9a32cd" points="133.47,-302.16 123.79,-306.47 134.05,-309.13 133.47,-302.16"/>
<text text-anchor="middle" x="200" y="-359.7" font-family="Helvetica,sans-Serif" font-size="10.00"> n_cols</text>
<text text-anchor="middle" x="200" y="-348.7" font-family="Helvetica,sans-Serif" font-size="10.00">n_global_cols</text>
<text text-anchor="middle" x="200" y="-337.7" font-family="Helvetica,sans-Serif" font-size="10.00">n_global_rows</text>
<text text-anchor="middle" x="200" y="-326.7" font-family="Helvetica,sans-Serif" font-size="10.00">n_rows</text>
<text text-anchor="middle" x="200" y="-315.7" font-family="Helvetica,sans-Serif" font-size="10.00">n_total_cols</text>
<text text-anchor="middle" x="200" y="-304.7" font-family="Helvetica,sans-Serif" font-size="10.00">n_total_rows</text>
</g>
<!-- Node4&#45;&gt;Node5 -->
<g id="edge6" class="edge">
<title>Node4&#45;&gt;Node5</title>
<path fill="none" stroke="#9a32cd" stroke-dasharray="5,2" d="M92.97,-294.45C110.39,-280.87 136.76,-261.68 162,-248.7 193.88,-232.31 204.53,-234.52 238,-221.7 260.24,-213.18 285.36,-202.76 302.96,-195.33"/>
<polygon fill="#9a32cd" stroke="#9a32cd" points="90.39,-292.03 84.73,-300.98 94.74,-297.52 90.39,-292.03"/>
<text text-anchor="middle" x="200" y="-284.7" font-family="Helvetica,sans-Serif" font-size="10.00"> direction</text>
<text text-anchor="middle" x="200" y="-273.7" font-family="Helvetica,sans-Serif" font-size="10.00">problem_rank</text>
<text text-anchor="middle" x="200" y="-262.7" font-family="Helvetica,sans-Serif" font-size="10.00">problem_shape</text>
<text text-anchor="middle" x="200" y="-251.7" font-family="Helvetica,sans-Serif" font-size="10.00">transform_type</text>
</g>
<!-- Node5&#45;&gt;Node1 -->
<g id="edge4" class="edge">
<title>Node5&#45;&gt;Node1</title>
<path fill="none" stroke="#9a32cd" stroke-dasharray="5,2" d="M363.56,-188.76C409.45,-192.65 489.18,-199.42 542.88,-203.98"/>
<polygon fill="#9a32cd" stroke="#9a32cd" points="363.74,-185.26 353.48,-187.9 363.15,-192.24 363.74,-185.26"/>
<text text-anchor="middle" x="470" y="-259.7" font-family="Helvetica,sans-Serif" font-size="10.00"> fft1</text>
<text text-anchor="middle" x="470" y="-248.7" font-family="Helvetica,sans-Serif" font-size="10.00">fft2</text>
<text text-anchor="middle" x="470" y="-237.7" font-family="Helvetica,sans-Serif" font-size="10.00">fft3</text>
<text text-anchor="middle" x="470" y="-226.7" font-family="Helvetica,sans-Serif" font-size="10.00">ifft1</text>
<text text-anchor="middle" x="470" y="-215.7" font-family="Helvetica,sans-Serif" font-size="10.00">ifft2</text>
<text text-anchor="middle" x="470" y="-204.7" font-family="Helvetica,sans-Serif" font-size="10.00">ifft3</text>
</g>
<!-- Node6 -->
<g id="node6" class="node">
<title>Node6</title>
<g id="a_node6"><a xlink:title=" ">
<polygon fill="white" stroke="#bfbfbf" points="0,-110.2 0,-151.2 144,-151.2 144,-110.2 0,-110.2"/>
<text text-anchor="start" x="8" y="-139.2" font-family="Helvetica,sans-Serif" font-size="10.00">complex(kind=f64),</text>
<text text-anchor="start" x="8" y="-128.2" font-family="Helvetica,sans-Serif" font-size="10.00"> dimension(:), allocatable,</text>
<text text-anchor="middle" x="72" y="-117.2" font-family="Helvetica,sans-Serif" font-size="10.00"> private</text>
</a>
</g>
</g>
<!-- Node6&#45;&gt;Node5 -->
<g id="edge7" class="edge">
<title>Node6&#45;&gt;Node5</title>
<path fill="none" stroke="#9a32cd" stroke-dasharray="5,2" d="M154.31,-133.36C181.27,-135.62 211.23,-139.63 238,-146.7 263.57,-153.45 291.13,-166.86 308.35,-176.05"/>
<polygon fill="#9a32cd" stroke="#9a32cd" points="154.38,-129.86 144.14,-132.58 153.84,-136.84 154.38,-129.86"/>
<text text-anchor="middle" x="200" y="-149.7" font-family="Helvetica,sans-Serif" font-size="10.00"> scratch</text>
</g>
<!-- Node7 -->
<g id="node7" class="node">
<title>Node7</title>
<g id="a_node7"><a xlink:title=" ">
<polygon fill="white" stroke="#bfbfbf" points="256,-104.7 256,-134.7 397,-134.7 397,-104.7 256,-104.7"/>
<text text-anchor="start" x="264" y="-122.7" font-family="Helvetica,sans-Serif" font-size="10.00">complex(kind=f64),</text>
<text text-anchor="middle" x="326.5" y="-111.7" font-family="Helvetica,sans-Serif" font-size="10.00"> dimension(:), allocatable</text>
</a>
</g>
</g>
<!-- Node7&#45;&gt;Node1 -->
<g id="edge9" class="edge">
<title>Node7&#45;&gt;Node1</title>
<path fill="none" stroke="#9a32cd" stroke-dasharray="5,2" d="M407.71,-106.23C445.01,-103.57 488.97,-105.76 525,-122.7 556.46,-137.49 579.55,-172.94 590.81,-193.41"/>
<polygon fill="#9a32cd" stroke="#9a32cd" points="407.05,-102.78 397.38,-107.1 407.64,-109.75 407.05,-102.78"/>
<text text-anchor="middle" x="470" y="-180.7" font-family="Helvetica,sans-Serif" font-size="10.00"> eig_values_d1</text>
<text text-anchor="middle" x="470" y="-169.7" font-family="Helvetica,sans-Serif" font-size="10.00">eig_values_d1t</text>
<text text-anchor="middle" x="470" y="-158.7" font-family="Helvetica,sans-Serif" font-size="10.00">eig_values_d2</text>
<text text-anchor="middle" x="470" y="-147.7" font-family="Helvetica,sans-Serif" font-size="10.00">eig_values_d2t</text>
<text text-anchor="middle" x="470" y="-136.7" font-family="Helvetica,sans-Serif" font-size="10.00">eig_values_d3</text>
<text text-anchor="middle" x="470" y="-125.7" font-family="Helvetica,sans-Serif" font-size="10.00">eig_values_d3t</text>
</g>
<!-- Node8 -->
<g id="node8" class="node">
<title>Node8</title>
<g id="a_node8"><a xlink:title=" ">
<polygon fill="white" stroke="#bfbfbf" points="282.5,-10.2 282.5,-29.2 370.5,-29.2 370.5,-10.2 282.5,-10.2"/>
<text text-anchor="middle" x="326.5" y="-17.2" font-family="Helvetica,sans-Serif" font-size="10.00">real(kind=f64)</text>
</a>
</g>
</g>
<!-- Node8&#45;&gt;Node1 -->
<g id="edge10" class="edge">
<title>Node8&#45;&gt;Node1</title>
<path fill="none" stroke="#9a32cd" stroke-dasharray="5,2" d="M370.1,-7.96C413.14,1.23 479.61,7.79 525,-23.7 582.79,-63.78 595.15,-157.04 597.79,-193.61"/>
<polygon fill="#9a32cd" stroke="#9a32cd" points="369.19,-4.57 360.22,-10.2 370.74,-11.4 369.19,-4.57"/>
<text text-anchor="middle" x="470" y="-92.7" font-family="Helvetica,sans-Serif" font-size="10.00"> eig_values_mass_0_1</text>
<text text-anchor="middle" x="470" y="-81.7" font-family="Helvetica,sans-Serif" font-size="10.00">eig_values_mass_0_2</text>
<text text-anchor="middle" x="470" y="-70.7" font-family="Helvetica,sans-Serif" font-size="10.00">eig_values_mass_0_3</text>
<text text-anchor="middle" x="470" y="-59.7" font-family="Helvetica,sans-Serif" font-size="10.00">eig_values_mass_1_1</text>
<text text-anchor="middle" x="470" y="-48.7" font-family="Helvetica,sans-Serif" font-size="10.00">eig_values_mass_1_2</text>
<text text-anchor="middle" x="470" y="-37.7" font-family="Helvetica,sans-Serif" font-size="10.00">eig_values_mass_1_3</text>
<text text-anchor="middle" x="470" y="-26.7" font-family="Helvetica,sans-Serif" font-size="10.00">factor</text>
</g>
</g>
</svg>
        <g id="navigator" transform="translate(0 0)" fill="#404254">
                <rect fill="#f2f5e9" fill-opacity="0.5" stroke="#606060" stroke-width=".5" x="0" y="0" width="60" height="60"/>
                <use id="zoomplus" xlink:href="#zoomPlus" x="17" y="9" onmousedown="handleZoom(evt,'in')"/>
                <use id="zoomminus" xlink:href="#zoomMin" x="42" y="9" onmousedown="handleZoom(evt,'out')"/>
                <use id="reset" xlink:href="#resetDef" x="30" y="36" onmousedown="handleReset()"/>
                <g id="arrowUp" xlink:href="#dirArrow" transform="translate(30 24)" onmousedown="handlePan(0,-1)">
                  <use xlink:href="#rim" fill="#404040">
                        <set attributeName="fill" to="#808080" begin="arrowUp.mouseover" end="arrowUp.mouseout"/>
                  </use>
                  <path fill="none" stroke="white" stroke-width="1.5" d="M0,-3.0v7 M-2.5,-0.5L0,-3.0L2.5,-0.5"/>
                </g>
                <g id="arrowRight" xlink:href="#dirArrow" transform="rotate(90) translate(36 -43)" onmousedown="handlePan(1,0)">
                  <use xlink:href="#rim" fill="#404040">
                        <set attributeName="fill" to="#808080" begin="arrowRight.mouseover" end="arrowRight.mouseout"/>
                  </use>
                  <path fill="none" stroke="white" stroke-width="1.5" d="M0,-3.0v7 M-2.5,-0.5L0,-3.0L2.5,-0.5"/>
                </g>
                <g id="arrowDown" xlink:href="#dirArrow" transform="rotate(180) translate(-30 -48)" onmousedown="handlePan(0,1)">
                  <use xlink:href="#rim" fill="#404040">
                        <set attributeName="fill" to="#808080" begin="arrowDown.mouseover" end="arrowDown.mouseout"/>
                  </use>
                  <path fill="none" stroke="white" stroke-width="1.5" d="M0,-3.0v7 M-2.5,-0.5L0,-3.0L2.5,-0.5"/>
                </g>
                <g id="arrowLeft" xlink:href="#dirArrow" transform="rotate(270) translate(-36 17)" onmousedown="handlePan(-1,0)">
                  <use xlink:href="#rim" fill="#404040">
                        <set attributeName="fill" to="#808080" begin="arrowLeft.mouseover" end="arrowLeft.mouseout"/>
                  </use>
                  <path fill="none" stroke="white" stroke-width="1.5" d="M0,-3.0v7 M-2.5,-0.5L0,-3.0L2.5,-0.5"/>
                </g>
        </g>
        <svg viewBox="0 0 15 15" width="100%" height="30px" preserveAspectRatio="xMaxYMin meet">
         <g id="arrow_out" transform="scale(0.3 0.3)">
          <a xlink:href="structsll__m__preconditioner__curl__solver__fft_1_1sll__t__preconditioner__curl__solver__fft__coll__graph_org.svg" target="_base">
           <rect id="button" ry="5" rx="5" y="6" x="6" height="38" width="38"
                fill="#f2f5e9" fill-opacity="0.5" stroke="#606060" stroke-width="1.0"/>
           <path id="arrow"
             d="M 11.500037,31.436501 C 11.940474,20.09759 22.043105,11.32322 32.158766,21.979434 L 37.068811,17.246167 C 37.068811,17.246167 37.088388,32 37.088388,32 L 22.160133,31.978069 C 22.160133,31.978069 26.997745,27.140456 26.997745,27.140456 C 18.528582,18.264221 13.291696,25.230495 11.500037,31.436501 z"
             style="fill:#404040;"/>
          </a>
         </g>
        </svg>
</svg>
