<?xml version="1.0" encoding="UTF-8" standalone="no"?>
<!DOCTYPE svg PUBLIC "-//W3C//DTD SVG 1.1//EN"
 "http://www.w3.org/Graphics/SVG/1.1/DTD/svg11.dtd">
<!-- Generated by graphviz version 2.40.1 (20161225.0304)
 -->
<!-- Title: sll_t_particle_4d Pages: 1 -->
<svg width="324pt" height="117pt"
 viewBox="0.00 0.00 324.00 117.00" xmlns="http://www.w3.org/2000/svg" xmlns:xlink="http://www.w3.org/1999/xlink">
<g id="graph0" class="graph" transform="scale(1 1) rotate(0) translate(4 113)">
<title>sll_t_particle_4d</title>
<polygon fill="#ffffff" stroke="transparent" points="-4,4 -4,-113 320,-113 320,4 -4,4"/>
<!-- Node1 -->
<g id="node1" class="node">
<title>Node1</title>
<polygon fill="#bfbfbf" stroke="#000000" points="110,-.5 110,-19.5 206,-19.5 206,-.5 110,-.5"/>
<text text-anchor="middle" x="158" y="-7.5" font-family="Helvetica,sans-Serif" font-size="10.00" fill="#000000">sll_t_particle_4d</text>
</g>
<!-- Node2 -->
<g id="node2" class="node">
<title>Node2</title>
<polygon fill="#ffffff" stroke="#bfbfbf" points="0,-89.5 0,-108.5 88,-108.5 88,-89.5 0,-89.5"/>
<text text-anchor="middle" x="44" y="-96.5" font-family="Helvetica,sans-Serif" font-size="10.00" fill="#000000">real(kind=f32)</text>
</g>
<!-- Node2&#45;&gt;Node1 -->
<g id="edge1" class="edge">
<title>Node2&#45;&gt;Node1</title>
<path fill="none" stroke="#9a32cd" stroke-dasharray="5,2" d="M64.15,-83.2689C87.6997,-64.8835 125.9378,-35.031 145.5421,-19.7259"/>
<polygon fill="#9a32cd" stroke="#9a32cd" points="61.9285,-80.5628 56.2,-89.4754 66.2362,-86.0805 61.9285,-80.5628"/>
<text text-anchor="middle" x="130" y="-63" font-family="Helvetica,sans-Serif" font-size="10.00" fill="#000000"> dx</text>
<text text-anchor="middle" x="130" y="-52" font-family="Helvetica,sans-Serif" font-size="10.00" fill="#000000">dy</text>
<text text-anchor="middle" x="130" y="-41" font-family="Helvetica,sans-Serif" font-size="10.00" fill="#000000">q</text>
</g>
<!-- Node3 -->
<g id="node3" class="node">
<title>Node3</title>
<polygon fill="#ffffff" stroke="#bfbfbf" points="106.5,-89.5 106.5,-108.5 209.5,-108.5 209.5,-89.5 106.5,-89.5"/>
<text text-anchor="middle" x="158" y="-96.5" font-family="Helvetica,sans-Serif" font-size="10.00" fill="#000000">integer(kind=i32)</text>
</g>
<!-- Node3&#45;&gt;Node1 -->
<g id="edge2" class="edge">
<title>Node3&#45;&gt;Node1</title>
<path fill="none" stroke="#9a32cd" stroke-dasharray="5,2" d="M158,-79.2379C158,-60.7654 158,-33.957 158,-19.7259"/>
<polygon fill="#9a32cd" stroke="#9a32cd" points="154.5001,-79.4754 158,-89.4754 161.5001,-79.4755 154.5001,-79.4754"/>
<text text-anchor="middle" x="164" y="-52" font-family="Helvetica,sans-Serif" font-size="10.00" fill="#000000"> ic</text>
</g>
<!-- Node4 -->
<g id="node4" class="node">
<title>Node4</title>
<polygon fill="#ffffff" stroke="#bfbfbf" points="228,-89.5 228,-108.5 316,-108.5 316,-89.5 228,-89.5"/>
<text text-anchor="middle" x="272" y="-96.5" font-family="Helvetica,sans-Serif" font-size="10.00" fill="#000000">real(kind=f64)</text>
</g>
<!-- Node4&#45;&gt;Node1 -->
<g id="edge3" class="edge">
<title>Node4&#45;&gt;Node1</title>
<path fill="none" stroke="#9a32cd" stroke-dasharray="5,2" d="M251.85,-83.2689C228.3003,-64.8835 190.0622,-35.031 170.4579,-19.7259"/>
<polygon fill="#9a32cd" stroke="#9a32cd" points="249.7638,-86.0805 259.8,-89.4754 254.0715,-80.5628 249.7638,-86.0805"/>
<text text-anchor="middle" x="243" y="-57.5" font-family="Helvetica,sans-Serif" font-size="10.00" fill="#000000"> vx</text>
<text text-anchor="middle" x="243" y="-46.5" font-family="Helvetica,sans-Serif" font-size="10.00" fill="#000000">vy</text>
</g>
</g>
</svg>
