<?xml version="1.0" encoding="UTF-8" standalone="no"?>
<!DOCTYPE svg PUBLIC "-//W3C//DTD SVG 1.1//EN"
 "http://www.w3.org/Graphics/SVG/1.1/DTD/svg11.dtd">
<!-- Generated by graphviz version 2.38.0 (20140413.2041)
 -->
<!-- Title: sll_t_cubic_spline_interpolator_1d_nonuniform Pages: 1 -->
<!--zoomable 552 -->
<svg id="main" version="1.1" xmlns="http://www.w3.org/2000/svg" xmlns:xlink="http://www.w3.org/1999/xlink" xml:space="preserve" onload="init(evt)">
<style type="text/css"><![CDATA[
.edge:hover path { stroke: red; }
.edge:hover polygon { stroke: red; fill: red; }
]]></style>
<script type="text/javascript"><![CDATA[
var edges = document.getElementsByTagName('g');
if (edges && edges.length) {
  for (var i=0;i<edges.length;i++) {
    if (edges[i].id.substr(0,4)=='edge') {
      edges[i].setAttribute('class','edge');
    }
  }
}
]]></script>
        <defs>
                <circle id="rim" cx="0" cy="0" r="7"/>
                <circle id="rim2" cx="0" cy="0" r="3.5"/>
                <g id="zoomPlus">
                        <use xlink:href="#rim" fill="#404040">
                                <set attributeName="fill" to="#808080" begin="zoomplus.mouseover" end="zoomplus.mouseout"/>
                        </use>
                        <path d="M-4,0h8M0,-4v8" fill="none" stroke="white" stroke-width="1.5" pointer-events="none"/>
                </g>
                <g id="zoomMin">
                        <use xlink:href="#rim" fill="#404040">
                                <set attributeName="fill" to="#808080" begin="zoomminus.mouseover" end="zoomminus.mouseout"/>
                        </use>
                        <path d="M-4,0h8" fill="none" stroke="white" stroke-width="1.5" pointer-events="none"/>
                </g>
                <g id="dirArrow">
                        <path fill="none" stroke="white" stroke-width="1.5" d="M0,-3.0v7 M-2.5,-0.5L0,-3.0L2.5,-0.5"/>
                </g>
               <g id="resetDef">
                       <use xlink:href="#rim2" fill="#404040">
                               <set attributeName="fill" to="#808080" begin="reset.mouseover" end="reset.mouseout"/>
                       </use>
               </g>
        </defs>

<script type="text/javascript">
var viewWidth = 570;
var viewHeight = 552;
var sectionId = 'dynsection-1';
</script>
<script xlink:href="svgpan.js"/>
<svg id="graph" class="graph">
<g id="viewport">
<title>sll_t_cubic_spline_interpolator_1d_nonuniform</title>
<polygon fill="white" stroke="none" points="-4,4 -4,-547.911 566,-547.911 566,4 -4,4"/>
<!-- Node1 -->
<g id="node1" class="node"><title>Node1</title>
<polygon fill="#bfbfbf" stroke="black" points="423,-308.911 423,-338.911 562,-338.911 562,-308.911 423,-308.911"/>
<text text-anchor="start" x="431" y="-326.911" font-family="Helvetica,sans-Serif" font-size="10.00">sll_t_cubic_spline</text>
<text text-anchor="middle" x="492.5" y="-315.911" font-family="Helvetica,sans-Serif" font-size="10.00">_interpolator_1d_nonuniform</text>
</g>
<!-- Node2 -->
<g id="node2" class="node"><title>Node2</title>
<g id="a_node2"><a xlink:href="structsll__m__interpolators__1d__base_1_1sll__c__interpolator__1d.html" target="_top" xlink:title="Abstract class for 1D interpolation and reconstruction. ">
<polygon fill="white" stroke="black" points="213,-524.411 213,-543.411 319,-543.411 319,-524.411 213,-524.411"/>
<text text-anchor="middle" x="266" y="-531.411" font-family="Helvetica,sans-Serif" font-size="10.00">sll_c_interpolator_1d</text>
</a>
</g>
</g>
<!-- Node2&#45;&gt;Node1 -->
<g id="edge1" class="edge"><title>Node2&#45;&gt;Node1</title>
<path fill="none" stroke="midnightblue" d="M329.28,-529C354.999,-524.278 383.709,-515.21 405,-497.911 457.365,-455.365 480.705,-373.096 488.411,-339.139"/>
<polygon fill="midnightblue" stroke="midnightblue" points="328.517,-525.579 319.22,-530.66 329.656,-532.485 328.517,-525.579"/>
</g>
<!-- Node3 -->
<g id="node3" class="node"><title>Node3</title>
<g id="a_node3"><a xlink:href="structsll__m__cubic__splines_1_1sll__t__cubic__spline__1d.html" target="_top" xlink:title="basic type for one&#45;dimensional cubic spline data. ">
<polygon fill="white" stroke="black" points="211,-214.411 211,-233.411 321,-233.411 321,-214.411 211,-214.411"/>
<text text-anchor="middle" x="266" y="-221.411" font-family="Helvetica,sans-Serif" font-size="10.00">sll_t_cubic_spline_1d</text>
</a>
</g>
</g>
<!-- Node3&#45;&gt;Node1 -->
<g id="edge2" class="edge"><title>Node3&#45;&gt;Node1</title>
<path fill="none" stroke="#9a32cd" stroke-dasharray="5,2" d="M297.68,-237.577C339.544,-256.225 414.312,-289.529 457.729,-308.868"/>
<polygon fill="#9a32cd" stroke="#9a32cd" points="299.085,-234.371 288.526,-233.5 296.237,-240.766 299.085,-234.371"/>
<text text-anchor="middle" x="372" y="-284.911" font-family="Helvetica,sans-Serif" font-size="10.00"> spline</text>
</g>
<!-- Node4 -->
<g id="node4" class="node"><title>Node4</title>
<polygon fill="white" stroke="#bfbfbf" points="22.5,-236.411 22.5,-255.411 66.5,-255.411 66.5,-236.411 22.5,-236.411"/>
<text text-anchor="middle" x="44.5" y="-243.411" font-family="Helvetica,sans-Serif" font-size="10.00">logical</text>
</g>
<!-- Node4&#45;&gt;Node3 -->
<g id="edge3" class="edge"><title>Node4&#45;&gt;Node3</title>
<path fill="none" stroke="#9a32cd" stroke-dasharray="5,2" d="M54.2018,-227.217C64.0524,-208.537 82.0393,-180.92 107,-168.911 141.443,-152.34 156.793,-156.664 193,-168.911 219.523,-177.882 243.971,-200.968 256.408,-214.203"/>
<polygon fill="#9a32cd" stroke="#9a32cd" points="51.0131,-225.768 49.6859,-236.28 57.2784,-228.89 51.0131,-225.768"/>
<text text-anchor="middle" x="150" y="-193.911" font-family="Helvetica,sans-Serif" font-size="10.00"> use_fast_algorithm</text>
<text text-anchor="middle" x="150" y="-182.911" font-family="Helvetica,sans-Serif" font-size="10.00">compute_slope_l</text>
<text text-anchor="middle" x="150" y="-171.911" font-family="Helvetica,sans-Serif" font-size="10.00">compute_slope_r</text>
</g>
<!-- Node7 -->
<g id="node7" class="node"><title>Node7</title>
<g id="a_node7"><a xlink:href="structsll__m__cubic__non__uniform__splines_1_1sll__t__cubic__nonunif__spline__1d.html" target="_top" xlink:title="Spline object. ">
<polygon fill="white" stroke="black" points="216,-308.911 216,-338.911 316,-338.911 316,-308.911 216,-308.911"/>
<text text-anchor="start" x="224" y="-326.911" font-family="Helvetica,sans-Serif" font-size="10.00">sll_t_cubic_nonunif</text>
<text text-anchor="middle" x="266" y="-315.911" font-family="Helvetica,sans-Serif" font-size="10.00">_spline_1d</text>
</a>
</g>
</g>
<!-- Node4&#45;&gt;Node7 -->
<g id="edge9" class="edge"><title>Node4&#45;&gt;Node7</title>
<path fill="none" stroke="#9a32cd" stroke-dasharray="5,2" d="M59.615,-263.519C70.9785,-276.381 88.1242,-293.06 107,-301.911 141.102,-317.903 183.563,-323.112 215.876,-324.482"/>
<polygon fill="#9a32cd" stroke="#9a32cd" points="62.1575,-261.105 53.0226,-255.738 56.8168,-265.63 62.1575,-261.105"/>
<text text-anchor="middle" x="150" y="-324.911" font-family="Helvetica,sans-Serif" font-size="10.00"> is_setup</text>
</g>
<!-- Node5 -->
<g id="node5" class="node"><title>Node5</title>
<polygon fill="white" stroke="#bfbfbf" points="0,-404.411 0,-423.411 89,-423.411 89,-404.411 0,-404.411"/>
<text text-anchor="middle" x="44.5" y="-411.411" font-family="Helvetica,sans-Serif" font-size="10.00">integer(kind=i32)</text>
</g>
<!-- Node5&#45;&gt;Node1 -->
<g id="edge6" class="edge"><title>Node5&#45;&gt;Node1</title>
<path fill="none" stroke="#9a32cd" stroke-dasharray="5,2" d="M58.9125,-431.824C70.0966,-445.153 87.3366,-462.3 107,-469.911 142.645,-483.708 155.762,-478.53 193,-469.911 304.284,-444.154 421.99,-370.902 469.613,-339.032"/>
<polygon fill="#9a32cd" stroke="#9a32cd" points="61.4464,-429.388 52.4729,-423.755 55.9751,-433.755 61.4464,-429.388"/>
<text text-anchor="middle" x="266" y="-478.911" font-family="Helvetica,sans-Serif" font-size="10.00"> num_points</text>
<text text-anchor="middle" x="266" y="-467.911" font-family="Helvetica,sans-Serif" font-size="10.00">bc_type</text>
</g>
<!-- Node5&#45;&gt;Node3 -->
<g id="edge4" class="edge"><title>Node5&#45;&gt;Node3</title>
<path fill="none" stroke="#9a32cd" stroke-dasharray="5,2" d="M59.2513,-396.239C70.6223,-382.859 87.9484,-365.099 107,-354.911 141.519,-336.453 162.132,-359.982 193,-335.911 207.107,-324.911 201.792,-315.248 211,-299.911 225.997,-274.933 246.601,-247.507 257.513,-233.424"/>
<polygon fill="#9a32cd" stroke="#9a32cd" points="56.3007,-394.319 52.6806,-404.276 61.72,-398.749 56.3007,-394.319"/>
<text text-anchor="middle" x="150" y="-379.911" font-family="Helvetica,sans-Serif" font-size="10.00"> ipiv</text>
<text text-anchor="middle" x="150" y="-368.911" font-family="Helvetica,sans-Serif" font-size="10.00">n_points</text>
<text text-anchor="middle" x="150" y="-357.911" font-family="Helvetica,sans-Serif" font-size="10.00">bc_type</text>
</g>
<!-- Node5&#45;&gt;Node7 -->
<g id="edge10" class="edge"><title>Node5&#45;&gt;Node7</title>
<path fill="none" stroke="#9a32cd" stroke-dasharray="5,2" d="M99.506,-413.602C128.478,-411.568 164.069,-405.974 193,-391.911 218.36,-379.584 240.777,-355.144 253.613,-339.169"/>
<polygon fill="#9a32cd" stroke="#9a32cd" points="98.9378,-410.129 89.1561,-414.199 99.3411,-417.117 98.9378,-410.129"/>
<text text-anchor="middle" x="150" y="-459.911" font-family="Helvetica,sans-Serif" font-size="10.00"> size_ibuf</text>
<text text-anchor="middle" x="150" y="-448.911" font-family="Helvetica,sans-Serif" font-size="10.00">size_buf</text>
<text text-anchor="middle" x="150" y="-437.911" font-family="Helvetica,sans-Serif" font-size="10.00">ibuf</text>
<text text-anchor="middle" x="150" y="-426.911" font-family="Helvetica,sans-Serif" font-size="10.00">bc_type</text>
<text text-anchor="middle" x="150" y="-415.911" font-family="Helvetica,sans-Serif" font-size="10.00">n_cells</text>
</g>
<!-- Node6 -->
<g id="node6" class="node"><title>Node6</title>
<polygon fill="white" stroke="#bfbfbf" points="6.5,-14.4112 6.5,-33.4112 82.5,-33.4112 82.5,-14.4112 6.5,-14.4112"/>
<text text-anchor="middle" x="44.5" y="-21.4112" font-family="Helvetica,sans-Serif" font-size="10.00">real(kind=f64)</text>
</g>
<!-- Node6&#45;&gt;Node1 -->
<g id="edge7" class="edge"><title>Node6&#45;&gt;Node1</title>
<path fill="none" stroke="#9a32cd" stroke-dasharray="5,2" d="M79.6963,-11.2216C110.556,-1.86929 156.566,6.75737 193,-8.91119 343.191,-73.5015 453.24,-254.925 483.285,-308.704"/>
<polygon fill="#9a32cd" stroke="#9a32cd" points="78.2968,-7.99498 69.8473,-14.387 80.4387,-14.6592 78.2968,-7.99498"/>
<text text-anchor="middle" x="266" y="-95.9112" font-family="Helvetica,sans-Serif" font-size="10.00"> interpolation_points</text>
</g>
<!-- Node6&#45;&gt;Node3 -->
<g id="edge5" class="edge"><title>Node6&#45;&gt;Node3</title>
<path fill="none" stroke="#9a32cd" stroke-dasharray="5,2" d="M92.8343,-14.4461C124.191,-10.9271 164.621,-11.9745 193,-32.9112 254.311,-78.144 263.423,-182.119 264.769,-214.264"/>
<polygon fill="#9a32cd" stroke="#9a32cd" points="92.0379,-11.0206 82.5785,-15.7925 92.9491,-17.961 92.0379,-11.0206"/>
<text text-anchor="middle" x="150" y="-145.911" font-family="Helvetica,sans-Serif" font-size="10.00"> slope_r</text>
<text text-anchor="middle" x="150" y="-134.911" font-family="Helvetica,sans-Serif" font-size="10.00">delta</text>
<text text-anchor="middle" x="150" y="-123.911" font-family="Helvetica,sans-Serif" font-size="10.00">f_aux</text>
<text text-anchor="middle" x="150" y="-112.911" font-family="Helvetica,sans-Serif" font-size="10.00">rdelta</text>
<text text-anchor="middle" x="150" y="-101.911" font-family="Helvetica,sans-Serif" font-size="10.00">coeffs</text>
<text text-anchor="middle" x="150" y="-90.9112" font-family="Helvetica,sans-Serif" font-size="10.00">slope_l</text>
<text text-anchor="middle" x="150" y="-79.9112" font-family="Helvetica,sans-Serif" font-size="10.00">xmin</text>
<text text-anchor="middle" x="150" y="-68.9112" font-family="Helvetica,sans-Serif" font-size="10.00">a</text>
<text text-anchor="middle" x="150" y="-57.9112" font-family="Helvetica,sans-Serif" font-size="10.00">xmax</text>
<text text-anchor="middle" x="150" y="-46.9112" font-family="Helvetica,sans-Serif" font-size="10.00">cts</text>
<text text-anchor="middle" x="150" y="-35.9112" font-family="Helvetica,sans-Serif" font-size="10.00">...</text>
</g>
<!-- Node6&#45;&gt;Node7 -->
<g id="edge11" class="edge"><title>Node6&#45;&gt;Node7</title>
<path fill="none" stroke="#9a32cd" stroke-dasharray="5,2" d="M46.3159,-43.8216C48.9563,-80.8035 60.0986,-160.125 107,-201.911 136.227,-227.95 160.454,-199.163 193,-220.911 197.376,-223.836 236.077,-280.893 254.86,-308.799"/>
<polygon fill="#9a32cd" stroke="#9a32cd" points="49.8076,-43.5748 45.7393,-33.7922 42.8191,-43.9767 49.8076,-43.5748"/>
<text text-anchor="middle" x="150" y="-289.911" font-family="Helvetica,sans-Serif" font-size="10.00"> slope_r</text>
<text text-anchor="middle" x="150" y="-278.911" font-family="Helvetica,sans-Serif" font-size="10.00">coeffs</text>
<text text-anchor="middle" x="150" y="-267.911" font-family="Helvetica,sans-Serif" font-size="10.00">slope_l</text>
<text text-anchor="middle" x="150" y="-256.911" font-family="Helvetica,sans-Serif" font-size="10.00">xmin</text>
<text text-anchor="middle" x="150" y="-245.911" font-family="Helvetica,sans-Serif" font-size="10.00">xmax</text>
<text text-anchor="middle" x="150" y="-234.911" font-family="Helvetica,sans-Serif" font-size="10.00">buf</text>
<text text-anchor="middle" x="150" y="-223.911" font-family="Helvetica,sans-Serif" font-size="10.00">node_positions</text>
</g>
<!-- Node7&#45;&gt;Node1 -->
<g id="edge8" class="edge"><title>Node7&#45;&gt;Node1</title>
<path fill="none" stroke="#9a32cd" stroke-dasharray="5,2" d="M326.453,-323.911C356.049,-323.911 391.987,-323.911 422.763,-323.911"/>
<polygon fill="#9a32cd" stroke="#9a32cd" points="326.268,-320.411 316.267,-323.911 326.267,-327.411 326.268,-320.411"/>
<text text-anchor="middle" x="372" y="-326.911" font-family="Helvetica,sans-Serif" font-size="10.00"> nonunif_spline</text>
</g>
</g>
</svg>
        <g id="navigator" transform="translate(0 0)" fill="#404254">
                <rect fill="#f2f5e9" fill-opacity="0.5" stroke="#606060" stroke-width=".5" x="0" y="0" width="60" height="60"/>
                <use id="zoomplus" xlink:href="#zoomPlus" x="17" y="9" onmousedown="handleZoom(evt,'in')"/>
                <use id="zoomminus" xlink:href="#zoomMin" x="42" y="9" onmousedown="handleZoom(evt,'out')"/>
                <use id="reset" xlink:href="#resetDef" x="30" y="36" onmousedown="handleReset()"/>
                <g id="arrowUp" xlink:href="#dirArrow" transform="translate(30 24)" onmousedown="handlePan(0,-1)">
                  <use xlink:href="#rim" fill="#404040">
                        <set attributeName="fill" to="#808080" begin="arrowUp.mouseover" end="arrowUp.mouseout"/>
                  </use>
                  <path fill="none" stroke="white" stroke-width="1.5" d="M0,-3.0v7 M-2.5,-0.5L0,-3.0L2.5,-0.5"/>
                </g>
                <g id="arrowRight" xlink:href="#dirArrow" transform="rotate(90) translate(36 -43)" onmousedown="handlePan(1,0)">
                  <use xlink:href="#rim" fill="#404040">
                        <set attributeName="fill" to="#808080" begin="arrowRight.mouseover" end="arrowRight.mouseout"/>
                  </use>
                  <path fill="none" stroke="white" stroke-width="1.5" d="M0,-3.0v7 M-2.5,-0.5L0,-3.0L2.5,-0.5"/>
                </g>
                <g id="arrowDown" xlink:href="#dirArrow" transform="rotate(180) translate(-30 -48)" onmousedown="handlePan(0,1)">
                  <use xlink:href="#rim" fill="#404040">
                        <set attributeName="fill" to="#808080" begin="arrowDown.mouseover" end="arrowDown.mouseout"/>
                  </use>
                  <path fill="none" stroke="white" stroke-width="1.5" d="M0,-3.0v7 M-2.5,-0.5L0,-3.0L2.5,-0.5"/>
                </g>
                <g id="arrowLeft" xlink:href="#dirArrow" transform="rotate(270) translate(-36 17)" onmousedown="handlePan(-1,0)">
                  <use xlink:href="#rim" fill="#404040">
                        <set attributeName="fill" to="#808080" begin="arrowLeft.mouseover" end="arrowLeft.mouseout"/>
                  </use>
                  <path fill="none" stroke="white" stroke-width="1.5" d="M0,-3.0v7 M-2.5,-0.5L0,-3.0L2.5,-0.5"/>
                </g>
        </g>
        <svg viewBox="0 0 15 15" width="100%" height="30px" preserveAspectRatio="xMaxYMin meet">
         <g id="arrow_out" transform="scale(0.3 0.3)">
          <a xlink:href="structsll__m__cubic__spline__interpolator__1d__nonuniform_1_1sll__t__cubic__spline__interpolator__1d__nonuniform__coll__graph_org.svg" target="_base">
           <rect id="button" ry="5" rx="5" y="6" x="6" height="38" width="38"
                fill="#f2f5e9" fill-opacity="0.5" stroke="#606060" stroke-width="1.0"/>
           <path id="arrow"
             d="M 11.500037,31.436501 C 11.940474,20.09759 22.043105,11.32322 32.158766,21.979434 L 37.068811,17.246167 C 37.068811,17.246167 37.088388,32 37.088388,32 L 22.160133,31.978069 C 22.160133,31.978069 26.997745,27.140456 26.997745,27.140456 C 18.528582,18.264221 13.291696,25.230495 11.500037,31.436501 z"
             style="fill:#404040;"/>
          </a>
         </g>
        </svg>
</svg>
