<?xml version="1.0" encoding="UTF-8" standalone="no"?>
<!DOCTYPE svg PUBLIC "-//W3C//DTD SVG 1.1//EN"
 "http://www.w3.org/Graphics/SVG/1.1/DTD/svg11.dtd">
<!-- Generated by graphviz version 2.38.0 (20140413.2041)
 -->
<!-- Title: sll_t_distribution_function_4d_multipatch Pages: 1 -->
<!--zoomable 1087 -->
<svg id="main" version="1.1" xmlns="http://www.w3.org/2000/svg" xmlns:xlink="http://www.w3.org/1999/xlink" xml:space="preserve" onload="init(evt)">
<style type="text/css"><![CDATA[
.edge:hover path { stroke: red; }
.edge:hover polygon { stroke: red; fill: red; }
]]></style>
<script type="text/javascript"><![CDATA[
var edges = document.getElementsByTagName('g');
if (edges && edges.length) {
  for (var i=0;i<edges.length;i++) {
    if (edges[i].id.substr(0,4)=='edge') {
      edges[i].setAttribute('class','edge');
    }
  }
}
]]></script>
        <defs>
                <circle id="rim" cx="0" cy="0" r="7"/>
                <circle id="rim2" cx="0" cy="0" r="3.5"/>
                <g id="zoomPlus">
                        <use xlink:href="#rim" fill="#404040">
                                <set attributeName="fill" to="#808080" begin="zoomplus.mouseover" end="zoomplus.mouseout"/>
                        </use>
                        <path d="M-4,0h8M0,-4v8" fill="none" stroke="white" stroke-width="1.5" pointer-events="none"/>
                </g>
                <g id="zoomMin">
                        <use xlink:href="#rim" fill="#404040">
                                <set attributeName="fill" to="#808080" begin="zoomminus.mouseover" end="zoomminus.mouseout"/>
                        </use>
                        <path d="M-4,0h8" fill="none" stroke="white" stroke-width="1.5" pointer-events="none"/>
                </g>
                <g id="dirArrow">
                        <path fill="none" stroke="white" stroke-width="1.5" d="M0,-3.0v7 M-2.5,-0.5L0,-3.0L2.5,-0.5"/>
                </g>
               <g id="resetDef">
                       <use xlink:href="#rim2" fill="#404040">
                               <set attributeName="fill" to="#808080" begin="reset.mouseover" end="reset.mouseout"/>
                       </use>
               </g>
        </defs>

<script type="text/javascript">
var viewWidth = 1456;
var viewHeight = 1087;
var sectionId = 'dynsection-0';
</script>
<script xlink:href="svgpan.js"/>
<svg id="graph" class="graph">
<g id="viewport">
<title>sll_t_distribution_function_4d_multipatch</title>
<polygon fill="white" stroke="none" points="-4,4 -4,-1082.5 1452,-1082.5 1452,4 -4,4"/>
<!-- Node1 -->
<g id="node1" class="node"><title>Node1</title>
<polygon fill="#bfbfbf" stroke="black" points="1326,-196.5 1326,-226.5 1448,-226.5 1448,-196.5 1326,-196.5"/>
<text text-anchor="start" x="1334" y="-214.5" font-family="Helvetica,sans-Serif" font-size="10.00">sll_t_distribution</text>
<text text-anchor="middle" x="1387" y="-203.5" font-family="Helvetica,sans-Serif" font-size="10.00">_function_4d_multipatch</text>
</g>
<!-- Node2 -->
<g id="node2" class="node"><title>Node2</title>
<polygon fill="white" stroke="#bfbfbf" points="237.5,-365 237.5,-384 281.5,-384 281.5,-365 237.5,-365"/>
<text text-anchor="middle" x="259.5" y="-372" font-family="Helvetica,sans-Serif" font-size="10.00">logical</text>
</g>
<!-- Node2&#45;&gt;Node1 -->
<g id="edge1" class="edge"><title>Node2&#45;&gt;Node1</title>
<path fill="none" stroke="#9a32cd" stroke-dasharray="5,2" d="M291.904,-374.861C330.735,-375.077 398.828,-374.704 457,-370.5 837.154,-343.029 951.338,-398.901 1308,-264.5 1331.13,-255.783 1354.11,-238.909 1369.07,-226.535"/>
<polygon fill="#9a32cd" stroke="#9a32cd" points="291.785,-371.36 281.76,-374.787 291.734,-378.36 291.785,-371.36"/>
<text text-anchor="start" x="804" y="-375.5" font-family="Helvetica,sans-Serif" font-size="10.00"> ready_for_sequential</text>
<text text-anchor="middle" x="851" y="-364.5" font-family="Helvetica,sans-Serif" font-size="10.00">_ops_in_x1x2</text>
</g>
<!-- Node12 -->
<g id="node12" class="node"><title>Node12</title>
<g id="a_node12"><a xlink:href="structsll__m__coordinate__transformation__2d__base_1_1sll__c__coordinate__transformation__2d__base.html" target="_top" xlink:title="Abstract class for coordinate transformation. ">
<polygon fill="white" stroke="black" points="475,-481.5 475,-511.5 630,-511.5 630,-481.5 475,-481.5"/>
<text text-anchor="start" x="483" y="-499.5" font-family="Helvetica,sans-Serif" font-size="10.00">sll_c_coordinate_transformation</text>
<text text-anchor="middle" x="552.5" y="-488.5" font-family="Helvetica,sans-Serif" font-size="10.00">_2d_base</text>
</a>
</g>
</g>
<!-- Node2&#45;&gt;Node12 -->
<g id="edge16" class="edge"><title>Node2&#45;&gt;Node12</title>
<path fill="none" stroke="#9a32cd" stroke-dasharray="5,2" d="M291.698,-383.236C306.312,-387.201 323.992,-391.816 340,-395.5 391.645,-407.384 409.099,-395.828 457,-418.5 489.688,-433.971 520.634,-463.291 537.738,-481.244"/>
<polygon fill="#9a32cd" stroke="#9a32cd" points="292.236,-379.755 281.666,-380.487 290.385,-386.506 292.236,-379.755"/>
<text text-anchor="middle" x="398.5" y="-421.5" font-family="Helvetica,sans-Serif" font-size="10.00"> written</text>
</g>
<!-- Node14 -->
<g id="node14" class="node"><title>Node14</title>
<g id="a_node14"><a xlink:href="structsll__m__arbitrary__degree__spline__interpolator__2d_1_1sll__t__arbitrary__degree__spline__interpolator__2d.html" target="_top" xlink:title="Arbitrary degree version of 2d irnterpolator. ">
<polygon fill="white" stroke="black" points="494.5,-673.5 494.5,-703.5 610.5,-703.5 610.5,-673.5 494.5,-673.5"/>
<text text-anchor="start" x="502.5" y="-691.5" font-family="Helvetica,sans-Serif" font-size="10.00">sll_t_arbitrary_degree</text>
<text text-anchor="middle" x="552.5" y="-680.5" font-family="Helvetica,sans-Serif" font-size="10.00">_spline_interpolator_2d</text>
</a>
</g>
</g>
<!-- Node2&#45;&gt;Node14 -->
<g id="edge21" class="edge"><title>Node2&#45;&gt;Node14</title>
<path fill="none" stroke="#9a32cd" stroke-dasharray="5,2" d="M291.435,-378.95C302.051,-381.721 313.41,-386.215 322,-393.5 335.643,-405.07 325.589,-418.902 340,-429.5 382.441,-460.71 418.218,-412.846 457,-448.5 481.282,-470.824 464.12,-489.361 475,-520.5 495.296,-578.589 528.179,-644.044 543.352,-673.142"/>
<polygon fill="#9a32cd" stroke="#9a32cd" points="292.118,-375.516 281.599,-376.786 290.613,-382.353 292.118,-375.516"/>
<text text-anchor="middle" x="398.5" y="-539.5" font-family="Helvetica,sans-Serif" font-size="10.00"> compute_slope_max1</text>
<text text-anchor="middle" x="398.5" y="-528.5" font-family="Helvetica,sans-Serif" font-size="10.00">compute_slope_max2</text>
<text text-anchor="middle" x="398.5" y="-517.5" font-family="Helvetica,sans-Serif" font-size="10.00">compute_slope_min1</text>
<text text-anchor="middle" x="398.5" y="-506.5" font-family="Helvetica,sans-Serif" font-size="10.00">compute_value_min1</text>
<text text-anchor="middle" x="398.5" y="-495.5" font-family="Helvetica,sans-Serif" font-size="10.00">compute_slope_min2</text>
<text text-anchor="middle" x="398.5" y="-484.5" font-family="Helvetica,sans-Serif" font-size="10.00">compute_value_min2</text>
<text text-anchor="middle" x="398.5" y="-473.5" font-family="Helvetica,sans-Serif" font-size="10.00">coefficients_set</text>
<text text-anchor="middle" x="398.5" y="-462.5" font-family="Helvetica,sans-Serif" font-size="10.00">compute_value_max1</text>
<text text-anchor="middle" x="398.5" y="-451.5" font-family="Helvetica,sans-Serif" font-size="10.00">compute_value_max2</text>
</g>
<!-- Node3 -->
<g id="node3" class="node"><title>Node3</title>
<polygon fill="white" stroke="#bfbfbf" points="1075,-747.5 1075,-777.5 1181,-777.5 1181,-747.5 1075,-747.5"/>
<text text-anchor="start" x="1083" y="-765.5" font-family="Helvetica,sans-Serif" font-size="10.00">sll_t_remap_plan_4d</text>
<text text-anchor="middle" x="1128" y="-754.5" font-family="Helvetica,sans-Serif" font-size="10.00">_real64_ptr</text>
</g>
<!-- Node3&#45;&gt;Node1 -->
<g id="edge2" class="edge"><title>Node3&#45;&gt;Node1</title>
<path fill="none" stroke="#9a32cd" stroke-dasharray="5,2" d="M1190.16,-746.752C1195.12,-744.125 1199.82,-741.064 1204,-737.5 1280.21,-672.459 1272.97,-631.365 1308,-537.5 1351.24,-421.641 1376.44,-273.502 1383.75,-226.504"/>
<polygon fill="#9a32cd" stroke="#9a32cd" points="1188.58,-743.625 1181.01,-751.029 1191.55,-749.967 1188.58,-743.625"/>
<text text-anchor="middle" x="1265" y="-733.5" font-family="Helvetica,sans-Serif" font-size="10.00"> remap_x3x4tox1x2</text>
<text text-anchor="middle" x="1265" y="-722.5" font-family="Helvetica,sans-Serif" font-size="10.00">remap_x1x2tox3x4</text>
</g>
<!-- Node4 -->
<g id="node4" class="node"><title>Node4</title>
<g id="a_node4"><a xlink:href="structsll__m__cartesian__meshes_1_1sll__t__cartesian__mesh__2d.html" target="_top" xlink:title="2D cartesian mesh ">
<polygon fill="white" stroke="black" points="197,-213 197,-232 322,-232 322,-213 197,-213"/>
<text text-anchor="middle" x="259.5" y="-220" font-family="Helvetica,sans-Serif" font-size="10.00">sll_t_cartesian_mesh_2d</text>
</a>
</g>
</g>
<!-- Node4&#45;&gt;Node1 -->
<g id="edge3" class="edge"><title>Node4&#45;&gt;Node1</title>
<path fill="none" stroke="#9a32cd" stroke-dasharray="5,2" d="M332.378,-218.27C391.255,-215.17 476.741,-211.5 551.5,-211.5 551.5,-211.5 551.5,-211.5 1129,-211.5 1196.37,-211.5 1273.68,-211.5 1325.76,-211.5"/>
<polygon fill="#9a32cd" stroke="#9a32cd" points="331.867,-214.793 322.069,-218.822 332.241,-221.783 331.867,-214.793"/>
<text text-anchor="middle" x="851" y="-214.5" font-family="Helvetica,sans-Serif" font-size="10.00"> mesh_v</text>
</g>
<!-- Node4&#45;&gt;Node12 -->
<g id="edge17" class="edge"><title>Node4&#45;&gt;Node12</title>
<path fill="none" stroke="#9a32cd" stroke-dasharray="5,2" d="M332.467,-233.124C380.503,-241.493 438.183,-254.418 457,-270.5 524.085,-327.832 544.504,-440.702 549.833,-481.412"/>
<polygon fill="#9a32cd" stroke="#9a32cd" points="332.827,-229.634 322.381,-231.407 331.652,-236.535 332.827,-229.634"/>
<text text-anchor="middle" x="398.5" y="-273.5" font-family="Helvetica,sans-Serif" font-size="10.00"> mesh</text>
</g>
<!-- Node5 -->
<g id="node5" class="node"><title>Node5</title>
<g id="a_node5"><a xlink:href="structsll__m__meshes__base_1_1sll__c__mesh__2d__base.html" target="_top" xlink:title="2D logical mesh ">
<polygon fill="white" stroke="black" points="0,-85 0,-104 108,-104 108,-85 0,-85"/>
<text text-anchor="middle" x="54" y="-92" font-family="Helvetica,sans-Serif" font-size="10.00">sll_c_mesh_2d_base</text>
</a>
</g>
</g>
<!-- Node5&#45;&gt;Node4 -->
<g id="edge4" class="edge"><title>Node5&#45;&gt;Node4</title>
<path fill="none" stroke="midnightblue" d="M118.407,-87.6169C139.969,-88.6317 162.708,-93.892 179,-108.5 206.134,-132.83 175.132,-159.345 197,-188.5 205.345,-199.626 218.454,-207.585 230.428,-212.992"/>
<polygon fill="midnightblue" stroke="midnightblue" points="118.343,-84.1153 108.281,-87.434 118.216,-91.1141 118.343,-84.1153"/>
</g>
<!-- Node6 -->
<g id="node6" class="node"><title>Node6</title>
<polygon fill="white" stroke="#bfbfbf" points="9.5,-661 9.5,-680 98.5,-680 98.5,-661 9.5,-661"/>
<text text-anchor="middle" x="54" y="-668" font-family="Helvetica,sans-Serif" font-size="10.00">integer(kind=i32)</text>
</g>
<!-- Node6&#45;&gt;Node1 -->
<g id="edge10" class="edge"><title>Node6&#45;&gt;Node1</title>
<path fill="none" stroke="#9a32cd" stroke-dasharray="5,2" d="M69.3446,-653.174C95.761,-620.257 151.873,-545.435 179,-472.5 197.341,-423.188 169.723,-400.489 197,-355.5 315.741,-159.658 472.473,-250.5 701.5,-250.5 701.5,-250.5 701.5,-250.5 1129,-250.5 1197.03,-250.5 1274.06,-236.976 1325.9,-225.856"/>
<polygon fill="#9a32cd" stroke="#9a32cd" points="66.6054,-650.995 63.016,-660.963 72.0383,-655.409 66.6054,-650.995"/>
<text text-anchor="middle" x="702.5" y="-275.5" font-family="Helvetica,sans-Serif" font-size="10.00"> nproc_factor1</text>
<text text-anchor="middle" x="702.5" y="-264.5" font-family="Helvetica,sans-Serif" font-size="10.00">nproc_factor2</text>
<text text-anchor="middle" x="702.5" y="-253.5" font-family="Helvetica,sans-Serif" font-size="10.00">num_patches</text>
</g>
<!-- Node6&#45;&gt;Node4 -->
<g id="edge5" class="edge"><title>Node6&#45;&gt;Node4</title>
<path fill="none" stroke="#9a32cd" stroke-dasharray="5,2" d="M60.1987,-651.172C71.2832,-610.424 98.4818,-512.837 126,-432.5 126.883,-429.921 195.115,-251.469 197,-249.5 204.419,-241.751 214.448,-236.084 224.253,-232.004"/>
<polygon fill="#9a32cd" stroke="#9a32cd" points="56.8028,-650.323 57.5684,-660.89 63.5596,-652.152 56.8028,-650.323"/>
<text text-anchor="middle" x="152.5" y="-446.5" font-family="Helvetica,sans-Serif" font-size="10.00"> num_cells1</text>
<text text-anchor="middle" x="152.5" y="-435.5" font-family="Helvetica,sans-Serif" font-size="10.00">num_cells2</text>
</g>
<!-- Node8 -->
<g id="node8" class="node"><title>Node8</title>
<g id="a_node8"><a xlink:href="structsll__m__collective_1_1sll__t__collective__t.html" target="_top" xlink:title="Wrapper around the communicator. ">
<polygon fill="white" stroke="black" points="945,-986 945,-1005 1034,-1005 1034,-986 945,-986"/>
<text text-anchor="middle" x="989.5" y="-993" font-family="Helvetica,sans-Serif" font-size="10.00">sll_t_collective_t</text>
</a>
</g>
</g>
<!-- Node6&#45;&gt;Node8 -->
<g id="edge9" class="edge"><title>Node6&#45;&gt;Node8</title>
<path fill="none" stroke="#9a32cd" stroke-dasharray="5,2" d="M57.027,-690.065C63.6082,-749.83 86.2812,-928.374 126,-968.5 168.693,-1011.63 197.812,-1001.5 258.5,-1001.5 258.5,-1001.5 258.5,-1001.5 703.5,-1001.5 788.87,-1001.5 888.594,-998.776 944.565,-996.999"/>
<polygon fill="#9a32cd" stroke="#9a32cd" points="60.5003,-689.629 55.9548,-680.058 53.5402,-690.374 60.5003,-689.629"/>
<text text-anchor="middle" x="398.5" y="-1070.5" font-family="Helvetica,sans-Serif" font-size="10.00"> size</text>
<text text-anchor="middle" x="398.5" y="-1059.5" font-family="Helvetica,sans-Serif" font-size="10.00">thread_level_provided</text>
<text text-anchor="middle" x="398.5" y="-1048.5" font-family="Helvetica,sans-Serif" font-size="10.00">key</text>
<text text-anchor="middle" x="398.5" y="-1037.5" font-family="Helvetica,sans-Serif" font-size="10.00">thread_level_required</text>
<text text-anchor="middle" x="398.5" y="-1026.5" font-family="Helvetica,sans-Serif" font-size="10.00">comm</text>
<text text-anchor="middle" x="398.5" y="-1015.5" font-family="Helvetica,sans-Serif" font-size="10.00">rank</text>
<text text-anchor="middle" x="398.5" y="-1004.5" font-family="Helvetica,sans-Serif" font-size="10.00">color</text>
</g>
<!-- Node10 -->
<g id="node10" class="node"><title>Node10</title>
<g id="a_node10"><a xlink:href="structsll__m__coordinate__transformation__multipatch_1_1sll__t__coordinate__transformation__multipatch__2d.html" target="_top" xlink:title="basic type for the multipatch. It is meant to be an opaque entity and dealt with only through the met...">
<polygon fill="white" stroke="black" points="1052,-698.5 1052,-728.5 1204,-728.5 1204,-698.5 1052,-698.5"/>
<text text-anchor="start" x="1060" y="-716.5" font-family="Helvetica,sans-Serif" font-size="10.00">sll_t_coordinate_transformation</text>
<text text-anchor="middle" x="1128" y="-705.5" font-family="Helvetica,sans-Serif" font-size="10.00">_multipatch_2d</text>
</a>
</g>
</g>
<!-- Node6&#45;&gt;Node10 -->
<g id="edge32" class="edge"><title>Node6&#45;&gt;Node10</title>
<path fill="none" stroke="#9a32cd" stroke-dasharray="5,2" d="M55.553,-690.273C57.8268,-733.637 69.2469,-837.961 126,-897.5 192.354,-967.11 243.853,-927.484 340,-929.5 656.973,-936.147 785.065,-960.834 1034,-764.5 1045.32,-755.569 1040.49,-746.185 1052,-737.5 1056.58,-734.042 1061.68,-731.073 1067,-728.525"/>
<polygon fill="#9a32cd" stroke="#9a32cd" points="59.0461,-690.031 55.1368,-680.184 52.0521,-690.32 59.0461,-690.031"/>
<text text-anchor="middle" x="552.5" y="-958.5" font-family="Helvetica,sans-Serif" font-size="10.00"> global_indices</text>
<text text-anchor="middle" x="552.5" y="-947.5" font-family="Helvetica,sans-Serif" font-size="10.00">connectivities</text>
<text text-anchor="middle" x="552.5" y="-936.5" font-family="Helvetica,sans-Serif" font-size="10.00">number_patches</text>
</g>
<!-- Node11 -->
<g id="node11" class="node"><title>Node11</title>
<g id="a_node11"><a xlink:href="structsll__m__coordinate__transformations__2d__nurbs_1_1sll__t__coordinate__transformation__2d__nurbs.html" target="_top" xlink:title="Nurbs&#45;based coordinate transformation. ">
<polygon fill="white" stroke="black" points="775,-592.5 775,-622.5 927,-622.5 927,-592.5 775,-592.5"/>
<text text-anchor="start" x="783" y="-610.5" font-family="Helvetica,sans-Serif" font-size="10.00">sll_t_coordinate_transformation</text>
<text text-anchor="middle" x="851" y="-599.5" font-family="Helvetica,sans-Serif" font-size="10.00">_2d_nurbs</text>
</a>
</g>
</g>
<!-- Node6&#45;&gt;Node11 -->
<g id="edge28" class="edge"><title>Node6&#45;&gt;Node11</title>
<path fill="none" stroke="#9a32cd" stroke-dasharray="5,2" d="M87.528,-657.378C115.896,-646.677 158.432,-632.401 197,-626.5 404.126,-594.808 652.391,-598.963 774.541,-603.731"/>
<polygon fill="#9a32cd" stroke="#9a32cd" points="86.1942,-654.141 78.1146,-660.995 88.7047,-660.675 86.1942,-654.141"/>
<text text-anchor="middle" x="398.5" y="-635.5" font-family="Helvetica,sans-Serif" font-size="10.00"> spline_deg1</text>
<text text-anchor="middle" x="398.5" y="-624.5" font-family="Helvetica,sans-Serif" font-size="10.00">spline_deg2</text>
<text text-anchor="middle" x="398.5" y="-613.5" font-family="Helvetica,sans-Serif" font-size="10.00">is_rational</text>
</g>
<!-- Node6&#45;&gt;Node14 -->
<g id="edge25" class="edge"><title>Node6&#45;&gt;Node14</title>
<path fill="none" stroke="#9a32cd" stroke-dasharray="5,2" d="M108.638,-678.017C185.673,-687.922 332.124,-703.433 457,-697.5 469.1,-696.925 482.041,-695.938 494.344,-694.824"/>
<polygon fill="#9a32cd" stroke="#9a32cd" points="109.059,-674.542 98.6899,-676.719 108.153,-681.483 109.059,-674.542"/>
<text text-anchor="middle" x="259.5" y="-810.5" font-family="Helvetica,sans-Serif" font-size="10.00"> bc1_max</text>
<text text-anchor="middle" x="259.5" y="-799.5" font-family="Helvetica,sans-Serif" font-size="10.00">bc2_max</text>
<text text-anchor="middle" x="259.5" y="-788.5" font-family="Helvetica,sans-Serif" font-size="10.00">num_pts1</text>
<text text-anchor="middle" x="259.5" y="-777.5" font-family="Helvetica,sans-Serif" font-size="10.00">size_coeffs1</text>
<text text-anchor="middle" x="259.5" y="-766.5" font-family="Helvetica,sans-Serif" font-size="10.00">num_pts2</text>
<text text-anchor="middle" x="259.5" y="-755.5" font-family="Helvetica,sans-Serif" font-size="10.00">size_coeffs2</text>
<text text-anchor="middle" x="259.5" y="-744.5" font-family="Helvetica,sans-Serif" font-size="10.00">size_t1</text>
<text text-anchor="middle" x="259.5" y="-733.5" font-family="Helvetica,sans-Serif" font-size="10.00">size_t2</text>
<text text-anchor="middle" x="259.5" y="-722.5" font-family="Helvetica,sans-Serif" font-size="10.00">spline_degree1</text>
<text text-anchor="middle" x="259.5" y="-711.5" font-family="Helvetica,sans-Serif" font-size="10.00">spline_degree2</text>
<text text-anchor="middle" x="259.5" y="-700.5" font-family="Helvetica,sans-Serif" font-size="10.00">...</text>
</g>
<!-- Node16 -->
<g id="node16" class="node"><title>Node16</title>
<g id="a_node16"><a xlink:href="structsll__m__deboor__splines__1d_1_1sll__t__deboor__type.html" target="_top" xlink:title="sll_t_deboor_type">
<polygon fill="white" stroke="black" points="213,-636 213,-655 306,-655 306,-636 213,-636"/>
<text text-anchor="middle" x="259.5" y="-643" font-family="Helvetica,sans-Serif" font-size="10.00">sll_t_deboor_type</text>
</a>
</g>
</g>
<!-- Node6&#45;&gt;Node16 -->
<g id="edge23" class="edge"><title>Node6&#45;&gt;Node16</title>
<path fill="none" stroke="#9a32cd" stroke-dasharray="5,2" d="M105.372,-658.998C112.278,-657.673 119.296,-656.457 126,-655.5 154.775,-651.393 187.323,-648.906 212.958,-647.44"/>
<polygon fill="#9a32cd" stroke="#9a32cd" points="104.502,-655.602 95.3847,-660.998 105.877,-662.466 104.502,-655.602"/>
<text text-anchor="middle" x="152.5" y="-669.5" font-family="Helvetica,sans-Serif" font-size="10.00"> j</text>
<text text-anchor="middle" x="152.5" y="-658.5" font-family="Helvetica,sans-Serif" font-size="10.00">ilo</text>
</g>
<!-- Node18 -->
<g id="node18" class="node"><title>Node18</title>
<g id="a_node18"><a xlink:href="structsll__m__coordinate__transformation__multipatch_1_1multipatch__data__2d__int.html" target="_top" xlink:title="multipatch_data_2d_int">
<polygon fill="white" stroke="black" points="340,-901 340,-920 457,-920 457,-901 340,-901"/>
<text text-anchor="middle" x="398.5" y="-908" font-family="Helvetica,sans-Serif" font-size="10.00">multipatch_data_2d_int</text>
</a>
</g>
</g>
<!-- Node6&#45;&gt;Node18 -->
<g id="edge31" class="edge"><title>Node6&#45;&gt;Node18</title>
<path fill="none" stroke="#9a32cd" stroke-dasharray="5,2" d="M60.4612,-689.898C74.4438,-735.499 116.251,-849.286 197,-897.5 239.978,-923.161 297.773,-924.139 340.27,-920.042"/>
<polygon fill="#9a32cd" stroke="#9a32cd" points="63.7521,-688.684 57.5638,-680.084 57.0386,-690.666 63.7521,-688.684"/>
<text text-anchor="middle" x="152.5" y="-885.5" font-family="Helvetica,sans-Serif" font-size="10.00"> array</text>
</g>
<!-- Node7 -->
<g id="node7" class="node"><title>Node7</title>
<polygon fill="white" stroke="#bfbfbf" points="16,-253 16,-272 92,-272 92,-253 16,-253"/>
<text text-anchor="middle" x="54" y="-260" font-family="Helvetica,sans-Serif" font-size="10.00">real(kind=f64)</text>
</g>
<!-- Node7&#45;&gt;Node4 -->
<g id="edge6" class="edge"><title>Node7&#45;&gt;Node4</title>
<path fill="none" stroke="#9a32cd" stroke-dasharray="5,2" d="M76.3078,-247.134C89.8248,-238.346 108.087,-228.168 126,-223.5 148.706,-217.583 174.353,-216.222 196.992,-216.727"/>
<polygon fill="#9a32cd" stroke="#9a32cd" points="74.0912,-244.408 67.7707,-252.911 78.0142,-250.205 74.0912,-244.408"/>
<text text-anchor="middle" x="152.5" y="-281.5" font-family="Helvetica,sans-Serif" font-size="10.00"> delta_eta1</text>
<text text-anchor="middle" x="152.5" y="-270.5" font-family="Helvetica,sans-Serif" font-size="10.00">eta2_max</text>
<text text-anchor="middle" x="152.5" y="-259.5" font-family="Helvetica,sans-Serif" font-size="10.00">delta_eta2</text>
<text text-anchor="middle" x="152.5" y="-248.5" font-family="Helvetica,sans-Serif" font-size="10.00">eta1_min</text>
<text text-anchor="middle" x="152.5" y="-237.5" font-family="Helvetica,sans-Serif" font-size="10.00">eta2_min</text>
<text text-anchor="middle" x="152.5" y="-226.5" font-family="Helvetica,sans-Serif" font-size="10.00">eta1_max</text>
</g>
<!-- Node9 -->
<g id="node9" class="node"><title>Node9</title>
<g id="a_node9"><a xlink:href="structsll__m__distribution__function__4d__multipatch_1_1data__4d__ptr.html" target="_top" xlink:title="data_4d_ptr">
<polygon fill="white" stroke="black" points="364.5,-103 364.5,-122 432.5,-122 432.5,-103 364.5,-103"/>
<text text-anchor="middle" x="398.5" y="-110" font-family="Helvetica,sans-Serif" font-size="10.00">data_4d_ptr</text>
</a>
</g>
</g>
<!-- Node7&#45;&gt;Node9 -->
<g id="edge12" class="edge"><title>Node7&#45;&gt;Node9</title>
<path fill="none" stroke="#9a32cd" stroke-dasharray="5,2" d="M61.1165,-243.261C70.5276,-217.082 91.2118,-170.936 126,-148.5 200.323,-100.567 309.968,-103.282 364.374,-108.351"/>
<polygon fill="#9a32cd" stroke="#9a32cd" points="57.7683,-242.236 57.8611,-252.83 64.3953,-244.49 57.7683,-242.236"/>
<text text-anchor="middle" x="152.5" y="-151.5" font-family="Helvetica,sans-Serif" font-size="10.00"> f</text>
</g>
<!-- Node7&#45;&gt;Node11 -->
<g id="edge29" class="edge"><title>Node7&#45;&gt;Node11</title>
<path fill="none" stroke="#9a32cd" stroke-dasharray="5,2" d="M85.3805,-276.008C97.756,-280.992 112.341,-286.217 126,-289.5 269.882,-324.08 318.075,-274.534 457,-325.5 625.716,-387.395 786.985,-542.868 835.36,-592.217"/>
<polygon fill="#9a32cd" stroke="#9a32cd" points="86.5667,-272.711 75.9892,-272.105 83.8804,-279.175 86.5667,-272.711"/>
<text text-anchor="middle" x="398.5" y="-383.5" font-family="Helvetica,sans-Serif" font-size="10.00"> x2_cell</text>
<text text-anchor="middle" x="398.5" y="-372.5" font-family="Helvetica,sans-Serif" font-size="10.00">x2_node</text>
<text text-anchor="middle" x="398.5" y="-361.5" font-family="Helvetica,sans-Serif" font-size="10.00">x1_cell</text>
<text text-anchor="middle" x="398.5" y="-350.5" font-family="Helvetica,sans-Serif" font-size="10.00">x1_node</text>
<text text-anchor="middle" x="398.5" y="-339.5" font-family="Helvetica,sans-Serif" font-size="10.00">knots1</text>
<text text-anchor="middle" x="398.5" y="-328.5" font-family="Helvetica,sans-Serif" font-size="10.00">knots2</text>
</g>
<!-- Node7&#45;&gt;Node14 -->
<g id="edge27" class="edge"><title>Node7&#45;&gt;Node14</title>
<path fill="none" stroke="#9a32cd" stroke-dasharray="5,2" d="M60.6746,-282.084C70.0376,-311.454 91.2256,-367.218 126,-402.5 195.078,-472.587 265.685,-424.8 322,-505.5 356.892,-555.501 298.804,-596.551 340,-641.5 342.665,-644.407 432.652,-663.685 494.377,-676.631"/>
<polygon fill="#9a32cd" stroke="#9a32cd" points="63.9298,-280.759 57.6615,-272.218 57.235,-282.804 63.9298,-280.759"/>
<text text-anchor="middle" x="259.5" y="-618.5" font-family="Helvetica,sans-Serif" font-size="10.00"> coeff_splines</text>
<text text-anchor="middle" x="259.5" y="-607.5" font-family="Helvetica,sans-Serif" font-size="10.00">eta2_max</text>
<text text-anchor="middle" x="259.5" y="-596.5" font-family="Helvetica,sans-Serif" font-size="10.00">t1</text>
<text text-anchor="middle" x="259.5" y="-585.5" font-family="Helvetica,sans-Serif" font-size="10.00">t2</text>
<text text-anchor="middle" x="259.5" y="-574.5" font-family="Helvetica,sans-Serif" font-size="10.00">slope_max1</text>
<text text-anchor="middle" x="259.5" y="-563.5" font-family="Helvetica,sans-Serif" font-size="10.00">slope_max2</text>
<text text-anchor="middle" x="259.5" y="-552.5" font-family="Helvetica,sans-Serif" font-size="10.00">eta1_min</text>
<text text-anchor="middle" x="259.5" y="-541.5" font-family="Helvetica,sans-Serif" font-size="10.00">eta2_min</text>
<text text-anchor="middle" x="259.5" y="-530.5" font-family="Helvetica,sans-Serif" font-size="10.00">gtau_der1</text>
<text text-anchor="middle" x="259.5" y="-519.5" font-family="Helvetica,sans-Serif" font-size="10.00">value_min1</text>
<text text-anchor="middle" x="259.5" y="-508.5" font-family="Helvetica,sans-Serif" font-size="10.00">...</text>
</g>
<!-- Node7&#45;&gt;Node16 -->
<g id="edge24" class="edge"><title>Node7&#45;&gt;Node16</title>
<path fill="none" stroke="#9a32cd" stroke-dasharray="5,2" d="M60.6793,-281.675C76.6016,-333.52 125.245,-479.563 197,-583.5 211.471,-604.461 233.434,-624.612 246.825,-635.989"/>
<polygon fill="#9a32cd" stroke="#9a32cd" points="64.026,-280.65 57.7818,-272.091 57.3255,-282.676 64.026,-280.65"/>
<text text-anchor="middle" x="152.5" y="-566.5" font-family="Helvetica,sans-Serif" font-size="10.00"> deltal</text>
<text text-anchor="middle" x="152.5" y="-555.5" font-family="Helvetica,sans-Serif" font-size="10.00">deltar</text>
</g>
<!-- Node21 -->
<g id="node21" class="node"><title>Node21</title>
<g id="a_node21"><a xlink:href="structsll__m__coordinate__transformation__multipatch_1_1sll__t__multipatch__data__2d__real.html" target="_top" xlink:title="sll_t_multipatch_data\l_2d_real">
<polygon fill="white" stroke="black" points="648,-154.5 648,-184.5 757,-184.5 757,-154.5 648,-154.5"/>
<text text-anchor="start" x="656" y="-172.5" font-family="Helvetica,sans-Serif" font-size="10.00">sll_t_multipatch_data</text>
<text text-anchor="middle" x="702.5" y="-161.5" font-family="Helvetica,sans-Serif" font-size="10.00">_2d_real</text>
</a>
</g>
</g>
<!-- Node7&#45;&gt;Node21 -->
<g id="edge36" class="edge"><title>Node7&#45;&gt;Node21</title>
<path fill="none" stroke="#9a32cd" stroke-dasharray="5,2" d="M74.5182,-246.503C88.2293,-235.918 107.377,-222.4 126,-213.5 155.69,-199.31 164.549,-197.956 197,-192.5 359.337,-165.207 554.916,-165.576 647.66,-167.713"/>
<polygon fill="#9a32cd" stroke="#9a32cd" points="72.028,-244.01 66.3534,-252.957 76.3689,-249.501 72.028,-244.01"/>
<text text-anchor="middle" x="259.5" y="-195.5" font-family="Helvetica,sans-Serif" font-size="10.00"> array</text>
</g>
<!-- Node8&#45;&gt;Node1 -->
<g id="edge7" class="edge"><title>Node8&#45;&gt;Node1</title>
<path fill="none" stroke="#9a32cd" stroke-dasharray="5,2" d="M1025.17,-981.463C1028.21,-979.9 1031.2,-978.24 1034,-976.5 1169.28,-892.415 1230.56,-884.69 1308,-745.5 1359.76,-652.47 1381.09,-303.811 1385.23,-226.672"/>
<polygon fill="#9a32cd" stroke="#9a32cd" points="1023.5,-978.382 1015.97,-985.842 1026.5,-984.703 1023.5,-978.382"/>
<text text-anchor="middle" x="1128" y="-965.5" font-family="Helvetica,sans-Serif" font-size="10.00"> collective</text>
</g>
<!-- Node8&#45;&gt;Node8 -->
<g id="edge8" class="edge"><title>Node8&#45;&gt;Node8</title>
<path fill="none" stroke="#9a32cd" stroke-dasharray="5,2" d="M963.83,-1014.53C965.231,-1019.63 973.787,-1023.5 989.5,-1023.5 1014.03,-1023.5 1021.12,-1014.07 1010.77,-1005.26"/>
<polygon fill="#9a32cd" stroke="#9a32cd" points="967.105,-1015.79 968.23,-1005.26 960.781,-1012.79 967.105,-1015.79"/>
<text text-anchor="middle" x="989.5" y="-1026.5" font-family="Helvetica,sans-Serif" font-size="10.00"> parent</text>
</g>
<!-- Node9&#45;&gt;Node1 -->
<g id="edge11" class="edge"><title>Node9&#45;&gt;Node1</title>
<path fill="none" stroke="#9a32cd" stroke-dasharray="5,2" d="M442.539,-109.016C501.091,-104.585 609.142,-97.5 701.5,-97.5 701.5,-97.5 701.5,-97.5 1129,-97.5 1209.21,-97.5 1237.42,-82.3993 1308,-120.5 1340.59,-138.094 1365.57,-175.216 1377.77,-196.204"/>
<polygon fill="#9a32cd" stroke="#9a32cd" points="442.245,-105.528 432.542,-109.784 442.781,-112.508 442.245,-105.528"/>
<text text-anchor="middle" x="851" y="-111.5" font-family="Helvetica,sans-Serif" font-size="10.00"> f_x1x2</text>
<text text-anchor="middle" x="851" y="-100.5" font-family="Helvetica,sans-Serif" font-size="10.00">f_x3x4</text>
</g>
<!-- Node10&#45;&gt;Node1 -->
<g id="edge13" class="edge"><title>Node10&#45;&gt;Node1</title>
<path fill="none" stroke="#9a32cd" stroke-dasharray="5,2" d="M1141.27,-689.53C1186.23,-601.715 1341.22,-298.966 1378.09,-226.957"/>
<polygon fill="#9a32cd" stroke="#9a32cd" points="1138.13,-687.98 1136.69,-698.476 1144.36,-691.17 1138.13,-687.98"/>
<text text-anchor="middle" x="1265" y="-525.5" font-family="Helvetica,sans-Serif" font-size="10.00"> transf</text>
</g>
<!-- Node11&#45;&gt;Node10 -->
<g id="edge14" class="edge"><title>Node11&#45;&gt;Node10</title>
<path fill="none" stroke="#9a32cd" stroke-dasharray="5,2" d="M900.705,-626.274C954.132,-646.867 1038.81,-679.508 1088.03,-698.477"/>
<polygon fill="#9a32cd" stroke="#9a32cd" points="901.698,-622.906 891.109,-622.575 899.181,-629.437 901.698,-622.906"/>
<text text-anchor="middle" x="989.5" y="-679.5" font-family="Helvetica,sans-Serif" font-size="10.00"> transfs</text>
</g>
<!-- Node12&#45;&gt;Node11 -->
<g id="edge15" class="edge"><title>Node12&#45;&gt;Node11</title>
<path fill="none" stroke="midnightblue" d="M603.493,-515.216C661.573,-536.959 756.253,-572.404 809.792,-592.448"/>
<polygon fill="midnightblue" stroke="midnightblue" points="604.388,-511.814 593.796,-511.585 601.934,-518.369 604.388,-511.814"/>
</g>
<!-- Node13 -->
<g id="node13" class="node"><title>Node13</title>
<polygon fill="white" stroke="#bfbfbf" points="213.5,-403 213.5,-422 305.5,-422 305.5,-403 213.5,-403"/>
<text text-anchor="middle" x="259.5" y="-410" font-family="Helvetica,sans-Serif" font-size="10.00">character(len=64)</text>
</g>
<!-- Node13&#45;&gt;Node12 -->
<g id="edge18" class="edge"><title>Node13&#45;&gt;Node12</title>
<path fill="none" stroke="#9a32cd" stroke-dasharray="5,2" d="M311.21,-426.878C315.276,-429.557 318.973,-432.734 322,-436.5 354.409,-476.824 300.692,-517.866 340,-551.5 396.79,-600.093 491.422,-541.328 532.026,-511.661"/>
<polygon fill="#9a32cd" stroke="#9a32cd" points="312.893,-423.81 302.446,-422.048 309.515,-429.94 312.893,-423.81"/>
<text text-anchor="middle" x="398.5" y="-573.5" font-family="Helvetica,sans-Serif" font-size="10.00"> label</text>
</g>
<!-- Node14&#45;&gt;Node11 -->
<g id="edge19" class="edge"><title>Node14&#45;&gt;Node11</title>
<path fill="none" stroke="#9a32cd" stroke-dasharray="5,2" d="M618.517,-670.738C671.344,-656.307 745.031,-636.176 794.97,-622.534"/>
<polygon fill="#9a32cd" stroke="#9a32cd" points="617.299,-667.443 608.575,-673.454 619.143,-674.195 617.299,-667.443"/>
<text text-anchor="middle" x="702.5" y="-687.5" font-family="Helvetica,sans-Serif" font-size="10.00"> x2_interp</text>
<text text-anchor="middle" x="702.5" y="-676.5" font-family="Helvetica,sans-Serif" font-size="10.00">x3_interp</text>
<text text-anchor="middle" x="702.5" y="-665.5" font-family="Helvetica,sans-Serif" font-size="10.00">x1_interp</text>
</g>
<!-- Node15 -->
<g id="node15" class="node"><title>Node15</title>
<g id="a_node15"><a xlink:href="structsll__m__interpolators__2d__base_1_1sll__c__interpolator__2d.html" target="_top" xlink:title="Base class/basic interface for 2D interpolators. ">
<polygon fill="white" stroke="black" points="206.5,-869 206.5,-888 312.5,-888 312.5,-869 206.5,-869"/>
<text text-anchor="middle" x="259.5" y="-876" font-family="Helvetica,sans-Serif" font-size="10.00">sll_c_interpolator_2d</text>
</a>
</g>
</g>
<!-- Node15&#45;&gt;Node14 -->
<g id="edge20" class="edge"><title>Node15&#45;&gt;Node14</title>
<path fill="none" stroke="midnightblue" d="M322.518,-871.3C363.695,-864.066 417.274,-849.722 457,-821.5 479.745,-805.341 523.445,-735.292 542.38,-703.862"/>
<polygon fill="midnightblue" stroke="midnightblue" points="321.892,-867.856 312.601,-872.949 323.039,-874.762 321.892,-867.856"/>
</g>
<!-- Node16&#45;&gt;Node14 -->
<g id="edge22" class="edge"><title>Node16&#45;&gt;Node14</title>
<path fill="none" stroke="#9a32cd" stroke-dasharray="5,2" d="M301.874,-657.724C314.067,-660.974 327.493,-664.212 340,-666.5 391.748,-675.967 451.419,-681.711 494.158,-684.944"/>
<polygon fill="#9a32cd" stroke="#9a32cd" points="302.539,-654.278 291.969,-655.012 300.69,-661.029 302.539,-654.278"/>
<text text-anchor="middle" x="398.5" y="-685.5" font-family="Helvetica,sans-Serif" font-size="10.00"> deboor</text>
</g>
<!-- Node17 -->
<g id="node17" class="node"><title>Node17</title>
<polygon fill="white" stroke="#bfbfbf" points="215,-831 215,-850 304,-850 304,-831 215,-831"/>
<text text-anchor="middle" x="259.5" y="-838" font-family="Helvetica,sans-Serif" font-size="10.00">integer(kind=i64)</text>
</g>
<!-- Node17&#45;&gt;Node14 -->
<g id="edge26" class="edge"><title>Node17&#45;&gt;Node14</title>
<path fill="none" stroke="#9a32cd" stroke-dasharray="5,2" d="M296.977,-827.214C305.294,-823.924 314.027,-820.258 322,-816.5 398.966,-780.227 485.594,-728.871 526.957,-703.659"/>
<polygon fill="#9a32cd" stroke="#9a32cd" points="295.541,-824.016 287.476,-830.887 298.065,-830.546 295.541,-824.016"/>
<text text-anchor="middle" x="398.5" y="-809.5" font-family="Helvetica,sans-Serif" font-size="10.00"> bc_selector</text>
</g>
<!-- Node18&#45;&gt;Node10 -->
<g id="edge30" class="edge"><title>Node18&#45;&gt;Node10</title>
<path fill="none" stroke="#9a32cd" stroke-dasharray="5,2" d="M444.372,-898.349C571.25,-863.992 932.385,-766.2 1071.46,-728.54"/>
<polygon fill="#9a32cd" stroke="#9a32cd" points="443.326,-895.006 434.589,-900.998 445.156,-901.763 443.326,-895.006"/>
<text text-anchor="middle" x="702.5" y="-854.5" font-family="Helvetica,sans-Serif" font-size="10.00"> local_indices</text>
<text text-anchor="middle" x="702.5" y="-843.5" font-family="Helvetica,sans-Serif" font-size="10.00">local_to_global_ind</text>
</g>
<!-- Node19 -->
<g id="node19" class="node"><title>Node19</title>
<polygon fill="white" stroke="#bfbfbf" points="802,-954 802,-973 900,-973 900,-954 802,-954"/>
<text text-anchor="middle" x="851" y="-961" font-family="Helvetica,sans-Serif" font-size="10.00">character(len=128)</text>
</g>
<!-- Node19&#45;&gt;Node10 -->
<g id="edge33" class="edge"><title>Node19&#45;&gt;Node10</title>
<path fill="none" stroke="#9a32cd" stroke-dasharray="5,2" d="M910.402,-963.464C957.079,-962.094 1017.36,-956.862 1034,-939.5 1065.19,-906.967 1023.84,-772.684 1052,-737.5 1054.73,-734.085 1057.96,-731.148 1061.5,-728.624"/>
<polygon fill="#9a32cd" stroke="#9a32cd" points="910.282,-959.966 900.369,-963.707 910.451,-966.964 910.282,-959.966"/>
<text text-anchor="middle" x="989.5" y="-964.5" font-family="Helvetica,sans-Serif" font-size="10.00"> name_root</text>
</g>
<!-- Node20 -->
<g id="node20" class="node"><title>Node20</title>
<polygon fill="white" stroke="#bfbfbf" points="1079,-126 1079,-145 1177,-145 1177,-126 1079,-126"/>
<text text-anchor="middle" x="1128" y="-133" font-family="Helvetica,sans-Serif" font-size="10.00">sll_t_layout_4d_ptr</text>
</g>
<!-- Node20&#45;&gt;Node1 -->
<g id="edge34" class="edge"><title>Node20&#45;&gt;Node1</title>
<path fill="none" stroke="#9a32cd" stroke-dasharray="5,2" d="M1187.57,-125.603C1223.6,-122.038 1269.99,-122.092 1308,-137.5 1337.58,-149.491 1362.45,-178.481 1375.7,-196.409"/>
<polygon fill="#9a32cd" stroke="#9a32cd" points="1186.77,-122.17 1177.22,-126.754 1187.55,-129.127 1186.77,-122.17"/>
<text text-anchor="middle" x="1265" y="-151.5" font-family="Helvetica,sans-Serif" font-size="10.00"> layouts_x3x4</text>
<text text-anchor="middle" x="1265" y="-140.5" font-family="Helvetica,sans-Serif" font-size="10.00">layouts_x1x2</text>
</g>
<!-- Node21&#45;&gt;Node1 -->
<g id="edge35" class="edge"><title>Node21&#45;&gt;Node1</title>
<path fill="none" stroke="#9a32cd" stroke-dasharray="5,2" d="M767.36,-169.708C877.872,-170.681 1111.79,-175.444 1308,-197.5 1313.74,-198.145 1319.7,-198.956 1325.65,-199.86"/>
<polygon fill="#9a32cd" stroke="#9a32cd" points="767.084,-166.206 757.056,-169.625 767.027,-173.205 767.084,-166.206"/>
<text text-anchor="middle" x="989.5" y="-180.5" font-family="Helvetica,sans-Serif" font-size="10.00"> rho_split</text>
</g>
<!-- Node22 -->
<g id="node22" class="node"><title>Node22</title>
<polygon fill="white" stroke="#bfbfbf" points="1079,-50 1079,-69 1177,-69 1177,-50 1079,-50"/>
<text text-anchor="middle" x="1128" y="-57" font-family="Helvetica,sans-Serif" font-size="10.00">sll_t_layout_2d_ptr</text>
</g>
<!-- Node22&#45;&gt;Node1 -->
<g id="edge37" class="edge"><title>Node22&#45;&gt;Node1</title>
<path fill="none" stroke="#9a32cd" stroke-dasharray="5,2" d="M1173.76,-47.9616C1212.25,-40.6893 1267.78,-36.7718 1308,-61.5 1357.26,-91.784 1376.9,-164.286 1383.33,-196.096"/>
<polygon fill="#9a32cd" stroke="#9a32cd" points="1172.97,-44.5502 1163.87,-49.9736 1174.36,-51.4097 1172.97,-44.5502"/>
<text text-anchor="middle" x="1265" y="-75.5" font-family="Helvetica,sans-Serif" font-size="10.00"> layouts_full</text>
<text text-anchor="middle" x="1265" y="-64.5" font-family="Helvetica,sans-Serif" font-size="10.00">layouts_split</text>
</g>
<!-- Node23 -->
<g id="node23" class="node"><title>Node23</title>
<polygon fill="white" stroke="#bfbfbf" points="1075,-0.5 1075,-30.5 1181,-30.5 1181,-0.5 1075,-0.5"/>
<text text-anchor="start" x="1083" y="-18.5" font-family="Helvetica,sans-Serif" font-size="10.00">sll_t_remap_plan_2d</text>
<text text-anchor="middle" x="1128" y="-7.5" font-family="Helvetica,sans-Serif" font-size="10.00">_real64_ptr</text>
</g>
<!-- Node23&#45;&gt;Node1 -->
<g id="edge38" class="edge"><title>Node23&#45;&gt;Node1</title>
<path fill="none" stroke="#9a32cd" stroke-dasharray="5,2" d="M1191.43,-4.38267C1228.54,-1.25183 1274.71,-3.816 1308,-27.5 1365.39,-68.332 1380.81,-160.106 1384.73,-196.356"/>
<polygon fill="#9a32cd" stroke="#9a32cd" points="1190.83,-0.925818 1181.22,-5.40393 1191.52,-7.89105 1190.83,-0.925818"/>
<text text-anchor="middle" x="1265" y="-30.5" font-family="Helvetica,sans-Serif" font-size="10.00"> remap_split2full</text>
</g>
</g>
</svg>
        <g id="navigator" transform="translate(0 0)" fill="#404254">
                <rect fill="#f2f5e9" fill-opacity="0.5" stroke="#606060" stroke-width=".5" x="0" y="0" width="60" height="60"/>
                <use id="zoomplus" xlink:href="#zoomPlus" x="17" y="9" onmousedown="handleZoom(evt,'in')"/>
                <use id="zoomminus" xlink:href="#zoomMin" x="42" y="9" onmousedown="handleZoom(evt,'out')"/>
                <use id="reset" xlink:href="#resetDef" x="30" y="36" onmousedown="handleReset()"/>
                <g id="arrowUp" xlink:href="#dirArrow" transform="translate(30 24)" onmousedown="handlePan(0,-1)">
                  <use xlink:href="#rim" fill="#404040">
                        <set attributeName="fill" to="#808080" begin="arrowUp.mouseover" end="arrowUp.mouseout"/>
                  </use>
                  <path fill="none" stroke="white" stroke-width="1.5" d="M0,-3.0v7 M-2.5,-0.5L0,-3.0L2.5,-0.5"/>
                </g>
                <g id="arrowRight" xlink:href="#dirArrow" transform="rotate(90) translate(36 -43)" onmousedown="handlePan(1,0)">
                  <use xlink:href="#rim" fill="#404040">
                        <set attributeName="fill" to="#808080" begin="arrowRight.mouseover" end="arrowRight.mouseout"/>
                  </use>
                  <path fill="none" stroke="white" stroke-width="1.5" d="M0,-3.0v7 M-2.5,-0.5L0,-3.0L2.5,-0.5"/>
                </g>
                <g id="arrowDown" xlink:href="#dirArrow" transform="rotate(180) translate(-30 -48)" onmousedown="handlePan(0,1)">
                  <use xlink:href="#rim" fill="#404040">
                        <set attributeName="fill" to="#808080" begin="arrowDown.mouseover" end="arrowDown.mouseout"/>
                  </use>
                  <path fill="none" stroke="white" stroke-width="1.5" d="M0,-3.0v7 M-2.5,-0.5L0,-3.0L2.5,-0.5"/>
                </g>
                <g id="arrowLeft" xlink:href="#dirArrow" transform="rotate(270) translate(-36 17)" onmousedown="handlePan(-1,0)">
                  <use xlink:href="#rim" fill="#404040">
                        <set attributeName="fill" to="#808080" begin="arrowLeft.mouseover" end="arrowLeft.mouseout"/>
                  </use>
                  <path fill="none" stroke="white" stroke-width="1.5" d="M0,-3.0v7 M-2.5,-0.5L0,-3.0L2.5,-0.5"/>
                </g>
        </g>
        <svg viewBox="0 0 15 15" width="100%" height="30px" preserveAspectRatio="xMaxYMin meet">
         <g id="arrow_out" transform="scale(0.3 0.3)">
          <a xlink:href="structsll__m__distribution__function__4d__multipatch_1_1sll__t__distribution__function__4d__multipatch__coll__graph_org.svg" target="_base">
           <rect id="button" ry="5" rx="5" y="6" x="6" height="38" width="38"
                fill="#f2f5e9" fill-opacity="0.5" stroke="#606060" stroke-width="1.0"/>
           <path id="arrow"
             d="M 11.500037,31.436501 C 11.940474,20.09759 22.043105,11.32322 32.158766,21.979434 L 37.068811,17.246167 C 37.068811,17.246167 37.088388,32 37.088388,32 L 22.160133,31.978069 C 22.160133,31.978069 26.997745,27.140456 26.997745,27.140456 C 18.528582,18.264221 13.291696,25.230495 11.500037,31.436501 z"
             style="fill:#404040;"/>
          </a>
         </g>
        </svg>
</svg>
