<?xml version="1.0" encoding="UTF-8" standalone="no"?>
<!DOCTYPE svg PUBLIC "-//W3C//DTD SVG 1.1//EN"
 "http://www.w3.org/Graphics/SVG/1.1/DTD/svg11.dtd">
<!-- Generated by graphviz version 2.43.0 (0)
 -->
<!-- Title: sll_t_linear_operator_matrix_stencil_to_stencil Pages: 1 -->
<svg width="271pt" height="139pt"
 viewBox="0.00 0.00 270.50 139.00" xmlns="http://www.w3.org/2000/svg" xmlns:xlink="http://www.w3.org/1999/xlink">
<g id="graph0" class="graph" transform="scale(1 1) rotate(0) translate(4 135)">
<title>sll_t_linear_operator_matrix_stencil_to_stencil</title>
<polygon fill="white" stroke="transparent" points="-4,4 -4,-135 266.5,-135 266.5,4 -4,4"/>
<!-- Node1 -->
<g id="node1" class="node">
<title>Node1</title>
<g id="a_node1"><a xlink:title=" ">
<polygon fill="#bfbfbf" stroke="black" points="93,-0.5 93,-30.5 237,-30.5 237,-0.5 93,-0.5"/>
<text text-anchor="start" x="101" y="-18.5" font-family="Helvetica,sans-Serif" font-size="10.00">sll_t_linear_operator</text>
<text text-anchor="middle" x="165" y="-7.5" font-family="Helvetica,sans-Serif" font-size="10.00">_matrix_stencil_to_stencil</text>
</a>
</g>
</g>
<!-- Node2 -->
<g id="node2" class="node">
<title>Node2</title>
<g id="a_node2"><a xlink:href="structsll__m__linear__operator__base_1_1sll__c__linear__operator.html" target="_top" xlink:title=" ">
<polygon fill="white" stroke="black" points="0,-111.5 0,-130.5 118,-130.5 118,-111.5 0,-111.5"/>
<text text-anchor="middle" x="59" y="-118.5" font-family="Helvetica,sans-Serif" font-size="10.00">sll_c_linear_operator</text>
</a>
</g>
</g>
<!-- Node2&#45;&gt;Node1 -->
<g id="edge1" class="edge">
<title>Node2&#45;&gt;Node1</title>
<path fill="none" stroke="midnightblue" d="M75.37,-104.01C95.86,-84.01 130.65,-50.04 150.31,-30.84"/>
<polygon fill="midnightblue" stroke="midnightblue" points="72.75,-101.69 68.04,-111.18 77.64,-106.69 72.75,-101.69"/>
</g>
<!-- Node3 -->
<g id="node3" class="node">
<title>Node3</title>
<g id="a_node3"><a xlink:title=" ">
<polygon fill="white" stroke="#bfbfbf" points="136.5,-111.5 136.5,-130.5 193.5,-130.5 193.5,-111.5 136.5,-111.5"/>
<text text-anchor="middle" x="165" y="-118.5" font-family="Helvetica,sans-Serif" font-size="10.00">real(wp)</text>
</a>
</g>
</g>
<!-- Node3&#45;&gt;Node1 -->
<g id="edge2" class="edge">
<title>Node3&#45;&gt;Node1</title>
<path fill="none" stroke="#9a32cd" stroke-dasharray="5,2" d="M165,-101C165,-80.74 165,-49.11 165,-30.84"/>
<polygon fill="#9a32cd" stroke="#9a32cd" points="161.5,-101.18 165,-111.18 168.5,-101.18 161.5,-101.18"/>
<text text-anchor="middle" x="170" y="-68.5" font-family="Helvetica,sans-Serif" font-size="10.00"> a</text>
</g>
<!-- Node4 -->
<g id="node4" class="node">
<title>Node4</title>
<g id="a_node4"><a xlink:title=" ">
<polygon fill="white" stroke="#bfbfbf" points="211.5,-111.5 211.5,-130.5 262.5,-130.5 262.5,-111.5 211.5,-111.5"/>
<text text-anchor="middle" x="237" y="-118.5" font-family="Helvetica,sans-Serif" font-size="10.00">integer</text>
</a>
</g>
</g>
<!-- Node4&#45;&gt;Node1 -->
<g id="edge3" class="edge">
<title>Node4&#45;&gt;Node1</title>
<path fill="none" stroke="#9a32cd" stroke-dasharray="5,2" d="M225.13,-102.94C211.13,-82.81 188.1,-49.7 174.98,-30.84"/>
<polygon fill="#9a32cd" stroke="#9a32cd" points="222.28,-104.97 230.86,-111.18 228.02,-100.97 222.28,-104.97"/>
<text text-anchor="middle" x="225" y="-85" font-family="Helvetica,sans-Serif" font-size="10.00"> p1</text>
<text text-anchor="middle" x="225" y="-74" font-family="Helvetica,sans-Serif" font-size="10.00">p2</text>
<text text-anchor="middle" x="225" y="-63" font-family="Helvetica,sans-Serif" font-size="10.00">s1</text>
<text text-anchor="middle" x="225" y="-52" font-family="Helvetica,sans-Serif" font-size="10.00">s2</text>
</g>
</g>
</svg>
