<?xml version="1.0" encoding="UTF-8" standalone="no"?>
<!DOCTYPE svg PUBLIC "-//W3C//DTD SVG 1.1//EN"
 "http://www.w3.org/Graphics/SVG/1.1/DTD/svg11.dtd">
<!-- Generated by graphviz version 2.38.0 (20140413.2041)
 -->
<!-- Title: sll_t_pic_viewer_2d Pages: 1 -->
<svg width="352pt" height="217pt"
 viewBox="0.00 0.00 352.00 217.00" xmlns="http://www.w3.org/2000/svg" xmlns:xlink="http://www.w3.org/1999/xlink">
<g id="graph0" class="graph" transform="scale(1 1) rotate(0) translate(4 213)">
<title>sll_t_pic_viewer_2d</title>
<polygon fill="white" stroke="none" points="-4,4 -4,-213 348,-213 348,4 -4,4"/>
<!-- Node1 -->
<g id="node1" class="node"><title>Node1</title>
<polygon fill="#bfbfbf" stroke="black" points="215,-0.5 215,-19.5 317,-19.5 317,-0.5 215,-0.5"/>
<text text-anchor="middle" x="266" y="-7.5" font-family="Helvetica,sans-Serif" font-size="10.00">sll_t_pic_viewer_2d</text>
</g>
<!-- Node2 -->
<g id="node2" class="node"><title>Node2</title>
<g id="a_node2"><a xlink:href="structsll__m__cartesian__meshes_1_1sll__t__cartesian__mesh__2d.html" target="_top" xlink:title="2D cartesian mesh ">
<polygon fill="white" stroke="black" points="108.5,-67.5 108.5,-86.5 233.5,-86.5 233.5,-67.5 108.5,-67.5"/>
<text text-anchor="middle" x="171" y="-74.5" font-family="Helvetica,sans-Serif" font-size="10.00">sll_t_cartesian_mesh_2d</text>
</a>
</g>
</g>
<!-- Node2&#45;&gt;Node1 -->
<g id="edge1" class="edge"><title>Node2&#45;&gt;Node1</title>
<path fill="none" stroke="#9a32cd" stroke-dasharray="5,2" d="M192.31,-61.4196C211.091,-48.5695 237.818,-30.2821 253.391,-19.6273"/>
<polygon fill="#9a32cd" stroke="#9a32cd" points="190.089,-58.6983 183.812,-67.2338 194.042,-64.4755 190.089,-58.6983"/>
<text text-anchor="middle" x="239" y="-41" font-family="Helvetica,sans-Serif" font-size="10.00"> mesh</text>
</g>
<!-- Node3 -->
<g id="node3" class="node"><title>Node3</title>
<g id="a_node3"><a xlink:href="structsll__m__meshes__base_1_1sll__c__mesh__2d__base.html" target="_top" xlink:title="2D logical mesh ">
<polygon fill="white" stroke="black" points="0,-189.5 0,-208.5 108,-208.5 108,-189.5 0,-189.5"/>
<text text-anchor="middle" x="54" y="-196.5" font-family="Helvetica,sans-Serif" font-size="10.00">sll_c_mesh_2d_base</text>
</a>
</g>
</g>
<!-- Node3&#45;&gt;Node2 -->
<g id="edge2" class="edge"><title>Node3&#45;&gt;Node2</title>
<path fill="none" stroke="midnightblue" d="M69.6901,-181.908C94.8252,-156.128 143.258,-106.453 162.662,-86.5519"/>
<polygon fill="midnightblue" stroke="midnightblue" points="66.8894,-179.767 62.4144,-189.37 71.9014,-184.653 66.8894,-179.767"/>
</g>
<!-- Node4 -->
<g id="node4" class="node"><title>Node4</title>
<polygon fill="white" stroke="#bfbfbf" points="126.5,-189.5 126.5,-208.5 215.5,-208.5 215.5,-189.5 126.5,-189.5"/>
<text text-anchor="middle" x="171" y="-196.5" font-family="Helvetica,sans-Serif" font-size="10.00">integer(kind=i32)</text>
</g>
<!-- Node4&#45;&gt;Node2 -->
<g id="edge3" class="edge"><title>Node4&#45;&gt;Node2</title>
<path fill="none" stroke="#9a32cd" stroke-dasharray="5,2" d="M171,-179.145C171,-152.723 171,-105.764 171,-86.5519"/>
<polygon fill="#9a32cd" stroke="#9a32cd" points="167.5,-179.37 171,-189.37 174.5,-179.37 167.5,-179.37"/>
<text text-anchor="middle" x="197.5" y="-141" font-family="Helvetica,sans-Serif" font-size="10.00"> num_cells1</text>
<text text-anchor="middle" x="197.5" y="-130" font-family="Helvetica,sans-Serif" font-size="10.00">num_cells2</text>
</g>
<!-- Node5 -->
<g id="node5" class="node"><title>Node5</title>
<polygon fill="white" stroke="#bfbfbf" points="234,-189.5 234,-208.5 310,-208.5 310,-189.5 234,-189.5"/>
<text text-anchor="middle" x="272" y="-196.5" font-family="Helvetica,sans-Serif" font-size="10.00">real(kind=f64)</text>
</g>
<!-- Node5&#45;&gt;Node2 -->
<g id="edge4" class="edge"><title>Node5&#45;&gt;Node2</title>
<path fill="none" stroke="#9a32cd" stroke-dasharray="5,2" d="M267.388,-179.74C261.385,-159.241 249.086,-126.096 228,-105 219.872,-96.8682 208.822,-90.8649 198.615,-86.612"/>
<polygon fill="#9a32cd" stroke="#9a32cd" points="264.022,-180.697 270.03,-189.423 270.775,-178.855 264.022,-180.697"/>
<text text-anchor="middle" x="289.5" y="-163" font-family="Helvetica,sans-Serif" font-size="10.00"> delta_eta1</text>
<text text-anchor="middle" x="289.5" y="-152" font-family="Helvetica,sans-Serif" font-size="10.00">eta2_max</text>
<text text-anchor="middle" x="289.5" y="-141" font-family="Helvetica,sans-Serif" font-size="10.00">delta_eta2</text>
<text text-anchor="middle" x="289.5" y="-130" font-family="Helvetica,sans-Serif" font-size="10.00">eta1_min</text>
<text text-anchor="middle" x="289.5" y="-119" font-family="Helvetica,sans-Serif" font-size="10.00">eta2_min</text>
<text text-anchor="middle" x="289.5" y="-108" font-family="Helvetica,sans-Serif" font-size="10.00">eta1_max</text>
</g>
<!-- Node6 -->
<g id="node6" class="node"><title>Node6</title>
<polygon fill="white" stroke="#bfbfbf" points="252,-67.5 252,-86.5 344,-86.5 344,-67.5 252,-67.5"/>
<text text-anchor="middle" x="298" y="-74.5" font-family="Helvetica,sans-Serif" font-size="10.00">character(len=72)</text>
</g>
<!-- Node6&#45;&gt;Node1 -->
<g id="edge5" class="edge"><title>Node6&#45;&gt;Node1</title>
<path fill="none" stroke="#9a32cd" stroke-dasharray="5,2" d="M289.219,-58.1635C283.048,-45.6281 275.064,-29.4104 270.247,-19.6273"/>
<polygon fill="#9a32cd" stroke="#9a32cd" points="286.127,-59.808 293.684,-67.2338 292.408,-56.7162 286.127,-59.808"/>
<text text-anchor="middle" x="296" y="-41" font-family="Helvetica,sans-Serif" font-size="10.00"> label</text>
</g>
</g>
</svg>
