<?xml version="1.0" encoding="UTF-8" standalone="no"?>
<!DOCTYPE svg PUBLIC "-//W3C//DTD SVG 1.1//EN"
 "http://www.w3.org/Graphics/SVG/1.1/DTD/svg11.dtd">
<!-- Generated by graphviz version 2.43.0 (0)
 -->
<!-- Title: sll_c_particle_mass_3d_base Pages: 1 -->
<svg width="346pt" height="285pt"
 viewBox="0.00 0.00 345.50 285.00" xmlns="http://www.w3.org/2000/svg" xmlns:xlink="http://www.w3.org/1999/xlink">
<g id="graph0" class="graph" transform="scale(1 1) rotate(0) translate(4 281)">
<title>sll_c_particle_mass_3d_base</title>
<polygon fill="white" stroke="transparent" points="-4,4 -4,-281 341.5,-281 341.5,4 -4,4"/>
<!-- Node1 -->
<g id="node1" class="node">
<title>Node1</title>
<g id="a_node1"><a xlink:title=" ">
<polygon fill="#bfbfbf" stroke="black" points="138.5,-0.5 138.5,-30.5 250.5,-30.5 250.5,-0.5 138.5,-0.5"/>
<text text-anchor="start" x="146.5" y="-18.5" font-family="Helvetica,sans-Serif" font-size="10.00">sll_c_particle_mass</text>
<text text-anchor="middle" x="194.5" y="-7.5" font-family="Helvetica,sans-Serif" font-size="10.00">_3d_base</text>
</a>
</g>
</g>
<!-- Node2 -->
<g id="node2" class="node">
<title>Node2</title>
<g id="a_node2"><a xlink:href="structsll__m__linear__operator__abstract_1_1sll__t__linear__operator__abstract.html" target="_top" xlink:title="class for abstract linear operator">
<polygon fill="white" stroke="black" points="42.5,-90.5 42.5,-120.5 158.5,-120.5 158.5,-90.5 42.5,-90.5"/>
<text text-anchor="start" x="50.5" y="-108.5" font-family="Helvetica,sans-Serif" font-size="10.00">sll_t_linear_operator</text>
<text text-anchor="middle" x="100.5" y="-97.5" font-family="Helvetica,sans-Serif" font-size="10.00">_abstract</text>
</a>
</g>
</g>
<!-- Node2&#45;&gt;Node1 -->
<g id="edge1" class="edge">
<title>Node2&#45;&gt;Node1</title>
<path fill="none" stroke="midnightblue" d="M123.13,-83.31C140.59,-66.97 164.24,-44.83 179.43,-30.6"/>
<polygon fill="midnightblue" stroke="midnightblue" points="120.51,-80.97 115.6,-90.36 125.29,-86.08 120.51,-80.97"/>
</g>
<!-- Node3 -->
<g id="node3" class="node">
<title>Node3</title>
<g id="a_node3"><a xlink:title=" ">
<polygon fill="white" stroke="#bfbfbf" points="0,-257.5 0,-276.5 49,-276.5 49,-257.5 0,-257.5"/>
<text text-anchor="middle" x="24.5" y="-264.5" font-family="Helvetica,sans-Serif" font-size="10.00">logical</text>
</a>
</g>
</g>
<!-- Node3&#45;&gt;Node2 -->
<g id="edge2" class="edge">
<title>Node3&#45;&gt;Node2</title>
<path fill="none" stroke="#9a32cd" stroke-dasharray="5,2" d="M19.35,-247.7C13.11,-221.49 5.92,-172.78 27.5,-140 33.02,-131.61 41.21,-125.3 50.13,-120.54"/>
<polygon fill="#9a32cd" stroke="#9a32cd" points="15.97,-248.65 21.87,-257.45 22.75,-246.89 15.97,-248.65"/>
<text text-anchor="middle" x="58.5" y="-187" font-family="Helvetica,sans-Serif" font-size="10.00"> is_allocated</text>
</g>
<!-- Node4 -->
<g id="node4" class="node">
<title>Node4</title>
<g id="a_node4"><a xlink:title=" ">
<polygon fill="white" stroke="#bfbfbf" points="105,-257.5 105,-276.5 208,-276.5 208,-257.5 105,-257.5"/>
<text text-anchor="middle" x="156.5" y="-264.5" font-family="Helvetica,sans-Serif" font-size="10.00">integer(kind=i32)</text>
</a>
</g>
</g>
<!-- Node4&#45;&gt;Node1 -->
<g id="edge4" class="edge">
<title>Node4&#45;&gt;Node1</title>
<path fill="none" stroke="#9a32cd" stroke-dasharray="5,2" d="M173.95,-249.72C176.57,-246.42 178.92,-242.8 180.5,-239 211.01,-165.76 201.64,-67.14 196.69,-30.75"/>
<polygon fill="#9a32cd" stroke="#9a32cd" points="171.35,-247.38 167.17,-257.12 176.51,-252.11 171.35,-247.38"/>
<text text-anchor="middle" x="221" y="-114" font-family="Helvetica,sans-Serif" font-size="10.00"> degree</text>
<text text-anchor="middle" x="221" y="-103" font-family="Helvetica,sans-Serif" font-size="10.00">n_dofs</text>
<text text-anchor="middle" x="221" y="-92" font-family="Helvetica,sans-Serif" font-size="10.00">n_total</text>
</g>
<!-- Node4&#45;&gt;Node2 -->
<g id="edge3" class="edge">
<title>Node4&#45;&gt;Node2</title>
<path fill="none" stroke="#9a32cd" stroke-dasharray="5,2" d="M123.59,-252.13C118.45,-248.57 113.77,-244.23 110.5,-239 87.18,-201.61 93.09,-146.26 97.6,-120.56"/>
<polygon fill="#9a32cd" stroke="#9a32cd" points="122.11,-255.32 132.5,-257.39 125.67,-249.29 122.11,-255.32"/>
<text text-anchor="middle" x="145.5" y="-231" font-family="Helvetica,sans-Serif" font-size="10.00"> id_cols</text>
<text text-anchor="middle" x="145.5" y="-220" font-family="Helvetica,sans-Serif" font-size="10.00">id_rows</text>
<text text-anchor="middle" x="145.5" y="-209" font-family="Helvetica,sans-Serif" font-size="10.00">n_block_cols</text>
<text text-anchor="middle" x="145.5" y="-198" font-family="Helvetica,sans-Serif" font-size="10.00">n_block_rows</text>
<text text-anchor="middle" x="145.5" y="-187" font-family="Helvetica,sans-Serif" font-size="10.00">n_cols</text>
<text text-anchor="middle" x="145.5" y="-176" font-family="Helvetica,sans-Serif" font-size="10.00">n_dof</text>
<text text-anchor="middle" x="145.5" y="-165" font-family="Helvetica,sans-Serif" font-size="10.00">n_global_cols</text>
<text text-anchor="middle" x="145.5" y="-154" font-family="Helvetica,sans-Serif" font-size="10.00">n_global_rows</text>
<text text-anchor="middle" x="145.5" y="-143" font-family="Helvetica,sans-Serif" font-size="10.00">n_rows</text>
</g>
<!-- Node5 -->
<g id="node5" class="node">
<title>Node5</title>
<g id="a_node5"><a xlink:title=" ">
<polygon fill="white" stroke="#bfbfbf" points="249.5,-96 249.5,-115 337.5,-115 337.5,-96 249.5,-96"/>
<text text-anchor="middle" x="293.5" y="-103" font-family="Helvetica,sans-Serif" font-size="10.00">real(kind=f64)</text>
</a>
</g>
</g>
<!-- Node5&#45;&gt;Node1 -->
<g id="edge5" class="edge">
<title>Node5&#45;&gt;Node1</title>
<path fill="none" stroke="#9a32cd" stroke-dasharray="5,2" d="M275.94,-88.89C257.39,-72.4 228.41,-46.64 210.49,-30.71"/>
<polygon fill="#9a32cd" stroke="#9a32cd" points="273.85,-91.71 283.65,-95.74 278.5,-86.48 273.85,-91.71"/>
<text text-anchor="middle" x="291.5" y="-63" font-family="Helvetica,sans-Serif" font-size="10.00"> particle_mass</text>
<text text-anchor="middle" x="291.5" y="-52" font-family="Helvetica,sans-Serif" font-size="10.00">sign</text>
</g>
</g>
</svg>
