<?xml version="1.0" encoding="UTF-8" standalone="no"?>
<!DOCTYPE svg PUBLIC "-//W3C//DTD SVG 1.1//EN"
 "http://www.w3.org/Graphics/SVG/1.1/DTD/svg11.dtd">
<!-- Generated by graphviz version 2.40.1 (20161225.0304)
 -->
<!-- Title: sll_t_maxwell_2d_pstd Pages: 1 -->
<svg width="375pt" height="318pt"
 viewBox="0.00 0.00 374.50 318.00" xmlns="http://www.w3.org/2000/svg" xmlns:xlink="http://www.w3.org/1999/xlink">
<g id="graph0" class="graph" transform="scale(1 1) rotate(0) translate(4 314)">
<title>sll_t_maxwell_2d_pstd</title>
<polygon fill="#ffffff" stroke="transparent" points="-4,4 -4,-314 370.5,-314 370.5,4 -4,4"/>
<!-- Node1 -->
<g id="node1" class="node">
<title>Node1</title>
<polygon fill="#bfbfbf" stroke="#000000" points="135.5,-.5 135.5,-19.5 263.5,-19.5 263.5,-.5 135.5,-.5"/>
<text text-anchor="middle" x="199.5" y="-7.5" font-family="Helvetica,sans-Serif" font-size="10.00" fill="#000000">sll_t_maxwell_2d_pstd</text>
</g>
<!-- Node2 -->
<g id="node2" class="node">
<title>Node2</title>
<g id="a_node2"><a xlink:href="structsll__m__fft_1_1sll__t__fft.html" target="_top" xlink:title="Type for FFT plan in SeLaLib. ">
<polygon fill="#ffffff" stroke="#000000" points="79,-184 79,-203 132,-203 132,-184 79,-184"/>
<text text-anchor="middle" x="105.5" y="-191" font-family="Helvetica,sans-Serif" font-size="10.00" fill="#000000">sll_t_fft</text>
</a>
</g>
</g>
<!-- Node2&#45;&gt;Node1 -->
<g id="edge1" class="edge">
<title>Node2&#45;&gt;Node1</title>
<path fill="none" stroke="#9a32cd" stroke-dasharray="5,2" d="M109.1977,-173.8418C115.8231,-142.6097 132.0597,-80.8164 163.5,-38 168.8425,-30.7244 176.5657,-24.3762 183.4899,-19.5721"/>
<polygon fill="#9a32cd" stroke="#9a32cd" points="105.7206,-173.3802 107.1813,-183.8738 112.5833,-174.7596 105.7206,-173.3802"/>
<text text-anchor="middle" x="174.5" y="-112.5" font-family="Helvetica,sans-Serif" font-size="10.00" fill="#000000"> fwx</text>
<text text-anchor="middle" x="174.5" y="-101.5" font-family="Helvetica,sans-Serif" font-size="10.00" fill="#000000">fwy</text>
<text text-anchor="middle" x="174.5" y="-90.5" font-family="Helvetica,sans-Serif" font-size="10.00" fill="#000000">bwx</text>
<text text-anchor="middle" x="174.5" y="-79.5" font-family="Helvetica,sans-Serif" font-size="10.00" fill="#000000">bwy</text>
</g>
<!-- Node3 -->
<g id="node3" class="node">
<title>Node3</title>
<polygon fill="#ffffff" stroke="#bfbfbf" points="0,-290.5 0,-309.5 49,-309.5 49,-290.5 0,-290.5"/>
<text text-anchor="middle" x="24.5" y="-297.5" font-family="Helvetica,sans-Serif" font-size="10.00" fill="#000000">logical</text>
</g>
<!-- Node3&#45;&gt;Node2 -->
<g id="edge2" class="edge">
<title>Node3&#45;&gt;Node2</title>
<path fill="none" stroke="#9a32cd" stroke-dasharray="5,2" d="M23.1545,-279.932C23.1362,-264.3406 25.474,-242.9288 36.5,-228 46.7644,-214.1025 64.2048,-205.4507 78.9827,-200.2869"/>
<polygon fill="#9a32cd" stroke="#9a32cd" points="19.6615,-280.2028 23.4936,-290.0803 26.6576,-279.9689 19.6615,-280.2028"/>
<text text-anchor="middle" x="65.5" y="-247.5" font-family="Helvetica,sans-Serif" font-size="10.00" fill="#000000"> normalized</text>
</g>
<!-- Node4 -->
<g id="node4" class="node">
<title>Node4</title>
<polygon fill="#ffffff" stroke="#bfbfbf" points="107,-290.5 107,-309.5 210,-309.5 210,-290.5 107,-290.5"/>
<text text-anchor="middle" x="158.5" y="-297.5" font-family="Helvetica,sans-Serif" font-size="10.00" fill="#000000">integer(kind=i32)</text>
</g>
<!-- Node4&#45;&gt;Node1 -->
<g id="edge4" class="edge">
<title>Node4&#45;&gt;Node1</title>
<path fill="none" stroke="#9a32cd" stroke-dasharray="5,2" d="M178.2045,-283.2598C181.1267,-279.8405 183.7424,-276.0406 185.5,-272 225.1098,-180.9407 207.4114,-54.9752 201.2844,-19.5856"/>
<polygon fill="#9a32cd" stroke="#9a32cd" points="175.6142,-280.902 171.0894,-290.482 180.6008,-285.8146 175.6142,-280.902"/>
<text text-anchor="middle" x="239" y="-202" font-family="Helvetica,sans-Serif" font-size="10.00" fill="#000000"> polarization</text>
<text text-anchor="middle" x="239" y="-191" font-family="Helvetica,sans-Serif" font-size="10.00" fill="#000000">nc_eta1</text>
<text text-anchor="middle" x="239" y="-180" font-family="Helvetica,sans-Serif" font-size="10.00" fill="#000000">nc_eta2</text>
</g>
<!-- Node4&#45;&gt;Node2 -->
<g id="edge3" class="edge">
<title>Node4&#45;&gt;Node2</title>
<path fill="none" stroke="#9a32cd" stroke-dasharray="5,2" d="M119.3928,-285.1845C114.2716,-281.6262 109.6999,-277.2806 106.5,-272 93.362,-250.319 98.7873,-218.7036 102.7365,-203.035"/>
<polygon fill="#9a32cd" stroke="#9a32cd" points="117.9879,-288.4179 128.3849,-290.4557 121.5279,-282.379 117.9879,-288.4179"/>
<text text-anchor="middle" x="146" y="-264" font-family="Helvetica,sans-Serif" font-size="10.00" fill="#000000"> problem_shape</text>
<text text-anchor="middle" x="146" y="-253" font-family="Helvetica,sans-Serif" font-size="10.00" fill="#000000">direction</text>
<text text-anchor="middle" x="146" y="-242" font-family="Helvetica,sans-Serif" font-size="10.00" fill="#000000">problem_rank</text>
<text text-anchor="middle" x="146" y="-231" font-family="Helvetica,sans-Serif" font-size="10.00" fill="#000000">transform_type</text>
</g>
<!-- Node5 -->
<g id="node5" class="node">
<title>Node5</title>
<polygon fill="#ffffff" stroke="#bfbfbf" points="278.5,-184 278.5,-203 366.5,-203 366.5,-184 278.5,-184"/>
<text text-anchor="middle" x="322.5" y="-191" font-family="Helvetica,sans-Serif" font-size="10.00" fill="#000000">real(kind=f64)</text>
</g>
<!-- Node5&#45;&gt;Node1 -->
<g id="edge5" class="edge">
<title>Node5&#45;&gt;Node1</title>
<path fill="none" stroke="#9a32cd" stroke-dasharray="5,2" d="M310.2713,-175.2563C284.501,-136.8105 225.3844,-48.6162 205.8761,-19.5123"/>
<polygon fill="#9a32cd" stroke="#9a32cd" points="307.5849,-177.5348 316.0602,-183.8926 313.3995,-173.6373 307.5849,-177.5348"/>
<text text-anchor="middle" x="324.5" y="-151" font-family="Helvetica,sans-Serif" font-size="10.00" fill="#000000"> eta2_max</text>
<text text-anchor="middle" x="324.5" y="-140" font-family="Helvetica,sans-Serif" font-size="10.00" fill="#000000">delta_eta1</text>
<text text-anchor="middle" x="324.5" y="-129" font-family="Helvetica,sans-Serif" font-size="10.00" fill="#000000">delta_eta2</text>
<text text-anchor="middle" x="324.5" y="-118" font-family="Helvetica,sans-Serif" font-size="10.00" fill="#000000">e_0</text>
<text text-anchor="middle" x="324.5" y="-107" font-family="Helvetica,sans-Serif" font-size="10.00" fill="#000000">eta1_min</text>
<text text-anchor="middle" x="324.5" y="-96" font-family="Helvetica,sans-Serif" font-size="10.00" fill="#000000">eta2_min</text>
<text text-anchor="middle" x="324.5" y="-85" font-family="Helvetica,sans-Serif" font-size="10.00" fill="#000000">mu_0</text>
<text text-anchor="middle" x="324.5" y="-74" font-family="Helvetica,sans-Serif" font-size="10.00" fill="#000000">kx</text>
<text text-anchor="middle" x="324.5" y="-63" font-family="Helvetica,sans-Serif" font-size="10.00" fill="#000000">ky</text>
<text text-anchor="middle" x="324.5" y="-52" font-family="Helvetica,sans-Serif" font-size="10.00" fill="#000000">c</text>
<text text-anchor="middle" x="324.5" y="-41" font-family="Helvetica,sans-Serif" font-size="10.00" fill="#000000">...</text>
</g>
</g>
</svg>
