<?xml version="1.0" encoding="UTF-8" standalone="no"?>
<!DOCTYPE svg PUBLIC "-//W3C//DTD SVG 1.1//EN"
 "http://www.w3.org/Graphics/SVG/1.1/DTD/svg11.dtd">
<!-- Generated by graphviz version 2.40.1 (20161225.0304)
 -->
<!-- Title: sll_c_maxwell_3d_base Pages: 1 -->
<svg width="484pt" height="203pt"
 viewBox="0.00 0.00 484.00 202.50" xmlns="http://www.w3.org/2000/svg" xmlns:xlink="http://www.w3.org/1999/xlink">
<g id="graph0" class="graph" transform="scale(1 1) rotate(0) translate(4 198.5)">
<title>sll_c_maxwell_3d_base</title>
<polygon fill="#ffffff" stroke="transparent" points="-4,4 -4,-198.5 480,-198.5 480,4 -4,4"/>
<!-- Node0 -->
<g id="node1" class="node">
<title>Node0</title>
<polygon fill="#bfbfbf" stroke="#000000" points="0,-99 0,-118 131,-118 131,-99 0,-99"/>
<text text-anchor="middle" x="65.5" y="-106" font-family="Helvetica,sans-Serif" font-size="10.00" fill="#000000">sll_c_maxwell_3d_base</text>
</g>
<!-- Node1 -->
<g id="node2" class="node">
<title>Node1</title>
<g id="a_node2"><a xlink:href="structsll__m__maxwell__3d__fem_1_1sll__t__maxwell__3d__fem.html" target="_top" xlink:title="sll_t_maxwell_3d_fem">
<polygon fill="#ffffff" stroke="#000000" points="175,-175 175,-194 301,-194 301,-175 175,-175"/>
<text text-anchor="middle" x="238" y="-182" font-family="Helvetica,sans-Serif" font-size="10.00" fill="#000000">sll_t_maxwell_3d_fem</text>
</a>
</g>
</g>
<!-- Node0&#45;&gt;Node1 -->
<g id="edge1" class="edge">
<title>Node0&#45;&gt;Node1</title>
<path fill="none" stroke="#191970" d="M88.1525,-123.4044C108.1968,-136.052 138.5931,-153.9365 167,-165.5 175.982,-169.1563 185.8885,-172.3162 195.379,-174.9522"/>
<polygon fill="#191970" stroke="#191970" points="90.0248,-120.4473 79.7157,-118.0033 86.2507,-126.3427 90.0248,-120.4473"/>
</g>
<!-- Node2 -->
<g id="node3" class="node">
<title>Node2</title>
<g id="a_node3"><a xlink:href="structsll__m__maxwell__3d__fem__fft_1_1sll__t__maxwell__3d__fem__fft.html" target="_top" xlink:title="sll_t_maxwell_3d_fem_fft">
<polygon fill="#ffffff" stroke="#000000" points="167,-137 167,-156 309,-156 309,-137 167,-137"/>
<text text-anchor="middle" x="238" y="-144" font-family="Helvetica,sans-Serif" font-size="10.00" fill="#000000">sll_t_maxwell_3d_fem_fft</text>
</a>
</g>
</g>
<!-- Node0&#45;&gt;Node2 -->
<g id="edge2" class="edge">
<title>Node0&#45;&gt;Node2</title>
<path fill="none" stroke="#191970" d="M118.8505,-120.2526C143.242,-125.6258 171.7627,-131.9086 194.784,-136.9799"/>
<polygon fill="#191970" stroke="#191970" points="119.5479,-116.8224 109.029,-118.089 118.0419,-123.6584 119.5479,-116.8224"/>
</g>
<!-- Node3 -->
<g id="node4" class="node">
<title>Node3</title>
<g id="a_node4"><a xlink:href="structsll__m__maxwell__3d__trafo_1_1sll__t__maxwell__3d__trafo.html" target="_top" xlink:title="sll_t_maxwell_3d_trafo">
<polygon fill="#ffffff" stroke="#000000" points="173,-99 173,-118 303,-118 303,-99 173,-99"/>
<text text-anchor="middle" x="238" y="-106" font-family="Helvetica,sans-Serif" font-size="10.00" fill="#000000">sll_t_maxwell_3d_trafo</text>
</a>
</g>
</g>
<!-- Node0&#45;&gt;Node3 -->
<g id="edge3" class="edge">
<title>Node0&#45;&gt;Node3</title>
<path fill="none" stroke="#191970" d="M141.5314,-108.5C151.9461,-108.5 162.5623,-108.5 172.7611,-108.5"/>
<polygon fill="#191970" stroke="#191970" points="141.207,-105.0001 131.2069,-108.5 141.2069,-112.0001 141.207,-105.0001"/>
</g>
<!-- Node5 -->
<g id="node6" class="node">
<title>Node5</title>
<g id="a_node6"><a xlink:href="structsll__m__maxwell__clamped__3d__fem_1_1sll__t__maxwell__clamped__3d__fem.html" target="_top" xlink:title="sll_t_maxwell_clamped\l_3d_fem">
<polygon fill="#ffffff" stroke="#000000" points="172.5,-49.5 172.5,-79.5 303.5,-79.5 303.5,-49.5 172.5,-49.5"/>
<text text-anchor="start" x="180.5" y="-67.5" font-family="Helvetica,sans-Serif" font-size="10.00" fill="#000000">sll_t_maxwell_clamped</text>
<text text-anchor="middle" x="238" y="-56.5" font-family="Helvetica,sans-Serif" font-size="10.00" fill="#000000">_3d_fem</text>
</a>
</g>
</g>
<!-- Node0&#45;&gt;Node5 -->
<g id="edge5" class="edge">
<title>Node0&#45;&gt;Node5</title>
<path fill="none" stroke="#191970" d="M112.648,-96.4739C133.1093,-91.2547 157.295,-85.0856 178.9369,-79.5654"/>
<polygon fill="#191970" stroke="#191970" points="111.7546,-93.0896 102.9299,-98.9527 113.4848,-99.8724 111.7546,-93.0896"/>
</g>
<!-- Node6 -->
<g id="node7" class="node">
<title>Node6</title>
<g id="a_node7"><a xlink:href="structsll__m__maxwell__clamped__3d__trafo_1_1sll__t__maxwell__clamped__3d__trafo.html" target="_top" xlink:title="sll_t_maxwell_clamped\l_3d_trafo">
<polygon fill="#ffffff" stroke="#000000" points="172.5,-.5 172.5,-30.5 303.5,-30.5 303.5,-.5 172.5,-.5"/>
<text text-anchor="start" x="180.5" y="-18.5" font-family="Helvetica,sans-Serif" font-size="10.00" fill="#000000">sll_t_maxwell_clamped</text>
<text text-anchor="middle" x="238" y="-7.5" font-family="Helvetica,sans-Serif" font-size="10.00" fill="#000000">_3d_trafo</text>
</a>
</g>
</g>
<!-- Node0&#45;&gt;Node6 -->
<g id="edge6" class="edge">
<title>Node0&#45;&gt;Node6</title>
<path fill="none" stroke="#191970" d="M85.2805,-92.6533C105.0418,-77.4168 136.753,-54.5426 167,-39.5 173.5242,-36.2554 180.5915,-33.2818 187.6521,-30.616"/>
<polygon fill="#191970" stroke="#191970" points="83.0575,-89.9485 77.336,-98.8656 87.3695,-95.4627 83.0575,-89.9485"/>
</g>
<!-- Node4 -->
<g id="node5" class="node">
<title>Node4</title>
<g id="a_node5"><a xlink:href="structsll__m__maxwell__3d__trafo__parallel_1_1sll__t__maxwell__3d__trafo__parallel.html" target="_top" xlink:title="sll_t_maxwell_3d_trafo\l_parallel">
<polygon fill="#ffffff" stroke="#000000" points="345.5,-93.5 345.5,-123.5 475.5,-123.5 475.5,-93.5 345.5,-93.5"/>
<text text-anchor="start" x="353.5" y="-111.5" font-family="Helvetica,sans-Serif" font-size="10.00" fill="#000000">sll_t_maxwell_3d_trafo</text>
<text text-anchor="middle" x="410.5" y="-100.5" font-family="Helvetica,sans-Serif" font-size="10.00" fill="#000000">_parallel</text>
</a>
</g>
</g>
<!-- Node3&#45;&gt;Node4 -->
<g id="edge4" class="edge">
<title>Node3&#45;&gt;Node4</title>
<path fill="none" stroke="#191970" d="M313.3796,-108.5C324.0769,-108.5 335.0009,-108.5 345.4791,-108.5"/>
<polygon fill="#191970" stroke="#191970" points="313.2149,-105.0001 303.2149,-108.5 313.2148,-112.0001 313.2149,-105.0001"/>
</g>
<!-- Node7 -->
<g id="node8" class="node">
<title>Node7</title>
<g id="a_node8"><a xlink:href="structsll__m__maxwell__clamped__3d__trafo__parallel_1_1sll__t__maxwell__clamped__3d__trafo__parallel.html" target="_top" xlink:title="sll_t_maxwell_clamped\l_3d_trafo_parallel">
<polygon fill="#ffffff" stroke="#000000" points="345,-.5 345,-30.5 476,-30.5 476,-.5 345,-.5"/>
<text text-anchor="start" x="353" y="-18.5" font-family="Helvetica,sans-Serif" font-size="10.00" fill="#000000">sll_t_maxwell_clamped</text>
<text text-anchor="middle" x="410.5" y="-7.5" font-family="Helvetica,sans-Serif" font-size="10.00" fill="#000000">_3d_trafo_parallel</text>
</a>
</g>
</g>
<!-- Node6&#45;&gt;Node7 -->
<g id="edge7" class="edge">
<title>Node6&#45;&gt;Node7</title>
<path fill="none" stroke="#191970" d="M313.9586,-15.5C324.2995,-15.5 334.8405,-15.5 344.9757,-15.5"/>
<polygon fill="#191970" stroke="#191970" points="313.707,-12.0001 303.7069,-15.5 313.7069,-19.0001 313.707,-12.0001"/>
</g>
</g>
</svg>
