<?xml version="1.0" encoding="UTF-8" standalone="no"?>
<!DOCTYPE svg PUBLIC "-//W3C//DTD SVG 1.1//EN"
 "http://www.w3.org/Graphics/SVG/1.1/DTD/svg11.dtd">
<!-- Generated by graphviz version 2.38.0 (20140413.2041)
 -->
<!-- Title: sll_t_nml_mesh_1d_two_grid_cart Pages: 1 -->
<svg width="324pt" height="172pt"
 viewBox="0.00 0.00 323.50 172.00" xmlns="http://www.w3.org/2000/svg" xmlns:xlink="http://www.w3.org/1999/xlink">
<g id="graph0" class="graph" transform="scale(1 1) rotate(0) translate(4 168)">
<title>sll_t_nml_mesh_1d_two_grid_cart</title>
<polygon fill="white" stroke="none" points="-4,4 -4,-168 319.5,-168 319.5,4 -4,4"/>
<!-- Node1 -->
<g id="node1" class="node"><title>Node1</title>
<polygon fill="#bfbfbf" stroke="black" points="94.5,-0.5 94.5,-30.5 216.5,-30.5 216.5,-0.5 94.5,-0.5"/>
<text text-anchor="start" x="102.5" y="-18.5" font-family="Helvetica,sans-Serif" font-size="10.00">sll_t_nml_mesh_1d_two</text>
<text text-anchor="middle" x="155.5" y="-7.5" font-family="Helvetica,sans-Serif" font-size="10.00">_grid_cart</text>
</g>
<!-- Node2 -->
<g id="node2" class="node"><title>Node2</title>
<polygon fill="white" stroke="#bfbfbf" points="0,-144.5 0,-163.5 89,-163.5 89,-144.5 0,-144.5"/>
<text text-anchor="middle" x="44.5" y="-151.5" font-family="Helvetica,sans-Serif" font-size="10.00">integer(kind=i32)</text>
</g>
<!-- Node2&#45;&gt;Node1 -->
<g id="edge1" class="edge"><title>Node2&#45;&gt;Node1</title>
<path fill="none" stroke="#9a32cd" stroke-dasharray="5,2" d="M51.5684,-134.7C60.8622,-112.429 78.9372,-74.6312 103.5,-49 110.35,-41.8517 119.086,-35.608 127.433,-30.5549"/>
<polygon fill="#9a32cd" stroke="#9a32cd" points="48.206,-133.68 47.7214,-144.264 54.7003,-136.293 48.206,-133.68"/>
<text text-anchor="middle" x="127.5" y="-85" font-family="Helvetica,sans-Serif" font-size="10.00"> num_cells</text>
</g>
<!-- Node3 -->
<g id="node3" class="node"><title>Node3</title>
<polygon fill="white" stroke="#bfbfbf" points="106.5,-144.5 106.5,-163.5 204.5,-163.5 204.5,-144.5 106.5,-144.5"/>
<text text-anchor="middle" x="155.5" y="-151.5" font-family="Helvetica,sans-Serif" font-size="10.00">character(len=256)</text>
</g>
<!-- Node3&#45;&gt;Node1 -->
<g id="edge2" class="edge"><title>Node3&#45;&gt;Node1</title>
<path fill="none" stroke="#9a32cd" stroke-dasharray="5,2" d="M155.5,-134.154C155.5,-106.41 155.5,-55.2023 155.5,-30.5221"/>
<polygon fill="#9a32cd" stroke="#9a32cd" points="152,-134.461 155.5,-144.461 159,-134.461 152,-134.461"/>
<text text-anchor="middle" x="167.5" y="-85" font-family="Helvetica,sans-Serif" font-size="10.00"> label</text>
</g>
<!-- Node4 -->
<g id="node4" class="node"><title>Node4</title>
<polygon fill="white" stroke="#bfbfbf" points="222.5,-144.5 222.5,-163.5 298.5,-163.5 298.5,-144.5 222.5,-144.5"/>
<text text-anchor="middle" x="260.5" y="-151.5" font-family="Helvetica,sans-Serif" font-size="10.00">real(kind=f64)</text>
</g>
<!-- Node4&#45;&gt;Node1 -->
<g id="edge3" class="edge"><title>Node4&#45;&gt;Node1</title>
<path fill="none" stroke="#9a32cd" stroke-dasharray="5,2" d="M248.56,-136.083C233.732,-115.262 207.46,-78.9814 183.5,-49 178.571,-42.833 172.924,-36.201 167.998,-30.5464"/>
<polygon fill="#9a32cd" stroke="#9a32cd" points="245.878,-138.351 254.518,-144.483 251.588,-134.302 245.878,-138.351"/>
<text text-anchor="middle" x="278" y="-118" font-family="Helvetica,sans-Serif" font-size="10.00"> eta_in_min</text>
<text text-anchor="middle" x="278" y="-107" font-family="Helvetica,sans-Serif" font-size="10.00">eta_max</text>
<text text-anchor="middle" x="278" y="-96" font-family="Helvetica,sans-Serif" font-size="10.00">eta_in_max</text>
<text text-anchor="middle" x="278" y="-85" font-family="Helvetica,sans-Serif" font-size="10.00">density_out_max</text>
<text text-anchor="middle" x="278" y="-74" font-family="Helvetica,sans-Serif" font-size="10.00">eta_min</text>
<text text-anchor="middle" x="278" y="-63" font-family="Helvetica,sans-Serif" font-size="10.00">density_out_min</text>
<text text-anchor="middle" x="278" y="-52" font-family="Helvetica,sans-Serif" font-size="10.00">density_in</text>
</g>
</g>
</svg>
