<?xml version="1.0" encoding="UTF-8" standalone="no"?>
<!DOCTYPE svg PUBLIC "-//W3C//DTD SVG 1.1//EN"
 "http://www.w3.org/Graphics/SVG/1.1/DTD/svg11.dtd">
<!-- Generated by graphviz version 2.38.0 (20140413.2041)
 -->
<!-- Title: sll_t_cartesian_mesh_6d Pages: 1 -->
<svg width="219pt" height="150pt"
 viewBox="0.00 0.00 218.50 150.00" xmlns="http://www.w3.org/2000/svg" xmlns:xlink="http://www.w3.org/1999/xlink">
<g id="graph0" class="graph" transform="scale(1 1) rotate(0) translate(4 146)">
<title>sll_t_cartesian_mesh_6d</title>
<polygon fill="white" stroke="none" points="-4,4 -4,-146 214.5,-146 214.5,4 -4,4"/>
<!-- Node1 -->
<g id="node1" class="node"><title>Node1</title>
<polygon fill="#bfbfbf" stroke="black" points="32,-0.5 32,-19.5 157,-19.5 157,-0.5 32,-0.5"/>
<text text-anchor="middle" x="94.5" y="-7.5" font-family="Helvetica,sans-Serif" font-size="10.00">sll_t_cartesian_mesh_6d</text>
</g>
<!-- Node2 -->
<g id="node2" class="node"><title>Node2</title>
<polygon fill="white" stroke="#bfbfbf" points="0,-122.5 0,-141.5 89,-141.5 89,-122.5 0,-122.5"/>
<text text-anchor="middle" x="44.5" y="-129.5" font-family="Helvetica,sans-Serif" font-size="10.00">integer(kind=i32)</text>
</g>
<!-- Node2&#45;&gt;Node1 -->
<g id="edge1" class="edge"><title>Node2&#45;&gt;Node1</title>
<path fill="none" stroke="#9a32cd" stroke-dasharray="5,2" d="M48.928,-112.608C53.9424,-93.3823 63.0623,-62.639 75.5,-38 78.8062,-31.4505 83.5562,-24.7005 87.4796,-19.5879"/>
<polygon fill="#9a32cd" stroke="#9a32cd" points="45.4941,-111.913 46.456,-122.464 52.2837,-113.616 45.4941,-111.913"/>
<text text-anchor="middle" x="99.5" y="-68.5" font-family="Helvetica,sans-Serif" font-size="10.00"> num_cells</text>
</g>
<!-- Node3 -->
<g id="node3" class="node"><title>Node3</title>
<polygon fill="white" stroke="#bfbfbf" points="107.5,-122.5 107.5,-141.5 183.5,-141.5 183.5,-122.5 107.5,-122.5"/>
<text text-anchor="middle" x="145.5" y="-129.5" font-family="Helvetica,sans-Serif" font-size="10.00">real(kind=f64)</text>
</g>
<!-- Node3&#45;&gt;Node1 -->
<g id="edge2" class="edge"><title>Node3&#45;&gt;Node1</title>
<path fill="none" stroke="#9a32cd" stroke-dasharray="5,2" d="M144.282,-112.356C142.297,-92.6924 137.095,-61.38 123.5,-38 119.35,-30.8639 112.719,-24.4853 106.844,-19.722"/>
<polygon fill="#9a32cd" stroke="#9a32cd" points="140.804,-112.763 145.118,-122.439 147.78,-112.184 140.804,-112.763"/>
<text text-anchor="middle" x="177" y="-96" font-family="Helvetica,sans-Serif" font-size="10.00"> eta_max</text>
<text text-anchor="middle" x="177" y="-85" font-family="Helvetica,sans-Serif" font-size="10.00">volume_eta456</text>
<text text-anchor="middle" x="177" y="-74" font-family="Helvetica,sans-Serif" font-size="10.00">volume</text>
<text text-anchor="middle" x="177" y="-63" font-family="Helvetica,sans-Serif" font-size="10.00">eta_min</text>
<text text-anchor="middle" x="177" y="-52" font-family="Helvetica,sans-Serif" font-size="10.00">volume_eta123</text>
<text text-anchor="middle" x="177" y="-41" font-family="Helvetica,sans-Serif" font-size="10.00">delta_eta</text>
</g>
</g>
</svg>
