<?xml version="1.0" encoding="UTF-8" standalone="no"?>
<!DOCTYPE svg PUBLIC "-//W3C//DTD SVG 1.1//EN"
 "http://www.w3.org/Graphics/SVG/1.1/DTD/svg11.dtd">
<!-- Generated by graphviz version 2.38.0 (20140413.2041)
 -->
<!-- Title: sll_t_init_landau_2d Pages: 1 -->
<svg width="489pt" height="172pt"
 viewBox="0.00 0.00 489.00 172.00" xmlns="http://www.w3.org/2000/svg" xmlns:xlink="http://www.w3.org/1999/xlink">
<g id="graph0" class="graph" transform="scale(1 1) rotate(0) translate(4 168)">
<title>sll_t_init_landau_2d</title>
<polygon fill="white" stroke="none" points="-4,4 -4,-168 485,-168 485,4 -4,4"/>
<!-- Node1 -->
<g id="node1" class="node"><title>Node1</title>
<polygon fill="#bfbfbf" stroke="black" points="379,-69.5 379,-88.5 481,-88.5 481,-69.5 379,-69.5"/>
<text text-anchor="middle" x="430" y="-76.5" font-family="Helvetica,sans-Serif" font-size="10.00">sll_t_init_landau_2d</text>
</g>
<!-- Node2 -->
<g id="node2" class="node"><title>Node2</title>
<g id="a_node2"><a xlink:href="structsll__m__scalar__field__initializers__base_1_1sll__c__scalar__field__2d__initializer__base.html" target="_top" xlink:title="sll_c_scalar_field\l_2d_initializer_base">
<polygon fill="white" stroke="black" points="199.5,-98 199.5,-128 301.5,-128 301.5,-98 199.5,-98"/>
<text text-anchor="start" x="207.5" y="-116" font-family="Helvetica,sans-Serif" font-size="10.00">sll_c_scalar_field</text>
<text text-anchor="middle" x="250.5" y="-105" font-family="Helvetica,sans-Serif" font-size="10.00">_2d_initializer_base</text>
</a>
</g>
</g>
<!-- Node2&#45;&gt;Node1 -->
<g id="edge1" class="edge"><title>Node2&#45;&gt;Node1</title>
<path fill="none" stroke="midnightblue" d="M311.754,-101.458C333.669,-97.2605 358.178,-92.5659 379.099,-88.5585"/>
<polygon fill="midnightblue" stroke="midnightblue" points="311.053,-98.029 301.89,-103.348 312.37,-104.904 311.053,-98.029"/>
</g>
<!-- Node3 -->
<g id="node3" class="node"><title>Node3</title>
<polygon fill="white" stroke="#bfbfbf" points="0,-135.5 0,-154.5 89,-154.5 89,-135.5 0,-135.5"/>
<text text-anchor="middle" x="44.5" y="-142.5" font-family="Helvetica,sans-Serif" font-size="10.00">integer(kind=i32)</text>
</g>
<!-- Node3&#45;&gt;Node1 -->
<g id="edge3" class="edge"><title>Node3&#45;&gt;Node1</title>
<path fill="none" stroke="#9a32cd" stroke-dasharray="5,2" d="M99.7318,-151.129C155.029,-155.6 242.72,-157.739 315,-137 353.207,-126.037 393.719,-102.049 414.633,-88.6098"/>
<polygon fill="#9a32cd" stroke="#9a32cd" points="99.721,-147.615 89.4567,-150.241 99.1182,-154.589 99.721,-147.615"/>
<text text-anchor="middle" x="250.5" y="-156" font-family="Helvetica,sans-Serif" font-size="10.00"> is_delta_f</text>
</g>
<!-- Node3&#45;&gt;Node2 -->
<g id="edge2" class="edge"><title>Node3&#45;&gt;Node2</title>
<path fill="none" stroke="#9a32cd" stroke-dasharray="5,2" d="M99.1957,-136.577C130.164,-131.719 168.855,-125.65 199.226,-120.886"/>
<polygon fill="#9a32cd" stroke="#9a32cd" points="98.3497,-133.167 89.0129,-138.174 99.4345,-140.082 98.3497,-133.167"/>
<text text-anchor="middle" x="137.5" y="-138" font-family="Helvetica,sans-Serif" font-size="10.00"> data_position</text>
</g>
<!-- Node4 -->
<g id="node4" class="node"><title>Node4</title>
<polygon fill="white" stroke="#bfbfbf" points="186,-38.5 186,-79.5 315,-79.5 315,-38.5 186,-38.5"/>
<text text-anchor="start" x="194" y="-67.5" font-family="Helvetica,sans-Serif" font-size="10.00">class(sll_c_coordinate</text>
<text text-anchor="start" x="194" y="-56.5" font-family="Helvetica,sans-Serif" font-size="10.00">_transformation_2d_base)</text>
<text text-anchor="middle" x="250.5" y="-45.5" font-family="Helvetica,sans-Serif" font-size="10.00">, pointer</text>
</g>
<!-- Node4&#45;&gt;Node1 -->
<g id="edge4" class="edge"><title>Node4&#45;&gt;Node1</title>
<path fill="none" stroke="#9a32cd" stroke-dasharray="5,2" d="M325.049,-67.2872C343.19,-69.3313 362.205,-71.4739 378.939,-73.3593"/>
<polygon fill="#9a32cd" stroke="#9a32cd" points="325.409,-63.8057 315.08,-66.164 324.625,-70.7617 325.409,-63.8057"/>
<text text-anchor="middle" x="347" y="-74" font-family="Helvetica,sans-Serif" font-size="10.00"> transf</text>
</g>
<!-- Node5 -->
<g id="node5" class="node"><title>Node5</title>
<polygon fill="white" stroke="#bfbfbf" points="212.5,-0.5 212.5,-19.5 288.5,-19.5 288.5,-0.5 212.5,-0.5"/>
<text text-anchor="middle" x="250.5" y="-7.5" font-family="Helvetica,sans-Serif" font-size="10.00">real(kind=f64)</text>
</g>
<!-- Node5&#45;&gt;Node1 -->
<g id="edge5" class="edge"><title>Node5&#45;&gt;Node1</title>
<path fill="none" stroke="#9a32cd" stroke-dasharray="5,2" d="M293.202,-22.4471C300.47,-24.6253 307.956,-26.8744 315,-29 335.459,-35.1741 341.244,-34.8521 361,-43 379.4,-50.5885 399.417,-61.5389 412.935,-69.367"/>
<polygon fill="#9a32cd" stroke="#9a32cd" points="294.071,-19.054 283.487,-19.539 292.063,-25.7599 294.071,-19.054"/>
<text text-anchor="middle" x="347" y="-57" font-family="Helvetica,sans-Serif" font-size="10.00"> eps</text>
<text text-anchor="middle" x="347" y="-46" font-family="Helvetica,sans-Serif" font-size="10.00">kx</text>
</g>
</g>
</svg>
