<?xml version="1.0" encoding="UTF-8" standalone="no"?>
<!DOCTYPE svg PUBLIC "-//W3C//DTD SVG 1.1//EN"
 "http://www.w3.org/Graphics/SVG/1.1/DTD/svg11.dtd">
<!-- Generated by graphviz version 2.43.0 (0)
 -->
<!-- Title: scalar_field_1d Pages: 1 -->
<svg width="319pt" height="154pt"
 viewBox="0.00 0.00 319.00 153.50" xmlns="http://www.w3.org/2000/svg" xmlns:xlink="http://www.w3.org/1999/xlink">
<g id="graph0" class="graph" transform="scale(1 1) rotate(0) translate(4 149.5)">
<title>scalar_field_1d</title>
<polygon fill="white" stroke="transparent" points="-4,4 -4,-149.5 315,-149.5 315,4 -4,4"/>
<!-- Node1 -->
<g id="node1" class="node">
<title>Node1</title>
<g id="a_node1"><a xlink:title=" ">
<polygon fill="#bfbfbf" stroke="black" points="222,-69 222,-88 311,-88 311,-69 222,-69"/>
<text text-anchor="middle" x="266.5" y="-76" font-family="Helvetica,sans-Serif" font-size="10.00">scalar_field_1d</text>
</a>
</g>
</g>
<!-- Node2 -->
<g id="node2" class="node">
<title>Node2</title>
<g id="a_node2"><a xlink:title=" ">
<polygon fill="white" stroke="#bfbfbf" points="6.5,-126 6.5,-145 109.5,-145 109.5,-126 6.5,-126"/>
<text text-anchor="middle" x="58" y="-133" font-family="Helvetica,sans-Serif" font-size="10.00">integer(kind=i32)</text>
</a>
</g>
</g>
<!-- Node2&#45;&gt;Node1 -->
<g id="edge1" class="edge">
<title>Node2&#45;&gt;Node1</title>
<path fill="none" stroke="#9a32cd" stroke-dasharray="5,2" d="M119.43,-125.24C145.71,-120.09 176.68,-113.11 204,-104.5 218.26,-100.01 233.77,-93.44 245.64,-88.03"/>
<polygon fill="#9a32cd" stroke="#9a32cd" points="118.77,-121.8 109.6,-127.12 120.08,-128.67 118.77,-121.8"/>
<text text-anchor="middle" x="169" y="-124.5" font-family="Helvetica,sans-Serif" font-size="10.00"> data_position</text>
</g>
<!-- Node3 -->
<g id="node3" class="node">
<title>Node3</title>
<g id="a_node3"><a xlink:title=" ">
<polygon fill="white" stroke="#bfbfbf" points="5.5,-88 5.5,-107 110.5,-107 110.5,-88 5.5,-88"/>
<text text-anchor="middle" x="58" y="-95" font-family="Helvetica,sans-Serif" font-size="10.00">character(len=64)</text>
</a>
</g>
</g>
<!-- Node3&#45;&gt;Node1 -->
<g id="edge2" class="edge">
<title>Node3&#45;&gt;Node1</title>
<path fill="none" stroke="#9a32cd" stroke-dasharray="5,2" d="M120.89,-91.81C153.44,-88.81 192.56,-85.21 221.9,-82.51"/>
<polygon fill="#9a32cd" stroke="#9a32cd" points="120.21,-88.35 110.58,-92.75 120.85,-95.32 120.21,-88.35"/>
<text text-anchor="middle" x="169" y="-92.5" font-family="Helvetica,sans-Serif" font-size="10.00"> name</text>
</g>
<!-- Node4 -->
<g id="node4" class="node">
<title>Node4</title>
<g id="a_node4"><a xlink:title=" ">
<polygon fill="white" stroke="#bfbfbf" points="14,-50 14,-69 102,-69 102,-50 14,-50"/>
<text text-anchor="middle" x="58" y="-57" font-family="Helvetica,sans-Serif" font-size="10.00">real(kind=f64)</text>
</a>
</g>
</g>
<!-- Node4&#45;&gt;Node1 -->
<g id="edge3" class="edge">
<title>Node4&#45;&gt;Node1</title>
<path fill="none" stroke="#9a32cd" stroke-dasharray="5,2" d="M112.39,-62.2C139.82,-63.84 173.74,-66.25 204,-69.5 209.79,-70.12 215.88,-70.88 221.88,-71.7"/>
<polygon fill="#9a32cd" stroke="#9a32cd" points="112.41,-58.7 102.22,-61.61 112,-65.69 112.41,-58.7"/>
<text text-anchor="middle" x="169" y="-72.5" font-family="Helvetica,sans-Serif" font-size="10.00"> data</text>
</g>
<!-- Node5 -->
<g id="node5" class="node">
<title>Node5</title>
<g id="a_node5"><a xlink:title=" ">
<polygon fill="white" stroke="#bfbfbf" points="0,-0.5 0,-30.5 116,-30.5 116,-0.5 0,-0.5"/>
<text text-anchor="start" x="8" y="-18.5" font-family="Helvetica,sans-Serif" font-size="10.00">class(sll_t_cartesian</text>
<text text-anchor="middle" x="58" y="-7.5" font-family="Helvetica,sans-Serif" font-size="10.00">_mesh_1d), pointer</text>
</a>
</g>
</g>
<!-- Node5&#45;&gt;Node1 -->
<g id="edge4" class="edge">
<title>Node5&#45;&gt;Node1</title>
<path fill="none" stroke="#9a32cd" stroke-dasharray="5,2" d="M126.36,-27.46C151.13,-32.74 179.17,-39.75 204,-48.5 219.57,-53.99 236.37,-62.36 248.46,-68.87"/>
<polygon fill="#9a32cd" stroke="#9a32cd" points="126.83,-23.99 116.32,-25.38 125.4,-30.84 126.83,-23.99"/>
<text text-anchor="middle" x="169" y="-51.5" font-family="Helvetica,sans-Serif" font-size="10.00"> mesh</text>
</g>
</g>
</svg>
