<?xml version="1.0" encoding="UTF-8" standalone="no"?>
<!DOCTYPE svg PUBLIC "-//W3C//DTD SVG 1.1//EN"
 "http://www.w3.org/Graphics/SVG/1.1/DTD/svg11.dtd">
<!-- Generated by graphviz version 2.43.0 (0)
 -->
<!-- Title: sll_c_poisson_2d_base Pages: 1 -->
<svg width="435pt" height="95pt"
 viewBox="0.00 0.00 434.50 95.00" xmlns="http://www.w3.org/2000/svg" xmlns:xlink="http://www.w3.org/1999/xlink">
<g id="graph0" class="graph" transform="scale(1 1) rotate(0) translate(4 91)">
<title>sll_c_poisson_2d_base</title>
<polygon fill="white" stroke="transparent" points="-4,4 -4,-91 430.5,-91 430.5,4 -4,4"/>
<!-- Node1 -->
<g id="node1" class="node">
<title>Node1</title>
<g id="a_node1"><a xlink:title="PLEASE ADD DOCUMENTATION.">
<polygon fill="#bfbfbf" stroke="black" points="147.5,-67.5 147.5,-86.5 274.5,-86.5 274.5,-67.5 147.5,-67.5"/>
<text text-anchor="middle" x="211" y="-74.5" font-family="Helvetica,sans-Serif" font-size="10.00">sll_c_poisson_2d_base</text>
</a>
</g>
</g>
<!-- Node2 -->
<g id="node2" class="node">
<title>Node2</title>
<g id="a_node2"><a xlink:href="structsll__m__poisson__2d__mudpack__curvilinear_1_1poisson__2d__mudpack__curvilinear.html" target="_top" xlink:title="Derived type to solve Poisson equation on 2d curvilinear mesh.">
<polygon fill="white" stroke="black" points="0,-0.5 0,-30.5 122,-30.5 122,-0.5 0,-0.5"/>
<text text-anchor="start" x="8" y="-18.5" font-family="Helvetica,sans-Serif" font-size="10.00">poisson_2d_mudpack</text>
<text text-anchor="middle" x="61" y="-7.5" font-family="Helvetica,sans-Serif" font-size="10.00">_curvilinear</text>
</a>
</g>
</g>
<!-- Node1&#45;&gt;Node2 -->
<g id="edge1" class="edge">
<title>Node1&#45;&gt;Node2</title>
<path fill="none" stroke="midnightblue" d="M180.04,-63.72C155.69,-54.06 121.76,-40.6 96.35,-30.52"/>
<polygon fill="midnightblue" stroke="midnightblue" points="178.92,-67.04 189.51,-67.48 181.5,-60.53 178.92,-67.04"/>
</g>
<!-- Node3 -->
<g id="node3" class="node">
<title>Node3</title>
<g id="a_node3"><a xlink:href="structsll__m__poisson__2d__periodic_1_1sll__t__poisson__2d__periodic.html" target="_top" xlink:title=" ">
<polygon fill="white" stroke="black" points="140.5,-6 140.5,-25 281.5,-25 281.5,-6 140.5,-6"/>
<text text-anchor="middle" x="211" y="-13" font-family="Helvetica,sans-Serif" font-size="10.00">sll_t_poisson_2d_periodic</text>
</a>
</g>
</g>
<!-- Node1&#45;&gt;Node3 -->
<g id="edge2" class="edge">
<title>Node1&#45;&gt;Node3</title>
<path fill="none" stroke="midnightblue" d="M211,-57.32C211,-46.5 211,-33.4 211,-25.01"/>
<polygon fill="midnightblue" stroke="midnightblue" points="207.5,-57.48 211,-67.48 214.5,-57.48 207.5,-57.48"/>
</g>
<!-- Node4 -->
<g id="node4" class="node">
<title>Node4</title>
<g id="a_node4"><a xlink:href="structsll__m__poisson__2d__polar_1_1sll__t__poisson__2d__polar.html" target="_top" xlink:title="Class for the Poisson solver in polar coordinate.">
<polygon fill="white" stroke="black" points="299.5,-6 299.5,-25 426.5,-25 426.5,-6 299.5,-6"/>
<text text-anchor="middle" x="363" y="-13" font-family="Helvetica,sans-Serif" font-size="10.00">sll_t_poisson_2d_polar</text>
</a>
</g>
</g>
<!-- Node1&#45;&gt;Node4 -->
<g id="edge3" class="edge">
<title>Node1&#45;&gt;Node4</title>
<path fill="none" stroke="midnightblue" d="M242.21,-63.78C271.75,-52.22 315.32,-35.16 341.26,-25.01"/>
<polygon fill="midnightblue" stroke="midnightblue" points="240.81,-60.57 232.78,-67.48 243.37,-67.09 240.81,-60.57"/>
</g>
</g>
</svg>
