<?xml version="1.0" encoding="UTF-8" standalone="no"?>
<!DOCTYPE svg PUBLIC "-//W3C//DTD SVG 1.1//EN"
 "http://www.w3.org/Graphics/SVG/1.1/DTD/svg11.dtd">
<!-- Generated by graphviz version 2.43.0 (0)
 -->
<!-- Title: sll_t_init_tsi_2d Pages: 1 -->
<svg width="521pt" height="180pt"
 viewBox="0.00 0.00 521.00 180.00" xmlns="http://www.w3.org/2000/svg" xmlns:xlink="http://www.w3.org/1999/xlink">
<g id="graph0" class="graph" transform="scale(1 1) rotate(0) translate(4 176)">
<title>sll_t_init_tsi_2d</title>
<polygon fill="white" stroke="transparent" points="-4,4 -4,-176 517,-176 517,4 -4,4"/>
<!-- Node1 -->
<g id="node1" class="node">
<title>Node1</title>
<g id="a_node1"><a xlink:title=" ">
<polygon fill="#bfbfbf" stroke="black" points="421,-90.5 421,-109.5 513,-109.5 513,-90.5 421,-90.5"/>
<text text-anchor="middle" x="467" y="-97.5" font-family="Helvetica,sans-Serif" font-size="10.00">sll_t_init_tsi_2d</text>
</a>
</g>
</g>
<!-- Node2 -->
<g id="node2" class="node">
<title>Node2</title>
<g id="a_node2"><a xlink:href="structsll__m__scalar__field__initializers__base_1_1sll__c__scalar__field__2d__initializer__base.html" target="_top" xlink:title=" ">
<polygon fill="white" stroke="black" points="224.5,-108 224.5,-138 337.5,-138 337.5,-108 224.5,-108"/>
<text text-anchor="start" x="232.5" y="-126" font-family="Helvetica,sans-Serif" font-size="10.00">sll_c_scalar_field</text>
<text text-anchor="middle" x="281" y="-115" font-family="Helvetica,sans-Serif" font-size="10.00">_2d_initializer_base</text>
</a>
</g>
</g>
<!-- Node2&#45;&gt;Node1 -->
<g id="edge1" class="edge">
<title>Node2&#45;&gt;Node1</title>
<path fill="none" stroke="midnightblue" d="M347.91,-114.76C372.13,-111.73 399,-108.38 420.97,-105.63"/>
<polygon fill="midnightblue" stroke="midnightblue" points="347.19,-111.32 337.71,-116.04 348.06,-118.27 347.19,-111.32"/>
</g>
<!-- Node3 -->
<g id="node3" class="node">
<title>Node3</title>
<g id="a_node3"><a xlink:title=" ">
<polygon fill="white" stroke="#bfbfbf" points="0,-139.5 0,-158.5 103,-158.5 103,-139.5 0,-139.5"/>
<text text-anchor="middle" x="51.5" y="-146.5" font-family="Helvetica,sans-Serif" font-size="10.00">integer(kind=i32)</text>
</a>
</g>
</g>
<!-- Node3&#45;&gt;Node1 -->
<g id="edge3" class="edge">
<title>Node3&#45;&gt;Node1</title>
<path fill="none" stroke="#9a32cd" stroke-dasharray="5,2" d="M113.51,-156.48C174.85,-162.21 271.71,-166.39 353,-148 388.76,-139.91 427.48,-121.02 449.04,-109.5"/>
<polygon fill="#9a32cd" stroke="#9a32cd" points="113.53,-152.96 103.23,-155.47 112.84,-159.93 113.53,-152.96"/>
<text text-anchor="middle" x="281" y="-164" font-family="Helvetica,sans-Serif" font-size="10.00"> is_delta_f</text>
</g>
<!-- Node3&#45;&gt;Node2 -->
<g id="edge2" class="edge">
<title>Node3&#45;&gt;Node2</title>
<path fill="none" stroke="#9a32cd" stroke-dasharray="5,2" d="M113.22,-142.06C147.71,-138.12 190.56,-133.22 224.2,-129.38"/>
<polygon fill="#9a32cd" stroke="#9a32cd" points="112.81,-138.58 103.27,-143.2 113.61,-145.54 112.81,-138.58"/>
<text text-anchor="middle" x="156" y="-143" font-family="Helvetica,sans-Serif" font-size="10.00"> data_position</text>
</g>
<!-- Node4 -->
<g id="node4" class="node">
<title>Node4</title>
<g id="a_node4"><a xlink:title=" ">
<polygon fill="white" stroke="#bfbfbf" points="209,-47.5 209,-88.5 353,-88.5 353,-47.5 209,-47.5"/>
<text text-anchor="start" x="217" y="-76.5" font-family="Helvetica,sans-Serif" font-size="10.00">class(sll_c_coordinate</text>
<text text-anchor="start" x="217" y="-65.5" font-family="Helvetica,sans-Serif" font-size="10.00">_transformation_2d_base)</text>
<text text-anchor="middle" x="281" y="-54.5" font-family="Helvetica,sans-Serif" font-size="10.00">, pointer</text>
</a>
</g>
</g>
<!-- Node4&#45;&gt;Node1 -->
<g id="edge4" class="edge">
<title>Node4&#45;&gt;Node1</title>
<path fill="none" stroke="#9a32cd" stroke-dasharray="5,2" d="M363.1,-82.1C382.9,-85.55 403.39,-89.11 420.82,-92.14"/>
<polygon fill="#9a32cd" stroke="#9a32cd" points="363.59,-78.64 353.14,-80.37 362.39,-85.53 363.59,-78.64"/>
<text text-anchor="middle" x="387" y="-91" font-family="Helvetica,sans-Serif" font-size="10.00"> transf</text>
</g>
<!-- Node5 -->
<g id="node5" class="node">
<title>Node5</title>
<g id="a_node5"><a xlink:title=" ">
<polygon fill="white" stroke="#bfbfbf" points="237,-0.5 237,-19.5 325,-19.5 325,-0.5 237,-0.5"/>
<text text-anchor="middle" x="281" y="-7.5" font-family="Helvetica,sans-Serif" font-size="10.00">real(kind=f64)</text>
</a>
</g>
</g>
<!-- Node5&#45;&gt;Node1 -->
<g id="edge5" class="edge">
<title>Node5&#45;&gt;Node1</title>
<path fill="none" stroke="#9a32cd" stroke-dasharray="5,2" d="M335.44,-14.7C357.4,-18.31 382.44,-24.7 403,-36 427.87,-49.67 449.22,-76.25 459.48,-90.47"/>
<polygon fill="#9a32cd" stroke="#9a32cd" points="335.68,-11.19 325.28,-13.18 334.65,-18.12 335.68,-11.19"/>
<text text-anchor="middle" x="387" y="-72" font-family="Helvetica,sans-Serif" font-size="10.00"> eps</text>
<text text-anchor="middle" x="387" y="-61" font-family="Helvetica,sans-Serif" font-size="10.00">kx</text>
<text text-anchor="middle" x="387" y="-50" font-family="Helvetica,sans-Serif" font-size="10.00">v0</text>
<text text-anchor="middle" x="387" y="-39" font-family="Helvetica,sans-Serif" font-size="10.00">xi</text>
</g>
</g>
</svg>
